<svg xmlns="http://www.w3.org/2000/svg" width="256" height="154"><path fill="#64AF43" d="M0 0h256v154H0V0Z"/><path fill="#376523" d="M138 47h3v4h4v2h-5c.599 2.352 1.27 4.686 2 7l2 1v3l-16 1 2 10 7 1v-3h4l-1 6h2v-3h7l-1-1a225.9 225.9 0 0 1-.563-8.063l-.13-2.298c-.107-1.88-.207-3.76-.307-5.639h8v3h4v3h-5v6h2l1 5h7v-3h4c-.25 1.875-.25 1.875-1 4-2.063 1.25-2.063 1.25-4 2v3h4v4h4l1-7h-3v-3c3.376.307 5.509.632 8.25 2.688 3.275 4.328 3.95 7.88 3.375 13.187-.195 1.377-.4 2.753-.625 4.125l8-1v-4h68v63H0V91l15.574-.148c3.259-.036 6.517-.072 9.776-.11 5.17-.06 10.34-.118 15.511-.164a3260.7 3260.7 0 0 0 12.508-.136c1.59-.019 3.179-.034 4.768-.045a997.9 997.9 0 0 0 6.686-.078l3.842-.04C71.868 90.01 74.12 89.376 77 88v3l-3 1-1 3 9-1 .156-2.3c.352-3.085.786-5.778 1.844-8.7 2.477-1.943 4.933-2.478 8-3l3-.688L97 79v5h4v4c2.948-.48 2.948-.48 6-2 1.44-2.285 2.136-4.407 3-7h-3l1-3h3v-3h4v3l6-1 1-3h2v-7h-3v-3h3v-3h4v3l10-2v-6h-4v-4h3l1-3Z"/><path fill="#F8F8F8" d="M111 28v8l5 1-1-7c7.215-.355 13.124.84 20 3l1 4h7v-2c18.368-.767 18.368-.767 27 4l2.156 1.156c1.637.91 3.245 1.87 4.844 2.844v4h-2v3h10c.125 7.75.125 7.75-1 10l-7-1v2h-3v4h4v9l3.438.938C185 76 185 76 186 77c.072 1.853.084 3.708.063 5.563l-.028 3.066L186 88h-3v2h3l-1 6h-5l.14-2.195c.174-4.653.218-8.002-1.702-12.305-3.012-3.09-5.388-4.098-9.438-5.5v3h3v7l-3 1-2-1v-4l-4 1-1-4 2.438-1.313c2.84-1.492 2.84-1.492 3.562-4.687h-4v3h-4l-1 2c-1.5-1.25-1.5-1.25-3-3v-4h-2v-6h5v-3h-4v-3l-7 1v15l2 1c-3.287.8-4.71 1.097-8 0v3h-2l1-6h-4v3h-10l3-1-1-2.188c-1.006-2.829-1.17-4.841-1-7.812 3.674-.853 7.045-1.108 10.813-1.063l2.957.028L144 64v-3l-3-1-1-7h5v-2h-4v-4c-3.118.646-3.118.646-4 3h-3v4h4v6c-3.402 2.094-6.053 2.18-10 2v-3h-4v3h-3v3h3c.37 6.523.37 6.523-1.5 8.938L121 75l3 1h-9v-3h-4v3l-3 1-1 2h3c-1.75 6.75-1.75 6.75-4 9-2.625.125-2.625.125-5 0v-4h-4v-5c-4.305.834-8.166 1.835-12 4-1.924 3.565-2.585 6.992-3 11l-9 1 1-4h3v-7h2v-4c6.75-4 6.75-4 9-4v2h3v-3l-11-2v-2h-7a559.991 559.991 0 0 1-.063-4.313l-.035-2.425C73 62 73 62 74 59h-3l.254 1.863.308 2.45.317 2.425C72 68 72 68 71 71c-5.604 2.878-11.874 2.178-18 2v-2h2v-2h-6v-8l4-1 1 2h6l-.563-3.125C60 55 60 55 61.898 53.199 68.092 49 68.092 49 72 49v3l2-1-.5-2c-.622-3.731-.564-7.219-.5-11l5 1v-4h-3l1-3h8l1 5 4 1-2-3v-4c7.806-3.903 15.488-3.279 24-3Z"/><path fill="#F5F5F4" d="M111 28v8l5 1-1-7c7.215-.355 13.124.84 20 3l1 4h7v-2c2.73-.054 5.458-.094 8.188-.125l2.33-.05c4.297-.038 7.561.18 11.482 2.175-3.75 1.125-3.75 1.125-6 0v3h-4l.938 2.75c.78 2.388 1.453 4.812 2.062 7.25h-10v-3l2-1c.658-3.03.658-3.03 1-6h-5v-3h-2v2l-16 1 2 6v4c-5.75.125-5.75.125-8-1l2-9-2.438.063C119 40 119 40 118 39a224.63 224.63 0 0 0-8.563.438l-2.443.158c-1.998.13-3.996.266-5.994.404l2 9-9 1v-3l2-1c.658-3.03.658-3.03 1-6h-5v6h-2l-1 4 3 1v3h-4c-.074 3.343-.065 5.804 1 9l-4 1-1 5-3 1 1 3h-2v-2h-7a559.991 559.991 0 0 1-.063-4.313l-.035-2.425C73 62 73 62 74 59h-3l.254 1.863.308 2.45.317 2.425C72 68 72 68 71 71c-5.604 2.878-11.874 2.178-18 2v-2h2v-2h-6v-8l4-1 1 2h6l-.563-3.125C60 55 60 55 61.898 53.199 68.092 49 68.092 49 72 49v3l2-1-.5-2c-.622-3.731-.564-7.219-.5-11l5 1v-4h-3l1-3h8l1 5 4 1-2-3v-4c7.806-3.903 15.488-3.279 24-3Z"/><path fill="#63A944" d="M138 47h3v4h4v2h-5c.599 2.352 1.27 4.686 2 7l2 1v3l-16 1 2 10 7 1v-3h4l-1 6h2v-3h7l-1-1a225.9 225.9 0 0 1-.563-8.063l-.13-2.298c-.107-1.88-.207-3.76-.307-5.639h8v3h4v3h-5v6h2l1 5h7v-3h4c-.25 1.875-.25 1.875-1 4-2.063 1.25-2.063 1.25-4 2v3h4v2h-2v5h2c-1.575 4.462-3.594 9.797-8 12-2 .04-4 .043-6 0v-2h3l-.188-2.313C156 94 156 94 159 91l-52-1-3 8-6-1 1 5h-5c.499-2.244 1.105-4.25 2-6.375 1.092-2.866 1.577-5.594 2-8.625h2v-2h-3v6H83l1-8c8.429-3.286 8.429-3.286 13-4v5h4v4c2.948-.48 2.948-.48 6-2 1.44-2.285 2.136-4.407 3-7h-3l1-3h3v-3h4v3l6-1 1-3h2v-7h-3v-3h3v-3h4v3l10-2v-6h-4v-4h3l1-3Z"/><path fill="#F3F3F1" d="M110 48h5v2h3v4h-3v6l2 1v3h-3l1.563 2.625c1.605 3.769 1.456 5.484.437 9.375l-1-3h-4v3l-3 1-1 2h3c-1.75 6.75-1.75 6.75-4 9-2.625.125-2.625.125-5 0v-4h-4v-5c-4.305.834-8.166 1.835-12 4-1.924 3.565-2.585 6.992-3 11l-9 1 1-4h3v-7h2v-4c6.75-4 6.75-4 9-4v2h3v-2h2v-3h3l2-9-4 1v-3h3v-3h5v2l3 1 1 2h2v-3l2-1c.658-3.03.658-3.03 1-6h-4v-4h3v-2Z"/><path fill="#F5F5F4" d="m80 38 9 1c.125 6.75.125 6.75-1 9h-4v3h-4v3h4v6l-3 1v3h2c-.573 2.867-.861 3.861-3 6-3.125.125-3.125.125-6 0v-5h4v-4h-3v-2h-4l.254 1.863.308 2.45.317 2.425C72 68 72 68 71 71c-5.604 2.878-11.874 2.178-18 2v-2h2v-2h-6v-8l4-1 1 2h6l-.563-3.125C60 55 60 55 61.898 53.199 68.092 49 68.092 49 72 49v3h6l-.5-3.188c-.396-3.017-.592-5.783-.5-8.812h3v-2Z"/><path fill="#B3B8AC" d="M111 28v1l-3.035.148-4.028.227c-1.31.07-2.621.14-3.972.21C96.019 29.999 92.759 30.799 89 32l.984 1.688c1.152 2.622 1.283 4.46 1.266 7.312l.016 2.563C90.986 46.135 90.295 47.78 89 50l3 1v3h-4c-.074 3.343-.065 5.804 1 9l-4 1-1 5-3 1 1 3h-2v-2h-7a280.282 280.282 0 0 1-.125-4.313l-.07-2.425C73 62 73 62 75 59v2h3v4h-4v5c4.955-.875 4.955-.875 8.438-4.125L83 64h-2v-3l2-1c.658-3.03.658-3.03 1-6h-4v-3h4v-3h4l1-9-9-1v2h-3l.219 2.117.281 2.758.281 2.742C78 50 78 50 78 52l-4-1c-1.102-4.41-1.077-8.484-1-13l5 1v-4h-3l1-3h8l1 5 4 1-2-3v-4c7.806-3.903 15.488-3.279 24-3Z"/><path fill="#E7E7E6" d="M124 31c1.438.115 2.876.242 4.313.375l2.425.21C133 32 133 32 136 34v3h7v-2c2.73-.054 5.458-.094 8.188-.125l2.33-.05c4.297-.038 7.561.18 11.482 2.175-3.75 1.125-3.75 1.125-6 0v3h-4l.938 2.75c.78 2.388 1.453 4.812 2.062 7.25h-10v-3l2-1c.658-3.03.658-3.03 1-6h-5v-3h-2v2l-16 1 2 6v4c-5.75.125-5.75.125-8-1l2-9-4-1v-2h4v-6Z"/><path fill="#A5A89C" d="M97 59h5v2l3 1v3h-4l2 10h-7l1 4-2.52.488C91.001 80.36 88.13 81.233 85 83c-1.924 3.565-2.585 6.992-3 11l-9 1 1-4h3v-7h2v-4c6.75-4 6.75-4 9-4v2h3v-2h2v-3h3l2-9-4 1v-3h3v-3Z"/><path fill="#C1C2BE" d="M176 68h2v6l3.438.938C185 76 185 76 186 77c.072 1.853.084 3.708.063 5.563l-.028 3.066L186 88h-3v2h3l-1 6h-5l.14-2.195c.174-4.653.218-8.002-1.702-12.305-3.012-3.09-5.388-4.098-9.438-5.5v3h3v7l-3 1-2-1v-4l-4 1-1-4 2.375-1.313c2.842-1.58 2.842-1.58 4.625-4.687v2h3l.875-1.813C174 71 174 71 176 68Z"/><path fill="#C1C0B7" d="M70 59c2.236 3.353 2.173 3.907 1.625 7.688l-.336 2.449L71 71c-5.879 2.613-11.707 2.183-18 2v-2h2v-2h-6v-8l4-1 1 2c3.343.074 5.804.065 9-1 2.34.278 4.676.605 7 1v-3Z"/><path fill="#B7B7B7" d="M138 47h3v4h4v2h-5c.599 2.352 1.27 4.686 2 7l2 1v3l-16 1 .75 4.875.422 2.742c.697 2.899.697 2.899 4.828 4.383h-16l3-2 1-3h2v-7h-3v-3h3v-3h4v3l10-2v-6h-4v-4h3l1-3Z"/><path fill="#F9F9F8" d="m172 63 1 2h5c0 3 0 3-2.438 5.563L173 73l-1 2h-3v-2h-5v3h-4l-1 2c-1.5-1.25-1.5-1.25-3-3v-4h-2v-6l18-2Z"/><path fill="#DCDBD7" d="m89 61 1 2 4-1v3l5-2c-.75 6.625-.75 6.625-3 10h-3v3a367.114 367.114 0 0 1-5.438-1.313l-3.058-.738L82 73l-1-3 3-2c.724-2.06.724-2.06 1-4l4-1v-2Z"/><path fill="#A1A29F" d="M143 35c2.73-.054 5.458-.094 8.188-.125.768-.017 1.537-.034 2.33-.05 4.297-.038 7.561.18 11.482 2.175-3.75 1.125-3.75 1.125-6 0v3h-4l.938 2.75c.78 2.388 1.453 4.812 2.062 7.25h-10v-3l2-1c.658-3.03.658-3.03 1-6h-5v-3l-2 1c-1.54.07-3.083.085-4.625.063l-2.477-.028L135 38l1-2 7 1v-2Z"/><path fill="#63A745" d="M97 79v5l2 1h-2v6H83l1-8 3.813-1.438 2.144-.808C94.71 79 94.71 79 97 79Z"/><path fill="#CAC9C2" d="m80 38 9 1c.125 6.75.125 6.75-1 9h-4v3h-4l-1 2c-1.784-3.062-2.229-5.22-2.125-8.75l.055-2.422L77 40h3v-2Z"/><path fill="#ACACAC" d="M97 33h4v4h4v3h-4l2 9-9 1v-3l2-1c.658-3.03.658-3.03 1-6l-4-1 1-3h2l1-3Z"/><path fill="#55953A" d="m106 89 54 1c-3 3-3 3-5.297 3.323-.9-.025-1.799-.05-2.725-.074l-3.094-.062-3.333-.113-3.418-.08a1797.22 1797.22 0 0 1-10.82-.306c-2.444-.064-4.887-.126-7.33-.186A3521.56 3521.56 0 0 1 106 92v-3Z"/><path fill="#7F9369" d="m174 41 4 1v7l2.195-.035c10.778-.1 10.778-.1 14.805 1.035 2.458 3.687 3.012 6.697 4 11h2v3h-2c-5-5.238-5-5.238-5-10h-2v5l-4-1v-2h2l-1-4h-3v6h-1v-8h-10v-3h2v-4l-3-1v-1Z"/><path fill="#AAA" d="m165 47 4 1v2h3v4h-4l2 9c-3.287.8-4.71 1.097-8 0l2-9h-3v-3h3l1-4Z"/><path fill="#BFBEB8" d="M147 59h8v3h4v3h-5v4l-3 2-1 3h2v3c-3-1-3-1-4-2a225.9 225.9 0 0 1-.563-8.063l-.13-2.298c-.107-1.88-.207-3.76-.307-5.639Z"/><path fill="#F3F3F2" d="M115 30h9v2l4 1h-4v4h-4l1 3-3-1c-2.232.086-4.462.24-6.688.438l-3.574.308L105 40l1-3c2.563-1.188 2.563-1.188 5-2v1l5 1-1-7Z"/><path fill="#63AC43" d="M169 76c3.289.299 5.564.725 8.375 2.5 2.49 3.832 1.89 6.988 1.625 11.5h-9l2-11h-3v-3Z"/><path fill="#A9A9A9" d="M110 48h5v2h3v4h-3c-.074 3.343-.065 5.804 1 9h-7l2-9h-4v-4h3v-2Z"/><path fill="#90A281" d="M152 69h2v2h2l1 5h7v-3h4c-.25 1.875-.25 1.875-1 4-1.938 1.125-1.938 1.125-4 2l-2 2-2.375-.938c-4.524-1.325-8.94-1.71-13.625-2.062v-1h7v-3h-2c.875-3.875.875-3.875 2-5Z"/><path fill="#4B8631" d="M77 88v3l-3 1-2 2v-2H0v-1l2.713-.025c8.432-.077 16.863-.165 25.294-.263 4.335-.05 8.67-.096 13.005-.134 4.182-.037 8.364-.083 12.546-.136 1.597-.019 3.194-.034 4.79-.045 2.235-.017 4.468-.046 6.702-.078l3.856-.04C72.22 89.98 73.84 88 77 88Z"/><path fill="#F6F6F5" d="M164.875 88.125 167 89c-1.575 4.462-3.594 9.797-8 12-2 .04-4 .043-6 0v-2h3l-.375-2.125c.492-3.769 1.982-5.243 4.707-7.781C162 88 162 88 164.875 88.125Z"/><path fill="#5C8447" d="m178 83 3 2-1 11-4 1v-3h3v-2l-14 1 2-4h-2v-2l-2-1h2v-2h2v2l4 1v2l8 1-1-7Z"/><path fill="gray" d="M97 59h5v2l3 1v3h-4l1 9h-5l1-10-4 1v-3h3v-3Z"/><path fill="#939786" d="M70 59c2.236 3.353 2.173 3.907 1.625 7.688l-.336 2.449L71 71h-1v-6l-3.688 1.438C63.227 67.599 60.27 68.489 57 69l-1-4h6v-2l-2-1c3.694-1.231 6.206-.644 10 0v-3Z"/><path fill="gray" d="M138 47h3v4h4v2h-5l1 10-4-1 1-8h-4v-4h3l1-3Z"/><path fill="#8F9289" d="M99 84h2c1.757 4.504 2.193 8.176 2 13h-5l1 5h-5c.499-2.244 1.105-4.25 2-6.375 1.092-2.866 1.577-5.594 2-8.625h2l-1-3Z"/><path fill="#B6B6AE" d="m74 59 1 2h3v4h-4v5c4.955-.875 4.955-.875 8.438-4.125L83 64h-2v-3l3-1v3l3 1h-2l-1 5-3 1 1 3h-2v-2h-7a559.991 559.991 0 0 1-.063-4.313l-.035-2.425C73 62 73 62 74 59Z"/><path fill="#739164" d="M137 73h4l-1 6h2v-3l3 1h-2v4h-6v-2l-19-1v-1l19-1v-3Z"/><path fill="#488331" d="m206 64 2 4c-3.797 2.826-6.186 4.566-11 4l-1-4 3-1v-2c2.463-1.231 4.28-1.072 7-1Z"/><path fill="#F8F7F6" d="M70 65c.043 2 .04 4 0 6-1 1-1 1-3.941 1.098l-3.621-.035-3.63-.028L56 72v-2a485.856 485.856 0 0 1 4.75-2.5l2.672-1.406C66 65 66 65 70 65Z"/><path fill="#BBBCB3" d="M185 77h1v11h-3v2h3l-1 6h-5l.035-2.266.028-2.984.035-2.953c-.086-2.455-.39-4.459-1.098-6.797 1.5 1.313 1.5 1.313 3 3v3h3V77Z"/><path fill="#A3A3A3" d="M84 48h3l.184 2.52.254 3.292.246 3.27C87.902 60.06 87.902 60.06 89 63h-5v-9h-4v-3h4v-3Z"/><path fill="#ADB1A2" d="m79 80 2 1-1 5h-2c.348 1.975.348 1.975 1 4l2 1 .375-2.438L82 86l2-1-2 9-9 1 1-4h3v-7h2v-4Z"/><path fill="#6F8263" d="M170 39c5.094.432 8.845.754 13 4v2h2l1 4h-8v-7l-8-2v-1Z"/><path fill="#F0F0EE" d="M85 64h4v7h2v3l-9-1-1-3 3-2c.724-2.06.724-2.06 1-4Z"/><path fill="#7D7D7D" d="M124 34h4v3h3v2h-4l1 9h-4l2-10-5 2-1-3h4v-3Z"/><path fill="#F6F6F4" d="m81 38 8 1v7l-5 1c-2.294-3.44-3-4.723-3-9Z"/><path fill="#BABABA" d="m97 33 4 1h-3l.563 3.625c.482 3.677.047 6.718-.563 10.375l2 2h-6v-3l2-1c.658-3.03.658-3.03 1-6l-4-1 1-3h2l1-3Z"/><path fill="#B2B2B1" d="m177 59 7 1c-3.75 6.875-3.75 6.875-6 8v-3h-4v-4h3v-2Z"/><path fill="#A1A09E" d="M147 59h8v3h4v3h-4v-2l-2.313 1C150 65 150 65 147 65v-6Z"/><path fill="#F9F9F7" d="M176 76c2.333-.042 4.667-.04 7 0 1 1 1 1 1.098 3.066l-.036 2.496-.027 2.504L184 86c-2-1.375-2-1.375-4-3v-2l-3-1c-.688-2.063-.688-2.063-1-4Z"/><path fill="#CCCAC4" d="m108 61 1 2h7l1-2v3h-3l1.563 2.625c1.605 3.769 1.456 5.484.437 9.375l-1-3c-2.015-.733-2.015-.733-4-1h2l-1-8h-4v-3Z"/><path fill="#727268" d="M60 55c.38 2.326.713 4.66 1 7-1 1-1 1-4.063 1.063L54 63l-1-3-2-1c1.311-.67 2.624-1.335 3.938-2l2.214-1.125C59 55 59 55 60 55Z"/><path fill="#6C8F57" d="m185 76 3 1v18h-3l1-5h-3v-2h3l-1-12Z"/><path fill="#B8B8B8" d="m131 37 1 3h-4l1 2.75c1 3.25 1 3.25 1 7.25-5.75.125-5.75.125-8-1 .141-1.459.288-2.917.438-4.375.08-.812.162-1.624.246-2.46C123 40 123 40 124 38h2l-1 10h2v-9h4v-2Z"/><path fill="#EAEAE8" d="M85 78c-.75 6.75-.75 6.75-3 9-.643 2.069-.643 2.069-1 4l-3-1v-4h2l1-7c3-1 3-1 4-1Z"/><path fill="#BDBBB5" d="M73 40h4c.168 1.625.334 3.25.5 4.875l.281 2.742C78 50 78 50 78 52l-4-1-1-11Z"/><path fill="#506C3B" d="M45 62c1.675.286 3.344.618 5 1l-1 4h-3v3h6v2c-3.375-.25-3.375-.25-7-1-1.5-1.813-1.5-1.813-2-4 .5-3.5.5-3.5 2-5Z"/><path fill="#F9F8F8" d="M83 64c-.573 2.867-.861 3.861-3 6-3.125.125-3.125.125-6 0v-5c3.153-.7 5.727-1 9-1Z"/><path fill="#8E8E8E" d="m167 52 .684 6.055c.229 2.019.229 2.019 1.316 3.945l-7 1 2-9-3-1c2.076-.553 3.844-1 6-1Z"/><path fill="#BFBEB9" d="M90 36h1c.054 1.583.093 3.166.125 4.75l.07 2.672c-.204 2.692-.83 4.277-2.195 6.578l3 1v3l-5-1c.747-5.724 1.829-11.349 3-17Z"/><path fill="#EFEFEE" d="M98 63c.688 1.688.688 1.688 1 4-1.25 2.75-1.25 2.75-3 5h-3l-1-7 6-2Z"/><path fill="#A8A89F" d="M159 91v3l-1 1 5 1c-1.75 3.875-1.75 3.875-4 5-2 .04-4 .043-6 0v-2h3l-.188-2.313C156 94 156 94 157.5 92.188L159 91Z"/><path fill="#798F6A" d="M109 81h1c.188 2.313.188 2.313 0 5l-1.406 1.375c-1.948 1.986-2.476 3.666-3.281 6.313l-.762 2.449L104 98l-4-1 2-1v-8l2.375-.688c2.844-1.093 2.844-1.093 3.938-3.937L109 81Z"/><path fill="#60824F" d="M71 59h3l-1 12h7v2h-9V59Z"/><path fill="#C0C0BD" d="M111 29h7l-3 1 1 7h-6l1-8Z"/><path fill="#789567" d="M169 76c4.752.432 6.92 1.328 10 5l-1 3-1-3h-3l-1 3h-1v-5h-3v-3Z"/><path fill="#B8BAB2" d="m174 41 4 1v7l3.875-.063c3.875-.062 3.875-.062 6.125 1.063v2h-2v6h-1v-8h-10v-3h2v-4l-3-1v-1Z"/><path fill="#60834A" d="M192 54h2l.25 2.875c.4 3.23.4 3.23 2.813 4.5L199 62v2l2 1h-2l-1 2-.625-2.438L196 62c-3.053-.898-3.053-.898-6-1l2-7Z"/><path fill="#445739" d="M69 42c1.875.25 1.875.25 4 1 1.874 2.498 2.05 3.633 1.625 6.75L74 52h-2v-4h-3v-6Z"/><path fill="#4E733D" d="m137 33 17 1v2l-11-1v2h-7l1-4Z"/><path fill="#BBBAB1" d="M50 60h3c.845 3.378 1.108 5.675 0 9h-4c-.098-6.152-.098-6.152 0-8l1-1Z"/><path fill="#517E39" d="M77 88v3l-3 1-2 2v-2H51v-1l1.88-.06c2.811-.095 5.622-.205 8.432-.315.977-.03 1.953-.062 2.96-.094l2.841-.117 2.619-.095C72.638 89.91 74.075 88 77 88Z"/><path fill="#BDBEBA" d="M88 76v2l6-1v2c-3.367 2.432-4.734 3-9 3l-1-3-2-1c3.75-2 3.75-2 6-2Z"/><path fill="#8C9A7C" d="M46 67h3v2h6v2h-2v2h12v1H51l1-4h-6v-3Z"/><path fill="#F0F0EC" d="M77 41h2v2h2l2 7h-6v-9Z"/><path fill="#A0A09D" d="M164 73h4c-.25 1.875-.25 1.875-1 4-1.938 1.125-1.938 1.125-4 2l-2 2-4-4 7-1v-3Z"/><path fill="#969F83" d="m193 52 4 1 2 8h2v3h-2c-3.82-3.913-5.599-6.38-6-12Z"/><path fill="#CCCCC8" d="m122 72 1 2h6l1-2v3l4 2h-16l3-2 1-3Z"/><path fill="#DFDFDB" d="M174 74c1.646.14 3.292.287 4.938.438l2.777.246C184 75 184 75 185 76c.072 1.853.084 3.708.063 5.563l-.028 3.066L185 87h-3l1-2c.069-1.373.085-2.75.063-4.125L183 77h-6l-1 2-2-5Z"/><path fill="#15290D" d="M205 65c-.875 3.875-.875 3.875-2 5-1.666.04-3.334.043-5 0 .375-2.438.375-2.438 1-5 2.49-1.245 3.41-.777 6 0Z"/><path fill="#C5C5C5" d="m154 39 2 1-.125 2.375c-.162 2.786-.162 2.786 2.125 4.625v3h-10v-3l3-1 1 2h4l-2-2c-.125-3.625-.125-3.625 0-7Z"/><path fill="#BBBBBA" d="m74 59 1 2h3v4h-4v5l4 1h-5a559.991 559.991 0 0 1-.063-4.313l-.035-2.425C73 62 73 62 74 59Z"/><path fill="#C1C1C1" d="M136 60c2 1 2 1 5 3l1-3 2 1v3l-12 1v-3c1.875-1.063 1.875-1.063 4-2Z"/><path fill="#C5C5C5" d="m116 36 1 3-12 1c2.023-6.068 5.576-5.023 11-4Z"/><path fill="#979792" d="M111 73h4v3l3 1-4 1v-4h-2l-1 7-1-2h-3l1-3h3v-3Z"/><path fill="#91978B" d="M143 35h9l-2 1v3h-3v-3h-3v2h-9l1-2 7 1v-2Z"/><path fill="#B9B9B9" d="m101 59 1 2 3 1v3h-4l1 7-2-1a559.991 559.991 0 0 1-.063-4.313l-.035-2.425C100 62 100 62 101 59Z"/><path fill="#6B6B6B" d="M98 34h2l1 14h-4l.219-2.3.281-3.013.281-2.988c.26-2.746.26-2.746.219-5.699Z"/><path fill="#AEADA0" d="M176 68h2l-1 6h-3l1 3-3-1c.597-3.342 1.736-5.464 4-8Z"/><path fill="#758369" d="M82 73c3.625-.201 5.865.142 9 2v3h-3v-2l-5 1-1-4Z"/><path fill="#C1C1BF" d="M70 59c2.236 3.353 2.173 3.907 1.625 7.688l-.336 2.449L71 71h-1l-1-7-6-1v-1h7v-3Z"/><path fill="#A1A29D" d="m178 59 6 1-4 7-2-8Z"/><path fill="#53783F" d="m189 51 2 1-1 4h-2l-2 4c-1.43-2.862-.6-4.934 0-8l3-1Z"/><path fill="#46533B" d="M165 84h2v2l4 1v2h-3l-1 2v-2h-2v-2l-2-1h2v-2Z"/><path fill="#517142" d="M180 65h2l-1 9h-4c1.875-6.75 1.875-6.75 3-9Z"/><path fill="#B2B2B2" d="M137 48c2.29 3.435 2.178 4.985 2 9l-1-3h-4v-4h3v-2Z"/><path fill="#F1F1F0" d="M168 79h4v5l-4 1v-6Z"/><path fill="#5F5F5E" d="M112 58c2 1.375 2 1.375 4 3v2h-7c1.875-3.875 1.875-3.875 3-5Z"/><path fill="#494E44" d="M83 31h3v4l3 1v2l-6-1v-6Z"/><path fill="#969795" d="M137 73h4l-1 6-6-2 3-1v-3Z"/><path fill="#929292" d="M124 59h3v4c-3 2-3 2-6 2v-3h3v-3Z"/><path fill="#5F5F5F" d="M85 57h2l2 6h-5a99.984 99.984 0 0 1 0-5l1-1Z"/><path fill="#CCCDC5" d="m162 88 5 1c-1.074 2.915-1.778 4.778-4 7l1-6-4 1 2-3Z"/><path fill="#919191" d="M124 34h3c-.188 1.875-.188 1.875-1 4-2.563 1.25-2.563 1.25-5 2l-1-3h4v-3Z"/><path fill="#363E2A" d="m98 96 7 1v4l-8-2 1-3Z"/><path fill="#565656" d="M125 69h2l2 5h-6l2-5Z"/><path fill="#C5C4BD" d="M157 96h6l-2 4h-4v-4Z"/><path fill="#E0E0DE" d="M100 90h3v7l-3-1v-6Z"/><path fill="#4A4946" d="M152 69h2l1 5h-5c.875-3.875.875-3.875 2-5Z"/><path fill="#DDD" d="M140 53h5v2h-3l1 6-2-1a108.817 108.817 0 0 1-1-7Z"/><path fill="#D0CDC5" d="m91 71 5 1-3 1v3l-6-2 2-1 2 1v-3Z"/><path fill="#8E8E8E" d="M71 59h3a402.219 402.219 0 0 1-.375 4.938l-.21 2.777c-.138.754-.274 1.508-.415 2.285l-2 1V59Z"/><path fill="#696E56" d="m74 33 1 2h3v4l-5-1 1-5Z"/><path fill="#CAC9C4" d="M89 61c2 2 2 2 2.125 5.625L91 70l-2-1v-5l-2-1h2v-2Z"/><path fill="#CFCEC8" d="M69 49h3v3l2 1-4 1-1-2-2-1 2-2Z"/><path fill="#4F4F4F" d="M112 32a181.008 181.008 0 0 1 4 4v1h-6l2-5Z"/><path fill="#A2A18F" d="m76 32 4 1-1 6-1-4h-3l1-3Z"/></svg>