<?xml version="1.0" encoding="UTF-8"?>
<svg version="1.1" xmlns="http://www.w3.org/2000/svg" width="256" height="154">
<path d="M0 0 C84.48 0 168.96 0 256 0 C256 50.82 256 101.64 256 154 C171.52 154 87.04 154 0 154 C0 103.18 0 52.36 0 0 Z " fill="#64AF43" transform="translate(0,0)"/>
<path d="M0 0 C0.99 0 1.98 0 3 0 C3 1.32 3 2.64 3 4 C4.32 4 5.64 4 7 4 C7 4.66 7 5.32 7 6 C5.35 6 3.7 6 2 6 C2.59861742 8.35171131 3.26924352 10.6859378 4 13 C4.99 13.495 4.99 13.495 6 14 C6 14.99 6 15.98 6 17 C0.72 17.33 -4.56 17.66 -10 18 C-9.01 22.95 -9.01 22.95 -8 28 C-5.69 28.33 -3.38 28.66 -1 29 C-1 28.01 -1 27.02 -1 26 C0.32 26 1.64 26 3 26 C2.67 27.98 2.34 29.96 2 32 C2.66 32 3.32 32 4 32 C4 31.01 4 30.02 4 29 C6.31 29 8.62 29 11 29 C10.67 28.67 10.34 28.34 10 28 C9.76321284 25.30764224 9.57801975 22.63501844 9.4375 19.9375 C9.39431641 19.17888672 9.35113281 18.42027344 9.30664062 17.63867188 C9.20026367 15.75934562 9.09960066 13.87969756 9 12 C11.64 12 14.28 12 17 12 C17 12.99 17 13.98 17 15 C18.32 15 19.64 15 21 15 C21 15.99 21 16.98 21 18 C19.35 18 17.7 18 16 18 C16 19.98 16 21.96 16 24 C16.66 24 17.32 24 18 24 C18.33 25.65 18.66 27.3 19 29 C19.99 29 20.98 29 22 29 C23.32 29 24.64 29 26 29 C26 28.01 26 27.02 26 26 C27.32 26 28.64 26 30 26 C29.75 27.875 29.75 27.875 29 30 C26.9375 31.25 26.9375 31.25 25 32 C25 32.99 25 33.98 25 35 C26.32 35 27.64 35 29 35 C29 36.32 29 37.64 29 39 C30.32 39 31.64 39 33 39 C33.33 36.69 33.66 34.38 34 32 C33.01 32 32.02 32 31 32 C31 31.01 31 30.02 31 29 C34.37582301 29.306893 36.50889261 29.63166946 39.25 31.6875 C42.52543067 36.01574767 43.19976277 39.56885675 42.625 44.875 C42.42959874 46.25189728 42.22566098 47.62773731 42 49 C44.64 48.67 47.28 48.34 50 48 C50 46.68 50 45.36 50 44 C72.44 44 94.88 44 118 44 C118 64.79 118 85.58 118 107 C33.52 107 -50.96 107 -138 107 C-138 86.21 -138 65.42 -138 44 C-132.86050781 43.95101562 -127.72101563 43.90203125 -122.42578125 43.8515625 C-119.16729817 43.81617156 -115.90884148 43.78020897 -112.65039062 43.7421875 C-107.47993776 43.68191014 -102.30952177 43.6237354 -97.13891602 43.578125 C-92.96964902 43.54121496 -88.80058437 43.49483954 -84.63149071 43.44193649 C-83.04194887 43.42342291 -81.45236371 43.40830375 -79.86275673 43.39665604 C-77.63396163 43.37974141 -75.40562686 43.3506945 -73.17700195 43.31884766 C-71.90903275 43.30552399 -70.64106354 43.29220032 -69.33467102 43.2784729 C-66.13194491 43.0110185 -63.88126656 42.37652203 -61 41 C-61 41.99 -61 42.98 -61 44 C-62.485 44.495 -62.485 44.495 -64 45 C-64.33 45.99 -64.66 46.98 -65 48 C-60.545 47.505 -60.545 47.505 -56 47 C-55.92265625 45.86111328 -55.92265625 45.86111328 -55.84375 44.69921875 C-55.49173123 41.6150543 -55.05761916 38.92248233 -54 36 C-51.52250358 34.05697472 -49.06722954 33.52195684 -46 33 C-45.01 32.773125 -44.02 32.54625 -43 32.3125 C-42.01 32.1578125 -42.01 32.1578125 -41 32 C-41 33.65 -41 35.3 -41 37 C-39.68 37 -38.36 37 -37 37 C-37 38.32 -37 39.64 -37 41 C-34.05181069 40.51973152 -34.05181069 40.51973152 -31 39 C-29.55911437 36.71463927 -28.86430792 34.59292376 -28 32 C-28.99 32 -29.98 32 -31 32 C-30.505 30.515 -30.505 30.515 -30 29 C-29.01 29 -28.02 29 -27 29 C-27 28.01 -27 27.02 -27 26 C-25.68 26 -24.36 26 -23 26 C-23 26.99 -23 27.98 -23 29 C-21.02 28.67 -19.04 28.34 -17 28 C-16.505 26.515 -16.505 26.515 -16 25 C-15.34 25 -14.68 25 -14 25 C-14 22.69 -14 20.38 -14 18 C-14.99 18 -15.98 18 -17 18 C-17 17.01 -17 16.02 -17 15 C-16.01 15 -15.02 15 -14 15 C-14 14.01 -14 13.02 -14 12 C-12.68 12 -11.36 12 -10 12 C-10 12.99 -10 13.98 -10 15 C-5.05 14.01 -5.05 14.01 0 13 C0 11.02 0 9.04 0 7 C-1.32 7 -2.64 7 -4 7 C-4 5.68 -4 4.36 -4 3 C-3.01 3 -2.02 3 -1 3 C-0.67 2.01 -0.34 1.02 0 0 Z " fill="#376523" transform="translate(138,47)"/>
<path d="M0 0 C0 2.64 0 5.28 0 8 C2.475 8.495 2.475 8.495 5 9 C4.505 5.535 4.505 5.535 4 2 C11.21471629 1.64517789 17.12418702 2.8408662 24 5 C24.495 6.98 24.495 6.98 25 9 C27.31 9 29.62 9 32 9 C32 8.34 32 7.68 32 7 C50.36769078 6.23290387 50.36769078 6.23290387 59 11 C59.7115625 11.3815625 60.423125 11.763125 61.15625 12.15625 C62.79291554 13.06550863 64.40070274 14.02651471 66 15 C66 16.32 66 17.64 66 19 C65.34 19 64.68 19 64 19 C64 19.99 64 20.98 64 22 C67.3 22 70.6 22 74 22 C74.125 29.75 74.125 29.75 73 32 C70.69 31.67 68.38 31.34 66 31 C66 31.66 66 32.32 66 33 C65.01 33 64.02 33 63 33 C63 34.32 63 35.64 63 37 C64.32 37 65.64 37 67 37 C67 39.97 67 42.94 67 46 C68.134375 46.309375 69.26875 46.61875 70.4375 46.9375 C74 48 74 48 75 49 C75.07226502 50.85287502 75.0838122 52.70833878 75.0625 54.5625 C75.05347656 55.57441406 75.04445312 56.58632812 75.03515625 57.62890625 C75.01775391 58.80259766 75.01775391 58.80259766 75 60 C74.01 60 73.02 60 72 60 C72 60.66 72 61.32 72 62 C72.99 62 73.98 62 75 62 C74.67 63.98 74.34 65.96 74 68 C72.35 68 70.7 68 69 68 C69.04640625 67.27554688 69.0928125 66.55109375 69.140625 65.8046875 C69.31434285 61.15153086 69.35827986 57.80254689 67.4375 53.5 C64.425543 50.41081333 62.04952102 49.40175728 58 48 C58 48.99 58 49.98 58 51 C58.99 51 59.98 51 61 51 C61 53.31 61 55.62 61 58 C59.515 58.495 59.515 58.495 58 59 C57.34 58.67 56.68 58.34 56 58 C56 56.68 56 55.36 56 54 C54.68 54.33 53.36 54.66 52 55 C51.505 53.02 51.505 53.02 51 51 C51.804375 50.566875 52.60875 50.13375 53.4375 49.6875 C56.27846354 48.19525998 56.27846354 48.19525998 57 45 C55.68 45 54.36 45 53 45 C53 45.99 53 46.98 53 48 C51.68 48 50.36 48 49 48 C48.505 48.99 48.505 48.99 48 50 C46.5 48.75 46.5 48.75 45 47 C45 45.68 45 44.36 45 43 C44.34 43 43.68 43 43 43 C43 41.02 43 39.04 43 37 C44.65 37 46.3 37 48 37 C48 36.01 48 35.02 48 34 C46.68 34 45.36 34 44 34 C44 33.01 44 32.02 44 31 C41.69 31.33 39.38 31.66 37 32 C37 36.95 37 41.9 37 47 C37.66 47.33 38.32 47.66 39 48 C35.71303767 48.79953138 34.28976808 49.09658936 31 48 C31 48.99 31 49.98 31 51 C30.34 51 29.68 51 29 51 C29.33 49.02 29.66 47.04 30 45 C28.68 45 27.36 45 26 45 C26 45.99 26 46.98 26 48 C22.7 48 19.4 48 16 48 C16.99 47.67 17.98 47.34 19 47 C18.67 46.278125 18.34 45.55625 18 44.8125 C16.99396471 41.98302573 16.83022598 39.97104534 17 37 C20.67387495 36.14701624 24.0447393 35.89210529 27.8125 35.9375 C28.78832031 35.94652344 29.76414062 35.95554688 30.76953125 35.96484375 C31.87361328 35.98224609 31.87361328 35.98224609 33 36 C33 35.01 33 34.02 33 33 C31.515 32.505 31.515 32.505 30 32 C29.505 28.535 29.505 28.535 29 25 C30.65 25 32.3 25 34 25 C34 24.34 34 23.68 34 23 C32.68 23 31.36 23 30 23 C30 21.68 30 20.36 30 19 C26.88214887 19.64644661 26.88214887 19.64644661 26 22 C25.01 22 24.02 22 23 22 C23 23.32 23 24.64 23 26 C24.32 26 25.64 26 27 26 C27 27.98 27 29.96 27 32 C23.5980513 34.09350689 20.94727588 34.17942163 17 34 C17 33.01 17 32.02 17 31 C15.68 31 14.36 31 13 31 C13 31.99 13 32.98 13 34 C12.01 34 11.02 34 10 34 C10 34.99 10 35.98 10 37 C10.99 37 11.98 37 13 37 C13.36923077 43.52307692 13.36923077 43.52307692 11.5 45.9375 C11.005 46.288125 10.51 46.63875 10 47 C11.485 47.495 11.485 47.495 13 48 C10.03 48 7.06 48 4 48 C4 47.01 4 46.02 4 45 C2.68 45 1.36 45 0 45 C0 45.99 0 46.98 0 48 C-0.99 48.33 -1.98 48.66 -3 49 C-3.495 49.99 -3.495 49.99 -4 51 C-3.01 51 -2.02 51 -1 51 C-2.75 57.75 -2.75 57.75 -5 60 C-7.625 60.125 -7.625 60.125 -10 60 C-10 58.68 -10 57.36 -10 56 C-11.32 56 -12.64 56 -14 56 C-14 54.35 -14 52.7 -14 51 C-18.30522593 51.83434611 -22.1657176 52.83506504 -26 55 C-27.92378248 58.56541019 -28.58535432 61.99175844 -29 66 C-33.455 66.495 -33.455 66.495 -38 67 C-37.67 65.68 -37.34 64.36 -37 63 C-36.01 63 -35.02 63 -34 63 C-34 60.69 -34 58.38 -34 56 C-33.34 56 -32.68 56 -32 56 C-32 54.68 -32 53.36 -32 52 C-25.25 48 -25.25 48 -23 48 C-23 48.66 -23 49.32 -23 50 C-22.01 50 -21.02 50 -20 50 C-20 49.01 -20 48.02 -20 47 C-23.63 46.34 -27.26 45.68 -31 45 C-31 44.34 -31 43.68 -31 43 C-33.31 43 -35.62 43 -38 43 C-38.02712066 41.56260487 -38.04645067 40.12506137 -38.0625 38.6875 C-38.07410156 37.88699219 -38.08570312 37.08648437 -38.09765625 36.26171875 C-38 34 -38 34 -37 31 C-37.99 31 -38.98 31 -40 31 C-39.87431641 31.92232422 -39.87431641 31.92232422 -39.74609375 32.86328125 C-39.64425781 33.67152344 -39.54242188 34.47976562 -39.4375 35.3125 C-39.33308594 36.11300781 -39.22867188 36.91351563 -39.12109375 37.73828125 C-39 40 -39 40 -40 43 C-45.60376729 45.87761023 -51.87368781 45.17843628 -58 45 C-58 44.34 -58 43.68 -58 43 C-57.34 43 -56.68 43 -56 43 C-56 42.34 -56 41.68 -56 41 C-57.98 41 -59.96 41 -62 41 C-62 38.36 -62 35.72 -62 33 C-60.02 32.505 -60.02 32.505 -58 32 C-57.67 32.66 -57.34 33.32 -57 34 C-55.02 34 -53.04 34 -51 34 C-51.2784375 32.453125 -51.2784375 32.453125 -51.5625 30.875 C-51 27 -51 27 -49.1015625 25.19921875 C-42.90796539 21 -42.90796539 21 -39 21 C-39 21.99 -39 22.98 -39 24 C-38.34 23.67 -37.68 23.34 -37 23 C-37.2475 22.01 -37.2475 22.01 -37.5 21 C-38.12183299 17.26900206 -38.06408926 13.78126622 -38 10 C-35.525 10.495 -35.525 10.495 -33 11 C-33 9.68 -33 8.36 -33 7 C-33.99 7 -34.98 7 -36 7 C-35.67 6.01 -35.34 5.02 -35 4 C-32.36 4 -29.72 4 -27 4 C-26.505 6.475 -26.505 6.475 -26 9 C-24.68 9.33 -23.36 9.66 -22 10 C-22.66 9.01 -23.32 8.02 -24 7 C-24 5.68 -24 4.36 -24 3 C-16.19436658 -0.90281671 -8.51207047 -0.27891493 0 0 Z " fill="#F8F8F8" transform="translate(111,28)"/>
<path d="M0 0 C0 2.64 0 5.28 0 8 C2.475 8.495 2.475 8.495 5 9 C4.505 5.535 4.505 5.535 4 2 C11.21471629 1.64517789 17.12418702 2.8408662 24 5 C24.495 6.98 24.495 6.98 25 9 C27.31 9 29.62 9 32 9 C32 8.34 32 7.68 32 7 C34.72943537 6.94583259 37.45778564 6.90624775 40.1875 6.875 C41.34088867 6.84986328 41.34088867 6.84986328 42.51757812 6.82421875 C46.8149434 6.78733149 50.07901831 7.0041496 54 9 C50.25 10.125 50.25 10.125 48 9 C48 9.99 48 10.98 48 12 C46.68 12 45.36 12 44 12 C44.4640625 13.36125 44.4640625 13.36125 44.9375 14.75 C45.71824855 17.13817205 46.39061584 19.56246334 47 22 C43.7 22 40.4 22 37 22 C37 21.01 37 20.02 37 19 C37.99 18.505 37.99 18.505 39 18 C39.65772428 14.97065509 39.65772428 14.97065509 40 12 C38.35 12 36.7 12 35 12 C35 11.01 35 10.02 35 9 C34.34 9 33.68 9 33 9 C33 9.66 33 10.32 33 11 C25.08 11.495 25.08 11.495 17 12 C17.99 14.97 17.99 14.97 19 18 C19 19.32 19 20.64 19 22 C13.25 22.125 13.25 22.125 11 21 C11.99 16.545 11.99 16.545 13 12 C12.195625 12.020625 11.39125 12.04125 10.5625 12.0625 C8 12 8 12 7 11 C4.13311752 11.09096556 1.29699485 11.23767988 -1.5625 11.4375 C-2.36880859 11.48970703 -3.17511719 11.54191406 -4.00585938 11.59570312 C-6.00421738 11.72577376 -8.00215386 11.86229056 -10 12 C-9.34 14.97 -8.68 17.94 -8 21 C-10.97 21.33 -13.94 21.66 -17 22 C-17 21.01 -17 20.02 -17 19 C-16.34 18.67 -15.68 18.34 -15 18 C-14.34227572 14.97065509 -14.34227572 14.97065509 -14 12 C-15.65 12 -17.3 12 -19 12 C-19 13.98 -19 15.96 -19 18 C-19.66 18 -20.32 18 -21 18 C-21.33 19.32 -21.66 20.64 -22 22 C-21.01 22.33 -20.02 22.66 -19 23 C-19 23.99 -19 24.98 -19 26 C-20.32 26 -21.64 26 -23 26 C-23.07427838 29.34252724 -23.06546953 31.8035914 -22 35 C-23.98 35.495 -23.98 35.495 -26 36 C-26.33 37.65 -26.66 39.3 -27 41 C-27.99 41.33 -28.98 41.66 -30 42 C-29.67 42.99 -29.34 43.98 -29 45 C-29.66 45 -30.32 45 -31 45 C-31 44.34 -31 43.68 -31 43 C-33.31 43 -35.62 43 -38 43 C-38.02712066 41.56260487 -38.04645067 40.12506137 -38.0625 38.6875 C-38.07410156 37.88699219 -38.08570312 37.08648437 -38.09765625 36.26171875 C-38 34 -38 34 -37 31 C-37.99 31 -38.98 31 -40 31 C-39.87431641 31.92232422 -39.87431641 31.92232422 -39.74609375 32.86328125 C-39.64425781 33.67152344 -39.54242188 34.47976562 -39.4375 35.3125 C-39.33308594 36.11300781 -39.22867188 36.91351563 -39.12109375 37.73828125 C-39 40 -39 40 -40 43 C-45.60376729 45.87761023 -51.87368781 45.17843628 -58 45 C-58 44.34 -58 43.68 -58 43 C-57.34 43 -56.68 43 -56 43 C-56 42.34 -56 41.68 -56 41 C-57.98 41 -59.96 41 -62 41 C-62 38.36 -62 35.72 -62 33 C-60.02 32.505 -60.02 32.505 -58 32 C-57.67 32.66 -57.34 33.32 -57 34 C-55.02 34 -53.04 34 -51 34 C-51.2784375 32.453125 -51.2784375 32.453125 -51.5625 30.875 C-51 27 -51 27 -49.1015625 25.19921875 C-42.90796539 21 -42.90796539 21 -39 21 C-39 21.99 -39 22.98 -39 24 C-38.34 23.67 -37.68 23.34 -37 23 C-37.2475 22.01 -37.2475 22.01 -37.5 21 C-38.12183299 17.26900206 -38.06408926 13.78126622 -38 10 C-35.525 10.495 -35.525 10.495 -33 11 C-33 9.68 -33 8.36 -33 7 C-33.99 7 -34.98 7 -36 7 C-35.67 6.01 -35.34 5.02 -35 4 C-32.36 4 -29.72 4 -27 4 C-26.505 6.475 -26.505 6.475 -26 9 C-24.68 9.33 -23.36 9.66 -22 10 C-22.66 9.01 -23.32 8.02 -24 7 C-24 5.68 -24 4.36 -24 3 C-16.19436658 -0.90281671 -8.51207047 -0.27891493 0 0 Z " fill="#F5F5F4" transform="translate(111,28)"/>
<path d="M0 0 C0.99 0 1.98 0 3 0 C3 1.32 3 2.64 3 4 C4.32 4 5.64 4 7 4 C7 4.66 7 5.32 7 6 C5.35 6 3.7 6 2 6 C2.59861742 8.35171131 3.26924352 10.6859378 4 13 C4.66 13.33 5.32 13.66 6 14 C6 14.99 6 15.98 6 17 C0.72 17.33 -4.56 17.66 -10 18 C-9.34 21.3 -8.68 24.6 -8 28 C-5.69 28.33 -3.38 28.66 -1 29 C-1 28.01 -1 27.02 -1 26 C0.32 26 1.64 26 3 26 C2.67 27.98 2.34 29.96 2 32 C2.66 32 3.32 32 4 32 C4 31.01 4 30.02 4 29 C6.31 29 8.62 29 11 29 C10.67 28.67 10.34 28.34 10 28 C9.76321284 25.30764224 9.57801975 22.63501844 9.4375 19.9375 C9.39431641 19.17888672 9.35113281 18.42027344 9.30664062 17.63867188 C9.20026367 15.75934562 9.09960066 13.87969756 9 12 C11.64 12 14.28 12 17 12 C17 12.99 17 13.98 17 15 C18.32 15 19.64 15 21 15 C21 15.99 21 16.98 21 18 C19.35 18 17.7 18 16 18 C16 19.98 16 21.96 16 24 C16.66 24 17.32 24 18 24 C18.495 26.475 18.495 26.475 19 29 C19.99 29 20.98 29 22 29 C23.32 29 24.64 29 26 29 C26 28.01 26 27.02 26 26 C27.32 26 28.64 26 30 26 C29.75 27.875 29.75 27.875 29 30 C26.9375 31.25 26.9375 31.25 25 32 C25 32.99 25 33.98 25 35 C26.32 35 27.64 35 29 35 C29 35.66 29 36.32 29 37 C28.34 37 27.68 37 27 37 C27 38.65 27 40.3 27 42 C27.66 42 28.32 42 29 42 C27.42527704 46.46171506 25.40622971 51.79688514 21 54 C19.00039988 54.039992 16.99952758 54.04346799 15 54 C15 53.34 15 52.68 15 52 C15.99 52 16.98 52 18 52 C17.9071875 50.8553125 17.9071875 50.8553125 17.8125 49.6875 C18 47 18 47 21 44 C3.84 43.67 -13.32 43.34 -31 43 C-31.99 45.64 -32.98 48.28 -34 51 C-35.98 50.67 -37.96 50.34 -40 50 C-39.67 51.65 -39.34 53.3 -39 55 C-40.65 55 -42.3 55 -44 55 C-43.5012629 52.75568304 -42.89454223 50.74953781 -42 48.625 C-40.90814525 45.75888129 -40.42290178 43.0307961 -40 40 C-39.34 40 -38.68 40 -38 40 C-38 39.34 -38 38.68 -38 38 C-38.99 38 -39.98 38 -41 38 C-41 39.98 -41 41.96 -41 44 C-45.62 44 -50.24 44 -55 44 C-54.67 41.36 -54.34 38.72 -54 36 C-45.57142857 32.71428571 -45.57142857 32.71428571 -41 32 C-41 33.65 -41 35.3 -41 37 C-39.68 37 -38.36 37 -37 37 C-37 38.32 -37 39.64 -37 41 C-34.05181069 40.51973152 -34.05181069 40.51973152 -31 39 C-29.55911437 36.71463927 -28.86430792 34.59292376 -28 32 C-28.99 32 -29.98 32 -31 32 C-30.67 31.01 -30.34 30.02 -30 29 C-29.01 29 -28.02 29 -27 29 C-27 28.01 -27 27.02 -27 26 C-25.68 26 -24.36 26 -23 26 C-23 26.99 -23 27.98 -23 29 C-21.02 28.67 -19.04 28.34 -17 28 C-16.505 26.515 -16.505 26.515 -16 25 C-15.34 25 -14.68 25 -14 25 C-14 22.69 -14 20.38 -14 18 C-14.99 18 -15.98 18 -17 18 C-17 17.01 -17 16.02 -17 15 C-16.01 15 -15.02 15 -14 15 C-14 14.01 -14 13.02 -14 12 C-12.68 12 -11.36 12 -10 12 C-10 12.99 -10 13.98 -10 15 C-6.7 14.34 -3.4 13.68 0 13 C0 11.02 0 9.04 0 7 C-1.32 7 -2.64 7 -4 7 C-4 5.68 -4 4.36 -4 3 C-3.01 3 -2.02 3 -1 3 C-0.67 2.01 -0.34 1.02 0 0 Z " fill="#63A944" transform="translate(138,47)"/>
<path d="M0 0 C1.65 0 3.3 0 5 0 C5 0.66 5 1.32 5 2 C5.99 2 6.98 2 8 2 C8 3.32 8 4.64 8 6 C7.01 6 6.02 6 5 6 C5 7.98 5 9.96 5 12 C5.66 12.33 6.32 12.66 7 13 C7 13.99 7 14.98 7 16 C6.01 16 5.02 16 4 16 C4.7734375 17.299375 4.7734375 17.299375 5.5625 18.625 C7.16782969 22.39403493 7.01911045 24.10885099 6 28 C5.505 26.515 5.505 26.515 5 25 C3.68 25 2.36 25 1 25 C1 25.99 1 26.98 1 28 C0.01 28.33 -0.98 28.66 -2 29 C-2.33 29.66 -2.66 30.32 -3 31 C-2.01 31 -1.02 31 0 31 C-1.75 37.75 -1.75 37.75 -4 40 C-6.625 40.125 -6.625 40.125 -9 40 C-9 38.68 -9 37.36 -9 36 C-10.32 36 -11.64 36 -13 36 C-13 34.35 -13 32.7 -13 31 C-17.30522593 31.83434611 -21.1657176 32.83506504 -25 35 C-26.92378248 38.56541019 -27.58535432 41.99175844 -28 46 C-32.455 46.495 -32.455 46.495 -37 47 C-36.67 45.68 -36.34 44.36 -36 43 C-35.01 43 -34.02 43 -33 43 C-33 40.69 -33 38.38 -33 36 C-32.34 36 -31.68 36 -31 36 C-31 34.68 -31 33.36 -31 32 C-24.25 28 -24.25 28 -22 28 C-22 28.66 -22 29.32 -22 30 C-21.01 30 -20.02 30 -19 30 C-19 29.34 -19 28.68 -19 28 C-18.34 28 -17.68 28 -17 28 C-17 27.01 -17 26.02 -17 25 C-16.01 25 -15.02 25 -14 25 C-13.34 22.03 -12.68 19.06 -12 16 C-13.32 16.33 -14.64 16.66 -16 17 C-16 16.01 -16 15.02 -16 14 C-15.01 14 -14.02 14 -13 14 C-13 13.01 -13 12.02 -13 11 C-11.35 11 -9.7 11 -8 11 C-8 11.66 -8 12.32 -8 13 C-7.01 13.33 -6.02 13.66 -5 14 C-4.505 14.99 -4.505 14.99 -4 16 C-3.34 16 -2.68 16 -2 16 C-2 15.01 -2 14.02 -2 13 C-1.34 12.67 -0.68 12.34 0 12 C0.65772428 8.97065509 0.65772428 8.97065509 1 6 C-0.32 6 -1.64 6 -3 6 C-3 4.68 -3 3.36 -3 2 C-2.01 2 -1.02 2 0 2 C0 1.34 0 0.68 0 0 Z " fill="#F3F3F1" transform="translate(110,48)"/>
<path d="M0 0 C2.97 0.33 5.94 0.66 9 1 C9.125 7.75 9.125 7.75 8 10 C6.68 10 5.36 10 4 10 C4 10.99 4 11.98 4 13 C2.68 13 1.36 13 0 13 C0 13.99 0 14.98 0 16 C1.32 16 2.64 16 4 16 C4 17.98 4 19.96 4 22 C3.01 22.33 2.02 22.66 1 23 C1 23.99 1 24.98 1 26 C1.66 26 2.32 26 3 26 C2.42655063 28.86724686 2.1385485 29.8614515 0 32 C-3.125 32.125 -3.125 32.125 -6 32 C-6 30.35 -6 28.7 -6 27 C-4.68 27 -3.36 27 -2 27 C-2 25.68 -2 24.36 -2 23 C-2.99 23 -3.98 23 -5 23 C-5 22.34 -5 21.68 -5 21 C-6.32 21 -7.64 21 -9 21 C-8.87431641 21.92232422 -8.87431641 21.92232422 -8.74609375 22.86328125 C-8.64425781 23.67152344 -8.54242188 24.47976562 -8.4375 25.3125 C-8.33308594 26.11300781 -8.22867188 26.91351563 -8.12109375 27.73828125 C-8 30 -8 30 -9 33 C-14.60376729 35.87761023 -20.87368781 35.17843628 -27 35 C-27 34.34 -27 33.68 -27 33 C-26.34 33 -25.68 33 -25 33 C-25 32.34 -25 31.68 -25 31 C-26.98 31 -28.96 31 -31 31 C-31 28.36 -31 25.72 -31 23 C-29.68 22.67 -28.36 22.34 -27 22 C-26.67 22.66 -26.34 23.32 -26 24 C-24.02 24 -22.04 24 -20 24 C-20.2784375 22.453125 -20.2784375 22.453125 -20.5625 20.875 C-20 17 -20 17 -18.1015625 15.19921875 C-11.90796539 11 -11.90796539 11 -8 11 C-8 11.99 -8 12.98 -8 14 C-6.02 14 -4.04 14 -2 14 C-2.2475 12.4221875 -2.2475 12.4221875 -2.5 10.8125 C-2.89569678 7.79531204 -3.09178971 5.02906028 -3 2 C-2.01 2 -1.02 2 0 2 C0 1.34 0 0.68 0 0 Z " fill="#F5F5F4" transform="translate(80,38)"/>
<path d="M0 0 C0 0.33 0 0.66 0 1 C-1.00160156 1.04898437 -2.00320312 1.09796875 -3.03515625 1.1484375 C-4.37762759 1.22354079 -5.7200743 1.29908526 -7.0625 1.375 C-8.37347656 1.44460937 -9.68445313 1.51421875 -11.03515625 1.5859375 C-14.98136957 1.99805436 -18.24117073 2.79756567 -22 4 C-21.51273438 4.8353125 -21.51273438 4.8353125 -21.015625 5.6875 C-19.86372687 8.31028343 -19.73260649 10.14746373 -19.75 13 C-19.74484375 13.845625 -19.7396875 14.69125 -19.734375 15.5625 C-20.01468845 18.13478811 -20.7051813 19.7803108 -22 22 C-21.01 22.33 -20.02 22.66 -19 23 C-19 23.99 -19 24.98 -19 26 C-20.32 26 -21.64 26 -23 26 C-23.07427838 29.34252724 -23.06546953 31.8035914 -22 35 C-23.98 35.495 -23.98 35.495 -26 36 C-26.495 38.475 -26.495 38.475 -27 41 C-28.485 41.495 -28.485 41.495 -30 42 C-29.67 42.99 -29.34 43.98 -29 45 C-29.66 45 -30.32 45 -31 45 C-31 44.34 -31 43.68 -31 43 C-33.31 43 -35.62 43 -38 43 C-38.05422947 41.5629191 -38.09289723 40.12524538 -38.125 38.6875 C-38.14820312 37.88699219 -38.17140625 37.08648437 -38.1953125 36.26171875 C-38 34 -38 34 -36 31 C-36 31.66 -36 32.32 -36 33 C-35.01 33 -34.02 33 -33 33 C-33 34.32 -33 35.64 -33 37 C-34.32 37 -35.64 37 -37 37 C-37 38.65 -37 40.3 -37 42 C-32.04485498 41.12527407 -32.04485498 41.12527407 -28.5625 37.875 C-28.2840625 36.946875 -28.2840625 36.946875 -28 36 C-28.66 36 -29.32 36 -30 36 C-30 35.01 -30 34.02 -30 33 C-29.01 32.505 -29.01 32.505 -28 32 C-27.34227572 28.97065509 -27.34227572 28.97065509 -27 26 C-28.32 26 -29.64 26 -31 26 C-31 25.01 -31 24.02 -31 23 C-29.68 23 -28.36 23 -27 23 C-27 22.01 -27 21.02 -27 20 C-25.68 20 -24.36 20 -23 20 C-22.505 15.545 -22.505 15.545 -22 11 C-24.97 10.67 -27.94 10.34 -31 10 C-31 10.66 -31 11.32 -31 12 C-31.99 12 -32.98 12 -34 12 C-33.9278125 12.69867188 -33.855625 13.39734375 -33.78125 14.1171875 C-33.6884375 15.02726562 -33.595625 15.93734375 -33.5 16.875 C-33.4071875 17.77992187 -33.314375 18.68484375 -33.21875 19.6171875 C-33 22 -33 22 -33 24 C-34.32 23.67 -35.64 23.34 -37 23 C-38.10228696 18.59085217 -38.07654536 14.51617599 -38 10 C-35.525 10.495 -35.525 10.495 -33 11 C-33 9.68 -33 8.36 -33 7 C-33.99 7 -34.98 7 -36 7 C-35.67 6.01 -35.34 5.02 -35 4 C-32.36 4 -29.72 4 -27 4 C-26.67 5.65 -26.34 7.3 -26 9 C-24.68 9.33 -23.36 9.66 -22 10 C-22.66 9.01 -23.32 8.02 -24 7 C-24 5.68 -24 4.36 -24 3 C-16.19436658 -0.90281671 -8.51207047 -0.27891493 0 0 Z " fill="#B3B8AC" transform="translate(111,28)"/>
<path d="M0 0 C1.43836751 0.11458693 2.87570966 0.24209116 4.3125 0.375 C5.51326172 0.47941406 5.51326172 0.47941406 6.73828125 0.5859375 C9 1 9 1 12 3 C12 3.99 12 4.98 12 6 C14.31 6 16.62 6 19 6 C19 5.34 19 4.68 19 4 C21.72943537 3.94583259 24.45778564 3.90624775 27.1875 3.875 C28.34088867 3.84986328 28.34088867 3.84986328 29.51757812 3.82421875 C33.8149434 3.78733149 37.07901831 4.0041496 41 6 C37.25 7.125 37.25 7.125 35 6 C35 6.99 35 7.98 35 9 C33.68 9 32.36 9 31 9 C31.309375 9.9075 31.61875 10.815 31.9375 11.75 C32.71824855 14.13817205 33.39061584 16.56246334 34 19 C30.7 19 27.4 19 24 19 C24 18.01 24 17.02 24 16 C24.66 15.67 25.32 15.34 26 15 C26.65772428 11.97065509 26.65772428 11.97065509 27 9 C25.35 9 23.7 9 22 9 C22 8.01 22 7.02 22 6 C21.34 6 20.68 6 20 6 C20 6.66 20 7.32 20 8 C12.08 8.495 12.08 8.495 4 9 C4.66 10.98 5.32 12.96 6 15 C6 16.32 6 17.64 6 19 C0.25 19.125 0.25 19.125 -2 18 C-1.34 15.03 -0.68 12.06 0 9 C-1.32 8.67 -2.64 8.34 -4 8 C-4 7.34 -4 6.68 -4 6 C-2.68 6 -1.36 6 0 6 C0 4.02 0 2.04 0 0 Z " fill="#E7E7E6" transform="translate(124,31)"/>
<path d="M0 0 C1.65 0 3.3 0 5 0 C5 0.66 5 1.32 5 2 C5.99 2.33 6.98 2.66 8 3 C8 3.99 8 4.98 8 6 C6.68 6 5.36 6 4 6 C4.66 9.3 5.32 12.6 6 16 C3.69 16 1.38 16 -1 16 C-0.67 17.32 -0.34 18.64 0 20 C-0.83144531 20.16113281 -1.66289063 20.32226562 -2.51953125 20.48828125 C-5.99854766 21.35906709 -8.8704952 22.23300069 -12 24 C-13.92378248 27.56541019 -14.58535432 30.99175844 -15 35 C-19.455 35.495 -19.455 35.495 -24 36 C-23.67 34.68 -23.34 33.36 -23 32 C-22.01 32 -21.02 32 -20 32 C-20 29.69 -20 27.38 -20 25 C-19.34 25 -18.68 25 -18 25 C-18 23.68 -18 22.36 -18 21 C-11.25 17 -11.25 17 -9 17 C-9 17.66 -9 18.32 -9 19 C-8.01 19 -7.02 19 -6 19 C-6 18.34 -6 17.68 -6 17 C-5.34 17 -4.68 17 -4 17 C-4 16.01 -4 15.02 -4 14 C-3.01 14 -2.02 14 -1 14 C-0.34 11.03 0.32 8.06 1 5 C-0.32 5.33 -1.64 5.66 -3 6 C-3 5.01 -3 4.02 -3 3 C-2.01 3 -1.02 3 0 3 C0 2.01 0 1.02 0 0 Z " fill="#A5A89C" transform="translate(97,59)"/>
<path d="M0 0 C0.66 0 1.32 0 2 0 C2 1.98 2 3.96 2 6 C3.7015625 6.4640625 3.7015625 6.4640625 5.4375 6.9375 C9 8 9 8 10 9 C10.07226502 10.85287502 10.0838122 12.70833878 10.0625 14.5625 C10.05347656 15.57441406 10.04445312 16.58632812 10.03515625 17.62890625 C10.02355469 18.41136719 10.01195312 19.19382812 10 20 C9.01 20 8.02 20 7 20 C7 20.66 7 21.32 7 22 C7.99 22 8.98 22 10 22 C9.67 23.98 9.34 25.96 9 28 C7.35 28 5.7 28 4 28 C4.04640625 27.27554688 4.0928125 26.55109375 4.140625 25.8046875 C4.31434285 21.15153086 4.35827986 17.80254689 2.4375 13.5 C-0.574457 10.41081333 -2.95047898 9.40175728 -7 8 C-7 8.99 -7 9.98 -7 11 C-6.01 11 -5.02 11 -4 11 C-4 13.31 -4 15.62 -4 18 C-4.99 18.33 -5.98 18.66 -7 19 C-7.66 18.67 -8.32 18.34 -9 18 C-9 16.68 -9 15.36 -9 14 C-10.32 14.33 -11.64 14.66 -13 15 C-13.33 13.68 -13.66 12.36 -14 11 C-13.21625 10.566875 -12.4325 10.13375 -11.625 9.6875 C-8.78301625 8.10779753 -8.78301625 8.10779753 -7 5 C-7 5.66 -7 6.32 -7 7 C-6.01 7 -5.02 7 -4 7 C-3.71125 6.401875 -3.4225 5.80375 -3.125 5.1875 C-2 3 -2 3 0 0 Z " fill="#C1C2BE" transform="translate(176,68)"/>
<path d="M0 0 C2.23551759 3.35327639 2.17283528 3.90743657 1.625 7.6875 C1.45871094 8.89986328 1.45871094 8.89986328 1.2890625 10.13671875 C1.19367188 10.75160156 1.09828125 11.36648437 1 12 C-4.87883349 14.61281488 -10.70731728 14.18328202 -17 14 C-17 13.34 -17 12.68 -17 12 C-16.34 12 -15.68 12 -15 12 C-15 11.34 -15 10.68 -15 10 C-16.98 10 -18.96 10 -21 10 C-21 7.36 -21 4.72 -21 2 C-19.68 1.67 -18.36 1.34 -17 1 C-16.67 1.66 -16.34 2.32 -16 3 C-12.65747276 3.07427838 -10.1964086 3.06546953 -7 2 C-4.6593935 2.27769908 -2.32375692 2.60539977 0 3 C0 2.01 0 1.02 0 0 Z " fill="#C1C0B7" transform="translate(70,59)"/>
<path d="M0 0 C0.99 0 1.98 0 3 0 C3 1.32 3 2.64 3 4 C4.32 4 5.64 4 7 4 C7 4.66 7 5.32 7 6 C5.35 6 3.7 6 2 6 C2.59861742 8.35171131 3.26924352 10.6859378 4 13 C4.66 13.33 5.32 13.66 6 14 C6 14.99 6 15.98 6 17 C0.72 17.33 -4.56 17.66 -10 18 C-9.7525 19.60875 -9.505 21.2175 -9.25 22.875 C-9.11078125 23.77992187 -8.9715625 24.68484375 -8.828125 25.6171875 C-8.1313635 28.51602399 -8.1313635 28.51602399 -4 30 C-9.28 30 -14.56 30 -20 30 C-19.01 29.34 -18.02 28.68 -17 28 C-16.67 27.01 -16.34 26.02 -16 25 C-15.34 25 -14.68 25 -14 25 C-14 22.69 -14 20.38 -14 18 C-14.99 18 -15.98 18 -17 18 C-17 17.01 -17 16.02 -17 15 C-16.01 15 -15.02 15 -14 15 C-14 14.01 -14 13.02 -14 12 C-12.68 12 -11.36 12 -10 12 C-10 12.99 -10 13.98 -10 15 C-6.7 14.34 -3.4 13.68 0 13 C0 11.02 0 9.04 0 7 C-1.32 7 -2.64 7 -4 7 C-4 5.68 -4 4.36 -4 3 C-3.01 3 -2.02 3 -1 3 C-0.67 2.01 -0.34 1.02 0 0 Z " fill="#B7B7B7" transform="translate(138,47)"/>
<path d="M0 0 C0.33 0.66 0.66 1.32 1 2 C2.65 2 4.3 2 6 2 C6 5 6 5 3.5625 7.5625 C2.716875 8.366875 1.87125 9.17125 1 10 C0.67 10.66 0.34 11.32 0 12 C-0.99 12 -1.98 12 -3 12 C-3 11.34 -3 10.68 -3 10 C-4.65 10 -6.3 10 -8 10 C-8 10.99 -8 11.98 -8 13 C-9.32 13 -10.64 13 -12 13 C-12.33 13.66 -12.66 14.32 -13 15 C-14.5 13.75 -14.5 13.75 -16 12 C-16 10.68 -16 9.36 -16 8 C-16.66 8 -17.32 8 -18 8 C-18 6.02 -18 4.04 -18 2 C-9.09 1.01 -9.09 1.01 0 0 Z " fill="#F9F9F8" transform="translate(172,63)"/>
<path d="M0 0 C0.33 0.66 0.66 1.32 1 2 C2.32 1.67 3.64 1.34 5 1 C5 1.99 5 2.98 5 4 C6.65 3.34 8.3 2.68 10 2 C9.25 8.625 9.25 8.625 7 12 C6.01 12 5.02 12 4 12 C4 12.99 4 13.98 4 15 C2.1838018 14.57811541 0.37205927 14.13700835 -1.4375 13.6875 C-2.44683594 13.44386719 -3.45617187 13.20023438 -4.49609375 12.94921875 C-5.73552734 12.47935547 -5.73552734 12.47935547 -7 12 C-7.33 11.01 -7.66 10.02 -8 9 C-7.01 8.34 -6.02 7.68 -5 7 C-4.27617533 4.94074861 -4.27617533 4.94074861 -4 3 C-2.68 2.67 -1.36 2.34 0 2 C0 1.34 0 0.68 0 0 Z " fill="#DCDBD7" transform="translate(89,61)"/>
<path d="M0 0 C2.72943537 -0.05416741 5.45778564 -0.09375225 8.1875 -0.125 C8.95642578 -0.14175781 9.72535156 -0.15851562 10.51757812 -0.17578125 C14.8149434 -0.21266851 18.07901831 0.0041496 22 2 C18.25 3.125 18.25 3.125 16 2 C16 2.99 16 3.98 16 5 C14.68 5 13.36 5 12 5 C12.4640625 6.36125 12.4640625 6.36125 12.9375 7.75 C13.71824855 10.13817205 14.39061584 12.56246334 15 15 C11.7 15 8.4 15 5 15 C5 14.01 5 13.02 5 12 C5.66 11.67 6.32 11.34 7 11 C7.65772428 7.97065509 7.65772428 7.97065509 8 5 C6.35 5 4.7 5 3 5 C3 4.01 3 3.02 3 2 C2.01 2.495 2.01 2.495 1 3 C-0.54023996 3.06950541 -2.08334988 3.08452357 -3.625 3.0625 C-4.85089844 3.04896484 -4.85089844 3.04896484 -6.1015625 3.03515625 C-7.04128906 3.01775391 -7.04128906 3.01775391 -8 3 C-7.67 2.34 -7.34 1.68 -7 1 C-4.69 1.33 -2.38 1.66 0 2 C0 1.34 0 0.68 0 0 Z " fill="#A1A29F" transform="translate(143,35)"/>
<path d="M0 0 C0 1.65 0 3.3 0 5 C0.66 5.33 1.32 5.66 2 6 C1.34 6 0.68 6 0 6 C0 7.98 0 9.96 0 12 C-4.62 12 -9.24 12 -14 12 C-13.67 9.36 -13.34 6.72 -13 4 C-11.72942818 3.52014033 -10.45853152 3.0411407 -9.1875 2.5625 C-8.47980469 2.29566406 -7.77210937 2.02882813 -7.04296875 1.75390625 C-2.29015544 0 -2.29015544 0 0 0 Z " fill="#63A745" transform="translate(97,79)"/>
<path d="M0 0 C2.97 0.33 5.94 0.66 9 1 C9.125 7.75 9.125 7.75 8 10 C6.68 10 5.36 10 4 10 C4 10.99 4 11.98 4 13 C2.68 13 1.36 13 0 13 C-0.33 13.66 -0.66 14.32 -1 15 C-2.78409802 11.93753253 -3.22880021 9.77920727 -3.125 6.25 C-3.10695313 5.45078125 -3.08890625 4.6515625 -3.0703125 3.828125 C-3.04710938 3.22484375 -3.02390625 2.6215625 -3 2 C-2.01 2 -1.02 2 0 2 C0 1.34 0 0.68 0 0 Z " fill="#CAC9C2" transform="translate(80,38)"/>
<path d="M0 0 C1.32 0 2.64 0 4 0 C4 1.32 4 2.64 4 4 C5.32 4 6.64 4 8 4 C8 4.99 8 5.98 8 7 C6.68 7 5.36 7 4 7 C4.66 9.97 5.32 12.94 6 16 C3.03 16.33 0.06 16.66 -3 17 C-3 16.01 -3 15.02 -3 14 C-2.34 13.67 -1.68 13.34 -1 13 C-0.34227572 9.97065509 -0.34227572 9.97065509 0 7 C-1.32 6.67 -2.64 6.34 -4 6 C-3.67 5.01 -3.34 4.02 -3 3 C-2.34 3 -1.68 3 -1 3 C-0.67 2.01 -0.34 1.02 0 0 Z " fill="#ACACAC" transform="translate(97,33)"/>
<path d="M0 0 C17.82 0.33 35.64 0.66 54 1 C51 4 51 4 48.70307922 4.32279968 C47.80373154 4.29837296 46.90438385 4.27394623 45.9777832 4.2487793 C44.95695145 4.22853195 43.93611969 4.20828461 42.88435364 4.18742371 C41.78427475 4.15006607 40.68419586 4.11270844 39.55078125 4.07421875 C37.85915108 4.03455742 37.85915108 4.03455742 36.13334656 3.99409485 C32.52586621 3.90621642 28.91937936 3.79710462 25.3125 3.6875 C22.8691764 3.62425342 20.42581666 3.56238698 17.98242188 3.50195312 C11.98776966 3.35065681 5.99379688 3.18191662 0 3 C0 2.01 0 1.02 0 0 Z " fill="#55953A" transform="translate(106,89)"/>
<path d="M0 0 C1.32 0.33 2.64 0.66 4 1 C4 3.31 4 5.62 4 8 C5.08667969 7.98259766 5.08667969 7.98259766 6.1953125 7.96484375 C16.97324886 7.86424968 16.97324886 7.86424968 21 9 C23.45823172 12.68734758 24.01242616 15.69699971 25 20 C25.66 20 26.32 20 27 20 C27 20.99 27 21.98 27 23 C26.34 23 25.68 23 25 23 C20 17.76190476 20 17.76190476 20 13 C19.34 13 18.68 13 18 13 C18 14.65 18 16.3 18 18 C16.68 17.67 15.36 17.34 14 17 C14 16.34 14 15.68 14 15 C14.66 15 15.32 15 16 15 C15.67 13.68 15.34 12.36 15 11 C14.01 11 13.02 11 12 11 C12 12.98 12 14.96 12 17 C11.67 17 11.34 17 11 17 C11 14.36 11 11.72 11 9 C7.7 9 4.4 9 1 9 C1 8.01 1 7.02 1 6 C1.66 6 2.32 6 3 6 C3 4.68 3 3.36 3 2 C2.01 1.67 1.02 1.34 0 1 C0 0.67 0 0.34 0 0 Z " fill="#7F9369" transform="translate(174,41)"/>
<path d="M0 0 C1.32 0.33 2.64 0.66 4 1 C4 1.66 4 2.32 4 3 C4.99 3 5.98 3 7 3 C7 4.32 7 5.64 7 7 C5.68 7 4.36 7 3 7 C3.66 9.97 4.32 12.94 5 16 C1.71303767 16.79953138 0.28976808 17.09658936 -3 16 C-2.34 13.03 -1.68 10.06 -1 7 C-1.99 7 -2.98 7 -4 7 C-4 6.01 -4 5.02 -4 4 C-3.01 4 -2.02 4 -1 4 C-0.67 2.68 -0.34 1.36 0 0 Z " fill="#AAAAAA" transform="translate(165,47)"/>
<path d="M0 0 C2.64 0 5.28 0 8 0 C8 0.99 8 1.98 8 3 C9.32 3 10.64 3 12 3 C12 3.99 12 4.98 12 6 C10.35 6 8.7 6 7 6 C7 7.32 7 8.64 7 10 C6.01 10.66 5.02 11.32 4 12 C3.67 12.99 3.34 13.98 3 15 C3.66 15 4.32 15 5 15 C5 15.99 5 16.98 5 18 C2 17 2 17 1 16 C0.76321284 13.30764224 0.57801975 10.63501844 0.4375 7.9375 C0.39431641 7.17888672 0.35113281 6.42027344 0.30664062 5.63867188 C0.20026367 3.75934562 0.09960066 1.87969756 0 0 Z " fill="#BFBEB8" transform="translate(147,59)"/>
<path d="M0 0 C2.97 0 5.94 0 9 0 C9 0.66 9 1.32 9 2 C10.32 2.33 11.64 2.66 13 3 C11.68 3 10.36 3 9 3 C9 4.32 9 5.64 9 7 C7.68 7 6.36 7 5 7 C5.33 7.99 5.66 8.98 6 10 C5.01 9.67 4.02 9.34 3 9 C0.767731 9.08617726 -1.46238486 9.23922241 -3.6875 9.4375 C-4.86699219 9.53933594 -6.04648438 9.64117187 -7.26171875 9.74609375 C-8.61716797 9.87177734 -8.61716797 9.87177734 -10 10 C-9.67 9.01 -9.34 8.02 -9 7 C-6.4375 5.8125 -6.4375 5.8125 -4 5 C-4 5.33 -4 5.66 -4 6 C-2.35 6.33 -0.7 6.66 1 7 C0.67 4.69 0.34 2.38 0 0 Z " fill="#F3F3F2" transform="translate(115,30)"/>
<path d="M0 0 C3.28902165 0.29900197 5.56404634 0.72466085 8.375 2.5 C10.86567526 6.33180809 10.265427 9.487741 10 14 C7.03 14 4.06 14 1 14 C1.66 10.37 2.32 6.74 3 3 C2.01 3 1.02 3 0 3 C0 2.01 0 1.02 0 0 Z " fill="#63AC43" transform="translate(169,76)"/>
<path d="M0 0 C1.65 0 3.3 0 5 0 C5 0.66 5 1.32 5 2 C5.99 2 6.98 2 8 2 C8 3.32 8 4.64 8 6 C7.01 6 6.02 6 5 6 C4.92572162 9.34252724 4.93453047 11.8035914 6 15 C3.69 15 1.38 15 -1 15 C-0.34 12.03 0.32 9.06 1 6 C-0.32 6 -1.64 6 -3 6 C-3 4.68 -3 3.36 -3 2 C-2.01 2 -1.02 2 0 2 C0 1.34 0 0.68 0 0 Z " fill="#A9A9A9" transform="translate(110,48)"/>
<path d="M0 0 C0.66 0 1.32 0 2 0 C2 0.66 2 1.32 2 2 C2.66 2 3.32 2 4 2 C4.33 3.65 4.66 5.3 5 7 C5.99 7 6.98 7 8 7 C9.32 7 10.64 7 12 7 C12 6.01 12 5.02 12 4 C13.32 4 14.64 4 16 4 C15.75 5.875 15.75 5.875 15 8 C13.0625 9.125 13.0625 9.125 11 10 C10.34 10.66 9.68 11.32 9 12 C8.21625 11.690625 7.4325 11.38125 6.625 11.0625 C2.10148422 9.73664193 -2.31431814 9.35188915 -7 9 C-7 8.67 -7 8.34 -7 8 C-4.69 8 -2.38 8 0 8 C0 7.01 0 6.02 0 5 C-0.66 5 -1.32 5 -2 5 C-1.125 1.125 -1.125 1.125 0 0 Z " fill="#90A281" transform="translate(152,69)"/>
<path d="M0 0 C0 0.99 0 1.98 0 3 C-0.99 3.33 -1.98 3.66 -3 4 C-3.66 4.66 -4.32 5.32 -5 6 C-5 5.34 -5 4.68 -5 4 C-28.76 4 -52.52 4 -77 4 C-77 3.67 -77 3.34 -77 3 C-76.10464035 2.99191315 -75.2092807 2.98382629 -74.28678894 2.97549438 C-65.85524785 2.89760378 -57.42386763 2.81032993 -48.99253368 2.71247292 C-44.65773415 2.66249388 -40.32295917 2.61616405 -35.98803711 2.578125 C-31.80581033 2.54129239 -27.62378825 2.49493811 -23.44173622 2.44193649 C-21.84495949 2.42338174 -20.24813886 2.40827777 -18.65129662 2.39665604 C-16.41730086 2.37981187 -14.183775 2.35078206 -11.94995117 2.31884766 C-10.04133553 2.29886215 -10.04133553 2.29886215 -8.09416199 2.2784729 C-4.77887978 1.9800993 -3.15902007 0 0 0 Z " fill="#4B8631" transform="translate(77,88)"/>
<path d="M0 0 C0.70125 0.28875 1.4025 0.5775 2.125 0.875 C0.55027704 5.33671506 -1.46877029 10.67188514 -5.875 12.875 C-7.87460012 12.914992 -9.87547242 12.91846799 -11.875 12.875 C-11.875 12.215 -11.875 11.555 -11.875 10.875 C-10.885 10.875 -9.895 10.875 -8.875 10.875 C-9.060625 9.823125 -9.060625 9.823125 -9.25 8.75 C-8.7584108 4.98114948 -7.26847581 3.50651429 -4.54296875 0.96875 C-2.875 -0.125 -2.875 -0.125 0 0 Z " fill="#F6F6F5" transform="translate(164.875,88.125)"/>
<path d="M0 0 C0.99 0.66 1.98 1.32 3 2 C2.67 5.63 2.34 9.26 2 13 C0.68 13.33 -0.64 13.66 -2 14 C-2 13.01 -2 12.02 -2 11 C-1.01 11 -0.02 11 1 11 C1 10.34 1 9.68 1 9 C-3.62 9.33 -8.24 9.66 -13 10 C-12.34 8.68 -11.68 7.36 -11 6 C-11.66 6 -12.32 6 -13 6 C-13 5.34 -13 4.68 -13 4 C-13.66 3.67 -14.32 3.34 -15 3 C-14.34 3 -13.68 3 -13 3 C-13 2.34 -13 1.68 -13 1 C-12.34 1 -11.68 1 -11 1 C-11 1.66 -11 2.32 -11 3 C-9.68 3.33 -8.36 3.66 -7 4 C-7 4.66 -7 5.32 -7 6 C-4.36 6.33 -1.72 6.66 1 7 C0.67 4.69 0.34 2.38 0 0 Z " fill="#5C8447" transform="translate(178,83)"/>
<path d="M0 0 C1.65 0 3.3 0 5 0 C5 0.66 5 1.32 5 2 C5.99 2.33 6.98 2.66 8 3 C8 3.99 8 4.98 8 6 C6.68 6 5.36 6 4 6 C4.33 8.97 4.66 11.94 5 15 C3.35 15 1.7 15 0 15 C0.33 11.7 0.66 8.4 1 5 C-0.32 5.33 -1.64 5.66 -3 6 C-3 5.01 -3 4.02 -3 3 C-2.01 3 -1.02 3 0 3 C0 2.01 0 1.02 0 0 Z " fill="#808080" transform="translate(97,59)"/>
<path d="M0 0 C2.23551759 3.35327639 2.17283528 3.90743657 1.625 7.6875 C1.45871094 8.89986328 1.45871094 8.89986328 1.2890625 10.13671875 C1.19367188 10.75160156 1.09828125 11.36648437 1 12 C0.67 12 0.34 12 0 12 C0 10.02 0 8.04 0 6 C-1.216875 6.474375 -2.43375 6.94875 -3.6875 7.4375 C-6.77268791 8.59924038 -9.73121198 9.48925187 -13 10 C-13.33 8.68 -13.66 7.36 -14 6 C-12.02 6 -10.04 6 -8 6 C-8 5.34 -8 4.68 -8 4 C-8.66 3.67 -9.32 3.34 -10 3 C-6.30581799 1.768606 -3.7943739 2.35567236 0 3 C0 2.01 0 1.02 0 0 Z " fill="#939786" transform="translate(70,59)"/>
<path d="M0 0 C0.99 0 1.98 0 3 0 C3 1.32 3 2.64 3 4 C4.32 4 5.64 4 7 4 C7 4.66 7 5.32 7 6 C5.35 6 3.7 6 2 6 C2.33 9.3 2.66 12.6 3 16 C1.68 15.67 0.36 15.34 -1 15 C-0.67 12.36 -0.34 9.72 0 7 C-1.32 7 -2.64 7 -4 7 C-4 5.68 -4 4.36 -4 3 C-3.01 3 -2.02 3 -1 3 C-0.67 2.01 -0.34 1.02 0 0 Z " fill="#808080" transform="translate(138,47)"/>
<path d="M0 0 C0.66 0 1.32 0 2 0 C3.75747614 4.50353262 4.19294408 8.17639811 4 13 C2.35 13 0.7 13 -1 13 C-0.67 14.65 -0.34 16.3 0 18 C-1.65 18 -3.3 18 -5 18 C-4.5012629 15.75568304 -3.89454223 13.74953781 -3 11.625 C-1.90814525 8.75888129 -1.42290178 6.0307961 -1 3 C-0.34 3 0.32 3 1 3 C0.67 2.01 0.34 1.02 0 0 Z " fill="#8F9289" transform="translate(99,84)"/>
<path d="M0 0 C0.33 0.66 0.66 1.32 1 2 C1.99 2 2.98 2 4 2 C4 3.32 4 4.64 4 6 C2.68 6 1.36 6 0 6 C0 7.65 0 9.3 0 11 C4.95514502 10.12527407 4.95514502 10.12527407 8.4375 6.875 C8.623125 6.25625 8.80875 5.6375 9 5 C8.34 5 7.68 5 7 5 C7 4.01 7 3.02 7 2 C7.99 1.67 8.98 1.34 10 1 C10 1.99 10 2.98 10 4 C10.99 4.33 11.98 4.66 13 5 C12.34 5 11.68 5 11 5 C10.67 6.65 10.34 8.3 10 10 C9.01 10.33 8.02 10.66 7 11 C7.33 11.99 7.66 12.98 8 14 C7.34 14 6.68 14 6 14 C6 13.34 6 12.68 6 12 C3.69 12 1.38 12 -1 12 C-1.02712066 10.56260487 -1.04645067 9.12506137 -1.0625 7.6875 C-1.07410156 6.88699219 -1.08570312 6.08648437 -1.09765625 5.26171875 C-1 3 -1 3 0 0 Z " fill="#B6B6AE" transform="translate(74,59)"/>
<path d="M0 0 C1.32 0 2.64 0 4 0 C3.67 1.98 3.34 3.96 3 6 C3.66 6 4.32 6 5 6 C5 5.01 5 4.02 5 3 C5.99 3.33 6.98 3.66 8 4 C7.34 4 6.68 4 6 4 C6 5.32 6 6.64 6 8 C4.02 8 2.04 8 0 8 C0 7.34 0 6.68 0 6 C-6.27 5.67 -12.54 5.34 -19 5 C-19 4.67 -19 4.34 -19 4 C-12.73 3.67 -6.46 3.34 0 3 C0 2.01 0 1.02 0 0 Z " fill="#739164" transform="translate(137,73)"/>
<path d="M0 0 C0.66 1.32 1.32 2.64 2 4 C-1.79692186 6.82561627 -4.18569279 8.56638908 -9 8 C-9.33 6.68 -9.66 5.36 -10 4 C-9.01 3.67 -8.02 3.34 -7 3 C-7 2.34 -7 1.68 -7 1 C-4.53721199 -0.231394 -2.7204945 -0.07159196 0 0 Z " fill="#488331" transform="translate(206,64)"/>
<path d="M0 0 C0.04254356 1.99954746 0.04080783 4.00041636 0 6 C-1 7 -1 7 -3.94140625 7.09765625 C-5.73384766 7.08025391 -5.73384766 7.08025391 -7.5625 7.0625 C-9.35880859 7.04896484 -9.35880859 7.04896484 -11.19140625 7.03515625 C-12.11824219 7.02355469 -13.04507813 7.01195313 -14 7 C-14 6.34 -14 5.68 -14 5 C-12.421924 4.15675328 -10.8372958 3.32576082 -9.25 2.5 C-8.36828125 2.0359375 -7.4865625 1.571875 -6.578125 1.09375 C-4 0 -4 0 0 0 Z " fill="#F8F7F6" transform="translate(70,65)"/>
<path d="M0 0 C0.33 0 0.66 0 1 0 C1 3.63 1 7.26 1 11 C0.01 11 -0.98 11 -2 11 C-2 11.66 -2 12.32 -2 13 C-1.01 13 -0.02 13 1 13 C0.67 14.98 0.34 16.96 0 19 C-1.65 19 -3.3 19 -5 19 C-4.98839844 18.25234375 -4.97679687 17.5046875 -4.96484375 16.734375 C-4.95582031 15.74953125 -4.94679687 14.7646875 -4.9375 13.75 C-4.92589844 12.77546875 -4.91429687 11.8009375 -4.90234375 10.796875 C-4.98804423 8.34241322 -5.29293934 6.33831086 -6 4 C-4.5 5.3125 -4.5 5.3125 -3 7 C-3 7.99 -3 8.98 -3 10 C-2.01 10 -1.02 10 0 10 C0 6.7 0 3.4 0 0 Z " fill="#BBBCB3" transform="translate(185,77)"/>
<path d="M0 0 C0.99 0 1.98 0 3 0 C3.06058594 0.83144531 3.12117188 1.66289063 3.18359375 2.51953125 C3.26738281 3.60621094 3.35117188 4.69289063 3.4375 5.8125 C3.55931641 7.43091797 3.55931641 7.43091797 3.68359375 9.08203125 C3.90212461 12.05989905 3.90212461 12.05989905 5 15 C3.35 15 1.7 15 0 15 C0 12.03 0 9.06 0 6 C-1.32 6 -2.64 6 -4 6 C-4 5.01 -4 4.02 -4 3 C-2.68 3 -1.36 3 0 3 C0 2.01 0 1.02 0 0 Z " fill="#A3A3A3" transform="translate(84,48)"/>
<path d="M0 0 C0.66 0.33 1.32 0.66 2 1 C1.67 2.65 1.34 4.3 1 6 C0.34 6 -0.32 6 -1 6 C-0.65213292 7.97536745 -0.65213292 7.97536745 0 10 C0.66 10.33 1.32 10.66 2 11 C2.12375 10.195625 2.2475 9.39125 2.375 8.5625 C2.58125 7.716875 2.7875 6.87125 3 6 C3.66 5.67 4.32 5.34 5 5 C4.34 7.97 3.68 10.94 3 14 C-1.455 14.495 -1.455 14.495 -6 15 C-5.67 13.68 -5.34 12.36 -5 11 C-4.01 11 -3.02 11 -2 11 C-2 8.69 -2 6.38 -2 4 C-1.34 4 -0.68 4 0 4 C0 2.68 0 1.36 0 0 Z " fill="#ADB1A2" transform="translate(79,80)"/>
<path d="M0 0 C5.09448798 0.43173627 8.84512277 0.75400216 13 4 C13 4.66 13 5.32 13 6 C13.66 6 14.32 6 15 6 C15.33 7.32 15.66 8.64 16 10 C13.36 10 10.72 10 8 10 C8 7.69 8 5.38 8 3 C5.36 2.34 2.72 1.68 0 1 C0 0.67 0 0.34 0 0 Z " fill="#6F8263" transform="translate(170,39)"/>
<path d="M0 0 C1.32 0 2.64 0 4 0 C4 2.31 4 4.62 4 7 C4.66 7 5.32 7 6 7 C6 7.99 6 8.98 6 10 C3.03 9.67 0.06 9.34 -3 9 C-3.33 8.01 -3.66 7.02 -4 6 C-3.01 5.34 -2.02 4.68 -1 4 C-0.27617533 1.94074861 -0.27617533 1.94074861 0 0 Z " fill="#F0F0EE" transform="translate(85,64)"/>
<path d="M0 0 C1.32 0 2.64 0 4 0 C4 0.99 4 1.98 4 3 C4.99 3 5.98 3 7 3 C7 3.66 7 4.32 7 5 C5.68 5 4.36 5 3 5 C3.33 7.97 3.66 10.94 4 14 C2.68 14 1.36 14 0 14 C0.66 10.7 1.32 7.4 2 4 C0.35 4.66 -1.3 5.32 -3 6 C-3.33 5.01 -3.66 4.02 -4 3 C-2.68 3 -1.36 3 0 3 C0 2.01 0 1.02 0 0 Z " fill="#7D7D7D" transform="translate(124,34)"/>
<path d="M0 0 C2.64 0.33 5.28 0.66 8 1 C8 3.31 8 5.62 8 8 C6.35 8.33 4.7 8.66 3 9 C0.70620251 5.55930376 0 4.27709699 0 0 Z " fill="#F6F6F4" transform="translate(81,38)"/>
<path d="M0 0 C1.32 0.33 2.64 0.66 4 1 C3.01 1 2.02 1 1 1 C1.185625 2.19625 1.37125 3.3925 1.5625 4.625 C2.04494418 8.302007 1.6095495 11.34270297 1 15 C1.66 15.66 2.32 16.32 3 17 C1.02 17 -0.96 17 -3 17 C-3 16.01 -3 15.02 -3 14 C-2.34 13.67 -1.68 13.34 -1 13 C-0.34227572 9.97065509 -0.34227572 9.97065509 0 7 C-1.32 6.67 -2.64 6.34 -4 6 C-3.67 5.01 -3.34 4.02 -3 3 C-2.34 3 -1.68 3 -1 3 C-0.67 2.01 -0.34 1.02 0 0 Z " fill="#BABABA" transform="translate(97,33)"/>
<path d="M0 0 C2.31 0.33 4.62 0.66 7 1 C3.25 7.875 3.25 7.875 1 9 C1 8.01 1 7.02 1 6 C-0.32 6 -1.64 6 -3 6 C-3 4.68 -3 3.36 -3 2 C-2.01 2 -1.02 2 0 2 C0 1.34 0 0.68 0 0 Z " fill="#B2B2B1" transform="translate(177,59)"/>
<path d="M0 0 C2.64 0 5.28 0 8 0 C8 0.99 8 1.98 8 3 C9.32 3 10.64 3 12 3 C12 3.99 12 4.98 12 6 C10.68 6 9.36 6 8 6 C8 5.34 8 4.68 8 4 C6.8553125 4.495 6.8553125 4.495 5.6875 5 C3 6 3 6 0 6 C0 4.02 0 2.04 0 0 Z " fill="#A1A09E" transform="translate(147,59)"/>
<path d="M0 0 C2.33294775 -0.04241723 4.66702567 -0.04092937 7 0 C8 1 8 1 8.09765625 3.06640625 C8.08605469 3.89011719 8.07445312 4.71382813 8.0625 5.5625 C8.05347656 6.38878906 8.04445312 7.21507813 8.03515625 8.06640625 C8.02355469 8.70449219 8.01195312 9.34257813 8 10 C6 8.625 6 8.625 4 7 C4 6.34 4 5.68 4 5 C3.01 4.67 2.02 4.34 1 4 C0.3125 1.9375 0.3125 1.9375 0 0 Z " fill="#F9F9F7" transform="translate(176,76)"/>
<path d="M0 0 C0.33 0.66 0.66 1.32 1 2 C3.31 2 5.62 2 8 2 C8.33 1.34 8.66 0.68 9 0 C9 0.99 9 1.98 9 3 C8.01 3 7.02 3 6 3 C6.515625 3.86625 7.03125 4.7325 7.5625 5.625 C9.16782969 9.39403493 9.01911045 11.10885099 8 15 C7.67 14.01 7.34 13.02 7 12 C4.98491642 11.26676204 4.98491642 11.26676204 3 11 C3.66 11 4.32 11 5 11 C4.67 8.36 4.34 5.72 4 3 C2.68 3 1.36 3 0 3 C0 2.01 0 1.02 0 0 Z " fill="#CCCAC4" transform="translate(108,61)"/>
<path d="M0 0 C0.38063221 2.3260857 0.71269945 4.66055264 1 7 C0 8 0 8 -3.0625 8.0625 C-4.031875 8.041875 -5.00125 8.02125 -6 8 C-6.33 7.01 -6.66 6.02 -7 5 C-7.66 4.67 -8.32 4.34 -9 4 C-7.68872739 3.3309224 -6.3759455 2.66480194 -5.0625 2 C-4.33160156 1.62875 -3.60070313 1.2575 -2.84765625 0.875 C-1 0 -1 0 0 0 Z " fill="#727268" transform="translate(60,55)"/>
<path d="M0 0 C0.99 0.33 1.98 0.66 3 1 C3 6.94 3 12.88 3 19 C2.01 19 1.02 19 0 19 C0.33 17.35 0.66 15.7 1 14 C0.01 14 -0.98 14 -2 14 C-2 13.34 -2 12.68 -2 12 C-1.01 12 -0.02 12 1 12 C0.67 8.04 0.34 4.08 0 0 Z " fill="#6C8F57" transform="translate(185,76)"/>
<path d="M0 0 C0.33 0.99 0.66 1.98 1 3 C-0.32 3 -1.64 3 -3 3 C-2.67 3.9075 -2.34 4.815 -2 5.75 C-1 9 -1 9 -1 13 C-6.75 13.125 -6.75 13.125 -9 12 C-8.85892253 10.54119891 -8.71197585 9.08296449 -8.5625 7.625 C-8.48128906 6.81289063 -8.40007812 6.00078125 -8.31640625 5.1640625 C-8 3 -8 3 -7 1 C-6.34 1 -5.68 1 -5 1 C-5.33 4.3 -5.66 7.6 -6 11 C-5.34 11 -4.68 11 -4 11 C-4 8.03 -4 5.06 -4 2 C-2.68 2 -1.36 2 0 2 C0 1.34 0 0.68 0 0 Z " fill="#B8B8B8" transform="translate(131,37)"/>
<path d="M0 0 C-0.75 6.75 -0.75 6.75 -3 9 C-3.6425235 11.06874034 -3.6425235 11.06874034 -4 13 C-4.99 12.67 -5.98 12.34 -7 12 C-7 10.68 -7 9.36 -7 8 C-6.34 8 -5.68 8 -5 8 C-4.67 5.69 -4.34 3.38 -4 1 C-1 0 -1 0 0 0 Z " fill="#EAEAE8" transform="translate(85,78)"/>
<path d="M0 0 C1.32 0 2.64 0 4 0 C4.16788373 1.62487471 4.33426787 3.24990442 4.5 4.875 C4.5928125 5.77992187 4.685625 6.68484375 4.78125 7.6171875 C5 10 5 10 5 12 C3.68 11.67 2.36 11.34 1 11 C0.67 7.37 0.34 3.74 0 0 Z " fill="#BDBBB5" transform="translate(73,40)"/>
<path d="M0 0 C1.67542976 0.28604898 3.34385343 0.61781233 5 1 C4.67 2.32 4.34 3.64 4 5 C3.01 5 2.02 5 1 5 C1 5.99 1 6.98 1 8 C2.98 8 4.96 8 7 8 C7 8.66 7 9.32 7 10 C3.625 9.75 3.625 9.75 0 9 C-1.5 7.1875 -1.5 7.1875 -2 5 C-1.5 1.5 -1.5 1.5 0 0 Z " fill="#506C3B" transform="translate(45,62)"/>
<path d="M0 0 C-0.57344937 2.86724686 -0.8614515 3.8614515 -3 6 C-6.125 6.125 -6.125 6.125 -9 6 C-9 4.35 -9 2.7 -9 1 C-5.846632 0.29925156 -3.27275026 0 0 0 Z " fill="#F9F8F8" transform="translate(83,64)"/>
<path d="M0 0 C0.22786458 2.01822917 0.45572917 4.03645833 0.68359375 6.0546875 C0.91292961 8.07404316 0.91292961 8.07404316 2 10 C-0.31 10.33 -2.62 10.66 -5 11 C-4.34 8.03 -3.68 5.06 -3 2 C-3.99 1.67 -4.98 1.34 -6 1 C-3.92446352 0.4465236 -2.15634036 0 0 0 Z " fill="#8E8E8E" transform="translate(167,52)"/>
<path d="M0 0 C0.33 0 0.66 0 1 0 C1.05437607 1.58294782 1.09296271 3.16644256 1.125 4.75 C1.14820312 5.63171875 1.17140625 6.5134375 1.1953125 7.421875 C0.99139502 10.1135858 0.36551721 11.69904974 -1 14 C-0.01 14.33 0.98 14.66 2 15 C2 15.99 2 16.98 2 18 C0.35 17.67 -1.3 17.34 -3 17 C-2.25339288 11.27601207 -1.17122859 5.65146223 0 0 Z " fill="#BFBEB9" transform="translate(90,36)"/>
<path d="M0 0 C0.6875 1.6875 0.6875 1.6875 1 4 C-0.25 6.75 -0.25 6.75 -2 9 C-2.99 9 -3.98 9 -5 9 C-5.33 6.69 -5.66 4.38 -6 2 C-4.02 1.34 -2.04 0.68 0 0 Z " fill="#EFEFEE" transform="translate(98,63)"/>
<path d="M0 0 C0 0.99 0 1.98 0 3 C-0.33 3.33 -0.66 3.66 -1 4 C0.65 4.33 2.3 4.66 4 5 C2.25 8.875 2.25 8.875 0 10 C-1.99960012 10.039992 -4.00047242 10.04346799 -6 10 C-6 9.34 -6 8.68 -6 8 C-5.01 8 -4.02 8 -3 8 C-3.061875 7.236875 -3.12375 6.47375 -3.1875 5.6875 C-3 3 -3 3 -1.5 1.1875 C-1.005 0.795625 -0.51 0.40375 0 0 Z " fill="#A8A89F" transform="translate(159,91)"/>
<path d="M0 0 C0.33 0 0.66 0 1 0 C1.1875 2.3125 1.1875 2.3125 1 5 C0.5359375 5.45375 0.071875 5.9075 -0.40625 6.375 C-2.35423263 8.36117837 -2.88216261 10.04139143 -3.6875 12.6875 C-3.93886719 13.49574219 -4.19023438 14.30398437 -4.44921875 15.13671875 C-4.63097656 15.75160156 -4.81273438 16.36648437 -5 17 C-6.32 16.67 -7.64 16.34 -9 16 C-8.34 15.67 -7.68 15.34 -7 15 C-7 12.36 -7 9.72 -7 7 C-5.824375 6.6596875 -5.824375 6.6596875 -4.625 6.3125 C-1.78125 5.21875 -1.78125 5.21875 -0.6875 2.375 C-0.460625 1.59125 -0.23375 0.8075 0 0 Z " fill="#798F6A" transform="translate(109,81)"/>
<path d="M0 0 C0.99 0 1.98 0 3 0 C2.67 3.96 2.34 7.92 2 12 C4.31 12 6.62 12 9 12 C9 12.66 9 13.32 9 14 C6.03 14 3.06 14 0 14 C0 9.38 0 4.76 0 0 Z " fill="#60824F" transform="translate(71,59)"/>
<path d="M0 0 C2.31 0 4.62 0 7 0 C6.01 0.33 5.02 0.66 4 1 C4.33 3.31 4.66 5.62 5 8 C3.02 8 1.04 8 -1 8 C-0.67 5.36 -0.34 2.72 0 0 Z " fill="#C0C0BD" transform="translate(111,29)"/>
<path d="M0 0 C4.7517398 0.43197635 6.92000054 1.32769295 10 5 C9.67 5.99 9.34 6.98 9 8 C8.67 7.01 8.34 6.02 8 5 C7.01 5 6.02 5 5 5 C4.67 5.99 4.34 6.98 4 8 C3.67 8 3.34 8 3 8 C3 6.35 3 4.7 3 3 C2.01 3 1.02 3 0 3 C0 2.01 0 1.02 0 0 Z " fill="#789567" transform="translate(169,76)"/>
<path d="M0 0 C1.32 0.33 2.64 0.66 4 1 C4 3.31 4 5.62 4 8 C5.27875 7.979375 6.5575 7.95875 7.875 7.9375 C11.75 7.875 11.75 7.875 14 9 C14 9.66 14 10.32 14 11 C13.34 11 12.68 11 12 11 C12 12.98 12 14.96 12 17 C11.67 17 11.34 17 11 17 C11 14.36 11 11.72 11 9 C7.7 9 4.4 9 1 9 C1 8.01 1 7.02 1 6 C1.66 6 2.32 6 3 6 C3 4.68 3 3.36 3 2 C2.01 1.67 1.02 1.34 0 1 C0 0.67 0 0.34 0 0 Z " fill="#B8BAB2" transform="translate(174,41)"/>
<path d="M0 0 C0.66 0 1.32 0 2 0 C2.0825 0.94875 2.165 1.8975 2.25 2.875 C2.65074923 6.10461791 2.65074923 6.10461791 5.0625 7.375 C5.701875 7.58125 6.34125 7.7875 7 8 C7 8.66 7 9.32 7 10 C7.66 10.33 8.32 10.66 9 11 C8.34 11 7.68 11 7 11 C6.67 11.66 6.34 12.32 6 13 C5.79375 12.195625 5.5875 11.39125 5.375 10.5625 C4.92125 9.716875 4.4675 8.87125 4 8 C0.94727535 7.10169161 0.94727535 7.10169161 -2 7 C-1.34 4.69 -0.68 2.38 0 0 Z " fill="#60834A" transform="translate(192,54)"/>
<path d="M0 0 C1.875 0.25 1.875 0.25 4 1 C5.87380446 3.49840595 6.05001932 4.63319166 5.625 7.75 C5.41875 8.4925 5.2125 9.235 5 10 C4.34 10 3.68 10 3 10 C3 8.68 3 7.36 3 6 C2.01 6 1.02 6 0 6 C0 4.02 0 2.04 0 0 Z " fill="#445739" transform="translate(69,42)"/>
<path d="M0 0 C5.61 0.33 11.22 0.66 17 1 C17 1.66 17 2.32 17 3 C13.37 2.67 9.74 2.34 6 2 C6 2.66 6 3.32 6 4 C3.69 4 1.38 4 -1 4 C-0.67 2.68 -0.34 1.36 0 0 Z " fill="#4E733D" transform="translate(137,33)"/>
<path d="M0 0 C0.99 0 1.98 0 3 0 C3.84454356 3.37817425 4.10844919 5.67465243 3 9 C1.68 9 0.36 9 -1 9 C-1.09765625 2.84765625 -1.09765625 2.84765625 -1 1 C-0.67 0.67 -0.34 0.34 0 0 Z " fill="#BBBAB1" transform="translate(50,60)"/>
<path d="M0 0 C0 0.99 0 1.98 0 3 C-0.99 3.33 -1.98 3.66 -3 4 C-3.66 4.66 -4.32 5.32 -5 6 C-5 5.34 -5 4.68 -5 4 C-11.93 4 -18.86 4 -26 4 C-26 3.67 -26 3.34 -26 3 C-25.37955811 2.98018066 -24.75911621 2.96036133 -24.11987305 2.93994141 C-21.30865463 2.84468155 -18.49817834 2.73500698 -15.6875 2.625 C-14.71103516 2.5940625 -13.73457031 2.563125 -12.72851562 2.53125 C-11.32182617 2.47324219 -11.32182617 2.47324219 -9.88671875 2.4140625 C-9.02264404 2.3826416 -8.15856934 2.3512207 -7.26831055 2.31884766 C-4.36166206 1.9102713 -2.92473395 0 0 0 Z " fill="#517E39" transform="translate(77,88)"/>
<path d="M0 0 C0 0.66 0 1.32 0 2 C1.98 1.67 3.96 1.34 6 1 C6 1.66 6 2.32 6 3 C2.63316085 5.43160605 1.26649636 6 -3 6 C-3.33 5.01 -3.66 4.02 -4 3 C-4.66 2.67 -5.32 2.34 -6 2 C-2.25 0 -2.25 0 0 0 Z " fill="#BDBEBA" transform="translate(88,76)"/>
<path d="M0 0 C0.99 0 1.98 0 3 0 C3 0.66 3 1.32 3 2 C4.98 2 6.96 2 9 2 C9 2.66 9 3.32 9 4 C8.34 4 7.68 4 7 4 C7 4.66 7 5.32 7 6 C10.96 6 14.92 6 19 6 C19 6.33 19 6.66 19 7 C14.38 7 9.76 7 5 7 C5.33 5.68 5.66 4.36 6 3 C4.02 3 2.04 3 0 3 C0 2.01 0 1.02 0 0 Z " fill="#8C9A7C" transform="translate(46,67)"/>
<path d="M0 0 C0.66 0 1.32 0 2 0 C2 0.66 2 1.32 2 2 C2.66 2 3.32 2 4 2 C4.66 4.31 5.32 6.62 6 9 C4.02 9 2.04 9 0 9 C0 6.03 0 3.06 0 0 Z " fill="#F0F0EC" transform="translate(77,41)"/>
<path d="M0 0 C1.32 0 2.64 0 4 0 C3.75 1.875 3.75 1.875 3 4 C1.0625 5.125 1.0625 5.125 -1 6 C-1.66 6.66 -2.32 7.32 -3 8 C-4.32 6.68 -5.64 5.36 -7 4 C-3.535 3.505 -3.535 3.505 0 3 C0 2.01 0 1.02 0 0 Z " fill="#A0A09D" transform="translate(164,73)"/>
<path d="M0 0 C1.32 0.33 2.64 0.66 4 1 C4.66 3.64 5.32 6.28 6 9 C6.66 9 7.32 9 8 9 C8 9.99 8 10.98 8 12 C7.34 12 6.68 12 6 12 C2.17974459 8.08656763 0.40137545 5.61925626 0 0 Z " fill="#969F83" transform="translate(193,52)"/>
<path d="M0 0 C0.33 0.66 0.66 1.32 1 2 C2.98 2 4.96 2 7 2 C7.33 1.34 7.66 0.68 8 0 C8 0.99 8 1.98 8 3 C9.32 3.66 10.64 4.32 12 5 C6.72 5 1.44 5 -4 5 C-3.01 4.34 -2.02 3.68 -1 3 C-0.67 2.01 -0.34 1.02 0 0 Z " fill="#CCCCC8" transform="translate(122,72)"/>
<path d="M0 0 C1.64630328 0.14042877 3.29204179 0.28749329 4.9375 0.4375 C6.31228516 0.55931641 6.31228516 0.55931641 7.71484375 0.68359375 C10 1 10 1 11 2 C11.07226502 3.85287502 11.0838122 5.70833878 11.0625 7.5625 C11.05347656 8.57441406 11.04445312 9.58632812 11.03515625 10.62890625 C11.02355469 11.41136719 11.01195312 12.19382812 11 13 C10.01 13 9.02 13 8 13 C8.33 12.34 8.66 11.68 9 11 C9.0689472 9.62657169 9.08467708 8.24997898 9.0625 6.875 C9.041875 5.59625 9.02125 4.3175 9 3 C7.02 3 5.04 3 3 3 C2.67 3.66 2.34 4.32 2 5 C1.34 3.35 0.68 1.7 0 0 Z " fill="#DFDFDB" transform="translate(174,74)"/>
<path d="M0 0 C-0.875 3.875 -0.875 3.875 -2 5 C-3.66617115 5.04063832 -5.33388095 5.042721 -7 5 C-6.625 2.5625 -6.625 2.5625 -6 0 C-3.50907189 -1.24546405 -2.58919267 -0.7767578 0 0 Z " fill="#15290D" transform="translate(205,65)"/>
<path d="M0 0 C0.66 0.33 1.32 0.66 2 1 C1.95875 1.78375 1.9175 2.5675 1.875 3.375 C1.71271266 6.16116119 1.71271266 6.16116119 4 8 C4 8.99 4 9.98 4 11 C0.7 11 -2.6 11 -6 11 C-6 10.01 -6 9.02 -6 8 C-5.01 7.67 -4.02 7.34 -3 7 C-2.67 7.66 -2.34 8.32 -2 9 C-0.68 9 0.64 9 2 9 C1.34 8.34 0.68 7.68 0 7 C-0.125 3.375 -0.125 3.375 0 0 Z " fill="#C5C5C5" transform="translate(154,39)"/>
<path d="M0 0 C0.33 0.66 0.66 1.32 1 2 C1.99 2 2.98 2 4 2 C4 3.32 4 4.64 4 6 C2.68 6 1.36 6 0 6 C0 7.65 0 9.3 0 11 C1.98 11.495 1.98 11.495 4 12 C2.35 12 0.7 12 -1 12 C-1.02712066 10.56260487 -1.04645067 9.12506137 -1.0625 7.6875 C-1.07410156 6.88699219 -1.08570312 6.08648437 -1.09765625 5.26171875 C-1 3 -1 3 0 0 Z " fill="#BBBBBA" transform="translate(74,59)"/>
<path d="M0 0 C2 1 2 1 5 3 C5.33 2.01 5.66 1.02 6 0 C6.66 0.33 7.32 0.66 8 1 C8 1.99 8 2.98 8 4 C2.06 4.495 2.06 4.495 -4 5 C-4 4.01 -4 3.02 -4 2 C-2.125 0.9375 -2.125 0.9375 0 0 Z " fill="#C1C1C1" transform="translate(136,60)"/>
<path d="M0 0 C0.33 0.99 0.66 1.98 1 3 C-4.94 3.495 -4.94 3.495 -11 4 C-8.97717134 -2.06848598 -5.42392029 -1.02338119 0 0 Z " fill="#C5C5C5" transform="translate(116,36)"/>
<path d="M0 0 C1.32 0 2.64 0 4 0 C4 0.99 4 1.98 4 3 C4.99 3.33 5.98 3.66 7 4 C5.68 4.33 4.36 4.66 3 5 C3 3.68 3 2.36 3 1 C2.34 1 1.68 1 1 1 C0.67 3.31 0.34 5.62 0 8 C-0.33 7.34 -0.66 6.68 -1 6 C-1.99 6 -2.98 6 -4 6 C-3.67 5.01 -3.34 4.02 -3 3 C-2.01 3 -1.02 3 0 3 C0 2.01 0 1.02 0 0 Z " fill="#979792" transform="translate(111,73)"/>
<path d="M0 0 C2.97 0 5.94 0 9 0 C8.01 0.495 8.01 0.495 7 1 C7 1.99 7 2.98 7 4 C6.01 4 5.02 4 4 4 C4 3.01 4 2.02 4 1 C3.01 1 2.02 1 1 1 C1 1.66 1 2.32 1 3 C-1.97 3 -4.94 3 -8 3 C-7.67 2.34 -7.34 1.68 -7 1 C-4.69 1.33 -2.38 1.66 0 2 C0 1.34 0 0.68 0 0 Z " fill="#91978B" transform="translate(143,35)"/>
<path d="M0 0 C0.33 0.66 0.66 1.32 1 2 C1.99 2.33 2.98 2.66 4 3 C4 3.99 4 4.98 4 6 C2.68 6 1.36 6 0 6 C0.33 8.31 0.66 10.62 1 13 C0.34 12.67 -0.32 12.34 -1 12 C-1.02712066 10.56260487 -1.04645067 9.12506137 -1.0625 7.6875 C-1.07410156 6.88699219 -1.08570312 6.08648437 -1.09765625 5.26171875 C-1 3 -1 3 0 0 Z " fill="#B9B9B9" transform="translate(101,59)"/>
<path d="M0 0 C0.66 0 1.32 0 2 0 C2.33 4.62 2.66 9.24 3 14 C1.68 14 0.36 14 -1 14 C-0.9278125 13.24074219 -0.855625 12.48148438 -0.78125 11.69921875 C-0.6884375 10.70535156 -0.595625 9.71148437 -0.5 8.6875 C-0.4071875 7.70136719 -0.314375 6.71523438 -0.21875 5.69921875 C0.04038857 2.95297861 0.04038857 2.95297861 0 0 Z " fill="#6B6B6B" transform="translate(98,34)"/>
<path d="M0 0 C0.66 0 1.32 0 2 0 C1.67 1.98 1.34 3.96 1 6 C0.01 6 -0.98 6 -2 6 C-1.67 6.99 -1.34 7.98 -1 9 C-1.99 8.67 -2.98 8.34 -4 8 C-3.40312566 4.65750371 -2.26396123 2.53563658 0 0 Z " fill="#AEADA0" transform="translate(176,68)"/>
<path d="M0 0 C3.62528568 -0.20140476 5.86501708 0.14223235 9 2 C9 2.99 9 3.98 9 5 C8.01 5 7.02 5 6 5 C6 4.34 6 3.68 6 3 C4.35 3.33 2.7 3.66 1 4 C0.67 2.68 0.34 1.36 0 0 Z " fill="#758369" transform="translate(82,73)"/>
<path d="M0 0 C2.23551759 3.35327639 2.17283528 3.90743657 1.625 7.6875 C1.45871094 8.89986328 1.45871094 8.89986328 1.2890625 10.13671875 C1.19367188 10.75160156 1.09828125 11.36648437 1 12 C0.67 12 0.34 12 0 12 C-0.33 9.69 -0.66 7.38 -1 5 C-3.97 4.505 -3.97 4.505 -7 4 C-7 3.67 -7 3.34 -7 3 C-4.69 3 -2.38 3 0 3 C0 2.01 0 1.02 0 0 Z " fill="#C1C1BF" transform="translate(70,59)"/>
<path d="M0 0 C2.97 0.495 2.97 0.495 6 1 C4.68 3.31 3.36 5.62 2 8 C1.33333333 5.33333333 0.66666667 2.66666667 0 0 Z " fill="#A1A29D" transform="translate(178,59)"/>
<path d="M0 0 C0.66 0.33 1.32 0.66 2 1 C1.67 2.32 1.34 3.64 1 5 C0.34 5 -0.32 5 -1 5 C-1.66 6.32 -2.32 7.64 -3 9 C-4.43088528 6.13822943 -3.59991697 4.06624227 -3 1 C-2.01 0.67 -1.02 0.34 0 0 Z " fill="#53783F" transform="translate(189,51)"/>
<path d="M0 0 C0.66 0 1.32 0 2 0 C2 0.66 2 1.32 2 2 C3.32 2.33 4.64 2.66 6 3 C6 3.66 6 4.32 6 5 C5.01 5 4.02 5 3 5 C2.67 5.66 2.34 6.32 2 7 C2 6.34 2 5.68 2 5 C1.34 5 0.68 5 0 5 C0 4.34 0 3.68 0 3 C-0.66 2.67 -1.32 2.34 -2 2 C-1.34 2 -0.68 2 0 2 C0 1.34 0 0.68 0 0 Z " fill="#46533B" transform="translate(165,84)"/>
<path d="M0 0 C0.66 0 1.32 0 2 0 C1.67 2.97 1.34 5.94 1 9 C-0.32 9 -1.64 9 -3 9 C-1.125 2.25 -1.125 2.25 0 0 Z " fill="#517142" transform="translate(180,65)"/>
<path d="M0 0 C2.29013653 3.4352048 2.17842973 4.985331 2 9 C1.67 8.01 1.34 7.02 1 6 C-0.32 6 -1.64 6 -3 6 C-3 4.68 -3 3.36 -3 2 C-2.01 2 -1.02 2 0 2 C0 1.34 0 0.68 0 0 Z " fill="#B2B2B2" transform="translate(137,48)"/>
<path d="M0 0 C1.32 0 2.64 0 4 0 C4 1.65 4 3.3 4 5 C2.68 5.33 1.36 5.66 0 6 C0 4.02 0 2.04 0 0 Z " fill="#F1F1F0" transform="translate(168,79)"/>
<path d="M0 0 C2 1.375 2 1.375 4 3 C4 3.66 4 4.32 4 5 C1.69 5 -0.62 5 -3 5 C-1.125 1.125 -1.125 1.125 0 0 Z " fill="#5F5F5E" transform="translate(112,58)"/>
<path d="M0 0 C0.99 0 1.98 0 3 0 C3 1.32 3 2.64 3 4 C3.99 4.33 4.98 4.66 6 5 C6 5.66 6 6.32 6 7 C3.03 6.505 3.03 6.505 0 6 C0 4.02 0 2.04 0 0 Z " fill="#494E44" transform="translate(83,31)"/>
<path d="M0 0 C1.32 0 2.64 0 4 0 C3.67 1.98 3.34 3.96 3 6 C1.02 5.34 -0.96 4.68 -3 4 C-2.01 3.67 -1.02 3.34 0 3 C0 2.01 0 1.02 0 0 Z " fill="#969795" transform="translate(137,73)"/>
<path d="M0 0 C0.99 0 1.98 0 3 0 C3 1.32 3 2.64 3 4 C0 6 0 6 -3 6 C-3 5.01 -3 4.02 -3 3 C-2.01 3 -1.02 3 0 3 C0 2.01 0 1.02 0 0 Z " fill="#929292" transform="translate(124,59)"/>
<path d="M0 0 C0.66 0 1.32 0 2 0 C2.66 1.98 3.32 3.96 4 6 C2.35 6 0.7 6 -1 6 C-1.042721 4.33388095 -1.04063832 2.66617115 -1 1 C-0.67 0.67 -0.34 0.34 0 0 Z " fill="#5F5F5F" transform="translate(85,57)"/>
<path d="M0 0 C1.65 0.33 3.3 0.66 5 1 C3.92598892 3.91517292 3.22189824 5.77810176 1 8 C1.33 6.02 1.66 4.04 2 2 C0.68 2.33 -0.64 2.66 -2 3 C-1.34 2.01 -0.68 1.02 0 0 Z " fill="#CCCDC5" transform="translate(162,88)"/>
<path d="M0 0 C0.99 0 1.98 0 3 0 C2.8125 1.875 2.8125 1.875 2 4 C-0.5625 5.25 -0.5625 5.25 -3 6 C-3.33 5.01 -3.66 4.02 -4 3 C-2.68 3 -1.36 3 0 3 C0 2.01 0 1.02 0 0 Z " fill="#919191" transform="translate(124,34)"/>
<path d="M0 0 C2.31 0.33 4.62 0.66 7 1 C7 2.32 7 3.64 7 5 C4.36 4.34 1.72 3.68 -1 3 C-0.67 2.01 -0.34 1.02 0 0 Z " fill="#363E2A" transform="translate(98,96)"/>
<path d="M0 0 C0.66 0 1.32 0 2 0 C2.66 1.65 3.32 3.3 4 5 C2.02 5 0.04 5 -2 5 C-1.34 3.35 -0.68 1.7 0 0 Z " fill="#565656" transform="translate(125,69)"/>
<path d="M0 0 C1.98 0 3.96 0 6 0 C5.34 1.32 4.68 2.64 4 4 C2.68 4 1.36 4 0 4 C0 2.68 0 1.36 0 0 Z " fill="#C5C4BD" transform="translate(157,96)"/>
<path d="M0 0 C0.99 0 1.98 0 3 0 C3 2.31 3 4.62 3 7 C2.01 6.67 1.02 6.34 0 6 C0 4.02 0 2.04 0 0 Z " fill="#E0E0DE" transform="translate(100,90)"/>
<path d="M0 0 C0.66 0 1.32 0 2 0 C2.33 1.65 2.66 3.3 3 5 C1.35 5 -0.3 5 -2 5 C-1.125 1.125 -1.125 1.125 0 0 Z " fill="#4A4946" transform="translate(152,69)"/>
<path d="M0 0 C1.65 0 3.3 0 5 0 C5 0.66 5 1.32 5 2 C4.01 2 3.02 2 2 2 C2.33 3.98 2.66 5.96 3 8 C2.34 7.67 1.68 7.34 1 7 C0.59270772 4.67843403 0.25561323 2.3431213 0 0 Z " fill="#DDDDDD" transform="translate(140,53)"/>
<path d="M0 0 C1.65 0.33 3.3 0.66 5 1 C4.01 1.33 3.02 1.66 2 2 C2 2.99 2 3.98 2 5 C0.02 4.34 -1.96 3.68 -4 3 C-3.34 2.67 -2.68 2.34 -2 2 C-1.34 2.33 -0.68 2.66 0 3 C0 2.01 0 1.02 0 0 Z " fill="#D0CDC5" transform="translate(91,71)"/>
<path d="M0 0 C0.99 0 1.98 0 3 0 C2.8864371 1.64666203 2.75882619 3.29236082 2.625 4.9375 C2.52058594 6.31228516 2.52058594 6.31228516 2.4140625 7.71484375 C2.27742188 8.46894531 2.14078125 9.22304687 2 10 C1.01 10.495 1.01 10.495 0 11 C0 7.37 0 3.74 0 0 Z " fill="#8E8E8E" transform="translate(71,59)"/>
<path d="M0 0 C0.33 0.66 0.66 1.32 1 2 C1.99 2 2.98 2 4 2 C4 3.32 4 4.64 4 6 C2.35 5.67 0.7 5.34 -1 5 C-0.67 3.35 -0.34 1.7 0 0 Z " fill="#696E56" transform="translate(74,33)"/>
<path d="M0 0 C2 2 2 2 2.125 5.625 C2.08375 6.73875 2.0425 7.8525 2 9 C1.34 8.67 0.68 8.34 0 8 C0 6.35 0 4.7 0 3 C-0.66 2.67 -1.32 2.34 -2 2 C-1.34 2 -0.68 2 0 2 C0 1.34 0 0.68 0 0 Z " fill="#CAC9C4" transform="translate(89,61)"/>
<path d="M0 0 C0.99 0 1.98 0 3 0 C3 0.99 3 1.98 3 3 C3.66 3.33 4.32 3.66 5 4 C3.68 4.33 2.36 4.66 1 5 C0.67 4.34 0.34 3.68 0 3 C-0.66 2.67 -1.32 2.34 -2 2 C-1.34 1.34 -0.68 0.68 0 0 Z " fill="#CFCEC8" transform="translate(69,49)"/>
<path d="M0 0 C1.35432675 1.31200404 2.68733482 2.64631404 4 4 C4 4.33 4 4.66 4 5 C2.02 5 0.04 5 -2 5 C-1.34 3.35 -0.68 1.7 0 0 Z " fill="#4F4F4F" transform="translate(112,32)"/>
<path d="M0 0 C1.98 0.495 1.98 0.495 4 1 C3.67 2.98 3.34 4.96 3 7 C2.67 5.68 2.34 4.36 2 3 C1.01 3 0.02 3 -1 3 C-0.67 2.01 -0.34 1.02 0 0 Z " fill="#A2A18F" transform="translate(76,32)"/>
</svg>
