<?xml version="1.0" encoding="UTF-8"?>
<svg version="1.1" xmlns="http://www.w3.org/2000/svg" width="256" height="154">
<path d="M0 0 C84.48 0 168.96 0 256 0 C256 50.82 256 101.64 256 154 C171.52 154 87.04 154 0 154 C0 103.18 0 52.36 0 0 Z " fill="#0E1D8C" transform="translate(0,0)"/>
<path d="M0 0 C42.24 0 84.48 0 128 0 C128 12.21 128 24.42 128 37 C127.01 37 126.02 37 125 37 C125 35.02 125 33.04 125 31 C123.515 30.505 123.515 30.505 122 30 C122 28.68 122 27.36 122 26 C120.68 25.67 119.36 25.34 118 25 C118 24.34 118 23.68 118 23 C115.60325733 23.11456128 113.20818782 23.24128719 110.8125 23.375 C110.13896484 23.4059375 109.46542969 23.436875 108.77148438 23.46875 C104.82087068 23.70000544 101.52571193 24.15414705 98 26 C97.67 26.66 97.34 27.32 97 28 C97.78375 27.79375 98.5675 27.5875 99.375 27.375 C100.24125 27.25125 101.1075 27.1275 102 27 C102.99 27.99 102.99 27.99 104 29 C102.35 29.99 100.7 30.98 99 32 C103.62921525 33.0161692 107.34462607 32.83796731 112 32 C112 33.32 112 34.64 112 36 C111.01 36.99 111.01 36.99 110 38 C110 38.825 110 39.65 110 40.5 C110 41.325 110 42.15 110 43 C109.01 43.99 109.01 43.99 108 45 C107.95907063 47.33297433 107.95758277 49.66705225 108 52 C106.19964755 53.80035245 103.75528244 53.46274877 101.3125 53.625 C97.88604336 53.56374035 95.74662193 53.4945514 92.87109375 51.58984375 C88.19051296 45.73629814 88.90668557 40.0894311 89.32080078 33.04492188 C89.41644385 29.4474566 89.39484708 27.48770478 87.08984375 24.640625 C84.77676575 23.15966856 82.5260473 22.06239896 80 21 C79.01 20.01 79.01 20.01 78 19 C77.319375 18.67 76.63875 18.34 75.9375 18 C74 17 74 17 73 15 C72.01 15 71.02 15 70 15 C69.875 9.25 69.875 9.25 71 7 C67.17053157 8.45255699 65.87949705 10.42895561 64 14 C61.525 13.505 61.525 13.505 59 13 C59.495 16.465 59.495 16.465 60 20 C57.69 19.67 55.38 19.34 53 19 C53.495 20.98 53.495 20.98 54 23 C52.02 22.67 50.04 22.34 48 22 C50.475 24.97 50.475 24.97 53 28 C50.69 28 48.38 28 46 28 C46.83144531 28.50660156 46.83144531 28.50660156 47.6796875 29.0234375 C48.40414062 29.46945313 49.12859375 29.91546875 49.875 30.375 C50.59429687 30.81585937 51.31359375 31.25671875 52.0546875 31.7109375 C54 33 54 33 56 35 C51.05 34.67 46.1 34.34 41 34 C43.40804568 36.40804568 45.42203775 37.00768759 48.625 38.125 C50.12933594 38.65480469 50.12933594 38.65480469 51.6640625 39.1953125 C52.43492188 39.46085937 53.20578125 39.72640625 54 40 C54 40.33 54 40.66 54 41 C47.73 41 41.46 41 35 41 C36.72039811 44.44079622 40.50674133 44.88905349 43.98828125 46.11328125 C48.02706387 47.30239105 51.80494447 47.72491439 56 48 C52.48348621 52.12709818 48.17339346 52.36874442 43 53 C39.65751291 53.14059308 36.34246346 53.12800924 33 53 C33 53.66 33 54.32 33 55 C38.36489595 55.90483637 43.50317457 56.12303662 48.9375 56.0625 C49.71673828 56.05798828 50.49597656 56.05347656 51.29882812 56.04882812 C53.19925268 56.03716908 55.09963706 56.01923877 57 56 C51.68544361 61.7353923 45.62652696 63.85602096 38 65 C37.67 65.66 37.34 66.32 37 67 C43.69007182 66.47594437 50.3487487 65.89536075 57 65 C53.45647382 69.31385796 49.04807753 70.9721398 44 73 C51.81105163 73.60394729 57.17485962 73.09602102 63.94140625 68.99609375 C66 68 66 68 69 69 C68.39671875 69.58007812 67.7934375 70.16015625 67.171875 70.7578125 C66.37265625 71.53898437 65.5734375 72.32015625 64.75 73.125 C63.96109375 73.89070313 63.1721875 74.65640625 62.359375 75.4453125 C59.84725311 78.1653915 57.97338978 80.87697489 56 84 C58.77564009 82.57164495 61.54458238 81.13075535 64.3125 79.6875 C65.09818359 79.28337891 65.88386719 78.87925781 66.69335938 78.46289062 C67.45068359 78.06650391 68.20800781 77.67011719 68.98828125 77.26171875 C69.68477783 76.90037842 70.38127441 76.53903809 71.09887695 76.16674805 C73.0665439 75.06273462 73.0665439 75.06273462 74.62573242 73.35864258 C76 72 76 72 78 72 C76.57222911 76.20696128 74.5117051 79.14972107 71.6875 82.5625 C70.92824219 83.49191406 70.16898437 84.42132813 69.38671875 85.37890625 C67.08885072 87.90242417 64.67545373 89.89555533 62 92 C61.67 92.66 61.34 93.32 61 94 C71.11851262 90.93534051 79.67306716 87.77098938 87 80 C87.66 80 88.32 80 89 80 C87.73171494 84.54468815 86.01327164 87.40351449 83 91 C82.505 92.485 82.505 92.485 82 94 C86.01736002 92.58810173 89.09048931 90.66297846 92.5 88.125 C93.4178125 87.44695312 94.335625 86.76890625 95.28125 86.0703125 C97.88737136 84.08576606 100.45212437 82.05860966 103 80 C102.43945339 83.36327963 101.58158962 85.99112219 100 89 C100.55429688 88.6390625 101.10859375 88.278125 101.6796875 87.90625 C102.76636719 87.21015625 102.76636719 87.21015625 103.875 86.5 C104.95394531 85.80390625 104.95394531 85.80390625 106.0546875 85.09375 C108 84 108 84 110 84 C111.07525194 81.34771188 112.09456151 78.71631546 113 76 C113.66 76 114.32 76 115 76 C115.33 77.98 115.66 79.96 116 82 C114.515 82.495 114.515 82.495 113 83 C112.319375 84.010625 111.63875 85.02125 110.9375 86.0625 C107.57931447 91.02767002 102.92316047 94.64528003 98 98 C97.34 98 96.68 98 96 98 C96.67489954 101.16501727 96.67489954 101.16501727 99.3125 102.25 C104.93342698 103.81863079 110.25812891 100.48844431 115.1875 97.8125 C117 97 117 97 121 97 C120.73497804 100.79864807 120.19602849 102.74055052 117.875 105.8125 C114.50136834 108.37939366 112.18233304 108.75398041 108 109 C107.505 110.485 107.505 110.485 107 112 C105.68 112 104.36 112 103 112 C103 112.66 103 113.32 103 114 C102.28714844 114.21914062 101.57429688 114.43828125 100.83984375 114.6640625 C94.50877846 116.76021601 89.53414783 119.00958572 85 124 C84.67 124.66 84.34 125.32 84 126 C82.35 125.67 80.7 125.34 79 125 C81.45523336 128.68285005 82.7847925 128.94619813 87 130 C90.04253508 130.58345476 90.04253508 130.58345476 93 130 C95.87640616 127.62499209 95.87640616 127.62499209 98 125 C97.34 125 96.68 125 96 125 C95.5875 125.66 95.175 126.32 94.75 127 C93 129 93 129 89.8125 129.25 C88.884375 129.1675 87.95625 129.085 87 129 C86.6875 126.75 86.6875 126.75 87 124 C90.52641467 120.25986323 94.0950907 119.20471456 99 118 C102.48726722 116.98288039 105.45996251 115.79366174 108.5625 113.9375 C111.58181475 112.23570441 113.58924501 111.29235043 117 111 C117.66 111.33 118.32 111.66 119 112 C119.495 110.515 119.495 110.515 120 109 C120.99 109 121.98 109 123 109 C122.90625 111.30859375 122.90625 111.30859375 122 114 C119.09375 115.66015625 119.09375 115.66015625 115.5 117.0625 C111.96642594 118.37320945 111.96642594 118.37320945 109 120 C107.99786008 122.0700685 107.99786008 122.0700685 108 124 C108.66 124 109.32 124 110 124 C110.04125 123.401875 110.0825 122.80375 110.125 122.1875 C111 120 111 120 113.75 118.25 C116.82966204 117.0655146 118.75489427 116.71366714 122 117 C122 119 122 119 120.671875 120.5859375 C115.68625712 125.22702081 111.08482959 127.34462362 104.5390625 129.17578125 C101.86622995 129.83094622 101.86622995 129.83094622 100 132 C99.83312552 134.58354218 99.83312552 134.58354218 100 137 C103.41656024 137.16677282 103.41656024 137.16677282 107 137 C107.66 136.34 108.32 135.68 109 135 C108.01 132.525 108.01 132.525 107 130 C107.598125 130.185625 108.19625 130.37125 108.8125 130.5625 C111.16408762 131.22093687 111.16408762 131.22093687 114 130 C114.61875 129.319375 115.2375 128.63875 115.875 127.9375 C118 126 118 126 120.75 125.75 C121.4925 125.8325 122.235 125.915 123 126 C122.7338032 129.81548744 122.25745727 131.68369535 119.8125 134.6875 C116.99727335 137.00224191 114.3246153 138.53098394 111 140 C111.66 140.66 112.32 141.32 113 142 C113.20625 141.38125 113.4125 140.7625 113.625 140.125 C115.56307869 137.12978747 117.63160418 136.94315083 121 136 C122.34721283 135.36184656 123.68747118 134.70674629 125 134 C124.835 134.78375 124.67 135.5675 124.5 136.375 C123.82086554 139.81917573 123.82086554 139.81917573 125 143 C124.95875 143.804375 124.9175 144.60875 124.875 145.4375 C125.02691339 148.55172459 125.78732133 148.97171122 128 151 C128 151.99 128 152.98 128 154 C85.76 154 43.52 154 0 154 C0 103.18 0 52.36 0 0 Z " fill="#FCFCFC" transform="translate(0,0)"/>
<path d="M0 0 C0 2.64 0 5.28 0 8 C0.99 7.67 1.98 7.34 3 7 C3.2475 7.639375 3.495 8.27875 3.75 8.9375 C4.77924751 11.17301987 4.77924751 11.17301987 6.875 11.5 C7.57625 11.665 8.2775 11.83 9 12 C10.35573748 13.31054623 11.68612831 14.64748503 13 16 C14.03253906 16.53496094 15.06507812 17.06992187 16.12890625 17.62109375 C19 20 19 20 19.41015625 23.828125 C19.31495592 25.30356375 19.19815207 26.77772927 19.0625 28.25 C18.62827695 36.50594257 18.62827695 36.50594257 22.08984375 43.81640625 C26.2501422 46.39425989 31.32353875 45.5370099 36 45 C35.95875 43.9275 35.9175 42.855 35.875 41.75 C35.99392545 38.18223639 36.32152606 36.96201283 38 34 C38.37668344 32.34259285 38.72057545 30.67654729 39 29 C39.66 29 40.32 29 41 29 C41 27.68 41 26.36 41 25 C40.31292969 25.15597656 39.62585938 25.31195313 38.91796875 25.47265625 C38.01691406 25.66730469 37.11585937 25.86195312 36.1875 26.0625 C35.29417969 26.25972656 34.40085937 26.45695312 33.48046875 26.66015625 C31 27 31 27 28 26 C25.36195411 26.39397335 25.36195411 26.39397335 23 27 C25.85306797 24.67527795 28.54074837 23.2491742 32 22 C29.92446352 21.4465236 28.15634036 21 26 21 C27 18 27 18 29.07421875 16.8203125 C32.69230703 15.80589523 36.09228565 15.78243964 39.8125 15.875 C40.85180664 15.88853516 40.85180664 15.88853516 41.91210938 15.90234375 C43.60822395 15.92573843 45.30415871 15.96160359 47 16 C47 16.66 47 17.32 47 18 C48.98 18.495 48.98 18.495 51 19 C51.185625 19.9590625 51.185625 19.9590625 51.375 20.9375 C51.684375 21.9584375 51.684375 21.9584375 52 23 C52.66 23.33 53.32 23.66 54 24 C54.37890625 25.99609375 54.37890625 25.99609375 54.5625 28.4375 C54.8061175 31.84628205 54.8061175 31.84628205 56 35 C56.15622733 37.16071114 56.24929782 39.3260761 56.31420898 41.49145508 C56.34519652 42.49387898 56.34519652 42.49387898 56.37681007 43.51655388 C56.44324013 45.74658919 56.50151146 47.97673811 56.55859375 50.20703125 C56.59017987 51.36614989 56.59017987 51.36614989 56.6224041 52.54868507 C57.10420922 70.44652966 57.11891049 88.34033943 57.06866455 106.24328613 C57.05814196 110.41544042 57.05380731 114.5876017 57.04882812 118.75976562 C57.03833503 126.83986158 57.02144133 134.91992568 57 143 C55.02 142.01 55.02 142.01 53 141 C53 139.02 53 137.04 53 135 C52.34 134.67 51.68 134.34 51 134 C51.99 131.69 52.98 129.38 54 127 C50.83333333 128.83333333 50.83333333 128.83333333 49 132 C49 131.34 49 130.68 49 130 C47.02 130.99 45.04 131.98 43 133 C43 133.99 43 134.98 43 136 C42.01 135.67 41.02 135.34 40 135 C39.67 134.01 39.34 133.02 39 132 C39.53109375 131.76925781 40.0621875 131.53851563 40.609375 131.30078125 C45.17288472 129.19390541 48.2583021 127.38671664 51 123 C51.77833534 120.81785432 51.77833534 120.81785432 52 119 C46.59212615 120.09786425 46.59212615 120.09786425 43 124 C40.875 124.6875 40.875 124.6875 39 125 C39 124.34 39 123.68 39 123 C38.01 123 37.02 123 36 123 C36.26676204 124.98491642 36.26676204 124.98491642 37 127 C38.485 127.495 38.485 127.495 40 128 C37.33025858 130.56295176 36.09767206 130.99337817 32.3125 131.25 C29 131 29 131 28 130 C27.625 127.6875 27.625 127.6875 28 125 C30.91757023 121.6934204 33.8645264 120.66735041 38 119.5625 C42.57888968 118.33103041 44.85206695 116.6248926 48 113 C48.99 112.67 49.98 112.34 51 112 C51 111.34 51 110.68 51 110 C49.37007308 110.39695637 47.74607765 110.81832493 46.125 111.25 C45.22007813 111.48203125 44.31515625 111.7140625 43.3828125 111.953125 C40.85042396 112.79914179 40.85042396 112.79914179 39.6796875 115.109375 C39.45539063 115.73328125 39.23109375 116.3571875 39 117 C38.34 117 37.68 117 37 117 C37 114.75 37 114.75 38 112 C41.10524533 109.83982933 44.47745082 108.31322568 48.18359375 107.55078125 C48.78300781 107.36902344 49.38242188 107.18726562 50 107 C51.29660434 104.50965614 51.29660434 104.50965614 52 102 C48.88214887 102.64644661 48.88214887 102.64644661 48 105 C46.07421875 105.5625 46.07421875 105.5625 43.6875 106 C39.31389903 106.80965836 36.18881518 107.81118482 33 111 C31.3373217 111.35268934 29.66934283 111.68033861 28 112 C26.43062625 112.45615016 24.86836874 112.93722066 23.3125 113.4375 C22.54550781 113.68371094 21.77851562 113.92992188 20.98828125 114.18359375 C18.81723076 114.92575078 18.81723076 114.92575078 17 117 C16.35232207 119.57061311 16.35232207 119.57061311 16 122 C21.40787385 120.90213575 21.40787385 120.90213575 25 117 C26.98 117.495 26.98 117.495 29 118 C23.18844567 123.77716644 23.18844567 123.77716644 19 124.5625 C15.28790581 123.86648234 12.32824349 122.79213111 9 121 C7.5625 118.8125 7.5625 118.8125 7 117 C9.97 117.99 9.97 117.99 13 119 C13.20625 118.443125 13.4125 117.88625 13.625 117.3125 C17.20782004 111.28684812 22.58189698 108.99908127 29 107 C29.99 107 30.98 107 32 107 C32 106.34 32 105.68 32 105 C32.639375 104.87625 33.27875 104.7525 33.9375 104.625 C34.618125 104.41875 35.29875 104.2125 36 104 C36.33 103.34 36.66 102.68 37 102 C38.9609375 101.32421875 38.9609375 101.32421875 41.375 100.6875 C44.6581296 99.65565927 45.76174017 99.29037917 48 96.5625 C48.85585686 94.36936679 49.45718078 92.28274868 50 90 C45.74462199 91.51977786 41.77510579 93.07622768 37.8125 95.25 C35.24700265 96.5628131 34.25270806 97.01175386 31.3125 96.875 C30.549375 96.58625 29.78625 96.2975 29 96 C28.071875 95.649375 27.14375 95.29875 26.1875 94.9375 C25.465625 94.628125 24.74375 94.31875 24 94 C25.14864877 90.55405368 26.29209722 90.03017652 29.25 88.16015625 C33.60367553 85.27390261 37.48825636 82.09438665 40.25 77.625 C40.8275 76.75875 41.405 75.8925 42 75 C42.99 75 43.98 75 45 75 C44.67 73.02 44.34 71.04 44 69 C43.34 69 42.68 69 42 69 C41.9071875 70.0828125 41.9071875 70.0828125 41.8125 71.1875 C40.46732005 75.84389213 37.22930117 78.17093642 33.3125 80.8125 C31 82 31 82 29 82 C29.165 81.401875 29.33 80.80375 29.5 80.1875 C30.1114124 77.88655664 30.1114124 77.88655664 30 75 C29.50371094 75.44730469 29.00742188 75.89460938 28.49609375 76.35546875 C16.53518124 87 16.53518124 87 11 87 C11.65902299 83.42959697 13.16229158 80.82267745 15.0625 77.75 C15.61035156 76.85796875 16.15820312 75.9659375 16.72265625 75.046875 C17.14417969 74.37140625 17.56570312 73.6959375 18 73 C17.53851563 73.44730469 17.07703125 73.89460938 16.6015625 74.35546875 C8.68186047 81.69606213 0.68153878 85.47731256 -10 87 C-8.67189639 83.41412025 -6.51495157 81.73546954 -3.57324219 79.40087891 C-0.91114649 77.03044049 0.93153293 74.15227885 2.875 71.1875 C3.2771875 70.59001953 3.679375 69.99253906 4.09375 69.37695312 C5.07056653 67.92335709 6.03646423 66.46243318 7 65 C6.39414063 65.44730469 5.78828125 65.89460938 5.1640625 66.35546875 C-9.58848614 77 -9.58848614 77 -15 77 C-13.58397787 73.85093585 -11.86264918 71.50476328 -9.5625 68.9375 C-8.96566406 68.26589844 -8.36882813 67.59429687 -7.75390625 66.90234375 C-6.20703058 65.2245521 -4.62828434 63.59840757 -3 62 C-5.77242864 63.09216886 -8.37394862 64.2025555 -11 65.625 C-16.32156411 67.98355514 -22.3117828 67.23095017 -28 67 C-25.08520081 63.80971674 -21.98681338 62.63744121 -18 61 C-17.01 60.34 -16.02 59.68 -15 59 C-16.36125 59.2475 -16.36125 59.2475 -17.75 59.5 C-23.13782475 60.28873311 -28.56912556 60.08025923 -34 60 C-33.67 59.01 -33.34 58.02 -33 57 C-31.38283161 56.49463488 -29.75916781 56.00366315 -28.11328125 55.6015625 C-23.5477927 54.30195947 -19.23786674 52.11893337 -15 50 C-16.07378906 50.02320313 -17.14757812 50.04640625 -18.25390625 50.0703125 C-19.69009715 50.08908624 -21.12629565 50.1072847 -22.5625 50.125 C-23.26697266 50.14175781 -23.97144531 50.15851562 -24.69726562 50.17578125 C-29.51891822 50.22022044 -33.42297438 49.52768004 -38 48 C-38 47.34 -38 46.68 -38 46 C-36.81921875 45.87882812 -35.6384375 45.75765625 -34.421875 45.6328125 C-32.86453957 45.4639448 -31.30725023 45.29465165 -29.75 45.125 C-28.97269531 45.04636719 -28.19539063 44.96773437 -27.39453125 44.88671875 C-21.94283448 44.29334559 -21.94283448 44.29334559 -17 42 C-17.92619141 41.85304688 -17.92619141 41.85304688 -18.87109375 41.703125 C-25.06564802 40.60941374 -30.37341119 38.79970361 -36 36 C-36 35.34 -36 34.68 -36 34 C-28.08 33.505 -28.08 33.505 -20 33 C-24.95 31.02 -24.95 31.02 -30 29 C-30 28.01 -30 27.02 -30 26 C-25.71 26.33 -21.42 26.66 -17 27 C-18.299375 26.21625 -19.59875 25.4325 -20.9375 24.625 C-24.875 22.25 -24.875 22.25 -26 20 C-23.69 20 -21.38 20 -19 20 C-19.66 19.54625 -20.32 19.0925 -21 18.625 C-21.66 18.08875 -22.32 17.5525 -23 17 C-23 16.34 -23 15.68 -23 15 C-20.03 15.495 -20.03 15.495 -17 16 C-17.66 14.35 -18.32 12.7 -19 11 C-16.69 11.33 -14.38 11.66 -12 12 C-12 10.02 -12 8.04 -12 6 C-9.525 6.495 -9.525 6.495 -7 7 C-6.731875 6.21625 -6.46375 5.4325 -6.1875 4.625 C-4.80518115 1.56934781 -3.53283878 0 0 0 Z " fill="#101010" transform="translate(71,7)"/>
<path d="M0 0 C4.86036373 1.28386966 7.4790518 3.00399913 10.9375 6.625 C11.80503906 7.52992187 12.67257813 8.43484375 13.56640625 9.3671875 C16.78794147 12.8524439 19.92946537 16.38115561 23 20 C24.95628203 22.29342235 26.91546677 24.58435535 28.875 26.875 C29.39473389 27.48351807 29.91446777 28.09203613 30.44995117 28.71899414 C33.47886522 32.2564362 36.55151994 35.74396323 39.6875 39.1875 C43.58672727 43.48230105 47.26436722 47.92980619 50.9140625 52.4375 C53.55141268 55.67739086 56.26408759 58.84317799 59 62 C62.081456 61.40573072 62.081456 61.40573072 64.4375 59.4375 C66 58 66 58 68.6875 57.8125 C69.8321875 57.9053125 69.8321875 57.9053125 71 58 C72.15837626 62.05431692 71.83691257 64.21812119 70 68 C70.66 68 71.32 68 72 68 C73.33224462 71.99673385 73.13442113 75.83294503 73 80 C72.67 80.66 72.34 81.32 72 82 C72.61875 82.12375 73.2375 82.2475 73.875 82.375 C76 83 76 83 78 85 C78.36487512 87.84602594 78.40199375 89.3864306 76.8125 91.8125 C74.32762734 93.44052002 72.91288568 93.50975499 70 93 C67.72563151 90.64139564 66.37339641 87.95808458 65 85 C64.608125 85.45375 64.21625 85.9075 63.8125 86.375 C62 88 62 88 59.4375 88.9375 C58.633125 89.288125 57.82875 89.63875 57 90 C56.77441406 90.60070312 56.54882812 91.20140625 56.31640625 91.8203125 C54.27651342 95.1979392 50.96146924 96.33027654 47.5 97.9375 C46.04681652 98.63529489 44.59369146 99.33321146 43.140625 100.03125 C42.07811523 100.53398437 42.07811523 100.53398437 40.99414062 101.046875 C37.63081577 102.6544191 34.32841885 104.38132245 31.015625 106.08984375 C27.45788084 107.6963445 24.26367341 108.15498601 20.375 108.1875 C19.59898437 108.20167969 18.82296875 108.21585937 18.0234375 108.23046875 C16 108 16 108 14 106 C14 105.01 14 104.02 14 103 C13.42636719 102.78085938 12.85273438 102.56171875 12.26171875 102.3359375 C9.28084854 100.57521623 7.81952514 98.43408209 5.8125 95.625 C4.77029297 94.19027344 4.77029297 94.19027344 3.70703125 92.7265625 C2 90 2 90 1.44921875 87.7109375 C1.30097656 87.14632812 1.15273437 86.58171875 1 86 C0.01 85.67 -0.98 85.34 -2 85 C-2.309375 84.195625 -2.61875 83.39125 -2.9375 82.5625 C-3.72237189 79.85616889 -3.72237189 79.85616889 -6 79.0625 C-8 78 -8 78 -9.11279297 75.42138672 C-10.10045898 71.61259435 -10.2535957 68.09607917 -10.1953125 64.1953125 C-10.1924826 63.4713327 -10.18965271 62.74735291 -10.18673706 62.00143433 C-10.17562087 59.7091151 -10.15053312 57.41719937 -10.125 55.125 C-10.1149591 53.56250568 -10.10583519 52.00000518 -10.09765625 50.4375 C-10.07570973 46.62484662 -10.04124013 42.81249152 -10 39 C-4.08773123 38.84796448 -2.18960619 39.80680601 2.04296875 43.8046875 C6.28302592 48.56099913 9.2782717 54.06345368 11.6875 59.9375 C12.72312798 62.9358606 12.72312798 62.9358606 14.49609375 64.3671875 C16.47808468 66.51906336 16.75736726 68.34398303 17.375 71.1875 C18.71461143 76.56019689 20.86220374 80.49647227 24 85 C24.33 85.66 24.66 86.32 25 87 C35.40730869 85.49437412 43.82607129 83.36883328 53 78 C53 77.01 53 76.02 53 75 C52.38125 75.7734375 52.38125 75.7734375 51.75 76.5625 C51.1725 77.036875 50.595 77.51125 50 78 C47.8125 77.6875 47.8125 77.6875 46 77 C45.375 74.625 45.375 74.625 45 72 C47 70 47 70 50.125 69.875 C51.07375 69.91625 52.0225 69.9575 53 70 C53.33 69.34 53.66 68.68 54 68 C53.59910156 67.55011719 53.19820312 67.10023437 52.78515625 66.63671875 C49.39626189 62.80211946 46.09587731 58.91447975 42.875 54.9375 C37.61053183 48.466405 32.12773344 42.19218291 26.65087891 35.90087891 C23.05659979 31.76230198 19.49144088 27.59900981 15.9375 23.42578125 C13.94261672 21.08660679 11.91933233 18.77651906 9.875 16.48046875 C9.3711377 15.90635254 8.86727539 15.33223633 8.34814453 14.74072266 C7.40001974 13.66060833 6.4432698 12.5879735 5.47607422 11.52490234 C2.22930727 7.79387184 1.05201826 4.72226172 0 0 Z " fill="#BDC0C2" transform="translate(138,6)"/>
<path d="M0 0 C5.3681659 -0.35076084 5.3681659 -0.35076084 8.125 1.1796875 C14.35226755 6.81017524 18.50538377 13.17904136 21.6875 20.9375 C22.72201206 23.9352484 22.72201206 23.9352484 24.4921875 25.359375 C26.49526918 27.53889393 26.79776101 29.43963486 27.4375 32.3125 C28.58685284 36.95881998 30.32022651 40.02654276 33 44 C33.5 47.1875 33.5 47.1875 33 50 C31 51.875 31 51.875 29 53 C29.66 53.33 30.32 53.66 31 54 C30.34 55.32 29.68 56.64 29 58 C32.24732932 56.37633534 32.70155136 53.24612161 34 50 C35.35015859 54.05047576 34.62084998 56.7920168 34 61 C31.30859375 61.73828125 31.30859375 61.73828125 28 62 C19.34124984 56.79404357 13.05801956 47.45614593 8.75 38.5 C7.27391004 34.82428413 7.27391004 34.82428413 4 33 C3.33984375 30.828125 3.33984375 30.828125 2.9375 28.25 C2.47918947 25.40410986 1.973675 22.93051766 0.94921875 20.2265625 C-0.26354813 16.10415326 -0.21901487 12.39182856 -0.125 8.125 C-0.11597656 7.34125 -0.10695313 6.5575 -0.09765625 5.75 C-0.07428063 3.83319945 -0.03841653 1.91655809 0 0 Z " fill="#F0F0F0" transform="translate(128,45)"/>
<path d="M0 0 C0.99 0 1.98 0 3 0 C3 1.65 3 3.3 3 5 C3.66 4.67 4.32 4.34 5 4 C5.8971875 4.495 5.8971875 4.495 6.8125 5 C8.97987836 6.26151199 8.97987836 6.26151199 11.375 5.4375 C14 5 14 5 16.9375 6.5625 C19.97555644 8.37780972 19.97555644 8.37780972 23.375 7.1875 C24.24125 6.795625 25.1075 6.40375 26 6 C26 7.32 26 8.64 26 10 C26.33 7.69 26.66 5.38 27 3 C27.66 3 28.32 3 29 3 C29.02725341 4.7290774 29.04650987 6.45828176 29.0625 8.1875 C29.07410156 9.15042969 29.08570313 10.11335938 29.09765625 11.10546875 C29.00486622 13.85576513 28.62111685 16.32479591 28 19 C28.3125 17.0625 28.3125 17.0625 29 15 C29.99 14.67 30.98 14.34 32 14 C32.4223968 18.30844739 32.56269452 20.2926126 29.8125 23.75 C23.25 29 23.25 29 20 29 C20.165 28.401875 20.33 27.80375 20.5 27.1875 C21.1114124 24.88655664 21.1114124 24.88655664 21 22 C20.50371094 22.44730469 20.00742188 22.89460938 19.49609375 23.35546875 C7.53518124 34 7.53518124 34 2 34 C2.65902299 30.42959697 4.16229158 27.82267745 6.0625 24.75 C6.61035156 23.85796875 7.15820312 22.9659375 7.72265625 22.046875 C8.14417969 21.37140625 8.56570312 20.6959375 9 20 C8.53851563 20.44730469 8.07703125 20.89460938 7.6015625 21.35546875 C-0.31813953 28.69606213 -8.31846122 32.47731256 -19 34 C-17.67189639 30.41412025 -15.51495157 28.73546954 -12.57324219 26.40087891 C-9.91114649 24.03044049 -8.06846707 21.15227885 -6.125 18.1875 C-5.52171875 17.2912793 -5.52171875 17.2912793 -4.90625 16.37695312 C-3.92943347 14.92335709 -2.96353577 13.46243318 -2 12 C-2.90878906 12.67095703 -2.90878906 12.67095703 -3.8359375 13.35546875 C-18.58848614 24 -18.58848614 24 -24 24 C-22.70978023 20.12934069 -21.56006622 19.89365224 -18 18 C-17.38511719 17.73703125 -16.77023438 17.4740625 -16.13671875 17.203125 C-8.31421846 13.73995982 -3.32006199 7.81191056 0 0 Z " fill="#0E0E0E" transform="translate(80,60)"/>
<path d="M0 0 C0 2.64 0 5.28 0 8 C0.99 7.67 1.98 7.34 3 7 C3.2475 7.639375 3.495 8.27875 3.75 8.9375 C4.77924751 11.17301987 4.77924751 11.17301987 6.875 11.5 C7.57625 11.665 8.2775 11.83 9 12 C10.35573748 13.31054623 11.68612831 14.64748503 13 16 C14.0725 16.598125 15.145 17.19625 16.25 17.8125 C17.61125 18.8953125 17.61125 18.8953125 19 20 C19.375 23.75 19.375 23.75 19 27 C18.67 27 18.34 27 18 27 C17.505 25.02 17.505 25.02 17 23 C16.67 24.98 16.34 26.96 16 29 C15.48050781 28.77183594 14.96101563 28.54367188 14.42578125 28.30859375 C10.25528555 26.58951696 7.46726213 25.46437864 3 27 C5.21934164 30.32901247 6.34683329 30.75023244 10 32 C10 32.33 10 32.66 10 33 C8.25034642 33.05429959 6.50020213 33.09292823 4.75 33.125 C3.77546875 33.14820313 2.8009375 33.17140625 1.796875 33.1953125 C-1.0196498 32.99862781 -2.60949036 32.44568916 -5 31 C-3 30 -3 30 1 30 C-1.29294488 29.14025199 -1.29294488 29.14025199 -4 29 C-4.53625 29.66 -5.0725 30.32 -5.625 31 C-8 33 -8 33 -10.37890625 33.1171875 C-13.2844168 32.86664278 -16.1238106 32.48130565 -19 32 C-19.86238281 31.86078125 -20.72476563 31.7215625 -21.61328125 31.578125 C-25.76753032 30.7894296 -28.14327662 30.26737737 -31 27 C-30.67 26.67 -30.34 26.34 -30 26 C-27.80949979 26.09017996 -25.621534 26.24666208 -23.4375 26.4375 C-22.23996094 26.53933594 -21.04242188 26.64117187 -19.80859375 26.74609375 C-18.88175781 26.82988281 -17.95492187 26.91367187 -17 27 C-17.56589844 26.66226563 -18.13179687 26.32453125 -18.71484375 25.9765625 C-19.44832031 25.53054687 -20.18179688 25.08453125 -20.9375 24.625 C-21.66839844 24.18414063 -22.39929688 23.74328125 -23.15234375 23.2890625 C-25 22 -25 22 -26 20 C-23.69 20 -21.38 20 -19 20 C-19.66 19.54625 -20.32 19.0925 -21 18.625 C-21.66 18.08875 -22.32 17.5525 -23 17 C-23 16.34 -23 15.68 -23 15 C-20.03 15.495 -20.03 15.495 -17 16 C-17.66 14.35 -18.32 12.7 -19 11 C-16.69 11.33 -14.38 11.66 -12 12 C-12 10.02 -12 8.04 -12 6 C-9.525 6.495 -9.525 6.495 -7 7 C-6.731875 6.21625 -6.46375 5.4325 -6.1875 4.625 C-4.80518115 1.56934781 -3.53283878 0 0 0 Z " fill="#171717" transform="translate(71,7)"/>
<path d="M0 0 C0.33 0 0.66 0 1 0 C1 24.09 1 48.18 1 73 C-0.32 72.34 -1.64 71.68 -3 71 C-3 69.02 -3 67.04 -3 65 C-3.99 64.505 -3.99 64.505 -5 64 C-4.01 61.69 -3.02 59.38 -2 57 C-5.16666667 58.83333333 -5.16666667 58.83333333 -7 62 C-7 61.34 -7 60.68 -7 60 C-8.98 60.99 -10.96 61.98 -13 63 C-13 63.99 -13 64.98 -13 66 C-13.99 65.67 -14.98 65.34 -16 65 C-16.33 64.01 -16.66 63.02 -17 62 C-16.46890625 61.76925781 -15.9378125 61.53851563 -15.390625 61.30078125 C-10.82711528 59.19390541 -7.7416979 57.38671664 -5 53 C-4.22166466 50.81785432 -4.22166466 50.81785432 -4 49 C-9.40787385 50.09786425 -9.40787385 50.09786425 -13 54 C-15.125 54.6875 -15.125 54.6875 -17 55 C-17 54.34 -17 53.68 -17 53 C-17.99 53 -18.98 53 -20 53 C-19.73323796 54.98491642 -19.73323796 54.98491642 -19 57 C-17.515 57.495 -17.515 57.495 -16 58 C-18.66974142 60.56295176 -19.90232794 60.99337817 -23.6875 61.25 C-27 61 -27 61 -28 60 C-28.375 57.6875 -28.375 57.6875 -28 55 C-25.08242977 51.6934204 -22.1354736 50.66735041 -18 49.5625 C-13.42111032 48.33103041 -11.14793305 46.6248926 -8 43 C-7.01 42.67 -6.02 42.34 -5 42 C-5 41.34 -5 40.68 -5 40 C-6.62992692 40.39695637 -8.25392235 40.81832493 -9.875 41.25 C-11.23238281 41.59804687 -11.23238281 41.59804687 -12.6171875 41.953125 C-15.14957604 42.79914179 -15.14957604 42.79914179 -16.3203125 45.109375 C-16.54460937 45.73328125 -16.76890625 46.3571875 -17 47 C-17.66 47 -18.32 47 -19 47 C-19 44.75 -19 44.75 -18 42 C-14.89475467 39.83982933 -11.52254918 38.31322568 -7.81640625 37.55078125 C-7.21699219 37.36902344 -6.61757812 37.18726563 -6 37 C-4.70339566 34.50965614 -4.70339566 34.50965614 -4 32 C-7.11785113 32.64644661 -7.11785113 32.64644661 -8 35 C-9.92578125 35.5625 -9.92578125 35.5625 -12.3125 36 C-16.68610097 36.80965836 -19.81118482 37.81118482 -23 41 C-24.6626783 41.35268934 -26.33065717 41.68033861 -28 42 C-29.56937375 42.45615016 -31.13163126 42.93722066 -32.6875 43.4375 C-33.45449219 43.68371094 -34.22148438 43.92992187 -35.01171875 44.18359375 C-37.18276924 44.92575078 -37.18276924 44.92575078 -39 47 C-39.64767793 49.57061311 -39.64767793 49.57061311 -40 52 C-34.59212615 50.90213575 -34.59212615 50.90213575 -31 47 C-29.68 47.33 -28.36 47.66 -27 48 C-32.81155433 53.77716644 -32.81155433 53.77716644 -37 54.5625 C-40.71209419 53.86648234 -43.67175651 52.79213111 -47 51 C-48.4375 48.8125 -48.4375 48.8125 -49 47 C-47.02 47.66 -45.04 48.32 -43 49 C-42.79375 48.443125 -42.5875 47.88625 -42.375 47.3125 C-38.79217996 41.28684812 -33.41810302 38.99908127 -27 37 C-26.01 37 -25.02 37 -24 37 C-24 36.34 -24 35.68 -24 35 C-23.0409375 34.814375 -23.0409375 34.814375 -22.0625 34.625 C-21.381875 34.41875 -20.70125 34.2125 -20 34 C-19.67 33.34 -19.34 32.68 -19 32 C-16.77403998 31.15307099 -14.51636413 30.53153701 -12.2265625 29.87890625 C-9.84974501 28.94068882 -8.65465684 27.91619938 -7 26 C-6.34 26.66 -5.68 27.32 -5 28 C-2.75718477 22.79666866 -1.44422761 19.65735415 -3 14 C-3.99 13.67 -4.98 13.34 -6 13 C-4.35 12.67 -2.7 12.34 -1 12 C-0.67 11.01 -0.34 10.02 0 9 C-0.99 9 -1.98 9 -3 9 C-2.44271087 5.65626525 -1.64826111 2.96687001 0 0 Z " fill="#27272B" transform="translate(127,77)"/>
<path d="M0 0 C4.86036373 1.28386966 7.4790518 3.00399913 10.9375 6.625 C11.80503906 7.52992187 12.67257813 8.43484375 13.56640625 9.3671875 C16.78794147 12.8524439 19.92946537 16.38115561 23 20 C24.95628203 22.29342235 26.91546677 24.58435535 28.875 26.875 C29.39473389 27.48351807 29.91446777 28.09203613 30.44995117 28.71899414 C33.47886522 32.2564362 36.55151994 35.74396323 39.6875 39.1875 C43.58672727 43.48230105 47.26436722 47.92980619 50.9140625 52.4375 C53.55141268 55.67739086 56.26408759 58.84317799 59 62 C62.081456 61.40573072 62.081456 61.40573072 64.4375 59.4375 C66 58 66 58 68.6875 57.8125 C69.8321875 57.9053125 69.8321875 57.9053125 71 58 C71.38218767 59.65614657 71.71395102 61.32457024 72 63 C71.67 63.33 71.34 63.66 71 64 C69.96875 63.896875 68.9375 63.79375 67.875 63.6875 C60.29244486 64.29899638 55.97538472 70.95636167 51.28515625 76.4609375 C50.86105469 76.96882813 50.43695313 77.47671875 50 78 C48.68 77.67 47.36 77.34 46 77 C45.375 74.625 45.375 74.625 45 72 C47 70 47 70 50.125 69.875 C51.07375 69.91625 52.0225 69.9575 53 70 C53.33 69.34 53.66 68.68 54 68 C53.59910156 67.55011719 53.19820312 67.10023437 52.78515625 66.63671875 C49.39626189 62.80211946 46.09587731 58.91447975 42.875 54.9375 C37.61053183 48.466405 32.12773344 42.19218291 26.65087891 35.90087891 C23.05659979 31.76230198 19.49144088 27.59900981 15.9375 23.42578125 C13.94261672 21.08660679 11.91933233 18.77651906 9.875 16.48046875 C9.11920654 15.61929443 9.11920654 15.61929443 8.34814453 14.74072266 C7.40001974 13.66060833 6.4432698 12.5879735 5.47607422 11.52490234 C2.22930727 7.79387184 1.05201826 4.72226172 0 0 Z " fill="#E5E5E7" transform="translate(138,6)"/>
<path d="M0 0 C0.845625 0.28875 1.69125 0.5775 2.5625 0.875 C2.5625 2.195 2.5625 3.515 2.5625 4.875 C3.2225 4.875 3.8825 4.875 4.5625 4.875 C5.89474462 8.87173385 5.69692113 12.70794503 5.5625 16.875 C5.2325 17.535 4.9025 18.195 4.5625 18.875 C5.18125 18.99875 5.8 19.1225 6.4375 19.25 C8.5625 19.875 8.5625 19.875 10.5625 21.875 C10.92737512 24.72102594 10.96449375 26.2614306 9.375 28.6875 C6.89012734 30.31552002 5.47538568 30.38475499 2.5625 29.875 C0.28813151 27.51639564 -1.06410359 24.83308458 -2.4375 21.875 C-2.829375 22.32875 -3.22125 22.7825 -3.625 23.25 C-5.4375 24.875 -5.4375 24.875 -8 25.8125 C-10.58621695 26.66429161 -10.58621695 26.66429161 -11.75 29 C-12.0903125 29.928125 -12.0903125 29.928125 -12.4375 30.875 C-15.70046916 25.98054626 -16.75098487 21.71037861 -17.4375 15.875 C-16.4475 15.545 -15.4575 15.215 -14.4375 14.875 C-14.4375 13.225 -14.4375 11.575 -14.4375 9.875 C-13.4475 9.545 -12.4575 9.215 -11.4375 8.875 C-11.1075 7.885 -10.7775 6.895 -10.4375 5.875 C-7.30746554 2.25347253 -4.9107969 -0.17857443 0 0 Z " fill="#DF8D7A" transform="translate(205.4375,69.125)"/>
<path d="M0 0 C0.33 0 0.66 0 1 0 C1 1.98 1 3.96 1 6 C1.67546875 5.84402344 2.3509375 5.68804687 3.046875 5.52734375 C3.93890625 5.33269531 4.8309375 5.13804688 5.75 4.9375 C6.63171875 4.74027344 7.5134375 4.54304688 8.421875 4.33984375 C11.0376802 3.99503306 12.50206294 4.30385361 15 5 C17.34114367 4.72686657 19.67750658 4.40197001 22 4 C22 5.32 22 6.64 22 8 C21.34 8.66 20.68 9.32 20 10 C20 10.825 20 11.65 20 12.5 C20 13.325 20 14.15 20 15 C19.34 15.66 18.68 16.32 18 17 C17.95907063 19.33297433 17.95758277 21.66705225 18 24 C16.19964755 25.80035245 13.75528244 25.46274877 11.3125 25.625 C5.73500147 25.57181765 5.73500147 25.57181765 2.87109375 23.34375 C-2.09072394 16.55263567 -1.59806168 10.33594717 -0.5 2.375 C-0.335 1.59125 -0.17 0.8075 0 0 Z " fill="#F0F0F0" transform="translate(90,28)"/>
<path d="M0 0 C0 2.64 0 5.28 0 8 C0.99 7.67 1.98 7.34 3 7 C3.2475 7.639375 3.495 8.27875 3.75 8.9375 C4.77924751 11.17301987 4.77924751 11.17301987 6.875 11.5 C7.57625 11.665 8.2775 11.83 9 12 C10.35573748 13.31054623 11.68612831 14.64748503 13 16 C14.0725 16.598125 15.145 17.19625 16.25 17.8125 C17.61125 18.8953125 17.61125 18.8953125 19 20 C19.375 23.75 19.375 23.75 19 27 C18.67 27 18.34 27 18 27 C17.505 25.02 17.505 25.02 17 23 C16.67 24.98 16.34 26.96 16 29 C15.48050781 28.77183594 14.96101563 28.54367188 14.42578125 28.30859375 C10.25528555 26.58951696 7.46726213 25.46437864 3 27 C5.21934164 30.32901247 6.34683329 30.75023244 10 32 C10 32.33 10 32.66 10 33 C8.25034642 33.05429959 6.50020213 33.09292823 4.75 33.125 C3.77546875 33.14820313 2.8009375 33.17140625 1.796875 33.1953125 C-1.0196498 32.99862781 -2.60949036 32.44568916 -5 31 C-3 30 -3 30 1 30 C-1.3015411 29.22197813 -1.3015411 29.22197813 -4 29 C-4.61101562 29.49242188 -5.22203125 29.98484375 -5.8515625 30.4921875 C-8.57450318 32.40319678 -9.8723253 32.22515276 -13.125 31.8125 C-13.99382813 31.71582031 -14.86265625 31.61914062 -15.7578125 31.51953125 C-18 31 -18 31 -20 29 C-16.04 29 -12.08 29 -8 29 C-8.33 28.34 -8.66 27.68 -9 27 C-7.68 26.01 -6.36 25.02 -5 24 C-4.34 24.66 -3.68 25.32 -3 26 C-0.93125966 26.6425235 -0.93125966 26.6425235 1 27 C0.34 26.38125 -0.32 25.7625 -1 25.125 C-3 23 -3 23 -3 21 C-2.1028125 21.5259375 -2.1028125 21.5259375 -1.1875 22.0625 C1.10813214 23.33304698 1.10813214 23.33304698 4 22 C3.67 21.34 3.34 20.68 3 20 C3.66 19.34 4.32 18.68 5 18 C4.01 17.34 3.02 16.68 2 16 C2 16.99 2 17.98 2 19 C0.35 19 -1.3 19 -3 19 C-2.690625 18.1028125 -2.690625 18.1028125 -2.375 17.1875 C-1.69328085 14.71549154 -1.69328085 14.71549154 -4 12 C-4 11.01 -4 10.02 -4 9 C-5.65 8.67 -7.3 8.34 -9 8 C-8.34 7.67 -7.68 7.34 -7 7 C-6.690625 6.195625 -6.38125 5.39125 -6.0625 4.5625 C-4.78738328 1.4872185 -3.48985699 0 0 0 Z " fill="#282828" transform="translate(71,7)"/>
<path d="M0 0 C0.99 0 1.98 0 3 0 C2.90625 2.30859375 2.90625 2.30859375 2 5 C-0.90625 6.66015625 -0.90625 6.66015625 -4.5 8.0625 C-8.03357406 9.37320945 -8.03357406 9.37320945 -11 11 C-12.00213992 13.0700685 -12.00213992 13.0700685 -12 15 C-11.34 15 -10.68 15 -10 15 C-9.95875 14.401875 -9.9175 13.80375 -9.875 13.1875 C-9 11 -9 11 -6.25 9.25 C-3.17033796 8.0655146 -1.24510573 7.71366714 2 8 C2 10 2 10 0.6015625 11.62109375 C-4.85597994 16.63642425 -10.54198495 20.12647807 -18.19140625 19.94921875 C-20.125 19.6875 -20.125 19.6875 -23 19 C-22.67 18.01 -22.34 17.02 -22 16 C-22.66 16 -23.32 16 -24 16 C-24.4125 16.66 -24.825 17.32 -25.25 18 C-27 20 -27 20 -30.1875 20.25 C-31.115625 20.1675 -32.04375 20.085 -33 20 C-33.3125 17.75 -33.3125 17.75 -33 15 C-29.47358533 11.25986323 -25.9049093 10.20471456 -21 9 C-17.51273278 7.98288039 -14.54003749 6.79366174 -11.4375 4.9375 C-8.41818525 3.23570441 -6.41075499 2.29235043 -3 2 C-2.34 2.33 -1.68 2.66 -1 3 C-0.67 2.01 -0.34 1.02 0 0 Z " fill="#E4E4E4" transform="translate(120,109)"/>
<path d="M0 0 C2.64 0 5.28 0 8 0 C8.495 0.99 8.495 0.99 9 2 C11.30965848 3.05352843 13.6429774 4.05719096 16 5 C15.34 5.33 14.68 5.66 14 6 C14 6.66 14 7.32 14 8 C13.10796875 8.04898438 12.2159375 8.09796875 11.296875 8.1484375 C10.12640625 8.22320312 8.9559375 8.29796875 7.75 8.375 C6.00976562 8.47941406 6.00976562 8.47941406 4.234375 8.5859375 C1.29305666 8.96248308 -0.49949011 9.4774123 -3 11 C-2.01 11.66 -1.02 12.32 0 13 C0 13.66 0 14.32 0 15 C-7.45263158 15.12631579 -7.45263158 15.12631579 -10.4375 14.4375 C-15.5258383 13.56875931 -20.52229608 14.50743203 -25.375 16.125 C-28 17 -28 17 -31 16 C-30 13 -30 13 -27 11 C-28.32 10.67 -29.64 10.34 -31 10 C-31 9.34 -31 8.68 -31 8 C-29.35 8 -27.7 8 -26 8 C-26 7.34 -26 6.68 -26 6 C-26.99 5.67 -27.98 5.34 -29 5 C-23.94341751 4.70827409 -21.95312074 5.03515945 -18 8 C-12.40874182 8.78277615 -8.35593836 7.18001071 -3.33203125 4.97265625 C-1.22409374 4.09346623 0.77346963 3.48625376 3 3 C2.01 2.01 1.02 1.02 0 0 Z " fill="#D9BD5C" transform="translate(88,99)"/>
<path d="M0 0 C0.66 0.33 1.32 0.66 2 1 C1.67 6.61 1.34 12.22 1 18 C0.34 18 -0.32 18 -1 18 C-0.67 19.65 -0.34 21.3 0 23 C-1.97746603 23.73080266 -3.98072489 24.39421747 -6 25 C-6.66 24.67 -7.32 24.34 -8 24 C-8 22.35 -8 20.7 -8 19 C-8.33 20.32 -8.66 21.64 -9 23 C-15.625 23.25 -15.625 23.25 -19 21 C-17.125 17.125 -17.125 17.125 -16 16 C-17.98 15.01 -19.96 14.02 -22 13 C-22 11.68 -22 10.36 -22 9 C-20.375 8.3125 -20.375 8.3125 -18 8 C-14.75 9.4375 -14.75 9.4375 -12 11 C-15.875 12 -15.875 12 -17 12 C-14.03 12 -11.06 12 -8 12 C-8.825 11.566875 -9.65 11.13375 -10.5 10.6875 C-11.7375 9.8521875 -11.7375 9.8521875 -13 9 C-13 8.01 -13 7.02 -13 6 C-8.06729471 4.3557649 -5.45975807 5.81384408 -1 8 C-0.67 5.36 -0.34 2.72 0 0 Z " fill="#191919" transform="translate(87,27)"/>
<path d="M0 0 C2.6875 1.5 2.6875 1.5 3.44921875 3.3515625 C3.88924132 7.31897916 1.85462576 10.28944331 -0.3125 13.5 C-3.81797164 17.27894816 -7.37695212 19.89928177 -12.3125 21.5 C-13.65300052 22.15213539 -14.98911368 22.81379969 -16.3125 23.5 C-13.80903351 18.64032976 -10.22697559 15.22143296 -6.3125 11.5 C-9.08492864 12.59216886 -11.68644862 13.7025555 -14.3125 15.125 C-19.63406411 17.48355514 -25.6242828 16.73095017 -31.3125 16.5 C-28.88620673 13.63842488 -26.6738911 12.78370191 -23.125 11.6875 C-16.96091129 9.56503674 -12.64932275 6.27933904 -7.69921875 2.15625 C-4.80425729 -0.05798409 -3.6749615 -0.55471117 0 0 Z " fill="#2D2D2D" transform="translate(74.3125,57.5)"/>
<path d="M0 0 C0.33 3.3 0.66 6.6 1 10 C-0.093125 10.165 -1.18625 10.33 -2.3125 10.5 C-7.58745671 11.75772989 -11.24448325 14.95137422 -15.38671875 18.3203125 C-18.25494067 20.16386321 -19.66419978 20.37264795 -23 20 C-24.28446919 17.43106162 -24.32977144 15.23423663 -24.5625 12.375 C-24.64628906 11.37210938 -24.73007813 10.36921875 -24.81640625 9.3359375 C-24.87699219 8.56507812 -24.93757812 7.79421875 -25 7 C-21.28039017 5.83762193 -17.88642788 4.93621786 -14 4.625 C-8.71019527 4.08061233 -5.13647328 0 0 0 Z " fill="#EFEFEF" transform="translate(189,86)"/>
<path d="M0 0 C1.03930664 0.01353516 1.03930664 0.01353516 2.09960938 0.02734375 C3.79572395 0.05073843 5.49165871 0.08660359 7.1875 0.125 C7.1875 0.785 7.1875 1.445 7.1875 2.125 C8.5075 2.455 9.8275 2.785 11.1875 3.125 C11.31125 3.764375 11.435 4.40375 11.5625 5.0625 C11.76875 5.743125 11.975 6.42375 12.1875 7.125 C12.8475 7.455 13.5075 7.785 14.1875 8.125 C14.671875 10.55859375 14.671875 10.55859375 14.9375 13.5625 C15.08445312 15.04556641 15.08445312 15.04556641 15.234375 16.55859375 C15.1875 19.125 15.1875 19.125 13.1875 21.125 C10.1875 14.5 10.1875 14.5 10.1875 11.125 C9.1975 10.465 8.2075 9.805 7.1875 9.125 C6.8575 8.135 6.5275 7.145 6.1875 6.125 C6.1875 7.445 6.1875 8.765 6.1875 10.125 C7.1775 10.785 8.1675 11.445 9.1875 12.125 C7.8675 12.455 6.5475 12.785 5.1875 13.125 C4.8575 12.465 4.5275 11.805 4.1875 11.125 C3.1975 11.62 3.1975 11.62 2.1875 12.125 C2.1875 11.135 2.1875 10.145 2.1875 9.125 C1.42824219 9.28097656 0.66898438 9.43695313 -0.11328125 9.59765625 C-1.10714844 9.79230469 -2.10101563 9.98695312 -3.125 10.1875 C-4.11113281 10.38472656 -5.09726563 10.58195312 -6.11328125 10.78515625 C-8.8125 11.125 -8.8125 11.125 -11.8125 10.125 C-14.45054589 10.51897335 -14.45054589 10.51897335 -16.8125 11.125 C-13.95943203 8.80027795 -11.27175163 7.3741742 -7.8125 6.125 C-9.88803648 5.5715236 -11.65615964 5.125 -13.8125 5.125 C-12.8125 2.125 -12.8125 2.125 -10.73828125 0.9453125 C-7.12019297 -0.06910477 -3.72021435 -0.09256036 0 0 Z " fill="#1A1413" transform="translate(110.8125,22.875)"/>
<path d="M0 0 C0.33 0 0.66 0 1 0 C1 11.55 1 23.1 1 35 C-0.32 34.34 -1.64 33.68 -3 33 C-3 31.02 -3 29.04 -3 27 C-3.66 26.67 -4.32 26.34 -5 26 C-4.01 23.69 -3.02 21.38 -2 19 C-5.16666667 20.83333333 -5.16666667 20.83333333 -7 24 C-7 23.34 -7 22.68 -7 22 C-8.98 22.99 -10.96 23.98 -13 25 C-13 25.99 -13 26.98 -13 28 C-13.99 27.67 -14.98 27.34 -16 27 C-16.33 26.01 -16.66 25.02 -17 24 C-16.46890625 23.76925781 -15.9378125 23.53851563 -15.390625 23.30078125 C-10.82711528 21.19390541 -7.7416979 19.38671664 -5 15 C-4.22166466 12.81785432 -4.22166466 12.81785432 -4 11 C-5.98 11 -7.96 11 -10 11 C-8.35 9.35 -6.7 7.7 -5 6 C-5 6.66 -5 7.32 -5 8 C-2.27573689 5.64722731 -1.1858237 3.37503669 0 0 Z " fill="#191923" transform="translate(127,115)"/>
<path d="M0 0 C1 3 1 3 0.22265625 5.04296875 C-0.35162109 6.10451172 -0.35162109 6.10451172 -0.9375 7.1875 C-1.31777344 7.90292969 -1.69804688 8.61835937 -2.08984375 9.35546875 C-2.39019531 9.89816406 -2.69054687 10.44085938 -3 11 C-4.32 11 -5.64 11 -7 11 C-7.28875 11.639375 -7.5775 12.27875 -7.875 12.9375 C-9 15 -9 15 -11 16 C-11.66 16.99 -12.32 17.98 -13 19 C-15.125 19.6875 -15.125 19.6875 -17 20 C-17 19.34 -17 18.68 -17 18 C-17.99 18 -18.98 18 -20 18 C-19.73323796 19.98491642 -19.73323796 19.98491642 -19 22 C-18.01 22.33 -17.02 22.66 -16 23 C-18.66974142 25.56295176 -19.90232794 25.99337817 -23.6875 26.25 C-27 26 -27 26 -28 25 C-28.375 22.6875 -28.375 22.6875 -28 20 C-25.08242977 16.6934204 -22.1354736 15.66735041 -18 14.5625 C-13.42111032 13.33103041 -11.14793305 11.6248926 -8 8 C-7.01 7.67 -6.02 7.34 -5 7 C-5 6.34 -5 5.68 -5 5 C-6.62992692 5.39695637 -8.25392235 5.81832493 -9.875 6.25 C-10.77992187 6.48203125 -11.68484375 6.7140625 -12.6171875 6.953125 C-15.14957604 7.79914179 -15.14957604 7.79914179 -16.3203125 10.109375 C-16.65675781 11.04523438 -16.65675781 11.04523438 -17 12 C-17.66 12 -18.32 12 -19 12 C-19 9.75 -19 9.75 -18 7 C-14.3728812 4.21257219 -11.13356985 2.95877928 -6.5625 3.125 C-4 4 -4 4 -3 6 C-2.01 4.02 -1.02 2.04 0 0 Z " fill="#363636" transform="translate(127,112)"/>
<path d="M0 0 C0.33 0 0.66 0 1 0 C1.06058594 0.60328125 1.12117188 1.2065625 1.18359375 1.828125 C1.26738281 2.62734375 1.35117188 3.4265625 1.4375 4.25 C1.51871094 5.03890625 1.59992188 5.8278125 1.68359375 6.640625 C1.95064289 8.97491621 1.95064289 8.97491621 2.53515625 11.109375 C3 13 3 13 3 16 C2.01 16.66 1.02 17.32 0 18 C0 17.34 0 16.68 0 16 C-2.33075929 16.95865509 -2.33075929 16.95865509 -4 20 C-4 19.34 -4 18.68 -4 18 C-6.33075929 18.95865509 -6.33075929 18.95865509 -8 22 C-8 20.35 -8 18.7 -8 17 C-9.32 17 -10.64 17 -12 17 C-12 18.98 -12 20.96 -12 23 C-12.69996094 22.92007813 -13.39992187 22.84015625 -14.12109375 22.7578125 C-17.97665636 23.08216105 -19.92668242 24.64702341 -23.0625 26.875 C-29.50195084 31.40616465 -29.50195084 31.40616465 -33 33 C-32.67 32.34 -32.34 31.68 -32 31 C-33.36125 31.2475 -33.36125 31.2475 -34.75 31.5 C-40.13782475 32.28873311 -45.56912556 32.08025923 -51 32 C-50.505 30.515 -50.505 30.515 -50 29 C-46.04 28.34 -42.08 27.68 -38 27 C-38 27.66 -38 28.32 -38 29 C-31.87954346 28.5608944 -27.82264369 27.2614855 -22.625 24.0625 C-22.01011719 23.70220703 -21.39523438 23.34191406 -20.76171875 22.97070312 C-18.25071656 21.47893705 -16.07235012 20.07235012 -14 18 C-14.66 17.34 -15.32 16.68 -16 16 C-15 15 -15 15 -12.4375 14.9375 C-11.633125 14.958125 -10.82875 14.97875 -10 15 C-10 14.01 -10 13.02 -10 12 C-10.66 11.67 -11.32 11.34 -12 11 C-10.68 10.67 -9.36 10.34 -8 10 C-8.33 11.98 -8.66 13.96 -9 16 C-6.36 15.67 -3.72 15.34 -1 15 C-1.495 12.525 -1.495 12.525 -2 10 C-1.34 10 -0.68 10 0 10 C0 6.7 0 3.4 0 0 Z " fill="#2F2F2F" transform="translate(88,35)"/>
<path d="M0 0 C0 0.66 0 1.32 0 2 C-11.82664278 6.90198876 -22.43777096 10.46657032 -35 6 C-35 5.34 -35 4.68 -35 4 C-33.865625 3.89042969 -32.73125 3.78085937 -31.5625 3.66796875 C-30.04160817 3.50836899 -28.52077796 3.3481812 -27 3.1875 C-26.25621094 3.11724609 -25.51242188 3.04699219 -24.74609375 2.97460938 C-19.39438375 2.39290177 -14.9850305 1.03173675 -10 -1 C-5.88387679 -2.09763286 -3.8650577 -1.93252885 0 0 Z " fill="#161616" transform="translate(68,49)"/>
<path d="M0 0 C0.33 0.99 0.66 1.98 1 3 C1.66 3 2.32 3 3 3 C4.33224462 6.99673385 4.13442113 10.83294503 4 15 C3.67 15.66 3.34 16.32 3 17 C3.99 17.33 4.98 17.66 6 18 C3.36 18 0.72 18 -2 18 C-2 17.01 -2 16.02 -2 15 C-2.66 15 -3.32 15 -4 15 C-4.33 13.35 -4.66 11.7 -5 10 C-5.66 10 -6.32 10 -7 10 C-7 12.31 -7 14.62 -7 17 C-7.99 17 -8.98 17 -10 17 C-9.79905835 15.03856959 -9.56328747 13.08068209 -9.3125 11.125 C-9.18488281 10.03445312 -9.05726563 8.94390625 -8.92578125 7.8203125 C-8 5 -8 5 -5.60546875 3.6796875 C-4.74566406 3.45539063 -3.88585937 3.23109375 -3 3 C-2.01 2.67 -1.02 2.34 0 2 C0 1.34 0 0.68 0 0 Z " fill="#A5736B" transform="translate(207,71)"/>
<path d="M0 0 C3.16115776 1.36983503 3.9927092 1.9890638 6 5 C9.55672179 6.2188121 9.55672179 6.2188121 13 7 C13 7.33 13 7.66 13 8 C9.05272412 8.17942163 6.4019487 8.09350689 3 6 C2.67 6.99 2.34 7.98 2 9 C1.34 9 0.68 9 0 9 C0.66 9.78375 1.32 10.5675 2 11.375 C4 14 4 14 4 16 C1.1875 16.625 1.1875 16.625 -2 17 C-2.99 16.34 -3.98 15.68 -5 15 C-5 13.68 -5 12.36 -5 11 C-7.64 11 -10.28 11 -13 11 C-14.125 7.25 -14.125 7.25 -13 5 C-11.68 5 -10.36 5 -9 5 C-8.67 5.66 -8.34 6.32 -8 7 C-7.2575 6.505 -6.515 6.01 -5.75 5.5 C-3 4 -3 4 1 4 C0.67 2.68 0.34 1.36 0 0 Z " fill="#161616" transform="translate(89,47)"/>
<path d="M0 0 C0.86625 0.4640625 0.86625 0.4640625 1.75 0.9375 C3.89911146 2.10984273 3.89911146 2.10984273 6.0625 2.1875 C8 3 8 3 9.8125 6.4375 C10.204375 7.613125 10.59625 8.78875 11 10 C10.67 10.66 10.34 11.32 10 12 C11.32 12.33 12.64 12.66 14 13 C14 12.01 14 11.02 14 10 C15.32 10.66 16.64 11.32 18 12 C17.01 13.485 17.01 13.485 16 15 C16 15.99 16 16.98 16 18 C13.03824877 17.38722388 11.61941217 16.74627478 9 15 C9.66 15.61875 10.32 16.2375 11 16.875 C13 19 13 19 13 21 C8.25 20.25 8.25 20.25 6 18 C6 17.01 6 16.02 6 15 C6.66 15 7.32 15 8 15 C8 14.34 8 13.68 8 13 C7.38125 12.773125 6.7625 12.54625 6.125 12.3125 C3.38589791 10.62070165 2.94975528 9.00755839 2 6 C1.34 6 0.68 6 0 6 C0 4.02 0 2.04 0 0 Z " fill="#1D1D1D" transform="translate(59,13)"/>
<path d="M0 0 C0.78375 0.04125 1.5675 0.0825 2.375 0.125 C2.75718767 1.78114657 3.08895102 3.44957024 3.375 5.125 C3.045 5.455 2.715 5.785 2.375 6.125 C1.34375 6.021875 0.3125 5.91875 -0.75 5.8125 C-8.33255514 6.42399638 -12.64961528 13.08136167 -17.33984375 18.5859375 C-17.76394531 19.09382813 -18.18804687 19.60171875 -18.625 20.125 C-19.945 19.795 -21.265 19.465 -22.625 19.125 C-23.25 16.75 -23.25 16.75 -23.625 14.125 C-21.625 12.125 -21.625 12.125 -18.5 12 C-17.55125 12.04125 -16.6025 12.0825 -15.625 12.125 C-15.295 11.135 -14.965 10.145 -14.625 9.125 C-13.965 9.125 -13.305 9.125 -12.625 9.125 C-12.625 8.465 -12.625 7.805 -12.625 7.125 C-11.635 7.125 -10.645 7.125 -9.625 7.125 C-9.625 6.465 -9.625 5.805 -9.625 5.125 C-7.98166496 4.08710419 -6.31256133 3.08932076 -4.625 2.125 C-2.625 0.125 -2.625 0.125 0 0 Z " fill="#A8A8AE" transform="translate(206.625,63.875)"/>
<path d="M0 0 C-5.39386956 5.89954483 -12.74623612 11.79743982 -20.9375 12.1875 C-24.05317996 12.11179189 -26.9667653 11.75830867 -30 11 C-27.29119853 9.19413235 -24.77738987 7.9380824 -21.8125 6.625 C-18.38551661 5.10540342 -15.08513022 3.51212121 -11.8125 1.6875 C-7.7659932 -0.39858735 -4.49765124 -0.3212608 0 0 Z " fill="#2F2F2F" transform="translate(75,52)"/>
<path d="M0 0 C1.32 0.66 2.64 1.32 4 2 C4 3.32 4 4.64 4 6 C5.32 6.33 6.64 6.66 8 7 C7.67 8.32 7.34 9.64 7 11 C7.66 11.33 8.32 11.66 9 12 C8.01 13.485 8.01 13.485 7 15 C7 15.99 7 16.98 7 18 C5.68 17.67 4.36 17.34 3 17 C3 16.34 3 15.68 3 15 C1.35 14.67 -0.3 14.34 -2 14 C-2.33 14.99 -2.66 15.98 -3 17 C-3.33 17.99 -3.66 18.98 -4 20 C-5.3592233 12.93203883 -5.3592233 12.93203883 -3 9 C-2.62331656 7.34259285 -2.27942455 5.67654729 -2 4 C-1.34 4 -0.68 4 0 4 C0 2.68 0 1.36 0 0 Z " fill="#1D1D1D" transform="translate(112,32)"/>
<path d="M0 0 C2.64 0 5.28 0 8 0 C8.33 0.66 8.66 1.32 9 2 C11.30965848 3.05352843 13.6429774 4.05719096 16 5 C15.01 5.495 15.01 5.495 14 6 C14 6.66 14 7.32 14 8 C13.10796875 8.04898438 12.2159375 8.09796875 11.296875 8.1484375 C10.12640625 8.22320312 8.9559375 8.29796875 7.75 8.375 C6.00976562 8.47941406 6.00976562 8.47941406 4.234375 8.5859375 C1.29305666 8.96248308 -0.49949011 9.4774123 -3 11 C-3 11.33 -3 11.66 -3 12 C-4.65 12 -6.3 12 -8 12 C-8 11.01 -8 10.02 -8 9 C-7.34 8.67 -6.68 8.34 -6 8 C-7.32 7.67 -8.64 7.34 -10 7 C-5.71 5.68 -1.42 4.36 3 3 C2.01 2.01 1.02 1.02 0 0 Z " fill="#D6C180" transform="translate(88,99)"/>
<path d="M0 0 C0 2.64 0 5.28 0 8 C0.99 7.67 1.98 7.34 3 7 C3.2475 7.639375 3.495 8.27875 3.75 8.9375 C4.81562433 11.18741541 4.81562433 11.18741541 7.125 11.75 C7.74375 11.8325 8.3625 11.915 9 12 C7.03617993 13.50559539 5.21736634 14.89131683 3 16 C2.67 16.99 2.34 17.98 2 19 C0.35 19 -1.3 19 -3 19 C-2.79375 18.401875 -2.5875 17.80375 -2.375 17.1875 C-1.69328085 14.71549154 -1.69328085 14.71549154 -4 12 C-4 11.01 -4 10.02 -4 9 C-5.65 8.67 -7.3 8.34 -9 8 C-8.34 7.67 -7.68 7.34 -7 7 C-6.690625 6.195625 -6.38125 5.39125 -6.0625 4.5625 C-4.78738328 1.4872185 -3.48985699 0 0 0 Z " fill="#070707" transform="translate(71,7)"/>
<path d="M0 0 C0.7425 0.0825 1.485 0.165 2.25 0.25 C1.98974099 3.98037911 1.4880428 5.93982302 -0.8125 8.9375 C-4.37696506 11.74356824 -7.44725737 12.86437102 -11.75 14.25 C-12.41 13.26 -13.07 12.27 -13.75 11.25 C-13.09 10.59 -12.43 9.93 -11.75 9.25 C-12.41 7.6 -13.07 5.95 -13.75 4.25 C-13.151875 4.435625 -12.55375 4.62125 -11.9375 4.8125 C-9.58591238 5.47093687 -9.58591238 5.47093687 -6.75 4.25 C-5.821875 3.2290625 -5.821875 3.2290625 -4.875 2.1875 C-2.75 0.25 -2.75 0.25 0 0 Z " fill="#EEEEEE" transform="translate(120.75,125.75)"/>
<path d="M0 0 C10.23 0.33 20.46 0.66 31 1 C31 1.33 31 1.66 31 2 C28.69 2.33 26.38 2.66 24 3 C26.97 3 29.94 3 33 3 C32.67 3.66 32.34 4.32 32 5 C21.42414824 7.51805994 9.47602629 7.51332438 0 2 C0 1.34 0 0.68 0 0 Z " fill="#090909" transform="translate(35,41)"/>
<path d="M0 0 C0.66 0 1.32 0 2 0 C2.33 1.65 2.66 3.3 3 5 C3.66 5 4.32 5 5 5 C5 5.99 5 6.98 5 8 C5.62648437 7.97679688 6.25296875 7.95359375 6.8984375 7.9296875 C7.71570313 7.91164063 8.53296875 7.89359375 9.375 7.875 C10.18710938 7.85179688 10.99921875 7.82859375 11.8359375 7.8046875 C14 8 14 8 16 10 C16.36487512 12.84602594 16.40199375 14.3864306 14.8125 16.8125 C12.32762734 18.44052002 10.91288568 18.50975499 8 18 C4.88228742 15.00219944 3.64431902 10.93206723 2 7 C1.34 6.01 0.68 5.02 0 4 C0 2.68 0 1.36 0 0 Z " fill="#C9C8C9" transform="translate(200,81)"/>
<path d="M0 0 C0.55171875 0.17402344 1.1034375 0.34804688 1.671875 0.52734375 C5.80824122 1.36710938 9.83635436 0.4930633 14 0 C13.34 3.3 12.68 6.6 12 10 C6.66907776 12.18083183 6.66907776 12.18083183 3.6875 11.375 C1.60164074 9.67541097 1.48579084 8.5908845 1 6 C0.34 5.34 -0.32 4.68 -1 4 C-0.625 1.875 -0.625 1.875 0 0 Z " fill="#262626" transform="translate(93,55)"/>
<path d="M0 0 C0.66 0 1.32 0 2 0 C2.02725341 1.7290774 2.04650987 3.45828176 2.0625 5.1875 C2.07410156 6.15042969 2.08570312 7.11335938 2.09765625 8.10546875 C2.00486622 10.85576513 1.62111685 13.32479591 1 16 C1.3125 14.0625 1.3125 14.0625 2 12 C2.99 11.67 3.98 11.34 5 11 C5.4223968 15.30844739 5.56269452 17.2926126 2.8125 20.75 C-3.75 26 -3.75 26 -7 26 C-6.49396008 23.83125748 -6.00016187 22.00032373 -5 20 C-4.34 20 -3.68 20 -3 20 C-2.814375 18.1128125 -2.814375 18.1128125 -2.625 16.1875 C-2.02638195 10.73920821 -1.03573574 5.37979246 0 0 Z " fill="#131313" transform="translate(107,63)"/>
<path d="M0 0 C0.87398437 0.32291016 0.87398437 0.32291016 1.765625 0.65234375 C-1.28606879 7.73227334 -4.79330508 12.58672983 -11.921875 15.90234375 C-12.685 16.14984375 -13.448125 16.39734375 -14.234375 16.65234375 C-15.57487552 17.30447914 -16.91098868 17.96614344 -18.234375 18.65234375 C-15.73090851 13.79267351 -12.14885059 10.37377671 -8.234375 6.65234375 C-8.564375 5.99234375 -8.894375 5.33234375 -9.234375 4.65234375 C-8.16330383 3.78285058 -7.07691556 2.9322017 -5.984375 2.08984375 C-5.38109375 1.61417969 -4.7778125 1.13851562 -4.15625 0.6484375 C-2.234375 -0.34765625 -2.234375 -0.34765625 0 0 Z " fill="#202020" transform="translate(76.234375,62.34765625)"/>
<path d="M0 0 C3.10079656 0.01325127 6.00034927 0.18144246 9 1 C11.4375 4 11.4375 4 13 7 C13.66 7.33 14.32 7.66 15 8 C15 8.66 15 9.32 15 10 C14.34 10 13.68 10 13 10 C12.67 10.99 12.34 11.98 12 13 C9.36 12.01 6.72 11.02 4 10 C4 9.34 4 8.68 4 8 C1.69 7.67 -0.62 7.34 -3 7 C-3.33 6.01 -3.66 5.02 -4 4 C-1.03 4.495 -1.03 4.495 2 5 C1.34 3.35 0.68 1.7 0 0 Z " fill="#393939" transform="translate(52,18)"/>
<path d="M0 0 C1.03930664 0.01353516 1.03930664 0.01353516 2.09960938 0.02734375 C3.79572395 0.05073843 5.49165871 0.08660359 7.1875 0.125 C7.1875 0.455 7.1875 0.785 7.1875 1.125 C4.5475 1.455 1.9075 1.785 -0.8125 2.125 C-1.74673645 5.13531744 -1.85699911 5.99150268 -0.8125 9.125 C-4.9657942 11.2016471 -7.32454488 10.96649159 -11.8125 10.125 C-14.58114953 10.49358988 -14.58114953 10.49358988 -16.8125 11.125 C-13.95943203 8.80027795 -11.27175163 7.3741742 -7.8125 6.125 C-9.88803648 5.5715236 -11.65615964 5.125 -13.8125 5.125 C-12.8125 2.125 -12.8125 2.125 -10.73828125 0.9453125 C-7.12019297 -0.06910477 -3.72021435 -0.09256036 0 0 Z " fill="#9B8942" transform="translate(110.8125,22.875)"/>
<path d="M0 0 C0.33 0 0.66 0 1 0 C1.11596426 25.68875902 1.01094164 51.32853506 0 77 C-0.33 77 -0.66 77 -1 77 C-1.02505615 75.96593018 -1.0501123 74.93186035 -1.07592773 73.86645508 C-1.1703343 70.01786613 -1.27047291 66.16944371 -1.37231445 62.32104492 C-1.41553784 60.65767319 -1.45722146 58.99426068 -1.49731445 57.33081055 C-1.55532332 54.93525932 -1.61892829 52.53991092 -1.68359375 50.14453125 C-1.70030624 49.4047554 -1.71701874 48.66497955 -1.73423767 47.90278625 C-1.8407276 44.16354068 -2.12187752 40.64061456 -3 37 C-2.01 37 -1.02 37 0 37 C0 24.79 0 12.58 0 0 Z " fill="#5A5C81" transform="translate(128,0)"/>
<path d="M0 0 C0 0.99 0 1.98 0 3 C-0.33 2.34 -0.66 1.68 -1 1 C-1.99 1 -2.98 1 -4 1 C-3.73323796 2.98491642 -3.73323796 2.98491642 -3 5 C-2.01 5.33 -1.02 5.66 0 6 C-2.66974142 8.56295176 -3.90232794 8.99337817 -7.6875 9.25 C-11 9 -11 9 -12 8 C-12.375 5.6875 -12.375 5.6875 -12 3 C-8.16857699 -1.41194165 -5.50301883 -1.29482796 0 0 Z " fill="#C5C5C5" transform="translate(111,129)"/>
<path d="M0 0 C0.66 0.33 1.32 0.66 2 1 C2 1.66 2 2.32 2 3 C1.360625 3.433125 0.72125 3.86625 0.0625 4.3125 C-2.49927596 6.40849852 -2.65221564 7.78299472 -3 11 C2.40787385 9.90213575 2.40787385 9.90213575 6 6 C7.32 6.33 8.64 6.66 10 7 C4.18844567 12.77716644 4.18844567 12.77716644 0 13.5625 C-3.71209419 12.86648234 -6.67175651 11.79213111 -10 10 C-11.4375 7.8125 -11.4375 7.8125 -12 6 C-10.02 6.66 -8.04 7.32 -6 8 C-5.7525 7.4225 -5.505 6.845 -5.25 6.25 C-3.83316683 3.6997003 -2.12372463 1.98214299 0 0 Z " fill="#505050" transform="translate(90,118)"/>
<path d="M0 0 C0.33 0 0.66 0 1 0 C1.08149592 3.02138567 1.14073421 6.04053905 1.1875 9.0625 C1.22520508 10.33383789 1.22520508 10.33383789 1.26367188 11.63085938 C1.32846972 17.2250736 0.57466587 21.01960959 -2 26 C-2.66 25.67 -3.32 25.34 -4 25 C-4 24.34 -4 23.68 -4 23 C-4.66 23 -5.32 23 -6 23 C-5.67 21.68 -5.34 20.36 -5 19 C-4.34 19 -3.68 19 -3 19 C-3 17.68 -3 16.36 -3 15 C-3.66 14.67 -4.32 14.34 -5 14 C-4.54625 13.360625 -4.0925 12.72125 -3.625 12.0625 C-1.55458473 8.16056352 -0.79918586 4.31560367 0 0 Z " fill="#060710" transform="translate(127,93)"/>
<path d="M0 0 C-1.65 0.33 -3.3 0.66 -5 1 C-5 1.99 -5 2.98 -5 4 C-2.69 4 -0.38 4 2 4 C2.33 4.99 2.66 5.98 3 7 C-3.0546875 7.1953125 -3.0546875 7.1953125 -5 7 C-5.66 6.34 -6.32 5.68 -7 5 C-9.89223503 4.53603307 -9.89223503 4.53603307 -13.125 4.375 C-14.76855469 4.26285156 -14.76855469 4.26285156 -16.4453125 4.1484375 C-17.28835937 4.09945312 -18.13140625 4.05046875 -19 4 C-18.67 2.68 -18.34 1.36 -18 0 C-17.00419922 0.01740234 -17.00419922 0.01740234 -15.98828125 0.03515625 C-10.78794645 0.08829836 -4.79520791 -1.59840264 0 0 Z " fill="#E6BD03" transform="translate(85,107)"/>
<path d="M0 0 C0.33 0.99 0.66 1.98 1 3 C1.66 3 2.32 3 3 3 C3.66 5.64 4.32 8.28 5 11 C2.525 10.505 2.525 10.505 0 10 C-0.33 8.02 -0.66 6.04 -1 4 C-3.97 4 -6.94 4 -10 4 C-10.33 5.32 -10.66 6.64 -11 8 C-11.33 6.68 -11.66 5.36 -12 4 C-12.66 4 -13.32 4 -14 4 C-14.99 6.31 -15.98 8.62 -17 11 C-17.33 11 -17.66 11 -18 11 C-18.36 4.64 -18.36 4.64 -16.875 2 C-14.06863762 0.50327339 -11.99840718 1.26705602 -9 2 C-9 1.67 -9 1.34 -9 1 C-4.545 0.505 -4.545 0.505 0 0 Z " fill="#2A2A2A" transform="translate(107,52)"/>
<path d="M0 0 C-2.61607834 3.24915068 -5.50991974 4.02393763 -9.4375 5.1875 C-10.57058594 5.53167969 -11.70367187 5.87585937 -12.87109375 6.23046875 C-16 7 -16 7 -20 7 C-20 6.34 -20 5.68 -20 5 C-20.99 4.67 -21.98 4.34 -23 4 C-22.33613281 3.87882812 -21.67226563 3.75765625 -20.98828125 3.6328125 C-16.43236892 2.7681868 -12.27619934 1.83265686 -8 0 C-4.61354386 -0.88692899 -3.3847327 -1.12824423 0 0 Z " fill="#212121" transform="translate(66,48)"/>
<path d="M0 0 C0 0.66 0 1.32 0 2 C1.98 2.66 3.96 3.32 6 4 C5 6 5 6 3.109375 6.74609375 C2.33078125 6.97425781 1.5521875 7.20242187 0.75 7.4375 C-2.86977167 8.55968677 -5.75518715 10.03344676 -9 12 C-11 11 -11 11 -12 9 C-10.2097939 8.32942113 -8.41778511 7.6636531 -6.625 7 C-5.62726562 6.62875 -4.62953125 6.2575 -3.6015625 5.875 C-1 5 -1 5 1 5 C1 4.34 1 3.68 1 3 C-2.04448036 2.16968718 -4.09915298 2.0152543 -7.25 2.5 C-11.6861845 3.09149127 -15.59970462 2.64856961 -20 2 C-20 1.67 -20 1.34 -20 1 C-17.79187393 0.83060951 -15.58348776 0.66460778 -13.375 0.5 C-12.14523438 0.4071875 -10.91546875 0.314375 -9.6484375 0.21875 C-6.41962143 0.02515931 -3.23321325 -0.03979339 0 0 Z " fill="#4F4F4F" transform="translate(67,46)"/>
<path d="M0 0 C3.3779758 1.89496203 4.1593021 3.89257899 5.5625 7.4375 C5.5625 8.0975 5.5625 8.7575 5.5625 9.4375 C4.2425 9.1075 2.9225 8.7775 1.5625 8.4375 C2.8825 9.7575 4.2025 11.0775 5.5625 12.4375 C1.74152761 11.90680939 -0.49921403 10.94048434 -3.4375 8.4375 C-3.1075 7.4475 -2.7775 6.4575 -2.4375 5.4375 C-2.4375 3.59703612 -3.60978177 2.04120406 -4.4375 0.4375 C-2.4375 -0.5625 -2.4375 -0.5625 0 0 Z " fill="#050505" transform="translate(80.4375,20.5625)"/>
<path d="M0 0 C2.31 0.33 4.62 0.66 7 1 C6.67 1.99 6.34 2.98 6 4 C7.65 4.33 9.3 4.66 11 5 C7.42513328 7.14492003 4.16552191 7.92692067 0 8 C-2.9375 5.5625 -2.9375 5.5625 -5 3 C-2.69 3 -0.38 3 2 3 C1.34 2.01 0.68 1.02 0 0 Z " fill="#111111" transform="translate(50,24)"/>
<path d="M0 0 C3.64566574 2.43044383 3.9977335 3.82388959 5 8 C4.68319255 11.69608692 3.81424259 12.18575741 1 15 C1 11.7 1 8.4 1 5 C0.01 7.31 -0.98 9.62 -2 12 C-2.66 12 -3.32 12 -4 12 C-3.67 10.68 -3.34 9.36 -3 8 C-4.32 8.33 -5.64 8.66 -7 9 C-2.25 3.125 -2.25 3.125 0 2 C0 1.34 0 0.68 0 0 Z " fill="#A6A8A9" transform="translate(161,91)"/>
<path d="M0 0 C0.66 0 1.32 0 2 0 C2.66 0.66 3.32 1.32 4 2 C4.66 2 5.32 2 6 2 C6.19658808 3.41543415 6.38187546 4.83244031 6.5625 6.25 C6.66691406 7.03890625 6.77132812 7.8278125 6.87890625 8.640625 C7.00325728 11.06346437 6.91090329 12.75011865 6 15 C5.01 15.33 4.02 15.66 3 16 C2.95101562 15.34773438 2.90203125 14.69546875 2.8515625 14.0234375 C2.42757771 9.06720147 1.84334427 4.66980549 0 0 Z " fill="#151515" transform="translate(113,69)"/>
<path d="M0 0 C2.875 -0.125 2.875 -0.125 6 0 C8 2 8 2 8.25 4.5 C8 7 8 7 6 9 C3.375 9.125 3.375 9.125 1 9 C0.67 8.34 0.34 7.68 0 7 C0.9375 4.875 0.9375 4.875 2 3 C1.34 3 0.68 3 0 3 C0 2.01 0 1.02 0 0 Z " fill="#E6E6E6" transform="translate(208,89)"/>
<path d="M0 0 C0.99 0.33 1.98 0.66 3 1 C1.66121733 5.01634802 -0.96603916 6.44635594 -4.3125 8.75 C-4.89451172 9.17410156 -5.47652344 9.59820312 -6.07617188 10.03515625 C-10.42069836 13.05615202 -10.42069836 13.05615202 -13.41796875 12.765625 C-13.94003906 12.51296875 -14.46210937 12.2603125 -15 12 C-13.75283203 11.07767578 -13.75283203 11.07767578 -12.48046875 10.13671875 C-11.38271657 9.32044149 -10.28506563 8.50402807 -9.1875 7.6875 C-8.64029297 7.28337891 -8.09308594 6.87925781 -7.52929688 6.46289062 C-4.83867796 4.45715653 -2.27895795 2.4708702 0 0 Z " fill="#060606" transform="translate(74,58)"/>
<path d="M0 0 C1.5 1.375 1.5 1.375 3 3 C3 3.66 3 4.32 3 5 C3.66 5 4.32 5 5 5 C4.67 6.32 4.34 7.64 4 9 C4 8.01 4 7.02 4 6 C0.88214887 6.64644661 0.88214887 6.64644661 0 9 C-3.4815554 9.09947301 -6.6322481 8.93548664 -10 8 C-10.33 7.34 -10.66 6.68 -11 6 C-10.37351562 5.81824219 -9.74703125 5.63648437 -9.1015625 5.44921875 C-7.87566406 5.07216797 -7.87566406 5.07216797 -6.625 4.6875 C-5.81289062 4.44386719 -5.00078125 4.20023437 -4.1640625 3.94921875 C-1.66815371 3.08631815 -1.66815371 3.08631815 0 0 Z " fill="#2D2D2D" transform="translate(119,103)"/>
<path d="M0 0 C0.33 0.66 0.66 1.32 1 2 C2.65 1.67 4.3 1.34 6 1 C6 1.66 6 2.32 6 3 C0.12116651 5.61281488 -5.70731728 5.18328202 -12 5 C-11.67 4.01 -11.34 3.02 -11 2 C-5.555 1.01 -5.555 1.01 0 0 Z " fill="#2B2B2B" transform="translate(49,62)"/>
<path d="M0 0 C0.99 0.99 1.98 1.98 3 3 C0.87229133 5.36412074 -0.62297095 6.85636989 -3.625 8 C-6.15796053 8.79612938 -6.15796053 8.79612938 -7.3125 11.125 C-7.539375 11.74375 -7.76625 12.3625 -8 13 C-10 10 -10 10 -9.875 7.9453125 C-8.71684799 5.37049242 -7.56511426 4.96517356 -5 3.875 C-1.84237802 2.66200212 -1.84237802 2.66200212 0 0 Z " fill="#A26459" transform="translate(201,87)"/>
<path d="M0 0 C0.66 0 1.32 0 2 0 C2.20852314 6.40629424 2.1583195 11.92972642 0 18 C-0.66 18 -1.32 18 -2 18 C-2.33 18.66 -2.66 19.32 -3 20 C-2.33644956 13.25390382 -1.28134207 6.65551466 0 0 Z " fill="#0C0C0C" transform="translate(107,63)"/>
<path d="M0 0 C0.04241723 2.33294775 0.04092937 4.66702567 0 7 C-1 8 -1 8 -4.0625 8.0625 C-5.031875 8.041875 -6.00125 8.02125 -7 8 C-7.36275695 3.52599758 -7.36275695 3.52599758 -5.75 1.1875 C-4 0 -4 0 0 0 Z " fill="#F0F0F0" transform="translate(94,121)"/>
<path d="M0 0 C6.52307692 -0.36923077 6.52307692 -0.36923077 8.9375 1.5 C9.288125 1.995 9.63875 2.49 10 3 C9.34 3 8.68 3 8 3 C7.67 4.32 7.34 5.64 7 7 C5.35 7.33 3.7 7.66 2 8 C1.67 7.01 1.34 6.02 1 5 C0.01 5 -0.98 5 -2 5 C-2 4.34 -2 3.68 -2 3 C-0.35 3 1.3 3 3 3 C3 2.34 3 1.68 3 1 C2.01 0.67 1.02 0.34 0 0 Z " fill="#C9AB47" transform="translate(59,104)"/>
<path d="M0 0 C0.625 1.8125 0.625 1.8125 1 4 C0.01 5.485 0.01 5.485 -1 7 C0.32 6.67 1.64 6.34 3 6 C3 6.99 3 7.98 3 9 C1.02253397 9.73080266 -0.98072489 10.39421747 -3 11 C-3.66 10.67 -4.32 10.34 -5 10 C-4.67558396 8.33157466 -4.34060811 6.66519519 -4 5 C-3.87625 4.2575 -3.7525 3.515 -3.625 2.75 C-3.41875 2.1725 -3.2125 1.595 -3 1 C-2.01 0.67 -1.02 0.34 0 0 Z " fill="#060606" transform="translate(84,41)"/>
<path d="M0 0 C2.64 0 5.28 0 8 0 C8.33 0.66 8.66 1.32 9 2 C11.30965848 3.05352843 13.6429774 4.05719096 16 5 C15.01 5.495 15.01 5.495 14 6 C14 6.66 14 7.32 14 8 C12.68 7.67 11.36 7.34 10 7 C10 6.34 10 5.68 10 5 C8.906875 4.9175 7.81375 4.835 6.6875 4.75 C3 4 3 4 1.0625 1.9375 C0.711875 1.298125 0.36125 0.65875 0 0 Z " fill="#706952" transform="translate(88,99)"/>
<path d="M0 0 C2.1640625 0.3671875 2.1640625 0.3671875 4 1 C-9.87285223 12 -9.87285223 12 -16 12 C-16 11.34 -16 10.68 -16 10 C-15.34773438 9.69707031 -14.69546875 9.39414062 -14.0234375 9.08203125 C-7.95134315 6.1774541 -7.95134315 6.1774541 -2.625 2.125 C-1.325625 1.073125 -1.325625 1.073125 0 0 Z " fill="#060606" transform="translate(71,52)"/>
<path d="M0 0 C0.99 0 1.98 0 3 0 C2.875 2.3125 2.875 2.3125 2 5 C-2.86206897 8 -2.86206897 8 -6 8 C-6 7.01 -6 6.02 -6 5 C-7.32 4.67 -8.64 4.34 -10 4 C-3.25 1.875 -3.25 1.875 -1 3 C-0.67 2.01 -0.34 1.02 0 0 Z " fill="#C2C2C2" transform="translate(120,109)"/>
<path d="M0 0 C4.57071175 0.34495938 7.58325171 0.85659158 11 4 C8.03 3.67 5.06 3.34 2 3 C4.64 3.99 7.28 4.98 10 6 C9.67 6.66 9.34 7.32 9 8 C5.06380262 7.43768609 2.20807554 6.38314183 -1 4 C-1 1 -1 1 0 0 Z " fill="#050505" transform="translate(75,32)"/>
<path d="M0 0 C3.625 0.75 3.625 0.75 7 2 C7.33 2.66 7.66 3.32 8 4 C5.36 3.67 2.72 3.34 0 3 C2.31 3.66 4.62 4.32 7 5 C6.67 5.99 6.34 6.98 6 8 C-0.64615385 6.52307692 -0.64615385 6.52307692 -2.4375 3.875 C-2.623125 3.25625 -2.80875 2.6375 -3 2 C-2.01 1.34 -1.02 0.68 0 0 Z " fill="#050505" transform="translate(67,35)"/>
<path d="M0 0 C0.33 0 0.66 0 1 0 C1.49230769 7.26153846 1.49230769 7.26153846 -1 11 C-1.66 11.66 -2.32 12.32 -3 13 C-3 12.01 -3 11.02 -3 10 C-5.31 10.33 -7.62 10.66 -10 11 C-8.35 9.35 -6.7 7.7 -5 6 C-5 6.66 -5 7.32 -5 8 C-2.27573689 5.64722731 -1.1858237 3.37503669 0 0 Z " fill="#05060C" transform="translate(127,115)"/>
<path d="M0 0 C1.98 0 3.96 0 6 0 C5.1875 1.9375 5.1875 1.9375 4 4 C3.01 4.33 2.02 4.66 1 5 C1 7.31 1 9.62 1 12 C0.01 12 -0.98 12 -2 12 C-1.34 8.04 -0.68 4.08 0 0 Z " fill="#AF7A6E" transform="translate(199,76)"/>
<path d="M0 0 C1.32 0 2.64 0 4 0 C4.33 0.66 4.66 1.32 5 2 C5.99 1.67 6.98 1.34 8 1 C8.5625 2.9375 8.5625 2.9375 9 5 C8 6 8 6 6.15234375 6.09765625 C4.1015625 6.06510417 2.05078125 6.03255208 0 6 C-1.125 2.25 -1.125 2.25 0 0 Z " fill="#060606" transform="translate(76,52)"/>
<path d="M0 0 C0.28875 0.639375 0.5775 1.27875 0.875 1.9375 C1.82823451 4.15206079 1.82823451 4.15206079 4 5 C4.484375 7.43359375 4.484375 7.43359375 4.75 10.4375 C4.84796875 11.42621094 4.9459375 12.41492188 5.046875 13.43359375 C5 16 5 16 3 18 C0.1085226 11.61465408 0 6.88132998 0 0 Z " fill="#272727" transform="translate(121,26)"/>
<path d="M0 0 C1.875 1.5 1.875 1.5 3 3 C1.25 3.6875 1.25 3.6875 -1 4 C-3.25 2.5625 -3.25 2.5625 -5 1 C-4.34 1.61875 -3.68 2.2375 -3 2.875 C-1 5 -1 5 -1 7 C-5.75 6.25 -5.75 6.25 -8 4 C-8 3.01 -8 2.02 -8 1 C-5.20129973 -0.39935013 -3.09501208 -0.25265405 0 0 Z " fill="#050505" transform="translate(73,27)"/>
<path d="M0 0 C0.66 0 1.32 0 2 0 C2.33 1.98 2.66 3.96 3 6 C2.01 6.33 1.02 6.66 0 7 C-1.43948118 8.62882397 -1.43948118 8.62882397 -2.6875 10.5625 C-3.12449219 11.20316406 -3.56148438 11.84382813 -4.01171875 12.50390625 C-4.33785156 12.99761719 -4.66398437 13.49132812 -5 14 C-5.66 12.68 -6.32 11.36 -7 10 C-6.38125 9.773125 -5.7625 9.54625 -5.125 9.3125 C-2.34929703 7.59809523 -1.96991828 6.05897305 -1 3 C-0.67 2.01 -0.34 1.02 0 0 Z " fill="#C4C4C4" transform="translate(113,76)"/>
<path d="M0 0 C4.875 1.875 4.875 1.875 6 3 C6.04092937 5.33297433 6.04241723 7.66705225 6 10 C5.67 10 5.34 10 5 10 C4.67 8.68 4.34 7.36 4 6 C3.67 7.98 3.34 9.96 3 12 C2.34 11.34 1.68 10.68 1 10 C1.33 9.34 1.66 8.68 2 8 C-0.475 7.01 -0.475 7.01 -3 6 C-3 5.01 -3 4.02 -3 3 C-1.35 3.99 0.3 4.98 2 6 C1.34 5.01 0.68 4.02 0 3 C0 2.01 0 1.02 0 0 Z " fill="#303030" transform="translate(84,24)"/>
<path d="M0 0 C0.33 1.32 0.66 2.64 1 4 C0.4534375 4.09410156 -0.093125 4.18820313 -0.65625 4.28515625 C-3.65491056 5.19974772 -5.88683925 6.71094736 -8.5 8.4375 C-11.60506366 10.48052953 -14.63270775 12.41959633 -18 14 C-18 13.01 -18 12.02 -18 11 C-14.61799972 7.93114789 -10.52442066 6.22502934 -6.4375 4.28125 C-4.08186236 3.04303022 -2.07818655 1.65485226 0 0 Z " fill="#3E3E3E" transform="translate(73,54)"/>
<path d="M0 0 C0.598125 0.226875 1.19625 0.45375 1.8125 0.6875 C1.173125 0.935 0.53375 1.1825 -0.125 1.4375 C-2.37491541 2.50312433 -2.37491541 2.50312433 -2.9375 4.8125 C-3.02 5.43125 -3.1025 6.05 -3.1875 6.6875 C-1.2075 6.6875 0.7725 6.6875 2.8125 6.6875 C3.1425 5.6975 3.4725 4.7075 3.8125 3.6875 C4.8025 4.3475 5.7925 5.0075 6.8125 5.6875 C4.14275858 8.25045176 2.91017206 8.68087817 -0.875 8.9375 C-4.1875 8.6875 -4.1875 8.6875 -5.1875 7.6875 C-5.48982139 4.81544676 -5.56142386 3.24838579 -3.9375 0.8125 C-2.1875 -0.3125 -2.1875 -0.3125 0 0 Z " fill="#474747" transform="translate(104.1875,129.3125)"/>
<path d="M0 0 C-0.25 1.875 -0.25 1.875 -1 4 C-2.9375 5.0625 -2.9375 5.0625 -5 6 C-5.66 6.99 -6.32 7.98 -7 9 C-7.33 6.36 -7.66 3.72 -8 1 C-5.29120665 -0.35439668 -2.99066732 -0.06501451 0 0 Z " fill="#EEEEEE" transform="translate(114,114)"/>
<path d="M0 0 C0.66 0 1.32 0 2 0 C2.33 2.31 2.66 4.62 3 7 C1.1875 8.5625 1.1875 8.5625 -1 10 C-1.99 9.67 -2.98 9.34 -4 9 C-3.35494404 5.51669784 -2.01782732 2.90567134 0 0 Z " fill="#C27464" transform="translate(208,74)"/>
<path d="M0 0 C1.32 0.33 2.64 0.66 4 1 C4.33 2.32 4.66 3.64 5 5 C-0.41538462 7.21538462 -0.41538462 7.21538462 -3.375 6.125 C-3.91125 5.75375 -4.4475 5.3825 -5 5 C-5 4.01 -5 3.02 -5 2 C-3.68 2 -2.36 2 -1 2 C-0.67 2.33 -0.34 2.66 0 3 C0 2.01 0 1.02 0 0 Z " fill="#070707" transform="translate(100,60)"/>
<path d="M0 0 C0.61875 0.680625 1.2375 1.36125 1.875 2.0625 C5.19366593 5.41964322 9.08281418 7.92422558 12.98828125 10.546875 C13.65214844 11.02640625 14.31601563 11.5059375 15 12 C15 12.33 15 12.66 15 13 C11.35934061 13.35417001 9.62248267 13.49460422 6.69921875 11.171875 C6.03535156 10.37265625 5.37148437 9.5734375 4.6875 8.75 C3.67236328 7.56664063 3.67236328 7.56664063 2.63671875 6.359375 C1.09542436 4.13755684 0.41775801 2.63974629 0 0 Z " fill="#BEC1C1" transform="translate(139,81)"/>
<path d="M0 0 C0.66 0.33 1.32 0.66 2 1 C-7.04472894 9.19187609 -7.04472894 9.19187609 -11 11 C-11.99 10.67 -12.98 10.34 -14 10 C-9.42284316 6.5148552 -4.82419514 3.13572684 0 0 Z " fill="#060606" transform="translate(71,57)"/>
<path d="M0 0 C0 0.66 0 1.32 0 2 C-4.1532942 4.0766471 -6.51204488 3.84149159 -11 3 C-13.76864953 3.36858988 -13.76864953 3.36858988 -16 4 C-10.53614981 -0.45202608 -6.99131407 -1.3708459 0 0 Z " fill="#AA9171" transform="translate(110,30)"/>
<path d="M0 0 C-4.38423952 3.44475962 -7.30835767 5.31620235 -13 5 C-12.375 3.125 -12.375 3.125 -11 1 C-6.96362635 -0.88364104 -4.27242501 -1.25659559 0 0 Z " fill="#0A0A0A" transform="translate(114,111)"/>
<path d="M0 0 C1.98 0 3.96 0 6 0 C6.66 1.65 7.32 3.3 8 5 C5.1875 5.625 5.1875 5.625 2 6 C1.01 5.34 0.02 4.68 -1 4 C-0.67 2.68 -0.34 1.36 0 0 Z " fill="#050505" transform="translate(85,58)"/>
<path d="M0 0 C0 0.66 0 1.32 0 2 C-5.673142 4.45417612 -10.81839396 6.46246904 -17 7 C-14.53175599 4.08980689 -12.06919902 3.06459804 -8.5 1.8125 C-7.06140625 1.29623047 -7.06140625 1.29623047 -5.59375 0.76953125 C-3 0 -3 0 0 0 Z " fill="#030303" transform="translate(68,49)"/>
<path d="M0 0 C-0.598125 0.268125 -1.19625 0.53625 -1.8125 0.8125 C-3.97224808 1.98493467 -5.35790256 3.19369282 -7 5 C-7 4.01 -7 3.02 -7 2 C-12.94 2 -18.88 2 -25 2 C-25 1.67 -25 1.34 -25 1 C-21.95923996 0.63571093 -18.91787324 0.28328105 -15.875 -0.0625 C-14.59109375 -0.2181543 -14.59109375 -0.2181543 -13.28125 -0.37695312 C-8.62245272 -0.89658821 -4.62395033 -1.08397524 0 0 Z " fill="#303030" transform="translate(74,43)"/>
<path d="M0 0 C1.29585916 0.42492126 2.5866044 0.86545882 3.875 1.3125 C4.59429687 1.55613281 5.31359375 1.79976562 6.0546875 2.05078125 C8 3 8 3 10 6 C10 6.99 10 7.98 10 9 C6.71245489 8.42110619 5.06327505 7.45171589 2.75 5.0625 C2.22921875 4.53785156 1.7084375 4.01320313 1.171875 3.47265625 C0 2 0 2 0 0 Z " fill="#DDDDDE" transform="translate(187,62)"/>
<path d="M0 0 C0.4125 0.639375 0.825 1.27875 1.25 1.9375 C3.17810487 4.20990931 4.11424181 4.60196439 7 5 C4.61426621 6.89213369 2.92824652 8.02391783 0 9 C-1.06775224 7.03533587 -2.06553465 5.03144641 -3 3 C-2 1 -2 1 0 0 Z " fill="#4B4B4B" transform="translate(73,14)"/>
<path d="M0 0 C2 3 2 3 2 5 C2.66 5 3.32 5 4 5 C4 6.32 4 7.64 4 9 C2.68 8.67 1.36 8.34 0 8 C-0.33 8.99 -0.66 9.98 -1 11 C-1.33 11.99 -1.66 12.98 -2 14 C-3.39802632 6.73026316 -3.39802632 6.73026316 -1 3 C-0.67 2.01 -0.34 1.02 0 0 Z " fill="#313131" transform="translate(110,38)"/>
<path d="M0 0 C1.65 1.32 3.3 2.64 5 4 C3.824375 4.433125 3.824375 4.433125 2.625 4.875 C-0.09671632 5.84912254 -0.09671632 5.84912254 -2 8 C-4.3125 8.046875 -4.3125 8.046875 -7 7.75 C-7.886875 7.66234375 -8.77375 7.5746875 -9.6875 7.484375 C-12 7 -12 7 -14 5 C-10.04 5 -6.08 5 -2 5 C-2.33 4.34 -2.66 3.68 -3 3 C-2.01 2.01 -1.02 1.02 0 0 Z " fill="#313131" transform="translate(65,31)"/>
<path d="M0 0 C0.66 0 1.32 0 2 0 C0.66666667 2.66666667 -0.66666667 5.33333333 -2 8 C-2.66 8 -3.32 8 -4 8 C-4.66 8.66 -5.32 9.32 -6 10 C-6 8.02 -6 6.04 -6 4 C-6.66 3.67 -7.32 3.34 -8 3 C-6.865625 2.690625 -5.73125 2.38125 -4.5625 2.0625 C-1.21224901 1.37075469 -1.21224901 1.37075469 0 0 Z " fill="#D7D7D7" transform="translate(100,117)"/>
<path d="M0 0 C0.99 0 1.98 0 3 0 C3 7.59 3 15.18 3 23 C2.01 23 1.02 23 0 23 C0 22.01 0 21.02 0 20 C0.66 20 1.32 20 2 20 C2 14.06 2 8.12 2 2 C1.34 2 0.68 2 0 2 C0 1.34 0 0.68 0 0 Z " fill="#1B1C1C" transform="translate(124,52)"/>
<path d="M0 0 C0.58265625 0.21527344 1.1653125 0.43054687 1.765625 0.65234375 C0.48500015 2.35984355 -0.85205057 4.02607971 -2.234375 5.65234375 C-2.894375 5.65234375 -3.554375 5.65234375 -4.234375 5.65234375 C-5.224375 6.31234375 -6.214375 6.97234375 -7.234375 7.65234375 C-7.234375 6.99234375 -7.234375 6.33234375 -7.234375 5.65234375 C-7.894375 5.32234375 -8.554375 4.99234375 -9.234375 4.65234375 C-8.16330383 3.78285058 -7.07691556 2.9322017 -5.984375 2.08984375 C-5.38109375 1.61417969 -4.7778125 1.13851562 -4.15625 0.6484375 C-2.234375 -0.34765625 -2.234375 -0.34765625 0 0 Z " fill="#1A1A1A" transform="translate(76.234375,62.34765625)"/>
<path d="M0 0 C0.625 1.8125 0.625 1.8125 1 4 C0.01 5.485 0.01 5.485 -1 7 C-1 6.34 -1 5.68 -1 5 C-2.98 5.99 -4.96 6.98 -7 8 C-7 8.99 -7 9.98 -7 11 C-7.99 10.67 -8.98 10.34 -10 10 C-10.33 9.01 -10.66 8.02 -11 7 C-10.18595703 6.61908203 -10.18595703 6.61908203 -9.35546875 6.23046875 C-8.64003906 5.88628906 -7.92460938 5.54210937 -7.1875 5.1875 C-6.47980469 4.85105469 -5.77210937 4.51460937 -5.04296875 4.16796875 C-2.98870965 2.99354529 -1.58383722 1.74371984 0 0 Z " fill="#5A5A5A" transform="translate(121,132)"/>
<path d="M0 0 C1.65 0 3.3 0 5 0 C0.25 5.875 0.25 5.875 -2 7 C-5 7.1875 -5 7.1875 -8 7 C-8.66 6.34 -9.32 5.68 -10 5 C-8.72125 4.9175 -7.4425 4.835 -6.125 4.75 C-3.94666582 4.54130069 -3.94666582 4.54130069 -2 4 C-0.4100567 2.07935207 -0.4100567 2.07935207 0 0 Z " fill="#585858" transform="translate(95,124)"/>
<path d="M0 0 C0.6875 1.6875 0.6875 1.6875 1 4 C-0.4375 6.75 -0.4375 6.75 -2 9 C-1.34 9.66 -0.68 10.32 0 11 C-1.98 11.99 -1.98 11.99 -4 13 C-4.6875 11.25 -4.6875 11.25 -5 9 C-3.5625 6.75 -3.5625 6.75 -2 5 C-2.66 4.67 -3.32 4.34 -4 4 C-2.68 3.34 -1.36 2.68 0 2 C0 1.34 0 0.68 0 0 Z " fill="#A36457" transform="translate(207,71)"/>
<path d="M0 0 C2.00720923 0.28674418 4.0085944 0.61866701 6 1 C5.67 1.66 5.34 2.32 5 3 C4.34 3 3.68 3 3 3 C2.67 4.32 2.34 5.64 2 7 C3.32 7.66 4.64 8.32 6 9 C3.625 9.125 3.625 9.125 1 9 C-1 7 -1 7 -1.1875 3.9375 C-1 1 -1 1 0 0 Z " fill="#D4D4D7" transform="translate(207,90)"/>
<path d="M0 0 C0 4.13216408 -1.72022452 5.52467584 -4.3125 8.6875 C-5.11300781 9.68136719 -5.91351563 10.67523438 -6.73828125 11.69921875 C-7.48464844 12.45847656 -8.23101562 13.21773437 -9 14 C-9.99 14 -10.98 14 -12 14 C-10.67048704 10.41031501 -8.49101949 8.64058401 -5.53125 6.3046875 C-3.3577138 4.45274594 -1.697011 2.28443789 0 0 Z " fill="#343434" transform="translate(73,80)"/>
<path d="M0 0 C3.16115776 1.36983503 3.9927092 1.9890638 6 5 C9.55672179 6.2188121 9.55672179 6.2188121 13 7 C13 7.33 13 7.66 13 8 C8.18061476 8.23509196 4.53701494 7.45184478 0 6 C0 4 0 2 0 0 Z " fill="#1D1D1D" transform="translate(89,47)"/>
<path d="M0 0 C1.3921875 0.3403125 1.3921875 0.3403125 2.8125 0.6875 C1.8125 3.6875 1.8125 3.6875 -0.25 4.875 C-0.889375 5.143125 -1.52875 5.41125 -2.1875 5.6875 C-3.5075 4.6975 -4.8275 3.7075 -6.1875 2.6875 C-4.14987265 -0.14253799 -3.59070275 -0.35202968 0 0 Z " fill="#C08679" transform="translate(205.1875,69.3125)"/>
<path d="M0 0 C0.66 0.33 1.32 0.66 2 1 C0.25447936 2.15264553 -1.49660196 3.29687327 -3.25 4.4375 C-4.22453125 5.07558594 -5.1990625 5.71367188 -6.203125 6.37109375 C-8.58381615 7.7576136 -10.31780307 8.546581 -13 9 C-9.28570342 4.82141635 -5.35814198 1.82153171 0 0 Z " fill="#060606" transform="translate(67,52)"/>
<path d="M0 0 C0.66 0.33 1.32 0.66 2 1 C2.99 1 3.98 1 5 1 C4.71872579 2.48117801 4.42466268 3.95993249 4.125 5.4375 C3.96257812 6.26121094 3.80015625 7.08492188 3.6328125 7.93359375 C3.42398438 8.61550781 3.21515625 9.29742187 3 10 C2.01 10.495 2.01 10.495 1 11 C1.33 9.02 1.66 7.04 2 5 C1.01 4.67 0.02 4.34 -1 4 C-0.67 2.68 -0.34 1.36 0 0 Z " fill="#3B3B3B" transform="translate(119,92)"/>
<path d="M0 0 C1 3 1 3 -0.4375 6.1875 C-1.2109375 7.5796875 -1.2109375 7.5796875 -2 9 C-0.68 8.67 0.64 8.34 2 8 C1.67 8.66 1.34 9.32 1 10 C-0.32 10 -1.64 10 -3 10 C-3.33 9.01 -3.66 8.02 -4 7 C-4.66 6.67 -5.32 6.34 -6 6 C-4.02 4.02 -2.04 2.04 0 0 Z " fill="#AFAFAF" transform="translate(102,80)"/>
<path d="M0 0 C0 0.99 0 1.98 0 3 C-4.75 4.125 -4.75 4.125 -7 3 C-7 3.66 -7 4.32 -7 5 C-7.66 5 -8.32 5 -9 5 C-9 3.68 -9 2.36 -9 1 C-4.545 0.505 -4.545 0.505 0 0 Z " fill="#070707" transform="translate(106,55)"/>
<path d="M0 0 C0.3125 2.25 0.3125 2.25 0 5 C-2.5 7.3125 -2.5 7.3125 -5 9 C-6 6 -6 6 -5.1875 3.375 C-3.78269094 0.56538188 -3.13077071 0 0 0 Z " fill="#181818" transform="translate(127,42)"/>
<path d="M0 0 C1.9375 0.625 1.9375 0.625 4 2 C4.75 5.125 4.75 5.125 5 8 C3.68 8 2.36 8 1 8 C1 6.68 1 5.36 1 4 C0.34 4 -0.32 4 -1 4 C-0.67 2.68 -0.34 1.36 0 0 Z " fill="#202020" transform="translate(117,24)"/>
<path d="M0 0 C0.66 0 1.32 0 2 0 C2 0.66 2 1.32 2 2 C4.31 2 6.62 2 9 2 C9.33 2.99 9.66 3.98 10 5 C3.9453125 5.1953125 3.9453125 5.1953125 2 5 C1.34 4.34 0.68 3.68 0 3 C0 2.01 0 1.02 0 0 Z " fill="#DAB42D" transform="translate(78,109)"/>
<path d="M0 0 C0.99 0.66 1.98 1.32 3 2 C-2 4 -7 6 -12 8 C-12.33 7.01 -12.66 6.02 -13 5 C-12.22914062 4.72285156 -11.45828125 4.44570313 -10.6640625 4.16015625 C-9.66117188 3.79792969 -8.65828125 3.43570313 -7.625 3.0625 C-6.62726562 2.70285156 -5.62953125 2.34320313 -4.6015625 1.97265625 C-2.06495835 1.07650708 -2.06495835 1.07650708 0 0 Z " fill="#424242" transform="translate(68,50)"/>
<path d="M0 0 C0.33 0 0.66 0 1 0 C1.06058594 0.60328125 1.12117188 1.2065625 1.18359375 1.828125 C1.26738281 2.62734375 1.35117188 3.4265625 1.4375 4.25 C1.55931641 5.43335938 1.55931641 5.43335938 1.68359375 6.640625 C1.97634993 8.82364639 2.42064419 10.8773182 3 13 C1.02 13.99 1.02 13.99 -1 15 C-1.33 13.35 -1.66 11.7 -2 10 C-1.34 10 -0.68 10 0 10 C0 6.7 0 3.4 0 0 Z " fill="#434343" transform="translate(88,35)"/>
<path d="M0 0 C2.74148672 0.37047118 4.58593199 0.68587944 6.8125 2.375 C8 4 8 4 8 7 C4.59679258 5.98823563 3.24274669 5.35156418 1.1875 2.375 C0.795625 1.59125 0.40375 0.8075 0 0 Z " fill="#1E1E1E" transform="translate(52,18)"/>
<path d="M0 0 C0.33 0.99 0.66 1.98 1 3 C0.01 3.495 0.01 3.495 -1 4 C-1 3.34 -1 2.68 -1 2 C-1.99 2.33 -2.98 2.66 -4 3 C-4 4.32 -4 5.64 -4 7 C-5.32 6.67 -6.64 6.34 -8 6 C-4.76923077 0 -4.76923077 0 0 0 Z " fill="#CECECE" transform="translate(120,137)"/>
<path d="M0 0 C2.97851562 0.53710938 2.97851562 0.53710938 5.95703125 1.07421875 C5.95703125 1.73421875 5.95703125 2.39421875 5.95703125 3.07421875 C2.32703125 3.07421875 -1.30296875 3.07421875 -5.04296875 3.07421875 C-2.04296875 0.07421875 -2.04296875 0.07421875 0 0 Z " fill="#E1BB18" transform="translate(92.04296875,102.92578125)"/>
<path d="M0 0 C-0.66 0 -1.32 0 -2 0 C-1.67 0.99 -1.34 1.98 -1 3 C-2 4 -2 4 -5.0625 4.0625 C-6.5165625 4.0315625 -6.5165625 4.0315625 -8 4 C-5.97675095 -0.48005146 -4.79569304 -1.43870791 0 0 Z " fill="#0C0C0C" transform="translate(57,69)"/>
<path d="M0 0 C0.33 0.99 0.66 1.98 1 3 C1.99 3.33 2.98 3.66 4 4 C3.67 5.32 3.34 6.64 3 8 C1.0625 7.6875 1.0625 7.6875 -1 7 C-2 4 -2 4 -1.0625 1.8125 C-0.5365625 0.9153125 -0.5365625 0.9153125 0 0 Z " fill="#131313" transform="translate(116,42)"/>
<path d="M0 0 C0.99 0 1.98 0 3 0 C3 0.66 3 1.32 3 2 C4.32 2.66 5.64 3.32 7 4 C6.01 4 5.02 4 4 4 C4 4.99 4 5.98 4 7 C3.34 7 2.68 7 2 7 C1.87625 6.195625 1.7525 5.39125 1.625 4.5625 C1.315625 3.2940625 1.315625 3.2940625 1 2 C0.34 1.67 -0.32 1.34 -1 1 C-0.67 0.67 -0.34 0.34 0 0 Z " fill="#0E0E0E" transform="translate(110,36)"/>
<path d="M0 0 C1.98 0.99 1.98 0.99 4 2 C4 3.32 4 4.64 4 6 C5.32 6.33 6.64 6.66 8 7 C7.01 7.66 6.02 8.32 5 9 C5 8.34 5 7.68 5 7 C3.68 6.67 2.36 6.34 1 6 C0.67 4.02 0.34 2.04 0 0 Z " fill="#2B2B2B" transform="translate(112,32)"/>
<path d="M0 0 C0.33 0 0.66 0 1 0 C1.66 3.3 2.32 6.6 3 10 C-2.875 6.25 -2.875 6.25 -4 4 C-2.68 4.33 -1.36 4.66 0 5 C0 3.35 0 1.7 0 0 Z " fill="#D0D0D1" transform="translate(153,72)"/>
<path d="M0 0 C2.50298434 2.93828597 3.46930939 5.17902761 4 9 C2.8274869 8.04882866 1.66212985 7.08882991 0.5 6.125 C-0.1496875 5.59132813 -0.799375 5.05765625 -1.46875 4.5078125 C-1.9740625 4.01023437 -2.479375 3.51265625 -3 3 C-3 2.34 -3 1.68 -3 1 C-2.01 0.67 -1.02 0.34 0 0 Z " fill="#CACACB" transform="translate(145,58)"/>
<path d="M0 0 C-1.32 1.32 -2.64 2.64 -4 4 C-4.33 3.34 -4.66 2.68 -5 2 C-8.3 2 -11.6 2 -15 2 C-15 1.67 -15 1.34 -15 1 C-9.9752761 0.37470103 -5.07471573 -0.13012092 0 0 Z " fill="#CBCBCB" transform="translate(57,56)"/>
<path d="M0 0 C2.625 0.9375 2.625 0.9375 5 2 C5 2.99 5 3.98 5 5 C3.35 5 1.7 5 0 5 C-0.66 3.68 -1.32 2.36 -2 1 C-1.34 0.67 -0.68 0.34 0 0 Z " fill="#0D0D0D" transform="translate(78,20)"/>
<path d="M0 0 C0.598125 0.165 1.19625 0.33 1.8125 0.5 C4.11344336 1.1114124 4.11344336 1.1114124 7 1 C6.67 2.32 6.34 3.64 6 5 C4.35 4.67 2.7 4.34 1 4 C0.67 2.68 0.34 1.36 0 0 Z " fill="#E5E5E5" transform="translate(107,130)"/>
<path d="M0 0 C0.66 0.99 1.32 1.98 2 3 C1.125 5.6875 1.125 5.6875 0 8 C-0.66 8 -1.32 8 -2 8 C-1.67 6.68 -1.34 5.36 -1 4 C-2.32 4.33 -3.64 4.66 -5 5 C-3.35 3.35 -1.7 1.7 0 0 Z " fill="#B6B8B9" transform="translate(159,95)"/>
<path d="M0 0 C1.8125 0.25 1.8125 0.25 4 1 C5.99788438 1.34578768 7.99759451 1.68143549 10 2 C10 2.33 10 2.66 10 3 C5.71 3 1.42 3 -3 3 C-2.01 2.01 -1.02 1.02 0 0 Z " fill="#313131" transform="translate(46,71)"/>
<path d="M0 0 C0.99 0 1.98 0 3 0 C3 1.65 3 3.3 3 5 C0.03 4.505 0.03 4.505 -3 4 C-1.6875 2 -1.6875 2 0 0 Z " fill="#EAEAEA" transform="translate(205,65)"/>
<path d="M0 0 C1.32 0 2.64 0 4 0 C4 2.31 4 4.62 4 7 C3.34 7 2.68 7 2 7 C0.5393715 4.35261084 0 3.10551666 0 0 Z " fill="#8A8CA6" transform="translate(125,37)"/>
<path d="M0 0 C3.3 0.33 6.6 0.66 10 1 C10 1.33 10 1.66 10 2 C8.02 2 6.04 2 4 2 C4 2.66 4 3.32 4 4 C1.525 3.01 1.525 3.01 -1 2 C-0.67 1.34 -0.34 0.68 0 0 Z " fill="#4A4A4A" transform="translate(41,33)"/>
<path d="M0 0 C0.99 0.66 1.98 1.32 3 2 C3.6875 5.625 3.6875 5.625 4 9 C3.34 8.67 2.68 8.34 2 8 C2 7.01 2 6.02 2 5 C0.35 4.67 -1.3 4.34 -3 4 C-2.34 3.67 -1.68 3.34 -1 3 C-0.67 2.01 -0.34 1.02 0 0 Z " fill="#4C4C4C" transform="translate(65,11)"/>
<path d="M0 0 C1.98 0.495 1.98 0.495 4 1 C4 1.99 4 2.98 4 4 C2.68 4.33 1.36 4.66 0 5 C-0.33 4.01 -0.66 3.02 -1 2 C-0.67 1.34 -0.34 0.68 0 0 Z " fill="#EEEEEE" transform="translate(185,77)"/>
<path d="M0 0 C1.65 0.33 3.3 0.66 5 1 C5 1.66 5 2.32 5 3 C2.69 3.33 0.38 3.66 -2 4 C-1.34 2.68 -0.68 1.36 0 0 Z " fill="#050505" transform="translate(70,44)"/>
<path d="M0 0 C0.28875 0.639375 0.5775 1.27875 0.875 1.9375 C1.82823451 4.15206079 1.82823451 4.15206079 4 5 C4 6.98 4 8.96 4 11 C3.67 10.01 3.34 9.02 3 8 C0.98491642 7.26676204 0.98491642 7.26676204 -1 7 C-0.67 4.69 -0.34 2.38 0 0 Z " fill="#525252" transform="translate(121,26)"/>
<path d="M0 0 C-0.66 1.98 -1.32 3.96 -2 6 C-4 6 -6 6 -8 6 C-7.0479279 4.99403703 -6.08812654 3.99538437 -5.125 3 C-4.59132813 2.443125 -4.05765625 1.88625 -3.5078125 1.3125 C-2 0 -2 0 0 0 Z " fill="#C7C7C7" transform="translate(89,80)"/>
<path d="M0 0 C0.99 0.33 1.98 0.66 3 1 C3.33 1.99 3.66 2.98 4 4 C2.02 4.33 0.04 4.66 -2 5 C-2 3.68 -2 2.36 -2 1 C-1.34 0.67 -0.68 0.34 0 0 Z " fill="#232323" transform="translate(57,68)"/>
<path d="M0 0 C2.31 0.33 4.62 0.66 7 1 C3.93882432 3.62386487 3.26826873 4 -1 4 C-0.67 2.68 -0.34 1.36 0 0 Z " fill="#CBA709" transform="translate(67,107)"/>
<path d="M0 0 C0.99 0.33 1.98 0.66 3 1 C3 2.65 3 4.3 3 6 C1.68 5.34 0.36 4.68 -1 4 C-0.67 2.68 -0.34 1.36 0 0 Z " fill="#080808" transform="translate(93,55)"/>
<path d="M0 0 C0 0.99 0 1.98 0 3 C-1.98 3.66 -3.96 4.32 -6 5 C-5.6875 3.0625 -5.6875 3.0625 -5 1 C-2 0 -2 0 0 0 Z " fill="#0D0D0D" transform="translate(87,47)"/>
<path d="M0 0 C1.32 0.66 2.64 1.32 4 2 C4 3.32 4 4.64 4 6 C2.35 6 0.7 6 -1 6 C-0.67 4.02 -0.34 2.04 0 0 Z " fill="#303030" transform="translate(69,20)"/>
<path d="M0 0 C0.99 0 1.98 0 3 0 C2.67 1.65 2.34 3.3 2 5 C0.68 4.67 -0.64 4.34 -2 4 C-1.34 2.68 -0.68 1.36 0 0 Z " fill="#D1D1D1" transform="translate(120,109)"/>
<path d="M0 0 C6.52307692 -0.36923077 6.52307692 -0.36923077 8.9375 1.5 C9.288125 1.995 9.63875 2.49 10 3 C8.02 3 6.04 3 4 3 C4 2.34 4 1.68 4 1 C2.68 0.67 1.36 0.34 0 0 Z " fill="#D8B73D" transform="translate(59,104)"/>
<path d="M0 0 C1.485 0.99 1.485 0.99 3 2 C2.6875 3.9375 2.6875 3.9375 2 6 C1.01 6.33 0.02 6.66 -1 7 C-0.67 4.69 -0.34 2.38 0 0 Z " fill="#151515" transform="translate(117,78)"/>
<path d="M0 0 C0.66 0 1.32 0 2 0 C1.38722388 2.96175123 0.74627478 4.38058783 -1 7 C-1.99 6.67 -2.98 6.34 -4 6 C-2.7260411 3.96166576 -1.38938077 1.96147874 0 0 Z " fill="#D47F6D" transform="translate(208,74)"/>
<path d="M0 0 C0.33 0 0.66 0 1 0 C1 1.98 1 3.96 1 6 C0.34 6 -0.32 6 -1 6 C-1.33 6.66 -1.66 7.32 -2 8 C-2.125 5.125 -2.125 5.125 -2 2 C-1.34 1.34 -0.68 0.68 0 0 Z " fill="#040404" transform="translate(106,75)"/>
<path d="M0 0 C0.33 0.66 0.66 1.32 1 2 C2.65 2 4.3 2 6 2 C6.33 2.99 6.66 3.98 7 5 C5.68 5.33 4.36 5.66 3 6 C3 5.34 3 4.68 3 4 C2.01 3.67 1.02 3.34 0 3 C0 2.01 0 1.02 0 0 Z " fill="#2B2B2B" transform="translate(118,63)"/>
<path d="M0 0 C2.64 0 5.28 0 8 0 C8.33 0.66 8.66 1.32 9 2 C6.1875 3.125 6.1875 3.125 3 4 C2.01 3.34 1.02 2.68 0 2 C0 1.34 0 0.68 0 0 Z " fill="#282828" transform="translate(85,63)"/>
<path d="M0 0 C0.66 0 1.32 0 2 0 C2 2.97 2 5.94 2 9 C0.35 8.67 -1.3 8.34 -3 8 C-2.34 7.67 -1.68 7.34 -1 7 C-0.59270772 4.67843403 -0.25561323 2.3431213 0 0 Z " fill="#9D9D9D" transform="translate(58,11)"/>
<path d="M0 0 C0.99 0.33 1.98 0.66 3 1 C2.34 2.98 1.68 4.96 1 7 C-1 4 -1 4 -0.625 1.8125 C-0.41875 1.214375 -0.2125 0.61625 0 0 Z " fill="#8E6765" transform="translate(192,93)"/>
<path d="M0 0 C0.99 0 1.98 0 3 0 C1.25 4.875 1.25 4.875 -1 6 C-1.625 4.125 -1.625 4.125 -2 2 C-1.34 1.34 -0.68 0.68 0 0 Z " fill="#D5D5D5" transform="translate(108,84)"/>
<path d="M0 0 C0.33 1.32 0.66 2.64 1 4 C0.01 4.495 0.01 4.495 -1 5 C-1.66 5.99 -2.32 6.98 -3 8 C-3 5.69 -3 3.38 -3 1 C-2.01 0.67 -1.02 0.34 0 0 Z " fill="#232323" transform="translate(119,74)"/>
<path d="M0 0 C1.39195915 4.17587745 -0.17676781 6.13474776 -2 10 C-2.66 9.01 -3.32 8.02 -4 7 C-2.68 4.69 -1.36 2.38 0 0 Z " fill="#484848" transform="translate(92,72)"/>
<path d="M0 0 C0.66 0.33 1.32 0.66 2 1 C-1.465 3.97 -1.465 3.97 -5 7 C-5.33 6.34 -5.66 5.68 -6 5 C-4.60210322 2.20420645 -2.7371003 1.40192942 0 0 Z " fill="#DAD6D5" transform="translate(200,69)"/>
<path d="M0 0 C-6.625 3.125 -6.625 3.125 -10 2 C-6.86358686 -1.13641314 -4.14410883 -1.38136961 0 0 Z " fill="#0A0A0A" transform="translate(66,48)"/>
<path d="M0 0 C3.465 1.485 3.465 1.485 7 3 C7 3.33 7 3.66 7 4 C3.7 3.67 0.4 3.34 -3 3 C-2.01 2.67 -1.02 2.34 0 2 C0 1.34 0 0.68 0 0 Z " fill="#CCCCCC" transform="translate(49,31)"/>
<path d="M0 0 C2.97 0 5.94 0 9 0 C9.33 0.66 9.66 1.32 10 2 C7.23735711 2.59732819 4.83967231 3 2 3 C1.34 2.01 0.68 1.02 0 0 Z " fill="#606060" transform="translate(45,27)"/>
<path d="M0 0 C1.32 0.66 2.64 1.32 4 2 C2.8125 3.5625 2.8125 3.5625 1 5 C-1.6875 4.6875 -1.6875 4.6875 -4 4 C-2.68 3.67 -1.36 3.34 0 3 C0 2.01 0 1.02 0 0 Z " fill="#111111" transform="translate(73,23)"/>
<path d="M0 0 C1.9375 0.75 1.9375 0.75 4 2 C4.75 4.125 4.75 4.125 5 6 C4.67 5.34 4.34 4.68 4 4 C3.01 4.33 2.02 4.66 1 5 C0.67 3.35 0.34 1.7 0 0 Z " fill="#0E0E0E" transform="translate(59,13)"/>
<path d="M0 0 C-0.33 2.64 -0.66 5.28 -1 8 C-1.66 6.68 -2.32 5.36 -3 4 C-3.66 4 -4.32 4 -5 4 C-4.67 3.01 -4.34 2.02 -4 1 C-2 0 -2 0 0 0 Z " fill="#484848" transform="translate(71,7)"/>
</svg>
