<svg xmlns="http://www.w3.org/2000/svg" width="256" height="154"><path fill="#0E1D8C" d="M0 0h256v154H0V0Z"/><path fill="#FCFCFC" d="M0 0h128v37h-3v-6l-3-1v-4l-4-1v-2c-2.397.115-4.792.241-7.188.375-.673.03-1.347.062-2.04.094-3.951.231-7.246.685-10.772 2.531l-1 2 2.375-.625L102 27l2 2-5 3c4.63 1.016 8.345.838 13 0v4l-2 2v5l-2 2c-.04 2.333-.042 4.667 0 7-1.8 1.8-4.245 1.463-6.688 1.625-3.426-.061-5.565-.13-8.44-2.035-4.681-5.854-3.965-11.5-3.551-18.545.095-3.598.074-5.557-2.231-8.404C84.777 23.16 82.526 22.062 80 21l-2-2-2.063-1C74 17 74 17 73 15h-3c-.125-5.75-.125-5.75 1-8-3.83 1.453-5.12 3.429-7 7l-5-1 1 7-7-1 1 4-6-1 5 6h-7l1.68 1.023 2.195 1.352c.72.44 1.439.882 2.18 1.336C54 33 54 33 56 35l-15-1c2.408 2.408 4.422 3.008 7.625 4.125l3.04 1.07L54 40v1H35c1.72 3.44 5.507 3.89 8.988 5.113C48.028 47.303 51.805 47.725 56 48c-3.517 4.127-7.827 4.369-13 5-3.342.14-6.658.128-10 0v2c5.365.905 10.503 1.123 15.938 1.063l2.36-.014C53.2 56.037 55.1 56.019 57 56c-5.315 5.735-11.373 7.856-19 9l-1 2c6.69-.524 13.349-1.105 20-2-3.544 4.314-7.952 5.972-13 8 7.811.604 13.175.096 19.941-4.004C66 68 66 68 69 69l-1.828 1.758-2.422 2.367-2.39 2.32C59.846 78.165 57.972 80.877 56 84c2.776-1.428 5.545-2.87 8.313-4.313l2.38-1.224 2.295-1.201 2.11-1.095c1.969-1.104 1.969-1.104 3.528-2.808C76 72 76 72 78 72c-1.428 4.207-3.488 7.15-6.313 10.563l-2.3 2.816C67.089 87.902 64.675 89.896 62 92l-1 2c10.119-3.065 18.673-6.229 26-14h2c-1.268 4.545-2.987 7.404-6 11l-1 3c4.017-1.412 7.09-3.337 10.5-5.875l2.781-2.055A341.152 341.152 0 0 0 103 80c-.56 3.363-1.418 5.991-3 9l1.68-1.094 2.195-1.406 2.18-1.406C108 84 108 84 110 84c1.075-2.652 2.095-5.284 3-8h2l1 6-3 1-2.063 3.063C107.58 91.028 102.924 94.644 98 98h-2c.675 3.165.675 3.165 3.313 4.25 5.62 1.569 10.945-1.762 15.874-4.438C117 97 117 97 121 97c-.265 3.799-.804 5.74-3.125 8.813-3.374 2.566-5.693 2.941-9.875 3.187l-1 3h-4v2l-2.16.664C94.509 116.76 89.534 119.01 85 124l-1 2-5-1c2.455 3.683 3.785 3.946 8 5 3.043.583 3.043.583 6 0 2.876-2.375 2.876-2.375 5-5h-2l-1.25 2c-1.75 2-1.75 2-4.938 2.25L87 129c-.313-2.25-.313-2.25 0-5 3.526-3.74 7.095-4.795 12-6 3.487-1.017 6.46-2.206 9.563-4.063 3.019-1.701 5.026-2.645 8.437-2.937l2 1 1-3h3c-.094 2.309-.094 2.309-1 5-2.906 1.66-2.906 1.66-6.5 3.063-3.534 1.31-3.534 1.31-6.5 2.937-1.002 2.07-1.002 2.07-1 4h2l.125-1.813C111 120 111 120 113.75 118.25c3.08-1.184 5.005-1.536 8.25-1.25 0 2 0 2-1.328 3.586-4.986 4.641-9.587 6.759-16.133 8.59-2.673.655-2.673.655-4.539 2.824-.167 2.584-.167 2.584 0 5 3.417.167 3.417.167 7 0l2-2-2-5 1.813.563c2.351.658 2.351.658 5.187-.563l1.875-2.063C118 126 118 126 120.75 125.75l2.25.25c-.266 3.815-.743 5.684-3.188 8.688-2.815 2.314-5.487 3.843-8.812 5.312l2 2 .625-1.875c1.938-2.995 4.007-3.182 7.375-4.125a86.75 86.75 0 0 0 4-2l-.5 2.375c-.68 3.444-.68 3.444.5 6.625l-.125 2.438c.152 3.114.912 3.534 3.125 5.562v3H0V0Z"/><path fill="#101010" d="M71 7v8l3-1 .75 1.938c1.03 2.235 1.03 2.235 3.125 2.562L80 19a179.948 179.948 0 0 1 4 4l3.129 1.621C90 27 90 27 90.41 30.828a161.63 161.63 0 0 1-.347 4.422c-.435 8.256-.435 8.256 3.027 15.566 4.16 2.578 9.234 1.721 13.91 1.184l-.125-3.25c.119-3.568.447-4.788 2.125-7.75.377-1.657.72-3.323 1-5h2v-4l-2.082.473-2.73.59-2.708.597C102 34 102 34 99 33c-2.638.394-2.638.394-5 1 2.853-2.325 5.54-3.75 9-5-2.076-.553-3.844-1-6-1 1-3 1-3 3.074-4.18 3.618-1.014 7.018-1.038 10.739-.945l2.1.027c1.695.024 3.391.06 5.087.098v2l4 1 .375 1.938L123 30l2 1c.379 1.996.379 1.996.563 4.438.243 3.408.243 3.408 1.437 6.562.156 2.16.25 4.326.314 6.491l.063 2.026c.066 2.23.125 4.46.182 6.69l.063 2.342c.482 17.898.497 35.791.447 53.694-.01 4.172-.015 8.345-.02 12.517-.01 8.08-.028 16.16-.049 24.24l-4-2v-6l-2-1 3-7c-3.167 1.833-3.167 1.833-5 5v-2l-6 3v3l-3-1-1-3 1.61-.7c4.563-2.106 7.648-3.913 10.39-8.3.778-2.182.778-2.182 1-4-5.408 1.098-5.408 1.098-9 5-2.125.688-2.125.688-4 1v-2h-3c.267 1.985.267 1.985 1 4l3 1c-2.67 2.563-3.902 2.993-7.688 3.25C100 138 100 138 99 137c-.375-2.313-.375-2.313 0-5 2.918-3.307 5.865-4.333 10-5.438 4.579-1.231 6.852-2.937 10-6.562l3-1v-2c-1.63.397-3.254.818-4.875 1.25l-2.742.703c-2.533.846-2.533.846-3.703 3.156L110 124h-2c0-2.25 0-2.25 1-5 3.105-2.16 6.477-3.687 10.184-4.45L121 114c1.297-2.49 1.297-2.49 2-5-3.118.646-3.118.646-4 3-1.926.563-1.926.563-4.313 1-4.373.81-7.498 1.811-10.687 5-1.663.353-3.33.68-5 1-1.57.456-3.132.937-4.688 1.438l-2.324.746c-2.17.742-2.17.742-3.988 2.816-.648 2.57-.648 2.57-1 5 5.408-1.098 5.408-1.098 9-5l4 1c-5.812 5.777-5.812 5.777-10 6.563-3.712-.697-6.672-1.77-10-3.563-1.438-2.188-1.438-2.188-2-4l6 2 .625-1.688C88.208 118.287 93.582 116 100 114h3v-2l1.938-.375L107 111l1-2c1.96-.676 1.96-.676 4.375-1.313 3.283-1.031 4.387-1.397 6.625-4.124.856-2.194 1.457-4.28 2-6.563-4.255 1.52-8.225 3.076-12.188 5.25-2.565 1.313-3.56 1.762-6.5 1.625L100 103l-2.813-1.063L95 101c1.149-3.446 2.292-3.97 5.25-5.84 4.354-2.886 8.238-6.066 11-10.535L113 82h3l-1-6h-2l-.188 2.188c-1.345 4.656-4.583 6.983-8.5 9.624C102 89 102 89 100 89l.5-1.813c.611-2.3.611-2.3.5-5.187l-1.504 1.355C87.536 94 87.536 94 82 94c.659-3.57 2.162-6.177 4.063-9.25l1.66-2.703L89 80l-1.398 1.355C79.682 88.696 71.682 92.477 61 94c1.328-3.586 3.485-5.265 6.427-7.6 2.662-2.37 4.505-5.248 6.448-8.213l1.219-1.81A576.809 576.809 0 0 0 78 72l-1.836 1.355C61.412 84 61.412 84 56 84c1.416-3.15 3.137-5.495 5.438-8.063l1.808-2.035A136.726 136.726 0 0 1 68 69c-2.772 1.092-5.374 2.203-8 3.625-5.322 2.359-11.312 1.606-17 1.375 2.915-3.19 6.013-4.363 10-6l3-2-2.75.5c-5.388.789-10.82.58-16.25.5l1-3c1.617-.505 3.24-.996 4.887-1.398C47.452 61.302 51.762 59.119 56 57l-3.254.07c-1.436.02-2.872.037-4.309.055-.704.017-1.408.034-2.134.05C41.48 57.22 37.577 56.529 33 55v-2l3.578-.367 4.672-.508 2.355-.238C49.057 51.293 49.057 51.293 54 49l-1.871-.297C45.934 47.61 40.627 45.8 35 43v-2l16-1-10-4v-3l13 1-3.938-2.375C46.126 29.25 46.126 29.25 45 27h7l-2-1.375L48 24v-2l6 1-2-5 7 1v-6l5 1 .813-2.375C66.195 8.569 67.466 7 71 7Z"/><path fill="#BDC0C2" d="M138 6c4.86 1.284 7.48 3.004 10.938 6.625l2.628 2.742A334.097 334.097 0 0 1 161 26c1.956 2.293 3.915 4.584 5.875 6.875l1.575 1.844a456.266 456.266 0 0 0 9.238 10.468c3.899 4.295 7.576 8.743 11.226 13.25 2.637 3.24 5.35 6.406 8.086 9.563 3.081-.594 3.081-.594 5.438-2.563C204 64 204 64 206.688 63.813L209 64c1.158 4.054.837 6.218-1 10h2c1.332 3.997 1.134 7.833 1 12l-1 2 1.875.375C214 89 214 89 216 91c.365 2.846.402 4.386-1.188 6.813-2.484 1.628-3.9 1.697-6.812 1.187-2.274-2.359-3.627-5.042-5-8l-1.188 1.375C200 94 200 94 197.438 94.938L195 96l-.684 1.82c-2.04 3.378-5.355 4.51-8.816 6.118l-4.36 2.093-2.146 1.016c-3.363 1.607-6.666 3.334-9.978 5.043-3.558 1.606-6.752 2.065-10.641 2.097l-2.352.043C154 114 154 114 152 112v-3l-1.738-.664c-2.981-1.76-4.442-3.902-6.45-6.711l-2.105-2.898C140 96 140 96 139.449 93.71L139 92l-3-1-.938-2.438c-.784-2.706-.784-2.706-3.062-3.5-2-1.062-2-1.062-3.113-3.64-.987-3.81-1.14-7.326-1.082-11.227l.008-2.194c.011-2.292.036-4.584.062-6.876.01-1.562.02-3.125.027-4.688.022-3.812.057-7.625.098-11.437 5.912-.152 7.81.807 12.043 4.805 4.24 4.756 7.235 10.258 9.644 16.133 1.036 2.998 1.036 2.998 2.81 4.43 1.981 2.151 2.26 3.976 2.878 6.82 1.34 5.372 3.487 9.308 6.625 13.812l1 2c10.407-1.506 18.826-3.631 28-9v-3l-1.25 1.563L188 84c-2.188-.313-2.188-.313-4-1-.625-2.375-.625-2.375-1-5 2-2 2-2 5.125-2.125L191 76l1-2-1.215-1.363a355.853 355.853 0 0 1-9.91-11.7c-5.264-6.47-10.747-12.745-16.224-19.036-3.594-4.139-7.16-8.302-10.714-12.475a431.801 431.801 0 0 0-6.062-6.946l-1.527-1.74a242.287 242.287 0 0 0-2.872-3.215C140.23 13.794 139.052 10.722 138 6Z"/><path fill="#F0F0F0" d="M128 45c5.368-.35 5.368-.35 8.125 1.18 6.227 5.63 10.38 11.999 13.563 19.758 1.034 2.997 1.034 2.997 2.804 4.421 2.003 2.18 2.306 4.08 2.946 6.954C156.587 81.959 158.32 85.026 161 89c.5 3.188.5 3.188 0 6-2 1.875-2 1.875-4 3l2 1-2 4c3.247-1.624 3.702-4.754 5-8 1.35 4.05.62 6.792 0 11-2.691.738-2.691.738-6 1-8.659-5.206-14.942-14.544-19.25-23.5-1.476-3.676-1.476-3.676-4.75-5.5-.66-2.172-.66-2.172-1.063-4.75-.458-2.846-.963-5.32-1.988-8.023-1.213-4.123-1.168-7.835-1.074-12.102l.027-2.375c.024-1.917.06-3.833.098-5.75Z"/><path fill="#0E0E0E" d="M80 60h3v5l2-1 1.813 1c2.167 1.262 2.167 1.262 4.562.438C94 65 94 65 96.938 66.561c3.038 1.816 3.038 1.816 6.437.626L106 66v4l1-7h2c.027 1.73.047 3.458.063 5.188l.035 2.917c-.093 2.75-.477 5.22-1.098 7.895.313-1.938.313-1.938 1-4l3-1c.422 4.308.563 6.293-2.188 9.75C103.25 89 103.25 89 100 89l.5-1.813c.611-2.3.611-2.3.5-5.187l-1.504 1.355C87.536 94 87.536 94 82 94c.659-3.57 2.162-6.177 4.063-9.25l1.66-2.703L89 80l-1.398 1.355C79.682 88.696 71.682 92.477 61 94c1.328-3.586 3.485-5.265 6.427-7.6 2.662-2.37 4.505-5.248 6.448-8.213l1.219-1.81A576.809 576.809 0 0 0 78 72l-1.836 1.355C61.412 84 61.412 84 56 84c1.29-3.87 2.44-4.106 6-6l1.863-.797C71.686 73.74 76.68 67.812 80 60Z"/><path fill="#171717" d="M71 7v8l3-1 .75 1.938c1.03 2.235 1.03 2.235 3.125 2.562L80 19a179.948 179.948 0 0 1 4 4l3.25 1.813L90 27c.375 3.75.375 3.75 0 7h-1l-1-4-1 6-1.574-.691C81.256 33.589 78.467 32.464 74 34c2.22 3.329 3.347 3.75 7 5v1c-1.75.054-3.5.093-5.25.125l-2.953.07C69.98 40 68.39 39.445 66 38c2-1 2-1 6-1-2.293-.86-2.293-.86-5-1l-1.625 2C63 40 63 40 60.621 40.117c-2.905-.25-5.745-.636-8.621-1.117l-2.613-.422C45.232 37.79 42.857 37.268 40 34l1-1c2.19.09 4.378.247 6.563.438l3.628.308L54 34l-1.715-1.023-2.222-1.352-2.215-1.336C46 29 46 29 45 27h7l-2-1.375L48 24v-2l6 1-2-5 7 1v-6l5 1 .813-2.375C66.195 8.569 67.466 7 71 7Z"/><path fill="#27272B" d="M127 77h1v73l-4-2v-6l-2-1 3-7c-3.167 1.833-3.167 1.833-5 5v-2l-6 3v3l-3-1-1-3 1.61-.7c4.563-2.106 7.648-3.913 10.39-8.3.778-2.182.778-2.182 1-4-5.408 1.098-5.408 1.098-9 5-2.125.688-2.125.688-4 1v-2h-3c.267 1.985.267 1.985 1 4l3 1c-2.67 2.563-3.902 2.993-7.688 3.25C100 138 100 138 99 137c-.375-2.313-.375-2.313 0-5 2.918-3.307 5.865-4.333 10-5.438 4.579-1.231 6.852-2.937 10-6.562l3-1v-2c-1.63.397-3.254.818-4.875 1.25l-2.742.703c-2.533.846-2.533.846-3.703 3.156L110 124h-2c0-2.25 0-2.25 1-5 3.105-2.16 6.477-3.687 10.184-4.45L121 114c1.297-2.49 1.297-2.49 2-5-3.118.646-3.118.646-4 3-1.926.563-1.926.563-4.313 1-4.373.81-7.498 1.811-10.687 5-1.663.353-3.33.68-5 1-1.57.456-3.132.937-4.688 1.438l-2.324.746c-2.17.742-2.17.742-3.988 2.816-.648 2.57-.648 2.57-1 5 5.408-1.098 5.408-1.098 9-5l4 1c-5.812 5.777-5.812 5.777-10 6.563-3.712-.697-6.672-1.77-10-3.563-1.438-2.188-1.438-2.188-2-4l6 2 .625-1.688C88.208 118.287 93.582 116 100 114h3v-2l1.938-.375L107 111l1-2c2.226-.847 4.484-1.468 6.773-2.121 2.377-.938 3.572-1.963 5.227-3.879l2 2c2.243-5.203 3.556-8.343 2-14l-3-1 5-1 1-3h-3c.557-3.344 1.352-6.033 3-9Z"/><path fill="#E5E5E7" d="M138 6c4.86 1.284 7.48 3.004 10.938 6.625l2.628 2.742A334.097 334.097 0 0 1 161 26c1.956 2.293 3.915 4.584 5.875 6.875l1.575 1.844a456.266 456.266 0 0 0 9.238 10.468c3.899 4.295 7.576 8.743 11.226 13.25 2.637 3.24 5.35 6.406 8.086 9.563 3.081-.594 3.081-.594 5.438-2.563C204 64 204 64 206.688 63.813L209 64a88.406 88.406 0 0 1 1 5l-1 1-3.125-.313c-7.583.612-11.9 7.27-16.59 12.774L188 84l-4-1c-.625-2.375-.625-2.375-1-5 2-2 2-2 5.125-2.125L191 76l1-2-1.215-1.363a355.853 355.853 0 0 1-9.91-11.7c-5.264-6.47-10.747-12.745-16.224-19.036-3.594-4.139-7.16-8.302-10.714-12.475a431.801 431.801 0 0 0-6.062-6.946l-1.527-1.74a242.287 242.287 0 0 0-2.872-3.215C140.23 13.794 139.052 10.722 138 6Z"/><path fill="#DF8D7A" d="M205.438 69.125 208 70v4h2c1.332 3.997 1.134 7.833 1 12l-1 2 1.875.375C214 89 214 89 216 91c.365 2.846.402 4.386-1.188 6.813-2.484 1.628-3.9 1.697-6.812 1.187-2.274-2.359-3.627-5.042-5-8l-1.188 1.375C200 94 200 94 197.438 94.938c-2.586.851-2.586.851-3.75 3.187L193 100c-3.263-4.894-4.313-9.165-5-15l3-1v-5l3-1 1-3c3.13-3.622 5.527-6.054 10.438-5.875Z"/><path fill="#F0F0F0" d="M90 28h1v6l2.047-.473 2.703-.59 2.672-.597c2.616-.345 4.08-.036 6.578.66 2.341-.273 4.678-.598 7-1v4l-2 2v5l-2 2c-.04 2.333-.042 4.667 0 7-1.8 1.8-4.245 1.463-6.688 1.625-5.577-.053-5.577-.053-8.44-2.281-4.963-6.791-4.47-13.008-3.372-20.969L90 28Z"/><path fill="#282828" d="M71 7v8l3-1 .75 1.938c1.03 2.235 1.03 2.235 3.125 2.562L80 19a179.948 179.948 0 0 1 4 4l3.25 1.813L90 27c.375 3.75.375 3.75 0 7h-1l-1-4-1 6-1.574-.691C81.256 33.589 78.467 32.464 74 34c2.22 3.329 3.347 3.75 7 5v1c-1.75.054-3.5.093-5.25.125l-2.953.07C69.98 40 68.39 39.445 66 38c2-1 2-1 6-1-2.302-.778-2.302-.778-5-1l-1.852 1.492c-2.723 1.911-4.02 1.733-7.273 1.32l-2.633-.292C53 38 53 38 51 36h12l-1-2 4-3 2 2c2.069.643 2.069.643 4 1l-2-1.875C68 30 68 30 68 28l1.813 1.063c2.295 1.27 2.295 1.27 5.187-.063l-1-2 2-2-3-2v3h-5l.625-1.813c.682-2.472.682-2.472-1.625-5.187v-3l-5-1 2-1 .938-2.438C66.213 8.488 67.51 7 71 7Z"/><path fill="#E4E4E4" d="M120 109h3c-.094 2.309-.094 2.309-1 5-2.906 1.66-2.906 1.66-6.5 3.063-3.534 1.31-3.534 1.31-6.5 2.937-1.002 2.07-1.002 2.07-1 4h2l.125-1.813C111 120 111 120 113.75 118.25c3.08-1.184 5.005-1.536 8.25-1.25 0 2 0 2-1.398 3.621-5.458 5.015-11.144 8.505-18.793 8.328-1.934-.262-1.934-.262-4.809-.949l1-3h-2l-1.25 2c-1.75 2-1.75 2-4.938 2.25L87 129c-.313-2.25-.313-2.25 0-5 3.526-3.74 7.095-4.795 12-6 3.487-1.017 6.46-2.206 9.563-4.063 3.019-1.701 5.026-2.645 8.437-2.937l2 1 1-3Z"/><path fill="#D9BD5C" d="M88 99h8l1 2a160.565 160.565 0 0 0 7 3l-2 1v2l-2.703.148-3.547.227-3.516.21c-2.94.377-4.733.892-7.234 2.415l3 2v2c-7.453.126-7.453.126-10.438-.563-5.088-.868-10.084.07-14.937 1.688C60 116 60 116 57 115c1-3 1-3 4-5l-4-1v-2h5v-2l-3-1c5.057-.292 7.047.035 11 3 5.591.783 9.644-.82 14.668-3.027 2.108-.88 4.105-1.487 6.332-1.973l-3-3Z"/><path fill="#191919" d="m87 27 2 1-1 17h-2l1 5c-1.977.73-3.98 1.394-6 2l-2-1v-5l-1 4c-6.625.25-6.625.25-10-2 1.875-3.875 1.875-3.875 3-5l-6-3v-4c1.625-.688 1.625-.688 4-1 3.25 1.438 3.25 1.438 6 3-3.875 1-3.875 1-5 1h9l-2.5-1.313L74 36v-3c4.933-1.644 7.54-.186 12 2l1-8Z"/><path fill="#2D2D2D" d="M74.313 57.5C77 59 77 59 77.761 60.852 78.202 64.819 76.167 67.789 74 71c-3.505 3.779-7.064 6.4-12 8-1.34.652-2.677 1.314-4 2 2.503-4.86 6.086-8.279 10-12-2.772 1.092-5.374 2.203-8 3.625-5.322 2.359-11.312 1.606-17 1.375 2.426-2.862 4.639-3.716 8.188-4.813 6.164-2.122 10.475-5.408 15.425-9.53 2.895-2.215 4.025-2.712 7.7-2.157Z"/><path fill="#EFEFEF" d="m189 86 1 10-3.313.5c-5.274 1.258-8.931 4.451-13.074 7.82-2.868 1.844-4.277 2.053-7.613 1.68-1.284-2.569-1.33-4.766-1.563-7.625l-.253-3.04L164 93c3.72-1.162 7.114-2.064 11-2.375 5.29-.544 8.864-4.625 14-4.625Z"/><path fill="#1A1413" d="m110.813 22.875 2.1.027c1.695.024 3.391.06 5.087.098v2l4 1 .375 1.938L123 30l2 1c.484 2.434.484 2.434.75 5.438l.297 2.996C126 42 126 42 124 44c-3-6.625-3-6.625-3-10l-3-2-1-3v4l3 2-4 1-1-2-2 1v-3l-2.3.473-3.013.59-2.988.597C102 34 102 34 99 33c-2.638.394-2.638.394-5 1 2.853-2.325 5.54-3.75 9-5-2.076-.553-3.844-1-6-1 1-3 1-3 3.074-4.18 3.618-1.014 7.018-1.038 10.739-.945Z"/><path fill="#191923" d="M127 115h1v35l-4-2v-6l-2-1 3-7c-3.167 1.833-3.167 1.833-5 5v-2l-6 3v3l-3-1-1-3 1.61-.7c4.563-2.106 7.648-3.913 10.39-8.3.778-2.182.778-2.182 1-4h-6l5-5v2c2.724-2.353 3.814-4.625 5-8Z"/><path fill="#363636" d="M127 112c1 3 1 3 .223 5.043l-1.16 2.144-1.153 2.168L124 123h-4l-.875 1.938C118 127 118 127 116 128l-2 3c-2.125.688-2.125.688-4 1v-2h-3c.267 1.985.267 1.985 1 4l3 1c-2.67 2.563-3.902 2.993-7.688 3.25C100 138 100 138 99 137c-.375-2.313-.375-2.313 0-5 2.918-3.307 5.865-4.333 10-5.438 4.579-1.231 6.852-2.937 10-6.562l3-1v-2c-1.63.397-3.254.818-4.875 1.25l-2.742.703c-2.533.846-2.533.846-3.703 3.156L110 124h-2c0-2.25 0-2.25 1-5 3.627-2.787 6.866-4.041 11.438-3.875C123 116 123 116 124 118l3-6Z"/><path fill="#2F2F2F" d="M88 35h1l.184 1.828.254 2.422c.08.789.162 1.578.246 2.39.267 2.335.267 2.335.851 4.47C91 48 91 48 91 51l-3 2v-2c-2.33.959-2.33.959-4 4v-2c-2.33.959-2.33.959-4 4v-5h-4v6l-2.121-.242c-3.856.324-5.806 1.889-8.942 4.117C58.498 66.406 58.498 66.406 55 68l1-2-2.75.5c-5.388.789-10.82.58-16.25.5l1-3 12-2v2c6.12-.44 10.177-1.739 15.375-4.938l1.863-1.091C69.75 56.479 71.928 55.072 74 53l-2-2c1-1 1-1 3.563-1.063L78 50v-3l-2-1 4-1-1 6 8-1-1-5h2V35Z"/><path fill="#161616" d="M68 49v2c-11.827 4.902-22.438 8.467-35 4v-2l3.438-.332 4.562-.48 2.254-.213C48.606 51.393 53.015 50.032 58 48c4.116-1.098 6.135-.933 10 1Z"/><path fill="#A5736B" d="m207 71 1 3h2c1.332 3.997 1.134 7.833 1 12l-1 2 3 1h-8v-3h-2l-1-5h-2v7h-3c.2-1.961.437-3.92.688-5.875l.386-3.305C199 76 199 76 201.394 74.68L204 74l3-1v-2Z"/><path fill="#161616" d="M89 47c3.161 1.37 3.993 1.99 6 5 3.557 1.219 3.557 1.219 7 2v1c-3.947.18-6.598.094-10-2l-1 3h-2l2 2.375C93 61 93 61 93 63c-2.813.625-2.813.625-6 1l-3-2v-4h-8c-1.125-3.75-1.125-3.75 0-6h4l1 2 2.25-1.5C86 51 86 51 90 51l-1-4Z"/><path fill="#1D1D1D" d="m59 13 1.75.938c2.15 1.172 2.15 1.172 4.313 1.25C67 16 67 16 68.813 19.438L70 23l-1 2 4 1v-3l4 2-2 3v3c-2.962-.613-4.38-1.254-7-3l2 1.875C72 32 72 32 72 34c-4.75-.75-4.75-.75-7-3v-3h2v-2l-1.875-.688C62.385 23.622 61.95 22.009 61 19h-2v-6Z"/><path fill="#A8A8AE" d="M206.625 63.875 209 64a88.406 88.406 0 0 1 1 5l-1 1-3.125-.313c-7.583.612-11.9 7.27-16.59 12.774L188 84l-4-1c-.625-2.375-.625-2.375-1-5 2-2 2-2 5.125-2.125L191 76l1-3h2v-2h3v-2a132.038 132.038 0 0 1 5-3c2-2 2-2 4.625-2.125Z"/><path fill="#2F2F2F" d="M75 52c-5.394 5.9-12.746 11.797-20.938 12.188-3.115-.076-6.029-.43-9.062-1.188 2.709-1.806 5.223-3.062 8.188-4.375 3.426-1.52 6.727-3.113 10-4.938C67.234 51.602 70.501 51.68 75 52Z"/><path fill="#1D1D1D" d="m112 32 4 2v4l4 1-1 4 2 1-2 3v3l-4-1v-2l-5-1-1 3-1 3c-1.36-7.068-1.36-7.068 1-11 .377-1.657.72-3.323 1-5h2v-4Z"/><path fill="#D6C180" d="M88 99h8l1 2a160.565 160.565 0 0 0 7 3l-2 1v2l-2.703.148-3.547.227-3.516.21c-2.94.377-4.733.892-7.234 2.415v1h-5v-3l2-1-4-1 13-4-3-3Z"/><path fill="#070707" d="M71 7v8l3-1 .75 1.938c1.066 2.25 1.066 2.25 3.375 2.812L80 19c-1.964 1.506-3.783 2.891-6 4l-1 3h-5l.625-1.813c.682-2.472.682-2.472-1.625-5.187v-3l-5-1 2-1 .938-2.438C66.213 8.488 67.51 7 71 7Z"/><path fill="#EEE" d="m120.75 125.75 2.25.25c-.26 3.73-.762 5.69-3.063 8.688-3.564 2.806-6.634 3.926-10.937 5.312l-2-3 2-2-2-5 1.813.563c2.351.658 2.351.658 5.187-.563l1.875-2.063C118 126 118 126 120.75 125.75Z"/><path fill="#090909" d="m35 41 31 1v1l-7 1h9l-1 2c-10.576 2.518-22.524 2.513-32-3v-2Z"/><path fill="#C9C8C9" d="M200 81h2l1 5h2v3l1.898-.07 2.477-.055 2.46-.07C214 89 214 89 216 91c.365 2.846.402 4.386-1.188 6.813-2.484 1.628-3.9 1.697-6.812 1.187-3.118-2.998-4.356-7.068-6-11l-2-3v-4Z"/><path fill="#262626" d="m93 55 1.672.527c4.136.84 8.164-.034 12.328-.527l-2 10c-5.33 2.18-5.33 2.18-8.313 1.375-2.085-1.7-2.201-2.784-2.687-5.375l-2-2c.375-2.125.375-2.125 1-4Z"/><path fill="#131313" d="M107 63h2c.027 1.73.047 3.458.063 5.188l.035 2.917c-.093 2.75-.477 5.22-1.098 7.895.313-1.938.313-1.938 1-4l3-1c.422 4.308.563 6.293-2.188 9.75C103.25 89 103.25 89 100 89c.506-2.169 1-4 2-6h2l.375-3.813C104.974 73.74 105.965 68.38 107 63Z"/><path fill="#202020" d="M76.234 62.348 78 63c-3.052 7.08-6.559 11.934-13.688 15.25L62 79c-1.34.652-2.677 1.314-4 2 2.503-4.86 6.086-8.279 10-12l-1-2c1.071-.87 2.157-1.72 3.25-2.563l1.828-1.44C74 62 74 62 76.234 62.346Z"/><path fill="#393939" d="M52 18c3.1.013 6 .181 9 1 2.438 3 2.438 3 4 6l2 1v2h-2l-1 3-8-3v-2l-7-1-1-3 6 1-2-5Z"/><path fill="#9B8942" d="m110.813 22.875 2.1.027c1.695.024 3.391.06 5.087.098v1l-8 1c-.934 3.01-1.044 3.867 0 7-4.153 2.077-6.512 1.841-11 1-2.769.369-2.769.369-5 1 2.853-2.325 5.54-3.75 9-5-2.076-.553-3.844-1-6-1 1-3 1-3 3.074-4.18 3.618-1.014 7.018-1.038 10.739-.945Z"/><path fill="#5A5C81" d="M128 0h1c.116 25.689.01 51.329-1 77h-1l-.076-3.134a5978.09 5978.09 0 0 0-.296-11.545 2652.51 2652.51 0 0 1-.125-4.99c-.058-2.396-.122-4.791-.187-7.186l-.05-2.242c-.107-3.74-.388-7.262-1.266-10.903h3V0Z"/><path fill="#C5C5C5" d="M111 129v3l-1-2h-3c.267 1.985.267 1.985 1 4l3 1c-2.67 2.563-3.902 2.993-7.688 3.25C100 138 100 138 99 137c-.375-2.313-.375-2.313 0-5 3.831-4.412 6.497-4.295 12-3Z"/><path fill="#505050" d="m90 118 2 1v2l-1.938 1.313c-2.561 2.095-2.714 3.47-3.062 6.687 5.408-1.098 5.408-1.098 9-5l4 1c-5.812 5.777-5.812 5.777-10 6.563-3.712-.697-6.672-1.77-10-3.563-1.438-2.188-1.438-2.188-2-4l6 2 .75-1.75c1.417-2.55 3.126-4.268 5.25-6.25Z"/><path fill="#060710" d="M127 93h1c.081 3.021.14 6.04.188 9.063l.076 2.568c.064 5.594-.69 9.389-3.264 14.369l-2-1v-2h-2l1-4h2v-4l-2-1 1.375-1.938c2.07-3.901 2.826-7.746 3.625-12.062Z"/><path fill="#E6BD03" d="m85 107-5 1v3h7l1 3c-6.055.195-6.055.195-8 0l-2-2c-2.892-.464-2.892-.464-6.125-.625l-3.32-.227L66 111l1-4 2.012.035c5.2.053 11.193-1.633 15.988-.035Z"/><path fill="#2A2A2A" d="m107 52 1 3h2l2 8-5-1-1-6h-9l-1 4-1-4h-2l-3 7h-1c-.36-6.36-.36-6.36 1.125-9 2.806-1.497 4.877-.733 7.875 0v-1l9-1Z"/><path fill="#212121" d="M66 48c-2.616 3.25-5.51 4.024-9.438 5.188L53.13 54.23C50 55 50 55 46 55v-2l-3-1 2.012-.367c4.556-.865 8.712-1.8 12.988-3.633 3.386-.887 4.615-1.128 8 0Z"/><path fill="#4F4F4F" d="M67 46v2l6 2c-1 2-1 2-2.89 2.746l-2.36.691C64.13 54.56 61.245 56.034 58 58c-2-1-2-1-3-3 1.79-.67 3.582-1.336 5.375-2l3.023-1.125C66 51 66 51 68 51v-2c-3.044-.83-5.1-.985-8.25-.5-4.436.591-8.35.149-12.75-.5v-1c2.208-.17 4.417-.335 6.625-.5l3.727-.281A133.05 133.05 0 0 1 67 46Z"/><path fill="#050505" d="M80.438 20.563C83.814 22.456 84.597 24.454 86 28v2l-4-1 4 4c-3.821-.53-6.062-1.497-9-4l1-3c0-1.84-1.172-3.396-2-5 2-1 2-1 4.438-.438Z"/><path fill="#111" d="m50 24 7 1-1 3 5 1c-3.575 2.145-6.834 2.927-11 3-2.938-2.438-2.938-2.438-5-5h7l-2-3Z"/><path fill="#A6A8A9" d="M161 91c3.646 2.43 3.998 3.824 5 8-.317 3.696-1.186 4.186-4 7V96l-3 7h-2l1-4-4 1c4.75-5.875 4.75-5.875 7-7v-2Z"/><path fill="#151515" d="M113 69h2l2 2h2c.197 1.415.382 2.832.563 4.25l.316 2.39c.124 2.423.032 4.11-.879 6.36l-3 1-.148-1.977C115.428 78.067 114.843 73.67 113 69Z"/><path fill="#E6E6E6" d="M208 89c2.875-.125 2.875-.125 6 0 2 2 2 2 2.25 4.5C216 96 216 96 214 98c-2.625.125-2.625.125-5 0l-1-2c.938-2.125.938-2.125 2-4h-2v-3Z"/><path fill="#060606" d="m74 58 3 1c-1.339 4.016-3.966 5.446-7.313 7.75l-1.763 1.285c-4.345 3.021-4.345 3.021-7.342 2.73L59 70l2.52-1.863 3.292-2.45 1.659-1.224C69.16 62.457 71.72 60.47 74 58Z"/><path fill="#2D2D2D" d="M119 103c1.5 1.375 1.5 1.375 3 3v2h2l-1 4v-3c-3.118.646-3.118.646-4 3-3.482.1-6.632-.065-10-1l-1-2 1.898-.55 2.477-.763 2.46-.738c2.497-.863 2.497-.863 4.165-3.949Z"/><path fill="#2B2B2B" d="m49 62 1 2 5-1v2c-5.879 2.613-11.707 2.183-18 2l1-3 11-2Z"/><path fill="#A26459" d="m201 87 3 3c-2.128 2.364-3.623 3.856-6.625 5-2.533.796-2.533.796-3.688 3.125L193 100c-2-3-2-3-1.875-5.055 1.158-2.575 2.31-2.98 4.875-4.07 3.158-1.213 3.158-1.213 5-3.875Z"/><path fill="#0C0C0C" d="M107 63h2c.209 6.406.158 11.93-2 18h-2l-1 2c.664-6.746 1.719-13.344 3-20Z"/><path fill="#F0F0F0" d="M94 121c.042 2.333.04 4.667 0 7-1 1-1 1-4.063 1.063L87 129c-.363-4.474-.363-4.474 1.25-6.813C90 121 90 121 94 121Z"/><path fill="#C9AB47" d="M59 104c6.523-.37 6.523-.37 8.938 1.5L69 107h-2l-1 4-5 1-1-3h-3v-2h5v-2l-3-1Z"/><path fill="#060606" d="M84 41c.625 1.813.625 1.813 1 4l-2 3 4-1v3c-1.977.73-3.98 1.394-6 2l-2-1c.324-1.668.66-3.335 1-5l.375-2.25L81 42l3-1Z"/><path fill="#706952" d="M88 99h8l1 2a160.565 160.565 0 0 0 7 3l-2 1v2l-4-1v-2l-3.313-.25C91 103 91 103 89.064 100.937L88 99Z"/><path fill="#060606" d="M71 52c2.164.367 2.164.367 4 1-13.873 11-13.873 11-20 11v-2l1.977-.918c6.072-2.905 6.072-2.905 11.398-6.957L71 52Z"/><path fill="#C2C2C2" d="M120 109h3c-.125 2.313-.125 2.313-1 5-4.862 3-4.862 3-8 3v-3l-4-1c6.75-2.125 6.75-2.125 9-1l1-3Z"/><path fill="#050505" d="M75 32c4.57.345 7.583.857 11 4l-9-1 8 3-1 2c-3.936-.562-6.792-1.617-10-4 0-3 0-3 1-4ZM67 35c3.625.75 3.625.75 7 2l1 2-8-1 7 2-1 3c-6.646-1.477-6.646-1.477-8.438-4.125L64 37l3-2Z"/><path fill="#05060C" d="M127 115h1c.492 7.262.492 7.262-2 11l-2 2v-3l-7 1 5-5v2c2.724-2.353 3.814-4.625 5-8Z"/><path fill="#AF7A6E" d="M199 76h6c-.813 1.938-.813 1.938-2 4l-3 1v7h-3l2-12Z"/><path fill="#060606" d="M76 52h4l1 2 3-1c.563 1.938.563 1.938 1 4-1 1-1 1-2.848 1.098L76 58c-1.125-3.75-1.125-3.75 0-6Z"/><path fill="#272727" d="m121 26 .875 1.938c.953 2.214.953 2.214 3.125 3.062.484 2.434.484 2.434.75 5.438l.297 2.996C126 42 126 42 124 44c-2.891-6.385-3-11.119-3-18Z"/><path fill="#050505" d="M73 27c1.875 1.5 1.875 1.5 3 3-1.75.688-1.75.688-4 1-2.25-1.438-2.25-1.438-4-3l2 1.875C72 32 72 32 72 34c-4.75-.75-4.75-.75-7-3v-3c2.799-1.4 4.905-1.253 8-1Z"/><path fill="#C4C4C4" d="M113 76h2l1 6-3 1c-1.44 1.629-1.44 1.629-2.688 3.563l-1.324 1.94L108 90l-2-4 1.875-.688C110.651 83.599 111.03 82.06 112 79l1-3Z"/><path fill="#303030" d="M84 24c4.875 1.875 4.875 1.875 6 3 .04 2.333.042 4.667 0 7h-1l-1-4-1 6-2-2 1-2-5-2v-3l5 3-2-3v-3Z"/><path fill="#3E3E3E" d="m73 54 1 4-1.656.285c-2.999.915-5.23 2.426-7.844 4.153C61.395 64.48 58.367 66.42 55 68v-3c3.382-3.069 7.476-4.775 11.563-6.719C68.918 57.043 70.921 55.655 73 54Z"/><path fill="#474747" d="M104.188 129.313 106 130l-1.938.75c-2.25 1.066-2.25 1.066-2.812 3.375L101 136h6l1-3 3 2c-2.67 2.563-3.902 2.993-7.688 3.25C100 138 100 138 99 137c-.302-2.872-.374-4.44 1.25-6.875C102 129 102 129 104.188 129.312Z"/><path fill="#EEE" d="M114 114c-.25 1.875-.25 1.875-1 4-1.938 1.063-1.938 1.063-4 2l-2 3-1-8c2.709-1.354 5.01-1.065 8-1Z"/><path fill="#C27464" d="M208 74h2l1 7c-1.813 1.563-1.813 1.563-4 3l-3-1c.645-3.483 1.982-6.094 4-9Z"/><path fill="#070707" d="m100 60 4 1 1 4c-5.415 2.215-5.415 2.215-8.375 1.125L95 65v-3h4l1 1v-3Z"/><path fill="#BEC1C1" d="m139 81 1.875 2.063c3.319 3.357 7.208 5.861 11.113 8.484L154 93v1c-3.64.354-5.378.495-8.3-1.828l-2.012-2.422-2.051-2.39c-1.542-2.222-2.22-3.72-2.637-6.36Z"/><path fill="#060606" d="m71 57 2 1c-9.045 8.192-9.045 8.192-13 10l-3-1c4.577-3.485 9.176-6.864 14-10Z"/><path fill="#AA9171" d="M110 30v2c-4.153 2.077-6.512 1.841-11 1-2.769.369-2.769.369-5 1 5.464-4.452 9.009-5.37 16-4Z"/><path fill="#0A0A0A" d="M114 111c-4.384 3.445-7.308 5.316-13 5 .625-1.875.625-1.875 2-4 4.036-1.884 6.728-2.257 11-1Z"/><path fill="#050505" d="M85 58h6l2 5c-2.813.625-2.813.625-6 1l-3-2 1-4Z"/><path fill="#030303" d="M68 49v2c-5.673 2.454-10.818 4.462-17 5 2.468-2.91 4.93-3.935 8.5-5.188l2.906-1.042C65 49 65 49 68 49Z"/><path fill="#303030" d="m74 43-1.813.813C70.028 44.984 68.642 46.193 67 48v-3H49v-1c3.04-.364 6.082-.717 9.125-1.063l2.594-.314c4.659-.52 8.657-.707 13.281.377Z"/><path fill="#DDDDDE" d="M187 62c1.296.425 2.587.865 3.875 1.313l2.18.738C195 65 195 65 197 68v3c-3.288-.579-4.937-1.548-7.25-3.938l-1.578-1.59C187 64 187 64 187 62Z"/><path fill="#4B4B4B" d="m73 14 1.25 1.938C76.178 18.21 77.114 18.602 80 19c-2.386 1.892-4.072 3.024-7 4a100.644 100.644 0 0 1-3-6c1-2 1-2 3-3Z"/><path fill="#313131" d="M110 38c2 3 2 3 2 5h2v4l-4-1-1 3-1 3c-1.398-7.27-1.398-7.27 1-11l1-3ZM65 31l5 4-2.375.875c-2.722.974-2.722.974-4.625 3.125-2.313.047-2.313.047-5-.25l-2.688-.266C53 38 53 38 51 36h12l-1-2 3-3Z"/><path fill="#D7D7D7" d="M100 117h2l-4 8h-2l-2 2v-6l-2-1 3.438-.938c3.35-.691 3.35-.691 4.562-2.062Z"/><path fill="#1B1C1C" d="M124 52h3v23h-3v-3h2V54h-2v-2Z"/><path fill="#1A1A1A" d="M76.234 62.348 78 63a105.022 105.022 0 0 1-4 5h-2l-3 2v-2l-2-1c1.071-.87 2.157-1.72 3.25-2.563l1.828-1.44C74 62 74 62 76.234 62.346Z"/><path fill="#5A5A5A" d="M121 132c.625 1.813.625 1.813 1 4l-2 3v-2l-6 3v3l-3-1-1-3 1.645-.77 2.168-1.042 2.144-1.02c2.054-1.174 3.46-2.424 5.043-4.168Z"/><path fill="#585858" d="M95 124h5c-4.75 5.875-4.75 5.875-7 7-3 .188-3 .188-6 0l-2-2 3.875-.25c2.178-.209 2.178-.209 4.125-.75 1.59-1.92 1.59-1.92 2-4Z"/><path fill="#A36457" d="M207 71c.688 1.688.688 1.688 1 4-1.438 2.75-1.438 2.75-3 5l2 2-4 2c-.688-1.75-.688-1.75-1-4 1.438-2.25 1.438-2.25 3-4l-2-1 4-2v-2Z"/><path fill="#D4D4D7" d="M207 90c2.007.287 4.009.619 6 1l-1 2h-2l-1 4 4 2c-2.375.125-2.375.125-5 0-2-2-2-2-2.188-5.063C206 91 206 91 207 90Z"/><path fill="#343434" d="M73 80c0 4.132-1.72 5.525-4.313 8.688l-2.425 3.011L64 94h-3c1.33-3.59 3.509-5.36 6.469-7.695C69.642 84.453 71.303 82.285 73 80Z"/><path fill="#1D1D1D" d="M89 47c3.161 1.37 3.993 1.99 6 5 3.557 1.219 3.557 1.219 7 2v1c-4.82.235-8.463-.548-13-2v-6Z"/><path fill="#C08679" d="M205.188 69.313 208 70c-1 3-1 3-3.063 4.188L203 75l-4-3c2.038-2.83 2.597-3.04 6.188-2.688Z"/><path fill="#060606" d="m67 52 2 1a913.437 913.437 0 0 1-5.25 3.438l-2.953 1.933C58.417 59.758 56.682 60.547 54 61c3.714-4.179 7.642-7.178 13-9Z"/><path fill="#3B3B3B" d="m119 92 2 1h3c-.281 1.481-.575 2.96-.875 4.438l-.492 2.496L122 102l-2 1 1-6-3-1 1-4Z"/><path fill="#AFAFAF" d="M102 80c1 3 1 3-.438 6.188L100 89l4-1-1 2h-4l-1-3-2-1 6-6Z"/><path fill="#070707" d="M106 55v3c-4.75 1.125-4.75 1.125-7 0v2h-2v-4l9-1Z"/><path fill="#181818" d="M127 42c.313 2.25.313 2.25 0 5-2.5 2.313-2.5 2.313-5 4-1-3-1-3-.188-5.625C123.218 42.565 123.87 42 127 42Z"/><path fill="#202020" d="M117 24c1.938.625 1.938.625 4 2 .75 3.125.75 3.125 1 6h-4v-4h-2l1-4Z"/><path fill="#DAB42D" d="M78 109h2v2h7l1 3c-6.055.195-6.055.195-8 0l-2-2v-3Z"/><path fill="#424242" d="m68 50 3 2-15 6-1-3 2.336-.84 3.039-1.097 3.023-1.09c2.537-.896 2.537-.896 4.602-1.973Z"/><path fill="#434343" d="M88 35h1l.184 1.828.254 2.422.246 2.39c.292 2.184.737 4.237 1.316 6.36l-4 2-1-5h2V35Z"/><path fill="#1E1E1E" d="M52 18c2.741.37 4.586.686 6.813 2.375C60 22 60 22 60 25c-3.403-1.012-4.757-1.648-6.813-4.625L52 18Z"/><path fill="#CECECE" d="m120 137 1 3-2 1v-2l-3 1v4l-4-1c3.23-6 3.23-6 8-6Z"/><path fill="#E1BB18" d="M92.043 102.926 98 104v2H87c3-3 3-3 5.043-3.074Z"/><path fill="#0C0C0C" d="M57 69h-2l1 3c-1 1-1 1-4.063 1.063L49 73c2.023-4.48 3.204-5.439 8-4Z"/><path fill="#131313" d="m116 42 1 3 3 1-1 4c-1.938-.313-1.938-.313-4-1-1-3-1-3-.063-5.188L116 42Z"/><path fill="#0E0E0E" d="M110 36h3v2l4 2h-3v3h-2l-.375-2.438L111 38l-2-1 1-1Z"/><path fill="#2B2B2B" d="m112 32 4 2v4l4 1-3 2v-2l-4-1-1-6Z"/><path fill="#D0D0D1" d="M153 72h1l2 10c-5.875-3.75-5.875-3.75-7-6l4 1v-5Z"/><path fill="#CACACB" d="M145 58c2.503 2.938 3.47 5.179 4 9a417.694 417.694 0 0 1-3.5-2.875l-1.969-1.617L142 61v-2l3-1Z"/><path fill="#CBCBCB" d="m57 56-4 4-1-2H42v-1c5.025-.625 9.925-1.13 15-1Z"/><path fill="#0D0D0D" d="M78 20c2.625.938 2.625.938 5 2v3h-5l-2-4 2-1Z"/><path fill="#E5E5E5" d="m107 130 1.813.5c2.3.611 2.3.611 5.187.5l-1 4-5-1-1-4Z"/><path fill="#B6B8B9" d="m159 95 2 3c-.875 2.688-.875 2.688-2 5h-2l1-4-4 1 5-5Z"/><path fill="#313131" d="M46 71c1.813.25 1.813.25 4 1 1.998.346 3.998.681 6 1v1H43l3-3Z"/><path fill="#EAEAEA" d="M205 65h3v5l-6-1c1.313-2 1.313-2 3-4Z"/><path fill="#8A8CA6" d="M125 37h4v7h-2c-1.46-2.647-2-3.894-2-7Z"/><path fill="#4A4A4A" d="m41 33 10 1v1h-6v2l-5-2 1-2Z"/><path fill="#4C4C4C" d="m65 11 3 2c.688 3.625.688 3.625 1 7l-2-1v-3l-5-1 2-1 1-3Z"/><path fill="#EEE" d="m185 77 4 1v3l-4 1-1-3 1-2Z"/><path fill="#050505" d="m70 44 5 1v2l-7 1 2-4Z"/><path fill="#525252" d="m121 26 .875 1.938c.953 2.214.953 2.214 3.125 3.062v6l-1-3c-2.015-.733-2.015-.733-4-1l1-7Z"/><path fill="#C7C7C7" d="m89 80-2 6h-6a376.146 376.146 0 0 1 2.875-3l1.617-1.688C87 80 87 80 89 80Z"/><path fill="#232323" d="m57 68 3 1 1 3-6 1v-4l2-1Z"/><path fill="#CBA709" d="m67 107 7 1c-3.061 2.624-3.732 3-8 3l1-4Z"/><path fill="#080808" d="m93 55 3 1v5l-4-2 1-4Z"/><path fill="#0D0D0D" d="M87 47v3l-6 2c.313-1.938.313-1.938 1-4 3-1 3-1 5-1Z"/><path fill="#303030" d="m69 20 4 2v4h-5l1-6Z"/><path fill="#D1D1D1" d="M120 109h3l-1 5-4-1 2-4Z"/><path fill="#D8B73D" d="M59 104c6.523-.37 6.523-.37 8.938 1.5L69 107h-6v-2l-4-1Z"/><path fill="#151515" d="m117 78 3 2c-.313 1.938-.313 1.938-1 4l-3 1 1-7Z"/><path fill="#D47F6D" d="M208 74h2c-.613 2.962-1.254 4.38-3 7l-3-1a125.024 125.024 0 0 1 4-6Z"/><path fill="#040404" d="M106 75h1v6h-2l-1 2c-.125-2.875-.125-2.875 0-6l2-2Z"/><path fill="#2B2B2B" d="m118 63 1 2h5l1 3-4 1v-2l-3-1v-3Z"/><path fill="#282828" d="M85 63h8l1 2c-2.813 1.125-2.813 1.125-6 2l-3-2v-2Z"/><path fill="#9D9D9D" d="M58 11h2v9l-5-1 2-1c.407-2.322.744-4.657 1-7Z"/><path fill="#8E6765" d="m192 93 3 1-2 6c-2-3-2-3-1.625-5.188L192 93Z"/><path fill="#D5D5D5" d="M108 84h3c-1.75 4.875-1.75 4.875-4 6-.625-1.875-.625-1.875-1-4l2-2Z"/><path fill="#232323" d="m119 74 1 4-2 1-2 3v-7l3-1Z"/><path fill="#484848" d="M92 72c1.392 4.176-.177 6.135-2 10l-2-3 4-7Z"/><path fill="#DAD6D5" d="m200 69 2 1-7 6-1-2c1.398-2.796 3.263-3.598 6-5Z"/><path fill="#0A0A0A" d="M66 48c-6.625 3.125-6.625 3.125-10 2 3.136-3.136 5.856-3.381 10-2Z"/><path fill="#CCC" d="m49 31 7 3v1l-10-1 3-1v-2Z"/><path fill="#606060" d="M45 27h9l1 2c-2.763.597-5.16 1-8 1l-2-3Z"/><path fill="#111" d="m73 23 4 2c-1.188 1.563-1.188 1.563-3 3-2.688-.313-2.688-.313-5-1l4-1v-3Z"/><path fill="#0E0E0E" d="M59 13c1.938.75 1.938.75 4 2 .75 2.125.75 2.125 1 4l-1-2-3 1-1-5Z"/><path fill="#484848" d="m71 7-1 8-2-4h-2l1-3c2-1 2-1 4-1Z"/></svg>