<?xml version="1.0" encoding="UTF-8"?>
<svg version="1.1" xmlns="http://www.w3.org/2000/svg" width="256" height="154">
<path d="M0 0 C84.48 0 168.96 0 256 0 C256 50.82 256 101.64 256 154 C171.52 154 87.04 154 0 154 C0 103.18 0 52.36 0 0 Z " fill="#0389E0" transform="translate(0,0)"/>
<path d="M0 0 C0 38.94 0 77.88 0 118 C-8.831042 112.95369029 -17.61063982 107.88180963 -26.3125 102.625 C-33.29162569 98.42170407 -40.27596765 94.23150208 -47.3125 90.125 C-55.00873081 85.62509761 -62.63066826 81.00340297 -70.25 76.375 C-70.83633209 76.01891663 -71.42266418 75.66283325 -72.02676392 75.29595947 C-74.87909119 73.56302271 -77.72915955 71.8266335 -80.57617188 70.08496094 C-82.95846871 68.6288832 -85.35178378 67.19301186 -87.75195312 65.76660156 C-88.95443377 65.04493301 -90.15690795 64.3232537 -91.359375 63.6015625 C-92.44186523 62.95783691 -93.52435547 62.31411133 -94.63964844 61.65087891 C-95.41856445 61.10608887 -96.19748047 60.56129883 -97 60 C-97 59.34 -97 58.68 -97 58 C-94.82641602 56.45043945 -94.82641602 56.45043945 -91.75390625 54.61328125 C-90.92366188 54.11270706 -90.92366188 54.11270706 -90.0766449 53.60202026 C-88.24267225 52.49855906 -86.40267375 51.4055833 -84.5625 50.3125 C-83.28410722 49.54599215 -82.00611647 48.77881343 -80.72851562 48.01098633 C-78.10281993 46.43459373 -75.47466279 44.8624343 -72.84423828 43.29394531 C-69.31724721 41.19068264 -65.79636595 39.07750805 -62.27734375 36.9609375 C-57.14214958 33.8730257 -52.00291614 30.79193479 -46.86181641 27.71386719 C-41.6661969 24.60234621 -36.47406878 21.48500678 -31.28149414 18.3684082 C-26.9962873 15.79675901 -22.70986099 13.22716929 -18.421875 10.66015625 C-17.50446533 10.11061279 -16.58705566 9.56106934 -15.6418457 8.99487305 C-13.88032677 7.93974276 -12.11846248 6.88518876 -10.35620117 5.83129883 C-9.56705322 5.35845459 -8.77790527 4.88561035 -7.96484375 4.3984375 C-7.2699585 3.98255371 -6.57507324 3.56666992 -5.85913086 3.13818359 C-0.73316173 0 -0.73316173 0 0 0 Z " fill="#FAFBFA" transform="translate(256,18)"/>
<path d="M0 0 C3.67902002 1.07210009 6.81476562 2.97137897 10.078125 4.94921875 C11.06200195 5.54275146 12.04587891 6.13628418 13.05957031 6.74780273 C14.11241211 7.38790283 15.16525391 8.02800293 16.25 8.6875 C17.92511216 9.69968025 19.60022811 10.71185429 21.27557373 11.72364807 C23.0176829 12.77630981 24.75885686 13.83050699 26.5 14.88476562 C33.06361565 18.85560707 39.65212221 22.7851876 46.23535156 26.72338867 C51.29524739 29.75634976 56.33446535 32.81856684 61.3515625 35.921875 C65.89537376 38.72522252 70.46543918 41.47462744 75.0703125 44.17578125 C75.65228394 44.51753891 76.23425537 44.85929657 76.8338623 45.21141052 C79.20498887 46.60282532 81.57677428 47.99304351 83.95214844 49.37719727 C85.72314512 50.4101204 87.49070446 51.44872337 89.2578125 52.48828125 C90.2905127 53.09196533 91.32321289 53.69564941 92.38720703 54.31762695 C95 56 95 56 98 59 C33.98 59 -30.04 59 -96 59 C-93.53128831 56.53128831 -91.81377019 55.15758972 -88.87890625 53.4609375 C-87.62086182 52.72701782 -87.62086182 52.72701782 -86.33740234 51.97827148 C-85.42168457 51.44919189 -84.5059668 50.9201123 -83.5625 50.375 C-74.61297375 45.14782318 -65.72581747 39.82925277 -56.875 34.4375 C-54.48717477 32.98405344 -52.09910466 31.53100965 -49.7109375 30.078125 C-48.84573738 29.55168144 -48.84573738 29.55168144 -47.96305847 29.01460266 C-39.66644059 23.96911897 -31.33266426 18.98562483 -23 14 C-19.31190161 11.79266424 -15.62454014 9.58410285 -11.9375 7.375 C-11.08542969 6.86541748 -10.23335938 6.35583496 -9.35546875 5.83081055 C-8.5665625 5.35812744 -7.77765625 4.88544434 -6.96484375 4.3984375 C-6.2699585 3.98255371 -5.57507324 3.56666992 -4.85913086 3.13818359 C-3.21469467 2.13143881 -1.60430548 1.06953699 0 0 Z " fill="#FCFDFD" transform="translate(127,95)"/>
<path d="M0 0 C64.02 0 128.04 0 194 0 C191.16673567 2.83326433 188.75831428 4.46776129 185.328125 6.4765625 C184.19640869 7.14268555 183.06469238 7.80880859 181.89868164 8.49511719 C180.68247083 9.20510622 179.46624328 9.91506659 178.25 10.625 C177.00677925 11.35528238 175.76386023 12.08607868 174.52124023 12.81738281 C172.08981844 14.24804705 169.65738666 15.67696632 167.22412109 17.10449219 C163.49107814 19.29920259 159.77170292 21.5153026 156.0625 23.75 C154.36867187 24.76900391 154.36867187 24.76900391 152.640625 25.80859375 C151.77727539 26.32848877 151.77727539 26.32848877 150.89648438 26.85888672 C147.03757738 29.18078827 143.17459564 31.49590767 139.3125 33.8125 C137.61326683 34.83200722 135.9140482 35.85153866 134.21484375 36.87109375 C113.6484375 49.2109375 113.6484375 49.2109375 111.35449219 50.56933594 C109.68275351 51.58513733 108.03423913 52.6396032 106.40332031 53.71972656 C105.54061523 54.27885742 104.67791016 54.83798828 103.7890625 55.4140625 C102.62818115 56.19064209 102.62818115 56.19064209 101.44384766 56.98291016 C98.1853032 58.33906362 96.37459294 57.92830735 93 57 C90.50561523 55.82006836 90.50561523 55.82006836 88.05859375 54.33984375 C86.68670898 53.5190332 86.68670898 53.5190332 85.28710938 52.68164062 C84.34673828 52.10607422 83.40636719 51.53050781 82.4375 50.9375 C81.52419922 50.38900391 80.61089844 49.84050781 79.66992188 49.27539062 C73.52143735 45.57256987 67.41648702 41.79835957 61.3059082 38.03344727 C55.83971776 34.67122142 50.3589997 31.33307901 44.875 28 C44.28703644 27.64226501 43.69907288 27.28453003 43.09329224 26.91595459 C36.18369918 22.71363847 29.25604155 18.5452709 22.28515625 14.4453125 C21.35334534 13.89662506 21.35334534 13.89662506 20.40270996 13.33685303 C17.41982619 11.58136611 14.43391204 9.83139548 11.44287109 8.08984375 C10.37762207 7.46464844 9.31237305 6.83945313 8.21484375 6.1953125 C7.27761475 5.64891113 6.34038574 5.10250977 5.37475586 4.53955078 C3 3 3 3 0 0 Z " fill="#FCFDFD" transform="translate(31,0)"/>
<path d="M0 0 C12.37005126 6.74730069 12.37005126 6.74730069 17.671875 9.98828125 C18.51924225 10.50463387 18.51924225 10.50463387 19.38372803 11.03141785 C21.17388305 12.122841 22.96193004 13.21766507 24.75 14.3125 C26.6363436 15.46345611 28.5232428 16.61349771 30.41015625 17.76351929 C31.63690046 18.51128848 32.86346609 19.25935074 34.08984375 20.00772095 C38.21513689 22.52473326 42.35143681 25.02157434 46.5 27.5 C53.13668129 31.47266134 59.75521949 35.47510495 66.36938477 39.48510742 C67.60073559 40.231463 68.83233428 40.97740981 70.06420898 41.72290039 C78.79783175 47.00913518 87.50442735 52.3362849 96 58 C94.77686159 61.66941522 93.8282109 61.99760249 90.57421875 63.93359375 C89.64327393 64.49344971 88.7123291 65.05330566 87.75317383 65.63012695 C86.23566528 66.52477661 86.23566528 66.52477661 84.6875 67.4375 C83.64295654 68.06293701 82.59841309 68.68837402 81.5222168 69.33276367 C78.35247888 71.2292189 75.17643138 73.11478443 72 75 C69.54974727 76.46609706 67.10168864 77.93578976 64.65405273 79.40625 C63.07358692 80.35541934 61.49235026 81.30330615 59.91040039 82.25 C53.2327114 86.24784848 46.58236195 90.29001565 39.93411255 94.33651733 C5.88954595 115.05522703 5.88954595 115.05522703 0 118 C0 79.06 0 40.12 0 0 Z " fill="#FBFBFB" transform="translate(0,18)"/>
<path d="M0 0 C2.69893922 0.83421758 4.69191007 1.45762711 7 3 C8.3125 6.1875 8.3125 6.1875 8 10 C6.29282977 12.94126919 4.26607317 15.47119371 2 18 C2.66 18.33 3.32 18.66 4 19 C4.33 18.34 4.66 17.68 5 17 C5 17.99 5 18.98 5 20 C5.99 19.67 6.98 19.34 8 19 C7.67 20.98 7.34 22.96 7 25 C6.67 24.34 6.34 23.68 6 23 C5.34 23 4.68 23 4 23 C4 22.34 4 21.68 4 21 C3.34 21.33 2.68 21.66 2 22 C2 23.32 2 24.64 2 26 C3.65 26 5.3 26 7 26 C8.32 23.69 9.64 21.38 11 19 C10.34 18.67 9.68 18.34 9 18 C8.9727585 16.58344207 8.95349533 15.16672955 8.9375 13.75 C8.92589844 12.96109375 8.91429687 12.1721875 8.90234375 11.359375 C8.9976821 9.05600042 9.24912799 7.17752882 10 5 C12.0625 3.25 12.0625 3.25 14 2 C16.64 3.32 19.28 4.64 22 6 C21.67 7.32 21.34 8.64 21 10 C20.34 10 19.68 10 19 10 C18.67 10.99 18.34 11.98 18 13 C19.87880872 12.95231597 19.87880872 12.95231597 22 12 C24.87310952 8.25625123 26.97509615 4.25229809 29 0 C30.9375 0.3125 30.9375 0.3125 33 1 C34 4 34 4 34 8 C31.525 7.505 31.525 7.505 29 7 C28.46605821 8.4117783 27.94834896 9.82970244 27.4375 11.25 C27.14746094 12.03890625 26.85742188 12.8278125 26.55859375 13.640625 C25.94002919 16.25330327 25.95367975 17.53930715 27 20 C30.4352048 22.29013653 31.985331 22.17842973 36 22 C36.5534764 24.07553648 37 25.84365964 37 28 C36.01 27.67 35.02 27.34 34 27 C33.34 27.99 32.68 28.98 32 30 C32 29.34 32 28.68 32 28 C31.01 28 30.02 28 29 28 C29 27.34 29 26.68 29 26 C27.20909747 25.80533668 25.41723495 25.61948787 23.625 25.4375 C22.62726562 25.33308594 21.62953125 25.22867188 20.6015625 25.12109375 C18.015963 24.78855292 18.015963 24.78855292 16 26 C17.98 26.66 19.96 27.32 22 28 C22.33 27.34 22.66 26.68 23 26 C23.99 26.33 24.98 26.66 26 27 C25.67 28.65 25.34 30.3 25 32 C24.0409375 32.185625 24.0409375 32.185625 23.0625 32.375 C22.381875 32.58125 21.70125 32.7875 21 33 C20.67 33.66 20.34 34.32 20 35 C21.98 35 23.96 35 26 35 C26.33 34.01 26.66 33.02 27 32 C27.99 32 28.98 32 30 32 C30.495 34.475 30.495 34.475 31 37 C30.01 37 29.02 37 28 37 C27.67 37.99 27.34 38.98 27 40 C26.34 39.34 25.68 38.68 25 38 C24.113125 38.37125 23.22625 38.7425 22.3125 39.125 C18.59173995 40.10784228 17.32561865 39.76062164 14 38 C14 38.66 14 39.32 14 40 C11.83125748 39.49396008 10.00032373 39.00016187 8 38 C8 39.32 8 40.64 8 42 C9.32 42.33 10.64 42.66 12 43 C11.34 44.32 10.68 45.64 10 47 C9.01 46.34 8.02 45.68 7 45 C6.34 45.66 5.68 46.32 5 47 C2.31780178 41.63560356 1.6847405 37.98993047 2 32 C3.98 32 5.96 32 8 32 C8 31.01 8 30.02 8 29 C6.906875 29.0825 5.81375 29.165 4.6875 29.25 C1 29 1 29 -0.9375 27.375 C-2.41116719 24.08092039 -2.68033442 22.6057724 -2 19 C-0.28405612 16.66085262 1.57270755 14.47618722 3.44140625 12.2578125 C5.73417013 8.93646532 5.58215632 6.90876386 5 3 C4.34 3 3.68 3 3 3 C3 5.31 3 7.62 3 10 C2.01 10.33 1.02 10.66 0 11 C0 10.34 0 9.68 0 9 C-0.99 8.67 -1.98 8.34 -3 8 C-3 6.68 -3 5.36 -3 4 C-2.34 3.67 -1.68 3.34 -1 3 C-0.67 2.01 -0.34 1.02 0 0 Z " fill="#D2301D" transform="translate(9,52)"/>
<path d="M0 0 C0.99 0.33 1.98 0.66 3 1 C3.68346682 2.65984798 4.34588315 4.32836805 5 6 C6.57683898 8.41016844 8.27768788 10.68847583 10 13 C10.66 12.67 11.32 12.34 12 12 C11.01 11.01 10.02 10.02 9 9 C10 6 10 6 12.75 4.1875 C16 3 16 3 18.875 3.8125 C19.57625 4.204375 20.2775 4.59625 21 5 C21.65508505 9.44450009 22.14333741 13.23119027 21.3125 17.6875 C20.90353734 22.02250417 22.33239928 23.6857082 25 27 C26.32 26.67 27.64 26.34 29 26 C29 24.68 29 23.36 29 22 C28.34 21.67 27.68 21.34 27 21 C27 21.66 27 22.32 27 23 C26.34 23 25.68 23 25 23 C24.67 23.66 24.34 24.32 24 25 C23.67 23.02 23.34 21.04 23 19 C23.99 19.33 24.98 19.66 26 20 C26.495 18.515 26.495 18.515 27 17 C27 17.66 27 18.32 27 19 C27.66 18.67 28.32 18.34 29 18 C28.195625 17.05125 27.39125 16.1025 26.5625 15.125 C23.36557514 11.35426812 22.58687842 9.06073931 23 4 C24.66273336 1.46214383 25.73355011 1.0681616 28.6875 0.3125 C29.450625 0.209375 30.21375 0.10625 31 0 C31.495 1.485 31.495 1.485 32 3 C32.66 3.66 33.32 4.32 34 5 C34 6.32 34 7.64 34 9 C33.34 9 32.68 9 32 9 C31.67 9.66 31.34 10.32 31 11 C30.01 10.67 29.02 10.34 28 10 C28 7.69 28 5.38 28 3 C27.34 3.33 26.68 3.66 26 4 C25.39291094 8.65327164 25.39291094 8.65327164 27.3359375 12.7421875 C27.88507813 13.30164063 28.43421875 13.86109375 29 14.4375 C31.50686018 17.05669589 32.44648771 18.59109691 32.5 22.25 C32 26 32 26 30 29 C26.375 29.1875 26.375 29.1875 23 29 C23 29.99 23 30.98 23 32 C24.32 31.67 25.64 31.34 27 31 C29 34 29 34 28.75 37 C28 40 28 40 26 43 C25.36707617 45.11280345 25.36707617 45.11280345 25 47 C24.67 46.34 24.34 45.68 24 45 C23.01 45.99 22.02 46.98 21 48 C20.01 47.01 19.02 46.02 18 45 C18.33 44.01 18.66 43.02 19 42 C20.32 42 21.64 42 23 42 C23.33 40.35 23.66 38.7 24 37 C22.35 38.32 20.7 39.64 19 41 C18.34 40.67 17.68 40.34 17 40 C17.33 37.69 17.66 35.38 18 33 C16.68 33 15.36 33 14 33 C14 34.32 14 35.64 14 37 C14.66 37.33 15.32 37.66 16 38 C13.2540274 39.3729863 11.0410953 39.12412634 8 39 C7.01 38.67 6.02 38.34 5 38 C4.67 38.66 4.34 39.32 4 40 C3.34 40 2.68 40 2 40 C2 39.01 2 38.02 2 37 C1.01 36.67 0.02 36.34 -1 36 C-0.34 34.68 0.32 33.36 1 32 C1.99 32 2.98 32 4 32 C4.33 32.66 4.66 33.32 5 34 C7.52733235 34.65555119 7.52733235 34.65555119 10 35 C10 34.01 10 33.02 10 32 C9.360625 31.896875 8.72125 31.79375 8.0625 31.6875 C7.0415625 31.3471875 7.0415625 31.3471875 6 31 C5.67 30.01 5.34 29.02 5 28 C6.32 27.34 7.64 26.68 9 26 C9 26.66 9 27.32 9 28 C10.98 27.34 12.96 26.68 15 26 C12.05613377 24.52806688 9.62609964 25.15063827 6.375 25.4375 C5.18648437 25.53933594 3.99796875 25.64117187 2.7734375 25.74609375 C1.40058594 25.87177734 1.40058594 25.87177734 0 26 C-0.33 27.32 -0.66 28.64 -1 30 C-1.66 30 -2.32 30 -3 30 C-3 29.01 -3 28.02 -3 27 C-3.99 27.33 -4.98 27.66 -6 28 C-6 26.35 -6 24.7 -6 23 C-3 22 -3 22 -0.5 21.5625 C2.23091369 21.1049928 2.23091369 21.1049928 5 19 C4.21681311 15.08406554 2.60820142 11.63593365 1 8 C-0.32 8 -1.64 8 -3 8 C-3 4 -3 4 -2 1 C-1.34 0.67 -0.68 0.34 0 0 Z " fill="#D03420" transform="translate(214,52)"/>
<path d="M0 0 C1.051875 0.5878125 1.051875 0.5878125 2.125 1.1875 C3.66999151 12.09751698 3.66999151 12.09751698 1.125 17.1875 C-3.79627034 17.35432272 -7.37843896 17.43578052 -11.875 15.1875 C-11.875 13.5375 -11.875 11.8875 -11.875 10.1875 C-10.225 9.8575 -8.575 9.5275 -6.875 9.1875 C-6.875 8.5275 -6.875 7.8675 -6.875 7.1875 C-7.865 6.5275 -8.855 5.8675 -9.875 5.1875 C-8.875 2.1875 -8.875 2.1875 -6.125 0.375 C-2.875 -0.8125 -2.875 -0.8125 0 0 Z " fill="#D82715" transform="translate(232.875,55.8125)"/>
<path d="M0 0 C0.33 0.99 0.66 1.98 1 3 C1.66 3.66 2.32 4.32 3 5 C3 6.32 3 7.64 3 9 C2.34 9 1.68 9 1 9 C0.67 9.66 0.34 10.32 0 11 C-0.99 10.67 -1.98 10.34 -3 10 C-3 7.69 -3 5.38 -3 3 C-3.99 3.495 -3.99 3.495 -5 4 C-5.60708906 8.65327164 -5.60708906 8.65327164 -3.6640625 12.7421875 C-3.11492187 13.30164063 -2.56578125 13.86109375 -2 14.4375 C0.50686018 17.05669589 1.44648771 18.59109691 1.5 22.25 C1 26 1 26 -1 29 C-4.625 29.1875 -4.625 29.1875 -8 29 C-8.33 29.99 -8.66 30.98 -9 32 C-9 30.68 -9 29.36 -9 28 C-6.69 27.34 -4.38 26.68 -2 26 C-2 24.68 -2 23.36 -2 22 C-2.66 21.67 -3.32 21.34 -4 21 C-4 21.66 -4 22.32 -4 23 C-4.66 23 -5.32 23 -6 23 C-6.33 23.66 -6.66 24.32 -7 25 C-7.33 23.02 -7.66 21.04 -8 19 C-7.01 19.33 -6.02 19.66 -5 20 C-4.67 19.01 -4.34 18.02 -4 17 C-4 17.66 -4 18.32 -4 19 C-3.34 18.67 -2.68 18.34 -2 18 C-2.804375 17.05125 -3.60875 16.1025 -4.4375 15.125 C-7.63442486 11.35426812 -8.41312158 9.06073931 -8 4 C-5.90454944 1.10628256 -3.64074429 0 0 0 Z " fill="#BC412C" transform="translate(245,52)"/>
<path d="M0 0 C2.69893922 0.83421758 4.69191007 1.45762711 7 3 C8.3125 6.1875 8.3125 6.1875 8 10 C6.29282977 12.94126919 4.26607317 15.47119371 2 18 C2.66 18.33 3.32 18.66 4 19 C4.33 18.34 4.66 17.68 5 17 C5 17.99 5 18.98 5 20 C5.99 19.67 6.98 19.34 8 19 C7.67 20.98 7.34 22.96 7 25 C6.67 24.34 6.34 23.68 6 23 C5.34 23 4.68 23 4 23 C4 22.34 4 21.68 4 21 C3.34 21.33 2.68 21.66 2 22 C2 23.32 2 24.64 2 26 C3.32 26.66 4.64 27.32 6 28 C4.35 28.33 2.7 28.66 1 29 C-1.01910591 26.81263527 -1.94678441 25.22882706 -2.625 22.3125 C-1.78838737 17.87845307 0.58098797 15.65348008 3.44140625 12.2578125 C5.73417013 8.93646532 5.58215632 6.90876386 5 3 C4.34 3 3.68 3 3 3 C3 5.31 3 7.62 3 10 C2.01 10.33 1.02 10.66 0 11 C0 10.34 0 9.68 0 9 C-0.99 8.67 -1.98 8.34 -3 8 C-3 6.68 -3 5.36 -3 4 C-2.34 3.67 -1.68 3.34 -1 3 C-0.67 2.01 -0.34 1.02 0 0 Z " fill="#B65842" transform="translate(9,52)"/>
<path d="M0 0 C2 4 2 4 2.875 6 C4.2412336 8.42885973 5.97151925 10.1067513 8 12 C7.67 12.66 7.34 13.32 7 14 C6.01 14 5.02 14 4 14 C3.01 14.495 3.01 14.495 2 15 C2.33 15.66 2.66 16.32 3 17 C3.66 17 4.32 17 5 17 C5 16.34 5 15.68 5 15 C5.99 15.33 6.98 15.66 8 16 C7.67 17.65 7.34 19.3 7 21 C5.68 21.33 4.36 21.66 3 22 C-1.68604651 16.55813953 -1.68604651 16.55813953 -2 13 C-1.7397104 10.65739357 -1.40047444 8.32275177 -1 6 C-0.814375 4.865625 -0.62875 3.73125 -0.4375 2.5625 C-0.293125 1.716875 -0.14875 0.87125 0 0 Z " fill="#F0E7D5" transform="translate(236,58)"/>
<path d="M0 0 C0.99 0.33 1.98 0.66 3 1 C2.34 1 1.68 1 1 1 C1 1.89203125 1 2.7840625 1 3.703125 C1 19.27586207 1 19.27586207 -2 23 C-4.6875 23.3125 -4.6875 23.3125 -7 23 C-7.33 21.35 -7.66 19.7 -8 18 C-7.01 17.67 -6.02 17.34 -5 17 C-5 17.66 -5 18.32 -5 19 C-4.34 19 -3.68 19 -3 19 C-2.67 18.01 -2.34 17.02 -2 16 C-4.97 15.505 -4.97 15.505 -8 15 C-6.58374667 12.57213715 -5.20410178 10.25308621 -3.4375 8.0625 C-1.66202083 5.51507337 -0.87548152 2.96316821 0 0 Z " fill="#F1E9D6" transform="translate(18,56)"/>
<path d="M0 0 C0.99 0 1.98 0 3 0 C3.33 1.65 3.66 3.3 4 5 C3.01 5 2.02 5 1 5 C0.67 5.99 0.34 6.98 0 8 C-0.66 7.34 -1.32 6.68 -2 6 C-3.3303125 6.556875 -3.3303125 6.556875 -4.6875 7.125 C-8.40826005 8.10784228 -9.67438135 7.76062164 -13 6 C-13 6.66 -13 7.32 -13 8 C-15.86724686 7.42655063 -16.8614515 7.1385485 -19 5 C-17.68 5 -16.36 5 -15 5 C-14.67 3.68 -14.34 2.36 -14 1 C-13.01 1.2165625 -13.01 1.2165625 -12 1.4375 C-8.34400449 2.12299916 -4.69377805 2.56175515 -1 3 C-0.67 2.01 -0.34 1.02 0 0 Z " fill="#AF4B33" transform="translate(36,84)"/>
<path d="M0 0 C0.66 0.33 1.32 0.66 2 1 C2 1.66 2 2.32 2 3 C2.99 3.33 3.98 3.66 5 4 C4.67 5.65 4.34 7.3 4 9 C3.67 8.34 3.34 7.68 3 7 C-0.11785113 7.64644661 -0.11785113 7.64644661 -1 10 C-2.98 10 -4.96 10 -7 10 C-6 7 -6 7 -3 5 C-3 4.34 -3 3.68 -3 3 C-3.66 3 -4.32 3 -5 3 C-7.67113987 2.69963086 -10.33399642 2.34400046 -13 2 C-9.20466546 -2.12536363 -5.02534366 -1.04775505 0 0 Z " fill="#F9F9EE" transform="translate(36,77)"/>
<path d="M0 0 C0.96392528 2.99887865 1.35886391 5.08814875 0 8 C-4.17655714 10.53124675 -8.27433194 10.16019214 -13 10 C-13 8.35 -13 6.7 -13 5 C-10.69 5.66 -8.38 6.32 -6 7 C-6 5.68 -6 4.36 -6 3 C-4.02 2.01 -2.04 1.02 0 0 Z " fill="#AC2114" transform="translate(33,63)"/>
<path d="M0 0 C0.66 0 1.32 0 2 0 C2 0.66 2 1.32 2 2 C2.66 2.33 3.32 2.66 4 3 C4.33 2.34 4.66 1.68 5 1 C5 1.99 5 2.98 5 4 C5.99 3.67 6.98 3.34 8 3 C7.67 4.98 7.34 6.96 7 9 C6.67 8.34 6.34 7.68 6 7 C5.34 7 4.68 7 4 7 C4 6.34 4 5.68 4 5 C3.01 5.495 3.01 5.495 2 6 C2 7.32 2 8.64 2 10 C3.32 10.66 4.64 11.32 6 12 C4.35 12.33 2.7 12.66 1 13 C-1.24510613 10.56780169 -1.97120564 9.28218472 -2.3125 5.9375 C-2 3 -2 3 0 0 Z " fill="#C24C35" transform="translate(9,68)"/>
<path d="M0 0 C2.0625 0.4375 2.0625 0.4375 4 1 C4 3.64 4 6.28 4 9 C5.32 9.33 6.64 9.66 8 10 C7.34 11.32 6.68 12.64 6 14 C5.01 13.34 4.02 12.68 3 12 C2.34 12.66 1.68 13.32 1 14 C0.21994942 11.11116862 -0.28113892 8.28444222 -0.625 5.3125 C-0.76808594 4.13107422 -0.76808594 4.13107422 -0.9140625 2.92578125 C-0.94242188 2.29027344 -0.97078125 1.65476562 -1 1 C-0.67 0.67 -0.34 0.34 0 0 Z " fill="#D42714" transform="translate(13,85)"/>
<path d="M0 0 C1.32 0 2.64 0 4 0 C3.30058404 3.14737182 2.23921302 6.02588876 1 9 C1.66 9.33 2.32 9.66 3 10 C0.26094655 11.36952673 -1.97087332 11.12621361 -5 11 C-5.66 10.67 -6.32 10.34 -7 10 C-7 9.34 -7 8.68 -7 8 C-5.35 8 -3.7 8 -2 8 C-2.04125 7.05125 -2.0825 6.1025 -2.125 5.125 C-2 2 -2 2 0 0 Z " fill="#D33421" transform="translate(227,80)"/>
<path d="M0 0 C0.680625 0.391875 1.36125 0.78375 2.0625 1.1875 C3.466624 11.10277563 3.466624 11.10277563 2.0625 15.1875 C1.4025 15.5175 0.7425 15.8475 0.0625 16.1875 C-0.02083357 11.3541528 0.10988513 6.95057437 1.0625 2.1875 C-0.5875 2.5175 -2.2375 2.8475 -3.9375 3.1875 C-3.9375 4.1775 -3.9375 5.1675 -3.9375 6.1875 C-5.5875 6.1875 -7.2375 6.1875 -8.9375 6.1875 C-9.2675 4.8675 -9.5975 3.5475 -9.9375 2.1875 C-3.66057692 -1.0125 -3.66057692 -1.0125 0 0 Z " fill="#9B553F" transform="translate(232.9375,55.8125)"/>
<path d="M0 0 C1 3 1 3 -0.375 5.9375 C-0.91125 6.948125 -1.4475 7.95875 -2 9 C-2.68636625 11.23525035 -2.68636625 11.23525035 -3 13 C-3.33 12.34 -3.66 11.68 -4 11 C-4.99 11.99 -5.98 12.98 -7 14 C-7.99 13.01 -8.98 12.02 -10 11 C-9.67 10.01 -9.34 9.02 -9 8 C-7.68 8 -6.36 8 -5 8 C-4.67 6.35 -4.34 4.7 -4 3 C-3.67 3.66 -3.34 4.32 -3 5 C-2.34 5 -1.68 5 -1 5 C-0.67 3.35 -0.34 1.7 0 0 Z " fill="#AB4E36" transform="translate(242,86)"/>
<path d="M0 0 C0 0.66 0 1.32 0 2 C-0.99 2 -1.98 2 -3 2 C-3 2.66 -3 3.32 -3 4 C-0.03 4 2.94 4 6 4 C6 5.32 6 6.64 6 8 C1.07872966 8.16682272 -2.50343896 8.24828052 -7 6 C-7 4.35 -7 2.7 -7 1 C-2.25 0 -2.25 0 0 0 Z " fill="#AC2416" transform="translate(228,65)"/>
<path d="M0 0 C1.9375 0.3125 1.9375 0.3125 4 1 C5 4 5 4 5 8 C3.35 7.67 1.7 7.34 0 7 C-0.33 7.99 -0.66 8.98 -1 10 C-1.99 10 -2.98 10 -4 10 C-3.29445932 6.33118845 -1.72264494 3.29549466 0 0 Z " fill="#AE4C35" transform="translate(38,52)"/>
<path d="M0 0 C0.53625 0.495 1.0725 0.99 1.625 1.5 C-6.125 2.5 -6.125 2.5 -8.375 2.5 C-9.365 2.83 -10.355 3.16 -11.375 3.5 C-11.375 2.84 -11.375 2.18 -11.375 1.5 C-13.025 1.83 -14.675 2.16 -16.375 2.5 C-16.045 1.51 -15.715 0.52 -15.375 -0.5 C-3.7393617 -2.36170213 -3.7393617 -2.36170213 0 0 Z " fill="#E1D6BB" transform="translate(229.375,77.5)"/>
<path d="M0 0 C1.32 0.66 2.64 1.32 4 2 C4 1.34 4 0.68 4 0 C4.99 0.33 5.98 0.66 7 1 C6.67 2.65 6.34 4.3 6 6 C4.68 6.33 3.36 6.66 2 7 C0.4375 5.1875 0.4375 5.1875 -1 3 C-0.67 2.01 -0.34 1.02 0 0 Z " fill="#EADECB" transform="translate(237,73)"/>
<path d="M0 0 C0.66 0 1.32 0 2 0 C2.185625 1.7015625 2.185625 1.7015625 2.375 3.4375 C2.684375 5.2009375 2.684375 5.2009375 3 7 C3.66 7.33 4.32 7.66 5 8 C5.33 7.01 5.66 6.02 6 5 C6 6.32 6 7.64 6 9 C3.625 9.625 3.625 9.625 1 10 C-1 8 -1 8 -1.1875 4.4375 C-1 1 -1 1 0 0 Z " fill="#F3EBD9" transform="translate(240,55)"/>
<path d="M0 0 C0.99 0.33 1.98 0.66 3 1 C3.33 2.65 3.66 4.3 4 6 C1.35261084 7.4606285 0.10551666 8 -3 8 C-3 4 -3 4 -2 1 C-1.34 0.67 -0.68 0.34 0 0 Z " fill="#A05D44" transform="translate(214,52)"/>
<path d="M0 0 C0.66 0.33 1.32 0.66 2 1 C2 4.3 2 7.6 2 11 C1.34 11 0.68 11 0 11 C0 10.34 0 9.68 0 9 C-0.99 8.67 -1.98 8.34 -3 8 C-3 6.68 -3 5.36 -3 4 C-2.34 3.67 -1.68 3.34 -1 3 C-0.67 2.01 -0.34 1.02 0 0 Z " fill="#BB3723" transform="translate(9,52)"/>
<path d="M0 0 C1.65 0.33 3.3 0.66 5 1 C5 2.65 5 4.3 5 6 C4.34 6 3.68 6 3 6 C2.67 6.66 2.34 7.32 2 8 C1.01 7.67 0.02 7.34 -1 7 C-0.67 4.69 -0.34 2.38 0 0 Z " fill="#B83B27" transform="translate(243,55)"/>
<path d="M0 0 C0.99 0 1.98 0 3 0 C4.6875 2 4.6875 2 6 4 C4.625 6 4.625 6 3 8 C2.34 8 1.68 8 1 8 C1 7.01 1 6.02 1 5 C0.01 4.67 -0.98 4.34 -2 4 C-1.34 2.68 -0.68 1.36 0 0 Z " fill="#9C5A41" transform="translate(215,84)"/>
<path d="M0 0 C0.66 0 1.32 0 2 0 C3.33554084 6.43487859 3.33554084 6.43487859 1.8125 9 C0 10 0 10 -2.1875 9.6875 C-2.785625 9.460625 -3.38375 9.23375 -4 9 C-3.67 8.01 -3.34 7.02 -3 6 C-3 6.66 -3 7.32 -3 8 C-2.34 7.67 -1.68 7.34 -1 7 C-0.59270772 4.67843403 -0.25561323 2.3431213 0 0 Z " fill="#F5EEDE" transform="translate(12,55)"/>
<path d="M0 0 C-4.81352742 2.45179671 -7.63124291 3.34218927 -13 2 C-9.16001987 -2.17389144 -5.07563763 -0.9001665 0 0 Z " fill="#EEE6CE" transform="translate(36,77)"/>
<path d="M0 0 C1.4540625 0.0309375 1.4540625 0.0309375 2.9375 0.0625 C3.2675 0.7225 3.5975 1.3825 3.9375 2.0625 C2.9475 3.0525 1.9575 4.0425 0.9375 5.0625 C0.2775 4.4025 -0.3825 3.7425 -1.0625 3.0625 C-1.7225 3.7225 -2.3825 4.3825 -3.0625 5.0625 C-3.625 3.125 -3.625 3.125 -4.0625 1.0625 C-3.0625 0.0625 -3.0625 0.0625 0 0 Z " fill="#9C553F" transform="translate(17.0625,93.9375)"/>
<path d="M0 0 C0.99 0.33 1.98 0.66 3 1 C3 2.66666667 3 4.33333333 3 6 C2.01 5.67 1.02 5.34 0 5 C-0.99 6.485 -0.99 6.485 -2 8 C-2 7.34 -2 6.68 -2 6 C-2.99 5.67 -3.98 5.34 -5 5 C-4.34 4.34 -3.68 3.68 -3 3 C-2.01 3 -1.02 3 0 3 C0 2.01 0 1.02 0 0 Z " fill="#A98569" transform="translate(43,74)"/>
<path d="M0 0 C0.33 0.66 0.66 1.32 1 2 C1.99 2 2.98 2 4 2 C3.01 4.97 2.02 7.94 1 11 C0.34 10.34 -0.32 9.68 -1 9 C-0.70700977 7.32577014 -0.37309899 5.65821773 0 4 C-0.33 3.34 -0.66 2.68 -1 2 C-0.67 1.34 -0.34 0.68 0 0 Z " fill="#BE3F28" transform="translate(33,60)"/>
<path d="M0 0 C0.66 0 1.32 0 2 0 C2 0.99 2 1.98 2 3 C2.99 3.33 3.98 3.66 5 4 C4.67 5.32 4.34 6.64 4 8 C3.34 8 2.68 8 2 8 C2 7.01 2 6.02 2 5 C1.01 5.33 0.02 5.66 -1 6 C-1.042721 4.33388095 -1.04063832 2.66617115 -1 1 C-0.67 0.67 -0.34 0.34 0 0 Z " fill="#9F765B" transform="translate(209,74)"/>
<path d="M0 0 C0.66 0.66 1.32 1.32 2 2 C2.680625 2.33 3.36125 2.66 4.0625 3 C6 4 6 4 7 6 C4.6875 6.6875 4.6875 6.6875 2 7 C0.125 5.8125 0.125 5.8125 -1 4 C-0.6875 1.8125 -0.6875 1.8125 0 0 Z " fill="#E1D7C2" transform="translate(222,59)"/>
<path d="M0 0 C0.66 1.32 1.32 2.64 2 4 C1.01 5.32 0.02 6.64 -1 8 C-2.65 7.67 -4.3 7.34 -6 7 C-5.01 6.67 -4.02 6.34 -3 6 C-3 5.34 -3 4.68 -3 4 C-2.34 3.67 -1.68 3.34 -1 3 C-0.67 2.01 -0.34 1.02 0 0 Z " fill="#E8DFCB" transform="translate(31,58)"/>
<path d="M0 0 C0 0.99 0 1.98 0 3 C-0.66 3 -1.32 3 -2 3 C-2.33 3.66 -2.66 4.32 -3 5 C-3 4.34 -3 3.68 -3 3 C-3.99 3.495 -3.99 3.495 -5 4 C-5.65555119 6.52733235 -5.65555119 6.52733235 -6 9 C-6.66 8.01 -7.32 7.02 -8 6 C-6.98565881 3.46414701 -6.34981128 2.21863205 -4 0.75 C-2 0 -2 0 0 0 Z " fill="#BB6B54" transform="translate(245,52)"/>
<path d="M0 0 C0.66 0.33 1.32 0.66 2 1 C1.34 1.66 0.68 2.32 0 3 C1.32 3.66 2.64 4.32 4 5 C0.33694766 5.74926071 -2.42355152 6.2380014 -6 5 C-6 4.34 -6 3.68 -6 3 C-5.195625 2.690625 -4.39125 2.38125 -3.5625 2.0625 C-1.10919595 1.23664655 -1.10919595 1.23664655 0 0 Z " fill="#BA3923" transform="translate(217,72)"/>
<path d="M0 0 C0.66 0 1.32 0 2 0 C3.404124 9.91527563 3.404124 9.91527563 2 14 C1.01 14.495 1.01 14.495 0 15 C0 10.05 0 5.1 0 0 Z " fill="#B15F46" transform="translate(233,57)"/>
<path d="M0 0 C1.0625 1.875 1.0625 1.875 2 4 C1.67 4.66 1.34 5.32 1 6 C-0.98 6 -2.96 6 -5 6 C-4 3 -4 3 -1 1 C-0.67 0.67 -0.34 0.34 0 0 Z " fill="#EDE1D2" transform="translate(34,81)"/>
<path d="M0 0 C0.66 0.33 1.32 0.66 2 1 C1.87431641 2.01320312 1.87431641 2.01320312 1.74609375 3.046875 C1.64425781 3.93890625 1.54242187 4.8309375 1.4375 5.75 C1.33308594 6.63171875 1.22867187 7.5134375 1.12109375 8.421875 C1.00543324 10.88432451 1.26361305 12.66538064 2 15 C1.01 14.34 0.02 13.68 -1 13 C-1.328125 10.9765625 -1.328125 10.9765625 -1.25 8.625 C-1.23453125 7.85414062 -1.2190625 7.08328125 -1.203125 6.2890625 C-1.00838739 4.0945194 -0.59915017 2.11635304 0 0 Z " fill="#B5694F" transform="translate(19,57)"/>
<path d="M0 0 C0.33 1.32 0.66 2.64 1 4 C-2 6 -2 6 -4.1875 5.625 C-4.785625 5.41875 -5.38375 5.2125 -6 5 C-6 4.34 -6 3.68 -6 3 C-4.02 2.01 -2.04 1.02 0 0 Z " fill="#C12616" transform="translate(33,63)"/>
<path d="M0 0 C1.32 0 2.64 0 4 0 C3.67 2.31 3.34 4.62 3 7 C2.01 6.34 1.02 5.68 0 5 C-0.1875 2.375 -0.1875 2.375 0 0 Z " fill="#ECE3D2" transform="translate(228,85)"/>
<path d="M0 0 C2.5 1.3125 2.5 1.3125 5 3 C5 3.99 5 4.98 5 6 C3.35 6 1.7 6 0 6 C-1 3 -1 3 0 0 Z " fill="#EEE5D4" transform="translate(219,81)"/>
<path d="M0 0 C0.66 0.99 1.32 1.98 2 3 C1.01 4.485 1.01 4.485 0 6 C-3.625 6.1875 -3.625 6.1875 -7 6 C-7.33 6.99 -7.66 7.98 -8 9 C-8 7.68 -8 6.36 -8 5 C-6.865625 4.731875 -5.73125 4.46375 -4.5625 4.1875 C-3.386875 3.795625 -2.21125 3.40375 -1 3 C-0.67 2.01 -0.34 1.02 0 0 Z " fill="#BC4C37" transform="translate(244,75)"/>
<path d="M0 0 C1.89213369 2.38573379 3.02391783 4.07175348 4 7 C6.00016466 8.20882096 6.00016466 8.20882096 8 9 C6.35 9.33 4.7 9.66 3 10 C0.64551835 7.44931155 0.01672076 6.28982642 -0.1875 2.75 C-0.125625 1.8425 -0.06375 0.935 0 0 Z " fill="#C2755F" transform="translate(7,71)"/>
<path d="M0 0 C0.33 0.66 0.66 1.32 1 2 C1.99 2.33 2.98 2.66 4 3 C3.01 3.33 2.02 3.66 1 4 C1 4.66 1 5.32 1 6 C0.34 6 -0.32 6 -1 6 C-1.33 6.66 -1.66 7.32 -2 8 C-2.33 6.02 -2.66 4.04 -3 2 C-2.01 2.33 -1.02 2.66 0 3 C0 2.01 0 1.02 0 0 Z " fill="#B34831" transform="translate(240,69)"/>
<path d="M0 0 C1.32 0.33 2.64 0.66 4 1 C3.67 2.65 3.34 4.3 3 6 C1.68 5.67 0.36 5.34 -1 5 C-0.67 4.34 -0.34 3.68 0 3 C-0.66 2.67 -1.32 2.34 -2 2 C-1.34 2 -0.68 2 0 2 C0 1.34 0 0.68 0 0 Z " fill="#AF7057" transform="translate(31,78)"/>
<path d="M0 0 C0 0.66 0 1.32 0 2 C-3.11771927 3.60339848 -4.39011689 4.18974141 -7.8125 3.125 C-8.534375 2.75375 -9.25625 2.3825 -10 2 C-10 1.67 -10 1.34 -10 1 C-6.56484998 0.37542727 -3.50935186 0 0 0 Z " fill="#AF3922" transform="translate(43,75)"/>
<path d="M0 0 C0.33 0.99 0.66 1.98 1 3 C1.99 2.67 2.98 2.34 4 2 C3.67 3.98 3.34 5.96 3 8 C2.67 7.34 2.34 6.68 2 6 C1.34 6 0.68 6 0 6 C0 5.34 0 4.68 0 4 C-0.66 3.67 -1.32 3.34 -2 3 C-1.34 2.01 -0.68 1.02 0 0 Z " fill="#B04934" transform="translate(13,69)"/>
<path d="M0 0 C0.99 0.33 1.98 0.66 3 1 C2.67 2.32 2.34 3.64 2 5 C0.35 5.33 -1.3 5.66 -3 6 C-3 5.01 -3 4.02 -3 3 C-2.01 3 -1.02 3 0 3 C0 2.01 0 1.02 0 0 Z " fill="#898771" transform="translate(28,57)"/>
<path d="M0 0 C1.32 0 2.64 0 4 0 C4 1.32 4 2.64 4 4 C2.35 4 0.7 4 -1 4 C-0.67 2.68 -0.34 1.36 0 0 Z " fill="#F1E6D6" transform="translate(22,85)"/>
<path d="M0 0 C0.33 0.66 0.66 1.32 1 2 C1.66 2.33 2.32 2.66 3 3 C2.34 3 1.68 3 1 3 C1.33 3.99 1.66 4.98 2 6 C0.0625 5.6875 0.0625 5.6875 -2 5 C-2.33 4.01 -2.66 3.02 -3 2 C-2.01 1.34 -1.02 0.68 0 0 Z " fill="#AF644D" transform="translate(222,78)"/>
<path d="M0 0 C0.94875 0.350625 1.8975 0.70125 2.875 1.0625 C2.875 1.3925 2.875 1.7225 2.875 2.0625 C0.235 2.3925 -2.405 2.7225 -5.125 3.0625 C-5.125 2.0725 -5.125 1.0825 -5.125 0.0625 C-3.125 -0.9375 -3.125 -0.9375 0 0 Z " fill="#F5EDDD" transform="translate(228.125,76.9375)"/>
</svg>
