<svg xmlns="http://www.w3.org/2000/svg" width="256" height="154"><path fill="#0389E0" d="M0 0h256v154H0V0Z"/><path fill="#FAFBFA" d="M256 18v118c-8.831-5.046-17.61-10.118-26.313-15.375-6.979-4.203-13.963-8.393-21-12.5-7.696-4.5-15.318-9.122-22.937-13.75l-1.777-1.079c-2.852-1.733-5.702-3.47-8.55-5.211a675.047 675.047 0 0 0-7.175-4.318l-3.607-2.165-3.28-1.951L159 78v-2c2.174-1.55 2.174-1.55 5.246-3.387l1.677-1.011c1.834-1.103 3.674-2.196 5.514-3.29 1.279-.766 2.557-1.533 3.834-2.301 2.626-1.576 5.254-3.149 7.885-4.717 3.527-2.103 7.048-4.216 10.567-6.333a9383.125 9383.125 0 0 1 15.415-9.247c5.196-3.112 10.388-6.229 15.58-9.346 4.286-2.571 8.572-5.14 12.86-7.708l2.78-1.665 5.286-3.164 2.391-1.433 2.106-1.26C255.267 18 255.267 18 256 18Z"/><path fill="#FCFDFD" d="M127 95c3.679 1.072 6.815 2.971 10.078 4.95l2.982 1.798 3.19 1.94 5.026 3.036c1.742 1.052 3.483 2.107 5.224 3.16 6.564 3.972 13.152 7.901 19.735 11.84 5.06 3.032 10.1 6.095 15.117 9.198a717.758 717.758 0 0 0 13.718 8.254l1.764 1.035a2695.45 2695.45 0 0 0 7.118 4.166c1.771 1.033 3.539 2.072 5.306 3.111l3.13 1.83C222 151 222 151 225 154H31c2.469-2.469 4.186-3.842 7.121-5.54l2.542-1.482 2.775-1.603a1678.32 1678.32 0 0 0 26.687-15.938l7.164-4.359 1.748-1.063c8.297-5.046 16.63-10.03 24.963-15.015 3.688-2.207 7.375-4.416 11.063-6.625l2.582-1.544 2.39-1.433 2.106-1.26c1.644-1.007 3.255-2.068 4.859-3.138ZM31 0h194c-2.833 2.833-5.242 4.468-8.672 6.477l-3.43 2.018-3.648 2.13-3.729 2.192c-2.431 1.431-4.864 2.86-7.297 4.287-3.733 2.195-7.452 4.411-11.161 6.646l-3.422 2.059-1.745 1.05c-3.858 2.322-7.721 4.637-11.583 6.953l-5.098 3.06c-20.567 12.339-20.567 12.339-22.86 13.697a150.704 150.704 0 0 0-4.952 3.15l-2.614 1.695-2.345 1.569c-3.259 1.356-5.07.945-8.444.017-2.494-1.18-2.494-1.18-4.941-2.66l-2.772-1.658-2.85-1.745-2.767-1.662c-6.149-3.702-12.254-7.477-18.364-11.242-5.466-3.362-10.947-6.7-16.431-10.033l-1.782-1.084c-6.91-4.202-13.837-8.37-20.808-12.47l-1.882-1.11a2225.578 2225.578 0 0 0-8.96-5.246l-3.228-1.895-2.84-1.655C34 3 34 3 31 0Z"/><path fill="#FBFBFB" d="M0 18c12.37 6.747 12.37 6.747 17.672 9.988l1.712 1.043c1.79 1.092 3.578 2.187 5.366 3.282a13383.354 13383.354 0 0 0 9.34 5.695c4.125 2.517 8.261 5.014 12.41 7.492a4116.084 4116.084 0 0 1 19.87 11.985l3.694 2.238C78.798 65.009 87.504 70.336 96 76c-1.223 3.67-2.172 3.998-5.426 5.934l-2.82 1.696-3.067 1.808-3.165 1.895C78.352 89.229 75.176 91.115 72 93c-2.45 1.466-4.898 2.936-7.346 4.406a3195.412 3195.412 0 0 0-24.72 14.93C5.89 133.057 5.89 133.057 0 136V18Z"/><path fill="#D2301D" d="M9 52c2.699.834 4.692 1.458 7 3 1.313 3.188 1.313 3.188 1 7-1.707 2.941-3.734 5.471-6 8l2 1 1-2v3l3-1-1 6-1-2h-2v-2l-2 1v4h5l4-7-2-1a535.423 535.423 0 0 1-.063-4.25l-.035-2.39c.096-2.304.347-4.182 1.098-6.36 2.063-1.75 2.063-1.75 4-3l8 4-1 4h-2l-1 3c1.879-.048 1.879-.048 4-1 2.873-3.744 4.975-7.748 7-12 1.938.313 1.938.313 4 1 1 3 1 3 1 7l-5-1a277.676 277.676 0 0 0-1.563 4.25l-.878 2.39c-.619 2.613-.605 3.9.441 6.36 3.435 2.29 4.985 2.178 9 2 .553 2.076 1 3.844 1 6l-3-1-2 3v-2h-3v-2c-1.79-.195-3.583-.38-5.375-.563l-3.023-.316C27.016 76.79 27.016 76.79 25 78l6 2 1-2 3 1-1 5-1.938.375L30 85l-1 2h6l1-3h3l1 5h-3l-1 3-2-2-2.688 1.125c-3.72.983-4.986.636-8.312-1.125v2c-2.169-.506-4-1-6-2v4l4 1-2 4-3-2-2 2c-2.682-5.364-3.315-9.01-3-15h6v-3l-3.313.25C10 81 10 81 8.064 79.375 6.588 76.081 6.32 74.605 7 71c1.716-2.34 3.573-4.524 5.441-6.742C14.734 60.936 14.582 58.908 14 55h-2v7l-3 1v-2l-3-1v-4l2-1 1-3Z"/><path fill="#D03420" d="m214 52 3 1a305.65 305.65 0 0 1 2 5c1.577 2.41 3.278 4.688 5 7l2-1-3-3c1-3 1-3 3.75-4.813C230 55 230 55 232.875 55.813L235 57c.655 4.445 1.143 8.231.313 12.688-.41 4.335 1.02 5.998 3.687 9.312l4-1v-4l-2-1v2h-2l-1 2-1-6 3 1 1-3v2l2-1-2.438-2.875c-3.196-3.77-3.975-6.064-3.562-11.125 1.663-2.538 2.734-2.932 5.688-3.688L245 52l1 3 2 2v4h-2l-1 2-3-1v-7l-2 1c-.607 4.653-.607 4.653 1.336 8.742.55.56 1.098 1.12 1.664 1.695 2.507 2.62 3.446 4.154 3.5 7.813C246 78 246 78 244 81c-3.625.188-3.625.188-7 0v3l4-1c2 3 2 3 1.75 6-.75 3-.75 3-2.75 6-.633 2.113-.633 2.113-1 4l-1-2-3 3-3-3 1-3h4l1-5-5 4-2-1 1-7h-4v4l2 1c-2.746 1.373-4.959 1.124-8 1l-3-1-1 2h-2v-3l-3-1 2-4h3l1 2c2.527.656 2.527.656 5 1v-3l-1.938-.313L220 83l-1-3 4-2v2l6-2c-2.944-1.472-5.374-.85-8.625-.563l-3.602.31L214 78l-1 4h-2v-3l-3 1v-5c3-1 3-1 5.5-1.438 2.73-.457 2.73-.457 5.5-2.562-.783-3.916-2.392-7.364-4-11h-4c0-4 0-4 1-7l2-1Z"/><path fill="#D82715" d="M232.875 55.813 235 57c1.545 10.91 1.545 10.91-1 16-4.921.167-8.503.248-13-2v-5l5-1v-2l-3-2c1-3 1-3 3.75-4.813C230 55 230 55 232.875 55.813Z"/><path fill="#BC412C" d="m245 52 1 3 2 2v4h-2l-1 2-3-1v-7l-2 1c-.607 4.653-.607 4.653 1.336 8.742.55.56 1.098 1.12 1.664 1.695 2.507 2.62 3.446 4.154 3.5 7.813C246 78 246 78 244 81c-3.625.188-3.625.188-7 0l-1 3v-4l7-2v-4l-2-1v2h-2l-1 2-1-6 3 1 1-3v2l2-1-2.438-2.875c-3.196-3.77-3.975-6.064-3.562-11.125 2.095-2.894 4.36-4 8-4Z"/><path fill="#B65842" d="M9 52c2.699.834 4.692 1.458 7 3 1.313 3.188 1.313 3.188 1 7-1.707 2.941-3.734 5.471-6 8l2 1 1-2v3l3-1-1 6-1-2h-2v-2l-2 1v4l4 2-5 1c-2.02-2.187-2.947-3.771-3.625-6.688.837-4.434 3.206-6.659 6.066-10.054C14.734 60.936 14.582 58.908 14 55h-2v7l-3 1v-2l-3-1v-4l2-1 1-3Z"/><path fill="#F0E7D5" d="M236 58c2 4 2 4 2.875 6 1.366 2.429 3.097 4.107 5.125 6l-1 2h-3l-2 1 1 2h2v-2l3 1-1 5-4 1c-4.686-5.442-4.686-5.442-5-9 .26-2.343.6-4.677 1-7l.563-3.438L236 58Z"/><path fill="#F1E9D6" d="m18 56 3 1h-2v2.703C19 75.276 19 75.276 16 79c-2.688.313-2.688.313-5 0l-1-5 3-1v2h2l1-3-6-1c1.416-2.428 2.796-4.747 4.563-6.938C16.337 61.516 17.125 58.963 18 56Z"/><path fill="#AF4B33" d="M36 84h3l1 5h-3l-1 3-2-2-2.688 1.125c-3.72.983-4.986.636-8.312-1.125v2c-2.867-.573-3.861-.861-6-3h4l1-4 2 .438c3.656.685 7.306 1.124 11 1.562l1-3Z"/><path fill="#F9F9EE" d="m36 77 2 1v2l3 1-1 5-1-2c-3.118.646-3.118.646-4 3h-6c1-3 1-3 4-5v-2h-2c-2.671-.3-5.334-.656-8-1 3.795-4.125 7.975-3.048 13-2Z"/><path fill="#AC2114" d="M33 63c.964 2.999 1.359 5.088 0 8-4.177 2.531-8.274 2.16-13 2v-5l7 2v-4l6-3Z"/><path fill="#C24C35" d="M9 68h2v2l2 1 1-2v3l3-1-1 6-1-2h-2v-2l-2 1v4l4 2-5 1c-2.245-2.432-2.971-3.718-3.313-7.063C7 71 7 71 9 68Z"/><path fill="#D42714" d="M13 85c2.063.438 2.063.438 4 1v8l4 1-2 4-3-2-2 2c-.78-2.889-1.281-5.716-1.625-8.688l-.29-2.386C12.059 87.29 12.03 86.655 12 86l1-1Z"/><path fill="#D33421" d="M227 80h4c-.7 3.147-1.76 6.026-3 9l2 1c-2.74 1.37-4.97 1.126-8 1l-2-1v-2h5l-.125-2.875C225 82 225 82 227 80Z"/><path fill="#9B553F" d="M232.938 55.813 235 57c1.404 9.915 1.404 9.915 0 14l-2 1c-.083-4.833.047-9.237 1-14l-5 1v3h-5l-1-4c6.277-3.2 6.277-3.2 9.938-2.188Z"/><path fill="#AB4E36" d="M242 86c1 3 1 3-.375 5.938L240 95c-.686 2.235-.686 2.235-1 4l-1-2-3 3-3-3 1-3h4l1-5 1 2h2l1-5Z"/><path fill="#AC2416" d="M228 65v2h-3v2h9v4c-4.921.167-8.503.248-13-2v-5c4.75-1 4.75-1 7-1Z"/><path fill="#AE4C35" d="M38 52c1.938.313 1.938.313 4 1 1 3 1 3 1 7l-5-1-1 3h-3c.706-3.669 2.277-6.705 4-10Z"/><path fill="#E1D6BB" d="M229.375 77.5 231 79c-7.75 1-7.75 1-10 1l-3 1v-2l-5 1 1-3c11.636-1.862 11.636-1.862 15.375.5Z"/><path fill="#EADECB" d="m237 73 4 2v-2l3 1-1 5-4 1c-1.563-1.813-1.563-1.813-3-4l1-3Z"/><path fill="#F3EBD9" d="M240 55h2l.375 3.438L243 62l2 1 1-3v4c-2.375.625-2.375.625-5 1-2-2-2-2-2.188-5.563C239 56 239 56 240 55Z"/><path fill="#A05D44" d="m214 52 3 1 1 5c-2.647 1.46-3.894 2-7 2 0-4 0-4 1-7l2-1Z"/><path fill="#BB3723" d="m9 52 2 1v10H9v-2l-3-1v-4l2-1 1-3Z"/><path fill="#B83B27" d="m243 55 5 1v5h-2l-1 2-3-1 1-7Z"/><path fill="#9C5A41" d="M215 84h3c1.688 2 1.688 2 3 4-1.375 2-1.375 2-3 4h-2v-3l-3-1 2-4Z"/><path fill="#F5EEDE" d="M12 55h2c1.336 6.435 1.336 6.435-.188 9-1.812 1-1.812 1-4 .688L8 64l1-3v2l2-1c.407-2.322.744-4.657 1-7Z"/><path fill="#EEE6CE" d="M36 77c-4.814 2.452-7.631 3.342-13 2 3.84-4.174 7.924-2.9 13-2Z"/><path fill="#9C553F" d="M17.063 93.938 20 94l1 2-3 3-2-2-2 2c-.563-1.938-.563-1.938-1-4 1-1 1-1 4.063-1.063Z"/><path fill="#A98569" d="m43 74 3 1v5l-3-1-2 3v-2l-3-1 2-2h3v-3Z"/><path fill="#BE3F28" d="m33 60 1 2h3l-3 9-2-2c.293-1.674.627-3.342 1-5l-1-2 1-2Z"/><path fill="#9F765B" d="M209 74h2v3l3 1-1 4h-2v-3l-3 1a99.984 99.984 0 0 1 0-5l1-1Z"/><path fill="#E1D7C2" d="m222 59 2 2 2.063 1C228 63 228 63 229 65c-2.313.688-2.313.688-5 1-1.875-1.188-1.875-1.188-3-3 .313-2.188.313-2.188 1-4Z"/><path fill="#E8DFCB" d="m31 58 2 4-3 4-5-1 3-1v-2l2-1 1-3Z"/><path fill="#BB6B54" d="M245 52v3h-2l-1 2v-2l-2 1c-.656 2.527-.656 2.527-1 5l-2-3c1.014-2.536 1.65-3.781 4-5.25 2-.75 2-.75 4-.75Z"/><path fill="#BA3923" d="m217 72 2 1-2 2 4 2c-3.663.75-6.424 1.238-10 0v-2l2.438-.938c2.453-.825 2.453-.825 3.562-2.062Z"/><path fill="#B15F46" d="M233 57h2c1.404 9.915 1.404 9.915 0 14l-2 1V57Z"/><path fill="#EDE1D2" d="M34 81c1.063 1.875 1.063 1.875 2 4l-1 2h-6c1-3 1-3 4-5l1-1Z"/><path fill="#B5694F" d="m19 57 2 1-.254 2.047-.308 2.703-.317 2.672c-.116 2.462.143 4.243.879 6.578l-3-2c-.328-2.023-.328-2.023-.25-4.375.015-.77.03-1.542.047-2.336.195-2.194.604-4.173 1.203-6.289Z"/><path fill="#C12616" d="m33 63 1 4c-3 2-3 2-5.188 1.625L27 68v-2l6-3Z"/><path fill="#ECE3D2" d="M228 85h4l-1 7-3-2c-.188-2.625-.188-2.625 0-5Z"/><path fill="#EEE5D4" d="M219 81c2.5 1.313 2.5 1.313 5 3v3h-5c-1-3-1-3 0-6Z"/><path fill="#BC4C37" d="m244 75 2 3-2 3c-3.625.188-3.625.188-7 0l-1 3v-4l3.438-.813L243 78l1-3Z"/><path fill="#C2755F" d="M7 71c1.892 2.386 3.024 4.072 4 7 2 1.209 2 1.209 4 2l-5 1c-2.354-2.55-2.983-3.71-3.188-7.25L7 71Z"/><path fill="#B34831" d="m240 69 1 2 3 1-3 1v2h-2l-1 2-1-6 3 1v-3Z"/><path fill="#AF7057" d="m31 78 4 1-1 5-4-1 1-2-2-1h2v-2Z"/><path fill="#AF3922" d="M43 75v2c-3.118 1.603-4.39 2.19-7.813 1.125L33 77v-1c3.435-.625 6.49-1 10-1Z"/><path fill="#B04934" d="m13 69 1 3 3-1-1 6-1-2h-2v-2l-2-1 2-3Z"/><path fill="#898771" d="m28 57 3 1-1 4-5 1v-3h3v-3Z"/><path fill="#F1E6D6" d="M22 85h4v4h-5l1-4Z"/><path fill="#AF644D" d="m222 78 1 2 2 1h-2l1 3c-1.938-.313-1.938-.313-4-1l-1-3 3-2Z"/><path fill="#F5EDDD" d="M228.125 76.938c.949.35 1.898.7 2.875 1.062v1l-8 1v-3c2-1 2-1 5.125-.063Z"/></svg>