<svg xmlns="http://www.w3.org/2000/svg" width="256" height="154"><path fill="#296196" d="M0 0h256v154H0V0Z"/><path fill="#0B824C" d="M142 0h114v63H145V49l-3-6V0Z"/><path d="M0 0h114c0 41 0 41-4 46-2.16 5.797-2.36 10.591-3 17H0V0Z"/><path fill="#0C7F4B" d="M0 91h87v13c1.663 6.164 4.955 9.378 10 13 5.375 2.687 11.99 1 18 1v36H0V91Z"/><path d="M171 91h85v63H142v-39l6 2c4.394.469 8.715.071 13-1l1-3a141.4 141.4 0 0 1 5-5c4.604-3.949 4.604-3.949 4-17Z"/><path fill="#F8F9FA" d="m127.5 41.75 2.281-.016c4 .48 5.861 1.849 8.469 4.891 2.092 4.035 2.662 6.922 1.75 11.375-1.497 2.657-2.847 4.847-5 7-6.462.359-6.462.359-10-2-.188-3.625-.188-3.625 0-7l5-1v3l3-1c.25-2.416.25-2.416 0-5-2.885-2.345-2.885-2.345-6.5-1.875-3.434.598-3.434.598-5.438 2.438-1.52 3.487-1.607 6.73-1.062 10.437 1.677 3.857 3.147 5.443 7 7 2.26.277 2.26.277 4.563.188l2.316-.02c2.31-.097 2.31-.097 5.121-1.168l1.51-2.527c3.36-3.337 5.56-3.062 10.159-3.095l3.158.054 3.342-.002c3.647.004 7.293.043 10.94.082 2.528.009 5.056.016 7.584.021 5.974.017 11.949.057 17.923.107 6.803.056 13.606.083 20.409.108 13.992.053 27.983.144 41.975.252v27h-86l-5-9c-6.072-5.096-10.885-7.21-18.816-7.266-2.205.132-2.205.132-4 1.258-3.195 1.474-6.06 1.348-9.559 1.383l-3.898.086c-5.694-.704-8.498-3.312-12.598-7.145-2.82-4.391-2.653-7.315-2.192-12.379l.112-2.392c.356-4.993 1.178-7.974 4.951-11.545 2.864-1.887 5.097-2.273 8.5-2.25Z"/><path fill="#F9FAFA" d="M0 64h108l6 12a950.926 950.926 0 0 0 6 5c2.998 5.367 4.972 10.843 4 17-1.341 3.855-2.753 7.582-5 11-2.172.82-2.172.82-4 1-.027-1.625-.046-3.25-.063-4.875l-.035-2.742C115 100 115 100 116 98c.537-4.48.628-7.93-1.688-11.875-4.596-4.223-7.864-5.71-14.101-5.473-3.539.557-5.554 2-8.211 4.348l-1.635 3.106C88 91 88 91 84.178 91.722c-1.57.017-3.14.001-4.71-.04l-2.603.002c-2.836-.004-5.67-.051-8.506-.098-1.967-.011-3.934-.02-5.901-.026-5.176-.023-10.35-.082-15.526-.148-5.282-.061-10.564-.089-15.846-.119C20.723 91.229 10.362 91.123 0 91V64Z"/><path fill="#F7F9F9" d="M156.375 81.75c2.94 1.657 5.041 3.181 6.625 6.25v3c-6.53.377-6.53.377-8.875-1.5-3.382-2.387-7.108-1.885-11.125-1.5-3.09.662-3.09.662-4.125 2.938L138 93l-1 2c-.565 6.046-.361 10.756 3 16l1 1c.089 3.103.115 6.183.098 9.285l-.005 2.82c-.005 2.986-.018 5.972-.03 8.957-.006 2.02-.01 4.038-.014 6.057-.01 4.96-.03 9.92-.049 14.881h-26a970.021 970.021 0 0 1-.44-15.96c-.04-1.81-.094-3.619-.164-5.427a327.803 327.803 0 0 1-.177-7.812l-.125-2.44c-.002-2.374.08-4.132.906-6.361 1.926-1.714 3.803-2.84 6.105-3.992 2.607-1.386 3.519-2.97 4.707-5.633.39-.865.78-1.73 1.18-2.621 1.022-2.792 1.754-5.552 2.445-8.442 1.673-6.643 4.792-10.403 10.375-14.25 5.853-1.95 10.926-1.933 16.563.688Z"/><path fill="#F9F9FA" d="M115 0h26v42l-9-4c-5.474-.432-9.014-.346-14 2h-3V0Z"/><path fill="#166E47" d="M142 0h5v57h109v6H145V49l-3-6c-.36-2.354-.36-2.354-.34-4.628v-2.608l.047-2.756.013-2.867c.017-3.005.054-6.01.093-9.016.015-2.044.028-4.089.04-6.133.033-4.997.085-9.995.147-14.992Z"/><path fill="#030805" d="M146 59h110v4H145l1-4Z"/><path d="M0 91h87l-1 4H0v-4Z"/><path fill="#0D7B55" d="M97.816 90.902c1.582.007 3.165.019 4.746.035l2.444.014c1.998.012 3.996.03 5.994.049-.875 7.875-.875 7.875-2 9-1.666.04-3.334.043-5 0l-1-4h2v-2l-1.813 1C101 96 101 96 98 96c1.059 3.403 2.009 6.014 4 9 4.194.27 7.975.342 12-1v7c-3.212 1.906-5.539 2.223-9.25 2.125l-2.703-.055L100 113v-2l-1.938-.813C96 109 96 109 95 106l-2-1c-.027-2.146-.046-4.292-.063-6.438l-.035-3.62c.147-4.416.33-3.922 4.914-4.04Z"/><path fill="#03070E" d="M157 91h7c1.6 3.198 1.362 6.521 1 10-1.867 4.564-4.64 6.779-9 9-4.224.82-7.24.485-10.938-1.875-2.717-2.8-3.024-3.606-3.312-7.563.25-3.562.25-3.562 1.375-5.5 2.66-1.507 4.877-1.262 7.875-1.062l2 4-5 1 1 5 7 1c1.999-4.122 2.258-7.445 2-12l-1-2Z"/><path fill="#040F0A" d="M142 0h4v49c-2.494-2.494-3.837-4.57-4.24-8.113l.013-2.288V35.99l.032-2.788.008-2.875c.011-3.026.037-6.052.062-9.078.01-2.053.02-4.107.027-6.16.022-5.03.057-10.06.098-15.09Z"/><path fill="#020201" d="M111 119h3v35h-3v-35Z"/><path fill="#48494A" d="m141 113 8 2c3.353.238 3.353.238 6.5.125l3.156-.055L161 115c-3.287 3.287-6.378 3.134-10.867 3.23C148 118 148 118 143 116l-1 38h-1v-41Z"/><path fill="#D4DCE1" d="M106 86c2.438 1.375 2.438 1.375 4 3v2H95c2.87-5.742 4.814-5.427 11-5Z"/><path fill="#02060C" d="M94 91h17v5h-5l-1-3h-5l-1 2h-6l1-4Z"/><path fill="#154B72" d="M100 92h5l1 4h4l-1 4h-5l-1-4h2v-2l-6 2 1-4Z"/><path fill="#143A63" d="m142 114 2.75.5c5.388.789 10.82.58 16.25.5-2.863 2.863-4.787 2.986-8.813 3.25-4.002-.03-6.735-1.179-10.187-3.25v-1Z"/><path fill="#08181D" d="M114 104v7l-4 1v-7c2-1 2-1 4-1Z"/><path fill="#041013" d="M108.563 90.938 111 91v5h-5c-.563-1.938-.563-1.938-1-4 1-1 1-1 3.563-1.063Z"/><path fill="#117B5A" d="m110 96-1 4h-5v-3c2-1 2-1 6-1Z"/><path fill="#0D213A" d="m151 95 2 1-1 3h-4l-1 4v-5l4-1v-2Z"/><path fill="#C6D6E1" d="M126 55h4l-1 3h-2v5h-2c-.042-2.333-.04-4.667 0-7l1-1Z"/></svg>