<?xml version="1.0" encoding="UTF-8"?>
<svg version="1.1" xmlns="http://www.w3.org/2000/svg" width="256" height="154">
<path d="M0 0 C84.48 0 168.96 0 256 0 C256 50.82 256 101.64 256 154 C171.52 154 87.04 154 0 154 C0 103.18 0 52.36 0 0 Z " fill="#296196" transform="translate(0,0)"/>
<path d="M0 0 C37.62 0 75.24 0 114 0 C114 20.79 114 41.58 114 63 C77.37 63 40.74 63 3 63 C3 58.38 3 53.76 3 49 C2.01 47.02 1.02 45.04 0 43 C0 28.81 0 14.62 0 0 Z " fill="#0B824C" transform="translate(142,0)"/>
<path d="M0 0 C37.62 0 75.24 0 114 0 C114 41 114 41 110 46 C107.84040831 51.79679873 107.64088718 56.59112821 107 63 C71.69 63 36.38 63 0 63 C0 42.21 0 21.42 0 0 Z " fill="#000000" transform="translate(0,0)"/>
<path d="M0 0 C28.71 0 57.42 0 87 0 C87 4.29 87 8.58 87 13 C88.66324153 19.16377743 91.9554528 22.37765045 97 26 C102.3748385 28.68741925 108.99074787 27 115 27 C115 38.88 115 50.76 115 63 C77.05 63 39.1 63 0 63 C0 42.21 0 21.42 0 0 Z " fill="#0C7F4B" transform="translate(0,91)"/>
<path d="M0 0 C28.05 0 56.1 0 85 0 C85 20.79 85 41.58 85 63 C47.38 63 9.76 63 -29 63 C-29 50.13 -29 37.26 -29 24 C-27.02 24.66 -25.04 25.32 -23 26 C-18.60576295 26.46882457 -14.28522235 26.07130559 -10 25 C-9.67 24.01 -9.34 23.02 -9 22 C-7.37660195 20.29115995 -5.70680947 18.62553283 -4 17 C0.60374016 13.05119037 0.60374016 13.05119037 0 0 Z " fill="#000000" transform="translate(171,91)"/>
<path d="M0 0 C0.7528125 -0.00515625 1.505625 -0.0103125 2.28125 -0.015625 C6.28141491 0.46326798 8.14243889 1.83284537 10.75 4.875 C12.8420371 8.90964297 13.41185678 11.79695186 12.5 16.25 C11.00251293 18.90683189 9.65347249 21.09652751 7.5 23.25 C1.03846154 23.60897436 1.03846154 23.60897436 -2.5 21.25 C-2.6875 17.625 -2.6875 17.625 -2.5 14.25 C-0.85 13.92 0.8 13.59 2.5 13.25 C2.5 14.24 2.5 15.23 2.5 16.25 C3.49 15.92 4.48 15.59 5.5 15.25 C5.75030977 12.83380177 5.75030977 12.83380177 5.5 10.25 C2.61487022 7.90477065 2.61487022 7.90477065 -1 8.375 C-4.43440462 8.97315451 -4.43440462 8.97315451 -6.4375 10.8125 C-7.95776279 14.30016169 -8.04525611 17.54373214 -7.5 21.25 C-5.82305439 25.10697491 -4.35333858 26.69344492 -0.5 28.25 C1.75919792 28.52664195 1.75919792 28.52664195 4.0625 28.4375 C5.20912109 28.42783203 5.20912109 28.42783203 6.37890625 28.41796875 C8.68897716 28.32053505 8.68897716 28.32053505 11.5 27.25 C11.99856506 26.41608231 12.49713013 25.58216461 13.01080322 24.72297668 C16.36999948 21.3856696 18.56996075 21.66095304 23.16880798 21.62789917 C24.21106033 21.64587555 25.25331268 21.66385193 26.32714844 21.68237305 C27.42988602 21.68164291 28.5326236 21.68091278 29.66877747 21.68016052 C33.3161425 21.68364581 36.96223287 21.72255428 40.609375 21.76171875 C43.1371389 21.77104345 45.66491183 21.77816118 48.19268799 21.78315735 C54.16748419 21.80030171 60.14173268 21.83971301 66.1163094 21.8899048 C72.91910997 21.94581252 79.72193253 21.97328822 86.52490568 21.99838197 C100.51690386 22.05063018 114.5083243 22.14231565 128.5 22.25 C128.5 31.16 128.5 40.07 128.5 49.25 C100.12 49.25 71.74 49.25 42.5 49.25 C40.85 46.28 39.2 43.31 37.5 40.25 C31.42774026 35.15363915 26.6148324 33.03935759 18.68359375 32.984375 C16.4793138 33.11590689 16.4793138 33.11590689 14.68359375 34.2421875 C11.48929649 35.71647854 8.62412355 35.59007861 5.125 35.625 C3.83851563 35.65335938 2.55203125 35.68171875 1.2265625 35.7109375 C-4.46728509 35.00666704 -7.2708203 32.39890674 -11.37109375 28.56640625 C-14.19012556 24.17492366 -14.02355621 21.25081099 -13.5625 16.1875 C-13.52576172 15.39794922 -13.48902344 14.60839844 -13.45117188 13.79492188 C-13.09542903 8.80196637 -12.27319218 5.82069529 -8.5 2.25 C-5.63551571 0.36307781 -3.40341635 -0.02331107 0 0 Z " fill="#F8F9FA" transform="translate(127.5,41.75)"/>
<path d="M0 0 C35.64 0 71.28 0 108 0 C109.98 3.96 111.96 7.92 114 12 C115.99344872 13.67449693 117.99286541 15.3419323 120 17 C122.99791562 22.36663908 124.97217628 27.84288358 124 34 C122.6585627 37.85464394 121.24728336 41.58176372 119 45 C116.828125 45.8203125 116.828125 45.8203125 115 46 C114.97301811 44.37509046 114.95361243 42.75005367 114.9375 41.125 C114.92589844 40.22007813 114.91429688 39.31515625 114.90234375 38.3828125 C115 36 115 36 116 34 C116.53689962 29.51996876 116.62791658 26.0697838 114.3125 22.125 C109.71637127 17.90153036 106.44789799 16.41405456 100.2109375 16.65234375 C96.67205074 17.20881181 94.6566077 18.65230017 92 21 C91.46054749 22.02493561 90.92109497 23.04987122 90.36529541 24.10586548 C88 27 88 27 84.17816162 27.7215271 C82.60807053 27.73888777 81.03740189 27.72303256 79.46777344 27.68115234 C78.17942596 27.68246658 78.17942596 27.68246658 76.86505127 27.68380737 C74.02889737 27.67963042 71.19511509 27.632975 68.359375 27.5859375 C66.39212333 27.57474571 64.42485494 27.56620544 62.45758057 27.56021118 C57.28187823 27.53731158 52.1071876 27.47837824 46.93188477 27.4119873 C41.65004157 27.35058937 36.36803476 27.32320147 31.0859375 27.29296875 C20.7234425 27.22863595 10.36196369 27.12310119 0 27 C0 18.09 0 9.18 0 0 Z " fill="#F9FAFA" transform="translate(0,64)"/>
<path d="M0 0 C2.9400003 1.65741053 5.04112176 3.18123591 6.625 6.25 C6.625 7.24 6.625 8.23 6.625 9.25 C0.09585202 9.62668161 0.09585202 9.62668161 -2.25 7.75 C-5.63182418 5.36282999 -9.35756284 5.86527305 -13.375 6.25 C-16.4645946 6.91229729 -16.4645946 6.91229729 -17.5 9.1875 C-17.933125 10.2084375 -17.933125 10.2084375 -18.375 11.25 C-18.705 11.91 -19.035 12.57 -19.375 13.25 C-19.94042925 19.29574354 -19.73631658 24.00634613 -16.375 29.25 C-16.045 29.58 -15.715 29.91 -15.375 30.25 C-15.28625865 33.35251201 -15.25981545 36.4326812 -15.27734375 39.53515625 C-15.2787587 40.46597519 -15.28017365 41.39679413 -15.28163147 42.3558197 C-15.28724828 45.34141191 -15.2998036 48.32693029 -15.3125 51.3125 C-15.31751284 53.33137913 -15.32207612 55.35025943 -15.32617188 57.36914062 C-15.33637413 62.32947871 -15.35594618 67.2896563 -15.375 72.25 C-23.955 72.25 -32.535 72.25 -41.375 72.25 C-41.55901652 66.92629976 -41.7180586 61.61365815 -41.81445312 56.28930664 C-41.85462739 54.48000686 -41.90918125 52.67096592 -41.97851562 50.86254883 C-42.07585601 48.25797789 -42.12097932 45.65684208 -42.15625 43.05078125 C-42.19754028 42.24538406 -42.23883057 41.43998688 -42.28137207 40.61018372 C-42.28325762 38.2373266 -42.20007049 36.47886897 -41.375 34.25 C-39.44853197 32.53644857 -37.57236874 31.41093802 -35.27033997 30.25788879 C-32.66327965 28.87152702 -31.75145008 27.28789195 -30.5625 24.625 C-30.17320313 23.76003906 -29.78390625 22.89507812 -29.3828125 22.00390625 C-28.36117651 19.21222652 -27.62910605 16.45214136 -26.9375 13.5625 C-25.26476494 6.91854671 -22.14585745 3.15881291 -16.5625 -0.6875 C-10.7098497 -2.63838343 -5.63669707 -2.6214786 0 0 Z " fill="#F7F9F9" transform="translate(156.375,81.75)"/>
<path d="M0 0 C8.58 0 17.16 0 26 0 C26 13.86 26 27.72 26 42 C21.545 40.02 21.545 40.02 17 38 C11.52604305 37.5678455 7.98574752 37.65376587 3 40 C2.01 40 1.02 40 0 40 C0 26.8 0 13.6 0 0 Z " fill="#F9F9FA" transform="translate(115,0)"/>
<path d="M0 0 C1.65 0 3.3 0 5 0 C5 18.81 5 37.62 5 57 C40.97 57 76.94 57 114 57 C114 58.98 114 60.96 114 63 C77.37 63 40.74 63 3 63 C3 58.38 3 53.76 3 49 C2.01 47.02 1.02 45.04 0 43 C-0.36076355 40.64602661 -0.36076355 40.64602661 -0.34057617 38.37158203 C-0.34034958 37.51114288 -0.34012299 36.65070374 -0.33988953 35.76419067 C-0.32440567 34.85458588 -0.30892181 33.94498108 -0.29296875 33.0078125 C-0.28872391 32.06187225 -0.28447906 31.11593201 -0.28010559 30.1413269 C-0.26338306 27.13558867 -0.22574263 24.1305338 -0.1875 21.125 C-0.17244486 19.08073889 -0.15875791 17.03646721 -0.14648438 14.9921875 C-0.11350055 9.99453046 -0.06176253 4.99738089 0 0 Z " fill="#166E47" transform="translate(142,0)"/>
<path d="M0 0 C36.3 0 72.6 0 110 0 C110 1.32 110 2.64 110 4 C73.37 4 36.74 4 -1 4 C-0.67 2.68 -0.34 1.36 0 0 Z " fill="#030805" transform="translate(146,59)"/>
<path d="M0 0 C28.71 0 57.42 0 87 0 C86.67 1.32 86.34 2.64 86 4 C57.62 4 29.24 4 0 4 C0 2.68 0 1.36 0 0 Z " fill="#000000" transform="translate(0,91)"/>
<path d="M0 0 C1.58206057 0.00667536 3.16410534 0.0186375 4.74609375 0.03515625 C5.55240234 0.03966797 6.35871094 0.04417969 7.18945312 0.04882812 C9.18753131 0.06065107 11.18557158 0.07858711 13.18359375 0.09765625 C12.30859375 7.97265625 12.30859375 7.97265625 11.18359375 9.09765625 C9.5174226 9.13829457 7.8497128 9.14037725 6.18359375 9.09765625 C5.85359375 7.77765625 5.52359375 6.45765625 5.18359375 5.09765625 C5.84359375 5.09765625 6.50359375 5.09765625 7.18359375 5.09765625 C7.18359375 4.43765625 7.18359375 3.77765625 7.18359375 3.09765625 C6.58546875 3.42765625 5.98734375 3.75765625 5.37109375 4.09765625 C3.18359375 5.09765625 3.18359375 5.09765625 0.18359375 5.09765625 C1.24234449 8.50078363 2.19261529 11.11118856 4.18359375 14.09765625 C8.37801425 14.36826402 12.15902059 14.43918064 16.18359375 13.09765625 C16.18359375 15.40765625 16.18359375 17.71765625 16.18359375 20.09765625 C12.97177226 22.00373723 10.64476772 22.32031872 6.93359375 22.22265625 C6.0415625 22.20460938 5.14953125 22.1865625 4.23046875 22.16796875 C3.555 22.14476563 2.87953125 22.1215625 2.18359375 22.09765625 C2.18359375 21.43765625 2.18359375 20.77765625 2.18359375 20.09765625 C1.54421875 19.82953125 0.90484375 19.56140625 0.24609375 19.28515625 C-1.81640625 18.09765625 -1.81640625 18.09765625 -2.81640625 15.09765625 C-3.47640625 14.76765625 -4.13640625 14.43765625 -4.81640625 14.09765625 C-4.84326563 11.95188988 -4.86273713 9.8060298 -4.87890625 7.66015625 C-4.89050781 6.46519531 -4.90210937 5.27023438 -4.9140625 4.0390625 C-4.76748251 -0.37592684 -4.58410302 0.11730049 0 0 Z " fill="#0D7B55" transform="translate(97.81640625,90.90234375)"/>
<path d="M0 0 C2.31 0 4.62 0 7 0 C8.5991006 3.1982012 8.36195151 6.5212438 8 10 C6.13277421 14.56432971 3.36045847 16.77863437 -1 19 C-5.22358634 19.81987264 -8.24068866 19.48466682 -11.9375 17.125 C-14.6551732 14.32497307 -14.96228257 13.51861473 -15.25 9.5625 C-15 6 -15 6 -13.875 4.0625 C-11.214973 2.55515137 -8.99793795 2.80013747 -6 3 C-5.34 4.32 -4.68 5.64 -4 7 C-5.65 7.33 -7.3 7.66 -9 8 C-8.67 9.65 -8.34 11.3 -8 13 C-5.69 13.33 -3.38 13.66 -1 14 C0.99851462 9.8780636 1.25785684 6.55547083 1 2 C0.67 1.34 0.34 0.68 0 0 Z " fill="#03070E" transform="translate(157,91)"/>
<path d="M0 0 C1.32 0 2.64 0 4 0 C4 16.17 4 32.34 4 49 C1.50628242 46.50628242 0.16262975 44.429103 -0.24050903 40.88653564 C-0.23606781 40.13152771 -0.23162659 39.37651978 -0.22705078 38.59863281 C-0.22689972 37.7380426 -0.22674866 36.87745239 -0.22659302 35.99078369 C-0.21627045 35.07085632 -0.20594788 34.15092896 -0.1953125 33.203125 C-0.1924826 32.25435486 -0.18965271 31.30558472 -0.18673706 30.32806396 C-0.17555448 27.30191361 -0.1504533 24.2760607 -0.125 21.25 C-0.11496772 19.19661886 -0.1058423 17.14323308 -0.09765625 15.08984375 C-0.07562141 10.05978146 -0.04110462 5.02994114 0 0 Z " fill="#040F0A" transform="translate(142,0)"/>
<path d="M0 0 C0.99 0 1.98 0 3 0 C3 11.55 3 23.1 3 35 C2.01 35 1.02 35 0 35 C0 23.45 0 11.9 0 0 Z " fill="#020201" transform="translate(111,119)"/>
<path d="M0 0 C2.64 0.66 5.28 1.32 8 2 C11.35266835 2.23775761 11.35266835 2.23775761 14.5 2.125 C15.5415625 2.10695313 16.583125 2.08890625 17.65625 2.0703125 C18.4296875 2.04710938 19.203125 2.02390625 20 2 C16.71266635 5.28733365 13.62171243 5.13364934 9.1328125 5.23046875 C7 5 7 5 2 3 C1.67 15.54 1.34 28.08 1 41 C0.67 41 0.34 41 0 41 C0 27.47 0 13.94 0 0 Z " fill="#48494A" transform="translate(141,113)"/>
<path d="M0 0 C2.4375 1.375 2.4375 1.375 4 3 C4 3.66 4 4.32 4 5 C-0.95 5 -5.9 5 -11 5 C-8.12914755 -0.7417049 -6.18563614 -0.4265956 0 0 Z " fill="#D4DCE1" transform="translate(106,86)"/>
<path d="M0 0 C5.61 0 11.22 0 17 0 C17 1.65 17 3.3 17 5 C15.35 5 13.7 5 12 5 C11.67 4.01 11.34 3.02 11 2 C9.35 2 7.7 2 6 2 C5.67 2.66 5.34 3.32 5 4 C3.02 4 1.04 4 -1 4 C-0.67 2.68 -0.34 1.36 0 0 Z " fill="#02060C" transform="translate(94,91)"/>
<path d="M0 0 C1.65 0 3.3 0 5 0 C5.33 1.32 5.66 2.64 6 4 C7.32 4 8.64 4 10 4 C9.67 5.32 9.34 6.64 9 8 C7.35 8 5.7 8 4 8 C3.67 6.68 3.34 5.36 3 4 C3.66 4 4.32 4 5 4 C5 3.34 5 2.68 5 2 C3.02 2.66 1.04 3.32 -1 4 C-0.67 2.68 -0.34 1.36 0 0 Z " fill="#154B72" transform="translate(100,92)"/>
<path d="M0 0 C0.9075 0.165 1.815 0.33 2.75 0.5 C8.13782475 1.28873311 13.56912556 1.08025923 19 1 C16.13743741 3.86256259 14.21259813 3.98605914 10.1875 4.25 C6.18472957 4.22040465 3.45249751 3.0714985 0 1 C0 0.67 0 0.34 0 0 Z " fill="#143A63" transform="translate(142,114)"/>
<path d="M0 0 C0 2.31 0 4.62 0 7 C-1.32 7.33 -2.64 7.66 -4 8 C-4 5.69 -4 3.38 -4 1 C-2 0 -2 0 0 0 Z " fill="#08181D" transform="translate(114,104)"/>
<path d="M0 0 C1.2065625 0.0309375 1.2065625 0.0309375 2.4375 0.0625 C2.4375 1.7125 2.4375 3.3625 2.4375 5.0625 C0.7875 5.0625 -0.8625 5.0625 -2.5625 5.0625 C-3.125 3.125 -3.125 3.125 -3.5625 1.0625 C-2.5625 0.0625 -2.5625 0.0625 0 0 Z " fill="#041013" transform="translate(108.5625,90.9375)"/>
<path d="M0 0 C-0.33 1.32 -0.66 2.64 -1 4 C-2.65 4 -4.3 4 -6 4 C-6 3.01 -6 2.02 -6 1 C-4 0 -4 0 0 0 Z " fill="#117B5A" transform="translate(110,96)"/>
<path d="M0 0 C0.66 0.33 1.32 0.66 2 1 C1.67 1.99 1.34 2.98 1 4 C-0.32 4 -1.64 4 -3 4 C-3.33 5.32 -3.66 6.64 -4 8 C-4 6.35 -4 4.7 -4 3 C-2.68 2.67 -1.36 2.34 0 2 C0 1.34 0 0.68 0 0 Z " fill="#0D213A" transform="translate(151,95)"/>
<path d="M0 0 C1.32 0 2.64 0 4 0 C3.67 0.99 3.34 1.98 3 3 C2.34 3 1.68 3 1 3 C1 4.65 1 6.3 1 8 C0.34 8 -0.32 8 -1 8 C-1.04241723 5.66705225 -1.04092937 3.33297433 -1 1 C-0.67 0.67 -0.34 0.34 0 0 Z " fill="#C6D6E1" transform="translate(126,55)"/>
</svg>
