<?xml version="1.0" encoding="UTF-8"?>
<svg version="1.1" xmlns="http://www.w3.org/2000/svg" width="256" height="154">
<path d="M0 0 C84.48 0 168.96 0 256 0 C256 50.82 256 101.64 256 154 C171.52 154 87.04 154 0 154 C0 103.18 0 52.36 0 0 Z " fill="#2F2F72" transform="translate(0,0)"/>
<path d="M0 0 C5.53285572 0.05797015 10.68058656 0.78254851 16.01928711 2.18945312 C15.60678711 2.82882813 15.19428711 3.46820313 14.76928711 4.12695312 C13.62029288 8.81867956 15.83811788 12.05244206 18.01928711 16.18945312 C16.53428711 16.68445312 16.53428711 16.68445312 15.01928711 17.18945312 C15.75598633 17.77146484 15.75598633 17.77146484 16.50756836 18.36523438 C18.52654464 20.80157009 18.32827516 22.25875985 18.20678711 25.37695312 C18.16618164 26.72853516 18.16618164 26.72853516 18.12475586 28.10742188 C18.08995117 28.79449219 18.05514648 29.4815625 18.01928711 30.18945312 C17.02928711 30.18945312 16.03928711 30.18945312 15.01928711 30.18945312 C14.68928711 33.81945313 14.35928711 37.44945312 14.01928711 41.18945312 C12.53428711 41.68445312 12.53428711 41.68445312 11.01928711 42.18945312 C8.34254661 46.28329153 6.86997476 49.36888979 6.01928711 54.18945312 C5.02928711 54.68445313 5.02928711 54.68445313 4.01928711 55.18945312 C7.0129625 59.48472651 10.57939681 62.26300365 14.73022461 65.34570312 C16.91910331 67.108759 18.62362162 68.94458403 20.45678711 71.06445312 C23.88680133 74.65512375 26.93445601 75.0435663 31.78491211 75.21679688 C32.52225586 75.20777344 33.25959961 75.19875 34.01928711 75.18945312 C35.00928711 75.18945312 35.99928711 75.18945312 37.01928711 75.18945312 C37.01928711 74.52945313 37.01928711 73.86945313 37.01928711 73.18945312 C37.67928711 72.69445312 38.33928711 72.19945313 39.01928711 71.68945312 C41.69288783 68.34745222 41.58433102 66.09186354 41.40600586 61.90429688 C40.49578135 55.51433694 37.64880553 50.1630339 34.26928711 44.75195312 C30.09984909 37.51299019 31.82298835 29.1149324 33.01928711 21.18945312 C30.04928711 21.51945312 27.07928711 21.84945313 24.01928711 22.18945312 C24.89428711 17.31445313 24.89428711 17.31445313 26.01928711 16.18945312 C28.01879347 16.14501965 30.01967147 16.15024498 32.01928711 16.18945312 C33.33928711 16.18945312 34.65928711 16.18945312 36.01928711 16.18945312 C36.18616159 13.77299531 36.18616159 13.77299531 36.01928711 11.18945312 C33.88073861 9.05090463 32.88653397 8.7629025 30.01928711 8.18945312 C30.34928711 7.19945312 30.67928711 6.20945312 31.01928711 5.18945312 C39.96248755 4.57503477 39.96248755 4.57503477 43.70678711 6.75195312 C45.57308335 10.21793186 44.9074069 12.43202325 44.01928711 16.18945312 C43.52428711 17.67445312 43.52428711 17.67445312 43.01928711 19.18945312 C43.94741211 19.29257812 44.87553711 19.39570313 45.83178711 19.50195312 C49.01928711 20.18945312 49.01928711 20.18945312 50.89428711 21.31445312 C52.67447045 24.28142536 52.32053903 26.81543159 52.01928711 30.18945312 C51.02928711 31.67445312 51.02928711 31.67445312 50.01928711 33.18945312 C49.35928711 33.18945312 48.69928711 33.18945312 48.01928711 33.18945312 C47.02928711 30.21945313 47.02928711 30.21945313 46.01928711 27.18945312 C43.04928711 27.51945312 40.07928711 27.84945312 37.01928711 28.18945312 C37.41570827 37.59851231 37.41570827 37.59851231 41.01928711 46.18945312 C41.01928711 46.84945312 41.01928711 47.50945313 41.01928711 48.18945312 C41.67928711 48.18945312 42.33928711 48.18945312 43.01928711 48.18945312 C47.03796552 55.97564254 48.39562259 63.47611124 47.01928711 72.18945312 C45.08634256 76.46633375 42.59103105 79.19677274 38.64428711 81.68945312 C31.71278538 83.00973917 27.21522783 82.28742348 21.01928711 79.18945312 C20.99241432 81.00187364 20.97294995 82.81440546 20.95678711 84.62695312 C20.94518555 85.63628906 20.93358398 86.645625 20.92163086 87.68554688 C20.73316035 90.1296638 20.73316035 90.1296638 22.01928711 91.18945312 C27.46727855 91.54669847 29.73388824 91.61777222 34.01928711 88.18945312 C37.26928711 88.00195312 37.26928711 88.00195312 40.01928711 88.18945312 C40.01928711 90.18945312 40.01928711 90.18945312 38.51928711 91.81445312 C38.02428711 92.26820312 37.52928711 92.72195312 37.01928711 93.18945312 C37.78241211 93.14820312 38.54553711 93.10695313 39.33178711 93.06445312 C42.01928711 93.18945312 42.01928711 93.18945312 45.01928711 95.18945312 C44.52428711 97.16945312 44.52428711 97.16945312 44.01928711 99.18945312 C42.36928711 99.51945312 40.71928711 99.84945312 39.01928711 100.18945312 C39.01928711 102.49945313 39.01928711 104.80945313 39.01928711 107.18945312 C38.42116211 107.25132813 37.82303711 107.31320313 37.20678711 107.37695312 C34.06626169 108.543434 33.43767835 110.21758576 32.01928711 113.18945312 C31.31257983 115.88200303 31.31257983 115.88200303 31.01928711 118.18945312 C32.99928711 118.68445313 32.99928711 118.68445313 35.01928711 119.18945312 C35.01928711 121.82945312 35.01928711 124.46945313 35.01928711 127.18945312 C32.01928711 128.18945312 32.01928711 128.18945312 28.51928711 127.56445312 C26.78678711 127.37882812 26.78678711 127.37882812 25.01928711 127.18945312 C23.24737802 128.54389613 23.24737802 128.54389613 22.01928711 130.18945312 C21.02928711 130.18945312 20.03928711 130.18945312 19.01928711 130.18945312 C19.01928711 131.50945312 19.01928711 132.82945312 19.01928711 134.18945312 C11.59071568 134.33231027 11.59071568 134.33231027 8.01928711 133.18945312 C8.01928711 130.87945312 8.01928711 128.56945312 8.01928711 126.18945312 C6.36928711 126.51945312 4.71928711 126.84945312 3.01928711 127.18945312 C3.34928711 126.24070312 3.67928711 125.29195313 4.01928711 124.31445312 C5.12087902 121.41882861 5.12087902 121.41882861 5.01928711 119.18945312 C4.35928711 119.18945312 3.69928711 119.18945312 3.01928711 119.18945312 C3.58178711 117.25195313 3.58178711 117.25195313 5.01928711 115.18945312 C8.64428711 114.43945312 8.64428711 114.43945312 12.01928711 114.18945312 C12.67928711 115.50945312 13.33928711 116.82945313 14.01928711 118.18945312 C15.33928711 118.18945312 16.65928711 118.18945312 18.01928711 118.18945312 C21.45577381 112.55210241 21.45577381 112.55210241 23.01928711 106.18945312 C22.39280273 106.20105469 21.76631836 106.21265625 21.12084961 106.22460938 C20.30358398 106.23363281 19.48631836 106.24265625 18.64428711 106.25195312 C17.83217773 106.26355469 17.02006836 106.27515625 16.18334961 106.28710938 C14.01928711 106.18945312 14.01928711 106.18945312 12.01928711 105.18945312 C12.34928711 106.83945313 12.67928711 108.48945312 13.01928711 110.18945312 C11.36928711 109.85945313 9.71928711 109.52945313 8.01928711 109.18945312 C8.01928711 108.52945313 8.01928711 107.86945313 8.01928711 107.18945312 C7.35928711 107.18945312 6.69928711 107.18945312 6.01928711 107.18945312 C5.68928711 108.83945313 5.35928711 110.48945312 5.01928711 112.18945312 C3.36928711 112.18945312 1.71928711 112.18945312 0.01928711 112.18945312 C0.34928711 110.20945312 0.67928711 108.22945313 1.01928711 106.18945312 C-0.63071289 106.18945312 -2.28071289 106.18945312 -3.98071289 106.18945312 C-4.31071289 104.86945313 -4.64071289 103.54945312 -4.98071289 102.18945312 C-3.99071289 101.85945313 -3.00071289 101.52945313 -1.98071289 101.18945312 C-1.65071289 95.57945313 -1.32071289 89.96945313 -0.98071289 84.18945312 C-2.54821289 84.47820312 -4.11571289 84.76695313 -5.73071289 85.06445312 C-6.61243164 85.226875 -7.49415039 85.38929687 -8.40258789 85.55664062 C-10.85019033 86.15741577 -12.78671147 86.96942429 -14.98071289 88.18945312 C-14.98071289 89.83945313 -14.98071289 91.48945312 -14.98071289 93.18945312 C-12.01071289 94.17945312 -9.04071289 95.16945313 -5.98071289 96.18945312 C-5.98071289 97.17945312 -5.98071289 98.16945313 -5.98071289 99.18945312 C-6.97071289 99.68445313 -6.97071289 99.68445313 -7.98071289 100.18945312 C-7.48571289 104.14945313 -7.48571289 104.14945313 -6.98071289 108.18945312 C-8.96071289 107.69445312 -8.96071289 107.69445312 -10.98071289 107.18945312 C-10.65071289 109.16945313 -10.32071289 111.14945312 -9.98071289 113.18945312 C-12.98071289 114.18945312 -12.98071289 114.18945312 -14.91821289 113.50195312 C-15.59883789 113.39882812 -16.27946289 113.29570313 -16.98071289 113.18945312 C-19.25215363 115.043774 -19.25215363 115.043774 -20.98071289 117.18945312 C-19.99071289 117.68445313 -19.99071289 117.68445313 -18.98071289 118.18945312 C-19.43893757 121.65886859 -19.87202972 124.86340361 -20.98071289 128.18945312 C-21.64071289 128.18945312 -22.30071289 128.18945312 -22.98071289 128.18945312 C-22.98071289 127.19945312 -22.98071289 126.20945312 -22.98071289 125.18945312 C-24.41932583 125.27691597 -25.85668797 125.3851066 -27.29321289 125.50195312 C-28.0937207 125.55996094 -28.89422852 125.61796875 -29.71899414 125.67773438 C-32.38808961 126.28162299 -33.11707891 127.26980829 -34.98071289 129.18945312 C-41.11917443 129.62022236 -41.11917443 129.62022236 -43.98071289 128.18945312 C-43.98071289 125.87945312 -43.98071289 123.56945312 -43.98071289 121.18945312 C-45.46571289 121.68445313 -45.46571289 121.68445313 -46.98071289 122.18945312 C-46.84028412 120.54314985 -46.6932196 118.89741133 -46.54321289 117.25195312 C-46.46200195 116.33542969 -46.38079102 115.41890625 -46.29711914 114.47460938 C-45.98071289 112.18945312 -45.98071289 112.18945312 -44.98071289 111.18945312 C-42.64773856 111.14852375 -40.31366064 111.14703589 -37.98071289 111.18945312 C-37.32071289 112.50945312 -36.66071289 113.82945313 -35.98071289 115.18945312 C-31.84197757 115.64393686 -31.84197757 115.64393686 -29.23071289 112.62695312 C-27.37681132 110.15702157 -26.89686839 108.8282768 -26.16821289 105.68945312 C-27.24205737 101.06366153 -29.29732605 100.12789211 -33.13305664 97.61132812 C-34.98071289 96.18945312 -34.98071289 96.18945312 -35.98071289 93.31445312 C-35.98071289 92.61320312 -35.98071289 91.91195312 -35.98071289 91.18945312 C-38.45571289 91.68445313 -38.45571289 91.68445313 -40.98071289 92.18945312 C-40.65071289 89.87945312 -40.32071289 87.56945312 -39.98071289 85.18945312 C-41.30071289 84.52945313 -42.62071289 83.86945313 -43.98071289 83.18945312 C-43.65071289 81.86945313 -43.32071289 80.54945312 -42.98071289 79.18945312 C-41.66071289 79.84945312 -40.34071289 80.50945312 -38.98071289 81.18945312 C-38.83633789 80.40570313 -38.69196289 79.62195313 -38.54321289 78.81445312 C-37.98071289 76.18945312 -37.98071289 76.18945312 -36.98071289 74.18945312 C-33.98071289 75.18945312 -33.98071289 75.18945312 -32.98071289 77.18945312 C-30.60717581 76.27066458 -28.26333701 75.32283859 -25.96118164 74.23632812 C-20.71247747 71.77283825 -15.6861524 70.21454391 -9.98071289 69.18945312 C-12.47437865 67.12327293 -14.80613523 65.28283187 -17.66821289 63.75195312 C-20.47713305 61.8540341 -20.83504479 60.29912368 -21.98071289 57.18945312 C-22.97071289 56.85945313 -23.96071289 56.52945313 -24.98071289 56.18945312 C-25.24883789 57.15882812 -25.51696289 58.12820312 -25.79321289 59.12695312 C-26.38102539 60.64289063 -26.38102539 60.64289063 -26.98071289 62.18945312 C-27.97071289 62.51945312 -28.96071289 62.84945312 -29.98071289 63.18945312 C-30.31071289 62.52945313 -30.64071289 61.86945313 -30.98071289 61.18945312 C-31.43446289 61.84945312 -31.88821289 62.50945312 -32.35571289 63.18945312 C-32.89196289 63.84945312 -33.42821289 64.50945312 -33.98071289 65.18945312 C-34.64071289 65.18945312 -35.30071289 65.18945312 -35.98071289 65.18945312 C-36.31071289 64.52945313 -36.64071289 63.86945313 -36.98071289 63.18945312 C-37.97071289 62.85945313 -38.96071289 62.52945313 -39.98071289 62.18945312 C-40.06321289 62.93195313 -40.14571289 63.67445312 -40.23071289 64.43945312 C-41.12881088 67.73247907 -42.36487363 69.049221 -44.98071289 71.18945312 C-45.64071289 71.18945312 -46.30071289 71.18945312 -46.98071289 71.18945312 C-46.98071289 70.52945313 -46.98071289 69.86945313 -46.98071289 69.18945312 C-47.97071289 69.18945312 -48.96071289 69.18945312 -49.98071289 69.18945312 C-49.98071289 67.86945313 -49.98071289 66.54945312 -49.98071289 65.18945312 C-50.97071289 65.18945312 -51.96071289 65.18945312 -52.98071289 65.18945312 C-53.64071289 67.16945313 -54.30071289 69.14945312 -54.98071289 71.18945312 C-55.70258789 71.31320313 -56.42446289 71.43695313 -57.16821289 71.56445312 C-59.93793184 72.17994622 -62.37774829 73.07389687 -64.98071289 74.18945312 C-65.12508789 73.09632812 -65.26946289 72.00320312 -65.41821289 70.87695312 C-65.86359394 67.25822326 -65.86359394 67.25822326 -66.98071289 64.18945312 C-67.97071289 64.18945312 -68.96071289 64.18945312 -69.98071289 64.18945312 C-69.31404622 62.85611979 -68.64737956 61.52278646 -67.98071289 60.18945312 C-67.60946289 59.13757813 -67.23821289 58.08570313 -66.85571289 57.00195312 C-64.98071289 54.18945312 -64.98071289 54.18945312 -63.00805664 53.58398438 C-60.79321289 53.31445313 -60.79321289 53.31445313 -56.98071289 53.18945312 C-56.32071289 54.83945313 -55.66071289 56.48945312 -54.98071289 58.18945312 C-50.65256892 56.61483313 -46.75703836 54.44229109 -42.79321289 52.12695312 C-36.10974515 48.25396925 -36.10974515 48.25396925 -33.98071289 47.18945312 C-37.94071289 47.18945312 -41.90071289 47.18945312 -45.98071289 47.18945312 C-45.98071289 46.52945313 -45.98071289 45.86945312 -45.98071289 45.18945312 C-47.63071289 44.85945313 -49.28071289 44.52945313 -50.98071289 44.18945312 C-50.98071289 43.52945313 -50.98071289 42.86945312 -50.98071289 42.18945312 C-50.32071289 42.18945312 -49.66071289 42.18945312 -48.98071289 42.18945312 C-48.98071289 40.86945312 -48.98071289 39.54945312 -48.98071289 38.18945312 C-49.97071289 38.84945312 -50.96071289 39.50945313 -51.98071289 40.18945312 C-54.46118164 40.16601562 -54.46118164 40.16601562 -57.16821289 39.81445312 C-58.06926758 39.70359375 -58.97032227 39.59273437 -59.89868164 39.47851562 C-60.58575195 39.383125 -61.27282227 39.28773437 -61.98071289 39.18945312 C-61.98071289 38.52945313 -61.98071289 37.86945312 -61.98071289 37.18945312 C-61.32071289 37.18945312 -60.66071289 37.18945312 -59.98071289 37.18945312 C-59.98071289 35.86945312 -59.98071289 34.54945312 -59.98071289 33.18945312 C-58.99071289 33.18945312 -58.00071289 33.18945312 -56.98071289 33.18945312 C-56.98071289 32.52945313 -56.98071289 31.86945312 -56.98071289 31.18945312 C-60.94071289 31.18945312 -64.90071289 31.18945312 -68.98071289 31.18945312 C-68.98071289 30.19945313 -68.98071289 29.20945312 -68.98071289 28.18945312 C-70.30071289 28.18945312 -71.62071289 28.18945312 -72.98071289 28.18945312 C-72.98071289 27.52945313 -72.98071289 26.86945312 -72.98071289 26.18945312 C-71.33071289 25.85945313 -69.68071289 25.52945313 -67.98071289 25.18945312 C-67.98071289 24.52945313 -67.98071289 23.86945312 -67.98071289 23.18945312 C-67.32071289 23.18945312 -66.66071289 23.18945312 -65.98071289 23.18945312 C-65.65071289 21.53945313 -65.32071289 19.88945312 -64.98071289 18.18945312 C-65.64071289 17.85945313 -66.30071289 17.52945312 -66.98071289 17.18945312 C-65.98071289 16.18945312 -65.98071289 16.18945312 -62.41821289 16.00195312 C-58.02161195 16.04170539 -54.19748348 16.98466153 -49.98071289 18.18945312 C-50.50339755 20.9522149 -51.08940876 23.51554072 -51.98071289 26.18945312 C-50.98491211 26.47949219 -50.98491211 26.47949219 -49.96899414 26.77539062 C-41.19863908 29.36168511 -41.19863908 29.36168511 -36.98071289 31.18945312 C-36.32071289 30.52945313 -35.66071289 29.86945312 -34.98071289 29.18945312 C-32.59790039 28.77539062 -32.59790039 28.77539062 -29.85571289 28.56445312 C-28.94563477 28.4896875 -28.03555664 28.41492188 -27.09790039 28.33789062 C-26.39922852 28.28890625 -25.70055664 28.23992188 -24.98071289 28.18945312 C-24.98071289 27.19945313 -24.98071289 26.20945312 -24.98071289 25.18945312 C-21.02071289 25.18945312 -17.06071289 25.18945312 -12.98071289 25.18945312 C-12.98071289 24.52945313 -12.98071289 23.86945312 -12.98071289 23.18945312 C-12.48571289 22.69445313 -12.48571289 22.69445313 -11.98071289 22.18945312 C-13.63071289 22.18945312 -15.28071289 22.18945312 -16.98071289 22.18945312 C-15.98071289 19.18945312 -15.98071289 19.18945312 -12.98071289 17.18945312 C-14.03258789 17.40601563 -14.03258789 17.40601563 -15.10571289 17.62695312 C-20.83707616 18.74830681 -26.14012896 19.51393001 -31.98071289 19.18945312 C-32.98071289 18.18945312 -32.98071289 18.18945312 -33.16821289 14.75195312 C-32.98071289 11.18945313 -32.98071289 11.18945313 -30.98071289 9.18945312 C-29.99071289 9.18945312 -29.00071289 9.18945312 -27.98071289 9.18945312 C-27.98071289 11.49945313 -27.98071289 13.80945313 -27.98071289 16.18945312 C-23.38560378 16.36965348 -20.15563144 16.10765895 -15.98071289 14.18945312 C-14.65394781 13.83086797 -13.32235368 13.48759552 -11.98071289 13.18945312 C-14.29071289 13.18945312 -16.60071289 13.18945312 -18.98071289 13.18945312 C-19.47571289 9.72445313 -19.47571289 9.72445313 -19.98071289 6.18945312 C-19.27043945 5.84011719 -18.56016602 5.49078125 -17.82836914 5.13085938 C-16.90926758 4.67582031 -15.99016602 4.22078125 -15.04321289 3.75195312 C-14.12668945 3.29949219 -13.21016602 2.84703125 -12.26586914 2.38085938 C-7.89663354 0.10288184 -5.19839098 0.00496919 0 0 Z " fill="#EDE314" transform="translate(138.980712890625,9.810546875)"/>
<path d="M0 0 C5.53285572 0.05797015 10.68058656 0.78254851 16.01928711 2.18945312 C15.40053711 3.14851562 15.40053711 3.14851562 14.76928711 4.12695312 C13.62029288 8.81867956 15.83811788 12.05244206 18.01928711 16.18945312 C15.54428711 15.69445312 15.54428711 15.69445312 13.01928711 15.18945312 C13.01928711 15.84945313 13.01928711 16.50945313 13.01928711 17.18945312 C12.35928711 17.18945312 11.69928711 17.18945312 11.01928711 17.18945312 C11.01928711 17.84945313 11.01928711 18.50945313 11.01928711 19.18945312 C10.35928711 19.18945312 9.69928711 19.18945312 9.01928711 19.18945312 C8.52428711 18.19945312 8.52428711 18.19945312 8.01928711 17.18945312 C7.75116211 18.32382812 7.48303711 19.45820313 7.20678711 20.62695312 C6.81491211 21.80257813 6.42303711 22.97820313 6.01928711 24.18945312 C5.02928711 24.51945312 4.03928711 24.84945312 3.01928711 25.18945312 C3.01928711 24.52945313 3.01928711 23.86945312 3.01928711 23.18945312 C1.69928711 24.50945313 0.37928711 25.82945313 -0.98071289 27.18945312 C-1.97071289 26.85945313 -2.96071289 26.52945313 -3.98071289 26.18945312 C-3.98071289 24.86945312 -3.98071289 23.54945312 -3.98071289 22.18945312 C-8.27071289 22.18945312 -12.56071289 22.18945312 -16.98071289 22.18945312 C-15.98071289 19.18945312 -15.98071289 19.18945312 -12.98071289 17.18945312 C-13.68196289 17.33382813 -14.38321289 17.47820313 -15.10571289 17.62695312 C-20.83707616 18.74830681 -26.14012896 19.51393001 -31.98071289 19.18945312 C-32.98071289 18.18945312 -32.98071289 18.18945312 -33.16821289 14.75195312 C-32.98071289 11.18945312 -32.98071289 11.18945312 -30.98071289 9.18945312 C-29.99071289 9.18945312 -29.00071289 9.18945312 -27.98071289 9.18945312 C-27.98071289 11.49945313 -27.98071289 13.80945313 -27.98071289 16.18945312 C-23.38560378 16.36965348 -20.15563144 16.10765895 -15.98071289 14.18945312 C-14.65394781 13.83086797 -13.32235368 13.48759552 -11.98071289 13.18945312 C-14.29071289 13.18945312 -16.60071289 13.18945312 -18.98071289 13.18945312 C-19.31071289 10.87945312 -19.64071289 8.56945312 -19.98071289 6.18945312 C-19.27043945 5.84011719 -18.56016602 5.49078125 -17.82836914 5.13085938 C-16.90926758 4.67582031 -15.99016602 4.22078125 -15.04321289 3.75195312 C-14.12668945 3.29949219 -13.21016602 2.84703125 -12.26586914 2.38085938 C-7.89663354 0.10288184 -5.19839098 0.00496919 0 0 Z " fill="#F3E911" transform="translate(138.980712890625,9.810546875)"/>
<path d="M0 0 C2.3125 0.25 2.3125 0.25 5 1 C5.4125 1.639375 5.825 2.27875 6.25 2.9375 C9.04206413 6.22814702 12.87325614 6.34248945 17 7 C16.10543131 13.64536741 16.10543131 13.64536741 15.3125 16.3125 C15.209375 16.869375 15.10625 17.42625 15 18 C15.66 18.66 16.32 19.32 17 20 C17.125 22.625 17.125 22.625 17 25 C14.04335481 26.4783226 11.25770263 26.06032783 8 26 C7.566875 26.8971875 7.566875 26.8971875 7.125 27.8125 C6 30 6 30 4 33 C2.0625 32.6875 2.0625 32.6875 0 32 C-0.33 31.01 -0.66 30.02 -1 29 C-1.66 29 -2.32 29 -3 29 C-3 28.34 -3 27.68 -3 27 C-3.95712891 26.90912109 -3.95712891 26.90912109 -4.93359375 26.81640625 C-5.75988281 26.73261719 -6.58617187 26.64882812 -7.4375 26.5625 C-8.26121094 26.48128906 -9.08492187 26.40007812 -9.93359375 26.31640625 C-12 26 -12 26 -13 25 C-13.34229288 21.83379087 -13.25632099 20.39516153 -11.5 17.6875 C-11.005 17.130625 -10.51 16.57375 -10 16 C-10.515625 15.2575 -11.03125 14.515 -11.5625 13.75 C-13 11 -13 11 -12.75 8.75 C-12 7 -12 7 -11 6 C-9.906875 5.9175 -8.81375 5.835 -7.6875 5.75 C-3.85463807 5.33693772 -3.85463807 5.33693772 -1.5625 2.4375 C-1.046875 1.633125 -0.53125 0.82875 0 0 Z " fill="#F1BE12" transform="translate(200,92)"/>
<path d="M0 0 C2.79828356 0.38597015 3.8205884 0.80136573 5.75 2.9375 C7 5 7 5 7 7 C9.97 7 12.94 7 16 7 C16.625 9.3125 16.625 9.3125 17 12 C16.01 13.485 16.01 13.485 15 15 C15.27802838 17.39388923 15.27802838 17.39388923 16 20 C16.33944795 21.99897128 16.67421616 23.99875639 17 26 C13.78548731 27.60725635 10.56387464 27.05748185 7 27 C7 27.99 7 28.98 7 30 C5.25 31.75 5.25 31.75 3 33 C0.3871543 32.84164571 -0.73139327 32.22064124 -2.75 30.5625 C-4 29 -4 29 -4 27 C-5.299375 27.020625 -6.59875 27.04125 -7.9375 27.0625 C-9.29165633 27.08399454 -10.64756083 27.07148199 -12 27 C-13 26 -13 26 -13.1875 23.1875 C-13 20 -13 20 -11.875 17.875 C-11.58625 17.25625 -11.2975 16.6375 -11 16 C-11.6492959 14.65812182 -12.31731862 13.32520503 -13 12 C-12.625 9.25 -12.625 9.25 -12 7 C-9.03 7 -6.06 7 -3 7 C-2.67 5.68 -2.34 4.36 -2 3 C-1.34 2.01 -0.68 1.02 0 0 Z " fill="#F3C012" transform="translate(49,96)"/>
<path d="M0 0 C1.32 0.66 2.64 1.32 4 2 C4 2.66 4 3.32 4 4 C4.66 4 5.32 4 6 4 C6 4.99 6 5.98 6 7 C6.95712891 6.98259766 6.95712891 6.98259766 7.93359375 6.96484375 C8.75988281 6.95582031 9.58617188 6.94679688 10.4375 6.9375 C11.26121094 6.92589844 12.08492187 6.91429687 12.93359375 6.90234375 C15 7 15 7 16 8 C16.1875 10.4375 16.1875 10.4375 16 13 C15.34 13.66 14.68 14.32 14 15 C14.30420546 16.80869466 14.30420546 16.80869466 15 19 C15.3496418 21.33094534 15.68554487 23.66404762 16 26 C12.52674819 27.1577506 9.63932552 27.06866652 6 27 C5.566875 27.8971875 5.566875 27.8971875 5.125 28.8125 C4 31 4 31 2 34 C-0.50762079 32.96236381 -1.7774991 32.37473835 -3.1875 30 C-6.07018299 26.81910842 -9.88246879 26.65604271 -14 26 C-13.10091743 19.32110092 -13.10091743 19.32110092 -12.3125 16.8125 C-11.7995904 14.90691876 -11.7995904 14.90691876 -13 13 C-14 11 -14 11 -13 7 C-10.03 7 -7.06 7 -4 7 C-4 5.68 -4 4.36 -4 3 C-2 1.25 -2 1.25 0 0 Z " fill="#EEBE17" transform="translate(43,25)"/>
<path d="M0 0 C2.87687481 0.22129806 4.53951144 0.63478494 6.8125 2.4375 C8 4 8 4 8 6 C10.97 6.33 13.94 6.66 17 7 C16.53199289 11.05606165 16.12046792 14.46588679 14 18 C14.66 18 15.32 18 16 18 C16.33 20.31 16.66 22.62 17 25 C13.78548731 26.60725635 10.56387464 26.05748185 7 26 C6.896875 26.598125 6.79375 27.19625 6.6875 27.8125 C5.91123545 30.28243264 4.92911079 31.32251235 3 33 C0.00675737 31.9024777 -0.84610901 31.32317108 -2.25 28.375 C-2.4975 27.59125 -2.745 26.8075 -3 26 C-3.63808594 26.01160156 -4.27617187 26.02320312 -4.93359375 26.03515625 C-6.17302734 26.04869141 -6.17302734 26.04869141 -7.4375 26.0625 C-8.67306641 26.07990234 -8.67306641 26.07990234 -9.93359375 26.09765625 C-12 26 -12 26 -13 25 C-13.04063832 23.33382885 -13.042721 21.66611905 -13 20 C-12.34 20 -11.68 20 -11 20 C-10.67 18.68 -10.34 17.36 -10 16 C-10.99 15.34 -11.98 14.68 -13 14 C-13.1875 10.375 -13.1875 10.375 -13 7 C-9.7 7 -6.4 7 -3 7 C-2.87625 6.21625 -2.7525 5.4325 -2.625 4.625 C-2 2 -2 2 0 0 Z " fill="#E9BC12" transform="translate(208,23)"/>
<path d="M0 0 C0.66 0.33 1.32 0.66 2 1 C1.67 4.3 1.34 7.6 1 11 C5 9.5 5 9.5 6 7 C6.66 7 7.32 7 8 7 C8.495 10.465 8.495 10.465 9 14 C8.01 14 7.02 14 6 14 C5.731875 14.969375 5.46375 15.93875 5.1875 16.9375 C4.795625 17.948125 4.40375 18.95875 4 20 C3.01 20.33 2.02 20.66 1 21 C0.505 20.01 0.505 20.01 0 19 C-0.45375 19.66 -0.9075 20.32 -1.375 21 C-1.91125 21.66 -2.4475 22.32 -3 23 C-3.66 23 -4.32 23 -5 23 C-5.495 22.01 -5.495 22.01 -6 21 C-6.99 20.67 -7.98 20.34 -9 20 C-9.0825 20.7425 -9.165 21.485 -9.25 22.25 C-10.14809799 25.54302595 -11.38416074 26.85976788 -14 29 C-14.66 29 -15.32 29 -16 29 C-16 28.34 -16 27.68 -16 27 C-16.99 27 -17.98 27 -19 27 C-19 25.68 -19 24.36 -19 23 C-19.99 23 -20.98 23 -22 23 C-22.66 24.98 -23.32 26.96 -24 29 C-24.721875 29.12375 -25.44375 29.2475 -26.1875 29.375 C-28.95721894 29.9904931 -31.3970354 30.88444374 -34 32 C-34.144375 30.906875 -34.28875 29.81375 -34.4375 28.6875 C-34.88288104 25.06877013 -34.88288104 25.06877013 -36 22 C-36.99 22 -37.98 22 -39 22 C-38 20 -38 20 -37 18 C-36.62875 16.948125 -36.2575 15.89625 -35.875 14.8125 C-34 12 -34 12 -32.02734375 11.39453125 C-29.8125 11.125 -29.8125 11.125 -26 11 C-25.34 12.65 -24.68 14.3 -24 16 C-19.67185603 14.42538 -15.77632547 12.25283797 -11.8125 9.9375 C-5.12903226 6.06451613 -5.12903226 6.06451613 -3 5 C-3.495 4.01 -3.495 4.01 -4 3 C-3.01 2.67 -2.02 2.34 -1 2 C-0.67 1.34 -0.34 0.68 0 0 Z " fill="#E9E016" transform="translate(108,52)"/>
<path d="M0 0 C4.39660094 0.03975227 8.22072941 0.9827084 12.4375 2.1875 C11.91481534 4.95026177 11.32880413 7.5135876 10.4375 10.1875 C11.10136719 10.36925781 11.76523438 10.55101562 12.44921875 10.73828125 C19.89001989 12.85646552 19.89001989 12.85646552 23.125 14.8125 C27.04108935 17.14098556 30.92405725 17.41290637 35.375 16.75 C36.055625 16.564375 36.73625 16.37875 37.4375 16.1875 C36.4375 18.1875 36.4375 18.1875 34.6875 18.9375 C32.14485158 20.16742735 32.14485158 20.16742735 30 23.1875 C27.40808979 26.22193147 26.19155352 27.15513528 22.4375 28.1875 C21.2309375 28.5278125 21.2309375 28.5278125 20 28.875 C16.95919511 29.24582986 14.42266877 28.81230277 11.4375 28.1875 C11.4375 27.5275 11.4375 26.8675 11.4375 26.1875 C12.0975 26.1875 12.7575 26.1875 13.4375 26.1875 C13.4375 24.8675 13.4375 23.5475 13.4375 22.1875 C12.4475 22.8475 11.4575 23.5075 10.4375 24.1875 C7.95703125 24.1640625 7.95703125 24.1640625 5.25 23.8125 C4.34894531 23.70164062 3.44789062 23.59078125 2.51953125 23.4765625 C1.83246094 23.38117187 1.14539063 23.28578125 0.4375 23.1875 C0.4375 22.5275 0.4375 21.8675 0.4375 21.1875 C1.0975 21.1875 1.7575 21.1875 2.4375 21.1875 C2.4375 19.8675 2.4375 18.5475 2.4375 17.1875 C3.4275 17.1875 4.4175 17.1875 5.4375 17.1875 C5.4375 16.5275 5.4375 15.8675 5.4375 15.1875 C1.4775 15.1875 -2.4825 15.1875 -6.5625 15.1875 C-6.5625 14.1975 -6.5625 13.2075 -6.5625 12.1875 C-7.8825 12.1875 -9.2025 12.1875 -10.5625 12.1875 C-10.5625 11.5275 -10.5625 10.8675 -10.5625 10.1875 C-8.9125 9.8575 -7.2625 9.5275 -5.5625 9.1875 C-5.5625 8.5275 -5.5625 7.8675 -5.5625 7.1875 C-4.9025 7.1875 -4.2425 7.1875 -3.5625 7.1875 C-3.2325 5.5375 -2.9025 3.8875 -2.5625 2.1875 C-3.2225 1.8575 -3.8825 1.5275 -4.5625 1.1875 C-3.5625 0.1875 -3.5625 0.1875 0 0 Z " fill="#ECE214" transform="translate(76.5625,25.8125)"/>
<path d="M0 0 C8.57142857 -0.28571429 8.57142857 -0.28571429 12 2 C12 2.99 12 3.98 12 5 C11.484375 5.45375 10.96875 5.9075 10.4375 6.375 C9.7259375 7.179375 9.7259375 7.179375 9 8 C9.23043864 10.65466049 9.23043864 10.65466049 10 13 C12.31 13.33 14.62 13.66 17 14 C17.33 14.99 17.66 15.98 18 17 C18.99 17.66 19.98 18.32 21 19 C19.35 21.31 17.7 23.62 16 26 C14.68 25.67 13.36 25.34 12 25 C11.67 24.01 11.34 23.02 11 22 C10.34 22 9.68 22 9 22 C9 21.34 9 20.68 9 20 C8.04287109 19.90912109 8.04287109 19.90912109 7.06640625 19.81640625 C6.24011719 19.73261719 5.41382813 19.64882812 4.5625 19.5625 C3.73878906 19.48128906 2.91507813 19.40007812 2.06640625 19.31640625 C0 19 0 19 -1 18 C-1.34229288 14.83379087 -1.25632099 13.39516153 0.5 10.6875 C0.995 10.130625 1.49 9.57375 2 9 C1.484375 8.2575 0.96875 7.515 0.4375 6.75 C-1 4 -1 4 -0.6875 1.6875 C-0.460625 1.130625 -0.23375 0.57375 0 0 Z " fill="#E5DC27" transform="translate(188,99)"/>
<path d="M0 0 C0.33 0.66 0.66 1.32 1 2 C3.12576782 2.46651207 3.12576782 2.46651207 5.5625 2.625 C6.38878906 2.69976563 7.21507812 2.77453125 8.06640625 2.8515625 C8.70449219 2.90054687 9.34257812 2.94953125 10 3 C9.53199289 7.05606165 9.12046792 10.46588679 7 14 C7.66 14 8.32 14 9 14 C9.33 16.31 9.66 18.62 10 21 C6.78548731 22.60725635 3.56387464 22.05748185 0 22 C-0.1546875 22.8971875 -0.1546875 22.8971875 -0.3125 23.8125 C-1.08876455 26.28243264 -2.07088921 27.32251235 -4 29 C-5.9375 28.4375 -5.9375 28.4375 -8 27 C-9.42682927 20.85365854 -9.42682927 20.85365854 -8 18 C-5.93359375 17.3671875 -5.93359375 17.3671875 -3.4375 16.875 C-2.61121094 16.70742188 -1.78492188 16.53984375 -0.93359375 16.3671875 C-0.29550781 16.24601562 0.34257812 16.12484375 1 16 C0.40138258 13.64828869 -0.26924352 11.3140622 -1 9 C-1.66 8.67 -2.32 8.34 -3 8 C-2.690625 7.4225 -2.38125 6.845 -2.0625 6.25 C-1.07416636 4.15705816 -0.4831387 2.25464725 0 0 Z " fill="#EAE015" transform="translate(215,27)"/>
<path d="M0 0 C1.32 0.66 2.64 1.32 4 2 C4 2.66 4 3.32 4 4 C5.423125 4.185625 5.423125 4.185625 6.875 4.375 C10 5 10 5 12 7 C13.26923077 13.46153846 13.26923077 13.46153846 12 16 C15.27773504 15.24849977 15.27773504 15.24849977 17 12 C17.99 12.99 18.98 13.98 20 15 C19.34 16.32 18.68 17.64 18 19 C17.34 19 16.68 19 16 19 C16 18.34 16 17.68 16 17 C14.68 18.32 13.36 19.64 12 21 C11.01 20.67 10.02 20.34 9 20 C9 18.68 9 17.36 9 16 C4.71 16 0.42 16 -4 16 C-3 13 -3 13 0 11 C-0.70125 11.144375 -1.4025 11.28875 -2.125 11.4375 C-7.85636326 12.55885368 -13.15941607 13.32447689 -19 13 C-20 12 -20 12 -20.1875 8.5625 C-20 5 -20 5 -18 3 C-17.01 3 -16.02 3 -15 3 C-15 5.31 -15 7.62 -15 10 C-10.35488965 10.18216119 -7.24220684 9.80293791 -3 8 C-0.67402489 7.6186926 1.65912158 7.27539746 4 7 C3.34 6.67 2.68 6.34 2 6 C1.27306096 4.02111039 0.60183749 2.02045442 0 0 Z " fill="#D3C80C" transform="translate(126,16)"/>
<path d="M0 0 C0 5.61 0 11.22 0 17 C-1.32 17.33 -2.64 17.66 -4 18 C-4.33 19.65 -4.66 21.3 -5 23 C-6.76462683 19.91190305 -7 18.76687864 -7 15 C-6.34 14.34 -5.68 13.68 -5 13 C-5.63808594 12.79503906 -6.27617187 12.59007813 -6.93359375 12.37890625 C-7.75988281 12.10949219 -8.58617187 11.84007813 -9.4375 11.5625 C-10.26121094 11.29566406 -11.08492188 11.02882813 -11.93359375 10.75390625 C-14 10 -14 10 -15 9 C-15.04063832 7.33382885 -15.042721 5.66611905 -15 4 C-13.82289824 3.31514079 -12.63253055 2.65307172 -11.4375 2 C-10.44556641 1.443125 -10.44556641 1.443125 -9.43359375 0.875 C-7 0 -7 0 0 0 Z " fill="#39396E" transform="translate(138,94)"/>
<path d="M0 0 C0.33 0.99 0.66 1.98 1 3 C4.87797662 3.43386092 4.87797662 3.43386092 6.75 1.5 C7.1625 1.005 7.575 0.51 8 0 C7.51330798 7.54372624 7.51330798 7.54372624 5.3125 9.5 C2.48755945 10.11079796 -0.11881849 10.1309628 -3 10 C-3 10.66 -3 11.32 -3 12 C-1.68 12 -0.36 12 1 12 C0.67 13.98 0.34 15.96 0 18 C1.98 17.67 3.96 17.34 6 17 C6 17.66 6 18.32 6 19 C-1.42857143 19.14285714 -1.42857143 19.14285714 -5 18 C-5 15.69 -5 13.38 -5 11 C-6.65 11.33 -8.3 11.66 -10 12 C-9.67 11.05125 -9.34 10.1025 -9 9.125 C-7.89840809 6.22937548 -7.89840809 6.22937548 -8 4 C-8.66 4 -9.32 4 -10 4 C-9.1875 2.0625 -9.1875 2.0625 -8 0 C-4.71023192 -1.09658936 -3.28696233 -0.79953138 0 0 Z " fill="#D2C712" transform="translate(152,125)"/>
<path d="M0 0 C0.33 1.32 0.66 2.64 1 4 C2.32 4.33 3.64 4.66 5 5 C3.02 5.66 1.04 6.32 -1 7 C-0.01 7.33 0.98 7.66 2 8 C-0.67312924 10.19578473 -2.67118118 11.19649201 -6 12 C-6.33 12.66 -6.66 13.32 -7 14 C-6.01 14.33 -5.02 14.66 -4 15 C-4.8125 16.9375 -4.8125 16.9375 -6 19 C-6.99 19.33 -7.98 19.66 -9 20 C-9.144375 18.906875 -9.28875 17.81375 -9.4375 16.6875 C-9.88288104 13.06877013 -9.88288104 13.06877013 -11 10 C-11.99 10 -12.98 10 -14 10 C-13.33333333 8.66666667 -12.66666667 7.33333333 -12 6 C-11.54625 4.948125 -11.0925 3.89625 -10.625 2.8125 C-9 0 -9 0 -7.125 -0.9375 C-4.61443409 -1.01134017 -2.43126433 -0.60781608 0 0 Z " fill="#E0D410" transform="translate(83,64)"/>
<path d="M0 0 C1.134375 0.020625 2.26875 0.04125 3.4375 0.0625 C3.705625 0.68125 3.97375 1.3 4.25 1.9375 C5.39306848 4.3620233 5.39306848 4.3620233 8.4375 6.0625 C8.7675 6.3925 9.0975 6.7225 9.4375 7.0625 C9.1075 8.0525 8.7775 9.0425 8.4375 10.0625 C6.1275 10.3925 3.8175 10.7225 1.4375 11.0625 C1.7159375 11.990625 1.7159375 11.990625 2 12.9375 C2.4375 15.0625 2.4375 15.0625 1.4375 17.0625 C3.0875 17.0625 4.7375 17.0625 6.4375 17.0625 C6.4375 17.3925 6.4375 17.7225 6.4375 18.0625 C-0.3125 18.1875 -0.3125 18.1875 -2.5625 17.0625 C-2.5625 14.7525 -2.5625 12.4425 -2.5625 10.0625 C-3.5525 10.3925 -4.5425 10.7225 -5.5625 11.0625 C-5.42207123 9.41619672 -5.27500671 7.77045821 -5.125 6.125 C-5.04378906 5.20847656 -4.96257812 4.29195313 -4.87890625 3.34765625 C-4.36077956 -0.39436982 -3.98403999 0.06989544 0 0 Z " fill="#CEC00E" transform="translate(97.5625,120.9375)"/>
<path d="M0 0 C0.639375 0.28875 1.27875 0.5775 1.9375 0.875 C5.88410292 2.3247725 9.8874607 3.15778062 14 4 C13.25 10.625 13.25 10.625 11 14 C7.875 14.6875 7.875 14.6875 5 15 C4.67 13.02 4.34 11.04 4 9 C2.68 8.67 1.36 8.34 0 8 C0 5.36 0 2.72 0 0 Z " fill="#E8E24D" transform="translate(203,95)"/>
<path d="M0 0 C5.53285572 0.05797015 10.68058656 0.78254851 16.01928711 2.18945312 C15.35928711 4.16945313 14.69928711 6.14945313 14.01928711 8.18945312 C12.03928711 8.18945312 10.05928711 8.18945312 8.01928711 8.18945312 C7.68928711 7.52945312 7.35928711 6.86945312 7.01928711 6.18945312 C6.35928711 5.19945312 5.69928711 4.20945312 5.01928711 3.18945312 C5.01928711 2.52945312 5.01928711 1.86945312 5.01928711 1.18945312 C0.56428711 1.68445313 0.56428711 1.68445313 -3.98071289 2.18945312 C-3.65071289 3.83945313 -3.32071289 5.48945313 -2.98071289 7.18945312 C-4.19307617 7.06376953 -4.19307617 7.06376953 -5.42993164 6.93554688 C-7.03288086 6.78279297 -7.03288086 6.78279297 -8.66821289 6.62695312 C-9.72395508 6.52253906 -10.77969727 6.418125 -11.86743164 6.31054688 C-14.79497375 6.19667761 -17.15202433 6.48096898 -19.98071289 7.18945312 C-16.85337313 4.66352485 -13.58465169 2.95137876 -9.98071289 1.18945312 C-7.74073817 -1.05052159 -3.02580322 0.00289239 0 0 Z " fill="#C2BB3D" transform="translate(138.980712890625,9.810546875)"/>
<path d="M0 0 C0.33 0.66 0.66 1.32 1 2 C3.12576782 2.46651207 3.12576782 2.46651207 5.5625 2.625 C6.38878906 2.69976563 7.21507812 2.77453125 8.06640625 2.8515625 C8.70449219 2.90054687 9.34257812 2.94953125 10 3 C9.25 9.625 9.25 9.625 7 13 C3.875 13.6875 3.875 13.6875 1 14 C0.71125 13.195625 0.4225 12.39125 0.125 11.5625 C-0.73262568 8.8673532 -0.73262568 8.8673532 -3 8 C-2.5359375 7.13375 -2.5359375 7.13375 -2.0625 6.25 C-1.07416636 4.15705816 -0.4831387 2.25464725 0 0 Z " fill="#F0EC68" transform="translate(215,27)"/>
<path d="M0 0 C2.05078125 0.03255208 4.1015625 0.06510417 6.15234375 0.09765625 C7.34521786 3.97449712 8.15234375 7.01387548 8.15234375 11.09765625 C7.61609375 10.95328125 7.07984375 10.80890625 6.52734375 10.66015625 C3.75318548 10.00311877 0.96708987 9.54545677 -1.84765625 9.09765625 C-2.50765625 11.07765625 -3.16765625 13.05765625 -3.84765625 15.09765625 C-4.17765625 14.10765625 -4.50765625 13.11765625 -4.84765625 12.09765625 C-6.16765625 12.09765625 -7.48765625 12.09765625 -8.84765625 12.09765625 C-8.84765625 11.43765625 -8.84765625 10.77765625 -8.84765625 10.09765625 C-7.19765625 9.76765625 -5.54765625 9.43765625 -3.84765625 9.09765625 C-3.84765625 8.43765625 -3.84765625 7.77765625 -3.84765625 7.09765625 C-3.18765625 7.09765625 -2.52765625 7.09765625 -1.84765625 7.09765625 C-1.51765625 5.44765625 -1.18765625 3.79765625 -0.84765625 2.09765625 C-1.50765625 1.76765625 -2.16765625 1.43765625 -2.84765625 1.09765625 C-1.84765625 0.09765625 -1.84765625 0.09765625 0 0 Z " fill="#EBE210" transform="translate(74.84765625,25.90234375)"/>
<path d="M0 0 C4.97821242 1.2734962 7.78600429 2.95954825 11 7 C12.57506027 11.83018483 11.60945103 15.26632049 10 20 C9.67 19.01 9.34 18.02 9 17 C7.02 17 5.04 17 3 17 C3.66 16.67 4.32 16.34 5 16 C4.814375 15.236875 4.62875 14.47375 4.4375 13.6875 C4 11 4 11 5 8 C4.2575 7.319375 4.2575 7.319375 3.5 6.625 C2 5 2 5 2 3 C1.34 2.67 0.68 2.34 0 2 C0 1.34 0 0.68 0 0 Z " fill="#E1D710" transform="translate(129,77)"/>
<path d="M0 0 C2.5 0.75 2.5 0.75 5.5 2.75 C7.4896995 3.14013716 9.49019869 3.48202649 11.5 3.75 C11.5 4.08 11.5 4.41 11.5 4.75 C9.19 4.75 6.88 4.75 4.5 4.75 C4.21125 5.348125 3.9225 5.94625 3.625 6.5625 C2.5 8.75 2.5 8.75 0.5 11.75 C-2.05114275 10.69435472 -3.30578081 10.05520158 -4.8125 7.6875 C-7.31046756 4.81946317 -9.83657155 5.02648517 -13.5 4.75 C-13.5 4.42 -13.5 4.09 -13.5 3.75 C-10.86 3.75 -8.22 3.75 -5.5 3.75 C-5.5 3.09 -5.5 2.43 -5.5 1.75 C-2.5 -0.25 -2.5 -0.25 0 0 Z " fill="#D3CF5D" transform="translate(44.5,47.25)"/>
<path d="M0 0 C1.21236328 0.04060547 1.21236328 0.04060547 2.44921875 0.08203125 C3.06410156 0.11683594 3.67898437 0.15164062 4.3125 0.1875 C5.46197895 3.74043493 5.3993937 4.98726669 3.875 8.5 C3.1015625 9.8303125 3.1015625 9.8303125 2.3125 11.1875 C0.3325 11.1875 -1.6475 11.1875 -3.6875 11.1875 C-3.97625 10.383125 -4.265 9.57875 -4.5625 8.75 C-5.42012568 6.0548532 -5.42012568 6.0548532 -7.6875 5.1875 C-7.6875 3.1875 -7.6875 3.1875 -6.48046875 1.57421875 C-4.17167958 -0.21144608 -2.88126329 -0.12527232 0 0 Z " fill="#E3E064" transform="translate(60.6875,102.8125)"/>
<path d="M0 0 C0.33 0.99 0.66 1.98 1 3 C1.99 3.66 2.98 4.32 4 5 C2.35 7.31 0.7 9.62 -1 12 C-2.32 11.67 -3.64 11.34 -5 11 C-5.33 10.01 -5.66 9.02 -6 8 C-6.66 8 -7.32 8 -8 8 C-8 7.34 -8 6.68 -8 6 C-9.98 6 -11.96 6 -14 6 C-13.443125 5.7525 -12.88625 5.505 -12.3125 5.25 C-9.8561199 4.03162126 -9.8561199 4.03162126 -7.5625 1.875 C-4.7017938 -0.21819966 -3.45197673 -0.39451163 0 0 Z " fill="#DDDA67" transform="translate(205,113)"/>
<path d="M0 0 C8.63502756 -0.4390692 8.63502756 -0.4390692 13 3 C13.33 3.66 13.66 4.32 14 5 C13.01 5 12.02 5 11 5 C10.67 6.32 10.34 7.64 10 9 C8.35 9 6.7 9 5 9 C5 9.66 5 10.32 5 11 C2.68108317 9.84054159 1.54262813 9.10358381 0 7 C-0.1875 3.3125 -0.1875 3.3125 0 0 Z " fill="#EFEC70" transform="translate(195,30)"/>
<path d="M0 0 C0.33 0 0.66 0 1 0 C1.33 1.65 1.66 3.3 2 5 C4.64 5 7.28 5 10 5 C10.66 3.68 11.32 2.36 12 1 C17.875 2.875 17.875 2.875 19 4 C19.45977011 9.28735632 19.45977011 9.28735632 17.75 11.9375 C16 13 16 13 14 12.875 C11.75579178 11.8931589 10.52633735 10.90792169 9 9 C9 8.34 9 7.68 9 7 C7.700625 7.020625 6.40125 7.04125 5.0625 7.0625 C3.70834367 7.08399454 2.35243917 7.07148199 1 7 C0 6 0 6 -0.0625 2.9375 C-0.041875 1.968125 -0.02125 0.99875 0 0 Z " fill="#E7E259" transform="translate(36,116)"/>
<path d="M0 0 C1.23556641 0.01740234 1.23556641 0.01740234 2.49609375 0.03515625 C3.32238281 0.04417969 4.14867187 0.05320312 5 0.0625 C5.63808594 0.07410156 6.27617188 0.08570312 6.93359375 0.09765625 C7.26359375 1.08765625 7.59359375 2.07765625 7.93359375 3.09765625 C8.59359375 3.09765625 9.25359375 3.09765625 9.93359375 3.09765625 C9.93359375 5.09765625 9.93359375 5.09765625 8.37109375 7.03515625 C5.36273857 9.58068756 2.6023915 10.68658019 -1.06640625 12.09765625 C-1.81887609 8.44280273 -2.56212504 4.79571848 -3.06640625 1.09765625 C-2.06640625 0.09765625 -2.06640625 0.09765625 0 0 Z " fill="#E1DE64" transform="translate(39.06640625,102.90234375)"/>
<path d="M0 0 C0.99 0 1.98 0 3 0 C3 2.31 3 4.62 3 7 C7.64511035 7.18216119 10.75779316 6.80293791 15 5 C17.32597511 4.6186926 19.65912158 4.27539746 22 4 C21.34 3.34 20.68 2.68 20 2 C21.32 2 22.64 2 24 2 C26 5 26 5 26 8 C25.29875 7.97679687 24.5975 7.95359375 23.875 7.9296875 C17.27101205 7.80370286 17.27101205 7.80370286 10.8125 9 C6.58009076 10.11014013 3.34701701 10.22879037 -1 10 C-2 9 -2 9 -2.1875 5.5625 C-2 2 -2 2 0 0 Z " fill="#D92F2B" transform="translate(108,19)"/>
<path d="M0 0 C5.82371483 0.07371791 11.47330582 0.16372914 17.20703125 1.23046875 C15.45703125 5.10546875 15.45703125 5.10546875 13.20703125 6.23046875 C17.42581317 6.42669116 20.37714019 6.03277043 24.20703125 4.23046875 C23.54703125 5.55046875 22.88703125 6.87046875 22.20703125 8.23046875 C25.17703125 8.56046875 28.14703125 8.89046875 31.20703125 9.23046875 C28.71197163 11.72552837 27.53374237 11.58995251 24.08203125 11.85546875 C23.17195313 11.93023437 22.261875 12.005 21.32421875 12.08203125 C20.62554687 12.13101563 19.926875 12.18 19.20703125 12.23046875 C19.20703125 11.24046875 19.20703125 10.25046875 19.20703125 9.23046875 C18.13453125 9.27171875 17.06203125 9.31296875 15.95703125 9.35546875 C12.5495564 9.24188625 10.99963494 9.01773511 8.20703125 7.23046875 C9.52703125 6.24046875 10.84703125 5.25046875 12.20703125 4.23046875 C9.046776 2.36804454 6.79208311 2.00644019 3.14453125 2.10546875 C2.28730469 2.12351563 1.43007812 2.1415625 0.546875 2.16015625 C-0.61134766 2.19496094 -0.61134766 2.19496094 -1.79296875 2.23046875 C-2.78296875 2.23046875 -3.77296875 2.23046875 -4.79296875 2.23046875 C-2.79296875 0.23046875 -2.79296875 0.23046875 0 0 Z " fill="#C9C11A" transform="translate(106.79296875,38.76953125)"/>
<path d="M0 0 C2.64 0 5.28 0 8 0 C9.76462683 3.08809695 10 4.23312136 10 8 C6.78548731 9.60725635 3.56387464 9.05748185 0 9 C-0.33 9.99 -0.66 10.98 -1 12 C-1.66 9.36 -2.32 6.72 -3 4 C-2.01 4 -1.02 4 0 4 C0 2.68 0 1.36 0 0 Z " fill="#EEE42A" transform="translate(56,114)"/>
<path d="M0 0 C1.64574566 -0.02688151 3.29161413 -0.04634123 4.9375 -0.0625 C5.85402344 -0.07410156 6.77054688 -0.08570312 7.71484375 -0.09765625 C10 0 10 0 11 1 C11.44975172 4.32816273 11.30611549 5.59549025 9.25 8.3125 C7 10 7 10 3 10 C2.896875 9.360625 2.79375 8.72125 2.6875 8.0625 C2.460625 7.381875 2.23375 6.70125 2 6 C1.01 5.67 0.02 5.34 -1 5 C-0.67 3.35 -0.34 1.7 0 0 Z " fill="#DCDA6A" transform="translate(48,32)"/>
<path d="M0 0 C8.57142857 -0.28571429 8.57142857 -0.28571429 12 2 C12 5 12 5 10.9375 6.625 C8.12543118 8.62066174 5.37731859 8.68138504 2 9 C-1.07692308 4.56923077 -1.07692308 4.56923077 -0.6875 1.6875 C-0.460625 1.130625 -0.23375 0.57375 0 0 Z " fill="#E5E36E" transform="translate(188,99)"/>
<path d="M0 0 C3.05074215 -0.28780586 5.96183742 -0.45787911 9 0 C11.0625 2.5 11.0625 2.5 12 5 C9.72095413 7.80497953 8.5485163 8.89925211 4.9375 9.5625 C2 9 2 9 0.0625 6.75 C-1.09712762 3.74861087 -0.91272579 2.94590118 0 0 Z " fill="#F0EC6C" transform="translate(30,32)"/>
<path d="M0 0 C0.928125 0.20625 1.85625 0.4125 2.8125 0.625 C3.1425 1.615 3.4725 2.605 3.8125 3.625 C4.4725 4.285 5.1325 4.945 5.8125 5.625 C4.8225 5.955 3.8325 6.285 2.8125 6.625 C2.8125 7.285 2.8125 7.945 2.8125 8.625 C-0.4875 8.625 -3.7875 8.625 -7.1875 8.625 C-6.875 5.25 -6.875 5.25 -6.1875 1.625 C-3.1875 -0.375 -3.1875 -0.375 0 0 Z " fill="#F0E61F" transform="translate(36.1875,42.375)"/>
<path d="M0 0 C1.32 0.66 2.64 1.32 4 2 C4 2.66 4 3.32 4 4 C4.66 4 5.32 4 6 4 C5.47731534 6.76276177 4.89130413 9.3260876 4 12 C-2.875 10.125 -2.875 10.125 -4 9 C-4.3125 6.125 -4.3125 6.125 -4 3 C-2 1.125 -2 1.125 0 0 Z " fill="#E6DC1A" transform="translate(43,25)"/>
<path d="M0 0 C2 2 2 2 2.125 4.625 C2.08375 5.40875 2.0425 6.1925 2 7 C-0.52053595 8.26026798 -1.8542098 7.91874445 -4.625 7.5625 C-5.44226563 7.46066406 -6.25953125 7.35882813 -7.1015625 7.25390625 C-7.72804687 7.17011719 -8.35453125 7.08632812 -9 7 C-9.33 5.68 -9.66 4.36 -10 3 C-9.34 3 -8.68 3 -8 3 C-7.67 2.01 -7.34 1.02 -7 0 C-3.85179059 -1.04940314 -3.00659136 -1.066855 0 0 Z " fill="#E6DC1A" transform="translate(215,110)"/>
<path d="M0 0 C0.99 2.64 1.98 5.28 3 8 C1 10 1 10 -0.91015625 10.23046875 C-6.88888889 10.11111111 -6.88888889 10.11111111 -8 9 C-8.375 6.125 -8.375 6.125 -8 3 C-5.14925356 0.68858396 -3.6860549 0 0 0 Z " fill="#EDE315" transform="translate(45,112)"/>
<path d="M0 0 C2.67611698 0.36911958 3.8431469 0.84855563 5.8125 2.75 C7.31690887 5.6004589 6.92250763 6.98088413 6 10 C0.56559513 11.32841008 0.56559513 11.32841008 -1.9375 9.875 C-3 8 -3 8 -2.8125 5.5 C-2 3 -2 3 0 0 Z " fill="#E9E032" transform="translate(49,96)"/>
<path d="M0 0 C0.33 0.66 0.66 1.32 1 2 C1.8971875 1.505 1.8971875 1.505 2.8125 1 C5 0 5 0 8 0 C8 0.99 8 1.98 8 3 C8.99 3.33 9.98 3.66 11 4 C10.34 5.98 9.68 7.96 9 10 C8.67 9.34 8.34 8.68 8 8 C7.36191406 8.01160156 6.72382813 8.02320313 6.06640625 8.03515625 C4.82697266 8.04869141 4.82697266 8.04869141 3.5625 8.0625 C2.32693359 8.07990234 2.32693359 8.07990234 1.06640625 8.09765625 C-1 8 -1 8 -2 7 C-2.04063832 5.33382885 -2.042721 3.66611905 -2 2 C-1.34 2 -0.68 2 0 2 C0 1.34 0 0.68 0 0 Z " fill="#E7DD26" transform="translate(197,41)"/>
<path d="M0 0 C3.29714793 0.32971479 4.6226839 0.6226839 7 3 C7.125 5.625 7.125 5.625 7 8 C4.66785852 9.20628008 2.50357861 10.1654738 0 11 C-2.6875 9.0625 -2.6875 9.0625 -5 7 C-4.34 7 -3.68 7 -3 7 C-2.87625 6.21625 -2.7525 5.4325 -2.625 4.625 C-2 2 -2 2 0 0 Z " fill="#E0D827" transform="translate(208,23)"/>
<path d="M0 0 C2.875 -0.125 2.875 -0.125 6 0 C8 2 8 2 8.375 4.375 C7.89262388 7.75163282 6.55541504 8.84386856 4 11 C2.0625 10.4375 2.0625 10.4375 0 9 C-1.42682927 2.85365854 -1.42682927 2.85365854 0 0 Z " fill="#E3E067" transform="translate(207,45)"/>
<path d="M0 0 C1.216875 0.185625 2.43375 0.37125 3.6875 0.5625 C7.02977939 0.98993182 9.71968417 0.92258883 13 0 C12 2 12 2 10.25 2.75 C7.70735158 3.97992735 7.70735158 3.97992735 5.5625 7 C2.97058979 10.03443147 1.75405352 10.96763528 -2 12 C-3.2065625 12.3403125 -3.2065625 12.3403125 -4.4375 12.6875 C-7.47830489 13.05832986 -10.01483123 12.62480277 -13 12 C-13 11.34 -13 10.68 -13 10 C-12.34 10 -11.68 10 -11 10 C-10.67 8.68 -10.34 7.36 -10 6 C-10 7.65 -10 9.3 -10 11 C-7.52733235 10.65555119 -7.52733235 10.65555119 -5 10 C-4.67 9.34 -4.34 8.68 -4 8 C-2.88625 7.87625 -1.7725 7.7525 -0.625 7.625 C3.04501576 7.36670876 3.04501576 7.36670876 4.9375 4.9375 C5.4634375 3.9784375 5.4634375 3.9784375 6 3 C3.69 3 1.38 3 -1 3 C-0.67 2.01 -0.34 1.02 0 0 Z " fill="#B8B015" transform="translate(101,42)"/>
<path d="M0 0 C0.99 0.33 1.98 0.66 3 1 C3.33 2.65 3.66 4.3 4 6 C5.32 6 6.64 6 8 6 C7.67 7.98 7.34 9.96 7 12 C8.98 11.67 10.96 11.34 13 11 C13 11.66 13 12.32 13 13 C5.57142857 13.14285714 5.57142857 13.14285714 2 12 C2 9.69 2 7.38 2 5 C0.35 5.33 -1.3 5.66 -3 6 C-2 4 -1 2 0 0 Z " fill="#AD6526" transform="translate(145,131)"/>
<path d="M0 0 C0.33 1.32 0.66 2.64 1 4 C2.32 4.33 3.64 4.66 5 5 C3.5437328 5.36256858 2.08488815 5.71479793 0.625 6.0625 C-0.59316406 6.35833984 -0.59316406 6.35833984 -1.8359375 6.66015625 C-4 7 -4 7 -6 6 C-6 5.34 -6 4.68 -6 4 C-7.32 4 -8.64 4 -10 4 C-9.67 2.68 -9.34 1.36 -9 0 C-5.67465243 -1.10844919 -3.37817425 -0.84454356 0 0 Z " fill="#BA8E22" transform="translate(83,64)"/>
<path d="M0 0 C1.98 0 3.96 0 6 0 C6.99 2.64 7.98 5.28 9 8 C7.35 7.67 5.7 7.34 4 7 C4 7.66 4 8.32 4 9 C3.34 9 2.68 9 2 9 C2 9.66 2 10.32 2 11 C1.34 11 0.68 11 0 11 C-1.625 8.5 -1.625 8.5 -3 6 C-2.01 6 -1.02 6 0 6 C0 4.02 0 2.04 0 0 Z " fill="#EBE012" transform="translate(148,18)"/>
<path d="M0 0 C0.66 0 1.32 0 2 0 C1.67 1.65 1.34 3.3 1 5 C1.66 5 2.32 5 3 5 C3 5.99 3 6.98 3 8 C-1.95 8.33 -6.9 8.66 -12 9 C-11 6 -11 6 -8 4 C-5.95703125 3.8046875 -5.95703125 3.8046875 -3.8125 3.875 C-1.9253125 3.936875 -1.9253125 3.936875 0 4 C0 2.68 0 1.36 0 0 Z " fill="#F0E610" transform="translate(134,23)"/>
<path d="M0 0 C0.33 0.66 0.66 1.32 1 2 C-0.65 1.67 -2.3 1.34 -4 1 C-3.01 2.485 -3.01 2.485 -2 4 C-2.99 5.485 -2.99 5.485 -4 7 C-7.625 7.1875 -7.625 7.1875 -11 7 C-11.33 5.02 -11.66 3.04 -12 1 C-7.69097166 -1.21980248 -4.68909708 -1.08209933 0 0 Z " fill="#E5DC13" transform="translate(131,16)"/>
<path d="M0 0 C0.99 0 1.98 0 3 0 C2.814375 1.2375 2.62875 2.475 2.4375 3.75 C2.05288777 6.76279577 1.9125406 9.10010827 3 12 C3.99 12 4.98 12 6 12 C5.67 13.65 5.34 15.3 5 17 C6.65 17 8.3 17 10 17 C10 17.33 10 17.66 10 18 C3.25 18.125 3.25 18.125 1 17 C1 14.69 1 12.38 1 10 C0.01 10.33 -0.98 10.66 -2 11 C-1.85957123 9.35369672 -1.71250671 7.70795821 -1.5625 6.0625 C-1.48128906 5.14597656 -1.40007812 4.22945313 -1.31640625 3.28515625 C-1 1 -1 1 0 0 Z " fill="#B46223" transform="translate(94,121)"/>
<path d="M0 0 C1.051875 0.020625 2.10375 0.04125 3.1875 0.0625 C4.5075 0.0625 5.8275 0.0625 7.1875 0.0625 C7.1875 1.0525 7.1875 2.0425 7.1875 3.0625 C6.8575 3.3925 6.5275 3.7225 6.1875 4.0625 C5.81989269 6.39067964 5.48508419 8.7243385 5.1875 11.0625 C4.8575 11.0625 4.5275 11.0625 4.1875 11.0625 C4.1875 9.0825 4.1875 7.1025 4.1875 5.0625 C-0.2675 5.5575 -0.2675 5.5575 -4.8125 6.0625 C-3.73927346 0.08309497 -3.73927346 0.08309497 0 0 Z " fill="#D3C81E" transform="translate(167.8125,25.9375)"/>
<path d="M0 0 C3.3 0.66 6.6 1.32 10 2 C9.67 4.31 9.34 6.62 9 9 C8.67 8.01 8.34 7.02 8 6 C6.7934375 6.2784375 6.7934375 6.2784375 5.5625 6.5625 C4.716875 6.706875 3.87125 6.85125 3 7 C2.67 6.67 2.34 6.34 2 6 C0.68 6 -0.64 6 -2 6 C-1.34 4.02 -0.68 2.04 0 0 Z " fill="#ECE96E" transform="translate(207,97)"/>
<path d="M0 0 C2.63556905 1.31778453 4.72269553 3.14219898 7 5 C6.67 5.99 6.34 6.98 6 8 C-0.4 8.49230769 -0.4 8.49230769 -3.4375 6 C-3.953125 5.34 -4.46875 4.68 -5 4 C-4.0409375 3.8453125 -4.0409375 3.8453125 -3.0625 3.6875 C-2.381875 3.460625 -1.70125 3.23375 -1 3 C-0.67 2.01 -0.34 1.02 0 0 Z " fill="#F0E614" transform="translate(51,43)"/>
<path d="M0 0 C0.33 0 0.66 0 1 0 C1.33 2.31 1.66 4.62 2 7 C2.66 7 3.32 7 4 7 C3.67 7.99 3.34 8.98 3 10 C2.38125 9.835 1.7625 9.67 1.125 9.5 C-0.96063386 8.92365356 -0.96063386 8.92365356 -3 9 C-2.34 10.98 -1.68 12.96 -1 15 C-2.32 15.33 -3.64 15.66 -5 16 C-5 15.01 -5 14.02 -5 13 C-7.31 13.66 -9.62 14.32 -12 15 C-12 14.34 -12 13.68 -12 13 C-11.34 13 -10.68 13 -10 13 C-10 12.34 -10 11.68 -10 11 C-8.35 10.67 -6.7 10.34 -5 10 C-4.67 9.01 -4.34 8.02 -4 7 C-3.01 7 -2.02 7 -1 7 C-0.67 4.69 -0.34 2.38 0 0 Z " fill="#F4D013" transform="translate(210,28)"/>
<path d="M0 0 C1.45823212 -0.0270043 2.91660675 -0.04639787 4.375 -0.0625 C5.18710938 -0.07410156 5.99921875 -0.08570313 6.8359375 -0.09765625 C9 0 9 0 11 1 C10.34 2.98 9.68 4.96 9 7 C7.02 7 5.04 7 3 7 C2.67 6.34 2.34 5.68 2 5 C1.34 4.01 0.68 3.02 0 2 C0 1.34 0 0.68 0 0 Z " fill="#CFC60D" transform="translate(144,11)"/>
<path d="M0 0 C4.13342172 1.37780724 5.01794989 3.17747479 7 7 C6.75 10.875 6.75 10.875 6 14 C7.65 14 9.3 14 11 14 C10.67 15.98 10.34 17.96 10 20 C9.67 19.01 9.34 18.02 9 17 C7.02 17 5.04 17 3 17 C3.66 16.67 4.32 16.34 5 16 C4.814375 15.236875 4.62875 14.47375 4.4375 13.6875 C4 11 4 11 5 8 C4.2575 7.319375 4.2575 7.319375 3.5 6.625 C2 5 2 5 2 3 C1.34 2.67 0.68 2.34 0 2 C0 1.34 0 0.68 0 0 Z " fill="#B3AB13" transform="translate(129,77)"/>
<path d="M0 0 C0.33 0 0.66 0 1 0 C1.33 1.65 1.66 3.3 2 5 C3.8871875 5.0309375 3.8871875 5.0309375 5.8125 5.0625 C6.52019531 5.07410156 7.22789063 5.08570312 7.95703125 5.09765625 C10.20305461 5.08263217 10.20305461 5.08263217 13 4 C13.33 5.98 13.66 7.96 14 10 C14.99 10 15.98 10 17 10 C16.67 10.99 16.34 11.98 16 13 C12.75728494 12.4409112 11.06942576 11.5867822 9 9 C9 8.34 9 7.68 9 7 C7.700625 7.020625 6.40125 7.04125 5.0625 7.0625 C3.70834367 7.08399454 2.35243917 7.07148199 1 7 C0 6 0 6 -0.0625 2.9375 C-0.041875 1.968125 -0.02125 0.99875 0 0 Z " fill="#CBC85E" transform="translate(36,116)"/>
<path d="M0 0 C1.051875 0.4640625 1.051875 0.4640625 2.125 0.9375 C5.08936657 2.03302678 7.87698108 2.56422992 11 3 C11 3.33 11 3.66 11 4 C8.69 4 6.38 4 4 4 C3.71125 4.598125 3.4225 5.19625 3.125 5.8125 C2 8 2 8 0 11 C-3.875 9.25 -3.875 9.25 -5 7 C-3.02 7 -1.04 7 1 7 C0.67 4.69 0.34 2.38 0 0 Z " fill="#D1CE60" transform="translate(45,48)"/>
<path d="M0 0 C2.31 0.33 4.62 0.66 7 1 C6.41196203 4.02419525 5.77321882 7.01758453 5 10 C4.34 10 3.68 10 3 10 C3 9.34 3 8.68 3 8 C2.34 8 1.68 8 1 8 C-0.35439668 5.29120665 -0.06501451 2.99066732 0 0 Z " fill="#D4C914" transform="translate(82,27)"/>
<path d="M0 0 C0.75 1.5625 0.75 1.5625 1 4 C-0.13084437 6.50286409 -1.52139516 8.67007722 -3 11 C-3.66 11 -4.32 11 -5 11 C-5 9.02 -5 7.04 -5 5 C-5.99 4.67 -6.98 4.34 -8 4 C-7.67 3.34 -7.34 2.68 -7 2 C-5.00714063 1.62633887 -3.00636471 1.29259485 -1 1 C-0.67 0.67 -0.34 0.34 0 0 Z " fill="#ECE213" transform="translate(114,62)"/>
<path d="M0 0 C0.66 0.33 1.32 0.66 2 1 C1.67 4.3 1.34 7.6 1 11 C5 9.5 5 9.5 6 7 C6.66 7 7.32 7 8 7 C8.33 9.31 8.66 11.62 9 14 C8.34 14 7.68 14 7 14 C6.67 13.01 6.34 12.02 6 11 C5.01 11.66 4.02 12.32 3 13 C1.68 13 0.36 13 -1 13 C-0.90234375 10.98177083 -0.8046875 8.96354167 -0.70703125 6.9453125 C-0.80371094 6.30335937 -0.90039062 5.66140625 -1 5 C-1.99 4.34 -2.98 3.68 -4 3 C-3.01 2.67 -2.02 2.34 -1 2 C-0.67 1.34 -0.34 0.68 0 0 Z " fill="#B6AF0D" transform="translate(108,52)"/>
<path d="M0 0 C1.32 0.33 2.64 0.66 4 1 C4 2.32 4 3.64 4 5 C5.65 4.67 7.3 4.34 9 4 C11.40814077 7.51187196 12.36629408 9.72656908 12 14 C10 13 10 13 9 10 C6.50240018 8.30117552 6.50240018 8.30117552 4 7 C3.67 7.66 3.34 8.32 3 9 C2.34 8.67 1.68 8.34 1 8 C1.33 5.69 1.66 3.38 2 1 C1.34 0.67 0.68 0.34 0 0 Z " fill="#D6CF34" transform="translate(47,37)"/>
<path d="M0 0 C0.33 0.66 0.66 1.32 1 2 C2.98 2 4.96 2 7 2 C6.01 2.33 5.02 2.66 4 3 C4 3.99 4 4.98 4 6 C3.01 6.495 3.01 6.495 2 7 C2.65585189 10.60992379 2.65585189 10.60992379 4 14 C3.01 14 2.02 14 1 14 C0.71125 13.195625 0.4225 12.39125 0.125 11.5625 C-0.73262568 8.8673532 -0.73262568 8.8673532 -3 8 C-2.5359375 7.13375 -2.5359375 7.13375 -2.0625 6.25 C-1.07416636 4.15705816 -0.4831387 2.25464725 0 0 Z " fill="#CDC95D" transform="translate(215,27)"/>
<path d="M0 0 C0.66 0.33 1.32 0.66 2 1 C2 2.65 2 4.3 2 6 C1.67 5.34 1.34 4.68 1 4 C-0.66621425 5.1645201 -0.66621425 5.1645201 -2 7 C-1.76956136 9.65466049 -1.76956136 9.65466049 -1 12 C-2.65 12 -4.3 12 -6 12 C-6 12.66 -6 13.32 -6 14 C-6.66 14 -7.32 14 -8 14 C-8.33 12.68 -8.66 11.36 -9 10 C-8.38125 9.938125 -7.7625 9.87625 -7.125 9.8125 C-4.76212503 9.19306477 -4.76212503 9.19306477 -3.9375 6.6875 C-3.628125 5.800625 -3.31875 4.91375 -3 4 C-2.04175747 2.63634717 -1.05278825 1.29205831 0 0 Z " fill="#BFB713" transform="translate(127,58)"/>
<path d="M0 0 C0.33 0.99 0.66 1.98 1 3 C2.11375 2.87625 2.11375 2.87625 3.25 2.75 C6.78157027 3.07105184 7.76630364 4.35265617 10 7 C9.46375 6.855625 8.9275 6.71125 8.375 6.5625 C5.60084173 5.90546252 2.81474612 5.44780052 0 5 C-0.66 6.98 -1.32 8.96 -2 11 C-2.33 10.01 -2.66 9.02 -3 8 C-4.32 8 -5.64 8 -7 8 C-7 7.34 -7 6.68 -7 6 C-5.35 5.67 -3.7 5.34 -2 5 C-2 4.34 -2 3.68 -2 3 C-1.34 3 -0.68 3 0 3 C0 2.01 0 1.02 0 0 Z " fill="#C4B513" transform="translate(73,30)"/>
<path d="M0 0 C0.33 0.66 0.66 1.32 1 2 C1.66 2 2.32 2 3 2 C3.66 3.65 4.32 5.3 5 7 C4.2575 7.12375 3.515 7.2475 2.75 7.375 C0.01820689 7.87589514 0.01820689 7.87589514 -2.1875 9.125 C-2.785625 9.41375 -3.38375 9.7025 -4 10 C-4.66 9.67 -5.32 9.34 -6 9 C-6 8.34 -6 7.68 -6 7 C-5.38125 6.54625 -4.7625 6.0925 -4.125 5.625 C-1.86557722 3.89720611 -1.07249699 2.59186772 0 0 Z " fill="#CAC112" transform="translate(121,116)"/>
<path d="M0 0 C1.32 0.99 2.64 1.98 4 3 C3.34 4.32 2.68 5.64 2 7 C1.34 7 0.68 7 0 7 C0 6.34 0 5.68 0 5 C-1.32 6.32 -2.64 7.64 -4 9 C-4.99 8.67 -5.98 8.34 -7 8 C-7 6.68 -7 5.36 -7 4 C-8.65 4 -10.3 4 -12 4 C-12 3.67 -12 3.34 -12 3 C-9.69 3 -7.38 3 -5 3 C-4.67 3.66 -4.34 4.32 -4 5 C-0.75150023 3.27773504 -0.75150023 3.27773504 0 0 Z " fill="#B4AC02" transform="translate(142,28)"/>
<path d="M0 0 C0.33 2.31 0.66 4.62 1 7 C-0.65 7.33 -2.3 7.66 -4 8 C-4.66 6.02 -5.32 4.04 -6 2 C-3 0 -3 0 0 0 Z " fill="#EEEA6A" transform="translate(55,34)"/>
<path d="M0 0 C-0.598125 0.433125 -1.19625 0.86625 -1.8125 1.3125 C-3.70783087 2.77461239 -5.3528593 4.27050227 -7 6 C-4.36 5.67 -1.72 5.34 1 5 C-0.98 5.99 -0.98 5.99 -3 7 C-3 7.66 -3 8.32 -3 9 C-5.475 8.01 -5.475 8.01 -8 7 C-8 5.68 -8 4.36 -8 3 C-9.98 3 -11.96 3 -14 3 C-14 2.67 -14 2.34 -14 2 C-9.15758367 0.66416101 -5.06562383 -0.25328119 0 0 Z " fill="#735C4E" transform="translate(129,26)"/>
<path d="M0 0 C1.32 0 2.64 0 4 0 C6 3 6 3 6 6 C4.04196493 6.05389087 2.08351091 6.09274217 0.125 6.125 C-0.96554688 6.14820313 -2.05609375 6.17140625 -3.1796875 6.1953125 C-6 6 -6 6 -8 4 C-4.7 3.34 -1.4 2.68 2 2 C1.34 1.34 0.68 0.68 0 0 Z " fill="#C14324" transform="translate(128,21)"/>
<path d="M0 0 C2.375 0.25 2.375 0.25 5 1 C6.3125 3.0625 6.3125 3.0625 7 5 C5.8553125 4.7525 5.8553125 4.7525 4.6875 4.5 C1.96403764 3.90854604 1.96403764 3.90854604 -1 4 C-1.33 5.32 -1.66 6.64 -2 8 C-4.97 7.67 -7.94 7.34 -11 7 C-11 6.67 -11 6.34 -11 6 C-9.39125 5.9071875 -9.39125 5.9071875 -7.75 5.8125 C-3.86468039 5.33854041 -3.86468039 5.33854041 -1.5625 2.4375 C-1.046875 1.633125 -0.53125 0.82875 0 0 Z " fill="#BCB635" transform="translate(200,92)"/>
<path d="M0 0 C0 2.31 0 4.62 0 7 C-0.66 6.34 -1.32 5.68 -2 5 C-2.99 5.495 -2.99 5.495 -4 6 C-4 4.68 -4 3.36 -4 2 C-4.66 2 -5.32 2 -6 2 C-6.33 3.32 -6.66 4.64 -7 6 C-7 5.34 -7 4.68 -7 4 C-8.98 4 -10.96 4 -13 4 C-12.1028125 3.566875 -12.1028125 3.566875 -11.1875 3.125 C-4.70454545 -0.20909091 -4.70454545 -0.20909091 0 0 Z " fill="#D2CD5E" transform="translate(204,115)"/>
<path d="M0 0 C0 0.99 0 1.98 0 3 C-0.33 3.33 -0.66 3.66 -1 4 C1.97 4.33 4.94 4.66 8 5 C5.50494038 7.49505962 4.32671112 7.35948376 0.875 7.625 C-0.03507813 7.69976562 -0.94515625 7.77453125 -1.8828125 7.8515625 C-2.93082031 7.92503906 -2.93082031 7.92503906 -4 8 C-4 7.01 -4 6.02 -4 5 C-4.99 4.34 -5.98 3.68 -7 3 C-4.69 2.01 -2.38 1.02 0 0 Z " fill="#C8C006" transform="translate(130,43)"/>
<path d="M0 0 C-0.66 0 -1.32 0 -2 0 C-2 0.66 -2 1.32 -2 2 C-1.01 2.33 -0.02 2.66 1 3 C1 3.66 1 4.32 1 5 C-1.3125 5.625 -1.3125 5.625 -4 6 C-4.99 5.34 -5.98 4.68 -7 4 C-6.6875 2.0625 -6.6875 2.0625 -6 0 C-3 -1 -3 -1 0 0 Z " fill="#EEE42C" transform="translate(214,110)"/>
<path d="M0 0 C0.33 1.32 0.66 2.64 1 4 C-1.52053595 5.26026798 -2.8542098 4.91874445 -5.625 4.5625 C-6.85089844 4.40974609 -6.85089844 4.40974609 -8.1015625 4.25390625 C-9.04128906 4.12822266 -9.04128906 4.12822266 -10 4 C-10 3.34 -10 2.68 -10 2 C-6.3558226 -0.4294516 -4.28758728 -0.16179575 0 0 Z " fill="#EEEB6D" transform="translate(63,104)"/>
<path d="M0 0 C1.2065625 0.0309375 1.2065625 0.0309375 2.4375 0.0625 C2.4375 2.0425 2.4375 4.0225 2.4375 6.0625 C-0.5625 7.0625 -0.5625 7.0625 -3.5625 6.0625 C-3.605221 4.39638095 -3.60313832 2.72867115 -3.5625 1.0625 C-2.5625 0.0625 -2.5625 0.0625 0 0 Z " fill="#EEEB6A" transform="translate(209.5625,45.9375)"/>
<path d="M0 0 C3.05074215 -0.28780586 5.96183742 -0.45787911 9 0 C11.0625 2.5 11.0625 2.5 12 5 C10.35 6.32 8.7 7.64 7 9 C6.67 6.69 6.34 4.38 6 2 C3.58354218 1.83312552 3.58354218 1.83312552 1 2 C0.34 2.66 -0.32 3.32 -1 4 C-0.67 2.68 -0.34 1.36 0 0 Z " fill="#DAD764" transform="translate(30,32)"/>
<path d="M0 0 C1.65 0.33 3.3 0.66 5 1 C4.67 2.65 4.34 4.3 4 6 C2.35 5.67 0.7 5.34 -1 5 C-0.67 3.35 -0.34 1.7 0 0 Z " fill="#E7A719" transform="translate(200,105)"/>
<path d="M0 0 C0.66 0.66 1.32 1.32 2 2 C1.01 2 0.02 2 -1 2 C-1.33 3.32 -1.66 4.64 -2 6 C-3.65 6 -5.3 6 -7 6 C-7 6.66 -7 7.32 -7 8 C-9 7 -9 7 -10 4 C-8.35 4 -6.7 4 -5 4 C-5.66 3.34 -6.32 2.68 -7 2 C-4.69 1.34 -2.38 0.68 0 0 Z " fill="#DBD652" transform="translate(207,33)"/>
<path d="M0 0 C0.66 0.33 1.32 0.66 2 1 C2.33 1.99 2.66 2.98 3 4 C3.66 4.33 4.32 4.66 5 5 C5.33 4.34 5.66 3.68 6 3 C6 4.32 6 5.64 6 7 C1.125 6.125 1.125 6.125 0 5 C-0.99 7.31 -1.98 9.62 -3 12 C-3.33 12 -3.66 12 -4 12 C-4.61528766 6.92387682 -2.61658349 4.17017994 0 0 Z " fill="#B1AB16" transform="translate(139,57)"/>
<path d="M0 0 C0.66 0.33 1.32 0.66 2 1 C1.01 2.485 1.01 2.485 0 4 C0.3121764 6.64632287 0.3121764 6.64632287 1 9 C-0.65 9 -2.3 9 -4 9 C-3.6875 5.625 -3.6875 5.625 -3 2 C-2.01 1.34 -1.02 0.68 0 0 Z " fill="#E7DD19" transform="translate(33,42)"/>
<path d="M0 0 C0.99 0 1.98 0 3 0 C2.25 6.625 2.25 6.625 0 10 C-1.65 9.67 -3.3 9.34 -5 9 C-3.6875 7.5 -3.6875 7.5 -2 6 C-1.01 6 -0.02 6 1 6 C0.67 4.02 0.34 2.04 0 0 Z " fill="#DEDD6C" transform="translate(222,30)"/>
<path d="M0 0 C-0.1875 2.375 -0.1875 2.375 -1 5 C-3.5625 6.3125 -3.5625 6.3125 -6 7 C-6.66 5.68 -7.32 4.36 -8 3 C-2.25 0 -2.25 0 0 0 Z " fill="#EFE531" transform="translate(46,114)"/>
<path d="M0 0 C1.32 0 2.64 0 4 0 C4 0.66 4 1.32 4 2 C4.66 2 5.32 2 6 2 C6 2.66 6 3.32 6 4 C3.36 4.66 0.72 5.32 -2 6 C-2 3 -2 3 0 0 Z " fill="#ECE968" transform="translate(43,104)"/>
<path d="M0 0 C2.0625 0.4375 2.0625 0.4375 4 1 C4 2.98 4 4.96 4 7 C2.68 6.67 1.36 6.34 0 6 C-0.38218767 4.34385343 -0.71395102 2.67542976 -1 1 C-0.67 0.67 -0.34 0.34 0 0 Z " fill="#F1E718" transform="translate(199,95)"/>
<path d="M0 0 C0.98484375 0.01804688 1.9696875 0.03609375 2.984375 0.0546875 C4.10585937 0.08949219 4.10585937 0.08949219 5.25 0.125 C4.92 0.785 4.59 1.445 4.25 2.125 C2.10546875 2.7578125 2.10546875 2.7578125 -0.5625 3.25 C-1.87154297 3.50136719 -1.87154297 3.50136719 -3.20703125 3.7578125 C-5.75 4.125 -5.75 4.125 -9.75 4.125 C-9.75 3.465 -9.75 2.805 -9.75 2.125 C-6.40060119 0.09941119 -3.88037449 -0.09238987 0 0 Z " fill="#DBD113" transform="translate(102.75,52.875)"/>
<path d="M0 0 C0 0.33 0 0.66 0 1 C-1.98 1.33 -3.96 1.66 -6 2 C-3.36 2.33 -0.72 2.66 2 3 C2 3.33 2 3.66 2 4 C-4.435 4.495 -4.435 4.495 -11 5 C-9.07089686 -0.78730941 -5.38986894 -0.20339128 0 0 Z " fill="#D8CC17" transform="translate(133,27)"/>
<path d="M0 0 C1.32 0 2.64 0 4 0 C4 1.65 4 3.3 4 5 C0.71023192 6.09658936 -0.71303767 5.79953138 -4 5 C-3.01 4.67 -2.02 4.34 -1 4 C-0.26676204 1.98491642 -0.26676204 1.98491642 0 0 Z " fill="#C9582B" transform="translate(170,132)"/>
<path d="M0 0 C1.65 0.33 3.3 0.66 5 1 C4.6875 2.9375 4.6875 2.9375 4 5 C3.01 5.33 2.02 5.66 1 6 C0.34 5.67 -0.32 5.34 -1 5 C-0.67 3.35 -0.34 1.7 0 0 Z " fill="#E5A618" transform="translate(49,110)"/>
<path d="M0 0 C-0.33 1.65 -0.66 3.3 -1 5 C-2.65 4.67 -4.3 4.34 -6 4 C-6 2.68 -6 1.36 -6 0 C-3.50907189 -1.24546405 -2.58919267 -0.7767578 0 0 Z " fill="#E8A619" transform="translate(213,37)"/>
<path d="M0 0 C0.33 0.99 0.66 1.98 1 3 C1.99 2.34 2.98 1.68 4 1 C6.1875 1.375 6.1875 1.375 8 2 C7.67 3.65 7.34 5.3 7 7 C6.34 7 5.68 7 5 7 C5 6.01 5 5.02 5 4 C2.69 4 0.38 4 -2 4 C-1.34 2.68 -0.68 1.36 0 0 Z " fill="#B65621" transform="translate(111,131)"/>
<path d="M0 0 C0.99 0 1.98 0 3 0 C2.67 3.3 2.34 6.6 2 10 C0.68 10.33 -0.64 10.66 -2 11 C-1.85957123 9.35369672 -1.71250671 7.70795821 -1.5625 6.0625 C-1.48128906 5.14597656 -1.40007812 4.22945313 -1.31640625 3.28515625 C-1 1 -1 1 0 0 Z " fill="#AF3536" transform="translate(94,121)"/>
<path d="M0 0 C0.33 1.32 0.66 2.64 1 4 C-2.21451269 5.60725635 -5.43612536 5.05748185 -9 5 C-9.33 5.99 -9.66 6.98 -10 8 C-10 6.35 -10 4.7 -10 3 C-6.33694766 2.25073929 -3.57644848 1.7619986 0 3 C0 2.01 0 1.02 0 0 Z " fill="#C2BC37" transform="translate(65,118)"/>
<path d="M0 0 C1.32 0.33 2.64 0.66 4 1 C3.34 2.98 2.68 4.96 2 7 C1.67 6.34 1.34 5.68 1 5 C-1.97 5 -4.94 5 -8 5 C-8 4.67 -8 4.34 -8 4 C-6.865625 3.71125 -5.73125 3.4225 -4.5625 3.125 C-3.386875 2.75375 -2.21125 2.3825 -1 2 C-0.67 1.34 -0.34 0.68 0 0 Z " fill="#DBD426" transform="translate(204,44)"/>
<path d="M0 0 C0.66 0 1.32 0 2 0 C2.33 1.98 2.66 3.96 3 6 C3.66 6 4.32 6 5 6 C5 6.66 5 7.32 5 8 C2.64828869 7.40138258 0.3140622 6.73075648 -2 6 C-2.33 5.34 -2.66 4.68 -3 4 C-2.34 4 -1.68 4 -1 4 C-0.67 2.68 -0.34 1.36 0 0 Z " fill="#E8DF31" transform="translate(42,29)"/>
<path d="M0 0 C0.66 0.33 1.32 0.66 2 1 C2 4 2 4 0.5 5.6875 C0.005 6.120625 -0.49 6.55375 -1 7 C-3.475 6.01 -3.475 6.01 -6 5 C-5.67 4.34 -5.34 3.68 -5 3 C-5.66 2.34 -6.32 1.68 -7 1 C-4.69 1.33 -2.38 1.66 0 2 C0 1.34 0 0.68 0 0 Z " fill="#E5E05A" transform="translate(198,100)"/>
<path d="M0 0 C1.65 0.33 3.3 0.66 5 1 C4.67 2.32 4.34 3.64 4 5 C2.35 4.67 0.7 4.34 -1 4 C-0.67 2.68 -0.34 1.36 0 0 Z " fill="#E6A419" transform="translate(42,39)"/>
<path d="M0 0 C3.3 0 6.6 0 10 0 C10.33 0.66 10.66 1.32 11 2 C9.02 2 7.04 2 5 2 C4.67 2.99 4.34 3.98 4 5 C1.525 4.01 1.525 4.01 -1 3 C-0.67 2.01 -0.34 1.02 0 0 Z " fill="#C7BE2B" transform="translate(170,15)"/>
<path d="M0 0 C0.99 0 1.98 0 3 0 C3.66 1.32 4.32 2.64 5 4 C4.01 4.99 3.02 5.98 2 7 C1.67 6.01 1.34 5.02 1 4 C0.67 4.99 0.34 5.98 0 7 C-0.66 7 -1.32 7 -2 7 C-1.125 2.25 -1.125 2.25 0 0 Z " fill="#BFB71D" transform="translate(170,113)"/>
<path d="M0 0 C0.99 0.66 1.98 1.32 3 2 C2.67 4.31 2.34 6.62 2 9 C1.34 9 0.68 9 0 9 C-1.625 6.5 -1.625 6.5 -3 4 C-2.01 4 -1.02 4 0 4 C0 2.68 0 1.36 0 0 Z " fill="#C9C109" transform="translate(148,20)"/>
<path d="M0 0 C3.465 1.485 3.465 1.485 7 3 C6.01 4.485 6.01 4.485 5 6 C0.125 4.25 0.125 4.25 -1 2 C-0.67 1.34 -0.34 0.68 0 0 Z " fill="#EEE530" transform="translate(216,41)"/>
<path d="M0 0 C2.05078125 0.03255208 4.1015625 0.06510417 6.15234375 0.09765625 C5.16234375 0.42765625 4.17234375 0.75765625 3.15234375 1.09765625 C2.41910579 3.11273983 2.41910579 3.11273983 2.15234375 5.09765625 C1.16234375 4.76765625 0.17234375 4.43765625 -0.84765625 4.09765625 C-0.84765625 3.43765625 -0.84765625 2.77765625 -0.84765625 2.09765625 C-1.50765625 1.76765625 -2.16765625 1.43765625 -2.84765625 1.09765625 C-1.84765625 0.09765625 -1.84765625 0.09765625 0 0 Z " fill="#B45229" transform="translate(74.84765625,25.90234375)"/>
<path d="M0 0 C2.97 0 5.94 0 9 0 C9.625 2.375 9.625 2.375 10 5 C9.34 5.66 8.68 6.32 8 7 C7.79375 6.195625 7.5875 5.39125 7.375 4.5625 C6.92125 3.716875 6.4675 2.87125 6 2 C2.94727535 1.10169161 2.94727535 1.10169161 0 1 C0 0.67 0 0.34 0 0 Z " fill="#CFCD66" transform="translate(56,103)"/>
<path d="M0 0 C2.97 0 5.94 0 9 0 C9 0.33 9 0.66 9 1 C6.69 1 4.38 1 2 1 C1.67 2.98 1.34 4.96 1 7 C0.34 6.34 -0.32 5.68 -1 5 C-0.625 2.375 -0.625 2.375 0 0 Z " fill="#D2D065" transform="translate(37,103)"/>
<path d="M0 0 C0.99 0.33 1.98 0.66 3 1 C2.34 1.66 1.68 2.32 1 3 C0.60235737 4.98821313 0.26224651 6.98944339 0 9 C-0.99 8.67 -1.98 8.34 -3 8 C-2.45276317 4.62537285 -1.9451 2.91765 0 0 Z " fill="#DCD41D" transform="translate(49,96)"/>
<path d="M0 0 C0.66 0 1.32 0 2 0 C2 0.99 2 1.98 2 3 C3.32 3 4.64 3 6 3 C5.1875 4.9375 5.1875 4.9375 4 7 C3.01 7.33 2.02 7.66 1 8 C0.67 5.36 0.34 2.72 0 0 Z " fill="#B14738" transform="translate(73,76)"/>
<path d="M0 0 C0.33 0.99 0.66 1.98 1 3 C1.99 2.34 2.98 1.68 4 1 C6.6875 0.875 6.6875 0.875 9 1 C7.71937515 2.7074998 6.38232443 4.37373596 5 6 C4.34 6 3.68 6 3 6 C3 5.34 3 4.68 3 4 C2.01 4 1.02 4 0 4 C0 2.68 0 1.36 0 0 Z " fill="#B66034" transform="translate(89,75)"/>
<path d="M0 0 C0.66 0.33 1.32 0.66 2 1 C1.67 1.66 1.34 2.32 1 3 C2.32 3 3.64 3 5 3 C5 3.99 5 4.98 5 6 C2.69 6 0.38 6 -2 6 C-2 5.34 -2 4.68 -2 4 C-1.34 4 -0.68 4 0 4 C0 2.68 0 1.36 0 0 Z " fill="#B45B28" transform="translate(79,43)"/>
<path d="M0 0 C1.32 0.33 2.64 0.66 4 1 C3.67 2.65 3.34 4.3 3 6 C2.01 6.33 1.02 6.66 0 7 C0 4.69 0 2.38 0 0 Z " fill="#EFE51F" transform="translate(211,26)"/>
<path d="M0 0 C0 0.66 0 1.32 0 2 C1.65 2 3.3 2 5 2 C2.4345406 4.5654594 0.52313332 4.54046087 -3 5 C-3 4.01 -3 3.02 -3 2 C-3.66 1.67 -4.32 1.34 -5 1 C-2 0 -2 0 0 0 Z " fill="#EBE211" transform="translate(151,130)"/>
<path d="M0 0 C0.99 0.33 1.98 0.66 3 1 C3 2.98 3 4.96 3 7 C2.01 7.495 2.01 7.495 1 8 C0.01 7.34 -0.98 6.68 -2 6 C-1.01 6 -0.02 6 1 6 C0.67 4.02 0.34 2.04 0 0 Z " fill="#EBE970" transform="translate(52,119)"/>
<path d="M0 0 C4.95 0.99 4.95 0.99 10 2 C9.67 4.31 9.34 6.62 9 9 C8 7 7 5 6 3 C2.97065509 2.34227572 2.97065509 2.34227572 0 2 C0 1.34 0 0.68 0 0 Z " fill="#C5C365" transform="translate(207,97)"/>
<path d="M0 0 C1.32 0.66 2.64 1.32 4 2 C4 3.65 4 5.3 4 7 C3.01 7.495 3.01 7.495 2 8 C1.896875 7.38125 1.79375 6.7625 1.6875 6.125 C1.12474627 3.63473516 1.12474627 3.63473516 -2 2 C-1.34 1.34 -0.68 0.68 0 0 Z " fill="#EDE316" transform="translate(51,97)"/>
<path d="M0 0 C1.32 0 2.64 0 4 0 C4 1.98 4 3.96 4 6 C2.68 5.67 1.36 5.34 0 5 C0 3.35 0 1.7 0 0 Z " fill="#E5DB13" transform="translate(78,63)"/>
<path d="M0 0 C1.32 0 2.64 0 4 0 C3.125 4.75 3.125 4.75 2 7 C1.34 7 0.68 7 0 7 C0 4.69 0 2.38 0 0 Z " fill="#C4C169" transform="translate(195,30)"/>
<path d="M0 0 C1.32 0 2.64 0 4 0 C4.33 2.31 4.66 4.62 5 7 C4.01 7 3.02 7 2 7 C2 5.68 2 4.36 2 3 C1.34 2.67 0.68 2.34 0 2 C0 1.34 0 0.68 0 0 Z " fill="#ECE214" transform="translate(60,114)"/>
<path d="M0 0 C0.99 0.33 1.98 0.66 3 1 C3 1.66 3 2.32 3 3 C2.01 3 1.02 3 0 3 C0 4.65 0 6.3 0 8 C-1.32 7.67 -2.64 7.34 -4 7 C-3.34 7 -2.68 7 -2 7 C-1.855625 6.21625 -1.71125 5.4325 -1.5625 4.625 C-1 2 -1 2 0 0 Z " fill="#BEB62B" transform="translate(102,84)"/>
<path d="M0 0 C2.625 0.375 2.625 0.375 5 1 C5.33 3.31 5.66 5.62 6 8 C5.67 6.68 5.34 5.36 5 4 C2.69 3.34 0.38 2.68 -2 2 C-1.34 1.34 -0.68 0.68 0 0 Z " fill="#DED51C" transform="translate(219,40)"/>
<path d="M0 0 C1.98 0.66 3.96 1.32 6 2 C5.01 2.33 4.02 2.66 3 3 C2.67 4.65 2.34 6.3 2 8 C0.23537317 4.91190305 0 3.76687864 0 0 Z " fill="#45436B" transform="translate(131,109)"/>
<path d="M0 0 C2.31 0.33 4.62 0.66 7 1 C7.33 1.99 7.66 2.98 8 4 C5.23723823 3.47731534 2.6739124 2.89130413 0 2 C0 1.34 0 0.68 0 0 Z " fill="#EEEC73" transform="translate(191,99)"/>
<path d="M0 0 C0.66 0 1.32 0 2 0 C2 1.98 2 3.96 2 6 C0.68 6 -0.64 6 -2 6 C-2 4.68 -2 3.36 -2 2 C-1.34 2 -0.68 2 0 2 C0 1.34 0 0.68 0 0 Z " fill="#F0E611" transform="translate(137,85)"/>
<path d="M0 0 C1.42944945 2.35438733 2.08661261 3.48032433 1.625 6.25 C1.41875 6.8275 1.2125 7.405 1 8 C0.67 7.34 0.34 6.68 0 6 C-0.99 6 -1.98 6 -3 6 C-2 4 -1 2 0 0 Z " fill="#B9502D" transform="translate(72,68)"/>
<path d="M0 0 C-0.33 1.65 -0.66 3.3 -1 5 C-1.33 4.01 -1.66 3.02 -2 2 C-3.32 2 -4.64 2 -6 2 C-6 1.34 -6 0.68 -6 0 C-3.50907189 -1.24546405 -2.58919267 -0.7767578 0 0 Z " fill="#B74A2C" transform="translate(72,36)"/>
<path d="M0 0 C2.09350689 3.4019487 2.17942163 6.05272412 2 10 C1.01 10.495 1.01 10.495 0 11 C-0.12375 10.195625 -0.2475 9.39125 -0.375 8.5625 C-0.684375 7.2940625 -0.684375 7.2940625 -1 6 C-1.66 5.67 -2.32 5.34 -3 5 C-2.01 4.67 -1.02 4.34 0 4 C0 2.68 0 1.36 0 0 Z " fill="#DED40C" transform="translate(137,23)"/>
<path d="M0 0 C0.66 0 1.32 0 2 0 C2.99 1.98 3.98 3.96 5 6 C2.83125748 5.49396008 1.00032373 5.00016187 -1 4 C-0.67 2.68 -0.34 1.36 0 0 Z " fill="#E7DE1F" transform="translate(99,121)"/>
<path d="M0 0 C0.99 0 1.98 0 3 0 C4.2077558 3.62326739 3.54311128 4.64146369 2 8 C-0.1519437 4.77208445 -0.20086443 3.71599191 0 0 Z " fill="#E5DC10" transform="translate(156,85)"/>
<path d="M0 0 C0.66 0.33 1.32 0.66 2 1 C2 1.99 2 2.98 2 4 C2.66 4.33 3.32 4.66 4 5 C4 5.66 4 6.32 4 7 C1.53199953 5.84826645 -0.04783565 4.95216435 -2 3 C-1.34 2.01 -0.68 1.02 0 0 Z " fill="#EFE52D" transform="translate(51,43)"/>
<path d="M0 0 C2.31 0 4.62 0 7 0 C7.33 1.98 7.66 3.96 8 6 C7.01 5.67 6.02 5.34 5 5 C5 3.68 5 2.36 5 1 C3.35 1 1.7 1 0 1 C0 0.67 0 0.34 0 0 Z " fill="#ABA406" transform="translate(130,31)"/>
<path d="M0 0 C1.32 0 2.64 0 4 0 C4 0.66 4 1.32 4 2 C5.32 2 6.64 2 8 2 C7.67 3.32 7.34 4.64 7 6 C7 5.01 7 4.02 7 3 C5.02 3 3.04 3 1 3 C0.67 2.01 0.34 1.02 0 0 Z " fill="#94403F" transform="translate(82,25)"/>
<path d="M0 0 C2 2 2 2 2 5 C0.35 5.33 -1.3 5.66 -3 6 C-2 4 -1 2 0 0 Z " fill="#A63030" transform="translate(145,131)"/>
<path d="M0 0 C0.99 0 1.98 0 3 0 C3 0.99 3 1.98 3 3 C2.34 3 1.68 3 1 3 C0.67 3.99 0.34 4.98 0 6 C0 5.34 0 4.68 0 4 C-0.66 4 -1.32 4 -2 4 C-1.34 2.68 -0.68 1.36 0 0 Z " fill="#BE3430" transform="translate(144,125)"/>
<path d="M0 0 C0.99 0.66 1.98 1.32 3 2 C0.6875 4.0625 0.6875 4.0625 -2 6 C-2.99 5.67 -3.98 5.34 -5 5 C-3.35 3.35 -1.7 1.7 0 0 Z " fill="#ECE310" transform="translate(197,112)"/>
<path d="M0 0 C1.98 0 3.96 0 6 0 C5.67 1.32 5.34 2.64 5 4 C1.125 2.25 1.125 2.25 0 0 Z " fill="#CAC868" transform="translate(40,55)"/>
<path d="M0 0 C0.99 0.33 1.98 0.66 3 1 C3 2.65 3 4.3 3 6 C2.01 6 1.02 6 0 6 C0 4.02 0 2.04 0 0 Z " fill="#F0EB65" transform="translate(43,49)"/>
<path d="M0 0 C2.31 0.33 4.62 0.66 7 1 C7 1.66 7 2.32 7 3 C4.36 3 1.72 3 -1 3 C-0.67 2.01 -0.34 1.02 0 0 Z " fill="#C9C10B" transform="translate(101,42)"/>
<path d="M0 0 C2.31 0.66 4.62 1.32 7 2 C7 2.66 7 3.32 7 4 C5.35 4 3.7 4 2 4 C1.34 2.68 0.68 1.36 0 0 Z " fill="#E9E670" transform="translate(30,37)"/>
<path d="M0 0 C7.75 -0.125 7.75 -0.125 10 1 C9.34 2.32 8.68 3.64 8 5 C7.67 3.68 7.34 2.36 7 1 C4.69 1 2.38 1 0 1 C0 0.67 0 0.34 0 0 Z " fill="#AFA93C" transform="translate(145,11)"/>
</svg>
