<svg xmlns="http://www.w3.org/2000/svg" width="256" height="154"><path fill="#2F2F72" d="M0 0h256v154H0V0Z"/><path fill="#EDE314" d="M138.98 9.81c5.534.059 10.681.783 16.02 2.19l-1.25 1.937C152.601 18.63 154.819 21.863 157 26l-3 1 1.488 1.176c2.02 2.436 1.821 3.893 1.7 7.011l-.083 2.731L157 40h-3l-1 11-3 1c-2.677 4.094-4.15 7.18-5 12l-2 1c2.994 4.295 6.56 7.074 10.71 10.156 2.19 1.763 3.894 3.6 5.728 5.719 3.43 3.59 6.477 3.98 11.328 4.152L173 85h3v-2l2-1.5c2.674-3.342 2.565-5.598 2.387-9.785-.91-6.39-3.757-11.741-7.137-17.153-4.17-7.238-2.446-15.637-1.25-23.562l-9 1c.875-4.875.875-4.875 2-6 2-.044 4-.04 6 0h4c.167-2.416.167-2.416 0-5-2.139-2.139-3.133-2.427-6-3l1-3c8.943-.614 8.943-.614 12.688 1.562 1.866 3.466 1.2 5.68.312 9.438l-1 3 2.813.312C188 30 188 30 189.875 31.125c1.78 2.967 1.426 5.501 1.125 8.875l-2 3h-2l-2-6-9 1c.396 9.41.396 9.41 4 18v2h2c4.019 7.786 5.376 15.287 4 24-1.933 4.277-4.428 7.007-8.375 9.5-6.932 1.32-11.43.598-17.625-2.5a920.275 920.275 0 0 0-.062 5.437l-.036 3.06c-.188 2.443-.188 2.443 1.098 3.503 5.448.357 7.715.428 12-3 3.25-.188 3.25-.188 6 0 0 2 0 2-1.5 3.625L176 103l2.313-.125C181 103 181 103 184 105l-1 4-5 1v7l-1.812.187c-3.141 1.167-3.77 2.841-5.188 5.813-.707 2.693-.707 2.693-1 5l4 1v8c-3 1-3 1-6.5.375L164 137c-1.772 1.354-1.772 1.354-3 3h-3v4c-7.429.143-7.429.143-11-1v-7l-5 1 1-2.875c1.102-2.896 1.102-2.896 1-5.125h-2c.563-1.937.563-1.937 2-4 3.625-.75 3.625-.75 7-1l2 4h4c3.436-5.637 3.436-5.637 5-12l-1.898.035c-.818.01-1.635.018-2.477.027l-2.46.036C153 116 153 116 151 115l1 5-5-1v-2h-2l-1 5h-5l1-6h-5l-1-4 3-1 1-17-4.75.875-2.672.492c-2.447.601-4.384 1.413-6.578 2.633v5l9 3v3l-2 1 1 8-4-1 1 6c-3 1-3 1-4.937.312L122 123c-2.271 1.854-2.271 1.854-4 4l2 1c-.458 3.47-.891 6.674-2 10h-2v-3c-1.439.087-2.876.196-4.312.312l-2.426.176c-2.67.604-3.398 1.592-5.262 3.512-6.138.43-6.138.43-9-1v-7l-3 1c.14-1.646.287-3.292.438-4.938.08-.916.162-1.833.246-2.777C93 122 93 122 94 121c2.333-.04 4.667-.042 7 0l2 4c4.139.454 4.139.454 6.75-2.563 1.854-2.47 2.334-3.798 3.063-6.937-1.074-4.626-3.13-5.562-6.965-8.078C104 106 104 106 103 103.125V101l-5 1 1-7-4-2 1-4 4 2 .438-2.375C101 86 101 86 102 84c3 1 3 1 4 3 2.374-.919 4.717-1.867 7.02-2.953 5.248-2.464 10.275-4.022 15.98-5.047-2.494-2.066-4.825-3.907-7.687-5.438-2.81-1.897-3.167-3.452-4.313-6.562l-3-1-.812 2.937L112 72l-3 1-1-2-1.375 2L105 75h-2l-1-2-3-1-.25 2.25c-.898 3.293-2.134 4.61-4.75 6.75h-2v-2h-3v-4h-3l-2 6-2.187.375c-2.77.615-5.21 1.51-7.813 2.625l-.437-3.313C73.117 77.07 73.117 77.07 72 74h-3l2-4 1.125-3.188C74 64 74 64 75.973 63.395c2.215-.27 2.215-.27 6.027-.395l2 5c4.328-1.575 8.224-3.747 12.188-6.063C102.87 58.065 102.87 58.065 105 57H93v-2l-5-1v-2h2v-4l-3 2c-2.48-.023-2.48-.023-5.187-.375l-2.731-.336L77 49v-2h2v-4h3v-2H70v-3h-4v-2l5-1v-2h2l1-5-2-1c1-1 1-1 4.563-1.188 4.396.04 8.22.983 12.437 2.188-.523 2.763-1.109 5.326-2 8l2.012.586c8.77 2.586 8.77 2.586 12.988 4.414l2-2c2.383-.414 2.383-.414 5.125-.625l2.758-.227L114 38v-3h12v-2l1-1h-5c1-3 1-3 4-5l-2.125.437C118.144 28.56 112.841 29.324 107 29c-1-1-1-1-1.187-4.438C106 21 106 21 108 19h3v7c4.595.18 7.825-.082 12-2a91.048 91.048 0 0 1 4-1h-7l-1-7 2.152-1.059 2.786-1.379 2.777-1.37c4.37-2.279 7.067-2.376 12.266-2.381Z"/><path fill="#F3E911" d="M138.98 9.81c5.534.059 10.681.783 16.02 2.19l-1.25 1.937C152.601 18.63 154.819 21.863 157 26l-5-1v2h-2v2h-2l-1-2-.812 3.437L145 34l-3 1v-2l-4 4-3-1v-4h-13c1-3 1-3 4-5l-2.125.437C118.144 28.56 112.841 29.324 107 29c-1-1-1-1-1.187-4.438C106 21 106 21 108 19h3v7c4.595.18 7.825-.082 12-2a91.048 91.048 0 0 1 4-1h-7l-1-7 2.152-1.059 2.786-1.379 2.777-1.37c4.37-2.279 7.067-2.376 12.266-2.381Z"/><path fill="#F1BE12" d="M200 92c2.313.25 2.313.25 5 1l1.25 1.938c2.792 3.29 6.623 3.404 10.75 4.062-.895 6.645-.895 6.645-1.688 9.313L215 110l2 2c.125 2.625.125 2.625 0 5-2.957 1.478-5.742 1.06-9 1l-.875 1.813C206 122 206 122 204 125c-1.938-.313-1.938-.313-4-1l-1-3h-2v-2c-.957-.09-.957-.09-1.934-.184l-2.504-.254c-.823-.08-1.647-.162-2.496-.246C188 118 188 118 187 117c-.342-3.166-.256-4.605 1.5-7.313L190 108l-1.563-2.25C187 103 187 103 187.25 100.75 188 99 188 99 189 98l3.313-.25c3.832-.413 3.832-.413 6.125-3.313L200 92Z"/><path fill="#F3C012" d="M49 96c2.798.386 3.82.801 5.75 2.938C56 101 56 101 56 103h9c.625 2.313.625 2.313 1 5l-2 3c.278 2.394.278 2.394 1 5 .34 1.999.674 3.999 1 6-3.215 1.607-6.436 1.057-10 1v3c-1.75 1.75-1.75 1.75-4 3-2.613-.158-3.731-.78-5.75-2.438C45 125 45 125 45 123l-3.938.063A59.19 59.19 0 0 1 37 123c-1-1-1-1-1.188-3.813C36 116 36 116 37.126 113.876L38 112a178.655 178.655 0 0 0-2-4c.375-2.75.375-2.75 1-5h9l1-4 2-3Z"/><path fill="#EEBE17" d="m43 25 4 2v2h2v3l1.934-.035c.826-.01 1.652-.018 2.504-.027l2.496-.036C58 32 58 32 59 33c.188 2.438.188 2.438 0 5l-2 2c.304 1.809.304 1.809 1 4 .35 2.33.686 4.664 1 7-3.473 1.158-6.36 1.069-10 1l-.875 1.813C47 56 47 56 45 59c-2.508-1.038-3.777-1.625-5.188-4-2.882-3.18-6.694-3.344-10.812-4 .9-6.679.9-6.679 1.688-9.188C31.2 39.907 31.2 39.907 30 38c-1-2-1-2 0-6h9v-4c2-1.75 2-1.75 4-3Z"/><path fill="#E9BC12" d="M208 23c2.877.221 4.54.635 6.813 2.438C216 27 216 27 216 29l9 1c-.468 4.056-.88 7.466-3 11h2l1 7c-3.215 1.607-6.436 1.057-10 1l-.313 1.813c-.776 2.47-1.758 3.51-3.687 5.187-2.993-1.098-3.846-1.677-5.25-4.625L205 49l-1.934.035-2.504.028-2.496.035C196 49 196 49 195 48a99.984 99.984 0 0 1 0-5h2l1-4-3-2c-.188-3.625-.188-3.625 0-7h10l.375-2.375C206 25 206 25 208 23Z"/><path fill="#E9E016" d="m108 52 2 1-1 10c4-1.5 4-1.5 5-4h2l1 7h-3l-.813 2.938L112 72l-3 1-1-2-1.375 2L105 75h-2l-1-2-3-1-.25 2.25c-.898 3.293-2.134 4.61-4.75 6.75h-2v-2h-3v-4h-3l-2 6-2.188.375c-2.77.615-5.209 1.51-7.812 2.625l-.438-3.313C73.118 77.07 73.118 77.07 72 74h-3l2-4 1.125-3.188C74 64 74 64 75.973 63.395c2.215-.27 2.215-.27 6.027-.395l2 5c4.328-1.575 8.224-3.747 12.188-6.063C102.87 58.066 102.87 58.066 105 57l-1-2 3-1 1-2Z"/><path fill="#ECE214" d="M76.563 25.813c4.396.04 8.22.982 12.437 2.187-.523 2.763-1.109 5.326-2 8l2.012.55c7.44 2.119 7.44 2.119 10.675 4.075 3.917 2.328 7.8 2.6 12.25 1.938L114 42c-1 2-1 2-2.75 2.75-2.543 1.23-2.543 1.23-4.688 4.25-2.591 3.034-3.808 3.968-7.562 5l-2.438.688c-3.04.37-5.577-.063-8.562-.688v-2h2v-4l-3 2c-2.48-.023-2.48-.023-5.188-.375l-2.73-.336L77 49v-2h2v-4h3v-2H70v-3h-4v-2l5-1v-2h2l1-5-2-1c1-1 1-1 4.563-1.188Z"/><path fill="#E5DC27" d="M188 99c8.571-.286 8.571-.286 12 2v3l-1.563 1.375L197 107c.23 2.655.23 2.655 1 5l7 1 1 3 3 2-5 7-4-1-1-3h-2v-2c-.957-.09-.957-.09-1.934-.184l-2.504-.254c-.823-.08-1.647-.162-2.496-.246C188 118 188 118 187 117c-.342-3.166-.256-4.605 1.5-7.313L190 108l-1.563-2.25C187 103 187 103 187.313 100.687L188 99Z"/><path fill="#EAE015" d="m215 27 1 2c2.126.467 2.126.467 4.563.625l2.503.227L225 30c-.468 4.056-.88 7.466-3 11h2l1 7c-3.215 1.607-6.436 1.057-10 1l-.313 1.813c-.776 2.47-1.758 3.51-3.687 5.187-1.938-.563-1.938-.563-4-2-1.427-6.146-1.427-6.146 0-9 2.066-.633 2.066-.633 4.563-1.125l2.503-.508L216 43a128.606 128.606 0 0 0-2-7l-2-1 .938-1.75c.988-2.093 1.579-3.995 2.062-6.25Z"/><path fill="#D3C80C" d="m126 16 4 2v2l2.875.375C136 21 136 21 138 23c1.27 6.462 1.27 6.462 0 9 3.278-.752 3.278-.752 5-4l3 3-2 4h-2v-2l-4 4-3-1v-4h-13c1-3 1-3 4-5l-2.125.438C118.144 28.558 112.841 29.323 107 29c-1-1-1-1-1.188-4.438C106 21 106 21 108 19h3v7c4.645.182 7.758-.197 12-2 2.326-.381 4.66-.725 7-1l-2-1a101.168 101.168 0 0 1-2-6Z"/><path fill="#39396E" d="M138 94v17l-4 1-1 5c-1.765-3.088-2-4.233-2-8l2-2-1.934-.621-2.504-.817-2.496-.808C124 104 124 104 123 103a99.984 99.984 0 0 1 0-5 152.46 152.46 0 0 1 3.563-2l2.003-1.125C131 94 131 94 138 94Z"/><path fill="#D2C712" d="m152 125 1 3c3.878.434 3.878.434 5.75-1.5L160 125c-.487 7.544-.487 7.544-2.688 9.5-2.824.61-5.43.631-8.312.5v2h4l-1 6 6-1v2c-7.429.143-7.429.143-11-1v-7l-5 1 1-2.875c1.102-2.896 1.102-2.896 1-5.125h-2c.813-1.938.813-1.938 2-4 3.29-1.097 4.713-.8 8 0Z"/><path fill="#E0D410" d="m83 64 1 4 4 1-6 2 3 1c-2.673 2.196-4.671 3.196-8 4l-1 2 3 1c-.813 1.938-.813 1.938-2 4l-3 1-.438-3.313C73.118 77.07 73.118 77.07 72 74h-3l2-4 1.375-3.188C74 64 74 64 75.875 63.063c2.51-.073 4.694.33 7.125.938Z"/><path fill="#CEC00E" d="M97.563 120.938 101 121l.813 1.875c1.143 2.425 1.143 2.425 4.187 4.125l1 1-1 3-7 1 .563 1.875C100 136 100 136 99 138h5v1c-6.75.125-6.75.125-9-1v-7l-3 1c.14-1.646.287-3.292.438-4.938.08-.916.162-1.833.246-2.777.518-3.742.894-3.278 4.879-3.347Z"/><path fill="#E8E24D" d="m203 95 1.938.875c3.946 1.45 7.95 2.283 12.062 3.125-.75 6.625-.75 6.625-3 10-3.125.688-3.125.688-6 1l-1-6-4-1v-8Z"/><path fill="#C2BB3D" d="M138.98 9.81c5.534.059 10.681.783 16.02 2.19l-2 6h-6l-1-2-2-3v-2l-9 1 1 5-2.45-.254-3.237-.309-3.2-.316c-2.927-.114-5.284.17-8.113.879 3.127-2.526 6.396-4.238 10-6 2.24-2.24 6.955-1.187 9.98-1.19Z"/><path fill="#F0EC68" d="m215 27 1 2c2.126.467 2.126.467 4.563.625l2.503.227L225 30c-.75 6.625-.75 6.625-3 10-3.125.688-3.125.688-6 1l-.875-2.438c-.858-2.695-.858-2.695-3.125-3.562l.938-1.75c.988-2.093 1.579-3.995 2.062-6.25Z"/><path fill="#EBE210" d="M74.848 25.902 81 26c1.193 3.877 2 6.916 2 11l-1.625-.438C78.601 35.906 75.815 35.449 73 35l-2 6-1-3h-4v-2l5-1v-2h2l1-5-2-1c1-1 1-1 2.848-1.098Z"/><path fill="#E1D710" d="M129 77c4.978 1.273 7.786 2.96 11 7 1.575 4.83.61 8.266-1 13l-1-3h-6l2-1-.563-2.313C133 88 133 88 134 85l-1.5-1.375C131 82 131 82 131 80l-2-1v-2Z"/><path fill="#D3CF5D" d="M44.5 47.25C47 48 47 48 50 50c1.99.39 3.99.732 6 1v1h-7l-.875 1.813C47 56 47 56 45 59c-2.551-1.056-3.806-1.695-5.313-4.063C37.19 52.07 34.663 52.278 31 52v-1h8v-2c3-2 3-2 5.5-1.75Z"/><path fill="#E3E064" d="m60.688 102.813 2.449.082L65 103c1.15 3.553 1.087 4.8-.438 8.313L63 114h-6l-.875-2.438c-.858-2.695-.858-2.695-3.125-3.562 0-2 0-2 1.207-3.613 2.309-1.786 3.6-1.7 6.48-1.575Z"/><path fill="#DDDA67" d="m205 113 1 3 3 2-5 7-4-1-1-3h-2v-2h-6l1.688-.75c2.456-1.218 2.456-1.218 4.75-3.375 2.86-2.093 4.11-2.27 7.562-1.875Z"/><path fill="#EFEC70" d="M195 30c8.635-.44 8.635-.44 13 3l1 2h-3l-1 4h-5v2c-2.319-1.16-3.457-1.896-5-4-.188-3.688-.188-3.688 0-7Z"/><path fill="#E7E259" d="M36 116h1l1 5h8l2-4c5.875 1.875 5.875 1.875 7 3 .46 5.287.46 5.287-1.25 7.938C52 129 52 129 50 128.875c-2.244-.982-3.474-1.967-5-3.875v-2l-3.938.063A59.19 59.19 0 0 1 37 123c-1-1-1-1-1.063-4.063L36 116Z"/><path fill="#E1DE64" d="m39.066 102.902 2.496.035 2.504.028L46 103l1 3h2c0 2 0 2-1.563 3.938-3.008 2.545-5.768 3.65-9.437 5.062-.752-3.655-1.496-7.302-2-11 1-1 1-1 3.066-1.098Z"/><path fill="#D92F2B" d="M108 19h3v7c4.645.182 7.758-.197 12-2 2.326-.381 4.66-.725 7-1l-2-2h4c2 3 2 3 2 6l-2.125-.07c-6.604-.126-6.604-.126-13.063 1.07-4.232 1.11-7.465 1.229-11.812 1-1-1-1-1-1.188-4.438C106 21 106 21 108 19Z"/><path fill="#C9C11A" d="M106.793 38.77c5.824.073 11.473.163 17.207 1.23-1.75 3.875-1.75 3.875-4 5 4.219.196 7.17-.198 11-2l-2 4 9 1c-2.495 2.495-3.673 2.36-7.125 2.625l-2.758.227L126 51v-3l-3.25.125c-3.407-.114-4.957-.338-7.75-2.125l4-3c-3.16-1.862-5.415-2.224-9.063-2.125l-2.597.055L105 41h-3c2-2 2-2 4.793-2.23Z"/><path fill="#EEE42A" d="M56 114h8c1.765 3.088 2 4.233 2 8-3.215 1.607-6.436 1.057-10 1l-1 3-2-8h3v-4Z"/><path fill="#DCDA6A" d="M48 32c1.646-.027 3.292-.046 4.938-.063l2.777-.035C58 32 58 32 59 33c.45 3.328.306 4.595-1.75 7.313C55 42 55 42 51 42l-.313-1.938L50 38l-3-1 1-5Z"/><path fill="#E5E36E" d="M188 99c8.571-.286 8.571-.286 12 2 0 3 0 3-1.063 4.625-2.812 1.996-5.56 2.056-8.937 2.375-3.077-4.43-3.077-4.43-2.688-7.313L188 99Z"/><path fill="#F0EC6C" d="M30 32c3.05-.288 5.962-.458 9 0 2.063 2.5 2.063 2.5 3 5-2.279 2.805-3.451 3.9-7.063 4.563C32 41 32 41 30.064 38.75c-1.16-3.001-.976-3.804-.063-6.75Z"/><path fill="#F0E61F" d="M36.188 42.375 39 43l1 3 2 2-3 1v2H29c.313-3.375.313-3.375 1-7 3-2 3-2 6.188-1.625Z"/><path fill="#E6DC1A" d="m43 25 4 2v2h2c-.523 2.763-1.109 5.326-2 8-6.875-1.875-6.875-1.875-8-3-.313-2.875-.313-2.875 0-6 2-1.875 2-1.875 4-3ZM215 110c2 2 2 2 2.125 4.625L217 117c-2.52 1.26-3.854.919-6.625.563l-2.477-.31L206 117l-1-4h2l1-3c3.148-1.05 3.993-1.067 7 0Z"/><path fill="#EDE315" d="m45 112 3 8c-2 2-2 2-3.91 2.23-5.979-.119-5.979-.119-7.09-1.23-.375-2.875-.375-2.875 0-6 2.85-2.311 4.314-3 8-3Z"/><path fill="#E9E032" d="M49 96c2.676.37 3.843.849 5.813 2.75 1.504 2.85 1.11 4.23.187 7.25-5.434 1.328-5.434 1.328-7.938-.125C46 104 46 104 46.188 101.5 47 99 47 99 49 96Z"/><path fill="#E7DD26" d="m197 41 1 2 1.813-1C202 41 202 41 205 41v3l3 1-2 6-1-2-1.934.035-2.504.028-2.496.035C196 49 196 49 195 48a99.984 99.984 0 0 1 0-5h2v-2Z"/><path fill="#E0D827" d="M208 23c3.297.33 4.623.623 7 3 .125 2.625.125 2.625 0 5-2.332 1.206-4.496 2.165-7 3-2.688-1.938-2.688-1.938-5-4h2l.375-2.375C206 25 206 25 208 23Z"/><path fill="#E3E067" d="M207 45c2.875-.125 2.875-.125 6 0 2 2 2 2 2.375 4.375-.482 3.377-1.82 4.469-4.375 6.625-1.938-.563-1.938-.563-4-2-1.427-6.146-1.427-6.146 0-9Z"/><path fill="#B8B015" d="m101 42 3.688.563c3.342.427 6.032.36 9.312-.563-1 2-1 2-2.75 2.75-2.543 1.23-2.543 1.23-4.688 4.25-2.591 3.034-3.808 3.968-7.562 5l-2.438.688c-3.04.37-5.577-.063-8.562-.688v-2h2l1-4v5c2.473-.344 2.473-.344 5-1l1-2 3.375-.375c3.67-.258 3.67-.258 5.563-2.688L107 45h-7l1-3Z"/><path fill="#AD6526" d="m145 131 3 1 1 5h4l-1 6 6-1v2c-7.429.143-7.429.143-11-1v-7l-5 1 3-6Z"/><path fill="#BA8E22" d="m83 64 1 4 4 1c-1.456.363-2.915.715-4.375 1.063l-2.46.597C79 71 79 71 77 70v-2h-4l1-4c3.325-1.108 5.622-.845 9 0Z"/><path fill="#EBE012" d="M148 18h6l3 8-5-1v2h-2v2h-2c-1.625-2.5-1.625-2.5-3-5h3v-6Z"/><path fill="#F0E610" d="M134 23h2l-1 5h2v3l-15 1c1-3 1-3 4-5 2.043-.195 2.043-.195 4.188-.125L134 27v-4Z"/><path fill="#E5DC13" d="m131 16 1 2-5-1 2 3-2 3c-3.625.188-3.625.188-7 0l-1-6c4.309-2.22 7.31-2.082 12-1Z"/><path fill="#B46223" d="M94 121h3l-.563 3.75c-.384 3.013-.524 5.35.563 8.25h3l-1 5h5v1c-6.75.125-6.75.125-9-1v-7l-3 1c.14-1.646.287-3.292.438-4.938.08-.916.162-1.833.246-2.777C93 122 93 122 94 121Z"/><path fill="#D3C81E" d="M167.813 25.938 171 26h4v3l-1 1a235.648 235.648 0 0 0-1 7h-1v-6l-9 1c1.073-5.98 1.073-5.98 4.813-6.063Z"/><path fill="#ECE96E" d="m207 97 10 2-1 7-1-3-2.438.563L210 104l-1-1h-4l2-6Z"/><path fill="#F0E614" d="M51 43c2.636 1.318 4.723 3.142 7 5l-1 3c-6.4.492-6.4.492-9.438-2L46 47l1.938-.313L50 46l1-3Z"/><path fill="#F4D013" d="M210 28h1l1 7h2l-1 3-1.875-.5c-2.086-.576-2.086-.576-4.125-.5l2 6-4 1v-3l-7 2v-2h2v-2l5-1 1-3h3l1-7Z"/><path fill="#CFC60D" d="M144 11c1.458-.027 2.917-.046 4.375-.063l2.46-.035C153 11 153 11 155 12l-2 6h-6l-1-2-2-3v-2Z"/><path fill="#B3AB13" d="M129 77c4.133 1.378 5.018 3.177 7 7-.25 3.875-.25 3.875-1 7h5l-1 6-1-3h-6l2-1-.563-2.313C133 88 133 88 134 85l-1.5-1.375C131 82 131 82 131 80l-2-1v-2Z"/><path fill="#CBC85E" d="M36 116h1l1 5c1.887.03 1.887.03 3.813.063l2.144.035c2.246-.015 2.246-.015 5.043-1.098l1 6h3l-1 3c-3.243-.56-4.93-1.413-7-4v-2l-3.938.063A59.19 59.19 0 0 1 37 123c-1-1-1-1-1.063-4.063L36 116Z"/><path fill="#D1CE60" d="m45 48 2.125.938C50.089 50.032 52.877 50.563 56 51v1h-7l-.875 1.813C47 56 47 56 45 59c-3.875-1.75-3.875-1.75-5-4h6l-1-7Z"/><path fill="#D4C914" d="m82 27 7 1c-.588 3.024-1.227 6.018-2 9h-2v-2h-2c-1.354-2.709-1.065-5.01-1-8Z"/><path fill="#ECE213" d="M114 62c.75 1.563.75 1.563 1 4-1.13 2.503-2.521 4.67-4 7h-2v-6l-3-1 1-2c1.993-.374 3.994-.707 6-1l1-1Z"/><path fill="#B6AF0D" d="m108 52 2 1-1 10c4-1.5 4-1.5 5-4h2l1 7h-2l-1-3-3 2h-4l.293-6.055L107 57l-3-2 3-1 1-2Z"/><path fill="#D6CF34" d="m47 37 4 1v4l5-1c2.408 3.512 3.366 5.727 3 10-2-1-2-1-3-4-2.498-1.699-2.498-1.699-5-3l-1 2-2-1 1-7-2-1Z"/><path fill="#CDC95D" d="m215 27 1 2h6l-3 1v3l-2 1c.656 3.61.656 3.61 2 7h-3l-.875-2.438c-.858-2.695-.858-2.695-3.125-3.562l.938-1.75c.988-2.093 1.579-3.995 2.062-6.25Z"/><path fill="#BFB713" d="m127 58 2 1v5l-1-2c-1.666 1.165-1.666 1.165-3 3 .23 2.655.23 2.655 1 5h-5v2h-2l-1-4 1.875-.188c2.363-.619 2.363-.619 3.188-3.124L124 62a70.29 70.29 0 0 1 3-4Z"/><path fill="#C4B513" d="m73 30 1 3 2.25-.25c3.532.321 4.516 1.603 6.75 4.25l-1.625-.438C78.601 35.906 75.815 35.449 73 35l-2 6-1-3h-4v-2l5-1v-2h2v-3Z"/><path fill="#CAC112" d="m121 116 1 2h2l2 5-2.25.375c-2.732.5-2.732.5-4.938 1.75L117 126l-2-1v-2l1.875-1.375c2.26-1.728 3.053-3.033 4.125-5.625Z"/><path fill="#B4AC02" d="m142 28 4 3-2 4h-2v-2l-4 4-3-1v-4h-5v-1h7l1 2c3.248-1.722 3.248-1.722 4-5Z"/><path fill="#EEEA6A" d="m55 34 1 7-5 1-2-6c3-2 3-2 6-2Z"/><path fill="#735C4E" d="m129 26-1.813 1.313A44.736 44.736 0 0 0 122 32l8-1-4 2v2l-5-2v-4h-6v-1c4.842-1.336 8.934-2.253 14-2Z"/><path fill="#C14324" d="M128 21h4c2 3 2 3 2 6-1.958.054-3.916.093-5.875.125l-3.305.07C122 27 122 27 120 25l10-2-2-2Z"/><path fill="#BCB635" d="M200 92c2.375.25 2.375.25 5 1 1.313 2.063 1.313 2.063 2 4l-2.313-.5c-2.723-.591-2.723-.591-5.687-.5l-1 4-9-1v-1l3.25-.188c3.885-.473 3.885-.473 6.188-3.374.515-.805 1.03-1.61 1.562-2.438Z"/><path fill="#D2CD5E" d="M204 115v7l-2-2-2 1v-4h-2l-1 4v-2h-6l1.813-.875c6.482-3.334 6.482-3.334 11.187-3.125Z"/><path fill="#C8C006" d="M130 43v3l-1 1 9 1c-2.495 2.495-3.673 2.36-7.125 2.625l-2.758.227L126 51v-3l-3-2 7-3Z"/><path fill="#EEE42C" d="M214 110h-2v2l3 1v2c-2.313.625-2.313.625-5 1l-3-2c.313-1.938.313-1.938 1-4 3-1 3-1 6 0Z"/><path fill="#EEEB6D" d="m63 104 1 4c-2.52 1.26-3.854.919-6.625.563l-2.477-.31L53 108v-2c3.644-2.43 5.712-2.162 10-2Z"/><path fill="#EEEB6A" d="M209.563 45.938 212 46v6c-3 1-3 1-6 0a99.984 99.984 0 0 1 0-5c1-1 1-1 3.563-1.063Z"/><path fill="#DAD764" d="M30 32c3.05-.288 5.962-.458 9 0 2.063 2.5 2.063 2.5 3 5l-5 4-1-7c-2.416-.167-2.416-.167-5 0l-2 2 1-4Z"/><path fill="#E7A719" d="m200 105 5 1-1 5-5-1 1-5Z"/><path fill="#DBD652" d="m207 33 2 2h-3l-1 4h-5v2c-2-1-2-1-3-4h5l-2-2 7-2Z"/><path fill="#B1AB16" d="m139 57 2 1 1 3 2 1 1-2v4c-4.875-.875-4.875-.875-6-2l-3 7h-1c-.615-5.076 1.383-7.83 4-12Z"/><path fill="#E7DD19" d="m33 42 2 1-2 3c.312 2.646.312 2.646 1 5h-5c.313-3.375.313-3.375 1-7l3-2Z"/><path fill="#DEDD6C" d="M222 30h3c-.75 6.625-.75 6.625-3 10l-5-1c1.313-1.5 1.313-1.5 3-3h3l-1-6Z"/><path fill="#EFE531" d="M46 114c-.188 2.375-.188 2.375-1 5-2.563 1.313-2.563 1.313-5 2l-2-4c5.75-3 5.75-3 8-3Z"/><path fill="#ECE968" d="M43 104h4v2h2v2l-8 2c0-3 0-3 2-6Z"/><path fill="#F1E718" d="M199 95c2.063.438 2.063.438 4 1v6l-4-1a88.406 88.406 0 0 1-1-5l1-1Z"/><path fill="#DBD113" d="m102.75 52.875 2.984.055L108 53l-1 2c-2.145.633-2.145.633-4.813 1.125l-2.644.508C97 57 97 57 93 57v-2c3.35-2.026 5.87-2.217 9.75-2.125Z"/><path fill="#D8CC17" d="M133 27v1l-6 1 8 1v1l-13 1c1.93-5.787 5.61-5.203 11-5Z"/><path fill="#C9582B" d="M170 132h4v5c-3.29 1.097-4.713.8-8 0l3-1c.733-2.015.733-2.015 1-4Z"/><path fill="#E5A618" d="m49 110 5 1c-.313 1.938-.313 1.938-1 4l-3 1-2-1 1-5Z"/><path fill="#E8A619" d="m213 37-1 5-5-1v-4c2.49-1.245 3.41-.777 6 0Z"/><path fill="#B65621" d="m111 131 1 3 3-2c2.188.375 2.188.375 4 1l-1 5h-2v-3h-7l2-4Z"/><path fill="#AF3536" d="M94 121h3l-1 10-4 1c.14-1.646.287-3.292.438-4.938.08-.916.162-1.833.246-2.777C93 122 93 122 94 121Z"/><path fill="#C2BC37" d="m65 118 1 4c-3.215 1.607-6.436 1.057-10 1l-1 3v-5c3.663-.75 6.424-1.238 10 0v-3Z"/><path fill="#DBD426" d="m204 44 4 1-2 6-1-2h-9v-1l3.438-.875L203 46l1-2Z"/><path fill="#E8DF31" d="M42 29h2l1 6h2v2a128.606 128.606 0 0 1-7-2l-1-2h2l1-4Z"/><path fill="#E5E05A" d="m198 100 2 1c0 3 0 3-1.5 4.688L197 107l-5-2 1-2-2-2 7 1v-2Z"/><path fill="#E6A419" d="m42 39 5 1-1 4-5-1 1-4Z"/><path fill="#C7BE2B" d="M170 15h10l1 2h-6l-1 3-5-2 1-3Z"/><path fill="#BFB71D" d="M170 113h3l2 4-3 3-1-3-1 3h-2c.875-4.75.875-4.75 2-7Z"/><path fill="#C9C109" d="m148 20 3 2-1 7h-2c-1.625-2.5-1.625-2.5-3-5h3v-4Z"/><path fill="#EEE530" d="m216 41 7 3-2 3c-4.875-1.75-4.875-1.75-6-4l1-2Z"/><path fill="#B45229" d="M74.848 25.902 81 26l-3 1c-.733 2.015-.733 2.015-1 4l-3-1v-2l-2-1c1-1 1-1 2.848-1.098Z"/><path fill="#CFCD66" d="M56 103h9c.625 2.375.625 2.375 1 5l-2 2-.625-2.438L62 105c-3.053-.898-3.053-.898-6-1v-1Z"/><path fill="#D2D065" d="M37 103h9v1h-7l-1 6-2-2c.375-2.625.375-2.625 1-5Z"/><path fill="#DCD41D" d="m49 96 3 1-2 2a89.901 89.901 0 0 0-1 6l-3-1c.547-3.375 1.055-5.082 3-8Z"/><path fill="#B14738" d="M73 76h2v3h4c-.813 1.938-.813 1.938-2 4l-3 1-1-8Z"/><path fill="#B66034" d="m89 75 1 3 3-2c2.688-.125 2.688-.125 5 0a105.022 105.022 0 0 1-4 5h-2v-2h-3v-4Z"/><path fill="#B45B28" d="m79 43 2 1-1 2h4v3h-7v-2h2v-4Z"/><path fill="#EFE51F" d="m211 26 4 1-1 5-3 1v-7Z"/><path fill="#EBE211" d="M151 130v2h5c-2.565 2.565-4.477 2.54-8 3v-3l-2-1c3-1 3-1 5-1Z"/><path fill="#EBE970" d="m52 119 3 1v6l-2 1-3-2h3l-1-6Z"/><path fill="#C5C365" d="m207 97 10 2-1 7-3-6c-3.03-.658-3.03-.658-6-1v-2Z"/><path fill="#EDE316" d="m51 97 4 2v5l-2 1-.313-1.875c-.562-2.49-.562-2.49-3.687-4.125l2-2Z"/><path fill="#E5DB13" d="M78 63h4v6l-4-1v-5Z"/><path fill="#C4C169" d="M195 30h4c-.875 4.75-.875 4.75-2 7h-2v-7Z"/><path fill="#ECE214" d="M60 114h4l1 7h-3v-4l-2-1v-2Z"/><path fill="#BEB62B" d="m102 84 3 1v2h-3v5l-4-1h2l.438-2.375C101 86 101 86 102 84Z"/><path fill="#DED51C" d="M219 40c2.625.375 2.625.375 5 1l1 7-1-4-7-2 2-2Z"/><path fill="#45436B" d="m131 109 6 2-3 1-1 5c-1.765-3.088-2-4.233-2-8Z"/><path fill="#EEEC73" d="m191 99 7 1 1 3c-2.763-.523-5.326-1.109-8-2v-2Z"/><path fill="#F0E611" d="M137 85h2v6h-4v-4h2v-2Z"/><path fill="#B9502D" d="M72 68c1.43 2.354 2.087 3.48 1.625 6.25L73 76l-1-2h-3l3-6Z"/><path fill="#B74A2C" d="m72 36-1 5-1-3h-4v-2c2.49-1.245 3.41-.777 6 0Z"/><path fill="#DED40C" d="M137 23c2.094 3.402 2.18 6.053 2 10l-2 1-.375-2.438L136 29l-2-1 3-1v-4Z"/><path fill="#E7DE1F" d="M99 121h2l3 6c-2.169-.506-4-1-6-2l1-4Z"/><path fill="#E5DC10" d="M156 85h3c1.208 3.623.543 4.641-1 8-2.152-3.228-2.2-4.284-2-8Z"/><path fill="#EFE52D" d="m51 43 2 1v3l2 1v2c-2.468-1.152-4.048-2.048-6-4l2-3Z"/><path fill="#ABA406" d="M130 31h7l1 6-3-1v-4h-5v-1Z"/><path fill="#94403F" d="M82 25h4v2h4l-1 4v-3h-6l-1-3Z"/><path fill="#A63030" d="M145 131c2 2 2 2 2 5l-5 1 3-6Z"/><path fill="#BE3430" d="M144 125h3v3h-2l-1 3v-2h-2l2-4Z"/><path fill="#ECE310" d="m197 112 3 2c-2.313 2.063-2.313 2.063-5 4l-3-1 5-5Z"/><path fill="#CAC868" d="M40 55h6l-1 4c-3.875-1.75-3.875-1.75-5-4Z"/><path fill="#F0EB65" d="m43 49 3 1v5h-3v-6Z"/><path fill="#C9C10B" d="m101 42 7 1v2h-8l1-3Z"/><path fill="#E9E670" d="m30 37 7 2v2h-5l-2-4Z"/><path fill="#AFA93C" d="M145 11c7.75-.125 7.75-.125 10 1l-2 4-1-4h-7v-1Z"/></svg>