<svg xmlns="http://www.w3.org/2000/svg" width="256" height="154"><path fill="#07409E" d="M0 0h256v154H0V0Z"/><path fill="#06409E" d="m72 102 1 3 27 2v-2c2.101-.975 4.21-1.922 6.336-2.844 1.706-.74 3.4-1.509 5.078-2.312 9.085-3.938 20.036-4.563 29.637-2.043 2.94 1.246 5.202 2.429 7.433 4.73 4.562 4.42 11.433 4.706 17.453 4.844 6.135-.132 11.36-1.165 17.063-3.375l3.125-1.188L188 102v-2c5.254-2.586 9.41-3.55 15.25-3.5l2.258.01c6.71.201 11.668 2.2 17.492 5.49 1.637.77 3.283 1.52 4.938 2.25.69.315 1.379.63 2.09.953 4.166 1.683 7.787 1.933 12.285 1.922l3.3.008c3.48-.137 6.94-.64 10.387-1.133v48H0v-48l6 1c10.03.996 18.872-1.127 27.441-6.543C45.19 93.767 60.453 95.918 72 102Z"/><path fill="#85B2AC" d="m51.438 53.813 3.083.04c2.494.036 4.986.085 7.479.147v2l2.25.438c2.27.464 4.508.98 6.75 1.562v2c9.227 4.026 21.098 4.92 30.813 1.813A118.891 118.891 0 0 0 106 60l6.375-2.625c.998-.425 1.995-.85 3.023-1.29 11.295-4.713 22.308-1.557 33.11 2.817C151 60 151 60 153.734 61.59c4.225 1.824 7.83 2.025 12.391 2.035l2.553.01c6.768-.191 11.033-2.09 16.63-5.944 8.042-5.053 19.49-4.53 28.567-3.066 4.954 1.408 9.552 3.796 14.172 6.035 4.974 2.257 8.837 2.476 14.328 2.465l3.898.008C250.4 63.066 250.4 63.066 256 62v44c-11.387 3.254-20.224 2.808-31-2l-2.543-1.086c-5.9-2.56-5.9-2.56-8.191-4.016-3.457-1.37-6.917-1.186-10.578-1.148l-2.225-.023c-4.85.017-8.861.741-13.463 2.273v2c-9.318 5.824-18.07 6.986-29 6-4.868-1.15-9.407-2.336-12.93-6.016-4.673-4.479-10.64-4.371-16.757-4.359l-2.408.003c-8.071.161-14.25 2.544-21.405 6.122C103 105 103 105 100 105v2c-20.524.429-20.524.429-27-2l-1-2c-10.55-5.165-22.19-7.32-33.688-3.875-4.685 1.853-9.157 4.229-13.613 6.57-4.315 2.086-7.788 2.462-12.574 2.493l-3.055.042C6 108 6 108 0 106V62l5 1c8.47.464 16.202.75 24-3a92.42 92.42 0 0 1 4-1v-2c6.203-3.315 11.492-3.364 18.438-3.188Z"/><path fill="#88B5AC" d="m51.438 53.813 3.083.04c2.494.036 4.986.085 7.479.147v2l2.25.438c2.27.464 4.508.98 6.75 1.562v2c9.227 4.026 21.098 4.92 30.813 1.813A118.891 118.891 0 0 0 106 60l6.375-2.625c.998-.425 1.995-.85 3.023-1.29 11.295-4.713 22.308-1.557 33.11 2.817C151 60 151 60 153.734 61.59c4.225 1.824 7.83 2.025 12.391 2.035l2.553.01c6.768-.191 11.033-2.09 16.63-5.944 8.042-5.053 19.49-4.53 28.567-3.066 4.954 1.408 9.552 3.796 14.172 6.035 4.974 2.257 8.837 2.476 14.328 2.465l3.898.008C250.4 63.066 250.4 63.066 256 62v15c-8.983 2.246-21.21 2.185-30-1a1996.8 1996.8 0 0 1-4-3c-9.847-4.434-19.44-5.834-29.75-2.25-4.545 1.843-8.881 4.027-13.25 6.25-4.231 1.29-8.36 1.221-12.75 1.25l-2.344.063c-7.116.047-12.715-1.962-18.906-5.376-8.349-4.223-17.764-5.568-26.898-3.18A118.07 118.07 0 0 0 110 73l-2.582 1.121c-1.52.67-3.035 1.351-4.543 2.047-7.732 3.431-19.97 3.172-28.063.582-2.594-1.065-4.965-2.383-7.374-3.813C60.063 68.781 52.337 68.123 44 69c-3.501.998-6.708 2.457-10 4-11.642 5.38-21.363 6.106-34 4V62l5 1c8.47.464 16.202.75 24-3a92.42 92.42 0 0 1 4-1v-2c6.203-3.315 11.492-3.364 18.438-3.188Z"/><path fill="#0A439F" d="m67.93 72.02 1.757 1.043c6.149 3.596 12.096 4.326 19.063 4.312l2.391-.003c7.644-.154 13.895-1.991 20.46-5.934 7.097-4.254 15.794-4.612 23.786-2.938 5.233 1.654 10.185 4.058 15.133 6.414 7.997 3.501 19.103 3.413 27.535 1.332 2.388-.973 4.651-2.07 6.945-3.246a320.154 320.154 0 0 1 5.438-2.188l2.433-.98c9.87-3.857 18.714-1.737 28.293 1.879C224 73 224 73 226 75c9.25 3.485 20.304 2.17 30 2v14c-12.493 3.123-24.418.994-35.61-4.824-8.089-3.979-17.707-4.595-26.425-2.418C188.609 85.629 183.867 88.119 179 91c-14.165 4.29-26.655.282-39.222-6.168-8.936-4.18-19.836-1.59-28.778 1.168a95.045 95.045 0 0 0-7.977 3.914c-7.048 3.783-18.609 3.686-26.253 1.427-3.28-1.314-6.285-2.898-9.375-4.614C56.617 81.245 46.188 82.375 35 86a156.165 156.165 0 0 0-8.723 3.914c-4.614 2.2-8.704 2.236-13.715 2.211l-2.314.012-2.244-.004-2.037-.004C4 92 4 92 0 91V77l4.137.176C15.385 77.509 23.799 77.072 34 72c11.269-5.328 22.637-5.947 33.93.02Z"/><path fill="#B5A950" d="M126 107c2.063.438 2.063.438 4 1l1 4 4 1v5l-5 1c-.327 5.848-.327 5.848 2 11 2.404.916 2.404.916 5.125 1.25.91.15 1.82.3 2.758.453L142 132c2.954-4.266 2.954-4.266 5-9l-4-1a88.406 88.406 0 0 1-1-5c1-1 1-1 3.563-1.063L148 116l1-3h5l1 5c-.64.23-1.279.461-1.938.7-2.255 1.113-2.255 1.113-2.75 3.445l-.312 2.668a97.098 97.098 0 0 1-2.938 13.25l-.964 3.285C145 144 145 144 142 146c-5.277 1.255-10.605 1.218-16 1.25l-2.656.063c-9.275.055-9.275.055-13.344-3.313-1.593-3.39-2.486-6.87-3.375-10.5l-.785-2.918C104 123.602 104 123.602 104 120l-4-2 1-5c4.389.665 7.981 2.188 12 4l-1 6h-4c.592 1.318 1.199 2.63 1.813 3.938l1.019 2.214c1.104 2.178 1.104 2.178 4.168 2.848 2.066-.093 2.066-.093 4.188-.438L123 131c1.998-4.12 2.178-7.452 2-12l-5-1v-5l4-1 .438-1.938C125 108 125 108 126 107Z"/><path fill="#E0C72D" d="M201 8h5l.25 1.875c.563 2.31.563 2.31 2.813 3.375L211 14l-1 5h-4c-.193 4.824.243 8.496 2 13l11 1 2-5 2-5-4-1-1-5c7.765-3.502 7.765-3.502 12-4 1 1 1 1 1.063 3.563L231 19l-3 1c-.994 2.349-.994 2.349-1.648 5.242l-.86 3.23c-.576 2.26-1.146 4.52-1.71 6.782l-.868 3.238-.751 2.98c-1.69 3.672-4.282 4.83-7.964 6.196-7.998 1.208-19.196 2.018-26.535-1.863-3.2-3.47-3.922-7.986-4.91-12.492-.642-2.82-1.431-4.793-2.754-7.313-.125-2.75-.125-2.75 0-5l-4-2v-5c2.375-.625 2.375-.625 5-1l2 2c1.984.714 3.983 1.386 6 2v6h-5c.594 1.296 1.2 2.587 1.813 3.875l1.019 2.18c1.163 2.25 1.163 2.25 4.168 3.945l2-1c2-.04 4-.043 6 0 1.757-4.504 2.193-8.176 2-13l-5-1 1-5 3-1c.733-2.015.733-2.015 1-4Z"/><path fill="#BAAD52" d="M49 8h5l.25 1.875c.563 2.31.563 2.31 2.813 3.375L59 14l-1 5h-5c.312 1.417.624 2.833.938 4.25l.527 2.39c.483 2.129.997 4.245 1.535 6.36 3.4.35 6.613.526 10 0 2.693-2.956 3.747-5.242 5-9h-5v-6c7.765-3.502 7.765-3.502 12-4 1 1 1 1 1.313 3.313C79 19 79 19 77.16 20.508c-3.823 4.41-4.423 10.364-5.695 15.959-1.79 7.054-1.79 7.054-5.41 9.623L63 47l-1.918.676c-3.139.489-6.22.496-9.395.511l-3.863.043C42.541 47.912 38.417 46.944 34 44c-.936-2.414-.936-2.414-1.719-5.41l-.886-3.248c-.598-2.273-1.194-4.547-1.79-6.82l-.886-3.245-.783-2.992c-.31-.754-.618-1.508-.936-2.285l-3-1v-5c2.375-.625 2.375-.625 5-1l2 2c1.984.714 3.983 1.386 6 2l-1 5-4 1c.476 1.314.956 2.626 1.438 3.938l.808 2.214c.608 1.831.608 1.831 1.754 2.848 1.853.072 3.708.084 5.563.063l3.066-.028L47 32c1.757-4.504 2.193-8.176 2-13l-5-1v-5l4-1 1-4Z"/><path fill="#C0B246" d="M126 107c2.063.438 2.063.438 4 1l1 4 4 1v5l-5 1c-.35 5.853-.35 5.853 2 11 2.034 1.268 2.034 1.268 4 2l-2.375 1.313c-2.842 1.58-2.842 1.58-4.625 4.687-2.886-.398-3.822-.79-5.75-3.063L122 133c-2.867.031-2.867.031-6 1-2.376 2.954-3.803 5.41-5 9l2.188-1c2.829-1.006 4.841-1.17 7.812-1-3.225 1.737-6.513 2.89-10 4-7-17.5-7-17.5-7-25l-4-2 1-5c4.389.665 7.981 2.188 12 4l-1 6h-4c.592 1.318 1.199 2.63 1.813 3.938l1.019 2.214c1.104 2.178 1.104 2.178 4.168 2.848 2.066-.093 2.066-.093 4.188-.438L123 131c1.998-4.12 2.178-7.452 2-12l-5-1v-5l4-1 .438-1.938C125 108 125 108 126 107Z"/><path fill="#C4B44C" d="M177 13c4.37.514 8.027 2.208 12 4v6h-5c2.997 6.303 2.997 6.303 7 12l-3 7 2.438-.984c4.303-1.227 8.116-1.31 12.562-1.266l2.367-.023c5.39.018 9.753.833 14.633 3.273l-2-7 2 1v2h2c-.188 2.313-.188 2.313-1 5-7.932 6.003-19.562 4.87-28.977 3.598-2.724-.843-4.08-1.492-6.023-3.598-1.473-3.534-2.426-6.95-3.246-10.688-.642-2.82-1.431-4.792-2.754-7.312-.125-2.75-.125-2.75 0-5l-4-2a99.984 99.984 0 0 1 0-5l1-1Z"/><path fill="#EFD220" d="M49 8h5l.25 1.875c.563 2.31.563 2.31 2.813 3.375L59 14l-1 5h-5l.438 1.793c.97 4.132 1.838 7.93 1.562 12.207l-2-3-3 1h3c.125 2.375.125 2.375 0 5l-2 2c3.743-4.796 3.743-4.796 6.973-5.32 2.247.143 3.948.447 6.027 1.32 2.737 3.148 4 4.8 4 9l-3.434-.984c-4.586-1.143-8.92-1.314-13.629-1.266l-2.314-.023c-4.908.016-8.967.715-13.623 2.273.415-4.843 2.462-6.816 6-10l1-1a99.984 99.984 0 0 1 5 0c1.757-4.504 2.193-8.176 2-13l-5-1v-5l4-1 1-4Z"/><path fill="#F6D716" d="M44 32.375c3.927.818 5.446 2.62 8 5.625l1.5-2.563C56 33 56 33 57.906 32.68c2.264.143 3.994.455 6.094 1.32 2.737 3.148 4 4.8 4 9l-3.434-.984c-4.586-1.143-8.92-1.314-13.629-1.266l-2.314-.023c-4.908.016-8.967.715-13.623 2.273.298-3.477 1.012-5.015 3.188-7.813C41 33 41 33 44 32.376Z"/><path fill="#F7D715" d="M200 34c2.313 2.063 2.313 2.063 4 4l1.5-2.563C208 33 208 33 209.906 32.68c2.264.143 3.994.455 6.094 1.32 2.737 3.148 4 4.8 4 9l-3.43-.988c-4.613-1.151-8.961-1.275-13.695-1.2l-2.34.002c-4.282.033-8.32.344-12.535 1.186.547-3.375 1.055-5.082 3-8 3.213-1.33 5.727-1.064 9 0Z"/><path fill="#E7CC26" d="M126 107c2.063.438 2.063.438 4 1l1 4 4 1v5l-5 1v10h-5v-10l-5-1v-5l4-1 .438-1.938C125 108 125 108 126 107Z"/><path fill="#ECD023" d="M201 8h5l.25 1.875c.563 2.31.563 2.31 2.813 3.375L211 14l-1 5h-4v10l-4 1-2 3 1-14-5-1 1-5 3-1c.733-2.015.733-2.015 1-4Z"/><path fill="#F0D21D" d="M74 13c1.675.286 3.344.618 5 1 .25 2.25.25 2.25 0 5l-1.813 1.75c-2.76 2.84-3.37 5.458-4.378 9.227C72 32 72 32 69 34c-.25 2.584-.25 2.584 0 5-1.563-1.188-1.563-1.188-3-3 .135-4.733 2.815-8.905 5-13h-5v-6l3.438-1.438c3.32-1.198 3.32-1.198 4.562-2.562Z"/><path fill="#E3C929" d="M218 44v2c-4.984 1.987-9.226 2.306-14.5 2.25l-2.223.023c-4.474-.016-8.063-.593-12.277-2.273v-2c9.597-3.01 19.403-3.01 29 0Z"/><path fill="#E3C92C" d="M101 113c4.389.665 7.981 2.188 12 4l-1 6h-4l1.164 2.047 1.461 2.703 1.477 2.672c.898 2.578.898 2.578.046 4.906L111 137l-.813-1.875C109.044 132.7 109.044 132.7 106 131c-.656-2.815-.949-5.598-1.277-8.469-.468-2.687-.468-2.687-2.79-3.875L100 118l1-5Z"/><path fill="#EFD11F" d="m121.563 141.867 2.664-.004 2.773.012 2.773-.012 2.665.004 2.433.004C137 142 137 142 140 143v2c-3.001 1.725-5.174 2.256-8.625 2.266l-2.64.007-2.735-.023-2.734.023-2.641-.007-2.398-.007c-2.456-.286-4.097-1.034-6.227-2.259 2.979-2.979 5.536-3.127 9.563-3.133Z"/><path fill="#DFC72D" d="M177 13c4.37.514 8.027 2.208 12 4v6h-5v6l-2-1-.875-2.875c-.828-3.21-.828-3.21-3.25-4.688L176 19c-.313-2.625-.313-2.625 0-5l1-1Z"/><path fill="#F6D714" d="M63 44h-2v2c-7.69 2.259-16.179 1.026-24 0v-2c7.48-2.442 19.202-4.532 26 0Z"/><path fill="#F4D619" d="M123 133c2.25 3.063 2.25 3.063 4 6-1.729.481-3.458.96-5.188 1.438l-2.917.808A117.265 117.265 0 0 1 111 143c.502-4.396 1.973-6.795 5-10 4.038-1.346 4.038-1.346 7 0Z"/><path fill="#F5D618" d="M133 132c3.532.196 4.979.983 7.75 3.25 2.268 2.772 2.95 4.24 3.25 7.75-5.398-1.15-10.71-2.424-16-4 3.875-5.875 3.875-5.875 5-7Z"/><path fill="#E2C82D" d="M149 113h5l1 5-1.938.688c-2.336 1.152-2.336 1.152-2.687 3.874L150 125l-2 1v-4h-5a88.406 88.406 0 0 1-1-5c1-1 1-1 3.563-1.063L148 116l1-3Z"/><path fill="#E0C72D" d="M25 13c4.37.514 8.027 2.208 12 4l-1 5h-5l-2 4-.813-2.938L27 20l-3-1a99.984 99.984 0 0 1 0-5l1-1Z"/><path fill="#BEAF50" d="m206 28 .68 1.953c1.149 2.29 1.149 2.29 3.703 2.656l2.742.141 2.758.172L218 33l-1 3-1.688-1c-2.793-1.208-4.298-1.515-7.312-1-2.813 2.396-2.813 2.396-5 5l-1.5-2.5c-2.163-2.65-2.163-2.65-4.547-2.832-1.987.018-3.972.167-5.953.332 2-2 2-2 5.125-2.125L199 32l1-2c1.979-.727 3.98-1.398 6-2Z"/><path fill="#A8A05D" d="m50 29 6 1v2l2.117.078 2.758.172 2.742.14C66 33 66 33 67.32 35.048L68 37l.313-1.938L69 33l3-1-3 12c-1.1-2.2-2.175-4.418-3.125-6.688-2.06-2.54-2.665-2.828-5.75-3.437-3.68-.278-4.036.052-7.125 2.563L51 39v-3h1l1-5h-3l-1 2 1-4Z"/><path fill="#CDBA40" d="M220 22h5c1.564 3.974.361 6.814-.938 10.75l-1.152 3.547L222 39h-2c-2-3-2-3-1.813-5.438.868-2.735 2.07-4.312 3.813-6.562.705-2.147.705-2.147 1-4l-3-1Z"/><path fill="#CBB942" d="m31 22 4 1h-3c.748 2.82 1.577 5.445 3 8 3.04 1.6 3.04 1.6 6 2l-2.438 1.875c-2.6 1.867-2.6 1.867-3.562 4.125h-2c-2.222-5.278-3.466-9.17-3-15l1-2Z"/><path fill="#CBB844" d="M144 122h4c1.666 3.14 2.091 4.583 1.32 8.113l-1.195 3.2-1.18 3.238L146 139h-2c-2.092-3.446-2.092-3.446-1.688-5.875.732-2.26 1.66-4.265 2.75-6.375l1.098-2.14.84-1.61-3-1Z"/><path fill="#9D9863" d="m123 131-1.688.813L119 133l-2.563 1.188c-3.373 2.508-4.03 4.89-5.437 8.812l2.188-1c2.829-1.006 4.841-1.17 7.812-1-3.225 1.737-6.513 2.89-10 4-3.286-8.429-3.286-8.429-4-13l4 2 1-1c3.925-1.308 6.86-2.112 11-2Z"/><path fill="#B5A85A" d="M57 41c1.46.114 2.917.242 4.375.375l2.46.21C66 42 66 42 68 44c-5.712 3.65-9.59 4.139-16.375 4.125l-3.898.008C44.383 48.013 41.279 47.64 38 47v-1h23c-.752-3.278-.752-3.278-4-5Z"/><path fill="#C9B743" d="M66 17h1v5h5c1.528 2.97 2.155 4.393 1.313 7.688C72 32 72 32 69 34c-.25 2.584-.25 2.584 0 5-1.563-1.188-1.563-1.188-3-3 .135-4.733 2.815-8.905 5-13h-5v-6Z"/><path fill="#C6B549" d="m49 26 1 2h3l1-2 1 7-2-3-3 1h3v5l-4 1-2-3c-2.563-.73-2.563-.73-5-1v-1h5l2-6Z"/><path fill="#B6AA54" d="m218 36 2 1v2h2l-1 5c-3.184 1.061-4.085.959-7.23.223l-2.432-.557c-.833-.2-1.667-.398-2.525-.603l-2.561-.592c-2.086-.483-4.17-.976-6.252-1.471v-1c7.297-.213 13.346-.327 20 3l-2-7Z"/><path fill="#D3BE3D" d="M107 122h5l-4 1 1.164 2.047 1.461 2.703c.73 1.323.73 1.323 1.477 2.672.898 2.578.898 2.578.046 4.906L111 137l-.813-1.875C109.044 132.7 109.044 132.7 106 131c-.438-6.125-.438-6.125 1-9Z"/><path fill="#ACA359" d="M180 22c2 3 2 3 3 6l2-2c4.062 5.292 4.062 5.292 3.75 8.875L188 37l-2-3-3-1c-2.025-3.976-3-6.505-3-11Z"/><path fill="#AFA45B" d="m206 28 .68 1.953c1.149 2.29 1.149 2.29 3.703 2.656l2.742.141 2.758.172L218 33l-1 3-1.625-1c-2.915-1.227-5.24-1.068-8.375-1l-2-1v-2h-3l-1 2 1-4 4-1Z"/><path fill="#C6B44B" d="M201 8h5l.313 1.938L207 12l3 1v1h-5V9h-3v5h-5l1-2h2l1-4Z"/><path fill="#A09B5E" d="m124 127 1 2h5l1-2 1 3c2 1.209 2 1.209 4 2l-6 3-1-5h-3l-1 3c-1.063-1.875-1.063-1.875-2-4l1-2Z"/><path fill="#ABA358" d="M184 33c3 1 3 1 4 3l2-3 1 2a87.756 87.756 0 0 1-3 5 174.184 174.184 0 0 0-2 4c-1.193-3.877-2-6.916-2-11Z"/><path fill="#B9AB54" d="M49 8h5l.375 1.938L55 12l2 1h-3l-1-3-3-1v5h-5l-1 4v-5l4-1 1-4Z"/><path fill="#C1B14D" d="M126 107c2.063.438 2.063.438 4 1l1 4 4 1v5l-1-4h-5v-5l-4-1 1-1Z"/><path fill="#BBAD51" d="M74 13c1.675.286 3.344.618 5 1v5l-1-4h-4v3l-7-1v-1l2.938-.938C72.84 14.306 72.84 14.306 74 13Z"/><path fill="#BCAE4F" d="M134 141h7l2 4c-1 1-1 1-3.563 1.063L137 146l3-1v-2l-6-1v-1Z"/><path fill="#D3BE41" d="m49 26 1 2h3l1-2 1 7-2-3h-3l-2 3 1-7Z"/><path fill="#D5C03B" d="M220 22h5c.934 3.01 1.044 3.867 0 7h-2v-6l-3-1Z"/><path fill="#DCC432" d="m184 30 4 1 1 5-2 1c-3-4.75-3-4.75-3-7Z"/><path fill="#BAAC51" d="M177 13c2.063.438 2.063.438 4 1l-2 1 1 6-4-2a99.984 99.984 0 0 1 0-5l1-1Z"/></svg>