<?xml version="1.0" encoding="UTF-8"?>
<svg version="1.1" xmlns="http://www.w3.org/2000/svg" width="256" height="154">
<path d="M0 0 C84.48 0 168.96 0 256 0 C256 50.82 256 101.64 256 154 C171.52 154 87.04 154 0 154 C0 103.18 0 52.36 0 0 Z " fill="#07409E" transform="translate(0,0)"/>
<path d="M0 0 C0.495 1.485 0.495 1.485 1 3 C9.91 3.66 18.82 4.32 28 5 C28 4.34 28 3.68 28 3 C30.10122219 2.02461785 32.21029957 1.07757913 34.3359375 0.15625 C36.04212665 -0.58426611 37.73658994 -1.35280036 39.4140625 -2.15625 C48.49915331 -6.09406026 59.44973814 -6.7193389 69.05078125 -4.19921875 C71.99134622 -2.95272722 74.25312673 -1.77045875 76.484375 0.53125 C81.04562564 4.95143104 87.91723895 5.23728161 93.9375 5.375 C100.07180994 5.2425095 105.29664576 4.21018454 111 2 C112.03125 1.608125 113.0625 1.21625 114.125 0.8125 C115.053125 0.4103125 115.053125 0.4103125 116 0 C116 -0.66 116 -1.32 116 -2 C121.25407063 -4.58577298 125.4109468 -5.55042819 131.25 -5.5 C131.99507812 -5.49645508 132.74015625 -5.49291016 133.5078125 -5.48925781 C140.21843422 -5.28898407 145.17637125 -3.29039698 151 0 C152.63697191 0.76914909 154.28251675 1.52041257 155.9375 2.25 C156.62714844 2.56453125 157.31679687 2.8790625 158.02734375 3.203125 C162.1944953 4.88648919 165.81467263 5.13557069 170.3125 5.125 C171.40175781 5.12757812 172.49101562 5.13015625 173.61328125 5.1328125 C177.09337645 4.99633818 180.55223346 4.49253808 184 4 C184 19.84 184 35.68 184 52 C99.52 52 15.04 52 -72 52 C-72 36.16 -72 20.32 -72 4 C-69.03 4.495 -69.03 4.495 -66 5 C-55.96926618 5.99595939 -47.12756656 3.87262207 -38.55859375 -1.54296875 C-26.81101544 -8.23281105 -11.54667339 -6.08170483 0 0 Z " fill="#06409E" transform="translate(72,102)"/>
<path d="M0 0 C1.01771484 0.01353516 2.03542969 0.02707031 3.08398438 0.04101562 C5.57738214 0.0761339 8.06965512 0.12531441 10.5625 0.1875 C10.5625 0.8475 10.5625 1.5075 10.5625 2.1875 C11.305 2.331875 12.0475 2.47625 12.8125 2.625 C15.08277739 3.08937492 17.32009479 3.60613569 19.5625 4.1875 C19.5625 4.8475 19.5625 5.5075 19.5625 6.1875 C28.78925287 10.21371944 40.66045137 11.10794517 50.375 8 C51.78277861 7.4242158 53.17785442 6.81688436 54.5625 6.1875 C56.68705585 5.31142212 58.81208053 4.43648059 60.9375 3.5625 C61.93523437 3.13710938 62.93296875 2.71171875 63.9609375 2.2734375 C75.25509236 -2.44093945 86.2681772 0.71586437 97.0703125 5.08984375 C99.5625 6.1875 99.5625 6.1875 102.296875 7.77734375 C106.52189462 9.60178404 110.12651884 9.80250582 114.6875 9.8125 C115.52990234 9.81556152 116.37230469 9.81862305 117.24023438 9.82177734 C124.00803761 9.63118978 128.27356308 7.73256088 133.87109375 3.87890625 C141.91229877 -1.17456512 153.35955244 -0.65168509 162.4375 0.8125 C167.39111547 2.22047784 171.98943141 4.60884473 176.609375 6.84765625 C181.58398219 9.10465396 185.44632592 9.32346043 190.9375 9.3125 C192.86722656 9.31636719 192.86722656 9.31636719 194.8359375 9.3203125 C198.96261847 9.25356392 198.96261847 9.25356392 204.5625 8.1875 C204.5625 22.7075 204.5625 37.2275 204.5625 52.1875 C193.17510657 55.44104098 184.33889783 54.99517976 173.5625 50.1875 C172.72332031 49.82914063 171.88414062 49.47078125 171.01953125 49.1015625 C165.11991207 46.54153199 165.11991207 46.54153199 162.828125 45.0859375 C159.37157016 43.71523472 155.91126613 43.89952663 152.25 43.9375 C151.51587891 43.92976563 150.78175781 43.92203125 150.02539062 43.9140625 C145.17617977 43.93127354 141.16410426 44.65565816 136.5625 46.1875 C136.5625 46.8475 136.5625 47.5075 136.5625 48.1875 C127.24419127 54.01144296 118.49200473 55.17343992 107.5625 54.1875 C102.69496734 53.03731567 98.15540898 51.85134825 94.6328125 48.171875 C89.9596337 43.69267721 83.9934413 43.8002528 77.875 43.8125 C76.68342285 43.81382935 76.68342285 43.81382935 75.46777344 43.81518555 C67.39631997 43.97684439 61.21811518 46.35969241 54.0625 49.9375 C51.5625 51.1875 51.5625 51.1875 48.5625 51.1875 C48.5625 51.8475 48.5625 52.5075 48.5625 53.1875 C28.03869048 53.61607143 28.03869048 53.61607143 21.5625 51.1875 C21.2325 50.5275 20.9025 49.8675 20.5625 49.1875 C10.01323998 44.02243204 -1.62812448 41.86758784 -13.125 45.3125 C-17.8101173 47.16516996 -22.28235654 49.54126775 -26.73828125 51.8828125 C-31.05370816 53.96870626 -34.52669215 54.34455593 -39.3125 54.375 C-40.82457031 54.39626953 -40.82457031 54.39626953 -42.3671875 54.41796875 C-45.4375 54.1875 -45.4375 54.1875 -51.4375 52.1875 C-51.4375 37.6675 -51.4375 23.1475 -51.4375 8.1875 C-48.9625 8.6825 -48.9625 8.6825 -46.4375 9.1875 C-37.96796322 9.65158421 -30.23581153 9.93668824 -22.4375 6.1875 C-21.11107171 5.82767105 -19.77865884 5.48780296 -18.4375 5.1875 C-18.4375 4.5275 -18.4375 3.8675 -18.4375 3.1875 C-12.23412991 -0.12734432 -6.94503869 -0.17622414 0 0 Z " fill="#85B2AC" transform="translate(51.4375,53.8125)"/>
<path d="M0 0 C1.01771484 0.01353516 2.03542969 0.02707031 3.08398438 0.04101562 C5.57738214 0.0761339 8.06965512 0.12531441 10.5625 0.1875 C10.5625 0.8475 10.5625 1.5075 10.5625 2.1875 C11.305 2.331875 12.0475 2.47625 12.8125 2.625 C15.08277739 3.08937492 17.32009479 3.60613569 19.5625 4.1875 C19.5625 4.8475 19.5625 5.5075 19.5625 6.1875 C28.78925287 10.21371944 40.66045137 11.10794517 50.375 8 C51.78277861 7.4242158 53.17785442 6.81688436 54.5625 6.1875 C56.68705585 5.31142212 58.81208053 4.43648059 60.9375 3.5625 C61.93523437 3.13710938 62.93296875 2.71171875 63.9609375 2.2734375 C75.25509236 -2.44093945 86.2681772 0.71586437 97.0703125 5.08984375 C99.5625 6.1875 99.5625 6.1875 102.296875 7.77734375 C106.52189462 9.60178404 110.12651884 9.80250582 114.6875 9.8125 C115.52990234 9.81556152 116.37230469 9.81862305 117.24023438 9.82177734 C124.00803761 9.63118978 128.27356308 7.73256088 133.87109375 3.87890625 C141.91229877 -1.17456512 153.35955244 -0.65168509 162.4375 0.8125 C167.39111547 2.22047784 171.98943141 4.60884473 176.609375 6.84765625 C181.58398219 9.10465396 185.44632592 9.32346043 190.9375 9.3125 C192.86722656 9.31636719 192.86722656 9.31636719 194.8359375 9.3203125 C198.96261847 9.25356392 198.96261847 9.25356392 204.5625 8.1875 C204.5625 13.1375 204.5625 18.0875 204.5625 23.1875 C195.57902822 25.43336794 183.35164271 25.37271257 174.5625 22.1875 C173.22786571 21.18923696 171.89463045 20.18910184 170.5625 19.1875 C160.71565284 14.75345286 151.12252291 13.35387824 140.8125 16.9375 C136.26735796 18.78047967 131.93126146 20.9647968 127.5625 23.1875 C123.33138212 24.47760287 119.20160284 24.40881305 114.8125 24.4375 C114.0390625 24.458125 113.265625 24.47875 112.46875 24.5 C105.3525951 24.54775943 99.75332867 22.53824706 93.5625 19.125 C85.21350652 14.9019626 75.79881161 13.55698187 66.6640625 15.9453125 C63.90766121 16.92588102 61.23913321 18.00722078 58.5625 19.1875 C57.71042969 19.55746094 56.85835938 19.92742187 55.98046875 20.30859375 C54.46077231 20.97883144 52.94564012 21.65961733 51.4375 22.35546875 C43.70504093 25.78674746 31.46728354 25.52703073 23.375 22.9375 C20.78050202 21.87244344 18.40952081 20.55464902 16 19.125 C8.62525007 14.96832277 0.89959356 14.3093406 -7.4375 15.1875 C-10.93890885 16.18559035 -14.14501764 17.644765 -17.4375 19.1875 C-29.07946816 24.56657691 -38.80027277 25.29370454 -51.4375 23.1875 C-51.4375 18.2375 -51.4375 13.2875 -51.4375 8.1875 C-48.9625 8.6825 -48.9625 8.6825 -46.4375 9.1875 C-37.96796322 9.65158421 -30.23581153 9.93668824 -22.4375 6.1875 C-21.11107171 5.82767105 -19.77865884 5.48780296 -18.4375 5.1875 C-18.4375 4.5275 -18.4375 3.8675 -18.4375 3.1875 C-12.23412991 -0.12734432 -6.94503869 -0.17622414 0 0 Z " fill="#88B5AC" transform="translate(51.4375,53.8125)"/>
<path d="M0 0 C0.58007812 0.34417969 1.16015625 0.68835938 1.7578125 1.04296875 C7.90621601 4.63920476 13.85297092 5.36957118 20.8203125 5.35546875 C21.60946045 5.35458252 22.3986084 5.35369629 23.21166992 5.3527832 C30.85493011 5.1987136 37.10670889 3.36101146 43.671875 -0.58203125 C50.76829276 -4.83525883 59.4657762 -5.19364033 67.45703125 -3.51953125 C72.69033937 -1.86591863 77.64202481 0.53842699 82.58984375 2.89453125 C90.58752642 6.39587894 101.69338497 6.30751097 110.125 4.2265625 C112.51330215 3.25369182 114.77658493 2.15725072 117.0703125 0.98046875 C118.87607737 0.2347788 120.68869927 -0.49452348 122.5078125 -1.20703125 C123.31089844 -1.53058594 124.11398438 -1.85414062 124.94140625 -2.1875 C134.8109879 -6.04478604 143.65481695 -3.92471831 153.234375 -0.30859375 C156.0703125 0.98046875 156.0703125 0.98046875 158.0703125 2.98046875 C167.31996029 6.46521978 178.37384504 5.14992158 188.0703125 4.98046875 C188.0703125 9.60046875 188.0703125 14.22046875 188.0703125 18.98046875 C175.5774772 22.10367758 163.65195492 19.97489249 152.4609375 14.15625 C144.37138701 10.17756585 134.75282473 9.56166904 126.03515625 11.73828125 C120.67906096 13.60959927 115.93764147 16.09980466 111.0703125 18.98046875 C96.90524022 23.27049252 84.41533737 19.26275474 71.84863281 12.81201172 C62.91206688 8.63327153 52.01183865 11.22340809 43.0703125 13.98046875 C40.3270715 15.16860095 37.71415053 16.45809907 35.09375 17.89453125 C28.04563698 21.67710928 16.48472673 21.58096343 8.84033203 19.32128906 C5.56115939 18.00715504 2.55579311 16.42383284 -0.53515625 14.70703125 C-11.31250115 9.22534374 -21.74150046 10.35532555 -32.9296875 13.98046875 C-35.88851374 15.19749539 -38.77359658 16.49954364 -41.65234375 17.89453125 C-46.26641906 20.09472496 -50.35660811 20.13071096 -55.3671875 20.10546875 C-56.13095703 20.10933594 -56.89472656 20.11320312 -57.68164062 20.1171875 C-58.42220703 20.11589844 -59.16277344 20.11460938 -59.92578125 20.11328125 C-60.59794678 20.11215332 -61.2701123 20.11102539 -61.96264648 20.10986328 C-63.9296875 19.98046875 -63.9296875 19.98046875 -67.9296875 18.98046875 C-67.9296875 14.36046875 -67.9296875 9.74046875 -67.9296875 4.98046875 C-66.56457031 5.03847656 -65.19945313 5.09648438 -63.79296875 5.15625 C-52.54495862 5.48940251 -44.13088092 5.0523297 -33.9296875 -0.01953125 C-22.66075811 -5.34759001 -11.29312246 -5.96660923 0 0 Z " fill="#0A439F" transform="translate(67.9296875,72.01953125)"/>
<path d="M0 0 C2.0625 0.4375 2.0625 0.4375 4 1 C4.33 2.32 4.66 3.64 5 5 C6.32 5.33 7.64 5.66 9 6 C9 7.65 9 9.3 9 11 C7.35 11.33 5.7 11.66 4 12 C3.67277222 17.84778974 3.67277222 17.84778974 6 23 C8.40404738 23.91599427 8.40404738 23.91599427 11.125 24.25 C12.03507812 24.39953125 12.94515625 24.5490625 13.8828125 24.703125 C14.58148438 24.80109375 15.28015625 24.8990625 16 25 C18.9540719 20.73422431 18.9540719 20.73422431 21 16 C19.68 15.67 18.36 15.34 17 15 C16.61781233 13.34385343 16.28604898 11.67542976 16 10 C17 9 17 9 19.5625 8.9375 C20.366875 8.958125 21.17125 8.97875 22 9 C22.33 8.01 22.66 7.02 23 6 C24.65 6 26.3 6 28 6 C28.495 8.475 28.495 8.475 29 11 C28.360625 11.23074219 27.72125 11.46148437 27.0625 11.69921875 C24.80659305 12.81322071 24.80659305 12.81322071 24.3125 15.14453125 C24.209375 16.02496094 24.10625 16.90539062 24 17.8125 C23.32138666 22.35260338 22.3599325 26.65612547 21.0625 31.0625 C20.74410156 32.14660156 20.42570312 33.23070312 20.09765625 34.34765625 C19 37 19 37 16 39 C10.72324111 40.254839 5.39502557 40.21826456 0 40.25 C-0.8765625 40.270625 -1.753125 40.29125 -2.65625 40.3125 C-11.93090895 40.36837144 -11.93090895 40.36837144 -16 37 C-17.59334433 33.6101332 -18.48588481 30.12933904 -19.375 26.5 C-19.76365234 25.05560547 -19.76365234 25.05560547 -20.16015625 23.58203125 C-22 16.60230655 -22 16.60230655 -22 13 C-23.32 12.34 -24.64 11.68 -26 11 C-25.67 9.35 -25.34 7.7 -25 6 C-20.61110675 6.66498383 -17.0188515 8.18757677 -13 10 C-13.33 11.98 -13.66 13.96 -14 16 C-15.32 16 -16.64 16 -18 16 C-17.40844669 17.31823302 -16.80128537 18.62947051 -16.1875 19.9375 C-15.85105469 20.66839844 -15.51460937 21.39929688 -15.16796875 22.15234375 C-14.06399866 24.33029489 -14.06399866 24.33029489 -11 25 C-8.93381251 24.90731495 -8.93381251 24.90731495 -6.8125 24.5625 C-5.554375 24.376875 -4.29625 24.19125 -3 24 C-1.00214565 19.8794254 -0.82164485 16.54805635 -1 12 C-3.475 11.505 -3.475 11.505 -6 11 C-6 9.35 -6 7.7 -6 6 C-4.68 5.67 -3.36 5.34 -2 5 C-1.855625 4.360625 -1.71125 3.72125 -1.5625 3.0625 C-1 1 -1 1 0 0 Z " fill="#B5A950" transform="translate(126,107)"/>
<path d="M0 0 C1.65 0 3.3 0 5 0 C5.12375 0.928125 5.12375 0.928125 5.25 1.875 C5.81258459 4.18437567 5.81258459 4.18437567 8.0625 5.25 C8.701875 5.4975 9.34125 5.745 10 6 C9.67 7.65 9.34 9.3 9 11 C7.68 11 6.36 11 5 11 C4.80705592 15.82360189 5.24252386 19.49646738 7 24 C10.63 24.33 14.26 24.66 18 25 C18.66 23.35 19.32 21.7 20 20 C20.66666667 18.33333333 21.33333333 16.66666667 22 15 C20.68 14.67 19.36 14.34 18 14 C17.505 11.525 17.505 11.525 17 9 C24.76470588 5.4982699 24.76470588 5.4982699 29 5 C30 6 30 6 30.0625 8.5625 C30.041875 9.366875 30.02125 10.17125 30 11 C29.01 11.33 28.02 11.66 27 12 C26.00605812 14.34873558 26.00605812 14.34873558 25.3515625 17.2421875 C24.92617187 18.84126953 24.92617187 18.84126953 24.4921875 20.47265625 C23.91640716 22.73168632 23.3460466 24.99210505 22.78125 27.25390625 C22.35199219 28.85685547 22.35199219 28.85685547 21.9140625 30.4921875 C21.6660791 31.47558105 21.4180957 32.45897461 21.16259766 33.47216797 C19.47376694 37.14418671 16.88144199 38.30211154 13.19921875 39.66796875 C5.20055021 40.87558301 -5.99736088 41.68648286 -13.3359375 37.8046875 C-16.53599806 34.33419928 -17.2579079 29.81900938 -18.24609375 25.3125 C-18.88789235 22.49257664 -19.67745838 20.52020807 -21 18 C-21.125 15.25 -21.125 15.25 -21 13 C-22.32 12.34 -23.64 11.68 -25 11 C-25 9.35 -25 7.7 -25 6 C-22.625 5.375 -22.625 5.375 -20 5 C-19.34 5.66 -18.68 6.32 -18 7 C-16.01643517 7.71408334 -14.01684563 8.38617742 -12 9 C-12 10.98 -12 12.96 -12 15 C-13.65 15 -15.3 15 -17 15 C-16.40606618 16.29640378 -15.79942011 17.58698839 -15.1875 18.875 C-14.85105469 19.59429688 -14.51460937 20.31359375 -14.16796875 21.0546875 C-13.00532903 23.30542806 -13.00532903 23.30542806 -10 25 C-9.34 24.67 -8.68 24.34 -8 24 C-6.00039988 23.960008 -3.99952758 23.95653201 -2 24 C-0.24252386 19.49646738 0.19294408 15.82360189 0 11 C-2.475 10.505 -2.475 10.505 -5 10 C-4.67 8.35 -4.34 6.7 -4 5 C-3.01 4.67 -2.02 4.34 -1 4 C-0.26676204 1.98491642 -0.26676204 1.98491642 0 0 Z " fill="#E0C72D" transform="translate(201,8)"/>
<path d="M0 0 C1.65 0 3.3 0 5 0 C5.12375 0.928125 5.12375 0.928125 5.25 1.875 C5.81258459 4.18437567 5.81258459 4.18437567 8.0625 5.25 C8.701875 5.4975 9.34125 5.745 10 6 C9.67 7.65 9.34 9.3 9 11 C7.35 11 5.7 11 4 11 C4.31182069 12.41681634 4.62448737 13.83344651 4.9375 15.25 C5.11152344 16.03890625 5.28554688 16.8278125 5.46484375 17.640625 C5.947556 19.76878703 6.46163178 21.88532842 7 24 C10.39992602 24.35037406 13.61316416 24.52636852 17 24 C19.69301444 21.04425244 20.74737631 18.75787108 22 15 C20.35 15 18.7 15 17 15 C17 13.02 17 11.04 17 9 C24.76470588 5.4982699 24.76470588 5.4982699 29 5 C30 6 30 6 30.3125 8.3125 C30 11 30 11 28.16015625 12.5078125 C24.33675369 16.918899 23.73654062 22.87208311 22.46484375 28.46679688 C20.67539808 35.52077192 20.67539808 35.52077192 17.0546875 38.08984375 C16.04664063 38.39019531 15.03859375 38.69054688 14 39 C13.36707031 39.22300781 12.73414063 39.44601563 12.08203125 39.67578125 C8.94328157 40.16455465 5.86217065 40.17154688 2.6875 40.1875 C1.41261719 40.20167969 0.13773438 40.21585938 -1.17578125 40.23046875 C-6.45861623 39.91209565 -10.58341167 38.94439222 -15 36 C-15.93554688 33.58569336 -15.93554688 33.58569336 -16.71875 30.58984375 C-17.01136719 29.51798828 -17.30398437 28.44613281 -17.60546875 27.34179688 C-18.2027831 25.06861146 -18.79913429 22.79517275 -19.39453125 20.52148438 C-19.68714844 19.45091797 -19.97976562 18.38035156 -20.28125 17.27734375 C-20.53970703 16.28984131 -20.79816406 15.30233887 -21.06445312 14.28491211 C-21.37318359 13.53089111 -21.68191406 12.77687012 -22 12 C-22.99 11.67 -23.98 11.34 -25 11 C-25 9.35 -25 7.7 -25 6 C-22.625 5.375 -22.625 5.375 -20 5 C-19.34 5.66 -18.68 6.32 -18 7 C-16.01643517 7.71408334 -14.01684563 8.38617742 -12 9 C-12.33 10.65 -12.66 12.3 -13 14 C-14.32 14.33 -15.64 14.66 -17 15 C-16.52418802 16.31371987 -16.04424851 17.62594546 -15.5625 18.9375 C-15.29566406 19.66839844 -15.02882813 20.39929688 -14.75390625 21.15234375 C-14.14613052 22.98305678 -14.14613052 22.98305678 -13 24 C-11.14712498 24.07226502 -9.29166122 24.0838122 -7.4375 24.0625 C-6.42558594 24.05347656 -5.41367187 24.04445313 -4.37109375 24.03515625 C-3.58863281 24.02355469 -2.80617188 24.01195313 -2 24 C-0.24252386 19.49646738 0.19294408 15.82360189 0 11 C-2.475 10.505 -2.475 10.505 -5 10 C-5 8.35 -5 6.7 -5 5 C-3.68 4.67 -2.36 4.34 -1 4 C-0.67 2.68 -0.34 1.36 0 0 Z " fill="#BAAD52" transform="translate(49,8)"/>
<path d="M0 0 C2.0625 0.4375 2.0625 0.4375 4 1 C4.33 2.32 4.66 3.64 5 5 C6.32 5.33 7.64 5.66 9 6 C9 7.65 9 9.3 9 11 C7.35 11.33 5.7 11.66 4 12 C3.64917519 17.85256318 3.64917519 17.85256318 6 23 C8.0335948 24.26804566 8.0335948 24.26804566 10 25 C9.21625 25.433125 8.4325 25.86625 7.625 26.3125 C4.78301625 27.89220247 4.78301625 27.89220247 3 31 C0.11424181 30.60196439 -0.82189513 30.20990931 -2.75 27.9375 C-3.1625 27.298125 -3.575 26.65875 -4 26 C-6.86734521 26.0311941 -6.86734521 26.0311941 -10 27 C-12.37589427 29.9538145 -13.8032337 32.40970111 -15 36 C-14.278125 35.67 -13.55625 35.34 -12.8125 35 C-9.98302573 33.99396471 -7.97104534 33.83022598 -5 34 C-8.22515763 35.73662334 -11.51329166 36.8905928 -15 38 C-22 20.5 -22 20.5 -22 13 C-23.32 12.34 -24.64 11.68 -26 11 C-25.67 9.35 -25.34 7.7 -25 6 C-20.61110675 6.66498383 -17.0188515 8.18757677 -13 10 C-13.33 11.98 -13.66 13.96 -14 16 C-15.32 16 -16.64 16 -18 16 C-17.40844669 17.31823302 -16.80128537 18.62947051 -16.1875 19.9375 C-15.85105469 20.66839844 -15.51460937 21.39929688 -15.16796875 22.15234375 C-14.06399866 24.33029489 -14.06399866 24.33029489 -11 25 C-8.93381251 24.90731495 -8.93381251 24.90731495 -6.8125 24.5625 C-5.554375 24.376875 -4.29625 24.19125 -3 24 C-1.00214565 19.8794254 -0.82164485 16.54805635 -1 12 C-3.475 11.505 -3.475 11.505 -6 11 C-6 9.35 -6 7.7 -6 6 C-4.68 5.67 -3.36 5.34 -2 5 C-1.855625 4.360625 -1.71125 3.72125 -1.5625 3.0625 C-1 1 -1 1 0 0 Z " fill="#C0B246" transform="translate(126,107)"/>
<path d="M0 0 C4.37081182 0.51421316 8.02704918 2.20827708 12 4 C12 5.98 12 7.96 12 10 C10.35 10 8.7 10 7 10 C9.99715719 16.30347455 9.99715719 16.30347455 14 22 C13.01 24.31 12.02 26.62 11 29 C12.2065625 28.51273438 12.2065625 28.51273438 13.4375 28.015625 C17.74104356 26.78873758 21.5542252 26.70598243 26 26.75 C27.17175781 26.73839844 27.17175781 26.73839844 28.3671875 26.7265625 C33.75789866 26.74471304 38.11964494 27.55982247 43 30 C42.34 27.69 41.68 25.38 41 23 C41.66 23.33 42.32 23.66 43 24 C43 24.66 43 25.32 43 26 C43.66 26 44.32 26 45 26 C44.8125 28.3125 44.8125 28.3125 44 31 C36.06791609 37.00265809 24.43762053 35.87017705 15.0234375 34.59765625 C12.29853342 33.75466753 10.94210664 33.10622833 9 31 C7.5268911 27.46624167 6.57362584 24.05073813 5.75390625 20.3125 C5.11210765 17.49257664 4.32254162 15.52020807 3 13 C2.875 10.25 2.875 10.25 3 8 C1.68 7.34 0.36 6.68 -1 6 C-1.042721 4.33388095 -1.04063832 2.66617115 -1 1 C-0.67 0.67 -0.34 0.34 0 0 Z " fill="#C4B44C" transform="translate(177,13)"/>
<path d="M0 0 C1.65 0 3.3 0 5 0 C5.12375 0.928125 5.12375 0.928125 5.25 1.875 C5.81258459 4.18437567 5.81258459 4.18437567 8.0625 5.25 C8.701875 5.4975 9.34125 5.745 10 6 C9.67 7.65 9.34 9.3 9 11 C7.35 11 5.7 11 4 11 C4.144375 11.59167969 4.28875 12.18335938 4.4375 12.79296875 C5.40822694 16.92529941 6.27593702 20.7229762 6 25 C5.34 24.01 4.68 23.02 4 22 C3.01 22.33 2.02 22.66 1 23 C1.99 23 2.98 23 4 23 C4.125 25.375 4.125 25.375 4 28 C3.34 28.66 2.68 29.32 2 30 C5.7431558 25.20408163 5.7431558 25.20408163 8.97265625 24.6796875 C11.22023433 24.82252424 12.92074374 25.12749372 15 26 C17.73716041 29.14773447 19 30.80043283 19 35 C17.86691406 34.67515625 16.73382813 34.3503125 15.56640625 34.015625 C10.97951107 32.87268744 6.64609029 32.70207542 1.9375 32.75 C1.17373047 32.74226563 0.40996094 32.73453125 -0.37695312 32.7265625 C-5.28516185 32.74335706 -9.34414736 33.44186605 -14 35 C-13.58485103 30.1565954 -11.53791301 28.18412171 -8 25 C-7.67 24.67 -7.34 24.34 -7 24 C-5.33382885 23.95936168 -3.66611905 23.957279 -2 24 C-0.24252386 19.49646738 0.19294408 15.82360189 0 11 C-1.65 10.67 -3.3 10.34 -5 10 C-5 8.35 -5 6.7 -5 5 C-3.68 4.67 -2.36 4.34 -1 4 C-0.67 2.68 -0.34 1.36 0 0 Z " fill="#EFD220" transform="translate(49,8)"/>
<path d="M0 0 C3.92660732 0.81804319 5.44578533 2.62004157 8 5.625 C8.495 4.779375 8.99 3.93375 9.5 3.0625 C12 0.625 12 0.625 13.90625 0.3046875 C16.17028228 0.44830149 17.89956997 0.75986386 20 1.625 C22.73716041 4.77273447 24 6.42543283 24 10.625 C22.86691406 10.30015625 21.73382813 9.9753125 20.56640625 9.640625 C15.97951107 8.49768744 11.64609029 8.32707542 6.9375 8.375 C6.17373047 8.36726563 5.40996094 8.35953125 4.62304688 8.3515625 C-0.28516185 8.36835706 -4.34414736 9.06686605 -9 10.625 C-8.70197895 7.14808771 -7.9882377 5.60987704 -5.8125 2.8125 C-3 0.625 -3 0.625 0 0 Z " fill="#F6D716" transform="translate(44,32.375)"/>
<path d="M0 0 C2.3125 2.0625 2.3125 2.0625 4 4 C4.495 3.154375 4.99 2.30875 5.5 1.4375 C8 -1 8 -1 9.90625 -1.3203125 C12.17028228 -1.17669851 13.89956997 -0.86513614 16 0 C18.73716041 3.14773447 20 4.80043283 20 9 C18.86820313 8.67386719 17.73640625 8.34773438 16.5703125 8.01171875 C11.95726739 6.86099658 7.60852824 6.73666776 2.875 6.8125 C1.71677734 6.8134668 1.71677734 6.8134668 0.53515625 6.81445312 C-3.74657696 6.84727731 -7.78473393 7.15829352 -12 8 C-11.45276317 4.62537285 -10.9451 2.91765 -9 0 C-5.78692464 -1.32954842 -3.27339029 -1.06385185 0 0 Z " fill="#F7D715" transform="translate(200,34)"/>
<path d="M0 0 C2.0625 0.4375 2.0625 0.4375 4 1 C4.33 2.32 4.66 3.64 5 5 C6.32 5.33 7.64 5.66 9 6 C9 7.65 9 9.3 9 11 C7.35 11.33 5.7 11.66 4 12 C4 15.3 4 18.6 4 22 C2.35 22 0.7 22 -1 22 C-1 18.7 -1 15.4 -1 12 C-2.65 11.67 -4.3 11.34 -6 11 C-6 9.35 -6 7.7 -6 6 C-4.68 5.67 -3.36 5.34 -2 5 C-1.855625 4.360625 -1.71125 3.72125 -1.5625 3.0625 C-1 1 -1 1 0 0 Z " fill="#E7CC26" transform="translate(126,107)"/>
<path d="M0 0 C1.65 0 3.3 0 5 0 C5.12375 0.928125 5.12375 0.928125 5.25 1.875 C5.81258459 4.18437567 5.81258459 4.18437567 8.0625 5.25 C8.701875 5.4975 9.34125 5.745 10 6 C9.67 7.65 9.34 9.3 9 11 C7.68 11 6.36 11 5 11 C5 14.3 5 17.6 5 21 C3.68 21.33 2.36 21.66 1 22 C0.34 22.99 -0.32 23.98 -1 25 C-0.67 20.38 -0.34 15.76 0 11 C-1.65 10.67 -3.3 10.34 -5 10 C-4.67 8.35 -4.34 6.7 -4 5 C-3.01 4.67 -2.02 4.34 -1 4 C-0.26676204 1.98491642 -0.26676204 1.98491642 0 0 Z " fill="#ECD023" transform="translate(201,8)"/>
<path d="M0 0 C1.67542976 0.28604898 3.34385343 0.61781233 5 1 C5.25 3.25 5.25 3.25 5 6 C4.1028125 6.86625 4.1028125 6.86625 3.1875 7.75 C0.42639249 10.58999629 -0.18347157 13.20776327 -1.19140625 16.9765625 C-2 19 -2 19 -5 21 C-5.25030977 23.58380177 -5.25030977 23.58380177 -5 26 C-6.5625 24.8125 -6.5625 24.8125 -8 23 C-7.86476467 18.26676347 -5.18488169 14.0953829 -3 10 C-4.65 10 -6.3 10 -8 10 C-8 8.02 -8 6.04 -8 4 C-6.865625 3.525625 -5.73125 3.05125 -4.5625 2.5625 C-1.24259834 1.36377917 -1.24259834 1.36377917 0 0 Z " fill="#F0D21D" transform="translate(74,13)"/>
<path d="M0 0 C0 0.66 0 1.32 0 2 C-4.98448234 3.98748346 -9.2259968 4.30561339 -14.5 4.25 C-15.60021484 4.26160156 -15.60021484 4.26160156 -16.72265625 4.2734375 C-21.1968584 4.25742962 -24.78628625 3.68015168 -29 2 C-29 1.34 -29 0.68 -29 0 C-19.40286512 -3.01086584 -9.59713488 -3.01086584 0 0 Z " fill="#E3C929" transform="translate(218,44)"/>
<path d="M0 0 C4.38889325 0.66498383 7.9811485 2.18757677 12 4 C11.67 5.98 11.34 7.96 11 10 C9.68 10 8.36 10 7 10 C7.38414063 10.67546875 7.76828125 11.3509375 8.1640625 12.046875 C8.64617187 12.93890625 9.12828125 13.8309375 9.625 14.75 C10.11226562 15.63171875 10.59953125 16.5134375 11.1015625 17.421875 C12 20 12 20 11.1484375 22.328125 C10.57996094 23.15570313 10.57996094 23.15570313 10 24 C9.731875 23.38125 9.46375 22.7625 9.1875 22.125 C8.04443152 19.7004767 8.04443152 19.7004767 5 18 C4.34392349 15.18451936 4.05127995 12.40198577 3.72265625 9.53125 C3.25502442 6.84414466 3.25502442 6.84414466 0.93359375 5.65625 C-0.02353516 5.33140625 -0.02353516 5.33140625 -1 5 C-0.67 3.35 -0.34 1.7 0 0 Z " fill="#E3C92C" transform="translate(101,113)"/>
<path d="M0 0 C0.87914063 -0.00128906 1.75828125 -0.00257813 2.6640625 -0.00390625 C4.03691406 0.00189453 4.03691406 0.00189453 5.4375 0.0078125 C6.35273437 0.00394531 7.26796875 0.00007812 8.2109375 -0.00390625 C9.09007812 -0.00261719 9.96921875 -0.00132812 10.875 0 C11.67808594 0.00112793 12.48117188 0.00225586 13.30859375 0.00341797 C15.4375 0.1328125 15.4375 0.1328125 18.4375 1.1328125 C18.4375 1.7928125 18.4375 2.4528125 18.4375 3.1328125 C15.43616244 4.85789636 13.26315948 5.38860256 9.8125 5.3984375 C8.50539062 5.40230469 8.50539062 5.40230469 7.171875 5.40625 C6.26953125 5.39851562 5.3671875 5.39078125 4.4375 5.3828125 C3.53515625 5.39054688 2.6328125 5.39828125 1.703125 5.40625 C0.83171875 5.40367187 -0.0396875 5.40109375 -0.9375 5.3984375 C-2.12472656 5.39505371 -2.12472656 5.39505371 -3.3359375 5.39160156 C-5.79169493 5.10617362 -7.43204224 4.35733931 -9.5625 3.1328125 C-6.58363827 0.15395077 -4.02651097 0.00565521 0 0 Z " fill="#EFD11F" transform="translate(121.5625,141.8671875)"/>
<path d="M0 0 C4.37081182 0.51421316 8.02704918 2.20827708 12 4 C12 5.98 12 7.96 12 10 C10.35 10 8.7 10 7 10 C7 11.98 7 13.96 7 16 C6.34 15.67 5.68 15.34 5 15 C4.71125 14.05125 4.4225 13.1025 4.125 12.125 C3.29707037 8.91430394 3.29707037 8.91430394 0.875 7.4375 C0.25625 6.963125 -0.3625 6.48875 -1 6 C-1.3125 3.375 -1.3125 3.375 -1 1 C-0.67 0.67 -0.34 0.34 0 0 Z " fill="#DFC72D" transform="translate(177,13)"/>
<path d="M0 0 C-0.66 0 -1.32 0 -2 0 C-2 0.66 -2 1.32 -2 2 C-9.68994713 4.25858587 -18.17884159 3.02572569 -26 2 C-26 1.34 -26 0.68 -26 0 C-18.52072631 -2.44221182 -6.79766317 -4.53177545 0 0 Z " fill="#F6D714" transform="translate(63,44)"/>
<path d="M0 0 C2.25 3.0625 2.25 3.0625 4 6 C2.27143541 6.4813341 0.54211929 6.95996971 -1.1875 7.4375 C-2.63189453 7.83775391 -2.63189453 7.83775391 -4.10546875 8.24609375 C-6.72663697 8.92880018 -9.338935 9.49892195 -12 10 C-11.4975516 5.60357652 -10.02704059 3.2051018 -7 0 C-2.96153846 -1.34615385 -2.96153846 -1.34615385 0 0 Z " fill="#F4D619" transform="translate(123,133)"/>
<path d="M0 0 C3.532196 0.19623311 4.97883141 0.98268025 7.75 3.25 C10.0180963 6.02211769 10.69918829 7.49053006 11 11 C5.60204011 9.84941444 0.29012667 8.57578241 -5 7 C-1.125 1.125 -1.125 1.125 0 0 Z " fill="#F5D618" transform="translate(133,132)"/>
<path d="M0 0 C1.65 0 3.3 0 5 0 C5.33 1.65 5.66 3.3 6 5 C5.360625 5.226875 4.72125 5.45375 4.0625 5.6875 C1.72567164 6.84016601 1.72567164 6.84016601 1.375 9.5625 C1.25125 10.366875 1.1275 11.17125 1 12 C0.01 12.495 0.01 12.495 -1 13 C-1 11.68 -1 10.36 -1 9 C-2.65 9 -4.3 9 -6 9 C-6.38218767 7.34385343 -6.71395102 5.67542976 -7 4 C-6 3 -6 3 -3.4375 2.9375 C-2.2309375 2.9684375 -2.2309375 2.9684375 -1 3 C-0.67 2.01 -0.34 1.02 0 0 Z " fill="#E2C82D" transform="translate(149,113)"/>
<path d="M0 0 C4.37081182 0.51421316 8.02704918 2.20827708 12 4 C11.67 5.65 11.34 7.3 11 9 C9.35 9 7.7 9 6 9 C5.34 10.32 4.68 11.64 4 13 C3.731875 12.030625 3.46375 11.06125 3.1875 10.0625 C2.795625 9.051875 2.40375 8.04125 2 7 C1.01 6.67 0.02 6.34 -1 6 C-1.042721 4.33388095 -1.04063832 2.66617115 -1 1 C-0.67 0.67 -0.34 0.34 0 0 Z " fill="#E0C72D" transform="translate(25,13)"/>
<path d="M0 0 C0.22429687 0.64453125 0.44859375 1.2890625 0.6796875 1.953125 C1.82889456 4.24388852 1.82889456 4.24388852 4.3828125 4.609375 C5.28773438 4.65578125 6.19265625 4.7021875 7.125 4.75 C8.03507812 4.80671875 8.94515625 4.8634375 9.8828125 4.921875 C10.58148438 4.94765625 11.28015625 4.9734375 12 5 C11.67 5.99 11.34 6.98 11 8 C10.443125 7.67 9.88625 7.34 9.3125 7 C6.51860608 5.79182966 5.01376343 5.48545502 2 6 C-0.81331378 8.39583651 -0.81331378 8.39583651 -3 11 C-3.495 10.175 -3.99 9.35 -4.5 8.5 C-6.66272692 5.84997241 -6.66272692 5.84997241 -9.046875 5.66796875 C-11.03425598 5.68558738 -13.01940609 5.83495051 -15 6 C-13 4 -13 4 -9.875 3.875 C-8.92625 3.91625 -7.9775 3.9575 -7 4 C-6.67 3.34 -6.34 2.68 -6 2 C-4.02111039 1.27306096 -2.02045442 0.60183749 0 0 Z " fill="#BEAF50" transform="translate(206,28)"/>
<path d="M0 0 C2.97 0.495 2.97 0.495 6 1 C6 1.66 6 2.32 6 3 C6.69867188 3.02578125 7.39734375 3.0515625 8.1171875 3.078125 C9.02726562 3.13484375 9.93734375 3.1915625 10.875 3.25 C12.23238281 3.31960937 12.23238281 3.31960937 13.6171875 3.390625 C16 4 16 4 17.3203125 6.046875 C17.54460937 6.69140625 17.76890625 7.3359375 18 8 C18.103125 7.360625 18.20625 6.72125 18.3125 6.0625 C18.539375 5.381875 18.76625 4.70125 19 4 C19.99 3.67 20.98 3.34 22 3 C21.01 6.96 20.02 10.92 19 15 C17.89961339 12.79922678 16.82510793 10.58220227 15.875 8.3125 C13.8155857 5.77255569 13.21010271 5.48390185 10.125 4.875 C6.44500946 4.59662433 6.08931877 4.9274285 3 7.4375 C2.01 8.7059375 2.01 8.7059375 1 10 C1 9.01 1 8.02 1 7 C1.33 7 1.66 7 2 7 C2.33 5.35 2.66 3.7 3 2 C2.01 2 1.02 2 0 2 C-0.33 2.66 -0.66 3.32 -1 4 C-0.67 2.68 -0.34 1.36 0 0 Z " fill="#A8A05D" transform="translate(50,29)"/>
<path d="M0 0 C1.65 0 3.3 0 5 0 C6.56393356 3.97376829 5.36145292 6.81377903 4.0625 10.75 C3.68222656 11.92046875 3.30195313 13.0909375 2.91015625 14.296875 C2.60980469 15.18890625 2.30945313 16.0809375 2 17 C1.34 17 0.68 17 0 17 C-2 14 -2 14 -1.8125 11.5625 C-0.94500632 8.82655841 0.25783398 7.25029778 2 5 C2.70514846 2.85266073 2.70514846 2.85266073 3 1 C2.01 0.67 1.02 0.34 0 0 Z " fill="#CDBA40" transform="translate(220,22)"/>
<path d="M0 0 C1.98 0.495 1.98 0.495 4 1 C3.01 1 2.02 1 1 1 C1.74752859 3.81962538 2.57664824 6.44526606 4 9 C7.04021368 10.59995382 7.04021368 10.59995382 10 11 C9.195625 11.61875 8.39125 12.2375 7.5625 12.875 C4.96125481 14.74164041 4.96125481 14.74164041 4 17 C3.34 17 2.68 17 2 17 C-0.22232361 11.72198142 -1.46632923 7.82911532 -1 2 C-0.67 1.34 -0.34 0.68 0 0 Z " fill="#CBB942" transform="translate(31,22)"/>
<path d="M0 0 C1.32 0 2.64 0 4 0 C5.66637013 3.14046678 6.09103737 4.58300701 5.3203125 8.11328125 C4.92585937 9.16902344 4.53140625 10.22476563 4.125 11.3125 C3.54105469 12.91544922 3.54105469 12.91544922 2.9453125 14.55078125 C2.63335937 15.35902344 2.32140625 16.16726562 2 17 C1.34 17 0.68 17 0 17 C-2.09230769 13.55384615 -2.09230769 13.55384615 -1.6875 11.125 C-0.956243 8.86475109 -0.02748274 6.85964401 1.0625 4.75 C1.42472656 4.04359375 1.78695312 3.3371875 2.16015625 2.609375 C2.43730469 2.07828125 2.71445313 1.5471875 3 1 C2.01 0.67 1.02 0.34 0 0 Z " fill="#CBB844" transform="translate(144,122)"/>
<path d="M0 0 C-0.556875 0.268125 -1.11375 0.53625 -1.6875 0.8125 C-2.8321875 1.4003125 -2.8321875 1.4003125 -4 2 C-4.845625 2.391875 -5.69125 2.78375 -6.5625 3.1875 C-9.93579438 5.6958471 -10.59371464 8.07720401 -12 12 C-11.278125 11.67 -10.55625 11.34 -9.8125 11 C-6.98302573 9.99396471 -4.97104534 9.83022598 -2 10 C-5.22515763 11.73662334 -8.51329166 12.8905928 -12 14 C-15.28571429 5.57142857 -15.28571429 5.57142857 -16 1 C-14.02 1.99 -14.02 1.99 -12 3 C-11.67 2.67 -11.34 2.34 -11 2 C-7.07512885 0.69170962 -4.13949057 -0.11187812 0 0 Z " fill="#9D9863" transform="translate(123,131)"/>
<path d="M0 0 C1.45922693 0.11409593 2.91740598 0.24165544 4.375 0.375 C5.59316406 0.47941406 5.59316406 0.47941406 6.8359375 0.5859375 C9 1 9 1 11 3 C5.28793781 6.64937307 1.41036462 7.13854364 -5.375 7.125 C-7.30472656 7.12886719 -7.30472656 7.12886719 -9.2734375 7.1328125 C-12.6174251 7.01363474 -15.72097949 6.63956128 -19 6 C-19 5.67 -19 5.34 -19 5 C-11.41 5 -3.82 5 4 5 C3.24849977 1.72226496 3.24849977 1.72226496 0 0 Z " fill="#B5A85A" transform="translate(57,41)"/>
<path d="M0 0 C0.33 0 0.66 0 1 0 C1 1.65 1 3.3 1 5 C2.65 5 4.3 5 6 5 C7.52784106 7.97080205 8.15535109 9.39271846 7.3125 12.6875 C6 15 6 15 3 17 C2.74969023 19.58380177 2.74969023 19.58380177 3 22 C1.4375 20.8125 1.4375 20.8125 0 19 C0.13523533 14.26676347 2.81511831 10.0953829 5 6 C3.35 6 1.7 6 0 6 C0 4.02 0 2.04 0 0 Z " fill="#C9B743" transform="translate(66,17)"/>
<path d="M0 0 C0.33 0.66 0.66 1.32 1 2 C1.99 2 2.98 2 4 2 C4.33 1.34 4.66 0.68 5 0 C5.33 2.31 5.66 4.62 6 7 C5.34 6.01 4.68 5.02 4 4 C3.01 4.33 2.02 4.66 1 5 C1.99 5 2.98 5 4 5 C4 6.65 4 8.3 4 10 C2.68 10.33 1.36 10.66 0 11 C-0.66 10.01 -1.32 9.02 -2 8 C-4.56282742 7.27034634 -4.56282742 7.27034634 -7 7 C-7 6.67 -7 6.34 -7 6 C-5.35 6 -3.7 6 -2 6 C-1.34 4.02 -0.68 2.04 0 0 Z " fill="#C6B549" transform="translate(49,26)"/>
<path d="M0 0 C0.66 0.33 1.32 0.66 2 1 C2 1.66 2 2.32 2 3 C2.66 3 3.32 3 4 3 C3.67 4.65 3.34 6.3 3 8 C-0.18420845 9.06140282 -1.08459109 8.95892549 -4.23046875 8.22265625 C-5.03291016 8.03896484 -5.83535156 7.85527344 -6.66210938 7.66601562 C-7.49548828 7.46685547 -8.32886719 7.26769531 -9.1875 7.0625 C-10.03248047 6.86720703 -10.87746094 6.67191406 -11.74804688 6.47070312 C-13.833693 5.98758736 -15.91707614 5.49472096 -18 5 C-18 4.67 -18 4.34 -18 4 C-10.70304315 3.78746728 -4.65382779 3.67308611 2 7 C1.34 4.69 0.68 2.38 0 0 Z " fill="#B6AA54" transform="translate(218,36)"/>
<path d="M0 0 C1.65 0 3.3 0 5 0 C3.68 0.33 2.36 0.66 1 1 C1.38414063 1.67546875 1.76828125 2.3509375 2.1640625 3.046875 C2.64617187 3.93890625 3.12828125 4.8309375 3.625 5.75 C4.35589844 7.07257813 4.35589844 7.07257813 5.1015625 8.421875 C6 11 6 11 5.1484375 13.328125 C4.76945312 13.87984375 4.39046875 14.4315625 4 15 C3.731875 14.38125 3.46375 13.7625 3.1875 13.125 C2.04443152 10.7004767 2.04443152 10.7004767 -1 9 C-1.4375 2.875 -1.4375 2.875 0 0 Z " fill="#D3BE3D" transform="translate(107,122)"/>
<path d="M0 0 C2 3 2 3 3 6 C3.66 5.34 4.32 4.68 5 4 C9.06153846 9.29230769 9.06153846 9.29230769 8.75 12.875 C8.5025 13.57625 8.255 14.2775 8 15 C7.34 14.01 6.68 13.02 6 12 C5.01 11.67 4.02 11.34 3 11 C0.97467883 7.02436956 0 4.4949298 0 0 Z " fill="#ACA359" transform="translate(180,22)"/>
<path d="M0 0 C0.22429687 0.64453125 0.44859375 1.2890625 0.6796875 1.953125 C1.82889456 4.24388852 1.82889456 4.24388852 4.3828125 4.609375 C5.28773438 4.65578125 6.19265625 4.7021875 7.125 4.75 C8.03507813 4.80671875 8.94515625 4.8634375 9.8828125 4.921875 C10.58148438 4.94765625 11.28015625 4.9734375 12 5 C11.67 5.99 11.34 6.98 11 8 C10.46375 7.67 9.9275 7.34 9.375 7 C6.46016327 5.77270033 4.13592513 5.93182771 1 6 C0.34 5.67 -0.32 5.34 -1 5 C-1 4.34 -1 3.68 -1 3 C-1.99 3 -2.98 3 -4 3 C-4.33 3.66 -4.66 4.32 -5 5 C-4.67 3.68 -4.34 2.36 -4 1 C-2.68 0.67 -1.36 0.34 0 0 Z " fill="#AFA45B" transform="translate(206,28)"/>
<path d="M0 0 C1.65 0 3.3 0 5 0 C5.103125 0.639375 5.20625 1.27875 5.3125 1.9375 C5.6528125 2.9584375 5.6528125 2.9584375 6 4 C6.99 4.33 7.98 4.66 9 5 C9 5.33 9 5.66 9 6 C7.35 6 5.7 6 4 6 C4 4.35 4 2.7 4 1 C3.01 1 2.02 1 1 1 C1 2.65 1 4.3 1 6 C-0.65 6 -2.3 6 -4 6 C-3.67 5.34 -3.34 4.68 -3 4 C-2.34 4 -1.68 4 -1 4 C-0.67 2.68 -0.34 1.36 0 0 Z " fill="#C6B44B" transform="translate(201,8)"/>
<path d="M0 0 C0.33 0.66 0.66 1.32 1 2 C2.65 2 4.3 2 6 2 C6.33 1.34 6.66 0.68 7 0 C7.33 0.99 7.66 1.98 8 3 C10.00016466 4.20882096 10.00016466 4.20882096 12 5 C10.02 5.99 8.04 6.98 6 8 C5.67 6.35 5.34 4.7 5 3 C4.01 3 3.02 3 2 3 C1.67 3.99 1.34 4.98 1 6 C-0.0625 4.125 -0.0625 4.125 -1 2 C-0.67 1.34 -0.34 0.68 0 0 Z " fill="#A09B5E" transform="translate(124,127)"/>
<path d="M0 0 C3 1 3 1 4 3 C4.66 2.01 5.32 1.02 6 0 C6.33 0.66 6.66 1.32 7 2 C6.05988318 3.70116376 5.05104383 5.36504293 4 7 C3.31903578 8.32608822 2.64669414 9.65686601 2 11 C0.80712589 7.12315913 0 4.08378077 0 0 Z " fill="#ABA358" transform="translate(184,33)"/>
<path d="M0 0 C1.65 0 3.3 0 5 0 C5.12375 0.639375 5.2475 1.27875 5.375 1.9375 C5.58125 2.618125 5.7875 3.29875 6 4 C6.66 4.33 7.32 4.66 8 5 C7.01 5 6.02 5 5 5 C4.67 4.01 4.34 3.02 4 2 C3.01 1.67 2.02 1.34 1 1 C1 2.65 1 4.3 1 6 C-0.65 6 -2.3 6 -4 6 C-4.33 7.32 -4.66 8.64 -5 10 C-5 8.35 -5 6.7 -5 5 C-3.68 4.67 -2.36 4.34 -1 4 C-0.67 2.68 -0.34 1.36 0 0 Z " fill="#B9AB54" transform="translate(49,8)"/>
<path d="M0 0 C2.0625 0.4375 2.0625 0.4375 4 1 C4.33 2.32 4.66 3.64 5 5 C6.32 5.33 7.64 5.66 9 6 C9 7.65 9 9.3 9 11 C8.67 9.68 8.34 8.36 8 7 C6.35 7 4.7 7 3 7 C3 5.35 3 3.7 3 2 C1.68 1.67 0.36 1.34 -1 1 C-0.67 0.67 -0.34 0.34 0 0 Z " fill="#C1B14D" transform="translate(126,107)"/>
<path d="M0 0 C1.67542976 0.28604898 3.34385343 0.61781233 5 1 C5 2.65 5 4.3 5 6 C4.67 4.68 4.34 3.36 4 2 C2.68 2 1.36 2 0 2 C0 2.99 0 3.98 0 5 C-2.31 4.67 -4.62 4.34 -7 4 C-7 3.67 -7 3.34 -7 3 C-5.5459375 2.5359375 -5.5459375 2.5359375 -4.0625 2.0625 C-1.15934208 1.30476658 -1.15934208 1.30476658 0 0 Z " fill="#BBAD51" transform="translate(74,13)"/>
<path d="M0 0 C2.31 0 4.62 0 7 0 C7.66 1.32 8.32 2.64 9 4 C8 5 8 5 5.4375 5.0625 C4.2309375 5.0315625 4.2309375 5.0315625 3 5 C3.99 4.67 4.98 4.34 6 4 C6 3.34 6 2.68 6 2 C3.03 1.505 3.03 1.505 0 1 C0 0.67 0 0.34 0 0 Z " fill="#BCAE4F" transform="translate(134,141)"/>
<path d="M0 0 C0.33 0.66 0.66 1.32 1 2 C1.99 2 2.98 2 4 2 C4.33 1.34 4.66 0.68 5 0 C5.33 2.31 5.66 4.62 6 7 C5.34 6.01 4.68 5.02 4 4 C3.01 4 2.02 4 1 4 C0.34 4.99 -0.32 5.98 -1 7 C-0.67 4.69 -0.34 2.38 0 0 Z " fill="#D3BE41" transform="translate(49,26)"/>
<path d="M0 0 C1.65 0 3.3 0 5 0 C5.93423645 3.01031744 6.04449911 3.86650268 5 7 C4.34 7 3.68 7 3 7 C3 5.02 3 3.04 3 1 C2.01 0.67 1.02 0.34 0 0 Z " fill="#D5C03B" transform="translate(220,22)"/>
<path d="M0 0 C1.32 0.33 2.64 0.66 4 1 C4.33 2.65 4.66 4.3 5 6 C4.01 6.495 4.01 6.495 3 7 C0 2.25 0 2.25 0 0 Z " fill="#DCC432" transform="translate(184,30)"/>
<path d="M0 0 C2.0625 0.4375 2.0625 0.4375 4 1 C3.01 1.495 3.01 1.495 2 2 C2.33 3.98 2.66 5.96 3 8 C1.68 7.34 0.36 6.68 -1 6 C-1.042721 4.33388095 -1.04063832 2.66617115 -1 1 C-0.67 0.67 -0.34 0.34 0 0 Z " fill="#BAAC51" transform="translate(177,13)"/>
</svg>
