<?xml version="1.0" encoding="UTF-8"?>
<svg version="1.1" xmlns="http://www.w3.org/2000/svg" width="256" height="154">
<path d="M0 0 C84.48 0 168.96 0 256 0 C256 50.82 256 101.64 256 154 C171.52 154 87.04 154 0 154 C0 103.18 0 52.36 0 0 Z " fill="#CE162C" transform="translate(0,0)"/>
<path d="M0 0 C1.21816406 0.03480469 1.21816406 0.03480469 2.4609375 0.0703125 C3.68683594 0.09738281 3.68683594 0.09738281 4.9375 0.125 C5.87722656 0.15980469 5.87722656 0.15980469 6.8359375 0.1953125 C6.8359375 1.8453125 6.8359375 3.4953125 6.8359375 5.1953125 C5.1859375 5.1953125 3.5359375 5.1953125 1.8359375 5.1953125 C2.46353615 8.12410621 3.42216409 10.55626879 4.8359375 13.1953125 C8.96019001 12.73706222 12.78474292 11.97112921 16.7734375 10.8203125 C24.02953738 8.77011253 31.41632608 7.49589909 38.8359375 6.1953125 C39.74545166 6.02040283 40.65496582 5.84549316 41.59204102 5.6652832 C47.4108561 4.82226228 53.28703766 5.00938477 59.15576172 5.01000977 C61.43346283 5.00783869 63.71066658 4.98969558 65.98828125 4.97070312 C76.98268984 4.92794843 87.35217771 5.68116829 97.7734375 9.49609375 C100.08069667 10.33387053 100.08069667 10.33387053 103.5859375 10.8828125 C109.87617286 12.35010878 115.60501425 16.50831814 120.8359375 20.1953125 C121.1659375 20.8553125 121.4959375 21.5153125 121.8359375 22.1953125 C116.3909375 22.6903125 116.3909375 22.6903125 110.8359375 23.1953125 C110.8359375 23.8553125 110.8359375 24.5153125 110.8359375 25.1953125 C110.19527344 25.35386719 109.55460938 25.51242188 108.89453125 25.67578125 C104.40795536 26.88602005 100.77516772 27.97271855 97.1484375 30.9453125 C94.37318415 33.11838824 93.96814126 33.1953125 90.1484375 33.1953125 C87.03625958 32.25578709 85.20591208 31.37568911 82.8359375 29.1953125 C83.1865625 28.6384375 83.5371875 28.0815625 83.8984375 27.5078125 C85.08001863 24.5932457 84.84526496 23.14565432 83.8359375 20.1953125 C81.01195684 17.89986409 81.01195684 17.89986409 77.7734375 18.2578125 C76.319375 18.721875 76.319375 18.721875 74.8359375 19.1953125 C73.62121515 21.69771314 73.62121515 21.69771314 72.8359375 24.1953125 C70.7523066 24.05379422 68.66903812 23.90693314 66.5859375 23.7578125 C65.42578125 23.67660156 64.265625 23.59539062 63.0703125 23.51171875 C59.8359375 23.1953125 59.8359375 23.1953125 57.99658203 22.68823242 C44.83149486 19.68480745 27.66276515 21.21212018 14.8359375 25.1953125 C15.3309375 26.2471875 15.8259375 27.2990625 16.3359375 28.3828125 C17.64460123 31.47375161 18.38596579 33.80347138 17.8359375 37.1953125 C16.7734375 39.5078125 16.7734375 39.5078125 14.8359375 41.1953125 C11.2734375 41.5703125 11.2734375 41.5703125 7.8359375 41.1953125 C7.1759375 40.5353125 6.5159375 39.8753125 5.8359375 39.1953125 C5.8359375 37.8753125 5.8359375 36.5553125 5.8359375 35.1953125 C7.8159375 35.1953125 9.7959375 35.1953125 11.8359375 35.1953125 C10.5159375 32.2253125 9.1959375 29.2553125 7.8359375 26.1953125 C5.8559375 26.1953125 3.8759375 26.1953125 1.8359375 26.1953125 C1.8359375 26.8553125 1.8359375 27.5153125 1.8359375 28.1953125 C0.5159375 28.1953125 -0.8040625 28.1953125 -2.1640625 28.1953125 C-2.4940625 29.1853125 -2.8240625 30.1753125 -3.1640625 31.1953125 C-6.57963391 32.99797519 -9.33271751 33.4142465 -13.1640625 33.1953125 C-13.1640625 33.8553125 -13.1640625 34.5153125 -13.1640625 35.1953125 C-17.182914 37.00773573 -20.77516925 38.53032867 -25.1640625 39.1953125 C-25.7890625 37.3203125 -25.7890625 37.3203125 -26.1640625 35.1953125 C-25.5040625 34.5353125 -24.8440625 33.8753125 -24.1640625 33.1953125 C-23.521539 31.12657216 -23.521539 31.12657216 -23.1640625 29.1953125 C-21.8440625 29.1953125 -20.5240625 29.1953125 -19.1640625 29.1953125 C-19.1640625 28.2053125 -19.1640625 27.2153125 -19.1640625 26.1953125 C-17.5140625 26.1953125 -15.8640625 26.1953125 -14.1640625 26.1953125 C-14.1640625 25.5353125 -14.1640625 24.8753125 -14.1640625 24.1953125 C-12.5140625 24.1953125 -10.8640625 24.1953125 -9.1640625 24.1953125 C-9.1640625 22.8753125 -9.1640625 21.5553125 -9.1640625 20.1953125 C-4.6640625 18.6953125 -4.6640625 18.6953125 -0.1640625 17.1953125 C-0.4528125 16.61523438 -0.7415625 16.03515625 -1.0390625 15.4375 C-4.90998325 7.2924376 -4.90998325 7.2924376 -4.1640625 2.1953125 C-2.1640625 0.1953125 -2.1640625 0.1953125 0 0 Z " fill="#CBAE4B" transform="translate(78.1640625,100.8046875)"/>
<path d="M0 0 C1.21816406 0.03480469 1.21816406 0.03480469 2.4609375 0.0703125 C3.68683594 0.09738281 3.68683594 0.09738281 4.9375 0.125 C5.87722656 0.15980469 5.87722656 0.15980469 6.8359375 0.1953125 C6.8359375 1.8453125 6.8359375 3.4953125 6.8359375 5.1953125 C3.8659375 4.7003125 3.8659375 4.7003125 0.8359375 4.1953125 C1.1246875 4.9171875 1.4134375 5.6390625 1.7109375 6.3828125 C2.75260417 8.98697917 3.79427083 11.59114583 4.8359375 14.1953125 C5.8053125 13.85757813 6.7746875 13.51984375 7.7734375 13.171875 C16.26416226 10.31313507 24.29120405 8.48351183 33.21484375 7.65234375 C36.82070932 7.302424 36.82070932 7.302424 40.10961914 6.18994141 C46.5276167 4.47684948 53.10832603 4.7517996 59.7109375 4.7578125 C60.84225601 4.75870377 60.84225601 4.75870377 61.99642944 4.75961304 C84.2141727 4.86209638 105.21203333 8.08724693 123.8359375 21.1953125 C124.1659375 21.8553125 124.4959375 22.5153125 124.8359375 23.1953125 C123.94132813 23.22109375 123.04671875 23.246875 122.125 23.2734375 C111.64930061 23.76483491 103.2194882 25.74642735 94.8359375 32.1953125 C94.3409375 33.1853125 94.3409375 33.1853125 93.8359375 34.1953125 C89.32115352 33.66416144 86.48926893 31.82910958 82.8359375 29.1953125 C83.8259375 26.2253125 84.8159375 23.2553125 85.8359375 20.1953125 C82.35848551 18.60562016 79.67151124 17.78065588 75.8359375 18.1953125 C73.697389 20.333861 73.40938687 21.32806564 72.8359375 24.1953125 C72.23257568 24.05383789 71.62921387 23.91236328 71.00756836 23.76660156 C63.17782197 22.1212777 55.52600664 21.88775299 47.56616211 21.93457031 C45.40514973 21.94527924 43.24497148 21.93462274 41.08398438 21.921875 C27.58982237 21.61793614 27.58982237 21.61793614 14.8359375 25.1953125 C15.3309375 26.2471875 15.8259375 27.2990625 16.3359375 28.3828125 C17.64123594 31.45958739 18.3989695 33.81712051 17.8359375 37.1953125 C16.8359375 39.0078125 16.8359375 39.0078125 14.8359375 40.1953125 C12.11719707 40.44198323 9.57709898 40.33012372 6.8359375 40.1953125 C6.5059375 38.5453125 6.1759375 36.8953125 5.8359375 35.1953125 C7.8159375 35.1953125 9.7959375 35.1953125 11.8359375 35.1953125 C11.41286627 33.87809071 10.97196264 32.56658586 10.5234375 31.2578125 C10.27980469 30.52691406 10.03617188 29.79601562 9.78515625 29.04296875 C8.92353309 26.83599226 8.92353309 26.83599226 5.8359375 26.1953125 C4.15517519 26.82559837 2.48798206 27.49319356 0.8359375 28.1953125 C-0.1540625 28.1953125 -1.1440625 28.1953125 -2.1640625 28.1953125 C-2.1640625 28.8553125 -2.1640625 29.5153125 -2.1640625 30.1953125 C-3.8140625 30.1953125 -5.4640625 30.1953125 -7.1640625 30.1953125 C-7.1640625 30.8553125 -7.1640625 31.5153125 -7.1640625 32.1953125 C-10.1340625 32.6903125 -10.1340625 32.6903125 -13.1640625 33.1953125 C-13.1640625 33.8553125 -13.1640625 34.5153125 -13.1640625 35.1953125 C-17.78603556 37.41385957 -20.93230413 38.57812409 -26.1640625 38.1953125 C-26.1640625 36.8753125 -26.1640625 35.5553125 -26.1640625 34.1953125 C-25.1740625 33.7003125 -25.1740625 33.7003125 -24.1640625 33.1953125 C-23.51192958 31.17067995 -23.51192958 31.17067995 -23.1640625 29.1953125 C-21.8440625 29.1953125 -20.5240625 29.1953125 -19.1640625 29.1953125 C-19.1640625 28.2053125 -19.1640625 27.2153125 -19.1640625 26.1953125 C-17.5140625 26.1953125 -15.8640625 26.1953125 -14.1640625 26.1953125 C-14.1640625 25.5353125 -14.1640625 24.8753125 -14.1640625 24.1953125 C-12.5140625 24.1953125 -10.8640625 24.1953125 -9.1640625 24.1953125 C-9.1640625 22.8753125 -9.1640625 21.5553125 -9.1640625 20.1953125 C-8.3596875 20.0715625 -7.5553125 19.9478125 -6.7265625 19.8203125 C-5.8809375 19.6140625 -5.0353125 19.4078125 -4.1640625 19.1953125 C-3.8340625 18.5353125 -3.5040625 17.8753125 -3.1640625 17.1953125 C-2.1740625 17.1953125 -1.1840625 17.1953125 -0.1640625 17.1953125 C-0.4528125 16.61523438 -0.7415625 16.03515625 -1.0390625 15.4375 C-4.90998325 7.2924376 -4.90998325 7.2924376 -4.1640625 2.1953125 C-2.1640625 0.1953125 -2.1640625 0.1953125 0 0 Z " fill="#D9BE15" transform="translate(78.1640625,56.8046875)"/>
<path d="M0 0 C2.01822917 0.06510417 4.03645833 0.13020833 6.0546875 0.1953125 C6.5496875 2.6703125 6.5496875 2.6703125 7.0546875 5.1953125 C4.0846875 4.7003125 4.0846875 4.7003125 1.0546875 4.1953125 C1.3846875 6.1753125 1.7146875 8.1553125 2.0546875 10.1953125 C2.7146875 10.1953125 3.3746875 10.1953125 4.0546875 10.1953125 C4.3846875 11.5153125 4.7146875 12.8353125 5.0546875 14.1953125 C6.07046875 13.85757812 7.08625 13.51984375 8.1328125 13.171875 C15.65143048 10.72003224 22.93176879 8.62622786 30.796875 7.5546875 C33.08192076 7.3071368 33.08192076 7.3071368 35.0546875 6.1953125 C63.60553096 1.86754015 96.34581141 3.1312833 121.0546875 19.1953125 C123.609375 21.5078125 123.609375 21.5078125 125.0546875 23.1953125 C123.93191406 23.29328125 122.80914062 23.39125 121.65234375 23.4921875 C108.02054684 24.75813627 108.02054684 24.75813627 96.3671875 31.5078125 C94.0546875 33.1953125 94.0546875 33.1953125 91.0546875 33.1328125 C87.96492867 32.16726287 85.62807713 31.16319869 83.0546875 29.1953125 C83.0546875 28.2053125 83.0546875 27.2153125 83.0546875 26.1953125 C83.7146875 26.1953125 84.3746875 26.1953125 85.0546875 26.1953125 C85.3846875 24.2153125 85.7146875 22.2353125 86.0546875 20.1953125 C82.57723551 18.60562016 79.89026124 17.78065588 76.0546875 18.1953125 C73.916139 20.333861 73.62813687 21.32806564 73.0546875 24.1953125 C70.95003957 23.88607036 68.8459822 23.5728069 66.7421875 23.2578125 C65.57042969 23.08378906 64.39867187 22.90976562 63.19140625 22.73046875 C60.0546875 22.1953125 60.0546875 22.1953125 57.0546875 21.1953125 C52.60045271 20.9560753 48.13964352 21.01010908 43.6796875 21.0078125 C42.46667969 20.99556641 41.25367187 20.98332031 40.00390625 20.97070312 C26.68544546 20.69639631 26.68544546 20.69639631 14.0546875 24.1953125 C14.5290625 24.6696875 15.0034375 25.1440625 15.4921875 25.6328125 C17.69231548 29.24102239 18.2176204 32.98233327 18.0546875 37.1953125 C17.3946875 38.1853125 16.7346875 39.1753125 16.0546875 40.1953125 C13.890625 40.48828125 13.890625 40.48828125 11.4296875 40.3828125 C10.61242187 40.35574219 9.79515625 40.32867187 8.953125 40.30078125 C8.32664063 40.26597656 7.70015625 40.23117188 7.0546875 40.1953125 C6.7246875 38.5453125 6.3946875 36.8953125 6.0546875 35.1953125 C8.3646875 35.5253125 10.6746875 35.8553125 13.0546875 36.1953125 C11.50742009 30.90369058 11.50742009 30.90369058 8.3671875 26.5078125 C5.15459393 26.07367823 2.97306718 27.14626333 0.02734375 28.390625 C-2.25964849 29.32353669 -4.50896766 29.81463362 -6.9453125 30.1953125 C-6.9453125 30.8553125 -6.9453125 31.5153125 -6.9453125 32.1953125 C-9.9153125 32.6903125 -9.9153125 32.6903125 -12.9453125 33.1953125 C-12.9453125 33.8553125 -12.9453125 34.5153125 -12.9453125 35.1953125 C-14.9253125 35.1953125 -16.9053125 35.1953125 -18.9453125 35.1953125 C-19.2753125 36.1853125 -19.6053125 37.1753125 -19.9453125 38.1953125 C-21.9253125 38.1953125 -23.9053125 38.1953125 -25.9453125 38.1953125 C-25.9453125 36.8753125 -25.9453125 35.5553125 -25.9453125 34.1953125 C-24.9553125 34.1953125 -23.9653125 34.1953125 -22.9453125 34.1953125 C-22.9453125 32.5453125 -22.9453125 30.8953125 -22.9453125 29.1953125 C-21.6253125 29.1953125 -20.3053125 29.1953125 -18.9453125 29.1953125 C-18.9453125 28.2053125 -18.9453125 27.2153125 -18.9453125 26.1953125 C-17.2953125 26.1953125 -15.6453125 26.1953125 -13.9453125 26.1953125 C-13.9453125 25.2053125 -13.9453125 24.2153125 -13.9453125 23.1953125 C-12.6253125 23.1953125 -11.3053125 23.1953125 -9.9453125 23.1953125 C-9.6153125 22.2053125 -9.2853125 21.2153125 -8.9453125 20.1953125 C-7.2953125 20.1953125 -5.6453125 20.1953125 -3.9453125 20.1953125 C-3.6153125 19.2053125 -3.2853125 18.2153125 -2.9453125 17.1953125 C-1.9553125 17.1953125 -0.9653125 17.1953125 0.0546875 17.1953125 C-0.4196875 16.5765625 -0.8940625 15.9578125 -1.3828125 15.3203125 C-3.48140164 11.12313422 -4.11975273 6.88858529 -3.9453125 2.1953125 C-1.9453125 0.1953125 -1.9453125 0.1953125 0 0 Z " fill="#D4B816" transform="translate(77.9453125,12.8046875)"/>
<path d="M0 0 C1.27294922 -0.02900391 2.54589844 -0.05800781 3.85742188 -0.08789062 C13.10164357 -0.14898614 20.58756727 1.33717065 29.3125 4.3125 C30.1171167 4.57788574 30.9217334 4.84327148 31.75073242 5.11669922 C36.93826464 6.86952696 41.60098602 9.55321056 46.3125 12.3125 C45.13598761 15.84203718 44.42872456 16.09986494 41.3125 17.875 C38.22747173 19.52624548 38.22747173 19.52624548 36.3125 22.3125 C31.79771602 21.78134894 28.96583143 19.94629708 25.3125 17.3125 C26.3025 14.3425 27.2925 11.3725 28.3125 8.3125 C24.83504801 6.72280766 22.14807374 5.89784338 18.3125 6.3125 C16.1739515 8.4510485 15.88594937 9.44525314 15.3125 12.3125 C14.70623779 12.17030029 14.09997559 12.02810059 13.4753418 11.8815918 C5.72734472 10.25265015 -1.85146842 10.03722049 -9.73754883 10.10668945 C-11.85445458 10.124824 -13.97091548 10.12719897 -16.08789062 10.12695312 C-25.6512151 10.15231342 -35.15077063 10.61695507 -44.6875 11.3125 C-45.0175 9.6625 -45.3475 8.0125 -45.6875 6.3125 C-42.21028741 5.49148519 -38.73042455 4.68228058 -35.25 3.875 C-34.27611328 3.64490234 -33.30222656 3.41480469 -32.29882812 3.17773438 C-21.45116516 0.67442754 -11.13215171 0.08328293 0 0 Z " fill="#F7F4F4" transform="translate(135.6875,68.6875)"/>
<path d="M0 0 C0.69906464 -0.00599213 1.39812927 -0.01198425 2.11837769 -0.01815796 C14.85012905 -0.09080198 26.46052736 1.40460584 37.75 7.5625 C38.43771484 7.92214844 39.12542969 8.28179687 39.83398438 8.65234375 C41.58305569 9.56893264 43.32350918 10.50192713 45.0625 11.4375 C46.0525 11.9325 46.0525 11.9325 47.0625 12.4375 C45.65593887 16.65718338 43.13816028 17.91823753 39.48046875 20.26171875 C35.95300679 21.97701124 33.73044397 21.66014799 30.0625 20.4375 C27.625 18.875 27.625 18.875 26.0625 17.4375 C26.413125 16.880625 26.76375 16.32375 27.125 15.75 C28.30658113 12.8354332 28.07182746 11.38784182 27.0625 8.4375 C24.23851934 6.14205159 24.23851934 6.14205159 21 6.5 C20.030625 6.809375 19.06125 7.11875 18.0625 7.4375 C16.84777765 9.93990064 16.84777765 9.93990064 16.0625 12.4375 C14.10365282 12.32082885 12.14543231 12.19363172 10.1875 12.0625 C9.09695312 11.99289063 8.00640625 11.92328125 6.8828125 11.8515625 C3.9147829 11.52987422 1.21901617 11.05821887 -1.6796875 10.4140625 C-7.20974653 9.26619594 -12.55432533 9.1343971 -18.1875 9.1875 C-19.186604 9.19136719 -20.18570801 9.19523437 -21.21508789 9.19921875 C-28.9314121 9.2889507 -36.35057495 9.96482131 -43.9375 11.4375 C-44.2675 10.1175 -44.5975 8.7975 -44.9375 7.4375 C-30.21780735 1.658903 -15.7379903 0.04473086 0 0 Z " fill="#F8F6F6" transform="translate(134.9375,112.5625)"/>
<path d="M0 0 C2.13497128 -0.00217755 4.26941726 -0.02035072 6.40429688 -0.03930664 C23.30344362 -0.10984674 35.77571388 3.84200445 50.40429688 12.18530273 C50.40429688 12.84530273 50.40429688 13.50530273 50.40429688 14.18530273 C48.61132812 15.65795898 48.61132812 15.65795898 46.21679688 17.24780273 C45.43949219 17.7750293 44.6621875 18.30225586 43.86132812 18.84545898 C41.26173957 20.26304066 39.35343643 20.94899348 36.40429688 21.18530273 C33.78946617 20.17882051 31.7771986 18.72070973 29.40429688 17.18530273 C29.40429688 16.19530273 29.40429688 15.20530273 29.40429688 14.18530273 C30.06429687 14.18530273 30.72429687 14.18530273 31.40429688 14.18530273 C31.73429687 12.20530273 32.06429687 10.22530273 32.40429688 8.18530273 C28.92684488 6.5956104 26.23987061 5.77064611 22.40429688 6.18530273 C20.26574838 8.32385123 19.97774625 9.31805587 19.40429688 12.18530273 C17.29964894 11.8760606 15.19559158 11.56279713 13.09179688 11.24780273 C11.92003906 11.0737793 10.74828125 10.89975586 9.54101562 10.72045898 C6.40429688 10.18530273 6.40429688 10.18530273 3.40429688 9.18530273 C-0.98714555 8.94521193 -5.38590138 8.99552846 -9.78320312 8.99780273 C-11.04358398 8.9971582 -12.30396484 8.99651367 -13.60253906 8.99584961 C-22.75160757 9.04755254 -31.58015091 9.61738061 -40.59570312 11.18530273 C-40.92570312 9.53530273 -41.25570312 7.88530273 -41.59570312 6.18530273 C-38.24281401 5.36746995 -34.88818335 4.55701059 -31.53320312 3.74780273 C-30.59025391 3.51770508 -29.64730469 3.28760742 -28.67578125 3.05053711 C-27.75087891 2.82817383 -26.82597656 2.60581055 -25.87304688 2.37670898 C-25.02991943 2.17247314 -24.18679199 1.9682373 -23.31811523 1.7578125 C-15.54070086 0.12226083 -7.907177 -0.000901 0 0 Z " fill="#F9F8F8" transform="translate(131.595703125,24.814697265625)"/>
<path d="M0 0 C2.5546875 2.3125 2.5546875 2.3125 4 4 C-9.13079994 5.33115744 -16.94113234 2.6765243 -28.16699219 -3.97900391 C-38.47940444 -9.72307797 -51.1217497 -9.29775251 -62.5625 -9.375 C-63.24009369 -9.38022675 -63.91768738 -9.38545349 -64.61581421 -9.39083862 C-77.50489036 -9.43653717 -92.2704061 -8.86479695 -104 -3 C-105.70702735 -2.93003986 -107.41668003 -2.91559846 -109.125 -2.9375 C-110.03507812 -2.94652344 -110.94515625 -2.95554687 -111.8828125 -2.96484375 C-112.58148438 -2.97644531 -113.28015625 -2.98804688 -114 -3 C-114 -3.66 -114 -4.32 -114 -5 C-106.11343983 -8.05662539 -98.75028718 -10.51466749 -90.328125 -11.640625 C-87.98285107 -11.8812707 -87.98285107 -11.8812707 -86 -13 C-57.44915654 -17.32777235 -24.70887609 -16.0640292 0 0 Z " fill="#F3F0F0" transform="translate(199,32)"/>
<path d="M0 0 C1.13131851 0.00089127 1.13131851 0.00089127 2.28549194 0.00180054 C24.5032352 0.10428388 45.50109583 3.32943443 64.125 16.4375 C64.62 17.4275 64.62 17.4275 65.125 18.4375 C52.97836717 19.66888581 45.54979073 17.79056195 35.078125 11.63671875 C14.60236979 -0.27456315 -16.67066207 4.38249251 -38.4375 10.125 C-39.36175781 10.3725 -40.28601563 10.62 -41.23828125 10.875 C-45.19256794 11.71858116 -48.84699447 11.63890028 -52.875 11.4375 C-52.875 10.7775 -52.875 10.1175 -52.875 9.4375 C-44.04555073 5.8229442 -36.05445779 3.76578523 -26.56640625 2.89453125 C-22.90055 2.54905684 -22.90055 2.54905684 -19.59692383 1.43212891 C-13.18114943 -0.28239159 -6.60081441 -0.00601126 0 0 Z " fill="#F3F0F0" transform="translate(137.875,61.5625)"/>
<path d="M0 0 C2.23343145 0.0107084 4.46605591 0.0000544 6.69946289 -0.01269531 C17.59371909 -0.02355593 27.93911904 0.79049006 38.24047852 4.56152344 C40.54773768 5.39930022 40.54773768 5.39930022 44.05297852 5.94824219 C50.34321387 7.41553847 56.07205527 11.57374783 61.30297852 15.26074219 C61.79797852 16.25074219 61.79797852 16.25074219 62.30297852 17.26074219 C50.35385207 20.08229978 50.35385207 20.08229978 45.65063477 18.19824219 C43.42797852 16.63574219 43.42797852 16.63574219 41.56079102 15.03417969 C26.13738191 2.91959883 2.2817172 3.59332614 -16.09204102 5.63867188 C-24.30845239 6.75903732 -32.61340844 7.97601993 -40.56420898 10.38574219 C-43.44427141 11.19014865 -45.66864736 11.47699985 -48.63452148 11.38574219 C-49.79274414 11.35867187 -49.79274414 11.35867187 -50.97436523 11.33105469 C-51.5428418 11.30785156 -52.11131836 11.28464844 -52.69702148 11.26074219 C-52.69702148 10.60074219 -52.69702148 9.94074219 -52.69702148 9.26074219 C-44.54987623 5.8603447 -36.53336687 4.05641952 -27.86132812 2.64160156 C-26.34880403 2.37543827 -24.84266691 2.0714567 -23.34326172 1.73925781 C-15.5665828 0.08985936 -7.91015939 -0.04502773 0 0 Z " fill="#F3EFEF" transform="translate(137.697021484375,105.7392578125)"/>
<path d="M0 0 C2.0250467 0.01068883 4.0491994 0.00006535 6.07421875 -0.01269531 C16.18490177 0.00712956 26.34129948 0.36581283 35.72265625 4.51074219 C36.70492187 4.94386719 37.6871875 5.37699219 38.69921875 5.82324219 C42.62474225 7.72903724 46.42189833 9.82266666 50.1875 12.02636719 C52.70443191 13.28284505 54.88979126 13.84444405 57.66015625 14.26074219 C57.66015625 14.59074219 57.66015625 14.92074219 57.66015625 15.26074219 C54.69015625 15.92074219 51.72015625 16.58074219 48.66015625 17.26074219 C48.66015625 16.60074219 48.66015625 15.94074219 48.66015625 15.26074219 C47.56767578 14.84115234 47.56767578 14.84115234 46.453125 14.41308594 C43.86223428 13.34411704 41.4465516 12.1358379 38.97265625 10.82324219 C27.44725544 5.0090891 16.02912613 4.05576354 3.28417969 4.02050781 C1.19294025 4.01089292 -0.89727532 3.97984927 -2.98828125 3.94824219 C-12.48048104 3.87465164 -21.09900098 5.06147928 -30.33984375 7.26074219 C-39.02226845 9.26074219 -39.02226845 9.26074219 -43.33984375 9.26074219 C-43.66984375 10.58074219 -43.99984375 11.90074219 -44.33984375 13.26074219 C-44.33984375 11.61074219 -44.33984375 9.96074219 -44.33984375 8.26074219 C-45.32984375 7.93074219 -46.31984375 7.60074219 -47.33984375 7.26074219 C-46.16421875 7.17824219 -44.98859375 7.09574219 -43.77734375 7.01074219 C-38.11061077 6.39401573 -32.75348336 4.84843066 -27.28125 3.29589844 C-25.96901827 2.94492162 -24.65510867 2.60017562 -23.33984375 2.26074219 C-22.2710498 1.98061279 -22.2710498 1.98061279 -21.18066406 1.69482422 C-14.1378001 0.056167 -7.2098769 -0.04514855 0 0 Z " fill="#A0928A" transform="translate(133.33984375,21.7392578125)"/>
<path d="M0 0 C1.6902414 1.30331867 3.36612167 2.62668388 5 4 C2.36 4.66 -0.28 5.32 -3 6 C-2.505 4.515 -2.505 4.515 -2 3 C-2.70125 2.73058594 -3.4025 2.46117188 -4.125 2.18359375 C-8.20303312 0.50472957 -12.11691808 -1.49708542 -16.0625 -3.46484375 C-26.56369417 -7.92337124 -37.56094022 -8.56569895 -48.8125 -8.5 C-49.87976822 -8.50034744 -49.87976822 -8.50034744 -50.96859741 -8.5007019 C-64.41250389 -8.47083949 -77.00338726 -6.48747647 -90 -3 C-90.73178467 -2.87230225 -91.46356934 -2.74460449 -92.2175293 -2.61303711 C-92.80574463 -2.41073486 -93.39395996 -2.20843262 -94 -2 C-94.33 -1.01 -94.66 -0.02 -95 1 C-95 -0.65 -95 -2.3 -95 -4 C-96.32 -4.33 -97.64 -4.66 -99 -5 C-98.38898438 -5.09796875 -97.77796875 -5.1959375 -97.1484375 -5.296875 C-88.99502614 -6.62898164 -80.86951968 -8.10087141 -72.74365234 -9.59082031 C-71.8305127 -9.75807617 -70.91737305 -9.92533203 -69.9765625 -10.09765625 C-68.75573975 -10.32207397 -68.75573975 -10.32207397 -67.51025391 -10.55102539 C-66.68187012 -10.69918701 -65.85348633 -10.84734863 -65 -11 C-63.53554443 -11.26804443 -63.53554443 -11.26804443 -62.04150391 -11.54150391 C-40.21942602 -14.83110595 -18.62699754 -11.87674065 0 0 Z " fill="#9A8C83" transform="translate(184,122)"/>
<path d="M0 0 C-2.33214148 1.20628008 -4.49642139 2.1654738 -7 3 C-7 2.34 -7 1.68 -7 1 C-8.0828125 0.5978125 -8.0828125 0.5978125 -9.1875 0.1875 C-12 -1 -12 -1 -14.1171875 -2.375 C-36.52373405 -15.00524846 -67.25345652 -12.16765438 -91.2578125 -5.8984375 C-95 -5 -95 -5 -99 -5 C-99.33 -3.68 -99.66 -2.36 -100 -1 C-100 -2.65 -100 -4.3 -100 -6 C-100.66 -6.33 -101.32 -6.66 -102 -7 C-101.09378906 -7.19335938 -100.18757813 -7.38671875 -99.25390625 -7.5859375 C-98.03574219 -7.84632812 -96.81757812 -8.10671875 -95.5625 -8.375 C-93.63083984 -8.78685547 -93.63083984 -8.78685547 -91.66015625 -9.20703125 C-88.93154449 -9.79818193 -86.21609194 -10.41826567 -83.5 -11.0625 C-82.00220318 -11.38539461 -80.50196859 -11.697103 -79 -12 C-78.0821875 -12.18691406 -77.164375 -12.37382813 -76.21875 -12.56640625 C-48.36542371 -17.40017525 -24.73228971 -12.6868806 0 0 Z " fill="#A3968E" transform="translate(189,80)"/>
<path d="M0 0 C2.62571005 -0.38613383 4.3843879 -0.38493778 6.66796875 1.04296875 C8.3125 2.375 8.3125 2.375 11 5 C11 5.66 11 6.32 11 7 C9.68 7 8.36 7 7 7 C6.67 7.99 6.34 8.98 6 10 C2.58442859 11.80266269 -0.16865501 12.218934 -4 12 C-4 12.66 -4 13.32 -4 14 C-8.0188515 15.81242323 -11.61110675 17.33501617 -16 18 C-16.625 16.125 -16.625 16.125 -17 14 C-16.34 13.34 -15.68 12.68 -15 12 C-14.3574765 9.93125966 -14.3574765 9.93125966 -14 8 C-12.68 8 -11.36 8 -10 8 C-10 7.01 -10 6.02 -10 5 C-8.35 5 -6.7 5 -5 5 C-5 4.34 -5 3.68 -5 3 C-3.35 3 -1.7 3 0 3 C0 2.01 0 1.02 0 0 Z " fill="#E3C816" transform="translate(69,122)"/>
<path d="M0 0 C3.42156094 1.06186374 4.03200161 2.06057448 5.75 5.3125 C7.22286079 9.65743933 7.86780257 12.11125322 5.9375 16.3125 C4 18 4 18 0.4375 18.375 C-3 18 -3 18 -5 16 C-5 14.68 -5 13.36 -5 12 C-3.02 12 -1.04 12 1 12 C0.01 8.7 -0.98 5.4 -2 2 C-1.34 2 -0.68 2 0 2 C0 1.34 0 0.68 0 0 Z " fill="#E7D016" transform="translate(89,124)"/>
<path d="M0 0 C1.21816406 0.03480469 1.21816406 0.03480469 2.4609375 0.0703125 C3.68683594 0.09738281 3.68683594 0.09738281 4.9375 0.125 C5.87722656 0.15980469 5.87722656 0.15980469 6.8359375 0.1953125 C6.8359375 1.8453125 6.8359375 3.4953125 6.8359375 5.1953125 C3.8659375 4.7003125 3.8659375 4.7003125 0.8359375 4.1953125 C1.96045477 7.167251 3.05887541 9.52971937 4.8359375 12.1953125 C4.8359375 13.1853125 4.8359375 14.1753125 4.8359375 15.1953125 C4.1759375 15.1953125 3.5159375 15.1953125 2.8359375 15.1953125 C2.8359375 15.8553125 2.8359375 16.5153125 2.8359375 17.1953125 C-0.1640625 16.1953125 -0.1640625 16.1953125 -1.33203125 14.55859375 C-3.4438014 10.31078023 -4.85859231 7.05702119 -4.1640625 2.1953125 C-2.1640625 0.1953125 -2.1640625 0.1953125 0 0 Z " fill="#DBC115" transform="translate(78.1640625,56.8046875)"/>
<path d="M0 0 C1.21816406 0.03480469 1.21816406 0.03480469 2.4609375 0.0703125 C3.68683594 0.09738281 3.68683594 0.09738281 4.9375 0.125 C5.87722656 0.15980469 5.87722656 0.15980469 6.8359375 0.1953125 C6.8359375 1.8453125 6.8359375 3.4953125 6.8359375 5.1953125 C5.1859375 5.1953125 3.5359375 5.1953125 1.8359375 5.1953125 C2.33349842 7.95172666 2.33349842 7.95172666 3.8359375 10.1953125 C3.54863695 12.53475986 3.21656971 14.8692268 2.8359375 17.1953125 C-0.1640625 16.1953125 -0.1640625 16.1953125 -1.33203125 14.55859375 C-3.4438014 10.31078023 -4.85859231 7.05702119 -4.1640625 2.1953125 C-2.1640625 0.1953125 -2.1640625 0.1953125 0 0 Z " fill="#E5CB16" transform="translate(78.1640625,100.8046875)"/>
<path d="M0 0 C-0.165 0.5775 -0.33 1.155 -0.5 1.75 C-1.14462031 4.26664369 -1.14462031 4.26664369 -1 8 C-3.79684328 9.90185343 -5.10385609 9.99271185 -8.5625 9.75 C-12 9 -12 9 -15 7 C-15 6.34 -15 5.68 -15 5 C-13.68 5 -12.36 5 -11 5 C-11 3.68 -11 2.36 -11 1 C-6.87831311 -0.62950412 -4.29299643 -1.26264601 0 0 Z " fill="#E4CB15" transform="translate(80,76)"/>
<path d="M0 0 C1.32 0 2.64 0 4 0 C3.835 0.78375 3.67 1.5675 3.5 2.375 C2.9376293 4.88208039 2.9376293 4.88208039 3 7 C3 7.99 3 8.98 3 10 C-4.97037794 11.4412666 -4.97037794 11.4412666 -9.0625 9.6875 C-9.701875 9.130625 -10.34125 8.57375 -11 8 C-11 7.34 -11 6.68 -11 6 C-9.68 6 -8.36 6 -7 6 C-7 5.01 -7 4.02 -7 3 C-5.02 3 -3.04 3 -1 3 C-0.67 2.01 -0.34 1.02 0 0 Z " fill="#E5CD15" transform="translate(76,31)"/>
<path d="M0 0 C0.33 0.99 0.66 1.98 1 3 C-0.65 3 -2.3 3 -4 3 C-0.92000054 6.67230705 1.2482602 7.56802365 6 8 C6 8.33 6 8.66 6 9 C4.35 9 2.7 9 1 9 C1 9.66 1 10.32 1 11 C-3.0188515 12.81242323 -6.61110675 14.33501617 -11 15 C-11.625 13.125 -11.625 13.125 -12 11 C-11.34 10.34 -10.68 9.68 -10 9 C-9.3574765 6.93125966 -9.3574765 6.93125966 -9 5 C-7.68 5 -6.36 5 -5 5 C-5 4.01 -5 3.02 -5 2 C-3.35 2 -1.7 2 0 2 C0 1.34 0 0.68 0 0 Z " fill="#D7B816" transform="translate(64,125)"/>
<path d="M0 0 C0 0.33 0 0.66 0 1 C-3.3 1.66 -6.6 2.32 -10 3 C-10 3.33 -10 3.66 -10 4 C-11.46759766 4.29003906 -11.46759766 4.29003906 -12.96484375 4.5859375 C-14.28910171 4.84876087 -15.61331768 5.11179581 -16.9375 5.375 C-17.96387573 5.57863159 -17.96387573 5.57863159 -19.01098633 5.78637695 C-22.75054724 6.53322915 -26.47335585 7.32128182 -30.1875 8.1875 C-34 9 -34 9 -38 9 C-38.33 10.32 -38.66 11.64 -39 13 C-39 11.35 -39 9.7 -39 8 C-39.99 7.67 -40.98 7.34 -42 7 C-40.824375 6.9175 -39.64875 6.835 -38.4375 6.75 C-33.34037655 6.19526574 -28.53183437 4.87989689 -23.59716797 3.52148438 C-15.60443221 1.32574414 -8.30691765 -0.30766362 0 0 Z " fill="#B0A69F" transform="translate(128,22)"/>
<path d="M0 0 C7.44173561 1.95835148 13.96003228 6.33781293 20 11 C17.36 11.66 14.72 12.32 12 13 C12.33 12.01 12.66 11.02 13 10 C12.30519531 9.72414063 11.61039063 9.44828125 10.89453125 9.1640625 C7.81490906 7.92556397 4.75049088 6.65405114 1.6875 5.375 C0.61886719 4.92898437 -0.44976562 4.48296875 -1.55078125 4.0234375 C-2.76314453 3.51683594 -2.76314453 3.51683594 -4 3 C-2.68 2.67 -1.36 2.34 0 2 C0 1.34 0 0.68 0 0 Z " fill="#A29088" transform="translate(169,115)"/>
<path d="M0 0 C2.01822917 0.06510417 4.03645833 0.13020833 6.0546875 0.1953125 C6.3846875 1.8453125 6.7146875 3.4953125 7.0546875 5.1953125 C4.0846875 4.7003125 4.0846875 4.7003125 1.0546875 4.1953125 C1.7146875 6.5053125 2.3746875 8.8153125 3.0546875 11.1953125 C0.6796875 11.3828125 0.6796875 11.3828125 -1.9453125 11.1953125 C-4.24695132 7.74285426 -4.29021572 6.24792537 -3.9453125 2.1953125 C-1.9453125 0.1953125 -1.9453125 0.1953125 0 0 Z " fill="#E6CF15" transform="translate(77.9453125,12.8046875)"/>
<path d="M0 0 C0 0.33 0 0.66 0 1 C-1.27875 1.19335938 -2.5575 1.38671875 -3.875 1.5859375 C-5.58336345 1.84876265 -7.29169511 2.11179451 -9 2.375 C-10.25876953 2.56449219 -10.25876953 2.56449219 -11.54296875 2.7578125 C-15.54341631 3.37803693 -19.45812165 4.07147436 -23.375 5.1015625 C-27 6 -27 6 -31 6 C-31.33 7.32 -31.66 8.64 -32 10 C-32 8.35 -32 6.7 -32 5 C-32.66 4.67 -33.32 4.34 -34 4 C-33.09378906 3.80664062 -32.18757813 3.61328125 -31.25390625 3.4140625 C-30.03574219 3.15367188 -28.81757812 2.89328125 -27.5625 2.625 C-26.27859375 2.35429688 -24.9946875 2.08359375 -23.671875 1.8046875 C-21.5901276 1.34847477 -19.51221217 0.86982349 -17.453125 0.3203125 C-11.4623456 -1.27577106 -6.11142662 -0.84531882 0 0 Z " fill="#ACA29B" transform="translate(121,69)"/>
<path d="M0 0 C0 0.33 0 0.66 0 1 C-1.134375 1.19335938 -2.26875 1.38671875 -3.4375 1.5859375 C-4.95836032 1.84880225 -6.47919214 2.11183192 -8 2.375 C-8.74378906 2.50132813 -9.48757812 2.62765625 -10.25390625 2.7578125 C-12.50742899 3.1497295 -14.75416609 3.56623434 -17 4 C-18.1446875 4.21897949 -18.1446875 4.21897949 -19.3125 4.44238281 C-21.74083317 4.93227933 -21.74083317 4.93227933 -25 6 C-25.33 6.99 -25.66 7.98 -26 9 C-26 7.35 -26 5.7 -26 4 C-27.32 3.67 -28.64 3.34 -30 3 C-29.23816406 2.87882812 -28.47632812 2.75765625 -27.69140625 2.6328125 C-22.84444783 1.84616507 -18.06604153 1.05145497 -13.3125 -0.1875 C-8.66053621 -1.28659035 -4.6960491 -0.74540462 0 0 Z " fill="#B5AB99" transform="translate(115,114)"/>
<path d="M0 0 C6.625 0.75 6.625 0.75 10 3 C10 3.66 10 4.32 10 5 C8.02 5 6.04 5 4 5 C4 5.66 4 6.32 4 7 C1.69 7 -0.62 7 -3 7 C-3.33 5.68 -3.66 4.36 -4 3 C-2.68 3 -1.36 3 0 3 C0 2.01 0 1.02 0 0 Z " fill="#F4DD16" transform="translate(60,40)"/>
<path d="M0 0 C0.33 2.31 0.66 4.62 1 7 C-0.32 6.67 -1.64 6.34 -3 6 C-3.33 6.99 -3.66 7.98 -4 9 C-1.36 9 1.28 9 4 9 C4 9.66 4 10.32 4 11 C0.7 11.66 -2.6 12.32 -6 13 C-6.66 11.68 -7.32 10.36 -8 9 C-7.34 8.67 -6.68 8.34 -6 8 C-6 7.01 -6 6.02 -6 5 C-7.32 4.34 -8.64 3.68 -10 3 C-6.25 1.875 -6.25 1.875 -4 3 C-4 2.34 -4 1.68 -4 1 C-2 0 -2 0 0 0 Z " fill="#C5AA13" transform="translate(85,71)"/>
<path d="M0 0 C0 0.33 0 0.66 0 1 C3.96 1.33 7.92 1.66 12 2 C12 2.33 12 2.66 12 3 C0.78 3.33 -10.44 3.66 -22 4 C-15.68598198 -0.20934535 -7.41145544 -0.27967756 0 0 Z " fill="#A69A92" transform="translate(133,110)"/>
<path d="M0 0 C0.93134766 0.00322266 1.86269531 0.00644531 2.82226562 0.00976562 C4.26182617 0.02233398 4.26182617 0.02233398 5.73046875 0.03515625 C6.70951172 0.03966797 7.68855469 0.04417969 8.69726562 0.04882812 C11.10422986 0.06056941 13.51106732 0.07699206 15.91796875 0.09765625 C16.24796875 0.75765625 16.57796875 1.41765625 16.91796875 2.09765625 C7.01796875 2.42765625 -2.88203125 2.75765625 -13.08203125 3.09765625 C-8.80149281 0.24396396 -5.05995371 -0.03104266 0 0 Z " fill="#9A8B82" transform="translate(129.08203125,65.90234375)"/>
<path d="M0 0 C2.31 0.33 4.62 0.66 7 1 C7 2.65 7 4.3 7 6 C7.66 6 8.32 6 9 6 C9 7.65 9 9.3 9 11 C7.68 11 6.36 11 5 11 C5 9 5 9 6 8 C3.69 7.67 1.38 7.34 -1 7 C-1 5.35 -1 3.7 -1 2 C-0.67 2.66 -0.34 3.32 0 4 C0.99 4 1.98 4 3 4 C3 3.34 3 2.68 3 2 C2.01 1.34 1.02 0.68 0 0 Z " fill="#E3CE1D" transform="translate(82,73)"/>
<path d="M0 0 C1.23556641 0.01740234 1.23556641 0.01740234 2.49609375 0.03515625 C3.32238281 0.04417969 4.14867188 0.05320313 5 0.0625 C5.63808594 0.07410156 6.27617188 0.08570313 6.93359375 0.09765625 C6.93359375 1.74765625 6.93359375 3.39765625 6.93359375 5.09765625 C2.18359375 4.22265625 2.18359375 4.22265625 -0.06640625 3.09765625 C-0.39640625 4.41765625 -0.72640625 5.73765625 -1.06640625 7.09765625 C-1.72640625 7.09765625 -2.38640625 7.09765625 -3.06640625 7.09765625 C-3.10894981 5.09810879 -3.10721408 3.09723989 -3.06640625 1.09765625 C-2.06640625 0.09765625 -2.06640625 0.09765625 0 0 Z " fill="#EAD116" transform="translate(78.06640625,56.90234375)"/>
<path d="M0 0 C0 1.65 0 3.3 0 5 C-3.8063457 4.32829194 -7.35206816 3.27253436 -11 2 C-11 1.67 -11 1.34 -11 1 C-6.87831311 -0.62950412 -4.29299643 -1.26264601 0 0 Z " fill="#DEC116" transform="translate(80,120)"/>
<path d="M0 0 C1.22589844 0.29197266 1.22589844 0.29197266 2.4765625 0.58984375 C3.41628906 0.82380859 3.41628906 0.82380859 4.375 1.0625 C3.735625 1.371875 3.09625 1.68125 2.4375 2 C0.43889179 2.8970163 0.43889179 2.8970163 -0.625 4.0625 C-2.62458364 4.10330783 -4.62545254 4.10504356 -6.625 4.0625 C-6.625 2.7425 -6.625 1.4225 -6.625 0.0625 C-3.99249612 -1.25375194 -2.82320944 -0.68563658 0 0 Z " fill="#D2B016" transform="translate(58.625,90.9375)"/>
<path d="M0 0 C6.625 0.75 6.625 0.75 10 3 C10 3.66 10 4.32 10 5 C6.63295715 5.2295711 4.58629732 5.33943529 1.625 3.625 C1.08875 3.08875 0.5525 2.5525 0 2 C0 1.34 0 0.68 0 0 Z " fill="#F3DD16" transform="translate(60,84)"/>
<path d="M0 0 C6.625 0.75 6.625 0.75 10 3 C10 3.66 10 4.32 10 5 C6.63295715 5.2295711 4.58629732 5.33943529 1.625 3.625 C1.08875 3.08875 0.5525 2.5525 0 2 C0 1.34 0 0.68 0 0 Z " fill="#F4DD16" transform="translate(60,128)"/>
<path d="M0 0 C-3.03525486 2.02350324 -4.19426202 2.32124018 -7.6875 2.625 C-8.49574219 2.69976562 -9.30398437 2.77453125 -10.13671875 2.8515625 C-10.75160156 2.90054688 -11.36648437 2.94953125 -12 3 C-12.33 4.32 -12.66 5.64 -13 7 C-13 5.35 -13 3.7 -13 2 C-13.66 1.67 -14.32 1.34 -15 1 C-13.44033408 0.63355422 -11.87707349 0.28239138 -10.3125 -0.0625 C-9.44238281 -0.25972656 -8.57226562 -0.45695312 -7.67578125 -0.66015625 C-4.83998724 -1.02032279 -2.75210018 -0.70909969 0 0 Z " fill="#B4AA98" transform="translate(102,72)"/>
<path d="M0 0 C-2.96178773 1.67110042 -5.37071192 2.32682752 -8.75 2.625 C-9.94882813 2.73714844 -9.94882813 2.73714844 -11.171875 2.8515625 C-11.77515625 2.90054687 -12.3784375 2.94953125 -13 3 C-13.33 4.32 -13.66 5.64 -14 7 C-14 5.35 -14 3.7 -14 2 C-14.99 1.67 -15.98 1.34 -17 1 C-16.06027344 0.90912109 -16.06027344 0.90912109 -15.1015625 0.81640625 C-13.87566406 0.69072266 -13.87566406 0.69072266 -12.625 0.5625 C-11.81289062 0.48128906 -11.00078125 0.40007813 -10.1640625 0.31640625 C-3.4214876 -0.66942149 -3.4214876 -0.66942149 0 0 Z " fill="#B7AD94" transform="translate(103,28)"/>
<path d="M0 0 C2.31 0 4.62 0 7 0 C7.33 1.65 7.66 3.3 8 5 C7.34 5 6.68 5 6 5 C6 5.66 6 6.32 6 7 C2.58841744 5.86280581 1.88145399 4.95657056 0 2 C0 1.34 0 0.68 0 0 Z " fill="#DCC115" transform="translate(75,23)"/>
<path d="M0 0 C0 0.99 0 1.98 0 3 C-2.31 3 -4.62 3 -7 3 C-7.33 1.68 -7.66 0.36 -8 -1 C-4.59745511 -2.2151946 -3.06748874 -1.86240388 0 0 Z " fill="#EBD515" transform="translate(64,44)"/>
<path d="M0 0 C1.9375 0.8125 1.9375 0.8125 4 2 C4.33 2.99 4.66 3.98 5 5 C0.38 5 -4.24 5 -9 5 C-5.39338934 3.19669467 -2.91606575 2.53400897 1 2 C0.67 1.34 0.34 0.68 0 0 Z " fill="#C49092" transform="translate(198,120)"/>
<path d="M0 0 C0.66 0.33 1.32 0.66 2 1 C2 2.65 2 4.3 2 6 C0.68 6 -0.64 6 -2 6 C-2 6.66 -2 7.32 -2 8 C0.97 8.495 0.97 8.495 4 9 C4 9.33 4 9.66 4 10 C0.625 10.125 0.625 10.125 -3 10 C-3.66 9.34 -4.32 8.68 -5 8 C-5 6.68 -5 5.36 -5 4 C-3.02 4 -1.04 4 1 4 C0.67 2.68 0.34 1.36 0 0 Z " fill="#C18D19" transform="translate(89,132)"/>
<path d="M0 0 C3.24271506 0.5590888 4.93057424 1.4132178 7 4 C7 4.66 7 5.32 7 6 C4.69 5.67 2.38 5.34 0 5 C0 3.35 0 1.7 0 0 Z " fill="#E5D014" transform="translate(81,119)"/>
<path d="M0 0 C4.7517398 0.43197635 6.92000054 1.32769295 10 5 C3.375 4.25 3.375 4.25 0 2 C0 1.34 0 0.68 0 0 Z " fill="#F3DC16" transform="translate(65,37)"/>
<path d="M0 0 C-1.65 0.66 -3.3 1.32 -5 2 C-4.34 3.65 -3.68 5.3 -3 7 C-5.31 6.34 -7.62 5.68 -10 5 C-9.01 4.67 -8.02 4.34 -7 4 C-7 2.68 -7 1.36 -7 0 C-3.86650268 -1.04449911 -3.01031744 -0.93423645 0 0 Z " fill="#CEAB37" transform="translate(98,80)"/>
<path d="M0 0 C2.31 0.33 4.62 0.66 7 1 C7 2.32 7 3.64 7 5 C4.03 4.505 4.03 4.505 1 4 C0.67 2.68 0.34 1.36 0 0 Z " fill="#E5D016" transform="translate(82,29)"/>
<path d="M0 0 C7.57142857 1.85714286 7.57142857 1.85714286 10 5 C3.375 4.25 3.375 4.25 0 2 C0 1.34 0 0.68 0 0 Z " fill="#F3DC16" transform="translate(65,81)"/>
<path d="M0 0 C-0.33 0.33 -0.66 0.66 -1 1 C-0.01 1.66 0.98 2.32 2 3 C-1.3 3 -4.6 3 -8 3 C-8 2.34 -8 1.68 -8 1 C-2.25 -1.125 -2.25 -1.125 0 0 Z " fill="#EAE6E4" transform="translate(93,26)"/>
<path d="M0 0 C2.97 1.98 2.97 1.98 6 4 C5.01 4.495 5.01 4.495 4 5 C4 5.66 4 6.32 4 7 C3.01 6.67 2.02 6.34 1 6 C-0.1875 3.4375 -0.1875 3.4375 -1 1 C-0.67 0.67 -0.34 0.34 0 0 Z " fill="#EBD416" transform="translate(77,67)"/>
<path d="M0 0 C2.475 0.495 2.475 0.495 5 1 C4.67 2.32 4.34 3.64 4 5 C2.68 4.34 1.36 3.68 0 3 C0 2.01 0 1.02 0 0 Z " fill="#EED816" transform="translate(75,75)"/>
<path d="M0 0 C0.33 2.31 0.66 4.62 1 7 C-0.32 6.67 -1.64 6.34 -3 6 C-3.33 4.35 -3.66 2.7 -4 1 C-2 0 -2 0 0 0 Z " fill="#CAB520" transform="translate(85,71)"/>
<path d="M0 0 C1.32 0 2.64 0 4 0 C3.67 1.65 3.34 3.3 3 5 C1.68 4.34 0.36 3.68 -1 3 C-0.67 2.01 -0.34 1.02 0 0 Z " fill="#EFD916" transform="translate(76,31)"/>
<path d="M0 0 C2.97 0.33 5.94 0.66 9 1 C9 1.33 9 1.66 9 2 C4.545 2.495 4.545 2.495 0 3 C0 2.01 0 1.02 0 0 Z " fill="#B9B1AB" transform="translate(106,113)"/>
<path d="M0 0 C0.99 0.99 1.98 1.98 3 3 C2.67 3.66 2.34 4.32 2 5 C-0.475 4.01 -0.475 4.01 -3 3 C-3 2.34 -3 1.68 -3 1 C-2.01 0.67 -1.02 0.34 0 0 Z " fill="#EFD816" transform="translate(92,85)"/>
<path d="M0 0 C1.32 0.66 2.64 1.32 4 2 C3.67 3.32 3.34 4.64 3 6 C0.69 5.01 -1.62 4.02 -4 3 C-2.68 2.01 -1.36 1.02 0 0 Z " fill="#E1D6D6" transform="translate(159,27)"/>
<path d="M0 0 C2.97 0.495 2.97 0.495 6 1 C5.01 1.495 5.01 1.495 4 2 C4 2.66 4 3.32 4 4 C1.03 3.505 1.03 3.505 -2 3 C-1.34 2.01 -0.68 1.02 0 0 Z " fill="#A4978F" transform="translate(163,25)"/>
<path d="M0 0 C0.4125 0.474375 0.825 0.94875 1.25 1.4375 C3.182185 3.16266518 4.48192275 3.56584875 7 4 C7 4.66 7 5.32 7 6 C4.69 5.67 2.38 5.34 0 5 C0 3.35 0 1.7 0 0 Z " fill="#EBD515" transform="translate(81,75)"/>
<path d="M0 0 C-0.33 1.32 -0.66 2.64 -1 4 C-3.31 3.01 -5.62 2.02 -8 1 C-4.93251126 -0.86240388 -3.40254489 -1.2151946 0 0 Z " fill="#E8E0E1" transform="translate(163,73)"/>
<path d="M0 0 C0.4125 0.474375 0.825 0.94875 1.25 1.4375 C3.182185 3.16266518 4.48192275 3.56584875 7 4 C7 4.66 7 5.32 7 6 C4.69 5.67 2.38 5.34 0 5 C0 3.35 0 1.7 0 0 Z " fill="#EBD515" transform="translate(81,31)"/>
<path d="M0 0 C2.475 0.495 2.475 0.495 5 1 C5.33 1.99 5.66 2.98 6 4 C4.35 4 2.7 4 1 4 C0.67 2.68 0.34 1.36 0 0 Z " fill="#F2DB16" transform="translate(75,20)"/>
</svg>
