<svg xmlns="http://www.w3.org/2000/svg" width="256" height="154"><path fill="#CE162C" d="M0 0h256v154H0V0Z"/><path fill="#CBAE4B" d="m78.164 100.805 2.461.07 2.477.055L85 101v5h-5c.628 2.929 1.586 5.361 3 8a70.107 70.107 0 0 0 11.938-2.375c7.256-2.05 14.642-3.324 22.062-4.625l2.756-.53c5.819-.843 11.695-.656 17.564-.655a925.1 925.1 0 0 0 6.832-.04c10.995-.042 21.364.71 31.786 4.526 2.307.838 2.307.838 5.812 1.386 6.29 1.468 12.02 5.626 17.25 9.313l1 2-11 1v2l-1.941.48c-4.487 1.21-8.12 2.297-11.746 5.27-2.776 2.173-3.18 2.25-7 2.25-3.113-.94-4.943-1.82-7.313-4l1.063-1.688c1.181-2.914.946-4.362-.063-7.312-2.824-2.295-2.824-2.295-6.063-1.938L153 120c-1.215 2.502-1.215 2.502-2 5-2.084-.142-4.167-.288-6.25-.438-1.16-.08-2.32-.162-3.516-.246C138 124 138 124 136.161 123.493 122.996 120.489 105.827 122.017 93 126l1.5 3.188c1.309 3.09 2.05 5.42 1.5 8.812-1.063 2.313-1.063 2.313-3 4-3.563.375-3.563.375-7 0l-2-2v-4h6l-4-9h-6v2h-4l-1 3c-3.416 1.803-6.169 2.219-10 2v2c-4.019 1.812-7.611 3.335-12 4-.625-1.875-.625-1.875-1-4l2-2c.643-2.069.643-2.069 1-4h4v-3h5v-2h5v-4l9-3-.875-1.758c-3.87-8.145-3.87-8.145-3.125-13.242 2-2 2-2 4.164-2.195Z"/><path fill="#D9BE15" d="m78.164 56.805 2.461.07 2.477.055L85 57v5l-6-1 .875 2.188L83 71l2.938-1.023c8.49-2.86 16.517-4.689 25.44-5.52 3.607-.35 3.607-.35 6.896-1.462 6.418-1.713 12.998-1.439 19.601-1.432l2.285.001c22.218.103 43.216 3.328 61.84 16.436l1 2-2.71.078C189.812 80.57 181.383 82.551 173 89l-1 2c-4.515-.531-7.347-2.366-11-5l3-9c-3.477-1.59-6.164-2.415-10-2-2.139 2.139-2.427 3.133-3 6l-1.828-.429c-7.83-1.645-15.482-1.879-23.442-1.832-2.16.011-4.321 0-6.482-.012C105.754 78.423 105.754 78.423 93 82l1.5 3.188c1.305 3.076 2.063 5.434 1.5 8.812-1 1.813-1 1.813-3 3-2.719.247-5.259.135-8 0l-1-5h6a214.111 214.111 0 0 0-1.313-3.938l-.738-2.214C87.088 83.64 87.088 83.64 84 83a124.97 124.97 0 0 0-5 2h-3v2h-5v2l-6 1v2c-4.622 2.219-7.768 3.383-13 3v-4l2-1c.652-2.025.652-2.025 1-4h4v-3h5v-2h5v-4l2.438-.375L74 76l1-2h3l-.875-1.758C73.255 64.097 73.255 64.097 74 59c2-2 2-2 4.164-2.195Z"/><path fill="#D4B816" d="M77.945 12.805 84 13l1 5-6-1 1 6h2l1 4 3.078-1.023c7.519-2.452 14.8-4.546 22.664-5.618 2.285-.247 2.285-.247 4.258-1.359 28.55-4.328 61.291-3.064 86 13 2.555 2.313 2.555 2.313 4 4l-3.402.297c-13.632 1.266-13.632 1.266-25.286 8.016C172 46 172 46 169 45.937c-3.09-.965-5.427-1.97-8-3.937v-3h2l1-6c-3.477-1.59-6.164-2.415-10-2-2.139 2.139-2.427 3.133-3 6a609121299.917 609121299.917 0 0 0-9.863-1.465C138 35 138 35 135 34c-4.454-.24-8.915-.185-13.375-.188l-3.676-.037C104.631 33.501 104.631 33.501 92 37l1.438 1.438C95.638 42.045 96.162 45.787 96 50l-2 3c-2.164.293-2.164.293-4.625.188l-2.477-.083L85 53l-1-5 7 1c-1.547-5.292-1.547-5.292-4.688-9.688-3.212-.434-5.394.639-8.34 1.883C75.687 42.128 73.437 42.62 71 43v2l-6 1v2h-6l-1 3h-6v-4h3v-5h4v-3h5v-3h4l1-3h5l1-3h3l-1.438-1.875C74.465 23.928 73.826 19.693 74 15c2-2 2-2 3.945-2.195Z"/><path fill="#F7F4F4" d="m135.688 68.688 3.857-.088c9.244-.061 16.73 1.425 25.455 4.4l2.438.804c5.188 1.753 9.85 4.437 14.562 7.196-1.177 3.53-1.884 3.787-5 5.563-3.085 1.65-3.085 1.65-5 4.437-4.515-.531-7.347-2.366-11-5l3-9c-3.477-1.59-6.164-2.415-10-2-2.139 2.139-2.427 3.133-3 6l-1.837-.43c-7.748-1.63-15.327-1.845-23.213-1.776-2.117.018-4.233.02-6.35.02-9.564.026-19.063.49-28.6 1.186l-1-5c3.477-.821 6.957-1.63 10.438-2.438l2.95-.697c10.848-2.503 21.167-3.094 32.3-3.177Z"/><path fill="#F8F6F6" d="m134.938 112.563 2.118-.019c12.732-.072 24.342 1.423 35.631 7.581l2.084 1.09c1.75.916 3.49 1.85 5.229 2.785l2 1c-1.407 4.22-3.924 5.48-7.582 7.824-3.527 1.716-5.75 1.399-9.418.176-2.438-1.563-2.438-1.563-4-3l1.063-1.688c1.181-2.914.946-4.362-.063-7.312-2.824-2.295-2.824-2.295-6.063-1.938-.969.31-1.938.62-2.937.938-1.215 2.502-1.215 2.502-2 5a797.277 797.277 0 0 1-5.875-.375c-1.09-.07-2.181-.14-3.305-.21-2.968-.323-5.663-.794-8.562-1.438-5.53-1.148-10.875-1.28-16.508-1.227l-3.028.012c-7.716.09-15.135.765-22.722 2.238l-1-4c14.72-5.779 29.2-7.393 44.938-7.438Z"/><path fill="#F9F8F8" d="M131.596 24.815c2.135-.002 4.27-.02 6.404-.04 16.9-.07 29.371 3.882 44 12.225v2c-1.793 1.473-1.793 1.473-4.187 3.062l-2.356 1.598c-2.6 1.418-4.508 2.104-7.457 2.34-2.615-1.006-4.627-2.465-7-4v-3h2l1-6c-3.477-1.59-6.164-2.415-10-2-2.139 2.139-2.427 3.133-3 6a336970647.725 336970647.725 0 0 1-9.863-1.465C138 35 138 35 135 34c-4.391-.24-8.79-.19-13.187-.188l-3.82-.001c-9.149.051-17.977.621-26.993 2.189l-1-5c3.353-.818 6.708-1.628 10.063-2.438l2.857-.697 2.803-.674 2.555-.618c7.777-1.636 15.41-1.76 23.318-1.758Z"/><path fill="#F3F0F0" d="M199 32c2.555 2.313 2.555 2.313 4 4-13.13 1.331-20.941-1.323-32.167-7.979-10.312-5.744-22.955-5.319-34.395-5.396l-2.054-.016C121.495 22.563 106.73 23.135 95 29a95.33 95.33 0 0 1-5.125.063l-2.758-.028L85 29v-2c7.887-3.057 15.25-5.515 23.672-6.64 2.345-.241 2.345-.241 4.328-1.36 28.55-4.328 61.291-3.064 86 13ZM137.875 61.563l2.285.001c22.218.103 43.216 3.328 61.84 16.436l1 2c-12.147 1.231-19.575-.647-30.047-6.8-20.476-11.912-51.749-7.255-73.516-1.513l-2.8.75c-3.955.844-7.609.764-11.637.563v-2c8.83-3.615 16.82-5.672 26.309-6.543 3.665-.345 3.665-.345 6.97-1.462 6.415-1.715 12.995-1.439 19.596-1.432Z"/><path fill="#F3EFEF" d="M137.697 105.74c2.233.01 4.466 0 6.7-.013 10.894-.011 21.24.803 31.54 4.574 2.308.838 2.308.838 5.813 1.387 6.29 1.467 12.02 5.625 17.25 9.312l1 2c-11.95 2.822-11.95 2.822-16.652.938-2.223-1.563-2.223-1.563-4.09-3.165-15.424-12.114-39.28-11.44-57.653-9.395-8.216 1.12-16.521 2.337-24.472 4.747-2.88.804-5.105 1.091-8.07 1l-2.34-.055L85 117v-2c8.147-3.4 16.164-5.204 24.836-6.62 1.512-.265 3.018-.57 4.518-.901 7.776-1.65 15.433-1.785 23.343-1.74Z"/><path fill="#A0928A" d="M133.34 21.74c2.025.01 4.049 0 6.074-.013 10.11.02 20.267.378 29.649 4.523l2.976 1.313c3.926 1.905 7.723 3.999 11.488 6.203 2.517 1.256 4.703 1.818 7.473 2.234v1l-9 2v-2l-2.207-.848c-2.59-1.069-5.007-2.277-7.48-3.59-11.526-5.814-22.944-6.767-35.689-6.802a596.38 596.38 0 0 1-6.272-.072C120.859 25.614 112.24 26.8 103 29c-8.682 2-8.682 2-13 2l-1 4v-5l-3-1 3.563-.25c5.666-.617 11.023-2.162 16.496-3.715A463.79 463.79 0 0 1 110 24l2.16-.566c7.042-1.639 13.97-1.74 21.18-1.695Z"/><path fill="#9A8C83" d="M184 122a152.09 152.09 0 0 1 5 4l-8 2 1-3-2.125-.816c-4.078-1.68-7.992-3.681-11.938-5.649-10.5-4.458-21.498-5.1-32.75-5.035h-2.156c-13.444.03-26.034 2.013-39.031 5.5l-2.218.387L90 120l-1 3v-5l-4-1 1.852-.297c8.153-1.332 16.278-2.804 24.404-4.294l2.767-.507 2.467-.453L119 111l2.958-.542c21.823-3.29 43.415-.335 62.042 11.542Z"/><path fill="#A3968E" d="M189 80c-2.332 1.206-4.496 2.165-7 3v-2l-2.188-.813C177 79 177 79 174.882 77.626c-22.406-12.63-53.135-9.793-77.14-3.523C94 75 94 75 90 75l-1 4v-5l-2-1 2.746-.586 3.692-.789 3.902-.832a428.033 428.033 0 0 0 8.16-1.856c1.498-.322 2.998-.634 4.5-.937l2.781-.566C140.635 62.6 164.268 67.314 189 80Z"/><path fill="#E3C816" d="M69 122c2.626-.386 4.384-.385 6.668 1.043 1.644 1.332 1.644 1.332 4.332 3.957v2h-4l-1 3c-3.416 1.803-6.169 2.219-10 2v2c-4.019 1.812-7.611 3.335-12 4-.625-1.875-.625-1.875-1-4l2-2c.643-2.069.643-2.069 1-4h4v-3h5v-2h5v-3Z"/><path fill="#E7D016" d="M89 124c3.422 1.062 4.032 2.06 5.75 5.313 1.473 4.344 2.118 6.798.188 11C93 142 93 142 89.438 142.375 86 142 86 142 84 140v-4h6l-3-10h2v-2Z"/><path fill="#DBC115" d="m78.164 56.805 2.461.07 2.477.055L85 57v5l-6-1c1.125 2.972 2.223 5.334 4 8v3h-2v2c-3-1-3-1-4.168-2.637C74.72 67.115 73.305 63.862 74 59c2-2 2-2 4.164-2.195Z"/><path fill="#E5CB16" d="m78.164 100.805 2.461.07 2.477.055L85 101v5h-5c.498 2.756.498 2.756 2 5a176.79 176.79 0 0 1-1 7c-3-1-3-1-4.168-2.637C74.72 111.115 73.305 107.862 74 103c2-2 2-2 4.164-2.195Z"/><path fill="#E4CB15" d="m80 76-.5 1.75c-.645 2.517-.645 2.517-.5 6.25-2.797 1.902-4.104 1.993-7.563 1.75C68 85 68 85 65 83v-2h4v-4c4.122-1.63 6.707-2.263 11-1Z"/><path fill="#E5CD15" d="M76 31h4l-.5 2.375c-.562 2.507-.562 2.507-.5 4.625v3c-7.97 1.441-7.97 1.441-12.063-.313L65 39v-2h4v-3h6l1-3Z"/><path fill="#D7B816" d="m64 125 1 3h-5c3.08 3.672 5.248 4.568 10 5v1h-5v2c-4.019 1.812-7.611 3.335-12 4-.625-1.875-.625-1.875-1-4l2-2c.643-2.069.643-2.069 1-4h4v-3h5v-2Z"/><path fill="#B0A69F" d="M128 22v1l-10 2v1l-2.965.586-3.972.789-2.074.411a356.95 356.95 0 0 0-11.177 2.401C94 31 94 31 90 31l-1 4v-5l-3-1 3.563-.25c5.097-.555 9.905-1.87 14.84-3.229 7.993-2.195 15.29-3.829 23.597-3.521Z"/><path fill="#A29088" d="M169 115c7.442 1.958 13.96 6.338 20 11l-8 2 1-3-2.105-.836a753.87 753.87 0 0 1-9.208-3.789l-3.238-1.352L165 118l4-1v-2Z"/><path fill="#E6CF15" d="M77.945 12.805 84 13l1 5-6-1 2 7c-2.375.188-2.375.188-5 0-2.302-3.452-2.345-4.947-2-9 2-2 2-2 3.945-2.195Z"/><path fill="#ACA29B" d="M121 69v1l-3.875.586-5.125.789-2.543.383c-4 .62-7.915 1.313-11.832 2.344C94 75 94 75 90 75l-1 4v-5l-2-1 2.746-.586 3.692-.789 3.89-.82c2.082-.457 4.16-.935 6.219-1.485 5.99-1.596 11.342-1.165 17.453-.32Z"/><path fill="#B5AB99" d="M115 114v1l-3.438.586-4.562.789-2.254.383c-2.253.392-4.5.808-6.746 1.242l-2.313.442c-2.428.49-2.428.49-5.687 1.558l-1 3v-5l-4-1 2.309-.367c4.847-.787 9.625-1.582 14.379-2.82 4.651-1.1 8.616-.558 13.312.187Z"/><path fill="#F4DD16" d="M60 40c6.625.75 6.625.75 10 3v2h-6v2h-7l-1-4h4v-3Z"/><path fill="#C5AA13" d="m85 71 1 7-4-1-1 3h8v2l-10 2-2-4 2-1v-3l-4-2c3.75-1.125 3.75-1.125 6 0v-2c2-1 2-1 4-1Z"/><path fill="#A69A92" d="M133 110v1l12 1v1l-34 1c6.314-4.21 14.589-4.28 22-4Z"/><path fill="#9A8B82" d="m129.082 65.902 2.822.01 2.909.025 2.966.014c2.407.012 4.814.028 7.221.049l1 2-30 1c4.28-2.854 8.022-3.129 13.082-3.098Z"/><path fill="#E3CE1D" d="m82 73 7 1v5h2v5h-4c0-2 0-2 1-3l-7-1v-5l1 2h3v-2l-3-2Z"/><path fill="#EAD116" d="m78.066 56.902 2.496.035 2.504.028L85 57v5c-4.75-.875-4.75-.875-7-2l-1 4h-2c-.043-2-.04-4 0-6 1-1 1-1 3.066-1.098Z"/><path fill="#DEC116" d="M80 120v5c-3.806-.672-7.352-1.727-11-3v-1c4.122-1.63 6.707-2.263 11-1Z"/><path fill="#D2B016" d="m58.625 90.938 2.477.59L63 92l-1.938.938c-1.998.897-1.998.897-3.062 2.062-2 .04-4 .043-6 0v-4c2.633-1.316 3.802-.748 6.625-.063Z"/><path fill="#F3DD16" d="M60 84c6.625.75 6.625.75 10 3v2c-3.367.23-5.414.34-8.375-1.375L60 86v-2Z"/><path fill="#F4DD16" d="M60 128c6.625.75 6.625.75 10 3v2c-3.367.23-5.414.34-8.375-1.375L60 130v-2Z"/><path fill="#B4AA98" d="M102 72c-3.035 2.024-4.194 2.321-7.688 2.625l-2.449.227L90 75l-1 4v-5l-2-1a348.35 348.35 0 0 1 4.688-1.063l2.636-.597c2.836-.36 4.924-.05 7.676.66Z"/><path fill="#B7AD94" d="M103 28c-2.962 1.671-5.37 2.327-8.75 2.625l-2.422.227L90 31l-1 4v-5l-3-1c.94-.09.94-.09 1.898-.184l2.477-.253 2.46-.247C99.58 27.331 99.58 27.331 103 28Z"/><path fill="#DCC115" d="M75 23h7l1 5h-2v2c-3.412-1.137-4.119-2.043-6-5v-2Z"/><path fill="#EBD515" d="M64 44v3h-7l-1-4c3.403-1.215 4.933-.862 8 1Z"/><path fill="#C49092" d="M198 120c1.938.813 1.938.813 4 2l1 3h-14c3.607-1.803 6.084-2.466 10-3l-1-2Z"/><path fill="#C18D19" d="m89 132 2 1v5h-4v2l6 1v1c-3.375.125-3.375.125-7 0l-2-2v-4h6l-1-4Z"/><path fill="#E5D014" d="M81 119c3.243.56 4.93 1.413 7 4v2l-7-1v-5Z"/><path fill="#F3DC16" d="M65 37c4.752.432 6.92 1.328 10 5-6.625-.75-6.625-.75-10-3v-2Z"/><path fill="#CEAB37" d="m98 80-5 2 2 5-7-2 3-1v-4c3.133-1.044 3.99-.934 7 0Z"/><path fill="#E5D016" d="m82 29 7 1v4l-6-1-1-4Z"/><path fill="#F3DC16" d="M65 81c7.571 1.857 7.571 1.857 10 5-6.625-.75-6.625-.75-10-3v-2Z"/><path fill="#EAE6E4" d="m93 26-1 1 3 2H85v-2c5.75-2.125 5.75-2.125 8-1Z"/><path fill="#EBD416" d="m77 67 6 4-2 1v2l-3-1c-1.188-2.563-1.188-2.563-2-5l1-1Z"/><path fill="#EED816" d="m75 75 5 1-1 4-4-2v-3Z"/><path fill="#CAB520" d="m85 71 1 7-4-1-1-5c2-1 2-1 4-1Z"/><path fill="#EFD916" d="M76 31h4l-1 5-4-2 1-3Z"/><path fill="#B9B1AB" d="m106 113 9 1v1l-9 1v-3Z"/><path fill="#EFD816" d="m92 85 3 3-1 2-5-2v-2l3-1Z"/><path fill="#E1D6D6" d="m159 27 4 2-1 4-7-3 4-3Z"/><path fill="#A4978F" d="m163 25 6 1-2 1v2l-6-1 2-3Z"/><path fill="#EBD515" d="m81 75 1.25 1.438C84.182 78.162 85.482 78.566 88 79v2l-7-1v-5Z"/><path fill="#E8E0E1" d="m163 73-1 4-7-3c3.067-1.862 4.597-2.215 8-1Z"/><path fill="#EBD515" d="m81 31 1.25 1.438C84.182 34.163 85.482 34.566 88 35v2l-7-1v-5Z"/><path fill="#F2DB16" d="m75 20 5 1 1 3h-5l-1-4Z"/></svg>