<svg xmlns="http://www.w3.org/2000/svg" width="256" height="154"><path fill="#FCFDFE" d="M0 0h256v154H0V0Z"/><path fill="#005EB8" d="M127 95c4.103 1.5 7.77 3.513 11.504 5.754l1.9 1.129a2583.15 2583.15 0 0 1 6.159 3.68l4.329 2.581c12.566 7.5 25.077 15.088 37.571 22.706 3.77 2.295 7.55 4.572 11.33 6.85l5.778 3.487c1.23.741 2.459 1.481 3.69 2.22 1.705 1.024 3.408 2.052 5.11 3.081l2.935 1.767c2.687 1.74 5.195 3.746 7.694 5.745H31c3.7-2.96 7.037-5.338 11.066-7.73l1.765-1.053c1.253-.748 2.508-1.493 3.763-2.238 3.394-2.012 6.78-4.035 10.168-6.057l2.1-1.252c6.696-3.995 13.356-8.048 20.013-12.107 11.97-7.293 24.013-14.46 36.083-21.584l2.012-1.19c1.25-.739 2.501-1.477 3.753-2.213 2.8-1.57 2.8-1.57 5.277-3.576ZM31 0h194c-3.834 3.067-7.31 5.488-11.504 7.95l-1.9 1.12c-1.347.794-2.696 1.587-4.046 2.379-3.625 2.125-7.241 4.264-10.859 6.403l-2.228 1.316c-6.896 4.077-13.746 8.227-20.588 12.395l-3.384 2.05A1663.273 1663.273 0 0 0 153.888 43.8a1713.23 1713.23 0 0 1-8.26 5.09 495.48 495.48 0 0 0-3.958 2.467 466.832 466.832 0 0 1-5.506 3.402l-3.173 1.973c-3.63 1.54-5.246 1.405-8.991.269-2.744-1.373-2.744-1.373-5.586-3.148-1.618-1-1.618-1-3.27-2.018l-1.731-1.087c-2.465-1.547-4.943-3.072-7.42-4.599-1.315-.809-2.628-1.62-3.94-2.43-6.633-4.095-13.334-8.07-20.046-12.032a3596.691 3596.691 0 0 1-31.851-19.01 2052.08 2052.08 0 0 0-3.644-2.197c-1.677-1.009-3.35-2.023-5.024-3.038L38.63 5.713C35.968 3.98 33.481 1.985 31 0ZM256 19v116c-4.026-1.61-7.382-3.28-11.094-5.457l-1.754-1.027a2033.049 2033.049 0 0 1-5.652-3.328l-3.966-2.333c-8.156-4.808-16.239-9.72-24.264-14.743-10.256-6.397-20.676-12.52-31.08-18.672-1.286-.76-2.571-1.523-3.856-2.285a737.119 737.119 0 0 0-8.512-4.984l-2.779-1.612-2.394-1.37L159 78v-2c2.11-1.518 2.11-1.518 5.105-3.316l3.375-2.04 3.708-2.207 3.82-2.296c9.386-5.636 18.83-11.173 28.288-16.688 11.624-6.78 23.135-13.736 34.622-20.746l3.107-1.892c1.977-1.206 3.952-2.418 5.923-3.634l2.728-1.67 2.392-1.473C254 19 254 19 256 19ZM0 19a76.579 76.579 0 0 1 10.848 5.316l1.696.994c1.842 1.08 3.68 2.166 5.518 3.253l3.911 2.3c9.798 5.776 19.528 11.66 29.236 17.585 10.803 6.588 21.682 13.045 32.573 19.485l2.002 1.184 3.712 2.194A163.843 163.843 0 0 1 97 76v2c-2.329 1.581-2.329 1.581-5.605 3.457l-1.777 1.027c-1.267.732-2.537 1.46-3.808 2.187-3.37 1.926-6.726 3.876-10.083 5.825l-2.036 1.18c-5.397 3.134-10.718 6.38-16.004 9.699-10.305 6.456-20.764 12.646-31.235 18.828a43023.4 43023.4 0 0 0-3.92 2.317l-1.915 1.13a467.557 467.557 0 0 0-9.406 5.703c-.9.56-.9.56-1.817 1.133a1372.15 1372.15 0 0 0-4.9 3.087C2 135 2 135 0 135V19Z"/></svg>