<?xml version="1.0" encoding="UTF-8"?>
<svg version="1.1" xmlns="http://www.w3.org/2000/svg" width="256" height="154">
<path d="M0 0 C84.48 0 168.96 0 256 0 C256 50.82 256 101.64 256 154 C171.52 154 87.04 154 0 154 C0 103.18 0 52.36 0 0 Z " fill="#FCFDFE" transform="translate(0,0)"/>
<path d="M0 0 C4.10337849 1.50018561 7.7709222 3.51316506 11.50390625 5.75390625 C12.130728 6.12641006 12.75754974 6.49891388 13.40336609 6.88270569 C15.45863329 8.10561717 17.51063792 9.33388517 19.5625 10.5625 C21.00543119 11.42318646 22.44846647 12.28369844 23.89160156 13.14404297 C36.45755328 20.64372874 48.96867202 28.23242044 61.46337891 35.85009766 C65.23296493 38.14468 69.01287749 40.42200035 72.79296875 42.69921875 C74.71912217 43.86151683 76.64506818 45.02415768 78.57092285 46.18695068 C79.80007886 46.92813393 81.02996059 47.6681152 82.26062012 48.40679932 C83.96607522 49.43069588 85.66864352 50.45939617 87.37109375 51.48828125 C88.33974365 52.07134033 89.30839355 52.65439941 90.30639648 53.25512695 C92.99264384 54.9952348 95.50074399 57.0005952 98 59 C33.98 59 -30.04 59 -96 59 C-92.29932578 56.03946062 -88.9625319 53.66197351 -84.93359375 51.26953125 C-84.351436 50.92218933 -83.76927826 50.57484741 -83.16947937 50.21697998 C-81.91580599 49.46946677 -80.66114039 48.72361557 -79.40557861 47.97927856 C-76.01211954 45.96746091 -72.62580862 43.94365857 -69.23828125 41.921875 C-68.54510803 41.50865494 -67.85193481 41.09543488 -67.13775635 40.66969299 C-60.44158439 36.6750723 -53.78209639 32.62185756 -47.125 28.5625 C-35.15478732 21.27023191 -23.11232138 14.10315438 -11.04150391 6.97875977 C-10.37758133 6.58620499 -9.71365875 6.19365021 -9.02961731 5.78919983 C-7.77964758 5.05020993 -6.5289384 4.31246892 -5.27738953 3.57615662 C-2.47777944 2.00622864 -2.47777944 2.00622864 0 0 Z " fill="#005EB8" transform="translate(127,95)"/>
<path d="M0 0 C64.02 0 128.04 0 194 0 C190.16594483 3.06724414 186.68910326 5.48835655 182.49609375 7.94921875 C181.86936264 8.31884735 181.24263153 8.68847595 180.59690857 9.06930542 C179.24888502 9.86398967 177.89987993 10.65701085 176.54998779 11.44851685 C172.92542761 13.57433695 169.30870878 15.71342381 165.69140625 17.8515625 C164.95603638 18.28588089 164.2206665 18.72019928 163.4630127 19.16767883 C156.56710902 23.24522062 149.71667218 27.39481134 142.875 31.5625 C141.20014526 32.57775757 141.20014526 32.57775757 139.49145508 33.61352539 C133.93921489 36.98076983 128.40049197 40.36658324 122.88803101 43.79862976 C120.14046209 45.50542007 117.3846893 47.19866354 114.62750244 48.88986206 C113.30446862 49.70590564 111.98515562 50.52801627 110.66986084 51.35647583 C108.84376921 52.50594079 107.00588497 53.6337821 105.1640625 54.7578125 C104.11686035 55.4089502 103.0696582 56.06008789 101.99072266 56.73095703 C98.36103402 58.27113022 96.74464646 58.13634906 93 57 C90.25634766 55.62744141 90.25634766 55.62744141 87.4140625 53.8515625 C85.79564453 52.85286133 85.79564453 52.85286133 84.14453125 51.83398438 C83.57299316 51.47522217 83.00145508 51.11645996 82.41259766 50.74682617 C79.94774358 49.19998043 77.46973637 47.67480085 74.99212646 46.14849854 C73.6782357 45.33907547 72.36497289 44.5286323 71.05230713 43.71722412 C64.41984857 39.62326072 57.71873403 35.64866815 51.00741577 31.6857605 C40.36141773 25.39727551 29.73612883 19.07423076 19.15551758 12.67626953 C17.94174976 11.94276724 16.72724887 11.21047641 15.51196289 10.47949219 C13.83522824 9.47040065 12.16168446 8.45601284 10.48828125 7.44140625 C9.07349487 6.58591187 9.07349487 6.58591187 7.63012695 5.71313477 C4.96776044 3.97900074 2.4810767 1.98486136 0 0 Z " fill="#005EB8" transform="translate(31,0)"/>
<path d="M0 0 C0 38.28 0 76.56 0 116 C-4.02604338 114.38958265 -7.38221782 112.72040474 -11.09375 110.54296875 C-11.67280594 110.20410141 -12.25186188 109.86523407 -12.84846497 109.51609802 C-14.73460341 108.41041766 -16.61743911 107.29925909 -18.5 106.1875 C-19.82185675 105.40999014 -21.1437155 104.63248366 -22.46557617 103.85498047 C-30.62165216 99.04735387 -38.70465844 94.13549409 -46.72973633 89.11181641 C-56.98600861 82.71538894 -67.40618521 76.59205599 -77.81004333 70.43994141 C-79.09599062 69.67906036 -80.38145428 68.91736127 -81.66639709 68.15478516 C-84.49464611 66.47677782 -87.32766545 64.81147533 -90.17822266 63.17138672 C-91.09522949 62.63916504 -92.01223633 62.10694336 -92.95703125 61.55859375 C-93.74698486 61.10669678 -94.53693848 60.6547998 -95.35083008 60.18920898 C-95.89505615 59.79677002 -96.43928223 59.40433105 -97 59 C-97 58.34 -97 57.68 -97 57 C-94.88989258 55.48217773 -94.88989258 55.48217773 -91.89453125 53.68359375 C-90.78078125 53.01070312 -89.66703125 52.3378125 -88.51953125 51.64453125 C-87.2839901 50.90862589 -86.04830899 50.17295549 -84.8125 49.4375 C-83.53877813 48.67234817 -82.26534492 47.90671566 -80.9921875 47.140625 C-71.60595785 41.50502149 -62.16137089 35.96843858 -52.7043457 30.45269775 C-41.08015882 23.67297313 -29.56866249 16.71675139 -18.08203125 9.70703125 C-17.05674316 9.0826416 -16.03145508 8.45825195 -14.97509766 7.81494141 C-12.99775654 6.6086757 -11.02344117 5.39743554 -9.05224609 4.18115234 C-8.15199707 3.63023926 -7.25174805 3.07932617 -6.32421875 2.51171875 C-5.14025513 1.78214966 -5.14025513 1.78214966 -3.93237305 1.0378418 C-2 0 -2 0 0 0 Z " fill="#005EB8" transform="translate(256,19)"/>
<path d="M0 0 C3.94507626 1.5780305 7.21671955 3.18381352 10.84765625 5.31640625 C11.40757263 5.6443367 11.96748901 5.97226715 12.54437256 6.31013489 C14.38598605 7.39049954 16.22434289 8.47626649 18.0625 9.5625 C19.36609271 10.32965246 20.66972291 11.09674122 21.97338867 11.86376953 C31.77140357 17.63907246 41.5006199 23.52308352 51.20898438 29.44775391 C62.01185714 36.03568386 72.89099533 42.49295927 83.7824707 48.93310547 C84.44281311 49.32388779 85.10315552 49.7146701 85.7835083 50.11729431 C87.02054472 50.84918147 88.25802603 51.5803174 89.49603271 52.31056213 C92.04369145 53.81762819 94.53599544 55.35733029 97 57 C97 57.66 97 58.32 97 59 C94.67114258 60.58129883 94.67114258 60.58129883 91.39453125 62.45703125 C90.80840057 62.79589859 90.2222699 63.13476593 89.61837769 63.48390198 C88.35084806 64.21600261 87.0814363 64.94485194 85.81039429 65.6708374 C82.43997999 67.59680314 79.08384442 69.54735529 75.7265625 71.49609375 C74.7191526 72.07976715 74.7191526 72.07976715 73.69139099 72.67523193 C68.29372971 75.8097181 62.9734852 79.055503 57.6875 82.375 C47.38189339 88.83067376 36.92332138 95.02115623 26.4519043 101.20263672 C25.14497898 101.97486626 23.83809358 102.74716337 22.53125 103.51953125 C21.58358513 104.07867218 21.58358513 104.07867218 20.61677551 104.64910889 C17.46027361 106.51767688 14.32268083 108.41070829 11.2109375 110.35302734 C10.31175598 110.91373177 10.31175598 110.91373177 9.39440918 111.48576355 C7.75818685 112.51038473 6.12602358 113.54147969 4.49414062 114.57299805 C2 116 2 116 0 116 C0 77.72 0 39.44 0 0 Z " fill="#005EB8" transform="translate(0,19)"/>
</svg>
