<?xml version="1.0" encoding="UTF-8"?>
<svg version="1.1" xmlns="http://www.w3.org/2000/svg" width="256" height="154">
<path d="M0 0 C84.48 0 168.96 0 256 0 C256 50.82 256 101.64 256 154 C171.52 154 87.04 154 0 154 C0 103.18 0 52.36 0 0 Z " fill="#010198" transform="translate(0,0)"/>
<path d="M0 0 C2 0.3125 2 0.3125 4 1 C4.33 1.66 4.66 2.32 5 3 C7.34038186 4.13102526 7.34038186 4.13102526 10.0625 5.125 C10.98160156 5.47820313 11.90070312 5.83140625 12.84765625 6.1953125 C13.55792969 6.46085937 14.26820312 6.72640625 15 7 C15.78693051 15.02669121 15.78693051 15.02669121 12.625 18.9375 C11.325625 19.9584375 11.325625 19.9584375 10 21 C9.34 21.66 8.68 22.32 8 23 C8 23.99 8 24.98 8 26 C8.86625 24.7625 8.86625 24.7625 9.75 23.5 C12.56143611 20.67240622 15.09417714 20.5193038 19 20.375 C23.00603878 20.56764551 24.79189897 20.87828053 28.3125 22.9375 C30.63197348 27.14691484 30.28961828 30.43936318 29 35 C27 38 27 38 24.8359375 38.51171875 C24.02382812 38.56972656 23.21171875 38.62773438 22.375 38.6875 C21.55773437 38.75324219 20.74046875 38.81898437 19.8984375 38.88671875 C19.27195313 38.92410156 18.64546875 38.96148437 18 39 C18 36.36 18 33.72 18 31 C15.69 31 13.38 31 11 31 C10.855625 31.598125 10.71125 32.19625 10.5625 32.8125 C10.1127561 34.56150404 9.57107659 36.28677023 9 38 C10.32 38.33 11.64 38.66 13 39 C13 43 13 43 11 47 C13.97 47.33 16.94 47.66 20 48 C19 52 19 52 18 53 C16.48071962 53.07179964 14.95832518 53.08392007 13.4375 53.0625 C12.61121094 53.05347656 11.78492188 53.04445312 10.93359375 53.03515625 C10.29550781 53.02355469 9.65742187 53.01195312 9 53 C8.9071875 54.11375 8.9071875 54.11375 8.8125 55.25 C7.73462887 58.89817919 6.2175115 60.05452793 3 62 C1 61.9375 1 61.9375 -1 61 C-1.9075 60.5875 -2.815 60.175 -3.75 59.75 C-4.86375 58.88375 -4.86375 58.88375 -6 58 C-6.3125 55.3125 -6.3125 55.3125 -6 53 C-6.92232422 53.14308594 -6.92232422 53.14308594 -7.86328125 53.2890625 C-8.67152344 53.39992187 -9.47976562 53.51078125 -10.3125 53.625 C-11.11300781 53.74101563 -11.91351563 53.85703125 -12.73828125 53.9765625 C-15 54 -15 54 -18 52 C-18.1875 49.375 -18.1875 49.375 -18 47 C-15.03 47 -12.06 47 -9 47 C-8.67 46.01 -8.34 45.02 -8 44 C-9.32 43.34 -10.64 42.68 -12 42 C-11.34 40.68 -10.68 39.36 -10 38 C-9.01 38 -8.02 38 -7 38 C-7.66 36.02 -8.32 34.04 -9 32 C-10.98 32 -12.96 32 -15 32 C-15.33 34.31 -15.66 36.62 -16 39 C-19.6219058 38.72139186 -22.31649437 38.42061885 -25.4375 36.5 C-27.80289514 32.71536778 -27.84992399 29.33461236 -27 25 C-25.1875 22 -25.1875 22 -22 20 C-18.33164732 19.31475996 -14.72742028 19.0718067 -11 19 C-11.32226562 18.22785156 -11.64453125 17.45570312 -11.9765625 16.66015625 C-13.08643395 13.77533772 -13.46975587 12.05341316 -13 9 C-10.32526465 5.32223889 -6.73107792 3.70593795 -2.70703125 1.83203125 C-1.01192589 1.12052968 -1.01192589 1.12052968 0 0 Z " fill="#D2C038" transform="translate(51,25)"/>
<path d="M0 0 C2.11273728 3.45720646 2.09728163 5.24462005 1.375 9.25 C-0.70158016 12.48596114 -3.0729661 15.37896186 -5.625 18.25 C-5.295 18.58 -4.965 18.91 -4.625 19.25 C-4.026875 18.610625 -3.42875 17.97125 -2.8125 17.3125 C-0.02720528 14.68636498 1.84927786 14.31066025 5.625 13.875 C10.30217428 14.34271743 13.29496817 15.64609179 16.375 19.25 C17.125 22.75 17.125 22.75 16.375 26.25 C13.9375 29.125 13.9375 29.125 11.375 31.25 C11.045 31.58 10.715 31.91 10.375 32.25 C8.70882885 32.29063832 7.04111905 32.292721 5.375 32.25 C5.375 30.27 5.375 28.29 5.375 26.25 C2.735 26.25 0.095 26.25 -2.625 26.25 C-2.955 27.9 -3.285 29.55 -3.625 31.25 C-2.635 31.25 -1.645 31.25 -0.625 31.25 C-0.13 33.725 -0.13 33.725 0.375 36.25 C-1.605 36.745 -1.605 36.745 -3.625 37.25 C-3.2149433 39.32935207 -3.2149433 39.32935207 -1.625 41.25 C1.07158452 41.93790422 3.5767019 42.06946464 6.375 42.25 C5.5 46.125 5.5 46.125 4.375 47.25 C1.0625 47.6875 1.0625 47.6875 -2.625 47.25 C-5.78834019 43.68110337 -6.625 42.06033121 -6.625 37.25 C-7.615 37.25 -8.605 37.25 -9.625 37.25 C-9.33625 37.76949219 -9.0475 38.28898437 -8.75 38.82421875 C-4.69746377 46.43679549 -4.69746377 46.43679549 -5.625 50.25 C-7.875 53.125 -7.875 53.125 -10.625 55.25 C-13.51717929 55.3376418 -14.60454595 54.26492593 -16.9375 52.5625 C-18.625 50.25 -18.625 50.25 -18.5625 47.4375 C-17.51078978 43.86168525 -16.18212691 40.63505849 -14.625 37.25 C-15.285 37.25 -15.945 37.25 -16.625 37.25 C-16.686875 37.971875 -16.74875 38.69375 -16.8125 39.4375 C-17.9109871 43.23995534 -19.51932732 44.83447681 -22.625 47.25 C-25.94579498 47.7813272 -27.67895032 47.88069979 -30.5 46 C-31.625 44.25 -31.625 44.25 -31.625 40.25 C-28.655 40.58 -25.685 40.91 -22.625 41.25 C-21.965 39.93 -21.305 38.61 -20.625 37.25 C-21.945 36.92 -23.265 36.59 -24.625 36.25 C-24.295 34.93 -23.965 33.61 -23.625 32.25 C-22.305 32.25 -20.985 32.25 -19.625 32.25 C-19.955 29.94 -20.285 27.63 -20.625 25.25 C-22.935 25.58 -25.245 25.91 -27.625 26.25 C-28.285 28.23 -28.945 30.21 -29.625 32.25 C-36.98706897 31.88793103 -36.98706897 31.88793103 -39.6875 29.1875 C-40.94823753 25.23718906 -40.79896162 22.21005365 -39.625 18.25 C-38.1875 15.75 -38.1875 15.75 -35.625 14.25 C-31.3056698 13.45987862 -27.38747683 13.3484853 -23.41796875 15.37890625 C-21.5 16.75 -21.5 16.75 -18.625 19.25 C-19.223125 18.13625 -19.82125 17.0225 -20.4375 15.875 C-20.77394531 15.24851562 -21.11039063 14.62203125 -21.45703125 13.9765625 C-22.67263493 11.94497635 -22.67263493 11.94497635 -25.625 10.25 C-26.0224068 7.17009728 -26.23562596 5.20331594 -25.625 2.25 C-23.625 -0.0625 -23.625 -0.0625 -20.625 -1.75 C-20.04363281 -2.08257813 -19.46226562 -2.41515625 -18.86328125 -2.7578125 C-12.11225179 -6.01693017 -6.02409985 -4.01606657 0 0 Z " fill="#E9D831" transform="translate(215.625,31.75)"/>
<path d="M0 0 C1.734375 1.0703125 1.734375 1.0703125 3.734375 3.0703125 C4.63223621 7.29026018 4.34158548 9.10567585 2.015625 12.80078125 C0.60196127 14.69847115 -0.84270344 16.57353965 -2.3203125 18.421875 C-5.7501972 23.09147707 -6.59448791 27.36564724 -7.265625 33.0703125 C-6.605625 33.0703125 -5.945625 33.0703125 -5.265625 33.0703125 C-5.22695312 32.20019531 -5.22695312 32.20019531 -5.1875 31.3125 C-4.7932133 25.88209675 -4.0449588 22.24747091 -0.265625 18.0703125 C4.49969592 15.17374488 8.37359148 14.57746264 13.77734375 15.43359375 C15.734375 16.0703125 15.734375 16.0703125 17.796875 18.2578125 C18.8972855 21.55904399 19.30957848 23.6190916 18.734375 27.0703125 C16.1557172 30.48324194 14.59908146 31.85821469 10.421875 32.8828125 C9.535 32.9446875 8.648125 33.0065625 7.734375 33.0703125 C7.734375 30.7603125 7.734375 28.4503125 7.734375 26.0703125 C4.26951793 26.69063726 4.26951793 26.69063726 0.734375 28.0703125 C-0.78355144 30.56672378 -0.78355144 30.56672378 -1.265625 33.0703125 C-0.62625 33.1734375 0.013125 33.2765625 0.671875 33.3828125 C1.3525 33.6096875 2.033125 33.8365625 2.734375 34.0703125 C3.064375 35.0603125 3.394375 36.0503125 3.734375 37.0703125 C3.074375 37.0703125 2.414375 37.0703125 1.734375 37.0703125 C1.734375 37.7303125 1.734375 38.3903125 1.734375 39.0703125 C1.074375 39.0703125 0.414375 39.0703125 -0.265625 39.0703125 C0.064375 40.0603125 0.394375 41.0503125 0.734375 42.0703125 C3.704375 42.0703125 6.674375 42.0703125 9.734375 42.0703125 C9.777096 43.73643155 9.77501332 45.40414135 9.734375 47.0703125 C8.734375 48.0703125 8.734375 48.0703125 6.703125 48.203125 C5.8884375 48.20054688 5.07375 48.19796875 4.234375 48.1953125 C3.4196875 48.19789062 2.605 48.20046875 1.765625 48.203125 C-0.265625 48.0703125 -0.265625 48.0703125 -1.265625 47.0703125 C-1.3275 47.6271875 -1.389375 48.1840625 -1.453125 48.7578125 C-2.63195998 52.11295822 -4.56772214 53.81160313 -7.265625 56.0703125 C-11.265625 56.0703125 -11.265625 56.0703125 -13.953125 53.7578125 C-16.265625 51.0703125 -16.265625 51.0703125 -17.265625 48.0703125 C-17.89210938 48.08191406 -18.51859375 48.09351563 -19.1640625 48.10546875 C-20.38996094 48.11900391 -20.38996094 48.11900391 -21.640625 48.1328125 C-22.85878906 48.15021484 -22.85878906 48.15021484 -24.1015625 48.16796875 C-26.265625 48.0703125 -26.265625 48.0703125 -28.265625 47.0703125 C-28.265625 45.4203125 -28.265625 43.7703125 -28.265625 42.0703125 C-25.295625 42.0703125 -22.325625 42.0703125 -19.265625 42.0703125 C-19.925625 40.7503125 -20.585625 39.4303125 -21.265625 38.0703125 C-21.63346631 36.7460838 -21.97765481 35.41417338 -22.265625 34.0703125 C-19.790625 33.5753125 -19.790625 33.5753125 -17.265625 33.0703125 C-17.925625 31.0903125 -18.585625 29.1103125 -19.265625 27.0703125 C-20.915625 26.7403125 -22.565625 26.4103125 -24.265625 26.0703125 C-25.255625 29.5353125 -25.255625 29.5353125 -26.265625 33.0703125 C-29.515625 33.4453125 -29.515625 33.4453125 -33.265625 33.0703125 C-36.00404053 30.12124962 -37.10479993 28.03526294 -37.765625 24.0703125 C-37.08360852 19.9782136 -36.22222283 18.02691033 -33.265625 15.0703125 C-29.04582778 14.03554483 -25.17326031 14.26187226 -21.1640625 15.9609375 C-16.72624165 18.7935891 -14.78490156 21.97626755 -13.265625 27.0703125 C-13.078125 30.5078125 -13.078125 30.5078125 -13.265625 33.0703125 C-12.605625 33.0703125 -11.945625 33.0703125 -11.265625 33.0703125 C-12.80901697 24.94719687 -14.85725522 19.3223277 -20.265625 13.0703125 C-22.72687851 9.37843223 -22.70520266 7.52032081 -22.1328125 3.234375 C-20.9912322 0.38556651 -19.8289783 -0.20475111 -17.078125 -1.4921875 C-10.3347054 -3.80026645 -6.2243701 -3.25693784 0 0 Z " fill="#F0DE2D" transform="translate(137.265625,75.9296875)"/>
<path d="M0 0 C0.33 1.32 0.66 2.64 1 4 C-0.32 4 -1.64 4 -3 4 C-3 4.99 -3 5.98 -3 7 C4.26 7 11.52 7 19 7 C19 7.66 19 8.32 19 9 C18.34 9 17.68 9 17 9 C17.33 9.99 17.66 10.98 18 12 C20.97 12 23.94 12 27 12 C27.042721 13.66611905 27.04063832 15.33382885 27 17 C26 18 26 18 23.96875 18.1328125 C23.1540625 18.13023438 22.339375 18.12765625 21.5 18.125 C20.6853125 18.12757812 19.870625 18.13015625 19.03125 18.1328125 C17 18 17 18 16 17 C15.9071875 17.8353125 15.9071875 17.8353125 15.8125 18.6875 C14.63366502 22.04264572 12.69790286 23.74129063 10 26 C6 26 6 26 3.3125 23.6875 C1 21 1 21 0 18 C-0.62648438 18.01160156 -1.25296875 18.02320312 -1.8984375 18.03515625 C-2.71570313 18.04417969 -3.53296875 18.05320312 -4.375 18.0625 C-5.18710938 18.07410156 -5.99921875 18.08570312 -6.8359375 18.09765625 C-9 18 -9 18 -11 17 C-11 15.35 -11 13.7 -11 12 C-8.03 12 -5.06 12 -2 12 C-2.66 10.68 -3.32 9.36 -4 8 C-4.36784131 6.6757713 -4.71202981 5.34386088 -5 4 C-3.35 3.67 -1.7 3.34 0 3 C0 2.01 0 1.02 0 0 Z " fill="#978759" transform="translate(120,106)"/>
<path d="M0 0 C4.91624028 2.36707866 7.18602527 4.86040493 9 10 C9.1875 13.875 9.1875 13.875 9 17 C8.34 17 7.68 17 7 17 C6.4225 16.01 5.845 15.02 5.25 14 C4.5075 13.01 3.765 12.02 3 11 C-0.16926564 10.49830585 -0.16926564 10.49830585 -3 11 C-3.33 13.31 -3.66 15.62 -4 18 C-7.6219058 17.72139186 -10.31649437 17.42061885 -13.4375 15.5 C-15.45123337 12.2780266 -15.6959754 9.88974419 -15.50390625 6.12890625 C-15 4 -15 4 -12.5625 1.4375 C-8.14857908 -0.34355581 -4.69126034 -0.82391311 0 0 Z " fill="#EEDC2F" transform="translate(39,46)"/>
<path d="M0 0 C1.98579749 1.22853597 3.47045921 2.35292093 4.98828125 4.12890625 C5.73828125 7.62890625 5.73828125 7.62890625 4.98828125 11.12890625 C2.55078125 14.00390625 2.55078125 14.00390625 -0.01171875 16.12890625 C-0.34171875 16.45890625 -0.67171875 16.78890625 -1.01171875 17.12890625 C-2.6778899 17.16954457 -4.3455997 17.17162725 -6.01171875 17.12890625 C-6.01171875 15.14890625 -6.01171875 13.16890625 -6.01171875 11.12890625 C-10.46671875 11.62390625 -10.46671875 11.62390625 -15.01171875 12.12890625 C-15.67171875 13.77890625 -16.33171875 15.42890625 -17.01171875 17.12890625 C-17.67171875 17.12890625 -18.33171875 17.12890625 -19.01171875 17.12890625 C-18.98495207 10.47738629 -18.18827837 6.32498122 -13.58203125 1.40625 C-9.73534787 -1.72276857 -4.46396954 -1.93294215 0 0 Z " fill="#F1DF2E" transform="translate(227.01171875,46.87109375)"/>
<path d="M0 0 C3.3125 1.9375 3.3125 1.9375 5 5 C5.28011175 9.70422964 4.61923142 13.07115287 2 17 C-0.1640625 17.51171875 -0.1640625 17.51171875 -2.625 17.6875 C-3.44226563 17.75324219 -4.25953125 17.81898437 -5.1015625 17.88671875 C-6.04128906 17.94279297 -6.04128906 17.94279297 -7 18 C-7 15.36 -7 12.72 -7 10 C-12.55053286 10.74359673 -12.55053286 10.74359673 -18 12 C-17.76739375 8.04569383 -17.28114305 5.45564563 -15.1875 2.0625 C-10.29895643 -1.10067525 -5.65420525 -0.94366736 0 0 Z " fill="#EAD932" transform="translate(76,46)"/>
<path d="M0 0 C9 2 9 2 11.5625 3.6875 C13.76517523 7.23093406 13.8005788 8.86367619 13 13 C11.14082526 15.5300562 9.1060453 17.85314999 7.046875 20.22265625 C3.74978003 24.69638625 2.39089131 29.67435036 1 35 C0.67 35 0.34 35 0 35 C0 23.45 0 11.9 0 0 Z " fill="#F4E22E" transform="translate(204,28)"/>
<path d="M0 0 C0 11.22 0 22.44 0 34 C-1.13417513 31.73164975 -2.25506122 29.45621845 -3.33203125 27.16015625 C-6.35280849 20.68659621 -6.35280849 20.68659621 -10.875 15.25 C-13.22891034 12.75762435 -13.36977078 12.15440863 -13.5 8.875 C-13 5 -13 5 -11.9375 3.125 C-8.19185461 0.95010913 -4.3073365 0 0 0 Z " fill="#F1E02E" transform="translate(203,29)"/>
<path d="M0 0 C0.33 0 0.66 0 1 0 C1 11.88 1 23.76 1 36 C-1.30763941 33.69236059 -1.53418644 32.43052918 -2.3125 29.3125 C-3.31942331 25.72079416 -4.43572753 23.03941954 -6.6875 20.0625 C-9 17 -9 17 -9 14 C-9.66 14 -10.32 14 -11 14 C-11.05399736 12.54207116 -11.09279177 11.08357288 -11.125 9.625 C-11.15980469 8.40683594 -11.15980469 8.40683594 -11.1953125 7.1640625 C-11 5 -11 5 -9 3 C-5.5 2.5 -5.5 2.5 -2 2 C-1.34 1.34 -0.68 0.68 0 0 Z " fill="#F6E42B" transform="translate(51,27)"/>
<path d="M0 0 C5.2627046 0.87711743 8.33121544 1.8523591 13 4 C13.29934528 7.0533219 13.41307912 9.95354148 13 13 C10.8125 15.5625 10.8125 15.5625 8 18 C3.87825322 23.28098806 2.02059503 28.41944697 1 35 C0.67 35 0.34 35 0 35 C0 23.45 0 11.9 0 0 Z " fill="#F3E12D" transform="translate(53,28)"/>
<path d="M0 0 C9 2 9 2 12 5 C12.68614745 7.99409798 12.83424388 9.12707263 12 12 C10.14067088 14.88798574 8.09322557 17.55830476 5.98046875 20.265625 C3.46217992 23.74255238 2.23358172 26.91376054 1 31 C0.67 31 0.34 31 0 31 C0 20.77 0 10.54 0 0 Z " fill="#F9E72B" transform="translate(129,74)"/>
<path d="M0 0 C0.53625 0.2475 1.0725 0.495 1.625 0.75 C1.625 1.41 1.625 2.07 1.625 2.75 C0.965 2.75 0.305 2.75 -0.375 2.75 C-0.045 12.65 0.285 22.55 0.625 32.75 C1.615 30.11 2.605 27.47 3.625 24.75 C5.625 27.75 5.625 27.75 5.25 30.4375 C4.940625 31.5821875 4.940625 31.5821875 4.625 32.75 C6.605 32.255 6.605 32.255 8.625 31.75 C7.965 33.73 7.305 35.71 6.625 37.75 C7.615 38.08 8.605 38.41 9.625 38.75 C8.305 38.75 6.985 38.75 5.625 38.75 C5.295 37.43 4.965 36.11 4.625 34.75 C3.965 34.75 3.305 34.75 2.625 34.75 C2.625 36.07 2.625 37.39 2.625 38.75 C-2.325 38.75 -7.275 38.75 -12.375 38.75 C-10.89 38.255 -10.89 38.255 -9.375 37.75 C-9.045 36.76 -8.715 35.77 -8.375 34.75 C-8.045 35.74 -7.715 36.73 -7.375 37.75 C-6.715 37.75 -6.055 37.75 -5.375 37.75 C-5.96994837 31.8005163 -6.87113058 26.95929655 -11.5 22.875 C-15.51414893 21.30424607 -19.12239871 21.53498083 -23.375 21.75 C-24.365 21.75 -25.355 21.75 -26.375 21.75 C-23.78573669 19.16073669 -22.34794721 19.37601957 -18.75 19.125 C-17.74710938 19.05023438 -16.74421875 18.97546875 -15.7109375 18.8984375 C-14.55464844 18.82496094 -14.55464844 18.82496094 -13.375 18.75 C-13.70242187 17.98300781 -14.02984375 17.21601562 -14.3671875 16.42578125 C-15.41160494 13.65281247 -15.54255803 11.68226553 -15.375 8.75 C-14.715 8.42 -14.055 8.09 -13.375 7.75 C-13.375 10.39 -13.375 13.03 -13.375 15.75 C-12.715 15.75 -12.055 15.75 -11.375 15.75 C-10.40105085 17.46280713 -9.42757391 19.17588532 -8.45703125 20.890625 C-7.60559113 22.35374953 -6.68901481 23.77897778 -5.75 25.1875 C-4.375 27.75 -4.375 27.75 -2.375 35.75 C-2.375 24.86 -2.375 13.97 -2.375 2.75 C-3.035 3.41 -3.695 4.07 -4.375 4.75 C-6.5 4.375 -6.5 4.375 -8.375 3.75 C-2.95961538 -0.31153846 -2.95961538 -0.31153846 0 0 Z " fill="#C1AC36" transform="translate(53.375,25.25)"/>
<path d="M0 0 C0 10.56 0 21.12 0 32 C0.99 29.03 1.98 26.06 3 23 C3.33 23 3.66 23 4 23 C3.67 27.29 3.34 31.58 3 36 C3.66 36 4.32 36 5 36 C5.12375 35.195625 5.2475 34.39125 5.375 33.5625 C5.684375 32.2940625 5.684375 32.2940625 6 31 C6.66 30.67 7.32 30.34 8 30 C7.67 31.65 7.34 33.3 7 35 C7.99 35 8.98 35 10 35 C10 35.66 10 36.32 10 37 C-0.395 37.495 -0.395 37.495 -11 38 C-11.33 38.66 -11.66 39.32 -12 40 C-11.01 40 -10.02 40 -9 40 C-8.875 42.375 -8.875 42.375 -9 45 C-9.66 45.66 -10.32 46.32 -11 47 C-13.33333333 47 -15.66666667 47 -18 47 C-18.66 47.66 -19.32 48.32 -20 49 C-20.33 47.35 -20.66 45.7 -21 44 C-18.03 44.33 -15.06 44.66 -12 45 C-11.34 43.68 -10.68 42.36 -10 41 C-11.32 40.67 -12.64 40.34 -14 40 C-13.67 38.68 -13.34 37.36 -13 36 C-11.68 36 -10.36 36 -9 36 C-9.33 34.35 -9.66 32.7 -10 31 C-9.34 31.33 -8.68 31.66 -8 32 C-7.67 32.99 -7.34 33.98 -7 35 C-6.91995518 31.4780279 -6.95994298 28.38018531 -8 25 C-7.01 25.33 -6.02 25.66 -5 26 C-4.34 27.65 -3.68 29.3 -3 31 C-2.67 21.1 -2.34 11.2 -2 1 C-3.98 1.99 -3.98 1.99 -6 3 C-8.25 2.625 -8.25 2.625 -10 2 C-8.71211992 1.46987262 -7.41953322 0.9511671 -6.125 0.4375 C-5.40570313 0.14746094 -4.68640625 -0.14257812 -3.9453125 -0.44140625 C-2 -1 -2 -1 0 0 Z " fill="#D3BD2C" transform="translate(205,28)"/>
<path d="M0 0 C1.32 0 2.64 0 4 0 C4.66 1.98 5.32 3.96 6 6 C6.66 6 7.32 6 8 6 C8.35338623 8.96844435 8.5417682 11.15598218 6.88671875 13.734375 C5.64496832 15.20348819 4.32662082 16.60704814 3 18 C0.50638429 16.79618552 -1.68143083 15.54571278 -4 14 C-4.68022181 6.85767098 -4.68022181 6.85767098 -2.5625 4.1875 C-2.046875 3.795625 -1.53125 3.40375 -1 3 C-0.67 2.01 -0.34 1.02 0 0 Z " fill="#D0BC34" transform="translate(126,115)"/>
<path d="M0 0 C3.30133235 0.2676756 4.62503298 0.5603835 6.8125 3.125 C8.27896509 6.67538918 8.42316087 9.19155216 8 13 C6.9375 15 6.9375 15 5 16 C-1.33333333 15.66666667 -1.33333333 15.66666667 -4 13 C-4.77233468 7.46493477 -2.88941312 4.514708 0 0 Z " fill="#EAD72B" transform="translate(50,69)"/>
<path d="M0 0 C0 1.65 0 3.3 0 5 C1.65 5 3.3 5 5 5 C5 6.32 5 7.64 5 9 C3.68 9 2.36 9 1 9 C1 10.98 1 12.96 1 15 C0.34 14.67 -0.32 14.34 -1 14 C-1 12.35 -1 10.7 -1 9 C-6.28 9 -11.56 9 -17 9 C-17.33 7.68 -17.66 6.36 -18 5 C-13.05 5 -8.1 5 -3 5 C-3 3.68 -3 2.36 -3 1 C-1 0 -1 0 0 0 Z " fill="#F2E02A" transform="translate(59,59)"/>
<path d="M0 0 C0.99 0.33 1.98 0.66 3 1 C2.67 1.99 2.34 2.98 2 4 C4.97 4.33 7.94 4.66 11 5 C10 9 10 9 9 10 C7.48071962 10.07179964 5.95832518 10.08392007 4.4375 10.0625 C3.61121094 10.05347656 2.78492188 10.04445313 1.93359375 10.03515625 C1.29550781 10.02355469 0.65742187 10.01195313 0 10 C-0.061875 10.7425 -0.12375 11.485 -0.1875 12.25 C-1.26537113 15.89817919 -2.7824885 17.05452793 -6 19 C-8.25 18.875 -8.25 18.875 -10 18 C-10.33 17.34 -10.66 16.68 -11 16 C-9.576875 16.061875 -9.576875 16.061875 -8.125 16.125 C-4.89755144 16.34973818 -4.89755144 16.34973818 -3 14 C-2.62923865 9.18010242 -3.24789662 5.48976491 -5 1 C-4.34 1 -3.68 1 -3 1 C-2.34 2.32 -1.68 3.64 -1 5 C-0.67 3.35 -0.34 1.7 0 0 Z " fill="#74666D" transform="translate(60,68)"/>
<path d="M0 0 C2.64 0 5.28 0 8 0 C8 0.66 8 1.32 8 2 C7.34 2 6.68 2 6 2 C6.33 2.99 6.66 3.98 7 5 C9.97 5 12.94 5 16 5 C16.042721 6.66611905 16.04063832 8.33382885 16 10 C15 11 15 11 12.93359375 11.09765625 C12.10988281 11.08605469 11.28617188 11.07445313 10.4375 11.0625 C9.61121094 11.05347656 8.78492188 11.04445313 7.93359375 11.03515625 C7.29550781 11.02355469 6.65742188 11.01195313 6 11 C2 4.375 2 4.375 2 1 C1.34 0.67 0.68 0.34 0 0 Z " fill="#C6B642" transform="translate(131,113)"/>
<path d="M0 0 C0.33 0 0.66 0 1 0 C1 2.64 1 5.28 1 8 C1.66 8 2.32 8 3 8 C3.97475163 9.71421839 4.94825537 11.42916381 5.9140625 13.1484375 C7.03049574 15.12257211 7.03049574 15.12257211 8.6875 17.3125 C10.66890682 21.36966635 10.74864159 25.53622133 11 30 C10.34 30 9.68 30 9 30 C8.896875 28.96875 8.79375 27.9375 8.6875 26.875 C7.81471594 21.95567168 6.67666946 18.47941423 2.875 15.125 C-1.13914893 13.55424607 -4.74739871 13.78498083 -9 14 C-9.99 14 -10.98 14 -12 14 C-9.41073669 11.41073669 -7.97294721 11.62601957 -4.375 11.375 C-3.37210938 11.30023438 -2.36921875 11.22546875 -1.3359375 11.1484375 C-0.17964844 11.07496094 -0.17964844 11.07496094 1 11 C0.67386719 10.23171875 0.34773438 9.4634375 0.01171875 8.671875 C-1.04459531 5.88222705 -1.24613101 3.95357207 -1 1 C-0.67 0.67 -0.34 0.34 0 0 Z " fill="#73666D" transform="translate(39,33)"/>
<path d="M0 0 C1.670625 0.061875 1.670625 0.061875 3.375 0.125 C3.705 2.435 4.035 4.745 4.375 7.125 C3.735625 7.228125 3.09625 7.33125 2.4375 7.4375 C1.756875 7.664375 1.07625 7.89125 0.375 8.125 C0.045 9.115 -0.285 10.105 -0.625 11.125 C-1.285 11.125 -1.945 11.125 -2.625 11.125 C-2.625 10.135 -2.625 9.145 -2.625 8.125 C-5.265 8.125 -7.905 8.125 -10.625 8.125 C-10.955 7.465 -11.285 6.805 -11.625 6.125 C-8.655 6.62 -8.655 6.62 -5.625 7.125 C-5.66625 6.34125 -5.7075 5.5575 -5.75 4.75 C-5.54283299 0.39949276 -4.19852887 0.14477686 0 0 Z " fill="#2D2789" transform="translate(191.625,56.875)"/>
<path d="M0 0 C1.65 0 3.3 0 5 0 C4.01 0.33 3.02 0.66 2 1 C2.4100567 3.07935207 2.4100567 3.07935207 4 5 C6.69658452 5.68790422 9.2017019 5.81946464 12 6 C11.125 9.875 11.125 9.875 10 11 C6.6875 11.4375 6.6875 11.4375 3 11 C0.5 8.3125 0.5 8.3125 -1 5 C-0.75 2.125 -0.75 2.125 0 0 Z " fill="#E1CF33" transform="translate(210,68)"/>
<path d="M0 0 C1 1 1 1 1.0625 3.5625 C1.041875 4.366875 1.02125 5.17125 1 6 C0.38125 6.28875 -0.2375 6.5775 -0.875 6.875 C-3.13325765 7.93720042 -3.13325765 7.93720042 -5 10 C-5 9.01 -5 8.02 -5 7 C-7.31 7.33 -9.62 7.66 -12 8 C-12.33 7.34 -12.66 6.68 -13 6 C-10.525 6.495 -10.525 6.495 -8 7 C-7.814375 5.2984375 -7.814375 5.2984375 -7.625 3.5625 C-7.41875 2.386875 -7.2125 1.21125 -7 0 C-4.31633121 -1.3418344 -2.84719317 -0.73004953 0 0 Z " fill="#1F1A91" transform="translate(43,57)"/>
<path d="M0 0 C7.59 0 15.18 0 23 0 C23.33 0.99 23.66 1.98 24 3 C16.08 3 8.16 3 0 3 C0 2.01 0 1.02 0 0 Z " fill="#F8E72B" transform="translate(117,110)"/>
<path d="M0 0 C7.26 0 14.52 0 22 0 C22 0.99 22 1.98 22 3 C14.41 3 6.82 3 -1 3 C-0.67 2.01 -0.34 1.02 0 0 Z " fill="#FAE92A" transform="translate(194,65)"/>
<path d="M0 0 C0.66 0.66 1.32 1.32 2 2 C2.66 1.67 3.32 1.34 4 1 C6.6723621 0.86584528 9.32250488 0.95681459 12 1 C12.33 1.66 12.66 2.32 13 3 C11.989375 2.938125 10.97875 2.87625 9.9375 2.8125 C5.4288851 3.02719595 2.86933568 3.66379733 -1 6 C-4.09413725 10.23457454 -5.47988842 14.79888416 -6 20 C-6.66 20 -7.32 20 -8 20 C-8.72354114 13.34342149 -6.49149279 8.62572922 -3 3 C-1.33203125 1.203125 -1.33203125 1.203125 0 0 Z " fill="#584C7E" transform="translate(138,89)"/>
<path d="M0 0 C0 4.29 0 8.58 0 13 C-4 12 -4 12 -6 10 C-5.83935478 6.30516004 -5.40192403 4.47728479 -3 1.625 C-1 0 -1 0 0 0 Z " fill="#EEDC2F" transform="translate(203,72)"/>
<path d="M0 0 C0.33 1.32 0.66 2.64 1 4 C2.98 4.495 2.98 4.495 5 5 C5.625 8.375 5.625 8.375 6 12 C5.34 12.66 4.68 13.32 4 14 C2.68 14 1.36 14 0 14 C0 9.38 0 4.76 0 0 Z " fill="#F2E02B" transform="translate(204,70)"/>
<path d="M0 0 C4.23770762 2.94285252 7.18119643 6.15288848 9 11 C9.58336398 14.33003607 9.86414076 17.62389795 10 21 C9.34 21 8.68 21 8 21 C7.87882812 20.39671875 7.75765625 19.7934375 7.6328125 19.171875 C7.38144531 17.97304687 7.38144531 17.97304687 7.125 16.75 C6.88136719 15.56664063 6.88136719 15.56664063 6.6328125 14.359375 C5.15325908 8.84301532 2.89382709 6.97885127 -2 4 C-1.34 2.68 -0.68 1.36 0 0 Z " fill="#594D7D" transform="translate(116,88)"/>
<path d="M0 0 C0.66 0 1.32 0 2 0 C1.125 4.75 1.125 4.75 0 7 C-0.04022391 9.3329866 -0.04320247 11.66706666 0 14 C-0.66 14 -1.32 14 -2 14 C-2 12.35 -2 10.7 -2 9 C-2.92232422 9.14308594 -2.92232422 9.14308594 -3.86328125 9.2890625 C-4.67152344 9.39992188 -5.47976562 9.51078125 -6.3125 9.625 C-7.11300781 9.74101563 -7.91351563 9.85703125 -8.73828125 9.9765625 C-11 10 -11 10 -14 8 C-14.1875 5.375 -14.1875 5.375 -14 3 C-11.36 3.33 -8.72 3.66 -6 4 C-6 4.33 -6 4.66 -6 5 C-8.31 4.67 -10.62 4.34 -13 4 C-12.67 4.99 -12.34 5.98 -12 7 C-9.03 7.33 -6.06 7.66 -3 8 C-1.92474806 5.34771188 -0.90543849 2.71631546 0 0 Z " fill="#736670" transform="translate(47,69)"/>
<path d="M0 0 C3.10174775 2.06783183 3.81232145 2.61968411 5 6 C5.0777346 8.33203812 5.08967728 10.66839059 5 13 C3.35 13.33 1.7 13.66 0 14 C0 9.38 0 4.76 0 0 Z " fill="#F4E22C" transform="translate(53,69)"/>
<path d="M0 0 C0.75 1.6875 0.75 1.6875 1 4 C-0.5 6.75 -0.5 6.75 -3 9 C-6.75 9.3125 -6.75 9.3125 -10 9 C-10.33 7.35 -10.66 5.7 -11 4 C-8.03 4 -5.06 4 -2 4 C-1.34 2.68 -0.68 1.36 0 0 Z " fill="#F1E02B" transform="translate(121,115)"/>
<path d="M0 0 C3 4 3 4 3 6 C3.66 6 4.32 6 5 6 C5.36666667 11.5 5.36666667 11.5 3.625 13.875 C2 15 2 15 0 15 C0 10.05 0 5.1 0 0 Z " fill="#F5E42B" transform="translate(129,115)"/>
<path d="M0 0 C2 3 2 3 1.625 5.6875 C1.41875 6.450625 1.2125 7.21375 1 8 C2.32 7.67 3.64 7.34 5 7 C4.34 8.98 3.68 10.96 3 13 C3.99 13.33 4.98 13.66 6 14 C4.68 14 3.36 14 2 14 C1.67 12.68 1.34 11.36 1 10 C0.34 10 -0.32 10 -1 10 C-1 11.32 -1 12.64 -1 14 C-1.66 14 -2.32 14 -3 14 C-2.88512252 12.41590006 -2.75765492 10.83271037 -2.625 9.25 C-2.55539063 8.36828125 -2.48578125 7.4865625 -2.4140625 6.578125 C-2.00149945 4.00933618 -1.28839043 2.24158985 0 0 Z " fill="#A8974E" transform="translate(57,50)"/>
<path d="M0 0 C0.66 0.33 1.32 0.66 2 1 C2 2.65 2 4.3 2 6 C1.01 6.33 0.02 6.66 -1 7 C-1.33 7.66 -1.66 8.32 -2 9 C-1.01 9 -0.02 9 1 9 C1.125 11.375 1.125 11.375 1 14 C0.34 14.66 -0.32 15.32 -1 16 C-3.33333333 16 -5.66666667 16 -8 16 C-8.66 16.66 -9.32 17.32 -10 18 C-10.33 16.35 -10.66 14.7 -11 13 C-8.03 13.33 -5.06 13.66 -2 14 C-1.34 12.68 -0.68 11.36 0 10 C-1.32 9.67 -2.64 9.34 -4 9 C-3.67 7.68 -3.34 6.36 -3 5 C-1.68 5 -0.36 5 1 5 C0.67 3.35 0.34 1.7 0 0 Z " fill="#A69552" transform="translate(195,59)"/>
<path d="M0 0 C0.33 0 0.66 0 1 0 C0.67 4.29 0.34 8.58 0 13 C0.66 13 1.32 13 2 13 C2.185625 11.7934375 2.185625 11.7934375 2.375 10.5625 C2.58125 9.716875 2.7875 8.87125 3 8 C3.66 7.67 4.32 7.34 5 7 C4.67 8.65 4.34 10.3 4 12 C4.99 12 5.98 12 7 12 C7 12.66 7 13.32 7 14 C4.03 14 1.06 14 -2 14 C-2.21192221 8.80790596 -1.5912689 4.873261 0 0 Z " fill="#9C8B51" transform="translate(208,51)"/>
<path d="M0 0 C0.33 0.66 0.66 1.32 1 2 C0.67 2.66 0.34 3.32 0 4 C4.29 4 8.58 4 13 4 C13.66 5.32 14.32 6.64 15 8 C14.01 7.34 13.02 6.68 12 6 C7.2957963 5.35512359 2.17362861 4.85113921 -2.12109375 7.12109375 C-3.93990346 8.59779925 -3.93990346 8.59779925 -6 11 C-5.55530671 5.96014269 -3.28656638 3.62365012 0 0 Z " fill="#564B7D" transform="translate(64,41)"/>
<path d="M0 0 C0.33 0 0.66 0 1 0 C1 4.62 1 9.24 1 14 C-0.32 13.67 -1.64 13.34 -3 13 C-3 10.03 -3 7.06 -3 4 C-2.34 3.67 -1.68 3.34 -1 3 C-0.67 2.01 -0.34 1.02 0 0 Z " fill="#F8E62B" transform="translate(126,115)"/>
<path d="M0 0 C0.99 0.495 0.99 0.495 2 1 C1.67 9.91 1.34 18.82 1 28 C1.66 28 2.32 28 3 28 C2.01 31.465 2.01 31.465 1 35 C0.67 35 0.34 35 0 35 C0 23.45 0 11.9 0 0 Z " fill="#EFDB27" transform="translate(204,28)"/>
<path d="M0 0 C0.33 1.32 0.66 2.64 1 4 C-2.4352048 6.29013653 -3.985331 6.17842973 -8 6 C-8.33 4.35 -8.66 2.7 -9 1 C-7.700625 1.020625 -6.40125 1.04125 -5.0625 1.0625 C-3.70834367 1.08399454 -2.35243917 1.07148199 -1 1 C-0.67 0.67 -0.34 0.34 0 0 Z " fill="#E5D530" transform="translate(195,73)"/>
<path d="M0 0 C-0.875 3.875 -0.875 3.875 -2 5 C-4.33297433 5.04092937 -6.66705225 5.04241723 -9 5 C-9.33 3.68 -9.66 2.36 -10 1 C-2.25 0 -2.25 0 0 0 Z " fill="#E2D133" transform="translate(71,73)"/>
<path d="M0 0 C3.48247874 1.16082625 3.88819244 1.90932476 5.75 4.9375 C6.19859375 5.64777344 6.6471875 6.35804687 7.109375 7.08984375 C7.40328125 7.72019531 7.6971875 8.35054687 8 9 C7.67 9.66 7.34 10.32 7 11 C6.236875 10.21625 5.47375 9.4325 4.6875 8.625 C0.49043443 4.52554061 -2.24843811 3.65112021 -8 3 C-8 2.67 -8 2.34 -8 2 C-5.36 2 -2.72 2 0 2 C0 1.34 0 0.68 0 0 Z " fill="#433A87" transform="translate(191,43)"/>
<path d="M0 0 C2.52957603 0 4.99239506 0.11577759 7.5078125 0.375 C7.5078125 0.705 7.5078125 1.035 7.5078125 1.375 C5.93 1.4678125 5.93 1.4678125 4.3203125 1.5625 C-0.20647241 2.52722465 -1.69032006 3.7490539 -4.4921875 7.375 C-5.36457608 10.05290896 -5.36457608 10.05290896 -5.4921875 12.375 C-5.8221875 12.375 -6.1521875 12.375 -6.4921875 12.375 C-6.84255121 8.69618105 -6.52217933 6.44861631 -5.1171875 3 C-2.4921875 0.375 -2.4921875 0.375 0 0 Z " fill="#C1B042" transform="translate(106.4921875,90.625)"/>
<path d="M0 0 C2.64 0 5.28 0 8 0 C8 0.66 8 1.32 8 2 C7.34 2 6.68 2 6 2 C6.33 3.32 6.66 4.64 7 6 C5.68 6.33 4.36 6.66 3 7 C2.87625 6.030625 2.7525 5.06125 2.625 4.0625 C2.41875 3.051875 2.2125 2.04125 2 1 C1.34 0.67 0.68 0.34 0 0 Z " fill="#CEBC3A" transform="translate(131,113)"/>
<path d="M0 0 C0.66 0.99 1.32 1.98 2 3 C1.1875 5.3125 1.1875 5.3125 0 8 C-0.37593066 9.9924325 -0.71979545 11.9918674 -1 14 C-1.66 14 -2.32 14 -3 14 C-3.34615998 8.34605369 -2.43425238 4.96993194 0 0 Z " fill="#948356" transform="translate(133,95)"/>
<path d="M0 0 C2.6815279 3.07692746 3.42087807 5.19734663 3.6875 9.25 C3.75324219 10.14203125 3.81898437 11.0340625 3.88671875 11.953125 C3.92410156 12.62859375 3.96148437 13.3040625 4 14 C3.34 14 2.68 14 2 14 C1.814375 12.4221875 1.814375 12.4221875 1.625 10.8125 C1.15746422 7.09963555 1.15746422 7.09963555 -0.125 4.1875 C-0.41375 3.465625 -0.7025 2.74375 -1 2 C-0.67 1.34 -0.34 0.68 0 0 Z " fill="#8A7B5B" transform="translate(46,49)"/>
<path d="M0 0 C0.33 0 0.66 0 1 0 C1 4.95 1 9.9 1 15 C1.99 15.33 2.98 15.66 4 16 C3.34 16.66 2.68 17.32 2 18 C-0.125 17.625 -0.125 17.625 -2 17 C-1.34 16.67 -0.68 16.34 0 16 C0 10.72 0 5.44 0 0 Z " fill="#D9C228" transform="translate(203,69)"/>
<path d="M0 0 C0.33 0.66 0.66 1.32 1 2 C1.99 2.33 2.98 2.66 4 3 C3.2575 3.4125 2.515 3.825 1.75 4.25 C-0.90171685 5.93745618 -2.86674014 7.70872089 -5 10 C-4.56802365 5.2482602 -3.67230705 3.07999946 0 0 Z " fill="#4E4481" transform="translate(214,44)"/>
<path d="M0 0 C0.66 0 1.32 0 2 0 C1.27991594 4.60853797 -0.31295939 8.67237409 -2 13 C-2.33 12.01 -2.66 11.02 -3 10 C-3.99 9.67 -4.98 9.34 -6 9 C-5.38125 8.443125 -4.7625 7.88625 -4.125 7.3125 C-1.93893621 4.93354822 -1.01214301 3.03642904 0 0 Z " fill="#665976" transform="translate(199,69)"/>
<path d="M0 0 C0.99 0.33 1.98 0.66 3 1 C2.67 1.99 2.34 2.98 2 4 C4.31 4.33 6.62 4.66 9 5 C9 5.33 9 5.66 9 6 C6.36 6 3.72 6 1 6 C0.67 6.66 0.34 7.32 0 8 C-1.43088528 5.13822943 -0.59991697 3.06624227 0 0 Z " fill="#998A5B" transform="translate(60,68)"/>
<path d="M0 0 C3.63 0 7.26 0 11 0 C10.67 1.98 10.34 3.96 10 6 C9.01 6 8.02 6 7 6 C7.66 4.68 8.32 3.36 9 2 C6.36 2 3.72 2 1 2 C0.67 1.34 0.34 0.68 0 0 Z " fill="#493E82" transform="translate(213,72)"/>
<path d="M0 0 C0.99 0 1.98 0 3 0 C3.56016748 1.40945366 4.09748502 2.8280031 4.625 4.25 C4.92664063 5.03890625 5.22828125 5.8278125 5.5390625 6.640625 C6.09752136 9.49917715 5.53690745 10.58959839 4 13 C3.51891725 11.58398286 3.04021859 10.16715563 2.5625 8.75 C2.29566406 7.96109375 2.02882812 7.1721875 1.75390625 6.359375 C1.08045292 4.25178012 0.50849405 2.15246027 0 0 Z " fill="#71646E" transform="translate(206,69)"/>
<path d="M0 0 C2.49505962 2.49505962 2.35948376 3.67328888 2.625 7.125 C2.69976562 8.03507812 2.77453125 8.94515625 2.8515625 9.8828125 C2.92503906 10.93082031 2.92503906 10.93082031 3 12 C2.34 12 1.68 12 1 12 C0.63762737 10.37681021 0.28534843 8.7513642 -0.0625 7.125 C-0.25972656 6.22007813 -0.45695312 5.31515625 -0.66015625 4.3828125 C-1 2 -1 2 0 0 Z " fill="#978653" transform="translate(123,97)"/>
<path d="M0 0 C2.97 0.495 2.97 0.495 6 1 C5.34 1.66 4.68 2.32 4 3 C5.32 3.66 6.64 4.32 8 5 C5.69 5 3.38 5 1 5 C0.67 3.35 0.34 1.7 0 0 Z " fill="#D2C23B" transform="translate(110,119)"/>
<path d="M0 0 C3 1 3 1 4 3 C4.13415472 5.6723621 4.04318541 8.32250488 4 11 C2.03698408 7.49461443 1.04097612 3.86648272 0 0 Z " fill="#938255" transform="translate(197,53)"/>
<path d="M0 0 C0.66 0.33 1.32 0.66 2 1 C0.38405168 3.04119788 -1.2856382 5.04072937 -3 7 C-3.66 7 -4.32 7 -5 7 C-3.70700306 4.11562221 -2.34058637 2.12780579 0 0 Z " fill="#D4C33B" transform="translate(215,47)"/>
<path d="M0 0 C0.66 0.33 1.32 0.66 2 1 C0.38405168 3.04119788 -1.2856382 5.04072937 -3 7 C-3.66 7 -4.32 7 -5 7 C-3.70700306 4.11562221 -2.34058637 2.12780579 0 0 Z " fill="#D7C639" transform="translate(64,46)"/>
<path d="M0 0 C2.64 0 5.28 0 8 0 C7.67 1.32 7.34 2.64 7 4 C6.67 3.34 6.34 2.68 6 2 C2.97065509 1.34227572 2.97065509 1.34227572 0 1 C0 0.67 0 0.34 0 0 Z " fill="#BFAF43" transform="translate(214,74)"/>
</svg>
