<?xml version="1.0" encoding="UTF-8"?>
<svg version="1.1" xmlns="http://www.w3.org/2000/svg" width="256" height="154">
<path d="M0 0 C84.48 0 168.96 0 256 0 C256 50.82 256 101.64 256 154 C171.52 154 87.04 154 0 154 C0 103.18 0 52.36 0 0 Z " fill="#241F20" transform="translate(0,0)"/>
<path d="M0 0 C42.24 0 84.48 0 128 0 C128 19.8 128 39.6 128 60 C125.69 62.31 123.38 64.62 121 67 C115.97283634 73.74698281 115.10355738 79.67917366 116 88 C116.89270077 90.29551628 117.91302381 92.26244861 119.22265625 94.34375 C120 96 120 96 119 99 C118.071875 98.360625 117.14375 97.72125 116.1875 97.0625 C111.18769539 93.82733231 106.83139431 93.25493258 101 94 C96.72596143 96.22438719 96.72596143 96.22438719 94 100 C93.3585011 105.87858703 93.3585011 105.87858703 96.125 110.875 C99.06062306 113.04480835 101.4810291 114.09979814 105 115 C104.979375 114.05125 104.95875 113.1025 104.9375 112.125 C105 109 105 109 106 107 C113.30434783 106.63478261 113.30434783 106.63478261 116.5 108.3125 C118 110 118 110 118 113 C117.01 113 116.02 113 115 113 C115 115.31 115 117.62 115 120 C116.98 120.495 116.98 120.495 119 121 C116.21000549 124.48749314 113.74764169 127.50157221 110 130 C110.60328125 129.79503906 111.2065625 129.59007812 111.828125 129.37890625 C112.62734375 129.10949219 113.4265625 128.84007812 114.25 128.5625 C115.03890625 128.29566406 115.8278125 128.02882812 116.640625 127.75390625 C118.74821988 127.08045292 120.84753973 126.50849405 123 126 C121.63016497 129.16115776 121.0109362 129.9927092 118 132 C118.33 132.99 118.66 133.98 119 135 C119.78375 135.268125 120.5675 135.53625 121.375 135.8125 C124.93752109 137.42411668 125.50660928 139.4905318 127 143 C127.33 143.33 127.66 143.66 128 144 C128 147.3 128 150.6 128 154 C85.76 154 43.52 154 0 154 C0 103.18 0 52.36 0 0 Z " fill="#1478C5" transform="translate(0,0)"/>
<path d="M0 0 C3.57784769 1.27994133 5.64226598 3.50408414 8.125 6.3125 C9.14980469 7.45138672 9.14980469 7.45138672 10.1953125 8.61328125 C14.68821102 14.55518817 14.89919965 20.78894264 14 28 C12.65809666 31.86206327 10.97195737 35.42230591 9 39 C9.886875 38.21625 10.77375 37.4325 11.6875 36.625 C15.82758927 33.23590367 18.95089375 31.76137604 24.375 32 C28.70227458 32.63785622 31.59386279 34.07929034 34.73828125 37.12109375 C36.6918262 40.03024274 36.84619992 42.4420539 36.55078125 45.8828125 C35.62445688 49.44357711 33.96474221 50.91837249 31 53 C28.65592425 53.92019503 26.47756322 54.46562362 24 55 C23.34 52.69 22.68 50.38 22 48 C17.97869285 47.72364839 17.97869285 47.72364839 14 48 C11.94729537 49.84188612 11.94729537 49.84188612 11 52 C11.99 52 12.98 52 14 52 C14 54.64 14 57.28 14 60 C13.01 60 12.02 60 11 60 C13.40016348 64.94151304 16.52273027 67.04331244 21 70 C17.30962722 71.37095624 15.29116165 70.60010967 11.75 69.0625 C10.85796875 68.68222656 9.9659375 68.30195312 9.046875 67.91015625 C8.37140625 67.60980469 7.6959375 67.30945313 7 67 C7.61875 67.61875 8.2375 68.2375 8.875 68.875 C10.25 70.25 11.625 71.625 13 73 C11.75 74.5 11.75 74.5 10 76 C8.68 76 7.36 76 6 76 C5.71125 76.763125 5.4225 77.52625 5.125 78.3125 C4 81 4 81 2 84 C-1.16115776 82.63016497 -1.9927092 82.0109362 -4 79 C-4 78.01 -4 77.02 -4 76 C-4.78375 75.896875 -5.5675 75.79375 -6.375 75.6875 C-9 75 -9 75 -11 72 C-10.175 71.54625 -9.35 71.0925 -8.5 70.625 C-7.675 70.08875 -6.85 69.5525 -6 69 C-6 68.34 -6 67.68 -6 67 C-6.90492188 67.45052734 -6.90492188 67.45052734 -7.828125 67.91015625 C-8.62734375 68.29042969 -9.4265625 68.67070313 -10.25 69.0625 C-11.03890625 69.44535156 -11.8278125 69.82820313 -12.640625 70.22265625 C-15.25993522 71.08564091 -16.44855176 70.93045933 -19 70 C-18.44570312 69.61328125 -17.89140625 69.2265625 -17.3203125 68.828125 C-16.23363281 68.04695313 -16.23363281 68.04695313 -15.125 67.25 C-14.04605469 66.48429687 -14.04605469 66.48429687 -12.9453125 65.703125 C-10.91429435 63.92496453 -10.02144988 62.47298393 -9 60 C-10.32 60 -11.64 60 -13 60 C-13 57.69 -13 55.38 -13 53 C-11.02 52.505 -11.02 52.505 -9 52 C-12.18537648 48.18206929 -12.18537648 48.18206929 -16.6875 46.5625 C-19.18582291 46.81026503 -19.18582291 46.81026503 -21 49 C-21.39764263 50.98821313 -21.73775349 52.98944339 -22 55 C-26.866909 54.54726428 -29.4419325 53.35474936 -33 50 C-34.77043038 46.45913924 -34.76789731 42.84593947 -34 39 C-31.68842363 35.49278068 -28.769196 33.58762582 -24.8125 32.2734375 C-18.88474316 31.22373056 -14.99524775 32.90941506 -10 36 C-9.34 36.33 -8.68 36.66 -8 37 C-8.3609375 36.21496094 -8.721875 35.42992187 -9.09375 34.62109375 C-14.5985292 22.15888529 -14.5985292 22.15888529 -12.078125 15.6015625 C-9.42716063 9.86928241 -5.88143651 2.94071825 0 0 Z " fill="#F8DD15" transform="translate(191,11)"/>
<path d="M0 0 C6.13393979 2.59354501 11.1364165 8.61611129 14 14.5625 C16.65389971 23.68528026 13.89663343 29.65007123 10 38 C10.76570313 37.36707031 11.53140625 36.73414063 12.3203125 36.08203125 C16.34033933 32.95859933 19.40662554 31.94309377 24.5 32.125 C29.72845822 33.43211455 33.0088945 35.51334174 36 40 C36.60163448 43.08916165 36.61757736 45.91211318 36 49 C32.40658008 53.10676563 29.42124698 54.61276807 24 55 C23.34 52.69 22.68 50.38 22 48 C17.97869285 47.72364839 17.97869285 47.72364839 14 48 C11.94729537 49.84188612 11.94729537 49.84188612 11 52 C12.32 52.33 13.64 52.66 15 53 C15 55.31 15 57.62 15 60 C13.02 60.495 13.02 60.495 11 61 C11.721875 61.721875 12.44375 62.44375 13.1875 63.1875 C15.79166667 65.79166667 18.39583333 68.39583333 21 71 C15.58609132 70.53328373 11.79482068 69.75702189 7 67 C9.71604715 69.87420123 9.71604715 69.87420123 13 72 C12.505 73.485 12.505 73.485 12 75 C9.03 75.495 9.03 75.495 6 76 C5.896875 76.763125 5.79375 77.52625 5.6875 78.3125 C4.95635961 81.17059424 4.23048087 82.15742885 2 84 C0.0625 83.3125 0.0625 83.3125 -2 82 C-2.75 79.375 -2.75 79.375 -3 77 C-3.78375 76.9175 -4.5675 76.835 -5.375 76.75 C-8 76 -8 76 -9.3125 73.9375 C-9.6528125 72.9784375 -9.6528125 72.9784375 -10 72 C-9.195625 71.38125 -8.39125 70.7625 -7.5625 70.125 C-4.96125481 68.25835959 -4.96125481 68.25835959 -4 66 C-4.75925781 66.37253906 -5.51851562 66.74507813 -6.30078125 67.12890625 C-7.79158203 67.83853516 -7.79158203 67.83853516 -9.3125 68.5625 C-10.29863281 69.03816406 -11.28476563 69.51382813 -12.30078125 70.00390625 C-15 71 -15 71 -18 70 C-17.43410156 69.51789063 -16.86820313 69.03578125 -16.28515625 68.5390625 C-15.18494141 67.59160156 -15.18494141 67.59160156 -14.0625 66.625 C-13.33160156 65.99851562 -12.60070312 65.37203125 -11.84765625 64.7265625 C-9.91619094 63.12252286 -9.91619094 63.12252286 -9 61 C-10.485 60.505 -10.485 60.505 -12 60 C-12 57.69 -12 55.38 -12 53 C-11.01 53 -10.02 53 -9 53 C-9.63430953 50.97802995 -9.63430953 50.97802995 -11 49 C-13.40404738 48.08400573 -13.40404738 48.08400573 -16.125 47.75 C-17.03507812 47.60046875 -17.94515625 47.4509375 -18.8828125 47.296875 C-19.58148438 47.19890625 -20.28015625 47.1009375 -21 47 C-21.33 49.64 -21.66 52.28 -22 55 C-26.866909 54.54726428 -29.4419325 53.35474936 -33 50 C-34.60306924 46.79386153 -34.48740461 43.47860003 -34 40 C-31.81880724 36.4166119 -29.82453305 34.60292929 -26 33 C-19.30671864 31.91800339 -14.74427221 33.65787799 -9 37 C-8.74275212 33.9428338 -8.74275212 33.9428338 -10.5 31.5 C-13.0588527 25.5293437 -12.69897568 19.65610759 -11.0625 13.4375 C-8.48743631 8.26212689 -3.9614552 4.12755395 0 0 Z " fill="#F7DE16" transform="translate(127,60)"/>
<path d="M0 0 C6.58429291 2.13819821 9.62916689 7.09852377 13.11328125 12.83203125 C15.36840167 17.39571096 15.92106643 22.04104411 15 27 C13.60453879 30.19308658 11.92168154 33.09688824 10 36 C10.33 36.33 10.66 36.66 11 37 C11.763125 36.34 12.52625 35.68 13.3125 35 C17.82767018 31.99703646 22.78554856 32.20969681 28 33 C31.26438633 34.38332411 33.5000877 36.5000877 36 39 C36.57050601 42.05671112 36.52437225 44.93851356 36 48 C33.48606596 51.28208056 30.90363346 53.56866773 27 55 C26.01 55 25.02 55 24 55 C23.34 52.69 22.68 50.38 22 48 C19.03 47.67 16.06 47.34 13 47 C12.34 48.65 11.68 50.3 11 52 C12.32 52.33 13.64 52.66 15 53 C15 55.31 15 57.62 15 60 C13.68 60 12.36 60 11 60 C13.10303704 64.32978214 15.6499373 66.41693621 19.57421875 68.984375 C20.04472656 69.31953125 20.51523438 69.6546875 21 70 C21 70.33 21 70.66 21 71 C15.29290936 70.53411505 11.84060277 69.06242216 7 66 C8.13304992 69.39914975 9.12518475 70.05254451 12 72 C11.34 73.32 10.68 74.64 10 76 C8.68 76 7.36 76 6 76 C5.7525 76.94875 5.505 77.8975 5.25 78.875 C4 82 4 82 1.875 83.375 C0.946875 83.684375 0.946875 83.684375 0 84 C-4 78.25 -4 78.25 -4 76 C-5.65 75.67 -7.3 75.34 -9 75 C-9.33 73.68 -9.66 72.36 -10 71 C-9.195625 70.54625 -8.39125 70.0925 -7.5625 69.625 C-4.91143428 68.25274335 -4.91143428 68.25274335 -4 66 C-4.74765625 66.37253906 -5.4953125 66.74507813 -6.265625 67.12890625 C-7.25046875 67.60199219 -8.2353125 68.07507813 -9.25 68.5625 C-10.22453125 69.03816406 -11.1990625 69.51382813 -12.203125 70.00390625 C-15.09856297 71.03510273 -16.19966161 71.11346788 -19 70 C-17.3603125 68.9171875 -17.3603125 68.9171875 -15.6875 67.8125 C-12.54589128 65.58666387 -10.70635567 63.51308521 -9 60 C-9.99 60 -10.98 60 -12 60 C-12 57.36 -12 54.72 -12 52 C-11.01 52 -10.02 52 -9 52 C-10.52791204 49.35832772 -10.52791204 49.35832772 -13 47 C-16.58461856 46.41630557 -16.58461856 46.41630557 -20 47 C-22.35953094 49.35953094 -22.49141413 50.77895617 -23 54 C-30.36817654 52.67131243 -30.36817654 52.67131243 -33 49.875 C-34.30897543 46.11169563 -35.01921085 42.87300124 -34 39 C-32.14080937 36.09769912 -30.11132405 34.46446804 -27 33 C-18.97694175 31.59712421 -13.63982903 33.57344731 -7 38 C-7.54140625 37.07380859 -7.54140625 37.07380859 -8.09375 36.12890625 C-11.36741737 30.1544633 -12.86469629 25.78168949 -12 19 C-11.855625 17.700625 -11.71125 16.40125 -11.5625 15.0625 C-9.88309085 8.84617955 -4.41641019 4.41641019 0 0 Z " fill="#F8E018" transform="translate(63,11)"/>
<path d="M0 0 C2.82089352 2.05988168 4.53688537 3.70806124 5.46875 7.12890625 C5.72653697 11.30226831 5.2326228 13.38021809 2.80078125 16.84375 C-0.59996776 19.23150994 -3.10612959 20.03690724 -7.13671875 20.90625 C-7.79671875 18.59625 -8.45671875 16.28625 -9.13671875 13.90625 C-13.1580259 13.62989839 -13.1580259 13.62989839 -17.13671875 13.90625 C-19.18942338 15.74813612 -19.18942338 15.74813612 -20.13671875 17.90625 C-19.14671875 17.90625 -18.15671875 17.90625 -17.13671875 17.90625 C-17.13671875 20.54625 -17.13671875 23.18625 -17.13671875 25.90625 C-18.12671875 25.90625 -19.11671875 25.90625 -20.13671875 25.90625 C-17.73655527 30.84776304 -14.61398848 32.94956244 -10.13671875 35.90625 C-13.82709153 37.27720624 -15.8455571 36.50635967 -19.38671875 34.96875 C-20.27875 34.58847656 -21.17078125 34.20820312 -22.08984375 33.81640625 C-22.7653125 33.51605469 -23.44078125 33.21570313 -24.13671875 32.90625 C-23.20859375 33.834375 -23.20859375 33.834375 -22.26171875 34.78125 C-20.88671875 36.15625 -19.51171875 37.53125 -18.13671875 38.90625 C-19.38671875 40.40625 -19.38671875 40.40625 -21.13671875 41.90625 C-22.45671875 41.90625 -23.77671875 41.90625 -25.13671875 41.90625 C-25.42546875 42.669375 -25.71421875 43.4325 -26.01171875 44.21875 C-27.13671875 46.90625 -27.13671875 46.90625 -29.13671875 49.90625 C-32.29787651 48.53641497 -33.12942795 47.9171862 -35.13671875 44.90625 C-35.13671875 43.91625 -35.13671875 42.92625 -35.13671875 41.90625 C-35.92046875 41.803125 -36.70421875 41.7 -37.51171875 41.59375 C-40.13671875 40.90625 -40.13671875 40.90625 -42.13671875 37.90625 C-41.31171875 37.4525 -40.48671875 36.99875 -39.63671875 36.53125 C-38.81171875 35.995 -37.98671875 35.45875 -37.13671875 34.90625 C-37.13671875 34.24625 -37.13671875 33.58625 -37.13671875 32.90625 C-37.74 33.20660156 -38.34328125 33.50695312 -38.96484375 33.81640625 C-39.7640625 34.19667969 -40.56328125 34.57695313 -41.38671875 34.96875 C-42.175625 35.35160156 -42.96453125 35.73445313 -43.77734375 36.12890625 C-46.39665397 36.99189091 -47.58527051 36.83670933 -50.13671875 35.90625 C-49.58242187 35.51953125 -49.028125 35.1328125 -48.45703125 34.734375 C-47.37035156 33.95320313 -47.37035156 33.95320313 -46.26171875 33.15625 C-45.18277344 32.39054687 -45.18277344 32.39054687 -44.08203125 31.609375 C-42.0510131 29.83121453 -41.15816863 28.37923393 -40.13671875 25.90625 C-41.45671875 25.90625 -42.77671875 25.90625 -44.13671875 25.90625 C-44.13671875 23.59625 -44.13671875 21.28625 -44.13671875 18.90625 C-42.81671875 18.57625 -41.49671875 18.24625 -40.13671875 17.90625 C-41.12671875 16.25625 -42.11671875 14.60625 -43.13671875 12.90625 C-42.14671875 12.57625 -41.15671875 12.24625 -40.13671875 11.90625 C-39.80671875 13.22625 -39.47671875 14.54625 -39.13671875 15.90625 C-38.47671875 15.57625 -37.81671875 15.24625 -37.13671875 14.90625 C-36.72942647 12.58468403 -36.39233198 10.2493713 -36.13671875 7.90625 C-34.13671875 8.90625 -34.13671875 8.90625 -33.01171875 11.21875 C-32.13671875 13.90625 -32.13671875 13.90625 -32.13671875 17.90625 C-30.81671875 17.90625 -29.49671875 17.90625 -28.13671875 17.90625 C-28.01296875 16.895625 -27.88921875 15.885 -27.76171875 14.84375 C-27.1558654 11.02687388 -26.26477963 7.59124888 -25.13671875 3.90625 C-23.81671875 3.90625 -22.49671875 3.90625 -21.13671875 3.90625 C-19.44496212 2.60489875 -17.7796707 1.26869796 -16.13671875 -0.09375 C-10.98550067 -3.09862721 -5.22632348 -2.67526613 0 0 Z " fill="#F3DA18" transform="translate(222.13671875,45.09375)"/>
<path d="M0 0 C3.26700671 1.37524196 5.50120199 3.50120199 8 6 C8.57050601 9.05671112 8.52437225 11.93851356 8 15 C5.48606596 18.28208056 2.90363346 20.56866773 -1 22 C-1.99 22 -2.98 22 -4 22 C-4.66 19.69 -5.32 17.38 -6 15 C-8.97 14.67 -11.94 14.34 -15 14 C-15.66 15.65 -16.32 17.3 -17 19 C-15.68 19.33 -14.36 19.66 -13 20 C-13 22.31 -13 24.62 -13 27 C-14.32 27 -15.64 27 -17 27 C-14.89696296 31.32978214 -12.3500627 33.41693621 -8.42578125 35.984375 C-7.95527344 36.31953125 -7.48476562 36.6546875 -7 37 C-7 37.33 -7 37.66 -7 38 C-12.70709064 37.53411505 -16.15939723 36.06242216 -21 33 C-19.86695008 36.39914975 -18.87481525 37.05254451 -16 39 C-16.66 40.32 -17.32 41.64 -18 43 C-19.32 43 -20.64 43 -22 43 C-22.2475 43.94875 -22.495 44.8975 -22.75 45.875 C-24 49 -24 49 -26.125 50.375 C-26.74375 50.58125 -27.3625 50.7875 -28 51 C-32 45.25 -32 45.25 -32 43 C-33.65 42.67 -35.3 42.34 -37 42 C-37.33 40.68 -37.66 39.36 -38 38 C-37.195625 37.54625 -36.39125 37.0925 -35.5625 36.625 C-32.91143428 35.25274335 -32.91143428 35.25274335 -32 33 C-32.74765625 33.37253906 -33.4953125 33.74507812 -34.265625 34.12890625 C-35.25046875 34.60199219 -36.2353125 35.07507813 -37.25 35.5625 C-38.22453125 36.03816406 -39.1990625 36.51382813 -40.203125 37.00390625 C-43.09856297 38.03510273 -44.19966161 38.11346788 -47 37 C-45.906875 36.278125 -44.81375 35.55625 -43.6875 34.8125 C-40.54589128 32.58666387 -38.70635567 30.51308521 -37 27 C-37.99 27 -38.98 27 -40 27 C-40 24.36 -40 21.72 -40 19 C-36.42355152 17.7619986 -33.66305234 18.25073929 -30 19 C-29.67 18.34 -29.34 17.68 -29 17 C-29 17.66 -29 18.32 -29 19 C-27.68 19 -26.36 19 -25 19 C-24.9175 17.989375 -24.835 16.97875 -24.75 15.9375 C-24.11751274 11.55463055 -22.50357241 8.64806266 -20 5 C-18.0625 3.75 -18.0625 3.75 -16 3 C-14.9790625 2.195625 -14.9790625 2.195625 -13.9375 1.375 C-9.3759206 -0.76020738 -4.94763398 -0.67467736 0 0 Z " fill="#F5E326" transform="translate(91,44)"/>
<path d="M0 0 C1.35598694 0.68800075 2.69693091 1.40703441 4.015625 2.1640625 C5.88804955 3.290961 5.88804955 3.290961 8.7421875 4.13671875 C11.67496639 8.76148547 12.28228241 12.80181968 12.7421875 18.13671875 C14.7221875 18.13671875 16.7021875 18.13671875 18.7421875 18.13671875 C18.92394531 17.19699219 18.92394531 17.19699219 19.109375 16.23828125 C19.27695313 15.42101562 19.44453125 14.60375 19.6171875 13.76171875 C19.77960938 12.94960937 19.94203125 12.1375 20.109375 11.30078125 C20.7421875 9.13671875 20.7421875 9.13671875 22.7421875 7.13671875 C22.0821875 10.76671875 21.4221875 14.39671875 20.7421875 18.13671875 C23.7121875 18.46671875 26.6821875 18.79671875 29.7421875 19.13671875 C29.7421875 21.44671875 29.7421875 23.75671875 29.7421875 26.13671875 C28.4221875 26.46671875 27.1021875 26.79671875 25.7421875 27.13671875 C26.4640625 27.85859375 27.1859375 28.58046875 27.9296875 29.32421875 C30.53385417 31.92838542 33.13802083 34.53255208 35.7421875 37.13671875 C30.32827882 36.67000248 26.53700818 35.89374064 21.7421875 33.13671875 C24.45823465 36.01091998 24.45823465 36.01091998 27.7421875 38.13671875 C27.4121875 39.12671875 27.0821875 40.11671875 26.7421875 41.13671875 C23.7721875 41.63171875 23.7721875 41.63171875 20.7421875 42.13671875 C20.6390625 42.89984375 20.5359375 43.66296875 20.4296875 44.44921875 C19.69854711 47.30731299 18.97266837 48.2941476 16.7421875 50.13671875 C14.8046875 49.44921875 14.8046875 49.44921875 12.7421875 48.13671875 C11.9921875 45.51171875 11.9921875 45.51171875 11.7421875 43.13671875 C10.9584375 43.05421875 10.1746875 42.97171875 9.3671875 42.88671875 C6.7421875 42.13671875 6.7421875 42.13671875 5.4296875 40.07421875 C5.089375 39.11515625 5.089375 39.11515625 4.7421875 38.13671875 C5.94875 37.20859375 5.94875 37.20859375 7.1796875 36.26171875 C9.78093269 34.39507834 9.78093269 34.39507834 10.7421875 32.13671875 C9.98292969 32.50925781 9.22367188 32.88179687 8.44140625 33.265625 C7.44753906 33.73871094 6.45367187 34.21179688 5.4296875 34.69921875 C4.44355469 35.17488281 3.45742187 35.65054688 2.44140625 36.140625 C-0.2578125 37.13671875 -0.2578125 37.13671875 -3.2578125 36.13671875 C-2.69191406 35.65460938 -2.12601563 35.1725 -1.54296875 34.67578125 C-0.80949219 34.04414062 -0.07601562 33.4125 0.6796875 32.76171875 C1.41058594 32.13523438 2.14148438 31.50875 2.89453125 30.86328125 C4.82599656 29.25924161 4.82599656 29.25924161 5.7421875 27.13671875 C4.7521875 26.80671875 3.7621875 26.47671875 2.7421875 26.13671875 C2.7421875 23.82671875 2.7421875 21.51671875 2.7421875 19.13671875 C3.7321875 19.13671875 4.7221875 19.13671875 5.7421875 19.13671875 C5.10787797 17.1147487 5.10787797 17.1147487 3.7421875 15.13671875 C1.33814012 14.22072448 1.33814012 14.22072448 -1.3828125 13.88671875 C-2.74792969 13.66242188 -2.74792969 13.66242188 -4.140625 13.43359375 C-4.83929688 13.335625 -5.53796875 13.23765625 -6.2578125 13.13671875 C-6.5878125 15.77671875 -6.9178125 18.41671875 -7.2578125 21.13671875 C-12.1247215 20.68398303 -14.699745 19.49146811 -18.2578125 16.13671875 C-19.86088174 12.93058028 -19.74521711 9.61531878 -19.2578125 6.13671875 C-14.92720084 -0.97785755 -7.74098673 -2.95978904 0 0 Z " fill="#ECD921" transform="translate(112.2578125,93.86328125)"/>
<path d="M0 0 C0.33 0 0.66 0 1 0 C1 1.98 1 3.96 1 6 C9.58 6 18.16 6 27 6 C26.01 6.33 25.02 6.66 24 7 C26.40016348 11.94151304 29.52273027 14.04331244 34 17 C30.30962722 18.37095624 28.29116165 17.60010967 24.75 16.0625 C23.41195312 15.49208984 23.41195312 15.49208984 22.046875 14.91015625 C21.37140625 14.60980469 20.6959375 14.30945313 20 14 C20.61875 14.61875 21.2375 15.2375 21.875 15.875 C23.25 17.25 24.625 18.625 26 20 C24.75 21.5 24.75 21.5 23 23 C21.68 23 20.36 23 19 23 C18.71125 23.763125 18.4225 24.52625 18.125 25.3125 C17 28 17 28 15 31 C11.83884224 29.63016497 11.0072908 29.0109362 9 26 C9 25.01 9 24.02 9 23 C8.21625 22.896875 7.4325 22.79375 6.625 22.6875 C4 22 4 22 2 19 C2.825 18.54625 3.65 18.0925 4.5 17.625 C5.325 17.08875 6.15 16.5525 7 16 C7 15.34 7 14.68 7 14 C6.39671875 14.30035156 5.7934375 14.60070312 5.171875 14.91015625 C3.97304687 15.48056641 3.97304687 15.48056641 2.75 16.0625 C1.96109375 16.44535156 1.1721875 16.82820313 0.359375 17.22265625 C-2.25993522 18.08564091 -3.44855176 17.93045933 -6 17 C-5.44570312 16.61328125 -4.89140625 16.2265625 -4.3203125 15.828125 C-3.59585938 15.30734375 -2.87140625 14.7865625 -2.125 14.25 C-1.40570313 13.73953125 -0.68640625 13.2290625 0.0546875 12.703125 C2.08570565 10.92496453 2.97855012 9.47298393 4 7 C2.68 7 1.36 7 0 7 C0 4.69 0 2.38 0 0 Z " fill="#F5DC18" transform="translate(178,64)"/>
<path d="M0 0 C4.83696751 0.64262568 7.32858125 2.9574875 10.734375 6.36328125 C11.30488101 9.41999237 11.25874725 12.30179481 10.734375 15.36328125 C8.22044096 18.64536181 5.63800846 20.93194898 1.734375 22.36328125 C0.744375 22.36328125 -0.245625 22.36328125 -1.265625 22.36328125 C-1.925625 20.05328125 -2.585625 17.74328125 -3.265625 15.36328125 C-6.235625 15.03328125 -9.205625 14.70328125 -12.265625 14.36328125 C-12.925625 15.68328125 -13.585625 17.00328125 -14.265625 18.36328125 C-15.265625 19.36328125 -15.265625 19.36328125 -18.328125 19.42578125 C-19.2975 19.40515625 -20.266875 19.38453125 -21.265625 19.36328125 C-19.989903 14.83545963 -18.33199972 11.7837872 -15.328125 8.17578125 C-14.29365234 6.91701172 -14.29365234 6.91701172 -13.23828125 5.6328125 C-12.26181641 4.50939453 -12.26181641 4.50939453 -11.265625 3.36328125 C-10.56179687 2.48542969 -10.56179687 2.48542969 -9.84375 1.58984375 C-6.91595689 -0.68571822 -3.5563752 -0.0893798 0 0 Z " fill="#F8E017" transform="translate(88.265625,43.63671875)"/>
<path d="M0 0 C2.64 0 5.28 0 8 0 C8.2475 0.9075 8.495 1.815 8.75 2.75 C10.2845409 6.73980634 12.16127596 9.08063798 16 11 C15.67 11.99 15.34 12.98 15 14 C13.02 14.33 11.04 14.66 9 15 C8.8453125 16.1446875 8.8453125 16.1446875 8.6875 17.3125 C7.95635961 20.17059424 7.23048087 21.15742885 5 23 C3.0625 22.3125 3.0625 22.3125 1 21 C0.25 18.375 0.25 18.375 0 16 C-0.78375 15.9175 -1.5675 15.835 -2.375 15.75 C-5 15 -5 15 -6.3125 12.9375 C-6.539375 12.298125 -6.76625 11.65875 -7 11 C-5.5459375 9.948125 -5.5459375 9.948125 -4.0625 8.875 C-1.44842775 6.72838538 -1.03741594 6.14164606 -0.125 2.6875 C-0.08375 1.800625 -0.0425 0.91375 0 0 Z " fill="#F1DC1D" transform="translate(124,121)"/>
<path d="M0 0 C1.98 0 3.96 0 6 0 C6.33 2.31 6.66 4.62 7 7 C7.66 7 8.32 7 9 7 C10.70680947 8.62553283 12.37660195 10.29115995 14 12 C13.34 13.32 12.68 14.64 12 16 C10.68 16 9.36 16 8 16 C7.7525 16.94875 7.505 17.8975 7.25 18.875 C6 22 6 22 3.875 23.375 C3.25625 23.58125 2.6375 23.7875 2 24 C-2 18.25 -2 18.25 -2 16 C-3.65 15.67 -5.3 15.34 -7 15 C-7.33 13.68 -7.66 12.36 -8 11 C-7.236875 10.67 -6.47375 10.34 -5.6875 10 C-1.88938975 7.17349935 -1.3935615 4.47406586 0 0 Z " fill="#F6DF1B" transform="translate(61,71)"/>
<path d="M0 0 C0.33 0 0.66 0 1 0 C1 2.31 1 4.62 1 7 C-0.32 7 -1.64 7 -3 7 C-0.89696296 11.32978214 1.6499373 13.41693621 5.57421875 15.984375 C6.04472656 16.31953125 6.51523438 16.6546875 7 17 C7 17.33 7 17.66 7 18 C2.76147632 17.65399807 -0.15925827 17.1007145 -3.8125 14.875 C-4.864375 14.25625 -5.91625 13.6375 -7 13 C-7.99 13.495 -7.99 13.495 -9 14 C-9.33 11.69 -9.66 9.38 -10 7 C-11.98 7 -13.96 7 -16 7 C-16.06767578 8.39412109 -16.06767578 8.39412109 -16.13671875 9.81640625 C-17 13 -17 13 -19.58203125 14.71484375 C-20.64808594 15.11832031 -21.71414062 15.52179688 -22.8125 15.9375 C-24.39998047 16.56978516 -24.39998047 16.56978516 -26.01953125 17.21484375 C-28.94150831 17.98459131 -30.23580692 18.0775668 -33 17 C-31.906875 16.278125 -30.81375 15.55625 -29.6875 14.8125 C-26.54589128 12.58666387 -24.70635567 10.51308521 -23 7 C-23.99 6.67 -24.98 6.34 -26 6 C-17.42 6 -8.84 6 0 6 C0 4.02 0 2.04 0 0 Z " fill="#E9DB2B" transform="translate(77,64)"/>
<path d="M0 0 C0.33 0 0.66 0 1 0 C1 2.31 1 4.62 1 7 C-0.32 7.33 -1.64 7.66 -3 8 C-1.9171875 9.0828125 -1.9171875 9.0828125 -0.8125 10.1875 C1.79166667 12.79166667 4.39583333 15.39583333 7 18 C0.79011871 17.55643705 -3.60540561 16.08467498 -9 13 C-9 11.35 -9 9.7 -9 8 C-11.64 8 -14.28 8 -17 8 C-17 9.98 -17 11.96 -17 14 C-17.680625 14.103125 -18.36125 14.20625 -19.0625 14.3125 C-22.18585101 14.94520213 -22.18585101 14.94520213 -25.625 16.625 C-29 18 -29 18 -32 17 C-31.43410156 16.51789063 -30.86820312 16.03578125 -30.28515625 15.5390625 C-29.18494141 14.59160156 -29.18494141 14.59160156 -28.0625 13.625 C-27.33160156 12.99851562 -26.60070312 12.37203125 -25.84765625 11.7265625 C-23.91619094 10.12252286 -23.91619094 10.12252286 -23 8 C-23.99 7.34 -24.98 6.68 -26 6 C-17.42 6 -8.84 6 0 6 C0 4.02 0 2.04 0 0 Z " fill="#C1B940" transform="translate(141,113)"/>
<path d="M0 0 C8.58 0 17.16 0 26 0 C26 1.98 26 3.96 26 6 C17.42 6 8.84 6 0 6 C0 4.02 0 2.04 0 0 Z " fill="#F7E019" transform="translate(115,113)"/>
<path d="M0 0 C8.58 0 17.16 0 26 0 C26 1.98 26 3.96 26 6 C17.42 6 8.84 6 0 6 C0 4.02 0 2.04 0 0 Z " fill="#F9E11E" transform="translate(179,64)"/>
<path d="M0 0 C0.33 0 0.66 0 1 0 C1 1.98 1 3.96 1 6 C9.58 6 18.16 6 27 6 C26.01 6.33 25.02 6.66 24 7 C26.40016348 11.94151304 29.52273027 14.04331244 34 17 C30.30962722 18.37095624 28.29116165 17.60010967 24.75 16.0625 C23.41195312 15.49208984 23.41195312 15.49208984 22.046875 14.91015625 C21.37140625 14.60980469 20.6959375 14.30945313 20 14 C20 14.66 20 15.32 20 16 C19.01 15.67 18.02 15.34 17 15 C17 12.36 17 9.72 17 7 C15.02 7 13.04 7 11 7 C10.67 7.99 10.34 8.98 10 10 C10 9.01 10 8.02 10 7 C9.0925 7.185625 8.185 7.37125 7.25 7.5625 C4.31685676 7.95734621 2.7355343 7.94691572 0 7 C0 4.69 0 2.38 0 0 Z " fill="#CBB826" transform="translate(178,64)"/>
<path d="M0 0 C2 1 2 1 3.125 3.3125 C4 6 4 6 4 10 C5.32 10 6.64 10 8 10 C8.103125 8.906875 8.20625 7.81375 8.3125 6.6875 C9 3 9 3 12 0 C11.01 3.3 10.02 6.6 9 10 C10.093125 9.79375 11.18625 9.5875 12.3125 9.375 C16 9 16 9 19 11 C10.42 11 1.84 11 -7 11 C-6.01 10.67 -5.02 10.34 -4 10 C-4.99 8.35 -5.98 6.7 -7 5 C-6.01 4.67 -5.02 4.34 -4 4 C-3.67 5.32 -3.34 6.64 -3 8 C-2.34 7.67 -1.68 7.34 -1 7 C-0.59270772 4.67843403 -0.25561323 2.3431213 0 0 Z " fill="#BEAA2B" transform="translate(186,53)"/>
<path d="M0 0 C2.6875 -0.25 2.6875 -0.25 5 0 C5.33 2.64 5.66 5.28 6 8 C5.34 8 4.68 8 4 8 C4 8.66 4 9.32 4 10 C3.34 9.67 2.68 9.34 2 9 C2 8.34 2 7.68 2 7 C1.39671875 7.30035156 0.7934375 7.60070312 0.171875 7.91015625 C-1.02695313 8.48056641 -1.02695313 8.48056641 -2.25 9.0625 C-3.03890625 9.44535156 -3.8278125 9.82820313 -4.640625 10.22265625 C-7.25993522 11.08564091 -8.44855176 10.93045933 -11 10 C-10.18595703 9.41992188 -10.18595703 9.41992188 -9.35546875 8.828125 C-8.64003906 8.30734375 -7.92460937 7.7865625 -7.1875 7.25 C-6.47980469 6.73953125 -5.77210938 6.2290625 -5.04296875 5.703125 C-2.91455868 4.06944397 -2.91455868 4.06944397 -1.40625 1.8125 C-0.9421875 1.214375 -0.478125 0.61625 0 0 Z " fill="#EED821" transform="translate(183,71)"/>
<path d="M0 0 C6.27 0 12.54 0 19 0 C19 1.33333333 19 2.66666667 19 4 C12.73 4 6.46 4 0 4 C0 2.68 0 1.36 0 0 Z " fill="#FBE211" transform="translate(52,65)"/>
<path d="M0 0 C0.66 0.33 1.32 0.66 2 1 C1.37351562 1.73605469 0.74703125 2.47210938 0.1015625 3.23046875 C-0.71570313 4.20628906 -1.53296875 5.18210937 -2.375 6.1875 C-3.18710938 7.15042969 -3.99921875 8.11335938 -4.8359375 9.10546875 C-6.79900189 11.73115596 -7.9724654 13.91175041 -9 17 C-7.906875 16.79375 -6.81375 16.5875 -5.6875 16.375 C-2 16 -2 16 1 18 C-7.58 18 -16.16 18 -25 18 C-20.64467851 15.82233925 -19.53374042 15.96960445 -15 17 C-14.67 16.34 -14.34 15.68 -14 15 C-14 15.66 -14 16.32 -14 17 C-12.68 17 -11.36 17 -10 17 C-9.9175 15.989375 -9.835 14.97875 -9.75 13.9375 C-9.11751274 9.55463055 -7.50357241 6.64806266 -5 3 C-2.8125 1.625 -2.8125 1.625 -1 1 C-0.67 0.67 -0.34 0.34 0 0 Z " fill="#B5BD49" transform="translate(76,46)"/>
<path d="M0 0 C1.70884005 1.62339805 3.37446717 3.29319053 5 5 C5 5.66 5 6.32 5 7 C6.98 7 8.96 7 11 7 C11 7.33 11 7.66 11 8 C10.41992188 8.02578125 9.83984375 8.0515625 9.2421875 8.078125 C3.72857658 8.47845319 0.46859062 9.51231951 -4 13 C-4.99 13.495 -4.99 13.495 -6 14 C-5.41892368 10.2397015 -4.34800504 7.46964968 -2.4375 4.1875 C-1.98246094 3.39730469 -1.52742188 2.60710938 -1.05859375 1.79296875 C-0.53458984 0.90544922 -0.53458984 0.90544922 0 0 Z " fill="#2A80B8" transform="translate(78,36)"/>
<path d="M0 0 C1.18851563 0.00902344 2.37703125 0.01804687 3.6015625 0.02734375 C4.51679688 0.03894531 5.43203125 0.05054687 6.375 0.0625 C6.375 1.7125 6.375 3.3625 6.375 5.0625 C1.095 4.7325 -4.185 4.4025 -9.625 4.0625 C-9.295 3.0725 -8.965 2.0825 -8.625 1.0625 C-5.74084117 -0.37957941 -3.20778472 -0.03144887 0 0 Z " fill="#FCE211" transform="translate(197.625,64.9375)"/>
<path d="M0 0 C2.1875 -0.3125 2.1875 -0.3125 5 0 C7.5 2.1875 7.5 2.1875 10 5 C10.928125 5.928125 11.85625 6.85625 12.8125 7.8125 C13.534375 8.534375 14.25625 9.25625 15 10 C9.22823741 9.60194741 5.50861257 8.95878176 1 5 C0.125 2.25 0.125 2.25 0 0 Z " fill="#E4D024" transform="translate(133,121)"/>
<path d="M0 0 C5 2 5 2 10 4 C10 5.98 10 7.96 10 10 C9.34 10 8.68 10 8 10 C8 10.66 8 11.32 8 12 C7.2575 11.938125 6.515 11.87625 5.75 11.8125 C2.54616994 12.03094296 1.35968744 12.90250005 -1 15 C-0.67 13.35 -0.34 11.7 0 10 C0.969375 9.71125 1.93875 9.4225 2.9375 9.125 C6.10664203 8.35785318 6.10664203 8.35785318 7 6 C6.21625 5.7525 5.4325 5.505 4.625 5.25 C1.67682892 3.84610901 1.0975223 2.99324263 0 0 Z " fill="#332C1C" transform="translate(133,126)"/>
<path d="M0 0 C-0.19921875 2.3203125 -0.19921875 2.3203125 -1 5 C-3.14453125 6.6171875 -3.14453125 6.6171875 -5.8125 7.875 C-6.68519531 8.30554688 -7.55789062 8.73609375 -8.45703125 9.1796875 C-11.18093117 10.05836489 -12.36444632 9.99524405 -15 9 C-13.9275 8.2575 -12.855 7.515 -11.75 6.75 C-9.49360488 5.15644932 -7.72497162 3.70925572 -5.8125 1.6875 C-4 0 -4 0 0 0 Z " fill="#ECDC27" transform="translate(59,72)"/>
<path d="M0 0 C3 2 3 2 3.46875 3.98828125 C3.52750521 8.35819982 3.48983929 10.36048759 0.75 13.9375 C-4.66666667 18 -4.66666667 18 -9 18 C-9 16.02 -9 14.04 -9 12 C-8.34 13.32 -7.68 14.64 -7 16 C-6.34 16 -5.68 16 -5 16 C-4.938125 15.4225 -4.87625 14.845 -4.8125 14.25 C-4 12 -4 12 -1.4375 10.0625 C1.25244462 8.24775031 1.25244462 8.24775031 1.375 5.4375 C1.04983779 2.86901927 1.04983779 2.86901927 0 0 Z " fill="#E5DB31" transform="translate(96,48)"/>
<path d="M0 0 C1.65 0 3.3 0 5 0 C4.8046875 2.3203125 4.8046875 2.3203125 4 5 C1.8203125 6.6171875 1.8203125 6.6171875 -0.875 7.875 C-1.75929688 8.30554688 -2.64359375 8.73609375 -3.5546875 9.1796875 C-6 10 -6 10 -9 9 C-8.43410156 8.51789063 -7.86820312 8.03578125 -7.28515625 7.5390625 C-6.55167969 6.90742187 -5.81820312 6.27578125 -5.0625 5.625 C-4.33160156 4.99851562 -3.60070312 4.37203125 -2.84765625 3.7265625 C-0.91619094 2.12252286 -0.91619094 2.12252286 0 0 Z " fill="#F1E020" transform="translate(118,121)"/>
<path d="M0 0 C0.33 0 0.66 0 1 0 C1 2.31 1 4.62 1 7 C-0.32 7 -1.64 7 -3 7 C-3.33 7.66 -3.66 8.32 -4 9 C-4 8.34 -4 7.68 -4 7 C-5.65 7 -7.3 7 -9 7 C-9.33 7.66 -9.66 8.32 -10 9 C-10 8.34 -10 7.68 -10 7 C-11.98 7 -13.96 7 -16 7 C-16.33 8.98 -16.66 10.96 -17 13 C-17.66 12.67 -18.32 12.34 -19 12 C-18.67 10.68 -18.34 9.36 -18 8 C-19.65 8.33 -21.3 8.66 -23 9 C-23 8.34 -23 7.68 -23 7 C-23.99 6.67 -24.98 6.34 -26 6 C-17.42 6 -8.84 6 0 6 C0 4.02 0 2.04 0 0 Z " fill="#A7B559" transform="translate(77,64)"/>
<path d="M0 0 C1.98 0 3.96 0 6 0 C6 3.57575896 4.91159393 5.05295935 3 8 C3.66 8.33 4.32 8.66 5 9 C4.34 9 3.68 9 3 9 C2.67 10.32 2.34 11.64 2 13 C1.67 10.69 1.34 8.38 1 6 C0.01 5.67 -0.98 5.34 -2 5 C-1.34 3.35 -0.68 1.7 0 0 Z " fill="#1A77C4" transform="translate(76,58)"/>
<path d="M0 0 C1.21333397 2.42666795 1 4.33499722 1 7 C-5.96428571 10.34821429 -5.96428571 10.34821429 -10 9 C-9.44570312 8.60167969 -8.89140625 8.20335938 -8.3203125 7.79296875 C-7.59585938 7.26316406 -6.87140625 6.73335938 -6.125 6.1875 C-5.40570313 5.66542969 -4.68640625 5.14335938 -3.9453125 4.60546875 C-1.76971345 2.96727223 -1.76971345 2.96727223 0 0 Z " fill="#DBC828" transform="translate(182,72)"/>
<path d="M0 0 C-1.49097658 3.7952131 -3.75700849 5.61042731 -7 8 C-8.32 6.68 -9.64 5.36 -11 4 C-9.5437455 3.32880451 -8.08492133 2.66318193 -6.625 2 C-5.81289062 1.62875 -5.00078125 1.2575 -4.1640625 0.875 C-2 0 -2 0 0 0 Z " fill="#3F85A4" transform="translate(123,126)"/>
<path d="M0 0 C1.1055189 0.93590504 2.20935453 1.87379858 3.3125 2.8125 C3.92738281 3.33457031 4.54226562 3.85664062 5.17578125 4.39453125 C6.85424679 5.87172469 8.43882034 7.40039131 10 9 C3.25 8.125 3.25 8.125 1 7 C0.59270772 4.67843403 0.25561323 2.3431213 0 0 Z " fill="#C8CC4D" transform="translate(74,73)"/>
<path d="M0 0 C1.98 0 3.96 0 6 0 C6 1.65 6 3.3 6 5 C4.35 5.66 2.7 6.32 1 7 C0 6 0 6 -0.0625 2.9375 C-0.041875 1.968125 -0.02125 0.99875 0 0 Z " fill="#F8E013" transform="translate(124,121)"/>
<path d="M0 0 C1.670625 0.061875 1.670625 0.061875 3.375 0.125 C3.375 0.455 3.375 0.785 3.375 1.125 C1.395 1.455 -0.585 1.785 -2.625 2.125 C-3.285 4.435 -3.945 6.745 -4.625 9.125 C-6.935 8.795 -9.245 8.465 -11.625 8.125 C-11.00625 8.063125 -10.3875 8.00125 -9.75 7.9375 C-7.3659707 7.30947843 -7.3659707 7.30947843 -6.5 4.6875 C-6.066875 3.4190625 -6.066875 3.4190625 -5.625 2.125 C-3.625 0.125 -3.625 0.125 0 0 Z " fill="#7AA383" transform="translate(46.625,56.875)"/>
<path d="M0 0 C2.96052484 3.36423277 3.92289822 6.69159287 5 11 C4.34 11.66 3.68 12.32 3 13 C3 11.68 3 10.36 3 9 C2.34 9 1.68 9 1 9 C-1.09230769 4.56923077 -1.09230769 4.56923077 -0.625 1.6875 C-0.41875 1.130625 -0.2125 0.57375 0 0 Z " fill="#D3CF37" transform="translate(57,50)"/>
<path d="M0 0 C0.33 0.66 0.66 1.32 1 2 C0.67 2.66 0.34 3.32 0 4 C0.66 4.33 1.32 4.66 2 5 C-4.625 8.125 -4.625 8.125 -8 7 C-5.36 4.69 -2.72 2.38 0 0 Z " fill="#DFDA3C" transform="translate(117,123)"/>
<path d="M0 0 C0.33 0.66 0.66 1.32 1 2 C0.67 2.99 0.34 3.98 0 5 C0.33 5.99 0.66 6.98 1 8 C-0.65 7.67 -2.3 7.34 -4 7 C-4.33 5.68 -4.66 4.36 -5 3 C-3.35 2.01 -1.7 1.02 0 0 Z " fill="#E1D835" transform="translate(58,79)"/>
<path d="M0 0 C2.25 2.0625 2.25 2.0625 4 4 C-0.55737263 3.56179109 -3.57653445 3.14958831 -7 0 C-3.80367098 -1.06544301 -3.02974348 -1.19353531 0 0 Z " fill="#D6C32B" transform="translate(208,78)"/>
<path d="M0 0 C2.0625 0.4375 2.0625 0.4375 4 1 C3.505 1.639375 3.01 2.27875 2.5 2.9375 C0.90197138 4.70974339 0.90197138 4.70974339 1 6 C-0.65 6 -2.3 6 -4 6 C-1.125 1.125 -1.125 1.125 0 0 Z " fill="#362E19" transform="translate(141,107)"/>
<path d="M0 0 C1.32 0.66 2.64 1.32 4 2 C2.875 3.5 2.875 3.5 1 5 C-2.1875 5.1875 -2.1875 5.1875 -5 5 C-3.768606 2.53721199 -2.21935077 1.57502313 0 0 Z " fill="#EDDE2C" transform="translate(72,58)"/>
<path d="M0 0 C0.99 1.32 1.98 2.64 3 4 C-1.75 8.875 -1.75 8.875 -4 10 C-2.8905928 6.51329166 -1.73662334 3.22515763 0 0 Z " fill="#453B1C" transform="translate(203,41)"/>
<path d="M0 0 C3.96 1.98 3.96 1.98 8 4 C7.67 5.65 7.34 7.3 7 9 C1.125 4.5 1.125 4.5 0 0 Z " fill="#46889C" transform="translate(69,76)"/>
<path d="M0 0 C-1.15173355 2.46800047 -2.04783565 4.04783565 -4 6 C-4.40047444 8.32275177 -4.7397104 10.65739357 -5 13 C-5.33 13 -5.66 13 -6 13 C-6.48929664 5.78287462 -6.48929664 5.78287462 -4.125 2 C-2 0 -2 0 0 0 Z " fill="#DBD540" transform="translate(99,95)"/>
<path d="M0 0 C0.33 0.66 0.66 1.32 1 2 C-1.36292656 4.52588702 -2.66462511 5.88820837 -6 7 C-6 6.34 -6 5.68 -6 5 C-6.66 4.67 -7.32 4.34 -8 4 C-5.36 2.68 -2.72 1.36 0 0 Z " fill="#493E1C" transform="translate(186,76)"/>
<path d="M0 0 C5.75 1.75 5.75 1.75 8 4 C7.67 4.66 7.34 5.32 7 6 C2.32307692 4.52307692 2.32307692 4.52307692 0.6875 1.875 C0.460625 1.25625 0.23375 0.6375 0 0 Z " fill="#40391A" transform="translate(197,77)"/>
<path d="M0 0 C1.06775224 1.96466413 2.06553465 3.96855359 3 6 C2.67 6.66 2.34 7.32 2 8 C1.401875 7.38125 0.80375 6.7625 0.1875 6.125 C-2.00811144 3.86323046 -2.00811144 3.86323046 -5 2 C-2 0 -2 0 0 0 Z " fill="#4285A0" transform="translate(54,43)"/>
<path d="M0 0 C0.99 0 1.98 0 3 0 C3 1.65 3 3.3 3 5 C0.5625 4.625 0.5625 4.625 -2 4 C-2.33 3.34 -2.66 2.68 -3 2 C-2.01 2 -1.02 2 0 2 C0 1.34 0 0.68 0 0 Z " fill="#FBE211" transform="translate(100,108)"/>
<path d="M0 0 C0 1.32 0 2.64 0 4 C0.66 4.66 1.32 5.32 2 6 C-0.375 5.6875 -0.375 5.6875 -3 5 C-3.66 4.01 -4.32 3.02 -5 2 C-2 0 -2 0 0 0 Z " fill="#E2CC26" transform="translate(185,81)"/>
<path d="M0 0 C0.66 1.32 1.32 2.64 2 4 C2.66 4 3.32 4 4 4 C4.33 2.68 4.66 1.36 5 0 C5.33 1.32 5.66 2.64 6 4 C3 6 3 6 0 6 C0 4.02 0 2.04 0 0 Z " fill="#CDCF43" transform="translate(87,60)"/>
<path d="M0 0 C2.125 0.375 2.125 0.375 4 1 C4.33 2.65 4.66 4.3 5 6 C1.535 4.02 1.535 4.02 -2 2 C-1.34 1.34 -0.68 0.68 0 0 Z " fill="#3F83A5" transform="translate(115,93)"/>
<path d="M0 0 C-0.8125 1.9375 -0.8125 1.9375 -2 4 C-5 5 -5 5 -7.1875 4.0625 C-7.785625 3.711875 -8.38375 3.36125 -9 3 C-2.25 0 -2.25 0 0 0 Z " fill="#4385A0" transform="translate(59,77)"/>
<path d="M0 0 C0.185625 0.9590625 0.185625 0.9590625 0.375 1.9375 C0.684375 2.9584375 0.684375 2.9584375 1 4 C1.66 4.33 2.32 4.66 3 5 C1.02 6.32 -0.96 7.64 -3 9 C-2.44271087 5.65626525 -1.64826111 2.96687001 0 0 Z " fill="#46879C" transform="translate(75,41)"/>
<path d="M0 0 C0.99 0 1.98 0 3 0 C2.67 1.32 2.34 2.64 2 4 C3.32 4.33 4.64 4.66 6 5 C4.02 5.33 2.04 5.66 0 6 C0 4.02 0 2.04 0 0 Z " fill="#D7C429" transform="translate(151,109)"/>
<path d="M0 0 C1.32 0.66 2.64 1.32 4 2 C0.81237635 4.12508244 -1.26512223 4.5020163 -5 5 C-3.35 3.35 -1.7 1.7 0 0 Z " fill="#C5CD54" transform="translate(49,77)"/>
<path d="M0 0 C1.3049427 4.05982172 0.73256315 6.44868981 -1.0625 10.25 C-1.371875 10.8275 -1.68125 11.405 -2 12 C-2.17835515 7.45194365 -1.99785435 4.1205746 0 0 Z " fill="#D0BD28" transform="translate(180,24)"/>
<path d="M0 0 C4.875 1.75 4.875 1.75 6 4 C3.03 4 0.06 4 -3 4 C-2.01 2.68 -1.02 1.36 0 0 Z " fill="#E2D939" transform="translate(63,11)"/>
<path d="M0 0 C1.32 0 2.64 0 4 0 C4 0.66 4 1.32 4 2 C5.32 1.67 6.64 1.34 8 1 C8 2.65 8 4.3 8 6 C6.66402348 5.19185349 5.331275 4.37836819 4 3.5625 C3.2575 3.11003906 2.515 2.65757813 1.75 2.19140625 C1.1725 1.79824219 0.595 1.40507812 0 1 C0 0.67 0 0.34 0 0 Z " fill="#297DB5" transform="translate(63,10)"/>
<path d="M0 0 C1.32 0.33 2.64 0.66 4 1 C4.33 2.32 4.66 3.64 5 5 C4.01 5 3.02 5 2 5 C1.34 4.34 0.68 3.68 0 3 C0 2.01 0 1.02 0 0 Z " fill="#3A3021" transform="translate(202,71)"/>
<path d="M0 0 C0.99 0.495 0.99 0.495 2 1 C2.73075648 3.3140622 3.40138258 5.64828869 4 8 C2.68 8.33 1.36 8.66 0 9 C0 6.03 0 3.06 0 0 Z " fill="#D4BD26" transform="translate(186,53)"/>
<path d="M0 0 C0.99 0.66 1.98 1.32 3 2 C2.34 3.32 1.68 4.64 1 6 C-0.32 5.67 -1.64 5.34 -3 5 C-2.34 5 -1.68 5 -1 5 C-0.67 3.35 -0.34 1.7 0 0 Z " fill="#DED83B" transform="translate(72,81)"/>
<path d="M0 0 C1.98 0 3.96 0 6 0 C3.60490662 2.89932357 1.68754757 3.50168276 -2 4 C-1.34 2.68 -0.68 1.36 0 0 Z " fill="#277DB3" transform="translate(76,58)"/>
</svg>
