<svg xmlns="http://www.w3.org/2000/svg" width="256" height="154"><path fill="#241F20" d="M0 0h256v154H0V0Z"/><path fill="#1478C5" d="M0 0h128v60l-7 7c-5.027 6.747-5.896 12.68-5 21 .893 2.296 1.913 4.262 3.223 6.344C120 96 120 96 119 99l-2.813-1.938c-5-3.235-9.356-3.807-15.187-3.062-4.274 2.224-4.274 2.224-7 6-.641 5.879-.641 5.879 2.125 10.875 2.936 2.17 5.356 3.225 8.875 4.125l-.063-2.875C105 109 105 109 106 107c7.304-.365 7.304-.365 10.5 1.313C118 110 118 110 118 113h-3v7l4 1c-2.79 3.487-5.252 6.502-9 9l1.828-.621 2.422-.816 2.39-.81A84.887 84.887 0 0 1 123 126c-1.37 3.161-1.99 3.993-5 6l1 3 2.375.813c3.563 1.611 4.132 3.678 5.625 7.187l1 1v10H0V0Z"/><path fill="#F8DD15" d="M191 11c3.578 1.28 5.642 3.504 8.125 6.313l2.07 2.3C205.688 25.555 205.9 31.79 205 39c-1.342 3.862-3.028 7.422-5 11l2.688-2.375c4.14-3.39 7.263-4.864 12.687-4.625 4.327.638 7.219 2.08 10.363 5.121 1.954 2.91 2.108 5.321 1.813 8.762-.927 3.56-2.586 5.035-5.551 7.117-2.344.92-4.522 1.466-7 2l-2-7c-4.021-.276-4.021-.276-8 0-2.053 1.842-2.053 1.842-3 4h3v8h-3c2.4 4.942 5.523 7.043 10 10-3.69 1.371-5.709.6-9.25-.938l-2.703-1.152L198 78l1.875 1.875L204 84c-1.25 1.5-1.25 1.5-3 3h-4l-.875 2.313C195 92 195 92 193 95c-3.161-1.37-3.993-1.99-6-5v-3l-2.375-.313C182 86 182 86 180 83l2.5-1.375L185 80v-2l-1.828.91c-.8.38-1.599.76-2.422 1.153l-2.39 1.16c-2.62.863-3.809.707-6.36-.223l1.68-1.172 2.195-1.578 2.18-1.547c2.03-1.778 2.924-3.23 3.945-5.703h-4v-7l4-1c-3.185-3.818-3.185-3.818-7.688-5.438-2.498.248-2.498.248-4.312 2.438a89.901 89.901 0 0 0-1 6c-4.867-.453-7.442-1.645-11-5-1.77-3.54-1.768-7.154-1-11 2.312-3.507 5.23-5.412 9.188-6.727 5.927-1.05 9.817.636 14.812 3.727l2 1-1.094-2.379c-5.505-12.462-5.505-12.462-2.984-19.02C181.572 20.87 185.119 13.942 191 11Z"/><path fill="#F7DE16" d="M127 60c6.134 2.594 11.136 8.616 14 14.563 2.654 9.122-.103 15.087-4 23.437l2.32-1.918c4.02-3.123 7.087-4.139 12.18-3.957 5.228 1.307 8.509 3.388 11.5 7.875.602 3.09.618 5.912 0 9-3.593 4.107-6.579 5.613-12 6l-2-7c-4.021-.276-4.021-.276-8 0-2.053 1.842-2.053 1.842-3 4l4 1v7l-4 1 2.188 2.188L148 131c-5.414-.467-9.205-1.243-14-4 2.716 2.874 2.716 2.874 6 5l-1 3-6 1-.313 2.313c-.73 2.858-1.457 3.844-3.687 5.687-1.938-.688-1.938-.688-4-2-.75-2.625-.75-2.625-1-5l-2.375-.25C119 136 119 136 117.687 133.937L117 132l2.438-1.875c2.6-1.867 2.6-1.867 3.562-4.125l-2.3 1.129-3.013 1.433-2.988 1.442C112 131 112 131 109 130l1.715-1.46 2.222-1.915 2.215-1.898c1.932-1.604 1.932-1.604 2.848-3.727l-3-1v-7h3c-.634-2.022-.634-2.022-2-4-2.404-.916-2.404-.916-5.125-1.25-.91-.15-1.82-.3-2.758-.453L106 107l-1 8c-4.867-.453-7.442-1.645-11-5-1.603-3.206-1.487-6.521-1-10 2.181-3.583 4.175-5.397 8-7 6.693-1.082 11.256.658 17 4 .257-3.057.257-3.057-1.5-5.5-2.559-5.97-2.199-11.844-.563-18.063C118.513 68.263 123.04 64.127 127 60Z"/><path fill="#F8E018" d="M63 11c6.584 2.138 9.63 7.099 13.113 12.832C78.368 28.396 78.921 33.041 78 38c-1.395 3.193-3.078 6.097-5 9l1 1 2.313-2c4.515-3.003 9.473-2.79 14.687-2 3.264 1.383 5.5 3.5 8 6 .57 3.057.524 5.939 0 9-2.514 3.282-5.096 5.569-9 7h-3l-2-7-9-1-2 5 4 1v7h-4c2.103 4.33 4.65 6.417 8.574 8.984L84 81v1c-5.707-.466-9.16-1.938-14-5 1.133 3.4 2.125 4.053 5 6l-2 4h-4l-.75 2.875C67 93 67 93 64.875 94.375L63 95c-4-5.75-4-5.75-4-8l-5-1-1-4 2.438-1.375c2.65-1.372 2.65-1.372 3.562-3.625l-2.266 1.129-2.984 1.433-2.953 1.442C47.9 82.035 46.8 82.114 44 81l3.313-2.188C50.453 76.588 52.293 74.513 54 71h-3v-8h3c-1.528-2.642-1.528-2.642-4-5-3.585-.584-3.585-.584-7 0-2.36 2.36-2.491 3.779-3 7-7.368-1.329-7.368-1.329-10-4.125-1.309-3.763-2.02-7.002-1-10.875 1.86-2.902 3.889-4.536 7-6 8.023-1.403 13.36.573 20 5l-1.094-1.871C51.633 41.154 50.136 36.782 51 30l.438-3.938C53.117 19.846 58.584 15.416 63 11Z"/><path fill="#F3DA18" d="M222.137 45.094c2.82 2.06 4.537 3.708 5.468 7.129.258 4.173-.236 6.251-2.667 9.715C221.536 64.325 219.03 65.13 215 66l-2-7c-4.021-.276-4.021-.276-8 0-2.053 1.842-2.053 1.842-3 4h3v8h-3c2.4 4.942 5.523 7.043 10 10-3.69 1.371-5.709.6-9.25-.938l-2.703-1.152L198 78l1.875 1.875L204 84c-1.25 1.5-1.25 1.5-3 3h-4l-.875 2.313C195 92 195 92 193 95c-3.161-1.37-3.993-1.99-6-5v-3l-2.375-.313C182 86 182 86 180 83l2.5-1.375L185 80v-2l-1.828.91c-.8.38-1.599.76-2.422 1.153l-2.39 1.16c-2.62.863-3.809.707-6.36-.223l1.68-1.172 2.195-1.578 2.18-1.547c2.03-1.778 2.924-3.23 3.945-5.703h-4v-7l4-1-3-5 3-1 1 4 2-1c.407-2.322.744-4.657 1-7 2 1 2 1 3.125 3.313C190 59 190 59 190 63h4l.375-3.063c.606-3.816 1.497-7.252 2.625-10.937h4a174.788 174.788 0 0 0 5-4c5.151-3.005 10.91-2.582 16.137.094Z"/><path fill="#F5E326" d="M91 44c3.267 1.375 5.501 3.501 8 6 .57 3.057.524 5.939 0 9-2.514 3.282-5.096 5.569-9 7h-3l-2-7-9-1-2 5 4 1v7h-4c2.103 4.33 4.65 6.417 8.574 8.984L84 81v1c-5.707-.466-9.16-1.938-14-5 1.133 3.4 2.125 4.053 5 6l-2 4h-4l-.75 2.875C67 93 67 93 64.875 94.375L63 95c-4-5.75-4-5.75-4-8l-5-1-1-4 2.438-1.375c2.65-1.372 2.65-1.372 3.562-3.625l-2.266 1.129-2.984 1.433-2.953 1.442C47.9 82.035 46.8 82.114 44 81l3.313-2.188C50.453 76.588 52.293 74.513 54 71h-3v-8c3.576-1.238 6.337-.75 10 0l1-2v2h4l.25-3.063C66.882 55.556 68.496 52.648 71 49c1.938-1.25 1.938-1.25 4-2l2.063-1.625C81.624 43.24 86.052 43.325 91 44Z"/><path fill="#ECD921" d="M112.258 93.863a88.421 88.421 0 0 1 4.015 2.164c1.873 1.127 1.873 1.127 4.727 1.973 2.933 4.625 3.54 8.665 4 14h6l.367-1.898.508-2.477.492-2.46C133 103 133 103 135 101l-2 11 9 1v7l-4 1 2.188 2.188L148 131c-5.414-.467-9.205-1.243-14-4 2.716 2.874 2.716 2.874 6 5l-1 3-6 1-.313 2.313c-.73 2.858-1.457 3.844-3.687 5.687-1.938-.688-1.938-.688-4-2-.75-2.625-.75-2.625-1-5l-2.375-.25C119 136 119 136 117.687 133.937L117 132l2.438-1.875c2.6-1.867 2.6-1.867 3.562-4.125l-2.3 1.129-3.013 1.433-2.988 1.442C112 131 112 131 109 130l1.715-1.46 2.222-1.915 2.215-1.898c1.932-1.604 1.932-1.604 2.848-3.727l-3-1v-7h3c-.634-2.022-.634-2.022-2-4-2.404-.916-2.404-.916-5.125-1.25l-2.758-.453L106 107l-1 8c-4.867-.453-7.442-1.645-11-5-1.603-3.206-1.487-6.521-1-10 4.33-7.115 11.517-9.097 19.258-6.137Z"/><path fill="#F5DC18" d="M178 64h1v6h26l-3 1c2.4 4.942 5.523 7.043 10 10-3.69 1.371-5.709.6-9.25-.938l-2.703-1.152L198 78l1.875 1.875L204 84c-1.25 1.5-1.25 1.5-3 3h-4l-.875 2.313C195 92 195 92 193 95c-3.161-1.37-3.993-1.99-6-5v-3l-2.375-.313C182 86 182 86 180 83l2.5-1.375L185 80v-2l-1.828.91-2.422 1.153-2.39 1.16c-2.62.863-3.809.707-6.36-.223l1.68-1.172 2.195-1.578 2.18-1.547c2.03-1.778 2.924-3.23 3.945-5.703h-4v-7Z"/><path fill="#F8E017" d="M88.266 43.637C93.103 44.279 95.594 46.594 99 50c.57 3.057.524 5.939 0 9-2.514 3.282-5.096 5.569-9 7h-3l-2-7-9-1-2 4c-1 1-1 1-4.063 1.063L67 63c1.276-4.528 2.934-7.58 5.938-11.188l2.09-2.542L77 47l1.422-1.773c2.928-2.276 6.287-1.68 9.844-1.59Z"/><path fill="#F1DC1D" d="M124 121h8l.75 2.75c1.535 3.99 3.411 6.33 7.25 8.25l-1 3-6 1-.313 2.313c-.73 2.858-1.457 3.844-3.687 5.687-1.938-.688-1.938-.688-4-2-.75-2.625-.75-2.625-1-5l-2.375-.25C119 136 119 136 117.687 133.937L117 132l2.938-2.125c2.614-2.147 3.025-2.733 3.937-6.188L124 121Z"/><path fill="#F6DF1B" d="M61 71h6l1 7h2a141.4 141.4 0 0 1 5 5l-2 4h-4l-.75 2.875C67 93 67 93 64.875 94.375L63 95c-4-5.75-4-5.75-4-8l-5-1-1-4 2.313-1c3.798-2.827 4.293-5.526 5.687-10Z"/><path fill="#E9DB2B" d="M77 64h1v7h-4c2.103 4.33 4.65 6.417 8.574 8.984L84 81v1c-4.239-.346-7.16-.9-10.813-3.125L70 77l-2 1-1-7h-6l-.137 2.816C60 77 60 77 57.418 78.715l-3.23 1.222-3.208 1.278c-2.922.77-4.216.863-6.98-.215l3.313-2.188C50.453 76.588 52.293 74.513 54 71l-3-1h26v-6Z"/><path fill="#C1B940" d="M141 113h1v7l-4 1 2.188 2.188L148 131c-6.21-.444-10.605-1.915-16-5v-5h-8v6l-2.063.313c-3.123.632-3.123.632-6.562 2.312C112 131 112 131 109 130l1.715-1.46 2.222-1.915 2.215-1.898c1.932-1.604 1.932-1.604 2.848-3.727l-3-2h26v-6Z"/><path fill="#F7E019" d="M115 113h26v6h-26v-6Z"/><path fill="#F9E11E" d="M179 64h26v6h-26v-6Z"/><path fill="#CBB826" d="M178 64h1v6h26l-3 1c2.4 4.942 5.523 7.043 10 10-3.69 1.371-5.709.6-9.25-.938l-2.703-1.152L198 78v2l-3-1v-8h-6l-1 3v-3l-2.75.563c-2.933.394-4.514.384-7.25-.563v-7Z"/><path fill="#BEAA2B" d="M186 53c2 1 2 1 3.125 3.313C190 59 190 59 190 63h4l.313-3.313C195 56 195 56 198 53l-3 10 3.313-.625C202 62 202 62 205 64h-26l3-1-3-5 3-1 1 4 2-1c.407-2.322.744-4.657 1-7Z"/><path fill="#EED821" d="M183 71c2.688-.25 2.688-.25 5 0l1 8h-2v2l-2-1v-2l-1.828.91-2.422 1.153-2.39 1.16c-2.62.863-3.809.707-6.36-.223l1.645-1.172 2.167-1.578c.708-.51 1.416-1.02 2.145-1.547 2.128-1.634 2.128-1.634 3.637-3.89L183 71Z"/><path fill="#FBE211" d="M52 65h19v4H52v-4Z"/><path fill="#B5BD49" d="m76 46 2 1-1.898 2.23-2.477 2.958-2.46 2.917C69.2 57.731 68.027 59.912 67 63l3.313-.625C74 62 74 62 77 64H51c4.355-2.178 5.466-2.03 10-1l1-2v2h4l.25-3.063C66.882 55.556 68.496 52.648 71 49c2.188-1.375 2.188-1.375 4-2l1-1Z"/><path fill="#2A80B8" d="M78 36a141.4 141.4 0 0 1 5 5v2h6v1l-1.758.078C81.73 44.478 78.47 45.512 74 49l-2 1c.581-3.76 1.652-6.53 3.563-9.813l1.378-2.394L78 36Z"/><path fill="#FCE211" d="m197.625 64.938 3.602.027L204 65v5l-16-1 1-3c2.884-1.442 5.417-1.094 8.625-1.063Z"/><path fill="#E4D024" d="M133 121c2.188-.313 2.188-.313 5 0 2.5 2.188 2.5 2.188 5 5l2.813 2.813L148 131c-5.772-.398-9.491-1.041-14-5-.875-2.75-.875-2.75-1-5Z"/><path fill="#332C1C" d="m133 126 10 4v6h-2v2l-2.25-.188c-3.204.219-4.39 1.09-6.75 3.188l1-5 2.938-.875c3.169-.767 3.169-.767 4.062-3.125l-2.375-.75c-2.948-1.404-3.527-2.257-4.625-5.25Z"/><path fill="#ECDC27" d="M59 72c-.2 2.32-.2 2.32-1 5-2.145 1.617-2.145 1.617-4.813 2.875l-2.644 1.305c-2.724.878-3.907.815-6.543-.18l3.25-2.25c2.256-1.594 4.025-3.04 5.938-5.063C55 72 55 72 59 72Z"/><path fill="#E5DB31" d="M96 48c3 2 3 2 3.469 3.988.059 4.37.02 6.372-2.719 9.95C91.333 66 91.333 66 87 66v-6l2 4h2l.188-1.75C92 60 92 60 94.561 58.062c2.69-1.814 2.69-1.814 2.813-4.624C97.05 50.868 97.05 50.868 96 48Z"/><path fill="#F1E020" d="M118 121h5c-.195 2.32-.195 2.32-1 5-2.18 1.617-2.18 1.617-4.875 2.875l-2.68 1.305C112 131 112 131 109 130l1.715-1.46 2.222-1.915 2.215-1.898c1.932-1.604 1.932-1.604 2.848-3.727Z"/><path fill="#A7B559" d="M77 64h1v7h-4l-1 2v-2h-5l-1 2v-2h-6l-1 6-2-1 1-4-5 1v-2l-3-1h26v-6Z"/><path fill="#1A77C4" d="M76 58h6c0 3.576-1.088 5.053-3 8l2 1h-2l-1 4-1-7-3-1 2-5Z"/><path fill="#DBC828" d="M182 72c1.213 2.427 1 4.335 1 7-6.964 3.348-6.964 3.348-11 2l1.68-1.207 2.195-1.606 2.18-1.582C180.23 74.967 180.23 74.967 182 72Z"/><path fill="#3F85A4" d="M123 126c-1.491 3.795-3.757 5.61-7 8l-4-4a875.282 875.282 0 0 1 4.375-2l2.46-1.125C121 126 121 126 123 126Z"/><path fill="#C8CC4D" d="M74 73c1.106.936 2.21 1.874 3.313 2.813l1.863 1.582A87.495 87.495 0 0 1 84 82c-6.75-.875-6.75-.875-9-2a108.817 108.817 0 0 1-1-7Z"/><path fill="#F8E013" d="M124 121h6v5l-5 2c-1-1-1-1-1.063-4.063L124 121Z"/><path fill="#7AA383" d="M46.625 56.875 50 57v1l-6 1-2 7-7-1 1.875-.188c2.384-.628 2.384-.628 3.25-3.25L41 59c2-2 2-2 5.625-2.125Z"/><path fill="#D3CF37" d="M57 50c2.96 3.364 3.923 6.692 5 11l-2 2v-4h-2c-2.092-4.43-2.092-4.43-1.625-7.313L57 50Z"/><path fill="#DFDA3C" d="m117 123 1 2-1 2 2 1c-6.625 3.125-6.625 3.125-10 2l8-7Z"/><path fill="#E1D835" d="m58 79 1 2-1 3 1 3-5-1-1-4 5-3Z"/><path fill="#D6C32B" d="M208 78c2.25 2.063 2.25 2.063 4 4-4.557-.438-7.577-.85-11-4 3.196-1.065 3.97-1.194 7 0Z"/><path fill="#362E19" d="M141 107c2.063.438 2.063.438 4 1l-1.5 1.938c-1.598 1.772-1.598 1.772-1.5 3.062h-5c2.875-4.875 2.875-4.875 4-6Z"/><path fill="#EDDE2C" d="m72 58 4 2c-1.125 1.5-1.125 1.5-3 3-3.188.188-3.188.188-6 0 1.231-2.463 2.78-3.425 5-5Z"/><path fill="#453B1C" d="m203 41 3 4c-4.75 4.875-4.75 4.875-7 6 1.11-3.487 2.263-6.775 4-10Z"/><path fill="#46889C" d="m69 76 8 4-1 5c-5.875-4.5-5.875-4.5-7-9Z"/><path fill="#DBD540" d="M99 95c-1.152 2.468-2.048 4.048-4 6-.4 2.323-.74 4.657-1 7h-1c-.49-7.217-.49-7.217 1.875-11C97 95 97 95 99 95Z"/><path fill="#493E1C" d="m186 76 1 2c-2.363 2.526-3.665 3.888-7 5v-2l-2-1 8-4Z"/><path fill="#40391A" d="M197 77c5.75 1.75 5.75 1.75 8 4l-1 2c-4.677-1.477-4.677-1.477-6.313-4.125L197 77Z"/><path fill="#4285A0" d="M54 43a100.644 100.644 0 0 1 3 6l-1 2-1.813-1.875C51.992 46.863 51.992 46.863 49 45c3-2 3-2 5-2Z"/><path fill="#FBE211" d="M100 108h3v5c-2.438-.375-2.438-.375-5-1l-1-2h3v-2Z"/><path fill="#E2CC26" d="M185 81v4l2 2c-2.375-.313-2.375-.313-5-1l-2-3c3-2 3-2 5-2Z"/><path fill="#CDCF43" d="m87 60 2 4h2l1-4 1 4c-3 2-3 2-6 2v-6Z"/><path fill="#3F83A5" d="M115 93c2.125.375 2.125.375 4 1l1 5-7-4 2-2Z"/><path fill="#4385A0" d="M59 77c-.813 1.938-.813 1.938-2 4-3 1-3 1-5.188.063L50 80c6.75-3 6.75-3 9-3Z"/><path fill="#46879C" d="m75 41 .375 1.938L76 45l2 1-6 4c.557-3.344 1.352-6.033 3-9Z"/><path fill="#D7C429" d="M151 109h3l-1 4 4 1-6 1v-6Z"/><path fill="#C5CD54" d="m49 77 4 2c-3.188 2.125-5.265 2.502-9 3l5-5Z"/><path fill="#D0BD28" d="M180 24c1.305 4.06.733 6.449-1.063 10.25L178 36c-.178-4.548.002-7.88 2-12Z"/><path fill="#E2D939" d="M63 11c4.875 1.75 4.875 1.75 6 4h-9l3-4Z"/><path fill="#297DB5" d="M63 10h4v2l4-1v5a809.016 809.016 0 0 1-4-2.438l-2.25-1.37L63 11v-1Z"/><path fill="#3A3021" d="m202 71 4 1 1 4h-3l-2-2v-3Z"/><path fill="#D4BD26" d="m186 53 2 1c.73 2.314 1.401 4.648 2 7l-4 1v-9Z"/><path fill="#DED83B" d="m72 81 3 2-2 4-4-1h2l1-5Z"/><path fill="#277DB3" d="M76 58h6c-2.395 2.9-4.312 3.502-8 4l2-4Z"/></svg>