<svg xmlns="http://www.w3.org/2000/svg" width="256" height="154"><path fill="#A20602" d="M0 0h256v154H0V0Z"/><path fill="#FCCE28" d="M128 77h128v77H128V77Z"/><path fill="#A20602" d="M0 77h128v77H0V77Z"/><path fill="#FCCE28" d="M0 0h128v77H0V0Z"/><path fill="#9D1204" d="M212 82h2c.977 6.055.977 6.055 1 8l-2 2v4l-14-2 1 4 2.064.044c3.083.075 6.166.171 9.249.269l3.248.068 3.115.107 2.872.08C223 99 223 99 224.818 100.286c2.022 2.931 1.483 6.309 1.182 9.714-.5 2.5-.5 2.5-1 4h-4v2h-5c1.267 3.62 1.267 3.62 3 7 2.552 1.205 2.552 1.205 5 2 .813 2.125.813 2.125 1 4h3v2h-2l2 3c-.148 4.079-.397 6.287-3.063 9.438L223 145v-3h-2v6l-6 2 1-5-2.313.563C211 146 211 146 208 145l1-4 5-1v-2l-4 1 1-3c4.75-.125 4.75-.125 7 1v-5l-2-1v-2l-2.188-.25c-3.401-.907-5.267-2.35-7.812-4.75v-2h-2l.938 2.25c.871 2.257 1.539 4.395 2.062 6.75h2l-1 7-4-1 1 6-2-2-1 3-4-1-2 4h-2l-1 3-1-1v-5c-1.125-1.356-1.125-1.356-4.063-1.063L185 143l1-4 6 1-1-5h-2v-2h5l1 3h2c1.032-3.207 1.032-3.207 1-7-1.42-1.73-2.996-3.059-4.695-4.512C192 123 192 123 192.125 119.625L193 117h-2c-2.62 3.527-3.107 5.701-3 10-1 2.813-1 2.813-2 5l-3-1 1 6-1-2h-2l-1 4-2-1v6l-3 1v-3c-3.01 2.007-3.63 2.839-5 6h-2l-1 2c-1-4.875-1-4.875-1-6h-7c.75-1.938.75-1.938 2-4 2.125-.75 2.125-.75 4-1v-2l-3-1c1-1 1-1 2.848-1.098L171 135c2.219-4.622 3.383-7.768 3-13l-9 1v-4l-4-2 4-5-6 1 2-4-4-2c0-2 0-2 2-4l-2-4 5 1c-.267-1.985-.267-1.985-1-4l-3-1v-3h-2l1-3 5 1v2h2l1-5 3 1v5l2-2 1 4-3 2c-.298 4.549-.11 8.562 1 13l4-3h-3c.313-3.375.313-3.375 1-7l3-2v-3l2 1v-2l-3-1c.188-1.875.188-1.875 1-4 2.5-1.125 2.5-1.125 5-2l1-2h4a69.17 69.17 0 0 0 4-1v4h4l-1 6h2v5h-2v3h-2l1 5 3.07-.035 4.055-.028 2.016-.025c4.077-.02 7.854.369 11.859 1.088a83.6 83.6 0 0 0 4.75.125l2.297.008c2.033-.012 2.033-.012 3.953-1.133l-1-4-6-1v3l-7 1v-3h-2v2h-2v-3l-2.313.188C199 102 199 102 197.188 100.811 196 99 196 99 195.375 96.689c.976-4.198 4.107-6.372 7.625-8.688h2l1-4h2v4l3-1 1-5Z"/><path fill="#9D1104" d="M84 4h2c.977 6.055.977 6.055 1 8l-2 2v4c-3.716.2-4.772.152-8-2-2.625-.167-2.625-.167-5 0v4l1.848.044c2.78.075 5.56.172 8.34.268l2.908.069c9.207.35 9.207.35 12.904 3.619.609 3.576.444 5.297-1.5 8.375L95 34l2 1-4 1v2h-5c1.272 3.617 1.272 3.617 3 7 2.39 1.106 2.39 1.106 5 2 1.873 1.883 3.386 3.879 5 6h-3l2 3c-.148 4.079-.397 6.287-3.063 9.438L95 67v-3h-2l.188 2.875L93 70c-3 2-3 2-6 2l1-5-2-1v2h-3v-2l-3 1 1-4 5-1v-2l-4-1c1-1 1-1 3.438-1.125C88 58 88 58 90 59c.334-2.374.334-2.374 0-5-2.046-2.046-3.871-2.95-6.563-4-2.49-1.021-3.778-1.905-5.437-4v-2h-2c1.369 3.548 1.369 3.548 3.188 6.875 1.218 3.187.443 5.842-.188 9.125l-3-1 1 6-2-2-1 3-4-1-4 7-2-1v-6h-7l1-4 4-1v-2h-2l1-3h5l1 3h2c1.032-3.207 1.032-3.207 1-7-1.42-1.73-2.996-3.059-4.695-4.512C64 45 64 45 64.125 41.625L65 39l-4 1-1 9h-3l1 5-3-1 1 6-1-2h-2l-1 4-2-1v6h-2v-2c-4.206 1.502-5.739 4.286-8 8l-2-1 1-5c-4.14-.21-4.14-.21-8 1 .188-1.875.188-1.875 1-4 2.563-1.25 2.563-1.25 5-2v-2l-3-1c1-1 1-1 2.848-1.098L43 57c2.219-4.622 3.383-7.768 3-13l-7-1v2h-2v-4l-4-1c0-2 0-2 2-4.125L37 34l-6 1 2-4-4-1v-3l4-1v-2l-4-1v-2l5 1c-.276-1.94-.276-1.94-1-4l-3-2c-.688-2.625-.688-2.625-1-5l5 1v2h2V8l4 2v5l2-2 1 4-3 2c-.298 4.549-.11 8.562 1 13l3-2-2-1 .5-1.813c.611-2.3.611-2.3.5-5.187l2-2v-3l2-1-1-5 2.438-.875C51.133 9.267 51.133 9.267 52 7h4a69.17 69.17 0 0 0 4-1v4h4l1 11h-2v3h-2l1 5 2.633-.035c1.152-.01 2.305-.018 3.492-.027l3.445-.036c3.252.093 6.229.559 9.43 1.098 2.124.065 4.25.086 6.375.063l3.21-.028L93 30l1-5-7-2v4c-2.813.688-2.813.688-6 1-1.875-1.438-1.875-1.438-3-3v2h-2v-3l-2.875-.375C70 23 70 23 68 21c-.5-2.313-.5-2.313 0-5 2.813-2.625 2.813-2.625 6-5 1.831-1.705 2.884-2.768 4-5h2l1 4 2-1c.656-2.527.656-2.527 1-5Z"/><path fill="#F2C625" d="m84 82 3 2c.188 2.625.188 2.625 0 5l-7 2 5 2v2c-3.716.2-4.772.152-8-2-2.625-.167-2.625-.167-5 0l-2 4 2.14.044c3.204.075 6.407.171 9.61.269l3.367.068 3.242.107 2.984.08C94.342 98.056 95.756 99 98 101c-.468 4.056-.88 7.466-3 11h-3v2h-5c1.981 5.724 3.625 7.845 9 11l1 2 3 1v2h-2l.563 2.438L99 135l-1 1 1 3h-3l-1 4v-2h-3v7l-3 1v-5l-5 1-1-2c2-3 2-3 3-4l1-3h3c.407-2.368.407-2.368 0-5-2.12-1.81-2.12-1.81-4.875-3.125-4.946-2.607-4.946-2.607-7.125-5.875l-3-1 1.375 2.25L78 126l1.25 1.875c1.125 3.187.377 5.866-.25 9.125l-3-1 1 5-2-1-1 3-6-1v4l-2-1v-4l-5 1 1-3h3v-2h-2l1-3 5 1c2.24-2.737 2.24-2.737 1.938-5.438-.76-2.79-.76-2.79-3.5-4.5C65 123 65 123 64.561 119.939 65 117 65 117 67 114c-3.65 1.138-3.65 1.138-6.313 3.75-.862 2.821-.82 5.318-.687 8.25l-3 1v3h-2l1 5-4-2 1 5-4-1 1 6h-2v-2c-4.06 2.038-4.06 2.038-6 6l-2-1v-4l-5 1 2-7 2.75.125c3.354-.766 3.354-.766 4.504-3.277C45.809 128.94 46.979 125.082 48 121H38v-4l-5-1 3-4h-5l1-3c2.063-.688 2.063-.688 4-1v-2h-6l3-4-3-1v-2h4c-.276-1.94-.276-1.94-1-4l-3-2v-2l4-1 1 2 1-5 1 2h2l-1 5 3 1-2 2c.321 3.532.878 6.634 2 10l5-1-4-1 1-3h5v-2h-4v-2l2-1-1-3 2-1-1-5h5l1-3c1.813-.625 1.813-.625 4-1l2.25-.563L60 83v4h4l1 10-3 2c-.658 3.03-.658 3.03-1 6l-1 1 3.762-.035 4.925-.028 2.475-.025c4.115-.017 7.807.192 11.838 1.088 1.77.065 3.542.086 5.313.063l2.675-.028L93 107l1-5-7-2v5h-2l-1-2-3 2-2-3-1 2h-2v-3l-2.313.188C71 101 71 101 69.126 99.874 68 98 68 98 67.812 95.187c1.539-4.13 3.755-5.446 7.376-7.792C77.297 86.04 77.297 86.04 78 83h2l1 4 2-1c.652-2.025.652-2.025 1-4Z"/><path fill="#F0C425" d="m212 5 3 2c.313 2.5.313 2.5 0 5l-2 2v4l-2.563-.438A456.629 456.629 0 0 0 200 16l-1 4 2.156.044c3.22.075 6.438.171 9.656.268l3.393.069 3.252.107 3 .08c2.907.494 3.85 1.049 5.543 3.432.419 3.938.151 6.654-2 10l-2 2-2-1-1 2h-4c.737 3.142 1.556 6.106 3 9 3.029 1.68 3.029 1.68 6 2v2l4 1v2l-3 1 3 2v2h-2l1 4h-3l-1 4v-2h-3v7l-3-1v-4l-6 1c1.875-3.875 1.875-3.875 3-5l1-3h3c.167-2.416.167-2.416 0-5-1.999-2.261-1.999-2.261-5.438-3.375-3.554-1.621-4.485-2.51-6.562-5.625l-3-1 1.5 2.25C206 49 206 49 206 53h2l-1 7-3-1 1 5-2-1-1 3h-2l-1-2-4 1v-2l-1.813 1.063C191 65 191 65 188 64l2-2h3v-2h-2v-2l2.875.188L197 58c2.24-2.737 2.24-2.737 1.938-5.438-.76-2.79-.76-2.79-3.5-4.5C193 46 193 46 192.563 42.938 193 40 193 40 195 37c-4.148 1.663-4.148 1.663-7.156 4.781-.965 2.538-1.256 4.765-1.469 7.469l-.227 2.703L186 54l-3-1 1 5-3-1-1 4-3-1 1 6h-2v-2c-3.265 1.804-4.89 2.834-7 6l-1-5-6 1 2-1v-2l3-1-2-1v-2c3.75-1.125 3.75-1.125 6 0 1.495-3.555 2.637-7.086 3.625-10.813l.79-2.957c.192-.736.386-1.472.585-2.23l-10 1v-4h-5v-2c2-1.625 2-1.625 4-3h-6l2-4-4-2v-2l3-1-2-4h5c-1.866-3.628-1.866-3.628-5-6v-2l4-1 1 2 2-4 2 1v4h2l-1.063 1.563C166.305 21.806 167.603 25.81 169 30l5-1-4-1v-2h8l-1 6h-3v2c2.97-.628 2.97-.628 6-2 1.44-2.51 1.44-2.51 2-5h2v-2h-2v-4l-2-1 1 3-2 1v-2l-7 1v-2l2-1-1-2 3-1-2-1 1-5h4l1-3 3 1 2-3h3v4h4l-.063 2.188c-.038 2.796-.038 2.796.688 5.374.447 2.906.006 4.034-1.625 6.438l-2 1c-1.053 2.631-1.053 2.631-1 4 4.36.168 8.72.328 13.08.482 1.483.054 2.966.109 4.45.166 2.131.082 4.263.157 6.396.23l3.888.144c3.21.142 3.21.142 6.186-1.022l-1-5h-6v3h-4l-2 1-2-3-1 2h-2v-3l-2.313.188C199 24 199 24 197.188 22.813 195.518 20.264 195.43 18.997 196 16c2.704-3.23 5.21-5.24 9-7l1-2h2v3l3-1c.733-2.015.733-2.015 1-4Z"/><path fill="#EEC326" d="M52 85h4v2l-2.375 1.25C50.302 90.465 49.893 92.185 49 96v2h2l1 2 1-2 3 1h-2v2h3l-2 6 2 1c3.51 5.265 3.16 11.796 3 18l-3 1v3h-2l1 5-4-2 1 5-4-1 1 6h-2v-2c-4.06 2.038-4.06 2.038-6 6l-2-1v-4l-5 1 2-7 2.75.125c3.354-.766 3.354-.766 4.504-3.277C45.809 128.94 46.979 125.082 48 121H38v-4l-5-1 3-4h-5l1-3c2.063-.688 2.063-.688 4-1v-2h-6l3-4-3-1v-2h4c-.276-1.94-.276-1.94-1-4l-3-2v-2l4-1 1 2 1-5 1 2h2l-1 5 3 1-2 2c.321 3.532.878 6.634 2 10l5-1-4-1 1-3h5v-2h-4v-2l2-1-1-3 2-1-1-5h5l1-3Z"/><path fill="#9F1703" d="m165 87 3 1v5l2-2 1 4-3 2c-.679 6.335.43 12.163 3 18 2.5 2.835 2.5 2.835 5 5 .813 2.313.813 2.313 1 4h2v-2l1.938-.875c2.214-.953 2.214-.953 3.062-3.125h3c1.517 9.41 1.517 9.41-1 14l-3-1 1 6-1-2h-2l-1 4-2-1v6l-3 1v-3c-3.01 2.007-3.63 2.839-5 6h-2l-1 2c-1-4.875-1-4.875-1-6h-7c.75-1.938.75-1.938 2-4 2.125-.75 2.125-.75 4-1v-2l-3-1c1-1 1-1 2.848-1.098L171 135c2.219-4.622 3.383-7.768 3-13l-9 1v-4l-4-2 4-5-6 1 2-4-4-2c0-2 0-2 2-4l-2-4 5 1c-.267-1.985-.267-1.985-1-4l-3-1v-3h-2l1-3 5 1v2h2l1-5Z"/><path fill="#980700" d="M57 6h3v4h4l1 11h-2v3h-2v3h-3v2l4 1v4h-2l-1 6h-3l-2 4h-3v2h-2l-1.375-2.875C46.198 39.997 46.198 39.997 44 38c2-3 2-3 5.125-3.688L52 34l2-8c-2.96.411-4.723.788-7.125 2.625L45 30l-3-1 .5-1.813c.611-2.3.611-2.3.5-5.187l2-2v-3l2-1-1-5 2.438-.875C51.133 9.267 51.133 9.267 52 7h4l1-1Z"/><path fill="#9E1502" d="m36 8 4 2v5l2-2 1 4-3 2c-.298 4.549-.11 8.562 1 13l1.645-1.277 2.167-1.66 2.145-1.653C49 26 49 26 52 25l2 1-1 8-7 2c0 3.106.54 4.353 2 7-3.378.845-5.675 1.108-9 0v2h-2v-4l-4-1c0-2 0-2 2-4.125L37 34l-6 1 2-4-4-1v-3l4-1v-2l-4-1v-2l5 1c-.276-1.94-.276-1.94-1-4l-3-2c-.688-2.625-.688-2.625-1-5l5 1v2h2V8Z"/><path fill="#991B0B" d="m59 38 2 2c-.023 2.164-.023 2.164-.375 4.625l-.336 2.477L60 49h-3l1 5-3-1 1 6-1-2h-2l-1 4-2-1v6h-2v-2c-4.206 1.502-5.739 4.286-8 8l-2-1 1-5c-4.14-.21-4.14-.21-8 1 .188-1.875.188-1.875 1-4 2.563-1.25 2.563-1.25 5-2v-2l-3-1c1-1 1-1 2.848-1.098L43 57c2.227-4.744 3.461-8.723 4-14h2v3h2v-2l1.938-.875c2.214-.953 2.214-.953 3.062-3.125h3v-2Z"/><path fill="#9D4909" d="M212 82h2c.977 6.055.977 6.055 1 8l-2 2v4l-14-2 1 4 2.064.044c3.083.075 6.166.171 9.249.269l3.248.068 3.115.107 2.872.08C223 99 223 99 224.818 100.286c2.022 2.931 1.483 6.309 1.182 9.714-.5 2.5-.5 2.5-1 4h-4v2l-6 1v-2c2.906-1.257 4.796-2 8-2v-4l-3-1 2-1-1-4-6-1v3l-7 1v-3h-2v2h-2v-3l-2.313.188C199 102 199 102 197.188 100.811 196 99 196 99 195.375 96.689c.976-4.198 4.107-6.372 7.625-8.688h2l1-4h2v4l3-1 1-5Z"/><path fill="#A00E02" d="M63 114h4l-.43 1.793c-.466 2.509-.768 4.658-.57 7.207 1.26 1.57 1.26 1.57 3 2.688L72 128c.125 3.188.125 3.188-1 6-1.875 1.438-1.875 1.438-4 2l-3-1-1 2h2v2l-3 1-1 2 5-1c.93 2.606 1.15 3.642.063 6.25L65 149l-2-2v-4h-7v-6l-2-1v3l-2-1v-5l3 1v-4h2l-1-5 4 1-.688-2.688c-.369-3.912.389-5.217 2.688-8.312l1-1Z"/><path fill="#9A0D01" d="M185 84h3v4h4l-1 6h2v5h-2v3h-2v3l-4-1v-2h-3l-1-1-2.75 1.063c-3.128.902-4.302 1.07-7.25-.063l1-3 2-1v-3l2 1v-2l-3-1c.188-1.875.188-1.875 1-4 2.5-1.125 2.5-1.125 5-2l1-2h4l1-1Z"/><path fill="#E0B421" d="m84 82 3 2c.188 2.625.188 2.625 0 5l-7 2 5 2v2c-3.716.2-4.772.152-8-2-2.625-.167-2.625-.167-5 0l-2 4 2.14.044c3.204.075 6.407.171 9.61.269l3.367.068 3.242.107 2.984.08C94.342 98.056 95.756 99 98 101c-.468 4.056-.88 7.466-3 11h-3v2l-2-1 2-4h-7v-1l8-1 1-5-7-2v5h-2l-1-2-3 2-2-3-1 2h-2v-3l-2.313.188C71 101 71 101 69.126 99.874 68 98 68 98 67.812 95.187c1.539-4.13 3.755-5.446 7.376-7.792C77.297 86.04 77.297 86.04 78 83h2l1 4 2-1c.652-2.025.652-2.025 1-4Z"/><path fill="#9E1302" d="m65 93 4 1 1 5 6 2v3h2l1-3 3 3 2-2 1 3h2v-5l7 1c.625 2.375.625 2.375 1 5-2 2-2 2-4.207 2.23l-2.606-.043-2.582-.019C83 108 83 108 80.75 107.48c-4.762-.832-9.602-.44-14.42-.265-2.11.038-4.223-.078-6.33-.215l-2-3h2v-3h2l-1-3 3-1c.733-2.015.733-2.015 1-4Z"/><path fill="#F0C324" d="m36 87 1 2h2l-1 5 3 1-2 2c.47 7.528 2.4 14.999 7 21v2l-8 1v-4l-5-1 3-4h-5l1-3c2.063-.688 2.063-.688 4-1v-2h-6l3-4-3-1v-2h4c-.276-1.94-.276-1.94-1-4l-3-2v-2l4-1 1 2 1-5Z"/><path fill="#A01304" d="m195 37-.43 1.793c-.466 2.509-.768 4.658-.57 7.207 1.26 1.57 1.26 1.57 3 2.688L200 51c.125 3.188.125 3.188-1 6-3.015 2.028-4.972 2.148-8.5 1.563-3.18-.518-5.41-.525-8.5.437v3l-2-1 1-4h2v-4h2l.078-1.758c.407-5.604 1.33-8.889 4.922-13.242 2-1 2-1 5-1Z"/><path fill="#F3C525" d="m65 16 3 1 .813 2.438c.99 2.892.99 2.892 4.312 3.875L76 24v3h2v-2l1.813 1.063c2.295 1.27 2.295 1.27 5.187-.063l2 1v-4c2.875-.125 2.875-.125 6 0l2 2c-.556 4.556-.556 4.556-2 6-10.317.843-20.768-.801-31-2l-1-5h2v-3h2v-5Z"/><path fill="#9A2C06" d="m163 7 5 2v3c3.05 1.011 3.05 1.011 6 0v4l3 1-3 2 2 2h-4v2l3.438-.5C179 22 179 22 180 22v-2l4 2-2 3h2v2h-2l-.375 2.375C181 32 181 32 179 34c-2.625.125-2.625.125-5 0v-2h3v-5l-7-1v2h5c-1.25 1.563-1.25 1.563-3 3-2.063.063-2.063.063-4-1-1.903-3.986-2.365-6.792-1-11l2-3h-2v-4l-3-1c-.688-2.063-.688-2.063-1-4Z"/><path fill="#E6BC23" d="M52 85h4v2l-2.375 1.25C50.302 90.465 49.893 92.185 49 96v2h2l1 2 1-2 3 1h-2v2h3l-1 3h-2l-.375 2.313C53 109 53 109 51 112c-2.625.188-2.625.188-5 0l2 9h-5l3-1-1.938-2.625C42.026 114.04 41.367 111.84 41 108l5-2-4-1 1-3h5v-2h-4v-2l2-1-1-3 2-1-1-5h5l1-3Z"/><path fill="#F5C826" d="m193 94 3 1 .813 2.438c.99 2.892.99 2.892 4.312 3.874L204 102v3h2v-2h2v3l1.813-1.063C212 104 212 104 215 105v-3c2.875-.125 2.875-.125 6 0l2 2c-.25 2.063-.25 2.063-1 4-5.958 2.979-15.602.665-22.063 0l-2.912-.29c-2.342-.232-4.684-.47-7.025-.71l-1-5h2v-3h2v-5Z"/><path fill="#9C1108" d="M75 121c1.938.313 1.938.313 4 1l1 3c1.65.707 3.32 1.366 5 2a185.978 185.978 0 0 1 6 4l-1 7-1-2-3 3 2 1-3 1-2 2.063C81 145 81 145 78 145v-3l-2-1v-5h2c1.135-4.431 1.135-4.431-.375-8.625L76 125c-.688-2.313-.688-2.313-1-4Z"/><path fill="#A00A02" d="M203 44c4.28.475 6.064 3.064 9 6 2.6 1.19 2.6 1.19 5 2l2 2c-.375 3.625-.375 3.625-1 7l-1-2-3 3 2 1-3 1-2 2.063C209 68 209 68 206 68l-2-9h2l2-6h-2c-1.24-2.974-2.3-5.853-3-9Z"/><path fill="#A00000" d="M171 103h4c.089 3.199-.09 5.927-1 9 2.343-.256 4.678-.593 7-1l1-2h8v3h-2l-1 6h-3l-2 4h-3v2h-2l-1-3-2.438-2.313c-2.727-2.86-3.595-4.905-4.562-8.687l4-3h-3l1-4Z"/><path fill="#8B0000" d="m49 23 12 3-3 1v2l4 1v4h-2l-1 6h-3l-2 4h-3v2h-2l-1.375-2.875C46.198 39.997 46.198 39.997 44 38c2-3 2-3 5.125-3.688L52 34l2-8h-5v-3Z"/><path fill="#F0C428" d="m192 115 3 1-2 3c-.058 2.467-.058 2.467 1 5l2.625 2.375C199 129 199 129 198.813 132.813L198 136h-4v-3h-5v2h2l1 5-5-1 3-1v-2l-6 1-1-6h2c1.685-2.696 2.137-4.892 2.375-8 .316-3.194.536-3.892 2.688-6.5L192 115Z"/><path fill="#F1C426" d="m65 37 2 1-2 3c-.058 2.467-.058 2.467 1 5l2.625 2.375C71 51 71 51 70.813 54.813L70 58h-4v-3c-3.93.575-3.93.575-7 3a88.982 88.982 0 0 1-4 2v-7h2v-4h3l-.625-2.75c-.393-3.403-.396-4.555 1.625-7.25 2-1.313 2-1.313 4-2Z"/><path fill="#9F1D03" d="M215 23c2.875-.125 2.875-.125 6 0l2 2c-.375 2.625-.375 2.625-1 5-5.242 1.747-10.882.979-16.361.813a656.96 656.96 0 0 0-6.59-.145l-4.178-.121-3.846-.099L188 30l-2-3h2v-3h2l1 4h12v-3l-2-1h3v3h2l1-3 3 3 2-2 2 1 1-3Z"/><path fill="#8E1502" d="M84 4h2c.977 6.055.977 6.055 1 8l-2 2v4c-3.716.2-4.772.152-8-2-2.625-.167-2.625-.167-5 0v4l21 1v1c-3.79.225-7.583.427-11.375.625l-3.273.195-3.125.157-2.889.158C70 23 70 23 68 21c-.5-2.313-.5-2.313 0-5 2.813-2.625 2.813-2.625 6-5 1.831-1.705 2.884-2.768 4-5h2l1 4 2-1c.656-2.527.656-2.527 1-5Z"/><path fill="#E7BB26" d="M76 44h2l1.688 2.313C82.474 49.55 85.061 50.468 89 52c2 2 2 2 2.125 4.625L91 59h-8l3 1 1 3-6 1v4h-2v-4h-2l-1-5h2c1.15-4.447 1.15-4.447-.438-8.625L76 48v-4Z"/><path fill="#E6BB23" d="m212 5 3 2c.313 2.5.313 2.5 0 5l-2 2v4l-2.563-.438A456.629 456.629 0 0 0 200 16l-1 4 24 1v1l-19 1v1c-4.45.36-4.45.36-6.813-1.188-1.669-2.547-1.758-3.815-1.187-6.812 2.704-3.23 5.21-5.24 9-7l1-2h2v3l3-1c.733-2.015.733-2.015 1-4Z"/><path fill="#EEC227" d="M204 122h2l2.313 2.375c2.585 2.526 4.295 3.56 7.687 4.625v2l3 1v5h-8l3 1 1 3-6 1v4h-2v-4h-2l-1-5 4 1 1-7h-2c-2.432-3.367-3-4.734-3-9Z"/><path fill="#7A0814" d="m181 99 3 1h-2v2h3v2l2 1-2 1v3h-3l-1 3-7 1c-1.374-3.122-.891-4.338.188-7.688C176 102 176 102 178.125 101.189L180 101l1-2Z"/><path fill="#9B2F05" d="M212 82h2c.977 6.055.977 6.055 1 8l-2 2v4l-7-1v-2h-6c1.375-2.5 1.375-2.5 3-5h2l1-4h2v4l3-1 1-5Z"/><path fill="#EBBE23" d="M87 23c2.875-.125 2.875-.125 6 0l2 2c-.556 4.556-.556 4.556-2 6-6.029.319-12.087.314-18-1l4-2-1-3 1.813 1.063c2.295 1.27 2.295 1.27 5.187-.063l2 1v-4Z"/><path fill="#9A3006" d="M52 7h4v3l-2.375 1.25c-2.965 1.612-2.965 1.612-4 5.313-.952 3.283-.952 3.283.375 5.437-1.4 5.6-1.4 5.6-5 8l-3-1 .5-1.813c.611-2.3.611-2.3.5-5.187l2-2v-3l2-1-1-5 2.438-.875C51.133 9.267 51.133 9.267 52 7Z"/><path fill="#834840" d="M165.938 134.875C169 135 169 135 171 136v2h-2v2l4 2-3 6h-2l-1 2c-1-4.875-1-4.875-1-6h-7c.75-1.938.75-1.938 2-4 2.125-.75 2.125-.75 4-1v-2l-3-1c1-1 1-1 3.938-1.125Z"/><path fill="#852938" d="M63.813 131.688 66 132c0 2 0 2-1.5 3.625L63 137h2v2l-3 1-1 2 5-1c.93 2.606 1.15 3.642.063 6.25L65 149l-2-2v-4h-7c-.472-4.058-.333-5.562 2.188-8.875C61 132 61 132 63.812 131.687Z"/><path fill="#830E1E" d="M50 25c2.063.438 2.063.438 4 1l-1 8-3.438.875L46 36l-1 2-3-1-1-5 1.715-1.277 2.222-1.66 2.215-1.653C48.913 26.13 48.913 26.13 50 25Z"/><path fill="#A74D0B" d="M213 100c1.791-.054 3.583-.093 5.375-.125l3.023-.07C224 100 224 100 226 102c.202 4.18.337 7.99-1 12h-4v2l-6 1v-2c2.906-1.257 4.796-2 8-2v-4l-3-1 2-1-1-4-6-1v3l-4-1v-2h2v-2Z"/><path fill="#B38F1B" d="m180 20 4 2-2 3h2v2h-2l-.375 2.375C181 32 181 32 179 34c-2.625.125-2.625.125-5 0v-2h3v-5l-6-1 1-4h8v-2Z"/><path fill="#991412" d="M218 54h1l-1 7-1-2-3 3 2 1-3 1-2 2.063C209 68 209 68 206 68c-.934-3.01-1.044-3.867 0-7 2.125-2.25 2.125-2.25 5-4 3.813.25 3.813.25 7 1v-4Z"/><path fill="#9D0000" d="M53.875 35.063C55.441 37.758 55.204 39.94 55 43l-4 1v2h-2l-1.375-2.875C46.198 39.997 46.198 39.997 44 38c2-3 2-3 4.938-3.875C52 34 52 34 53.874 35.063Z"/><path fill="#DFB321" d="M172 91c2 1.375 2 1.375 4 3v2l-2 1 1 2-3 1-1 2 4 1-4 1v2l3 1c-1.375 1.5-1.375 1.5-3 3h-2c-2.255-4.51-2.324-8.054-2-13l2-2h3v-4Z"/><path fill="#A04B0A" d="M188 24h2l1 4h12v-3l-2-1h3v3h2l1-3c3.013 1.507 3.61 4.032 5 7-3.96-.08-7.917-.193-11.875-.313l-3.418-.068-3.262-.107-3.015-.08L188 30l-2-3h2v-3Z"/><path fill="#703C4B" d="M85.375 57.875C88 58 88 58 91 59c-.14 1.792-.288 3.584-.438 5.375-.08.998-.162 1.995-.246 3.023C90 70 90 70 89 72h-2l1-5-2-1v2h-3v-2l-3 1 1-4 5-1v-2l-4-1c1-1 1-1 3.375-1.125Z"/><path fill="#9E3306" d="m44 94 4 4h-4v2h4v2l-2.438.375L43 103l-1 2h5c-1.25 1.563-1.25 1.563-3 3-2.063 0-2.063 0-4-1-1.877-3.378-2.218-6.176-2-10l1.875-.375c2.316-.497 2.316-.497 4.125-2.625Z"/><path fill="#E2B622" d="m45 12 3 4-3 1 1 4-3 2 3 2-3 1-1 3 3 1-4 2c-2.263-4.526-2.48-8.034-2-13 1.875-1.75 1.875-1.75 4-3 1.252-2.083 1.252-2.083 2-4Z"/><path fill="#CBA736" d="M170 26h8l-1 6h-3v2l7-2-1 3h-6l2 8h-2c-3.09-3.933-4.526-7.021-5-12l5-2-4-1v-2Z"/><path fill="#7E4146" d="m36 8 4 2v5l2-2 1 4c-2.403 1.513-3.633 2.037-6.5 1.75-4.569-1.37-4.569-1.37-6.5-2.75-.75-2.625-.75-2.625-1-5l5 1v2h2V8Z"/><path fill="#9F1401" d="M200 15c4.597.354 8.681 1.42 13 3v1l7 1v1h-21l-1-4 2-2Z"/><path fill="#9C1402" d="M72 92c4.333.417 8.035 1.198 12 3v1l8 1v1c-3.292.029-6.583.047-9.875.063l-2.84.025-2.715.01-2.507.016C72 98 72 98 70 97c.875-3.875.875-3.875 2-5Z"/><path fill="#834A4A" d="m165 87 3 1v5l2-2 1 4-4 2-2-4h-2l-1 3-4-1v-3h-2l1-3 5 1v2h2l1-5Z"/><path fill="#EDC024" d="M72 15c4.333.417 8.035 1.198 12 3v1l9 1v1H72l-1-5 1-1Z"/><path fill="#E5BB23" d="m180 8 2 2-2 2 2 4-1.938.813C177.67 17.887 177.67 17.887 177 21l2 1-7 1v-2l2-1-1-2 3-1-2-1 1-5h4l1-3Z"/><path fill="#D8AF26" d="M87 136h2l3 3 3 1v-2l4-1v2h-3l-1 4v-2h-3v7l-3 1v-5l-5 1-1-2c2-3 2-3 3-4l1-3Z"/><path fill="#8A202A" d="m88 135-2 4 2 1-3 1-2 2.063C81 145 81 145 78 145c-.313-3.313-.313-3.313 0-7 3.21-2.844 5.785-3.361 10-3Z"/><path fill="#DEB529" d="M215 59c2 0 2 0 3.5 1.438L220 62l2 1v-2l5-1v2h-3l-1 4v-2h-3v7l-3-1v-4l-6 1c1.875-3.875 1.875-3.875 3-5l1-3Z"/><path fill="#A03F08" d="M165 91h1c1.206 4.672 1.094 9.215 1 14l-3-4-1 3c-2.063.688-2.063.688-4 1l-2-6 5 1 1-7h2v-2Z"/><path fill="#8B0000" d="M182 109h8v3h-2l-1 6h-3l-1 2a441.573 441.573 0 0 1-1.063-4.375l-.597-2.46C181 111 181 111 182 109Z"/><path fill="#F3C725" d="M199 94c5.192-.212 9.127.409 14 2v1l7 1v1h-20l-1-5Z"/><path fill="#83534B" d="M37.938 56.875C41 57 41 57 43 58v2h-2l-1 5-3.375.438c-3.446.346-3.446.346-5.625 1.562.188-1.875.188-1.875 1-4 2.563-1.25 2.563-1.25 5-2v-2l-3-1c1-1 1-1 3.938-1.125Z"/><path fill="#F5C927" d="M181.875 35.125c1.447 2.412 1.35 4.11 1.125 6.875l-3-1c-.688-2.063-.688-2.063-1-4h-2l1 2c.188 3.5.188 3.5 0 7l-2 2c-2.286-8.429-2.286-8.429-2-13 5.447-1.332 5.447-1.332 7.875.125Z"/><path fill="#F7CA26" d="m54 112 1 7-2 1-2-6h-2l1 2c.04 2 .043 4 0 6h-2c-1.604-3.508-2.22-6.144-2-10 3.287-.8 4.71-1.097 8 0Z"/><path fill="#E0B527" d="m36 87 1 2h2l-1 5 3 1c-2.834 3.254-4.686 4.52-9 5l2-1c-.276-1.94-.276-1.94-1-4l-3-2v-2l4-1 1 2 1-5Z"/><path fill="#76454D" d="m186 139 2.75.5c3.36.601 3.36.601 7.25.5a69.17 69.17 0 0 1 4 1c-1 2-1 2-3 3l-1 3h-2l-1 3-1-1v-5c-1.125-1.356-1.125-1.356-4.063-1.063L185 143l1-4Z"/><path fill="#CD9F1C" d="m201 11 2 1-2 2.313c-2.299 2.53-2.299 2.53-2 5.687l24 1v1l-19 1v1c-4.45.36-4.45.36-6.813-1.188-1.669-2.547-1.758-3.815-1.187-6.812 2.5-2.813 2.5-2.813 5-5Z"/><path fill="#DFB528" d="m164 11 3 1v4h2c-1.152 2.468-2.048 4.048-4 6h-2a264.271 264.271 0 0 1-3-5l-2-1v-2l4-1 1 2 1-4Z"/><path fill="#890202" d="M171 103h4c.127 4.59.127 4.59-.563 6.813-.696 3.484.038 6.687.563 10.187-3.536-3.173-5.586-5.167-6-10l4-3h-3l1-4Z"/><path fill="#E2B929" d="m64 134 5 2v4h3l-1 2h-3v4l-2-1v-4l-5 1 1-3h3v-2h-2l1-3Z"/><path fill="#D5A91E" d="M70 91h2l-2 6 24 1v1l-1.68.076c-2.524.116-5.047.239-7.57.362l-2.645.119-2.558.127-2.349.11c-2.216.145-2.216.145-4.369.792C71 101 71 101 69.188 99.938 68 98 68 98 68.25 94.874 69 92 69 92 70 91Z"/><path fill="#EBC12B" d="m184 24 1 2 2 1c1.625 1.313 1.625 1.313 3 3v4h-2l-1 4-.75-2.438c-.972-2.733-.972-2.733-3.375-3.374L181 32l1-5h2v-3Z"/><path fill="#9D2C05" d="m34 17 5 1v9l-3-4-1 3h-2v-2l-4-1v-2l5 1v-5Z"/><path fill="#D4AB2B" d="m39 135 3 1-1 3 4 2-3 6-2-1v-4l-5 1c.599-2.352 1.27-4.686 2-7l2-1Z"/><path fill="#39479A" d="M178 103c2.063.438 2.063.438 4 1-.498 3.735-.875 5.812-3 9-2.625.188-2.625.188-5 0v-3h3l-.063-2.938C177 104 177 104 178 103Z"/><path fill="#CBA11C" d="m190 14 3 2c-.523 2.763-1.109 5.326-2 8-2.063.688-2.063.688-4 1l1-6h-3v-3c2.313-1.125 2.313-1.125 5-2Z"/><path fill="#D6AE2C" d="M169 58v4l4 2-3 6c-2-3-2-3-2-5l-6 1 2-1v-2l3-1-2-1v-2c2-1 2-1 4-1Z"/><path fill="#9C4608" d="M70 14h1l1 6 21 1v1c-3.79.225-7.583.427-11.375.625l-3.273.195-3.125.157-2.889.158C70 23 70 23 68 21c-.25-2.5-.25-2.5 0-5l2-2Z"/><path fill="#63476A" d="M58 138h4l-1 4 5-1c.93 2.606 1.15 3.642.063 6.25L65 149l-2-2v-4l-6-1 1-4Z"/><path fill="#7B3037" d="m173 142-3 6h-2l-1 2-.438-2.438c-.303-2.483-.303-2.483-1.562-3.562v-3c3.403-1.215 4.933-.862 8 1Z"/><path fill="#E4B92A" d="m208 135 1.313 1.5c1.684 1.832 1.684 1.832 4.687 1.5l1 3-6 1v4h-2v-4h-2l-1-5 4 1v-3Z"/><path fill="#664769" d="M32 139h4l1 3h3c1.125 3.75 1.125 3.75 0 6h-3v-4h-6l1-5Z"/><path fill="#3056A0" d="m50 102 5 1c-2.875 6.875-2.875 6.875-4 8-1.666.04-3.334.043-5 0l1-3 2 1 1-7Z"/><path fill="#9F0500" d="M200 100h13v2h-2l-1 4h-2v-3h-2v2h-2v-4l-4-1Z"/><path fill="#1F50AC" d="M50 25c2.063.438 2.063.438 4 1-.75 5.75-.75 5.75-3 8-2.625.125-2.625.125-5 0v-2h3l-.063-2.938C49 26 49 26 50 25Z"/><path fill="#2F56A3" d="m178 25 4 1c-.75 5.75-.75 5.75-3 8-2.625.125-2.625.125-5 0v-2h3l1-7Z"/><path fill="#D5AD1F" d="M49 114h2c1.495 2.273 2.784 4.568 4 7l-2.875 2.25c-2.45 2.028-3.998 3.708-5.125 6.75-1-2-1-2-.063-5.125L48 122h2l-1-8Z"/><path fill="#EABE23" d="M73 99h11l1 4-4 2-2-3-1 2h-2l-1-3-2-2Z"/><path fill="#763E53" d="m35 84 4 1 .313 1.938L40 89l3 1v4h-5l1-5h-2l-2-5Z"/><path fill="#887D6D" d="M61 55h5v3h-3l1 4h-3v2l-4 1 1-4 4-1v-2h-2l1-3Z"/><path fill="#9A0E01" d="M71 22h14v2c-2.375 1.063-2.375 1.063-5 2l-2-1v2h-2v-3l-5-1v-1Z"/><path fill="#7C090E" d="m49 23 12 3-3 1v2h2v2c-1.176-.03-1.176-.03-2.375-.063-2.606-.124-2.606-.124-4.625 1.063l1-6h-5v-3Z"/><path fill="#D3A81E" d="M52 85h4v2l-2.375 1.313C50.583 90.267 50.01 91.603 49 95l-4-1 2-1-1-5h5l1-3Z"/><path fill="#EFC425" d="M200 22h12l1 2h-2l-1 4-3-3-1 2h-2v-4l-4-1Z"/><path fill="#CDA21D" d="M203 13h10l1 4c-3.553 1.15-4.8 1.087-8.313-.438L203 15v-2Z"/><path fill="#A13F08" d="M63 114h4l-2 8h-2l-1-2-3 2c1.75-5.75 1.75-5.75 4-8Z"/><path fill="#713759" d="m163 7 5 2v3l3 1v4l-4-1v-4l-3-1c-.688-2.063-.688-2.063-1-4Z"/><path fill="#9D3C07" d="M75 121c1.938.313 1.938.313 4 1l1 3c2 1.209 2 1.209 4 2h-3v6c-5.23-7.846-5.23-7.846-6-12Z"/><path fill="#BB962A" d="M41 108h2l1 4 1-1c2-.04 4-.043 6 0v1h-5l2 9h-5l3-1-1.938-2.625C42.026 114.04 41.367 111.84 41 108Z"/><path fill="#EBC231" d="M83.688 59.375 86 60l1 3-6 1v4h-2l-1-7c3-2 3-2 5.688-1.625Z"/><path fill="#77424A" d="M221 142v6l-6 2 1-5h2v-2c2-1 2-1 3-1Z"/><path fill="#A5540C" d="m180 85 4 1v2c-2.813 1.563-2.813 1.563-6 3l-3-1 1 4-3-1c.188-1.875.188-1.875 1-4 2.5-1.125 2.5-1.125 5-2l1-2Z"/><path fill="#9F4709" d="M82.125 12.875 85 13c.563 1.938.563 1.938 1 4-1 1-1 1-3.375 1.25C80 18 80 18 78.187 16.5L77 15c2-2 2-2 5.125-2.125Z"/><path fill="#9B2604" d="M84 4h2l1 8-5 1-1-3 2-1c.656-2.527.656-2.527 1-5Z"/><path fill="#984D0A" d="m56 125 3 2-2 9h-3v3l-2-1v-5l3 1v-4h2l-1-5Z"/><path fill="#941903" d="M203 88h4l1 7h-2v-2h-6c1.25-2.5 1.25-2.5 3-5Z"/><path fill="#734D59" d="m218 65-1 7c-1.875-.25-1.875-.25-4-1-1.25-2.063-1.25-2.063-2-4 5.875-2 5.875-2 7-2Z"/><path fill="#7C574F" d="M214 139h2v3h-3v2l2 1c-3.01.934-3.867 1.044-7 0l1-4 5-1v-1Z"/><path fill="#E0B72C" d="M87 136h2c1.625 2 1.625 2 3 4l-8 5-1-2c2-3 2-3 3-4l1-3Z"/><path fill="#9E0104" d="M181 112c2.152 3.228 2.2 4.284 2 8l-3-1-.438-1.938c-.363-2.265-.363-2.265-2.625-3.312L175 113c2.076-.553 3.844-1 6-1Z"/><path fill="#8A7552" d="m195 61 2 1c0 3.867-1.42 6.509-3 10l-2-1v-5h2v-2l-2-1h3v-2Z"/><path fill="#7D4A4B" d="M81 63h6v2l2 1h-3v2h-3v-2l-3 1 1-4Z"/><path fill="#7E3E3E" d="M37.938 56.875C41 57 41 57 43 58v2h-2v4l-2-1 1-2h-3v-2l-3-1c1-1 1-1 3.938-1.125Z"/><path fill="#9C560B" d="m94 32 1 2 2 1-4 1v2h-5l1 6-2-1v-6l4-1v-2h3v-2Z"/><path fill="#A45E0D" d="m162 115 5 2v3l7 1v1l-9 1v-4l-4-2 1-2Z"/><path fill="#DCB63B" d="M49 103c1.245 2.49.777 3.41 0 6h-2a90.488 90.488 0 0 0-4 4c-.375-2.188-.375-2.188 0-5 1.84-1.99 3.792-3.39 6-5Z"/><path fill="#9E0105" d="M53.813 35.125C55.34 37.538 55.227 39.196 55 42l-3-1-.438-1.938c-.363-2.265-.363-2.265-2.624-3.312L47 35c4.47-1.329 4.47-1.329 6.813.125Z"/><path fill="#9E3907" d="m62 14 3 1v6h-2v3h-2l-1 2v-3h2c.167-2.416.167-2.416 0-5l-2-2 2-2Z"/><path fill="#D6AD1F" d="m205 55 3 1-2 4-2-1 1 5-2-1-2 3c-.125-5.75-.125-5.75 1-8h4l-1-3Z"/><path fill="#9D620E" d="m189 104 1 3h15v1c-2.792.027-5.583.047-8.375.063l-2.406.025c-5.992.025-5.992.025-8.219-1.088v-2l3-1Z"/><path fill="#943506" d="M73 101h3v3h2l1-3 2 1c.625 2.563.625 2.563 1 5h-4v-2h-3v-3l-2-1Z"/><path fill="#9A3205" d="m65 93 4 1c-.386 2.798-.801 3.82-2.938 5.75C64 101 64 101 62 101l-1-3 3-1c.733-2.015.733-2.015 1-4Z"/><path fill="#9B4409" d="M207 91h6c.563 1.938.563 1.938 1 4-1 1-1 1-3.563 1.063L208 96l-1-5Z"/><path fill="#994107" d="m227 60 1 3h-3v4h-3v3h-2v-6h3l1-2h3v-2Z"/><path fill="#840800" d="M74 35h2c1.43 2.354 2.087 3.48 1.625 6.25L77 43v-3l-2.25.125c-3.966-.18-5.972-1.347-8.75-4.125 3.625-.201 5.865.142 9 2l-1-3Z"/><path fill="#8E452C" d="M37 13h2l1 2 2-2 1 4c-1.75 1.125-1.75 1.125-4 2-2.25-.875-2.25-.875-4-2v-2h2v-2Z"/><path fill="#DBB020" d="M206 103h2v3l2 1c-2.915.81-4.461 1.218-7.313.063L201 106l1-2 4 1v-2Z"/><path fill="#9C5A0C" d="M99 56c1 3 1 3-.313 6.625C97 66 97 66 95 67v-3l-2-1h2v-2h3l-1-4 2-1Z"/><path fill="#F7CA27" d="M182 31c1.938.688 1.938.688 4 2 .75 2.625.75 2.625 1 5l-2 1-2-5h-2l1-3Z"/><path fill="#806260" d="m166 139 1 2h-2v3h-6c.688-1.938.688-1.938 2-4 2.625-.75 2.625-.75 5-1Z"/><path fill="#A98A1C" d="m53 98 3 1h-2v2h3l-1 3-7-1v-4l3 1 1-2Z"/><path fill="#A04309" d="M203 44c1.875.25 1.875.25 4 1 1.25 2.063 1.25 2.063 2 4h-2l-1 4c-1.24-2.974-2.3-5.853-3-9Z"/><path fill="#CEA91E" d="M177 37h2l.875 1.875c1.062 2.258 1.062 2.258 3.125 4.125l-1 2h-4l-1-8Z"/><path fill="#9D650E" d="m61 26 1 3h13v1c-2.458.027-4.917.047-7.375.063l-2.117.025c-5.281.025-5.281.025-7.508-1.088v-2l3-1Z"/><path fill="#810000" d="M177 115h2l.875 1.875c1.062 2.258 1.062 2.258 3.125 4.125l-4 1v2l-2-1v-8Z"/><path fill="#E6BA26" d="m191 58 6 1-3 1 1 3c-1.813 1.063-1.813 1.063-4 2l-3-1 2-2h3v-2h-2v-2Z"/><path fill="#72434E" d="M218 54h1l-1 7-1-2-6 1v-3l7 1v-4Z"/><path fill="maroon" d="M49 37h2l.875 1.875C52.937 41.133 52.937 41.133 55 43l-4 1v2l-2-1v-8Z"/><path fill="#E0B831" d="M170 26h8l-1 5h-3v-2l-4-1v-2Z"/><path fill="#1B4A9E" d="m178 103 4 1-1 6h-2l-1-7Z"/><path fill="#A3510B" d="M215 101c3.375-.125 3.375-.125 7 0 2.565 2.565 2.54 4.477 3 8l-2 1-3-2 2-1-1-4-6-1v-1Z"/><path fill="#A65F0E" d="m32 101 2 2-3 2 5 1v2l-7-1-1-4h4v-2Z"/><path fill="#CCA423" d="m72 140-1 2h-3v4l-2-1v-4l-2-1c3.29-1.097 4.713-.8 8 0Z"/><path fill="#815552" d="M189 133h5l1 4h-2l-1 3-1-5h-2v-2Z"/><path fill="#E0B621" d="M181 135h2l1 3-2 3h-3l-1 2v-5h2l1-3Z"/><path fill="#CCA61E" d="M62 107v4h-2l-1 4-.938-2.375c-.99-2.548-.99-2.548-2.062-4.625 2.076-.553 3.844-1 6-1Z"/><path fill="#8A0800" d="M175 90h3v2l4 1-1 2-3-1-2 2-1-6Z"/><path fill="#9F630E" d="M76 90h10l-1 4-9-3v-1Z"/><path fill="#CDA81E" d="M190 30v4h-2l-1 4-.938-2.375c-.99-2.548-.99-2.548-2.062-4.625 2.076-.553 3.844-1 6-1Z"/><path fill="#9A3406" d="M194 114h4c-1.527 3.436-3.6 6.12-6 9 .486-3.123.999-5.996 2-9Z"/><path fill="#992905" d="M171 103h4v5h-3c-1-1-1-1-2-4l1-1Z"/><path fill="#89182D" d="M176 102h1v8h-3l-1 2c.308-1.48.622-2.96.938-4.438l.527-2.496C175 103 175 103 176 102Z"/><path fill="#9B3B18" d="M93 64v6l-4 2c.256-2.343.593-4.678 1-7 2-1 2-1 3-1Z"/><path fill="#984408" d="M208 53h1v7l-3 1-1 3-1-5h2l2-6Z"/><path fill="#C6991A" d="m78 25 3 1 1 4 3 1-10-1 4-2-1-3Z"/><path fill="#9C2404" d="m77 8 1 3c-2.363 2.526-3.665 3.888-7 5 .25-1.875.25-1.875 1-4 2-1.125 2-1.125 4-2l1-2Z"/><path fill="#7E5F55" d="m36 8 4 2v3h-3v2l-3-1h2V8Z"/><path fill="#D1A71E" d="M78 127c2.567 3.85 1.833 5.586 1 10h-4v-2h3l-.563-1.75c-.477-2.457-.194-3.894.563-6.25Z"/><path fill="#970A00" d="M165 91h1l1 7c-1.938-.375-1.938-.375-4-1l-1-2 1-2h2v-2Z"/><path fill="#932C04" d="M78 50c2.567 3.85 1.833 5.586 1 10h-4v-2h3l-.563-1.75c-.477-2.457-.194-3.894.563-6.25Z"/><path fill="#DBB321" d="m189 15 2 2-2 5-1-3h-3v-3c1.875-.625 1.875-.625 4-1Z"/><path fill="#A24709" d="M202.563 14.938 205 15l-5 5 3 1-5-1c1.124-4.979 1.124-4.979 4.563-5.063Z"/><path fill="#DBB120" d="m175 11 4 1-2 4h-3l1-5Z"/><path fill="#59427A" d="M81 140h3l-1 4-4 1c.875-3.875.875-3.875 2-5Z"/><path fill="#9A500A" d="m40 104 7 1c-1.25 1.563-1.25 1.563-3 3-2.188-.313-2.188-.313-4-1v-3Z"/><path fill="#962F05" d="m205 101 4 1v2l2 1-3 1v-3h-2v2h-2l1-4Z"/><path fill="#E4B822" d="m193 94 3 1v4l-5 2v-2h2v-5Z"/><path fill="#8D5D41" d="m166 91 2 2 2-2 1 4-4 2c-1-1-1-1-1.063-3.563L166 91Z"/><path fill="#7D5D52" d="m165 87 3 1v3h-3v2l-3-1h2l1-5Z"/><path fill="#5C447A" d="M209 63h3l-1 4-4 1c.875-3.875.875-3.875 2-5Z"/><path fill="#913805" d="m183 53 3 1-1 5h-3v3l-2-1 1-4h2v-4Z"/><path fill="#A0570C" d="M33 39h6v3l3 1h-3v2h-2v-4l-4-2Z"/><path fill="#E4B822" d="m65 16 3 1v4l-5 2v-2h2v-5Z"/><path fill="#974107" d="M79 134h2l-1 4h-2v4l-2-1v-5h2l1-2Z"/><path fill="#9E4108" d="M192 94h1v5h-2v3h-2l-1 2v-3h2l.438-2.375C191 96 191 96 192 94Z"/><path fill="#DFB621" d="M62 93h3l-1 5h-3l1-5Z"/><path fill="#F2C525" d="m74 88 7 1v1h-6v2h-3l2-4Z"/><path fill="#59477D" d="M164 62v3l-5 2v-4c2-1 2-1 5-1Z"/><path fill="#624B77" d="M189 55h5v3h-6l1-3Z"/><path fill="#A7560C" d="m189 39 2 3-1.438 1.813c-1.727 2.19-1.727 2.19-2.562 5.187-1.064-3.384-1.214-4.58.438-7.813L189 39Z"/><path fill="#872037" d="M49 27v5h-3l-1 2-1-4c3.875-3 3.875-3 5-3Z"/><path fill="#2E4695" d="m50 25 4 1-1 4-1-2-1 2h-2l1-5Z"/><path fill="#A04609" d="M52 7h4v3l-5 2c0-3 0-3 1-5Z"/></svg>