<svg xmlns="http://www.w3.org/2000/svg" width="256" height="154"><path fill="#CD1126" d="M0 0h256v154H0V0Z"/><path fill="#F9F9F9" d="M120 13h2c-.506 2.169-1 4-2 6l8-1 .375 2.313c.506 2.89.506 2.89 2.625 5.687 2.05 1.192 2.05 1.192 4 2l-3 4 3 1 1 3-2 2 2.5 1.438L139 41v1l-6 1 5 2v3l2 1h-3v-2c-2.224 1.925-2.224 1.925-3 5l-1 1c.41 2.054.41 2.054 1 4h-3l-1 12h-2v-3h-2v6l-2 1 1.32 1.469C139 89.866 139 89.866 139 96l1.625.625c2.322 1.344 3.442 2.516 5.188 4.5 2.572 2.698 3.012 2.855 7 3.313 3.041-.09 3.041-.09 4.187-1.438.232-1.515.412-3.038.563-4.563l.253-2.503L158 94l-7-1v-2l-3-1c-1.688-1.438-1.688-1.438-3-3v-2c9.6-.908 9.6-.908 12.844 1.195C160.497 89.265 161 90.913 161 95h2c1.125 6.625 1.125 6.625 0 10h-2v5l-2.25.875A81.918 81.918 0 0 0 152 114v-2l-5 1-.813-1.938c-1.074-2.393-1.074-2.393-4.187-3.062-1.188-2.063-1.188-2.063-2-4l-1.355 1.715-1.833 2.222-1.792 2.215c-2.345 2.145-3.904 2.509-7.02 2.848l1 3.625c.339 1.457.672 2.915 1 4.375l.75 3.125C130 127 130 127 127.871 128.527a105.979 105.979 0 0 1-5.39 2.883c-2.865 1.836-3.838 3.665-5.481 6.59h-2v5c-2.709 1.354-5.01 1.065-8 1 .841-7.358 6.54-11.814 11.813-16.5 2.42-2.213 2.42-2.213 2.187-4.625-.888-1.926-.888-1.926-2.457-3.168-1.962-2.17-2.464-4.086-3.23-6.894l-.762-2.731L114 108h-1c-.09 1.065-.09 1.065-.184 2.152l-.254 2.785c-.08.917-.162 1.834-.246 2.778C112 118 112 118 111 119c-3.905-.378-7.282-.76-11-2-2.693-.282-5.31-.34-8 0-1.625 1.458-1.625 1.458-3 3-3.188.188-3.188.188-6 0 .379-2.526.723-3.737 2.602-5.52 3.64-2.326 5.599-3.508 10.023-3.355L99 112c1.998.345 3.998.68 6 1l-.395-2.887c-1.113-10.122-1.113-10.122.442-13.156 1.39-1.332 1.39-1.332 3.953-2.957l-1.793-1.172C95.007 84.788 95.007 84.788 91 79v-3l-1.828-.113C84.382 75.493 81.81 75.022 78 72c-3.167-.25-3.167-.25-6 0-.854 3.306-.854 3.306-1 7 1.875 2.209 1.875 2.209 4 4v4c-3.425-.285-4.808-.824-7.375-3.188C66 81 66 81 66 78.25c1.32-4.288 2.634-8.412 5-12.25 4.253-2.252 10.321-.59 15 0l-2.375-2.188C81.155 61.167 80.067 59.397 79 56c-5.322-.296-5.322-.296-10 2-2.688.125-2.688.125-5 0l-1 4h-6c2.278-4.556 3.31-6.607 8-9a172.44 172.44 0 0 1 7.89-2.352c2.075-.457 2.075-.457 3.11-1.648 2.188-.5 2.188-.5 5 0 2.27 2.132 4.146 4.502 6 7l2.375-2C92 52 92 52 94 52l.688-2.125c2.282-5 5.75-8.833 10.312-11.875-2.765-1.382-5.046-1.095-8.125-1.063l-3.32.028L91 37c-1.971-4.188-2-5.999-2-11l14-3-5-5v-4l1.563 1c2.538 1.221 2.538 1.221 5.937 1 3.321 0 4.768.252 7.5 2l1-4 2 2h3l1-3Z"/><path fill="#F9F8F8" d="M105 68h3l1 2 3-1-1 4c3.075-.776 3.075-.776 5-3 2.139 2.139 2.427 3.133 3 6l4-4c14.279 15.199 14.279 15.199 16 24 1.766 1.01 1.766 1.01 4 2a125.392 125.392 0 0 1 2.813 3.125c2.572 2.698 3.012 2.855 7 3.313 3.041-.09 3.041-.09 4.187-1.438.232-1.515.412-3.038.563-4.563l.253-2.503L158 94l-7-1v-2l-3-1c-1.688-1.438-1.688-1.438-3-3v-2c9.6-.908 9.6-.908 12.844 1.195C160.497 89.265 161 90.913 161 95h2c1.125 6.625 1.125 6.625 0 10h-2v5l-2.25.875A81.918 81.918 0 0 0 152 114v-2l-5 1-.813-1.938c-1.074-2.393-1.074-2.393-4.187-3.062-1.188-2.063-1.188-2.063-2-4l-1.355 1.715-1.833 2.222-1.792 2.215c-2.345 2.145-3.904 2.509-7.02 2.848l1 3.625c.339 1.457.672 2.915 1 4.375l.75 3.125C130 127 130 127 127.871 128.527a105.979 105.979 0 0 1-5.39 2.883c-2.865 1.836-3.838 3.665-5.481 6.59h-2v5c-2.709 1.354-5.01 1.065-8 1 .841-7.358 6.54-11.814 11.813-16.5 2.42-2.213 2.42-2.213 2.187-4.625-.888-1.926-.888-1.926-2.457-3.168-1.962-2.17-2.464-4.086-3.23-6.894l-.762-2.731L114 108h-1c-.09 1.065-.09 1.065-.184 2.152l-.254 2.785-.246 2.778C112 118 112 118 111 119c-3.905-.378-7.282-.76-11-2-2.693-.282-5.31-.34-8 0-1.625 1.458-1.625 1.458-3 3-3.188.188-3.188.188-6 0 .379-2.526.723-3.737 2.602-5.52 3.64-2.326 5.599-3.508 10.023-3.355L99 112c1.998.345 3.998.68 6 1l-.395-2.887c-1.113-10.122-1.113-10.122.442-13.156 1.39-1.332 1.39-1.332 3.953-2.957l-1.793-1.172C95.007 84.788 95.007 84.788 91 79v-3h-5v-1l2.633-.367 3.492-.508 3.445-.492c3.29-.607 6.288-1.496 9.43-2.633v-3Z"/><path fill="#ECECEC" d="M120 13h2c-.506 2.169-1 4-2 6l8-1 .375 2.313c.506 2.89.506 2.89 2.625 5.687 2.05 1.192 2.05 1.192 4 2l-3 4 3 1 1 3-2 2 2.5 1.438L139 41v1l-6 1 5 2v3l2 1h-3v-2c-2.224 1.925-2.224 1.925-3 5l-1 1c.41 2.054.41 2.054 1 4h-3l-1 12h-2v-3h-2v6h-2c-.688-2.75-.688-2.75-1-6 1.438-2.375 1.438-2.375 3-4l-1.059-1.645-1.379-2.167-1.37-2.145C121 54 121 54 120 51l-1-2c-.435-3.913-.39-5.475 2-8.688L123 38v-3c-2.075-.15-2.075-.15-4 1l-.367-1.715-.508-2.222-.492-2.215c-.463-2.055-.463-2.055-2.633-2.848v-2h-7l1 4c-1.938-.375-1.938-.375-4-1l-1-2 3-3-1.688-.25C102.21 21.744 100.33 20.265 98 18v-4l1.563 1c2.538 1.221 2.538 1.221 5.937 1 3.321 0 4.768.252 7.5 2l1-4 2 2h3l1-3Z"/><path fill="#EDE9E9" d="M115 92h1l-1 16h-2c-.09 1.065-.09 1.065-.184 2.152l-.254 2.785c-.08.917-.162 1.834-.246 2.778C112 118 112 118 111 119c-3.905-.378-7.282-.76-11-2-2.693-.282-5.31-.34-8 0-1.625 1.458-1.625 1.458-3 3-3.188.188-3.188.188-6 0 .379-2.526.723-3.737 2.602-5.52 3.64-2.326 5.599-3.508 10.023-3.355L99 112c1.998.345 3.998.68 6 1l-.395-2.852c-1.106-9.986-1.106-9.986.372-13.414 1.335-1.609 1.335-1.609 4.023-3.734h2v4h4v-5Z"/><path fill="#E1E1E1" d="m109 56 1 1c2.333.04 4.667.042 7 0l-1 4 3-1 2 1-.125 3.25c.114 3.407.338 4.957 2.125 7.75l-4 5-3-6-2 2h-3l1-4h-2l-1 2-1-3-4 1c1.152-2.468 2.048-4.048 4-6l-5-2c1-2 1-2 2-3l-4-1c2.945-.982 4.935-1.161 8-1Z"/><path fill="#C0BCBC" d="M120 13h2c-.516 2.065-1.032 4.099-1.688 6.125L120 21l2 2c-.375 3.125-.375 3.125-1 6-2.169-.506-4-1-6-2v-2h-7l1 4c-1.938-.375-1.938-.375-4-1l-1-2 3-3-1.688-.25C102.21 21.744 100.33 20.265 98 18v-4l1.563 1c2.538 1.221 2.538 1.221 5.937 1 3.321 0 4.768.252 7.5 2l1-4 2 2h3l1-3Z"/><path fill="#F4F4F4" d="M129.563 36.938 132 37v2l2.375-.188L137 39l2 3-6 1 5 2v3l2 1h-3v-2c-2.224 1.925-2.224 1.925-3 5l-1 1c.41 2.054.41 2.054 1 4l-2.313-1c-2.678-1.174-2.678-1.174-5.687-1l-2 2c-.365-1.58-.717-3.165-1.063-4.75l-.597-2.672c-.343-2.597-.293-4.152.66-6.578 2.063-1.25 2.063-1.25 4-2l-1-3c1-1 1-1 3.563-1.063Z"/><path fill="#EDEBEB" d="M78.188 48.5c3.943.701 5.142 2.86 7.48 5.969L87 56h2c-.255 1.316-.53 2.628-.813 3.938l-.457 2.214L87 64l-3 1c-2.325-2.853-3.75-5.54-5-9-5.322-.296-5.322-.296-10 2-2.688.125-2.688.125-5 0l-1 4h-6c2.278-4.556 3.31-6.607 8-9a172.44 172.44 0 0 1 7.89-2.352c2.227-.684 3.015-1.626 5.297-2.148Z"/><path fill="#EDEAEA" d="m107 23-1.063 1.813c-1.27 2.295-1.27 2.295.063 5.187l-5 1 2 5-12 1c-1.78-4.45-2.212-6.437-2-11 2.249-.505 4.5-1.004 6.75-1.5l3.797-.844C103 23 103 23 107 23Z"/><path fill="#DBD7D7" d="M145 85c9.6-.908 9.6-.908 12.844 1.195C160.497 89.265 161 90.913 161 95h2c1.125 6.625 1.125 6.625 0 10h-2l-2-2h-1v-9l-7-1v-2l-3-1c-1.688-1.438-1.688-1.438-3-3v-2Z"/><path fill="#D7D7D7" d="m120 41 3 1 1 5h-2l2 6 1-2c4.875 3.75 4.875 3.75 6 6a116.9 116.9 0 0 1-.438 6.125l-.308 3.32L130 69h-2v-3h-2v6h-2c-.688-2.75-.688-2.75-1-6 1.438-2.375 1.438-2.375 3-4l-1.059-1.645-1.379-2.167-1.37-2.145C121 54 121 54 120 51l-1-2c-.23-5.538-.23-5.538 1-8Z"/><path fill="#F3F0F0" d="m74 69 3 2-5 1c-.854 3.306-.854 3.306-1 7 1.875 2.209 1.875 2.209 4 4v4c-3.425-.285-4.808-.824-7.375-3.188C66 81 66 81 65.937 78c1.496-4.223 4.04-6.989 8.063-9Z"/><path fill="#EFEEEE" d="m123 43 3 1 .813 2.813c1.51 4.056 3.493 5.1 7.187 7.187l-1 3-5-3-4 3c-.365-1.58-.717-3.165-1.063-4.75l-.597-2.672c-.338-2.565-.152-4.149.66-6.578Z"/><path fill="#D7D4D4" d="m131.25 25.438 2.14 1.433L135 28l-3 4 3 2c-1.666.043-3.334.04-5 0l-1-1-2 2 .25-2.25c-.323-3.548-1.677-4.418-4.25-6.75v-2c3.647-1.372 5.094-.719 8.25 1.438Z"/><path fill="#E0D8D8" d="M120 13h2c-.516 2.065-1.032 4.099-1.688 6.125L120 21l2 2v4l-3 1v-2h-3l-1-2-3-1v-3l4 1v-3l3-2 1-3Z"/><path fill="#D7D7D7" d="m113 49 1 2c2.025.652 2.025.652 4 1l1-3v4l-3.313.375c-3.76.38-3.76.38-6.687 2.625v-2l-10-1v-1h7l-1-3c3.021-.971 5.005-1.136 8 0Z"/><path fill="#E9E6E6" d="m98 14 1.563 1c3.217 1.32 5.994 1.132 9.437 1v2l-2 1 4 1v2c-1.605-.087-3.21-.196-4.813-.313l-2.707-.175c-2.845-.587-3.84-1.13-5.48-3.512v-4Z"/><path fill="#DDDBDC" d="m133 44 5 1v3l2 1h-3v-2c-2.224 1.925-2.224 1.925-3 5-2.875-.25-2.875-.25-6-1-1.375-2.063-1.375-2.063-2-4l7-1v-2Z"/><path fill="#DADADA" d="M108 63c2.625.375 2.625.375 5 1l-1 4h2l1 4-4 1 1-4h-2l-1 2-1-3-4 1c1.152-2.468 2.048-4.048 4-6Z"/><path fill="#D1C6C6" d="m109 137 1 2h4v-2l3 1h-2v5c-2.709 1.354-5.01 1.065-8 1 .875-4.75.875-4.75 2-7Z"/><path fill="#D3C7C7" d="m160 107 1 3-2.25.875A81.918 81.918 0 0 0 152 114v-2l-5 1 2-5 2.25.563c2.74.435 4.14.157 6.75-.563l2 1v-2Z"/><path fill="#E8E5E5" d="m160 94 3 1c1.125 6.625 1.125 6.625 0 10h-2c-2-2-2-2-3-4 .608-2.35 1.271-4.685 2-7Z"/><path fill="#D6C8C8" d="M129.25 62.25 131 63l-1 6h-2v-3h-2v6h-2c-.75-2.75-.75-2.75-1-6 2.857-4.127 2.857-4.127 6.25-3.75Z"/><path fill="#DED8D8" d="m65 53 2 1-2 2 1 2h-2l-1 4h-6c2.237-4.474 3.387-6.637 8-9Z"/><path fill="#EAEAEA" d="M117 63c2.548 2.548 3.128 4.514 4 8-.375 3.375-.375 3.375-1 6-2-1-2-1-3.125-3.188-1.168-3.753-1.673-7.216.125-10.812Z"/><path fill="#D3D3D3" d="m109 56 1 2c2.017 1.134 2.017 1.134 4 2-2.125 1.625-2.125 1.625-5 3-3.313-.813-3.313-.813-6-2 1-2 1-2 2-3l-4-1c2.928-.976 4.956-1.082 8-1Z"/><path fill="#E7E6E6" d="M151 85c2.25-.313 2.25-.313 5 0 4 4.108 4 4.108 4 7h-5v-2l-5-1 1-4Z"/><path fill="#CACACA" d="m120 41 3 1 1 5h-2l1 5-3-1c-1.37-2.74-1.126-4.97-1-8l1-2Z"/><path fill="#F2F2F2" d="m120 33 4 2v6h-4l-1 2c-.125-6.625-.125-6.625 1-10Z"/><path fill="#D6D1D2" d="m86 114 1 2c2.017 1.134 2.017 1.134 4 2-2 2-2 2-5.125 2.125L83 120c.573-2.867.861-3.861 3-6Z"/><path fill="#D0CFCF" d="M117 19c3 1 3 1 5 4v4l-3 1v-2h-3l1-7Z"/><path fill="#D1D1D1" d="M118 29a84.76 84.76 0 0 1 7 2c.688 2.063.688 2.063 1 4l-5-1v2h-2l-1-7Z"/><path fill="#C7BABA" d="m145 85 8 2v5l-2 1v-2l-3-1c-1.688-1.438-1.688-1.438-3-3v-2Z"/><path fill="#F8F8F8" d="M69.688 52.75 72 53l-3 5-5-1c2.338-3.938 2.338-3.938 5.688-4.25Z"/><path fill="#D7CDCE" d="m128 39 2.25.563c2.7.429 4.196.288 6.75-.563l2 3-9 1v-2h-2v-2Z"/><path fill="#CDCDCD" d="m111 64 2 1-1 3h2l1 4-4 1 1-4-2-1 1-4Z"/><path fill="#D1BFBF" d="m129 19-1 3-5 1v-2l-3-2c5.625-1.125 5.625-1.125 9 0Z"/><path fill="#D1CCCC" d="M71 80c2 1.25 2 1.25 4 3v4l-5-1 2-1-1-5Z"/><path fill="#DDD2D3" d="m74 69 3 2-5 1-1 5-3-2v-2a125.024 125.024 0 0 1 6-4Z"/><path fill="#EAE9E9" d="m128 56 3 1v5l-4-1 1-5Z"/><path fill="#E6E6E6" d="M122 47h3v10c-1.803-3.607-2.466-6.084-3-10Z"/><path fill="#D6D1D1" d="M129 30c2.993.998 3.948 1.752 6 4-1.666.043-3.334.04-5 0l-1-1-2 2v-4l2-1Z"/><path fill="#D9D4D4" d="M92 114h9l1 3-10-1v-2Z"/><path fill="#EFEEEE" d="M127 27h7l1 2-6 1v-2l-2-1Z"/></svg>