<?xml version="1.0" encoding="UTF-8"?>
<svg version="1.1" xmlns="http://www.w3.org/2000/svg" width="256" height="154">
<path d="M0 0 C84.48 0 168.96 0 256 0 C256 50.82 256 101.64 256 154 C171.52 154 87.04 154 0 154 C0 103.18 0 52.36 0 0 Z " fill="#CD1126" transform="translate(0,0)"/>
<path d="M0 0 C0.66 0 1.32 0 2 0 C1.49396008 2.16874252 1.00016187 3.99967627 0 6 C2.64 5.67 5.28 5.34 8 5 C8.12375 5.763125 8.2475 6.52625 8.375 7.3125 C8.88102792 10.20267136 8.88102792 10.20267136 11 13 C13.05003955 14.19232613 13.05003955 14.19232613 15 15 C14.01 16.32 13.02 17.64 12 19 C13.485 19.495 13.485 19.495 15 20 C15.495 21.485 15.495 21.485 16 23 C15.34 23.66 14.68 24.32 14 25 C14.825 25.474375 15.65 25.94875 16.5 26.4375 C17.325 26.953125 18.15 27.46875 19 28 C19 28.33 19 28.66 19 29 C17.02 29.33 15.04 29.66 13 30 C14.65 30.66 16.3 31.32 18 32 C18 32.99 18 33.98 18 35 C18.66 35.33 19.32 35.66 20 36 C19.01 36 18.02 36 17 36 C17 35.34 17 34.68 17 34 C14.7763932 35.9254644 14.7763932 35.9254644 14 39 C13.67 39.33 13.34 39.66 13 40 C13.40929986 42.05396726 13.40929986 42.05396726 14 44 C13.01 44 12.02 44 11 44 C10.67 47.96 10.34 51.92 10 56 C9.34 56 8.68 56 8 56 C8 55.01 8 54.02 8 53 C7.34 53 6.68 53 6 53 C6 54.98 6 56.96 6 59 C5.01 59.495 5.01 59.495 4 60 C4.43570313 60.4846875 4.87140625 60.969375 5.3203125 61.46875 C19 76.86580087 19 76.86580087 19 83 C19.804375 83.309375 19.804375 83.309375 20.625 83.625 C22.94719439 84.96942833 24.06707688 86.14092654 25.8125 88.125 C28.38549466 90.82270613 28.82474141 90.97988836 32.8125 91.4375 C35.85434057 91.34712159 35.85434057 91.34712159 37 90 C37.23192865 88.48530552 37.41215238 86.96245438 37.5625 85.4375 C37.64628906 84.61121094 37.73007813 83.78492187 37.81640625 82.93359375 C37.87699219 82.29550781 37.93757813 81.65742187 38 81 C35.69 80.67 33.38 80.34 31 80 C31 79.34 31 78.68 31 78 C29.515 77.505 29.515 77.505 28 77 C26.3125 75.5625 26.3125 75.5625 25 74 C25 73.34 25 72.68 25 72 C34.59965837 71.0921514 34.59965837 71.0921514 37.84375 73.1953125 C40.49736193 76.26547979 41 77.9134272 41 82 C41.66 82 42.32 82 43 82 C44.125 88.625 44.125 88.625 43 92 C42.34 92 41.68 92 41 92 C41 93.65 41 95.3 41 97 C40.2575 97.28875 39.515 97.5775 38.75 97.875 C36.43260203 98.82302644 34.22082885 99.84845911 32 101 C32 100.34 32 99.68 32 99 C30.35 99.33 28.7 99.66 27 100 C26.5978125 99.0409375 26.5978125 99.0409375 26.1875 98.0625 C25.11332248 95.66868314 25.11332248 95.66868314 22 95 C20.8125 92.9375 20.8125 92.9375 20 91 C19.55269531 91.56589844 19.10539062 92.13179688 18.64453125 92.71484375 C17.73767578 93.81505859 17.73767578 93.81505859 16.8125 94.9375 C16.22082031 95.66839844 15.62914062 96.39929688 15.01953125 97.15234375 C12.67494797 99.29738803 11.11608502 99.66094412 8 100 C8.33 101.19625 8.66 102.3925 9 103.625 C9.33862501 105.0821137 9.67212551 106.54042967 10 108 C10.2475 109.03125 10.495 110.0625 10.75 111.125 C10 114 10 114 7.87109375 115.52734375 C6.10236312 116.53915035 4.30460633 117.50203581 2.48046875 118.41015625 C-0.38414013 120.24621265 -1.3574809 122.07503356 -3 125 C-3.66 125 -4.32 125 -5 125 C-5 126.65 -5 128.3 -5 130 C-7.70879335 131.35439668 -10.00933268 131.06501451 -13 131 C-12.15904965 123.64168441 -6.45939464 119.18612857 -1.1875 114.5 C1.23322038 112.28711585 1.23322038 112.28711585 1 109.875 C0.11211889 107.94860429 0.11211889 107.94860429 -1.45703125 106.70703125 C-3.41858801 104.5369039 -3.92149792 102.62117431 -4.6875 99.8125 C-4.93886719 98.91144531 -5.19023438 98.01039062 -5.44921875 97.08203125 C-5.63097656 96.39496094 -5.81273437 95.70789063 -6 95 C-6.33 95 -6.66 95 -7 95 C-7.09087891 96.06541016 -7.09087891 96.06541016 -7.18359375 97.15234375 C-7.26738281 98.07144531 -7.35117188 98.99054688 -7.4375 99.9375 C-7.51871094 100.85402344 -7.59992188 101.77054687 -7.68359375 102.71484375 C-8 105 -8 105 -9 106 C-12.90532683 105.62206515 -16.2815754 105.23947487 -20 104 C-22.69301293 103.717668 -25.31081822 103.65959724 -28 104 C-29.62514468 105.45833358 -29.62514468 105.45833358 -31 107 C-34.1875 107.1875 -34.1875 107.1875 -37 107 C-36.62144156 104.47447443 -36.27727334 103.26307153 -34.3984375 101.48046875 C-30.75804819 99.15427404 -28.7994317 97.97243339 -24.375 98.125 C-23.26125 98.41375 -22.1475 98.7025 -21 99 C-19.00200575 99.34515229 -17.00222718 99.68031667 -15 100 C-15.13019531 99.04738281 -15.26039062 98.09476562 -15.39453125 97.11328125 C-16.50769595 86.99076486 -16.50769595 86.99076486 -14.953125 83.95703125 C-13.5625 82.625 -13.5625 82.625 -11 81 C-11.59167969 80.61328125 -12.18335938 80.2265625 -12.79296875 79.828125 C-24.99330718 71.78744519 -24.99330718 71.78744519 -29 66 C-29 65.01 -29 64.02 -29 63 C-29.60328125 62.96261719 -30.2065625 62.92523438 -30.828125 62.88671875 C-35.61882223 62.49264527 -38.19011396 62.02163376 -42 59 C-45.16732421 58.74913276 -45.16732421 58.74913276 -48 59 C-48.85387105 62.30567489 -48.85387105 62.30567489 -49 66 C-47.12491838 68.2085766 -47.12491838 68.2085766 -45 70 C-45 71.32 -45 72.64 -45 74 C-48.42540866 73.71454928 -49.8084997 73.17638186 -52.375 70.8125 C-54 68 -54 68 -54 65.25 C-52.68066639 60.96216576 -51.36581215 56.83840952 -49 53 C-44.74678782 50.74829943 -38.67865548 52.40949009 -34 53 C-34.78375 52.278125 -35.5675 51.55625 -36.375 50.8125 C-38.84412438 48.16700959 -39.93260278 46.39626389 -41 43 C-46.32170494 42.70437633 -46.32170494 42.70437633 -51 45 C-53.6875 45.125 -53.6875 45.125 -56 45 C-56.33 46.32 -56.66 47.64 -57 49 C-58.98 49 -60.96 49 -63 49 C-60.72209765 44.4441953 -59.69036365 42.39304268 -55 40 C-52.38577046 39.14480243 -49.76127872 38.37810332 -47.109375 37.6484375 C-45.03477571 37.19081495 -45.03477571 37.19081495 -44 36 C-41.8125 35.5 -41.8125 35.5 -39 36 C-36.72914225 38.1322608 -34.85411379 40.50236218 -33 43 C-32.21625 42.34 -31.4325 41.68 -30.625 41 C-28 39 -28 39 -26 39 C-25.773125 38.29875 -25.54625 37.5975 -25.3125 36.875 C-23.02968304 31.8745438 -19.56268219 28.04178812 -15 25 C-17.76452033 23.61773984 -20.0461363 23.90474613 -23.125 23.9375 C-24.22070312 23.94652344 -25.31640625 23.95554687 -26.4453125 23.96484375 C-27.70988281 23.98224609 -27.70988281 23.98224609 -29 24 C-30.97103025 19.81156072 -31 18.00147987 -31 13 C-26.38 12.01 -21.76 11.02 -17 10 C-19.475 7.525 -19.475 7.525 -22 5 C-22 3.68 -22 2.36 -22 1 C-21.2265625 1.495 -21.2265625 1.495 -20.4375 2 C-17.89942745 3.22140787 -17.89942745 3.22140787 -14.5 3 C-11.17852223 3 -9.73153638 3.25181672 -7 5 C-6.67 3.68 -6.34 2.36 -6 1 C-5.34 1.66 -4.68 2.32 -4 3 C-3.01 3 -2.02 3 -1 3 C-0.67 2.01 -0.34 1.02 0 0 Z " fill="#F9F9F9" transform="translate(120,13)"/>
<path d="M0 0 C0.99 0 1.98 0 3 0 C3.33 0.66 3.66 1.32 4 2 C4.99 1.67 5.98 1.34 7 1 C6.67 2.32 6.34 3.64 6 5 C9.0745356 4.2236068 9.0745356 4.2236068 11 2 C13.1385485 4.1385485 13.42655063 5.13275314 14 8 C15.32 6.68 16.64 5.36 18 4 C32.27869126 19.19887359 32.27869126 19.19887359 34 28 C35.76591887 29.00916033 35.76591887 29.00916033 38 30 C38.9558201 31.02488225 39.89157813 32.06864845 40.8125 33.125 C43.38549466 35.82270613 43.82474141 35.97988836 47.8125 36.4375 C50.85434057 36.34712159 50.85434057 36.34712159 52 35 C52.23192865 33.48530552 52.41215238 31.96245438 52.5625 30.4375 C52.68818359 29.19806641 52.68818359 29.19806641 52.81640625 27.93359375 C52.87699219 27.29550781 52.93757813 26.65742187 53 26 C50.69 25.67 48.38 25.34 46 25 C46 24.34 46 23.68 46 23 C44.515 22.505 44.515 22.505 43 22 C41.3125 20.5625 41.3125 20.5625 40 19 C40 18.34 40 17.68 40 17 C49.59965837 16.0921514 49.59965837 16.0921514 52.84375 18.1953125 C55.49736193 21.26547979 56 22.9134272 56 27 C56.66 27 57.32 27 58 27 C59.125 33.625 59.125 33.625 58 37 C57.34 37 56.68 37 56 37 C56 38.65 56 40.3 56 42 C55.2575 42.28875 54.515 42.5775 53.75 42.875 C51.43260203 43.82302644 49.22082885 44.84845911 47 46 C47 45.34 47 44.68 47 44 C45.35 44.33 43.7 44.66 42 45 C41.731875 44.360625 41.46375 43.72125 41.1875 43.0625 C40.11332248 40.66868314 40.11332248 40.66868314 37 40 C35.8125 37.9375 35.8125 37.9375 35 36 C34.55269531 36.56589844 34.10539062 37.13179687 33.64453125 37.71484375 C32.73767578 38.81505859 32.73767578 38.81505859 31.8125 39.9375 C31.22082031 40.66839844 30.62914062 41.39929688 30.01953125 42.15234375 C27.67494797 44.29738803 26.11608502 44.66094412 23 45 C23.495 46.794375 23.495 46.794375 24 48.625 C24.33862501 50.0821137 24.67212551 51.54042967 25 53 C25.2475 54.03125 25.495 55.0625 25.75 56.125 C25 59 25 59 22.87109375 60.52734375 C21.10236312 61.53915035 19.30460633 62.50203581 17.48046875 63.41015625 C14.61585987 65.24621265 13.6425191 67.07503356 12 70 C11.34 70 10.68 70 10 70 C10 71.65 10 73.3 10 75 C7.29120665 76.35439668 4.99066732 76.06501451 2 76 C2.84095035 68.64168441 8.54060536 64.18612857 13.8125 59.5 C16.23322038 57.28711585 16.23322038 57.28711585 16 54.875 C15.11211889 52.94860429 15.11211889 52.94860429 13.54296875 51.70703125 C11.58141199 49.5369039 11.07850208 47.62117431 10.3125 44.8125 C10.06113281 43.91144531 9.80976562 43.01039062 9.55078125 42.08203125 C9.27814453 41.05142578 9.27814453 41.05142578 9 40 C8.67 40 8.34 40 8 40 C7.90912109 41.06541016 7.90912109 41.06541016 7.81640625 42.15234375 C7.73261719 43.07144531 7.64882812 43.99054688 7.5625 44.9375 C7.44068359 46.31228516 7.44068359 46.31228516 7.31640625 47.71484375 C7 50 7 50 6 51 C2.09467317 50.62206515 -1.2815754 50.23947487 -5 49 C-7.69301293 48.717668 -10.31081822 48.65959724 -13 49 C-14.62514468 50.45833358 -14.62514468 50.45833358 -16 52 C-19.1875 52.1875 -19.1875 52.1875 -22 52 C-21.62144156 49.47447443 -21.27727334 48.26307153 -19.3984375 46.48046875 C-15.75804819 44.15427404 -13.7994317 42.97243339 -9.375 43.125 C-7.704375 43.558125 -7.704375 43.558125 -6 44 C-4.00200575 44.34515229 -2.00222718 44.68031667 0 45 C-0.13019531 44.04738281 -0.26039062 43.09476563 -0.39453125 42.11328125 C-1.50769595 31.99076486 -1.50769595 31.99076486 0.046875 28.95703125 C1.4375 27.625 1.4375 27.625 4 26 C3.40832031 25.61328125 2.81664063 25.2265625 2.20703125 24.828125 C-9.99330718 16.78744519 -9.99330718 16.78744519 -14 11 C-14 10.01 -14 9.02 -14 8 C-15.65 8 -17.3 8 -19 8 C-19 7.67 -19 7.34 -19 7 C-17.69675781 6.81824219 -17.69675781 6.81824219 -16.3671875 6.6328125 C-15.21476562 6.46523437 -14.06234375 6.29765625 -12.875 6.125 C-11.16957031 5.88136719 -11.16957031 5.88136719 -9.4296875 5.6328125 C-6.13921085 5.02568583 -3.14220897 4.13654367 0 3 C0 2.01 0 1.02 0 0 Z " fill="#F9F8F8" transform="translate(105,68)"/>
<path d="M0 0 C0.66 0 1.32 0 2 0 C1.49396008 2.16874252 1.00016187 3.99967627 0 6 C2.64 5.67 5.28 5.34 8 5 C8.12375 5.763125 8.2475 6.52625 8.375 7.3125 C8.88102792 10.20267136 8.88102792 10.20267136 11 13 C13.05003955 14.19232613 13.05003955 14.19232613 15 15 C14.01 16.32 13.02 17.64 12 19 C12.99 19.33 13.98 19.66 15 20 C15.495 21.485 15.495 21.485 16 23 C15.34 23.66 14.68 24.32 14 25 C14.825 25.474375 15.65 25.94875 16.5 26.4375 C17.325 26.953125 18.15 27.46875 19 28 C19 28.33 19 28.66 19 29 C16.03 29.495 16.03 29.495 13 30 C15.475 30.99 15.475 30.99 18 32 C18 32.99 18 33.98 18 35 C18.99 35.495 18.99 35.495 20 36 C19.01 36 18.02 36 17 36 C17 35.34 17 34.68 17 34 C14.7763932 35.9254644 14.7763932 35.9254644 14 39 C13.67 39.33 13.34 39.66 13 40 C13.40929986 42.05396726 13.40929986 42.05396726 14 44 C13.01 44 12.02 44 11 44 C10.67 47.96 10.34 51.92 10 56 C9.34 56 8.68 56 8 56 C8 55.01 8 54.02 8 53 C7.34 53 6.68 53 6 53 C6 54.98 6 56.96 6 59 C5.34 59 4.68 59 4 59 C3.3125 56.25 3.3125 56.25 3 53 C4.4375 50.625 4.4375 50.625 6 49 C5.65066406 48.45730469 5.30132812 47.91460937 4.94140625 47.35546875 C4.48636719 46.64003906 4.03132813 45.92460938 3.5625 45.1875 C3.11003906 44.47980469 2.65757813 43.77210937 2.19140625 43.04296875 C1 41 1 41 0 38 C-0.33 37.34 -0.66 36.68 -1 36 C-1.43479281 32.08686469 -1.39044056 30.5246545 1 27.3125 C1.66 26.549375 2.32 25.78625 3 25 C3 24.01 3 23.02 3 22 C0.9254644 21.8509288 0.9254644 21.8509288 -1 23 C-1.12117188 22.43410156 -1.24234375 21.86820313 -1.3671875 21.28515625 C-1.53476563 20.55167969 -1.70234375 19.81820312 -1.875 19.0625 C-2.03742188 18.33160156 -2.19984375 17.60070312 -2.3671875 16.84765625 C-2.82961523 14.79299706 -2.82961523 14.79299706 -5 14 C-5 13.34 -5 12.68 -5 12 C-7.31 12 -9.62 12 -12 12 C-11.67 13.32 -11.34 14.64 -11 16 C-12.9375 15.625 -12.9375 15.625 -15 15 C-15.33 14.34 -15.66 13.68 -16 13 C-15.01 12.01 -14.02 11.02 -13 10 C-13.556875 9.9175 -14.11375 9.835 -14.6875 9.75 C-17.7904495 8.743638 -19.66993642 7.26533959 -22 5 C-22 3.68 -22 2.36 -22 1 C-21.2265625 1.495 -21.2265625 1.495 -20.4375 2 C-17.89942745 3.22140787 -17.89942745 3.22140787 -14.5 3 C-11.17852223 3 -9.73153638 3.25181672 -7 5 C-6.67 3.68 -6.34 2.36 -6 1 C-5.34 1.66 -4.68 2.32 -4 3 C-3.01 3 -2.02 3 -1 3 C-0.67 2.01 -0.34 1.02 0 0 Z " fill="#ECECEC" transform="translate(120,13)"/>
<path d="M0 0 C0.33 0 0.66 0 1 0 C0.67 5.28 0.34 10.56 0 16 C-0.66 16 -1.32 16 -2 16 C-2.09087891 17.06541016 -2.09087891 17.06541016 -2.18359375 18.15234375 C-2.26738281 19.07144531 -2.35117188 19.99054688 -2.4375 20.9375 C-2.51871094 21.85402344 -2.59992188 22.77054688 -2.68359375 23.71484375 C-3 26 -3 26 -4 27 C-7.90532683 26.62206515 -11.2815754 26.23947487 -15 25 C-17.69301293 24.717668 -20.31081822 24.65959724 -23 25 C-24.62514468 26.45833358 -24.62514468 26.45833358 -26 28 C-29.1875 28.1875 -29.1875 28.1875 -32 28 C-31.62144156 25.47447443 -31.27727334 24.26307153 -29.3984375 22.48046875 C-25.75804819 20.15427404 -23.7994317 18.97243339 -19.375 19.125 C-17.704375 19.558125 -17.704375 19.558125 -16 20 C-14.00200575 20.34515229 -12.00222718 20.68031667 -10 21 C-10.13019531 20.05898437 -10.26039062 19.11796875 -10.39453125 18.1484375 C-11.50072473 8.16168138 -11.50072473 8.16168138 -10.0234375 4.734375 C-8.6875 3.125 -8.6875 3.125 -6 1 C-5.34 1 -4.68 1 -4 1 C-4 2.32 -4 3.64 -4 5 C-2.68 5 -1.36 5 0 5 C0 3.35 0 1.7 0 0 Z " fill="#EDE9E9" transform="translate(115,92)"/>
<path d="M0 0 C0.33 0.33 0.66 0.66 1 1 C3.33297433 1.04092937 5.66705225 1.04241723 8 1 C7.67 2.32 7.34 3.64 7 5 C7.99 4.67 8.98 4.34 10 4 C10.66 4.33 11.32 4.66 12 5 C11.95875 6.0725 11.9175 7.145 11.875 8.25 C11.9885825 11.65747485 12.21273364 13.20739631 14 16 C12.68 17.65 11.36 19.3 10 21 C9.01 19.02 8.02 17.04 7 15 C6.34 15.66 5.68 16.32 5 17 C4.01 17 3.02 17 2 17 C2.33 15.68 2.66 14.36 3 13 C2.34 13 1.68 13 1 13 C0.67 13.66 0.34 14.32 0 15 C-0.33 14.01 -0.66 13.02 -1 12 C-2.32 12.33 -3.64 12.66 -5 13 C-3.84826645 10.53199953 -2.95216435 8.95216435 -1 7 C-3.475 6.01 -3.475 6.01 -6 5 C-5 3 -5 3 -4 2 C-5.32 1.67 -6.64 1.34 -8 1 C-5.05549278 0.01849759 -3.06481021 -0.1613058 0 0 Z " fill="#E1E1E1" transform="translate(109,56)"/>
<path d="M0 0 C0.66 0 1.32 0 2 0 C1.48374042 2.0650383 0.96808504 4.09864625 0.3125 6.125 C0.209375 6.74375 0.10625 7.3625 0 8 C0.66 8.66 1.32 9.32 2 10 C1.625 13.125 1.625 13.125 1 16 C-1.16874252 15.49396008 -2.99967627 15.00016187 -5 14 C-5 13.34 -5 12.68 -5 12 C-7.31 12 -9.62 12 -12 12 C-11.67 13.32 -11.34 14.64 -11 16 C-12.9375 15.625 -12.9375 15.625 -15 15 C-15.33 14.34 -15.66 13.68 -16 13 C-15.01 12.01 -14.02 11.02 -13 10 C-13.556875 9.9175 -14.11375 9.835 -14.6875 9.75 C-17.7904495 8.743638 -19.66993642 7.26533959 -22 5 C-22 3.68 -22 2.36 -22 1 C-21.2265625 1.495 -21.2265625 1.495 -20.4375 2 C-17.89942745 3.22140787 -17.89942745 3.22140787 -14.5 3 C-11.17852223 3 -9.73153638 3.25181672 -7 5 C-6.67 3.68 -6.34 2.36 -6 1 C-5.34 1.66 -4.68 2.32 -4 3 C-3.01 3 -2.02 3 -1 3 C-0.67 2.01 -0.34 1.02 0 0 Z " fill="#C0BCBC" transform="translate(120,13)"/>
<path d="M0 0 C1.2065625 0.0309375 1.2065625 0.0309375 2.4375 0.0625 C2.4375 0.7225 2.4375 1.3825 2.4375 2.0625 C3.613125 1.9696875 3.613125 1.9696875 4.8125 1.875 C6.111875 1.9678125 6.111875 1.9678125 7.4375 2.0625 C8.4275 3.5475 8.4275 3.5475 9.4375 5.0625 C7.4575 5.3925 5.4775 5.7225 3.4375 6.0625 C5.9125 7.0525 5.9125 7.0525 8.4375 8.0625 C8.4375 9.0525 8.4375 10.0425 8.4375 11.0625 C9.0975 11.3925 9.7575 11.7225 10.4375 12.0625 C9.4475 12.0625 8.4575 12.0625 7.4375 12.0625 C7.4375 11.4025 7.4375 10.7425 7.4375 10.0625 C5.2138932 11.9879644 5.2138932 11.9879644 4.4375 15.0625 C4.1075 15.3925 3.7775 15.7225 3.4375 16.0625 C3.84679986 18.11646726 3.84679986 18.11646726 4.4375 20.0625 C3.674375 19.7325 2.91125 19.4025 2.125 19.0625 C-0.55319135 17.88813314 -0.55319135 17.88813314 -3.5625 18.0625 C-4.2225 18.7225 -4.8825 19.3825 -5.5625 20.0625 C-5.92754603 18.48163952 -6.27910506 16.89766093 -6.625 15.3125 C-6.82222656 14.43078125 -7.01945312 13.5490625 -7.22265625 12.640625 C-7.56503896 10.04323889 -7.51541537 8.48810275 -6.5625 6.0625 C-4.5 4.8125 -4.5 4.8125 -2.5625 4.0625 C-2.8925 3.0725 -3.2225 2.0825 -3.5625 1.0625 C-2.5625 0.0625 -2.5625 0.0625 0 0 Z " fill="#F4F4F4" transform="translate(129.5625,36.9375)"/>
<path d="M0 0 C3.94309363 0.70099442 5.14262071 2.8598439 7.48046875 5.96875 C7.92003906 6.4740625 8.35960938 6.979375 8.8125 7.5 C9.4725 7.5 10.1325 7.5 10.8125 7.5 C10.5577486 8.81571603 10.28315859 10.12760376 10 11.4375 C9.84917969 12.16839844 9.69835937 12.89929688 9.54296875 13.65234375 C9.30191406 14.26207031 9.06085938 14.87179688 8.8125 15.5 C7.8225 15.83 6.8325 16.16 5.8125 16.5 C3.48777795 13.64693203 2.0616742 10.95925163 0.8125 7.5 C-4.50920494 7.20437633 -4.50920494 7.20437633 -9.1875 9.5 C-11.875 9.625 -11.875 9.625 -14.1875 9.5 C-14.5175 10.82 -14.8475 12.14 -15.1875 13.5 C-17.1675 13.5 -19.1475 13.5 -21.1875 13.5 C-18.90959765 8.9441953 -17.87786365 6.89304268 -13.1875 4.5 C-10.57327046 3.64480243 -7.94877872 2.87810332 -5.296875 2.1484375 C-3.07040341 1.46400364 -2.28272533 0.52176579 0 0 Z " fill="#EDEBEB" transform="translate(78.1875,48.5)"/>
<path d="M0 0 C-0.5259375 0.8971875 -0.5259375 0.8971875 -1.0625 1.8125 C-2.33304698 4.10813214 -2.33304698 4.10813214 -1 7 C-2.65 7.33 -4.3 7.66 -6 8 C-5.34 9.65 -4.68 11.3 -4 13 C-9.94 13.495 -9.94 13.495 -16 14 C-17.77997029 9.55007426 -18.21222719 7.56288469 -18 3 C-15.75113762 2.49490792 -13.50086131 1.99610821 -11.25 1.5 C-9.37054688 1.08234375 -9.37054688 1.08234375 -7.453125 0.65625 C-4 0 -4 0 0 0 Z " fill="#EDEAEA" transform="translate(107,23)"/>
<path d="M0 0 C9.59965837 -0.9078486 9.59965837 -0.9078486 12.84375 1.1953125 C15.49736193 4.26547979 16 5.9134272 16 10 C16.66 10 17.32 10 18 10 C19.125 16.625 19.125 16.625 18 20 C17.34 20 16.68 20 16 20 C15.34 19.34 14.68 18.68 14 18 C13.67 18 13.34 18 13 18 C13 15.03 13 12.06 13 9 C10.69 8.67 8.38 8.34 6 8 C6 7.34 6 6.68 6 6 C5.01 5.67 4.02 5.34 3 5 C1.3125 3.5625 1.3125 3.5625 0 2 C0 1.34 0 0.68 0 0 Z " fill="#DBD7D7" transform="translate(145,85)"/>
<path d="M0 0 C0.99 0.33 1.98 0.66 3 1 C3.33 2.65 3.66 4.3 4 6 C3.34 6 2.68 6 2 6 C2.66 7.98 3.32 9.96 4 12 C4.33 11.34 4.66 10.68 5 10 C9.875 13.75 9.875 13.75 11 16 C10.91219597 18.04498425 10.75758462 20.08744948 10.5625 22.125 C10.46066406 23.22070312 10.35882813 24.31640625 10.25390625 25.4453125 C10.17011719 26.28835937 10.08632812 27.13140625 10 28 C9.34 28 8.68 28 8 28 C8 27.01 8 26.02 8 25 C7.34 25 6.68 25 6 25 C6 26.98 6 28.96 6 31 C5.34 31 4.68 31 4 31 C3.3125 28.25 3.3125 28.25 3 25 C4.4375 22.625 4.4375 22.625 6 21 C5.65066406 20.45730469 5.30132812 19.91460937 4.94140625 19.35546875 C4.48636719 18.64003906 4.03132813 17.92460938 3.5625 17.1875 C2.88380859 16.12595703 2.88380859 16.12595703 2.19140625 15.04296875 C1 13 1 13 0 10 C-0.33 9.34 -0.66 8.68 -1 8 C-1.23076923 2.46153846 -1.23076923 2.46153846 0 0 Z " fill="#D7D7D7" transform="translate(120,41)"/>
<path d="M0 0 C0.99 0.66 1.98 1.32 3 2 C1.35 2.33 -0.3 2.66 -2 3 C-2.85387105 6.30567489 -2.85387105 6.30567489 -3 10 C-1.12491838 12.2085766 -1.12491838 12.2085766 1 14 C1 15.32 1 16.64 1 18 C-2.42540866 17.71454928 -3.8084997 17.17638186 -6.375 14.8125 C-8 12 -8 12 -8.0625 9 C-6.56685016 4.77698869 -4.0224391 2.01121955 0 0 Z " fill="#F3F0F0" transform="translate(74,69)"/>
<path d="M0 0 C0.99 0.33 1.98 0.66 3 1 C3.268125 1.928125 3.53625 2.85625 3.8125 3.8125 C5.3237753 7.86908106 7.30617778 8.91218744 11 11 C10.67 11.99 10.34 12.98 10 14 C8.35 13.01 6.7 12.02 5 11 C3.68 11.99 2.36 12.98 1 14 C0.63495397 12.41913952 0.28339494 10.83516093 -0.0625 9.25 C-0.25972656 8.36828125 -0.45695312 7.4865625 -0.66015625 6.578125 C-0.99825872 4.01320972 -0.81158635 2.42908361 0 0 Z " fill="#EFEEEE" transform="translate(123,43)"/>
<path d="M0 0 C0.70640625 0.47308594 1.4128125 0.94617188 2.140625 1.43359375 C2.67171875 1.80613281 3.2028125 2.17867187 3.75 2.5625 C2.76 3.8825 1.77 5.2025 0.75 6.5625 C1.74 7.2225 2.73 7.8825 3.75 8.5625 C2.08388095 8.605221 0.41617115 8.60313832 -1.25 8.5625 C-1.58 8.2325 -1.91 7.9025 -2.25 7.5625 C-2.91 8.2225 -3.57 8.8825 -4.25 9.5625 C-4.1675 8.82 -4.085 8.0775 -4 7.3125 C-4.32253543 3.76461026 -5.67720112 2.89409899 -8.25 0.5625 C-8.25 -0.0975 -8.25 -0.7575 -8.25 -1.4375 C-4.60264976 -2.80936372 -3.15576097 -2.15643667 0 0 Z " fill="#D7D4D4" transform="translate(131.25,25.4375)"/>
<path d="M0 0 C0.66 0 1.32 0 2 0 C1.48374042 2.0650383 0.96808504 4.09864625 0.3125 6.125 C0.1578125 7.053125 0.1578125 7.053125 0 8 C0.66 8.66 1.32 9.32 2 10 C2 11.32 2 12.64 2 14 C1.01 14.33 0.02 14.66 -1 15 C-1 14.34 -1 13.68 -1 13 C-1.99 13 -2.98 13 -4 13 C-4.33 12.34 -4.66 11.68 -5 11 C-5.99 10.67 -6.98 10.34 -8 10 C-8 9.01 -8 8.02 -8 7 C-6.68 7.33 -5.36 7.66 -4 8 C-4 7.01 -4 6.02 -4 5 C-3.01 4.34 -2.02 3.68 -1 3 C-0.67 2.01 -0.34 1.02 0 0 Z " fill="#E0D8D8" transform="translate(120,13)"/>
<path d="M0 0 C0.33 0.66 0.66 1.32 1 2 C3.02463255 2.65213292 3.02463255 2.65213292 5 3 C5.33 2.01 5.66 1.02 6 0 C6 1.32 6 2.64 6 4 C4.906875 4.12375 3.81375 4.2475 2.6875 4.375 C-1.07381802 4.75464801 -1.07381802 4.75464801 -4 7 C-4 6.34 -4 5.68 -4 5 C-7.3 4.67 -10.6 4.34 -14 4 C-14 3.67 -14 3.34 -14 3 C-11.69 3 -9.38 3 -7 3 C-7.33 2.01 -7.66 1.02 -8 0 C-4.97878489 -0.97110486 -2.99536737 -1.13617383 0 0 Z " fill="#D7D7D7" transform="translate(113,49)"/>
<path d="M0 0 C0.7734375 0.495 0.7734375 0.495 1.5625 1 C4.78026512 2.32010877 7.5570528 2.13242105 11 2 C11 2.66 11 3.32 11 4 C10.01 4.495 10.01 4.495 9 5 C10.32 5.33 11.64 5.66 13 6 C13 6.66 13 7.32 13 8 C11.39482903 7.91266424 9.79078338 7.80447776 8.1875 7.6875 C6.84751953 7.60048828 6.84751953 7.60048828 5.48046875 7.51171875 C2.63485441 6.92467075 1.6403017 6.3814347 0 4 C0 2.68 0 1.36 0 0 Z " fill="#E9E6E6" transform="translate(98,14)"/>
<path d="M0 0 C1.65 0.33 3.3 0.66 5 1 C5 1.99 5 2.98 5 4 C5.66 4.33 6.32 4.66 7 5 C6.01 5 5.02 5 4 5 C4 4.34 4 3.68 4 3 C1.7763932 4.9254644 1.7763932 4.9254644 1 8 C-1.875 7.75 -1.875 7.75 -5 7 C-6.375 4.9375 -6.375 4.9375 -7 3 C-3.535 2.505 -3.535 2.505 0 2 C0 1.34 0 0.68 0 0 Z " fill="#DDDBDC" transform="translate(133,44)"/>
<path d="M0 0 C2.625 0.375 2.625 0.375 5 1 C4.67 2.32 4.34 3.64 4 5 C4.66 5 5.32 5 6 5 C6.33 6.32 6.66 7.64 7 9 C5.68 9.33 4.36 9.66 3 10 C3.33 8.68 3.66 7.36 4 6 C3.34 6 2.68 6 2 6 C1.67 6.66 1.34 7.32 1 8 C0.67 7.01 0.34 6.02 0 5 C-1.32 5.33 -2.64 5.66 -4 6 C-2.84826645 3.53199953 -1.95216435 1.95216435 0 0 Z " fill="#DADADA" transform="translate(108,63)"/>
<path d="M0 0 C0.33 0.66 0.66 1.32 1 2 C2.32 2 3.64 2 5 2 C5 1.34 5 0.68 5 0 C5.99 0.33 6.98 0.66 8 1 C7.34 1 6.68 1 6 1 C6 2.65 6 4.3 6 6 C3.29120665 7.35439668 0.99066732 7.06501451 -2 7 C-1.125 2.25 -1.125 2.25 0 0 Z " fill="#D1C6C6" transform="translate(109,137)"/>
<path d="M0 0 C0.33 0.99 0.66 1.98 1 3 C0.2575 3.28875 -0.485 3.5775 -1.25 3.875 C-3.56739797 4.82302644 -5.77917115 5.84845911 -8 7 C-8 6.34 -8 5.68 -8 5 C-9.65 5.33 -11.3 5.66 -13 6 C-12.34 4.35 -11.68 2.7 -11 1 C-10.2575 1.185625 -9.515 1.37125 -8.75 1.5625 C-6.00993984 1.99841866 -4.60979891 1.71994453 -2 1 C-1.34 1.33 -0.68 1.66 0 2 C0 1.34 0 0.68 0 0 Z " fill="#D3C7C7" transform="translate(160,107)"/>
<path d="M0 0 C0.99 0.33 1.98 0.66 3 1 C4.125 7.625 4.125 7.625 3 11 C2.34 11 1.68 11 1 11 C-1 9 -1 9 -2 7 C-1.39239518 4.6505947 -0.72870472 2.31470912 0 0 Z " fill="#E8E5E5" transform="translate(160,94)"/>
<path d="M0 0 C0.86625 0.37125 0.86625 0.37125 1.75 0.75 C1.42 2.73 1.09 4.71 0.75 6.75 C0.09 6.75 -0.57 6.75 -1.25 6.75 C-1.25 5.76 -1.25 4.77 -1.25 3.75 C-1.91 3.75 -2.57 3.75 -3.25 3.75 C-3.25 5.73 -3.25 7.71 -3.25 9.75 C-3.91 9.75 -4.57 9.75 -5.25 9.75 C-6 7 -6 7 -6.25 3.75 C-3.39285714 -0.37698413 -3.39285714 -0.37698413 0 0 Z " fill="#D6C8C8" transform="translate(129.25,62.25)"/>
<path d="M0 0 C0.66 0.33 1.32 0.66 2 1 C1.34 1.66 0.68 2.32 0 3 C0.33 3.66 0.66 4.32 1 5 C0.34 5 -0.32 5 -1 5 C-1.33 6.32 -1.66 7.64 -2 9 C-3.98 9 -5.96 9 -8 9 C-5.76279823 4.52559646 -4.61298103 2.36274638 0 0 Z " fill="#DED8D8" transform="translate(65,53)"/>
<path d="M0 0 C2.5482148 2.5482148 3.12838054 4.51352218 4 8 C3.625 11.375 3.625 11.375 3 14 C1 13 1 13 -0.125 10.8125 C-1.29274457 7.05903532 -1.79813789 3.59627578 0 0 Z " fill="#EAEAEA" transform="translate(117,63)"/>
<path d="M0 0 C0.33 0.66 0.66 1.32 1 2 C3.01669827 3.13350534 3.01669827 3.13350534 5 4 C2.875 5.625 2.875 5.625 0 7 C-3.3125 6.1875 -3.3125 6.1875 -6 5 C-5 3 -5 3 -4 2 C-5.32 1.67 -6.64 1.34 -8 1 C-5.07175348 0.02391783 -3.04386724 -0.08226668 0 0 Z " fill="#D3D3D3" transform="translate(109,56)"/>
<path d="M0 0 C2.25 -0.3125 2.25 -0.3125 5 0 C9 4.10810811 9 4.10810811 9 7 C7.35 7 5.7 7 4 7 C4 6.34 4 5.68 4 5 C2.35 4.67 0.7 4.34 -1 4 C-0.67 2.68 -0.34 1.36 0 0 Z " fill="#E7E6E6" transform="translate(151,85)"/>
<path d="M0 0 C0.99 0.33 1.98 0.66 3 1 C3.33 2.65 3.66 4.3 4 6 C3.34 6 2.68 6 2 6 C2.33 7.65 2.66 9.3 3 11 C2.01 10.67 1.02 10.34 0 10 C-1.36952673 7.26094655 -1.12621361 5.02912668 -1 2 C-0.67 1.34 -0.34 0.68 0 0 Z " fill="#CACACA" transform="translate(120,41)"/>
<path d="M0 0 C1.32 0.66 2.64 1.32 4 2 C4 3.98 4 5.96 4 8 C2.68 8 1.36 8 0 8 C-0.33 8.66 -0.66 9.32 -1 10 C-1.125 3.375 -1.125 3.375 0 0 Z " fill="#F2F2F2" transform="translate(120,33)"/>
<path d="M0 0 C0.33 0.66 0.66 1.32 1 2 C3.01669827 3.13350534 3.01669827 3.13350534 5 4 C3 6 3 6 -0.125 6.125 C-1.548125 6.063125 -1.548125 6.063125 -3 6 C-2.42655063 3.13275314 -2.1385485 2.1385485 0 0 Z " fill="#D6D1D2" transform="translate(86,114)"/>
<path d="M0 0 C3 1 3 1 5 4 C5 5.32 5 6.64 5 8 C4.01 8.33 3.02 8.66 2 9 C2 8.34 2 7.68 2 7 C1.01 7 0.02 7 -1 7 C-0.67 4.69 -0.34 2.38 0 0 Z " fill="#D0CFCF" transform="translate(117,19)"/>
<path d="M0 0 C2.38564077 0.57584432 4.66682784 1.22227595 7 2 C7.6875 4.0625 7.6875 4.0625 8 6 C6.35 5.67 4.7 5.34 3 5 C3 5.66 3 6.32 3 7 C2.34 7 1.68 7 1 7 C0.67 4.69 0.34 2.38 0 0 Z " fill="#D1D1D1" transform="translate(118,29)"/>
<path d="M0 0 C2.64 0.66 5.28 1.32 8 2 C8 3.65 8 5.3 8 7 C7.01 7.495 7.01 7.495 6 8 C6 7.34 6 6.68 6 6 C5.01 5.67 4.02 5.34 3 5 C1.3125 3.5625 1.3125 3.5625 0 2 C0 1.34 0 0.68 0 0 Z " fill="#C7BABA" transform="translate(145,85)"/>
<path d="M0 0 C0.763125 0.0825 1.52625 0.165 2.3125 0.25 C0.8275 2.725 0.8275 2.725 -0.6875 5.25 C-2.3375 4.92 -3.9875 4.59 -5.6875 4.25 C-3.34903846 0.31153846 -3.34903846 0.31153846 0 0 Z " fill="#F8F8F8" transform="translate(69.6875,52.75)"/>
<path d="M0 0 C0.7425 0.185625 1.485 0.37125 2.25 0.5625 C4.94990963 0.99203108 6.44631077 0.85122974 9 0 C9.66 0.99 10.32 1.98 11 3 C6.545 3.495 6.545 3.495 2 4 C2 3.34 2 2.68 2 2 C1.34 2 0.68 2 0 2 C0 1.34 0 0.68 0 0 Z " fill="#D7CDCE" transform="translate(128,39)"/>
<path d="M0 0 C0.66 0.33 1.32 0.66 2 1 C1.67 1.99 1.34 2.98 1 4 C1.66 4 2.32 4 3 4 C3.33 5.32 3.66 6.64 4 8 C2.68 8.33 1.36 8.66 0 9 C0.33 7.68 0.66 6.36 1 5 C0.34 4.67 -0.32 4.34 -1 4 C-0.67 2.68 -0.34 1.36 0 0 Z " fill="#CDCDCD" transform="translate(111,64)"/>
<path d="M0 0 C-0.33 0.99 -0.66 1.98 -1 3 C-2.65 3.33 -4.3 3.66 -6 4 C-6 3.34 -6 2.68 -6 2 C-6.99 1.34 -7.98 0.68 -9 0 C-3.375 -1.125 -3.375 -1.125 0 0 Z " fill="#D1BFBF" transform="translate(129,19)"/>
<path d="M0 0 C2 1.25 2 1.25 4 3 C4 4.32 4 5.64 4 7 C2.35 6.67 0.7 6.34 -1 6 C-0.34 5.67 0.32 5.34 1 5 C0.67 3.35 0.34 1.7 0 0 Z " fill="#D1CCCC" transform="translate(71,80)"/>
<path d="M0 0 C0.99 0.66 1.98 1.32 3 2 C1.35 2.33 -0.3 2.66 -2 3 C-2.33 4.65 -2.66 6.3 -3 8 C-3.99 7.34 -4.98 6.68 -6 6 C-6 5.34 -6 4.68 -6 4 C-4.03852126 2.61061923 -2.03833424 1.2739589 0 0 Z " fill="#DDD2D3" transform="translate(74,69)"/>
<path d="M0 0 C0.99 0.33 1.98 0.66 3 1 C3 2.65 3 4.3 3 6 C1.68 5.67 0.36 5.34 -1 5 C-0.67 3.35 -0.34 1.7 0 0 Z " fill="#EAE9E9" transform="translate(128,56)"/>
<path d="M0 0 C0.99 0 1.98 0 3 0 C3 3.3 3 6.6 3 10 C1.19669467 6.39338934 0.53400897 3.91606575 0 0 Z " fill="#E6E6E6" transform="translate(122,47)"/>
<path d="M0 0 C2.99332739 0.9977758 3.94766315 1.7522025 6 4 C4.33388095 4.042721 2.66617115 4.04063832 1 4 C0.67 3.67 0.34 3.34 0 3 C-0.66 3.66 -1.32 4.32 -2 5 C-2 3.68 -2 2.36 -2 1 C-1.34 0.67 -0.68 0.34 0 0 Z " fill="#D6D1D1" transform="translate(129,30)"/>
<path d="M0 0 C2.97 0 5.94 0 9 0 C9.33 0.99 9.66 1.98 10 3 C6.7 2.67 3.4 2.34 0 2 C0 1.34 0 0.68 0 0 Z " fill="#D9D4D4" transform="translate(92,114)"/>
<path d="M0 0 C2.31 0 4.62 0 7 0 C7.33 0.66 7.66 1.32 8 2 C6.02 2.33 4.04 2.66 2 3 C2 2.34 2 1.68 2 1 C1.34 0.67 0.68 0.34 0 0 Z " fill="#EFEEEE" transform="translate(127,27)"/>
</svg>
