<svg xmlns="http://www.w3.org/2000/svg" width="256" height="154"><path fill="#8C3A43" d="M0 0h256v154H0V0Z"/><path fill="#40322A" d="M123.816 28.902c1.582.007 3.165.019 4.746.035l2.444.014c1.998.012 3.996.03 5.994.049l2 7h2l1-2v8l-1.688-2.5c-2.057-2.72-2.057-2.72-4.937-3-2.739.287-2.739.287-4.375 3.5-.454 2.28-.454 2.28-.625 4.688l-.227 2.449L130 49h-2l-1-8h2l.375-1.813C130 37 130 37 132 34h4v-3h-14v7l2 2c2.25 6.074.933 12.08-1 18h3l2 6-1.438 1.313c-1.799 1.71-1.799 1.71-2.562 4.687h2l2-4h3l-.938-2.813L128 57h-2v-3l4 1v4c2.524-2.25 3.767-4.327 5.063-7.438C136.287 48.654 137.56 45.81 139 43c.218 5.439.104 9.87-2 15l-3-1c.968 3.795.968 3.795 3 7l1-4h2a939.187 939.187 0 0 0 2-17h1v14l2-1c7.304-.232 7.304-.232 11 1v-2h7v47c-5-1-5-1-7.25-1.625L154 100l-1 1c-7.459.36-7.459.36-11-2l.494 1.675c.561 2.58.619 4.889.604 7.528l-.01 2.969-.025 3.078-.014 3.125A2189.19 2189.19 0 0 1 143 125c-2.895-2.895-2.77-6.08-3-10 .032-1.813.074-3.625.125-5.438.058-4.637-.703-8.279-2.371-12.59-.753-1.97-1.28-3.918-1.754-5.972h-2l-1-3-3 3-3-1 1-3h3l-1-5h-2l-2 5h-2c-1.625-2.5-1.625-2.5-3-5l-1 3-6-1v-2h-10l-2 8h2l1-5c3.313-.25 3.313-.25 7 0 2 1.75 2 1.75 3 4-.313 2.25-.313 2.25-1 4l-7 2v-2l3-2c.724-2.06.724-2.06 1-4h-3l-.188 1.875C107 91 107 91 104.626 92.25 102 93 102 93 99 93v-2h2l-.125-3.813c-.114-3.478.066-4.098 2.125-7.187.167-3.125.167-3.125 0-6l3 2 2.625.5L111 77l1 2 3 1v2c2.648-2.578 4.944-4.916 7-8 2.36 2.36 2.491 3.779 3 7 .783-1.77.783-1.77 1-4-1.19-2.3-1.19-2.3-2.938-4.5C120.525 69.122 120 68.423 120 64l3 1c-.524-3.249-1.404-6.222-2.5-9.313-1.462-4.249-2.094-8.218-2.5-12.687 1.506 1.964 2.891 3.783 4 6-.2-.926-.2-.926-.402-1.871C120.408 41.426 119.46 35.81 119 30c1-1 1-1 4.816-1.098Z"/><path fill="#3E3129" d="M162 57v42l-5-1 .438-2.125c.577-2.95 1.079-5.908 1.562-8.875h-2l-.875-2.938c-.767-3.169-.767-3.169-3.125-4.062v-3h2l-1-2-2 2c-2.625.125-2.625.125-5 0v3h-4l-1-2-2 4h-3v-2h-2l1.5 2.313C138 85 138 85 138 88c-2.973-1.025-3.999-1.998-5.813-4.625-1.531-4.353-1.04-6.88-.187-11.375l-4 4-1-7 3-1c1.699-2.498 1.699-2.498 3-5l2 1-1 6h2l.8-1.734C138.9 64.3 141.56 60.89 145 58c3.938-.5 3.938-.5 7 0v2l1.68-.656 2.195-.844 2.18-.844C160 57 160 57 162 57Z"/><path fill="#5F4A3E" d="M110.09 80.867C112 81 112 81 114 82v2l6 1 1-4c1.5 1.313 1.5 1.313 3 3v3h2l2-5h2l1 5h-3v3l1.875-.938L134 87v4h2a377.572 377.572 0 0 1 1.938 3.688l1.09 2.074c1.96 4.511 2.045 8.62 1.91 13.488-.05 4.878.327 9.152 1.625 13.848C143 126 143 126 143 130h-27v-8l4 1v3h18c-1.312-5.132-1.312-5.132-2.633-10.261-.755-2.988-1.367-5.646-1.367-8.739l4 2a512.543 512.543 0 0 0-.875-4.25l-.492-2.39c-.544-2.371-.544-2.371-1.703-4.407C134 96 134 96 134 92h-2v8l-3 1-1-6h-2v-2h-3l1 7c-3-1-3-1-4.188-2.875C119 95 119 95 119 92h-1c-.907 1.158-1.8 2.327-2.688 3.5-2.86 3.441-2.86 3.441-6.687 3.938L106 99c1.135-3.291 1.993-3.996 5.125-5.75L114 92c-.379-3.29-.379-3.29-2-6a235.648 235.648 0 0 0-7-1l-1 5h-2c1.012-9.107 1.012-9.107 8.09-9.133Z"/><path fill="#372A24" d="M123.816 28.902c1.582.007 3.165.019 4.746.035l2.444.014c1.998.012 3.996.03 5.994.049l2 7h2l1-2v8l-1.688-2.5c-2.057-2.72-2.057-2.72-4.937-3-2.739.287-2.739.287-4.375 3.5-.454 2.28-.454 2.28-.625 4.688l-.227 2.449L130 49h-2l-1-8h2l.375-1.813C130 37 130 37 132 34h4v-3h-14v7l2 2c2.25 6.074.933 12.08-1 18h3l2 6-1.438 1.313c-1.799 1.71-1.799 1.71-2.562 4.687h2l2-4h3l-1 3h-3l2 6 4-4-.324 1.758c-1.072 6.986.41 10.37 4.324 16.242l-1 3c-2-1-2-1-3-4l-3 3-3-1 1-3h3l-1-5h-2l-2 5h-2c-1.625-2.5-1.625-2.5-3-5l-1 3-6-1v-2h-10l-2 8h2l1-5c3.313-.25 3.313-.25 7 0 2 1.75 2 1.75 3 4-.313 2.25-.313 2.25-1 4l-7 2v-2l3-2c.724-2.06.724-2.06 1-4h-3l-.188 1.875C107 91 107 91 104.626 92.25 102 93 102 93 99 93v-2h2l-.125-3.813c-.114-3.478.066-4.098 2.125-7.187.167-3.125.167-3.125 0-6l3 2 2.625.5L111 77l1 2 3 1v2c2.648-2.578 4.944-4.916 7-8 2.36 2.36 2.491 3.779 3 7 .783-1.77.783-1.77 1-4-1.19-2.3-1.19-2.3-2.938-4.5C120.525 69.122 120 68.423 120 64l3 1c-.524-3.249-1.404-6.222-2.5-9.313-1.462-4.249-2.094-8.218-2.5-12.687 1.506 1.964 2.891 3.783 4 6-.2-.926-.2-.926-.402-1.871C120.408 41.426 119.46 35.81 119 30c1-1 1-1 4.816-1.098Z"/><path fill="#482C29" d="m116.776 21.886 3.665.016 3.955.01 4.166.025c1.393.006 2.786.01 4.178.014 3.42.012 6.84.028 10.26.049l1 6-2-2c-2.814-.372-2.814-.372-6.102-.414l-3.671-.117-3.852-.094-3.875-.117c-3.167-.095-6.333-.18-9.5-.258l.437 3.113c.19 1.4.377 2.8.563 4.2l.296 2.215c.521 4.161.742 8.084.516 12.284-.176 6.13 2.32 10.892 5.188 16.188l-2 1c1.517 3.791 2.882 6.833 5.25 10.187C127 77 127 77 126.875 79.312 126 81 126 81 124 82l-2-7-1.023 1.531-1.352 1.969-1.336 1.969L117 82h-2v-2l-4-1v-2h-5v-1h5v-3l-5-1c-.625-3.375-.625-3.375-1-7l2-2c6.087.543 6.087.543 9 2v-3c-3.967-1.803-7.682-2.492-12-3l-2 6h-3v-2l2-1c-.113-1.959-.113-1.959-1-4l-5-2v45l6-1c-1.813 1.562-1.813 1.562-4 3l-3-1V55c6 0 6 0 9 2 2.07.027 2.07.027 4.187-.375L111 56v2l4 1v2h3l-1.438-3.188c-2.889-6.406-2.619-12.515-2.5-19.437-.055-2.972-.424-5.49-1.062-8.375a97.595 97.595 0 0 1 0-7c1-1 1-1 3.776-1.114Z"/><path fill="#5B473B" d="M132 92h2a596.82 596.82 0 0 1 2.5 6.563l1.406 3.69c1.106 3.789 1.296 6.826 1.094 10.747l-.813-1.875C137.044 108.7 137.044 108.7 134 107l.875 2.633 1.125 3.492 1.125 3.445C138 120 138 120 138 126h-18l-1-5h6c.96-2.882 1.106-4.699 1.063-7.688l-.028-2.449L126 109l-2 6h-4c-1.552-1.552-1.17-3.037-1.188-5.188.032-3.948.677-7.129 2.188-10.812l3 1-1-7h3v2h2l1 6 2-1-.063-2.875C131 94 131 94 132 92Z"/><path fill="#665043" d="M95 56c5 1 5 1 7 3-.375 2.125-.375 2.125-1 4h-2v2l3-1c1.219-2.504 1.219-2.504 2-5 4.93-.29 8.093-.197 12 3v3l-9-1c-.8 3.287-1.097 4.71 0 8 2.015.733 2.015.733 4 1v3l-2.938-.063c-2.937-.293-2.937-.293-4.062 1.063-.87 3.042-1.45 6.147-2.063 9.25l-.535 2.703L101 91h-2v2l8-2 1-4h3c-.082 2.796-.581 4.528-2.45 6.633C105.23 96.615 102.62 98.72 98 99v2h-3V56Z"/><path fill="#B08B75" d="M122 31h14v3h-4c-1.206 2.332-2.165 4.496-3 7h-2l1 2c.04 2 .043 4 0 6h2l-.105-1.828c-.22-6.471-.22-6.471 1.292-9.734C133 36 133 36 135.5 35.5c2.5.5 2.5.5 4.25 2.313 3.354 5.868 2.852 12.364 1.25 18.75L140 60h-2v5c-2-1.188-2-1.188-4-3-.25-2.688-.25-2.688 0-5h2c1.737-3.8 2-5.597 2-10l-6 12h-2v-4l-4-1v3h2c2.217 2.303 2.968 3.525 3.188 6.75L131 66l-1.938.875c-2.214.953-2.214.953-3.062 3.125h-2l1-5 3-1-2-3v-3h-3c.095-.953.19-1.905.29-2.887.11-1.254.22-2.508.335-3.8l.352-3.762c.023-3.515-.45-5.44-1.977-8.551-1.148-3.444-.957-4.172 0-8Z"/><path fill="#B18B76" d="M115 25h27c0 8 0 8-1 11h-2l-2-6h-17c.519 5.621 1.432 10.565 3 16 .125 2.938.125 2.938 0 5l-3-4c0 4.775 1.44 7.975 3.223 12.344.81 2.767.773 4-.223 6.656-5.116-8.47-7.823-14.87-7.148-25.04.2-5.323-.41-10.65-.852-15.96Z"/><path fill="#3C2925" d="M138 43h1c.218 5.439.104 9.87-2 15l-3-1c.968 3.795.968 3.795 3 7l1-4h2a939.187 939.187 0 0 0 2-17h1v14l2-1c7.304-.232 7.304-.232 11 1v-2h7v46l-3-1h2V57l-7 3h-3v-2c-3.89 0-5.996.105-8.953 2.742-2.584 2.964-4.865 5.986-7.047 9.258h-2v-6l-3 2-3-9h-2v-3l4 1v4c2.514-2.248 3.801-4.347 5.125-7.438l1.008-2.308c.798-2.074 1.383-4.088 1.867-6.254Z"/><path fill="#AC8772" d="M95 56c5 1 5 1 7 3v3h-4v32l9-3 1-4h3c-.082 2.796-.581 4.528-2.45 6.633C105.23 96.615 102.62 98.72 98 99v2h-3V56Z"/><path fill="#AD8873" d="m142 81 4 3 1-3c2.875-.125 2.875-.125 6 0 3.012 3.012 2.961 5.281 3.188 9.5-.287 5.351-.287 5.351-2.188 7.5-4.231 1.22-6.348 1.273-10.438-.438L141 96l1-4 3 1c2.333.04 4.667.044 7 0 .25-2.916.25-2.916 0-6l-3-2 1 1.813C151 89 151 89 151 92c-2.886-.398-3.822-.79-5.75-3.063L144 87l-1.313 2.438C141 92 141 92 138 93c.665-4.389 2.188-7.981 4-12Z"/><path fill="#B58F78" d="M162 57v42l-5-1v-4h3l-1-29-4-1v2l-2.438.875c-2.695.858-2.695.858-3.562 3.125l-3-1c1.157-4.915 4.059-6.91 7.93-9.766C156.623 57.63 158.877 57 162 57Z"/><path fill="#40322B" d="M123 93h3v2h2l1 6 3-1-1 3h-3l1 1.5c1.436 3.59 1.129 6.645 1 10.5h-2v-8h-2l-.25 3.375C125 114 125 114 122.937 115.438L121 116c-2-2-2-2-2.266-3.953.033-4.745.436-8.588 2.266-13.047l3 1-1-7Z"/><path fill="#492A29" d="m116.776 21.886 3.665.016 3.955.01 4.166.025c1.393.006 2.786.01 4.178.014 3.42.012 6.84.028 10.26.049l1 6-2-2c-2.814-.372-2.814-.372-6.102-.414l-3.671-.117-3.852-.094-3.875-.117c-3.167-.095-6.333-.18-9.5-.258l.437 3.113c1.705 12.587 1.705 12.587 1.5 18.887-.128 4.988 1.012 8.471 3.063 13l-2 1c-3.535-7.839-4.086-13.987-3.938-22.625-.055-2.972-.424-5.49-1.062-8.375a97.595 97.595 0 0 1 0-7c1-1 1-1 3.776-1.114Z"/><path fill="#AA8671" d="M138 118h2a108654431262972.62 108654431262972.62 0 0 0 2.344 5.86C143 126 143 126 143 130h-27v-8l4 1v3h18v-8Z"/><path fill="#A7836F" d="M135.5 35.5c2.5.5 2.5.5 4.25 2.313 3.354 5.868 2.852 12.364 1.25 18.75L140 60h-2v5c-2-1.188-2-1.188-4-3-.25-2.688-.25-2.688 0-5h2c1.851-3.929 2.22-6.988 2.125-11.313l-.055-3.238L138 40h-4l-2 10h-2a224.84 224.84 0 0 1-.188-4.75l-.105-2.672c.45-3.952 1.81-6.281 5.793-7.078Z"/><path fill="#A8846F" d="m133 87 1 4h2a377.572 377.572 0 0 1 1.938 3.688l1.09 2.074c2.279 5.245 2.096 10.437 2.035 16.05l-.014 2.39c-.012 1.932-.03 3.865-.049 5.798l-1-3h-2l-1 2a894.533 894.533 0 0 1-1.5-4.813l-.844-2.707C134 110 134 110 134 107l4 2a512.543 512.543 0 0 0-.875-4.25l-.492-2.39c-.544-2.371-.544-2.371-1.703-4.407C134 96 134 96 134 92l-4 1c.573-2.867.861-3.861 3-6Z"/><path fill="#A4816D" d="M154 67h2c-.467 4.113-.89 7.111-4 10-2.688.25-2.688.25-5 0v3h-4l-1-2-2 4h-3c.628-2.929 1.586-5.361 3-8l4 1v-2l-3-1v-3h4l1 2c2.374.334 2.374.334 5 0 1.705-1.94 1.705-1.94 3-4Z"/><path fill="#A98570" d="m119 98 2 1-.5 2.438c-.592 4.22-.585 8.309-.5 12.562h4l2-7h1c.054 1.77.093 3.541.125 5.313l.07 2.988C127 118 127 118 125 121c-2.938.5-2.938.5-6 0-4.05-5.246-3.668-10.655-3-17 .76-2.365 1.612-3.918 3-6Z"/><path fill="#613936" d="m140 96 1.79.457c5.722 1.406 9.676 1.838 15.21-.457v2l5 1 1 3c-2.443-.475-4.85-.959-7.25-1.625L154 100l-1 1c-7.459.36-7.459.36-11-2l.494 1.675c.561 2.58.619 4.889.604 7.528l-.01 2.969-.025 3.078-.014 3.125c-.012 2.542-.028 5.083-.049 7.625-3.712-3.712-3.052-9.903-3.098-14.938.007-1.687.019-3.375.036-5.062l.013-2.637c.012-2.12.03-4.242.049-6.363Z"/><path fill="#332822" d="M138 43h1c.218 5.439.104 9.87-2 15l-3-1c.968 3.795.968 3.795 3 7l1-4h2l1-2 1 3c-1.145 2.262-1.145 2.262-2.813 4.688l-1.644 2.449L136 70h-2v-6l-3 2-3-9h-2v-3l4 1v4c2.514-2.248 3.801-4.347 5.125-7.438l1.008-2.308c.798-2.074 1.383-4.088 1.867-6.254Z"/><path fill="#A7836F" d="M104 59c4.93-.29 8.093-.197 12 3v3l-9-1c-.8 3.287-1.097 4.71 0 8 2.015.733 2.015.733 4 1v3c-5.4.48-5.4.48-7.875-1.5-2.056-4.57-1.665-8.88-.125-13.5l1-2Z"/><path fill="#9C7B68" d="M118 64h2l1.25 3.125c1.137 2.705 2.269 4.61 4 7.063C127 77 127 77 126.875 79.311 126 81 126 81 124 82l-.875-3.313c-.944-3.727-.944-3.727-3.125-6.687-2.563-.73-2.563-.73-5-1l2 5-2 1c-5-5.75-5-5.75-5-8h-2l-1-4c3.27.564 4.826 1.5 7 4l1.875-2.5L118 64Z"/><path fill="#3F3129" d="M132 92h2a596.82 596.82 0 0 1 2.5 6.563l1.406 3.69c1.106 3.789 1.296 6.826 1.094 10.747l-.813-1.875C137.044 108.7 137.044 108.7 134 107l.875 2.668 1.125 3.52 1.125 3.48c.781 2.975 1.059 5.285.875 8.332h-5v-3h3l-1.5-2.375c-3-7.25-1.672-14.294.5-21.625h-2l-1 2c-1.125-5.75-1.125-5.75 0-8Z"/><path fill="#5E493D" d="M134 40h4c1.23 3.69.602 4.799-.75 8.375-.345.936-.69 1.872-1.047 2.836C135 54 133.727 56.5 132 59h-2l-1-8-2 1v-9h1v6l4 1-.125-2.75c.12-3.128.516-4.636 2.125-7.25Z"/><path fill="#644E42" d="M159 65h1v29l-2-1 1-6h-2l-.875-2.938c-.767-3.169-.767-3.169-3.125-4.062v-3h2l-.625-1.625c-.506-3.208.471-5.388 1.625-8.375l1 2h2v-4Z"/><path fill="#524036" d="m104 77 1 3h6v1l-7 1-2 8h2l1-5c3.313-.25 3.313-.25 7 0 2 1.75 2 1.75 3 4-.313 2.25-.313 2.25-1 4l-7 2v-2l3-2c.724-2.06.724-2.06 1-4h-3l-.188 1.875C107 91 107 91 104.626 92.25 102 93 102 93 99 93v-2h2l-.188-3.625c-.021-4.11 1.057-6.823 3.188-10.375Z"/><path fill="#352923" d="M118 43c3.956 4.855 5.292 8.72 5 15h3l2 6-1.438 1.313c-1.799 1.71-1.799 1.71-2.562 4.687h2l2-4h3l-1 3h-3l-1 4v-2h-4c-2-3-2-3-2-7l3 1c-.524-3.249-1.404-6.222-2.5-9.313-1.462-4.249-2.094-8.218-2.5-12.687Z"/><path fill="#A8846F" d="m117 38 2 3 2-2c1.292 4.12 2.263 7.668 2 12l-3-4c0 4.775 1.44 7.975 3.223 12.344.81 2.767.773 4-.223 6.656-4.739-8.28-8.536-15.137-7-25l1-3Z"/><path fill="#AD8973" d="M133 98h2c.125 5.75.125 5.75-1 8a74.581 74.581 0 0 0-.188 4.938l-.042 2.652c.063 2.672.063 2.672 2.23 5.41v3c-3.875-1.875-3.875-1.875-5-3-.072-2.02-.084-4.042-.063-6.063l.028-3.347L131 107l-3-1v-3l3-1c1.209-2 1.209-2 2-4Z"/><path fill="#7B6051" d="M115 71a99.984 99.984 0 0 1 5 0c1 1 1 1 1.313 3.25-.41 3.611-1.814 5.178-4.313 7.75h-2v-2l-4-1v-2h-5v-1h5l1-2 4 2-1-5Z"/><path fill="#967663" d="M130 51v4l-4-1v3h2c2.217 2.303 2.968 3.525 3.188 6.75L131 66l-1.938.875c-2.214.953-2.214.953-3.062 3.125h-2l1-5 3-1-2-3v-3h-3l1-7c3.75-1.125 3.75-1.125 6 0Z"/><path fill="#947462" d="m142 81 2.25 1.438c2.36 1.34 4.116 2.074 6.75 2.562h-2l1 1.813C151 89 151 89 151 92c-2.886-.398-3.822-.79-5.75-3.063L144 87l-1.313 2.438C141 92 141 92 138 93c.665-4.389 2.188-7.981 4-12Z"/><path fill="#B18B75" d="M110.09 80.867C112 81 112 81 114 82v2h2v4l-1.563-.938C111.334 85.71 108.35 85.386 105 85l-1 5h-2c1.012-9.107 1.012-9.107 8.09-9.133Z"/><path fill="#3D3028" d="M107 63c6.087.543 6.087.543 9 2l-1 5-2.313-1.938c-2.57-2.204-2.57-2.204-5.687-3.062l1 4h2c1.688 1.813 1.688 1.813 3 4l-1 3-1-2a78.037 78.037 0 0 0-5-2c-.625-3.375-.625-3.375-1-7l2-2Z"/><path fill="#A27F6B" d="m118 86 3 1c-.474 4.268-2.958 6.175-6 9l-1.438 1.813c-2.41 1.831-4.64 1.382-7.562 1.187.625-1.813.625-1.813 2-4l2.875-1.375c3.732-1.94 5.048-4.03 7.125-7.625Z"/><path fill="#A6836F" d="M148.438 57.5 151 58v3l-6 2v2l-4 1-1 4h-3c1.037-5.98 5.367-11.617 11.438-12.5Z"/><path fill="#A7836F" d="m134 71 4 1v4l-3 1c.547 3.375 1.055 5.082 3 8v3c-3.092-1.066-4.004-2.006-5.813-4.813C130.93 79.81 130.91 78.37 132 75h2v-4Z"/><path fill="#241D19" d="m149 85 4 2c.043 2 .04 4 0 6-1 1-1 1-4.563 1.063L145 94l-1-3-2-1 2-4c1.5 1.375 1.5 1.375 3 3v2l4 1-1-1.813C149 88 149 88 149 85Z"/><path fill="#47372E" d="m119 30 3 1-.125 3.375c-.286 3.669-.286 3.669 2.125 5.625 1.55 4.187 1.849 9.139-.012 13.219L123 55l-.367-2.633-.508-3.492-.492-3.445c-.608-3.292-1.566-6.264-2.633-9.43-.125-3.375-.125-3.375 0-6Z"/><path fill="#9E7D69" d="m134 107 6 2c1.286 8.571 1.286 8.571 0 12v-3h-2l-1 2a894.533 894.533 0 0 1-1.5-4.813l-.844-2.707C134 110 134 110 134 107Z"/><path fill="#382C26" d="M155 64h4v5h-2v-2c-3.161 1.37-3.993 1.99-6 5-2.625.188-2.625.188-5 0l-1-5 4 3 2-4h4v-2Z"/><path fill="#A8846F" d="M158.258 58.336 160 59l-2.5 1.25L155 62v4l-2.438.875c-2.695.858-2.695.858-3.562 3.125l-3-1c1.157-4.919 4.113-7.015 7.93-9.96C156 58 156 58 158.258 58.335Z"/><path fill="#B28C76" d="M135.688 35.75 138 36v3h-4l-2 11h-2a224.84 224.84 0 0 1-.188-4.75l-.105-2.672c.462-4.07 1.782-6.437 5.98-6.828Z"/><path fill="#532D2D" d="M141 101c2 2 2 2 2.227 4.247-.01.91-.02 1.822-.032 2.76l-.02 2.99-.05 3.128-.027 3.152A1137.2 1137.2 0 0 1 143 125c-2.931-2.931-2.87-6.026-3-10 .21-4.679.574-9.336 1-14Z"/><path fill="#775D4F" d="m140 74 12 2v1h-5v3h-4l-1-2-2 4h-3c.659-3.075 1.539-5.077 3-8Z"/><path fill="#AA8571" d="M135 44h2c.783 6.106-1.892 10.005-5 15h-2c.568-5.54 2.629-10.037 5-15Z"/><path fill="#2D231D" d="M120 29c2.813-.027 5.625-.047 8.438-.063l2.431-.025c2.044-.009 4.088.036 6.131.088 1 1 1 1 1.063 3.563L138 35l-4-1h2v-3l-16 1v-3Z"/><path fill="#201A17" d="M123 71h3v2h2l1 2 4-4-1 6h-2v4l-3 1-.875-3.25c-.853-2.844-1.689-5.185-3.125-7.75Z"/><path fill="#9D7B68" d="m133 63 2 1c-.457 5.027-2.992 8.149-6 12-2-3-2-3-2-7l3-1c1.699-2.498 1.699-2.498 3-5Z"/><path fill="#8D6F5D" d="M122 31h14v3h-2v-2h-9l2 3c.125 2.688.125 2.688 0 5l-4-4-1 3c-1.082-3.365-.925-4.298 0-8Z"/><path fill="#A4816D" d="M126 98h2c-.476 6.028-3.197 10.767-6 16h-1c-.502-6.025.873-9.851 4-15l1-1Z"/><path fill="#A8846F" d="M100 66h1l.586 5.957c.34 2.343.34 2.343 2.414 5.043-.309 1.89-.309 1.89-1 4a819.995 819.995 0 0 0-1.063 4.75l-.535 2.422L101 90h-1V66Z"/><path fill="#8C6E5C" d="M119 67c3.258 3.026 5.815 6.115 8 10-.125 2.313-.125 2.313-1 4l-2 1-.75-3.25c-.947-3.773-.947-3.773-3.438-5.938L118 71c.25-2.25.25-2.25 1-4Z"/><path fill="#40322A" d="M155 81c2 2 2 2 2 6h2c.53 5.69-.05 6.063-4 11V81Z"/><path fill="#AE8973" d="M128 116h2l1 6h2v2h-9l4-8Z"/><path fill="#B18C76" d="M157 71h1v14c-2.5-2.313-2.5-2.313-5-5v-3l2-1a78.037 78.037 0 0 0 2-5Z"/><path fill="#532F2E" d="M142 43h1v14h2l-2 5-2-1c-1.13-4.404-.9-7.94-.063-12.375l.59-3.21L142 43Z"/><path fill="#2F2520" d="M134 113h2c1.292 4.12 2.263 7.668 2 12h-5v-3h3l-1-1.688c-1.131-2.615-1.157-4.493-1-7.312Z"/><path fill="#987865" d="M133 98h2c.125 2.875.125 2.875 0 6-2.139 2.139-3.133 2.427-6 3l-1-4 3-1c1.209-2 1.209-2 2-4Z"/><path fill="#A98571" d="M128 82h2l1 5-1.938.813C126.67 88.886 126.67 88.886 126 92h-3l1-5h2l2-5Z"/><path fill="#342923" d="M132 92h2a210.497 210.497 0 0 1 1.563 3.75l.878 2.11c.637 2.44.361 3.78-.441 6.14h-1v-6h-2l-1 2c-1.125-5.75-1.125-5.75 0-8Z"/><path fill="#A98570" d="m104 81 3 1-1 1 6 1v1h-7l-1 5h-2c.875-7.875.875-7.875 2-9Z"/><path fill="#967663" d="M137 55c1.5 1.375 1.5 1.375 3 3v2h-2v5c-2-1.188-2-1.188-4-3-.25-2.688-.25-2.688 0-5h2l1-2Z"/><path fill="#9C7B67" d="m117 38 2 3 2-2c1.292 4.12 2.263 7.668 2 12-2.154-2.622-3.4-4.644-4-8h-2v-5Z"/><path fill="#29211C" d="M112 87h2c.625 2.375.625 2.375 1 5-2.565 2.565-4.477 2.54-8 3v-2l1.938-1.438c2.346-1.471 2.346-1.471 3.062-4.562Z"/><path fill="#B18B75" d="M154 67h2c-.875 5.75-.875 5.75-2 8h-6l3-2a78.037 78.037 0 0 0 2-5l1-1Z"/><path fill="#A07E6A" d="M130 51v4l-4-1-1 4h-2l1-7c3.75-1.125 3.75-1.125 6 0Z"/><path fill="#3A2E27" d="m127 116 1 3c-1.313 2.188-1.313 2.188-3 4h-2v2h-3l-1-4h6l2-5Z"/><path fill="#AF8A75" d="M108 95h6l-2 4h-6l2-4Z"/><path fill="#A98570" d="m119 92 4 1 1 7c-3-1-3-1-4.188-2.875C119 95 119 95 119 92Z"/><path fill="#69413D" d="m156 96 1 2c2.527.656 2.527.656 5 1l1 3c-4.084-.743-8.02-1.83-12-3l1.938-.938c1.998-.897 1.998-.897 3.062-2.062Z"/><path fill="#3B2E28" d="m123 79 2 2 2-1c.625 1.813.625 1.813 1 4l-2 3h-2c-2.125-4.625-2.125-4.625-1-8Z"/><path fill="#1D1815" d="m109 63 7 2-1 5c-4.875-3.625-4.875-3.625-6-7Z"/><path fill="#B28C76" d="M138 101h2c1.005 3.015 1.103 5.042 1.063 8.188l-.028 2.73L141 114h-1c-2.286-8.429-2.286-8.429-2-13Z"/><path fill="#9B7A67" d="m133 87 1 4h2l-1 5-1-4-4 1c.573-2.867.861-3.861 3-6Z"/><path fill="#8B6D5C" d="M139 109h1c1.286 8.571 1.286 8.571 0 12v-3h-2l-1 2v-5h2v-6Z"/><path fill="#9A7966" d="M127 92h2c1.563 2.813 1.563 2.813 3 6l-1 3h-2l-2-9Z"/><path fill="#372B24" d="m149 85 4 2v6h-3l-1-8Z"/><path fill="#A17E6B" d="M140 74h2c-.523 2.763-1.109 5.326-2 8h-3c.628-2.929 1.586-5.361 3-8Z"/><path fill="#47352E" d="m121 60 1 4-6 2-1-5c2.076-.553 3.844-1 6-1Z"/><path fill="#3B2E27" d="M128 66h3l-1 3h-3l-1 4v-2l-4-1 2-2v2h2l2-4Z"/><path fill="#A6826E" d="M140 86h2v5l-4 2c.875-4.75.875-4.75 2-7Z"/><path fill="#886B5A" d="M147 84c2.063.438 2.063.438 4 1h-2l1 1.813C151 89 151 89 151 92l-4-2 1-4-2-1 1-1Z"/><path fill="#372B24" d="m138 74 2 2c-1.313 2-1.313 2-3 4h-3l1-4h3v-2Z"/><path fill="#987765" d="m134 71 4 1v4l-4 1v-6Z"/><path fill="#2A221D" d="M115 71h5l1 3-4 2-2-5Z"/><path fill="#AA8671" d="M118 64h2c-.875 4.75-.875 4.75-2 7h-2c-.125-2.375-.125-2.375 0-5l2-2Z"/><path fill="#B08A75" d="M140 50h1c-.586 6.152-.586 6.152-1 8l-2 1c-.125-3.375-.125-3.375 0-7l2-2Z"/><path fill="#A98570" d="M127 70h4c-.375 2.438-.375 2.438-1 5l-2 1-1-6Z"/><path fill="#2F241E" d="M127 41h3v8h-2l-1-8Z"/><path fill="#221B17" d="m121 74 3 2-1 6-1-2-2-1 1-5Z"/><path fill="#3B2E27" d="m126 54 4 1v4l2 1-4-1v-2h-2v-3Z"/></svg>