<?xml version="1.0" encoding="UTF-8"?>
<svg version="1.1" xmlns="http://www.w3.org/2000/svg" width="256" height="154">
<path d="M0 0 C84.48 0 168.96 0 256 0 C256 50.82 256 101.64 256 154 C171.52 154 87.04 154 0 154 C0 103.18 0 52.36 0 0 Z " fill="#8C3A43" transform="translate(0,0)"/>
<path d="M0 0 C1.58206057 0.00667536 3.16410534 0.0186375 4.74609375 0.03515625 C5.55240234 0.03966797 6.35871094 0.04417969 7.18945312 0.04882812 C9.18753131 0.06065107 11.18557158 0.07858711 13.18359375 0.09765625 C13.84359375 2.40765625 14.50359375 4.71765625 15.18359375 7.09765625 C15.84359375 7.09765625 16.50359375 7.09765625 17.18359375 7.09765625 C17.51359375 6.43765625 17.84359375 5.77765625 18.18359375 5.09765625 C18.18359375 7.73765625 18.18359375 10.37765625 18.18359375 13.09765625 C17.62671875 12.27265625 17.06984375 11.44765625 16.49609375 10.59765625 C14.43873611 7.87691622 14.43873611 7.87691622 11.55859375 7.59765625 C8.81994038 7.88488034 8.81994038 7.88488034 7.18359375 11.09765625 C6.72964823 13.37678563 6.72964823 13.37678563 6.55859375 15.78515625 C6.48382813 16.59339844 6.4090625 17.40164062 6.33203125 18.234375 C6.28304687 18.84925781 6.2340625 19.46414062 6.18359375 20.09765625 C5.52359375 20.09765625 4.86359375 20.09765625 4.18359375 20.09765625 C3.85359375 17.45765625 3.52359375 14.81765625 3.18359375 12.09765625 C3.84359375 12.09765625 4.50359375 12.09765625 5.18359375 12.09765625 C5.30734375 11.49953125 5.43109375 10.90140625 5.55859375 10.28515625 C6.18359375 8.09765625 6.18359375 8.09765625 8.18359375 5.09765625 C9.50359375 5.09765625 10.82359375 5.09765625 12.18359375 5.09765625 C12.18359375 4.10765625 12.18359375 3.11765625 12.18359375 2.09765625 C7.56359375 2.09765625 2.94359375 2.09765625 -1.81640625 2.09765625 C-1.81640625 4.40765625 -1.81640625 6.71765625 -1.81640625 9.09765625 C-1.15640625 9.75765625 -0.49640625 10.41765625 0.18359375 11.09765625 C2.43322654 17.17166477 1.11691999 23.17684465 -0.81640625 29.09765625 C0.17359375 29.09765625 1.16359375 29.09765625 2.18359375 29.09765625 C2.84359375 31.07765625 3.50359375 33.05765625 4.18359375 35.09765625 C3.70921875 35.53078125 3.23484375 35.96390625 2.74609375 36.41015625 C0.94672418 38.12075238 0.94672418 38.12075238 0.18359375 41.09765625 C0.84359375 41.09765625 1.50359375 41.09765625 2.18359375 41.09765625 C2.84359375 39.77765625 3.50359375 38.45765625 4.18359375 37.09765625 C5.17359375 37.09765625 6.16359375 37.09765625 7.18359375 37.09765625 C6.71953125 35.70546875 6.71953125 35.70546875 6.24609375 34.28515625 C5.55859375 32.22265625 4.87109375 30.16015625 4.18359375 28.09765625 C3.52359375 28.09765625 2.86359375 28.09765625 2.18359375 28.09765625 C2.18359375 27.10765625 2.18359375 26.11765625 2.18359375 25.09765625 C3.50359375 25.42765625 4.82359375 25.75765625 6.18359375 26.09765625 C6.18359375 27.41765625 6.18359375 28.73765625 6.18359375 30.09765625 C8.70749246 27.84700014 9.95063815 25.77029863 11.24609375 22.66015625 C12.47159114 19.75144558 13.74360155 16.90724104 15.18359375 14.09765625 C15.40115041 19.53657275 15.28787759 23.96846439 13.18359375 29.09765625 C12.19359375 28.76765625 11.20359375 28.43765625 10.18359375 28.09765625 C11.15135473 31.89313546 11.15135473 31.89313546 13.18359375 35.09765625 C13.51359375 33.77765625 13.84359375 32.45765625 14.18359375 31.09765625 C14.84359375 31.09765625 15.50359375 31.09765625 16.18359375 31.09765625 C16.90413423 25.4362668 17.56633179 19.77121296 18.18359375 14.09765625 C18.51359375 14.09765625 18.84359375 14.09765625 19.18359375 14.09765625 C19.18359375 18.71765625 19.18359375 23.33765625 19.18359375 28.09765625 C19.84359375 27.76765625 20.50359375 27.43765625 21.18359375 27.09765625 C28.48794158 26.86577219 28.48794158 26.86577219 32.18359375 28.09765625 C32.18359375 27.43765625 32.18359375 26.77765625 32.18359375 26.09765625 C34.49359375 26.09765625 36.80359375 26.09765625 39.18359375 26.09765625 C39.18359375 41.60765625 39.18359375 57.11765625 39.18359375 73.09765625 C34.18359375 72.09765625 34.18359375 72.09765625 31.93359375 71.47265625 C31.06734375 71.28703125 31.06734375 71.28703125 30.18359375 71.09765625 C29.85359375 71.42765625 29.52359375 71.75765625 29.18359375 72.09765625 C21.72494713 72.45855851 21.72494713 72.45855851 18.18359375 70.09765625 C18.34657959 70.6503418 18.50956543 71.20302734 18.67749023 71.77246094 C19.23903852 74.35238659 19.29659635 76.66120849 19.28125 79.30078125 C19.27802734 80.28046875 19.27480469 81.26015625 19.27148438 82.26953125 C19.25891602 83.79320313 19.25891602 83.79320313 19.24609375 85.34765625 C19.24158203 86.37890625 19.23707031 87.41015625 19.23242188 88.47265625 C19.22065463 91.01438198 19.20421386 93.55598944 19.18359375 96.09765625 C16.28855897 93.20262147 16.41272816 90.01840067 16.18359375 86.09765625 C16.21558251 84.28495962 16.25768746 82.47242028 16.30859375 80.66015625 C16.36655981 76.02287145 15.60530925 72.380834 13.9375 68.0703125 C13.18420542 66.09925674 12.6569576 64.15196343 12.18359375 62.09765625 C11.52359375 62.09765625 10.86359375 62.09765625 10.18359375 62.09765625 C9.85359375 61.10765625 9.52359375 60.11765625 9.18359375 59.09765625 C8.19359375 60.08765625 7.20359375 61.07765625 6.18359375 62.09765625 C4.69859375 61.60265625 4.69859375 61.60265625 3.18359375 61.09765625 C3.51359375 60.10765625 3.84359375 59.11765625 4.18359375 58.09765625 C5.17359375 58.09765625 6.16359375 58.09765625 7.18359375 58.09765625 C6.68859375 55.62265625 6.68859375 55.62265625 6.18359375 53.09765625 C5.52359375 53.09765625 4.86359375 53.09765625 4.18359375 53.09765625 C3.19359375 55.57265625 3.19359375 55.57265625 2.18359375 58.09765625 C1.52359375 58.09765625 0.86359375 58.09765625 0.18359375 58.09765625 C-1.44140625 55.59765625 -1.44140625 55.59765625 -2.81640625 53.09765625 C-3.14640625 54.08765625 -3.47640625 55.07765625 -3.81640625 56.09765625 C-5.79640625 55.76765625 -7.77640625 55.43765625 -9.81640625 55.09765625 C-9.81640625 54.43765625 -9.81640625 53.77765625 -9.81640625 53.09765625 C-13.11640625 53.09765625 -16.41640625 53.09765625 -19.81640625 53.09765625 C-20.47640625 55.73765625 -21.13640625 58.37765625 -21.81640625 61.09765625 C-21.15640625 61.09765625 -20.49640625 61.09765625 -19.81640625 61.09765625 C-19.48640625 59.44765625 -19.15640625 57.79765625 -18.81640625 56.09765625 C-15.50390625 55.84765625 -15.50390625 55.84765625 -11.81640625 56.09765625 C-9.81640625 57.84765625 -9.81640625 57.84765625 -8.81640625 60.09765625 C-9.12890625 62.34765625 -9.12890625 62.34765625 -9.81640625 64.09765625 C-13.28140625 65.08765625 -13.28140625 65.08765625 -16.81640625 66.09765625 C-16.81640625 65.43765625 -16.81640625 64.77765625 -16.81640625 64.09765625 C-15.82640625 63.43765625 -14.83640625 62.77765625 -13.81640625 62.09765625 C-13.09258158 60.03840486 -13.09258158 60.03840486 -12.81640625 58.09765625 C-13.80640625 58.09765625 -14.79640625 58.09765625 -15.81640625 58.09765625 C-15.87828125 58.71640625 -15.94015625 59.33515625 -16.00390625 59.97265625 C-16.81640625 62.09765625 -16.81640625 62.09765625 -19.19140625 63.34765625 C-21.81640625 64.09765625 -21.81640625 64.09765625 -24.81640625 64.09765625 C-24.81640625 63.43765625 -24.81640625 62.77765625 -24.81640625 62.09765625 C-24.15640625 62.09765625 -23.49640625 62.09765625 -22.81640625 62.09765625 C-22.87828125 60.21046875 -22.87828125 60.21046875 -22.94140625 58.28515625 C-23.05544365 54.80701552 -22.87566306 54.18654147 -20.81640625 51.09765625 C-20.64941393 47.97243792 -20.64941393 47.97243792 -20.81640625 45.09765625 C-19.82640625 45.75765625 -18.83640625 46.41765625 -17.81640625 47.09765625 C-16.95015625 47.26265625 -16.08390625 47.42765625 -15.19140625 47.59765625 C-14.40765625 47.76265625 -13.62390625 47.92765625 -12.81640625 48.09765625 C-12.48640625 48.75765625 -12.15640625 49.41765625 -11.81640625 50.09765625 C-10.82640625 50.42765625 -9.83640625 50.75765625 -8.81640625 51.09765625 C-8.81640625 51.75765625 -8.81640625 52.41765625 -8.81640625 53.09765625 C-6.16888621 50.51980779 -3.8720856 48.18117527 -1.81640625 45.09765625 C0.54312469 47.45718719 0.67500788 48.87661242 1.18359375 52.09765625 C1.96669287 50.32759419 1.96669287 50.32759419 2.18359375 48.09765625 C0.99399954 45.79745613 0.99399954 45.79745613 -0.75390625 43.59765625 C-3.29289506 40.22004927 -3.81640625 39.52059785 -3.81640625 35.09765625 C-2.33140625 35.59265625 -2.33140625 35.59265625 -0.81640625 36.09765625 C-1.34040914 32.8488383 -2.22028165 29.87569292 -3.31640625 26.78515625 C-4.77806506 22.53565064 -5.41014153 18.56656821 -5.81640625 14.09765625 C-4.31081086 16.06147632 -2.92508942 17.88028991 -1.81640625 20.09765625 C-2.01556641 19.17146484 -2.01556641 19.17146484 -2.21875 18.2265625 C-3.40796379 12.52354454 -4.35522958 6.90848231 -4.81640625 1.09765625 C-3.81640625 0.09765625 -3.81640625 0.09765625 0 0 Z " fill="#40322A" transform="translate(123.81640625,28.90234375)"/>
<path d="M0 0 C0 13.86 0 27.72 0 42 C-1.65 41.67 -3.3 41.34 -5 41 C-4.855625 40.29875 -4.71125 39.5975 -4.5625 38.875 C-3.98521625 35.92443859 -3.48304859 32.96729849 -3 30 C-3.66 30 -4.32 30 -5 30 C-5.28875 29.030625 -5.5775 28.06125 -5.875 27.0625 C-6.64214682 23.89335797 -6.64214682 23.89335797 -9 23 C-9 22.01 -9 21.02 -9 20 C-8.34 20 -7.68 20 -7 20 C-7.33 19.34 -7.66 18.68 -8 18 C-8.66 18.66 -9.32 19.32 -10 20 C-12.625 20.125 -12.625 20.125 -15 20 C-15 20.99 -15 21.98 -15 23 C-16.32 23 -17.64 23 -19 23 C-19.33 22.34 -19.66 21.68 -20 21 C-20.66 22.32 -21.32 23.64 -22 25 C-22.99 25 -23.98 25 -25 25 C-25 24.34 -25 23.68 -25 23 C-25.66 23 -26.32 23 -27 23 C-26.505 23.763125 -26.01 24.52625 -25.5 25.3125 C-24 28 -24 28 -24 31 C-26.97343996 29.97467587 -27.99860466 29.00202083 -29.8125 26.375 C-31.34410256 22.02202429 -30.852434 19.49465201 -30 15 C-31.32 16.32 -32.64 17.64 -34 19 C-34.33 16.69 -34.66 14.38 -35 12 C-34.01 11.67 -33.02 11.34 -32 11 C-30.30117552 8.50240018 -30.30117552 8.50240018 -29 6 C-28.34 6.33 -27.68 6.66 -27 7 C-27.33 8.98 -27.66 10.96 -28 13 C-27.34 13 -26.68 13 -26 13 C-25.60361328 12.14148438 -25.60361328 12.14148438 -25.19921875 11.265625 C-23.10042486 7.30047693 -20.44014065 3.88971815 -17 1 C-13.0625 0.5 -13.0625 0.5 -10 1 C-10 1.66 -10 2.32 -10 3 C-9.44570312 2.7834375 -8.89140625 2.566875 -8.3203125 2.34375 C-7.59585938 2.0653125 -6.87140625 1.786875 -6.125 1.5 C-5.04605469 1.08234375 -5.04605469 1.08234375 -3.9453125 0.65625 C-2 0 -2 0 0 0 Z " fill="#3E3129" transform="translate(162,57)"/>
<path d="M0 0 C1.91015625 0.1328125 1.91015625 0.1328125 3.91015625 1.1328125 C3.91015625 1.7928125 3.91015625 2.4528125 3.91015625 3.1328125 C6.88015625 3.6278125 6.88015625 3.6278125 9.91015625 4.1328125 C10.24015625 2.8128125 10.57015625 1.4928125 10.91015625 0.1328125 C12.41015625 1.4453125 12.41015625 1.4453125 13.91015625 3.1328125 C13.91015625 4.1228125 13.91015625 5.1128125 13.91015625 6.1328125 C14.57015625 6.1328125 15.23015625 6.1328125 15.91015625 6.1328125 C16.57015625 4.4828125 17.23015625 2.8328125 17.91015625 1.1328125 C18.57015625 1.1328125 19.23015625 1.1328125 19.91015625 1.1328125 C20.24015625 2.7828125 20.57015625 4.4328125 20.91015625 6.1328125 C19.92015625 6.1328125 18.93015625 6.1328125 17.91015625 6.1328125 C17.91015625 7.1228125 17.91015625 8.1128125 17.91015625 9.1328125 C18.52890625 8.8234375 19.14765625 8.5140625 19.78515625 8.1953125 C21.16015625 7.5078125 22.53515625 6.8203125 23.91015625 6.1328125 C23.91015625 7.4528125 23.91015625 8.7728125 23.91015625 10.1328125 C24.57015625 10.1328125 25.23015625 10.1328125 25.91015625 10.1328125 C26.56372903 11.35788148 27.20763858 12.58810766 27.84765625 13.8203125 C28.38712891 14.84705078 28.38712891 14.84705078 28.9375 15.89453125 C30.89789785 20.40580824 30.98287822 24.51482143 30.84765625 29.3828125 C30.79793988 34.26054055 31.17473004 38.53449962 32.47265625 43.23046875 C32.91015625 45.1328125 32.91015625 45.1328125 32.91015625 49.1328125 C24.00015625 49.1328125 15.09015625 49.1328125 5.91015625 49.1328125 C5.91015625 46.4928125 5.91015625 43.8528125 5.91015625 41.1328125 C7.23015625 41.4628125 8.55015625 41.7928125 9.91015625 42.1328125 C9.91015625 43.1228125 9.91015625 44.1128125 9.91015625 45.1328125 C15.85015625 45.1328125 21.79015625 45.1328125 27.91015625 45.1328125 C26.59768007 40.00130843 26.59768007 40.00130843 25.27734375 34.87182617 C24.52172867 31.88422311 23.91015625 29.22610852 23.91015625 26.1328125 C25.23015625 26.7928125 26.55015625 27.4528125 27.91015625 28.1328125 C27.62533257 26.71475419 27.33197481 25.29840871 27.03515625 23.8828125 C26.79152344 22.69945312 26.79152344 22.69945312 26.54296875 21.4921875 C25.99908027 19.12176563 25.99908027 19.12176563 24.83984375 17.0859375 C23.91015625 15.1328125 23.91015625 15.1328125 23.91015625 11.1328125 C23.25015625 11.1328125 22.59015625 11.1328125 21.91015625 11.1328125 C21.91015625 13.7728125 21.91015625 16.4128125 21.91015625 19.1328125 C20.92015625 19.4628125 19.93015625 19.7928125 18.91015625 20.1328125 C18.58015625 18.1528125 18.25015625 16.1728125 17.91015625 14.1328125 C17.25015625 14.1328125 16.59015625 14.1328125 15.91015625 14.1328125 C15.91015625 13.4728125 15.91015625 12.8128125 15.91015625 12.1328125 C14.92015625 12.1328125 13.93015625 12.1328125 12.91015625 12.1328125 C13.24015625 14.4428125 13.57015625 16.7528125 13.91015625 19.1328125 C10.91015625 18.1328125 10.91015625 18.1328125 9.72265625 16.2578125 C8.91015625 14.1328125 8.91015625 14.1328125 8.91015625 11.1328125 C8.58015625 11.1328125 8.25015625 11.1328125 7.91015625 11.1328125 C7.00321309 12.2908637 6.10967656 13.4594313 5.22265625 14.6328125 C2.36298437 18.07411256 2.36298437 18.07411256 -1.46484375 18.5703125 C-2.76421875 18.35375 -2.76421875 18.35375 -4.08984375 18.1328125 C-2.95484981 14.84133007 -2.09700999 14.1368256 1.03515625 12.3828125 C2.45828125 11.7640625 2.45828125 11.7640625 3.91015625 11.1328125 C3.53111417 7.84205254 3.53111417 7.84205254 1.91015625 5.1328125 C-0.41802339 4.76520519 -2.75168225 4.43039669 -5.08984375 4.1328125 C-5.41984375 5.7828125 -5.74984375 7.4328125 -6.08984375 9.1328125 C-6.74984375 9.1328125 -7.40984375 9.1328125 -8.08984375 9.1328125 C-7.07794139 0.02569126 -7.07794139 0.02569126 0 0 Z " fill="#5F4A3E" transform="translate(110.08984375,80.8671875)"/>
<path d="M0 0 C1.58206057 0.00667536 3.16410534 0.0186375 4.74609375 0.03515625 C5.55240234 0.03966797 6.35871094 0.04417969 7.18945312 0.04882812 C9.18753131 0.06065107 11.18557158 0.07858711 13.18359375 0.09765625 C13.84359375 2.40765625 14.50359375 4.71765625 15.18359375 7.09765625 C15.84359375 7.09765625 16.50359375 7.09765625 17.18359375 7.09765625 C17.51359375 6.43765625 17.84359375 5.77765625 18.18359375 5.09765625 C18.18359375 7.73765625 18.18359375 10.37765625 18.18359375 13.09765625 C17.62671875 12.27265625 17.06984375 11.44765625 16.49609375 10.59765625 C14.43873611 7.87691622 14.43873611 7.87691622 11.55859375 7.59765625 C8.81994038 7.88488034 8.81994038 7.88488034 7.18359375 11.09765625 C6.72964823 13.37678563 6.72964823 13.37678563 6.55859375 15.78515625 C6.48382813 16.59339844 6.4090625 17.40164062 6.33203125 18.234375 C6.28304687 18.84925781 6.2340625 19.46414062 6.18359375 20.09765625 C5.52359375 20.09765625 4.86359375 20.09765625 4.18359375 20.09765625 C3.85359375 17.45765625 3.52359375 14.81765625 3.18359375 12.09765625 C3.84359375 12.09765625 4.50359375 12.09765625 5.18359375 12.09765625 C5.30734375 11.49953125 5.43109375 10.90140625 5.55859375 10.28515625 C6.18359375 8.09765625 6.18359375 8.09765625 8.18359375 5.09765625 C9.50359375 5.09765625 10.82359375 5.09765625 12.18359375 5.09765625 C12.18359375 4.10765625 12.18359375 3.11765625 12.18359375 2.09765625 C7.56359375 2.09765625 2.94359375 2.09765625 -1.81640625 2.09765625 C-1.81640625 4.40765625 -1.81640625 6.71765625 -1.81640625 9.09765625 C-1.15640625 9.75765625 -0.49640625 10.41765625 0.18359375 11.09765625 C2.43322654 17.17166477 1.11691999 23.17684465 -0.81640625 29.09765625 C0.17359375 29.09765625 1.16359375 29.09765625 2.18359375 29.09765625 C2.84359375 31.07765625 3.50359375 33.05765625 4.18359375 35.09765625 C3.70921875 35.53078125 3.23484375 35.96390625 2.74609375 36.41015625 C0.94672418 38.12075238 0.94672418 38.12075238 0.18359375 41.09765625 C0.84359375 41.09765625 1.50359375 41.09765625 2.18359375 41.09765625 C2.84359375 39.77765625 3.50359375 38.45765625 4.18359375 37.09765625 C5.17359375 37.09765625 6.16359375 37.09765625 7.18359375 37.09765625 C6.85359375 38.08765625 6.52359375 39.07765625 6.18359375 40.09765625 C5.19359375 40.09765625 4.20359375 40.09765625 3.18359375 40.09765625 C3.84359375 42.07765625 4.50359375 44.05765625 5.18359375 46.09765625 C6.50359375 44.77765625 7.82359375 43.45765625 9.18359375 42.09765625 C9.07660156 42.67773438 8.96960938 43.2578125 8.859375 43.85546875 C7.78717573 50.84205753 9.26880253 54.22546942 13.18359375 60.09765625 C12.85359375 61.08765625 12.52359375 62.07765625 12.18359375 63.09765625 C10.18359375 62.09765625 10.18359375 62.09765625 9.18359375 59.09765625 C8.19359375 60.08765625 7.20359375 61.07765625 6.18359375 62.09765625 C4.69859375 61.60265625 4.69859375 61.60265625 3.18359375 61.09765625 C3.51359375 60.10765625 3.84359375 59.11765625 4.18359375 58.09765625 C5.17359375 58.09765625 6.16359375 58.09765625 7.18359375 58.09765625 C6.68859375 55.62265625 6.68859375 55.62265625 6.18359375 53.09765625 C5.52359375 53.09765625 4.86359375 53.09765625 4.18359375 53.09765625 C3.19359375 55.57265625 3.19359375 55.57265625 2.18359375 58.09765625 C1.52359375 58.09765625 0.86359375 58.09765625 0.18359375 58.09765625 C-1.44140625 55.59765625 -1.44140625 55.59765625 -2.81640625 53.09765625 C-3.14640625 54.08765625 -3.47640625 55.07765625 -3.81640625 56.09765625 C-5.79640625 55.76765625 -7.77640625 55.43765625 -9.81640625 55.09765625 C-9.81640625 54.43765625 -9.81640625 53.77765625 -9.81640625 53.09765625 C-13.11640625 53.09765625 -16.41640625 53.09765625 -19.81640625 53.09765625 C-20.47640625 55.73765625 -21.13640625 58.37765625 -21.81640625 61.09765625 C-21.15640625 61.09765625 -20.49640625 61.09765625 -19.81640625 61.09765625 C-19.48640625 59.44765625 -19.15640625 57.79765625 -18.81640625 56.09765625 C-15.50390625 55.84765625 -15.50390625 55.84765625 -11.81640625 56.09765625 C-9.81640625 57.84765625 -9.81640625 57.84765625 -8.81640625 60.09765625 C-9.12890625 62.34765625 -9.12890625 62.34765625 -9.81640625 64.09765625 C-13.28140625 65.08765625 -13.28140625 65.08765625 -16.81640625 66.09765625 C-16.81640625 65.43765625 -16.81640625 64.77765625 -16.81640625 64.09765625 C-15.82640625 63.43765625 -14.83640625 62.77765625 -13.81640625 62.09765625 C-13.09258158 60.03840486 -13.09258158 60.03840486 -12.81640625 58.09765625 C-13.80640625 58.09765625 -14.79640625 58.09765625 -15.81640625 58.09765625 C-15.87828125 58.71640625 -15.94015625 59.33515625 -16.00390625 59.97265625 C-16.81640625 62.09765625 -16.81640625 62.09765625 -19.19140625 63.34765625 C-21.81640625 64.09765625 -21.81640625 64.09765625 -24.81640625 64.09765625 C-24.81640625 63.43765625 -24.81640625 62.77765625 -24.81640625 62.09765625 C-24.15640625 62.09765625 -23.49640625 62.09765625 -22.81640625 62.09765625 C-22.87828125 60.21046875 -22.87828125 60.21046875 -22.94140625 58.28515625 C-23.05544365 54.80701552 -22.87566306 54.18654147 -20.81640625 51.09765625 C-20.64941393 47.97243792 -20.64941393 47.97243792 -20.81640625 45.09765625 C-19.82640625 45.75765625 -18.83640625 46.41765625 -17.81640625 47.09765625 C-16.95015625 47.26265625 -16.08390625 47.42765625 -15.19140625 47.59765625 C-14.40765625 47.76265625 -13.62390625 47.92765625 -12.81640625 48.09765625 C-12.48640625 48.75765625 -12.15640625 49.41765625 -11.81640625 50.09765625 C-10.82640625 50.42765625 -9.83640625 50.75765625 -8.81640625 51.09765625 C-8.81640625 51.75765625 -8.81640625 52.41765625 -8.81640625 53.09765625 C-6.16888621 50.51980779 -3.8720856 48.18117527 -1.81640625 45.09765625 C0.54312469 47.45718719 0.67500788 48.87661242 1.18359375 52.09765625 C1.96669287 50.32759419 1.96669287 50.32759419 2.18359375 48.09765625 C0.99399954 45.79745613 0.99399954 45.79745613 -0.75390625 43.59765625 C-3.29289506 40.22004927 -3.81640625 39.52059785 -3.81640625 35.09765625 C-2.33140625 35.59265625 -2.33140625 35.59265625 -0.81640625 36.09765625 C-1.34040914 32.8488383 -2.22028165 29.87569292 -3.31640625 26.78515625 C-4.77806506 22.53565064 -5.41014153 18.56656821 -5.81640625 14.09765625 C-4.31081086 16.06147632 -2.92508942 17.88028991 -1.81640625 20.09765625 C-2.01556641 19.17146484 -2.01556641 19.17146484 -2.21875 18.2265625 C-3.40796379 12.52354454 -4.35522958 6.90848231 -4.81640625 1.09765625 C-3.81640625 0.09765625 -3.81640625 0.09765625 0 0 Z " fill="#372A24" transform="translate(123.81640625,28.90234375)"/>
<path d="M0 0 C1.20970459 0.00523682 2.41940918 0.01047363 3.66577148 0.01586914 C4.97094727 0.0190918 6.27612305 0.02231445 7.62084961 0.02563477 C9.00952213 0.03399138 10.39819401 0.04245634 11.78686523 0.05102539 C13.17944179 0.05603873 14.57202005 0.06060193 15.96459961 0.06469727 C19.38456394 0.07653105 22.80444367 0.09301659 26.22436523 0.11352539 C26.71936523 3.08352539 26.71936523 3.08352539 27.22436523 6.11352539 C26.56436523 5.45352539 25.90436523 4.79352539 25.22436523 4.11352539 C22.4103384 3.74113313 22.4103384 3.74113313 19.12280273 3.69946289 C17.91108398 3.66079102 16.69936523 3.62211914 15.45092773 3.58227539 C14.17991211 3.55133789 12.90889648 3.52040039 11.59936523 3.48852539 C10.32061523 3.44985352 9.04186523 3.41118164 7.72436523 3.37133789 C4.55784506 3.2768149 1.39133484 3.19126182 -1.77563477 3.11352539 C-1.63125977 4.1409082 -1.48688477 5.16829102 -1.33813477 6.22680664 C-1.14890239 7.62631307 -0.96153302 9.02607218 -0.77563477 10.42602539 C-0.67806885 11.15716553 -0.58050293 11.88830566 -0.47998047 12.64160156 C0.04172803 16.80292416 0.26276976 20.72542241 0.03686523 24.92602539 C-0.14012559 31.05549724 2.35629445 35.81783755 5.22436523 41.11352539 C4.23436523 41.60852539 4.23436523 41.60852539 3.22436523 42.11352539 C4.74090986 45.90488695 6.10628907 48.94625082 8.47436523 52.30102539 C10.22436523 55.11352539 10.22436523 55.11352539 10.09936523 57.42602539 C9.22436523 59.11352539 9.22436523 59.11352539 7.22436523 60.11352539 C6.23436523 56.64852539 6.23436523 56.64852539 5.22436523 53.11352539 C4.88663086 53.61883789 4.54889648 54.12415039 4.20092773 54.64477539 C3.75491211 55.29446289 3.30889648 55.94415039 2.84936523 56.61352539 C2.40850586 57.26321289 1.96764648 57.91290039 1.51342773 58.58227539 C1.08803711 59.08758789 0.66264648 59.59290039 0.22436523 60.11352539 C-0.43563477 60.11352539 -1.09563477 60.11352539 -1.77563477 60.11352539 C-1.77563477 59.45352539 -1.77563477 58.79352539 -1.77563477 58.11352539 C-3.09563477 57.78352539 -4.41563477 57.45352539 -5.77563477 57.11352539 C-5.77563477 56.45352539 -5.77563477 55.79352539 -5.77563477 55.11352539 C-7.42563477 55.11352539 -9.07563477 55.11352539 -10.77563477 55.11352539 C-10.77563477 54.78352539 -10.77563477 54.45352539 -10.77563477 54.11352539 C-9.12563477 54.11352539 -7.47563477 54.11352539 -5.77563477 54.11352539 C-5.77563477 53.12352539 -5.77563477 52.13352539 -5.77563477 51.11352539 C-7.42563477 50.78352539 -9.07563477 50.45352539 -10.77563477 50.11352539 C-11.40063477 46.73852539 -11.40063477 46.73852539 -11.77563477 43.11352539 C-11.11563477 42.45352539 -10.45563477 41.79352539 -9.77563477 41.11352539 C-3.68867824 41.65700365 -3.68867824 41.65700365 -0.77563477 43.11352539 C-0.77563477 42.12352539 -0.77563477 41.13352539 -0.77563477 40.11352539 C-4.74261362 38.31035318 -8.45788897 37.62149548 -12.77563477 37.11352539 C-13.43563477 39.09352539 -14.09563477 41.07352539 -14.77563477 43.11352539 C-15.76563477 43.11352539 -16.75563477 43.11352539 -17.77563477 43.11352539 C-17.77563477 42.45352539 -17.77563477 41.79352539 -17.77563477 41.11352539 C-16.78563477 40.61852539 -16.78563477 40.61852539 -15.77563477 40.11352539 C-15.88870173 38.15458178 -15.88870173 38.15458178 -16.77563477 36.11352539 C-18.42563477 35.45352539 -20.07563477 34.79352539 -21.77563477 34.11352539 C-21.77563477 48.96352539 -21.77563477 63.81352539 -21.77563477 79.11352539 C-18.80563477 78.61852539 -18.80563477 78.61852539 -15.77563477 78.11352539 C-17.58813477 79.67602539 -17.58813477 79.67602539 -19.77563477 81.11352539 C-20.76563477 80.78352539 -21.75563477 80.45352539 -22.77563477 80.11352539 C-22.77563477 64.60352539 -22.77563477 49.09352539 -22.77563477 33.11352539 C-16.77563477 33.11352539 -16.77563477 33.11352539 -13.77563477 35.11352539 C-11.70652884 35.14102017 -11.70652884 35.14102017 -9.58813477 34.73852539 C-8.33000977 34.53227539 -7.07188477 34.32602539 -5.77563477 34.11352539 C-5.77563477 34.77352539 -5.77563477 35.43352539 -5.77563477 36.11352539 C-4.45563477 36.44352539 -3.13563477 36.77352539 -1.77563477 37.11352539 C-1.77563477 37.77352539 -1.77563477 38.43352539 -1.77563477 39.11352539 C-0.78563477 39.11352539 0.20436523 39.11352539 1.22436523 39.11352539 C0.74999023 38.06165039 0.27561523 37.00977539 -0.21313477 35.92602539 C-3.10234112 29.51952434 -2.83247895 23.41048805 -2.71313477 16.48852539 C-2.76817721 13.51623353 -3.13761198 10.99935155 -3.77563477 8.11352539 C-3.85336937 5.78148727 -3.86531205 3.4451348 -3.77563477 1.11352539 C-2.77563477 0.11352539 -2.77563477 0.11352539 0 0 Z " fill="#482C29" transform="translate(116.775634765625,21.886474609375)"/>
<path d="M0 0 C0.66 0 1.32 0 2 0 C2.84770456 2.18283925 3.67807547 4.36996079 4.5 6.5625 C4.9640625 7.78066406 5.428125 8.99882813 5.90625 10.25390625 C7.01223121 14.0418919 7.20185162 17.07903233 7 21 C6.731875 20.38125 6.46375 19.7625 6.1875 19.125 C5.04443152 16.7004767 5.04443152 16.7004767 2 15 C2.28875 15.86882812 2.5775 16.73765625 2.875 17.6328125 C3.24625 18.78523438 3.6175 19.93765625 4 21.125 C4.37125 22.26195313 4.7425 23.39890625 5.125 24.5703125 C6 28 6 28 6 34 C0.06 34 -5.88 34 -12 34 C-12.33 32.35 -12.66 30.7 -13 29 C-11.02 29 -9.04 29 -7 29 C-6.03929566 26.11788698 -5.89418117 24.30149956 -5.9375 21.3125 C-5.94652344 20.50425781 -5.95554687 19.69601563 -5.96484375 18.86328125 C-5.97644531 18.24839844 -5.98804687 17.63351563 -6 17 C-6.66 18.98 -7.32 20.96 -8 23 C-9.32 23 -10.64 23 -12 23 C-13.5516502 21.4483498 -13.1694916 19.96270239 -13.1875 17.8125 C-13.15596429 13.86422854 -12.51112262 10.68336139 -11 7 C-10.01 7.33 -9.02 7.66 -8 8 C-8.33 5.69 -8.66 3.38 -9 1 C-8.01 1 -7.02 1 -6 1 C-6 1.66 -6 2.32 -6 3 C-5.34 3 -4.68 3 -4 3 C-3.67 4.98 -3.34 6.96 -3 9 C-2.34 8.67 -1.68 8.34 -1 8 C-1.020625 7.05125 -1.04125 6.1025 -1.0625 5.125 C-1 2 -1 2 0 0 Z " fill="#5B473B" transform="translate(132,92)"/>
<path d="M0 0 C5 1 5 1 7 3 C6.625 5.125 6.625 5.125 6 7 C5.34 7 4.68 7 4 7 C4 7.66 4 8.32 4 9 C4.99 8.67 5.98 8.34 7 8 C8.21869929 5.49552484 8.21869929 5.49552484 9 3 C13.92991345 2.71000509 17.09251769 2.80296902 21 6 C21 6.99 21 7.98 21 9 C18.03 8.67 15.06 8.34 12 8 C11.20046862 11.28696233 10.90341064 12.71023192 12 16 C14.01508358 16.73323796 14.01508358 16.73323796 16 17 C16 17.99 16 18.98 16 20 C15.030625 19.979375 14.06125 19.95875 13.0625 19.9375 C10.12534105 19.64381501 10.12534105 19.64381501 9 21 C8.12981554 24.0422197 7.5498906 27.14722094 6.9375 30.25 C6.67259766 31.58804688 6.67259766 31.58804688 6.40234375 32.953125 C6.26957031 33.62859375 6.13679688 34.3040625 6 35 C5.34 35 4.68 35 4 35 C4 35.66 4 36.32 4 37 C6.64 36.34 9.28 35.68 12 35 C12.33 33.68 12.66 32.36 13 31 C13.99 31 14.98 31 16 31 C15.91776321 33.79605098 15.41865393 35.52830905 13.55078125 37.6328125 C10.23041013 40.61466422 7.61985569 42.72000875 3 43 C3 43.66 3 44.32 3 45 C2.01 45 1.02 45 0 45 C0 30.15 0 15.3 0 0 Z " fill="#665043" transform="translate(95,56)"/>
<path d="M0 0 C4.62 0 9.24 0 14 0 C14 0.99 14 1.98 14 3 C12.68 3 11.36 3 10 3 C8.79371992 5.33214148 7.8345262 7.49642139 7 10 C6.34 10 5.68 10 5 10 C5.33 10.66 5.66 11.32 6 12 C6.039992 13.99960012 6.04346799 16.00047242 6 18 C6.66 18 7.32 18 8 18 C7.96519531 17.39671875 7.93039063 16.7934375 7.89453125 16.171875 C7.67534214 9.70057749 7.67534214 9.70057749 9.1875 6.4375 C11 5 11 5 13.5 4.5 C16 5 16 5 17.75 6.8125 C21.10350864 12.68114012 20.60198973 19.17726435 19 25.5625 C18.67 26.696875 18.34 27.83125 18 29 C17.34 29 16.68 29 16 29 C16 30.65 16 32.3 16 34 C14 32.8125 14 32.8125 12 31 C11.75 28.3125 11.75 28.3125 12 26 C12.66 26 13.32 26 14 26 C15.73734147 22.19956554 16 20.40285423 16 16 C14.02 19.96 12.04 23.92 10 28 C9.34 28 8.68 28 8 28 C8 26.68 8 25.36 8 24 C6.68 23.67 5.36 23.34 4 23 C4 23.99 4 24.98 4 26 C4.66 26 5.32 26 6 26 C8.21747812 28.30276574 8.96760006 29.52480092 9.1875 32.75 C9.125625 33.4925 9.06375 34.235 9 35 C8.360625 35.28875 7.72125 35.5775 7.0625 35.875 C4.84793921 36.82823451 4.84793921 36.82823451 4 39 C3.34 39 2.68 39 2 39 C2.33 37.35 2.66 35.7 3 34 C4.485 33.505 4.485 33.505 6 33 C5.34 32.01 4.68 31.02 4 30 C4 29.01 4 28.02 4 27 C3.01 27 2.02 27 1 27 C1.09539062 26.04738281 1.19078125 25.09476563 1.2890625 24.11328125 C1.39992188 22.85902344 1.51078125 21.60476562 1.625 20.3125 C1.74101563 19.07113281 1.85703125 17.82976563 1.9765625 16.55078125 C1.99976259 13.03596824 1.52731149 11.11056846 0 8 C-1.14812048 4.55563857 -0.95708356 3.82833424 0 0 Z " fill="#B08B75" transform="translate(122,31)"/>
<path d="M0 0 C8.91 0 17.82 0 27 0 C27 8 27 8 26 11 C25.34 11 24.68 11 24 11 C23.34 9.02 22.68 7.04 22 5 C16.39 5 10.78 5 5 5 C5.51889817 10.6213968 6.43218835 15.56491962 8 21 C8.125 23.9375 8.125 23.9375 8 26 C7.01 24.68 6.02 23.36 5 22 C5 26.77535326 6.44031575 29.97491537 8.22265625 34.34375 C9.03256115 37.11126423 8.99618001 38.34351997 8 41 C2.88375743 32.52948616 0.17678827 26.12908714 0.8515625 15.9609375 C1.05108656 10.63679546 0.4424563 5.30947556 0 0 Z " fill="#B18B76" transform="translate(115,25)"/>
<path d="M0 0 C0.33 0 0.66 0 1 0 C1.21755666 5.4389165 1.10428384 9.87080814 -1 15 C-1.99 14.67 -2.98 14.34 -4 14 C-3.03223902 17.79547921 -3.03223902 17.79547921 -1 21 C-0.67 19.68 -0.34 18.36 0 17 C0.66 17 1.32 17 2 17 C2.72054048 11.33861055 3.38273804 5.67355671 4 0 C4.33 0 4.66 0 5 0 C5 4.62 5 9.24 5 14 C5.66 13.67 6.32 13.34 7 13 C14.30434783 12.76811594 14.30434783 12.76811594 18 14 C18 13.34 18 12.68 18 12 C20.31 12 22.62 12 25 12 C25 27.18 25 42.36 25 58 C24.01 57.67 23.02 57.34 22 57 C22.66 57 23.32 57 24 57 C24 42.81 24 28.62 24 14 C21.69 14.99 19.38 15.98 17 17 C16.01 17 15.02 17 14 17 C14 16.34 14 15.68 14 15 C10.11088237 15 8.00355986 15.10482461 5.046875 17.7421875 C2.4629386 20.70611455 0.18156789 23.72764816 -2 27 C-2.66 27 -3.32 27 -4 27 C-4 25.02 -4 23.04 -4 21 C-4.99 21.66 -5.98 22.32 -7 23 C-8 20 -9 17 -10 14 C-10.66 14 -11.32 14 -12 14 C-12 13.01 -12 12.02 -12 11 C-10.68 11.33 -9.36 11.66 -8 12 C-8 13.32 -8 14.64 -8 16 C-5.48602552 13.75178853 -4.19876679 11.65302641 -2.875 8.5625 C-2.54242188 7.80066406 -2.20984375 7.03882813 -1.8671875 6.25390625 C-1.06934428 4.18023265 -0.48350018 2.16588345 0 0 Z " fill="#3C2925" transform="translate(138,43)"/>
<path d="M0 0 C5 1 5 1 7 3 C7 3.99 7 4.98 7 6 C5.68 6 4.36 6 3 6 C3 16.56 3 27.12 3 38 C5.97 37.01 8.94 36.02 12 35 C12.33 33.68 12.66 32.36 13 31 C13.99 31 14.98 31 16 31 C15.91776321 33.79605098 15.41865393 35.52830905 13.55078125 37.6328125 C10.23041013 40.61466422 7.61985569 42.72000875 3 43 C3 43.66 3 44.32 3 45 C2.01 45 1.02 45 0 45 C0 30.15 0 15.3 0 0 Z " fill="#AC8772" transform="translate(95,56)"/>
<path d="M0 0 C1.32 0.99 2.64 1.98 4 3 C4.33 2.01 4.66 1.02 5 0 C7.875 -0.125 7.875 -0.125 11 0 C14.01196522 3.01196522 13.96147992 5.28095856 14.1875 9.5 C13.90082645 14.85123967 13.90082645 14.85123967 12 17 C7.76864483 18.22058322 5.65163458 18.27250173 1.5625 16.5625 C0.716875 16.046875 -0.12875 15.53125 -1 15 C-0.67 13.68 -0.34 12.36 0 11 C0.99 11.33 1.98 11.66 3 12 C5.33299825 12.03954234 7.66708189 12.04401732 10 12 C10.2502157 9.08365871 10.2502157 9.08365871 10 6 C9.01 5.34 8.02 4.68 7 4 C7.33 4.598125 7.66 5.19625 8 5.8125 C9 8 9 8 9 11 C6.11424181 10.60196439 5.17810487 10.20990931 3.25 7.9375 C2.8375 7.298125 2.425 6.65875 2 6 C1.566875 6.804375 1.13375 7.60875 0.6875 8.4375 C-1 11 -1 11 -4 12 C-3.33501617 7.61110675 -1.81242323 4.0188515 0 0 Z " fill="#AD8873" transform="translate(142,81)"/>
<path d="M0 0 C0 13.86 0 27.72 0 42 C-1.65 41.67 -3.3 41.34 -5 41 C-5 39.68 -5 38.36 -5 37 C-4.01 37 -3.02 37 -2 37 C-2.33 27.43 -2.66 17.86 -3 8 C-4.32 7.67 -5.64 7.34 -7 7 C-7 7.66 -7 8.32 -7 9 C-7.804375 9.28875 -8.60875 9.5775 -9.4375 9.875 C-12.1326468 10.73262568 -12.1326468 10.73262568 -13 13 C-13.99 12.67 -14.98 12.34 -16 12 C-14.84349173 7.08483986 -11.94144386 5.08988635 -8.0703125 2.234375 C-5.37742013 0.62880144 -3.12340575 0 0 0 Z " fill="#B58F78" transform="translate(162,57)"/>
<path d="M0 0 C0.99 0 1.98 0 3 0 C3 0.66 3 1.32 3 2 C3.66 2 4.32 2 5 2 C5.33 3.98 5.66 5.96 6 8 C6.99 7.67 7.98 7.34 9 7 C8.67 7.99 8.34 8.98 8 10 C7.01 10 6.02 10 5 10 C5.33 10.495 5.66 10.99 6 11.5 C7.43636358 15.09090894 7.12851462 18.14456127 7 22 C6.34 22 5.68 22 5 22 C5 19.36 5 16.72 5 14 C4.34 14 3.68 14 3 14 C2.9175 15.11375 2.835 16.2275 2.75 17.375 C2 21 2 21 -0.0625 22.4375 C-0.701875 22.623125 -1.34125 22.80875 -2 23 C-4 21 -4 21 -4.265625 19.046875 C-4.2333496 14.30239064 -3.82950826 10.45942638 -2 6 C-1.01 6.33 -0.02 6.66 1 7 C0.67 4.69 0.34 2.38 0 0 Z " fill="#40322B" transform="translate(123,93)"/>
<path d="M0 0 C1.20970459 0.00523682 2.41940918 0.01047363 3.66577148 0.01586914 C4.97094727 0.0190918 6.27612305 0.02231445 7.62084961 0.02563477 C9.00952213 0.03399138 10.39819401 0.04245634 11.78686523 0.05102539 C13.17944179 0.05603873 14.57202005 0.06060193 15.96459961 0.06469727 C19.38456394 0.07653105 22.80444367 0.09301659 26.22436523 0.11352539 C26.55436523 2.09352539 26.88436523 4.07352539 27.22436523 6.11352539 C26.56436523 5.45352539 25.90436523 4.79352539 25.22436523 4.11352539 C22.4103384 3.74113313 22.4103384 3.74113313 19.12280273 3.69946289 C17.91108398 3.66079102 16.69936523 3.62211914 15.45092773 3.58227539 C14.17991211 3.55133789 12.90889648 3.52040039 11.59936523 3.48852539 C10.32061523 3.44985352 9.04186523 3.41118164 7.72436523 3.37133789 C4.55784506 3.2768149 1.39133484 3.19126182 -1.77563477 3.11352539 C-1.63125977 4.1409082 -1.48688477 5.16829102 -1.33813477 6.22680664 C0.36622836 18.81381006 0.36622836 18.81381006 0.16186523 25.11352539 C0.03359011 30.10116388 1.17369942 33.58497173 3.22436523 38.11352539 C2.23436523 38.60852539 2.23436523 38.60852539 1.22436523 39.11352539 C-2.31076078 31.27476771 -2.86206735 25.1266152 -2.71313477 16.48852539 C-2.76817721 13.51623353 -3.13761198 10.99935155 -3.77563477 8.11352539 C-3.85336937 5.78148727 -3.86531205 3.4451348 -3.77563477 1.11352539 C-2.77563477 0.11352539 -2.77563477 0.11352539 0 0 Z " fill="#492A29" transform="translate(116.775634765625,21.886474609375)"/>
<path d="M0 0 C0.66 0 1.32 0 2 0 C2.50833591 1.24663331 3.00631145 2.49749387 3.5 3.75 C3.7784375 4.44609375 4.056875 5.1421875 4.34375 5.859375 C5 8 5 8 5 12 C-3.91 12 -12.82 12 -22 12 C-22 9.36 -22 6.72 -22 4 C-20.68 4.33 -19.36 4.66 -18 5 C-18 5.99 -18 6.98 -18 8 C-12.06 8 -6.12 8 0 8 C0 5.36 0 2.72 0 0 Z " fill="#AA8671" transform="translate(138,118)"/>
<path d="M0 0 C2.5 0.5 2.5 0.5 4.25 2.3125 C7.60350864 8.18114012 7.10198973 14.67726435 5.5 21.0625 C5.005 22.7640625 5.005 22.7640625 4.5 24.5 C3.84 24.5 3.18 24.5 2.5 24.5 C2.5 26.15 2.5 27.8 2.5 29.5 C0.5 28.3125 0.5 28.3125 -1.5 26.5 C-1.75 23.8125 -1.75 23.8125 -1.5 21.5 C-0.84 21.5 -0.18 21.5 0.5 21.5 C2.35131483 17.57142246 2.72004943 14.51224888 2.625 10.1875 C2.60695312 9.11886719 2.58890625 8.05023438 2.5703125 6.94921875 C2.54710937 6.14097656 2.52390625 5.33273438 2.5 4.5 C1.18 4.5 -0.14 4.5 -1.5 4.5 C-2.16 7.8 -2.82 11.1 -3.5 14.5 C-4.16 14.5 -4.82 14.5 -5.5 14.5 C-5.58153933 12.91753293 -5.63943557 11.33383727 -5.6875 9.75 C-5.72230469 8.86828125 -5.75710937 7.9865625 -5.79296875 7.078125 C-5.343916 3.12646083 -3.98386895 0.79677379 0 0 Z " fill="#A7836F" transform="translate(135.5,35.5)"/>
<path d="M0 0 C0.33 1.32 0.66 2.64 1 4 C1.66 4 2.32 4 3 4 C3.65357278 5.22506898 4.29748233 6.45529516 4.9375 7.6875 C5.29714844 8.37199219 5.65679687 9.05648437 6.02734375 9.76171875 C8.30677419 15.00715507 8.12366844 20.19911889 8.0625 25.8125 C8.05798828 26.60076172 8.05347656 27.38902344 8.04882812 28.20117188 C8.03711312 30.13414761 8.01917998 32.06708393 8 34 C7.505 32.515 7.505 32.515 7 31 C6.34 31 5.68 31 5 31 C4.67 31.66 4.34 32.32 4 33 C3.49487756 31.39743892 2.99608373 29.79288208 2.5 28.1875 C2.2215625 27.29417969 1.943125 26.40085937 1.65625 25.48046875 C1 23 1 23 1 20 C2.32 20.66 3.64 21.32 5 22 C4.71517632 20.58194169 4.42181856 19.16559621 4.125 17.75 C3.96257812 16.96109375 3.80015625 16.1721875 3.6328125 15.359375 C3.08892402 12.98895313 3.08892402 12.98895313 1.9296875 10.953125 C1 9 1 9 1 5 C-0.32 5.33 -1.64 5.66 -3 6 C-2.42655063 3.13275314 -2.1385485 2.1385485 0 0 Z " fill="#A8846F" transform="translate(133,87)"/>
<path d="M0 0 C0.66 0 1.32 0 2 0 C1.53256152 4.11345859 1.11081018 7.11139055 -2 10 C-4.6875 10.25 -4.6875 10.25 -7 10 C-7 10.99 -7 11.98 -7 13 C-8.32 13 -9.64 13 -11 13 C-11.33 12.34 -11.66 11.68 -12 11 C-12.66 12.32 -13.32 13.64 -14 15 C-14.99 15 -15.98 15 -17 15 C-16.37240135 12.07120629 -15.41377341 9.63904371 -14 7 C-12.68 7.33 -11.36 7.66 -10 8 C-10 7.34 -10 6.68 -10 6 C-10.99 5.67 -11.98 5.34 -13 5 C-13 4.01 -13 3.02 -13 2 C-11.68 2 -10.36 2 -9 2 C-8.67 2.66 -8.34 3.32 -8 4 C-5.62625139 4.33425735 -5.62625139 4.33425735 -3 4 C-1.29467677 2.05990478 -1.29467677 2.05990478 0 0 Z " fill="#A4816D" transform="translate(154,67)"/>
<path d="M0 0 C0.66 0.33 1.32 0.66 2 1 C1.835 1.804375 1.67 2.60875 1.5 3.4375 C0.90752652 7.65887352 0.91493291 11.74664545 1 16 C2.32 16 3.64 16 5 16 C5.66 13.69 6.32 11.38 7 9 C7.33 9 7.66 9 8 9 C8.05410687 10.77049689 8.09284119 12.54146849 8.125 14.3125 C8.14820312 15.29863281 8.17140625 16.28476563 8.1953125 17.30078125 C8 20 8 20 6 23 C3.0625 23.5 3.0625 23.5 0 23 C-4.0503909 17.75441179 -3.66788408 12.34489876 -3 6 C-2.23935105 3.6349938 -1.38774502 2.08161753 0 0 Z " fill="#A98570" transform="translate(119,98)"/>
<path d="M0 0 C0.88558594 0.22623047 0.88558594 0.22623047 1.7890625 0.45703125 C7.51245625 1.86259968 11.46591196 2.29462187 17 0 C17 0.66 17 1.32 17 2 C19.475 2.495 19.475 2.495 22 3 C22.33 3.99 22.66 4.98 23 6 C20.55672764 5.52491926 18.14910761 5.04141878 15.75 4.375 C15.1725 4.25125 14.595 4.1275 14 4 C13.67 4.33 13.34 4.66 13 5 C5.54135338 5.36090226 5.54135338 5.36090226 2 3 C2.16298584 3.55268555 2.32597168 4.10537109 2.49389648 4.67480469 C3.05544477 7.25473034 3.1130026 9.56355224 3.09765625 12.203125 C3.09443359 13.1828125 3.09121094 14.1625 3.08789062 15.171875 C3.07951172 16.18765625 3.07113281 17.2034375 3.0625 18.25 C3.05798828 19.28125 3.05347656 20.3125 3.04882812 21.375 C3.03706088 23.91672573 3.02062011 26.45833319 3 29 C-0.71190097 25.28809903 -0.05150868 19.09749495 -0.09765625 14.0625 C-0.09111544 12.37497199 -0.07934864 10.68745658 -0.0625 9 C-0.05798828 8.12988281 -0.05347656 7.25976562 -0.04882812 6.36328125 C-0.0371736 4.24215707 -0.01924357 2.1210689 0 0 Z " fill="#613936" transform="translate(140,96)"/>
<path d="M0 0 C0.33 0 0.66 0 1 0 C1.21755666 5.4389165 1.10428384 9.87080814 -1 15 C-1.99 14.67 -2.98 14.34 -4 14 C-3.03223902 17.79547921 -3.03223902 17.79547921 -1 21 C-0.67 19.68 -0.34 18.36 0 17 C0.66 17 1.32 17 2 17 C2.33 16.34 2.66 15.68 3 15 C3.33 15.99 3.66 16.98 4 18 C2.85546875 20.26171875 2.85546875 20.26171875 1.1875 22.6875 C0.64480469 23.49574219 0.10210937 24.30398437 -0.45703125 25.13671875 C-0.96621094 25.75160156 -1.47539062 26.36648437 -2 27 C-2.66 27 -3.32 27 -4 27 C-4 25.02 -4 23.04 -4 21 C-4.99 21.66 -5.98 22.32 -7 23 C-8 20 -9 17 -10 14 C-10.66 14 -11.32 14 -12 14 C-12 13.01 -12 12.02 -12 11 C-10.68 11.33 -9.36 11.66 -8 12 C-8 13.32 -8 14.64 -8 16 C-5.48602552 13.75178853 -4.19876679 11.65302641 -2.875 8.5625 C-2.54242188 7.80066406 -2.20984375 7.03882813 -1.8671875 6.25390625 C-1.06934428 4.18023265 -0.48350018 2.16588345 0 0 Z " fill="#332822" transform="translate(138,43)"/>
<path d="M0 0 C4.92991345 -0.28999491 8.09251769 -0.19703098 12 3 C12 3.99 12 4.98 12 6 C9.03 5.67 6.06 5.34 3 5 C2.20046862 8.28696233 1.90341064 9.71023192 3 13 C5.01508358 13.73323796 5.01508358 13.73323796 7 14 C7 14.99 7 15.98 7 17 C1.6 17.48 1.6 17.48 -0.875 15.5 C-2.93142427 10.93016829 -2.53976711 6.61930132 -1 2 C-0.67 1.34 -0.34 0.68 0 0 Z " fill="#A7836F" transform="translate(104,59)"/>
<path d="M0 0 C0.66 0 1.32 0 2 0 C2.61875 1.546875 2.61875 1.546875 3.25 3.125 C4.38666905 5.83005376 5.51865309 7.73475855 7.25 10.1875 C9 13 9 13 8.875 15.3125 C8 17 8 17 6 18 C5.71125 16.906875 5.4225 15.81375 5.125 14.6875 C4.18106796 10.95986155 4.18106796 10.95986155 2 8 C-0.56282742 7.27034634 -0.56282742 7.27034634 -3 7 C-2.34 8.65 -1.68 10.3 -1 12 C-1.99 12.495 -1.99 12.495 -3 13 C-8 7.25 -8 7.25 -8 5 C-8.66 5 -9.32 5 -10 5 C-10.33 3.68 -10.66 2.36 -11 1 C-7.73045798 1.56371414 -6.17424117 2.49962266 -4 5 C-3.38125 4.175 -2.7625 3.35 -2.125 2.5 C-1.42375 1.675 -0.7225 0.85 0 0 Z " fill="#9C7B68" transform="translate(118,64)"/>
<path d="M0 0 C0.66 0 1.32 0 2 0 C2.84770456 2.18283925 3.67807547 4.36996079 4.5 6.5625 C4.9640625 7.78066406 5.428125 8.99882813 5.90625 10.25390625 C7.01223121 14.0418919 7.20185162 17.07903233 7 21 C6.731875 20.38125 6.46375 19.7625 6.1875 19.125 C5.04443152 16.7004767 5.04443152 16.7004767 2 15 C2.433125 16.32064453 2.433125 16.32064453 2.875 17.66796875 C3.24625 18.82941406 3.6175 19.99085937 4 21.1875 C4.37125 22.33605469 4.7425 23.48460938 5.125 24.66796875 C5.90630553 27.64320812 6.18363306 29.95283896 6 33 C4.35 33 2.7 33 1 33 C1 32.01 1 31.02 1 30 C1.99 30 2.98 30 4 30 C3.2575 28.824375 3.2575 28.824375 2.5 27.625 C-0.50016819 20.37459353 0.82775677 13.33132089 3 6 C2.34 6 1.68 6 1 6 C0.67 6.66 0.34 7.32 0 8 C-1.125 2.25 -1.125 2.25 0 0 Z " fill="#3F3129" transform="translate(132,92)"/>
<path d="M0 0 C1.32 0 2.64 0 4 0 C5.23027758 3.69083274 4.60206654 4.79888197 3.25 8.375 C2.90453125 9.31085937 2.5590625 10.24671875 2.203125 11.2109375 C1.00018126 13.9995798 -0.27309554 16.50053302 -2 19 C-2.66 19 -3.32 19 -4 19 C-4.33 16.36 -4.66 13.72 -5 11 C-5.99 11.495 -5.99 11.495 -7 12 C-7 9.03 -7 6.06 -7 3 C-6.67 3 -6.34 3 -6 3 C-6 4.98 -6 6.96 -6 9 C-4.02 9.495 -4.02 9.495 -2 10 C-2.04125 9.0925 -2.0825 8.185 -2.125 7.25 C-2.00468444 4.1217954 -1.6085292 2.61385994 0 0 Z " fill="#5E493D" transform="translate(134,40)"/>
<path d="M0 0 C0.33 0 0.66 0 1 0 C1 9.57 1 19.14 1 29 C0.34 28.67 -0.32 28.34 -1 28 C-0.67 26.02 -0.34 24.04 0 22 C-0.66 22 -1.32 22 -2 22 C-2.28875 21.030625 -2.5775 20.06125 -2.875 19.0625 C-3.64214682 15.89335797 -3.64214682 15.89335797 -6 15 C-6 14.01 -6 13.02 -6 12 C-5.34 12 -4.68 12 -4 12 C-4.309375 11.195625 -4.309375 11.195625 -4.625 10.375 C-5.1314747 7.16732692 -4.15400225 4.98682934 -3 2 C-2.67 2.66 -2.34 3.32 -2 4 C-1.34 4 -0.68 4 0 4 C0 2.68 0 1.36 0 0 Z " fill="#644E42" transform="translate(159,65)"/>
<path d="M0 0 C0.33 0.99 0.66 1.98 1 3 C2.98 3 4.96 3 7 3 C7 3.33 7 3.66 7 4 C4.69 4.33 2.38 4.66 0 5 C-0.66 7.64 -1.32 10.28 -2 13 C-1.34 13 -0.68 13 0 13 C0.33 11.35 0.66 9.7 1 8 C4.3125 7.75 4.3125 7.75 8 8 C10 9.75 10 9.75 11 12 C10.6875 14.25 10.6875 14.25 10 16 C7.69 16.66 5.38 17.32 3 18 C3 17.34 3 16.68 3 16 C3.99 15.34 4.98 14.68 6 14 C6.72382467 11.94074861 6.72382467 11.94074861 7 10 C6.01 10 5.02 10 4 10 C3.938125 10.61875 3.87625 11.2375 3.8125 11.875 C3 14 3 14 0.625 15.25 C-2 16 -2 16 -5 16 C-5 15.34 -5 14.68 -5 14 C-4.34 14 -3.68 14 -3 14 C-3.061875 12.80375 -3.12375 11.6075 -3.1875 10.375 C-3.20943937 6.26502405 -2.13130434 3.5521739 0 0 Z " fill="#524036" transform="translate(104,77)"/>
<path d="M0 0 C3.95602172 4.85511756 5.29212746 8.71925967 5 15 C5.99 15 6.98 15 8 15 C8.66 16.98 9.32 18.96 10 21 C9.525625 21.433125 9.05125 21.86625 8.5625 22.3125 C6.76313043 24.02309613 6.76313043 24.02309613 6 27 C6.66 27 7.32 27 8 27 C8.66 25.68 9.32 24.36 10 23 C10.99 23 11.98 23 13 23 C12.67 23.99 12.34 24.98 12 26 C11.01 26 10.02 26 9 26 C8.67 27.32 8.34 28.64 8 30 C8 29.34 8 28.68 8 28 C6.68 28 5.36 28 4 28 C2 25 2 25 2 21 C2.99 21.33 3.98 21.66 5 22 C4.47599711 18.75118205 3.5961246 15.77803667 2.5 12.6875 C1.03834119 8.43799439 0.40626472 4.46891196 0 0 Z " fill="#352923" transform="translate(118,43)"/>
<path d="M0 0 C0.66 0.99 1.32 1.98 2 3 C2.66 2.34 3.32 1.68 4 1 C5.29243536 5.1196377 6.26252625 8.66831683 6 13 C5.01 11.68 4.02 10.36 3 9 C3 13.77535326 4.44031575 16.97491537 6.22265625 21.34375 C7.03256115 24.11126423 6.99618001 25.34351997 6 28 C1.26130229 19.71936753 -2.53619217 12.86305197 -1 3 C-0.67 2.01 -0.34 1.02 0 0 Z " fill="#A8846F" transform="translate(117,38)"/>
<path d="M0 0 C0.66 0 1.32 0 2 0 C2.125 5.75 2.125 5.75 1 8 C0.87885079 9.64255791 0.82459233 11.29052478 0.8125 12.9375 C0.79832031 13.81277344 0.78414062 14.68804687 0.76953125 15.58984375 C0.83336651 18.26244335 0.83336651 18.26244335 3 21 C3 21.99 3 22.98 3 24 C-0.875 22.125 -0.875 22.125 -2 21 C-2.07244053 18.98035801 -2.08377188 16.95832876 -2.0625 14.9375 C-2.05347656 13.83277344 -2.04445312 12.72804688 -2.03515625 11.58984375 C-2.02355469 10.73519531 -2.01195312 9.88054687 -2 9 C-2.99 8.67 -3.98 8.34 -5 8 C-5 7.01 -5 6.02 -5 5 C-4.01 4.67 -3.02 4.34 -2 4 C-0.79117904 1.99983534 -0.79117904 1.99983534 0 0 Z " fill="#AD8973" transform="translate(133,98)"/>
<path d="M0 0 C1.66611905 -0.042721 3.33382885 -0.04063832 5 0 C6 1 6 1 6.3125 3.25 C5.90211023 6.86142999 4.49852479 8.42798919 2 11 C1.34 11 0.68 11 0 11 C0 10.34 0 9.68 0 9 C-1.32 8.67 -2.64 8.34 -4 8 C-4 7.34 -4 6.68 -4 6 C-5.65 6 -7.3 6 -9 6 C-9 5.67 -9 5.34 -9 5 C-7.35 5 -5.7 5 -4 5 C-3.67 4.34 -3.34 3.68 -3 3 C-1.68 3.66 -0.36 4.32 1 5 C0.67 3.35 0.34 1.7 0 0 Z " fill="#7B6051" transform="translate(115,71)"/>
<path d="M0 0 C0 1.32 0 2.64 0 4 C-1.32 3.67 -2.64 3.34 -4 3 C-4 3.99 -4 4.98 -4 6 C-3.34 6 -2.68 6 -2 6 C0.21747812 8.30276574 0.96760006 9.52480092 1.1875 12.75 C1.125625 13.4925 1.06375 14.235 1 15 C0.360625 15.28875 -0.27875 15.5775 -0.9375 15.875 C-3.15206079 16.82823451 -3.15206079 16.82823451 -4 19 C-4.66 19 -5.32 19 -6 19 C-5.67 17.35 -5.34 15.7 -5 14 C-4.01 13.67 -3.02 13.34 -2 13 C-2.66 12.01 -3.32 11.02 -4 10 C-4 9.01 -4 8.02 -4 7 C-4.99 7 -5.98 7 -7 7 C-6.67 4.69 -6.34 2.38 -6 0 C-2.25 -1.125 -2.25 -1.125 0 0 Z " fill="#967663" transform="translate(130,51)"/>
<path d="M0 0 C0.7425 0.474375 1.485 0.94875 2.25 1.4375 C4.61050015 2.77869327 6.36648477 3.512312 9 4 C8.34 4 7.68 4 7 4 C7.33 4.598125 7.66 5.19625 8 5.8125 C9 8 9 8 9 11 C6.11424181 10.60196439 5.17810487 10.20990931 3.25 7.9375 C2.8375 7.298125 2.425 6.65875 2 6 C1.566875 6.804375 1.13375 7.60875 0.6875 8.4375 C-1 11 -1 11 -4 12 C-3.33501617 7.61110675 -1.81242323 4.0188515 0 0 Z " fill="#947462" transform="translate(142,81)"/>
<path d="M0 0 C1.91015625 0.1328125 1.91015625 0.1328125 3.91015625 1.1328125 C3.91015625 1.7928125 3.91015625 2.4528125 3.91015625 3.1328125 C4.57015625 3.1328125 5.23015625 3.1328125 5.91015625 3.1328125 C5.91015625 4.4528125 5.91015625 5.7728125 5.91015625 7.1328125 C5.39453125 6.8234375 4.87890625 6.5140625 4.34765625 6.1953125 C1.24350202 4.84221963 -1.74099382 4.51921826 -5.08984375 4.1328125 C-5.41984375 5.7828125 -5.74984375 7.4328125 -6.08984375 9.1328125 C-6.74984375 9.1328125 -7.40984375 9.1328125 -8.08984375 9.1328125 C-7.07794139 0.02569126 -7.07794139 0.02569126 0 0 Z " fill="#B18B75" transform="translate(110.08984375,80.8671875)"/>
<path d="M0 0 C6.08695652 0.54347826 6.08695652 0.54347826 9 2 C8.67 3.65 8.34 5.3 8 7 C7.236875 6.360625 6.47375 5.72125 5.6875 5.0625 C3.11753287 2.85767219 3.11753287 2.85767219 0 2 C0.33 3.32 0.66 4.64 1 6 C1.66 6 2.32 6 3 6 C4.6875 7.8125 4.6875 7.8125 6 10 C5.67 10.99 5.34 11.98 5 13 C4.67 12.34 4.34 11.68 4 11 C2.35636866 10.27840576 0.68949614 9.60648579 -1 9 C-1.625 5.625 -1.625 5.625 -2 2 C-1.34 1.34 -0.68 0.68 0 0 Z " fill="#3D3028" transform="translate(107,63)"/>
<path d="M0 0 C0.99 0.33 1.98 0.66 3 1 C2.52575143 5.26823714 0.04238597 7.17492731 -3 10 C-3.7115625 10.8971875 -3.7115625 10.8971875 -4.4375 11.8125 C-6.84793852 13.64443328 -9.07810726 13.19479285 -12 13 C-11.375 11.1875 -11.375 11.1875 -10 9 C-8.576875 8.319375 -8.576875 8.319375 -7.125 7.625 C-3.39292678 5.68432193 -2.07675163 3.59437782 0 0 Z " fill="#A27F6B" transform="translate(118,86)"/>
<path d="M0 0 C1.2684375 0.2475 1.2684375 0.2475 2.5625 0.5 C2.5625 1.49 2.5625 2.48 2.5625 3.5 C0.5825 4.16 -1.3975 4.82 -3.4375 5.5 C-3.4375 6.16 -3.4375 6.82 -3.4375 7.5 C-4.7575 7.83 -6.0775 8.16 -7.4375 8.5 C-7.7675 9.82 -8.0975 11.14 -8.4375 12.5 C-9.4275 12.5 -10.4175 12.5 -11.4375 12.5 C-10.40056808 6.52080812 -6.07076641 0.88302057 0 0 Z " fill="#A6836F" transform="translate(148.4375,57.5)"/>
<path d="M0 0 C1.32 0.33 2.64 0.66 4 1 C4 2.32 4 3.64 4 5 C3.01 5.33 2.02 5.66 1 6 C1.54723683 9.37462715 2.0549 11.08235 4 14 C4 14.99 4 15.98 4 17 C0.90753562 15.93363297 -0.00415447 14.99355341 -1.8125 12.1875 C-3.07069492 8.81023996 -3.0899321 7.36888105 -2 4 C-1.34 4 -0.68 4 0 4 C0 2.68 0 1.36 0 0 Z " fill="#A7836F" transform="translate(134,71)"/>
<path d="M0 0 C1.32 0.66 2.64 1.32 4 2 C4.04254356 3.99954746 4.04080783 6.00041636 4 8 C3 9 3 9 -0.5625 9.0625 C-1.696875 9.041875 -2.83125 9.02125 -4 9 C-4.33 8.01 -4.66 7.02 -5 6 C-5.66 5.67 -6.32 5.34 -7 5 C-6.34 3.68 -5.68 2.36 -5 1 C-3.5 2.375 -3.5 2.375 -2 4 C-2 4.66 -2 5.32 -2 6 C-0.68 6.33 0.64 6.66 2 7 C1.67 6.401875 1.34 5.80375 1 5.1875 C0 3 0 3 0 0 Z " fill="#241D19" transform="translate(149,85)"/>
<path d="M0 0 C0.99 0.33 1.98 0.66 3 1 C2.95875 2.11375 2.9175 3.2275 2.875 4.375 C2.58878141 8.04366025 2.58878141 8.04366025 5 10 C6.55080841 14.18718271 6.8486714 19.13882102 4.98828125 23.21875 C4.66214844 23.8065625 4.33601563 24.394375 4 25 C3.87882812 24.13117187 3.75765625 23.26234375 3.6328125 22.3671875 C3.38144531 20.63855469 3.38144531 20.63855469 3.125 18.875 C2.96257812 17.73804687 2.80015625 16.60109375 2.6328125 15.4296875 C2.02537448 12.13752342 1.0670317 9.16552736 0 6 C-0.125 2.625 -0.125 2.625 0 0 Z " fill="#47372E" transform="translate(119,30)"/>
<path d="M0 0 C1.98 0.66 3.96 1.32 6 2 C7.28571429 10.57142857 7.28571429 10.57142857 6 14 C6 13.01 6 12.02 6 11 C5.34 11 4.68 11 4 11 C3.67 11.66 3.34 12.32 3 13 C2.49487756 11.39743892 1.99608373 9.79288208 1.5 8.1875 C1.2215625 7.29417969 0.943125 6.40085937 0.65625 5.48046875 C0 3 0 3 0 0 Z " fill="#9E7D69" transform="translate(134,107)"/>
<path d="M0 0 C1.32 0 2.64 0 4 0 C4 1.65 4 3.3 4 5 C3.34 5 2.68 5 2 5 C2 4.34 2 3.68 2 3 C-1.16115776 4.36983503 -1.9927092 4.9890638 -4 8 C-6.625 8.1875 -6.625 8.1875 -9 8 C-9.33 6.35 -9.66 4.7 -10 3 C-8.68 3.99 -7.36 4.98 -6 6 C-5.34 4.68 -4.68 3.36 -4 2 C-2.68 2 -1.36 2 0 2 C0 1.34 0 0.68 0 0 Z " fill="#382C26" transform="translate(155,64)"/>
<path d="M0 0 C0.57492188 0.21914063 1.14984375 0.43828125 1.7421875 0.6640625 C0.9171875 1.0765625 0.0921875 1.4890625 -0.7578125 1.9140625 C-1.5828125 2.4915625 -2.4078125 3.0690625 -3.2578125 3.6640625 C-3.2578125 4.9840625 -3.2578125 6.3040625 -3.2578125 7.6640625 C-4.0621875 7.9528125 -4.8665625 8.2415625 -5.6953125 8.5390625 C-8.3904593 9.39668818 -8.3904593 9.39668818 -9.2578125 11.6640625 C-10.2478125 11.3340625 -11.2378125 11.0040625 -12.2578125 10.6640625 C-11.10040403 5.74507652 -8.14440043 3.64876725 -4.328125 0.703125 C-2.2578125 -0.3359375 -2.2578125 -0.3359375 0 0 Z " fill="#A8846F" transform="translate(158.2578125,58.3359375)"/>
<path d="M0 0 C0.763125 0.0825 1.52625 0.165 2.3125 0.25 C2.3125 1.24 2.3125 2.23 2.3125 3.25 C0.9925 3.25 -0.3275 3.25 -1.6875 3.25 C-2.3475 6.88 -3.0075 10.51 -3.6875 14.25 C-4.3475 14.25 -5.0075 14.25 -5.6875 14.25 C-5.76903933 12.66753293 -5.82693557 11.08383727 -5.875 9.5 C-5.90980469 8.61828125 -5.94460937 7.7365625 -5.98046875 6.828125 C-5.51804293 2.75877775 -4.19874253 0.3905807 0 0 Z " fill="#B28C76" transform="translate(135.6875,35.75)"/>
<path d="M0 0 C2 2 2 2 2.22705078 4.24658203 C2.21657715 5.15778809 2.20610352 6.06899414 2.1953125 7.0078125 C2.18886719 7.99394531 2.18242187 8.98007813 2.17578125 9.99609375 C2.15902344 11.02863281 2.14226562 12.06117187 2.125 13.125 C2.11597656 14.16527344 2.10695312 15.20554687 2.09765625 16.27734375 C2.07403747 18.85179092 2.04110149 21.42578212 2 24 C-0.93095142 21.06904858 -0.87066307 17.97417109 -1 14 C-0.78915322 9.32120946 -0.42576634 4.66377895 0 0 Z " fill="#532D2D" transform="translate(141,101)"/>
<path d="M0 0 C5.94 0.99 5.94 0.99 12 2 C12 2.33 12 2.66 12 3 C10.35 3 8.7 3 7 3 C7 3.99 7 4.98 7 6 C5.68 6 4.36 6 3 6 C2.67 5.34 2.34 4.68 2 4 C1.34 5.32 0.68 6.64 0 8 C-0.99 8 -1.98 8 -3 8 C-2.34099246 4.92463146 -1.46132217 2.92264434 0 0 Z " fill="#775D4F" transform="translate(140,74)"/>
<path d="M0 0 C0.66 0 1.32 0 2 0 C2.78287497 6.10642479 0.10825151 10.00459579 -3 15 C-3.66 15 -4.32 15 -5 15 C-4.43174347 9.45949887 -2.37113483 4.96284034 0 0 Z " fill="#AA8571" transform="translate(135,44)"/>
<path d="M0 0 C2.81256281 -0.02684312 5.62487241 -0.04676188 8.4375 -0.0625 C9.23994141 -0.07087891 10.04238281 -0.07925781 10.86914062 -0.08789062 C12.91295221 -0.0965143 14.95683902 -0.0522815 17 0 C18 1 18 1 18.0625 3.5625 C18.041875 4.366875 18.02125 5.17125 18 6 C16.68 5.67 15.36 5.34 14 5 C14.66 5 15.32 5 16 5 C16 4.01 16 3.02 16 2 C8.08 2.495 8.08 2.495 0 3 C0 2.01 0 1.02 0 0 Z " fill="#2D231D" transform="translate(120,29)"/>
<path d="M0 0 C0.99 0 1.98 0 3 0 C3 0.66 3 1.32 3 2 C3.66 2 4.32 2 5 2 C5.33 2.66 5.66 3.32 6 4 C7.32 2.68 8.64 1.36 10 0 C9.67 1.98 9.34 3.96 9 6 C8.34 6 7.68 6 7 6 C7 7.32 7 8.64 7 10 C6.01 10.33 5.02 10.66 4 11 C3.71125 9.9275 3.4225 8.855 3.125 7.75 C2.27179891 4.90599636 1.4363497 2.56491017 0 0 Z " fill="#201A17" transform="translate(123,71)"/>
<path d="M0 0 C0.66 0.33 1.32 0.66 2 1 C1.54300722 6.02692063 -0.99241748 9.14896261 -4 13 C-6 10 -6 10 -6 6 C-5.01 5.67 -4.02 5.34 -3 5 C-1.30117552 2.50240018 -1.30117552 2.50240018 0 0 Z " fill="#9D7B68" transform="translate(133,63)"/>
<path d="M0 0 C4.62 0 9.24 0 14 0 C14 0.99 14 1.98 14 3 C13.34 3 12.68 3 12 3 C12 2.34 12 1.68 12 1 C9.03 1 6.06 1 3 1 C3.66 1.99 4.32 2.98 5 4 C5.125 6.6875 5.125 6.6875 5 9 C3.68 7.68 2.36 6.36 1 5 C0.67 5.99 0.34 6.98 0 8 C-1.08174162 4.63458162 -0.92538169 3.70152678 0 0 Z " fill="#8D6F5D" transform="translate(122,31)"/>
<path d="M0 0 C0.66 0 1.32 0 2 0 C1.52412884 6.02770138 -1.19722957 10.76678289 -4 16 C-4.33 16 -4.66 16 -5 16 C-5.50212051 9.97455391 -4.12689062 6.14869539 -1 1 C-0.67 0.67 -0.34 0.34 0 0 Z " fill="#A4816D" transform="translate(126,98)"/>
<path d="M0 0 C0.33 0 0.66 0 1 0 C1.1953125 1.98567708 1.390625 3.97135417 1.5859375 5.95703125 C1.92665391 8.29988142 1.92665391 8.29988142 4 11 C3.69140625 12.890625 3.69140625 12.890625 3 15 C2.64110788 16.58226891 2.28699368 18.16562863 1.9375 19.75 C1.76089844 20.54921875 1.58429688 21.3484375 1.40234375 22.171875 C1.26957031 22.77515625 1.13679688 23.3784375 1 24 C0.67 24 0.34 24 0 24 C0 16.08 0 8.16 0 0 Z " fill="#A8846F" transform="translate(100,66)"/>
<path d="M0 0 C3.25836697 3.02562647 5.81492325 6.11541911 8 10 C7.875 12.3125 7.875 12.3125 7 14 C6.01 14.495 6.01 14.495 5 15 C4.7525 13.9275 4.505 12.855 4.25 11.75 C3.30280087 7.97670763 3.30280087 7.97670763 0.8125 5.8125 C0.214375 5.214375 -0.38375 4.61625 -1 4 C-0.75 1.75 -0.75 1.75 0 0 Z " fill="#8C6E5C" transform="translate(119,67)"/>
<path d="M0 0 C2 2 2 2 2 6 C2.66 6 3.32 6 4 6 C4.52934538 11.6904628 3.94961961 12.06297549 0 17 C0 11.39 0 5.78 0 0 Z " fill="#40322A" transform="translate(155,81)"/>
<path d="M0 0 C0.66 0 1.32 0 2 0 C2.33 1.98 2.66 3.96 3 6 C3.66 6 4.32 6 5 6 C5 6.66 5 7.32 5 8 C2.03 8 -0.94 8 -4 8 C-2.68 5.36 -1.36 2.72 0 0 Z " fill="#AE8973" transform="translate(128,116)"/>
<path d="M0 0 C0.33 0 0.66 0 1 0 C1 4.62 1 9.24 1 14 C-1.5 11.6875 -1.5 11.6875 -4 9 C-4 8.01 -4 7.02 -4 6 C-3.34 5.67 -2.68 5.34 -2 5 C-1.27840576 3.35636866 -0.60648579 1.68949614 0 0 Z " fill="#B18C76" transform="translate(157,71)"/>
<path d="M0 0 C0.33 0 0.66 0 1 0 C1 4.62 1 9.24 1 14 C1.66 14 2.32 14 3 14 C2.34 15.65 1.68 17.3 1 19 C0.34 18.67 -0.32 18.34 -1 18 C-2.12998945 13.59626969 -1.90017385 10.05974391 -1.0625 5.625 C-0.86785156 4.56539062 -0.67320312 3.50578125 -0.47265625 2.4140625 C-0.23869141 1.21910156 -0.23869141 1.21910156 0 0 Z " fill="#532F2E" transform="translate(142,43)"/>
<path d="M0 0 C0.66 0 1.32 0 2 0 C3.29243536 4.1196377 4.26252625 7.66831683 4 12 C2.35 12 0.7 12 -1 12 C-1 11.01 -1 10.02 -1 9 C-0.01 9 0.98 9 2 9 C1.67 8.443125 1.34 7.88625 1 7.3125 C-0.1309601 4.69715478 -0.15662974 2.8193354 0 0 Z " fill="#2F2520" transform="translate(134,113)"/>
<path d="M0 0 C0.66 0 1.32 0 2 0 C2.125 2.875 2.125 2.875 2 6 C-0.1385485 8.1385485 -1.13275314 8.42655063 -4 9 C-4.33 7.68 -4.66 6.36 -5 5 C-4.01 4.67 -3.02 4.34 -2 4 C-0.79117904 1.99983534 -0.79117904 1.99983534 0 0 Z " fill="#987865" transform="translate(133,98)"/>
<path d="M0 0 C0.66 0 1.32 0 2 0 C2.33 1.65 2.66 3.3 3 5 C2.360625 5.268125 1.72125 5.53625 1.0625 5.8125 C-1.33131686 6.88667752 -1.33131686 6.88667752 -2 10 C-2.99 10 -3.98 10 -5 10 C-4.67 8.35 -4.34 6.7 -4 5 C-3.34 5 -2.68 5 -2 5 C-1.34 3.35 -0.68 1.7 0 0 Z " fill="#A98571" transform="translate(128,82)"/>
<path d="M0 0 C0.66 0 1.32 0 2 0 C2.5345256 1.24420647 3.05208611 2.49570936 3.5625 3.75 C3.85253906 4.44609375 4.14257812 5.1421875 4.44140625 5.859375 C5.07831803 8.30012784 4.80248831 9.6403655 4 12 C3.67 12 3.34 12 3 12 C3 10.02 3 8.04 3 6 C2.34 6 1.68 6 1 6 C0.67 6.66 0.34 7.32 0 8 C-1.125 2.25 -1.125 2.25 0 0 Z " fill="#342923" transform="translate(132,92)"/>
<path d="M0 0 C0.99 0.33 1.98 0.66 3 1 C2.67 1.33 2.34 1.66 2 2 C4.97 2.495 4.97 2.495 8 3 C8 3.33 8 3.66 8 4 C5.69 4 3.38 4 1 4 C0.67 5.65 0.34 7.3 0 9 C-0.66 9 -1.32 9 -2 9 C-1.125 1.125 -1.125 1.125 0 0 Z " fill="#A98570" transform="translate(104,81)"/>
<path d="M0 0 C1.5 1.375 1.5 1.375 3 3 C3 3.66 3 4.32 3 5 C2.34 5 1.68 5 1 5 C1 6.65 1 8.3 1 10 C-1 8.8125 -1 8.8125 -3 7 C-3.25 4.3125 -3.25 4.3125 -3 2 C-2.34 2 -1.68 2 -1 2 C-0.67 1.34 -0.34 0.68 0 0 Z " fill="#967663" transform="translate(137,55)"/>
<path d="M0 0 C0.99 1.485 0.99 1.485 2 3 C2.66 2.34 3.32 1.68 4 1 C5.29243536 5.1196377 6.26252625 8.66831683 6 13 C3.84622436 10.37801226 2.59927826 8.35595828 2 5 C1.34 5 0.68 5 0 5 C0 3.35 0 1.7 0 0 Z " fill="#9C7B67" transform="translate(117,38)"/>
<path d="M0 0 C0.66 0 1.32 0 2 0 C2.625 2.375 2.625 2.375 3 5 C0.4345406 7.5654594 -1.47686668 7.54046087 -5 8 C-5 7.34 -5 6.68 -5 6 C-4.360625 5.525625 -3.72125 5.05125 -3.0625 4.5625 C-0.71627037 3.0908635 -0.71627037 3.0908635 0 0 Z " fill="#29211C" transform="translate(112,87)"/>
<path d="M0 0 C0.66 0 1.32 0 2 0 C1.125 5.75 1.125 5.75 0 8 C-1.98 8 -3.96 8 -6 8 C-5.01 7.34 -4.02 6.68 -3 6 C-2.27840576 4.35636866 -1.60648579 2.68949614 -1 1 C-0.67 0.67 -0.34 0.34 0 0 Z " fill="#B18B75" transform="translate(154,67)"/>
<path d="M0 0 C0 1.32 0 2.64 0 4 C-1.32 3.67 -2.64 3.34 -4 3 C-4.33 4.32 -4.66 5.64 -5 7 C-5.66 7 -6.32 7 -7 7 C-6.67 4.69 -6.34 2.38 -6 0 C-2.25 -1.125 -2.25 -1.125 0 0 Z " fill="#A07E6A" transform="translate(130,51)"/>
<path d="M0 0 C0.33 0.99 0.66 1.98 1 3 C-0.3125 5.1875 -0.3125 5.1875 -2 7 C-2.66 7 -3.32 7 -4 7 C-4 7.66 -4 8.32 -4 9 C-4.99 9 -5.98 9 -7 9 C-7.33 7.68 -7.66 6.36 -8 5 C-6.02 5 -4.04 5 -2 5 C-1.34 3.35 -0.68 1.7 0 0 Z " fill="#3A2E27" transform="translate(127,116)"/>
<path d="M0 0 C1.98 0 3.96 0 6 0 C5.34 1.32 4.68 2.64 4 4 C2.02 4 0.04 4 -2 4 C-1.34 2.68 -0.68 1.36 0 0 Z " fill="#AF8A75" transform="translate(108,95)"/>
<path d="M0 0 C1.32 0.33 2.64 0.66 4 1 C4.33 3.31 4.66 5.62 5 8 C2 7 2 7 0.8125 5.125 C0 3 0 3 0 0 Z " fill="#A98570" transform="translate(119,92)"/>
<path d="M0 0 C0.33 0.66 0.66 1.32 1 2 C3.52733235 2.65555119 3.52733235 2.65555119 6 3 C6.33 3.99 6.66 4.98 7 6 C2.91621717 5.25749403 -1.01939223 4.17076699 -5 3 C-4.360625 2.690625 -3.72125 2.38125 -3.0625 2.0625 C-1.06389179 1.1654837 -1.06389179 1.1654837 0 0 Z " fill="#69413D" transform="translate(156,96)"/>
<path d="M0 0 C0.66 0.66 1.32 1.32 2 2 C2.66 1.67 3.32 1.34 4 1 C4.625 2.8125 4.625 2.8125 5 5 C4.01 6.485 4.01 6.485 3 8 C2.34 8 1.68 8 1 8 C-1.125 3.375 -1.125 3.375 0 0 Z " fill="#3B2E28" transform="translate(123,79)"/>
<path d="M0 0 C2.31 0.66 4.62 1.32 7 2 C6.67 3.65 6.34 5.3 6 7 C1.125 3.375 1.125 3.375 0 0 Z " fill="#1D1815" transform="translate(109,63)"/>
<path d="M0 0 C0.66 0 1.32 0 2 0 C3.00496852 3.01490557 3.10335303 5.04181692 3.0625 8.1875 C3.05347656 9.08855469 3.04445312 9.98960938 3.03515625 10.91796875 C3.02355469 11.60503906 3.01195312 12.29210937 3 13 C2.67 13 2.34 13 2 13 C-0.28571429 4.57142857 -0.28571429 4.57142857 0 0 Z " fill="#B28C76" transform="translate(138,101)"/>
<path d="M0 0 C0.33 1.32 0.66 2.64 1 4 C1.66 4 2.32 4 3 4 C2.67 5.65 2.34 7.3 2 9 C1.67 7.68 1.34 6.36 1 5 C-0.32 5.33 -1.64 5.66 -3 6 C-2.42655063 3.13275314 -2.1385485 2.1385485 0 0 Z " fill="#9B7A67" transform="translate(133,87)"/>
<path d="M0 0 C0.33 0 0.66 0 1 0 C2.28571429 8.57142857 2.28571429 8.57142857 1 12 C1 11.01 1 10.02 1 9 C0.34 9 -0.32 9 -1 9 C-1.33 9.66 -1.66 10.32 -2 11 C-2 9.35 -2 7.7 -2 6 C-1.34 6 -0.68 6 0 6 C0 4.02 0 2.04 0 0 Z " fill="#8B6D5C" transform="translate(139,109)"/>
<path d="M0 0 C0.66 0 1.32 0 2 0 C3.5625 2.8125 3.5625 2.8125 5 6 C4.67 6.99 4.34 7.98 4 9 C3.34 9 2.68 9 2 9 C1.34 6.03 0.68 3.06 0 0 Z " fill="#9A7966" transform="translate(127,92)"/>
<path d="M0 0 C1.98 0.99 1.98 0.99 4 2 C4 3.98 4 5.96 4 8 C3.01 8 2.02 8 1 8 C0.67 5.36 0.34 2.72 0 0 Z " fill="#372B24" transform="translate(149,85)"/>
<path d="M0 0 C0.66 0 1.32 0 2 0 C1.47731534 2.76276177 0.89130413 5.3260876 0 8 C-0.99 8 -1.98 8 -3 8 C-2.37240135 5.07120629 -1.41377341 2.63904371 0 0 Z " fill="#A17E6B" transform="translate(140,74)"/>
<path d="M0 0 C0.33 1.32 0.66 2.64 1 4 C-0.98 4.66 -2.96 5.32 -5 6 C-5.33 4.35 -5.66 2.7 -6 1 C-3.92446352 0.4465236 -2.15634036 0 0 0 Z " fill="#47352E" transform="translate(121,60)"/>
<path d="M0 0 C0.99 0 1.98 0 3 0 C2.67 0.99 2.34 1.98 2 3 C1.01 3 0.02 3 -1 3 C-1.33 4.32 -1.66 5.64 -2 7 C-2 6.34 -2 5.68 -2 5 C-3.32 4.67 -4.64 4.34 -6 4 C-5.34 3.34 -4.68 2.68 -4 2 C-4 2.66 -4 3.32 -4 4 C-3.34 4 -2.68 4 -2 4 C-1.34 2.68 -0.68 1.36 0 0 Z " fill="#3B2E27" transform="translate(128,66)"/>
<path d="M0 0 C0.66 0 1.32 0 2 0 C2 1.65 2 3.3 2 5 C0.02 5.99 0.02 5.99 -2 7 C-1.125 2.25 -1.125 2.25 0 0 Z " fill="#A6826E" transform="translate(140,86)"/>
<path d="M0 0 C2.0625 0.4375 2.0625 0.4375 4 1 C3.34 1 2.68 1 2 1 C2.33 1.598125 2.66 2.19625 3 2.8125 C4 5 4 5 4 8 C2.68 7.34 1.36 6.68 0 6 C0.33 4.68 0.66 3.36 1 2 C0.34 1.67 -0.32 1.34 -1 1 C-0.67 0.67 -0.34 0.34 0 0 Z " fill="#886B5A" transform="translate(147,84)"/>
<path d="M0 0 C0.66 0.66 1.32 1.32 2 2 C0.6875 4 0.6875 4 -1 6 C-1.99 6 -2.98 6 -4 6 C-3.67 4.68 -3.34 3.36 -3 2 C-2.01 2 -1.02 2 0 2 C0 1.34 0 0.68 0 0 Z " fill="#372B24" transform="translate(138,74)"/>
<path d="M0 0 C1.32 0.33 2.64 0.66 4 1 C4 2.32 4 3.64 4 5 C2.68 5.33 1.36 5.66 0 6 C0 4.02 0 2.04 0 0 Z " fill="#987765" transform="translate(134,71)"/>
<path d="M0 0 C1.65 0 3.3 0 5 0 C5.33 0.99 5.66 1.98 6 3 C4.02 3.99 4.02 3.99 2 5 C1.34 3.35 0.68 1.7 0 0 Z " fill="#2A221D" transform="translate(115,71)"/>
<path d="M0 0 C0.66 0 1.32 0 2 0 C1.125 4.75 1.125 4.75 0 7 C-0.66 7 -1.32 7 -2 7 C-2.125 4.625 -2.125 4.625 -2 2 C-1.34 1.34 -0.68 0.68 0 0 Z " fill="#AA8671" transform="translate(118,64)"/>
<path d="M0 0 C0.33 0 0.66 0 1 0 C0.4140625 6.15234375 0.4140625 6.15234375 0 8 C-0.99 8.495 -0.99 8.495 -2 9 C-2.125 5.625 -2.125 5.625 -2 2 C-1.34 1.34 -0.68 0.68 0 0 Z " fill="#B08A75" transform="translate(140,50)"/>
<path d="M0 0 C1.32 0 2.64 0 4 0 C3.625 2.4375 3.625 2.4375 3 5 C2.01 5.495 2.01 5.495 1 6 C0.67 4.02 0.34 2.04 0 0 Z " fill="#A98570" transform="translate(127,70)"/>
<path d="M0 0 C0.99 0 1.98 0 3 0 C3 2.64 3 5.28 3 8 C2.34 8 1.68 8 1 8 C0.67 5.36 0.34 2.72 0 0 Z " fill="#2F241E" transform="translate(127,41)"/>
<path d="M0 0 C1.485 0.99 1.485 0.99 3 2 C2.67 3.98 2.34 5.96 2 8 C1.67 7.34 1.34 6.68 1 6 C0.34 5.67 -0.32 5.34 -1 5 C-0.67 3.35 -0.34 1.7 0 0 Z " fill="#221B17" transform="translate(121,74)"/>
<path d="M0 0 C1.32 0.33 2.64 0.66 4 1 C4 2.32 4 3.64 4 5 C4.66 5.33 5.32 5.66 6 6 C4.68 5.67 3.36 5.34 2 5 C2 4.34 2 3.68 2 3 C1.34 3 0.68 3 0 3 C0 2.01 0 1.02 0 0 Z " fill="#3B2E27" transform="translate(126,54)"/>
</svg>
