<?xml version="1.0" encoding="UTF-8"?>
<svg version="1.1" xmlns="http://www.w3.org/2000/svg" width="256" height="154">
<path d="M0 0 C84.48 0 168.96 0 256 0 C256 50.82 256 101.64 256 154 C171.52 154 87.04 154 0 154 C0 103.18 0 52.36 0 0 Z " fill="#FDCF03" transform="translate(0,0)"/>
<path d="M0 0 C0 38.94 0 77.88 0 118 C-4.20301013 116.31879595 -7.89614529 114.41470826 -11.75 112.10546875 C-12.39578003 111.72211868 -13.04156006 111.33876862 -13.70690918 110.94380188 C-15.80688903 109.69549064 -17.90353947 108.44171126 -20 107.1875 C-21.46413137 106.31500123 -22.92832456 105.44260618 -24.39257812 104.5703125 C-32.94149262 99.46935582 -41.43804022 94.29253732 -49.87768555 89.01245117 C-59.48538176 83.02669266 -69.2420326 77.28941551 -78.98828125 71.53320312 C-82.66315577 69.36265636 -86.33219001 67.18246286 -90 65 C-90.89895996 64.47148438 -91.79791992 63.94296875 -92.72412109 63.3984375 C-94.51759486 62.32164482 -96.26698379 61.17161659 -98 60 C-98 59.34 -98 58.68 -98 58 C-96.02066676 56.6492388 -94.05779334 55.43811237 -91.984375 54.24609375 C-91.35034256 53.8734993 -90.71631012 53.50090485 -90.06306458 53.11701965 C-88.6858498 52.30866555 -87.30667384 51.50364582 -85.92581177 50.70153809 C-82.98825522 48.99496428 -80.06011413 47.27254891 -77.13160706 45.55050659 C-75.62638753 44.66540833 -74.12071596 43.78107839 -72.61460876 42.89749146 C-65.55424556 38.75162351 -58.55167695 34.51444965 -51.5625 30.25 C-41.54695593 24.14554661 -31.50618611 18.08671816 -21.42993164 12.08300781 C-15.60498324 8.60220368 -9.8712587 5.01557786 -4.19946289 1.28955078 C-2 0 -2 0 0 0 Z " fill="#02267E" transform="translate(256,18)"/>
<path d="M0 0 C64.02 0 128.04 0 194 0 C190.21234517 3.03012387 186.57895251 5.56834698 182.42578125 7.984375 C181.79367233 8.3566925 181.16156342 8.72901001 180.51029968 9.11260986 C179.15321247 9.9117606 177.7951762 10.70930149 176.4362793 11.50537109 C172.80235232 13.63501355 169.1763257 15.77800157 165.55078125 17.921875 C164.45384445 18.57029358 164.45384445 18.57029358 163.33474731 19.23181152 C156.84157871 23.07793484 150.41341628 27.0221676 144 31 C134.63326152 36.78951028 125.23992255 42.5331656 115.79589844 48.19580078 C114.35815074 49.05954889 112.92224648 49.92637353 111.48828125 50.79638672 C109.48935806 52.00821046 107.48398269 53.20856939 105.4765625 54.40625 C104.87985748 54.7710144 104.28315247 55.13577881 103.66836548 55.51159668 C100.3900044 57.44863507 98.9358449 58 95 58 C92.51171875 56.80102539 92.51171875 56.80102539 89.6875 55.09765625 C88.62700439 54.4636792 87.56650879 53.82970215 86.47387695 53.17651367 C85.31581025 52.47201948 84.15785452 51.76734286 83 51.0625 C81.78714114 50.3330104 80.57383512 49.60426381 79.36010742 48.8762207 C75.56603331 46.59623777 71.78244215 44.29921163 68 42 C66.8355053 41.29320186 65.67095606 40.58649358 64.50634766 39.87988281 C59.9629205 37.12205064 55.42028625 34.36293922 50.88183594 31.59692383 C40.19224653 25.08737124 29.43186048 18.69880523 18.6574707 12.33081055 C4.70664602 4.08201694 4.70664602 4.08201694 0 1 C0 0.67 0 0.34 0 0 Z " fill="#02267E" transform="translate(30,0)"/>
<path d="M0 0 C2.77072697 1.43463183 5.43284466 2.95697006 8.09008789 4.59326172 C9.17225586 5.25583984 10.25442383 5.91841797 11.36938477 6.60107422 C11.94503174 6.95572754 12.52067871 7.31038086 13.11376953 7.67578125 C16.24631986 9.6050075 19.38703887 11.52084313 22.52758789 13.43701172 C23.1863089 13.83918915 23.84502991 14.24136658 24.52371216 14.6557312 C31.18108091 18.71345721 37.88477539 22.6915704 44.59539795 26.66040039 C55.2376222 32.95515318 65.86570761 39.27295523 76.44628906 45.67089844 C77.66005688 46.40440073 78.87455777 47.13669156 80.08984375 47.86767578 C81.7665784 48.87676732 83.44012218 49.89115513 85.11352539 50.90576172 C86.05671631 51.47609131 86.99990723 52.0464209 87.97167969 52.6340332 C90.6340462 54.36816722 93.12072994 56.36230661 95.60180664 58.34716797 C31.58180664 58.34716797 -32.43819336 58.34716797 -98.39819336 58.34716797 C-94.67061663 55.36510658 -91.38497847 53.04823608 -87.30444336 50.69482422 C-86.72538742 50.35878677 -86.14633148 50.02274933 -85.54972839 49.67652893 C-84.31121212 48.95789845 -83.0717391 48.24091472 -81.83139038 47.52545166 C-78.5313136 45.62074572 -75.23969925 43.70156876 -71.94897461 41.78076172 C-71.29282669 41.39782959 -70.63667877 41.01489746 -69.96064758 40.62036133 C-64.61380583 37.49133032 -59.33449764 34.26310192 -54.08569336 30.97216797 C-43.67094003 24.44452233 -33.09264885 18.19943213 -22.49853516 11.96875 C-21.17859548 11.18999916 -19.85868903 10.41119201 -18.53881836 9.63232422 C-17.90724319 9.26220215 -17.27566803 8.89208008 -16.62495422 8.51074219 C-12.32391047 5.96824625 -8.25992881 3.21553494 -4.3190918 0.14575195 C-2.39819336 -0.65283203 -2.39819336 -0.65283203 0 0 Z " fill="#02267E" transform="translate(128.398193359375,95.65283203125)"/>
<path d="M0 0 C11.24716553 5.62358277 11.24716553 5.62358277 16.1171875 8.609375 C17.20370605 9.27251709 18.29022461 9.93565918 19.40966797 10.61889648 C20.56478812 11.32924892 21.71989852 12.0396172 22.875 12.75 C24.10666786 13.50312031 25.33860751 14.25579627 26.57080078 15.00805664 C29.12120056 16.56562002 31.67044049 18.12505436 34.21875 19.68603516 C39.52543589 22.93536236 44.842715 26.16720285 50.16156006 29.39657593 C51.87287054 30.43620634 53.58322085 31.47740229 55.29345703 32.51879883 C61.64938124 36.3850393 68.02778366 40.21034947 74.4296875 44 C76.5220063 45.2420642 78.61407352 46.48455129 80.70611572 47.7270813 C82.72003769 48.91975587 84.73858408 50.10432325 86.75732422 51.28881836 C87.97907135 52.01377234 89.20060022 52.73909432 90.421875 53.46484375 C91.50049805 54.100271 92.57912109 54.73569824 93.69042969 55.39038086 C94.83366699 56.18714233 94.83366699 56.18714233 96 57 C96 57.66 96 58.32 96 59 C94.60839844 60.05883789 94.60839844 60.05883789 92.609375 61.22265625 C91.85237305 61.66939697 91.09537109 62.1161377 90.31542969 62.57641602 C89.46883789 63.06682373 88.62224609 63.55723145 87.75 64.0625 C85.89521391 65.15519926 84.04108298 66.24901112 82.1875 67.34375 C81.18460937 67.93414062 80.18171875 68.52453125 79.1484375 69.1328125 C74.23476343 72.04687727 69.36198795 75.02739353 64.48580933 78.00363159 C52.13797683 85.53598526 39.72123892 92.94921966 27.27441406 100.31665039 C26.64397186 100.6898793 26.01352966 101.06310822 25.36398315 101.44764709 C24.11980511 102.18407656 22.87544408 102.92019699 21.63088989 103.6559906 C18.32921297 105.61038642 15.03619123 107.57811059 11.75244141 109.5625 C11.05959549 109.98072021 10.36674957 110.39894043 9.65290833 110.82983398 C8.31684164 111.63729728 6.98190644 112.44663647 5.64823914 113.25805664 C1.11037049 116 1.11037049 116 0 116 C0 77.72 0 39.44 0 0 Z " fill="#02267E" transform="translate(0,19)"/>
</svg>
