<svg xmlns="http://www.w3.org/2000/svg" width="256" height="154"><path fill="#FDCF03" d="M0 0h256v154H0V0Z"/><path fill="#02267E" d="M256 18v118c-4.203-1.681-7.896-3.585-11.75-5.895l-1.957-1.161c-2.1-1.249-4.197-2.502-6.293-3.756l-4.393-2.618a1416.35 1416.35 0 0 1-25.485-15.558c-9.607-5.985-19.364-11.723-29.11-17.479A3944.82 3944.82 0 0 1 166 83l-2.724-1.602c-1.794-1.076-3.543-2.226-5.276-3.398v-2a90.883 90.883 0 0 1 6.016-3.754l1.92-1.129c1.378-.808 2.757-1.613 4.138-2.415 2.938-1.707 5.866-3.43 8.794-5.151l4.517-2.654c7.06-4.145 14.063-8.383 21.053-12.647a3508.47 3508.47 0 0 1 30.132-18.167A476.66 476.66 0 0 0 251.8 19.29C254 18 254 18 256 18ZM30 0h194c-3.788 3.03-7.421 5.568-11.574 7.984l-1.916 1.129c-1.357.799-2.715 1.596-4.074 2.392-3.634 2.13-7.26 4.273-10.885 6.417l-2.216 1.31C186.842 23.078 180.413 27.022 174 31a2448.331 2448.331 0 0 1-28.204 17.196c-1.438.864-2.874 1.73-4.308 2.6a993.416 993.416 0 0 1-6.011 3.61l-1.809 1.106C130.39 57.449 128.936 58 125 58c-2.488-1.199-2.488-1.199-5.313-2.902l-3.213-1.921L113 51.063A2615.48 2615.48 0 0 1 98 42l-3.494-2.12a8848.064 8848.064 0 0 1-13.624-8.283c-10.69-6.51-21.45-12.898-32.225-19.266C34.707 4.082 34.707 4.082 30 1V0ZM128.398 95.653a124.718 124.718 0 0 1 8.09 4.593l3.28 2.008 1.744 1.075c3.133 1.929 6.273 3.845 9.414 5.76l1.996 1.22c6.657 4.057 13.361 8.035 20.072 12.004 10.642 6.295 21.27 12.613 31.85 19.01 1.214.734 2.429 1.467 3.644 2.198 1.677 1.009 3.35 2.023 5.024 3.038l2.858 1.728c2.662 1.734 5.149 3.728 7.63 5.713H30c3.728-2.982 7.013-5.299 11.094-7.652l1.754-1.019c1.239-.718 2.478-1.435 3.719-2.15 3.3-1.905 6.591-3.825 9.882-5.745l1.989-1.16a607.807 607.807 0 0 0 15.874-9.649c10.415-6.528 20.994-12.773 31.588-19.003l3.96-2.337 1.913-1.121a115.693 115.693 0 0 0 12.306-8.365C126 95 126 95 128.4 95.653ZM0 19c11.247 5.624 11.247 5.624 16.117 8.61l3.293 2.009 3.465 2.131 3.696 2.258c2.55 1.558 5.1 3.117 7.648 4.678 5.306 3.25 10.624 6.481 15.943 9.71 1.71 1.04 3.421 2.081 5.131 3.123A1858.31 1858.31 0 0 0 74.43 63l6.276 3.727c2.014 1.193 4.033 2.377 6.051 3.562l3.665 2.176 3.268 1.925L96 76v2c-1.392 1.059-1.392 1.059-3.39 2.223l-2.295 1.353-2.565 1.487a5871.008 5871.008 0 0 0-5.563 3.28l-3.039 1.79c-4.913 2.914-9.786 5.894-14.662 8.87-12.348 7.533-24.765 14.946-37.212 22.314l-1.91 1.13-3.733 2.209a1263.698 1263.698 0 0 0-9.879 5.906l-2.1 1.268c-1.335.807-2.67 1.617-4.004 2.428C1.11 135 1.11 135 0 135V19Z"/></svg>