<svg xmlns="http://www.w3.org/2000/svg" width="256" height="154"><path fill="#010198" d="M0 0h256v154H0V0Z"/><path fill="#F6BF09" d="m156 35 2 1c.852 2.95.852 2.95 1.625 6.688.26 1.22.52 2.441.79 3.699.532 3.288.697 6.29.585 9.613h2l-.188-2.688C162.776 47.407 164.565 41.687 166 36h2c.508 2.207 1.006 4.415 1.5 6.625l.844 3.727c.597 3.32.78 6.287.656 9.648h2l-.086-2.574c.09-3.592.654-6.741 1.461-10.239l.773-3.457L176 37l2-1 .84 3.43 1.097 4.445.553 2.262c.962 4.033.962 4.033 2.51 7.863l.805-3.246 1.07-4.191.527-2.143c.472-1.824 1.03-3.624 1.598-5.42l2-1c-.09 1.203-.09 1.203-.184 2.43-.726 9.855-1.268 19.698-1.816 29.57h-39c-.938-10.25-.938-10.25-1.226-13.462l-.239-2.554-.238-2.602c-.274-2.2-.745-4.239-1.297-6.382a84.748 84.748 0 0 1-.063-4.75l.028-2.422L145 36l2 1a149.997 149.997 0 0 1 2.063 8.5c.702 5.161.702 5.161 2.937 9.5l4-20ZM78 36l2 1c.852 2.73.852 2.73 1.625 6.188.26 1.127.52 2.255.79 3.417.554 3.214.694 6.143.585 9.395h2l.148-2.344C85.588 47.54 86.3 41.893 88 36h2c3.444 13.633 3.444 13.633 3 20h2l.148-2.379c.414-5.811.97-11.1 2.852-16.621h2l4 18c2.4-6.226 2.4-6.226 4.188-12.5L109 39h1l-1 31H69l-1-18c-.323-4.668-.647-9.334-1-14l2 1a132.177 132.177 0 0 1 2.125 8.063L73 55l5-19Z"/><path fill="#F4BC0B" d="m117 90 2 1a94.836 94.836 0 0 1 1.625 7.25l.406 2.027c.697 3.62 1.126 7.038.969 10.723h2c-.03-1.002-.062-2.003-.094-3.035.095-4.009.702-7.5 1.594-11.403l.844-3.746L127 90h2c.504 2.583 1.004 5.166 1.5 7.75l.434 2.21c.655 3.433 1.066 6.532 1.066 10.04h2l.148-1.871C135.206 96.147 135.206 96.147 137 91l2-1 4 19c2.4-5.438 2.4-5.438 4.188-10.938L148 95h1c-.141 3.146-.289 6.292-.438 9.438l-.119 2.662-.127 2.646-.11 2.396c-.285 3.963-.767 7.91-1.206 11.858h-38c-.938-11.438-.938-11.438-1.226-14.986A536.687 536.687 0 0 0 106 91l2 1c.776 2.67 1.451 5.293 2.063 8 .744 4.89.744 4.89 2.937 9l4-19Z"/><path fill="#FEC100" d="M138 101c2.622 3.932 3 7.323 3 12l5 1v9h-36v-9h26l1-12 1-1Z"/><path fill="#FECB00" d="M99 46c2.4 3.6 4.322 6.961 3.625 11.375L102 59h5l-1-4h2c.027 1.812.046 3.625.063 5.438l.035 3.058C108 66 108 66 107 67c-2.666.089-5.306.115-7.973.098l-2.417-.005c-2.557-.005-5.115-.018-7.672-.03A5729.693 5729.693 0 0 1 71 67v-6h19v-2h4l1-2 1-1c.367-1.492.695-2.994 1-4.5.889-4.389.889-4.389 2-5.5Z"/><path fill="#F4BF05" d="m158.633 61.121 2.278.072c2.405.076 4.81.16 7.214.245l4.887.158c3.996.129 7.992.265 11.988.404v7c-4.805.025-9.611.043-14.417.055-1.635.005-3.27.012-4.906.02-2.348.013-4.696.018-7.044.023l-2.223.015c-5.182 0-5.182 0-7.41-1.113v-6c3.079-1.54 6.267-1.003 9.633-.879Z"/><path fill="#DBA426" d="m117 90 2 1a90.378 90.378 0 0 1 1.688 7.25l.431 2.027c.764 3.87.98 6.919-.119 10.723-2-3-2-3-3-9l-3 12h-5v9h36v-9l-3-1 5-18h1c-.141 3.146-.289 6.292-.438 9.438l-.119 2.662-.127 2.646-.11 2.396c-.285 3.963-.767 7.91-1.206 11.858h-38c-.938-11.438-.938-11.438-1.226-14.986A536.687 536.687 0 0 0 106 91l2 1c.776 2.67 1.451 5.293 2.063 8 .744 4.89.744 4.89 2.937 9l4-19Z"/><path fill="#A07754" d="m145 36 2 1c.925 3.625 1.692 7.248 2.412 10.918.437 2.05 1.004 4.07 1.588 6.082l3 1v3l3 1v2l-8 1v6l36 1 1-10h-4l-1-7 2 2 .805-3.246 1.07-4.191.527-2.143c.472-1.824 1.03-3.624 1.598-5.42l2-1c-.09 1.203-.09 1.203-.184 2.43-.726 9.855-1.268 19.698-1.816 29.57h-39c-.938-10.25-.938-10.25-1.226-13.462l-.239-2.554-.238-2.602c-.274-2.2-.745-4.239-1.297-6.382a84.748 84.748 0 0 1-.063-4.75l.028-2.422L145 36Z"/><path fill="#E1A71D" d="M166 36h2c.508 2.207 1.006 4.415 1.5 6.625l.844 3.727c.597 3.32.78 6.287.656 9.648h2l-.086-2.574c.09-3.592.654-6.741 1.461-10.239l.773-3.457L176 37l2-1c1.913 7.678 3.41 15.105 4 23h-13l-1-12h-2l-1 2c-1.128-3.383-.818-4.768-.063-8.188l.59-2.73L166 36Z"/><path fill="#AF8348" d="M67 38c2 1 2 1 2.61 2.734l.495 2.23c.179.8.358 1.6.541 2.425l.541 2.548.577 2.538C73.13 56.74 73.13 56.74 72 59h-2v10h38V55l-1 4h-5v-4l3-1a74.931 74.931 0 0 0 2.188-7.563l.537-2.154c.436-1.758.857-3.52 1.275-5.283h1l-1 31H69l-1-18c-.323-4.668-.647-9.334-1-14Z"/><path fill="#D89D26" d="M88 36h2c3.444 13.633 3.444 13.633 3 20h2l.148-2.379c.414-5.811.97-11.1 2.852-16.621h2a477.261 477.261 0 0 1 1.563 5.688l.878 3.199c.56 3.12.406 5.09-.441 8.113h-1l-2-7-3 11 3 1h-9l2-1-1-2.688c-.912-3.021-1.183-5.196-1-8.312h-2l-1 6-2-1 3-16Z"/><path fill="#F5BE0B" d="M99 46c2.4 3.6 4.322 6.961 3.625 11.375L102 59h5l-1-4h2v11l-1-4H71v-1h19v-2h4l1-2 1-1c.367-1.492.695-2.994 1-4.5.889-4.389.889-4.389 2-5.5Z"/><path fill="#D89B15" d="M74 52c2 3 2 3 2 6l4 1c-3.435 2.29-4.985 2.178-9 2v6l37-1v3H70V59h2v-2h2v-5Z"/><path fill="#E3AE19" d="m145 36 2 1c.925 3.625 1.692 7.248 2.412 10.918.437 2.05 1.004 4.07 1.588 6.082l3 1v3l3 1v2l-8 1v5h-1l-.402-3.797-.536-4.953-.263-2.5-.264-2.422-.238-2.222c-.294-2.088-.783-4.063-1.297-6.106a84.748 84.748 0 0 1-.063-4.75l.028-2.422L145 36Z"/><path fill="#E4AB22" d="M148 95h1c-.141 3.146-.289 6.292-.438 9.438l-.119 2.662-.127 2.646-.11 2.396c-.285 3.963-.767 7.91-1.206 11.858h-38l1-4v3h36v-9l-3-1 5-18Z"/><path fill="#D99F26" d="M138 90h1c.673 3.082 1.337 6.166 2 9.25l.578 2.645.547 2.558.508 2.349C143 109 143 109 143 113h-2l-.402-1.898-.536-2.477-.527-2.46c-.458-2.194-.458-2.194-1.535-4.165l-2 12h-5l1-4h2l.148-1.871c1.383-15.66 1.383-15.66 3.852-18.129Z"/><path fill="#F2BA0E" d="M177 36c3.61 5.415 4.483 12.554 4 19l-1 2h-5c-.054-2.375-.094-4.75-.125-7.125-.017-.665-.034-1.33-.05-2.016-.043-4.354.575-7.815 2.175-11.859Z"/><path fill="#DFA623" d="m78 36 2 1c.852 2.73.852 2.73 1.625 6.188.26 1.127.52 2.255.79 3.417.554 3.214.694 6.143.585 9.395h3l1 3h-6l-1-11h-2l-2 4c-1.27-3.81-.52-5.816.438-9.688l.87-3.574L78 36Z"/><path fill="#D49A2B" d="M127 90h2c.389 2.123.76 4.248 1.125 6.375l.633 3.586L131 103l-2 2v-3h-2l-.148 1.898-.227 2.477c-.07.812-.14 1.624-.21 2.46C126 111 126 111 124 113l-3-1 3-1c-.03-1.002-.062-2.003-.094-3.035.095-4.009.702-7.5 1.594-11.403l.844-3.746L127 90Z"/><path fill="#D99F27" d="m156 35 2 1c1.472 4.824 2.254 8.925 2 14h-2v-2l-2 1c-.656 2.527-.656 2.527-1 5l-2-1c.676-6.082 1.736-12.013 3-18Z"/><path fill="#D19C25" d="M109 39h1c.138 7.066-.252 13.974-1 21h-1v-5l-1 4h-5v-4l3-1a74.931 74.931 0 0 0 2.188-7.563l.537-2.154c.436-1.758.857-3.52 1.275-5.283Z"/><path fill="#DA2" d="M188 38h1c-.142 2.209-.289 4.417-.438 6.625-.08 1.23-.162 2.46-.246 3.727A102.156 102.156 0 0 1 187 58h-2c-2.041-4.083-.466-9.363.738-13.594.718-2.15 1.464-4.284 2.262-6.406Z"/><path fill="#F9C405" d="M138 101c2.622 3.932 3 7.323 3 12l2 1h-7c.14-1.98.287-3.959.438-5.938.08-1.102.162-2.204.246-3.34C137 102 137 102 138 101Z"/><path fill="#E3A820" d="M98 37h2a477.261 477.261 0 0 1 1.563 5.688l.878 3.199c.56 3.12.406 5.09-.441 8.113h-1l-2-7-2 1 1-11Z"/><path fill="#FAC306" d="M168 47c.335 1.479.668 2.958 1 4.438l.563 2.496C170 56 170 56 170 57h-6v-9c2-1 2-1 4-1Z"/><path fill="#FBC503" d="M99 46c2.009 3.013 3.04 5.527 4 9l-1 2h-6c.308-1.647.621-3.292.938-4.938l.527-2.777C98 47 98 47 99 46Z"/><path fill="#FBC505" d="m80 48 2 9h-6c-.688-2.813-.688-2.813-1-6 1.585-2.265 2.202-3 5-3Z"/><path fill="#F0BA14" d="M74 52c2 3 2 3 2 6l4 1c-3.435 2.29-4.985 2.178-9 2v6h-1v-8h2v-2h2v-5Z"/><path fill="#FCC802" d="m117 101 2 1c.414 2.285.414 2.285.625 5.063l.227 2.785L120 112h-5l2-11Z"/><path fill="#BB8A38" d="m106 91 2 1a109.191 109.191 0 0 1 1.625 7.563l.406 2.154c.33 1.76.651 3.521.969 5.283l-3 1c-2.296-11.522-2.296-11.522-2-17Z"/><path fill="#DCA41C" d="m135 103 2 2c-.023 2.164-.023 2.164-.375 4.625l-.336 2.477L136 114h-5l1-4h2l1-7Z"/><path fill="#CC942F" d="M163 49c1.62 2.572 2.044 3.677 1.625 6.75L164 58l2 1h-3v-2h-2l-1 2c-.81-2.915-1.218-4.461-.063-7.313L161 50v6h2v-7Z"/><path fill="#D09928" d="M169 44h1l1 12h2v3l-4-1a490.809 490.809 0 0 1-.563-4.75l-.316-2.672c-.116-2.462.143-4.243.879-6.578Z"/><path fill="#C89331" d="M109 39h1c.054 1.583.093 3.166.125 4.75l.07 2.672c-.204 2.692-.83 4.277-2.195 6.578l-2-1c.31-1.605.623-3.209.938-4.813l.527-2.707C108 42 108 42 109 39Z"/><path fill="#896157" d="m145 36 2 1c.633 2.285.633 2.285 1.125 5.063l.508 2.785L149 47l-3 2c-.872-2.995-1.108-5.636-1.063-8.75l.028-2.422L145 36Z"/><path fill="#D8A127" d="M177 36c2 3 2 3 1.75 5.5C178 44 178 44 176 47c-1.263-4.293-.63-6.878 1-11Z"/><path fill="#D39D2A" d="M147 45c2.503 2.503 2.7 3.48 3 7-.506 3.044-1.214 6.017-2 9h-1V45Z"/><path fill="#9A6D4D" d="M188 38h1l-1 14h-1a287.75 287.75 0 0 1-.625-4.75l-.352-2.672c-.025-2.807.529-4.212 1.977-6.578Z"/><path fill="#9C6E4C" d="m67 38 2 1c1.198 4.575.832 8.38 0 13h-1l-1-14Z"/><path fill="#674772" d="M99 34h2l1 11c-2-4-2-4-2-8h-2v5h-1c-.125-2.875-.125-2.875 0-6l2-2Z"/><path fill="#C89327" d="M82 50h1v6h3l1 3h-6l1-9Z"/><path fill="#E5A81B" d="m116 97 3 3-3 9h-1c-.027-1.625-.046-3.25-.063-4.875l-.035-2.742C115 99 115 99 116 97Z"/><path fill="#B38435" d="M181 52a90.488 90.488 0 0 1 4 4v2h2l-1 2-4-1-1-7Z"/><path fill="#442D85" d="M103 49h3l-1 8c-2-2-2-2-2.125-5.125L103 49Z"/><path fill="#C69327" d="M74 52c2 3 2 3 2 6l4 1h-7l1-7Z"/><path fill="#CF9B2A" d="M174 48h2l-1 8-2-2c.375-3.125.375-3.125 1-6Z"/></svg>