<?xml version="1.0" encoding="UTF-8"?>
<svg version="1.1" xmlns="http://www.w3.org/2000/svg" width="256" height="154">
<path d="M0 0 C84.48 0 168.96 0 256 0 C256 50.82 256 101.64 256 154 C171.52 154 87.04 154 0 154 C0 103.18 0 52.36 0 0 Z " fill="#010198" transform="translate(0,0)"/>
<path d="M0 0 C0.66 0.33 1.32 0.66 2 1 C2.8515625 3.94921875 2.8515625 3.94921875 3.625 7.6875 C3.88539063 8.90824219 4.14578125 10.12898438 4.4140625 11.38671875 C4.94737715 14.67549245 5.1122665 17.67793207 5 21 C5.66 21 6.32 21 7 21 C6.938125 20.113125 6.87625 19.22625 6.8125 18.3125 C6.77589792 12.4073649 8.56365929 6.68551532 10 1 C10.66 1 11.32 1 12 1 C12.50780894 3.20655075 13.00591365 5.41533605 13.5 7.625 C13.7784375 8.85476562 14.056875 10.08453125 14.34375 11.3515625 C14.94091621 14.67152228 15.12409534 17.63908451 15 21 C15.66 21 16.32 21 17 21 C16.97164062 20.15050781 16.94328125 19.30101563 16.9140625 18.42578125 C17.00416022 14.83415844 17.5676212 11.68480916 18.375 8.1875 C18.63023437 7.04667969 18.88546875 5.90585937 19.1484375 4.73046875 C19.42945313 3.82941406 19.71046875 2.92835937 20 2 C20.66 1.67 21.32 1.34 22 1 C22.27714844 2.13179687 22.55429688 3.26359375 22.83984375 4.4296875 C23.20560488 5.91148902 23.57149711 7.39325818 23.9375 8.875 C24.11990234 9.62136719 24.30230469 10.36773437 24.49023438 11.13671875 C25.45209692 15.17039125 25.45209692 15.17039125 27 19 C27.39832031 17.39318359 27.39832031 17.39318359 27.8046875 15.75390625 C28.16103168 14.35666195 28.51782582 12.95953236 28.875 11.5625 C29.04902344 10.85544922 29.22304687 10.14839844 29.40234375 9.41992188 C29.87351608 7.59631043 30.43123057 5.79556771 31 4 C31.66 3.67 32.32 3.34 33 3 C32.90912109 4.20269531 32.90912109 4.20269531 32.81640625 5.4296875 C32.09008222 15.28534592 31.54845597 25.12779254 31 35 C18.13 35 5.26 35 -8 35 C-8.9375 24.75 -8.9375 24.75 -9.22631836 21.53808594 C-9.30503174 20.69536133 -9.38374512 19.85263672 -9.46484375 18.984375 C-9.58267212 17.69611816 -9.58267212 17.69611816 -9.70288086 16.38183594 C-9.97735085 14.18156543 -10.44821615 12.14329263 -11 10 C-11.06548492 8.41788427 -11.08578381 6.83329919 -11.0625 5.25 C-11.05347656 4.45078125 -11.04445312 3.6515625 -11.03515625 2.828125 C-11.02355469 2.22484375 -11.01195312 1.6215625 -11 1 C-10.01 1.495 -10.01 1.495 -9 2 C-8.22363331 4.83593567 -7.54755979 7.62831169 -6.9375 10.5 C-6.23530012 15.66129996 -6.23530012 15.66129996 -4 20 C-2.68 13.4 -1.36 6.8 0 0 Z " fill="#F6BF09" transform="translate(156,35)"/>
<path d="M0 0 C0.66 0.33 1.32 0.66 2 1 C2.8515625 3.73046875 2.8515625 3.73046875 3.625 7.1875 C3.88539062 8.31542969 4.14578125 9.44335938 4.4140625 10.60546875 C4.96879207 13.81920204 5.1085757 16.74766433 5 20 C5.66 20 6.32 20 7 20 C7.04898438 19.2265625 7.09796875 18.453125 7.1484375 17.65625 C7.58747623 11.53998633 8.30007536 5.89307209 10 0 C10.66 0 11.32 0 12 0 C15.44419134 13.6332574 15.44419134 13.6332574 15 20 C15.66 20 16.32 20 17 20 C17.04898438 19.21496094 17.09796875 18.42992188 17.1484375 17.62109375 C17.5620036 11.80977697 18.11782148 6.521057 20 1 C20.66 1 21.32 1 22 1 C23.32 6.94 24.64 12.88 26 19 C28.39919609 12.77393722 28.39919609 12.77393722 30.1875 6.5 C30.455625 5.345 30.72375 4.19 31 3 C31.33 3 31.66 3 32 3 C31.67 13.23 31.34 23.46 31 34 C17.8 34 4.6 34 -9 34 C-9.33 28.06 -9.66 22.12 -10 16 C-10.32316932 11.33199865 -10.64745256 6.66562778 -11 2 C-10.01 2.495 -10.01 2.495 -9 3 C-8.19785959 5.69624569 -7.50606409 8.32726661 -6.875 11.0625 C-6.25625 13.681875 -5.6375 16.30125 -5 19 C-2.525 9.595 -2.525 9.595 0 0 Z " fill="#F6BF09" transform="translate(78,36)"/>
<path d="M0 0 C0.66 0.33 1.32 0.66 2 1 C2.64583243 3.42927796 3.16999412 5.78461099 3.625 8.25 C3.7590625 8.91902344 3.893125 9.58804688 4.03125 10.27734375 C4.72801653 13.8962638 5.15710263 17.31522916 5 21 C5.66 21 6.32 21 7 21 C6.9690625 19.99839844 6.938125 18.99679688 6.90625 17.96484375 C7.00102863 13.95649757 7.60802842 10.46487567 8.5 6.5625 C8.7784375 5.32628906 9.056875 4.09007813 9.34375 2.81640625 C9.5603125 1.88699219 9.776875 0.95757812 10 0 C10.66 0 11.32 0 12 0 C12.50449402 2.58252893 13.00374301 5.16588703 13.5 7.75 C13.71462891 8.84441406 13.71462891 8.84441406 13.93359375 9.9609375 C14.58888879 13.39343532 15 16.49169491 15 20 C15.66 20 16.32 20 17 20 C17.04898438 19.38253906 17.09796875 18.76507813 17.1484375 18.12890625 C18.20621111 6.14688445 18.20621111 6.14688445 20 1 C20.66 0.67 21.32 0.34 22 0 C23.32 6.27 24.64 12.54 26 19 C28.39911063 13.5620249 28.39911063 13.5620249 30.1875 8.0625 C30.455625 7.051875 30.72375 6.04125 31 5 C31.33 5 31.66 5 32 5 C31.85891477 8.14606461 31.71123864 11.29178868 31.5625 14.4375 C31.52318359 15.31599609 31.48386719 16.19449219 31.44335938 17.09960938 C31.38051758 18.40961914 31.38051758 18.40961914 31.31640625 19.74609375 C31.27974854 20.53685303 31.24309082 21.3276123 31.20532227 22.14233398 C30.92060317 26.10504154 30.43873594 30.05137658 30 34 C17.46 34 4.92 34 -8 34 C-8.9375 22.5625 -8.9375 22.5625 -9.22631836 19.01391602 C-9.72387825 12.99583489 -10.29992385 6.99794969 -11 1 C-10.01 1.495 -10.01 1.495 -9 2 C-8.22443234 4.66912342 -7.54903747 7.2934235 -6.9375 10 C-6.19339835 14.88999228 -6.19339835 14.88999228 -4 19 C-2.68 12.73 -1.36 6.46 0 0 Z " fill="#F4BC0B" transform="translate(117,90)"/>
<path d="M0 0 C2.62153553 3.93230329 3 7.32335261 3 12 C5.475 12.495 5.475 12.495 8 13 C8 15.97 8 18.94 8 22 C-3.88 22 -15.76 22 -28 22 C-28 19.03 -28 16.06 -28 13 C-19.42 13 -10.84 13 -2 13 C-1.67 9.04 -1.34 5.08 -1 1 C-0.67 0.67 -0.34 0.34 0 0 Z " fill="#FEC100" transform="translate(138,101)"/>
<path d="M0 0 C2.40034102 3.60051153 4.32187705 6.96144535 3.625 11.375 C3.315625 12.179375 3.315625 12.179375 3 13 C4.65 13 6.3 13 8 13 C7.505 11.02 7.505 11.02 7 9 C7.66 9 8.32 9 9 9 C9.02687279 10.81242052 9.04633715 12.62495233 9.0625 14.4375 C9.07410156 15.44683594 9.08570313 16.45617187 9.09765625 17.49609375 C9 20 9 20 8 21 C5.3337397 21.08855161 2.69352886 21.11524673 0.02734375 21.09765625 C-0.77029892 21.0962413 -1.56794159 21.09482635 -2.38975525 21.09336853 C-4.94737435 21.08775316 -7.50490718 21.07519812 -10.0625 21.0625 C-11.79231645 21.05748698 -13.52213426 21.05292373 -15.25195312 21.04882812 C-19.50133553 21.03777875 -23.75065312 21.02050386 -28 21 C-28 19.02 -28 17.04 -28 15 C-21.73 15 -15.46 15 -9 15 C-9 14.34 -9 13.68 -9 13 C-7.68 13 -6.36 13 -5 13 C-4.67 12.34 -4.34 11.68 -4 11 C-3.67 10.67 -3.34 10.34 -3 10 C-2.63272554 8.50794753 -2.3050154 7.00601352 -2 5.5 C-1.11111111 1.11111111 -1.11111111 1.11111111 0 0 Z " fill="#FECB00" transform="translate(99,46)"/>
<path d="M0 0 C1.12775345 0.03541649 1.12775345 0.03541649 2.27828979 0.07154846 C4.68311316 0.14821245 7.08761668 0.23222469 9.4921875 0.31640625 C11.12107802 0.36962422 12.74998422 0.42236464 14.37890625 0.47460938 C18.3752031 0.60383123 22.37122842 0.73964452 26.3671875 0.87890625 C26.3671875 3.18890625 26.3671875 5.49890625 26.3671875 7.87890625 C21.56169003 7.90359072 16.75622932 7.9217588 11.95068359 7.93383789 C10.31526039 7.93887246 8.6798417 7.94570052 7.04443359 7.9543457 C4.69627775 7.9664496 2.34818131 7.97214325 0 7.9765625 C-1.10007889 7.98430443 -1.10007889 7.98430443 -2.22238159 7.99220276 C-7.40506909 7.99277796 -7.40506909 7.99277796 -9.6328125 6.87890625 C-9.6328125 4.89890625 -9.6328125 2.91890625 -9.6328125 0.87890625 C-6.55406373 -0.66046814 -3.36544553 -0.12406161 0 0 Z " fill="#F4BF05" transform="translate(158.6328125,61.12109375)"/>
<path d="M0 0 C0.66 0.33 1.32 0.66 2 1 C2.6729424 3.43089325 3.2153243 5.77980002 3.6875 8.25 C3.82994141 8.91902344 3.97238281 9.58804688 4.11914062 10.27734375 C4.88329507 14.14753891 5.09857333 17.19554472 4 21 C2 18 2 18 1 12 C0.01 15.96 -0.98 19.92 -2 24 C-3.65 24 -5.3 24 -7 24 C-7 26.97 -7 29.94 -7 33 C4.88 33 16.76 33 29 33 C29 30.03 29 27.06 29 24 C28.01 23.67 27.02 23.34 26 23 C27.65 17.06 29.3 11.12 31 5 C31.33 5 31.66 5 32 5 C31.85891477 8.14606461 31.71123864 11.29178868 31.5625 14.4375 C31.52318359 15.31599609 31.48386719 16.19449219 31.44335938 17.09960938 C31.38051758 18.40961914 31.38051758 18.40961914 31.31640625 19.74609375 C31.27974854 20.53685303 31.24309082 21.3276123 31.20532227 22.14233398 C30.92060317 26.10504154 30.43873594 30.05137658 30 34 C17.46 34 4.92 34 -8 34 C-8.9375 22.5625 -8.9375 22.5625 -9.22631836 19.01391602 C-9.72387825 12.99583489 -10.29992385 6.99794969 -11 1 C-10.01 1.495 -10.01 1.495 -9 2 C-8.22443234 4.66912342 -7.54903747 7.2934235 -6.9375 10 C-6.19339835 14.88999228 -6.19339835 14.88999228 -4 19 C-2.68 12.73 -1.36 6.46 0 0 Z " fill="#DBA426" transform="translate(117,90)"/>
<path d="M0 0 C0.99 0.495 0.99 0.495 2 1 C2.92506419 4.62535277 3.6917703 8.24809315 4.41210938 11.91796875 C4.84875907 13.96726495 5.41587112 15.98776957 6 18 C6.99 18.33 7.98 18.66 9 19 C9 19.99 9 20.98 9 22 C9.99 22.33 10.98 22.66 12 23 C12 23.66 12 24.32 12 25 C8.04 25.495 8.04 25.495 4 26 C4 27.98 4 29.96 4 32 C15.88 32.33 27.76 32.66 40 33 C40.33 29.7 40.66 26.4 41 23 C39.68 23 38.36 23 37 23 C36.505 19.535 36.505 19.535 36 16 C36.66 16.66 37.32 17.32 38 18 C38.39832031 16.39318359 38.39832031 16.39318359 38.8046875 14.75390625 C39.16103168 13.35666195 39.51782582 11.95953236 39.875 10.5625 C40.04902344 9.85544922 40.22304687 9.14839844 40.40234375 8.41992188 C40.87351608 6.59631043 41.43123057 4.79556771 42 3 C42.66 2.67 43.32 2.34 44 2 C43.90912109 3.20269531 43.90912109 3.20269531 43.81640625 4.4296875 C43.09008222 14.28534592 42.54845597 24.12779254 42 34 C29.13 34 16.26 34 3 34 C2.0625 23.75 2.0625 23.75 1.77368164 20.53808594 C1.69496826 19.69536133 1.61625488 18.85263672 1.53515625 17.984375 C1.41732788 16.69611816 1.41732788 16.69611816 1.29711914 15.38183594 C1.02264915 13.18156543 0.55178385 11.14329263 0 9 C-0.06548492 7.41788427 -0.08578381 5.83329919 -0.0625 4.25 C-0.05347656 3.45078125 -0.04445312 2.6515625 -0.03515625 1.828125 C-0.02355469 1.22484375 -0.01195312 0.6215625 0 0 Z " fill="#A07754" transform="translate(145,36)"/>
<path d="M0 0 C0.66 0 1.32 0 2 0 C2.50780894 2.20655075 3.00591365 4.41533605 3.5 6.625 C3.7784375 7.85476562 4.056875 9.08453125 4.34375 10.3515625 C4.94091621 13.67152228 5.12409534 16.63908451 5 20 C5.66 20 6.32 20 7 20 C6.97164062 19.15050781 6.94328125 18.30101563 6.9140625 17.42578125 C7.00416022 13.83415844 7.5676212 10.68480916 8.375 7.1875 C8.75785156 5.47626953 8.75785156 5.47626953 9.1484375 3.73046875 C9.42945313 2.82941406 9.71046875 1.92835937 10 1 C10.66 0.67 11.32 0.34 12 0 C13.91342245 7.67775802 15.41078568 15.10452815 16 23 C11.71 23 7.42 23 3 23 C2.67 19.04 2.34 15.08 2 11 C1.34 11 0.68 11 0 11 C-0.33 11.66 -0.66 12.32 -1 13 C-2.12758089 9.61725734 -1.81750262 8.23221777 -1.0625 4.8125 C-0.86785156 3.91144531 -0.67320312 3.01039062 -0.47265625 2.08203125 C-0.23869141 1.05142578 -0.23869141 1.05142578 0 0 Z " fill="#E1A71D" transform="translate(166,36)"/>
<path d="M0 0 C2 1 2 1 2.61010742 2.73413086 C2.77357666 3.47026611 2.9370459 4.20640137 3.10546875 4.96484375 C3.28400391 5.76470703 3.46253906 6.56457031 3.64648438 7.38867188 C3.82501953 8.22978516 4.00355469 9.07089844 4.1875 9.9375 C4.37763672 10.77474609 4.56777344 11.61199219 4.76367188 12.47460938 C6.1297619 18.74047619 6.1297619 18.74047619 5 21 C4.34 21 3.68 21 3 21 C3 24.3 3 27.6 3 31 C15.54 31 28.08 31 41 31 C41 26.38 41 21.76 41 17 C40.67 18.32 40.34 19.64 40 21 C38.35 21 36.7 21 35 21 C35 19.68 35 18.36 35 17 C35.99 16.67 36.98 16.34 38 16 C38.88040196 13.45301774 39.5759039 11.04808726 40.1875 8.4375 C40.45336914 7.37112305 40.45336914 7.37112305 40.72460938 6.28320312 C41.16122323 4.52494731 41.58210434 2.76279845 42 1 C42.33 1 42.66 1 43 1 C42.67 11.23 42.34 21.46 42 32 C28.8 32 15.6 32 2 32 C1.67 26.06 1.34 20.12 1 14 C0.67683068 9.33199865 0.35254744 4.66562778 0 0 Z " fill="#AF8348" transform="translate(67,38)"/>
<path d="M0 0 C0.66 0 1.32 0 2 0 C5.44419134 13.6332574 5.44419134 13.6332574 5 20 C5.66 20 6.32 20 7 20 C7.04898438 19.21496094 7.09796875 18.42992188 7.1484375 17.62109375 C7.5620036 11.80977697 8.11782148 6.521057 10 1 C10.66 1 11.32 1 12 1 C12.53414112 2.89212702 13.05178329 4.78891636 13.5625 6.6875 C13.85253906 7.74324219 14.14257812 8.79898438 14.44140625 9.88671875 C15.00124767 13.00695382 14.84690764 14.97693234 14 18 C13.67 18 13.34 18 13 18 C12.34 15.69 11.68 13.38 11 11 C10.01 14.63 9.02 18.26 8 22 C8.99 22.33 9.98 22.66 11 23 C8.03 23 5.06 23 2 23 C2.66 22.67 3.32 22.34 4 22 C3.67 21.113125 3.34 20.22625 3 19.3125 C2.08777857 16.29076653 1.81669042 14.11626294 2 11 C1.34 11 0.68 11 0 11 C-0.33 12.98 -0.66 14.96 -1 17 C-1.66 16.67 -2.32 16.34 -3 16 C-2.01 10.72 -1.02 5.44 0 0 Z " fill="#D89D26" transform="translate(88,36)"/>
<path d="M0 0 C2.40034102 3.60051153 4.32187705 6.96144535 3.625 11.375 C3.315625 12.179375 3.315625 12.179375 3 13 C4.65 13 6.3 13 8 13 C7.505 11.02 7.505 11.02 7 9 C7.66 9 8.32 9 9 9 C9 12.63 9 16.26 9 20 C8.505 18.02 8.505 18.02 8 16 C-3.88 16 -15.76 16 -28 16 C-28 15.67 -28 15.34 -28 15 C-21.73 15 -15.46 15 -9 15 C-9 14.34 -9 13.68 -9 13 C-7.68 13 -6.36 13 -5 13 C-4.67 12.34 -4.34 11.68 -4 11 C-3.67 10.67 -3.34 10.34 -3 10 C-2.63272554 8.50794753 -2.3050154 7.00601352 -2 5.5 C-1.11111111 1.11111111 -1.11111111 1.11111111 0 0 Z " fill="#F5BE0B" transform="translate(99,46)"/>
<path d="M0 0 C2 3 2 3 2 6 C3.32 6.33 4.64 6.66 6 7 C2.5647952 9.29013653 1.014669 9.17842973 -3 9 C-3 10.98 -3 12.96 -3 15 C9.21 14.67 21.42 14.34 34 14 C34 14.99 34 15.98 34 17 C21.46 17 8.92 17 -4 17 C-4 13.7 -4 10.4 -4 7 C-3.34 7 -2.68 7 -2 7 C-2 6.34 -2 5.68 -2 5 C-1.34 5 -0.68 5 0 5 C0 3.35 0 1.7 0 0 Z " fill="#D89B15" transform="translate(74,52)"/>
<path d="M0 0 C0.99 0.495 0.99 0.495 2 1 C2.92506419 4.62535277 3.6917703 8.24809315 4.41210938 11.91796875 C4.84875907 13.96726495 5.41587112 15.98776957 6 18 C6.99 18.33 7.98 18.66 9 19 C9 19.99 9 20.98 9 22 C9.99 22.33 10.98 22.66 12 23 C12 23.66 12 24.32 12 25 C8.04 25.495 8.04 25.495 4 26 C4 27.65 4 29.3 4 31 C3.67 31 3.34 31 3 31 C2.86722656 29.74703125 2.73445312 28.4940625 2.59765625 27.203125 C2.41941709 25.55206754 2.2410236 23.90102673 2.0625 22.25 C1.97548828 21.425 1.88847656 20.6 1.79882812 19.75 C1.66831055 18.55117188 1.66831055 18.55117188 1.53515625 17.328125 C1.456604 16.5949707 1.37805176 15.86181641 1.29711914 15.10644531 C1.00257901 13.01828406 0.51446221 11.04296771 0 9 C-0.06548492 7.41788427 -0.08578381 5.83329919 -0.0625 4.25 C-0.05347656 3.45078125 -0.04445312 2.6515625 -0.03515625 1.828125 C-0.02355469 1.22484375 -0.01195312 0.6215625 0 0 Z " fill="#E3AE19" transform="translate(145,36)"/>
<path d="M0 0 C0.33 0 0.66 0 1 0 C0.85891477 3.14606461 0.71123864 6.29178868 0.5625 9.4375 C0.52318359 10.31599609 0.48386719 11.19449219 0.44335938 12.09960938 C0.38051758 13.40961914 0.38051758 13.40961914 0.31640625 14.74609375 C0.27974854 15.53685303 0.24309082 16.3276123 0.20532227 17.14233398 C-0.07939683 21.10504154 -0.56126406 25.05137658 -1 29 C-13.54 29 -26.08 29 -39 29 C-38.67 27.68 -38.34 26.36 -38 25 C-38 25.99 -38 26.98 -38 28 C-26.12 28 -14.24 28 -2 28 C-2 25.03 -2 22.06 -2 19 C-2.99 18.67 -3.98 18.34 -5 18 C-3.35 12.06 -1.7 6.12 0 0 Z " fill="#E4AB22" transform="translate(148,95)"/>
<path d="M0 0 C0.33 0 0.66 0 1 0 C1.67332993 3.08191704 2.33748859 6.1657408 3 9.25 C3.19078125 10.12269531 3.3815625 10.99539062 3.578125 11.89453125 C3.75859375 12.73886719 3.9390625 13.58320312 4.125 14.453125 C4.29257813 15.22817383 4.46015625 16.00322266 4.6328125 16.80175781 C5 19 5 19 5 23 C4.34 23 3.68 23 3 23 C2.86722656 22.37351562 2.73445312 21.74703125 2.59765625 21.1015625 C2.33275391 19.87566406 2.33275391 19.87566406 2.0625 18.625 C1.88847656 17.81289062 1.71445313 17.00078125 1.53515625 16.1640625 C1.07669307 13.970537 1.07669307 13.970537 0 12 C-0.66 15.96 -1.32 19.92 -2 24 C-3.65 24 -5.3 24 -7 24 C-6.67 22.68 -6.34 21.36 -6 20 C-5.34 20 -4.68 20 -4 20 C-3.95101562 19.38253906 -3.90203125 18.76507813 -3.8515625 18.12890625 C-2.46911519 2.46911519 -2.46911519 2.46911519 0 0 Z " fill="#D99F26" transform="translate(138,90)"/>
<path d="M0 0 C3.61000072 5.41500108 4.4834655 12.5537934 4 19 C3.67 19.66 3.34 20.32 3 21 C1.35 21 -0.3 21 -2 21 C-2.0543965 18.62468606 -2.09385864 16.25064117 -2.125 13.875 C-2.14175781 13.20984375 -2.15851563 12.5446875 -2.17578125 11.859375 C-2.21847278 7.50483944 -1.59996217 4.04399886 0 0 Z " fill="#F2BA0E" transform="translate(177,36)"/>
<path d="M0 0 C0.66 0.33 1.32 0.66 2 1 C2.8515625 3.73046875 2.8515625 3.73046875 3.625 7.1875 C3.88539062 8.31542969 4.14578125 9.44335938 4.4140625 10.60546875 C4.96879207 13.81920204 5.1085757 16.74766433 5 20 C5.99 20 6.98 20 8 20 C8.33 20.99 8.66 21.98 9 23 C7.02 23 5.04 23 3 23 C2.67 19.37 2.34 15.74 2 12 C1.34 12 0.68 12 0 12 C-0.66 13.32 -1.32 14.64 -2 16 C-3.26977059 12.19068824 -2.52074507 10.18381007 -1.5625 6.3125 C-1.27503906 5.13300781 -0.98757812 3.95351563 -0.69140625 2.73828125 C-0.46324219 1.83464844 -0.23507813 0.93101563 0 0 Z " fill="#DFA623" transform="translate(78,36)"/>
<path d="M0 0 C0.66 0 1.32 0 2 0 C2.38863565 2.12254855 2.76053209 4.24816828 3.125 6.375 C3.33382812 7.55835937 3.54265625 8.74171875 3.7578125 9.9609375 C3.83773437 10.96382812 3.91765625 11.96671875 4 13 C3.34 13.66 2.68 14.32 2 15 C2 14.01 2 13.02 2 12 C1.34 12 0.68 12 0 12 C-0.04898438 12.62648438 -0.09796875 13.25296875 -0.1484375 13.8984375 C-0.22320312 14.71570313 -0.29796875 15.53296875 -0.375 16.375 C-0.44460937 17.18710938 -0.51421875 17.99921875 -0.5859375 18.8359375 C-1 21 -1 21 -3 23 C-3.99 22.67 -4.98 22.34 -6 22 C-5.01 21.67 -4.02 21.34 -3 21 C-3.0309375 19.99839844 -3.061875 18.99679688 -3.09375 17.96484375 C-2.99897137 13.95649757 -2.39197158 10.46487567 -1.5 6.5625 C-1.2215625 5.32628906 -0.943125 4.09007813 -0.65625 2.81640625 C-0.4396875 1.88699219 -0.223125 0.95757812 0 0 Z " fill="#D49A2B" transform="translate(127,90)"/>
<path d="M0 0 C0.66 0.33 1.32 0.66 2 1 C3.47180796 5.82425944 4.25376143 9.92477148 4 15 C3.34 15 2.68 15 2 15 C2 14.34 2 13.68 2 13 C1.01 13.495 1.01 13.495 0 14 C-0.65555119 16.52733235 -0.65555119 16.52733235 -1 19 C-1.66 18.67 -2.32 18.34 -3 18 C-2.32418477 11.91766294 -1.26361972 5.98685848 0 0 Z " fill="#D99F27" transform="translate(156,35)"/>
<path d="M0 0 C0.33 0 0.66 0 1 0 C1.13794954 7.06608191 0.74805717 13.97360585 0 21 C-0.33 21 -0.66 21 -1 21 C-1 19.35 -1 17.7 -1 16 C-1.33 17.32 -1.66 18.64 -2 20 C-3.65 20 -5.3 20 -7 20 C-7 18.68 -7 17.36 -7 16 C-6.01 15.67 -5.02 15.34 -4 15 C-3.11959804 12.45301774 -2.4240961 10.04808726 -1.8125 7.4375 C-1.54663086 6.37112305 -1.54663086 6.37112305 -1.27539062 5.28320312 C-0.83877677 3.52494731 -0.41789566 1.76279845 0 0 Z " fill="#D19C25" transform="translate(109,39)"/>
<path d="M0 0 C0.33 0 0.66 0 1 0 C0.85780436 2.20857055 0.71108153 4.41684987 0.5625 6.625 C0.48128906 7.85476562 0.40007812 9.08453125 0.31640625 10.3515625 C0.03336056 13.61532388 -0.41038953 16.77943859 -1 20 C-1.66 20 -2.32 20 -3 20 C-5.04140596 15.91718808 -3.46582528 10.63655019 -2.26171875 6.40625 C-1.54364714 4.25543837 -0.79778603 2.1224119 0 0 Z " fill="#DDAA22" transform="translate(188,38)"/>
<path d="M0 0 C2.62153553 3.93230329 3 7.32335261 3 12 C3.66 12.33 4.32 12.66 5 13 C2.69 13 0.38 13 -2 13 C-1.85966889 11.02043559 -1.7125877 9.04134859 -1.5625 7.0625 C-1.48128906 5.96035156 -1.40007812 4.85820313 -1.31640625 3.72265625 C-1 1 -1 1 0 0 Z " fill="#F9C405" transform="translate(138,101)"/>
<path d="M0 0 C0.66 0 1.32 0 2 0 C2.53414112 1.89212702 3.05178329 3.78891636 3.5625 5.6875 C3.85253906 6.74324219 4.14257812 7.79898438 4.44140625 8.88671875 C5.00124767 12.00695382 4.84690764 13.97693234 4 17 C3.67 17 3.34 17 3 17 C2.34 14.69 1.68 12.38 1 10 C0.01 10.495 0.01 10.495 -1 11 C-0.67 7.37 -0.34 3.74 0 0 Z " fill="#E3A820" transform="translate(98,37)"/>
<path d="M0 0 C0.33461467 1.47887733 0.66765667 2.95811058 1 4.4375 C1.185625 5.26121094 1.37125 6.08492187 1.5625 6.93359375 C2 9 2 9 2 10 C0.02 10 -1.96 10 -4 10 C-4 7.03 -4 4.06 -4 1 C-2 0 -2 0 0 0 Z " fill="#FAC306" transform="translate(168,47)"/>
<path d="M0 0 C2.00881937 3.01322906 3.03927918 5.52662474 4 9 C3.67 9.66 3.34 10.32 3 11 C1.02 11 -0.96 11 -3 11 C-2.69217504 9.35328588 -2.37860766 7.70764424 -2.0625 6.0625 C-1.88847656 5.14597656 -1.71445313 4.22945312 -1.53515625 3.28515625 C-1 1 -1 1 0 0 Z " fill="#FBC503" transform="translate(99,46)"/>
<path d="M0 0 C0.66 2.97 1.32 5.94 2 9 C0.02 9 -1.96 9 -4 9 C-4.6875 6.1875 -4.6875 6.1875 -5 3 C-3.41464922 0.73521317 -2.79754986 0 0 0 Z " fill="#FBC505" transform="translate(80,48)"/>
<path d="M0 0 C2 3 2 3 2 6 C3.32 6.33 4.64 6.66 6 7 C2.5647952 9.29013653 1.014669 9.17842973 -3 9 C-3 10.98 -3 12.96 -3 15 C-3.33 15 -3.66 15 -4 15 C-4 12.36 -4 9.72 -4 7 C-3.34 7 -2.68 7 -2 7 C-2 6.34 -2 5.68 -2 5 C-1.34 5 -0.68 5 0 5 C0 3.35 0 1.7 0 0 Z " fill="#F0BA14" transform="translate(74,52)"/>
<path d="M0 0 C0.66 0.33 1.32 0.66 2 1 C2.4140625 3.28515625 2.4140625 3.28515625 2.625 6.0625 C2.69976562 6.98160156 2.77453125 7.90070313 2.8515625 8.84765625 C2.90054688 9.55792969 2.94953125 10.26820312 3 11 C1.35 11 -0.3 11 -2 11 C-1.34 7.37 -0.68 3.74 0 0 Z " fill="#FCC802" transform="translate(117,101)"/>
<path d="M0 0 C0.99 0.495 0.99 0.495 2 1 C2.63801836 3.5315866 3.16687368 5.99839502 3.625 8.5625 C3.7590625 9.27341797 3.893125 9.98433594 4.03125 10.71679688 C4.36191847 12.47642553 4.68195767 14.23804548 5 16 C4.01 16.33 3.02 16.66 2 17 C-0.29612756 5.47835991 -0.29612756 5.47835991 0 0 Z " fill="#BB8A38" transform="translate(106,91)"/>
<path d="M0 0 C0.66 0.66 1.32 1.32 2 2 C1.9765625 4.1640625 1.9765625 4.1640625 1.625 6.625 C1.51414063 7.44226563 1.40328125 8.25953125 1.2890625 9.1015625 C1.19367188 9.72804688 1.09828125 10.35453125 1 11 C-0.65 11 -2.3 11 -4 11 C-3.67 9.68 -3.34 8.36 -3 7 C-2.34 7 -1.68 7 -1 7 C-0.67 4.69 -0.34 2.38 0 0 Z " fill="#DCA41C" transform="translate(135,103)"/>
<path d="M0 0 C1.61949011 2.57213134 2.04408751 3.67669159 1.625 6.75 C1.41875 7.4925 1.2125 8.235 1 9 C1.66 9.33 2.32 9.66 3 10 C2.01 10 1.02 10 0 10 C0 9.34 0 8.68 0 8 C-0.66 8 -1.32 8 -2 8 C-2.33 8.66 -2.66 9.32 -3 10 C-3.80967438 7.08517222 -4.21845993 5.53886783 -3.0625 2.6875 C-2.711875 2.130625 -2.36125 1.57375 -2 1 C-2 2.98 -2 4.96 -2 7 C-1.34 7 -0.68 7 0 7 C0 4.69 0 2.38 0 0 Z " fill="#CC942F" transform="translate(163,49)"/>
<path d="M0 0 C0.33 0 0.66 0 1 0 C1.33 3.96 1.66 7.92 2 12 C2.66 12 3.32 12 4 12 C4 12.99 4 13.98 4 15 C2.68 14.67 1.36 14.34 0 14 C-0.19627391 12.41773035 -0.38165538 10.83410729 -0.5625 9.25 C-0.66691406 8.36828125 -0.77132812 7.4865625 -0.87890625 6.578125 C-0.99456676 4.11567549 -0.73638695 2.33461936 0 0 Z " fill="#D09928" transform="translate(169,44)"/>
<path d="M0 0 C0.33 0 0.66 0 1 0 C1.05437607 1.58294782 1.09296271 3.16644256 1.125 4.75 C1.14820312 5.63171875 1.17140625 6.5134375 1.1953125 7.421875 C0.99139502 10.1135858 0.36551721 11.69904974 -1 14 C-1.66 13.67 -2.32 13.34 -3 13 C-2.68991116 11.39536551 -2.37683713 9.79130769 -2.0625 8.1875 C-1.88847656 7.29417969 -1.71445313 6.40085937 -1.53515625 5.48046875 C-1 3 -1 3 0 0 Z " fill="#C89331" transform="translate(109,39)"/>
<path d="M0 0 C0.99 0.495 0.99 0.495 2 1 C2.6328125 3.28515625 2.6328125 3.28515625 3.125 6.0625 C3.29257813 6.98160156 3.46015625 7.90070312 3.6328125 8.84765625 C3.75398437 9.55792969 3.87515625 10.26820312 4 11 C3.01 11.66 2.02 12.32 1 13 C0.1276588 10.00519083 -0.10829766 7.36424089 -0.0625 4.25 C-0.05347656 3.45078125 -0.04445312 2.6515625 -0.03515625 1.828125 C-0.02355469 1.22484375 -0.01195312 0.6215625 0 0 Z " fill="#896157" transform="translate(145,36)"/>
<path d="M0 0 C2 3 2 3 1.75 5.5 C1 8 1 8 -1 11 C-2.26264601 6.70700357 -1.62950412 4.12168689 0 0 Z " fill="#D8A127" transform="translate(177,36)"/>
<path d="M0 0 C2.50329639 2.50329639 2.70034576 3.47906271 3 7 C2.49430721 10.04437273 1.78640106 13.0168753 1 16 C0.67 16 0.34 16 0 16 C0 10.72 0 5.44 0 0 Z " fill="#D39D2A" transform="translate(147,45)"/>
<path d="M0 0 C0.33 0 0.66 0 1 0 C0.67 4.62 0.34 9.24 0 14 C-0.33 14 -0.66 14 -1 14 C-1.22331199 12.41870971 -1.42804644 10.83478911 -1.625 9.25 C-1.74101562 8.36828125 -1.85703125 7.4865625 -1.9765625 6.578125 C-2.00207817 3.77140122 -1.44843844 2.36615134 0 0 Z " fill="#9A6D4D" transform="translate(188,38)"/>
<path d="M0 0 C0.99 0.495 0.99 0.495 2 1 C3.19811544 5.57462259 2.83154187 9.38032292 2 14 C1.67 14 1.34 14 1 14 C0.67 9.38 0.34 4.76 0 0 Z " fill="#9C6E4C" transform="translate(67,38)"/>
<path d="M0 0 C0.66 0 1.32 0 2 0 C2.33 3.63 2.66 7.26 3 11 C1 7 1 7 1 3 C0.34 3 -0.32 3 -1 3 C-1 4.65 -1 6.3 -1 8 C-1.33 8 -1.66 8 -2 8 C-2.125 5.125 -2.125 5.125 -2 2 C-1.34 1.34 -0.68 0.68 0 0 Z " fill="#674772" transform="translate(99,34)"/>
<path d="M0 0 C0.33 0 0.66 0 1 0 C1 1.98 1 3.96 1 6 C1.99 6 2.98 6 4 6 C4.33 6.99 4.66 7.98 5 9 C3.02 9 1.04 9 -1 9 C-0.67 6.03 -0.34 3.06 0 0 Z " fill="#C89327" transform="translate(82,50)"/>
<path d="M0 0 C0.99 0.99 1.98 1.98 3 3 C2.01 5.97 1.02 8.94 0 12 C-0.33 12 -0.66 12 -1 12 C-1.02698189 10.37509046 -1.04638757 8.75005367 -1.0625 7.125 C-1.07410156 6.22007813 -1.08570312 5.31515625 -1.09765625 4.3828125 C-1 2 -1 2 0 0 Z " fill="#E5A81B" transform="translate(116,97)"/>
<path d="M0 0 C1.37562854 1.28965176 2.70766393 2.62689293 4 4 C4 4.66 4 5.32 4 6 C4.66 6 5.32 6 6 6 C5.67 6.66 5.34 7.32 5 8 C3.68 7.67 2.36 7.34 1 7 C0.67 4.69 0.34 2.38 0 0 Z " fill="#B38435" transform="translate(181,52)"/>
<path d="M0 0 C0.99 0 1.98 0 3 0 C2.67 2.64 2.34 5.28 2 8 C0 6 0 6 -0.125 2.875 C-0.08375 1.92625 -0.0425 0.9775 0 0 Z " fill="#442D85" transform="translate(103,49)"/>
<path d="M0 0 C2 3 2 3 2 6 C3.32 6.33 4.64 6.66 6 7 C3.69 7 1.38 7 -1 7 C-0.67 4.69 -0.34 2.38 0 0 Z " fill="#C69327" transform="translate(74,52)"/>
<path d="M0 0 C0.66 0 1.32 0 2 0 C1.67 2.64 1.34 5.28 1 8 C0.34 7.34 -0.32 6.68 -1 6 C-0.625 2.875 -0.625 2.875 0 0 Z " fill="#CF9B2A" transform="translate(174,48)"/>
</svg>
