<svg xmlns="http://www.w3.org/2000/svg" width="256" height="154"><path fill="#FDFCFC" d="M0 0h256v154H0V0Z"/><path fill="#1D52B0" d="M108 30h3v4h5l-2 1v6l5 1v2l-5 1-2 11-3 1c-.754 4.98-.754 4.98-1 10l5 5 2-22 5-1 2-6h3l1 7 1-9 4-1 2 2c2.5.333 2.5.333 5 0l2-2h3l-1-6 5 2v-5h3c1.125 4.75 1.125 4.75 0 7h-2c2.42 4.202 5.156 8.08 8 12l1-2h2v-2h-3v-2h4l-1.563-1.188L157 41c.313-2.688.313-2.688 1-5 5.244-1.748 9.473-2.194 15-2v2h2l.313 1.938L176 40l3 1c.054 1.416.093 2.833.125 4.25l.07 2.39c-.212 2.567-.908 4.152-2.195 6.36l-2-1 1 2c2.527.656 2.527.656 5 1l-.07-1.977c-.106-5.11.05-9.227 2.07-14.023h-2v-5c4.332-.263 7.88.708 12 2v-3h-3v-2l5 1v8h-2l2 3c.438 2.938.438 2.938 0 6-2.5 2.375-2.5 2.375-5 4l-3-2v-2h5v-5c-2.416-.167-2.416-.167-5 0-2.495 2.495-2.36 3.673-2.625 7.125l-.227 2.758L184 57l4-1v3l-2-1c.31 1.438.623 2.875.938 4.313l.527 2.425c.534 2.407.534 2.407 1.535 5.262 3.167-1.833 3.167-1.833 5-5 .981 3.053.981 4.947 0 8h-2l.25 3.188c-.287 4.38-1.198 5.76-4.25 8.812-2.986 1.493-5.709 1.118-9 1l-2-1a294.9 294.9 0 0 0 .875 3.938l.492 2.214c.463 2.055.463 2.055 2.633 2.848v2h3v3h2l1 5h-4l1 7-2 1-1 3h-2v6h-2v-2l-3 1-1 4h83v30H0v-30h170v-5h-3l-1 2c-.625-2.375-.625-2.375-1-5l2-2h4l3-9-6-2v3h-2v-3h-2v5l2 1c-2.238 3.357-3.219 3.92-7 5-2.063-.313-2.063-.313-4-1l-2.25-.563L151 112v-2h-5v3h-2v-6l-4 1c.557-3.344 1.352-6.033 3-9h-2v-2h6v4h6v-2h-2v-2h2v-2l-2-1 1-7 1 2 2.52-1.094 3.292-1.406 3.27-1.406C165 84 165 84 168 84l-2-3v-3l-3.25-.375c-3.129-.521-5.085-1.026-7.75-2.625v2h-5v2l-3 1c-1.225 3.008-1.225 3.008-2 6l-6-1-1 11h-20l-1-11-6-2v-2h-2v-2h-3v-2h-4l-1-2-2.75.938c-2.416.79-4.778 1.491-7.25 2.062-.167 2.416-.167 2.416 0 5 2.694 2.694 5.359 2.996 9 4 1.354.625 2.7 1.272 4 2l1-2 1 8h-2l1 3h-2v2l7 1v-4h6l1 3h-2l1 1.75c1 2.25 1 2.25 1 6.25l-4-1v5h-2v-2h-5v2c-3.375.625-3.375.625-7 1l-2-2h-4v-2l-2-1h2v-5h-2l-2 2-1-3c-2.233.857-2.233.857-4 3-.06 3.071.42 5.99 1 9l5 1 1 5-5-1v3h-2v-2l-5-1v2h-2v-6h-2l-1-3-2-1v-7h-3c.588-3.024 1.227-6.018 2-9l4 1 1-3h2v-7l-1.828.14c-6.583.298-6.583.298-9.61-1.953-2.31-3.234-3.881-5.753-4.75-9.624l-.542-2.31c-.285-2.383.001-3.984.73-6.253v2l5 1 1-4h2v-7l-3-1h5c-.114-1.626-.242-3.25-.375-4.875l-.21-2.742C71.204 46.82 71.204 46.82 69 45h-4l-1 6h3l-1 4h-2c-2.867-3.75-3.297-6.352-3-11V33l2 1v3l6 1 1-3 5 1-1 3-3-1 .875 1.652C74.72 45.432 75.408 49.576 75 56h4l-1-2c-.07-1.874-.084-3.75-.063-5.625l.028-3.04L78 43h3v-6h2v-3c6.518-.354 11.175-.039 17 3-.613 2.962-1.254 4.38-3 7l5-1-2 3h-2v2c1.925 1.15 1.925 1.15 4 1 3.083-3.87 5.532-8.008 6-13h-2c.875-4.875.875-4.875 2-6Z"/><path fill="#C9162A" d="M108 30h3v4h5l-2 1v6l5 1v2l-5 1-2 11-3 1c-.754 4.98-.754 4.98-1 10l5 5 2-22 5-1 2-6h3l1 7 1-9 4-1 2 2c2.5.333 2.5.333 5 0l2-2h3l-1-6 5 2v-5h3c1.125 4.75 1.125 4.75 0 7h-2c2.42 4.202 5.156 8.08 8 12l1-2h2v-2h-3v-2h4l-1.563-1.188L157 41c.313-2.688.313-2.688 1-5 5.244-1.748 9.473-2.194 15-2v2h2l.313 1.938L176 40l3 1c.054 1.416.093 2.833.125 4.25l.07 2.39c-.212 2.567-.908 4.152-2.195 6.36l-2-1 1 2c2.527.656 2.527.656 5 1l-.07-1.977c-.106-5.11.05-9.227 2.07-14.023h-2v-5c4.332-.263 7.88.708 12 2v-3h-3v-2l5 1v8h-2l2 3c.438 2.938.438 2.938 0 6-2.5 2.375-2.5 2.375-5 4l-3-2v-2h5v-5c-2.416-.167-2.416-.167-5 0-2.495 2.495-2.36 3.673-2.625 7.125l-.227 2.758L184 57l4-1v3l-2-1a302166228.929 302166228.929 0 0 1 1.465 6.738c.534 2.407.534 2.407 1.535 5.262 3.167-1.833 3.167-1.833 5-5 .981 3.053.981 4.947 0 8h-2l.25 3.188c-.287 4.38-1.198 5.76-4.25 8.812-2.986 1.493-5.709 1.118-9 1l-2-1a294.9 294.9 0 0 0 .875 3.938l.492 2.214c.463 2.055.463 2.055 2.633 2.848v2h3v3h2l1 5h-4l1 7-2 1-1 3h-2v6h-2v-2c-2.473.344-2.473.344-5 1l-1 2v-4h-5l2-3h4l-.125-2.75c.12-3.128.516-4.636 2.125-7.25l-6-2v3h-2v-3h-2v5l2 1c-2.238 3.357-3.219 3.92-7 5-2.063-.313-2.063-.313-4-1l-2.25-.563L151 112v-2h-5v3h-2v-6l-4 1c.557-3.344 1.352-6.033 3-9h-2v-2h6v4h6v-2h-2v-2h2v-2l-2-1 1-7 1 2 2.52-1.094 3.292-1.406 3.27-1.406C165 84 165 84 168 84l-2-3v-3l-3.25-.375c-3.129-.521-5.085-1.026-7.75-2.625v2h-5v2l-3 1c-1.225 3.008-1.225 3.008-2 6l-6-1-1 11h-20l-1-11-6-2v-2h-2v-2h-3v-2h-4l-1-2-2.75.938c-2.416.79-4.778 1.491-7.25 2.062-.167 2.416-.167 2.416 0 5 2.694 2.694 5.359 2.996 9 4 1.354.625 2.7 1.272 4 2l1-2 1 8h-2l1 3h-2v2l7 1v-4h6l1 3h-2l1 1.75c1 2.25 1 2.25 1 6.25l-4-1v5h-2v-2h-5v2c-3.375.625-3.375.625-7 1l-2-2h-4v-2l-2-1h2v-5h-2l-2 2-1-3c-2.233.857-2.233.857-4 3-.06 3.071.42 5.99 1 9l5 1 1 5-5-1v3h-2v-2l-5-1v2h-2v-6h-2l-1-3-2-1v-7h-3c.588-3.024 1.227-6.018 2-9l4 1 1-3h2v-7l-1.828.14c-6.583.298-6.583.298-9.61-1.953-2.31-3.234-3.881-5.753-4.75-9.624l-.542-2.31c-.285-2.383.001-3.984.73-6.253v2l5 1 1-4h2v-7l-3-1h5c-.114-1.626-.242-3.25-.375-4.875-.07-.905-.14-1.81-.21-2.742-.21-2.562-.21-2.562-2.415-4.383h-4l-1 6h3l-1 4h-2c-2.867-3.75-3.297-6.352-3-11V33l2 1v3l6 1 1-3 5 1-1 3-3-1 .875 1.652C74.72 45.432 75.408 49.576 75 56h4l-1-2c-.07-1.874-.084-3.75-.063-5.625l.028-3.04L78 43h3v-6h2v-3c6.518-.354 11.175-.039 17 3-.613 2.962-1.254 4.38-3 7l5-1-2 3h-2v2c1.925 1.15 1.925 1.15 4 1 3.083-3.87 5.532-8.008 6-13h-2c.875-4.875.875-4.875 2-6Z"/><path fill="#1654B2" d="m105.2 124.867 5.68-.003c3.931-.001 7.863 0 11.796.006 5.034.005 10.069.002 15.103-.004 3.894-.004 7.788-.002 11.682 0 1.857 0 3.715 0 5.573-.002 2.586-.003 5.172.001 7.758.007l2.306-.007c3.76.015 7.247.231 10.902 1.136-.54 2.367-.54 2.367-2 5-2.557.964-4.73 1.6-7.375 2.125-4.51.959-8.023 1.854-11.625 4.875h-2c.668 3.004.668 3.004 2.582 4.098 7.033 3.042 13.976 3.663 21.548 4.13l2.554.182 2.298.13c2.467.563 3.413 1.55 5.018 3.46v-4l3.75.188c3.866.02 5.202-.828 8.25-3.188 5.762-.665 9.784.804 15 3-5.33 5.493-9.756 8.247-17.583 8.648-2.643.036-5.278.045-7.92.03-1.461.01-2.922.023-4.384.037-3.95.031-7.9.03-11.851.022-3.308-.004-6.615.007-9.922.018-7.809.025-15.617.024-23.426.007-8.034-.018-16.066.009-24.1.057-6.916.04-13.833.052-20.75.043-4.122-.005-8.244 0-12.366.03-3.88.03-7.76.023-11.64-.009-1.416-.006-2.832 0-4.248.019-9.764.12-16.254-1.546-23.81-7.902-1.56-1.646-2.953-3.314-4.336-5.11-2.95-3.351-6.56-5.95-10.078-8.68C25 131 25 131 21 126h45l-2 5c-2.61 1.04-2.61 1.04-5.75 1.625-4.52.953-8.196 2.088-12.25 4.375l-3 1c.991 3.195 1.933 3.964 4.922 5.574 5.615 2.282 11.624 2.236 17.603 2.598l2.737.203 2.467.148c2.711.57 4.188 1.691 6.271 3.477v-4l8 2 1-3h2l1-3c5.537-.426 9.897 1.095 15 3l-2-3v-3h3c-.776-3.075-.776-3.075-3-5l1-2-2.012.691-2.675.871-2.637.88c-4.59.957-7.937-.376-11.989-2.505l-2.113-1.097L80 130v2c-5.32.349-5.32.349-8 0-2-1.875-2-1.875-3-4v-2c12.082-.927 24.086-1.148 36.2-1.133Z"/><path fill="#C91126" d="M147 31h3c1.125 4.75 1.125 4.75 0 7h-2c2.42 4.202 5.156 8.08 8 12l1-2h2v-2h-3v-2h4l-1.563-1.188L157 41c.313-2.688.313-2.688 1-5 5.244-1.748 9.473-2.194 15-2v2h2l.313 1.938L176 40l3 1c.054 1.416.093 2.833.125 4.25l.07 2.39c-.212 2.567-.908 4.152-2.195 6.36l-2-1 1 2c2.527.656 2.527.656 5 1l-.07-1.977c-.106-5.11.05-9.227 2.07-14.023h-2v-5c4.332-.263 7.88.708 12 2v-3h-3v-2l5 1v8h-2l2 3c.438 2.938.438 2.938 0 6-2.5 2.375-2.5 2.375-5 4l-3-2v-2h5v-5c-2.416-.167-2.416-.167-5 0-2.495 2.495-2.36 3.673-2.625 7.125l-.227 2.758L184 57l4-1v3l-2-1c.31 1.438.623 2.875.938 4.313l.527 2.425c.534 2.407.534 2.407 1.535 5.262 3.167-1.833 3.167-1.833 5-5 .981 3.053.981 4.947 0 8h-2l.25 3.188c-.287 4.38-1.198 5.76-4.25 8.812-2.986 1.493-5.709 1.118-9 1l-2-1a294.9 294.9 0 0 0 .875 3.938l.492 2.214c.463 2.055.463 2.055 2.633 2.848v2h3v3h2l1 5h-4l1 7-2 1-1 3h-2v6h-2v-2c-2.473.344-2.473.344-5 1l-1 2v-4h-5l2-3h4l-.125-2.75c.12-3.128.516-4.636 2.125-7.25l-6-2v3h-2v-3h-2v5l2 1c-2.238 3.357-3.219 3.92-7 5-2.063-.313-2.063-.313-4-1l-2.25-.563L151 112v-2h-5v3h-2v-6l-4 1c.557-3.344 1.352-6.033 3-9h-2v-2h6v4h6v-2h-2v-2h2v-2l-2-1 1-7 1 2 2.52-1.094 3.292-1.406 3.27-1.406C165 84 165 84 168 84l-2-3v-3l-3.25-.375c-3.129-.521-5.085-1.026-7.75-2.625v2h-5v2l-3 1c-1.225 3.008-1.225 3.008-2 6l-6-1 1.413-1.222c1.849-2.072 2.308-3.547 2.974-6.227l.654-2.569.647-2.67.681-2.705c.553-2.2 1.096-4.402 1.631-6.607-2.358.893-2.358.893-3.125 4.063L143 70h-4c-1.99-5.772-2.245-10.862-2.125-16.938l.027-2.65c.024-2.137.06-4.275.098-6.412h-3v17h-2V42h6l2-2h3l-1-6 5 2v-5Z"/><path fill="#1D52B0" d="M0 125h85v1H69l3 4v2h8v-2c2.61.483 4.107 1.075 6.313 2.625 3.645 1.865 5.725 1.195 9.687.375l7-1c1.46 2.647 2 3.894 2 7h-3l2 6c-7.875-.875-7.875-.875-9-2-2.873-.501-2.873-.501-6 0-2.404 2.378-2.404 2.378-4 5-2.763-.523-5.326-1.109-8-2v4l-1.706-.97c-2.478-1.113-4.296-1.362-6.997-1.522l-2.723-.2a767.302 767.302 0 0 0-5.601-.343C54.234 146.53 48.569 145.812 44 142c-.712-2.136-.712-2.136-1-4 6.704-4.05 12.944-7.604 21-7l2-5-44 1c8.335 7.693 8.335 7.693 17 15l2.25 2.375c3.087 2.947 6.361 5.115 9.957 7.39L53 153v1H0v-29Z"/><path fill="#CA0F25" d="m128 40 4 1v20h2V44h3l.076 1.728c.116 2.57.238 5.14.362 7.71l.119 2.72.127 2.588.11 2.396c.012 1.872.012 1.872 1.206 2.858.04 2 .043 4 0 6h4l1-6 3-1c-.525 6.504-1.336 12.978-4 19l-3 2c-.803 2.878-.803 2.878-1.188 6.125L138 96h-20l-1-11-4-1-1-11h2l-.035-2.492c-.056-6.911.168-13.65 1.035-20.508l5-1 2-6h3l1 7 .184-1.934.254-2.504c.08-.823.162-1.647.246-2.496C127 41 127 41 128 40Z"/><path fill="#C7182B" d="M171 64h1l.297 2.414C173.18 72.671 173.986 77.08 178 82l1 2h-3c.2 1.961.437 3.92.688 5.875l.386 3.305L178 96l5 2-2 17h-2v6h-2v-2c-2.473.344-2.473.344-5 1l-1 2v-4h-5l2-3h4l-.125-2.75c.12-3.128.516-4.636 2.125-7.25l-6-2v3h-2v-3h-2v5l2 1c-2.238 3.357-3.219 3.92-7 5-2.063-.313-2.063-.313-4-1l-2.25-.563L151 112v-2h-5v3h-2v-6l-4 1c.557-3.344 1.352-6.033 3-9h-2v-2h6v4h6v-2h-2v-2h2v-2l-2-1 1-7 1 2 2.52-1.094 3.292-1.406 3.27-1.406C165 84 165 84 168 84l-2-3v-3l-3.25-.375c-3.129-.521-5.085-1.026-7.75-2.625v2h-3v-3c3.058-.544 5.888-1 9-1l.75-1.813c1.445-2.528 2.733-3.738 5.25-5.187l3 1 1-3Z"/><path fill="#CCCCCD" d="M66 127c1.875.25 1.875.25 4 1 1.25 2.063 1.25 2.063 2 4h8v-2c2.61.483 4.107 1.075 6.313 2.625 3.645 1.865 5.725 1.195 9.687.375l7-1c1.46 2.647 2 3.894 2 7h-3l2 6c-7.875-.875-7.875-.875-9-2-2.873-.501-2.873-.501-6 0-2.404 2.378-2.404 2.378-4 5-2.763-.523-5.326-1.109-8-2v4l-1.706-.97c-2.478-1.113-4.296-1.362-6.997-1.522l-2.723-.2a767.302 767.302 0 0 0-5.601-.343C54.234 146.53 48.569 145.812 44 142c-.712-2.136-.712-2.136-1-4 6.704-4.05 12.944-7.604 21-7l2-4Z"/><path fill="#D2D2D2" d="M177 127c2.063.75 2.063.75 4 2l1 3 3.75-.5c4.962-.662 8.625-.556 13.25 1.5v2l1.828-.438c.8-.185 1.599-.37 2.422-.562l2.39-.563C208 133 208 133 212 133v3l3 1v2h-3l2 6c-5.75.125-5.75.125-8-1-4.82-.519-4.82-.519-8.938 1.563-2.518 1.755-3.342 1.51-6.312 1.125L187 146v4l-3-1v-2l-2.816.07c-12.15.178-12.15.178-18.184-2.07l-2.379-.66-2.496-.715-2.305-.648C154 142 154 142 153.242 139.898L153 138c6.11-4.79 13.24-7 21-7l1-3 2-1Z"/><path fill="#C1202F" d="m190 32 5 1v8h-2l2 3c.438 2.938.438 2.938 0 6-2.5 2.375-2.5 2.375-5 4l-3-2v-2h5v-5c-2.416-.167-2.416-.167-5 0-2.495 2.495-2.36 3.673-2.625 7.125l-.227 2.758L184 57l4-1v3l-2-1c.31 1.438.623 2.875.938 4.313l.527 2.425c.534 2.407.534 2.407 1.535 5.262 3.167-1.833 3.167-1.833 5-5 .981 3.053.981 4.947 0 8h-2l.25 3.188c-.287 4.38-1.198 5.76-4.25 8.812-2.986 1.493-5.709 1.118-9 1l-2-1a294.9 294.9 0 0 0 .875 3.938l.492 2.214c.463 2.055.463 2.055 2.633 2.848v2h3v3h2l1 5h-4l1 7-3 1c.14-1.959.288-3.917.438-5.875.08-1.09.162-2.181.246-3.305C182 100 182 100 183 98l-2.375-.25C178 97 178 97 176.844 95.25c-.94-2.504-1.047-4.337-.969-7l.055-2.422L176 84l2-1-1.875-1.938C172.468 75.793 171.407 69.376 172 63c1-2.375 1-2.375 2-4h2l1-3h4l-.07-1.977c-.106-5.11.05-9.227 2.07-14.023h-2v-5c4.332-.263 7.88.708 12 2v-3h-3v-2Z"/><path fill="#B8313B" d="m61 33 2 1v3l6 1 1-3 5 1-1 3-3-1 .875 1.652C74.72 45.432 75.408 49.576 75 56h4l-1-2c-.07-1.874-.084-3.75-.063-5.625l.028-3.04L78 43h2l1 6h-2v3h2v6h2v3l2 1c.027 1.937.046 3.875.063 5.813l.035 3.269c-.117 3.477-.441 5.27-2.946 7.742l-2.215 1.864-2.222 1.886L76 84h4l-1 9h-1v-7l-1.828.14c-6.583.298-6.583.298-9.61-1.953-2.31-3.234-3.881-5.753-4.75-9.624l-.542-2.31c-.285-2.383.001-3.984.73-6.253v2l5 1 1-4h2v-7l-3-1h5c-.114-1.626-.242-3.25-.375-4.875-.07-.905-.14-1.81-.21-2.742-.21-2.562-.21-2.562-2.415-4.383h-4l-1 6h3l-1 4h-2c-2.867-3.75-3.297-6.352-3-11V33Z"/><path fill="#C51A2C" d="M147 31h3c1.125 4.75 1.125 4.75 0 7h-2c2.42 4.202 5.156 8.08 8 12l1-2h2v-2h-3v-2h4v-2h4l2 6h-5l-1 5c-4.875-.875-4.875-.875-6-2l-1 5-3 1c2.386 1.892 4.072 3.024 7 4v3l-4 1v2h-2l-1 3-2 1c-.656 1.914-.656 1.914-1.063 4.188l-.496 2.445c-.519 2.783-1.01 5.568-1.441 8.367l-6-1 1.413-1.222c1.849-2.072 2.308-3.547 2.974-6.227l.654-2.569.647-2.67.681-2.705c.553-2.2 1.096-4.402 1.631-6.607-2.358.893-2.358.893-3.125 4.063L143 70h-4c-1.99-5.772-2.245-10.862-2.125-16.938l.027-2.65c.024-2.137.06-4.275.098-6.412h-3v17h-2V42h6l2-2h3l-1-6 5 2v-5Z"/><path fill="#CA0E24" d="M85 35h6l-2 5 7 1-3 1v3h-2v3h4v-3h2v7l7-1v4l3 1-.5 3.25c-.802 5.007-.802 5.007.5 9.75l-8-2-1 3h-3v-2h-4v-2l-3 2h-3v-6l-3-1 1-3h-2v-6h-2v-3h2l-1-6h2v-3l2-1c.652-2.025.652-2.025 1-4Z"/><path fill="#C6192B" d="m88 77 2 1v3h-2v3l2.063.375C94.93 85.411 99.632 86.555 104 89l1-2 1 8h-2l1 3h-2v2l7 1v-4h6l1 3h-2l1 1.75c1 2.25 1 2.25 1 6.25l-4-1v5h-2v-2h-5v2c-3.375.625-3.375.625-7 1l-2-2h-4v-2l-2-1h2l-1-6-6-1 4-1 .188-3.75.105-2.11c-.129-2.26-.129-2.26-1.79-4.081-1.891-2.59-1.847-4.078-1.753-7.246l.047-2.668C87 78 87 78 88 77Z"/><path fill="#C5172A" d="M169 83c-.752 6.519-.752 6.519-2.063 9.063-1.296 2.679-1.07 5.005-.937 7.937l4 1-5 1-1 6 2 1c-2.238 3.357-3.219 3.92-7 5-2.063-.313-2.063-.313-4-1l-2.25-.563L151 112v-2h-5v3h-2v-6l-4 1c.557-3.344 1.352-6.033 3-9h-2v-2h6v4h6v-2h-2v-2h2v-2l-2-1 1-7 1 2 2.52-1.059 3.292-1.379 3.27-1.37C167.449 83 167.449 83 169 83Z"/><path fill="#1154B4" d="M180 126h57c-2.788 4.647-4.129 6.137-8.375 9.063-4.82 3.352-9.567 6.665-13.625 10.937v-3l-3-1v-3h3l-1.5-1.313C212 136 212 136 212 133l-2.563 1c-3.647 1.061-6.66 1.151-10.437 1v-2c-3.153-.7-5.727-1-9-1h-8l-2-6Z"/><path fill="#0F53B4" d="M69 126h57c-5.626 6.751-5.626 6.751-8.227 8.703l-1.687 1.281-1.711 1.266-1.734 1.313A161.984 161.984 0 0 1 105 144l-3-2v-3h3c-.776-3.075-.776-3.075-3-5l1-2-2.012.691-2.675.871-2.637.88c-4.59.957-7.937-.376-11.989-2.505l-2.113-1.097L80 130v2c-5.32.349-5.32.349-8 0-2-1.875-2-1.875-3-4v-2Z"/><path fill="#F2E8E8" d="M102 75v2h4v2h3v2h2v2l7 2v11h19v1h-19l-1 3-1-2c-3.03-.658-3.03-.658-6-1v4l-7-1 1.063-2.688c.968-3.42 1.299-5.044-.063-8.312-2.8-1.565-5.574-2.146-8.688-2.938C92 85 92 85 90 82c.133-2.043.133-2.043 1-4 1.742-1.3 1.742-1.3 3.875-2.313l2.117-1.05C99 74 99 74 102 75Z"/><path fill="#C01B2B" d="M108 30h3v4h5l-2 1v6l5 1v2l-5 1-2 11-3 1c-1.225 3.008-1.225 3.008-2 6h-1l1-7-4-1 1-4-7 1v-7h-2v3h-4v-3h2c-.267-1.985-.267-1.985-1-4l-3-1 2-5h-6v6l-3-1-1 3v-6h2v-3c6.518-.354 11.175-.039 17 3-.613 2.962-1.254 4.38-3 7l5-1-2 3h-2v2c1.925 1.15 1.925 1.15 4 1 3.083-3.87 5.532-8.008 6-13h-2c.875-4.875.875-4.875 2-6Z"/><path fill="#B34047" d="M140 44c1.675.286 3.344.618 5 1v5h2v6l1.813.875C151 58 151 58 154 60l3 1v3l-4 1v2h-2l-1 3-2 1c-.656 1.914-.656 1.914-1.063 4.188l-.496 2.445c-.519 2.783-1.01 5.568-1.441 8.367l-6-1 1.413-1.222c1.849-2.072 2.308-3.547 2.974-6.227l.654-2.569.647-2.67.681-2.705c.553-2.2 1.096-4.402 1.631-6.607-2.358.893-2.358.893-3.125 4.063L143 70h-4c-.029-4.146-.047-8.292-.063-12.438l-.025-3.587-.01-3.409-.016-3.158C139 45 139 45 140 44Z"/><path fill="#838DA7" d="m171 112 1 3-5 2 1.875.375C171 118 171 118 173 120v4h83v1H0v-1h170v-5h-3l-1 2c-.625-2.375-.625-2.375-1-5l2-2h4v-2Z"/><path fill="#CDCECF" d="M80 130c2.61.483 4.107 1.075 6.313 2.625 3.645 1.865 5.725 1.195 9.687.375l7-1c1.46 2.647 2 3.894 2 7h-3l2 6c-7.875-.875-7.875-.875-9-2-2.873-.501-2.873-.501-6 0-2.404 2.378-2.404 2.378-4 5-4.75-.75-4.75-.75-7-3l2-2-4 1v-4c2.293-2.135 4.006-3.002 7-4l-8-3v-1h5v-2Z"/><path fill="#B4B9C2" d="M193.125 130.813 195 132c1.324.368 2.656.712 4 1v2l1.828-.438 2.422-.562 2.39-.563C208 133 208 133 212 133v3l3 1v2h-3l2 6c-5.75.125-5.75.125-8-1-4.82-.519-4.82-.519-8.938 1.563-2.518 1.755-3.342 1.51-6.312 1.125L187 146c3-2 3-2 5-2l-1-3h-2l1-6-5-2v-1c5.426-2.22 5.426-2.22 8.125-1.188Z"/><path fill="#F5EFEF" d="M181 58c.838 1.622 1.67 3.248 2.5 4.875l1.406 2.742C186 68 186 68 186 70h-5l-1-3 1 10h2v-3a99.984 99.984 0 0 1 5 0c1 1 1 1 1.25 3.875-.25 3.125-.25 3.125-1.313 5-3.175 1.844-5.348 1.682-8.937 1.125-5.79-5.018-6.693-10.928-7.25-18.313.256-2.755.721-4.394 2.25-6.687 2.463-1.231 4.28-1.072 7-1Z"/><path fill="#F8F4F4" d="M75 57c1.675.286 3.344.618 5 1v5h4c-.187 12.554-.187 12.554-2.11 15.973C80.563 80.25 80.563 80.25 78 82l-2 2c-3.071.327-5.15.481-7.875-1.063C66.401 79.968 66.752 77.353 67 74c1-1 1-1 3.563-1.063L73 73v4l-2 1 4-1 1-10-1 2h-4c.475-1.814.955-3.626 1.438-5.438l.808-3.058C74 58 74 58 75 57Z"/><path fill="#E5E2E2" d="m79 119 5 1v2l85 1-3-2 1-2h3v5H0v-1h78l1-4Z"/><path fill="#C53644" d="m128 5 2 1c.625 3.063.625 3.063 1 6l8-1-1 3-5 1v3l1.875.938L139 21v2l-8-1-2 6h-2l-1-6h-7l1.563-1.75c1.65-2.096 1.65-2.096 1.312-4.313-.974-2.157-2.099-3.392-3.875-4.937h8l2-6Z"/><path fill="#B75156" d="m68 65 1 2h2v2h4l1-3 1 1a67.896 67.896 0 0 1-.313 4.938l-.238 2.714C76 77 76 77 74 79c-2.125-.375-2.125-.375-4-1l3-1v-4l-5 1c-.167 3.417-.167 3.417 0 7 2.495 2.495 3.673 2.36 7.125 2.625l2.758.227L80 84l-1 9h-1v-7l-1.828.14c-6.583.298-6.583.298-9.61-1.953-2.31-3.234-3.881-5.753-4.75-9.624l-.542-2.31c-.285-2.383.001-3.984.73-6.253v2l5 1 1-4Z"/><path fill="#C51C2E" d="m168 85-.875 1.938c-1.45 3.946-2.283 7.95-3.125 12.062h-3v-3h-2l-1 5-3 1-2-1v-2h-2v-2h2v-2l-2-1 1-7 1 2 2.012-.875L157.687 87l2.637-1.125c2.733-.894 4.823-1.04 7.676-.875ZM190 32l5 1v8h-2l2 3c.438 2.938.438 2.938 0 6-2.5 2.375-2.5 2.375-5 4l-3-2v-2h5v-5c-2.374-.334-2.374-.334-5 0-2.99 2.456-3.266 5.08-3.688 8.75A211.113 211.113 0 0 0 183 58h-1c-.113-6.11.104-11.952 1-18h-2v-5c4.332-.263 7.88.708 12 2v-3h-3v-2Z"/><path fill="#D3D3D3" d="m65 132-2 4 2 2v3l3-1-1 3h-4l-2-4-1 1v2l-3-1v-2l-2 1c-.652 2.025-.652 2.025-1 4-3.699-.888-7.346-1.946-11-3v-3c7.766-4.568 12.9-6.318 22-6Z"/><path fill="#C82335" d="m30 62 1 2h2v4l8-1-1 3c-2.063.688-2.063.688-4 1v3h2a105.022 105.022 0 0 1 4 5l-10-2-1 6c-1.46-2.647-2-3.894-2-7l-2.313 1.063C24 78 24 78 21 77l4-3-.938-1.875L22 68l7 1 1-7Z"/><path fill="#FAF8F8" d="m119 42 3 2-1 10h-1v-5l-4 1-.168 1.697a3601.04 3601.04 0 0 1-.77 7.615l-.263 2.67-.264 2.569-.238 2.364C114 69 114 69 113 72c-2.624-.995-4.032-2.035-5.938-4.125-1.399-3.787-.51-5.58.981-9.203C109 57 109 57 111 56c.566-2.8.895-5.6 1.242-8.434C113 45 113 45 114.945 43.59 117 43 117 43 119 44v-2Z"/><path fill="#B20B1A" d="m92 42 1 3h-2v3h4v-3h2v7l7-1v4l3 1-.5 3.25c-.802 5.007-.802 5.007.5 9.75l-8-2-1 3h-3v-2h-2v-3l3.375-.25c3.62-.345 3.62-.345 5.063-2.563.728-2.456.728-2.456.562-6.187l-2-1v-2c-1.625-.168-3.25-.334-4.875-.5l-2.742-.281c-2.316-.25-2.316-.25-4.383-.219v-3l-3-1c2.11-3.166 3.735-4.196 7-6Z"/><path fill="#C72536" d="M107 60c.687 2.49 1 4.379 1 7 2.438 2.688 2.438 2.688 5 5l1-3-.5 1.938c-.66 4.038-.58 7.98-.5 12.062h-2v-2h-2v-2h-3v-2h-4l-2-6h-2l1-4 7 1-2-4 3-1v-3Z"/><path fill="#CC0C23" d="M119 88h19l-1 7c-3.188 1.594-6.629 1.102-10.125 1.063l-2.285-.014c-1.863-.012-3.727-.03-5.59-.049v-8Z"/><path fill="#C91025" d="m165 63 6 2-1 3-1.75-.75L166 67c-2.271 1.854-2.271 1.854-4 4l1 2h-2l-1 2-1.75-.5c-2.517-.645-2.517-.645-6.25-.5v3h-2v2l-5 1c.273-3.19.739-6.045 2-9 2.92-2.357 6.205-4 10-4l1-2 1.813.5c2.3.611 2.3.611 5.187.5v-3Z"/><path fill="#C22131" d="M222 60c1.46 2.647 2 3.894 2 7l8-1-2 1.875c-2.228 1.881-2.228 1.881-2 4.125a141.4 141.4 0 0 0 5 5l-8-1v2h-2l-1 4-1-7h-5l.625-2.313c.709-2.906.709-2.906-1.625-5.687l6 1 1-8Z"/><path fill="#D6D6D8" d="M66 132c7.113-.452 11.715.672 18 4l-2 1c-.652 2.025-.652 2.025-1 4l-3-2-1 2h-2l1 2 6-1-1.938 1.75c-2.044 2.23-2.644 3.324-3.062 6.25l-1.813-.938C72.91 147.899 72.91 147.899 70 147c-.286-7.429-.286-7.429 2-11-1.652-1.652-3.849-2.173-6-3v-1Z"/><path fill="#F4ECEC" d="M140 44c2.063.438 2.063.438 4 1 1.138 4.266 2 7.565 2 12h2v3l-1.875 1.313C143.343 63.52 142.898 65.63 142 69h-2c-1.245-2.49-1.13-4.19-1.133-6.973l-.004-2.974.012-3.115-.012-3.127.004-2.971.004-2.739C139 45 139 45 140 44Z"/><path fill="#B73F47" d="M83 34c6.518-.354 11.175-.039 17 3-.613 2.962-1.254 4.38-3 7l5-1-2 3h-2v2c2.075 1.224 2.075 1.224 5 1l-1 3h-5v-7h-2v3h-4v-3h2c-.267-1.985-.267-1.985-1-4l-3-1 2-5h-6v6l-3-1-1 3v-6h2v-3Z"/><path fill="#B6353E" d="M110 97h6l1 3h-2l1 1.75c1 2.25 1 2.25 1 6.25l-4-1v5h-2v-2h-5v2c-3.375.625-3.375.625-7 1l-4-4c4.053-.982 7.839-1.082 12-1l1-2c2.563-.625 2.563-.625 5-1v-2l-8-1v-1h5v-4Z"/><path fill="#CCCED0" d="M80 130c2.61.483 4.107 1.075 6.313 2.625 3.645 1.865 5.725 1.195 9.687.375l7-1c1.46 2.647 2 3.894 2 7h-3l2 6c-6.152-.586-6.152-.586-8-1l-1-2 4 1c-1.119-3.726-1.119-3.726-4-6l-1-1c-2.333-.04-4.667-.042-7 0v-2l-2.625.625c-3.74.415-5.924-.228-9.375-1.625v-1h5v-2Z"/><path fill="#B53B43" d="M141 97h6v4h5l-4 2v3l-1 3 2.813-.125C153 109 153 109 156 111c2.064-.328 2.064-.328 4-1h2l1-7h1v5l2 1c-2.238 3.357-3.219 3.92-7 5-2.063-.313-2.063-.313-4-1l-2.25-.563L151 112v-2h-5v3h-2v-6l-4 1c.557-3.344 1.352-6.033 3-9h-2v-2Z"/><path fill="#D4D4D5" d="M209 134c1.62 3.544 2.104 6.127 2 10l-2.555-.727-3.32-.898-3.305-.914L199 141l-2 2h-4l-1-8 2.047.035 2.703.028 2.672.035C202.74 134.972 205.67 134 209 134Z"/><path fill="#B0494C" d="M191 73h1c.325 4.14.43 6.34-1.875 9.875-2.841 2.841-3.537 3.104-7.625 3.25C179 86 179 86 177 85a294.9 294.9 0 0 0 .875 3.938l.492 2.214c.463 2.055.463 2.055 2.633 2.848v2h3v3h2l1 5h-4l1 7-3 1c.14-1.959.288-3.917.438-5.875.08-1.09.162-2.181.246-3.305C182 100 182 100 183 98l-2.375-.25C178 97 178 97 176.844 95.25c-.94-2.504-1.047-4.337-.969-7l.055-2.422L176 84l2.117-.148 2.758-.227c.905-.07 1.81-.14 2.742-.21 2.562-.21 2.562-.21 4.383-2.415a530 530 0 0 0 1-5l2-3Z"/><path fill="#FBFAFA" d="M65 44c3.257.418 4.634.634 7 3 .195 2.383.195 2.383.125 5.125l-.055 2.758L72 57l-2 1v7h-1v-6h-3v-3h-3l1-3v2h2l1-4h-3c-.043-2-.04-4 0-6l1-1Z"/><path fill="#BD666A" d="m139 41 3 1 1 3h-3l-1 19-2-1V44h-3v17h-2V42h6l1-1Z"/><path fill="#BB797A" d="M78 43h2l1 6h-2v3h2v6h2v3l2 1c.054 1.937.093 3.875.125 5.813l.07 3.269C85 74 85 74 83 77c-.083-4.833.047-9.237 1-14h-4v-5h-6l-1-14c2.136 3.204 2.231 4.02 2.125 7.688l-.055 2.449L75 56h4l-1-2c-.07-1.874-.084-3.75-.063-5.625l.028-3.04L78 43Z"/><path fill="#E6D4D4" d="M189.688 44.313 192 45v5h-5c1.375 1.542 1.375 1.542 3 3h2v3h-2v4h-3l-1 3v-5l2-1h-4c-.081-1.603-.14-3.208-.188-4.813l-.105-2.707C184 47 184 47 185.344 45.156 187 44 187 44 189.688 44.313Z"/><path fill="#B50C1C" d="m88 77 2 1v3h-2v3l3 1h-2l.875 1.793C93.562 94.641 93.562 94.641 93 99h2v-3h3c.043 1.666.04 3.334 0 5l-1 1a101.93 101.93 0 0 1-5.563-.438l-3.066-.308L86 101l4-1 .188-3.75.105-2.11c-.129-2.26-.129-2.26-1.79-4.081-1.891-2.59-1.847-4.078-1.753-7.246l.047-2.668C87 78 87 78 88 77Z"/><path fill="#DADBDC" d="M176 142c2.001.326 4.001.66 6 1 3.549.142 6.598.047 10-1v2l-5 1v5l-3-1v-2l-2.957.035-3.856.028-3.832.035C170 147 170 147 167 146v-2l6.152-.684c1.86-.135 1.86-.135 2.848-1.316Z"/><path fill="#D6D9DD" d="M54 134v10c-3.693-.923-7.343-1.945-11-3v-3c6.5-4 6.5-4 11-4Z"/><path fill="#F7F7F7" d="M163 135c1.478 2.957 1.06 5.742 1 9l-3.813-.375c-.707-.07-1.415-.14-2.144-.21C156 143 156 143 153 141v-3c6.625-3 6.625-3 10-3Z"/><path fill="#CCC" d="m83 137 1 2h2v2l-2 1 4 1c0 2 0 2-1.188 3.688C85 148 85 148 82.439 147.813 80 147 80 147 78 145l2-2-4 1v-4c2.505-2.418 3.46-3 7-3Z"/><path fill="#E9DDDD" d="m119 42 3 2-1 10h-1v-5l-4 1-1 10h-1l-.375-2.938L113 54l-2-1c.423-1.484.864-2.962 1.313-4.438l.738-2.496L114 44l3-1 2 1v-2Z"/><path fill="#B7575B" d="m82 104 2 1c.414 2.066.414 2.066.625 4.563l.227 2.503L85 114l5 1 1 5-5-1v3h-2v-2l-5-1v2h-2v-5l1 2h6l-.438-1.793c-.97-4.132-1.838-7.93-1.562-12.207Z"/><path fill="#D0A8A8" d="M221 59h3l1 7h5v1h-6l-2-4-1 5h-5l1.063 1.875L218 72l-1 2 4 1-1 2h-8l1.5-1.813c1.783-2.157 1.783-2.157 1.5-5.187-.98-1.02-1.979-2.021-3-3v-2c5.75.875 5.75.875 8 2l-.063-2.875C220 61 220 61 221 59Z"/><path fill="#B21220" d="m92 42 1 3h-2v3h4v-3h2v7l4 1c-1.666.043-3.334.04-5 0l-1-1c-2.333-.04-4.667-.042-7 0v-3l-3-1c2.11-3.166 3.735-4.196 7-6Z"/><path fill="#B97475" d="M121 44h1v18h-2c-1.262-2.525-1.099-4.312-1.063-7.125l.028-2.758L119 50h-2l-2 19h-1c-.103-6.417.255-12.627 1-19l5-1 1-5Z"/><path fill="#B95A5E" d="m190 32 5 1v8l-2-1 1-2c-1.481.281-2.96.575-4.438.875l-2.496.492L185 40l-1 2-1-2h-2v-5c4.332-.263 7.88.708 12 2v-3h-3v-2Z"/><path fill="#CBA1A1" d="M76 93h2v3h-2v2l-3 1 1 1c.26 1.471.459 2.953.625 4.438.095.803.19 1.606.29 2.433C75 109 75 109 74 111h-2v-7h-3c.588-3.024 1.227-6.018 2-9l4 1 1-3Z"/><path fill="#BA7677" d="m182 44 .438 1.938c.372 2.037.372 2.037 1.562 3.062.141 2.67.042 5.324 0 8l4-1v3l-2-1 1 7c-2-1-2-1-3-4l-2 1-1-4h-5l1-2h4l-.035-2.117-.028-2.758-.035-2.742C181 46 181 46 182 44Z"/><path fill="#B80B1C" d="m138 65 1 3c-1.18 1.902-1.18 1.902-2.875 3.938-2.22 2.68-3.522 4.608-4.125 8.062h-2c1.041-3.866 2.037-7.495 4-11l-3.688 1c-3.184.803-6.01 1.206-9.312 1l1-2c2.69-.8 5.332-1.495 8.063-2.125l2.298-.55c1.878-.45 3.758-.888 5.639-1.325Z"/><path fill="#B15658" d="M160 42h4l2 6h-5l-1 5-5-1v-3l2 1v-2h2v-2h-3v-2h4v-2Z"/><path fill="#B30B1A" d="M169 83c-.752 6.519-.752 6.519-2.063 9.063-1.296 2.679-1.07 5.005-.937 7.937l4 1c-6.4 2.215-6.4 2.215-9.438 1.125L159 101v-5h2v3h3l-.25-3.063c.307-4.84 1.634-6.93 4.25-10.937l-3-1c3-1 3-1 4-1Z"/><path fill="#CBCBCA" d="m182 135 3 2c-.613 2.962-1.254 4.38-3 7l-2-1-1 2v-2l-4 1-1-7 4-1 1 3 2-3 1-1Z"/><path fill="#C58889" d="m128 5 2 1c.625 3.063.625 3.063 1 6l8-1-1 3c-1.813.813-1.813.813-4 1l-1.777-.98c-2.798-1.284-4.91-1.218-7.973-1.145l-2.984.055L119 13l-1-2h8l2-6Z"/><path fill="#B83E47" d="M72 49c2 2 2 2 2.266 4.426l-.016 2.886.016 2.864C73.988 62.126 73.23 64.319 72 67h-3l1-9-3-1h5v-8Z"/><path fill="#EEE5E5" d="m155 36 3 1-1 4 3 1v2h-4v2h3v2h-2l1 3c-2.622-1.049-3.794-1.65-5.25-4.125L152 45h2l1-9Z"/><path fill="#AE0917" d="m170 37 3 2c-.256 1.607-.53 3.21-.813 4.813l-.457 2.707c-.804 2.732-1.41 3.847-3.73 5.48-2.725.39-5.231.136-8 0l1-3 2.938.063c2.937.293 2.937.293 4.062-1.063.395-1.846.742-3.702 1.063-5.563l.535-3.066L170 37Z"/><path fill="#B96668" d="M66 75h1l.625 3.375c.986 3.823.986 3.823 4.188 5.063 2.827.499 5.327.73 8.187.562l-1 9h-1v-7l-1.828.14c-6.447.292-6.447.292-9.797-1.703-1.932-3.424-1.238-5.7-.375-9.437Z"/><path fill="#BF5259" d="M191 41h2c2.33 3.496 2.588 4.887 2 9-2.5 2.375-2.5 2.375-5 4l-3-2v-2h5v-5h-2l1-4Z"/><path fill="#AF5759" d="M179 94h2v2h3v3h2l1 5h-4l1 7-3 1c.141-1.938.288-3.875.438-5.813.08-1.078.162-2.157.246-3.269C182 100 182 100 183 97h-3l-1-3Z"/><path fill="#B92430" d="M122 43h3c.993 5.707 1.105 11.214 1 17h-1l-1-7-1 8h-1V43Z"/><path fill="#A4ADBC" d="M80 130c2.57.476 4.119 1.08 6.313 2.563 3.386 1.811 5.902 1.66 9.687 1.437-2 2-2 2-5.625 2.125L87 136v-2l-2.625.625c-3.74.415-5.924-.228-9.375-1.625v-1h5v-2Z"/><path fill="#C17679" d="M108 30h3v4l2 1-1 2h-3l.188 2.375L109 42l-3 2 2-8h-2c.875-4.875.875-4.875 2-6Z"/><path fill="#B43D44" d="M146 68h1c-.14 2.438-.288 4.875-.438 7.313l-.119 2.091c-.192 3.068-.466 5.666-1.443 8.596l-6-1 1.363-1.05c2.34-2.788 2.894-5.64 3.825-9.138l1.042-3.855L146 68Z"/><path fill="#B50C1C" d="M83 58h2v3h2l1 2h4l-1 4-6 1v-6l-3-1 1-3Z"/><path fill="#B42933" d="M110 97h6l1 3h-2v3l-10-1v-1h5v-4Z"/><path fill="#B46466" d="m180 66 1 4h5l-4 1v2h5l-4 1v3l3 1c-1.875.625-1.875.625-4 1-2.475-2.475-2.387-3.64-2.688-7.063l-.261-2.722L179 67l1-1Z"/><path fill="#DBC1C1" d="m69 45 3 2c.293 2.383.293 2.383.188 5.125l-.083 2.758L72 57l-2 1v7h-1v-6h-3v-3h-3l1-3v2h2l1-2v2h3c.113-5.083.113-5.083-1-10Z"/><path fill="#C31B2D" d="m64 40 8 1c2.125 6.625 2.125 6.625 1 10l-1.813-2.938C69.29 44.77 69.29 44.77 66 44v-2h-2v-2Z"/><path fill="#C99C9C" d="M163 103h1v5l2 1c-2.238 3.357-3.219 3.92-7 5-2.063-.313-2.063-.313-4-1l-2.25-.563L151 112v-2l-2-1 1.75.5c2.517.645 2.517.645 6.25.5h5l1-7Z"/><path fill="#BC6D6F" d="m30 62 1 2h2v4l8-1-1 3-4 1-1 3v-4l-3-1-1-2-2 2 1-7Z"/><path fill="#AB0815" d="m165 63 6 2-1 3-1.688-.688c-2.46-.577-2.46-.577-4.812 1.188-2.5 1.5-2.5 1.5-4.813 1.188L157 69l1-4 1.813.5c2.3.611 2.3.611 5.187.5v-3Z"/><path fill="#EEE4E4" d="m185 49 1 3 6 1v3h-2v4h-3l-1 3v-5l2-1-3-1v-7Z"/><path fill="#B9BEC5" d="M208 133h4v3l3 1v2h-3l2 6-4-1 .125-2.125c-.142-3.259-.992-5.831-2.125-8.875Z"/><path fill="#B65459" d="M108 108v2h-2v2c-3.375.625-3.375.625-7 1l-4-4c4.41-1.102 8.484-1.077 13-1Z"/><path fill="#DBDBDB" d="m98 136-5 2 1 3c-2.25.313-2.25.313-5 0-2.313-2.5-2.313-2.5-4-5 1.415-.197 2.832-.382 4.25-.563l2.39-.316c2.365-.121 4.111.183 6.36.879Z"/><path fill="#AEB3BB" d="M66 127c1.875.25 1.875.25 4 1l2 4H58v-1h6l2-4Z"/><path fill="#C89697" d="M173 36h2l.313 1.938L176 40l3 1c.054 1.458.093 2.916.125 4.375l.07 2.46C179 50 179 50 177 52v-3h-2l-.438-3.125c-.479-3.3-1-6.588-1.562-9.875Z"/><path fill="#B62F39" d="M169.188 33.938 173 34l-1 2h-2l-2 4-5-1-1-4c2.75-.917 4.36-1.109 7.188-1.063Z"/><path fill="#9AA6B9" d="m198 139 1 2 2.688-.125c3.285.124 5.366.739 8.312 2.125v2l-1.563-.5c-4.82-.989-9.195-1.215-13.437 1.5l-2-2 1.938-.813c2.393-1.074 2.393-1.074 3.062-4.187Z"/><path fill="#B1B4BA" d="M177 127c2.063.75 2.063.75 4 2l1 3h-12l4-1 1-3 2-1Z"/><path fill="#C6172A" d="m68 68 1 3h5v2l-7 2-1 5h-2c-.371-5.565-.371-5.565 1.438-7.688L67 71l1-3Z"/><path fill="#F7F7F7" d="M54 134v10l-4-1 1-5-2-1c2.75-3 2.75-3 5-3Z"/><path fill="#DEDEDE" d="M73 133c7.508.615 7.508.615 10 2.563L84 137h-2l-1 4v-4l-6 1-2-5Z"/><path fill="#BA434B" d="m22 68 7 1-2 1v5l2 1c-4.625 2.125-4.625 2.125-8 1l4-3-.938-1.875L22 68Z"/><path fill="#DFDFDF" d="m67 143 2 1v3c-1.625.027-3.25.046-4.875.063l-2.742.035C59 147 59 147 57 146v-2l1.934.035 2.504.028 2.496.035c2.058.135 2.058.135 3.066-1.098Z"/><path fill="#B4B9C1" d="M96 136h2v2l1.875.125L102 139c1.25 3.063 1.25 3.063 2 6-6.152-.586-6.152-.586-8-1l-1-2 4 1c-1.119-3.726-1.119-3.726-4-6l1-1Z"/><path fill="#B6474D" d="M141 97h6v4h5v1l-10 1 1-4h-2v-2Z"/><path fill="#C7CBD1" d="m156 136 2 1v4l2 1 1-3v5l-7-2-1-4 3-2Z"/><path fill="#BC0E1F" d="m164 43 5 2-1 4c-3.287.8-4.71 1.097-8 0l1-2 5 1-3-4 1-1Z"/><path fill="#B42832" d="m142 34 3 1v2h2v4l-7 1v-2h3l-1-6Z"/><path fill="#ABB0B9" d="M88 143c0 2 0 2-1.188 3.688C85 148 85 148 82.439 147.813 80 147 80 147 78 145c3.62-1.316 6.096-2 10-2Z"/><path fill="#F0E9E9" d="M75 47h3l1 9h-4v-9Z"/><path fill="#C28C8C" d="m190 32 5 1v8l-2-1 1-2h-8l1-2 6 1v-3h-3v-2Z"/><path fill="#BC0B1D" d="m160.125 63.938 2.758.027L165 64v2c-1.013.2-1.013.2-2.047.402l-2.703.535-2.672.528c-2.21.459-4.393.968-6.578 1.535v-2h2v-2c2.525-1.262 4.312-1.099 7.125-1.063Z"/><path fill="#E0C9C9" d="m119 42 3 2-1 10h-1v-5l-4-1h4v-2l-6-1 3-2 2 1v-2Z"/><path fill="#AF0B19" d="m153 50 3 2c-.628 2.929-1.586 5.361-3 8l-4-4h4v-6Z"/><path fill="#B8474E" d="M62 43h1l1 7 3 1-1 4h-2c-2.83-3.7-3.42-6.387-3-11l1-1Z"/><path fill="#C99596" d="M148 64h4c-.25 2.375-.25 2.375-1 5-2.063 1.313-2.063 1.313-4 2-.043-2-.04-4 0-6l1-1Z"/><path fill="#E3E3E4" d="M180 132c1.46.06 2.918.149 4.375.25l2.46.14c2.165.61 2.165.61 3.454 2.657L191 137h-2v-2h-8l-1-3Z"/><path fill="#EADCDC" d="M178 50h3v6h-5l-1-3h2l1-3Z"/><path fill="#B26162" d="M74 100c.195 1.457.38 2.916.563 4.375l.316 2.46C75 109 75 109 74 111h-2v-7l-2-1c2.875-3 2.875-3 4-3Z"/><path fill="#C59393" d="M76 67h1c-.114 1.626-.242 3.25-.375 4.875-.07.905-.14 1.81-.21 2.742C76 77 76 77 74 79c-2.125-.375-2.125-.375-4-1l3-1c1.103-3.308 2.05-6.646 3-10Z"/><path fill="#E0CBCB" d="M182 62c1.777 2.666 2.875 5.028 4 8h-5l-1-5h2v-3Z"/><path fill="#C89A9A" d="M179 94h2v2h3v3h2l1 5-4-2v-5h-3l-1-3Z"/><path fill="#B86669" d="m161 75 1 2c-4.75-.875-4.75-.875-7-2v2h-3v-3c3.606-1.335 5.62-.735 9 1Z"/><path fill="#E1CBCB" d="M70.563 72.938 73 73v4h-3v-2h-2v6h-1c-.042-2.333-.04-4.667 0-7 1-1 1-1 3.563-1.063Z"/><path fill="#B97778" d="M112 47c1.467 3.815.433 6.29-1 10h-2l-1 2c.588-3.024 1.227-6.018 2-9h2v-3Z"/><path fill="#D9BDBD" d="m155 36 3 1-1 4 3 1v2l-5 1v-9Z"/><path fill="#D5B5B5" d="m146 30 3 1h-2v5l-4-1v5c-1.46-2.647-2-3.894-2-7h5v-3Z"/><path fill="#E7E7E7" d="M168 132h10l1 2c-7.429 1.286-7.429 1.286-11 0v-2Z"/><path fill="#E1CBCB" d="M177 85h11l-1 2h-8v6c-1.765-3.088-2-4.233-2-8Z"/><path fill="#B66C6D" d="M168.063 100.938 171 101l1 3-4-1v3h-2v-3l-2-1c1-1 1-1 4.063-1.063Z"/><path fill="#D2AFAF" d="M65 44c2.063.438 2.063.438 4 1l-3 1c-.733 2.015-.733 2.015-1 4l4-1v4h-2v-2h-3c-.043-2-.04-4 0-6l1-1Z"/><path fill="#C40F23" d="M194 38c-.998 2.993-1.752 3.948-4 6l-3-1v-4c4.75-1 4.75-1 7-1Z"/><path fill="#D9BDBD" d="m61 32 5 1v2h-2v2h5v1h-6l-2-6Z"/><path fill="#BD343D" d="M120 12h8c-1 3-1 3-3 4l-1 3-2-1c-.563-1.938-.563-1.938-1-4l-1-2Z"/><path fill="#C2C5C8" d="m56 140 5 2-1 3-3-1v2h-5l4-1v-5Z"/><path fill="#DDC4C4" d="m90 102 3 1v5l-3 1v-3h-2l2-4Z"/><path fill="#B36263" d="M161 42h3l2 6h-5v-6Z"/><path fill="#EADCDC" d="m101 44 2 4-2 3-3-1v-4l3-2Z"/><path fill="#B46567" d="M93 42h3l-1 6h-4v-3h2v-3Z"/><path fill="#B54C51" d="M70 35c1.675.286 3.344.618 5 1l-1 3-3-1-1 3a88.406 88.406 0 0 1-1-5l1-1Z"/><path fill="#7C91B3" d="m103 132 2 5-5-1v-2l-4-1c2.49-.687 4.379-1 7-1Z"/><path fill="#AC1823" d="M112 73h2l2 11h-3l-1-11Z"/><path fill="#BF8485" d="M180 71c1.5 1.313 1.5 1.313 3 3v3l3 1c-1.875.625-1.875.625-4 1-2-2-2-2-2.125-5.125L180 71Z"/><path fill="#A70713" d="M93 65h4l1 5h-3v-2h-2v-3Z"/><path fill="#EADCDC" d="m73 62 1 3 2 1-1 3h-4l2-7Z"/><path fill="#E1CDCD" d="M99 36h2l1 7-5 1 1-1.75c1.27-2.449 1.27-2.449 1-6.25Z"/><path fill="#C0C2C5" d="m192 143 3 1v3l-8-1c3-2 3-2 5-3Z"/><path fill="#B22C35" d="M75 108h2c.688 1.813.688 1.813 1 4-1.438 1.75-1.438 1.75-3 3a128.624 128.624 0 0 1-1-6l1-1Z"/><path fill="#DAC0C0" d="M151 87c.834 3.338 1.46 6.607 2 10l-4-1 2-9Z"/><path fill="#E4D1D1" d="M183 74a99.984 99.984 0 0 1 5 0c1 1 1 1 1.063 4.063L189 81h-1l-1-5-4 1v-3Z"/><path fill="#AE222C" d="m173 59 1 2 2 1c-4.75 3-4.75 3-7 3v-4h4v-2Z"/><path fill="#C18E8E" d="M107 60c.946 3.43 1 6.442 1 10l-4-4 1-3h2v-3Z"/><path fill="#B2373F" d="M84 35c1.125 3.75 1.125 3.75 0 6l-2-1-1 3c-.188-2.875-.188-2.875 0-6l3-2Z"/><path fill="#B96E70" d="M147 31h3c.625 2.375.625 2.375 1 5l-2 2c-2-2-2-2-2.125-4.625L147 31Z"/><path fill="#D1D5DB" d="M167 133v2l-4 2v-2l-5 1c1-2 1-2 2.813-2.625C163 133 163 133 167 133Z"/><path fill="#E8E8E8" d="M58 132h7l-1 3h-6v-3Z"/><path fill="#BF7F80" d="M110 97h6l1 3h-2l-1 2v-4h-3l-1 3v-4Z"/><path fill="#BC7F7F" d="M76 93h2v3h-2v2l-4 1v-3h3l1-3Z"/><path fill="#B16162" d="M177 89c1.118 2.088 1.97 3.854 2.438 6.188L180 97l3 1c-4.875-.875-4.875-.875-6-2-.04-2.333-.042-4.667 0-7Z"/><path fill="#C69293" d="m229 73 4 4-8-1-1 2v-3h5v-2Z"/><path fill="#B66365" d="m193 65 2 1-1 7h-2c-.93-2.606-1.15-3.642-.063-6.25L193 65Z"/><path fill="#FAFAFA" d="m114 45 6 1v2l-6 1v-4Z"/></svg>