<?xml version="1.0" encoding="UTF-8"?>
<!DOCTYPE svg PUBLIC "-//W3C//DTD SVG 1.1//EN" "http://www.w3.org/Graphics/SVG/1.1/DTD/svg11.dtd">
<svg xmlns="http://www.w3.org/2000/svg" version="1.1" width="256px" height="154px" style="shape-rendering:geometricPrecision; text-rendering:geometricPrecision; image-rendering:optimizeQuality; fill-rule:evenodd; clip-rule:evenodd" xmlns:xlink="http://www.w3.org/1999/xlink">
<g><path style="opacity:1" fill="#fde24f" d="M -0.5,-0.5 C 84.8333,-0.5 170.167,-0.5 255.5,-0.5C 255.5,50.8333 255.5,102.167 255.5,153.5C 170.167,153.5 84.8333,153.5 -0.5,153.5C -0.5,102.167 -0.5,50.8333 -0.5,-0.5 Z"/></g>
<g><path style="opacity:1" fill="#c59933" d="M 153.5,13.5 C 149.652,14.7302 145.652,14.7302 141.5,13.5C 139.149,14.1734 136.816,14.8401 134.5,15.5C 136.166,13.1716 138.499,12.1716 141.5,12.5C 145.476,13.1638 149.476,13.4971 153.5,13.5 Z"/></g>
<g><path style="opacity:1" fill="#cf242e" d="M 139.5,16.5 C 144.316,15.3503 149.316,15.1837 154.5,16C 152.563,18.5094 151.563,21.3427 151.5,24.5C 152.5,24.5 153.5,24.5 154.5,24.5C 155.614,27.1771 155.614,29.8438 154.5,32.5C 153.252,31.9598 152.085,31.2931 151,30.5C 150.833,30.8333 150.667,31.1667 150.5,31.5C 152.983,35.7242 153.149,40.0576 151,44.5C 149.333,41.8333 147.667,39.1667 146,36.5C 146.316,40.1262 146.816,43.7929 147.5,47.5C 147.635,49.808 146.969,51.808 145.5,53.5C 143.157,51.0046 141.657,48.0046 141,44.5C 140.202,47.8931 139.202,51.2265 138,54.5C 132.842,59.1126 129.675,57.9459 128.5,51C 129.799,48.5889 130.632,46.0889 131,43.5C 128.937,45.7341 126.771,47.7341 124.5,49.5C 123.957,49.44 123.624,49.1067 123.5,48.5C 124.624,47.086 125.624,45.586 126.5,44C 123.736,41.301 124.403,39.6344 128.5,39C 129.167,37.6667 129.833,36.3333 130.5,35C 133.833,34.6667 137.167,34.3333 140.5,34C 143.469,33.7006 144.969,32.2006 145,29.5C 144.167,30.3333 143.333,31.1667 142.5,32C 137.467,32.8289 132.467,32.6623 127.5,31.5C 129.969,30.8319 132.302,30.1653 134.5,29.5C 135.167,28.1667 135.833,26.8333 136.5,25.5C 135.866,24.0532 134.699,23.3866 133,23.5C 131.467,23.7728 129.967,24.1062 128.5,24.5C 127.833,24.5 127.167,24.5 126.5,24.5C 126.167,23.8333 125.833,23.1667 125.5,22.5C 125.36,20.8762 126.027,19.7096 127.5,19C 130.261,18.2782 132.927,18.4448 135.5,19.5C 138.142,21.1734 140.142,20.6734 141.5,18C 141.164,16.9701 140.497,16.4701 139.5,16.5 Z"/></g>
<g><path style="opacity:1" fill="#675f97" d="M 104.5,16.5 C 104.915,18.9477 103.915,20.2811 101.5,20.5C 100.287,20.2528 99.62,19.5862 99.5,18.5C 99.4894,16.9826 98.8228,15.8159 97.5,15C 100.095,14.3996 102.429,14.8996 104.5,16.5 Z"/></g>
<g><path style="opacity:1" fill="#c92428" d="M 104.5,16.5 C 106.062,16.7329 107.395,17.3995 108.5,18.5C 108.525,22.2838 110.192,23.2838 113.5,21.5C 113.315,23.1958 112.481,24.5291 111,25.5C 110.333,27.1667 110.333,28.8333 111,30.5C 113.41,33.3968 115.577,36.3968 117.5,39.5C 117.92,41.0936 118.586,42.5936 119.5,44C 118.167,45.6667 118.167,47.3333 119.5,49C 118.556,50.4768 117.223,51.4768 115.5,52C 117.788,52.8221 120.122,53.4888 122.5,54C 119.024,56.9565 116.357,56.6232 114.5,53C 113.5,52.6667 112.5,52.3333 111.5,52C 112.357,51.3109 113.023,50.4776 113.5,49.5C 111.345,48.5896 109.345,47.4229 107.5,46C 108.328,45.0853 109.328,44.4186 110.5,44C 108.444,43.6892 106.444,43.1892 104.5,42.5C 103.41,41.6086 103.41,40.6086 104.5,39.5C 103.643,38.5748 102.643,37.9081 101.5,37.5C 99.4559,36.9688 97.7893,35.8022 96.5,34C 97.7932,33.51 99.1266,33.3433 100.5,33.5C 100.649,32.448 100.483,31.448 100,30.5C 97.5368,29.9678 95.7035,28.6345 94.5,26.5C 96.4841,26.516 97.4841,25.516 97.5,23.5C 97.2528,22.2867 96.5862,21.62 95.5,21.5C 96.9264,20.6588 98.2597,19.6588 99.5,18.5C 99.62,19.5862 100.287,20.2528 101.5,20.5C 103.915,20.2811 104.915,18.9477 104.5,16.5 Z"/></g>
<g><path style="opacity:1" fill="#65689a" d="M 113.5,21.5 C 110.192,23.2838 108.525,22.2838 108.5,18.5C 108.272,16.6453 108.939,15.8119 110.5,16C 112.607,17.2635 113.607,19.0968 113.5,21.5 Z"/></g>
<g><path style="opacity:1" fill="#a5251b" d="M 153.5,13.5 C 154.5,13.5 155.5,13.5 156.5,13.5C 156.888,15.6847 157.888,17.518 159.5,19C 158.321,21.3429 156.654,23.1762 154.5,24.5C 153.5,24.5 152.5,24.5 151.5,24.5C 151.563,21.3427 152.563,18.5094 154.5,16C 149.316,15.1837 144.316,15.3503 139.5,16.5C 138.167,16.5 136.833,16.5 135.5,16.5C 135.5,17.5 135.5,18.5 135.5,19.5C 132.927,18.4448 130.261,18.2782 127.5,19C 126.027,19.7096 125.36,20.8762 125.5,22.5C 124.539,20.7354 124.205,18.7354 124.5,16.5C 128.042,16.8128 131.375,16.4794 134.5,15.5C 136.816,14.8401 139.149,14.1734 141.5,13.5C 145.652,14.7302 149.652,14.7302 153.5,13.5 Z"/></g>
<g><path style="opacity:1" fill="#cbadac" d="M 139.5,16.5 C 140.497,16.4701 141.164,16.9701 141.5,18C 140.142,20.6734 138.142,21.1734 135.5,19.5C 135.5,18.5 135.5,17.5 135.5,16.5C 136.833,16.5 138.167,16.5 139.5,16.5 Z"/></g>
<g><path style="opacity:1" fill="#58689f" d="M 95.5,21.5 C 96.5862,21.62 97.2528,22.2867 97.5,23.5C 97.4841,25.516 96.4841,26.516 94.5,26.5C 93.5475,24.39 91.8808,23.2233 89.5,23C 91.3453,21.872 93.3453,21.372 95.5,21.5 Z"/></g>
<g><path style="opacity:1" fill="#ddbc4a" d="M 136.5,25.5 C 133.615,25.8064 130.948,25.4731 128.5,24.5C 129.967,24.1062 131.467,23.7728 133,23.5C 134.699,23.3866 135.866,24.0532 136.5,25.5 Z"/></g>
<g><path style="opacity:1" fill="#5e73a5" d="M 126.5,24.5 C 127.167,24.5 127.833,24.5 128.5,24.5C 130.948,25.4731 133.615,25.8064 136.5,25.5C 135.833,26.8333 135.167,28.1667 134.5,29.5C 131.833,29.5 129.167,29.5 126.5,29.5C 124.369,28.6862 122.036,28.1862 119.5,28C 117.093,25.6374 116.926,23.1374 119,20.5C 119.993,25.1624 122.493,26.4957 126.5,24.5 Z"/></g>
<g><path style="opacity:1" fill="#9d380c" d="M 156.5,26.5 C 157.004,29.4525 158.004,32.2858 159.5,35C 157.403,36.7698 156.069,38.9365 155.5,41.5C 155.683,39.0637 155.016,36.897 153.5,35C 154.448,34.5172 155.448,34.3505 156.5,34.5C 156.5,31.8333 156.5,29.1667 156.5,26.5 Z"/></g>
<g><path style="opacity:1" fill="#c8282c" d="M 175.5,39.5 C 177.589,42.0781 178.923,45.0781 179.5,48.5C 178.844,50.4534 178.511,52.4534 178.5,54.5C 178.5,54.8333 178.5,55.1667 178.5,55.5C 176.896,56.287 176.229,57.6203 176.5,59.5C 178.167,59.5 179.833,59.5 181.5,59.5C 182.167,59.8333 182.833,60.1667 183.5,60.5C 183.631,61.3764 183.298,62.0431 182.5,62.5C 179.097,60.8135 176.264,61.4801 174,64.5C 173.813,68.0386 172.646,71.2052 170.5,74C 167.513,73.1855 164.513,73.3522 161.5,74.5C 162.287,72.8958 163.62,72.2291 165.5,72.5C 165.077,69.353 164.744,66.1864 164.5,63C 165.57,57.8795 166.57,52.7128 167.5,47.5C 167.881,44.6753 166.881,42.5087 164.5,41C 166.809,40.2438 168.809,40.7438 170.5,42.5C 170.833,42 171.167,41.5 171.5,41C 170.15,38.3987 168.983,35.8987 168,33.5C 170.688,35.364 173.188,37.364 175.5,39.5 Z"/></g>
<g><path style="opacity:1" fill="#818692" d="M 83.5,47.5 C 81.901,47.2322 80.5676,47.5655 79.5,48.5C 78.6236,48.6309 77.9569,48.2975 77.5,47.5C 79.6365,46.2072 81.6365,46.2072 83.5,47.5 Z"/></g>
<g><path style="opacity:1" fill="#4e63a3" d="M 79.5,48.5 C 80.5676,47.5655 81.901,47.2322 83.5,47.5C 84.1667,47.5 84.5,47.8333 84.5,48.5C 84.5,49.5 84.5,50.5 84.5,51.5C 83.1667,51.5 81.8333,51.5 80.5,51.5C 80.7373,50.209 80.404,49.209 79.5,48.5 Z"/></g>
<g><path style="opacity:1" fill="#c6120d" d="M 154.5,24.5 C 155.5,24.8333 156.167,25.5 156.5,26.5C 156.5,29.1667 156.5,31.8333 156.5,34.5C 155.448,34.3505 154.448,34.5172 153.5,35C 155.016,36.897 155.683,39.0637 155.5,41.5C 153.713,44.6897 152.213,48.023 151,51.5C 150.292,52.3805 149.458,53.0472 148.5,53.5C 146.036,56.2155 143.87,55.8822 142,52.5C 139.344,56.7536 135.511,59.4203 130.5,60.5C 129.585,58.0821 128.085,56.0821 126,54.5C 125.802,52.6183 125.302,50.9516 124.5,49.5C 126.771,47.7341 128.937,45.7341 131,43.5C 130.632,46.0889 129.799,48.5889 128.5,51C 129.675,57.9459 132.842,59.1126 138,54.5C 139.202,51.2265 140.202,47.8931 141,44.5C 141.657,48.0046 143.157,51.0046 145.5,53.5C 146.969,51.808 147.635,49.808 147.5,47.5C 146.816,43.7929 146.316,40.1262 146,36.5C 147.667,39.1667 149.333,41.8333 151,44.5C 153.149,40.0576 152.983,35.7242 150.5,31.5C 150.667,31.1667 150.833,30.8333 151,30.5C 152.085,31.2931 153.252,31.9598 154.5,32.5C 155.614,29.8438 155.614,27.1771 154.5,24.5 Z"/></g>
<g><path style="opacity:1" fill="#a4491d" d="M 175.5,39.5 C 180.853,43.6384 181.853,48.6384 178.5,54.5C 178.511,52.4534 178.844,50.4534 179.5,48.5C 178.923,45.0781 177.589,42.0781 175.5,39.5 Z"/></g>
<g><path style="opacity:1" fill="#5b679e" d="M 77.5,51.5 C 77.8799,53.698 77.2132,55.3646 75.5,56.5C 68.9494,53.2977 69.616,51.6311 77.5,51.5 Z"/></g>
<g><path style="opacity:1" fill="#d7b23c" d="M 107.5,53.5 C 116.662,55.3406 116.329,56.3406 106.5,56.5C 100.399,55.8716 94.3992,55.2049 88.5,54.5C 95.0221,54.8235 101.355,54.4902 107.5,53.5 Z"/></g>
<g><path style="opacity:1" fill="#c60e0a" d="M 88.5,54.5 C 94.3992,55.2049 100.399,55.8716 106.5,56.5C 110.311,57.6453 114.311,57.8119 118.5,57C 120.676,56.8371 122.509,56.0037 124,54.5C 126.845,56.5047 128.678,59.1714 129.5,62.5C 134.201,61.0677 138.367,58.7343 142,55.5C 144.311,56.3968 146.144,57.7301 147.5,59.5C 147.5,63.1667 147.5,66.8333 147.5,70.5C 146.686,68.369 146.186,66.0356 146,63.5C 145.275,62.9415 144.442,62.6082 143.5,62.5C 139.696,65.5458 135.362,67.2125 130.5,67.5C 130.297,69.3904 130.963,70.8904 132.5,72C 150.061,76.8906 151.894,85.0573 138,96.5C 135.23,99.2423 134.896,102.242 137,105.5C 139.564,107.727 142.397,109.561 145.5,111C 147.213,112.378 148.547,114.045 149.5,116C 147.627,118.209 145.46,120.042 143,121.5C 141.667,123.5 140.333,125.5 139,127.5C 136.589,126.435 134.422,125.101 132.5,123.5C 132.5,123.167 132.5,122.833 132.5,122.5C 134.512,123.014 136.512,123.18 138.5,123C 140.855,120.645 143.188,118.312 145.5,116C 141.076,113.105 137.076,109.605 133.5,105.5C 133.336,102.813 133.503,100.146 134,97.5C 136.667,93.5 140,90.1667 144,87.5C 144.667,85.5 144.667,83.5 144,81.5C 143.578,79.5743 142.411,78.5743 140.5,78.5C 138.421,76.127 135.754,74.7936 132.5,74.5C 129.802,74.1551 127.802,72.8218 126.5,70.5C 128.646,66.1035 127.646,62.6035 123.5,60C 111.513,58.8694 99.5126,57.8694 87.5,57C 86.1175,55.5391 86.4508,54.7058 88.5,54.5 Z"/></g>
<g><path style="opacity:1" fill="#a51c09" d="M 126.5,29.5 C 129.167,29.5 131.833,29.5 134.5,29.5C 132.302,30.1653 129.969,30.8319 127.5,31.5C 132.467,32.6623 137.467,32.8289 142.5,32C 143.333,31.1667 144.167,30.3333 145,29.5C 144.969,32.2006 143.469,33.7006 140.5,34C 137.167,34.3333 133.833,34.6667 130.5,35C 129.833,36.3333 129.167,37.6667 128.5,39C 124.403,39.6344 123.736,41.301 126.5,44C 125.624,45.586 124.624,47.086 123.5,48.5C 123.624,49.1067 123.957,49.44 124.5,49.5C 125.302,50.9516 125.802,52.6183 126,54.5C 128.085,56.0821 129.585,58.0821 130.5,60.5C 135.511,59.4203 139.344,56.7536 142,52.5C 143.87,55.8822 146.036,56.2155 148.5,53.5C 149.307,59.4638 149.64,65.4638 149.5,71.5C 148.833,67.5 148.167,63.5 147.5,59.5C 146.144,57.7301 144.311,56.3968 142,55.5C 138.367,58.7343 134.201,61.0677 129.5,62.5C 128.678,59.1714 126.845,56.5047 124,54.5C 122.509,56.0037 120.676,56.8371 118.5,57C 114.311,57.8119 110.311,57.6453 106.5,56.5C 116.329,56.3406 116.662,55.3406 107.5,53.5C 105.752,52.2106 105.419,50.7106 106.5,49C 102.739,45.8314 101.072,41.998 101.5,37.5C 102.643,37.9081 103.643,38.5748 104.5,39.5C 103.41,40.6086 103.41,41.6086 104.5,42.5C 106.444,43.1892 108.444,43.6892 110.5,44C 109.328,44.4186 108.328,45.0853 107.5,46C 109.345,47.4229 111.345,48.5896 113.5,49.5C 113.023,50.4776 112.357,51.3109 111.5,52C 112.5,52.3333 113.5,52.6667 114.5,53C 116.357,56.6232 119.024,56.9565 122.5,54C 120.122,53.4888 117.788,52.8221 115.5,52C 117.223,51.4768 118.556,50.4768 119.5,49C 118.167,47.3333 118.167,45.6667 119.5,44C 118.586,42.5936 117.92,41.0936 117.5,39.5C 118.482,40.1408 119.482,40.8075 120.5,41.5C 123.831,38.1772 125.831,34.1772 126.5,29.5 Z"/></g>
<g><path style="opacity:1" fill="#ce222b" d="M 84.5,48.5 C 86.7964,49.733 88.1298,51.733 88.5,54.5C 86.4508,54.7058 86.1175,55.5391 87.5,57C 99.5126,57.8694 111.513,58.8694 123.5,60C 127.646,62.6035 128.646,66.1035 126.5,70.5C 122.802,65.6884 118.802,65.3551 114.5,69.5C 113.5,69.5 112.5,69.5 111.5,69.5C 111.5,68.1667 111.5,66.8333 111.5,65.5C 109.61,65.2965 108.11,65.9632 107,67.5C 106.195,62.4707 104.695,62.304 102.5,67C 101.552,67.4828 100.552,67.6495 99.5,67.5C 99.1368,62.4848 97.8034,62.3181 95.5,67C 94.552,67.4828 93.552,67.6495 92.5,67.5C 92.7394,65.5328 92.4061,63.6995 91.5,62C 88.6492,60.7114 85.6492,60.2114 82.5,60.5C 82.5,61.8333 82.5,63.1667 82.5,64.5C 82.1667,64.5 81.8333,64.5 81.5,64.5C 81.8333,61.5 80.5,60.1667 77.5,60.5C 77.2671,58.9382 76.6005,57.6049 75.5,56.5C 77.2132,55.3646 77.8799,53.698 77.5,51.5C 78.5,51.5 79.5,51.5 80.5,51.5C 81.8333,51.5 83.1667,51.5 84.5,51.5C 84.5,50.5 84.5,49.5 84.5,48.5 Z"/></g>
<g><path style="opacity:1" fill="#b5802a" d="M 178.5,55.5 C 178.586,56.4959 178.252,57.3292 177.5,58C 179.058,58.21 180.391,58.71 181.5,59.5C 179.833,59.5 178.167,59.5 176.5,59.5C 176.229,57.6203 176.896,56.287 178.5,55.5 Z"/></g>
<g><path style="opacity:1" fill="#5f6c9e" d="M 77.5,60.5 C 80.5,60.1667 81.8333,61.5 81.5,64.5C 78.9556,64.1043 76.7889,64.771 75,66.5C 74.3333,65.5 74.3333,64.5 75,63.5C 76.045,62.6266 76.8783,61.6266 77.5,60.5 Z"/></g>
<g><path style="opacity:1" fill="#cf232d" d="M 147.5,70.5 C 148.904,75.3604 150.904,79.8604 153.5,84C 153.176,88.308 151.676,92.1414 149,95.5C 147.289,101.694 148.789,106.86 153.5,111C 155.134,111.494 156.801,111.66 158.5,111.5C 158.167,113.5 157.833,115.5 157.5,117.5C 153.136,117.665 152.636,118.998 156,121.5C 156.74,122.749 156.573,123.749 155.5,124.5C 152.622,123.217 151.956,124.05 153.5,127C 153.164,128.03 152.497,128.53 151.5,128.5C 150.761,128.369 150.094,128.536 149.5,129C 150.76,130.814 150.76,132.647 149.5,134.5C 148.719,133.263 147.719,132.263 146.5,131.5C 145.181,133.786 143.515,135.786 141.5,137.5C 140.952,134.916 139.285,133.916 136.5,134.5C 135.791,133.596 134.791,133.263 133.5,133.5C 133.912,131.027 132.912,129.694 130.5,129.5C 130.5,128.833 130.5,128.167 130.5,127.5C 132.104,126.713 132.771,125.38 132.5,123.5C 134.422,125.101 136.589,126.435 139,127.5C 140.333,125.5 141.667,123.5 143,121.5C 145.46,120.042 147.627,118.209 149.5,116C 148.547,114.045 147.213,112.378 145.5,111C 142.397,109.561 139.564,107.727 137,105.5C 134.896,102.242 135.23,99.2423 138,96.5C 151.894,85.0573 150.061,76.8906 132.5,72C 130.963,70.8904 130.297,69.3904 130.5,67.5C 135.362,67.2125 139.696,65.5458 143.5,62.5C 144.442,62.6082 145.275,62.9415 146,63.5C 146.186,66.0356 146.686,68.369 147.5,70.5 Z"/></g>
<g><path style="opacity:1" fill="#b0180a" d="M 114.5,69.5 C 112.397,71.5853 110.397,71.5853 108.5,69.5C 106.833,70.1667 105.167,70.8333 103.5,71.5C 102.749,70.624 102.249,69.624 102,68.5C 99.9741,70.0974 97.6408,71.0974 95,71.5C 94.3333,70.8333 93.6667,70.1667 93,69.5C 91.1178,70.606 89.2844,70.606 87.5,69.5C 90.4176,67.9916 91.0843,65.8249 89.5,63C 86.829,62.1668 84.4957,62.6668 82.5,64.5C 82.5,63.1667 82.5,61.8333 82.5,60.5C 85.6492,60.2114 88.6492,60.7114 91.5,62C 92.4061,63.6995 92.7394,65.5328 92.5,67.5C 93.552,67.6495 94.552,67.4828 95.5,67C 97.8034,62.3181 99.1368,62.4848 99.5,67.5C 100.552,67.6495 101.552,67.4828 102.5,67C 104.695,62.304 106.195,62.4707 107,67.5C 108.11,65.9632 109.61,65.2965 111.5,65.5C 111.5,66.8333 111.5,68.1667 111.5,69.5C 112.5,69.5 113.5,69.5 114.5,69.5 Z"/></g>
<g><path style="opacity:1" fill="#bd1a0b" d="M 129.5,81.5 C 132.5,81.5 135.5,81.5 138.5,81.5C 138.657,82.8734 138.49,84.2068 138,85.5C 135.535,87.0552 135.035,89.0552 136.5,91.5C 135.5,92.8333 134.5,94.1667 133.5,95.5C 128.208,96.4948 122.875,96.8282 117.5,96.5C 117.054,99.0101 117.72,101.01 119.5,102.5C 121.85,104.213 122.85,106.547 122.5,109.5C 120.5,109.833 118.5,110.167 116.5,110.5C 116.756,112.912 115.756,114.579 113.5,115.5C 112.749,114.624 112.249,113.624 112,112.5C 110.292,114.543 108.292,116.21 106,117.5C 105.925,115.065 105.092,114.398 103.5,115.5C 103.5,114.167 103.5,112.833 103.5,111.5C 106.548,113.47 108.715,112.804 110,109.5C 112.178,112.468 113.344,112.135 113.5,108.5C 115.5,108.5 117.5,108.5 119.5,108.5C 119.046,105.86 117.879,103.527 116,101.5C 115.333,99.8333 115.333,98.1667 116,96.5C 121.407,95.5268 126.907,95.1934 132.5,95.5C 131.653,91.6778 131.653,88.0111 132.5,84.5C 122.412,83.1224 113.245,85.4557 105,91.5C 104.333,92.8333 104.333,94.1667 105,95.5C 110.035,98.2025 110.535,101.369 106.5,105C 101.673,107.37 96.6725,107.87 91.5,106.5C 90.0499,105.15 89.3832,103.484 89.5,101.5C 89.5,101.167 89.5,100.833 89.5,100.5C 90.9649,101.406 91.9649,102.739 92.5,104.5C 97.5116,105.885 101.845,104.719 105.5,101C 103.5,98.3333 101.5,95.6667 99.5,93C 107.624,84.4441 117.624,80.6108 129.5,81.5 Z"/></g>
<g><path style="opacity:1" fill="#bd2827" d="M 132.5,74.5 C 135.754,74.7936 138.421,76.127 140.5,78.5C 144.967,83.3082 144.3,87.3082 138.5,90.5C 138.167,90 137.833,89.5 137.5,89C 141.749,84.5768 141.082,81.0768 135.5,78.5C 133.345,78.628 131.345,78.128 129.5,77C 130.571,76.1482 131.571,75.3149 132.5,74.5 Z"/></g>
<g><path style="opacity:1" fill="#b9210a" d="M 147.5,59.5 C 148.167,63.5 148.833,67.5 149.5,71.5C 151.451,74.7861 153.785,77.7861 156.5,80.5C 156.691,86.1224 158.024,91.4557 160.5,96.5C 167.72,98.7704 170.72,96.2704 169.5,89C 166.356,88.0477 163.856,88.8811 162,91.5C 161.014,88.2583 161.848,85.5917 164.5,83.5C 162.671,82.7176 161.171,83.3843 160,85.5C 159.318,81.8198 160.818,79.3198 164.5,78C 162.633,77.2888 161.133,77.7888 160,79.5C 159.517,78.552 159.351,77.552 159.5,76.5C 159.833,75.5 160.5,74.8333 161.5,74.5C 164.513,73.3522 167.513,73.1855 170.5,74C 172.646,71.2052 173.813,68.0386 174,64.5C 176.264,61.4801 179.097,60.8135 182.5,62.5C 183.298,62.0431 183.631,61.3764 183.5,60.5C 185.377,61.6591 185.877,63.3258 185,65.5C 183.192,63.6041 181.025,63.1041 178.5,64C 174.384,70.9827 173.384,78.4827 175.5,86.5C 176.658,98.4284 171.324,103.262 159.5,101C 157.316,98.9835 155.316,96.8169 153.5,94.5C 150.852,98.8532 151.019,103.187 154,107.5C 156.921,108.777 159.755,110.11 162.5,111.5C 161.617,112.548 160.95,113.715 160.5,115C 162.84,117.354 163.007,119.854 161,122.5C 160,121.5 159,120.5 158,119.5C 157.667,122.167 157.333,124.833 157,127.5C 156.283,126.956 155.783,126.289 155.5,125.5C 155.5,125.167 155.5,124.833 155.5,124.5C 156.573,123.749 156.74,122.749 156,121.5C 152.636,118.998 153.136,117.665 157.5,117.5C 157.833,115.5 158.167,113.5 158.5,111.5C 156.801,111.66 155.134,111.494 153.5,111C 148.789,106.86 147.289,101.694 149,95.5C 151.676,92.1414 153.176,88.308 153.5,84C 150.904,79.8604 148.904,75.3604 147.5,70.5C 147.5,66.8333 147.5,63.1667 147.5,59.5 Z"/></g>
<g><path style="opacity:1" fill="#ce242c" d="M 103.5,115.5 C 102.518,116.141 101.518,116.807 100.5,117.5C 99.8333,116.833 99.1667,116.167 98.5,115.5C 96.9991,116.752 95.3325,117.752 93.5,118.5C 93.4307,116.722 93.0974,114.889 92.5,113C 89.0196,112.537 85.6863,113.037 82.5,114.5C 82.8333,111.5 81.5,110.167 78.5,110.5C 79.1098,109.609 79.4431,108.609 79.5,107.5C 81.2132,106.365 81.8799,104.698 81.5,102.5C 82.8333,102.5 84.1667,102.5 85.5,102.5C 86.9587,102.567 88.2921,102.234 89.5,101.5C 89.3832,103.484 90.0499,105.15 91.5,106.5C 96.6725,107.87 101.673,107.37 106.5,105C 110.535,101.369 110.035,98.2025 105,95.5C 104.333,94.1667 104.333,92.8333 105,91.5C 113.245,85.4557 122.412,83.1224 132.5,84.5C 131.653,88.0111 131.653,91.6778 132.5,95.5C 126.907,95.1934 121.407,95.5268 116,96.5C 115.333,98.1667 115.333,99.8333 116,101.5C 117.879,103.527 119.046,105.86 119.5,108.5C 117.5,108.5 115.5,108.5 113.5,108.5C 113.344,112.135 112.178,112.468 110,109.5C 108.715,112.804 106.548,113.47 103.5,111.5C 103.5,112.833 103.5,114.167 103.5,115.5 Z"/></g>
<g><path style="opacity:1" fill="#eaca46" d="M 159.5,76.5 C 159.351,77.552 159.517,78.552 160,79.5C 161.133,77.7888 162.633,77.2888 164.5,78C 160.818,79.3198 159.318,81.8198 160,85.5C 161.171,83.3843 162.671,82.7176 164.5,83.5C 161.848,85.5917 161.014,88.2583 162,91.5C 163.856,88.8811 166.356,88.0477 169.5,89C 170.72,96.2704 167.72,98.7704 160.5,96.5C 158.024,91.4557 156.691,86.1224 156.5,80.5C 157.143,78.9236 158.143,77.5903 159.5,76.5 Z"/></g>
<g><path style="opacity:1" fill="#9b1a08" d="M 135.5,78.5 C 141.082,81.0768 141.749,84.5768 137.5,89C 137.833,89.5 138.167,90 138.5,90.5C 144.3,87.3082 144.967,83.3082 140.5,78.5C 142.411,78.5743 143.578,79.5743 144,81.5C 144.667,83.5 144.667,85.5 144,87.5C 140,90.1667 136.667,93.5 134,97.5C 133.503,100.146 133.336,102.813 133.5,105.5C 132.069,104.22 131.402,102.553 131.5,100.5C 132.404,99.791 132.737,98.791 132.5,97.5C 127.637,97.1805 122.97,97.5139 118.5,98.5C 118.833,99.8333 119.167,101.167 119.5,102.5C 117.72,101.01 117.054,99.0101 117.5,96.5C 122.875,96.8282 128.208,96.4948 133.5,95.5C 134.5,94.1667 135.5,92.8333 136.5,91.5C 135.035,89.0552 135.535,87.0552 138,85.5C 138.49,84.2068 138.657,82.8734 138.5,81.5C 135.5,81.5 132.5,81.5 129.5,81.5C 131.844,81.0603 133.844,80.0603 135.5,78.5 Z"/></g>
<g><path style="opacity:1" fill="#cfa939" d="M 118.5,98.5 C 122.97,97.5139 127.637,97.1805 132.5,97.5C 132.737,98.791 132.404,99.791 131.5,100.5C 127.627,98.5698 123.294,97.9031 118.5,98.5 Z"/></g>
<g><path style="opacity:1" fill="#5c6da1" d="M 89.5,100.5 C 89.5,100.833 89.5,101.167 89.5,101.5C 88.2921,102.234 86.9587,102.567 85.5,102.5C 85.6716,101.508 85.3382,100.842 84.5,100.5C 83.5707,99.6851 82.5707,98.8518 81.5,98C 84.9268,96.8343 87.5935,97.6676 89.5,100.5 Z"/></g>
<g><path style="opacity:1" fill="#9f693f" d="M 84.5,100.5 C 85.3382,100.842 85.6716,101.508 85.5,102.5C 84.1667,102.5 82.8333,102.5 81.5,102.5C 80.5,102.5 79.5,102.5 78.5,102.5C 80.5,101.833 82.5,101.167 84.5,100.5 Z"/></g>
<g><path style="opacity:1" fill="#5068a5" d="M 78.5,102.5 C 79.5,102.5 80.5,102.5 81.5,102.5C 81.8799,104.698 81.2132,106.365 79.5,107.5C 78.3192,105.933 76.6526,105.099 74.5,105C 75.4709,103.519 76.8042,102.685 78.5,102.5 Z"/></g>
<g><path style="opacity:1" fill="#4e68a5" d="M 78.5,110.5 C 81.5,110.167 82.8333,111.5 82.5,114.5C 80.5328,114.261 78.6995,114.594 77,115.5C 76.4014,113.465 76.9014,111.799 78.5,110.5 Z"/></g>
<g><path style="opacity:1" fill="#616b9c" d="M 132.5,122.5 C 132.5,122.833 132.5,123.167 132.5,123.5C 132.771,125.38 132.104,126.713 130.5,127.5C 128.887,125.73 126.887,124.564 124.5,124C 126.937,122.625 129.603,122.125 132.5,122.5 Z"/></g>
<g><path style="opacity:1" fill="#a6641e" d="M 155.5,124.5 C 155.5,124.833 155.5,125.167 155.5,125.5C 154.686,127.631 154.186,129.964 154,132.5C 152.905,131.307 152.072,129.973 151.5,128.5C 152.497,128.53 153.164,128.03 153.5,127C 151.956,124.05 152.622,123.217 155.5,124.5 Z"/></g>
<g><path style="opacity:1" fill="#5364a1" d="M 130.5,129.5 C 132.912,129.694 133.912,131.027 133.5,133.5C 131.585,133.216 129.919,133.549 128.5,134.5C 127.662,134.158 127.328,133.492 127.5,132.5C 128.167,131.167 129.167,130.167 130.5,129.5 Z"/></g>
<g><path style="opacity:1" fill="#a59f87" d="M 127.5,132.5 C 127.328,133.492 127.662,134.158 128.5,134.5C 127.698,135.885 127.031,135.718 126.5,134C 126.57,133.235 126.903,132.735 127.5,132.5 Z"/></g>
<g><path style="opacity:1" fill="#a57f52" d="M 128.5,134.5 C 129.919,133.549 131.585,133.216 133.5,133.5C 134.791,133.263 135.791,133.596 136.5,134.5C 136.672,135.492 136.338,136.158 135.5,136.5C 133.721,134.656 131.388,133.99 128.5,134.5 Z"/></g>
<g><path style="opacity:1" fill="#4e65a1" d="M 136.5,134.5 C 139.285,133.916 140.952,134.916 141.5,137.5C 141.5,138.167 141.167,138.5 140.5,138.5C 138.585,138.784 136.919,138.451 135.5,137.5C 135.5,137.167 135.5,136.833 135.5,136.5C 136.338,136.158 136.672,135.492 136.5,134.5 Z"/></g>
<g><path style="opacity:1" fill="#c6b573" d="M 135.5,137.5 C 136.919,138.451 138.585,138.784 140.5,138.5C 139.003,139.306 137.336,139.972 135.5,140.5C 134.224,139.386 134.224,138.386 135.5,137.5 Z"/></g>
</svg>
