<svg xmlns="http://www.w3.org/2000/svg" width="256" height="154" style="shape-rendering:geometricPrecision;text-rendering:geometricPrecision;image-rendering:optimizeQuality;fill-rule:evenodd;clip-rule:evenodd"><path fill="#fdfcfc" d="M-.5-.5h256v123c-26.002.167-52.002 0-78-.5.556-.383.889-.883 1-1.5v-6l4-4c.603-2.126.603-4.459 0-7 4.41.177 5.077-1.157 2-4 0-.667-.333-1-1-1v-3a22.165 22.165 0 0 1-6-3c-.758-2.852-.758-5.519 0-8h1c3.725 1.46 7.225.793 10.5-2a164.063 164.063 0 0 1 5.5-15.5l-.5-1.5c-4.399 5.219-7.232 4.219-8.5-3-.285-1.788.048-3.455 1-5 2.029 1.13 2.363.63 1-1.5a8.435 8.435 0 0 0-4-.5v-7c.599-2.434 2.099-4.101 4.5-5 4.77 2.933 4.603 5.6-.5 8 2.09 2.509 3.923 2.175 5.5-1 2.222-3.445 1.722-6.445-1.5-9 2.486-2.078 3.486-4.745 3-8-1.518-2.103-3.185-2.27-5-.5.948.483 1.948.65 3 .5v3c-.774.647-1.774.98-3 1-2.642-1.198-5.309-2.032-8-2.5-1.341 3.262-1.008 3.762 1 1.5 1.22.387 1.887 1.22 2 2.5a19.247 19.247 0 0 0-3 6.5c-1.105 1.1-2.438 1.767-4 2 .172-.992-.162-1.658-1-2-.086-.996.248-1.83 1-2.5a4.932 4.932 0 0 0-3-.5c.067-1.459-.266-2.792-1-4a20.691 20.691 0 0 1-1-5c-5.616.156-10.949 1.156-16 3-1.301 1.385-1.301 2.885 0 4.5a4.932 4.932 0 0 1-3 .5c.215 1.679-.452 2.679-2 3-2.205-1.863-3.539-4.197-4-7 3.729-2.42 3.729-4.752 0-7 .293 1.547-.207 3.214-1.5 5-.995-.566-1.828-1.233-2.5-2-1.042-1.291-2.208-1.291-3.5 0 .152 2.019.652 4.019 1.5 6-1.291-.237-2.291.096-3 1v1c-2.333 1.333-4.667 1.333-7 0-1.419-.951-3.085-1.285-5-1 .166 6.675 0 13.342-.5 20l-1-17c-1.292-1.291-2.458-1.291-3.5 0l-2 13v-8c-1.599-.268-2.932.066-4 1a253.383 253.383 0 0 0-3 18c-.085 1.833-.752 3.166-2 4l-4-4c.086-.996-.248-1.83-1-2.5 1.692-1.4 2.359-3.234 2-5.5v-1c2.045-1.423 3.045-3.423 3-6 2.599-1.886 3.599-4.552 3-8 1.661-1.485 3.327-2.152 5-2-2.169-1.409-3.835-3.242-5-5.5.255-1.326.922-2.326 2-3a4.932 4.932 0 0 0-3-.5c-1.4-.6-2.4-1.6-3-3-4.665 1.349-5.165 3.682-1.5 7 .667 1 .667 2 0 3a29.084 29.084 0 0 0-7.5 10c-.825.886-1.825 1.219-3 1 .01-1.517.677-2.684 2-3.5-2.522-1.686-2.189-3.02 1-4-1.937-.122-3.27-.955-4-2.5 1-.333 1.667-1 2-2 .624-.417.957-1.084 1-2-.247-1.213-.914-1.88-2-2-1.18-1.567-2.847-2.4-5-2.5-3.197-.804-6.197-.638-9 .5-1.037 1.43-1.704 3.097-2 5-.734 1.208-1.067 2.541-1 4a4.932 4.932 0 0 0-3 .5c.752.67 1.086 1.504 1 2.5-.961 1.765-1.295 3.765-1 6a44.293 44.293 0 0 0 3 2c-.356 1.022-1.022 1.689-2 2h-4c.313-3.542-.02-6.875-1-10-.61-1.934-1.61-3.6-3-5-.017-3.877 1.15-4.543 3.5-2 .611-3.588-.889-4.754-4.5-3.5-.752.67-1.086 1.504-1 2.5a18.436 18.436 0 0 1-6-.5c-.556-.383-.89-.883-1-1.5.577-2.152 1.743-2.485 3.5-1 .3-2.591-.866-3.425-3.5-2.5-2.053 1.678-2.387 3.511-1 5.5.203 1.544.87 2.878 2 4-3.149 4.764-2.316 8.764 2.5 12a10.76 10.76 0 0 1 2.5-3c-1.03-.054-2.197-.388-3.5-1-1.583-4.6-.083-6.434 4.5-5.5a6.975 6.975 0 0 1 2.5 3.5c.498 2.982.665 5.982.5 9a14.076 14.076 0 0 1-3.5-1l-1.5 1c.825.886 1.825 1.219 3 1v4a32.517 32.517 0 0 1-3 7c-2.321-.158-4.154-1.158-5.5-3 .319 2.243.152 4.41-.5 6.5a2.428 2.428 0 0 0 2 .5c-.051 8.615 4.282 12.949 13 13 .997-.03 1.664.47 2 1.5.014 4.457-1.986 7.29-6 8.5v3c-1.685.684-2.685 2.017-3 4 .124.607.457.94 1 1h2c-.302 2.559.032 4.893 1 7h1c-.413 2.82.587 4.82 3 6-.268 1.599.066 2.932 1 4-25.645 1.991-51.645 2.658-78 2V-.5Z" style="opacity:1"/><path fill="#d8aeae" d="M128.5 6.5c-1.574 1.602-2.241 3.602-2 6-2.579-.365-4.912-.365-7 0-1.251-.972-.918-1.639 1-2 1.635.546 3.301.88 5 1-.236-2.726.597-5.059 2.5-7 .464.594.631 1.261.5 2Z" style="opacity:1"/><path fill="#ca242b" d="M128.5 6.5c.65 1.935.983 3.935 1 6 1.599.268 2.932-.066 4-1a4.932 4.932 0 0 1 3 .5l-3.5 3.5c-.692.937-.525 1.603.5 2 .453.958 1.119 1.792 2 2.5-.228.399-.562.565-1 .5a20.676 20.676 0 0 0-5-1c-1 8-2 8-3 0a32.369 32.369 0 0 1-8 1.5c1.708-1.51 3.374-3.01 5-4.5-1.021-1.688-2.355-3.021-4-4 2.088-.365 4.421-.365 7 0-.241-2.398.426-4.398 2-6Z" style="opacity:1"/><path fill="#d8b0b0" d="M128.5 6.5c1.713 1.135 2.38 2.802 2 5h3c-1.068.934-2.401 1.268-4 1a19.222 19.222 0 0 0-1-6Z" style="opacity:1"/><path fill="#c77676" d="M133.5 17.5c2.064.262 3.397 1.429 4 3.5-1.249.74-2.249.573-3-.5.438.065.772-.101 1-.5-.881-.708-1.547-1.542-2-2.5Z" style="opacity:1"/><path fill="#c08383" d="M61.5 35.5c-.838.342-1.172 1.008-1 2-1.387-1.989-1.053-3.822 1-5.5 2.634-.925 3.8-.091 3.5 2.5-1.757-1.485-2.923-1.152-3.5 1Z" style="opacity:1"/><path fill="#e2c4c4" d="M83.5 33.5c2.803-1.138 5.803-1.304 9-.5 2.153.1 3.82.933 5 2.5a254.835 254.835 0 0 0-14-2Z" style="opacity:1"/><path fill="#d1a8a8" d="M109.5 30.5c.6 1.4 1.6 2.4 3 3-1.725 3.89-3.058 3.557-4-1 .363-.683.696-1.35 1-2Z" style="opacity:1"/><path fill="#be8080" d="m194.5 33.5-2 3v-3a4.932 4.932 0 0 1-3-.5c1.815-1.77 3.482-1.603 5 .5Z" style="opacity:1"/><path fill="#d8b3b3" d="M143.5 33.5a2.427 2.427 0 0 0-2 .5c.923 2.04 1.256 4.208 1 6.5h-4c.709-.904 1.709-1.237 3-1-.848-1.981-1.348-3.981-1.5-6 1.292-1.291 2.458-1.291 3.5 0Z" style="opacity:1"/><path fill="#b93a3c" d="M147.5 37.5c-1.068-.934-2.401-1.268-4-1 .268 1.599-.066 2.932-1 4 .256-2.292-.077-4.46-1-6.5a2.427 2.427 0 0 1 2-.5c.672.767 1.505 1.434 2.5 2 1.293-1.786 1.793-3.453 1.5-5 3.729 2.248 3.729 4.58 0 7Z" style="opacity:1"/><path fill="#c33e40" d="m70.5 40.5-2-3c-.086-.996.248-1.83 1-2.5 3.611-1.254 5.111-.088 4.5 3.5-2.35-2.543-3.517-1.877-3.5 2Z" style="opacity:1"/><path fill="#cb1424" d="M131.5 41.5v18c.06.543.393.876 1 1a64.875 64.875 0 0 0 1-16c1.068-.934 2.401-1.268 4-1-.317 4.202.017 8.202 1 12a46.755 46.755 0 0 0 1 13l1 1a289.533 289.533 0 0 1 3-6c1.406-.473 2.073-1.473 2-3h2v3l-1 4c-1.383 5.473-3.383 10.807-6 16-1.527-.073-2.527.594-3 2-7.057.26-14.057-.073-21-1-1.042-1.291-2.208-1.291-3.5 0l-1-3a63.396 63.396 0 0 1-6.5-5c-1.402-1.983-3.236-3.65-5.5-5-.493-1.634-.66-3.3-.5-5l6 1h1l4 4c.709.904 1.709 1.237 3 1a51.063 51.063 0 0 1 2-14 468.079 468.079 0 0 0 2-9 246.792 246.792 0 0 0 2 7c-.285 1.788.048 3.455 1 5a81.884 81.884 0 0 0 1-18c1.042-1.291 2.208-1.291 3.5 0l1 17c.5-6.658.666-13.325.5-20 1.915-.285 3.581.049 5 1Z" style="opacity:1"/><path fill="#b53f3e" d="M138.5 40.5h1c.763.768 1.763 1.268 3 1.5l-1 1c.948.483 1.948.65 3 .5-.315 2.71.352 5.044 2 7h-3v-6c-1.699-.027-3.033-.694-4-2-.667 0-1-.333-1-1v-1Z" style="opacity:1"/><path fill="#c43035" d="M61.5 35.5c.11.617.444 1.117 1 1.5 1.973.495 3.973.662 6 .5l2 3c1.39 1.4 2.39 3.066 3 5v11a42.4 42.4 0 0 1-4 12c1.189.929 2.522 1.262 4 1 .667 0 1 .333 1 1v6l-2-3c-1.723-1.307-3.556-1.307-5.5 0-.963 9.536 2.87 12.202 11.5 8 .664 2.637 1.33 5.303 2 8-.271 2.547-1.271 4.547-3 6 .694-3.303 1.028-6.97 1-11-1.291-.237-2.291.096-3 1-8.718-.051-13.051-4.385-13-13-.492-3.79.341-4.456 2.5-2 .717-.544 1.217-1.21 1.5-2a32.517 32.517 0 0 0 3-7 26.326 26.326 0 0 0 2-5 40.936 40.936 0 0 0-.5-9 6.975 6.975 0 0 0-2.5-3.5c-4.583-.934-6.083.9-4.5 5.5 1.303.612 2.47.946 3.5 1a10.76 10.76 0 0 0-2.5 3c-4.816-3.236-5.649-7.236-2.5-12-1.13-1.122-1.797-2.456-2-4-.172-.992.162-1.658 1-2Z" style="opacity:1"/><path fill="#bb1722" d="M109.5 30.5c-.304.65-.637 1.317-1 2 .942 4.557 2.275 4.89 4 1a4.932 4.932 0 0 1 3 .5c-1.078.674-1.745 1.674-2 3 1.165 2.258 2.831 4.091 5 5.5-1.673-.152-3.339.515-5 2-.951 1.419-1.284 3.085-1 5-2.748-.098-3.414.902-2 3-1.471 1.716-2.471 3.716-3 6v1a46.319 46.319 0 0 1-3 5.5c.243.902.577 1.735 1 2.5l-6-1c-.16 1.7.007 3.366.5 5 2.264 1.35 4.098 3.017 5.5 5-2.655-.5-4.822-1.834-6.5-4-.918 1.876-2.418 2.876-4.5 3 .02-1.643-.647-2.976-2-4 1.213-2.35.547-4.184-2-5.5a49.692 49.692 0 0 1-6 1.5c.302 2.56-.032 4.893-1 7v-13c2.412-.363 3.912.637 4.5 3 1.731-3.835 3.065-3.502 4 1 1.667-1.333 3.333-1.333 5 0l1-2c3.262 1.341 3.762 1.008 1.5-1 1.078-1.901 2.078-3.401 3-4.5.005-2.163-.995-3.663-3-4.5a190.28 190.28 0 0 0-15-5.5c.927-3.72-.073-6.887-3-9.5.296-1.903.963-3.57 2-5 4.686.537 9.353 1.204 14 2 .734 1.208 1.067 2.541 1 4-.333 1-1 1.667-2 2a8.434 8.434 0 0 0-4 .5c-1.14.741-1.14 1.575 0 2.5l-2 2c1.635 1.18 3.302 1.18 5 0a111.25 111.25 0 0 0 2 5c1.175.219 2.175-.114 3-1a29.084 29.084 0 0 1 7.5-10c.667-1 .667-2 0-3-3.665-3.318-3.165-5.651 1.5-7Z" style="opacity:1"/><path fill="#bb6869" d="M97.5 35.5c1.086.12 1.753.787 2 2-.043.916-.376 1.583-1 2 .067-1.459-.266-2.792-1-4Z" style="opacity:1"/><path fill="#965656" d="M90.5 36.5c1.837.14 2.17.806 1 2-.797-.457-1.13-1.124-1-2Z" style="opacity:1"/><path fill="#cb1426" d="M81.5 38.5c2.927 2.613 3.927 5.78 3 9.5a190.28 190.28 0 0 1 15 5.5c2.005.837 3.005 2.337 3 4.5-.922 1.099-1.922 2.599-3 4.5 2.262 2.008 1.762 2.341-1.5 1l-1 2c-1.667-1.333-3.333-1.333-5 0-.935-4.502-2.269-4.835-4-1-.588-2.363-2.088-3.363-4.5-3a2.428 2.428 0 0 1-2-.5c1.34-2.149.673-3.316-2-3.5l-1-2c.978-.311 1.644-.978 2-2a44.293 44.293 0 0 1-3-2c1.615-1.828 1.948-3.828 1-6 .086-.996-.248-1.83-1-2.5a4.932 4.932 0 0 1 3-.5c-.067-1.459.266-2.792 1-4Z" style="opacity:1"/><path fill="#b74d4d" d="M96.5 41.5c.73 1.545 2.063 2.378 4 2.5-3.189.98-3.522 2.314-1 4-1.323.816-1.99 1.983-2 3.5a111.25 111.25 0 0 1-2-5c-1.698 1.18-3.365 1.18-5 0l2-2c-1.14-.925-1.14-1.759 0-2.5a8.434 8.434 0 0 1 4-.5Z" style="opacity:1"/><path fill="#e7d3d3" d="M156.5 36.5c.085 2.429 1.085 4.429 3 6a10.255 10.255 0 0 1-4 1.5c2.504 1.84 3.838 4.34 4 7.5-4.115-.462-6.781-2.796-8-7 1.548-.321 2.215-1.321 2-3a4.932 4.932 0 0 0 3-.5c-1.301-1.615-1.301-3.115 0-4.5Z" style="opacity:1"/><path fill="#bb1c24" d="M173.5 38.5a87.605 87.605 0 0 1-4 7l1 2c-1.667 1-3 2.333-4 4-2.323-1.172-4.656-1.172-7 0-.162-3.16-1.496-5.66-4-7.5a10.255 10.255 0 0 0 4-1.5c-1.915-1.571-2.915-3.571-3-6 5.051-1.844 10.384-2.844 16-3a20.691 20.691 0 0 0 1 5Z" style="opacity:1"/><path fill="#ca1526" d="M147.5 37.5c.461 2.803 1.795 5.137 4 7 1.219 4.204 3.885 6.538 8 7 2.344-1.172 4.677-1.172 7 0 1-1.667 2.333-3 4-4l-1-2a87.605 87.605 0 0 0 4-7c.734 1.208 1.067 2.541 1 4a4.932 4.932 0 0 1 3 .5c-.752.67-1.086 1.504-1 2.5-.948 2.172-.615 4.172 1 6a44.093 44.093 0 0 1-3 2c.355 1.022 1.022 1.689 2 2l-1 2c-.992-.172-1.658.162-2 1-3.084 1.26-4.918 3.594-5.5 7 .192-6.137-1.308-6.637-4.5-1.5-1.667.667-3.333.667-5 0-2.867-2.534-4.7-5.7-5.5-9.5a3.942 3.942 0 0 1-2 1c-2.025-1.309-3.525-2.975-4.5-5-1.648-1.956-2.315-4.29-2-7a4.932 4.932 0 0 1-3-.5l1-1c-1.237-.232-2.237-.732-3-1.5h3c.934-1.068 1.268-2.401 1-4 1.599-.268 2.932.066 4 1Z" style="opacity:1"/><path fill="#ba7b7c" d="M160.5 41.5c2.483.23 2.983.897 1.5 2-1.03-.336-1.53-1.003-1.5-2Z" style="opacity:1"/><path fill="#f3ebea" d="M139.5 42.5c.967 1.306 2.301 1.973 4 2v6h3l-1 2c-.051 2.07.615 3.903 2 5.5-.556 1.011-1.222 1.844-2 2.5-1.406.473-2.073 1.473-2 3a289.533 289.533 0 0 0-3 6l-1-1a46.755 46.755 0 0 1-1-13 52.394 52.394 0 0 1 1-13Z" style="opacity:1"/><path fill="#ba8080" d="M78.5 45.5c.948 2.172.615 4.172-1 6-.295-2.235.039-4.235 1-6Z" style="opacity:1"/><path fill="#bb8484" d="M176.5 45.5c.838.342 1.172 1.008 1 2v4c-1.615-1.828-1.948-3.828-1-6Z" style="opacity:1"/><path fill="#c43237" d="M194.5 33.5c.486 3.255-.514 5.922-3 8 3.222 2.555 3.722 5.555 1.5 9-1.577 3.175-3.41 3.509-5.5 1 5.103-2.4 5.27-5.067.5-8-2.401.899-3.901 2.566-4.5 5-1.134 2.466-1.301 5.133-.5 8a41.343 41.343 0 0 1 2.5 6c1.268 7.219 4.101 8.219 8.5 3l.5 1.5a164.063 164.063 0 0 0-5.5 15.5c-3.275 2.793-6.775 3.46-10.5 2 .992.172 1.658-.162 2-1 6.32.18 8.82-2.82 7.5-9-1.444-1.655-3.278-2.322-5.5-2-.543-.06-.876-.393-1-1a30.968 30.968 0 0 0 2-2c.876.13 1.543-.203 2-1-4.372-7.152-5.706-14.819-4-23a19.247 19.247 0 0 1 3-6.5c-.113-1.28-.78-2.113-2-2.5-2.008 2.262-2.341 1.762-1-1.5 2.691.468 5.358 1.302 8 2.5 1.226-.02 2.226-.353 3-1l2-3Z" style="opacity:1"/><path fill="#d0a8a8" d="M113.5 44.5c.599 3.448-.401 6.114-3 8-1.414-2.098-.748-3.098 2-3-.284-1.915.049-3.581 1-5Z" style="opacity:1"/><path fill="#ae5c5d" d="M133.5 44.5a64.875 64.875 0 0 1-1 16c-.607-.124-.94-.457-1-1l2-15Z" style="opacity:1"/><path fill="#c48b8b" d="M73.5 45.5c.98 3.125 1.313 6.458 1 10h4l1 2a19.242 19.242 0 0 1-6-1v-11Z" style="opacity:1"/><path fill="#c13a3d" d="M119.5 56.5a246.792 246.792 0 0 1-2-7 468.079 468.079 0 0 1-2 9v-9c1.068-.934 2.401-1.268 4-1v8Z" style="opacity:1"/><path fill="#c18c8c" d="M131.5 41.5c2.333 1.333 4.667 1.333 7 0 0 .667.333 1 1 1a52.394 52.394 0 0 0-1 13c-.983-3.798-1.317-7.798-1-12-1.599-.268-2.932.066-4 1l-2 15v-18Z" style="opacity:1"/><path fill="#be8e8e" d="M110.5 52.5c.045 2.577-.955 4.577-3 6 .529-2.284 1.529-4.284 3-6Z" style="opacity:1"/><path fill="#b36768" d="M121.5 43.5a81.884 81.884 0 0 1-1 18c-.952-1.545-1.285-3.212-1-5l2-13Z" style="opacity:1"/><path fill="#c06668" d="M176.5 55.5c2.686 1.488 2.353 2.155-1 2l1-2Z" style="opacity:1"/><path fill="#bd7373" d="M183.5 48.5v7a8.435 8.435 0 0 1 4 .5c1.363 2.13 1.029 2.63-1 1.5-.952 1.545-1.285 3.212-1 5a41.343 41.343 0 0 0-2.5-6c-.801-2.867-.634-5.534.5-8Z" style="opacity:1"/><path fill="#dabbbb" d="M115.5 49.5v9a51.063 51.063 0 0 0-2 14c-1.291.237-2.291-.096-3-1 1.248-.834 1.915-2.167 2-4a253.383 253.383 0 0 1 3-18Z" style="opacity:1"/><path fill="#f4ecec" d="M73.5 56.5c1.935.65 3.935.983 6 1v5c1.459-.067 2.792.266 4 1v11a42.613 42.613 0 0 1-5 7c-8.63 4.202-12.463 1.536-11.5-8 1.944-1.307 3.777-1.307 5.5 0 .146 2.442-.687 3.11-2.5 2-.612 1.737.054 2.737 2 3 1.301-.139 2.134-.805 2.5-2v-6c2.398-1.382 2.565-3.049.5-5-.41 1.4-.91 2.734-1.5 4-1.478.262-2.811-.071-4-1a42.4 42.4 0 0 0 4-12Z" style="opacity:1"/><path fill="#b67474" d="M145.5 52.5a42.148 42.148 0 0 0 4 5.5c-.139 1.301-.805 2.134-2 2.5h-2c.778-.656 1.444-1.489 2-2.5-1.385-1.597-2.051-3.43-2-5.5Z" style="opacity:1"/><path fill="#f3eaea" d="M181.5 45.5c-1.706 8.181-.372 15.848 4 23-.457.797-1.124 1.13-2 1h-3c.282-4.088-.385-4.588-2-1.5 1.566 2.912 2.399 6.08 2.5 9.5 1.183 1.231 2.349 1.231 3.5 0-1.505-1.341-2.172-3.008-2-5 2.222-.322 4.056.345 5.5 2 1.32 6.18-1.18 9.18-7.5 9-4.804-2.142-7.804-5.808-9-11-.313-3.542.021-6.875 1-10 2.584-.548 3.584-2.215 3-5 3.353.155 3.686-.512 1-2-.978-.311-1.645-.978-2-2a44.093 44.093 0 0 0 3-2v-4c1.562-.233 2.895-.9 4-2Z" style="opacity:1"/><path fill="#ba6565" d="M71.5 56.5a26.326 26.326 0 0 1-2 5v-4c-1.175.219-2.175-.114-3-1l1.5-1c1.138.49 2.305.822 3.5 1Z" style="opacity:1"/><path fill="#c38988" d="M79.5 57.5c2.673.184 3.34 1.351 2 3.5a2.428 2.428 0 0 0 2 .5v2c-1.208-.734-2.541-1.067-4-1v-5Z" style="opacity:1"/><path fill="#c28a89" d="M175.5 57.5c.584 2.785-.416 4.452-3 5 .734-1.208 1.067-2.541 1-4 .342-.838 1.008-1.172 2-1Z" style="opacity:1"/><path fill="#bc5a5a" d="M145.5 60.5c.073 1.527-.594 2.527-2 3-.073-1.527.594-2.527 2-3Z" style="opacity:1"/><path fill="#d0abab" d="M107.5 59.5c.359 2.266-.308 4.1-2 5.5.752.67 1.086 1.504 1 2.5h-1a11.114 11.114 0 0 1-1-2.5 46.319 46.319 0 0 0 3-5.5Z" style="opacity:1"/><path fill="#d7a1a0" d="M220.5 63.5v4c-2.191-.79-4.191-.79-6 0-.789-.283-1.456-.783-2-1.5 3.004-.117 5.671-.95 8-2.5Z" style="opacity:1"/><path fill="#cb292f" d="M230.5 74.5c-.342.838-1.008 1.172-2 1-1.542-.8-3.208-1.134-5-1v3c-.768.763-1.268 1.763-1.5 3-.232-1.237-.732-2.237-1.5-3v-3a19.24 19.24 0 0 0-6 1c-.667 0-1-.333-1-1 4.532-1.99 4.865-4.324 1-7 1.809-.79 3.809-.79 6 0v-4l1.5-3a10.1 10.1 0 0 1 1.5 6 31.608 31.608 0 0 1 8-.5c-6.017 2.457-6.35 5.29-1 8.5Z" style="opacity:1"/><path fill="#c81727" d="M94.5 75.5c-1.135 1.713-2.802 2.38-5 2-.638 1.96-.638 3.793 0 5.5a105.207 105.207 0 0 1 12.5 5.5c1.892-2.89 2.725-2.556 2.5 1-1.574 3.406-2.574 7.073-3 11h3c1.976 1.511 4.309 2.344 7 2.5 1.098.77 1.098 1.603 0 2.5.268 1.599-.066 2.932-1 4h-3c-1.101-1.098-2.434-1.265-4-.5l1 1c-1.558.21-2.891.71-4 1.5a81.216 81.216 0 0 1-2.5-3c-1.494 1.247-2.994 1.247-4.5 0a109.636 109.636 0 0 0-2-6.5l-1-.5a44.093 44.093 0 0 1-2 3 7.468 7.468 0 0 0-2-3 32.367 32.367 0 0 1-4.5 3c1.022 3.142 1.522 6.475 1.5 10 4.351-.967 6.685.7 7 5-1.28-1.468-2.946-2.135-5-2v3c-1.29 2.487-2.29 2.153-3-1a6.845 6.845 0 0 0-4-1c-1.223-5.863-3.223-11.53-6-17a5.728 5.728 0 0 0-1-3c1.691-1.512 3.691-2.512 6-3 1.729-1.453 2.729-3.453 3-6-.67-2.697-1.336-5.363-2-8a42.613 42.613 0 0 0 5-7c.968-2.107 1.302-4.44 1-7 2.15-.405 4.15-.905 6-1.5 2.547 1.316 3.213 3.15 2 5.5 1.353 1.024 2.02 2.357 2 4Z" style="opacity:1"/><path fill="#dbbdbd" d="M147.5 63.5h4c-.664 2.367-1.997 4.367-4 6-.798-.457-1.131-1.124-1-2l1-4Z" style="opacity:1"/><path fill="#c71927" d="M171.5 72.5c1.196 5.192 4.196 8.858 9 11-.342.838-1.008 1.172-2 1h-1c-.06-.543-.393-.876-1-1-1.152 2.606-1.318 5.273-.5 8 .383.556.883.89 1.5 1-.304.65-.637 1.317-1 2a55.007 55.007 0 0 1 7 4c.667 0 1 .333 1 1-1.306.967-1.973 2.301-2 4-2.356 2.361-2.356 4.694 0 7l-4 4-2 4c-2.589-.039-4.589.961-6 3v-4c-1.644-.214-3.144.12-4.5 1a4.934 4.934 0 0 1-.5-3c1.879-.841 3.879-1.175 6-1-.344-3.12.323-5.953 2-8.5-.63-1.31-1.63-2.144-3-2.5-.12-1.086-.787-1.753-2-2-1.554-.872-2.888-.872-4 0-1.468 1.279-2.135 2.946-2 5 .073 1.527-.594 2.527-2 3h-1c-1.643-.02-2.976.647-4 2-1-1.333-2-1.333-3 0-1.211-.774-1.211-1.607 0-2.5-1.566-.765-2.899-.598-4 .5h-3c-.934-1.068-1.268-2.401-1-4h-4v-3c.667 0 1-.333 1-1 .934-1.068 1.268-2.401 1-4h3c.904.709 1.237 1.709 1 3 2.559.11 4.892-.556 7-2a4.451 4.451 0 0 0-2-1.5c.437-1.461.437-2.628 0-3.5.917-2.162.917-4.495 0-7 .722 1.051 1.722 1.718 3 2-.193 3.513.474 6.846 2 10 1.92-3.693 3.253-3.693 4 0h3c-.701-4.32.466-7.986 3.5-11a8.43 8.43 0 0 0 .5-4c-1.13-1.815-1.796-3.815-2-6a19.62 19.62 0 0 0-3.5-2c-.492-1.049-.326-2.049.5-3-1.48-.613-2.813-.946-4-1a64.603 64.603 0 0 1 7.5-6c1.11 1.537 2.61 2.204 4.5 2-.284 1.915.049 3.581 1 5Z" style="opacity:1"/><path fill="#cb2e32" d="M31.5 77.5c-.722.418-1.222 1.084-1.5 2-.232-1.237-.732-2.237-1.5-3-2.714.25-5.38.417-8 .5 1.966-1.46 3.632-3.127 5-5l-5-5c2.52.73 5.187 1.23 8 1.5.658-10.487 1.991-10.654 4-.5h6c-4.027 3.311-3.693 6.311 1 9-2.819-.492-5.486-.326-8 .5Z" style="opacity:1"/><path fill="#c15958" d="M66.5 68.5c-.283.79-.783 1.456-1.5 2-2.159-2.456-2.992-1.79-2.5 2a2.428 2.428 0 0 1-2-.5c.652-2.09.819-4.257.5-6.5 1.346 1.842 3.179 2.842 5.5 3Z" style="opacity:1"/><path fill="#c06363" d="M74.5 70.5c0-.667-.333-1-1-1 .59-1.266 1.09-2.6 1.5-4 2.065 1.951 1.898 3.618-.5 5Z" style="opacity:1"/><path fill="#bb1822" d="M146.5 50.5c.975 2.025 2.475 3.691 4.5 5a3.942 3.942 0 0 0 2-1c.8 3.8 2.633 6.966 5.5 9.5 1.667.667 3.333.667 5 0 3.192-5.137 4.692-4.637 4.5 1.5.582-3.406 2.416-5.74 5.5-7 .067 1.459-.266 2.792-1 4-.979 3.125-1.313 6.458-1 10-.951-1.419-1.284-3.085-1-5-1.89.204-3.39-.463-4.5-2a64.603 64.603 0 0 0-7.5 6c1.187.054 2.52.387 4 1-.826.951-.992 1.951-.5 3a19.62 19.62 0 0 1 3.5 2c-1.792.134-3.458-.2-5-1-1.644-.816-2.81-2.15-3.5-4-.717.544-1.217 1.21-1.5 2a29.453 29.453 0 0 0-10 5.5c-1.393 1.171-2.227 2.671-2.5 4.5-.671-.752-1.504-1.086-2.5-1 2.617-5.193 4.617-10.527 6-16-.131.876.202 1.543 1 2 2.003-1.633 3.336-3.633 4-6h-4v-3c1.195-.366 1.861-1.199 2-2.5a42.148 42.148 0 0 1-4-5.5l1-2Z" style="opacity:1"/><path fill="#be5757" d="M183.5 69.5a30.968 30.968 0 0 1-2 2c.124.607.457.94 1 1-.172 1.992.495 3.659 2 5-1.151 1.231-2.317 1.231-3.5 0-.101-3.42-.934-6.588-2.5-9.5 1.615-3.088 2.282-2.588 2 1.5h3Z" style="opacity:1"/><path fill="#f2e8e8" d="M105.5 76.5a63.396 63.396 0 0 0 6.5 5l1 3c1.292-1.291 2.458-1.291 3.5 0 .603 3.773 1.27 7.44 2 11h19c-6.813.991-13.813 1.325-21 1a13.224 13.224 0 0 1-2 5c-1.213-1.452-.88-2.786 1-4a9.864 9.864 0 0 0-6-1v4h-5a30.968 30.968 0 0 0-2-2 92.495 92.495 0 0 1 3-4.5 56.41 56.41 0 0 1-1-4.5c.225-3.556-.608-3.89-2.5-1A105.207 105.207 0 0 0 89.5 83c-.638-1.707-.638-3.54 0-5.5 2.198.38 3.865-.287 5-2 2.082-.124 3.582-1.124 4.5-3 1.678 2.166 3.845 3.5 6.5 4Z" style="opacity:1"/><path fill="#f9f5f5" d="M155.5 74.5c1.32 1.442 2.986 2.109 5 2 1.542.8 3.208 1.134 5 1 .204 2.185.87 4.185 2 6-4.698.801-9.031 2.468-13 5-1.278-.282-2.278-.949-3-2-.839 1.141-1.506 2.475-2 4 1.112.765 1.779 1.765 2 3 .437.872.437 2.039 0 3.5a4.451 4.451 0 0 1 2 1.5c-2.108 1.444-4.441 2.11-7 2 .237-1.291-.096-2.291-1-3-1.446-1.113-3.113-1.28-5-.5a3.647 3.647 0 0 0-1 1.5c1.112.765 1.779 1.765 2 3 0 .667-.333 1-1 1-1.288 1.535-1.288 3.201 0 5l2-1 2 5c.798-.457 1.131-1.124 1-2h3c1.548.321 2.215 1.321 2 3 2.234-.12 4.401.213 6.5 1 2.02-.532 2.853-1.865 2.5-4h1c1.956 1.301 3.623.801 5-1.5l-3-1.5c-.135-2.054.532-3.721 2-5 .79 1.109 1.29 2.442 1.5 4 .939-2.515 2.439-3.182 4.5-2 1.37.356 2.37 1.19 3 2.5-1.677 2.547-2.344 5.38-2 8.5-2.121-.175-4.121.159-6 1-1.098 1.101-1.265 2.434-.5 4 1 1.333 2 1.333 3 0 .708.881 1.542 1.547 2.5 2 1.411-2.039 3.411-3.039 6-3 0 1.333.667 2 2 2-.111.617-.444 1.117-1 1.5 25.998.5 51.998.667 78 .5v1H-.5v-1c26.355.658 52.355-.009 78-2 .838-.342 1.172-1.008 1-2a6.845 6.845 0 0 1 4 1c.71 3.153 1.71 3.487 3 1 1.262-2.571 2.596-2.571 4 0 .607-.124.94-.457 1-1-.315-4.3-2.649-5.967-7-5 .022-3.525-.478-6.858-1.5-10a32.367 32.367 0 0 0 4.5-3 7.468 7.468 0 0 1 2 3c.734 1.208 1.067 2.541 1 4 3.444.888 6.444 2.555 9 5 1.022-.355 1.689-1.022 2-2 2.576.032 4.909-.635 7-2h3c-.131.876.202 1.543 1 2l2-5c1.187 1.153 2.187 1.153 3 0 .108-2.014-.558-3.68-2-5a13.224 13.224 0 0 0 2-5c7.187.325 14.187-.009 21-1v-10c.473-1.406 1.473-2.073 3-2 .996-.086 1.829.248 2.5 1 .273-1.829 1.107-3.329 2.5-4.5a29.453 29.453 0 0 1 10-5.5Z" style="opacity:1"/><path fill="#cba6a6" d="M160.5 76.5c-2.014.109-3.68-.558-5-2 .283-.79.783-1.456 1.5-2 .69 1.85 1.856 3.184 3.5 4Z" style="opacity:1"/><path fill="#bf8586" d="M213.5 74.5c0 .667.333 1 1 1-.751 1.073-1.751 1.24-3 .5.544-.717 1.211-1.217 2-1.5Z" style="opacity:1"/><path fill="#c28c8d" d="M230.5 74.5c.789.283 1.456.783 2 1.5-1.566.765-2.899.598-4-.5.992.172 1.658-.162 2-1Z" style="opacity:1"/><path fill="#be7676" d="m72.5 73.5 2 3c-.366 1.195-1.199 1.861-2.5 2-1.946-.263-2.612-1.263-2-3 1.813 1.11 2.646.442 2.5-2Z" style="opacity:1"/><path fill="#c65e5e" d="M28.5 76.5c.768.763 1.268 1.763 1.5 3 .278-.916.778-1.582 1.5-2-1.372 6.4-2.372 6.066-3-1Z" style="opacity:1"/><path fill="#d4aeae" d="M220.5 77.5c.768.763 1.268 1.763 1.5 3 .232-1.237.732-2.237 1.5-3-1 6.667-2 6.667-3 0Z" style="opacity:1"/><path fill="#cc1125" d="M167.5 83.5a8.43 8.43 0 0 1-.5 4c-3.034 3.014-4.201 6.68-3.5 11h-3c-.747-3.693-2.08-3.693-4 0-1.526-3.154-2.193-6.487-2-10 3.969-2.532 8.302-4.199 13-5Z" style="opacity:1"/><path fill="#b92226" d="M116.5 84.5c6.943.927 13.943 1.26 21 1v10h-14c4.134-.985 8.468-1.318 13-1v-7a48.818 48.818 0 0 0-18 0v8c-.73-3.56-1.397-7.227-2-11Z" style="opacity:1"/><path fill="#ce0620" d="M123.5 95.5h-5v-8a48.818 48.818 0 0 1 18 0v7c-4.532-.318-8.866.015-13 1Z" style="opacity:1"/><path fill="#bb5352" d="M177.5 84.5c-.758 2.481-.758 5.148 0 8-.617-.11-1.117-.444-1.5-1-.818-2.727-.652-5.394.5-8 .607.124.94.457 1 1Z" style="opacity:1"/><path fill="#ba7170" d="M151.5 86.5c.917 2.505.917 4.838 0 7-.221-1.235-.888-2.235-2-3 .494-1.525 1.161-2.859 2-4Z" style="opacity:1"/><path fill="#ca9a9a" d="M75.5 85.5c.709-.904 1.709-1.237 3-1 .028 4.03-.306 7.697-1 11-2.309.488-4.309 1.488-6 3v-3c4.014-1.21 6.014-4.043 6-8.5-.336-1.03-1.003-1.53-2-1.5Z" style="opacity:1"/><path fill="#c48f8e" d="M177.5 92.5a22.165 22.165 0 0 0 6 3v3a55.007 55.007 0 0 0-7-4c.363-.683.696-1.35 1-2Z" style="opacity:1"/><path fill="#b35354" d="M104.5 89.5a56.41 56.41 0 0 0 1 4.5 92.495 92.495 0 0 0-3 4.5 30.968 30.968 0 0 1 2 2h-3c.426-3.927 1.426-7.594 3-11Z" style="opacity:1"/><path fill="#d1a09f" d="M145.5 97.5h-3c.268 1.599-.066 2.932-1 4-.221-1.235-.888-2.235-2-3a3.647 3.647 0 0 1 1-1.5c1.887-.78 3.554-.613 5 .5Z" style="opacity:1"/><path fill="#c18a89" d="M184.5 99.5c3.077 2.843 2.41 4.177-2 4 .027-1.699.694-3.033 2-4Z" style="opacity:1"/><path fill="#c49292" d="M71.5 98.5c.61.891.943 1.891 1 3-1.21.432-2.21 1.099-3 2-.543-.06-.876-.393-1-1 .315-1.983 1.315-3.316 3-4Z" style="opacity:1"/><path fill="#bc2d30" d="M114.5 101.5c1.442 1.32 2.108 2.986 2 5-1.542-.801-3.208-1.134-5-1 1.098-.897 1.098-1.73 0-2.5-2.691-.156-5.024-.989-7-2.5h5v-4a9.864 9.864 0 0 1 6 1c-1.88 1.214-2.213 2.548-1 4Z" style="opacity:1"/><path fill="#bd7272" d="M164.5 101.5c1.112-.872 2.446-.872 4 0 1.213.247 1.88.914 2 2-2.061-1.182-3.561-.515-4.5 2-.21-1.558-.71-2.891-1.5-4Z" style="opacity:1"/><path fill="#ba7171" d="M111.5 105.5c1.792-.134 3.458.199 5 1-.813 1.153-1.813 1.153-3 0l-2 5c-.798-.457-1.131-1.124-1-2 .934-1.068 1.268-2.401 1-4Z" style="opacity:1"/><path fill="#bb6868" d="M140.5 102.5v3h4c-.268 1.599.066 2.932 1 4 .131.876-.202 1.543-1 2l-2-5-2 1c-1.288-1.799-1.288-3.465 0-5Z" style="opacity:1"/><path fill="#be8686" d="M71.5 103.5c.603 1.69 1.603 3.19 3 4.5-.88.708-1.547 1.542-2 2.5-.968-2.107-1.302-4.441-1-7Z" style="opacity:1"/><path fill="#b56f6f" d="M182.5 103.5c.603 2.541.603 4.874 0 7-2.356-2.306-2.356-4.639 0-7Z" style="opacity:1"/><path fill="#b33537" d="M72.5 101.5c2.777 5.47 4.777 11.137 6 17 .172.992-.162 1.658-1 2-.934-1.068-1.268-2.401-1-4-.493-2.319-1.493-4.319-3-6h-1c.453-.958 1.12-1.792 2-2.5-1.397-1.31-2.397-2.81-3-4.5h-2c.79-.901 1.79-1.568 3-2Z" style="opacity:1"/><path fill="#c28685" d="m162.5 106.5 3 1.5c-1.377 2.301-3.044 2.801-5 1.5 1.406-.473 2.073-1.473 2-3Z" style="opacity:1"/><path fill="#c58889" d="M107.5 109.5c-2.091 1.365-4.424 2.032-7 2 1.109-.79 2.442-1.29 4-1.5l-1-1c1.566-.765 2.899-.598 4 .5Z" style="opacity:1"/><path fill="#d2abaa" d="M100.5 111.5c-.311.978-.978 1.645-2 2-2.556-2.445-5.556-4.112-9-5 .067-1.459-.266-2.792-1-4a44.093 44.093 0 0 0 2-3l1 .5a109.636 109.636 0 0 1 2 6.5c1.506 1.247 3.006 1.247 4.5 0a81.216 81.216 0 0 0 2.5 3Z" style="opacity:1"/><path fill="#d3b1b1" d="M148.5 109.5c1.101-1.098 2.434-1.265 4-.5-1.211.893-1.211 1.726 0 2.5 1-1.333 2-1.333 3 0 1.024-1.353 2.357-2.02 4-2 .353 2.135-.48 3.468-2.5 4a15.894 15.894 0 0 0-6.5-1c.215-1.679-.452-2.679-2-3Z" style="opacity:1"/><path fill="#d1adac" d="M73.5 110.5c1.507 1.681 2.507 3.681 3 6-2.413-1.18-3.413-3.18-3-6Z" style="opacity:1"/><path fill="#d3a4a4" d="M165.5 115.5a4.934 4.934 0 0 0 .5 3c1.356-.88 2.856-1.214 4.5-1v4c-.958-.453-1.792-1.119-2.5-2-1 1.333-2 1.333-3 0-.765-1.566-.598-2.899.5-4Z" style="opacity:1"/><path fill="#b65152" d="M178.5 114.5v6c-1.333 0-2-.667-2-2l2-4Z" style="opacity:1"/><path fill="#cca7a7" d="M90.5 119.5c-.06.543-.393.876-1 1-1.404-2.571-2.738-2.571-4 0v-3c2.054-.135 3.72.532 5 2Z" style="opacity:1"/><path fill="#2255b2" d="M-.5 123.5h256v30H-.5v-30Z" style="opacity:1"/><path fill="#efeff1" d="M50.5 133.5h3v10h-4c-1.1-1.058-2.434-1.892-4-2.5.928-.388 1.595-1.055 2-2-1.158-1.261-1.158-2.427 0-3.5.473-1.406 1.473-2.073 3-2Z" style="opacity:1"/><path fill="#8190bd" d="M96.5 133.5v1c-3.156 1.051-6.156 1.051-9 0 3.018-.204 6.018-.537 9-1Z" style="opacity:1"/><path fill="#bbbecb" d="M95.5 142.5c1.175.219 2.175-.114 3-1-1.684-1.354-2.184-3.021-1.5-5 .423 1.456 1.256 1.956 2.5 1.5-.474-1.729-1.474-2.895-3-3.5v-1c1.542-.801 3.209-1.134 5-1v3h3c-.203 2.138-1.203 3.805-3 5l2 3c-2.976 1.39-5.643 1.057-8-1Z" style="opacity:1"/><path fill="#cfcfd1" d="M87.5 134.5c2.844 1.051 5.844 1.051 9 0 1.526.605 2.526 1.771 3 3.5-1.244.456-2.077-.044-2.5-1.5-.684 1.979-.184 3.646 1.5 5-.825.886-1.825 1.219-3 1-.992.172-1.658-.162-2-1-2.073-.638-4.073-1.638-6-3-.055 1.03-.388 2.197-1 3.5a188.696 188.696 0 0 0-15 4.5 128.508 128.508 0 0 1-16-.5c-2.352-.24-4.352-1.073-6-2.5h4v-10h-3c3.986-2.064 8.32-3.397 13-4 2.989-4.025 5.656-3.691 8 1 3.568 1.47 6.901 1.136 10-1 2.07 1.685 4.07 3.352 6 5Z" style="opacity:1"/><path fill="#d1d2d4" d="M197.5 133.5c.47 1.193 1.47 1.86 3 2 7.796-1.783 8.462-.95 2 2.5.457.414.791.914 1 1.5a116.333 116.333 0 0 0-16 6c-.7 4.313-2.367 4.813-5 1.5l-18-1c-4.192-1.276-8.026-3.109-11.5-5.5-.684-1.284-.517-2.451.5-3.5 6.114-3.863 12.781-6.197 20-7 3.535-4.66 6.202-4.16 8 1.5 3.631.468 6.965-.199 10-2 1.79 1.816 3.79 3.149 6 4Z" style="opacity:1"/><path fill="#bdc0ca" d="M187.5 145.5a116.333 116.333 0 0 1 16-6 3.647 3.647 0 0 0-1-1.5c6.462-3.45 5.796-4.283-2-2.5-1.53-.14-2.53-.807-3-2 .916.482 1.916.815 3 1a27.446 27.446 0 0 1 11-2v3h3c-.203 2.138-1.203 3.805-3 5l2 3-3 1a108.761 108.761 0 0 1-9.5-3 81.851 81.851 0 0 1-8.5 6 16.076 16.076 0 0 0-5-2Z" style="opacity:1"/><path fill="#c6c8d2" d="M47.5 135.5c-1.158 1.073-1.158 2.239 0 3.5-.405.945-1.072 1.612-2 2 1.566.608 2.9 1.442 4 2.5-3.522.228-5.856-1.272-7-4.5.93-2.138 2.597-3.305 5-3.5Z" style="opacity:1"/><path fill="#b5b8c2" d="M93.5 141.5c-1.788-.285-3.455.048-5 1a48.14 48.14 0 0 1-6.5 5c-1.567-1.356-3.4-2.023-5.5-2 .262 1.478-.071 2.811-1 4a512.469 512.469 0 0 0-4-3 188.696 188.696 0 0 1 15-4.5c.612-1.303.945-2.47 1-3.5 1.927 1.362 3.927 2.362 6 3Z" style="opacity:1"/></svg>