<?xml version="1.0" encoding="UTF-8"?>
<!DOCTYPE svg PUBLIC "-//W3C//DTD SVG 1.1//EN" "http://www.w3.org/Graphics/SVG/1.1/DTD/svg11.dtd">
<svg xmlns="http://www.w3.org/2000/svg" version="1.1" width="256px" height="154px" style="shape-rendering:geometricPrecision; text-rendering:geometricPrecision; image-rendering:optimizeQuality; fill-rule:evenodd; clip-rule:evenodd" xmlns:xlink="http://www.w3.org/1999/xlink">
<g><path style="opacity:1" fill="#fdfcfc" d="M -0.5,-0.5 C 84.8333,-0.5 170.167,-0.5 255.5,-0.5C 255.5,40.5 255.5,81.5 255.5,122.5C 229.498,122.667 203.498,122.5 177.5,122C 178.056,121.617 178.389,121.117 178.5,120.5C 178.5,118.5 178.5,116.5 178.5,114.5C 179.833,113.167 181.167,111.833 182.5,110.5C 183.103,108.374 183.103,106.041 182.5,103.5C 186.91,103.677 187.577,102.343 184.5,99.5C 184.5,98.8333 184.167,98.5 183.5,98.5C 183.5,97.5 183.5,96.5 183.5,95.5C 181.328,94.7945 179.328,93.7945 177.5,92.5C 176.742,89.6481 176.742,86.9815 177.5,84.5C 177.833,84.5 178.167,84.5 178.5,84.5C 182.225,85.96 185.725,85.2933 189,82.5C 190.587,77.2058 192.42,72.0391 194.5,67C 194.333,66.5 194.167,66 194,65.5C 189.601,70.7189 186.768,69.7189 185.5,62.5C 185.215,60.712 185.548,59.0453 186.5,57.5C 188.529,58.6293 188.863,58.1293 187.5,56C 186.207,55.51 184.873,55.3433 183.5,55.5C 183.5,53.1667 183.5,50.8333 183.5,48.5C 184.099,46.0655 185.599,44.3988 188,43.5C 192.77,46.4333 192.603,49.1 187.5,51.5C 189.59,54.0088 191.423,53.6754 193,50.5C 195.222,47.0547 194.722,44.0547 191.5,41.5C 193.986,39.422 194.986,36.7553 194.5,33.5C 192.982,31.3967 191.315,31.23 189.5,33C 190.448,33.4828 191.448,33.6495 192.5,33.5C 192.5,34.5 192.5,35.5 192.5,36.5C 191.726,37.1471 190.726,37.4805 189.5,37.5C 186.858,36.3016 184.191,35.4683 181.5,35C 180.159,38.2617 180.492,38.7617 182.5,36.5C 183.72,36.8869 184.387,37.7202 184.5,39C 183.094,40.978 182.094,43.1447 181.5,45.5C 180.395,46.6005 179.062,47.2671 177.5,47.5C 177.672,46.5084 177.338,45.8417 176.5,45.5C 176.414,44.5041 176.748,43.6708 177.5,43C 176.552,42.5172 175.552,42.3505 174.5,42.5C 174.567,41.0413 174.234,39.7079 173.5,38.5C 172.962,36.8828 172.629,35.2161 172.5,33.5C 166.884,33.6556 161.551,34.6556 156.5,36.5C 155.199,37.8845 155.199,39.3845 156.5,41C 155.552,41.4828 154.552,41.6495 153.5,41.5C 153.715,43.1788 153.048,44.1788 151.5,44.5C 149.295,42.6366 147.961,40.3033 147.5,37.5C 151.229,35.0809 151.229,32.7475 147.5,30.5C 147.793,32.0474 147.293,33.7141 146,35.5C 145.005,34.9341 144.172,34.2674 143.5,33.5C 142.458,32.2089 141.292,32.2089 140,33.5C 140.152,35.5185 140.652,37.5185 141.5,39.5C 140.209,39.2627 139.209,39.596 138.5,40.5C 138.5,40.8333 138.5,41.1667 138.5,41.5C 136.167,42.8333 133.833,42.8333 131.5,41.5C 130.081,40.5489 128.415,40.2155 126.5,40.5C 126.666,47.175 126.5,53.8417 126,60.5C 125.667,54.8333 125.333,49.1667 125,43.5C 123.708,42.2089 122.542,42.2089 121.5,43.5C 120.833,47.8333 120.167,52.1667 119.5,56.5C 119.5,53.8333 119.5,51.1667 119.5,48.5C 117.901,48.2322 116.568,48.5655 115.5,49.5C 114.307,55.3254 113.307,61.3254 112.5,67.5C 112.415,69.3328 111.748,70.6661 110.5,71.5C 109.167,70.1667 107.833,68.8333 106.5,67.5C 106.586,66.5041 106.252,65.6708 105.5,65C 107.192,63.5993 107.859,61.7659 107.5,59.5C 107.5,59.1667 107.5,58.8333 107.5,58.5C 109.545,57.0772 110.545,55.0772 110.5,52.5C 113.099,50.6143 114.099,47.9476 113.5,44.5C 115.161,43.0146 116.827,42.348 118.5,42.5C 116.331,41.0914 114.665,39.2581 113.5,37C 113.755,35.6739 114.422,34.6739 115.5,34C 114.552,33.5172 113.552,33.3505 112.5,33.5C 111.1,32.9002 110.1,31.9002 109.5,30.5C 104.835,31.849 104.335,34.1823 108,37.5C 108.667,38.5 108.667,39.5 108,40.5C 104.77,43.2967 102.27,46.63 100.5,50.5C 99.675,51.3857 98.675,51.719 97.5,51.5C 97.5106,49.9826 98.1772,48.8159 99.5,48C 96.978,46.3141 97.3113,44.9808 100.5,44C 98.563,43.8784 97.2297,43.045 96.5,41.5C 97.5,41.1667 98.1667,40.5 98.5,39.5C 99.1239,39.0831 99.4573,38.4164 99.5,37.5C 99.2528,36.2867 98.5862,35.62 97.5,35.5C 96.3192,33.9328 94.6526,33.0995 92.5,33C 89.3035,32.1955 86.3035,32.3622 83.5,33.5C 82.4625,34.9303 81.7959,36.597 81.5,38.5C 80.7659,39.7079 80.4326,41.0413 80.5,42.5C 79.448,42.3505 78.448,42.5172 77.5,43C 78.2524,43.6708 78.5858,44.5041 78.5,45.5C 77.5386,47.2646 77.2053,49.2646 77.5,51.5C 78.3984,52.1577 79.3984,52.8243 80.5,53.5C 80.1445,54.5223 79.4778,55.189 78.5,55.5C 77.1667,55.5 75.8333,55.5 74.5,55.5C 74.8128,51.9581 74.4794,48.6248 73.5,45.5C 72.8897,43.5659 71.8897,41.8993 70.5,40.5C 70.4825,36.6235 71.6492,35.9568 74,38.5C 74.6114,34.9124 73.1114,33.7458 69.5,35C 68.7476,35.6708 68.4142,36.5041 68.5,37.5C 66.4727,37.6621 64.4727,37.4955 62.5,37C 61.944,36.6174 61.6107,36.1174 61.5,35.5C 62.0768,33.3484 63.2435,33.015 65,34.5C 65.3008,31.9085 64.1341,31.0752 61.5,32C 59.4468,33.6779 59.1134,35.5112 60.5,37.5C 60.7031,39.0443 61.3698,40.3777 62.5,41.5C 59.3512,46.2637 60.1845,50.2637 65,53.5C 65.6449,52.354 66.4783,51.354 67.5,50.5C 66.4699,50.4455 65.3033,50.1122 64,49.5C 62.4167,44.8996 63.9167,43.0663 68.5,44C 69.7014,44.9025 70.5348,46.0692 71,47.5C 71.498,50.4816 71.6646,53.4816 71.5,56.5C 70.3052,56.3225 69.1385,55.9891 68,55.5C 67.5,55.8333 67,56.1667 66.5,56.5C 67.325,57.3857 68.325,57.719 69.5,57.5C 69.5,58.8333 69.5,60.1667 69.5,61.5C 68.7729,63.9538 67.7729,66.2872 66.5,68.5C 64.1789,68.3417 62.3455,67.3417 61,65.5C 61.3187,67.7429 61.152,69.9095 60.5,72C 61.0944,72.4643 61.7611,72.631 62.5,72.5C 62.4487,81.1155 66.782,85.4488 75.5,85.5C 76.4972,85.4701 77.1639,85.9701 77.5,87C 77.5136,91.4566 75.5136,94.29 71.5,95.5C 71.5,96.5 71.5,97.5 71.5,98.5C 69.8148,99.1837 68.8148,100.517 68.5,102.5C 68.6236,103.107 68.9569,103.44 69.5,103.5C 70.1667,103.5 70.8333,103.5 71.5,103.5C 71.1984,106.059 71.5318,108.393 72.5,110.5C 72.8333,110.5 73.1667,110.5 73.5,110.5C 73.087,113.32 74.087,115.32 76.5,116.5C 76.2322,118.099 76.5655,119.432 77.5,120.5C 51.8548,122.491 25.8548,123.158 -0.5,122.5C -0.5,81.5 -0.5,40.5 -0.5,-0.5 Z"/></g>
<g><path style="opacity:1" fill="#d8aeae" d="M 128.5,6.5 C 126.926,8.10163 126.259,10.1016 126.5,12.5C 123.921,12.1348 121.588,12.1348 119.5,12.5C 118.249,11.528 118.582,10.8614 120.5,10.5C 122.135,11.0463 123.801,11.3796 125.5,11.5C 125.264,8.77432 126.097,6.44099 128,4.5C 128.464,5.09442 128.631,5.76109 128.5,6.5 Z"/></g>
<g><path style="opacity:1" fill="#ca242b" d="M 128.5,6.5 C 129.15,8.43525 129.483,10.4352 129.5,12.5C 131.099,12.7678 132.432,12.4345 133.5,11.5C 134.552,11.3505 135.552,11.5172 136.5,12C 135.333,13.1667 134.167,14.3333 133,15.5C 132.308,16.4368 132.475,17.1034 133.5,17.5C 133.953,18.4584 134.619,19.2917 135.5,20C 135.272,20.3988 134.938,20.5654 134.5,20.5C 132.883,19.962 131.216,19.6287 129.5,19.5C 128.5,27.5 127.5,27.5 126.5,19.5C 123.84,20.3471 121.174,20.8471 118.5,21C 120.208,19.4905 121.874,17.9905 123.5,16.5C 122.479,14.812 121.145,13.4787 119.5,12.5C 121.588,12.1348 123.921,12.1348 126.5,12.5C 126.259,10.1016 126.926,8.10163 128.5,6.5 Z"/></g>
<g><path style="opacity:1" fill="#d8b0b0" d="M 128.5,6.5 C 130.213,7.63535 130.88,9.30202 130.5,11.5C 131.5,11.5 132.5,11.5 133.5,11.5C 132.432,12.4345 131.099,12.7678 129.5,12.5C 129.483,10.4352 129.15,8.43525 128.5,6.5 Z"/></g>
<g><path style="opacity:1" fill="#c77676" d="M 133.5,17.5 C 135.564,17.7619 136.897,18.9286 137.5,21C 136.251,21.7401 135.251,21.5735 134.5,20.5C 134.938,20.5654 135.272,20.3988 135.5,20C 134.619,19.2917 133.953,18.4584 133.5,17.5 Z"/></g>
<g><path style="opacity:1" fill="#c08383" d="M 61.5,35.5 C 60.6618,35.8417 60.3284,36.5084 60.5,37.5C 59.1134,35.5112 59.4468,33.6779 61.5,32C 64.1341,31.0752 65.3008,31.9085 65,34.5C 63.2435,33.015 62.0768,33.3484 61.5,35.5 Z"/></g>
<g><path style="opacity:1" fill="#e2c4c4" d="M 83.5,33.5 C 86.3035,32.3622 89.3035,32.1955 92.5,33C 94.6526,33.0995 96.3192,33.9328 97.5,35.5C 92.853,34.704 88.1863,34.0373 83.5,33.5 Z"/></g>
<g><path style="opacity:1" fill="#d1a8a8" d="M 109.5,30.5 C 110.1,31.9002 111.1,32.9002 112.5,33.5C 110.775,37.3901 109.442,37.0568 108.5,32.5C 108.863,31.8165 109.196,31.1499 109.5,30.5 Z"/></g>
<g><path style="opacity:1" fill="#be8080" d="M 194.5,33.5 C 193.833,34.5 193.167,35.5 192.5,36.5C 192.5,35.5 192.5,34.5 192.5,33.5C 191.448,33.6495 190.448,33.4828 189.5,33C 191.315,31.23 192.982,31.3967 194.5,33.5 Z"/></g>
<g><path style="opacity:1" fill="#d8b3b3" d="M 143.5,33.5 C 142.761,33.369 142.094,33.5357 141.5,34C 142.423,36.0408 142.756,38.2075 142.5,40.5C 141.5,40.5 140.5,40.5 139.5,40.5C 139.167,40.5 138.833,40.5 138.5,40.5C 139.209,39.596 140.209,39.2627 141.5,39.5C 140.652,37.5185 140.152,35.5185 140,33.5C 141.292,32.2089 142.458,32.2089 143.5,33.5 Z"/></g>
<g><path style="opacity:1" fill="#b93a3c" d="M 147.5,37.5 C 146.432,36.5655 145.099,36.2322 143.5,36.5C 143.768,38.099 143.434,39.4324 142.5,40.5C 142.756,38.2075 142.423,36.0408 141.5,34C 142.094,33.5357 142.761,33.369 143.5,33.5C 144.172,34.2674 145.005,34.9341 146,35.5C 147.293,33.7141 147.793,32.0474 147.5,30.5C 151.229,32.7475 151.229,35.0809 147.5,37.5 Z"/></g>
<g><path style="opacity:1" fill="#c33e40" d="M 70.5,40.5 C 69.8333,39.5 69.1667,38.5 68.5,37.5C 68.4142,36.5041 68.7476,35.6708 69.5,35C 73.1114,33.7458 74.6114,34.9124 74,38.5C 71.6492,35.9568 70.4825,36.6235 70.5,40.5 Z"/></g>
<g><path style="opacity:1" fill="#cb1424" d="M 131.5,41.5 C 131.5,47.5 131.5,53.5 131.5,59.5C 131.56,60.0431 131.893,60.3764 132.5,60.5C 133.495,55.2079 133.828,49.8746 133.5,44.5C 134.568,43.5655 135.901,43.2322 137.5,43.5C 137.183,47.7016 137.517,51.7016 138.5,55.5C 138.228,59.9017 138.561,64.2351 139.5,68.5C 139.833,68.8333 140.167,69.1667 140.5,69.5C 141.518,67.4061 142.518,65.4061 143.5,63.5C 144.906,63.0269 145.573,62.0269 145.5,60.5C 146.167,60.5 146.833,60.5 147.5,60.5C 147.5,61.5 147.5,62.5 147.5,63.5C 147.167,64.8333 146.833,66.1667 146.5,67.5C 145.117,72.9732 143.117,78.3066 140.5,83.5C 138.973,83.427 137.973,84.0937 137.5,85.5C 130.443,85.76 123.443,85.4267 116.5,84.5C 115.458,83.2089 114.292,83.2089 113,84.5C 112.667,83.5 112.333,82.5 112,81.5C 109.674,79.9343 107.508,78.2676 105.5,76.5C 104.098,74.5172 102.264,72.8505 100,71.5C 99.5065,69.8659 99.3398,68.1992 99.5,66.5C 101.5,66.8333 103.5,67.1667 105.5,67.5C 105.833,67.5 106.167,67.5 106.5,67.5C 107.833,68.8333 109.167,70.1667 110.5,71.5C 111.209,72.404 112.209,72.7373 113.5,72.5C 113.523,67.7031 114.189,63.0365 115.5,58.5C 116.166,55.6417 116.833,52.6417 117.5,49.5C 118.168,51.9688 118.835,54.3021 119.5,56.5C 119.215,58.288 119.548,59.9547 120.5,61.5C 121.496,55.5368 121.829,49.5368 121.5,43.5C 122.542,42.2089 123.708,42.2089 125,43.5C 125.333,49.1667 125.667,54.8333 126,60.5C 126.5,53.8417 126.666,47.175 126.5,40.5C 128.415,40.2155 130.081,40.5489 131.5,41.5 Z"/></g>
<g><path style="opacity:1" fill="#b53f3e" d="M 138.5,40.5 C 138.833,40.5 139.167,40.5 139.5,40.5C 140.263,41.2679 141.263,41.7679 142.5,42C 142.167,42.3333 141.833,42.6667 141.5,43C 142.448,43.4828 143.448,43.6495 144.5,43.5C 144.185,46.2108 144.852,48.5441 146.5,50.5C 145.5,50.5 144.5,50.5 143.5,50.5C 143.5,48.5 143.5,46.5 143.5,44.5C 141.801,44.4729 140.467,43.8062 139.5,42.5C 138.833,42.5 138.5,42.1667 138.5,41.5C 138.5,41.1667 138.5,40.8333 138.5,40.5 Z"/></g>
<g><path style="opacity:1" fill="#c43035" d="M 61.5,35.5 C 61.6107,36.1174 61.944,36.6174 62.5,37C 64.4727,37.4955 66.4727,37.6621 68.5,37.5C 69.1667,38.5 69.8333,39.5 70.5,40.5C 71.8897,41.8993 72.8897,43.5659 73.5,45.5C 73.5,49.1667 73.5,52.8333 73.5,56.5C 72.7713,60.6862 71.4379,64.6862 69.5,68.5C 70.6888,69.4287 72.0222,69.762 73.5,69.5C 74.1667,69.5 74.5,69.8333 74.5,70.5C 74.5,72.5 74.5,74.5 74.5,76.5C 73.8333,75.5 73.1667,74.5 72.5,73.5C 70.7768,72.193 68.9435,72.193 67,73.5C 66.0371,83.0357 69.8705,85.7024 78.5,81.5C 79.1641,84.1368 79.8307,86.8035 80.5,89.5C 80.229,92.0473 79.229,94.0473 77.5,95.5C 78.1942,92.1971 78.5275,88.5305 78.5,84.5C 77.209,84.2627 76.209,84.596 75.5,85.5C 66.782,85.4488 62.4487,81.1155 62.5,72.5C 62.0077,68.7104 62.841,68.0437 65,70.5C 65.7172,69.9558 66.2172,69.2891 66.5,68.5C 67.7729,66.2872 68.7729,63.9538 69.5,61.5C 70.3092,59.9724 70.9759,58.3057 71.5,56.5C 71.6646,53.4816 71.498,50.4816 71,47.5C 70.5348,46.0692 69.7014,44.9025 68.5,44C 63.9167,43.0663 62.4167,44.8996 64,49.5C 65.3033,50.1122 66.4699,50.4455 67.5,50.5C 66.4783,51.354 65.6449,52.354 65,53.5C 60.1845,50.2637 59.3512,46.2637 62.5,41.5C 61.3698,40.3777 60.7031,39.0443 60.5,37.5C 60.3284,36.5084 60.6618,35.8417 61.5,35.5 Z"/></g>
<g><path style="opacity:1" fill="#bb1722" d="M 109.5,30.5 C 109.196,31.1499 108.863,31.8165 108.5,32.5C 109.442,37.0568 110.775,37.3901 112.5,33.5C 113.552,33.3505 114.552,33.5172 115.5,34C 114.422,34.6739 113.755,35.6739 113.5,37C 114.665,39.2581 116.331,41.0914 118.5,42.5C 116.827,42.348 115.161,43.0146 113.5,44.5C 112.549,45.9187 112.216,47.5853 112.5,49.5C 109.752,49.4017 109.086,50.4017 110.5,52.5C 109.029,54.2156 108.029,56.2156 107.5,58.5C 107.5,58.8333 107.5,59.1667 107.5,59.5C 106.675,61.3076 105.675,63.1409 104.5,65C 104.743,65.9021 105.077,66.7354 105.5,67.5C 103.5,67.1667 101.5,66.8333 99.5,66.5C 99.3398,68.1992 99.5065,69.8659 100,71.5C 102.264,72.8505 104.098,74.5172 105.5,76.5C 102.845,75.9993 100.678,74.6659 99,72.5C 98.0816,74.3757 96.5816,75.3757 94.5,75.5C 94.5198,73.857 93.8532,72.5237 92.5,71.5C 93.7135,69.1493 93.0468,67.316 90.5,66C 88.6498,66.5948 86.6498,67.0948 84.5,67.5C 84.8016,70.0593 84.4682,72.3926 83.5,74.5C 83.5,70.8333 83.5,67.1667 83.5,63.5C 83.5,62.8333 83.5,62.1667 83.5,61.5C 85.9115,61.1367 87.4115,62.1367 88,64.5C 89.7313,60.6649 91.0646,60.9982 92,65.5C 93.6667,64.1667 95.3333,64.1667 97,65.5C 97.3333,64.8333 97.6667,64.1667 98,63.5C 101.262,64.841 101.762,64.5076 99.5,62.5C 100.578,60.5988 101.578,59.0988 102.5,58C 102.505,55.8372 101.505,54.3372 99.5,53.5C 94.5785,51.4572 89.5785,49.6239 84.5,48C 85.4275,44.2799 84.4275,41.1132 81.5,38.5C 81.7959,36.597 82.4625,34.9303 83.5,33.5C 88.1863,34.0373 92.853,34.704 97.5,35.5C 98.2341,36.7079 98.5674,38.0413 98.5,39.5C 98.1667,40.5 97.5,41.1667 96.5,41.5C 95.1266,41.3433 93.7932,41.51 92.5,42C 91.3595,42.7412 91.3595,43.5745 92.5,44.5C 91.8333,45.1667 91.1667,45.8333 90.5,46.5C 92.1353,47.6808 93.802,47.6808 95.5,46.5C 96.1698,48.2914 96.8365,49.9581 97.5,51.5C 98.675,51.719 99.675,51.3857 100.5,50.5C 102.27,46.63 104.77,43.2967 108,40.5C 108.667,39.5 108.667,38.5 108,37.5C 104.335,34.1823 104.835,31.849 109.5,30.5 Z"/></g>
<g><path style="opacity:1" fill="#bb6869" d="M 97.5,35.5 C 98.5862,35.62 99.2528,36.2867 99.5,37.5C 99.4573,38.4164 99.1239,39.0831 98.5,39.5C 98.5674,38.0413 98.2341,36.7079 97.5,35.5 Z"/></g>
<g><path style="opacity:1" fill="#965656" d="M 90.5,36.5 C 92.337,36.6395 92.6704,37.3061 91.5,38.5C 90.7025,38.0431 90.3691,37.3764 90.5,36.5 Z"/></g>
<g><path style="opacity:1" fill="#cb1426" d="M 81.5,38.5 C 84.4275,41.1132 85.4275,44.2799 84.5,48C 89.5785,49.6239 94.5785,51.4572 99.5,53.5C 101.505,54.3372 102.505,55.8372 102.5,58C 101.578,59.0988 100.578,60.5988 99.5,62.5C 101.762,64.5076 101.262,64.841 98,63.5C 97.6667,64.1667 97.3333,64.8333 97,65.5C 95.3333,64.1667 93.6667,64.1667 92,65.5C 91.0646,60.9982 89.7313,60.6649 88,64.5C 87.4115,62.1367 85.9115,61.1367 83.5,61.5C 82.7611,61.631 82.0944,61.4643 81.5,61C 82.8398,58.8511 82.1731,57.6845 79.5,57.5C 79.1667,56.8333 78.8333,56.1667 78.5,55.5C 79.4778,55.189 80.1445,54.5223 80.5,53.5C 79.3984,52.8243 78.3984,52.1577 77.5,51.5C 79.115,49.6721 79.4483,47.6721 78.5,45.5C 78.5858,44.5041 78.2524,43.6708 77.5,43C 78.448,42.5172 79.448,42.3505 80.5,42.5C 80.4326,41.0413 80.7659,39.7079 81.5,38.5 Z"/></g>
<g><path style="opacity:1" fill="#b74d4d" d="M 96.5,41.5 C 97.2297,43.045 98.563,43.8784 100.5,44C 97.3113,44.9808 96.978,46.3141 99.5,48C 98.1772,48.8159 97.5106,49.9826 97.5,51.5C 96.8365,49.9581 96.1698,48.2914 95.5,46.5C 93.802,47.6808 92.1353,47.6808 90.5,46.5C 91.1667,45.8333 91.8333,45.1667 92.5,44.5C 91.3595,43.5745 91.3595,42.7412 92.5,42C 93.7932,41.51 95.1266,41.3433 96.5,41.5 Z"/></g>
<g><path style="opacity:1" fill="#e7d3d3" d="M 156.5,36.5 C 156.585,38.9288 157.585,40.9288 159.5,42.5C 158.271,43.2811 156.938,43.7811 155.5,44C 158.004,45.8403 159.338,48.3403 159.5,51.5C 155.385,51.0375 152.719,48.7042 151.5,44.5C 153.048,44.1788 153.715,43.1788 153.5,41.5C 154.552,41.6495 155.552,41.4828 156.5,41C 155.199,39.3845 155.199,37.8845 156.5,36.5 Z"/></g>
<g><path style="opacity:1" fill="#bb1c24" d="M 173.5,38.5 C 172.313,40.8263 170.98,43.1596 169.5,45.5C 169.833,46.1667 170.167,46.8333 170.5,47.5C 168.833,48.5 167.5,49.8333 166.5,51.5C 164.177,50.3284 161.844,50.3284 159.5,51.5C 159.338,48.3403 158.004,45.8403 155.5,44C 156.938,43.7811 158.271,43.2811 159.5,42.5C 157.585,40.9288 156.585,38.9288 156.5,36.5C 161.551,34.6556 166.884,33.6556 172.5,33.5C 172.629,35.2161 172.962,36.8828 173.5,38.5 Z"/></g>
<g><path style="opacity:1" fill="#ca1526" d="M 147.5,37.5 C 147.961,40.3033 149.295,42.6366 151.5,44.5C 152.719,48.7042 155.385,51.0375 159.5,51.5C 161.844,50.3284 164.177,50.3284 166.5,51.5C 167.5,49.8333 168.833,48.5 170.5,47.5C 170.167,46.8333 169.833,46.1667 169.5,45.5C 170.98,43.1596 172.313,40.8263 173.5,38.5C 174.234,39.7079 174.567,41.0413 174.5,42.5C 175.552,42.3505 176.552,42.5172 177.5,43C 176.748,43.6708 176.414,44.5041 176.5,45.5C 175.552,47.6721 175.885,49.6721 177.5,51.5C 176.602,52.1577 175.602,52.8243 174.5,53.5C 174.855,54.5223 175.522,55.189 176.5,55.5C 176.167,56.1667 175.833,56.8333 175.5,57.5C 174.508,57.3284 173.842,57.6618 173.5,58.5C 170.416,59.7609 168.582,62.0942 168,65.5C 168.192,59.3627 166.692,58.8627 163.5,64C 161.833,64.6667 160.167,64.6667 158.5,64C 155.633,61.4659 153.8,58.2993 153,54.5C 152.439,55.0219 151.772,55.3552 151,55.5C 148.975,54.1912 147.475,52.5245 146.5,50.5C 144.852,48.5441 144.185,46.2108 144.5,43.5C 143.448,43.6495 142.448,43.4828 141.5,43C 141.833,42.6667 142.167,42.3333 142.5,42C 141.263,41.7679 140.263,41.2679 139.5,40.5C 140.5,40.5 141.5,40.5 142.5,40.5C 143.434,39.4324 143.768,38.099 143.5,36.5C 145.099,36.2322 146.432,36.5655 147.5,37.5 Z"/></g>
<g><path style="opacity:1" fill="#ba7b7c" d="M 160.5,41.5 C 162.983,41.73 163.483,42.3966 162,43.5C 160.97,43.1639 160.47,42.4972 160.5,41.5 Z"/></g>
<g><path style="opacity:1" fill="#f3ebea" d="M 139.5,42.5 C 140.467,43.8062 141.801,44.4729 143.5,44.5C 143.5,46.5 143.5,48.5 143.5,50.5C 144.5,50.5 145.5,50.5 146.5,50.5C 146.167,51.1667 145.833,51.8333 145.5,52.5C 145.449,54.5695 146.115,56.4029 147.5,58C 146.944,59.0111 146.278,59.8444 145.5,60.5C 144.094,60.9731 143.427,61.9731 143.5,63.5C 142.518,65.4061 141.518,67.4061 140.5,69.5C 140.167,69.1667 139.833,68.8333 139.5,68.5C 138.561,64.2351 138.228,59.9017 138.5,55.5C 138.294,51.1018 138.627,46.7685 139.5,42.5 Z"/></g>
<g><path style="opacity:1" fill="#ba8080" d="M 78.5,45.5 C 79.4483,47.6721 79.115,49.6721 77.5,51.5C 77.2053,49.2646 77.5386,47.2646 78.5,45.5 Z"/></g>
<g><path style="opacity:1" fill="#bb8484" d="M 176.5,45.5 C 177.338,45.8417 177.672,46.5084 177.5,47.5C 177.5,48.8333 177.5,50.1667 177.5,51.5C 175.885,49.6721 175.552,47.6721 176.5,45.5 Z"/></g>
<g><path style="opacity:1" fill="#c43237" d="M 194.5,33.5 C 194.986,36.7553 193.986,39.422 191.5,41.5C 194.722,44.0547 195.222,47.0547 193,50.5C 191.423,53.6754 189.59,54.0088 187.5,51.5C 192.603,49.1 192.77,46.4333 188,43.5C 185.599,44.3988 184.099,46.0655 183.5,48.5C 182.366,50.9664 182.199,53.633 183,56.5C 184.019,58.5018 184.852,60.5018 185.5,62.5C 186.768,69.7189 189.601,70.7189 194,65.5C 194.167,66 194.333,66.5 194.5,67C 192.42,72.0391 190.587,77.2058 189,82.5C 185.725,85.2933 182.225,85.96 178.5,84.5C 179.492,84.6716 180.158,84.3382 180.5,83.5C 186.82,83.6804 189.32,80.6804 188,74.5C 186.556,72.8446 184.722,72.178 182.5,72.5C 181.957,72.44 181.624,72.1067 181.5,71.5C 182.243,70.8182 182.909,70.1515 183.5,69.5C 184.376,69.6309 185.043,69.2975 185.5,68.5C 181.128,61.3477 179.794,53.6811 181.5,45.5C 182.094,43.1447 183.094,40.978 184.5,39C 184.387,37.7202 183.72,36.8869 182.5,36.5C 180.492,38.7617 180.159,38.2617 181.5,35C 184.191,35.4683 186.858,36.3016 189.5,37.5C 190.726,37.4805 191.726,37.1471 192.5,36.5C 193.167,35.5 193.833,34.5 194.5,33.5 Z"/></g>
<g><path style="opacity:1" fill="#d0a8a8" d="M 113.5,44.5 C 114.099,47.9476 113.099,50.6143 110.5,52.5C 109.086,50.4017 109.752,49.4017 112.5,49.5C 112.216,47.5853 112.549,45.9187 113.5,44.5 Z"/></g>
<g><path style="opacity:1" fill="#ae5c5d" d="M 133.5,44.5 C 133.828,49.8746 133.495,55.2079 132.5,60.5C 131.893,60.3764 131.56,60.0431 131.5,59.5C 132.167,54.5 132.833,49.5 133.5,44.5 Z"/></g>
<g><path style="opacity:1" fill="#c48b8b" d="M 73.5,45.5 C 74.4794,48.6248 74.8128,51.9581 74.5,55.5C 75.8333,55.5 77.1667,55.5 78.5,55.5C 78.8333,56.1667 79.1667,56.8333 79.5,57.5C 77.4352,57.4828 75.4352,57.1495 73.5,56.5C 73.5,52.8333 73.5,49.1667 73.5,45.5 Z"/></g>
<g><path style="opacity:1" fill="#c13a3d" d="M 119.5,56.5 C 118.835,54.3021 118.168,51.9688 117.5,49.5C 116.833,52.6417 116.166,55.6417 115.5,58.5C 115.5,55.5 115.5,52.5 115.5,49.5C 116.568,48.5655 117.901,48.2322 119.5,48.5C 119.5,51.1667 119.5,53.8333 119.5,56.5 Z"/></g>
<g><path style="opacity:1" fill="#c18c8c" d="M 131.5,41.5 C 133.833,42.8333 136.167,42.8333 138.5,41.5C 138.5,42.1667 138.833,42.5 139.5,42.5C 138.627,46.7685 138.294,51.1018 138.5,55.5C 137.517,51.7016 137.183,47.7016 137.5,43.5C 135.901,43.2322 134.568,43.5655 133.5,44.5C 132.833,49.5 132.167,54.5 131.5,59.5C 131.5,53.5 131.5,47.5 131.5,41.5 Z"/></g>
<g><path style="opacity:1" fill="#be8e8e" d="M 110.5,52.5 C 110.545,55.0772 109.545,57.0772 107.5,58.5C 108.029,56.2156 109.029,54.2156 110.5,52.5 Z"/></g>
<g><path style="opacity:1" fill="#b36768" d="M 121.5,43.5 C 121.829,49.5368 121.496,55.5368 120.5,61.5C 119.548,59.9547 119.215,58.288 119.5,56.5C 120.167,52.1667 120.833,47.8333 121.5,43.5 Z"/></g>
<g><path style="opacity:1" fill="#c06668" d="M 176.5,55.5 C 179.186,56.9881 178.853,57.6547 175.5,57.5C 175.833,56.8333 176.167,56.1667 176.5,55.5 Z"/></g>
<g><path style="opacity:1" fill="#bd7373" d="M 183.5,48.5 C 183.5,50.8333 183.5,53.1667 183.5,55.5C 184.873,55.3433 186.207,55.51 187.5,56C 188.863,58.1293 188.529,58.6293 186.5,57.5C 185.548,59.0453 185.215,60.712 185.5,62.5C 184.852,60.5018 184.019,58.5018 183,56.5C 182.199,53.633 182.366,50.9664 183.5,48.5 Z"/></g>
<g><path style="opacity:1" fill="#dabbbb" d="M 115.5,49.5 C 115.5,52.5 115.5,55.5 115.5,58.5C 114.189,63.0365 113.523,67.7031 113.5,72.5C 112.209,72.7373 111.209,72.404 110.5,71.5C 111.748,70.6661 112.415,69.3328 112.5,67.5C 113.307,61.3254 114.307,55.3254 115.5,49.5 Z"/></g>
<g><path style="opacity:1" fill="#f4ecec" d="M 73.5,56.5 C 75.4352,57.1495 77.4352,57.4828 79.5,57.5C 79.5,59.1667 79.5,60.8333 79.5,62.5C 80.9587,62.4326 82.2921,62.7659 83.5,63.5C 83.5,67.1667 83.5,70.8333 83.5,74.5C 82.0911,76.9717 80.4244,79.305 78.5,81.5C 69.8705,85.7024 66.0371,83.0357 67,73.5C 68.9435,72.193 70.7768,72.193 72.5,73.5C 72.6463,75.9424 71.813,76.6091 70,75.5C 69.3877,77.2373 70.0543,78.2373 72,78.5C 73.301,78.3613 74.1344,77.6946 74.5,76.5C 74.5,74.5 74.5,72.5 74.5,70.5C 76.898,69.1177 77.0647,67.451 75,65.5C 74.5899,66.9007 74.0899,68.234 73.5,69.5C 72.0222,69.762 70.6888,69.4287 69.5,68.5C 71.4379,64.6862 72.7713,60.6862 73.5,56.5 Z"/></g>
<g><path style="opacity:1" fill="#b67474" d="M 145.5,52.5 C 146.671,54.4213 148.004,56.2547 149.5,58C 149.361,59.301 148.695,60.1344 147.5,60.5C 146.833,60.5 146.167,60.5 145.5,60.5C 146.278,59.8444 146.944,59.0111 147.5,58C 146.115,56.4029 145.449,54.5695 145.5,52.5 Z"/></g>
<g><path style="opacity:1" fill="#f3eaea" d="M 181.5,45.5 C 179.794,53.6811 181.128,61.3477 185.5,68.5C 185.043,69.2975 184.376,69.6309 183.5,69.5C 182.5,69.5 181.5,69.5 180.5,69.5C 180.782,65.4122 180.115,64.9122 178.5,68C 180.066,70.9124 180.899,74.0791 181,77.5C 182.183,78.731 183.349,78.731 184.5,77.5C 182.995,76.1585 182.328,74.4918 182.5,72.5C 184.722,72.178 186.556,72.8446 188,74.5C 189.32,80.6804 186.82,83.6804 180.5,83.5C 175.696,81.3583 172.696,77.6917 171.5,72.5C 171.187,68.9581 171.521,65.6248 172.5,62.5C 175.084,61.9517 176.084,60.285 175.5,57.5C 178.853,57.6547 179.186,56.9881 176.5,55.5C 175.522,55.189 174.855,54.5223 174.5,53.5C 175.602,52.8243 176.602,52.1577 177.5,51.5C 177.5,50.1667 177.5,48.8333 177.5,47.5C 179.062,47.2671 180.395,46.6005 181.5,45.5 Z"/></g>
<g><path style="opacity:1" fill="#ba6565" d="M 71.5,56.5 C 70.9759,58.3057 70.3092,59.9724 69.5,61.5C 69.5,60.1667 69.5,58.8333 69.5,57.5C 68.325,57.719 67.325,57.3857 66.5,56.5C 67,56.1667 67.5,55.8333 68,55.5C 69.1385,55.9891 70.3052,56.3225 71.5,56.5 Z"/></g>
<g><path style="opacity:1" fill="#c38988" d="M 79.5,57.5 C 82.1731,57.6845 82.8398,58.8511 81.5,61C 82.0944,61.4643 82.7611,61.631 83.5,61.5C 83.5,62.1667 83.5,62.8333 83.5,63.5C 82.2921,62.7659 80.9587,62.4326 79.5,62.5C 79.5,60.8333 79.5,59.1667 79.5,57.5 Z"/></g>
<g><path style="opacity:1" fill="#c28a89" d="M 175.5,57.5 C 176.084,60.285 175.084,61.9517 172.5,62.5C 173.234,61.2921 173.567,59.9587 173.5,58.5C 173.842,57.6618 174.508,57.3284 175.5,57.5 Z"/></g>
<g><path style="opacity:1" fill="#bc5a5a" d="M 145.5,60.5 C 145.573,62.0269 144.906,63.0269 143.5,63.5C 143.427,61.9731 144.094,60.9731 145.5,60.5 Z"/></g>
<g><path style="opacity:1" fill="#d0abab" d="M 107.5,59.5 C 107.859,61.7659 107.192,63.5993 105.5,65C 106.252,65.6708 106.586,66.5041 106.5,67.5C 106.167,67.5 105.833,67.5 105.5,67.5C 105.077,66.7354 104.743,65.9021 104.5,65C 105.675,63.1409 106.675,61.3076 107.5,59.5 Z"/></g>
<g><path style="opacity:1" fill="#d7a1a0" d="M 220.5,63.5 C 220.5,64.8333 220.5,66.1667 220.5,67.5C 218.309,66.7093 216.309,66.7093 214.5,67.5C 213.711,67.2172 213.044,66.7172 212.5,66C 215.504,65.8827 218.171,65.0493 220.5,63.5 Z"/></g>
<g><path style="opacity:1" fill="#cb292f" d="M 230.5,74.5 C 230.158,75.3382 229.492,75.6716 228.5,75.5C 226.958,74.6993 225.292,74.366 223.5,74.5C 223.5,75.5 223.5,76.5 223.5,77.5C 222.732,78.2625 222.232,79.2625 222,80.5C 221.768,79.2625 221.268,78.2625 220.5,77.5C 220.5,76.5 220.5,75.5 220.5,74.5C 218.435,74.5172 216.435,74.8505 214.5,75.5C 213.833,75.5 213.5,75.1667 213.5,74.5C 218.032,72.5091 218.365,70.1757 214.5,67.5C 216.309,66.7093 218.309,66.7093 220.5,67.5C 220.5,66.1667 220.5,64.8333 220.5,63.5C 220.987,62.5266 221.487,61.5266 222,60.5C 223.128,62.3453 223.628,64.3453 223.5,66.5C 226.176,65.9919 228.843,65.8253 231.5,66C 225.483,68.4567 225.15,71.29 230.5,74.5 Z"/></g>
<g><path style="opacity:1" fill="#c81727" d="M 94.5,75.5 C 93.3646,77.2132 91.698,77.8799 89.5,77.5C 88.8617,79.46 88.8617,81.2933 89.5,83C 93.8092,84.5729 97.9759,86.4063 102,88.5C 103.892,85.6105 104.725,85.9438 104.5,89.5C 102.926,92.9065 101.926,96.5732 101.5,100.5C 102.5,100.5 103.5,100.5 104.5,100.5C 106.476,102.011 108.809,102.844 111.5,103C 112.598,103.77 112.598,104.603 111.5,105.5C 111.768,107.099 111.434,108.432 110.5,109.5C 109.5,109.5 108.5,109.5 107.5,109.5C 106.399,108.402 105.066,108.235 103.5,109C 103.833,109.333 104.167,109.667 104.5,110C 102.942,110.21 101.609,110.71 100.5,111.5C 99.6851,110.571 98.8518,109.571 98,108.5C 96.5064,109.747 95.0064,109.747 93.5,108.5C 92.8938,106.291 92.2272,104.124 91.5,102C 91.1667,101.833 90.8333,101.667 90.5,101.5C 89.8243,102.602 89.1577,103.602 88.5,104.5C 88.0919,103.357 87.4252,102.357 86.5,101.5C 85.086,102.624 83.586,103.624 82,104.5C 83.0219,107.642 83.5219,110.975 83.5,114.5C 87.8514,113.533 90.1847,115.2 90.5,119.5C 89.2209,118.032 87.5542,117.365 85.5,117.5C 85.5,118.5 85.5,119.5 85.5,120.5C 84.2101,122.987 83.2101,122.653 82.5,119.5C 81.2638,118.754 79.9305,118.421 78.5,118.5C 77.2772,112.637 75.2772,106.97 72.5,101.5C 72.4431,100.391 72.1098,99.391 71.5,98.5C 73.1914,96.9876 75.1914,95.9876 77.5,95.5C 79.229,94.0473 80.229,92.0473 80.5,89.5C 79.8307,86.8035 79.1641,84.1368 78.5,81.5C 80.4244,79.305 82.0911,76.9717 83.5,74.5C 84.4682,72.3926 84.8016,70.0593 84.5,67.5C 86.6498,67.0948 88.6498,66.5948 90.5,66C 93.0468,67.316 93.7135,69.1493 92.5,71.5C 93.8532,72.5237 94.5198,73.857 94.5,75.5 Z"/></g>
<g><path style="opacity:1" fill="#dbbdbd" d="M 147.5,63.5 C 148.833,63.5 150.167,63.5 151.5,63.5C 150.836,65.8669 149.503,67.8669 147.5,69.5C 146.702,69.0431 146.369,68.3764 146.5,67.5C 146.833,66.1667 147.167,64.8333 147.5,63.5 Z"/></g>
<g><path style="opacity:1" fill="#c71927" d="M 171.5,72.5 C 172.696,77.6917 175.696,81.3583 180.5,83.5C 180.158,84.3382 179.492,84.6716 178.5,84.5C 178.167,84.5 177.833,84.5 177.5,84.5C 177.44,83.9569 177.107,83.6236 176.5,83.5C 175.348,86.1062 175.182,88.7728 176,91.5C 176.383,92.056 176.883,92.3893 177.5,92.5C 177.196,93.1499 176.863,93.8165 176.5,94.5C 178.976,95.6879 181.31,97.0213 183.5,98.5C 184.167,98.5 184.5,98.8333 184.5,99.5C 183.194,100.467 182.527,101.801 182.5,103.5C 180.144,105.861 180.144,108.194 182.5,110.5C 181.167,111.833 179.833,113.167 178.5,114.5C 177.833,115.833 177.167,117.167 176.5,118.5C 173.911,118.461 171.911,119.461 170.5,121.5C 170.5,120.167 170.5,118.833 170.5,117.5C 168.856,117.286 167.356,117.62 166,118.5C 165.517,117.552 165.351,116.552 165.5,115.5C 167.379,114.659 169.379,114.325 171.5,114.5C 171.156,111.38 171.823,108.547 173.5,106C 172.87,104.69 171.87,103.856 170.5,103.5C 170.38,102.414 169.713,101.747 168.5,101.5C 166.946,100.628 165.612,100.628 164.5,101.5C 163.032,102.779 162.365,104.446 162.5,106.5C 162.573,108.027 161.906,109.027 160.5,109.5C 160.167,109.5 159.833,109.5 159.5,109.5C 157.857,109.48 156.524,110.147 155.5,111.5C 154.5,110.167 153.5,110.167 152.5,111.5C 151.289,110.726 151.289,109.893 152.5,109C 150.934,108.235 149.601,108.402 148.5,109.5C 147.5,109.5 146.5,109.5 145.5,109.5C 144.566,108.432 144.232,107.099 144.5,105.5C 143.167,105.5 141.833,105.5 140.5,105.5C 140.5,104.5 140.5,103.5 140.5,102.5C 141.167,102.5 141.5,102.167 141.5,101.5C 142.434,100.432 142.768,99.099 142.5,97.5C 143.5,97.5 144.5,97.5 145.5,97.5C 146.404,98.209 146.737,99.209 146.5,100.5C 149.059,100.61 151.392,99.9438 153.5,98.5C 152.975,97.8076 152.308,97.3076 151.5,97C 151.937,95.5386 151.937,94.3719 151.5,93.5C 152.417,91.3382 152.417,89.0048 151.5,86.5C 152.222,87.5511 153.222,88.2178 154.5,88.5C 154.307,92.0128 154.974,95.3462 156.5,98.5C 158.42,94.807 159.753,94.807 160.5,98.5C 161.5,98.5 162.5,98.5 163.5,98.5C 162.799,94.1809 163.966,90.5142 167,87.5C 167.49,86.2068 167.657,84.8734 167.5,83.5C 166.37,81.6854 165.704,79.6854 165.5,77.5C 164.469,76.7515 163.302,76.0848 162,75.5C 161.508,74.451 161.674,73.451 162.5,72.5C 161.02,71.8869 159.687,71.5536 158.5,71.5C 160.856,69.31 163.356,67.31 166,65.5C 167.11,67.0368 168.61,67.7035 170.5,67.5C 170.216,69.4147 170.549,71.0813 171.5,72.5 Z"/></g>
<g><path style="opacity:1" fill="#cb2e32" d="M 31.5,77.5 C 30.7784,77.9175 30.2784,78.5842 30,79.5C 29.7679,78.2625 29.2679,77.2625 28.5,76.5C 25.786,76.75 23.1194,76.9167 20.5,77C 22.4657,75.54 24.1323,73.8734 25.5,72C 23.8551,70.3551 22.1884,68.6884 20.5,67C 23.0208,67.7296 25.6874,68.2296 28.5,68.5C 29.1581,58.0132 30.4915,57.8465 32.5,68C 34.5,68 36.5,68 38.5,68C 34.4732,71.3113 34.8066,74.3113 39.5,77C 36.681,76.5078 34.0144,76.6744 31.5,77.5 Z"/></g>
<g><path style="opacity:1" fill="#c15958" d="M 66.5,68.5 C 66.2172,69.2891 65.7172,69.9558 65,70.5C 62.841,68.0437 62.0077,68.7104 62.5,72.5C 61.7611,72.631 61.0944,72.4643 60.5,72C 61.152,69.9095 61.3187,67.7429 61,65.5C 62.3455,67.3417 64.1789,68.3417 66.5,68.5 Z"/></g>
<g><path style="opacity:1" fill="#c06363" d="M 74.5,70.5 C 74.5,69.8333 74.1667,69.5 73.5,69.5C 74.0899,68.234 74.5899,66.9007 75,65.5C 77.0647,67.451 76.898,69.1177 74.5,70.5 Z"/></g>
<g><path style="opacity:1" fill="#bb1822" d="M 146.5,50.5 C 147.475,52.5245 148.975,54.1912 151,55.5C 151.772,55.3552 152.439,55.0219 153,54.5C 153.8,58.2993 155.633,61.4659 158.5,64C 160.167,64.6667 161.833,64.6667 163.5,64C 166.692,58.8627 168.192,59.3627 168,65.5C 168.582,62.0942 170.416,59.7609 173.5,58.5C 173.567,59.9587 173.234,61.2921 172.5,62.5C 171.521,65.6248 171.187,68.9581 171.5,72.5C 170.549,71.0813 170.216,69.4147 170.5,67.5C 168.61,67.7035 167.11,67.0368 166,65.5C 163.356,67.31 160.856,69.31 158.5,71.5C 159.687,71.5536 161.02,71.8869 162.5,72.5C 161.674,73.451 161.508,74.451 162,75.5C 163.302,76.0848 164.469,76.7515 165.5,77.5C 163.708,77.634 162.042,77.3007 160.5,76.5C 158.856,75.6836 157.69,74.3502 157,72.5C 156.283,73.0442 155.783,73.7109 155.5,74.5C 151.82,75.6747 148.487,77.508 145.5,80C 144.107,81.1711 143.273,82.6711 143,84.5C 142.329,83.7476 141.496,83.4142 140.5,83.5C 143.117,78.3066 145.117,72.9732 146.5,67.5C 146.369,68.3764 146.702,69.0431 147.5,69.5C 149.503,67.8669 150.836,65.8669 151.5,63.5C 150.167,63.5 148.833,63.5 147.5,63.5C 147.5,62.5 147.5,61.5 147.5,60.5C 148.695,60.1344 149.361,59.301 149.5,58C 148.004,56.2547 146.671,54.4213 145.5,52.5C 145.833,51.8333 146.167,51.1667 146.5,50.5 Z"/></g>
<g><path style="opacity:1" fill="#be5757" d="M 183.5,69.5 C 182.909,70.1515 182.243,70.8182 181.5,71.5C 181.624,72.1067 181.957,72.44 182.5,72.5C 182.328,74.4918 182.995,76.1585 184.5,77.5C 183.349,78.731 182.183,78.731 181,77.5C 180.899,74.0791 180.066,70.9124 178.5,68C 180.115,64.9122 180.782,65.4122 180.5,69.5C 181.5,69.5 182.5,69.5 183.5,69.5 Z"/></g>
<g><path style="opacity:1" fill="#f2e8e8" d="M 105.5,76.5 C 107.508,78.2676 109.674,79.9343 112,81.5C 112.333,82.5 112.667,83.5 113,84.5C 114.292,83.2089 115.458,83.2089 116.5,84.5C 117.103,88.2728 117.77,91.9394 118.5,95.5C 120.167,95.5 121.833,95.5 123.5,95.5C 128.167,95.5 132.833,95.5 137.5,95.5C 130.687,96.4912 123.687,96.8245 116.5,96.5C 116.169,98.3224 115.502,99.9891 114.5,101.5C 113.287,100.048 113.62,98.7143 115.5,97.5C 113.604,96.5344 111.604,96.2011 109.5,96.5C 109.5,97.8333 109.5,99.1667 109.5,100.5C 107.833,100.5 106.167,100.5 104.5,100.5C 103.909,99.8485 103.243,99.1818 102.5,98.5C 103.417,97.0295 104.417,95.5295 105.5,94C 105.088,92.4361 104.755,90.9361 104.5,89.5C 104.725,85.9438 103.892,85.6105 102,88.5C 97.9759,86.4063 93.8092,84.5729 89.5,83C 88.8617,81.2933 88.8617,79.46 89.5,77.5C 91.698,77.8799 93.3646,77.2132 94.5,75.5C 96.5816,75.3757 98.0816,74.3757 99,72.5C 100.678,74.6659 102.845,75.9993 105.5,76.5 Z"/></g>
<g><path style="opacity:1" fill="#f9f5f5" d="M 155.5,74.5 C 156.82,75.9418 158.486,76.6085 160.5,76.5C 162.042,77.3007 163.708,77.634 165.5,77.5C 165.704,79.6854 166.37,81.6854 167.5,83.5C 162.802,84.3012 158.469,85.9679 154.5,88.5C 153.222,88.2178 152.222,87.5511 151.5,86.5C 150.661,87.6412 149.994,88.9745 149.5,90.5C 150.612,91.2652 151.279,92.2652 151.5,93.5C 151.937,94.3719 151.937,95.5386 151.5,97C 152.308,97.3076 152.975,97.8076 153.5,98.5C 151.392,99.9438 149.059,100.61 146.5,100.5C 146.737,99.209 146.404,98.209 145.5,97.5C 144.054,96.3871 142.387,96.2204 140.5,97C 140.043,97.414 139.709,97.914 139.5,98.5C 140.612,99.2652 141.279,100.265 141.5,101.5C 141.5,102.167 141.167,102.5 140.5,102.5C 139.212,104.035 139.212,105.701 140.5,107.5C 141.167,107.167 141.833,106.833 142.5,106.5C 143.167,108.167 143.833,109.833 144.5,111.5C 145.298,111.043 145.631,110.376 145.5,109.5C 146.5,109.5 147.5,109.5 148.5,109.5C 150.048,109.821 150.715,110.821 150.5,112.5C 152.734,112.38 154.901,112.713 157,113.5C 159.02,112.968 159.853,111.635 159.5,109.5C 159.833,109.5 160.167,109.5 160.5,109.5C 162.456,110.801 164.123,110.301 165.5,108C 164.473,107.487 163.473,106.987 162.5,106.5C 162.365,104.446 163.032,102.779 164.5,101.5C 165.29,102.609 165.79,103.942 166,105.5C 166.939,102.985 168.439,102.318 170.5,103.5C 171.87,103.856 172.87,104.69 173.5,106C 171.823,108.547 171.156,111.38 171.5,114.5C 169.379,114.325 167.379,114.659 165.5,115.5C 164.402,116.601 164.235,117.934 165,119.5C 166,120.833 167,120.833 168,119.5C 168.708,120.381 169.542,121.047 170.5,121.5C 171.911,119.461 173.911,118.461 176.5,118.5C 176.5,119.833 177.167,120.5 178.5,120.5C 178.389,121.117 178.056,121.617 177.5,122C 203.498,122.5 229.498,122.667 255.5,122.5C 255.5,122.833 255.5,123.167 255.5,123.5C 170.167,123.5 84.8333,123.5 -0.5,123.5C -0.5,123.167 -0.5,122.833 -0.5,122.5C 25.8548,123.158 51.8548,122.491 77.5,120.5C 78.3382,120.158 78.6716,119.492 78.5,118.5C 79.9305,118.421 81.2638,118.754 82.5,119.5C 83.2101,122.653 84.2101,122.987 85.5,120.5C 86.7621,117.929 88.0955,117.929 89.5,120.5C 90.1067,120.376 90.44,120.043 90.5,119.5C 90.1847,115.2 87.8514,113.533 83.5,114.5C 83.5219,110.975 83.0219,107.642 82,104.5C 83.586,103.624 85.086,102.624 86.5,101.5C 87.4252,102.357 88.0919,103.357 88.5,104.5C 89.2341,105.708 89.5674,107.041 89.5,108.5C 92.9439,109.388 95.9439,111.055 98.5,113.5C 99.5223,113.145 100.189,112.478 100.5,111.5C 103.076,111.532 105.409,110.865 107.5,109.5C 108.5,109.5 109.5,109.5 110.5,109.5C 110.369,110.376 110.702,111.043 111.5,111.5C 112.167,109.833 112.833,108.167 113.5,106.5C 114.687,107.653 115.687,107.653 116.5,106.5C 116.608,104.486 115.942,102.82 114.5,101.5C 115.502,99.9891 116.169,98.3224 116.5,96.5C 123.687,96.8245 130.687,96.4912 137.5,95.5C 137.5,92.1667 137.5,88.8333 137.5,85.5C 137.973,84.0937 138.973,83.427 140.5,83.5C 141.496,83.4142 142.329,83.7476 143,84.5C 143.273,82.6711 144.107,81.1711 145.5,80C 148.487,77.508 151.82,75.6747 155.5,74.5 Z"/></g>
<g><path style="opacity:1" fill="#cba6a6" d="M 160.5,76.5 C 158.486,76.6085 156.82,75.9418 155.5,74.5C 155.783,73.7109 156.283,73.0442 157,72.5C 157.69,74.3502 158.856,75.6836 160.5,76.5 Z"/></g>
<g><path style="opacity:1" fill="#bf8586" d="M 213.5,74.5 C 213.5,75.1667 213.833,75.5 214.5,75.5C 213.749,76.5735 212.749,76.7401 211.5,76C 212.044,75.2828 212.711,74.7828 213.5,74.5 Z"/></g>
<g><path style="opacity:1" fill="#c28c8d" d="M 230.5,74.5 C 231.289,74.7828 231.956,75.2828 232.5,76C 230.934,76.765 229.601,76.5983 228.5,75.5C 229.492,75.6716 230.158,75.3382 230.5,74.5 Z"/></g>
<g><path style="opacity:1" fill="#be7676" d="M 72.5,73.5 C 73.1667,74.5 73.8333,75.5 74.5,76.5C 74.1344,77.6946 73.301,78.3613 72,78.5C 70.0543,78.2373 69.3877,77.2373 70,75.5C 71.813,76.6091 72.6463,75.9424 72.5,73.5 Z"/></g>
<g><path style="opacity:1" fill="#c65e5e" d="M 28.5,76.5 C 29.2679,77.2625 29.7679,78.2625 30,79.5C 30.2784,78.5842 30.7784,77.9175 31.5,77.5C 30.1283,83.8996 29.1283,83.5662 28.5,76.5 Z"/></g>
<g><path style="opacity:1" fill="#d4aeae" d="M 220.5,77.5 C 221.268,78.2625 221.768,79.2625 222,80.5C 222.232,79.2625 222.732,78.2625 223.5,77.5C 222.5,84.1667 221.5,84.1667 220.5,77.5 Z"/></g>
<g><path style="opacity:1" fill="#cc1125" d="M 167.5,83.5 C 167.657,84.8734 167.49,86.2068 167,87.5C 163.966,90.5142 162.799,94.1809 163.5,98.5C 162.5,98.5 161.5,98.5 160.5,98.5C 159.753,94.807 158.42,94.807 156.5,98.5C 154.974,95.3462 154.307,92.0128 154.5,88.5C 158.469,85.9679 162.802,84.3012 167.5,83.5 Z"/></g>
<g><path style="opacity:1" fill="#b92226" d="M 116.5,84.5 C 123.443,85.4267 130.443,85.76 137.5,85.5C 137.5,88.8333 137.5,92.1667 137.5,95.5C 132.833,95.5 128.167,95.5 123.5,95.5C 127.634,94.5151 131.968,94.1818 136.5,94.5C 136.5,92.1667 136.5,89.8333 136.5,87.5C 130.486,86.3843 124.486,86.3843 118.5,87.5C 118.5,90.1667 118.5,92.8333 118.5,95.5C 117.77,91.9394 117.103,88.2728 116.5,84.5 Z"/></g>
<g><path style="opacity:1" fill="#ce0620" d="M 123.5,95.5 C 121.833,95.5 120.167,95.5 118.5,95.5C 118.5,92.8333 118.5,90.1667 118.5,87.5C 124.486,86.3843 130.486,86.3843 136.5,87.5C 136.5,89.8333 136.5,92.1667 136.5,94.5C 131.968,94.1818 127.634,94.5151 123.5,95.5 Z"/></g>
<g><path style="opacity:1" fill="#bb5352" d="M 177.5,84.5 C 176.742,86.9815 176.742,89.6481 177.5,92.5C 176.883,92.3893 176.383,92.056 176,91.5C 175.182,88.7728 175.348,86.1062 176.5,83.5C 177.107,83.6236 177.44,83.9569 177.5,84.5 Z"/></g>
<g><path style="opacity:1" fill="#ba7170" d="M 151.5,86.5 C 152.417,89.0048 152.417,91.3382 151.5,93.5C 151.279,92.2652 150.612,91.2652 149.5,90.5C 149.994,88.9745 150.661,87.6412 151.5,86.5 Z"/></g>
<g><path style="opacity:1" fill="#ca9a9a" d="M 75.5,85.5 C 76.209,84.596 77.209,84.2627 78.5,84.5C 78.5275,88.5305 78.1942,92.1971 77.5,95.5C 75.1914,95.9876 73.1914,96.9876 71.5,98.5C 71.5,97.5 71.5,96.5 71.5,95.5C 75.5136,94.29 77.5136,91.4566 77.5,87C 77.1639,85.9701 76.4972,85.4701 75.5,85.5 Z"/></g>
<g><path style="opacity:1" fill="#c48f8e" d="M 177.5,92.5 C 179.328,93.7945 181.328,94.7945 183.5,95.5C 183.5,96.5 183.5,97.5 183.5,98.5C 181.31,97.0213 178.976,95.6879 176.5,94.5C 176.863,93.8165 177.196,93.1499 177.5,92.5 Z"/></g>
<g><path style="opacity:1" fill="#b35354" d="M 104.5,89.5 C 104.755,90.9361 105.088,92.4361 105.5,94C 104.417,95.5295 103.417,97.0295 102.5,98.5C 103.243,99.1818 103.909,99.8485 104.5,100.5C 103.5,100.5 102.5,100.5 101.5,100.5C 101.926,96.5732 102.926,92.9065 104.5,89.5 Z"/></g>
<g><path style="opacity:1" fill="#d1a09f" d="M 145.5,97.5 C 144.5,97.5 143.5,97.5 142.5,97.5C 142.768,99.099 142.434,100.432 141.5,101.5C 141.279,100.265 140.612,99.2652 139.5,98.5C 139.709,97.914 140.043,97.414 140.5,97C 142.387,96.2204 144.054,96.3871 145.5,97.5 Z"/></g>
<g><path style="opacity:1" fill="#c18a89" d="M 184.5,99.5 C 187.577,102.343 186.91,103.677 182.5,103.5C 182.527,101.801 183.194,100.467 184.5,99.5 Z"/></g>
<g><path style="opacity:1" fill="#c49292" d="M 71.5,98.5 C 72.1098,99.391 72.4431,100.391 72.5,101.5C 71.2905,101.932 70.2905,102.599 69.5,103.5C 68.9569,103.44 68.6236,103.107 68.5,102.5C 68.8148,100.517 69.8148,99.1837 71.5,98.5 Z"/></g>
<g><path style="opacity:1" fill="#bc2d30" d="M 114.5,101.5 C 115.942,102.82 116.608,104.486 116.5,106.5C 114.958,105.699 113.292,105.366 111.5,105.5C 112.598,104.603 112.598,103.77 111.5,103C 108.809,102.844 106.476,102.011 104.5,100.5C 106.167,100.5 107.833,100.5 109.5,100.5C 109.5,99.1667 109.5,97.8333 109.5,96.5C 111.604,96.2011 113.604,96.5344 115.5,97.5C 113.62,98.7143 113.287,100.048 114.5,101.5 Z"/></g>
<g><path style="opacity:1" fill="#bd7272" d="M 164.5,101.5 C 165.612,100.628 166.946,100.628 168.5,101.5C 169.713,101.747 170.38,102.414 170.5,103.5C 168.439,102.318 166.939,102.985 166,105.5C 165.79,103.942 165.29,102.609 164.5,101.5 Z"/></g>
<g><path style="opacity:1" fill="#ba7171" d="M 111.5,105.5 C 113.292,105.366 114.958,105.699 116.5,106.5C 115.687,107.653 114.687,107.653 113.5,106.5C 112.833,108.167 112.167,109.833 111.5,111.5C 110.702,111.043 110.369,110.376 110.5,109.5C 111.434,108.432 111.768,107.099 111.5,105.5 Z"/></g>
<g><path style="opacity:1" fill="#bb6868" d="M 140.5,102.5 C 140.5,103.5 140.5,104.5 140.5,105.5C 141.833,105.5 143.167,105.5 144.5,105.5C 144.232,107.099 144.566,108.432 145.5,109.5C 145.631,110.376 145.298,111.043 144.5,111.5C 143.833,109.833 143.167,108.167 142.5,106.5C 141.833,106.833 141.167,107.167 140.5,107.5C 139.212,105.701 139.212,104.035 140.5,102.5 Z"/></g>
<g><path style="opacity:1" fill="#be8686" d="M 71.5,103.5 C 72.1031,105.19 73.1031,106.69 74.5,108C 73.6195,108.708 72.9528,109.542 72.5,110.5C 71.5318,108.393 71.1984,106.059 71.5,103.5 Z"/></g>
<g><path style="opacity:1" fill="#b56f6f" d="M 182.5,103.5 C 183.103,106.041 183.103,108.374 182.5,110.5C 180.144,108.194 180.144,105.861 182.5,103.5 Z"/></g>
<g><path style="opacity:1" fill="#b33537" d="M 72.5,101.5 C 75.2772,106.97 77.2772,112.637 78.5,118.5C 78.6716,119.492 78.3382,120.158 77.5,120.5C 76.5655,119.432 76.2322,118.099 76.5,116.5C 76.0075,114.181 75.0075,112.181 73.5,110.5C 73.1667,110.5 72.8333,110.5 72.5,110.5C 72.9528,109.542 73.6195,108.708 74.5,108C 73.1031,106.69 72.1031,105.19 71.5,103.5C 70.8333,103.5 70.1667,103.5 69.5,103.5C 70.2905,102.599 71.2905,101.932 72.5,101.5 Z"/></g>
<g><path style="opacity:1" fill="#c28685" d="M 162.5,106.5 C 163.473,106.987 164.473,107.487 165.5,108C 164.123,110.301 162.456,110.801 160.5,109.5C 161.906,109.027 162.573,108.027 162.5,106.5 Z"/></g>
<g><path style="opacity:1" fill="#c58889" d="M 107.5,109.5 C 105.409,110.865 103.076,111.532 100.5,111.5C 101.609,110.71 102.942,110.21 104.5,110C 104.167,109.667 103.833,109.333 103.5,109C 105.066,108.235 106.399,108.402 107.5,109.5 Z"/></g>
<g><path style="opacity:1" fill="#d2abaa" d="M 100.5,111.5 C 100.189,112.478 99.5223,113.145 98.5,113.5C 95.9439,111.055 92.9439,109.388 89.5,108.5C 89.5674,107.041 89.2341,105.708 88.5,104.5C 89.1577,103.602 89.8243,102.602 90.5,101.5C 90.8333,101.667 91.1667,101.833 91.5,102C 92.2272,104.124 92.8938,106.291 93.5,108.5C 95.0064,109.747 96.5064,109.747 98,108.5C 98.8518,109.571 99.6851,110.571 100.5,111.5 Z"/></g>
<g><path style="opacity:1" fill="#d3b1b1" d="M 148.5,109.5 C 149.601,108.402 150.934,108.235 152.5,109C 151.289,109.893 151.289,110.726 152.5,111.5C 153.5,110.167 154.5,110.167 155.5,111.5C 156.524,110.147 157.857,109.48 159.5,109.5C 159.853,111.635 159.02,112.968 157,113.5C 154.901,112.713 152.734,112.38 150.5,112.5C 150.715,110.821 150.048,109.821 148.5,109.5 Z"/></g>
<g><path style="opacity:1" fill="#d1adac" d="M 73.5,110.5 C 75.0075,112.181 76.0075,114.181 76.5,116.5C 74.087,115.32 73.087,113.32 73.5,110.5 Z"/></g>
<g><path style="opacity:1" fill="#d3a4a4" d="M 165.5,115.5 C 165.351,116.552 165.517,117.552 166,118.5C 167.356,117.62 168.856,117.286 170.5,117.5C 170.5,118.833 170.5,120.167 170.5,121.5C 169.542,121.047 168.708,120.381 168,119.5C 167,120.833 166,120.833 165,119.5C 164.235,117.934 164.402,116.601 165.5,115.5 Z"/></g>
<g><path style="opacity:1" fill="#b65152" d="M 178.5,114.5 C 178.5,116.5 178.5,118.5 178.5,120.5C 177.167,120.5 176.5,119.833 176.5,118.5C 177.167,117.167 177.833,115.833 178.5,114.5 Z"/></g>
<g><path style="opacity:1" fill="#cca7a7" d="M 90.5,119.5 C 90.44,120.043 90.1067,120.376 89.5,120.5C 88.0955,117.929 86.7621,117.929 85.5,120.5C 85.5,119.5 85.5,118.5 85.5,117.5C 87.5542,117.365 89.2209,118.032 90.5,119.5 Z"/></g>
<g><path style="opacity:1" fill="#2255b2" d="M -0.5,123.5 C 84.8333,123.5 170.167,123.5 255.5,123.5C 255.5,133.5 255.5,143.5 255.5,153.5C 170.167,153.5 84.8333,153.5 -0.5,153.5C -0.5,143.5 -0.5,133.5 -0.5,123.5 Z"/></g>
<g><path style="opacity:1" fill="#efeff1" d="M 50.5,133.5 C 51.5,133.5 52.5,133.5 53.5,133.5C 53.5,136.833 53.5,140.167 53.5,143.5C 52.1667,143.5 50.8333,143.5 49.5,143.5C 48.3998,142.442 47.0664,141.608 45.5,141C 46.428,140.612 47.0946,139.945 47.5,139C 46.3421,137.739 46.3421,136.573 47.5,135.5C 47.9731,134.094 48.9731,133.427 50.5,133.5 Z"/></g>
<g><path style="opacity:1" fill="#8190bd" d="M 96.5,133.5 C 96.5,133.833 96.5,134.167 96.5,134.5C 93.3442,135.551 90.3442,135.551 87.5,134.5C 90.5176,134.296 93.5176,133.963 96.5,133.5 Z"/></g>
<g><path style="opacity:1" fill="#bbbecb" d="M 95.5,142.5 C 96.675,142.719 97.675,142.386 98.5,141.5C 96.8164,140.146 96.3164,138.479 97,136.5C 97.4226,137.956 98.2559,138.456 99.5,138C 99.0257,136.271 98.0257,135.105 96.5,134.5C 96.5,134.167 96.5,133.833 96.5,133.5C 98.0418,132.699 99.7085,132.366 101.5,132.5C 101.5,133.5 101.5,134.5 101.5,135.5C 102.5,135.5 103.5,135.5 104.5,135.5C 104.297,137.638 103.297,139.305 101.5,140.5C 102.167,141.5 102.833,142.5 103.5,143.5C 100.524,144.89 97.8569,144.557 95.5,142.5 Z"/></g>
<g><path style="opacity:1" fill="#cfcfd1" d="M 87.5,134.5 C 90.3442,135.551 93.3442,135.551 96.5,134.5C 98.0257,135.105 99.0257,136.271 99.5,138C 98.2559,138.456 97.4226,137.956 97,136.5C 96.3164,138.479 96.8164,140.146 98.5,141.5C 97.675,142.386 96.675,142.719 95.5,142.5C 94.5084,142.672 93.8417,142.338 93.5,141.5C 91.4268,140.862 89.4268,139.862 87.5,138.5C 87.4455,139.53 87.1122,140.697 86.5,142C 81.3359,143.323 76.3359,144.823 71.5,146.5C 66.1563,146.666 60.8229,146.499 55.5,146C 53.1484,145.76 51.1484,144.927 49.5,143.5C 50.8333,143.5 52.1667,143.5 53.5,143.5C 53.5,140.167 53.5,136.833 53.5,133.5C 52.5,133.5 51.5,133.5 50.5,133.5C 54.4858,131.436 58.8192,130.103 63.5,129.5C 66.4889,125.475 69.1556,125.809 71.5,130.5C 75.0677,131.97 78.401,131.636 81.5,129.5C 83.5707,131.185 85.5707,132.852 87.5,134.5 Z"/></g>
<g><path style="opacity:1" fill="#d1d2d4" d="M 197.5,133.5 C 197.97,134.693 198.97,135.36 200.5,135.5C 208.296,133.717 208.962,134.55 202.5,138C 202.957,138.414 203.291,138.914 203.5,139.5C 197.958,141.131 192.624,143.131 187.5,145.5C 186.8,149.813 185.133,150.313 182.5,147C 176.5,146.667 170.5,146.333 164.5,146C 160.308,144.724 156.474,142.891 153,140.5C 152.316,139.216 152.483,138.049 153.5,137C 159.614,133.137 166.281,130.803 173.5,130C 177.035,125.34 179.702,125.84 181.5,131.5C 185.131,131.968 188.465,131.301 191.5,129.5C 193.29,131.316 195.29,132.649 197.5,133.5 Z"/></g>
<g><path style="opacity:1" fill="#bdc0ca" d="M 187.5,145.5 C 192.624,143.131 197.958,141.131 203.5,139.5C 203.291,138.914 202.957,138.414 202.5,138C 208.962,134.55 208.296,133.717 200.5,135.5C 198.97,135.36 197.97,134.693 197.5,133.5C 198.416,133.982 199.416,134.315 200.5,134.5C 204.034,133.078 207.7,132.411 211.5,132.5C 211.5,133.5 211.5,134.5 211.5,135.5C 212.5,135.5 213.5,135.5 214.5,135.5C 214.297,137.638 213.297,139.305 211.5,140.5C 212.167,141.5 212.833,142.5 213.5,143.5C 212.5,143.833 211.5,144.167 210.5,144.5C 207.29,143.646 204.124,142.646 201,141.5C 198.338,143.649 195.505,145.649 192.5,147.5C 190.925,146.544 189.258,145.877 187.5,145.5 Z"/></g>
<g><path style="opacity:1" fill="#c6c8d2" d="M 47.5,135.5 C 46.3421,136.573 46.3421,137.739 47.5,139C 47.0946,139.945 46.428,140.612 45.5,141C 47.0664,141.608 48.3998,142.442 49.5,143.5C 45.9776,143.728 43.6443,142.228 42.5,139C 43.4304,136.862 45.097,135.695 47.5,135.5 Z"/></g>
<g><path style="opacity:1" fill="#b5b8c2" d="M 93.5,141.5 C 91.712,141.215 90.0453,141.548 88.5,142.5C 86.489,144.341 84.3224,146.008 82,147.5C 80.4329,146.144 78.5996,145.477 76.5,145.5C 76.762,146.978 76.4287,148.311 75.5,149.5C 74.1482,148.476 72.8149,147.476 71.5,146.5C 76.3359,144.823 81.3359,143.323 86.5,142C 87.1122,140.697 87.4455,139.53 87.5,138.5C 89.4268,139.862 91.4268,140.862 93.5,141.5 Z"/></g>
</svg>
