<svg xmlns="http://www.w3.org/2000/svg" width="256" height="154"><path fill="#CC0806" d="M0 0h256v154H0V0Z"/><path fill="#F9F893" d="M128.313 92c3.235 1.204 5.877 2.905 8.722 4.844 1.998 1.175 3.702 1.712 5.965 2.156v2l2.375.625c4.013 1.522 7.354 3.544 10.965 5.84 2.713 1.636 2.713 1.636 5.996 2.96 3.958 1.701 7.62 3.687 11.351 5.825l2.104 1.192a736.63 736.63 0 0 1 15.463 9.05c2.799 1.596 2.799 1.596 6.105 2.938 3.947 1.702 7.604 3.687 11.328 5.82l2.097 1.188a580.395 580.395 0 0 1 9.782 5.671L223.75 144l2.797 1.688c2.198 1.176 4.017 1.857 6.453 2.312v2l2.313.313C238 151 238 151 241 154H14c4.982-3.985 9.138-6.645 14.98-9.05 3.292-1.548 6.323-3.51 9.395-5.45C41 138 41 138 44.367 136.578c3.827-1.662 7.225-3.632 10.758-5.828 7.889-4.814 15.843-9.643 24.383-13.219 3.37-1.477 6.278-3.165 9.367-5.156 9.78-6.129 20.037-11.402 30.4-16.472 1.935-.972 1.935-.972 4.412-2.716C126 92 126 92 128.314 92ZM16 0h224c-4.5 3.375-4.5 3.375-8 4v2l-2.875 1.125c-3.07 1.311-5.85 2.87-8.688 4.625-4.218 2.587-8.519 4.905-12.937 7.125l-1.854.94C201.248 22 201.248 22 199 22v2l-1.536.644c-6.801 2.93-13.277 6.376-19.776 9.919l-3.245 1.748c-4.366 2.37-8.47 4.707-12.443 7.689-1.615.692-3.23 1.38-4.86 2.04-3.723 1.67-7.236 3.741-10.785 5.753C144 53 144 53 142 53v2l-3.125 1.25c-2.744 1.145-4.545 2.245-7 4.063C129 62 129 62 126.437 61.437c-1.61-.949-3.213-1.907-4.812-2.874-2.605-1.638-2.605-1.638-5.54-2.762-5.55-2.347-10.793-5.304-16.085-8.176-1.054-.565-2.109-1.13-3.195-1.71C91.245 42.904 86.085 39.747 81 36a195.971 195.971 0 0 0-7-3 587.877 587.877 0 0 1-10-5v-2l-2.223-.336c-2.912-.696-4.714-1.668-7.215-3.289-5.248-3.274-10.7-5.983-16.265-8.664C35.02 12.01 32.058 10.059 29 8l-3.5-1.5C21.912 4.962 19.136 3.295 16 1V0Z"/><path fill="#F8F792" d="M256 22v109c-3.685-.921-5.672-1.887-8.813-3.875-3.29-2.082-6.538-3.712-10.132-5.205-4.438-1.987-8.668-4.399-12.93-6.733l-2.855-1.54c-5.307-2.896-10.393-5.952-15.357-9.406-2.798-1.815-5.844-2.949-8.913-4.241-2.556-1.491-5.07-3.043-7.59-4.594-2.538-1.55-2.538-1.55-5.972-2.906-2.984-1.302-5.277-2.67-7.938-4.5-3.697-2.54-7.323-4.33-11.5-6-2.687-1.296-5.341-2.647-8-4 1.206-3.619 1.982-3.837 5.25-5.563l2.328-1.253C166 70 166 70 168.36 69.109c3.421-1.437 6.494-3.351 9.641-5.296 18.345-11.164 18.345-11.164 23.3-12.376L203 51l1-2a103.624 103.624 0 0 1 5.563-2.875l3.32-1.625a801.881 801.881 0 0 1 5.234-2.5c5.466-2.628 10.53-5.84 15.637-9.098 3.328-1.95 6.698-3.399 10.246-4.902a148.991 148.991 0 0 0 5.313-3.188C253.78 22 253.78 22 256 22Z"/><path fill="#F9F993" d="M0 23c4.5 1.5 7.293 2.618 11.125 5.063C14.088 29.95 16.531 31.352 20 32v2l2 .188c3.502.948 5.952 2.542 8.938 4.558 2.018 1.313 2.018 1.313 4.242 2.082 4.217 1.752 8.025 4.154 11.945 6.484C53.933 51.316 60.674 55.02 68 58v2l3.11.766c3.803 1.089 6.811 2.826 10.14 4.984C87.043 69.428 92.936 72.792 99 76v2l-2.08 1.07c-3.1 1.598-6.198 3.201-9.295 4.805l-3.273 1.684-3.125 1.62-2.889 1.492C75.908 89.916 75.908 89.916 74 92c-1.606.686-3.213 1.37-4.828 2.036-4.55 2.02-8.871 4.51-13.234 6.901l-3.153 1.716a3523.1 3523.1 0 0 0-16.18 8.87l-3.048 1.676c-1.928 1.06-3.853 2.125-5.776 3.193l-2.617 1.44-2.298 1.273C21 120 21 120 19 120v2l-2.875 1.125c-4.257 1.802-8.083 4.21-11.988 6.668C2 131 2 131 0 131V23Z"/></svg>