<?xml version="1.0" encoding="UTF-8"?>
<svg version="1.1" xmlns="http://www.w3.org/2000/svg" width="256" height="154">
<path d="M0 0 C84.48 0 168.96 0 256 0 C256 50.82 256 101.64 256 154 C171.52 154 87.04 154 0 154 C0 103.18 0 52.36 0 0 Z " fill="#CC0806" transform="translate(0,0)"/>
<path d="M0 0 C3.23520965 1.20379894 5.87708494 2.90538063 8.72265625 4.84375 C10.72038542 6.01935206 12.42429938 6.55643284 14.6875 7 C14.6875 7.66 14.6875 8.32 14.6875 9 C15.47125 9.20625 16.255 9.4125 17.0625 9.625 C21.07528542 11.14709102 24.41652769 13.16918671 28.02734375 15.46484375 C30.74049355 17.10104232 30.74049355 17.10104232 34.0234375 18.42578125 C37.98139082 20.12626652 41.64265436 22.11187234 45.375 24.25 C46.06907959 24.6433252 46.76315918 25.03665039 47.47827148 25.44189453 C52.67191629 28.39314124 57.82101125 31.41549152 62.94140625 34.4921875 C65.74044048 36.08839941 65.74044048 36.08839941 69.046875 37.4296875 C72.99364699 39.13205052 76.65061297 41.11656005 80.375 43.25 C81.0669043 43.641875 81.75880859 44.03375 82.47167969 44.4375 C85.7497426 46.29945183 89.01272497 48.18392077 92.25390625 50.109375 C93.30449219 50.73328125 94.35507813 51.3571875 95.4375 52 C96.82195312 52.8353125 96.82195312 52.8353125 98.234375 53.6875 C100.43294005 54.86380232 102.2514921 55.54467142 104.6875 56 C104.6875 56.66 104.6875 57.32 104.6875 58 C105.450625 58.103125 106.21375 58.20625 107 58.3125 C109.6875 59 109.6875 59 112.6875 62 C37.7775 62 -37.1325 62 -114.3125 62 C-109.3307578 58.01460624 -105.17436197 55.35488434 -99.33203125 52.94921875 C-96.0407639 51.40225944 -93.00902562 49.43991091 -89.9375 47.5 C-87.3125 46 -87.3125 46 -83.9453125 44.578125 C-80.11881206 42.91586029 -76.72056758 40.94595184 -73.1875 38.75 C-65.29845196 33.93570843 -57.34422501 29.10682472 -48.8046875 25.53125 C-45.43482979 24.05363901 -42.5260159 22.36574102 -39.4375 20.375 C-29.65663116 14.24640935 -19.40045193 8.97292397 -9.03710938 3.90258789 C-7.10279718 2.93088083 -7.10279718 2.93088083 -4.625 1.1875 C-2.3125 0 -2.3125 0 0 0 Z " fill="#F9F893" transform="translate(128.3125,92)"/>
<path d="M0 0 C73.92 0 147.84 0 224 0 C219.5 3.375 219.5 3.375 216 4 C216 4.66 216 5.32 216 6 C215.05125 6.37125 214.1025 6.7425 213.125 7.125 C210.05532505 8.43619848 207.27570031 9.99547617 204.4375 11.75 C200.21936815 14.33677423 195.91812075 16.6548844 191.5 18.875 C190.88825928 19.1853418 190.27651855 19.49568359 189.64624023 19.81542969 C185.24809543 22 185.24809543 22 183 22 C183 22.66 183 23.32 183 24 C182.49315674 24.21261475 181.98631348 24.42522949 181.46411133 24.64428711 C174.66255113 27.57480693 168.18697559 31.01986738 161.6875 34.5625 C160.61693359 35.13935547 159.54636719 35.71621094 158.44335938 36.31054688 C154.07657044 38.68124569 149.97376697 41.01797837 146 44 C144.38541504 44.69196498 142.76914912 45.38057231 141.140625 46.0390625 C137.41655911 47.7108147 133.90424433 49.78118011 130.35546875 51.79296875 C128 53 128 53 126 53 C126 53.66 126 54.32 126 55 C124.96875 55.4125 123.9375 55.825 122.875 56.25 C120.13098764 57.39518258 118.33041755 58.49549101 115.875 60.3125 C113 62 113 62 110.4375 61.4375 C108.8279315 60.4882673 107.22360748 59.53007821 105.625 58.5625 C103.01953277 56.9251306 103.01953277 56.9251306 100.0859375 55.80078125 C94.53451106 53.45421982 89.29186627 50.49735773 84 47.625 C82.94554688 47.06039062 81.89109375 46.49578125 80.8046875 45.9140625 C75.24550297 42.90457914 70.08481995 39.74812356 65 36 C62.68745988 34.95281202 60.3514852 33.95653635 58 33 C54.64670879 31.37252289 51.32168904 29.69092018 48 28 C48 27.34 48 26.68 48 26 C47.26652344 25.88914062 46.53304687 25.77828125 45.77734375 25.6640625 C42.86535054 24.96780533 41.0627802 23.99563223 38.5625 22.375 C33.31370281 19.10138736 27.86139448 16.39248196 22.296875 13.7109375 C19.02142642 12.0111194 16.05811425 10.05867468 13 8 C11.845 7.505 10.69 7.01 9.5 6.5 C5.91213177 4.96234219 3.13642036 3.29494173 0 1 C0 0.67 0 0.34 0 0 Z " fill="#F9F893" transform="translate(16,0)"/>
<path d="M0 0 C0 35.97 0 71.94 0 109 C-3.68532303 108.07866924 -5.67194078 107.11319654 -8.8125 105.125 C-12.10366181 103.04251606 -15.35087753 101.41315587 -18.94506836 99.91992188 C-23.38311689 97.93316093 -27.61257462 95.52113452 -31.875 93.1875 C-32.81730469 92.67896484 -33.75960937 92.17042969 -34.73046875 91.64648438 C-40.03708403 88.75096608 -45.12349758 85.6950222 -50.08666992 82.24145508 C-52.88457626 80.42604692 -55.93090122 79.29225212 -59 78 C-61.55579518 76.50877428 -64.0698262 74.95703003 -66.58984375 73.40625 C-69.12782056 71.85580552 -69.12782056 71.85580552 -72.5625 70.5 C-75.54565776 69.19825843 -77.83926402 67.83065814 -80.5 66 C-84.19693572 63.4603115 -87.82271444 61.67091422 -92 60 C-94.68686186 58.70404013 -97.34101512 57.35281687 -100 56 C-98.79376456 52.38129369 -98.0175405 52.16323745 -94.75 50.4375 C-93.98171875 50.02371094 -93.2134375 49.60992187 -92.421875 49.18359375 C-90 48 -90 48 -87.640625 47.109375 C-84.21985443 45.67224654 -81.14681359 43.75802514 -78 41.8125 C-59.65544588 30.64920918 -59.65544588 30.64920918 -54.69921875 29.4375 C-54.13847656 29.293125 -53.57773438 29.14875 -53 29 C-52.67 28.34 -52.34 27.68 -52 27 C-50.17891945 25.98019489 -48.3168628 25.03292746 -46.4375 24.125 C-45.34179688 23.58875 -44.24609375 23.0525 -43.1171875 22.5 C-41.37483657 21.66157549 -39.63118292 20.82579857 -37.8828125 20 C-32.41663376 17.37248061 -27.35328676 14.15919511 -22.24609375 10.90234375 C-18.91795058 8.95191568 -15.54831473 7.5033862 -12 6 C-10.20835168 4.9729882 -8.43489826 3.91311632 -6.6875 2.8125 C-2.2189781 0 -2.2189781 0 0 0 Z " fill="#F8F792" transform="translate(256,22)"/>
<path d="M0 0 C4.49908593 1.49969531 7.29284323 2.61784827 11.125 5.0625 C14.08757953 6.94987544 16.53080009 8.3525226 20 9 C20 9.66 20 10.32 20 11 C20.66 11.061875 21.32 11.12375 22 11.1875 C25.50246797 12.13608507 27.95196772 13.72965562 30.9375 15.74609375 C32.95600063 17.05900296 32.95600063 17.05900296 35.1796875 17.828125 C39.39673873 19.58036235 43.20504974 21.98193729 47.125 24.3125 C53.93300496 28.31517673 60.6736243 32.02005842 68 35 C68 35.66 68 36.32 68 37 C69.53914063 37.37898438 69.53914063 37.37898438 71.109375 37.765625 C74.91250494 38.85496373 77.92128805 40.59219175 81.25 42.75 C87.04262009 46.4282802 92.93626302 49.79193073 99 53 C99 53.66 99 54.32 99 55 C97.97060303 55.52956299 97.97060303 55.52956299 96.92041016 56.06982422 C93.81990142 57.66762918 90.72243016 59.2712358 87.625 60.875 C86.00464844 61.70837891 86.00464844 61.70837891 84.3515625 62.55859375 C83.3203125 63.09355469 82.2890625 63.62851563 81.2265625 64.1796875 C80.27346191 64.67194824 79.32036133 65.16420898 78.33837891 65.67138672 C75.90709006 66.91592015 75.90709006 66.91592015 74 69 C72.39412154 69.68640078 70.78668978 70.36935509 69.17236328 71.03564453 C64.62193788 73.05566929 60.30084916 75.54684063 55.9375 77.9375 C54.89706543 78.50364014 53.85663086 79.06978027 52.78466797 79.65307617 C47.38308009 82.59446628 41.99157229 85.55380203 36.60546875 88.5234375 C35.59943604 89.07652588 34.59340332 89.62961426 33.55688477 90.19946289 C31.62945486 91.25987836 29.70409269 92.32406247 27.78100586 93.39233398 C26.4856189 94.10498413 26.4856189 94.10498413 25.1640625 94.83203125 C24.40561035 95.25202393 23.6471582 95.6720166 22.86572266 96.10473633 C21 97 21 97 19 97 C19 97.66 19 98.32 19 99 C18.05125 99.37125 17.1025 99.7425 16.125 100.125 C11.86833522 101.92690104 8.04155542 104.33525379 4.13671875 106.79296875 C2 108 2 108 0 108 C0 72.36 0 36.72 0 0 Z " fill="#F9F993" transform="translate(0,23)"/>
</svg>
