<?xml version="1.0" encoding="UTF-8"?>
<!DOCTYPE svg PUBLIC "-//W3C//DTD SVG 1.1//EN" "http://www.w3.org/Graphics/SVG/1.1/DTD/svg11.dtd">
<svg xmlns="http://www.w3.org/2000/svg" version="1.1" width="256px" height="154px" style="shape-rendering:geometricPrecision; text-rendering:geometricPrecision; image-rendering:optimizeQuality; fill-rule:evenodd; clip-rule:evenodd" xmlns:xlink="http://www.w3.org/1999/xlink">
<g><path style="opacity:1" fill="#023092" d="M -0.5,-0.5 C 84.8333,-0.5 170.167,-0.5 255.5,-0.5C 255.5,50.8333 255.5,102.167 255.5,153.5C 170.167,153.5 84.8333,153.5 -0.5,153.5C -0.5,102.167 -0.5,50.8333 -0.5,-0.5 Z"/></g>
<g><path style="opacity:1" fill="#212f65" d="M 148.5,44.5 C 148.063,42.9256 147.063,41.7589 145.5,41C 142.721,40.439 140.054,39.6056 137.5,38.5C 139.372,36.9385 141.705,35.9385 144.5,35.5C 142.954,34.316 141.287,33.316 139.5,32.5C 140.737,31.7193 141.737,30.7193 142.5,29.5C 136.189,28.5171 129.856,27.6838 123.5,27C 122.956,26.2828 122.289,25.7828 121.5,25.5C 121.665,22.4816 121.498,19.4816 121,16.5C 120.292,15.6195 119.458,14.9528 118.5,14.5C 116.712,13.3775 114.712,13.2109 112.5,14C 111.837,15.5185 110.837,16.6851 109.5,17.5C 110.509,14.9514 111.342,12.2848 112,9.5C 114.792,11.4066 117.958,12.5732 121.5,13C 122.167,16.6667 122.833,20.3333 123.5,24C 125.722,24.6946 127.889,25.5279 130,26.5C 133.791,25.9838 137.625,26.3172 141.5,27.5C 144.264,28.6282 144.931,30.4615 143.5,33C 144.448,33.4828 145.448,33.6495 146.5,33.5C 146.756,35.9124 145.756,37.5791 143.5,38.5C 146.135,39.2716 148.801,39.4382 151.5,39C 149.487,39.8753 149.487,41.2087 151.5,43C 150.756,44.0386 149.756,44.5386 148.5,44.5 Z"/></g>
<g><path style="opacity:1" fill="#2d3753" d="M 40.5,13.5 C 39.3995,14.6049 38.7329,15.9382 38.5,17.5C 37.8333,17.5 37.1667,17.5 36.5,17.5C 37.2341,16.2921 37.5674,14.9587 37.5,13.5C 38.5,13.5 39.5,13.5 40.5,13.5 Z"/></g>
<g><path style="opacity:1" fill="#ab9e4c" d="M 40.5,13.5 C 42.4147,13.2155 44.0813,13.5489 45.5,14.5C 43.4508,14.7058 43.1175,15.5391 44.5,17C 42.5273,17.4955 40.5273,17.6621 38.5,17.5C 38.7329,15.9382 39.3995,14.6049 40.5,13.5 Z"/></g>
<g><path style="opacity:1" fill="#454f45" d="M 47.5,15.5 C 48.1174,15.6107 48.6174,15.944 49,16.5C 49.4955,18.4727 49.6621,20.4727 49.5,22.5C 49.5,23.1667 49.5,23.8333 49.5,24.5C 48.6562,21.6553 47.9896,18.6553 47.5,15.5 Z"/></g>
<g><path style="opacity:1" fill="#ab9d4f" d="M 118.5,14.5 C 116.952,14.8212 116.285,15.8212 116.5,17.5C 114.801,17.3398 113.134,17.5065 111.5,18C 111.957,18.414 112.291,18.914 112.5,19.5C 111.189,23.3888 110.522,27.3888 110.5,31.5C 110.124,26.9562 109.79,22.2896 109.5,17.5C 110.837,16.6851 111.837,15.5185 112.5,14C 114.712,13.2109 116.712,13.3775 118.5,14.5 Z"/></g>
<g><path style="opacity:1" fill="#a79b56" d="M 36.5,17.5 C 37.1667,17.5 37.8333,17.5 38.5,17.5C 39.8333,18.8333 39.8333,20.1667 38.5,21.5C 36.8958,20.713 36.2291,19.3797 36.5,17.5 Z"/></g>
<g><path style="opacity:1" fill="#bbaa49" d="M 191.5,14.5 C 188.795,14.3802 188.128,15.3802 189.5,17.5C 186.766,18.9006 184.766,20.9006 183.5,23.5C 183.715,21.8212 183.048,20.8212 181.5,20.5C 182.553,17.9212 183.887,15.4212 185.5,13C 187.881,12.2615 189.881,12.7615 191.5,14.5 Z"/></g>
<g><path style="opacity:1" fill="#293669" d="M 109.5,17.5 C 109.79,22.2896 110.124,26.9562 110.5,31.5C 110.557,32.609 110.89,33.609 111.5,34.5C 111.5,34.8333 111.5,35.1667 111.5,35.5C 110.25,35.4226 109.417,34.756 109,33.5C 108.667,34.5 108.333,35.5 108,36.5C 106.688,32.594 106.855,28.594 108.5,24.5C 107.167,23.1667 107.167,21.8333 108.5,20.5C 105.771,18.6329 106.104,17.6329 109.5,17.5 Z"/></g>
<g><path style="opacity:1" fill="#253058" d="M 193.5,15.5 C 194.867,18.4663 195.867,21.6329 196.5,25C 202.726,26.6122 209.393,27.4455 216.5,27.5C 216.517,29.5648 216.85,31.5648 217.5,33.5C 216.167,33.5 214.833,33.5 213.5,33.5C 212.662,33.1583 212.328,32.4916 212.5,31.5C 213.404,30.791 213.737,29.791 213.5,28.5C 210.5,28.5 207.5,28.5 204.5,28.5C 202.031,27.6829 199.365,27.1829 196.5,27C 195.627,25.955 194.627,25.1217 193.5,24.5C 193.5,21.5 193.5,18.5 193.5,15.5 Z"/></g>
<g><path style="opacity:1" fill="#193278" d="M 36.5,17.5 C 36.2291,19.3797 36.8958,20.713 38.5,21.5C 38.5,22.1667 38.5,22.8333 38.5,23.5C 37.8826,23.6107 37.3826,23.944 37,24.5C 35.8285,30.1611 37.4952,34.8278 42,38.5C 42.4935,40.1341 42.6602,41.8008 42.5,43.5C 41.8501,43.1961 41.1835,42.8627 40.5,42.5C 38.671,37.3418 36.0043,32.6751 32.5,28.5C 34.6502,26.0775 34.9835,23.4109 33.5,20.5C 34.1882,19.1451 35.1882,18.1451 36.5,17.5 Z"/></g>
<g><path style="opacity:1" fill="#c2b045" d="M 38.5,23.5 C 38.1778,27.747 39.0111,31.747 41,35.5C 42.1096,37.0368 43.6096,37.7035 45.5,37.5C 45.5,39.5 45.5,41.5 45.5,43.5C 44.5,43.5 43.5,43.5 42.5,43.5C 42.6602,41.8008 42.4935,40.1341 42,38.5C 37.4952,34.8278 35.8285,30.1611 37,24.5C 37.3826,23.944 37.8826,23.6107 38.5,23.5 Z"/></g>
<g><path style="opacity:1" fill="#afa051" d="M 121.5,25.5 C 122.289,25.7828 122.956,26.2828 123.5,27C 129.856,27.6838 136.189,28.5171 142.5,29.5C 141.737,30.7193 140.737,31.7193 139.5,32.5C 141.287,33.316 142.954,34.316 144.5,35.5C 141.705,35.9385 139.372,36.9385 137.5,38.5C 128.312,39.4242 120.479,36.7575 114,30.5C 113.202,28.7412 113.369,27.0745 114.5,25.5C 115.386,26.325 115.719,27.325 115.5,28.5C 117.199,28.6602 118.866,28.4935 120.5,28C 121.252,27.3292 121.586,26.4959 121.5,25.5 Z"/></g>
<g><path style="opacity:1" fill="#c0b451" d="M 204.5,28.5 C 207.5,28.5 210.5,28.5 213.5,28.5C 213.737,29.791 213.404,30.791 212.5,31.5C 208.941,31.5919 205.608,30.7585 202.5,29C 203.094,28.5357 203.761,28.369 204.5,28.5 Z"/></g>
<g><path style="opacity:1" fill="#b6a44e" d="M 193.5,24.5 C 194.627,25.1217 195.627,25.955 196.5,27C 199.365,27.1829 202.031,27.6829 204.5,28.5C 203.761,28.369 203.094,28.5357 202.5,29C 205.608,30.7585 208.941,31.5919 212.5,31.5C 212.328,32.4916 212.662,33.1583 213.5,33.5C 214.551,34.2223 215.218,35.2223 215.5,36.5C 214.167,36.5 212.833,36.5 211.5,36.5C 207.033,36.8674 202.7,36.3674 198.5,35C 201.247,31.501 200.247,29.3343 195.5,28.5C 194.107,29.8631 192.441,30.6964 190.5,31C 191.598,31.7697 191.598,32.603 190.5,33.5C 188.133,32.1292 186.467,30.1292 185.5,27.5C 187.716,24.7824 188.383,24.949 187.5,28C 187.63,29.0588 188.13,29.8921 189,30.5C 189.7,28.968 190.866,27.968 192.5,27.5C 193.386,26.675 193.719,25.675 193.5,24.5 Z"/></g>
<g><path style="opacity:1" fill="#ead031" d="M 118.5,14.5 C 119.458,14.9528 120.292,15.6195 121,16.5C 121.498,19.4816 121.665,22.4816 121.5,25.5C 121.586,26.4959 121.252,27.3292 120.5,28C 118.866,28.4935 117.199,28.6602 115.5,28.5C 115.719,27.325 115.386,26.325 114.5,25.5C 113.369,27.0745 113.202,28.7412 114,30.5C 120.479,36.7575 128.312,39.4242 137.5,38.5C 137.611,39.1174 137.944,39.6174 138.5,40C 134.975,40.1787 131.641,40.6787 128.5,41.5C 128.785,43.288 128.452,44.9547 127.5,46.5C 126.893,46.3764 126.56,46.0431 126.5,45.5C 125.458,44.2089 124.292,44.2089 123,45.5C 122.767,43.2199 121.934,41.2199 120.5,39.5C 119.614,40.325 119.281,41.325 119.5,42.5C 118.325,42.719 117.325,42.3857 116.5,41.5C 117.326,40.549 117.492,39.549 117,38.5C 115.853,36.1811 114.019,34.8477 111.5,34.5C 110.89,33.609 110.557,32.609 110.5,31.5C 110.522,27.3888 111.189,23.3888 112.5,19.5C 112.291,18.914 111.957,18.414 111.5,18C 113.134,17.5065 114.801,17.3398 116.5,17.5C 116.285,15.8212 116.952,14.8212 118.5,14.5 Z"/></g>
<g><path style="opacity:1" fill="#21336d" d="M 181.5,20.5 C 183.048,20.8212 183.715,21.8212 183.5,23.5C 181.732,26.1625 181.065,29.1625 181.5,32.5C 180.235,31.4855 179.569,29.9855 179.5,28C 179.965,25.3967 180.632,22.8967 181.5,20.5 Z"/></g>
<g><path style="opacity:1" fill="#1a2d63" d="M 49.5,22.5 C 50.4778,22.811 51.1445,23.4777 51.5,24.5C 57.8288,25.666 64.1621,26.8327 70.5,28C 71.3802,29.3561 71.7135,30.8561 71.5,32.5C 70.209,32.2627 69.209,32.596 68.5,33.5C 67.8333,33.5 67.1667,33.5 66.5,33.5C 67.1738,31.9755 68.1738,30.6422 69.5,29.5C 62.6389,28.8092 55.9722,27.4758 49.5,25.5C 49.5,25.1667 49.5,24.8333 49.5,24.5C 49.5,23.8333 49.5,23.1667 49.5,22.5 Z"/></g>
<g><path style="opacity:1" fill="#ecd330" d="M 45.5,14.5 C 46.4916,14.3284 47.1583,14.6618 47.5,15.5C 47.9896,18.6553 48.6562,21.6553 49.5,24.5C 49.5,24.8333 49.5,25.1667 49.5,25.5C 48.5554,28.9868 46.2221,30.3201 42.5,29.5C 42.6567,28.1266 42.49,26.7932 42,25.5C 40.421,27.4585 40.5876,29.4585 42.5,31.5C 44.3783,33.8745 46.7116,35.7078 49.5,37C 54.7674,38.191 60.1007,38.691 65.5,38.5C 65.6107,39.1174 65.944,39.6174 66.5,40C 62.5138,40.4988 58.5138,40.6655 54.5,40.5C 54.5,41.8333 54.5,43.1667 54.5,44.5C 53.1266,44.6567 51.7932,44.49 50.5,44C 49.8534,42.3905 49.02,40.8905 48,39.5C 47.8784,41.437 47.045,42.7703 45.5,43.5C 45.5,41.5 45.5,39.5 45.5,37.5C 43.6096,37.7035 42.1096,37.0368 41,35.5C 39.0111,31.747 38.1778,27.747 38.5,23.5C 38.5,22.8333 38.5,22.1667 38.5,21.5C 39.8333,20.1667 39.8333,18.8333 38.5,17.5C 40.5273,17.6621 42.5273,17.4955 44.5,17C 43.1175,15.5391 43.4508,14.7058 45.5,14.5 Z"/></g>
<g><path style="opacity:1" fill="#9b8b4d" d="M 211.5,36.5 C 211.167,37.1667 210.833,37.8333 210.5,38.5C 205.248,37.7151 199.915,37.2151 194.5,37C 192.676,36.34 191.343,35.1733 190.5,33.5C 191.598,32.603 191.598,31.7697 190.5,31C 192.441,30.6964 194.107,29.8631 195.5,28.5C 200.247,29.3343 201.247,31.501 198.5,35C 202.7,36.3674 207.033,36.8674 211.5,36.5 Z"/></g>
<g><path style="opacity:1" fill="#535c57" d="M 213.5,33.5 C 214.833,33.5 216.167,33.5 217.5,33.5C 217.715,35.1788 217.048,36.1788 215.5,36.5C 215.218,35.2223 214.551,34.2223 213.5,33.5 Z"/></g>
<g><path style="opacity:1" fill="#a2934c" d="M 49.5,25.5 C 55.9722,27.4758 62.6389,28.8092 69.5,29.5C 68.1738,30.6422 67.1738,31.9755 66.5,33.5C 67.1667,33.5 67.8333,33.5 68.5,33.5C 68.8333,33.5 69.1667,33.5 69.5,33.5C 70.0906,34.1515 70.7573,34.8182 71.5,35.5C 69.2549,36.2082 67.2549,37.2082 65.5,38.5C 60.1007,38.691 54.7674,38.191 49.5,37C 46.7116,35.7078 44.3783,33.8745 42.5,31.5C 40.5876,29.4585 40.421,27.4585 42,25.5C 42.49,26.7932 42.6567,28.1266 42.5,29.5C 46.2221,30.3201 48.5554,28.9868 49.5,25.5 Z"/></g>
<g><path style="opacity:1" fill="#c9b549" d="M 66.5,33.5 C 66.5,34.5 66.5,35.5 66.5,36.5C 61.4195,36.7503 56.4195,36.2503 51.5,35C 54.0432,34.8603 56.3766,34.1937 58.5,33C 57.6721,32.0853 56.6721,31.4186 55.5,31C 56,30.8333 56.5,30.6667 57,30.5C 60.1469,31.6621 63.3136,32.6621 66.5,33.5 Z"/></g>
<g><path style="opacity:1" fill="#1d2e61" d="M 69.5,33.5 C 70.8333,33.5 72.1667,33.5 73.5,33.5C 73.6715,35.4918 73.0049,37.1585 71.5,38.5C 73.3279,39.7952 75.3279,40.7952 77.5,41.5C 79.0916,43.2249 78.7583,44.2249 76.5,44.5C 75.015,41.9173 72.6817,40.584 69.5,40.5C 68.4863,39.3263 67.153,38.6596 65.5,38.5C 67.2549,37.2082 69.2549,36.2082 71.5,35.5C 70.7573,34.8182 70.0906,34.1515 69.5,33.5 Z"/></g>
<g><path style="opacity:1" fill="#e7ce33" d="M 191.5,14.5 C 192.167,14.8333 192.833,15.1667 193.5,15.5C 193.5,18.5 193.5,21.5 193.5,24.5C 193.719,25.675 193.386,26.675 192.5,27.5C 190.866,27.968 189.7,28.968 189,30.5C 188.13,29.8921 187.63,29.0588 187.5,28C 188.383,24.949 187.716,24.7824 185.5,27.5C 186.467,30.1292 188.133,32.1292 190.5,33.5C 191.343,35.1733 192.676,36.34 194.5,37C 199.915,37.2151 205.248,37.7151 210.5,38.5C 212.38,38.2291 213.713,38.8958 214.5,40.5C 215.79,41.9348 217.456,42.9348 219.5,43.5C 217.604,44.4656 215.604,44.7989 213.5,44.5C 213.923,46.7812 213.256,48.4479 211.5,49.5C 210.71,48.5987 209.71,47.9321 208.5,47.5C 206.03,46.1156 204.363,44.1156 203.5,41.5C 201.821,41.2852 200.821,41.9519 200.5,43.5C 199.081,44.4511 197.415,44.7845 195.5,44.5C 194.885,38.5047 193.552,38.1714 191.5,43.5C 189.444,42.3777 188.111,40.7111 187.5,38.5C 185.785,36.1182 183.785,34.1182 181.5,32.5C 181.065,29.1625 181.732,26.1625 183.5,23.5C 184.766,20.9006 186.766,18.9006 189.5,17.5C 188.128,15.3802 188.795,14.3802 191.5,14.5 Z"/></g>
<g><path style="opacity:1" fill="#172f6e" d="M 217.5,33.5 C 219.185,34.1837 220.185,35.517 220.5,37.5C 219.975,38.1924 219.308,38.6924 218.5,39C 220.384,39.2163 222.051,39.883 223.5,41C 223.818,44.8424 221.818,46.6757 217.5,46.5C 217.5,48.5 217.5,50.5 217.5,52.5C 215.901,52.7678 214.568,52.4345 213.5,51.5C 215.84,50.4282 216.173,48.7615 214.5,46.5C 223.821,44.4781 223.821,42.4781 214.5,40.5C 213.713,38.8958 212.38,38.2291 210.5,38.5C 210.833,37.8333 211.167,37.1667 211.5,36.5C 212.833,36.5 214.167,36.5 215.5,36.5C 217.048,36.1788 217.715,35.1788 217.5,33.5 Z"/></g>
<g><path style="opacity:1" fill="#ab9940" d="M 65.5,38.5 C 67.153,38.6596 68.4863,39.3263 69.5,40.5C 65.7416,42.1828 61.7416,42.8495 57.5,42.5C 57.44,41.9569 57.1067,41.6236 56.5,41.5C 55.9432,43.3316 54.9432,44.6649 53.5,45.5C 51.9826,45.5106 50.8159,46.1772 50,47.5C 49.5172,46.552 49.3505,45.552 49.5,44.5C 47.901,44.7678 46.5676,44.4345 45.5,43.5C 47.045,42.7703 47.8784,41.437 48,39.5C 49.02,40.8905 49.8534,42.3905 50.5,44C 51.7932,44.49 53.1266,44.6567 54.5,44.5C 54.5,43.1667 54.5,41.8333 54.5,40.5C 58.5138,40.6655 62.5138,40.4988 66.5,40C 65.944,39.6174 65.6107,39.1174 65.5,38.5 Z"/></g>
<g><path style="opacity:1" fill="#baac41" d="M 137.5,38.5 C 140.054,39.6056 142.721,40.439 145.5,41C 147.063,41.7589 148.063,42.9256 148.5,44.5C 148.167,44.5 147.833,44.5 147.5,44.5C 146.167,44.5 144.833,44.5 143.5,44.5C 143.918,43.7784 144.584,43.2784 145.5,43C 141.567,41.3742 137.567,41.3742 133.5,43C 132.748,43.6708 132.414,44.5041 132.5,45.5C 129.827,45.3155 129.16,44.1489 130.5,42C 129.906,41.5357 129.239,41.369 128.5,41.5C 131.641,40.6787 134.975,40.1787 138.5,40C 137.944,39.6174 137.611,39.1174 137.5,38.5 Z"/></g>
<g><path style="opacity:1" fill="#ddc93d" d="M 69.5,40.5 C 72.6817,40.584 75.015,41.9173 76.5,44.5C 76.1667,44.5 75.8333,44.5 75.5,44.5C 73.1667,44.5 70.8333,44.5 68.5,44.5C 68.5,45.8333 68.5,47.1667 68.5,48.5C 66.7839,48.3713 65.1172,48.038 63.5,47.5C 62.5084,47.6716 61.8417,47.3382 61.5,46.5C 59.9586,45.3332 58.6252,43.9999 57.5,42.5C 61.7416,42.8495 65.7416,42.1828 69.5,40.5 Z"/></g>
<g><path style="opacity:1" fill="#656145" d="M 200.5,43.5 C 200.821,41.9519 201.821,41.2852 203.5,41.5C 204.363,44.1156 206.03,46.1156 208.5,47.5C 206.516,47.6168 204.85,46.9501 203.5,45.5C 202.522,45.9767 201.689,46.6433 201,47.5C 199.244,46.4519 197.41,46.4519 195.5,47.5C 193.583,47.2462 192.249,46.2462 191.5,44.5C 192.931,44.1193 193.764,43.1193 194,41.5C 194.202,43.2556 194.702,44.9223 195.5,46.5C 197.535,45.9588 199.535,45.2922 201.5,44.5C 201.376,43.8933 201.043,43.56 200.5,43.5 Z"/></g>
<g><path style="opacity:1" fill="#756f3e" d="M 57.5,42.5 C 58.6252,43.9999 59.9586,45.3332 61.5,46.5C 58.6964,45.8469 56.0298,45.5135 53.5,45.5C 54.9432,44.6649 55.9432,43.3316 56.5,41.5C 57.1067,41.6236 57.44,41.9569 57.5,42.5 Z"/></g>
<g><path style="opacity:1" fill="#474c48" d="M 187.5,38.5 C 188.111,40.7111 189.444,42.3777 191.5,43.5C 191.5,43.8333 191.5,44.1667 191.5,44.5C 190.167,44.5 188.833,44.5 187.5,44.5C 187.5,42.5 187.5,40.5 187.5,38.5 Z"/></g>
<g><path style="opacity:1" fill="#b2a450" d="M 200.5,43.5 C 201.043,43.56 201.376,43.8933 201.5,44.5C 199.535,45.2922 197.535,45.9588 195.5,46.5C 194.702,44.9223 194.202,43.2556 194,41.5C 193.764,43.1193 192.931,44.1193 191.5,44.5C 191.5,44.1667 191.5,43.8333 191.5,43.5C 193.552,38.1714 194.885,38.5047 195.5,44.5C 197.415,44.7845 199.081,44.4511 200.5,43.5 Z"/></g>
<g><path style="opacity:1" fill="#6a734a" d="M 143.5,44.5 C 144.833,44.5 146.167,44.5 147.5,44.5C 146.081,45.4511 144.415,45.7845 142.5,45.5C 142.833,47.5 143.167,49.5 143.5,51.5C 142.5,51.5 141.5,51.5 140.5,51.5C 139.833,50.5 139.167,49.5 138.5,48.5C 141.55,49.8145 142.217,48.8145 140.5,45.5C 141.325,44.6143 142.325,44.281 143.5,44.5 Z"/></g>
<g><path style="opacity:1" fill="#343540" d="M 128.5,41.5 C 129.239,41.369 129.906,41.5357 130.5,42C 129.16,44.1489 129.827,45.3155 132.5,45.5C 132.5,45.8333 132.5,46.1667 132.5,46.5C 129.771,47.5304 127.104,47.5304 124.5,46.5C 124.842,45.6618 125.508,45.3284 126.5,45.5C 126.56,46.0431 126.893,46.3764 127.5,46.5C 128.452,44.9547 128.785,43.288 128.5,41.5 Z"/></g>
<g><path style="opacity:1" fill="#ecd330" d="M 143.5,44.5 C 142.325,44.281 141.325,44.6143 140.5,45.5C 142.217,48.8145 141.55,49.8145 138.5,48.5C 136.5,47.8333 134.5,47.1667 132.5,46.5C 132.5,46.1667 132.5,45.8333 132.5,45.5C 132.414,44.5041 132.748,43.6708 133.5,43C 137.567,41.3742 141.567,41.3742 145.5,43C 144.584,43.2784 143.918,43.7784 143.5,44.5 Z"/></g>
<g><path style="opacity:1" fill="#857e49" d="M 111.5,35.5 C 111.5,35.1667 111.5,34.8333 111.5,34.5C 114.019,34.8477 115.853,36.1811 117,38.5C 117.492,39.549 117.326,40.549 116.5,41.5C 117.325,42.3857 118.325,42.719 119.5,42.5C 119.281,41.325 119.614,40.325 120.5,39.5C 121.934,41.2199 122.767,43.2199 123,45.5C 124.292,44.2089 125.458,44.2089 126.5,45.5C 125.508,45.3284 124.842,45.6618 124.5,46.5C 122.189,47.1514 120.189,46.3181 118.5,44C 117.552,43.5172 116.552,43.3505 115.5,43.5C 116.226,39.7396 114.893,37.073 111.5,35.5 Z"/></g>
<g><path style="opacity:1" fill="#7d7d4f" d="M 214.5,40.5 C 223.821,42.4781 223.821,44.4781 214.5,46.5C 216.173,48.7615 215.84,50.4282 213.5,51.5C 212.833,50.8333 212.167,50.1667 211.5,49.5C 213.256,48.4479 213.923,46.7812 213.5,44.5C 215.604,44.7989 217.604,44.4656 219.5,43.5C 217.456,42.9348 215.79,41.9348 214.5,40.5 Z"/></g>
<g><path style="opacity:1" fill="#122e75" d="M 111.5,35.5 C 114.893,37.073 116.226,39.7396 115.5,43.5C 116.552,43.3505 117.552,43.5172 118.5,44C 120.189,46.3181 122.189,47.1514 124.5,46.5C 127.104,47.5304 129.771,47.5304 132.5,46.5C 134.5,47.1667 136.5,47.8333 138.5,48.5C 139.167,49.5 139.833,50.5 140.5,51.5C 137.272,49.8237 133.772,48.8237 130,48.5C 124.563,50.4786 119.563,49.8119 115,46.5C 114.586,46.9574 114.086,47.2907 113.5,47.5C 112.682,45.8917 112.015,44.2251 111.5,42.5C 111.584,40.1247 111.584,37.7913 111.5,35.5 Z"/></g>
<g><path style="opacity:1" fill="#152f73" d="M 42.5,43.5 C 43.5,43.5 44.5,43.5 45.5,43.5C 46.5676,44.4345 47.901,44.7678 49.5,44.5C 49.3505,45.552 49.5172,46.552 50,47.5C 50.8159,46.1772 51.9826,45.5106 53.5,45.5C 56.0298,45.5135 58.6964,45.8469 61.5,46.5C 61.8417,47.3382 62.5084,47.6716 63.5,47.5C 63.8333,48.1667 64.1667,48.8333 64.5,49.5C 62.5328,49.7394 60.6995,49.4061 59,48.5C 58.2613,49.5742 57.2613,50.2409 56,50.5C 53.536,49.8392 51.036,49.3392 48.5,49C 46.5721,46.9091 44.5721,45.0757 42.5,43.5 Z"/></g>
<g><path style="opacity:1" fill="#7f7e4f" d="M 75.5,44.5 C 73.6309,45.1646 71.6309,45.8313 69.5,46.5C 70.9294,48.3313 71.4294,50.3313 71,52.5C 69.0065,51.086 66.8398,50.086 64.5,49.5C 64.1667,48.8333 63.8333,48.1667 63.5,47.5C 65.1172,48.038 66.7839,48.3713 68.5,48.5C 68.5,47.1667 68.5,45.8333 68.5,44.5C 70.8333,44.5 73.1667,44.5 75.5,44.5 Z"/></g>
<g><path style="opacity:1" fill="#2d396b" d="M 153.5,58.5 C 149.759,57.5985 147.759,58.9319 147.5,62.5C 146.094,62.9731 145.427,63.9731 145.5,65.5C 145.598,63.1179 145.598,60.6179 145.5,58C 147.076,57.5604 148.41,56.727 149.5,55.5C 151.483,55.8148 152.816,56.8148 153.5,58.5 Z"/></g>
<g><path style="opacity:1" fill="#4a515a" d="M 83.5,59.5 C 82.8333,59.5 82.1667,59.5 81.5,59.5C 79.6531,58.4271 77.6531,58.4271 75.5,59.5C 76.3121,58.0069 77.6455,57.3402 79.5,57.5C 81.3545,57.3402 82.6879,58.0069 83.5,59.5 Z"/></g>
<g><path style="opacity:1" fill="#a89c4c" d="M 81.5,59.5 C 79.4508,59.7058 79.1175,60.5391 80.5,62C 78.4233,62.1922 76.4233,62.6922 74.5,63.5C 75.7349,65.3163 75.7349,66.983 74.5,68.5C 74.6716,67.5084 74.3382,66.8417 73.5,66.5C 72.1267,63.6166 72.7934,61.2833 75.5,59.5C 77.6531,58.4271 79.6531,58.4271 81.5,59.5 Z"/></g>
<g><path style="opacity:1" fill="#a89e4a" d="M 153.5,58.5 C 154.492,58.3284 155.158,58.6618 155.5,59.5C 153.058,59.3537 152.391,60.187 153.5,62C 151.527,62.4955 149.527,62.6621 147.5,62.5C 147.759,58.9319 149.759,57.5985 153.5,58.5 Z"/></g>
<g><path style="opacity:1" fill="#d6c140" d="M 155.5,59.5 C 156.117,59.6107 156.617,59.944 157,60.5C 157.498,63.4816 157.665,66.4816 157.5,69.5C 158.888,72.0089 158.054,73.6755 155,74.5C 154,73.1667 153,73.1667 152,74.5C 151.26,73.2506 151.427,72.2506 152.5,71.5C 153.568,72.4345 154.901,72.7678 156.5,72.5C 156.037,69.5176 155.704,66.5176 155.5,63.5C 151.222,62.803 148.555,64.4697 147.5,68.5C 147.573,66.9731 146.906,65.9731 145.5,65.5C 145.427,63.9731 146.094,62.9731 147.5,62.5C 149.527,62.6621 151.527,62.4955 153.5,62C 152.391,60.187 153.058,59.3537 155.5,59.5 Z"/></g>
<g><path style="opacity:1" fill="#383c4f" d="M 145.5,65.5 C 146.906,65.9731 147.573,66.9731 147.5,68.5C 147.167,69.5 146.5,70.1667 145.5,70.5C 145.5,68.8333 145.5,67.1667 145.5,65.5 Z"/></g>
<g><path style="opacity:1" fill="#1a3176" d="M 185.5,90.5 C 185.512,87.858 184.179,86.5246 181.5,86.5C 180.833,86.5 180.167,86.5 179.5,86.5C 178.167,85.5 176.833,84.5 175.5,83.5C 176.833,82.8333 178.167,82.1667 179.5,81.5C 180.491,79.8773 179.824,78.8773 177.5,78.5C 178.038,76.8828 178.371,75.2161 178.5,73.5C 177.5,73.5 176.5,73.5 175.5,73.5C 174.5,73.5 173.5,73.5 172.5,73.5C 170.167,72.8333 167.833,72.1667 165.5,71.5C 169.226,71.8226 172.893,71.4892 176.5,70.5C 177.85,69.0499 179.516,68.3832 181.5,68.5C 181.579,69.9305 181.246,71.2638 180.5,72.5C 181.491,73.6652 182.491,74.8319 183.5,76C 181.998,78.0057 182.331,79.6723 184.5,81C 183.376,81.2492 182.376,81.7492 181.5,82.5C 183.133,84.503 185.133,85.8363 187.5,86.5C 187.843,88.4832 187.176,89.8166 185.5,90.5 Z"/></g>
<g><path style="opacity:1" fill="#28345f" d="M 87.5,71.5 C 93.9092,71.1827 100.243,71.6827 106.5,73C 107.308,73.3076 107.975,73.8076 108.5,74.5C 107.174,75.6422 106.174,76.9755 105.5,78.5C 104.833,78.5 104.167,78.5 103.5,78.5C 103.5,77.8333 103.5,77.1667 103.5,76.5C 103.918,75.7784 104.584,75.2784 105.5,75C 103.975,73.9914 102.308,73.4914 100.5,73.5C 96.1667,72.8333 91.8333,72.1667 87.5,71.5 Z"/></g>
<g><path style="opacity:1" fill="#5d5f46" d="M 159.5,71.5 C 161.5,71.5 163.5,71.5 165.5,71.5C 167.833,72.1667 170.167,72.8333 172.5,73.5C 169.934,73.3444 167.434,73.6777 165,74.5C 162.88,73.8598 161.046,72.8598 159.5,71.5 Z"/></g>
<g><path style="opacity:1" fill="#cfc054" d="M 100.5,73.5 C 102.308,73.4914 103.975,73.9914 105.5,75C 104.584,75.2784 103.918,75.7784 103.5,76.5C 99.941,76.5919 96.6076,75.7585 93.5,74C 95.8098,73.5034 98.1432,73.3367 100.5,73.5 Z"/></g>
<g><path style="opacity:1" fill="#4b4941" d="M 175.5,73.5 C 176.5,73.5 177.5,73.5 178.5,73.5C 178.371,75.2161 178.038,76.8828 177.5,78.5C 176.022,78.762 174.689,78.4287 173.5,77.5C 174.908,76.7568 176.241,75.9234 177.5,75C 176.584,74.7216 175.918,74.2216 175.5,73.5 Z"/></g>
<g><path style="opacity:1" fill="#ccba4e" d="M 103.5,78.5 C 104.167,78.5 104.833,78.5 105.5,78.5C 109.419,79.9849 109.086,80.9849 104.5,81.5C 100.445,81.8242 96.4454,81.4909 92.5,80.5C 93.09,79.2011 94.09,78.3678 95.5,78C 92.8162,77.2223 90.4828,75.8889 88.5,74C 93.3084,75.7661 98.3084,77.2661 103.5,78.5 Z"/></g>
<g><path style="opacity:1" fill="#ebd230" d="M 152.5,71.5 C 150.977,70.2541 149.977,70.7541 149.5,73C 149.822,75.521 151.156,77.021 153.5,77.5C 154.984,79.0737 156.651,80.407 158.5,81.5C 159.209,82.404 160.209,82.7373 161.5,82.5C 165.6,82.2367 169.6,82.5701 173.5,83.5C 170.663,85.4023 167.329,86.069 163.5,85.5C 163.5,86.8333 163.5,88.1667 163.5,89.5C 161.833,89.5 160.167,89.5 158.5,89.5C 158.785,87.712 158.452,86.0453 157.5,84.5C 156.943,86.3316 155.943,87.6649 154.5,88.5C 152.069,87.2591 152.069,86.0924 154.5,85C 153.756,83.9614 152.756,83.4614 151.5,83.5C 151.167,82.5 150.5,81.8333 149.5,81.5C 145.992,78.7173 144.658,75.0506 145.5,70.5C 146.5,70.1667 147.167,69.5 147.5,68.5C 148.555,64.4697 151.222,62.803 155.5,63.5C 155.704,66.5176 156.037,69.5176 156.5,72.5C 154.901,72.7678 153.568,72.4345 152.5,71.5 Z"/></g>
<g><path style="opacity:1" fill="#baa84a" d="M 157.5,69.5 C 158.5,69.8333 159.167,70.5 159.5,71.5C 161.046,72.8598 162.88,73.8598 165,74.5C 167.434,73.6777 169.934,73.3444 172.5,73.5C 173.5,73.5 174.5,73.5 175.5,73.5C 175.918,74.2216 176.584,74.7216 177.5,75C 176.241,75.9234 174.908,76.7568 173.5,77.5C 174.689,78.4287 176.022,78.762 177.5,78.5C 179.824,78.8773 180.491,79.8773 179.5,81.5C 173.31,81.1771 167.31,81.5104 161.5,82.5C 160.209,82.7373 159.209,82.404 158.5,81.5C 160.399,79.5366 162.733,78.0366 165.5,77C 163.336,76.0857 161.336,74.919 159.5,73.5C 158.655,75.7619 157.322,76.4286 155.5,75.5C 154.478,75.8555 153.811,76.5222 153.5,77.5C 151.156,77.021 149.822,75.521 149.5,73C 149.977,70.7541 150.977,70.2541 152.5,71.5C 151.427,72.2506 151.26,73.2506 152,74.5C 153,73.1667 154,73.1667 155,74.5C 158.054,73.6755 158.888,72.0089 157.5,69.5 Z"/></g>
<g><path style="opacity:1" fill="#2e395c" d="M 145.5,70.5 C 144.658,75.0506 145.992,78.7173 149.5,81.5C 147.264,80.6109 145.264,79.2776 143.5,77.5C 144.067,75.0177 144.734,72.6843 145.5,70.5 Z"/></g>
<g><path style="opacity:1" fill="#918051" d="M 158.5,81.5 C 156.651,80.407 154.984,79.0737 153.5,77.5C 153.811,76.5222 154.478,75.8555 155.5,75.5C 157.322,76.4286 158.655,75.7619 159.5,73.5C 161.336,74.919 163.336,76.0857 165.5,77C 162.733,78.0366 160.399,79.5366 158.5,81.5 Z"/></g>
<g><path style="opacity:1" fill="#45474c" d="M 73.5,66.5 C 74.3382,66.8417 74.6716,67.5084 74.5,68.5C 73.0234,72.6792 73.3568,76.6792 75.5,80.5C 74.5416,80.0472 73.7083,79.3805 73,78.5C 72.7435,75.443 72.2435,72.443 71.5,69.5C 72.6119,68.7348 73.2786,67.7348 73.5,66.5 Z"/></g>
<g><path style="opacity:1" fill="#8f7f47" d="M 85.5,69.5 C 86.5,69.8333 87.1667,70.5 87.5,71.5C 91.8333,72.1667 96.1667,72.8333 100.5,73.5C 98.1432,73.3367 95.8098,73.5034 93.5,74C 96.6076,75.7585 99.941,76.5919 103.5,76.5C 103.5,77.1667 103.5,77.8333 103.5,78.5C 98.3084,77.2661 93.3084,75.7661 88.5,74C 90.4828,75.8889 92.8162,77.2223 95.5,78C 94.09,78.3678 93.09,79.2011 92.5,80.5C 96.4454,81.4909 100.445,81.8242 104.5,81.5C 103.89,82.391 103.557,83.391 103.5,84.5C 98.4079,82.8305 93.0746,81.9972 87.5,82C 83.7257,80.6981 80.559,78.5314 78,75.5C 77.2025,73.7412 77.3691,72.0745 78.5,70.5C 78.1525,72.1402 78.6525,73.8068 80,75.5C 80.3173,73.6992 80.984,73.3659 82,74.5C 83.4194,73.5399 84.9194,72.7065 86.5,72C 85.7476,71.3292 85.4142,70.4959 85.5,69.5 Z"/></g>
<g><path style="opacity:1" fill="#aea04c" d="M 77.5,82.5 C 77.5,82.1667 77.5,81.8333 77.5,81.5C 79.8283,83.3004 82.495,84.467 85.5,85C 86.3802,86.3561 86.7135,87.8561 86.5,89.5C 87.791,89.2627 88.791,89.596 89.5,90.5C 88.4168,90.5394 87.4168,90.8728 86.5,91.5C 84.5847,89.5281 82.2514,88.5281 79.5,88.5C 79.9465,85.9899 79.2798,83.9899 77.5,82.5 Z"/></g>
<g><path style="opacity:1" fill="#68592d" d="M 161.5,82.5 C 167.31,81.5104 173.31,81.1771 179.5,81.5C 178.167,82.1667 176.833,82.8333 175.5,83.5C 174.833,83.5 174.167,83.5 173.5,83.5C 169.6,82.5701 165.6,82.2367 161.5,82.5 Z"/></g>
<g><path style="opacity:1" fill="#e7ce34" d="M 81.5,59.5 C 82.1667,59.5 82.8333,59.5 83.5,59.5C 85.2994,62.5046 85.9661,65.838 85.5,69.5C 85.4142,70.4959 85.7476,71.3292 86.5,72C 84.9194,72.7065 83.4194,73.5399 82,74.5C 80.984,73.3659 80.3173,73.6992 80,75.5C 78.6525,73.8068 78.1525,72.1402 78.5,70.5C 77.3691,72.0745 77.2025,73.7412 78,75.5C 80.559,78.5314 83.7257,80.6981 87.5,82C 93.0746,81.9972 98.4079,82.8305 103.5,84.5C 99.7016,85.4834 95.7016,85.8168 91.5,85.5C 91.7845,87.4147 91.4511,89.0813 90.5,90.5C 90.1667,90.5 89.8333,90.5 89.5,90.5C 88.791,89.596 87.791,89.2627 86.5,89.5C 86.7135,87.8561 86.3802,86.3561 85.5,85C 82.495,84.467 79.8283,83.3004 77.5,81.5C 76.8333,81.1667 76.1667,80.8333 75.5,80.5C 73.3568,76.6792 73.0234,72.6792 74.5,68.5C 75.7349,66.983 75.7349,65.3163 74.5,63.5C 76.4233,62.6922 78.4233,62.1922 80.5,62C 79.1175,60.5391 79.4508,59.7058 81.5,59.5 Z"/></g>
<g><path style="opacity:1" fill="#2c375c" d="M 105.5,78.5 C 106.833,78.5 108.167,78.5 109.5,78.5C 109.007,80.8056 108.674,83.139 108.5,85.5C 111.323,85.0254 113.323,86.0254 114.5,88.5C 114.253,89.7133 113.586,90.38 112.5,90.5C 114.129,88.8041 113.796,87.8041 111.5,87.5C 109.958,86.6993 108.292,86.366 106.5,86.5C 106.027,85.0937 105.027,84.427 103.5,84.5C 103.557,83.391 103.89,82.391 104.5,81.5C 109.086,80.9849 109.419,79.9849 105.5,78.5 Z"/></g>
<g><path style="opacity:1" fill="#ab983d" d="M 173.5,83.5 C 174.167,83.5 174.833,83.5 175.5,83.5C 176.833,84.5 178.167,85.5 179.5,86.5C 175.017,86.5321 171.017,87.5321 167.5,89.5C 165.683,88.7808 165.016,87.7808 165.5,86.5C 164.943,88.3316 163.943,89.6649 162.5,90.5C 160.215,91.5463 157.882,91.5463 155.5,90.5C 155.167,89.8333 154.833,89.1667 154.5,88.5C 155.943,87.6649 156.943,86.3316 157.5,84.5C 158.452,86.0453 158.785,87.712 158.5,89.5C 160.167,89.5 161.833,89.5 163.5,89.5C 163.5,88.1667 163.5,86.8333 163.5,85.5C 167.329,86.069 170.663,85.4023 173.5,83.5 Z"/></g>
<g><path style="opacity:1" fill="#b09b35" d="M 103.5,84.5 C 105.027,84.427 106.027,85.0937 106.5,86.5C 102.027,87.0506 97.6934,87.7173 93.5,88.5C 92.8999,89.9002 91.8999,90.9002 90.5,91.5C 90.5,91.1667 90.5,90.8333 90.5,90.5C 91.4511,89.0813 91.7845,87.4147 91.5,85.5C 95.7016,85.8168 99.7016,85.4834 103.5,84.5 Z"/></g>
<g><path style="opacity:1" fill="#7d753f" d="M 151.5,83.5 C 152.756,83.4614 153.756,83.9614 154.5,85C 152.069,86.0924 152.069,87.2591 154.5,88.5C 153.5,88.5 152.5,88.5 151.5,88.5C 151.5,86.8333 151.5,85.1667 151.5,83.5 Z"/></g>
<g><path style="opacity:1" fill="#dcc739" d="M 106.5,86.5 C 108.292,86.366 109.958,86.6993 111.5,87.5C 109.721,89.3435 107.388,90.0102 104.5,89.5C 104.5,90.8333 104.5,92.1667 104.5,93.5C 103.5,93.5 102.5,93.5 101.5,93.5C 99.1815,93.0075 97.1815,92.0075 95.5,90.5C 94.8333,89.8333 94.1667,89.1667 93.5,88.5C 97.6934,87.7173 102.027,87.0506 106.5,86.5 Z"/></g>
<g><path style="opacity:1" fill="#ebd332" d="M 179.5,86.5 C 180.167,86.5 180.833,86.5 181.5,86.5C 181.5,87.5 181.5,88.5 181.5,89.5C 180.167,89.5 178.833,89.5 177.5,89.5C 176.839,90.7175 176.172,92.0508 175.5,93.5C 174.378,92.3698 173.044,91.7031 171.5,91.5C 170.005,91.0113 168.671,90.3446 167.5,89.5C 171.017,87.5321 175.017,86.5321 179.5,86.5 Z"/></g>
<g><path style="opacity:1" fill="#48463c" d="M 93.5,88.5 C 94.1667,89.1667 94.8333,89.8333 95.5,90.5C 94.2436,90.9038 93.0769,91.5705 92,92.5C 91.2352,92.4301 90.7352,92.0967 90.5,91.5C 91.8999,90.9002 92.8999,89.9002 93.5,88.5 Z"/></g>
<g><path style="opacity:1" fill="#2a3566" d="M 77.5,82.5 C 79.2798,83.9899 79.9465,85.9899 79.5,88.5C 82.2514,88.5281 84.5847,89.5281 86.5,91.5C 87.4168,90.8728 88.4168,90.5394 89.5,90.5C 89.8333,90.5 90.1667,90.5 90.5,90.5C 90.5,90.8333 90.5,91.1667 90.5,91.5C 86.0177,92.961 81.6843,92.6277 77.5,90.5C 77.5,87.8333 77.5,85.1667 77.5,82.5 Z"/></g>
<g><path style="opacity:1" fill="#5a5a3f" d="M 167.5,89.5 C 168.671,90.3446 170.005,91.0113 171.5,91.5C 171.5,91.8333 171.5,92.1667 171.5,92.5C 168.345,92.0104 165.345,91.3438 162.5,90.5C 163.943,89.6649 164.943,88.3316 165.5,86.5C 165.016,87.7808 165.683,88.7808 167.5,89.5 Z"/></g>
<g><path style="opacity:1" fill="#64674a" d="M 181.5,86.5 C 184.179,86.5246 185.512,87.858 185.5,90.5C 184.833,90.5 184.167,90.5 183.5,90.5C 181.219,90.0773 179.552,90.744 178.5,92.5C 177.596,91.791 177.263,90.791 177.5,89.5C 178.833,89.5 180.167,89.5 181.5,89.5C 181.5,88.5 181.5,87.5 181.5,86.5 Z"/></g>
<g><path style="opacity:1" fill="#a09c52" d="M 177.5,89.5 C 177.263,90.791 177.596,91.791 178.5,92.5C 179.626,93.8583 179.626,95.1916 178.5,96.5C 175.976,95.4077 173.643,94.0743 171.5,92.5C 171.5,92.1667 171.5,91.8333 171.5,91.5C 173.044,91.7031 174.378,92.3698 175.5,93.5C 176.172,92.0508 176.839,90.7175 177.5,89.5 Z"/></g>
<g><path style="opacity:1" fill="#848550" d="M 111.5,87.5 C 113.796,87.8041 114.129,88.8041 112.5,90.5C 110.076,90.1924 107.743,90.5258 105.5,91.5C 105.863,92.1835 106.196,92.8501 106.5,93.5C 106.5,94.8333 105.833,95.5 104.5,95.5C 103.29,95.0679 102.29,94.4013 101.5,93.5C 102.5,93.5 103.5,93.5 104.5,93.5C 104.5,92.1667 104.5,90.8333 104.5,89.5C 107.388,90.0102 109.721,89.3435 111.5,87.5 Z"/></g>
<g><path style="opacity:1" fill="#0f3184" d="M 155.5,90.5 C 157.882,91.5463 160.215,91.5463 162.5,90.5C 165.345,91.3438 168.345,92.0104 171.5,92.5C 173.643,94.0743 175.976,95.4077 178.5,96.5C 179.626,95.1916 179.626,93.8583 178.5,92.5C 179.552,90.744 181.219,90.0773 183.5,90.5C 183.791,91.6491 184.624,92.3158 186,92.5C 187.935,91.6569 189.769,91.6569 191.5,92.5C 188.92,93.5488 186.254,94.2155 183.5,94.5C 183.67,95.8221 183.337,96.9887 182.5,98C 180.744,98.2022 179.078,98.7022 177.5,99.5C 177.709,100.086 178.043,100.586 178.5,101C 176.728,100.325 174.895,100.491 173,101.5C 172.167,101.333 171.333,101.167 170.5,101C 172.059,100.02 173.726,99.1867 175.5,98.5C 174.758,97.7132 173.925,97.0465 173,96.5C 171.333,97.8333 169.667,97.8333 168,96.5C 167.667,97.1667 167.333,97.8333 167,98.5C 166.167,97 165,95.8333 163.5,95C 163.957,94.586 164.291,94.086 164.5,93.5C 163.078,92.4528 161.578,92.4528 160,93.5C 158.334,92.6521 156.834,91.6521 155.5,90.5 Z"/></g>
<g><path style="opacity:1" fill="#464e5f" d="M 106.5,93.5 C 106.833,93.5 107.167,93.5 107.5,93.5C 107.843,95.4832 107.176,96.8166 105.5,97.5C 104.662,97.1583 104.328,96.4916 104.5,95.5C 105.833,95.5 106.5,94.8333 106.5,93.5 Z"/></g>
<g><path style="opacity:1" fill="#15327b" d="M 107.5,93.5 C 108.868,95.4181 109.868,97.5848 110.5,100C 112.179,100.395 113.845,100.228 115.5,99.5C 117.325,100.651 119.325,101.318 121.5,101.5C 121.5,102.833 121.5,104.167 121.5,105.5C 120.391,105.443 119.391,105.11 118.5,104.5C 115.238,102.821 112.571,103.488 110.5,106.5C 110.33,105.178 110.663,104.011 111.5,103C 108.839,101.824 106.839,99.9907 105.5,97.5C 107.176,96.8166 107.843,95.4832 107.5,93.5 Z"/></g>
<g><path style="opacity:1" fill="#ad9e4d" d="M 118.5,104.5 C 117.127,104.343 115.793,104.51 114.5,105C 115.308,105.308 115.975,105.808 116.5,106.5C 114.922,107.298 113.256,107.798 111.5,108C 112.341,109.996 112.008,111.829 110.5,113.5C 110.167,111.5 109.833,109.5 109.5,107.5C 110.167,107.5 110.5,107.167 110.5,106.5C 112.571,103.488 115.238,102.821 118.5,104.5 Z"/></g>
<g><path style="opacity:1" fill="#2a3666" d="M 109.5,107.5 C 109.833,109.5 110.167,111.5 110.5,113.5C 109.586,116.728 109.253,120.061 109.5,123.5C 107.974,122.508 107.307,121.008 107.5,119C 107.648,117.293 107.982,115.626 108.5,114C 107.833,113.333 107.167,112.667 106.5,112C 106.698,109.815 107.698,108.315 109.5,107.5 Z"/></g>
<g><path style="opacity:1" fill="#9c914b" d="M 124.5,116.5 C 130.465,117.631 136.465,118.631 142.5,119.5C 141.174,120.642 140.174,121.976 139.5,123.5C 133.597,122.877 128.597,120.543 124.5,116.5 Z"/></g>
<g><path style="opacity:1" fill="#ead12e" d="M 118.5,104.5 C 119.391,105.11 120.391,105.443 121.5,105.5C 121.5,108.833 121.5,112.167 121.5,115.5C 121.586,116.496 121.252,117.329 120.5,118C 118.942,118.21 117.609,118.71 116.5,119.5C 115.839,118.282 115.172,116.949 114.5,115.5C 113.337,117.55 113.504,119.55 115,121.5C 116.961,124.135 119.461,125.969 122.5,127C 127.582,127.219 132.582,127.719 137.5,128.5C 134.797,130.11 131.797,131.11 128.5,131.5C 127.596,132.209 127.263,133.209 127.5,134.5C 125.833,134.5 124.167,134.5 122.5,134.5C 122.617,132.516 121.95,130.85 120.5,129.5C 119.614,130.325 119.281,131.325 119.5,132.5C 118.325,132.719 117.325,132.386 116.5,131.5C 117.309,129.929 117.643,128.262 117.5,126.5C 115.784,126.371 114.117,126.038 112.5,125.5C 111.778,124.449 110.778,123.782 109.5,123.5C 109.253,120.061 109.586,116.728 110.5,113.5C 112.008,111.829 112.341,109.996 111.5,108C 113.256,107.798 114.922,107.298 116.5,106.5C 115.975,105.808 115.308,105.308 114.5,105C 115.793,104.51 117.127,104.343 118.5,104.5 Z"/></g>
<g><path style="opacity:1" fill="#9b8a4d" d="M 116.5,119.5 C 118.975,120.788 121.308,120.455 123.5,118.5C 125.554,120.459 127.887,121.959 130.5,123C 128.321,123.442 127.655,124.442 128.5,126C 131.817,126.498 135.15,126.665 138.5,126.5C 138.5,127.167 138.5,127.833 138.5,128.5C 138.167,128.5 137.833,128.5 137.5,128.5C 132.582,127.719 127.582,127.219 122.5,127C 119.461,125.969 116.961,124.135 115,121.5C 113.504,119.55 113.337,117.55 114.5,115.5C 115.172,116.949 115.839,118.282 116.5,119.5 Z"/></g>
<g><path style="opacity:1" fill="#c5b24c" d="M 121.5,115.5 C 122.609,115.557 123.609,115.89 124.5,116.5C 128.597,120.543 133.597,122.877 139.5,123.5C 139.833,123.5 140.167,123.5 140.5,123.5C 141.833,124.5 141.833,125.5 140.5,126.5C 139.833,126.5 139.167,126.5 138.5,126.5C 135.15,126.665 131.817,126.498 128.5,126C 127.655,124.442 128.321,123.442 130.5,123C 127.887,121.959 125.554,120.459 123.5,118.5C 121.308,120.455 118.975,120.788 116.5,119.5C 117.609,118.71 118.942,118.21 120.5,118C 121.252,117.329 121.586,116.496 121.5,115.5 Z"/></g>
<g><path style="opacity:1" fill="#888757" d="M 140.5,123.5 C 141.5,123.5 142.5,123.5 143.5,123.5C 144.494,125.854 143.494,126.854 140.5,126.5C 141.833,125.5 141.833,124.5 140.5,123.5 Z"/></g>
<g><path style="opacity:1" fill="#cebd42" d="M 137.5,128.5 C 137.833,128.5 138.167,128.5 138.5,128.5C 142.404,129.119 145.737,130.785 148.5,133.5C 147.675,134.386 146.675,134.719 145.5,134.5C 143.833,134.5 142.167,134.5 140.5,134.5C 140.421,135.93 140.754,137.264 141.5,138.5C 140.767,139.087 139.767,139.087 138.5,138.5C 136.685,137.37 134.685,136.704 132.5,136.5C 132.5,136.167 132.5,135.833 132.5,135.5C 134.827,135.247 136.827,135.914 138.5,137.5C 139.845,134.531 138.845,132.864 135.5,132.5C 133.393,131.532 131.059,131.198 128.5,131.5C 131.797,131.11 134.797,130.11 137.5,128.5 Z"/></g>
<g><path style="opacity:1" fill="#f2d82a" d="M 135.5,132.5 C 138.845,132.864 139.845,134.531 138.5,137.5C 136.827,135.914 134.827,135.247 132.5,135.5C 131.508,135.672 130.842,135.338 130.5,134.5C 131.552,132.744 133.219,132.077 135.5,132.5 Z"/></g>
<g><path style="opacity:1" fill="#757549" d="M 145.5,134.5 C 144.791,135.404 143.791,135.737 142.5,135.5C 142.357,137.262 142.691,138.929 143.5,140.5C 141.146,141.823 139.479,141.157 138.5,138.5C 139.767,139.087 140.767,139.087 141.5,138.5C 140.754,137.264 140.421,135.93 140.5,134.5C 142.167,134.5 143.833,134.5 145.5,134.5 Z"/></g>
<g><path style="opacity:1" fill="#948a41" d="M 112.5,125.5 C 114.117,126.038 115.784,126.371 117.5,126.5C 117.643,128.262 117.309,129.929 116.5,131.5C 117.325,132.386 118.325,132.719 119.5,132.5C 119.281,131.325 119.614,130.325 120.5,129.5C 121.95,130.85 122.617,132.516 122.5,134.5C 124.167,134.5 125.833,134.5 127.5,134.5C 127.263,133.209 127.596,132.209 128.5,131.5C 131.059,131.198 133.393,131.532 135.5,132.5C 133.219,132.077 131.552,132.744 130.5,134.5C 129.265,134.721 128.265,135.388 127.5,136.5C 124.881,136.738 122.215,136.405 119.5,135.5C 118.533,134.194 117.199,133.527 115.5,133.5C 115.984,130.212 114.984,127.545 112.5,125.5 Z"/></g>
<g><path style="opacity:1" fill="#2a354f" d="M 130.5,134.5 C 130.842,135.338 131.508,135.672 132.5,135.5C 132.5,135.833 132.5,136.167 132.5,136.5C 128.898,136.75 125.565,137.75 122.5,139.5C 121.611,137.993 120.611,136.66 119.5,135.5C 122.215,136.405 124.881,136.738 127.5,136.5C 128.265,135.388 129.265,134.721 130.5,134.5 Z"/></g>
<g><path style="opacity:1" fill="#1e326d" d="M 132.5,136.5 C 134.685,136.704 136.685,137.37 138.5,138.5C 139.479,141.157 141.146,141.823 143.5,140.5C 142.691,138.929 142.357,137.262 142.5,135.5C 143.791,135.737 144.791,135.404 145.5,134.5C 146.675,134.719 147.675,134.386 148.5,133.5C 145.737,130.785 142.404,129.119 138.5,128.5C 138.5,127.833 138.5,127.167 138.5,126.5C 139.167,126.5 139.833,126.5 140.5,126.5C 143.494,126.854 144.494,125.854 143.5,123.5C 145.512,122.986 147.512,122.82 149.5,123C 147.043,124.512 147.043,125.846 149.5,127C 148.167,127.333 146.833,127.667 145.5,128C 147.026,129.887 149.026,130.887 151.5,131C 150.359,131.741 150.359,132.575 151.5,133.5C 149.999,134.752 148.332,135.752 146.5,136.5C 145.534,138.396 145.201,140.396 145.5,142.5C 143.409,142.318 141.409,142.652 139.5,143.5C 138.614,142.675 138.281,141.675 138.5,140.5C 135.828,140.052 133.828,138.719 132.5,136.5 Z"/></g>
</svg>
