<svg xmlns="http://www.w3.org/2000/svg" width="256" height="154" style="shape-rendering:geometricPrecision;text-rendering:geometricPrecision;image-rendering:optimizeQuality;fill-rule:evenodd;clip-rule:evenodd"><path fill="#023092" d="M-.5-.5h256v154H-.5V-.5Z" style="opacity:1"/><path fill="#212f65" d="M148.5 44.5c-.437-1.574-1.437-2.741-3-3.5a40.007 40.007 0 0 1-8-2.5c1.872-1.562 4.205-2.562 7-3a25.866 25.866 0 0 0-5-3 9.419 9.419 0 0 0 3-3 404.854 404.854 0 0 0-19-2.5c-.544-.717-1.211-1.217-2-1.5a40.911 40.911 0 0 0-.5-9c-.708-.88-1.542-1.547-2.5-2-1.788-1.123-3.788-1.29-6-.5-.663 1.518-1.663 2.685-3 3.5a57.82 57.82 0 0 0 2.5-8c2.792 1.907 5.958 3.073 9.5 3.5l2 11a54.152 54.152 0 0 1 6.5 2.5c3.791-.516 7.625-.183 11.5 1 2.764 1.128 3.431 2.962 2 5.5.948.483 1.948.65 3 .5.256 2.412-.744 4.08-3 5 2.635.772 5.301.938 8 .5-2.013.875-2.013 2.209 0 4-.744 1.039-1.744 1.539-3 1.5Z" style="opacity:1"/><path fill="#2d3753" d="M40.5 13.5c-1.1 1.105-1.767 2.438-2 4h-2c.734-1.208 1.067-2.541 1-4h3Z" style="opacity:1"/><path fill="#ab9e4c" d="M40.5 13.5c1.915-.284 3.581.049 5 1-2.05.206-2.383 1.04-1 2.5a18.436 18.436 0 0 1-6 .5c.233-1.562.9-2.895 2-4Z" style="opacity:1"/><path fill="#454f45" d="M47.5 15.5c.617.11 1.117.444 1.5 1 .495 1.973.662 3.973.5 6v2a68.634 68.634 0 0 1-2-9Z" style="opacity:1"/><path fill="#ab9d4f" d="M118.5 14.5c-1.548.321-2.215 1.321-2 3a12.935 12.935 0 0 0-5 .5c.457.414.791.914 1 1.5a37.961 37.961 0 0 0-2 12c-.376-4.544-.71-9.21-1-14 1.337-.815 2.337-1.982 3-3.5 2.212-.79 4.212-.623 6 .5Z" style="opacity:1"/><path fill="#a79b56" d="M36.5 17.5h2c1.333 1.333 1.333 2.667 0 4-1.604-.787-2.27-2.12-2-4Z" style="opacity:1"/><path fill="#bbaa49" d="M191.5 14.5c-2.705-.12-3.372.88-2 3-2.734 1.4-4.734 3.4-6 6 .215-1.679-.452-2.679-2-3a42.48 42.48 0 0 1 4-7.5c2.381-.739 4.381-.239 6 1.5Z" style="opacity:1"/><path fill="#293669" d="M109.5 17.5c.29 4.79.624 9.456 1 14a5.727 5.727 0 0 0 1 3v1c-1.25-.077-2.083-.744-2.5-2l-1 3c-1.312-3.906-1.145-7.906.5-12-1.333-1.333-1.333-2.667 0-4-2.729-1.867-2.396-2.867 1-3Z" style="opacity:1"/><path fill="#253058" d="M193.5 15.5c1.367 2.966 2.367 6.133 3 9.5 6.226 1.612 12.893 2.445 20 2.5.017 2.065.35 4.065 1 6h-4c-.838-.342-1.172-1.008-1-2 .904-.709 1.237-1.709 1-3h-9c-2.469-.817-5.135-1.317-8-1.5a10.51 10.51 0 0 0-3-2.5v-9Z" style="opacity:1"/><path fill="#193278" d="M36.5 17.5c-.27 1.88.396 3.213 2 4v2c-.617.11-1.117.444-1.5 1-1.172 5.661.495 10.328 5 14 .493 1.634.66 3.3.5 5a44.358 44.358 0 0 1-2-1 44.984 44.984 0 0 0-8-14c2.15-2.422 2.483-5.09 1-8 .688-1.355 1.688-2.355 3-3Z" style="opacity:1"/><path fill="#c2b045" d="M38.5 23.5c-.322 4.247.511 8.247 2.5 12 1.11 1.537 2.61 2.203 4.5 2v6h-3c.16-1.7-.007-3.366-.5-5-4.505-3.672-6.172-8.339-5-14 .383-.556.883-.89 1.5-1Z" style="opacity:1"/><path fill="#afa051" d="M121.5 25.5c.789.283 1.456.783 2 1.5a404.854 404.854 0 0 1 19 2.5 9.419 9.419 0 0 1-3 3 25.866 25.866 0 0 1 5 3c-2.795.438-5.128 1.438-7 3-9.188.924-17.021-1.742-23.5-8-.798-1.759-.631-3.425.5-5 .886.825 1.219 1.825 1 3 1.699.16 3.366-.006 5-.5.752-.67 1.086-1.504 1-2.5Z" style="opacity:1"/><path fill="#c0b451" d="M204.5 28.5h9c.237 1.291-.096 2.291-1 3-3.559.092-6.892-.741-10-2.5a2.427 2.427 0 0 1 2-.5Z" style="opacity:1"/><path fill="#b6a44e" d="M193.5 24.5a10.51 10.51 0 0 1 3 2.5c2.865.183 5.531.683 8 1.5a2.427 2.427 0 0 0-2 .5c3.108 1.759 6.441 2.592 10 2.5-.172.992.162 1.658 1 2 1.051.722 1.718 1.722 2 3h-4c-4.467.367-8.8-.133-13-1.5 2.747-3.499 1.747-5.666-3-6.5-1.393 1.363-3.059 2.196-5 2.5 1.098.77 1.098 1.603 0 2.5-2.367-1.37-4.033-3.37-5-6 2.216-2.718 2.883-2.551 2 .5.13 1.059.63 1.892 1.5 2.5.7-1.532 1.866-2.532 3.5-3 .886-.825 1.219-1.825 1-3Z" style="opacity:1"/><path fill="#ead031" d="M118.5 14.5c.958.453 1.792 1.12 2.5 2 .498 2.982.665 5.982.5 9 .086.996-.248 1.83-1 2.5-1.634.494-3.301.66-5 .5.219-1.175-.114-2.175-1-3-1.131 1.575-1.298 3.241-.5 5 6.479 6.258 14.312 8.924 23.5 8 .111.617.444 1.117 1 1.5-3.525.179-6.859.679-10 1.5.285 1.788-.048 3.455-1 5-.607-.124-.94-.457-1-1-1.042-1.291-2.208-1.291-3.5 0-.233-2.28-1.066-4.28-2.5-6-.886.825-1.219 1.825-1 3-1.175.219-2.175-.114-3-1 .826-.951.992-1.951.5-3-1.147-2.319-2.981-3.652-5.5-4a5.727 5.727 0 0 1-1-3 37.961 37.961 0 0 1 2-12 3.647 3.647 0 0 0-1-1.5 12.935 12.935 0 0 1 5-.5c-.215-1.679.452-2.679 2-3Z" style="opacity:1"/><path fill="#21336d" d="M181.5 20.5c1.548.321 2.215 1.321 2 3-1.768 2.663-2.435 5.663-2 9-1.265-1.015-1.931-2.515-2-4.5a45.452 45.452 0 0 1 2-7.5Z" style="opacity:1"/><path fill="#1a2d63" d="M49.5 22.5c.978.311 1.645.978 2 2l19 3.5c.88 1.356 1.213 2.856 1 4.5-1.291-.237-2.291.096-3 1h-2c.674-1.524 1.674-2.858 3-4a104.016 104.016 0 0 1-20-4v-3Z" style="opacity:1"/><path fill="#ecd330" d="M45.5 14.5c.992-.172 1.658.162 2 1a68.634 68.634 0 0 0 2 9v1c-.945 3.487-3.278 4.82-7 4a8.434 8.434 0 0 0-.5-4c-1.579 1.959-1.412 3.959.5 6 1.878 2.374 4.212 4.208 7 5.5a62.268 62.268 0 0 0 16 1.5c.11.617.444 1.117 1 1.5a72.444 72.444 0 0 1-12 .5v4a8.434 8.434 0 0 1-4-.5 20.492 20.492 0 0 0-2.5-4.5c-.122 1.937-.955 3.27-2.5 4v-6c-1.89.203-3.39-.463-4.5-2-1.989-3.753-2.822-7.753-2.5-12v-2c1.333-1.333 1.333-2.667 0-4a18.436 18.436 0 0 0 6-.5c-1.383-1.46-1.05-2.294 1-2.5Z" style="opacity:1"/><path fill="#9b8b4d" d="m211.5 36.5-1 2a147.881 147.881 0 0 0-16-1.5c-1.824-.66-3.157-1.827-4-3.5 1.098-.897 1.098-1.73 0-2.5 1.941-.304 3.607-1.137 5-2.5 4.747.834 5.747 3.001 3 6.5 4.2 1.367 8.533 1.867 13 1.5Z" style="opacity:1"/><path fill="#535c57" d="M213.5 33.5h4c.215 1.679-.452 2.679-2 3-.282-1.278-.949-2.278-2-3Z" style="opacity:1"/><path fill="#a2934c" d="M49.5 25.5a104.016 104.016 0 0 0 20 4c-1.326 1.142-2.326 2.476-3 4h3c.59.651 1.257 1.318 2 2-2.245.708-4.245 1.708-6 3a62.268 62.268 0 0 1-16-1.5c-2.788-1.292-5.122-3.126-7-5.5-1.912-2.041-2.079-4.041-.5-6a8.434 8.434 0 0 1 .5 4c3.722.82 6.055-.513 7-4Z" style="opacity:1"/><path fill="#c9b549" d="M66.5 33.5v3c-5.08.25-10.08-.25-15-1.5 2.543-.14 4.877-.806 7-2a7.291 7.291 0 0 0-3-2l1.5-.5a103.107 103.107 0 0 0 9.5 3Z" style="opacity:1"/><path fill="#1d2e61" d="M69.5 33.5h4c.171 1.992-.495 3.658-2 5a22.121 22.121 0 0 0 6 3c1.592 1.725 1.258 2.725-1 3-1.485-2.583-3.818-3.916-7-4-1.014-1.174-2.347-1.84-4-2 1.755-1.292 3.755-2.292 6-3a30.943 30.943 0 0 1-2-2Z" style="opacity:1"/><path fill="#e7ce33" d="m191.5 14.5 2 1v9c.219 1.175-.114 2.175-1 3-1.634.468-2.8 1.468-3.5 3-.87-.608-1.37-1.441-1.5-2.5.883-3.051.216-3.218-2-.5.967 2.63 2.633 4.63 5 6 .843 1.673 2.176 2.84 4 3.5 5.415.215 10.748.715 16 1.5 1.88-.27 3.213.396 4 2 1.29 1.435 2.956 2.435 5 3a9.864 9.864 0 0 1-6 1c.423 2.281-.244 3.948-2 5-.79-.901-1.79-1.568-3-2-2.47-1.384-4.137-3.384-5-6-1.679-.215-2.679.452-3 2-1.419.951-3.085 1.285-5 1-.615-5.995-1.948-6.329-4-1-2.056-1.122-3.389-2.789-4-5-1.715-2.382-3.715-4.382-6-6-.435-3.337.232-6.337 2-9 1.266-2.6 3.266-4.6 6-6-1.372-2.12-.705-3.12 2-3Z" style="opacity:1"/><path fill="#172f6e" d="M217.5 33.5c1.685.684 2.685 2.017 3 4a4.451 4.451 0 0 1-2 1.5c1.884.216 3.551.883 5 2 .318 3.842-1.682 5.676-6 5.5v6c-1.599.268-2.932-.066-4-1 2.34-1.072 2.673-2.739 1-5 9.321-2.022 9.321-4.022 0-6-.787-1.604-2.12-2.27-4-2l1-2h4c1.548-.321 2.215-1.321 2-3Z" style="opacity:1"/><path fill="#ab9940" d="M65.5 38.5c1.653.16 2.986.826 4 2-3.758 1.683-7.758 2.35-12 2-.06-.543-.393-.876-1-1-.557 1.832-1.557 3.165-3 4-1.517.01-2.684.677-3.5 2a4.932 4.932 0 0 1-.5-3c-1.599.268-2.932-.066-4-1 1.545-.73 2.378-2.063 2.5-4a20.492 20.492 0 0 1 2.5 4.5 8.434 8.434 0 0 0 4 .5v-4a72.444 72.444 0 0 0 12-.5c-.556-.383-.89-.883-1-1.5Z" style="opacity:1"/><path fill="#baac41" d="M137.5 38.5a40.007 40.007 0 0 0 8 2.5c1.563.759 2.563 1.926 3 3.5h-5c.418-.722 1.084-1.222 2-1.5-3.933-1.626-7.933-1.626-12 0-.752.67-1.086 1.504-1 2.5-2.673-.184-3.34-1.351-2-3.5a2.427 2.427 0 0 0-2-.5c3.141-.821 6.475-1.321 10-1.5-.556-.383-.889-.883-1-1.5Z" style="opacity:1"/><path fill="#ddc93d" d="M69.5 40.5c3.182.084 5.515 1.417 7 4h-8v4a20.677 20.677 0 0 1-5-1c-.992.172-1.658-.162-2-1a20.23 20.23 0 0 1-4-4c4.242.35 8.242-.317 12-2Z" style="opacity:1"/><path fill="#656145" d="M200.5 43.5c.321-1.548 1.321-2.215 3-2 .863 2.616 2.53 4.616 5 6-1.984.117-3.65-.55-5-2a7.248 7.248 0 0 0-2.5 2c-1.756-1.048-3.59-1.048-5.5 0-1.917-.254-3.251-1.254-4-3 1.431-.38 2.264-1.38 2.5-3a14.72 14.72 0 0 0 1.5 5 51.28 51.28 0 0 0 6-2c-.124-.607-.457-.94-1-1Z" style="opacity:1"/><path fill="#756f3e" d="M57.5 42.5a20.23 20.23 0 0 0 4 4c-2.804-.653-5.47-.986-8-1 1.443-.835 2.443-2.168 3-4 .607.124.94.457 1 1Z" style="opacity:1"/><path fill="#474c48" d="M187.5 38.5c.611 2.211 1.944 3.878 4 5v1h-4v-6Z" style="opacity:1"/><path fill="#b2a450" d="M200.5 43.5c.543.06.876.393 1 1a51.28 51.28 0 0 1-6 2 14.72 14.72 0 0 1-1.5-5c-.236 1.62-1.069 2.62-2.5 3v-1c2.052-5.329 3.385-4.995 4 1 1.915.285 3.581-.049 5-1Z" style="opacity:1"/><path fill="#6a734a" d="M143.5 44.5h4c-1.419.951-3.085 1.285-5 1l1 6h-3l-2-3c3.05 1.315 3.717.315 2-3 .825-.886 1.825-1.219 3-1Z" style="opacity:1"/><path fill="#343540" d="M128.5 41.5a2.427 2.427 0 0 1 2 .5c-1.34 2.149-.673 3.316 2 3.5v1c-2.729 1.03-5.396 1.03-8 0 .342-.838 1.008-1.172 2-1 .06.543.393.876 1 1 .952-1.545 1.285-3.212 1-5Z" style="opacity:1"/><path fill="#ecd330" d="M143.5 44.5c-1.175-.219-2.175.114-3 1 1.717 3.315 1.05 4.315-2 3l-6-2v-1c-.086-.996.248-1.83 1-2.5 4.067-1.626 8.067-1.626 12 0-.916.278-1.582.778-2 1.5Z" style="opacity:1"/><path fill="#857e49" d="M111.5 35.5v-1c2.519.348 4.353 1.681 5.5 4 .492 1.049.326 2.049-.5 3 .825.886 1.825 1.219 3 1-.219-1.175.114-2.175 1-3 1.434 1.72 2.267 3.72 2.5 6 1.292-1.291 2.458-1.291 3.5 0-.992-.172-1.658.162-2 1-2.311.651-4.311-.182-6-2.5a4.932 4.932 0 0 0-3-.5c.726-3.76-.607-6.427-4-8Z" style="opacity:1"/><path fill="#7d7d4f" d="M214.5 40.5c9.321 1.978 9.321 3.978 0 6 1.673 2.261 1.34 3.928-1 5l-2-2c1.756-1.052 2.423-2.719 2-5a9.864 9.864 0 0 0 6-1c-2.044-.565-3.71-1.565-5-3Z" style="opacity:1"/><path fill="#122e75" d="M111.5 35.5c3.393 1.573 4.726 4.24 4 8a4.932 4.932 0 0 1 3 .5c1.689 2.318 3.689 3.151 6 2.5 2.604 1.03 5.271 1.03 8 0l6 2 2 3c-3.228-1.676-6.728-2.676-10.5-3-5.437 1.979-10.437 1.312-15-2-.414.457-.914.79-1.5 1a29.831 29.831 0 0 1-2-5 97.246 97.246 0 0 0 0-7Z" style="opacity:1"/><path fill="#152f73" d="M42.5 43.5h3c1.068.934 2.401 1.268 4 1a4.932 4.932 0 0 0 .5 3c.816-1.323 1.983-1.99 3.5-2 2.53.014 5.196.347 8 1 .342.838 1.008 1.172 2 1l1 2c-1.967.24-3.8-.094-5.5-1-.739 1.074-1.739 1.74-3 2a59.247 59.247 0 0 0-7.5-1.5c-1.928-2.09-3.928-3.924-6-5.5Z" style="opacity:1"/><path fill="#7f7e4f" d="M75.5 44.5a168.86 168.86 0 0 1-6 2c1.43 1.831 1.93 3.831 1.5 6a19.215 19.215 0 0 0-6.5-3l-1-2c1.617.538 3.284.871 5 1v-4h7Z" style="opacity:1"/><path fill="#2d396b" d="M153.5 58.5c-3.741-.901-5.741.432-6 4-1.406.473-2.073 1.473-2 3a95.647 95.647 0 0 0 0-7.5 8.189 8.189 0 0 0 4-2.5c1.983.315 3.316 1.315 4 3Z" style="opacity:1"/><path fill="#4a515a" d="M83.5 59.5h-2c-1.847-1.073-3.847-1.073-6 0 .812-1.493 2.145-2.16 4-2 1.855-.16 3.188.507 4 2Z" style="opacity:1"/><path fill="#a89c4c" d="M81.5 59.5c-2.05.206-2.382 1.04-1 2.5a20.216 20.216 0 0 0-6 1.5c1.235 1.816 1.235 3.483 0 5 .172-.992-.162-1.658-1-2-1.373-2.883-.707-5.217 2-7 2.153-1.073 4.153-1.073 6 0Z" style="opacity:1"/><path fill="#a89e4a" d="M153.5 58.5c.992-.172 1.658.162 2 1-2.442-.146-3.109.687-2 2.5a18.437 18.437 0 0 1-6 .5c.259-3.568 2.259-4.901 6-4Z" style="opacity:1"/><path fill="#d6c140" d="M155.5 59.5c.617.11 1.117.444 1.5 1 .498 2.982.665 5.982.5 9 1.388 2.509.554 4.175-2.5 5-1-1.333-2-1.333-3 0-.74-1.25-.573-2.25.5-3 1.068.934 2.401 1.268 4 1a104.653 104.653 0 0 1-1-9c-4.278-.697-6.945.97-8 5 .073-1.527-.594-2.527-2-3-.073-1.527.594-2.527 2-3a18.437 18.437 0 0 0 6-.5c-1.109-1.813-.442-2.646 2-2.5Z" style="opacity:1"/><path fill="#383c4f" d="M145.5 65.5c1.406.473 2.073 1.473 2 3-.333 1-1 1.667-2 2v-5Z" style="opacity:1"/><path fill="#1a3176" d="M185.5 90.5c.012-2.642-1.321-3.975-4-4h-2l-4-3 4-2c.991-1.623.324-2.623-2-3a20.691 20.691 0 0 0 1-5h-6l-7-2a31.12 31.12 0 0 0 11-1c1.35-1.45 3.016-2.117 5-2a6.845 6.845 0 0 1-1 4 601.335 601.335 0 0 0 3 3.5c-1.502 2.006-1.169 3.672 1 5a6.807 6.807 0 0 0-3 1.5c1.633 2.003 3.633 3.336 6 4 .343 1.983-.324 3.317-2 4Z" style="opacity:1"/><path fill="#28345f" d="M87.5 71.5a74.071 74.071 0 0 1 19 1.5 4.451 4.451 0 0 1 2 1.5c-1.326 1.142-2.326 2.475-3 4h-2v-2c.418-.722 1.084-1.222 2-1.5-1.525-1.009-3.192-1.509-5-1.5l-13-2Z" style="opacity:1"/><path fill="#5d5f46" d="M159.5 71.5h6l7 2a19.524 19.524 0 0 0-7.5 1c-2.12-.64-3.954-1.64-5.5-3Z" style="opacity:1"/><path fill="#cfc054" d="M100.5 73.5c1.808-.009 3.475.491 5 1.5-.916.278-1.582.778-2 1.5-3.559.092-6.892-.742-10-2.5a24.939 24.939 0 0 1 7-.5Z" style="opacity:1"/><path fill="#4b4941" d="M175.5 73.5h3a20.691 20.691 0 0 1-1 5c-1.478.262-2.811-.071-4-1a32.042 32.042 0 0 0 4-2.5c-.916-.278-1.582-.778-2-1.5Z" style="opacity:1"/><path fill="#ccba4e" d="M103.5 78.5h2c3.919 1.485 3.586 2.485-1 3a36.873 36.873 0 0 1-12-1c.59-1.299 1.59-2.132 3-2.5-2.684-.778-5.017-2.111-7-4a131.986 131.986 0 0 0 15 4.5Z" style="opacity:1"/><path fill="#ebd230" d="M152.5 71.5c-1.523-1.246-2.523-.746-3 1.5.322 2.521 1.656 4.021 4 4.5a22.763 22.763 0 0 0 5 4c.709.904 1.709 1.237 3 1 4.1-.263 8.1.07 12 1-2.837 1.902-6.171 2.569-10 2v4h-5c.285-1.788-.048-3.455-1-5-.557 1.832-1.557 3.165-3 4-2.431-1.24-2.431-2.408 0-3.5-.744-1.039-1.744-1.539-3-1.5-.333-1-1-1.667-2-2-3.508-2.783-4.842-6.45-4-11 1-.333 1.667-1 2-2 1.055-4.03 3.722-5.697 8-5 .204 3.018.537 6.018 1 9-1.599.268-2.932-.066-4-1Z" style="opacity:1"/><path fill="#baa84a" d="M157.5 69.5c1 .333 1.667 1 2 2 1.546 1.36 3.38 2.36 5.5 3a19.524 19.524 0 0 1 7.5-1h3c.418.722 1.084 1.222 2 1.5a32.042 32.042 0 0 1-4 2.5c1.189.929 2.522 1.262 4 1 2.324.377 2.991 1.377 2 3-6.19-.323-12.19.01-18 1-1.291.237-2.291-.096-3-1 1.899-1.963 4.233-3.463 7-4.5a26.864 26.864 0 0 1-6-3.5c-.845 2.262-2.178 2.929-4 2-1.022.356-1.689 1.022-2 2-2.344-.479-3.678-1.979-4-4.5.477-2.246 1.477-2.746 3-1.5-1.073.75-1.24 1.75-.5 3 1-1.333 2-1.333 3 0 3.054-.825 3.888-2.491 2.5-5Z" style="opacity:1"/><path fill="#2e395c" d="M145.5 70.5c-.842 4.55.492 8.217 4 11-2.236-.89-4.236-2.222-6-4a64.678 64.678 0 0 1 2-7Z" style="opacity:1"/><path fill="#918051" d="M158.5 81.5a22.763 22.763 0 0 1-5-4c.311-.978.978-1.644 2-2 1.822.929 3.155.262 4-2a26.864 26.864 0 0 0 6 3.5c-2.767 1.037-5.101 2.537-7 4.5Z" style="opacity:1"/><path fill="#45474c" d="M73.5 66.5c.838.342 1.172 1.008 1 2-1.477 4.18-1.143 8.18 1 12-.958-.453-1.792-1.12-2.5-2a55.692 55.692 0 0 0-1.5-9c1.112-.765 1.779-1.765 2-3Z" style="opacity:1"/><path fill="#8f7f47" d="M85.5 69.5c1 .333 1.667 1 2 2l13 2a24.939 24.939 0 0 0-7 .5c3.108 1.758 6.441 2.592 10 2.5v2a131.986 131.986 0 0 1-15-4.5c1.983 1.889 4.316 3.222 7 4-1.41.368-2.41 1.201-3 2.5a36.873 36.873 0 0 0 12 1 5.727 5.727 0 0 0-1 3c-5.092-1.67-10.425-2.503-16-2.5-3.774-1.302-6.941-3.469-9.5-6.5-.797-1.759-.63-3.425.5-5-.347 1.64.153 3.307 1.5 5 .317-1.8.984-2.134 2-1 1.42-.96 2.92-1.793 4.5-2.5-.752-.67-1.086-1.504-1-2.5Z" style="opacity:1"/><path fill="#aea04c" d="M77.5 82.5v-1c2.328 1.8 4.995 2.967 8 3.5.88 1.356 1.213 2.856 1 4.5 1.291-.237 2.291.096 3 1a5.576 5.576 0 0 0-3 1c-1.915-1.972-4.249-2.972-7-3 .447-2.51-.22-4.51-2-6Z" style="opacity:1"/><path fill="#68592d" d="M161.5 82.5c5.81-.99 11.81-1.323 18-1l-4 2h-2c-3.9-.93-7.9-1.263-12-1Z" style="opacity:1"/><path fill="#e7ce34" d="M81.5 59.5h2c1.8 3.005 2.466 6.338 2 10-.086.996.248 1.83 1 2.5-1.58.707-3.08 1.54-4.5 2.5-1.016-1.134-1.683-.8-2 1-1.347-1.693-1.847-3.36-1.5-5-1.13 1.575-1.297 3.241-.5 5 2.559 3.031 5.726 5.198 9.5 6.5 5.575-.003 10.908.83 16 2.5-3.798.983-7.798 1.317-12 1 .284 1.915-.049 3.581-1 5h-1c-.709-.904-1.709-1.237-3-1 .213-1.644-.12-3.144-1-4.5-3.005-.533-5.672-1.7-8-3.5l-2-1c-2.143-3.82-2.477-7.82-1-12 1.235-1.517 1.235-3.184 0-5a20.216 20.216 0 0 1 6-1.5c-1.382-1.46-1.05-2.294 1-2.5Z" style="opacity:1"/><path fill="#2c375c" d="M105.5 78.5h4a51.56 51.56 0 0 0-1 7c2.823-.475 4.823.525 6 3-.247 1.213-.914 1.88-2 2 1.629-1.696 1.296-2.696-1-3-1.542-.8-3.208-1.134-5-1-.473-1.406-1.473-2.073-3-2a5.727 5.727 0 0 1 1-3c4.586-.515 4.919-1.515 1-3Z" style="opacity:1"/><path fill="#ab983d" d="M173.5 83.5h2l4 3c-4.483.032-8.483 1.032-12 3-1.817-.72-2.484-1.72-2-3-.557 1.832-1.557 3.165-3 4-2.285 1.046-4.618 1.046-7 0l-1-2c1.443-.835 2.443-2.168 3-4 .952 1.545 1.285 3.212 1 5h5v-4c3.829.569 7.163-.098 10-2Z" style="opacity:1"/><path fill="#b09b35" d="M103.5 84.5c1.527-.073 2.527.594 3 2-4.473.55-8.807 1.217-13 2-.6 1.4-1.6 2.4-3 3v-1c.951-1.419 1.284-3.085 1-5 4.202.317 8.202-.017 12-1Z" style="opacity:1"/><path fill="#7d753f" d="M151.5 83.5c1.256-.039 2.256.461 3 1.5-2.431 1.092-2.431 2.26 0 3.5h-3v-5Z" style="opacity:1"/><path fill="#dcc739" d="M106.5 86.5c1.792-.134 3.458.2 5 1-1.779 1.844-4.112 2.51-7 2v4h-3c-2.319-.493-4.319-1.493-6-3l-2-2c4.193-.783 8.527-1.45 13-2Z" style="opacity:1"/><path fill="#ebd332" d="M179.5 86.5h2v3h-4a71.015 71.015 0 0 0-2 4c-1.122-1.13-2.456-1.797-4-2-1.495-.489-2.829-1.155-4-2 3.517-1.968 7.517-2.968 12-3Z" style="opacity:1"/><path fill="#48463c" d="m93.5 88.5 2 2c-1.256.404-2.423 1.07-3.5 2-.765-.07-1.265-.403-1.5-1 1.4-.6 2.4-1.6 3-3Z" style="opacity:1"/><path fill="#2a3566" d="M77.5 82.5c1.78 1.49 2.447 3.49 2 6 2.751.028 5.085 1.028 7 3a5.576 5.576 0 0 1 3-1h1v1c-4.482 1.461-8.816 1.128-13-1v-8Z" style="opacity:1"/><path fill="#5a5a3f" d="M167.5 89.5c1.171.845 2.505 1.511 4 2v1a68.656 68.656 0 0 1-9-2c1.443-.835 2.443-2.168 3-4-.484 1.28.183 2.28 2 3Z" style="opacity:1"/><path fill="#64674a" d="M181.5 86.5c2.679.025 4.012 1.358 4 4h-2c-2.281-.423-3.948.244-5 2-.904-.709-1.237-1.709-1-3h4v-3Z" style="opacity:1"/><path fill="#a09c52" d="M177.5 89.5c-.237 1.291.096 2.291 1 3 1.126 1.358 1.126 2.692 0 4a35.775 35.775 0 0 1-7-4v-1c1.544.203 2.878.87 4 2a71.015 71.015 0 0 1 2-4Z" style="opacity:1"/><path fill="#848550" d="M111.5 87.5c2.296.304 2.629 1.304 1 3a13.118 13.118 0 0 0-7 1c.363.683.696 1.35 1 2 0 1.333-.667 2-2 2-1.21-.432-2.21-1.099-3-2h3v-4c2.888.51 5.221-.156 7-2Z" style="opacity:1"/><path fill="#0f3184" d="M155.5 90.5c2.382 1.046 4.715 1.046 7 0a68.656 68.656 0 0 0 9 2 35.775 35.775 0 0 0 7 4c1.126-1.308 1.126-2.642 0-4 1.052-1.756 2.719-2.423 5-2 .291 1.15 1.124 1.816 2.5 2 1.935-.843 3.769-.843 5.5 0a29.07 29.07 0 0 1-8 2c.17 1.322-.163 2.489-1 3.5a14.729 14.729 0 0 0-5 1.5 3.647 3.647 0 0 0 1 1.5c-1.772-.675-3.605-.509-5.5.5l-2.5-.5a29.123 29.123 0 0 1 5-2.5 11.371 11.371 0 0 0-2.5-2c-1.667 1.333-3.333 1.333-5 0l-1 2c-.833-1.5-2-2.667-3.5-3.5a3.647 3.647 0 0 0 1-1.5c-1.422-1.047-2.922-1.047-4.5 0a22.374 22.374 0 0 1-4.5-3Z" style="opacity:1"/><path fill="#464e5f" d="M106.5 93.5h1c.343 1.983-.324 3.317-2 4-.838-.342-1.172-1.008-1-2 1.333 0 2-.667 2-2Z" style="opacity:1"/><path fill="#15327b" d="M107.5 93.5c1.368 1.918 2.368 4.085 3 6.5 1.679.395 3.345.228 5-.5a13.139 13.139 0 0 0 6 2v4a5.727 5.727 0 0 1-3-1c-3.262-1.679-5.929-1.012-8 2-.17-1.322.163-2.489 1-3.5-2.661-1.176-4.661-3.01-6-5.5 1.676-.683 2.343-2.017 2-4Z" style="opacity:1"/><path fill="#ad9e4d" d="M118.5 104.5a8.43 8.43 0 0 0-4 .5 4.457 4.457 0 0 1 2 1.5 14.72 14.72 0 0 1-5 1.5c.841 1.996.508 3.829-1 5.5l-1-6c.667 0 1-.333 1-1 2.071-3.012 4.738-3.679 8-2Z" style="opacity:1"/><path fill="#2a3666" d="m109.5 107.5 1 6c-.914 3.228-1.247 6.561-1 10-1.526-.992-2.193-2.492-2-4.5a22.956 22.956 0 0 1 1-5l-2-2c.198-2.185 1.198-3.685 3-4.5Z" style="opacity:1"/><path fill="#9c914b" d="M124.5 116.5a411.248 411.248 0 0 0 18 3c-1.326 1.142-2.326 2.476-3 4-5.903-.623-10.903-2.957-15-7Z" style="opacity:1"/><path fill="#ead12e" d="M118.5 104.5c.891.61 1.891.943 3 1v10c.086.996-.248 1.829-1 2.5-1.558.21-2.891.71-4 1.5a71.254 71.254 0 0 1-2-4c-1.163 2.05-.996 4.05.5 6 1.961 2.635 4.461 4.469 7.5 5.5 5.082.219 10.082.719 15 1.5-2.703 1.61-5.703 2.61-9 3-.904.709-1.237 1.709-1 3h-5c.117-1.984-.55-3.65-2-5-.886.825-1.219 1.825-1 3-1.175.219-2.175-.114-3-1a9.108 9.108 0 0 0 1-5 20.69 20.69 0 0 1-5-1c-.722-1.051-1.722-1.718-3-2-.247-3.439.086-6.772 1-10 1.508-1.671 1.841-3.504 1-5.5a14.72 14.72 0 0 0 5-1.5 4.457 4.457 0 0 0-2-1.5 8.43 8.43 0 0 1 4-.5Z" style="opacity:1"/><path fill="#9b8a4d" d="M116.5 119.5c2.475 1.288 4.808.955 7-1a21.685 21.685 0 0 0 7 4.5c-2.179.442-2.845 1.442-2 3 3.317.498 6.65.665 10 .5v2h-1a131.722 131.722 0 0 0-15-1.5c-3.039-1.031-5.539-2.865-7.5-5.5-1.496-1.95-1.663-3.95-.5-6a71.254 71.254 0 0 0 2 4Z" style="opacity:1"/><path fill="#c5b24c" d="M121.5 115.5a5.727 5.727 0 0 1 3 1c4.097 4.043 9.097 6.377 15 7h1c1.333 1 1.333 2 0 3h-2a50.464 50.464 0 0 1-10-.5c-.845-1.558-.179-2.558 2-3a21.685 21.685 0 0 1-7-4.5c-2.192 1.955-4.525 2.288-7 1 1.109-.79 2.442-1.29 4-1.5.752-.671 1.086-1.504 1-2.5Z" style="opacity:1"/><path fill="#888757" d="M140.5 123.5h3c.994 2.354-.006 3.354-3 3 1.333-1 1.333-2 0-3Z" style="opacity:1"/><path fill="#cebd42" d="M137.5 128.5h1c3.904.619 7.237 2.285 10 5-.825.886-1.825 1.219-3 1h-5a6.846 6.846 0 0 0 1 4c-.733.587-1.733.587-3 0-1.815-1.13-3.815-1.796-6-2v-1c2.327-.253 4.327.414 6 2 1.345-2.969.345-4.636-3-5-2.107-.968-4.441-1.302-7-1 3.297-.39 6.297-1.39 9-3Z" style="opacity:1"/><path fill="#f2d82a" d="M135.5 132.5c3.345.364 4.345 2.031 3 5-1.673-1.586-3.673-2.253-6-2-.992.172-1.658-.162-2-1 1.052-1.756 2.719-2.423 5-2Z" style="opacity:1"/><path fill="#757549" d="M145.5 134.5c-.709.904-1.709 1.237-3 1a9.108 9.108 0 0 0 1 5c-2.354 1.323-4.021.657-5-2 1.267.587 2.267.587 3 0a6.846 6.846 0 0 1-1-4h5Z" style="opacity:1"/><path fill="#948a41" d="M112.5 125.5a20.69 20.69 0 0 0 5 1 9.108 9.108 0 0 1-1 5c.825.886 1.825 1.219 3 1-.219-1.175.114-2.175 1-3 1.45 1.35 2.117 3.016 2 5h5c-.237-1.291.096-2.291 1-3 2.559-.302 4.893.032 7 1-2.281-.423-3.948.244-5 2-1.235.221-2.235.888-3 2-2.619.238-5.285-.095-8-1-.967-1.306-2.301-1.973-4-2 .484-3.288-.516-5.955-3-8Z" style="opacity:1"/><path fill="#2a354f" d="M130.5 134.5c.342.838 1.008 1.172 2 1v1c-3.602.25-6.935 1.25-10 3a21.662 21.662 0 0 0-3-4c2.715.905 5.381 1.238 8 1 .765-1.112 1.765-1.779 3-2Z" style="opacity:1"/><path fill="#1e326d" d="M132.5 136.5c2.185.204 4.185.87 6 2 .979 2.657 2.646 3.323 5 2a9.108 9.108 0 0 1-1-5c1.291.237 2.291-.096 3-1 1.175.219 2.175-.114 3-1-2.763-2.715-6.096-4.381-10-5v-2h2c2.994.354 3.994-.646 3-3a17.65 17.65 0 0 1 6-.5c-2.457 1.512-2.457 2.846 0 4l-4 1c1.526 1.887 3.526 2.887 6 3-1.141.741-1.141 1.575 0 2.5a18.924 18.924 0 0 1-5 3 9.86 9.86 0 0 0-1 6 11.988 11.988 0 0 0-6 1c-.886-.825-1.219-1.825-1-3-2.672-.448-4.672-1.781-6-4Z" style="opacity:1"/></svg>