<svg xmlns="http://www.w3.org/2000/svg" width="256" height="154" style="shape-rendering:geometricPrecision;text-rendering:geometricPrecision;image-rendering:optimizeQuality;fill-rule:evenodd;clip-rule:evenodd"><path fill="#948267" d="M107.5-.5h39v1l-13 2h-18l-8-2v-1Z" style="opacity:.222"/><path fill="#c0aa81" d="M146.5.5c23.996 1.576 46.329 8.243 67 20a397.97 397.97 0 0 0-26-9c-.342-.838-1.008-1.172-2-1-4.994-2.176-10.327-3.51-16-4-6.134-1.454-12.468-2.454-19-3-5.475-.989-11.142-1.322-17-1l13-2Z" style="opacity:.068"/><path fill="#ecc050" d="M145.5 3.5c3.656.16 5.489 2.16 5.5 6a10.256 10.256 0 0 1 1.5-4c4.577 3.078 5.243 6.912 2 11.5-3.711.825-7.378.659-11-.5-1.173-2.779-3.007-3.445-5.5-2-6.428-3.52-12.594-3.354-18.5.5-2.18.419-4.346.252-6.5-.5-1.971-.032-3.471.802-4.5 2.5a18.437 18.437 0 0 1-6 .5 46.808 46.808 0 0 1-1-13 522.935 522.935 0 0 1 44-1Z" style="opacity:.999"/><path fill="#e8bc4f" d="M145.5 3.5h5c6.532.546 12.866 1.546 19 3 .111.617.444 1.117 1 1.5a52.072 52.072 0 0 0 10 1.5 272.393 272.393 0 0 0 0 41c-3.315-.24-6.315-1.24-9-3a177.262 177.262 0 0 0-3.5-20 26.33 26.33 0 0 1-4-6c-2.55.619-5.217.619-8 0a1134.514 1134.514 0 0 0-29-7 24.356 24.356 0 0 0-5.5 2.5 62.029 62.029 0 0 0-16.5 2.5c-1.301-.139-2.134-.805-2.5-2a18.437 18.437 0 0 0 6-.5c1.029-1.698 2.529-2.532 4.5-2.5 2.154.752 4.32.919 6.5.5 5.906-3.854 12.072-4.02 18.5-.5 2.493-1.445 4.327-.779 5.5 2 3.622 1.159 7.289 1.325 11 .5 3.243-4.588 2.577-8.422-2-11.5a10.256 10.256 0 0 0-1.5 4c-.011-3.84-1.844-5.84-5.5-6Z" style="opacity:1"/><path fill="#e8bc4e" d="M98.5 19.5c-4.515 2.296-9.515 4.63-15 7-.862 4.844-3.862 7.177-9 7 .065-.438-.101-.772-.5-1-4.95 3.626-6.784 8.46-5.5 14.5-.285 1.89-1.285 3.223-3 4 2.456 2.159 1.79 2.992-2 2.5a171.377 171.377 0 0 1-2-20c-.16-1.7.007-3.366.5-5 .661 2.416 2.161 4.082 4.5 5 2.528-.998 2.528-1.831 0-2.5a17.64 17.64 0 0 1 6 .5c.468-2.88-.366-5.213-2.5-7-1.584.488-2.75 1.488-3.5 3-4.24-2.063-6.406-.73-6.5 4-.5-4.989-.666-9.989-.5-15a51.639 51.639 0 0 1-7 1 66.869 66.869 0 0 1 21-8 283.03 283.03 0 0 0 25-4v14Z" style="opacity:1"/><path fill="#ebbe4f" d="M185.5 10.5c.992-.172 1.658.162 2 1 1.1 1.059 2.434 1.892 4 2.5a26.598 26.598 0 0 0 2 3.5 10.31 10.31 0 0 1 3-1c3.793.863 7.459 1.863 11 3-.215 1.679.452 2.679 2 3 .203 1.89-.463 3.39-2 4.5 2.616 2.044 2.283 3.044-1 3a11.339 11.339 0 0 1-1.5-3.5l-1 2c-.741-1.14-1.575-1.14-2.5 0-.641 1.796-1.641 3.296-3 4.5 1.743 1.635 3.577 1.802 5.5.5 1.826.51 1.993 1.344.5 2.5l3 2.5c-1.103.498-2.103.83-3 1 1.662.827 2.995 1.993 4 3.5.085 4.815-.248 9.815-1 15 .862 2.734 1.695 2.901 2.5.5 1.617 1.036 1.784 2.203.5 3.5 1.333 2 2.667 2 4 0-.671-.986-.671-2.153 0-3.5 3.082 1.569 5.915 1.236 8.5-1a24.266 24.266 0 0 0 2.5 6c-1.035 2.858-2.702 3.358-5 1.5l1-1c-2.181-2.078-4.181-1.911-6 .5 1.402 1.343 1.069 2.176-1 2.5.388 1.808.388 3.475 0 5a16.603 16.603 0 0 1-7-.5 9.86 9.86 0 0 0-1-6 7.248 7.248 0 0 0-2.5 2c-.739-1.074-1.739-1.74-3-2a337.688 337.688 0 0 1-10.5 5c-2.833-2.559-2.166-3.892 2-4a13.115 13.115 0 0 0-1-7 4.458 4.458 0 0 0-1.5 2c-1.081-3.154-2.914-5.82-5.5-8a273.374 273.374 0 0 1-2-43h3Z" style="opacity:1"/><path fill="#662925" d="M119.5 21.5c1.068-.934 2.401-1.268 4-1a67.643 67.643 0 0 0 9 2.5l2.5 2.5c.577 3.865.077 7.532-1.5 11 .106 3.482 1.106 6.65 3 9.5a124.066 124.066 0 0 0-2 7.5 18.347 18.347 0 0 1 2 9 64.873 64.873 0 0 1-16-1 6.845 6.845 0 0 0 1-4h-3v-4h4c.338-2.657-.329-4.99-2-7a184.223 184.223 0 0 0 2-3l2-1c.355 5.887.355 11.887 0 18a25.87 25.87 0 0 0 10 1 62.97 62.97 0 0 0-2-12.5c1.074-.739 1.741-1.739 2-3a31.571 31.571 0 0 1-3-9.5 52.731 52.731 0 0 1 3-9c-2.608.106-4.608 1.272-6 3.5-2.865.183-5.531.683-8 1.5-2.839-3.666-2.505-7.166 1-10.5a2.427 2.427 0 0 0-2-.5Z" style="opacity:1"/><path fill="#461915" d="M123.5 20.5c4.819-.148 9.485.518 14 2v3c4.828-.999 9.495-.999 14 0-3.631-.468-6.965.199-10 2-1.44 2.728-.774 4.895 2 6.5-2.613 1.071-2.613 1.904 0 2.5 1.765 4.66 1.099 8.993-2 13 2.14 1.64 3.14 3.807 3 6.5a42.325 42.325 0 0 1-2 7.5c1.459-.067 2.792.266 4 1 0 .667-.333 1-1 1-16.43-3.547-32.43-2.38-48 3.5-2.362 1.51-4.695 3.01-7 4.5-1.492.213-3.158.213-5 0a37.362 37.362 0 0 1 3-9c.961 1.765 1.295 3.765 1 6 5.73-1.571 11.063-3.904 16-7a40.939 40.939 0 0 0 9-.5c.95-2.432.95-4.932 0-7.5-1.052-1.756-2.719-2.423-5-2 .717-.863 2.217-1.53 4.5-2 .322-2.189-.178-4.189-1.5-6 1.956 1.675 3.289 1.342 4-1a20.676 20.676 0 0 0 5-1h1c-.641.982-1.307 1.982-2 3 1.671 2.01 2.338 4.343 2 7h-4v4h3a6.845 6.845 0 0 1-1 4 64.873 64.873 0 0 0 16 1 18.347 18.347 0 0 0-2-9 124.066 124.066 0 0 1 2-7.5c-1.894-2.85-2.894-6.018-3-9.5 1.577-3.468 2.077-7.135 1.5-11l-2.5-2.5a67.643 67.643 0 0 1-9-2.5Z" style="opacity:1"/><path fill="#eec150" d="M46.5 22.5c.876-.13 1.543.203 2 1 .21 5.387 2.876 7.554 8 6.5a11.362 11.362 0 0 0 1.5-3.5c.667 8 .667 16 0 24-.582-3.168-1.582-3.501-3-1l-2-2a14.73 14.73 0 0 1-1.5 5c-1.503-1.09-1.836-2.257-1-3.5l-5-3 1-1c-1.554-2.224-2.554-4.724-3-7.5-.774-1.211-1.607-1.211-2.5 0-.797 1.759-.63 3.425.5 5 3.476 2.532 3.476 5.365 0 8.5-1.965.624-3.631.124-5-1.5-1 .333-1.667 1-2 2 1.095 2.12 2.761 3.62 5 4.5-.458 2.398-1.791 4.064-4 5 4.341 3.011 5.008 6.678 2 11 1.26 1.814 1.26 3.647 0 5.5l-3-2c-.858 4.944-1.525 9.61-2 14a471.119 471.119 0 0 0-2-9c.039-1.256-.461-2.256-1.5-3A189.81 189.81 0 0 0 27.5 60c.235-8.458.402-16.958.5-25.5 1.907-1.43 4.074-2.096 6.5-2 2.686.512 5.352.679 8 .5-1.36-1.938-1.027-3.604 1-5-1.466-3.058-.466-4.891 3-5.5Z" style="opacity:1"/><path fill="#b99a59" d="M220.5 24.5c9.909 5.241 17.909 12.575 24 22a5.577 5.577 0 0 1-3-1c-1.715-2.382-3.715-4.382-6-6a159.362 159.362 0 0 0-15-15Z" style="opacity:.349"/><path fill="#431713" d="M119.5 21.5a2.427 2.427 0 0 1 2 .5c-3.505 3.334-3.839 6.834-1 10.5 3.131 2.443 4.464 5.777 4 10l-2 1h-1a24.935 24.935 0 0 0-.5-7c-1.356-.88-2.856-1.214-4.5-1v9c-.711 2.342-2.044 2.675-4 1v-2c.204-3.018.537-6.018 1-9 1.78-3.762.78-6.595-3-8.5-3.428-.701-6.762-.368-10 1-2.494 2.244-2.494 4.577 0 7-2.242 1.007-1.908 1.84 1 2.5 1.287 1.371 1.953 3.205 2 5.5.137 3.084-.53 5.918-2 8.5 3.966 4.86 3.633 9.526-1 14a3.646 3.646 0 0 1-1.5-1 24.939 24.939 0 0 1-.5-7c-2.776.411-3.443-.422-2-2.5a19.311 19.311 0 0 1-3-6.5c-.047-1.538.62-2.538 2-3 1.815 1.13 3.815 1.796 6 2v-4h-5c.706-4.607.706-9.273 0-14 .736-1.73 2.07-2.73 4-3 4.648-1.33 9.314-1.33 14 0 2.261-.595 3.928-1.929 5-4Z" style="opacity:1"/><path fill="#9b2e30" d="M112.5 43.5v2c1.322 1.811 1.822 3.811 1.5 6-2.283.47-3.783 1.137-4.5 2-1.348.686-2.515 1.686-3.5 3a66.88 66.88 0 0 0-1.5-5.5c1.83-4.243 2.496-8.743 2-13.5h4c-.475 2.582.192 4.582 2 6Z" style="opacity:1"/><path fill="#a4833b" d="M132.5 18.5c2.131 2.185 4.797 3.518 8 4 6.413.58 12.747 1.413 19 2.5 2.81 4.549 3.477 9.382 2 14.5.555 5.101 2.222 9.768 5 14 2.806.668 5.472 1.334 8 2-3.512-.554-6.512.112-9 2-3.352 2.992-5.019 2.158-5-2.5 2.546-3.465 2.379-6.632-.5-9.5a118.983 118.983 0 0 1 0-16c-1.691-2.859-4.191-4.192-7.5-4h-1c-4.505-.999-9.172-.999-14 0v-3c-4.515-1.482-9.181-2.148-14-2-1.599-.268-2.932.066-4 1-5.764 1.692-11.764 2.526-18 2.5-.556.383-.889.883-1 1.5-1.93.27-3.264 1.27-4 3-.968 2.107-1.302 4.44-1 7h-10a102.889 102.889 0 0 1 7.5-4 21.565 21.565 0 0 0 3.5-8 1077.855 1077.855 0 0 0 36-5Z" style="opacity:1"/><path fill="#d6ae4b" d="M115.5 2.5h18c5.858-.322 11.525.011 17 1h-5a522.935 522.935 0 0 0-44 1 46.808 46.808 0 0 0 1 13c.366 1.195 1.199 1.861 2.5 2a62.029 62.029 0 0 1 16.5-2.5 24.356 24.356 0 0 1 5.5-2.5 1134.514 1134.514 0 0 1 29 7c2.783.619 5.45.619 8 0a26.33 26.33 0 0 0 4 6 177.262 177.262 0 0 1 3.5 20c-1.466-.847-2.3-2.18-2.5-4a461.346 461.346 0 0 1-2-15c-.833-1.5-2-2.667-3.5-3.5-9.926-3.56-20.259-5.727-31-6.5a1077.855 1077.855 0 0 1-36 5 21.565 21.565 0 0 1-3.5 8 102.889 102.889 0 0 0-7.5 4l-4 1h-3a238.225 238.225 0 0 1-2 16 61.254 61.254 0 0 1 1 15c-2.53-6.741-3.197-13.741-2-21-3.752-4.063-3.418-7.897 1-11.5 4.379-.855 7.712-3.188 10-7 4.846-1.856 8.846-4.69 12-8.5v-14a283.03 283.03 0 0 1-25 4c5.423-1.926 11.09-3.426 17-4.5a136.628 136.628 0 0 1 25-2.5Z" style="opacity:1"/><path fill="#72522b" d="M121.5 43.5a20.676 20.676 0 0 1-5 1v-9c1.644-.214 3.144.12 4.5 1 .497 2.31.663 4.643.5 7Z" style="opacity:1"/><path fill="#622c28" d="M113.5 34.5c.131-.876-.202-1.543-1-2-3.434 2.234-7.101 3.568-11 4-2.908-.66-3.242-1.493-1-2.5-2.494-2.423-2.494-4.756 0-7 3.238-1.368 6.572-1.701 10-1 3.78 1.905 4.78 4.738 3 8.5Z" style="opacity:1"/><path fill="#773734" d="M151.5 25.5h1c2.045 1.423 3.045 3.423 3 6-3.537 2.768-7.537 4.435-12 5-2.613-.596-2.613-1.429 0-2.5-2.774-1.605-3.44-3.772-2-6.5 3.035-1.801 6.369-2.468 10-2Z" style="opacity:1"/><path fill="#836231" d="M119.5 21.5c-1.072 2.071-2.739 3.405-5 4-4.686-1.33-9.352-1.33-14 0 .111-.617.444-1.117 1-1.5 6.236.026 12.236-.808 18-2.5Z" style="opacity:1"/><path fill="#e4b84d" d="M74.5 33.5c-.822 3.163-2.488 5.83-5 8l4 6c-2.981 6.02-3.314 12.354-1 19a61.393 61.393 0 0 0-3 8c-1.347-.528-2.68-.695-4-.5.24 1.563-.26 3.063-1.5 4.5a56.719 56.719 0 0 0-3-12 8.434 8.434 0 0 0-.5 4h-1c.725-7.911.725-16.078 0-24.5.008-4.557.675-8.724 2-12.5.276 6.71.943 13.377 2 20 3.79.492 4.456-.341 2-2.5 1.715-.777 2.715-2.11 3-4-1.284-6.04.55-10.874 5.5-14.5.399.228.565.562.5 1Z" style="opacity:1"/><path fill="#7e5c36" d="M135.5 36.5c5.175.335 6.841 3.002 5 8-2.693-2.06-4.36-4.726-5-8Z" style="opacity:1"/><path fill="#eabd4e" d="M61.5 33.5c-1.325 3.776-1.992 7.943-2 12.5.725 8.422.725 16.589 0 24.5.409 3.999-.425 7.666-2.5 11-2.31-2.93-2.476-5.764-.5-8.5a582.15 582.15 0 0 0-3-2c.924-1.15.924-2.15 0-3-1.444-.78-2.777-.614-4 .5a4.452 4.452 0 0 0 2 1.5c-5.865.793-6.198 2.126-1 4a7.291 7.291 0 0 0-3 2c.454 8.729.454 17.562 0 26.5a4.934 4.934 0 0 1-3-.5c.845-1.558.178-2.558-2-3a17.96 17.96 0 0 0 3-7l-2-2c.711-2.796 1.378-5.63 2-8.5-.508-2.404-1.675-3.07-3.5-2a31.763 31.763 0 0 1-2.5 9c-1.83-1.95-2.83-3.95-3-6a375.687 375.687 0 0 1-4 11.5 3.943 3.943 0 0 0 1 2l5 1c-2.369.536-4.369 1.703-6 3.5a246.13 246.13 0 0 0-2-7v-13a471.119 471.119 0 0 1 2 9c.475-4.39 1.142-9.056 2-14l3 2c1.26-1.853 1.26-3.686 0-5.5 3.008-4.322 2.341-7.989-2-11 2.209-.936 3.542-2.602 4-5-2.239-.88-3.905-2.38-5-4.5.333-1 1-1.667 2-2 1.369 1.624 3.035 2.124 5 1.5 3.476-3.135 3.476-5.968 0-8.5-1.13-1.575-1.297-3.241-.5-5 .893-1.211 1.726-1.211 2.5 0 .446 2.776 1.446 5.276 3 7.5l-1 1 5 3c-.836 1.243-.503 2.41 1 3.5a14.73 14.73 0 0 0 1.5-5l2 2c1.418-2.501 2.418-2.168 3 1 .667-8 .667-16 0-24a11.362 11.362 0 0 1-1.5 3.5c-5.124 1.054-7.79-1.113-8-6.5-.457-.797-1.124-1.13-2-1 2.44-1.209 4.44-2.876 6-5a51.639 51.639 0 0 0 7-1c-.166 5.011 0 10.011.5 15 .094-4.73 2.26-6.063 6.5-4 .75-1.512 1.916-2.512 3.5-3 2.134 1.787 2.968 4.12 2.5 7a17.64 17.64 0 0 0-6-.5c2.528.669 2.528 1.502 0 2.5-2.339-.918-3.839-2.584-4.5-5-.493 1.634-.66 3.3-.5 5Z" style="opacity:1"/><path fill="#4b1d15" d="M152.5 25.5c3.309-.192 5.809 1.141 7.5 4a118.983 118.983 0 0 0 0 16c2.879 2.868 3.046 6.035.5 9.5-.019 4.658 1.648 5.492 5 2.5 2.111-1.242 4.111-1.242 6 0-6.342.842-10.342 4.342-12 10.5 2.516 4.893 3.682 10.06 3.5 15.5l-3.5 3.5a53.053 53.053 0 0 0-14 3c-4.865 2.354-5.865 5.688-3 10 3.875 1.52 7.875 1.854 12 1 .88-1.356 1.214-2.856 1-4.5-2.579-.417-4.746.25-6.5 2-.717-.544-1.217-1.21-1.5-2 .111-.617.444-1.117 1-1.5a16.25 16.25 0 0 1 8 0c1.876.918 2.876 2.418 3 4.5-6.053 4.389-12.719 5.222-20 2.5-3.01-4.765-2.343-8.932 2-12.5a140.91 140.91 0 0 0 11-6v-2a21.445 21.445 0 0 1 7-1c-.138-3.931-1.138-7.598-3-11-.058-2.59.608-4.923 2-7a419.492 419.492 0 0 1-4-23 81.354 81.354 0 0 1 1-8c.045-2.577-.955-4.577-3-6Z" style="opacity:1"/><path fill="#993734" d="M124.5 42.5c.464-4.223-.869-7.557-4-10 2.469-.817 5.135-1.317 8-1.5 1.392-2.228 3.392-3.394 6-3.5a52.731 52.731 0 0 0-3 9 31.571 31.571 0 0 0 3 9.5c-.259 1.261-.926 2.261-2 3a62.97 62.97 0 0 1 2 12.5 25.87 25.87 0 0 1-10-1c.355-6.113.355-12.113 0-18Z" style="opacity:1"/><path fill="#eec04f" d="M209.5 22.5a71.93 71.93 0 0 1 5.5 2c.956 4.072.456 7.905-1.5 11.5 2.01 4.609 2.51 9.442 1.5 14.5a6.977 6.977 0 0 1-2.5 3.5c1.211 1.113 1.211 2.28 0 3.5.457.797 1.124 1.13 2 1-.671 1.347-.671 2.514 0 3.5-1.333 2-2.667 2-4 0 1.284-1.297 1.117-2.464-.5-3.5-.805 2.401-1.638 2.234-2.5-.5.752-5.185 1.085-10.185 1-15-1.005-1.507-2.338-2.673-4-3.5.897-.17 1.897-.502 3-1l-3-2.5c1.493-1.156 1.326-1.99-.5-2.5-1.923 1.302-3.757 1.135-5.5-.5 1.359-1.204 2.359-2.704 3-4.5.925-1.14 1.759-1.14 2.5 0l1-2a11.339 11.339 0 0 0 1.5 3.5c3.283.044 3.616-.956 1-3 1.537-1.11 2.203-2.61 2-4.5Z" style="opacity:1"/><path fill="#dcb148" d="M98.5 19.5c-3.154 3.81-7.154 6.644-12 8.5-2.288 3.812-5.621 6.145-10 7-4.418 3.603-4.752 7.437-1 11.5-1.197 7.259-.53 14.259 2 21-1.505 6.548-3.172 12.715-5 18.5a68.95 68.95 0 0 0 7 18.5c7.692 5.998 11.525 13.998 11.5 24 2.305 2.43 5.138 3.43 8.5 3 .61.891.943 1.891 1 3-3.7-.85-7.368-.85-11 0a10.256 10.256 0 0 1-4-1.5c1.017-1.049 1.184-2.216.5-3.5a3.647 3.647 0 0 1-1.5 1 131.968 131.968 0 0 1-7-5.5c.913-1.414.913-2.914 0-4.5.65-.304 1.317-.637 2-1 1.12 1.333 2.453 1.833 4 1.5l-1-1c2.667-1.667 2.667-3.333 0-5l2-2a4087.44 4087.44 0 0 0-12-11l1-1c-3.231-5.49-4.398-11.323-3.5-17.5L67.5 81a14.826 14.826 0 0 0 2-6.5 61.393 61.393 0 0 1 3-8c-2.314-6.646-1.981-12.98 1-19l-4-6c2.512-2.17 4.178-4.837 5-8 5.138.177 8.138-2.156 9-7 5.485-2.37 10.485-4.704 15-7Z" style="opacity:1"/><path fill="#cba645" d="M132.5 18.5c10.741.773 21.074 2.94 31 6.5 1.5.833 2.667 2 3.5 3.5a461.346 461.346 0 0 0 2 15c.2 1.82 1.034 3.153 2.5 4 2.685 1.76 5.685 2.76 9 3 2.718 3.782 4.718 8.115 6 13-2.385 3.253-2.385 6.42 0 9.5.948.483 1.948.65 3 .5-.468 3.631.199 6.965 2 10-2.356 1.154-2.523 2.487-.5 4 .667 5 .667 10 0 15a9.454 9.454 0 0 1-1.5 2.5c-2.639.653-4.973 1.82-7 3.5v-2c.236-2.473 1.569-4.14 4-5a18.359 18.359 0 0 0 2-7c-1.513-5.803-2.18-11.47-2-17-2.508-6.012-3.675-12.346-3.5-19-2.025-2.193-4.525-3.193-7.5-3h-1a345.429 345.429 0 0 0-8-2c-2.778-4.232-4.445-8.899-5-14 1.477-5.118.81-9.951-2-14.5a233.876 233.876 0 0 0-19-2.5c-3.203-.482-5.869-1.815-8-4Z" style="opacity:1"/><path fill="#eabd4f" d="M235.5 39.5c2.285 1.618 4.285 3.618 6 6 .917.627 1.917.96 3 1v1c2.15 5.593 4.15 11.26 6 17a6.895 6.895 0 0 1-2 4c1.372 2.12.705 3.12-2 3-.146 2.442.687 3.11 2.5 2 1.831 7.969 1.998 15.969.5 24h-2c1.299-5.809 1.799-11.475 1.5-17-.889 1.388-1.389 1.222-1.5-.5.929-3.812-.571-4.978-4.5-3.5a68.054 68.054 0 0 1-2-4c-1.222 3.346-3.389 4.68-6.5 4a5.575 5.575 0 0 0-1-3 6.895 6.895 0 0 0 2-4c1.194-8.832-2.306-14.498-10.5-17-1.584.488-2.751 1.488-3.5 3-1.501-2.953-2.168-6.12-2-9.5l1-6.5c2.577 2.42 3.577 5.42 3 9 5.467.65 8.467-1.684 9-7 .765-1.112 1.765-1.779 3-2Z" style="opacity:1"/><path fill="#8f3835" d="M113.5 34.5a104.653 104.653 0 0 0-1 9c-1.808-1.418-2.475-3.418-2-6h-4c.496 4.757-.17 9.257-2 13.5a66.88 66.88 0 0 1 1.5 5.5c.985-1.314 2.152-2.314 3.5-3 2.281-.423 3.948.244 5 2h-7c.213 2.95-.454 5.617-2 8-4.937 3.096-10.27 5.429-16 7 .295-2.235-.039-4.235-1-6a30.883 30.883 0 0 0-4-10c2.647-3.058 2.647-6.058 0-9 2.222-4.59 5.888-6.59 11-6v5c-1.38.462-2.047 1.462-2 3a19.311 19.311 0 0 0 3 6.5c-1.443 2.078-.776 2.911 2 2.5-.163 2.357.003 4.69.5 7 .414.457.914.79 1.5 1 4.633-4.474 4.966-9.14 1-14 1.47-2.582 2.137-5.416 2-8.5-.047-2.295-.713-4.129-2-5.5 3.899-.432 7.566-1.766 11-4 .798.457 1.131 1.124 1 2Z" style="opacity:1"/><path fill="#e5b74b" d="M187.5 11.5a397.97 397.97 0 0 1 26 9c2.831.579 5.164 1.912 7 4a159.362 159.362 0 0 1 15 15c-1.235.221-2.235.888-3 2-.533 5.316-3.533 7.65-9 7 .577-3.58-.423-6.58-3-9l-1 6.5c-.168 3.38.499 6.547 2 9.5.749-1.512 1.916-2.512 3.5-3 8.194 2.502 11.694 8.168 10.5 17a6.895 6.895 0 0 1-2 4 5.575 5.575 0 0 1 1 3c.13 1.862.13 3.862 0 6 2.631 1.505 2.297 2.171-1 2-.392 2.646-.392 5.146 0 7.5l-2 1c1.303 4.166 1.303 8.333 0 12.5a4.934 4.934 0 0 1-3-.5c1.692-1.401 2.359-3.234 2-5.5h-5c-.241-4.382 1.426-8.215 5-11.5-7.395-3.435-7.395-5.935 0-7.5l1-3c-.219-2.193-.885-4.193-2-6 .789-.283 1.456-.783 2-1.5-1.28-2.132-1.28-4.298 0-6.5a54.662 54.662 0 0 0-4.5-2c-.278.916-.778 1.583-1.5 2a24.266 24.266 0 0 1-2.5-6c-2.585 2.236-5.418 2.569-8.5 1-.876.13-1.543-.203-2-1 1.211-1.22 1.211-2.387 0-3.5a6.977 6.977 0 0 0 2.5-3.5c1.01-5.058.51-9.891-1.5-14.5 1.956-3.595 2.456-7.428 1.5-11.5a71.93 71.93 0 0 0-5.5-2c-1.548-.321-2.215-1.321-2-3a131.024 131.024 0 0 0-11-3 10.31 10.31 0 0 0-3 1 26.598 26.598 0 0 1-2-3.5c-1.566-.608-2.9-1.441-4-2.5Z" style="opacity:1"/><path fill="#992e2f" d="M114.5 55.5c.95 2.568.95 5.068 0 7.5a40.939 40.939 0 0 1-9 .5c1.546-2.383 2.213-5.05 2-8h7Z" style="opacity:1"/><path fill="#8a3533" d="M155.5 31.5a81.354 81.354 0 0 0-1 8 419.492 419.492 0 0 0 4 23c-1.392 2.077-2.058 4.41-2 7 1.862 3.402 2.862 7.069 3 11a21.445 21.445 0 0 0-7 1c-.543-.06-.876-.393-1-1 3.994-4.69 3.994-9.356 0-14h4c.581-5.475-.086-10.642-2-15.5a3.944 3.944 0 0 0 1-2 36.706 36.706 0 0 1-2.5-12.5c-1.356.88-2.856 1.214-4.5 1 .384 4.408-.283 8.575-2 12.5a423.12 423.12 0 0 1 4 15.5 5.728 5.728 0 0 1-3-1c-1.208-.734-2.541-1.067-4-1a42.325 42.325 0 0 0 2-7.5c.14-2.693-.86-4.86-3-6.5 3.099-4.007 3.765-8.34 2-13 4.463-.565 8.463-2.232 12-5Z" style="opacity:1"/><path fill="#8a4137" d="M171.5 57.5c1.517.01 2.684.677 3.5 2l-1 12c.979 2.468 2.479 4.468 4.5 6a51.648 51.648 0 0 0-7-1v-4h-8c1.575 4.193 2.075 8.526 1.5 13l-2.5 2.5-16 4c-2.423 1.57-3.756 3.737-4 6.5a13.216 13.216 0 0 0 5-2c.283.79.783 1.456 1.5 2 1.754-1.75 3.921-2.417 6.5-2 .214 1.644-.12 3.144-1 4.5-4.125.854-8.125.52-12-1-2.865-4.312-1.865-7.646 3-10a53.053 53.053 0 0 1 14-3l3.5-3.5c.182-5.44-.984-10.607-3.5-15.5 1.658-6.158 5.658-9.658 12-10.5Z" style="opacity:1"/><path fill="#99504e" d="m145.5 65.5 1 2c-14.772-2.939-29.438-2.439-44 1.5-2.739 1.026-5.072 2.526-7 4.5-2.285 1.457-4.118 3.457-5.5 6-2.162 5.263-2.995 10.597-2.5 16-3.196-7.81-2.196-15.143 3-22 2.305-1.49 4.638-2.99 7-4.5 15.57-5.88 31.57-7.047 48-3.5Z" style="opacity:1"/><path fill="#a43233" d="M151.5 66.5c-.992.172-1.658-.162-2-1a423.12 423.12 0 0 0-4-15.5c1.717-3.925 2.384-8.092 2-12.5 1.644.214 3.144-.12 4.5-1a36.706 36.706 0 0 0 2.5 12.5 3.944 3.944 0 0 1-1 2c1.914 4.858 2.581 10.025 2 15.5h-4Z" style="opacity:1"/><path fill="#ac3536" d="M146.5 67.5h1c1.075 2.356 1.075 4.689 0 7-1.024-1.353-2.357-2.02-4-2-6.018-2.871-11.685-2.371-17 1.5-8.752-.314-16.752 1.853-24 6.5-2.621-.023-3.955 1.31-4 4a13.047 13.047 0 0 0 3 4 31.158 31.158 0 0 0-6 4.5c.457.414.79.914 1 1.5l-3 3a63.846 63.846 0 0 0-3-8.5 58.315 58.315 0 0 1 5-15.5c1.928-1.974 4.261-3.474 7-4.5 14.562-3.939 29.228-4.439 44-1.5Z" style="opacity:1"/><path fill="#b49141" d="M175.5 55.5c2.975-.193 5.475.807 7.5 3-.175 6.654.992 12.988 3.5 19a82.343 82.343 0 0 1-7.5-4v-16a19.62 19.62 0 0 1-3.5-2Z" style="opacity:1"/><path fill="#e3b952" d="M21.5 38.5c-.283 3.233-1.616 5.9-4 8a6.541 6.541 0 0 0 3 3 13.117 13.117 0 0 1 1 7 4.932 4.932 0 0 0-3 .5c1.868.899 2.868 2.399 3 4.5-.85 3.632-.85 7.3 0 11a16.8 16.8 0 0 1-3.5 4c-.945-.405-1.612-1.072-2-2-1.356.88-2.856 1.213-4.5 1 .061 2.092 1.061 3.592 3 4.5l-6 2.5a45.46 45.46 0 0 0 3 7c1.261-3.32 2.928-3.654 5-1a35.187 35.187 0 0 0-7 4.5c2.116 1.17 2.782 2.67 2 4.5 2.906 4.81 5.573 9.81 8 15 1.412 1.306 3.079 2.14 5 2.5 1.18 3.676 3.512 6.176 7 7.5 1.723.572 3.223.572 4.5 0 .483-.948.65-1.948.5-3 1.93 1.263 3.597 2.93 5 5 3.549-.037 7.215-.37 11-1-.745 1.636-.412 3.303 1 5-2.244 4.827-.91 7.994 4 9.5 1.634.494 3.3.66 5 .5 2.704.17 4.37 1.503 5 4a95.519 95.519 0 0 1-25-10c-17.052-9.716-29.552-23.383-37.5-41-5.118-21.249.382-38.915 16.5-53Z" style="opacity:.999"/><path fill="#e8ba4c" d="M229.5 71.5h-3v-3a4.932 4.932 0 0 0-3 .5c1.196.654 1.196 1.154 0 1.5a28.854 28.854 0 0 0-4-1.5c1.103-1.68.77-3.18-1-4.5-1.5 2.286-1.833 4.619-1 7a31.285 31.285 0 0 0-3.5 9c-2.683 1.393-2.85 2.726-.5 4-1.523 1.782-3.523 2.45-6 2 .241-3.499-.592-3.832-2.5-1l-1-1a46.428 46.428 0 0 0-3.5-7c-.077-1.25-.744-2.083-2-2.5-2.269-.758-4.436-.591-6.5.5-1.108-1.61-1.608-3.277-1.5-5 3.49-1.588 6.99-3.255 10.5-5 1.261.26 2.261.926 3 2a7.248 7.248 0 0 1 2.5-2 9.86 9.86 0 0 1 1 6c2.319.667 4.653.834 7 .5.388-1.525.388-3.192 0-5 2.069-.324 2.402-1.157 1-2.5 1.819-2.411 3.819-2.578 6-.5l-1 1c2.298 1.858 3.965 1.358 5-1.5.722-.417 1.222-1.084 1.5-2a54.662 54.662 0 0 1 4.5 2c-1.28 2.202-1.28 4.368 0 6.5-.544.717-1.211 1.217-2 1.5Z" style="opacity:1"/><path fill="#e3b548" d="M21.5 72.5a5.576 5.576 0 0 0 1 3l-2 2c1.68 1.269 2.847 2.936 3.5 5 .175 9.71.842 19.376 2 29a134.338 134.338 0 0 0 5.5 11c-3.488-1.324-5.82-3.824-7-7.5-1.921-.36-3.588-1.194-5-2.5a160.131 160.131 0 0 0-8-15c.782-1.83.116-3.33-2-4.5a35.187 35.187 0 0 1 7-4.5c-2.072-2.654-3.739-2.32-5 1a45.46 45.46 0 0 1-3-7l6-2.5c-1.939-.908-2.939-2.408-3-4.5 1.644.213 3.144-.12 4.5-1 .388.928 1.055 1.595 2 2a16.8 16.8 0 0 0 3.5-4Z" style="opacity:1"/><path fill="#deb75b" d="M244.5 47.5c1.701 1.025 3.035 2.525 4 4.5a185.567 185.567 0 0 0 7 15.5v17a53.84 53.84 0 0 1-6 13c1.498-8.031 1.331-16.031-.5-24-1.813 1.11-2.646.442-2.5-2 2.705.12 3.372-.88 2-3a6.895 6.895 0 0 0 2-4 326.313 326.313 0 0 0-6-17Z" style="opacity:.996"/><path fill="#943b35" d="M147.5 67.5c2.422 1.192 3.422 3.192 3 6l-.5 4c-6.184 4.507-13.018 5.34-20.5 2.5-1.711-1.133-2.211-2.633-1.5-4.5 3.794-3.286 7.627-3.62 11.5-1a32.042 32.042 0 0 0-4 2.5 12.5 12.5 0 0 0 7 0c.88-1.356 1.214-2.856 1-4.5 1.643-.02 2.976.647 4 2 1.075-2.311 1.075-4.644 0-7Z" style="opacity:1"/><path fill="#e5b84b" d="M229.5 71.5c1.115 1.807 1.781 3.807 2 6l-1 3c-7.395 1.565-7.395 4.065 0 7.5-3.574 3.285-5.241 7.118-5 11.5-2.929 2.42-3.262 5.086-1 8a3.647 3.647 0 0 1-1 1.5l6 4c-1.535.496-3.035.33-4.5-.5a19.953 19.953 0 0 0-4.5 3c-1.032-2.693-2.698-3.36-5-2a144.255 144.255 0 0 0-2 7.5c-1.735.651-3.402.485-5-.5-1.082-7.322-3.415-7.655-7-1-.184-2.673-1.351-3.34-3.5-2-.424-3.69-1.258-3.857-2.5-.5 1.973 3.758.973 5.925-3 6.5.214-1.644-.12-3.144-1-4.5l2-2a20.64 20.64 0 0 0-6-2c1.321-1.545.988-2.711-1-3.5-.929 1.189-1.262 2.522-1 4h-3c.061-3.23 1.728-5.063 5-5.5 1.667-.667 3.333-.667 5 0 3.387 3.313 6.721 3.146 10-.5-2.862-4.922-4.529-10.256-5-16-3.648-3.405-3.981-7.239-1-11.5a6.544 6.544 0 0 1-3-3c1.049-.492 2.049-.326 3 .5l4-2a46.428 46.428 0 0 1 3.5 7l1 1c1.908-2.832 2.741-2.499 2.5 1 2.477.45 4.477-.218 6-2-2.35-1.274-2.183-2.607.5-4a31.285 31.285 0 0 1 3.5-9c-.833-2.381-.5-4.714 1-7 1.77 1.32 2.103 2.82 1 4.5 1.372.402 2.705.902 4 1.5 1.196-.346 1.196-.846 0-1.5a4.932 4.932 0 0 1 3-.5v3h3Z" style="opacity:1"/><path fill="#aa873b" d="M80.5 54.5c.696 4.145 2.03 7.978 4 11.5-.98 8.83-1.48 17.663-1.5 26.5 2.503 6.05 6.003 11.384 10.5 16-3.385.475-5.718-.858-7-4a6.845 6.845 0 0 0-4-1c.584-3.483-.25-6.483-2.5-9a59.247 59.247 0 0 0-1.5-7.5c.898-2.1.898-4.266 0-6.5a74.76 74.76 0 0 0 3-11.5 225.092 225.092 0 0 0-2-12c.028-1.07.361-1.903 1-2.5Z" style="opacity:1"/><path fill="#5b351a" d="M174.5 55.5h1a19.62 19.62 0 0 0 3.5 2v16a82.343 82.343 0 0 0 7.5 4c-1.846 3.38-2.846 7.047-3 11-1.617-1.09-2.45-2.756-2.5-5l-1 1a4.934 4.934 0 0 1-.5-3c.268-1.599-.066-2.932-1-4-2.021-1.532-3.521-3.532-4.5-6l1-12c-.816-1.323-1.983-1.99-3.5-2-1.889-1.242-3.889-1.242-6 0 2.488-1.888 5.488-2.554 9-2Z" style="opacity:1"/><path fill="#ad5d5c" d="M124.5 77.5c-5.277-.46-9.944.874-14 4a25.633 25.633 0 0 0-7 5c-.916-.043-1.583-.376-2-1 5.004-5.252 11.171-8.252 18.5-9 1.707.008 3.207.342 4.5 1Z" style="opacity:1"/><path fill="#afa288" d="m107.5.5 8 2c-8.405.065-16.739.898-25 2.5-5.91 1.074-11.577 2.574-17 4.5a66.869 66.869 0 0 0-21 8c-12.21 4.269-22.544 11.269-31 21C5.382 52.585-.118 70.251 5 91.5c7.948 17.617 20.448 31.284 37.5 41 0 .667-.333 1-1 1-19.144-8.978-32.644-23.312-40.5-43a196.25 196.25 0 0 1 0-28C8.563 43.602 21.396 29.435 39.5 20 60.799 8.84 83.465 2.34 107.5.5Z" style="opacity:.116"/><path fill="#5c231d" d="M146.5 64.5c.891.61 1.891.943 3 1 .342.838 1.008 1.172 2 1 3.994 4.644 3.994 9.31 0 14 .124.607.457.94 1 1v2a53.508 53.508 0 0 0-4.5-1c-6.177 2.627-12.343 2.627-18.5 0-2.049-1.382-3.715-3.048-5-5-1.293-.658-2.793-.992-4.5-1-7.329.748-13.496 3.748-18.5 9-.597-.235-.93-.735-1-1.5a11.804 11.804 0 0 1 2-3.5c7.248-4.647 15.248-6.814 24-6.5 5.315-3.871 10.982-4.371 17-1.5.214 1.644-.12 3.144-1 4.5a12.5 12.5 0 0 1-7 0 32.042 32.042 0 0 1 4-2.5c-3.873-2.62-7.706-2.286-11.5 1-.711 1.867-.211 3.367 1.5 4.5 7.482 2.84 14.316 2.007 20.5-2.5l.5-4c.422-2.808-.578-4.808-3-6h-1l-1-2c.667 0 1-.333 1-1Z" style="opacity:1"/><path fill="#eabc4c" d="M58.5 86.5a119.24 119.24 0 0 1 3 17c-1.328 9.684-.995 19.35 1 29v6a12.93 12.93 0 0 1-5-.5c-4.91-1.506-6.244-4.673-4-9.5-1.412-1.697-1.745-3.364-1-5 1.052-10.038 1.052-20.538 0-31.5.68-3.241 2.014-6.075 4-8.5a44.293 44.293 0 0 0 2 3Z" style="opacity:1"/><path fill="#c49d40" d="M81.5 36.5c-3.058 4.933-2.39 9.266 2 13a32.147 32.147 0 0 1-3 5c-.639.597-.972 1.43-1 2.5a225.092 225.092 0 0 1 2 12 74.76 74.76 0 0 1-3 11.5c.898 2.234.898 4.4 0 6.5a59.247 59.247 0 0 1 1.5 7.5c2.25 2.517 3.084 5.517 2.5 9a6.845 6.845 0 0 1 4 1c1.282 3.142 3.615 4.475 7 4l1 2c.25 1.422 1.083 2.422 2.5 3 .68 4.529.513 9.029-.5 13.5.508 1.893 1.508 3.393 3 4.5-3.362.43-6.195-.57-8.5-3 .025-10.002-3.808-18.002-11.5-24a68.95 68.95 0 0 1-7-18.5c1.828-5.785 3.495-11.952 5-18.5a61.254 61.254 0 0 0-1-15c.846-5.3 1.512-10.633 2-16h3Z" style="opacity:1"/><path fill="#ebbd4e" d="M21.5 38.5h3a764.216 764.216 0 0 0 5 78h3v-4c2.966 2.942 4.8 2.275 5.5-2 .374.916.874 1.75 1.5 2.5a27.327 27.327 0 0 0-3 6.5 4.932 4.932 0 0 1-.5 3c-1.277.572-2.777.572-4.5 0a134.338 134.338 0 0 1-5.5-11 285.897 285.897 0 0 1-2-29c-.653-2.064-1.82-3.731-3.5-5l2-2a5.576 5.576 0 0 1-1-3c-.85-3.7-.85-7.368 0-11-.132-2.101-1.132-3.601-3-4.5a4.932 4.932 0 0 1 3-.5 13.117 13.117 0 0 0-1-7 6.541 6.541 0 0 1-3-3c2.384-2.1 3.717-4.767 4-8Z" style="opacity:1"/><path fill="#a53a35" d="M95.5 73.5a58.315 58.315 0 0 0-5 15.5 63.846 63.846 0 0 1 3 8.5l3-3a3.646 3.646 0 0 0-1-1.5 31.158 31.158 0 0 1 6-4.5 13.047 13.047 0 0 1-3-4c.045-2.69 1.379-4.023 4-4a11.804 11.804 0 0 0-2 3.5c.07.765.403 1.265 1 1.5.417.624 1.084.957 2 1a25.633 25.633 0 0 1 7-5c-.641.982-1.307 1.982-2 3a22.241 22.241 0 0 0 6 2.5l-2 1 2 4c4.443 1.94 9.11 2.94 14 3 2.79 2.21 3.623 5.044 2.5 8.5a13.24 13.24 0 0 0-5 3c-.749 1.135-.583 2.135.5 3a23.832 23.832 0 0 0 9 1c-4.805.987-9.805 1.321-15 1h-5c-.763-.768-1.763-1.268-3-1.5 2.619-.151 4.953-.985 7-2.5l-2-2a47.399 47.399 0 0 0 11.5-3c.877-2.174.377-3.84-1.5-5-2.623-1.766-5.623-2.432-9-2a6.846 6.846 0 0 0-4 1c-2.725-1.929-5.725-2.429-9-1.5a7.253 7.253 0 0 0-2 2.5c2.116 2.1 3.783 4.433 5 7 .097 3.411-1.57 4.745-5 4a9.108 9.108 0 0 1-5-1 3504.888 3504.888 0 0 1-11-12c-.495-5.403.338-10.737 2.5-16 1.382-2.543 3.215-4.543 5.5-6Z" style="opacity:1"/><path fill="#95423f" d="M129.5 82.5c6.157 2.627 12.323 2.627 18.5 0 1.533.273 3.033.606 4.5 1a140.91 140.91 0 0 1-11 6c.453-.958 1.119-1.792 2-2.5l-8-1c-2.525-.424-4.525-1.59-6-3.5Z" style="opacity:1"/><path fill="#a73735" d="M178.5 77.5c.934 1.068 1.268 2.401 1 4-1.574 1.602-2.241 3.602-2 6a12.935 12.935 0 0 0-5 .5c8.092 1.323 10.092 5.49 6 12.5a47.487 47.487 0 0 0-10.5 4 106.491 106.491 0 0 1-8.5-5c-.124-2.082-1.124-3.582-3-4.5a16.25 16.25 0 0 0-8 0c-.556.383-.889.883-1 1.5a13.216 13.216 0 0 1-5 2c.244-2.763 1.577-4.93 4-6.5l16-4 2.5-2.5c.575-4.474.075-8.807-1.5-13h8v4c2.361.174 4.694.507 7 1Z" style="opacity:1"/><path fill="#deb249" d="M169.5 6.5c5.673.49 11.006 1.824 16 4h-3a273.374 273.374 0 0 0 2 43c2.586 2.18 4.419 4.846 5.5 8a4.458 4.458 0 0 1 1.5-2 13.115 13.115 0 0 1 1 7c-4.166.108-4.833 1.441-2 4-.108 1.723.392 3.39 1.5 5 2.064-1.091 4.231-1.258 6.5-.5 1.256.417 1.923 1.25 2 2.5l-4 2c-.951-.826-1.951-.992-3-.5a6.544 6.544 0 0 0 3 3c-2.981 4.261-2.648 8.095 1 11.5.471 5.744 2.138 11.078 5 16-3.279 3.646-6.613 3.813-10 .5-1.667-.667-3.333-.667-5 0-3.272.437-4.939 2.27-5 5.5.126 1.7.793 3.2 2 4.5-.444 1.762-.944 1.595-1.5-.5a112.97 112.97 0 0 0-.5 15h3c.285 1.788-.048 3.455-1 5a3.647 3.647 0 0 1-1.5-1 12.93 12.93 0 0 0-.5 5c-1.447-10.531-1.78-21.198-1-32 .904-.709 1.237-1.709 1-3 2.027-1.68 4.361-2.847 7-3.5a9.454 9.454 0 0 0 1.5-2.5c.667-5 .667-10 0-15-2.023-1.513-1.856-2.846.5-4-1.801-3.035-2.468-6.369-2-10a4.932 4.932 0 0 1-3-.5c-2.385-3.08-2.385-6.247 0-9.5-1.282-4.885-3.282-9.218-6-13a272.393 272.393 0 0 1 0-41 52.072 52.072 0 0 1-10-1.5c-.556-.383-.889-.883-1-1.5Z" style="opacity:1"/><path fill="#e9b94a" d="M247.5 97.5c-1.166 3.062-2.666 6.062-4.5 9-2.809 1.264-4.976 3.264-6.5 6-1.406-1.168-2.572-.835-3.5 1a46.052 46.052 0 0 0-1.5-8c1.303-4.167 1.303-8.334 0-12.5l2-1c-.392-2.354-.392-4.854 0-7.5 3.297.171 3.631-.495 1-2 .13-2.138.13-4.138 0-6 3.111.68 5.278-.654 6.5-4a68.054 68.054 0 0 0 2 4c3.929-1.478 5.429-.312 4.5 3.5.111 1.722.611 1.888 1.5.5.299 5.525-.201 11.191-1.5 17Z" style="opacity:1"/><path fill="#e1b64c" d="M52.5 17.5c-1.56 2.124-3.56 3.791-6 5-3.466.609-4.466 2.442-3 5.5-2.027 1.396-2.36 3.062-1 5a31.271 31.271 0 0 1-8-.5c-2.426-.096-4.593.57-6.5 2-.098 8.542-.265 17.042-.5 25.5A189.81 189.81 0 0 1 29 77.5c1.039.744 1.539 1.744 1.5 3v13c.157 6.523.824 12.856 2 19v4h-3a764.216 764.216 0 0 1-5-78h-3c8.456-9.731 18.79-16.731 31-21Z" style="opacity:1"/><path fill="#e3b648" d="M69.5 74.5a14.826 14.826 0 0 1-2 6.5l2.5 2.5c-.898 6.177.269 12.01 3.5 17.5l-1 1a4087.44 4087.44 0 0 1 12 11l-2 2c2.667 1.667 2.667 3.333 0 5l1 1c-1.547.333-2.88-.167-4-1.5-.683.363-1.35.696-2 1-2.967 1.973-6.3 3.139-10 3.5 1.905.826 2.239 1.993 1 3.5a3.647 3.647 0 0 1-1.5-1c-.575 2.786-2.075 4.786-4.5 6-1.995-9.65-2.328-19.316-1-29a119.24 119.24 0 0 0-3-17 2.428 2.428 0 0 0 2-.5 136.802 136.802 0 0 1 0-15.5 8.434 8.434 0 0 1 .5-4 56.719 56.719 0 0 1 3 12c1.24-1.438 1.74-2.938 1.5-4.5 1.32-.195 2.653-.028 4 .5Z" style="opacity:1"/><path fill="#deb349" d="M247.5 97.5h2c-.286 3.437-1.619 6.437-4 9-10.476 13.809-23.809 23.809-40 30-.086-.996.248-1.829 1-2.5a22.394 22.394 0 0 1 8-2.5 15.418 15.418 0 0 0-1-7c2.985-3.257 3.652-6.924 2-11 2.302-1.36 3.968-.693 5 2a19.953 19.953 0 0 1 4.5-3c1.465.83 2.965.996 4.5.5l-6-4a3.647 3.647 0 0 0 1-1.5c-2.262-2.914-1.929-5.58 1-8h5c.359 2.266-.308 4.099-2 5.5a4.934 4.934 0 0 0 3 .5 46.052 46.052 0 0 1 1.5 8c.928-1.835 2.094-2.168 3.5-1 1.524-2.736 3.691-4.736 6.5-6 1.834-2.938 3.334-5.938 4.5-9Z" style="opacity:1"/><path fill="#e5b84a" d="M59.5 70.5h1a136.802 136.802 0 0 0 0 15.5 2.428 2.428 0 0 1-2 .5 44.293 44.293 0 0 1-2-3c-1.986 2.425-3.32 5.259-4 8.5 1.052 10.962 1.052 21.462 0 31.5-3.785.63-7.451.963-11 1-1.403-2.07-3.07-3.737-5-5a27.327 27.327 0 0 1 3-6.5 9.465 9.465 0 0 1-1.5-2.5c-.7 4.275-2.534 4.942-5.5 2-1.176-6.144-1.843-12.477-2-19a246.13 246.13 0 0 1 2 7c1.631-1.797 3.631-2.964 6-3.5l-5-1a3.943 3.943 0 0 1-1-2 375.687 375.687 0 0 0 4-11.5c.17 2.05 1.17 4.05 3 6a31.763 31.763 0 0 0 2.5-9c1.825-1.07 2.992-.404 3.5 2a244.646 244.646 0 0 1-2 8.5l2 2a17.96 17.96 0 0 1-3 7c2.178.442 2.845 1.442 2 3a4.934 4.934 0 0 0 3 .5c.454-8.938.454-17.771 0-26.5a7.291 7.291 0 0 1 3-2c-5.198-1.874-4.865-3.207 1-4a4.452 4.452 0 0 1-2-1.5c1.223-1.114 2.556-1.28 4-.5.924.85.924 1.85 0 3a582.15 582.15 0 0 1 3 2c-1.976 2.736-1.81 5.57.5 8.5 2.075-3.334 2.909-7.001 2.5-11Z" style="opacity:1"/><path fill="#632921" d="M118.5 95.5c3.377-.432 6.377.234 9 2 .363 2.412-.637 3.911-3 4.5a89.468 89.468 0 0 0-12 1.5c-1.094 1.368-.76 2.535 1 3.5-4.324.045-4.99-1.621-2-5a10.413 10.413 0 0 1 5-1.5c2.332.672 4.666.839 7 .5.837-1.011 1.17-2.178 1-3.5-2.51.447-4.51-.22-6-2Z" style="opacity:1"/><path fill="#af3637" d="M124.5 77.5c1.285 1.952 2.951 3.618 5 5 1.475 1.91 3.475 3.076 6 3.5l8 1c-.881.708-1.547 1.542-2 2.5-3.715 1.386-6.048 4.052-7 8 1.993 4.295 2.66 8.628 2 13h-1a23.832 23.832 0 0 1-9-1c-1.083-.865-1.249-1.865-.5-3a13.24 13.24 0 0 1 5-3c1.123-3.456.29-6.29-2.5-8.5-4.89-.06-9.557-1.06-14-3l-2-4 2-1a22.241 22.241 0 0 1-6-2.5 184.223 184.223 0 0 0 2-3c4.056-3.126 8.723-4.46 14-4Z" style="opacity:1"/><path fill="#8a4738" d="M118.5 95.5c1.49 1.78 3.49 2.447 6 2 .17 1.322-.163 2.489-1 3.5-2.334.339-4.668.172-7-.5a10.413 10.413 0 0 0-5 1.5c-2.99 3.379-2.324 5.045 2 5-1.76-.965-2.094-2.132-1-3.5a89.468 89.468 0 0 1 12-1.5c2.363-.589 3.363-2.088 3-4.5 1.877 1.16 2.377 2.826 1.5 5a47.399 47.399 0 0 1-11.5 3l2 2c-2.047 1.515-4.381 2.349-7 2.5 1.237.232 2.237.732 3 1.5-4.341-.158-8.341-1.158-12-3 3.43.745 5.097-.589 5-4-1.217-2.567-2.884-4.9-5-7a7.253 7.253 0 0 1 2-2.5c3.275-.929 6.275-.429 9 1.5a6.846 6.846 0 0 1 4-1Z" style="opacity:1"/><path fill="#672222" d="M130.5 121.5c1.019 2.04 1.019 4.04 0 6a14.339 14.339 0 0 1-3-6c-1.219-3.88-3.885-5.88-8-6l-2-2c1.679.215 2.679-.452 3-2 5.195.321 10.195-.013 15-1h1a18.163 18.163 0 0 1 8-.5c-7.365 2.886-15.032 4.22-23 4 4.408.916 7.408 3.416 9 7.5Z" style="opacity:1"/><path fill="#421a11" d="M179.5 81.5a4.934 4.934 0 0 0 .5 3l1-1c.05 2.244.883 3.91 2.5 5 1.766 5.345 1.099 10.345-2 15-7.241 5.405-15.241 9.238-24 11.5-4.158 4.756-3.824 9.256 1 13.5a71.254 71.254 0 0 0-4 2h-4c-6.322.514-12.655.847-19 1l-4-2c2.559.302 4.893-.032 7-1a38.669 38.669 0 0 0 15-2c-.696-7.752 2.637-13.252 10-16.5 4.653-1.323 9.319-2.656 14-4a38.47 38.47 0 0 0 5-5.5c4.092-7.01 2.092-11.177-6-12.5a12.935 12.935 0 0 1 5-.5c-.241-2.398.426-4.398 2-6Z" style="opacity:1"/><path fill="#e6b94a" d="M201.5 119.5c-2.985 2.017-5.318 4.684-7 8-1.154-2.356-2.487-2.523-4-.5 2.401 1.577 4.734 2.411 7 2.5a7.293 7.293 0 0 0-2 3 19.048 19.048 0 0 1 1 6c-4.403 2.159-9.069 3.826-14 5a12.93 12.93 0 0 1 .5-5c.414.457.914.791 1.5 1 .952-1.545 1.285-3.212 1-5h-3a112.97 112.97 0 0 1 .5-15c.556 2.095 1.056 2.262 1.5.5-1.207-1.3-1.874-2.8-2-4.5h3c-.262-1.478.071-2.811 1-4 1.988.789 2.321 1.955 1 3.5a20.64 20.64 0 0 1 6 2l-2 2c.88 1.356 1.214 2.856 1 4.5 3.973-.575 4.973-2.742 3-6.5 1.242-3.357 2.076-3.19 2.5.5 2.149-1.34 3.316-.673 3.5 2Z" style="opacity:.999"/><path fill="#4a2117" d="M96.5 28.5c.706 4.727.706 9.393 0 14h5v4c-2.185-.204-4.185-.87-6-2v-5c-5.112-.59-8.778 1.41-11 6 2.647 2.942 2.647 5.942 0 9a30.883 30.883 0 0 1 4 10 37.362 37.362 0 0 0-3 9c1.842.213 3.508.213 5 0-5.196 6.857-6.196 14.19-3 22 3.559 3.901 7.226 7.901 11 12a9.108 9.108 0 0 0 5 1c3.659 1.842 7.659 2.842 12 3h5c-.321 1.548-1.321 2.215-3 2a194.889 194.889 0 0 1-13-2 86.578 86.578 0 0 0-1.5 13c-1.993 1.906-1.493 3.073 1.5 3.5 7.68.403 15.347.903 23 1.5l4 2a199.68 199.68 0 0 1-31-1.5 205.887 205.887 0 0 1 0-17.5c-2.203-.104-4.203-.77-6-2l-1-2c-4.497-4.616-7.997-9.95-10.5-16 .02-8.837.52-17.67 1.5-26.5-1.97-3.522-3.304-7.355-4-11.5a32.147 32.147 0 0 0 3-5c-4.39-3.734-5.058-8.067-2-13l4-1h10c-.302-2.56.032-4.893 1-7Z" style="opacity:1"/><path fill="#a33a37" d="M141.5 89.5c-4.343 3.568-5.01 7.735-2 12.5 7.281 2.722 13.947 1.889 20-2.5a106.491 106.491 0 0 0 8.5 5 47.487 47.487 0 0 1 10.5-4 38.47 38.47 0 0 1-5 5.5 5653.405 5653.405 0 0 1-14 4c-7.363 3.248-10.696 8.748-10 16.5a38.669 38.669 0 0 1-15 2l-4-7c-1.592-4.084-4.592-6.584-9-7.5 7.968.22 15.635-1.114 23-4a18.163 18.163 0 0 0-8 .5c.66-4.372-.007-8.705-2-13 .952-3.948 3.285-6.614 7-8Z" style="opacity:1"/><path fill="#b03437" d="M153.5 106.5c5.753.362 6.086 1.362 1 3-.961 2.795-2.794 4.795-5.5 6-1.003 4.457-3.837 6.124-8.5 5a6.846 6.846 0 0 0 1 4c-.387 1.22-1.22 1.887-2.5 2-2.489-1.663-3.989-3.997-4.5-7-.825-.886-1.825-1.219-3-1v-3a39.194 39.194 0 0 0 16-5l-1-2a246.697 246.697 0 0 0 7-2Z" style="opacity:1"/><path fill="#9d7b37" d="M186.5 77.5c-.18 5.53.487 11.197 2 17a18.359 18.359 0 0 1-2 7c-2.431.86-3.764 2.527-4 5a109.463 109.463 0 0 0-20 9.5c-1.537 1.11-2.203 2.61-2 4.5h-3a557.717 557.717 0 0 0 3 7.5 3.943 3.943 0 0 1-1 2 12.93 12.93 0 0 1-5 .5 71.254 71.254 0 0 1 4-2c-4.824-4.244-5.158-8.744-1-13.5 8.759-2.262 16.759-6.095 24-11.5 3.099-4.655 3.766-9.655 2-15 .154-3.953 1.154-7.62 3-11Z" style="opacity:1"/><path fill="#e4b84b" d="M77.5 120.5c.913 1.586.913 3.086 0 4.5a131.968 131.968 0 0 0 7 5.5 3.647 3.647 0 0 0 1.5-1c.684 1.284.517 2.451-.5 3.5a10.256 10.256 0 0 0 4 1.5c3.632-.85 7.3-.85 11 0 .667 0 1 .333 1 1 .086 4.357.42 8.69 1 13a862.973 862.973 0 0 1-33-5l-2-1c-.63-2.497-2.296-3.83-5-4v-6c2.425-1.214 3.925-3.214 4.5-6 .414.457.914.791 1.5 1 1.239-1.507.905-2.674-1-3.5 3.7-.361 7.033-1.527 10-3.5Z" style="opacity:1"/><path fill="#9d3332" d="M119.5 115.5c4.115.12 6.781 2.12 8 6v5c-1.89.203-3.39-.463-4.5-2 .379-1.575.212-3.075-.5-4.5a40.845 40.845 0 0 0-9-1l4.5 4.5c.749 1.135.583 2.135-.5 3-3.608 1.093-7.275 1.26-11 .5a3.943 3.943 0 0 1-1-2 33.74 33.74 0 0 0 2-10.5c4.019.146 8.019.479 12 1Z" style="opacity:1"/><path fill="#853832" d="m117.5 113.5 2 2a128.323 128.323 0 0 0-12-1 33.74 33.74 0 0 1-2 10.5 3.943 3.943 0 0 0 1 2c3.725.76 7.392.593 11-.5 1.083-.865 1.249-1.865.5-3l-4.5-4.5a40.845 40.845 0 0 1 9 1c.712 1.425.879 2.925.5 4.5 1.11 1.537 2.61 2.203 4.5 2v-5a14.339 14.339 0 0 0 3 6c1.019-1.96 1.019-3.96 0-6l4 7c-2.107.968-4.441 1.302-7 1a906.548 906.548 0 0 0-23-1.5c-2.993-.427-3.493-1.594-1.5-3.5a86.578 86.578 0 0 1 1.5-13c4.306.812 8.639 1.479 13 2Z" style="opacity:1"/><path fill="#e4b548" d="M215.5 113.5c1.652 4.076.985 7.743-2 11a15.418 15.418 0 0 1 1 7 22.394 22.394 0 0 0-8 2.5c-.752.671-1.086 1.504-1 2.5-1.014 1.174-2.347 1.84-4 2h-5a19.048 19.048 0 0 0-1-6 7.293 7.293 0 0 1 2-3c-2.266-.089-4.599-.923-7-2.5 1.513-2.023 2.846-1.856 4 .5 1.682-3.316 4.015-5.983 7-8 3.585-6.655 5.918-6.322 7 1 1.598.985 3.265 1.151 5 .5.623-2.607 1.29-5.107 2-7.5Z" style="opacity:1"/><path fill="#e4b94f" d="M179.5 146.5c-5.374 2.092-11.04 3.425-17 4a414.97 414.97 0 0 1-50 0c8.3-.871 16.633-1.205 25-1-.262-1.478.071-2.811 1-4 1.483 2.446 2.649 2.112 3.5-1 2.822 5.104 4.322 4.437 4.5-2a4.934 4.934 0 0 0 3-.5c-4.462-4.763-8.295-4.263-11.5 1.5-.197-2.361-1.364-4.028-3.5-5-5.328.131-10.661.131-16 0 3.49-.387 7.323-.721 11.5-1 3.116-.22 5.95.447 8.5 2 5.416-3.11 10.25-2.444 14.5 2a26.67 26.67 0 0 1 6.5-1.5c3.233-3.44 6.9-5.44 11-6-2.633-2.913-1.967-4.746 2-5.5a4.934 4.934 0 0 0 .5 3c1.677-2.025 2.677-4.359 3-7l1 1a296.944 296.944 0 0 1 2.5 21Z" style="opacity:.999"/><path fill="#906f35" d="M94.5 110.5c1.797 1.23 3.797 1.896 6 2a205.887 205.887 0 0 0 0 17.5 199.68 199.68 0 0 0 31 1.5 333.668 333.668 0 0 0 19-1c-1.109.79-2.442 1.29-4 1.5a380.187 380.187 0 0 1-47-.5c-1.492-1.107-2.492-2.607-3-4.5a36.248 36.248 0 0 0 .5-13.5c-1.417-.578-2.25-1.578-2.5-3Z" style="opacity:1"/><path fill="#c7a142" d="M182.5 106.5v2c.237 1.291-.096 2.291-1 3-3.109 1.521-6.442 2.354-10 2.5l-2.5 2.5a65.597 65.597 0 0 1-4.5 14c-2.458.624-4.124 2.124-5 4.5l-6 1.5c-5.174-1.307-10.341-1.307-15.5 0a255.999 255.999 0 0 1-29-3c-2.667-.333-4.667.667-6 3-.383-.556-.883-.889-1.5-1 0-.667-.333-1-1-1a5.727 5.727 0 0 0-1-3 380.187 380.187 0 0 0 47 .5c1.558-.21 2.891-.71 4-1.5h4a12.93 12.93 0 0 0 5-.5 3.943 3.943 0 0 0 1-2 557.717 557.717 0 0 1-3-7.5h3c-.203-1.89.463-3.39 2-4.5 6.327-3.834 12.993-7 20-9.5Z" style="opacity:1"/><path fill="#dbb24a" d="M181.5 111.5c-.78 10.802-.447 21.469 1 32 4.931-1.174 9.597-2.841 14-5h5c-6.898 3.635-14.232 6.302-22 8a296.944 296.944 0 0 0-2.5-21l-1-1c-.323 2.641-1.323 4.975-3 7a4.934 4.934 0 0 1-.5-3c-3.967.754-4.633 2.587-2 5.5-4.1.56-7.767 2.56-11 6a26.67 26.67 0 0 0-6.5 1.5c-4.25-4.444-9.084-5.11-14.5-2-2.55-1.553-5.384-2.22-8.5-2-4.177.279-8.01.613-11.5 1a126.62 126.62 0 0 1-12-.5c-.96 3.73-1.293 7.563-1 11.5h-9c-9.332-1.049-18.332-3.049-27-6a862.973 862.973 0 0 0 33 5c-.58-4.31-.914-8.643-1-13 .617.111 1.117.444 1.5 1 1.333-2.333 3.333-3.333 6-3a255.999 255.999 0 0 0 29 3c5.159-1.307 10.326-1.307 15.5 0l6-1.5c.876-2.376 2.542-3.876 5-4.5a65.597 65.597 0 0 0 4.5-14l2.5-2.5c3.558-.146 6.891-.979 10-2.5Z" style="opacity:1"/><path fill="#ecc050" d="M118.5 138.5c5.339.131 10.672.131 16 0 2.136.972 3.303 2.639 3.5 5 3.205-5.763 7.038-6.263 11.5-1.5a4.934 4.934 0 0 1-3 .5c-.178 6.437-1.678 7.104-4.5 2-.851 3.112-2.017 3.446-3.5 1-.929 1.189-1.262 2.522-1 4-8.367-.205-16.7.129-25 1-2.559.302-4.893-.032-7-1-.293-3.937.04-7.77 1-11.5 3.913.353 7.913.52 12 .5Z" style="opacity:1"/><path fill="#bea97e" d="M42.5 132.5a95.519 95.519 0 0 0 25 10l2 1c8.668 2.951 17.668 4.951 27 6 2.659.417 4.992 1.417 7 3-22.034-2.348-42.7-8.681-62-19 .667 0 1-.333 1-1Z" style="opacity:.047"/><path fill="#ceae65" d="M96.5 149.5h9c2.107.968 4.441 1.302 7 1a414.97 414.97 0 0 0 50 0 3803.85 3803.85 0 0 0-16 3h-39c-1.068-.934-2.401-1.268-4-1-2.008-1.583-4.341-2.583-7-3Z" style="opacity:.333"/></svg>