<?xml version="1.0" encoding="UTF-8"?>
<!DOCTYPE svg PUBLIC "-//W3C//DTD SVG 1.1//EN" "http://www.w3.org/Graphics/SVG/1.1/DTD/svg11.dtd">
<svg xmlns="http://www.w3.org/2000/svg" version="1.1" width="256px" height="154px" style="shape-rendering:geometricPrecision; text-rendering:geometricPrecision; image-rendering:optimizeQuality; fill-rule:evenodd; clip-rule:evenodd" xmlns:xlink="http://www.w3.org/1999/xlink">
<g><path style="opacity:0.222" fill="#948267" d="M 107.5,-0.5 C 120.5,-0.5 133.5,-0.5 146.5,-0.5C 146.5,-0.166667 146.5,0.166667 146.5,0.5C 142.167,1.16667 137.833,1.83333 133.5,2.5C 127.5,2.5 121.5,2.5 115.5,2.5C 112.833,1.83333 110.167,1.16667 107.5,0.5C 107.5,0.166667 107.5,-0.166667 107.5,-0.5 Z"/></g>
<g><path style="opacity:0.068" fill="#c0aa81" d="M 146.5,0.5 C 170.496,2.0761 192.829,8.74276 213.5,20.5C 204.897,17.1864 196.23,14.1864 187.5,11.5C 187.158,10.6618 186.492,10.3284 185.5,10.5C 180.506,8.32428 175.173,6.99095 169.5,6.5C 163.366,5.04601 157.032,4.04601 150.5,3.5C 145.025,2.51114 139.358,2.1778 133.5,2.5C 137.833,1.83333 142.167,1.16667 146.5,0.5 Z"/></g>
<g><path style="opacity:0.999" fill="#ecc050" d="M 145.5,3.5 C 149.156,3.6603 150.989,5.6603 151,9.5C 151.219,8.06199 151.719,6.72865 152.5,5.5C 157.077,8.57831 157.743,12.4116 154.5,17C 150.789,17.8253 147.122,17.6586 143.5,16.5C 142.327,13.7211 140.493,13.0545 138,14.5C 131.572,10.9798 125.406,11.1464 119.5,15C 117.32,15.4188 115.154,15.2521 113,14.5C 111.029,14.4683 109.529,15.3016 108.5,17C 106.527,17.4955 104.527,17.6621 102.5,17.5C 101.564,13.2648 101.231,8.93147 101.5,4.5C 116.131,3.54969 130.798,3.21636 145.5,3.5 Z"/></g>
<g><path style="opacity:1" fill="#e8bc4f" d="M 145.5,3.5 C 147.167,3.5 148.833,3.5 150.5,3.5C 157.032,4.04601 163.366,5.04601 169.5,6.5C 169.611,7.11742 169.944,7.61742 170.5,8C 173.793,8.82564 177.126,9.32564 180.5,9.5C 179.47,23.1424 179.47,36.809 180.5,50.5C 177.185,50.2591 174.185,49.2591 171.5,47.5C 170.719,40.7858 169.552,34.1191 168,27.5C 166.398,25.6927 165.064,23.6927 164,21.5C 161.45,22.1185 158.783,22.1185 156,21.5C 146.353,19.0369 136.686,16.7035 127,14.5C 125.053,15.1097 123.219,15.9431 121.5,17C 115.868,17.093 110.368,17.9264 105,19.5C 103.699,19.3613 102.866,18.6946 102.5,17.5C 104.527,17.6621 106.527,17.4955 108.5,17C 109.529,15.3016 111.029,14.4683 113,14.5C 115.154,15.2521 117.32,15.4188 119.5,15C 125.406,11.1464 131.572,10.9798 138,14.5C 140.493,13.0545 142.327,13.7211 143.5,16.5C 147.122,17.6586 150.789,17.8253 154.5,17C 157.743,12.4116 157.077,8.57831 152.5,5.5C 151.719,6.72865 151.219,8.06199 151,9.5C 150.989,5.6603 149.156,3.6603 145.5,3.5 Z"/></g>
<g><path style="opacity:1" fill="#e8bc4e" d="M 98.5,19.5 C 93.9847,21.7959 88.9847,24.1292 83.5,26.5C 82.6383,31.344 79.6383,33.6773 74.5,33.5C 74.5654,33.0618 74.3988,32.7284 74,32.5C 69.0495,36.1259 67.2162,40.9592 68.5,47C 68.2148,48.8895 67.2148,50.2229 65.5,51C 67.9563,53.159 67.2896,53.9923 63.5,53.5C 62.4425,46.8768 61.7758,40.2101 61.5,33.5C 61.3398,31.8008 61.5065,30.1341 62,28.5C 62.6614,30.9156 64.1614,32.5823 66.5,33.5C 69.0278,32.5022 69.0278,31.6689 66.5,31C 68.4884,30.8195 70.4884,30.9862 72.5,31.5C 72.9675,28.6205 72.1341,26.2871 70,24.5C 68.416,24.9884 67.2494,25.9884 66.5,27.5C 62.2602,25.437 60.0936,26.7703 60,31.5C 59.5007,26.5111 59.3341,21.5111 59.5,16.5C 57.1944,16.9926 54.861,17.3259 52.5,17.5C 59.0302,13.6557 66.0302,10.9891 73.5,9.5C 81.907,8.53734 90.2403,7.204 98.5,5.5C 98.5,10.1667 98.5,14.8333 98.5,19.5 Z"/></g>
<g><path style="opacity:1" fill="#ebbe4f" d="M 185.5,10.5 C 186.492,10.3284 187.158,10.6618 187.5,11.5C 188.6,12.5585 189.934,13.3918 191.5,14C 192.071,15.2051 192.738,16.3717 193.5,17.5C 194.446,17.0133 195.446,16.6799 196.5,16.5C 200.293,17.3629 203.959,18.3629 207.5,19.5C 207.285,21.1788 207.952,22.1788 209.5,22.5C 209.703,24.3904 209.037,25.8904 207.5,27C 210.116,29.044 209.783,30.044 206.5,30C 205.809,28.9326 205.309,27.7659 205,26.5C 204.667,27.1667 204.333,27.8333 204,28.5C 203.259,27.3595 202.425,27.3595 201.5,28.5C 200.859,30.2955 199.859,31.7955 198.5,33C 200.243,34.6352 202.077,34.8019 204,33.5C 205.826,34.0104 205.993,34.8438 204.5,36C 205.5,36.8333 206.5,37.6667 207.5,38.5C 206.397,38.9976 205.397,39.3309 204.5,39.5C 206.162,40.3267 207.495,41.4933 208.5,43C 208.585,47.815 208.252,52.815 207.5,58C 208.362,60.7344 209.195,60.9011 210,58.5C 211.617,59.5358 211.784,60.7025 210.5,62C 211.833,64 213.167,64 214.5,62C 213.829,61.0138 213.829,59.8471 214.5,58.5C 217.582,60.0688 220.415,59.7355 223,57.5C 223.585,59.6614 224.418,61.6614 225.5,63.5C 224.465,66.3582 222.798,66.8582 220.5,65C 220.833,64.6667 221.167,64.3333 221.5,64C 219.319,61.922 217.319,62.0886 215.5,64.5C 216.902,65.8425 216.569,66.6758 214.5,67C 214.888,68.8082 214.888,70.4748 214.5,72C 212.153,72.3336 209.819,72.167 207.5,71.5C 207.799,69.396 207.466,67.396 206.5,65.5C 205.522,65.9767 204.689,66.6433 204,67.5C 203.261,66.4258 202.261,65.7591 201,65.5C 197.49,67.2454 193.99,68.912 190.5,70.5C 187.667,67.9413 188.334,66.608 192.5,66.5C 192.808,64.076 192.474,61.7427 191.5,59.5C 190.808,60.0253 190.308,60.6919 190,61.5C 188.919,58.346 187.086,55.6794 184.5,53.5C 182.704,39.2353 182.037,24.9019 182.5,10.5C 183.5,10.5 184.5,10.5 185.5,10.5 Z"/></g>
<g><path style="opacity:1" fill="#662925" d="M 119.5,21.5 C 120.568,20.5655 121.901,20.2322 123.5,20.5C 126.322,21.5072 129.322,22.3405 132.5,23C 133.333,23.8333 134.167,24.6667 135,25.5C 135.577,29.3654 135.077,33.032 133.5,36.5C 133.606,39.9824 134.606,43.1491 136.5,46C 135.755,48.4783 135.089,50.9783 134.5,53.5C 135.932,56.3273 136.599,59.3273 136.5,62.5C 131.125,62.8282 125.792,62.4948 120.5,61.5C 121.246,60.2638 121.579,58.9305 121.5,57.5C 120.5,57.5 119.5,57.5 118.5,57.5C 118.5,56.1667 118.5,54.8333 118.5,53.5C 119.833,53.5 121.167,53.5 122.5,53.5C 122.838,50.8431 122.171,48.5098 120.5,46.5C 121.193,45.4822 121.859,44.4822 122.5,43.5C 123.167,43.1667 123.833,42.8333 124.5,42.5C 124.855,48.3868 124.855,54.3868 124.5,60.5C 127.768,61.487 131.102,61.8204 134.5,61.5C 134.248,57.2326 133.581,53.0659 132.5,49C 133.574,48.2613 134.241,47.2613 134.5,46C 132.997,42.9914 131.997,39.8247 131.5,36.5C 132.248,33.3547 133.248,30.3547 134.5,27.5C 131.892,27.6056 129.892,28.7723 128.5,31C 125.635,31.1829 122.969,31.6829 120.5,32.5C 117.661,28.8341 117.995,25.3341 121.5,22C 120.906,21.5357 120.239,21.369 119.5,21.5 Z"/></g>
<g><path style="opacity:1" fill="#461915" d="M 123.5,20.5 C 128.319,20.3517 132.985,21.0184 137.5,22.5C 137.5,23.5 137.5,24.5 137.5,25.5C 142.328,24.5013 146.995,24.5013 151.5,25.5C 147.869,25.0323 144.535,25.699 141.5,27.5C 140.06,30.2281 140.726,32.3948 143.5,34C 140.887,35.0712 140.887,35.9045 143.5,36.5C 145.265,41.1598 144.599,45.4932 141.5,49.5C 143.64,51.14 144.64,53.3067 144.5,56C 144.055,58.5902 143.389,61.0902 142.5,63.5C 143.959,63.4326 145.292,63.7659 146.5,64.5C 146.5,65.1667 146.167,65.5 145.5,65.5C 129.07,61.9529 113.07,63.1196 97.5,69C 95.1384,70.5106 92.8051,72.0106 90.5,73.5C 89.0084,73.7126 87.3417,73.7126 85.5,73.5C 86.1275,70.3428 87.1275,67.3428 88.5,64.5C 89.4614,66.2646 89.7947,68.2646 89.5,70.5C 95.2296,68.9289 100.563,66.5956 105.5,63.5C 108.518,63.6646 111.518,63.498 114.5,63C 115.45,60.5679 115.45,58.0679 114.5,55.5C 113.448,53.744 111.781,53.0773 109.5,53.5C 110.217,52.6371 111.717,51.9704 114,51.5C 114.322,49.3111 113.822,47.3111 112.5,45.5C 114.456,47.1751 115.789,46.8418 116.5,44.5C 118.216,44.3713 119.883,44.038 121.5,43.5C 121.833,43.5 122.167,43.5 122.5,43.5C 121.859,44.4822 121.193,45.4822 120.5,46.5C 122.171,48.5098 122.838,50.8431 122.5,53.5C 121.167,53.5 119.833,53.5 118.5,53.5C 118.5,54.8333 118.5,56.1667 118.5,57.5C 119.5,57.5 120.5,57.5 121.5,57.5C 121.579,58.9305 121.246,60.2638 120.5,61.5C 125.792,62.4948 131.125,62.8282 136.5,62.5C 136.599,59.3273 135.932,56.3273 134.5,53.5C 135.089,50.9783 135.755,48.4783 136.5,46C 134.606,43.1491 133.606,39.9824 133.5,36.5C 135.077,33.032 135.577,29.3654 135,25.5C 134.167,24.6667 133.333,23.8333 132.5,23C 129.322,22.3405 126.322,21.5072 123.5,20.5 Z"/></g>
<g><path style="opacity:1" fill="#eec150" d="M 46.5,22.5 C 47.3764,22.3691 48.0431,22.7025 48.5,23.5C 48.7094,28.8873 51.376,31.054 56.5,30C 57.1905,28.9326 57.6905,27.7659 58,26.5C 58.6667,34.5 58.6667,42.5 58,50.5C 57.4177,47.3323 56.4177,46.999 55,49.5C 54.3333,48.8333 53.6667,48.1667 53,47.5C 52.7978,49.2556 52.2978,50.9223 51.5,52.5C 49.997,51.4099 49.6637,50.2433 50.5,49C 48.8333,48 47.1667,47 45.5,46C 45.8333,45.6667 46.1667,45.3333 46.5,45C 44.946,42.7765 43.946,40.2765 43.5,37.5C 42.7261,36.2888 41.8928,36.2888 41,37.5C 40.2025,39.2588 40.3691,40.9255 41.5,42.5C 44.9761,45.0319 44.9761,47.8653 41.5,51C 39.5355,51.624 37.8689,51.124 36.5,49.5C 35.5,49.8333 34.8333,50.5 34.5,51.5C 35.5948,53.6204 37.2615,55.1204 39.5,56C 39.0418,58.3977 37.7085,60.0644 35.5,61C 39.8414,64.0111 40.5081,67.6777 37.5,72C 38.7596,73.8138 38.7596,75.6471 37.5,77.5C 36.5,76.8333 35.5,76.1667 34.5,75.5C 33.6417,80.4438 32.975,85.1104 32.5,89.5C 31.8326,86.3583 31.166,83.3583 30.5,80.5C 30.5386,79.2438 30.0386,78.2438 29,77.5C 28.7688,71.6291 28.2688,65.7957 27.5,60C 27.7352,51.5422 27.9018,43.0422 28,34.5C 29.9074,33.0702 32.0741,32.4035 34.5,32.5C 37.1859,33.0124 39.8525,33.179 42.5,33C 41.1398,31.0624 41.4732,29.3957 43.5,28C 42.0344,24.9423 43.0344,23.109 46.5,22.5 Z"/></g>
<g><path style="opacity:0.349" fill="#b99a59" d="M 220.5,24.5 C 230.409,29.7415 238.409,37.0749 244.5,46.5C 243.417,46.4606 242.417,46.1272 241.5,45.5C 239.785,43.1182 237.785,41.1182 235.5,39.5C 230.86,34.1937 225.86,29.1937 220.5,24.5 Z"/></g>
<g><path style="opacity:1" fill="#431713" d="M 119.5,21.5 C 120.239,21.369 120.906,21.5357 121.5,22C 117.995,25.3341 117.661,28.8341 120.5,32.5C 123.631,34.9432 124.964,38.2766 124.5,42.5C 123.833,42.8333 123.167,43.1667 122.5,43.5C 122.167,43.5 121.833,43.5 121.5,43.5C 121.663,41.1432 121.497,38.8098 121,36.5C 119.644,35.6198 118.144,35.2865 116.5,35.5C 116.5,38.5 116.5,41.5 116.5,44.5C 115.789,46.8418 114.456,47.1751 112.5,45.5C 112.5,44.8333 112.5,44.1667 112.5,43.5C 112.704,40.4824 113.037,37.4824 113.5,34.5C 115.28,30.7383 114.28,27.9049 110.5,26C 107.072,25.2989 103.738,25.6323 100.5,27C 98.0062,29.2436 98.0062,31.5769 100.5,34C 98.2584,35.0074 98.5918,35.8407 101.5,36.5C 102.787,37.8714 103.453,39.7047 103.5,42C 103.637,45.0845 102.97,47.9179 101.5,50.5C 105.466,55.3595 105.133,60.0261 100.5,64.5C 99.914,64.2907 99.414,63.9574 99,63.5C 98.5034,61.1902 98.3367,58.8568 98.5,56.5C 95.7237,56.9111 95.057,56.0777 96.5,54C 95.1034,52.0387 94.1034,49.8721 93.5,47.5C 93.4534,45.9623 94.1201,44.9623 95.5,44.5C 97.3146,45.6298 99.3146,46.2964 101.5,46.5C 101.5,45.1667 101.5,43.8333 101.5,42.5C 99.8333,42.5 98.1667,42.5 96.5,42.5C 97.2064,37.8932 97.2064,33.2266 96.5,28.5C 97.2362,26.7706 98.5695,25.7706 100.5,25.5C 105.148,24.1704 109.814,24.1704 114.5,25.5C 116.761,24.9047 118.428,23.5714 119.5,21.5 Z"/></g>
<g><path style="opacity:1" fill="#9b2e30" d="M 112.5,43.5 C 112.5,44.1667 112.5,44.8333 112.5,45.5C 113.822,47.3111 114.322,49.3111 114,51.5C 111.717,51.9704 110.217,52.6371 109.5,53.5C 108.152,54.1859 106.985,55.1859 106,56.5C 105.578,54.6447 105.078,52.8114 104.5,51C 106.33,46.757 106.996,42.257 106.5,37.5C 107.833,37.5 109.167,37.5 110.5,37.5C 110.025,40.0821 110.692,42.0821 112.5,43.5 Z"/></g>
<g><path style="opacity:1" fill="#a4833b" d="M 132.5,18.5 C 134.631,20.6848 137.297,22.0181 140.5,22.5C 146.913,23.0798 153.247,23.9131 159.5,25C 162.31,29.5485 162.977,34.3818 161.5,39.5C 162.055,44.6013 163.722,49.268 166.5,53.5C 169.306,54.1676 171.972,54.8343 174.5,55.5C 170.988,54.9455 167.988,55.6122 165.5,57.5C 162.148,60.4917 160.481,59.6584 160.5,55C 163.046,51.5347 162.879,48.3681 160,45.5C 159.641,40.1406 159.641,34.8073 160,29.5C 158.309,26.6411 155.809,25.3077 152.5,25.5C 152.167,25.5 151.833,25.5 151.5,25.5C 146.995,24.5013 142.328,24.5013 137.5,25.5C 137.5,24.5 137.5,23.5 137.5,22.5C 132.985,21.0184 128.319,20.3517 123.5,20.5C 121.901,20.2322 120.568,20.5655 119.5,21.5C 113.736,23.1925 107.736,24.0259 101.5,24C 100.944,24.3826 100.611,24.8826 100.5,25.5C 98.5695,25.7706 97.2362,26.7706 96.5,28.5C 95.5318,30.6074 95.1984,32.9407 95.5,35.5C 92.1667,35.5 88.8333,35.5 85.5,35.5C 87.8734,34.1015 90.3734,32.7682 93,31.5C 94.7155,29.0646 95.8821,26.3979 96.5,23.5C 108.555,22.0319 120.555,20.3653 132.5,18.5 Z"/></g>
<g><path style="opacity:1" fill="#d6ae4b" d="M 115.5,2.5 C 121.5,2.5 127.5,2.5 133.5,2.5C 139.358,2.1778 145.025,2.51114 150.5,3.5C 148.833,3.5 147.167,3.5 145.5,3.5C 130.798,3.21636 116.131,3.54969 101.5,4.5C 101.231,8.93147 101.564,13.2648 102.5,17.5C 102.866,18.6946 103.699,19.3613 105,19.5C 110.368,17.9264 115.868,17.093 121.5,17C 123.219,15.9431 125.053,15.1097 127,14.5C 136.686,16.7035 146.353,19.0369 156,21.5C 158.783,22.1185 161.45,22.1185 164,21.5C 165.064,23.6927 166.398,25.6927 168,27.5C 169.552,34.1191 170.719,40.7858 171.5,47.5C 170.034,46.653 169.2,45.3197 169,43.5C 168.251,38.511 167.585,33.511 167,28.5C 166.167,27 165,25.8333 163.5,25C 153.574,21.4396 143.241,19.2729 132.5,18.5C 120.555,20.3653 108.555,22.0319 96.5,23.5C 95.8821,26.3979 94.7155,29.0646 93,31.5C 90.3734,32.7682 87.8734,34.1015 85.5,35.5C 84.1667,35.8333 82.8333,36.1667 81.5,36.5C 80.5,36.5 79.5,36.5 78.5,36.5C 78.0124,41.8675 77.3458,47.2008 76.5,52.5C 77.4476,57.4351 77.781,62.4351 77.5,67.5C 74.9692,60.759 74.3026,53.759 75.5,46.5C 71.7484,42.4367 72.0817,38.6034 76.5,35C 80.8785,34.1453 84.2119,31.812 86.5,28C 91.3461,26.1442 95.3461,23.3108 98.5,19.5C 98.5,14.8333 98.5,10.1667 98.5,5.5C 90.2403,7.204 81.907,8.53734 73.5,9.5C 78.9231,7.57411 84.5898,6.07411 90.5,5C 98.7613,3.39833 107.095,2.565 115.5,2.5 Z"/></g>
<g><path style="opacity:1" fill="#72522b" d="M 121.5,43.5 C 119.883,44.038 118.216,44.3713 116.5,44.5C 116.5,41.5 116.5,38.5 116.5,35.5C 118.144,35.2865 119.644,35.6198 121,36.5C 121.497,38.8098 121.663,41.1432 121.5,43.5 Z"/></g>
<g><path style="opacity:1" fill="#622c28" d="M 113.5,34.5 C 113.631,33.6236 113.298,32.9569 112.5,32.5C 109.066,34.7345 105.399,36.0679 101.5,36.5C 98.5918,35.8407 98.2584,35.0074 100.5,34C 98.0062,31.5769 98.0062,29.2436 100.5,27C 103.738,25.6323 107.072,25.2989 110.5,26C 114.28,27.9049 115.28,30.7383 113.5,34.5 Z"/></g>
<g><path style="opacity:1" fill="#773734" d="M 151.5,25.5 C 151.833,25.5 152.167,25.5 152.5,25.5C 154.545,26.9228 155.545,28.9228 155.5,31.5C 151.963,34.2684 147.963,35.935 143.5,36.5C 140.887,35.9045 140.887,35.0712 143.5,34C 140.726,32.3948 140.06,30.2281 141.5,27.5C 144.535,25.699 147.869,25.0323 151.5,25.5 Z"/></g>
<g><path style="opacity:1" fill="#836231" d="M 119.5,21.5 C 118.428,23.5714 116.761,24.9047 114.5,25.5C 109.814,24.1704 105.148,24.1704 100.5,25.5C 100.611,24.8826 100.944,24.3826 101.5,24C 107.736,24.0259 113.736,23.1925 119.5,21.5 Z"/></g>
<g><path style="opacity:1" fill="#e4b84d" d="M 74.5,33.5 C 73.6785,36.663 72.0119,39.3297 69.5,41.5C 70.8333,43.5 72.1667,45.5 73.5,47.5C 70.519,53.5204 70.1857,59.8537 72.5,66.5C 71.3078,69.1141 70.3078,71.7808 69.5,74.5C 68.1526,73.9717 66.8193,73.805 65.5,74C 65.7408,75.5625 65.2408,77.0625 64,78.5C 63.4206,74.3233 62.4206,70.3233 61,66.5C 60.51,67.7932 60.3433,69.1266 60.5,70.5C 60.1667,70.5 59.8333,70.5 59.5,70.5C 60.2255,62.5885 60.2255,54.4218 59.5,46C 59.5085,41.4428 60.1752,37.2762 61.5,33.5C 61.7758,40.2101 62.4425,46.8768 63.5,53.5C 67.2896,53.9923 67.9563,53.159 65.5,51C 67.2148,50.2229 68.2148,48.8895 68.5,47C 67.2162,40.9592 69.0495,36.1259 74,32.5C 74.3988,32.7284 74.5654,33.0618 74.5,33.5 Z"/></g>
<g><path style="opacity:1" fill="#7e5c36" d="M 135.5,36.5 C 140.675,36.8349 142.341,39.5016 140.5,44.5C 137.807,42.4408 136.14,39.7741 135.5,36.5 Z"/></g>
<g><path style="opacity:1" fill="#eabd4e" d="M 61.5,33.5 C 60.1752,37.2762 59.5085,41.4428 59.5,46C 60.2255,54.4218 60.2255,62.5885 59.5,70.5C 59.9088,74.4989 59.0754,78.1656 57,81.5C 54.6905,78.5695 54.5239,75.7361 56.5,73C 55.6458,72.4261 54.6458,71.7594 53.5,71C 54.4239,69.85 54.4239,68.85 53.5,68C 52.0563,67.2195 50.723,67.3861 49.5,68.5C 50.0253,69.1924 50.6919,69.6924 51.5,70C 45.6354,70.7932 45.3021,72.1265 50.5,74C 49.3279,74.4186 48.3279,75.0853 47.5,76C 47.9543,84.7286 47.9543,93.5619 47.5,102.5C 46.448,102.649 45.448,102.483 44.5,102C 45.3452,100.442 44.6785,99.4419 42.5,99C 43.991,96.9031 44.991,94.5697 45.5,92C 44.8333,91.3333 44.1667,90.6667 43.5,90C 44.2113,87.2037 44.878,84.3704 45.5,81.5C 44.9921,79.0958 43.8255,78.4291 42,79.5C 41.6075,82.633 40.7741,85.633 39.5,88.5C 37.6698,86.5497 36.6698,84.5497 36.5,82.5C 35.219,86.383 33.8857,90.2164 32.5,94C 32.6448,94.772 32.9781,95.4387 33.5,96C 35.1667,96.3333 36.8333,96.6667 38.5,97C 36.1311,97.5359 34.1311,98.7026 32.5,100.5C 31.8319,98.0312 31.1653,95.6979 30.5,93.5C 30.5,89.1667 30.5,84.8333 30.5,80.5C 31.166,83.3583 31.8326,86.3583 32.5,89.5C 32.975,85.1104 33.6417,80.4438 34.5,75.5C 35.5,76.1667 36.5,76.8333 37.5,77.5C 38.7596,75.6471 38.7596,73.8138 37.5,72C 40.5081,67.6777 39.8414,64.0111 35.5,61C 37.7085,60.0644 39.0418,58.3977 39.5,56C 37.2615,55.1204 35.5948,53.6204 34.5,51.5C 34.8333,50.5 35.5,49.8333 36.5,49.5C 37.8689,51.124 39.5355,51.624 41.5,51C 44.9761,47.8653 44.9761,45.0319 41.5,42.5C 40.3691,40.9255 40.2025,39.2588 41,37.5C 41.8928,36.2888 42.7261,36.2888 43.5,37.5C 43.946,40.2765 44.946,42.7765 46.5,45C 46.1667,45.3333 45.8333,45.6667 45.5,46C 47.1667,47 48.8333,48 50.5,49C 49.6637,50.2433 49.997,51.4099 51.5,52.5C 52.2978,50.9223 52.7978,49.2556 53,47.5C 53.6667,48.1667 54.3333,48.8333 55,49.5C 56.4177,46.999 57.4177,47.3323 58,50.5C 58.6667,42.5 58.6667,34.5 58,26.5C 57.6905,27.7659 57.1905,28.9326 56.5,30C 51.376,31.054 48.7094,28.8873 48.5,23.5C 48.0431,22.7025 47.3764,22.3691 46.5,22.5C 48.9408,21.291 50.9408,19.6243 52.5,17.5C 54.861,17.3259 57.1944,16.9926 59.5,16.5C 59.3341,21.5111 59.5007,26.5111 60,31.5C 60.0936,26.7703 62.2602,25.437 66.5,27.5C 67.2494,25.9884 68.416,24.9884 70,24.5C 72.1341,26.2871 72.9675,28.6205 72.5,31.5C 70.4884,30.9862 68.4884,30.8195 66.5,31C 69.0278,31.6689 69.0278,32.5022 66.5,33.5C 64.1614,32.5823 62.6614,30.9156 62,28.5C 61.5065,30.1341 61.3398,31.8008 61.5,33.5 Z"/></g>
<g><path style="opacity:1" fill="#4b1d15" d="M 152.5,25.5 C 155.809,25.3077 158.309,26.6411 160,29.5C 159.641,34.8073 159.641,40.1406 160,45.5C 162.879,48.3681 163.046,51.5347 160.5,55C 160.481,59.6584 162.148,60.4917 165.5,57.5C 167.611,56.2584 169.611,56.2584 171.5,57.5C 165.158,58.3424 161.158,61.8424 159.5,68C 162.016,72.8931 163.182,78.0598 163,83.5C 161.833,84.6667 160.667,85.8333 159.5,87C 154.696,87.3677 150.03,88.3677 145.5,90C 140.635,92.3542 139.635,95.6876 142.5,100C 146.375,101.52 150.375,101.854 154.5,101C 155.38,99.6439 155.714,98.1439 155.5,96.5C 152.921,96.0833 150.754,96.75 149,98.5C 148.283,97.9558 147.783,97.2891 147.5,96.5C 147.611,95.8826 147.944,95.3826 148.5,95C 151.167,94.3333 153.833,94.3333 156.5,95C 158.376,95.9184 159.376,97.4184 159.5,99.5C 153.447,103.889 146.781,104.722 139.5,102C 136.49,97.2348 137.157,93.0682 141.5,89.5C 145.287,87.6459 148.954,85.6459 152.5,83.5C 152.5,82.8333 152.5,82.1667 152.5,81.5C 154.764,80.7814 157.097,80.448 159.5,80.5C 159.362,76.569 158.362,72.9023 156.5,69.5C 156.442,66.9105 157.108,64.5772 158.5,62.5C 156.963,54.9272 155.63,47.2605 154.5,39.5C 154.703,36.8031 155.036,34.1364 155.5,31.5C 155.545,28.9228 154.545,26.9228 152.5,25.5 Z"/></g>
<g><path style="opacity:1" fill="#993734" d="M 124.5,42.5 C 124.964,38.2766 123.631,34.9432 120.5,32.5C 122.969,31.6829 125.635,31.1829 128.5,31C 129.892,28.7723 131.892,27.6056 134.5,27.5C 133.248,30.3547 132.248,33.3547 131.5,36.5C 131.997,39.8247 132.997,42.9914 134.5,46C 134.241,47.2613 133.574,48.2613 132.5,49C 133.581,53.0659 134.248,57.2326 134.5,61.5C 131.102,61.8204 127.768,61.487 124.5,60.5C 124.855,54.3868 124.855,48.3868 124.5,42.5 Z"/></g>
<g><path style="opacity:1" fill="#eec04f" d="M 209.5,22.5 C 211.352,23.0889 213.185,23.7556 215,24.5C 215.956,28.572 215.456,32.4054 213.5,36C 215.51,40.6089 216.01,45.4423 215,50.5C 214.535,51.9308 213.701,53.0975 212.5,54C 213.711,55.1131 213.711,56.2798 212.5,57.5C 212.957,58.2975 213.624,58.6309 214.5,58.5C 213.829,59.8471 213.829,61.0138 214.5,62C 213.167,64 211.833,64 210.5,62C 211.784,60.7025 211.617,59.5358 210,58.5C 209.195,60.9011 208.362,60.7344 207.5,58C 208.252,52.815 208.585,47.815 208.5,43C 207.495,41.4933 206.162,40.3267 204.5,39.5C 205.397,39.3309 206.397,38.9976 207.5,38.5C 206.5,37.6667 205.5,36.8333 204.5,36C 205.993,34.8438 205.826,34.0104 204,33.5C 202.077,34.8019 200.243,34.6352 198.5,33C 199.859,31.7955 200.859,30.2955 201.5,28.5C 202.425,27.3595 203.259,27.3595 204,28.5C 204.333,27.8333 204.667,27.1667 205,26.5C 205.309,27.7659 205.809,28.9326 206.5,30C 209.783,30.044 210.116,29.044 207.5,27C 209.037,25.8904 209.703,24.3904 209.5,22.5 Z"/></g>
<g><path style="opacity:1" fill="#dcb148" d="M 98.5,19.5 C 95.3461,23.3108 91.3461,26.1442 86.5,28C 84.2119,31.812 80.8785,34.1453 76.5,35C 72.0817,38.6034 71.7484,42.4367 75.5,46.5C 74.3026,53.759 74.9692,60.759 77.5,67.5C 75.9945,74.0483 74.3278,80.2149 72.5,86C 73.9495,92.517 76.2828,98.6837 79.5,104.5C 87.1919,110.498 91.0252,118.498 91,128.5C 93.3046,130.93 96.1379,131.93 99.5,131.5C 100.11,132.391 100.443,133.391 100.5,134.5C 96.7991,133.65 93.1325,133.65 89.5,134.5C 88.062,134.281 86.7287,133.781 85.5,133C 86.5171,131.951 86.6838,130.784 86,129.5C 85.586,129.957 85.086,130.291 84.5,130.5C 82.0683,128.717 79.7349,126.883 77.5,125C 78.4132,123.586 78.4132,122.086 77.5,120.5C 78.1499,120.196 78.8165,119.863 79.5,119.5C 80.6199,120.833 81.9532,121.333 83.5,121C 83.1667,120.667 82.8333,120.333 82.5,120C 85.1667,118.333 85.1667,116.667 82.5,115C 83.1667,114.333 83.8333,113.667 84.5,113C 80.4969,109.316 76.4969,105.649 72.5,102C 72.8333,101.667 73.1667,101.333 73.5,101C 70.2687,95.5103 69.102,89.677 70,83.5C 69.1667,82.6667 68.3333,81.8333 67.5,81C 68.6687,78.9935 69.3354,76.8268 69.5,74.5C 70.3078,71.7808 71.3078,69.1141 72.5,66.5C 70.1857,59.8537 70.519,53.5204 73.5,47.5C 72.1667,45.5 70.8333,43.5 69.5,41.5C 72.0119,39.3297 73.6785,36.663 74.5,33.5C 79.6383,33.6773 82.6383,31.344 83.5,26.5C 88.9847,24.1292 93.9847,21.7959 98.5,19.5 Z"/></g>
<g><path style="opacity:1" fill="#cba645" d="M 132.5,18.5 C 143.241,19.2729 153.574,21.4396 163.5,25C 165,25.8333 166.167,27 167,28.5C 167.585,33.511 168.251,38.511 169,43.5C 169.2,45.3197 170.034,46.653 171.5,47.5C 174.185,49.2591 177.185,50.2591 180.5,50.5C 183.218,54.2817 185.218,58.615 186.5,63.5C 184.115,66.7534 184.115,69.9201 186.5,73C 187.448,73.4828 188.448,73.6495 189.5,73.5C 189.032,77.1313 189.699,80.4646 191.5,83.5C 189.144,84.6539 188.977,85.9873 191,87.5C 191.667,92.5 191.667,97.5 191,102.5C 190.626,103.416 190.126,104.25 189.5,105C 186.861,105.653 184.527,106.82 182.5,108.5C 182.5,107.833 182.5,107.167 182.5,106.5C 182.736,104.027 184.069,102.36 186.5,101.5C 187.632,99.3064 188.299,96.973 188.5,94.5C 186.987,88.6967 186.32,83.03 186.5,77.5C 183.992,71.4876 182.825,65.1543 183,58.5C 180.975,56.3069 178.475,55.3069 175.5,55.5C 175.167,55.5 174.833,55.5 174.5,55.5C 171.972,54.8343 169.306,54.1676 166.5,53.5C 163.722,49.268 162.055,44.6013 161.5,39.5C 162.977,34.3818 162.31,29.5485 159.5,25C 153.247,23.9131 146.913,23.0798 140.5,22.5C 137.297,22.0181 134.631,20.6848 132.5,18.5 Z"/></g>
<g><path style="opacity:1" fill="#eabd4f" d="M 235.5,39.5 C 237.785,41.1182 239.785,43.1182 241.5,45.5C 242.417,46.1272 243.417,46.4606 244.5,46.5C 244.5,46.8333 244.5,47.1667 244.5,47.5C 246.65,53.0928 248.65,58.7595 250.5,64.5C 250.278,66.0554 249.611,67.3887 248.5,68.5C 249.872,70.6198 249.205,71.6198 246.5,71.5C 246.354,73.9424 247.187,74.6091 249,73.5C 250.831,81.469 250.998,89.469 249.5,97.5C 248.833,97.5 248.167,97.5 247.5,97.5C 248.799,91.6914 249.299,86.0247 249,80.5C 248.111,81.8882 247.611,81.7215 247.5,80C 248.429,76.1882 246.929,75.0216 243,76.5C 242.298,75.2052 241.631,73.8719 241,72.5C 239.778,75.8464 237.611,77.1798 234.5,76.5C 234.461,75.4168 234.127,74.4168 233.5,73.5C 234.611,72.3887 235.278,71.0554 235.5,69.5C 236.694,60.6683 233.194,55.0017 225,52.5C 223.416,52.9884 222.249,53.9884 221.5,55.5C 219.999,52.5473 219.332,49.3806 219.5,46C 219.833,43.8333 220.167,41.6667 220.5,39.5C 223.077,41.9202 224.077,44.9202 223.5,48.5C 228.967,49.1493 231.967,46.816 232.5,41.5C 233.265,40.3881 234.265,39.7214 235.5,39.5 Z"/></g>
<g><path style="opacity:1" fill="#8f3835" d="M 113.5,34.5 C 113.037,37.4824 112.704,40.4824 112.5,43.5C 110.692,42.0821 110.025,40.0821 110.5,37.5C 109.167,37.5 107.833,37.5 106.5,37.5C 106.996,42.257 106.33,46.757 104.5,51C 105.078,52.8114 105.578,54.6447 106,56.5C 106.985,55.1859 108.152,54.1859 109.5,53.5C 111.781,53.0773 113.448,53.744 114.5,55.5C 112.167,55.5 109.833,55.5 107.5,55.5C 107.713,58.4509 107.046,61.1175 105.5,63.5C 100.563,66.5956 95.2296,68.9289 89.5,70.5C 89.7947,68.2646 89.4614,66.2646 88.5,64.5C 87.761,60.9539 86.4277,57.6206 84.5,54.5C 87.1468,51.4418 87.1468,48.4418 84.5,45.5C 86.7218,40.91 90.3885,38.91 95.5,39.5C 95.5,41.1667 95.5,42.8333 95.5,44.5C 94.1201,44.9623 93.4534,45.9623 93.5,47.5C 94.1034,49.8721 95.1034,52.0387 96.5,54C 95.057,56.0777 95.7237,56.9111 98.5,56.5C 98.3367,58.8568 98.5034,61.1902 99,63.5C 99.414,63.9574 99.914,64.2907 100.5,64.5C 105.133,60.0261 105.466,55.3595 101.5,50.5C 102.97,47.9179 103.637,45.0845 103.5,42C 103.453,39.7047 102.787,37.8714 101.5,36.5C 105.399,36.0679 109.066,34.7345 112.5,32.5C 113.298,32.9569 113.631,33.6236 113.5,34.5 Z"/></g>
<g><path style="opacity:1" fill="#e5b74b" d="M 187.5,11.5 C 196.23,14.1864 204.897,17.1864 213.5,20.5C 216.331,21.0787 218.664,22.412 220.5,24.5C 225.86,29.1937 230.86,34.1937 235.5,39.5C 234.265,39.7214 233.265,40.3881 232.5,41.5C 231.967,46.816 228.967,49.1493 223.5,48.5C 224.077,44.9202 223.077,41.9202 220.5,39.5C 220.167,41.6667 219.833,43.8333 219.5,46C 219.332,49.3806 219.999,52.5473 221.5,55.5C 222.249,53.9884 223.416,52.9884 225,52.5C 233.194,55.0017 236.694,60.6683 235.5,69.5C 235.278,71.0554 234.611,72.3887 233.5,73.5C 234.127,74.4168 234.461,75.4168 234.5,76.5C 234.63,78.362 234.63,80.362 234.5,82.5C 237.131,84.0046 236.797,84.6713 233.5,84.5C 233.108,87.1457 233.108,89.6457 233.5,92C 232.833,92.3333 232.167,92.6667 231.5,93C 232.803,97.166 232.803,101.333 231.5,105.5C 230.448,105.649 229.448,105.483 228.5,105C 230.192,103.599 230.859,101.766 230.5,99.5C 228.833,99.5 227.167,99.5 225.5,99.5C 225.259,95.1182 226.926,91.2849 230.5,88C 223.105,84.5651 223.105,82.0651 230.5,80.5C 230.833,79.5 231.167,78.5 231.5,77.5C 231.281,75.3069 230.615,73.3069 229.5,71.5C 230.289,71.2172 230.956,70.7172 231.5,70C 230.22,67.8683 230.22,65.7016 231.5,63.5C 230.009,62.7564 228.509,62.0897 227,61.5C 226.722,62.4158 226.222,63.0825 225.5,63.5C 224.418,61.6614 223.585,59.6614 223,57.5C 220.415,59.7355 217.582,60.0688 214.5,58.5C 213.624,58.6309 212.957,58.2975 212.5,57.5C 213.711,56.2798 213.711,55.1131 212.5,54C 213.701,53.0975 214.535,51.9308 215,50.5C 216.01,45.4423 215.51,40.6089 213.5,36C 215.456,32.4054 215.956,28.572 215,24.5C 213.185,23.7556 211.352,23.0889 209.5,22.5C 207.952,22.1788 207.285,21.1788 207.5,19.5C 203.959,18.3629 200.293,17.3629 196.5,16.5C 195.446,16.6799 194.446,17.0133 193.5,17.5C 192.738,16.3717 192.071,15.2051 191.5,14C 189.934,13.3918 188.6,12.5585 187.5,11.5 Z"/></g>
<g><path style="opacity:1" fill="#992e2f" d="M 114.5,55.5 C 115.45,58.0679 115.45,60.5679 114.5,63C 111.518,63.498 108.518,63.6646 105.5,63.5C 107.046,61.1175 107.713,58.4509 107.5,55.5C 109.833,55.5 112.167,55.5 114.5,55.5 Z"/></g>
<g><path style="opacity:1" fill="#8a3533" d="M 155.5,31.5 C 155.036,34.1364 154.703,36.8031 154.5,39.5C 155.63,47.2605 156.963,54.9272 158.5,62.5C 157.108,64.5772 156.442,66.9105 156.5,69.5C 158.362,72.9023 159.362,76.569 159.5,80.5C 157.097,80.448 154.764,80.7814 152.5,81.5C 151.957,81.44 151.624,81.1067 151.5,80.5C 155.494,75.8108 155.494,71.1442 151.5,66.5C 152.833,66.5 154.167,66.5 155.5,66.5C 156.081,61.0248 155.414,55.8582 153.5,51C 154.022,50.4387 154.355,49.772 154.5,49C 152.943,45.0044 152.109,40.8377 152,36.5C 150.644,37.3802 149.144,37.7135 147.5,37.5C 147.884,41.9084 147.217,46.0751 145.5,50C 146.94,55.1773 148.274,60.344 149.5,65.5C 148.391,65.4431 147.391,65.1098 146.5,64.5C 145.292,63.7659 143.959,63.4326 142.5,63.5C 143.389,61.0902 144.055,58.5902 144.5,56C 144.64,53.3067 143.64,51.14 141.5,49.5C 144.599,45.4932 145.265,41.1598 143.5,36.5C 147.963,35.935 151.963,34.2684 155.5,31.5 Z"/></g>
<g><path style="opacity:1" fill="#8a4137" d="M 171.5,57.5 C 173.017,57.5106 174.184,58.1772 175,59.5C 174.667,63.5 174.333,67.5 174,71.5C 174.979,73.9676 176.479,75.9676 178.5,77.5C 176.194,77.0074 173.861,76.6741 171.5,76.5C 171.5,75.1667 171.5,73.8333 171.5,72.5C 168.833,72.5 166.167,72.5 163.5,72.5C 165.075,76.6929 165.575,81.0262 165,85.5C 164.167,86.3333 163.333,87.1667 162.5,88C 157.167,89.3333 151.833,90.6667 146.5,92C 144.077,93.5707 142.744,95.7374 142.5,98.5C 144.322,98.1692 145.989,97.5025 147.5,96.5C 147.783,97.2891 148.283,97.9558 149,98.5C 150.754,96.75 152.921,96.0833 155.5,96.5C 155.714,98.1439 155.38,99.6439 154.5,101C 150.375,101.854 146.375,101.52 142.5,100C 139.635,95.6876 140.635,92.3542 145.5,90C 150.03,88.3677 154.696,87.3677 159.5,87C 160.667,85.8333 161.833,84.6667 163,83.5C 163.182,78.0598 162.016,72.8931 159.5,68C 161.158,61.8424 165.158,58.3424 171.5,57.5 Z"/></g>
<g><path style="opacity:1" fill="#99504e" d="M 145.5,65.5 C 145.833,66.1667 146.167,66.8333 146.5,67.5C 131.728,64.5611 117.062,65.0611 102.5,69C 99.7613,70.0259 97.428,71.5259 95.5,73.5C 93.2152,74.9568 91.3819,76.9568 90,79.5C 87.8384,84.7633 87.0051,90.0967 87.5,95.5C 84.3044,87.6905 85.3044,80.3572 90.5,73.5C 92.8051,72.0106 95.1384,70.5106 97.5,69C 113.07,63.1196 129.07,61.9529 145.5,65.5 Z"/></g>
<g><path style="opacity:1" fill="#a43233" d="M 151.5,66.5 C 150.508,66.6716 149.842,66.3382 149.5,65.5C 148.274,60.344 146.94,55.1773 145.5,50C 147.217,46.0751 147.884,41.9084 147.5,37.5C 149.144,37.7135 150.644,37.3802 152,36.5C 152.109,40.8377 152.943,45.0044 154.5,49C 154.355,49.772 154.022,50.4387 153.5,51C 155.414,55.8582 156.081,61.0248 155.5,66.5C 154.167,66.5 152.833,66.5 151.5,66.5 Z"/></g>
<g><path style="opacity:1" fill="#ac3536" d="M 146.5,67.5 C 146.833,67.5 147.167,67.5 147.5,67.5C 148.575,69.8555 148.575,72.1889 147.5,74.5C 146.476,73.1468 145.143,72.4802 143.5,72.5C 137.482,69.6289 131.815,70.1289 126.5,74C 117.748,73.6864 109.748,75.8531 102.5,80.5C 99.8787,80.4772 98.5454,81.8105 98.5,84.5C 99.2485,86.0356 100.249,87.3689 101.5,88.5C 99.3211,89.7567 97.3211,91.2567 95.5,93C 95.9574,93.414 96.2907,93.914 96.5,94.5C 95.5,95.5 94.5,96.5 93.5,97.5C 92.6837,94.5491 91.6837,91.7158 90.5,89C 91.4515,83.569 93.1181,78.4023 95.5,73.5C 97.428,71.5259 99.7613,70.0259 102.5,69C 117.062,65.0611 131.728,64.5611 146.5,67.5 Z"/></g>
<g><path style="opacity:1" fill="#b49141" d="M 175.5,55.5 C 178.475,55.3069 180.975,56.3069 183,58.5C 182.825,65.1543 183.992,71.4876 186.5,77.5C 183.975,76.3192 181.475,74.9858 179,73.5C 179,68.1667 179,62.8333 179,57.5C 177.698,56.9152 176.531,56.2485 175.5,55.5 Z"/></g>
<g><path style="opacity:0.999" fill="#e3b952" d="M 21.5,38.5 C 21.2171,41.7326 19.8837,44.3993 17.5,46.5C 18.1667,47.8333 19.1667,48.8333 20.5,49.5C 21.4742,51.7427 21.8076,54.076 21.5,56.5C 20.448,56.3505 19.448,56.5172 18.5,57C 20.3684,57.899 21.3684,59.399 21.5,61.5C 20.6498,65.1325 20.6498,68.7991 21.5,72.5C 20.5788,73.981 19.4121,75.3144 18,76.5C 17.0546,76.0946 16.3879,75.428 16,74.5C 14.6439,75.3802 13.1439,75.7135 11.5,75.5C 11.5614,77.5922 12.5614,79.0922 14.5,80C 12.5,80.8333 10.5,81.6667 8.5,82.5C 9.30763,84.9252 10.3076,87.2585 11.5,89.5C 12.7613,86.1796 14.428,85.8463 16.5,88.5C 13.984,89.7261 11.6507,91.2261 9.5,93C 11.6157,94.1707 12.2824,95.6707 11.5,97.5C 14.4065,102.31 17.0731,107.31 19.5,112.5C 20.9122,113.806 22.5789,114.64 24.5,115C 25.6792,118.676 28.0125,121.176 31.5,122.5C 33.2232,123.072 34.7232,123.072 36,122.5C 36.4828,121.552 36.6495,120.552 36.5,119.5C 38.4304,120.763 40.0971,122.43 41.5,124.5C 45.0488,124.463 48.7155,124.13 52.5,123.5C 51.7545,125.136 52.0878,126.803 53.5,128.5C 51.256,133.327 52.5894,136.494 57.5,138C 59.1341,138.494 60.8008,138.66 62.5,138.5C 65.204,138.67 66.8707,140.003 67.5,142.5C 58.6609,140.334 50.3276,137 42.5,132.5C 25.4477,122.784 12.9477,109.117 5,91.5C -0.117957,70.2512 5.38204,52.5846 21.5,38.5 Z"/></g>
<g><path style="opacity:1" fill="#e8ba4c" d="M 229.5,71.5 C 228.5,71.5 227.5,71.5 226.5,71.5C 226.5,70.5 226.5,69.5 226.5,68.5C 225.448,68.3505 224.448,68.5172 223.5,69C 224.696,69.6543 224.696,70.1543 223.5,70.5C 222.205,69.9017 220.872,69.4017 219.5,69C 220.603,67.3196 220.27,65.8196 218.5,64.5C 217,66.7857 216.667,69.119 217.5,71.5C 215.883,74.2796 214.716,77.2796 214,80.5C 211.317,81.8927 211.15,83.2261 213.5,84.5C 211.977,86.2825 209.977,86.9492 207.5,86.5C 207.741,83.001 206.908,82.6677 205,85.5C 204.667,85.1667 204.333,84.8333 204,84.5C 203.011,82.0302 201.845,79.6968 200.5,77.5C 200.423,76.2502 199.756,75.4169 198.5,75C 196.231,74.2419 194.064,74.4086 192,75.5C 190.892,73.8896 190.392,72.2229 190.5,70.5C 193.99,68.912 197.49,67.2454 201,65.5C 202.261,65.7591 203.261,66.4258 204,67.5C 204.689,66.6433 205.522,65.9767 206.5,65.5C 207.466,67.396 207.799,69.396 207.5,71.5C 209.819,72.167 212.153,72.3336 214.5,72C 214.888,70.4748 214.888,68.8082 214.5,67C 216.569,66.6758 216.902,65.8425 215.5,64.5C 217.319,62.0886 219.319,61.922 221.5,64C 221.167,64.3333 220.833,64.6667 220.5,65C 222.798,66.8582 224.465,66.3582 225.5,63.5C 226.222,63.0825 226.722,62.4158 227,61.5C 228.509,62.0897 230.009,62.7564 231.5,63.5C 230.22,65.7016 230.22,67.8683 231.5,70C 230.956,70.7172 230.289,71.2172 229.5,71.5 Z"/></g>
<g><path style="opacity:1" fill="#e3b548" d="M 21.5,72.5 C 21.5394,73.5832 21.8728,74.5832 22.5,75.5C 21.8333,76.1667 21.1667,76.8333 20.5,77.5C 22.1801,78.7689 23.3468,80.4356 24,82.5C 24.1755,92.2093 24.8422,101.876 26,111.5C 27.6877,115.295 29.521,118.962 31.5,122.5C 28.0125,121.176 25.6792,118.676 24.5,115C 22.5789,114.64 20.9122,113.806 19.5,112.5C 17.0731,107.31 14.4065,102.31 11.5,97.5C 12.2824,95.6707 11.6157,94.1707 9.5,93C 11.6507,91.2261 13.984,89.7261 16.5,88.5C 14.428,85.8463 12.7613,86.1796 11.5,89.5C 10.3076,87.2585 9.30763,84.9252 8.5,82.5C 10.5,81.6667 12.5,80.8333 14.5,80C 12.5614,79.0922 11.5614,77.5922 11.5,75.5C 13.1439,75.7135 14.6439,75.3802 16,74.5C 16.3879,75.428 17.0546,76.0946 18,76.5C 19.4121,75.3144 20.5788,73.981 21.5,72.5 Z"/></g>
<g><path style="opacity:0.996" fill="#deb75b" d="M 244.5,47.5 C 246.201,48.5245 247.535,50.0245 248.5,52C 250.653,57.3984 252.986,62.5651 255.5,67.5C 255.5,73.1667 255.5,78.8333 255.5,84.5C 254.077,89.1042 252.077,93.4376 249.5,97.5C 250.998,89.469 250.831,81.469 249,73.5C 247.187,74.6091 246.354,73.9424 246.5,71.5C 249.205,71.6198 249.872,70.6198 248.5,68.5C 249.611,67.3887 250.278,66.0554 250.5,64.5C 248.65,58.7595 246.65,53.0928 244.5,47.5 Z"/></g>
<g><path style="opacity:1" fill="#943b35" d="M 147.5,67.5 C 149.922,68.6923 150.922,70.6923 150.5,73.5C 150.333,74.8333 150.167,76.1667 150,77.5C 143.816,82.0068 136.982,82.8401 129.5,80C 127.789,78.8668 127.289,77.3668 128,75.5C 131.794,72.2141 135.627,71.8807 139.5,74.5C 138.092,75.2432 136.759,76.0766 135.5,77C 137.833,77.6667 140.167,77.6667 142.5,77C 143.38,75.6439 143.714,74.1439 143.5,72.5C 145.143,72.4802 146.476,73.1468 147.5,74.5C 148.575,72.1889 148.575,69.8555 147.5,67.5 Z"/></g>
<g><path style="opacity:1" fill="#e5b84b" d="M 229.5,71.5 C 230.615,73.3069 231.281,75.3069 231.5,77.5C 231.167,78.5 230.833,79.5 230.5,80.5C 223.105,82.0651 223.105,84.5651 230.5,88C 226.926,91.2849 225.259,95.1182 225.5,99.5C 222.571,101.92 222.238,104.586 224.5,107.5C 224.291,108.086 223.957,108.586 223.5,109C 225.5,110.333 227.5,111.667 229.5,113C 227.965,113.496 226.465,113.33 225,112.5C 223.374,113.289 221.874,114.289 220.5,115.5C 219.468,112.807 217.802,112.14 215.5,113.5C 214.79,115.893 214.123,118.393 213.5,121C 211.765,121.651 210.098,121.485 208.5,120.5C 207.418,113.178 205.085,112.845 201.5,119.5C 201.316,116.827 200.149,116.16 198,117.5C 197.576,113.81 196.742,113.643 195.5,117C 197.473,120.758 196.473,122.925 192.5,123.5C 192.714,121.856 192.38,120.356 191.5,119C 192.167,118.333 192.833,117.667 193.5,117C 191.608,116.027 189.608,115.36 187.5,115C 188.821,113.455 188.488,112.289 186.5,111.5C 185.571,112.689 185.238,114.022 185.5,115.5C 184.5,115.5 183.5,115.5 182.5,115.5C 182.561,112.27 184.228,110.437 187.5,110C 189.167,109.333 190.833,109.333 192.5,110C 195.887,113.313 199.221,113.146 202.5,109.5C 199.638,104.578 197.971,99.2444 197.5,93.5C 193.852,90.0947 193.519,86.2614 196.5,82C 195.167,81.3333 194.167,80.3333 193.5,79C 194.549,78.5078 195.549,78.6744 196.5,79.5C 197.86,78.8201 199.193,78.1534 200.5,77.5C 201.845,79.6968 203.011,82.0302 204,84.5C 204.333,84.8333 204.667,85.1667 205,85.5C 206.908,82.6677 207.741,83.001 207.5,86.5C 209.977,86.9492 211.977,86.2825 213.5,84.5C 211.15,83.2261 211.317,81.8927 214,80.5C 214.716,77.2796 215.883,74.2796 217.5,71.5C 216.667,69.119 217,66.7857 218.5,64.5C 220.27,65.8196 220.603,67.3196 219.5,69C 220.872,69.4017 222.205,69.9017 223.5,70.5C 224.696,70.1543 224.696,69.6543 223.5,69C 224.448,68.5172 225.448,68.3505 226.5,68.5C 226.5,69.5 226.5,70.5 226.5,71.5C 227.5,71.5 228.5,71.5 229.5,71.5 Z"/></g>
<g><path style="opacity:1" fill="#aa873b" d="M 80.5,54.5 C 81.196,58.6447 82.5293,62.478 84.5,66C 83.5209,74.8294 83.0209,83.6627 83,92.5C 85.5029,98.5508 89.0029,103.884 93.5,108.5C 90.1155,108.975 87.7822,107.642 86.5,104.5C 85.2638,103.754 83.9305,103.421 82.5,103.5C 83.0841,100.017 82.2508,97.0172 80,94.5C 79.6608,91.964 79.1608,89.464 78.5,87C 79.3982,84.9006 79.3982,82.734 78.5,80.5C 79.8023,76.7573 80.8023,72.924 81.5,69C 80.9414,64.9819 80.2748,60.9819 79.5,57C 79.528,55.9302 79.8614,55.0968 80.5,54.5 Z"/></g>
<g><path style="opacity:1" fill="#5b351a" d="M 174.5,55.5 C 174.833,55.5 175.167,55.5 175.5,55.5C 176.531,56.2485 177.698,56.9152 179,57.5C 179,62.8333 179,68.1667 179,73.5C 181.475,74.9858 183.975,76.3192 186.5,77.5C 184.654,80.8806 183.654,84.5473 183.5,88.5C 181.883,87.4107 181.05,85.744 181,83.5C 180.667,83.8333 180.333,84.1667 180,84.5C 179.517,83.552 179.351,82.552 179.5,81.5C 179.768,79.901 179.434,78.5676 178.5,77.5C 176.479,75.9676 174.979,73.9676 174,71.5C 174.333,67.5 174.667,63.5 175,59.5C 174.184,58.1772 173.017,57.5106 171.5,57.5C 169.611,56.2584 167.611,56.2584 165.5,57.5C 167.988,55.6122 170.988,54.9455 174.5,55.5 Z"/></g>
<g><path style="opacity:1" fill="#ad5d5c" d="M 124.5,77.5 C 119.223,77.0407 114.556,78.374 110.5,81.5C 107.901,82.7608 105.568,84.4275 103.5,86.5C 102.584,86.4573 101.917,86.1239 101.5,85.5C 106.504,80.2484 112.671,77.2484 120,76.5C 121.707,76.5085 123.207,76.8418 124.5,77.5 Z"/></g>
<g><path style="opacity:0.116" fill="#afa288" d="M 107.5,0.5 C 110.167,1.16667 112.833,1.83333 115.5,2.5C 107.095,2.565 98.7613,3.39833 90.5,5C 84.5898,6.07411 78.9231,7.57411 73.5,9.5C 66.0302,10.9891 59.0302,13.6557 52.5,17.5C 40.2891,21.7689 29.9558,28.7689 21.5,38.5C 5.38204,52.5846 -0.117957,70.2512 5,91.5C 12.9477,109.117 25.4477,122.784 42.5,132.5C 42.5,133.167 42.1667,133.5 41.5,133.5C 22.356,124.522 8.856,110.188 1,90.5C 0.333333,81.1667 0.333333,71.8333 1,62.5C 8.56252,43.602 21.3959,29.4354 39.5,20C 60.7986,8.84094 83.4653,2.34094 107.5,0.5 Z"/></g>
<g><path style="opacity:1" fill="#5c231d" d="M 146.5,64.5 C 147.391,65.1098 148.391,65.4431 149.5,65.5C 149.842,66.3382 150.508,66.6716 151.5,66.5C 155.494,71.1442 155.494,75.8108 151.5,80.5C 151.624,81.1067 151.957,81.44 152.5,81.5C 152.5,82.1667 152.5,82.8333 152.5,83.5C 151.033,83.1062 149.533,82.7728 148,82.5C 141.823,85.1275 135.657,85.1275 129.5,82.5C 127.451,81.1182 125.785,79.4516 124.5,77.5C 123.207,76.8418 121.707,76.5085 120,76.5C 112.671,77.2484 106.504,80.2484 101.5,85.5C 100.903,85.2648 100.57,84.7648 100.5,84C 100.978,82.6974 101.645,81.5307 102.5,80.5C 109.748,75.8531 117.748,73.6864 126.5,74C 131.815,70.1289 137.482,69.6289 143.5,72.5C 143.714,74.1439 143.38,75.6439 142.5,77C 140.167,77.6667 137.833,77.6667 135.5,77C 136.759,76.0766 138.092,75.2432 139.5,74.5C 135.627,71.8807 131.794,72.2141 128,75.5C 127.289,77.3668 127.789,78.8668 129.5,80C 136.982,82.8401 143.816,82.0068 150,77.5C 150.167,76.1667 150.333,74.8333 150.5,73.5C 150.922,70.6923 149.922,68.6923 147.5,67.5C 147.167,67.5 146.833,67.5 146.5,67.5C 146.167,66.8333 145.833,66.1667 145.5,65.5C 146.167,65.5 146.5,65.1667 146.5,64.5 Z"/></g>
<g><path style="opacity:1" fill="#eabc4c" d="M 58.5,86.5 C 59.905,92.0618 60.905,97.7284 61.5,103.5C 60.1718,113.184 60.5051,122.85 62.5,132.5C 62.5,134.5 62.5,136.5 62.5,138.5C 60.8008,138.66 59.1341,138.494 57.5,138C 52.5894,136.494 51.256,133.327 53.5,128.5C 52.0878,126.803 51.7545,125.136 52.5,123.5C 53.5518,113.462 53.5518,102.962 52.5,92C 53.1804,88.7589 54.5137,85.9255 56.5,83.5C 57.1757,84.6016 57.8423,85.6016 58.5,86.5 Z"/></g>
<g><path style="opacity:1" fill="#c49d40" d="M 81.5,36.5 C 78.4425,41.4326 79.1092,45.7659 83.5,49.5C 82.6043,51.336 81.6043,53.0026 80.5,54.5C 79.8614,55.0968 79.528,55.9302 79.5,57C 80.2748,60.9819 80.9414,64.9819 81.5,69C 80.8023,72.924 79.8023,76.7573 78.5,80.5C 79.3982,82.734 79.3982,84.9006 78.5,87C 79.1608,89.464 79.6608,91.964 80,94.5C 82.2508,97.0172 83.0841,100.017 82.5,103.5C 83.9305,103.421 85.2638,103.754 86.5,104.5C 87.7822,107.642 90.1155,108.975 93.5,108.5C 93.8333,109.167 94.1667,109.833 94.5,110.5C 94.7496,111.922 95.583,112.922 97,113.5C 97.6794,118.029 97.5127,122.529 96.5,127C 97.0077,128.893 98.0077,130.393 99.5,131.5C 96.1379,131.93 93.3046,130.93 91,128.5C 91.0252,118.498 87.1919,110.498 79.5,104.5C 76.2828,98.6837 73.9495,92.517 72.5,86C 74.3278,80.2149 75.9945,74.0483 77.5,67.5C 77.781,62.4351 77.4476,57.4351 76.5,52.5C 77.3458,47.2008 78.0124,41.8675 78.5,36.5C 79.5,36.5 80.5,36.5 81.5,36.5 Z"/></g>
<g><path style="opacity:1" fill="#ebbd4e" d="M 21.5,38.5 C 22.5,38.5 23.5,38.5 24.5,38.5C 24.8379,64.6117 26.5046,90.6117 29.5,116.5C 30.5,116.5 31.5,116.5 32.5,116.5C 32.5,115.167 32.5,113.833 32.5,112.5C 35.4662,115.442 37.2995,114.775 38,110.5C 38.3742,111.416 38.8742,112.25 39.5,113C 38.2071,115.052 37.2071,117.219 36.5,119.5C 36.6495,120.552 36.4828,121.552 36,122.5C 34.7232,123.072 33.2232,123.072 31.5,122.5C 29.521,118.962 27.6877,115.295 26,111.5C 24.8422,101.876 24.1755,92.2093 24,82.5C 23.3468,80.4356 22.1801,78.7689 20.5,77.5C 21.1667,76.8333 21.8333,76.1667 22.5,75.5C 21.8728,74.5832 21.5394,73.5832 21.5,72.5C 20.6498,68.7991 20.6498,65.1325 21.5,61.5C 21.3684,59.399 20.3684,57.899 18.5,57C 19.448,56.5172 20.448,56.3505 21.5,56.5C 21.8076,54.076 21.4742,51.7427 20.5,49.5C 19.1667,48.8333 18.1667,47.8333 17.5,46.5C 19.8837,44.3993 21.2171,41.7326 21.5,38.5 Z"/></g>
<g><path style="opacity:1" fill="#a53a35" d="M 95.5,73.5 C 93.1181,78.4023 91.4515,83.569 90.5,89C 91.6837,91.7158 92.6837,94.5491 93.5,97.5C 94.5,96.5 95.5,95.5 96.5,94.5C 96.2907,93.914 95.9574,93.414 95.5,93C 97.3211,91.2567 99.3211,89.7567 101.5,88.5C 100.249,87.3689 99.2485,86.0356 98.5,84.5C 98.5454,81.8105 99.8787,80.4772 102.5,80.5C 101.645,81.5307 100.978,82.6974 100.5,84C 100.57,84.7648 100.903,85.2648 101.5,85.5C 101.917,86.1239 102.584,86.4573 103.5,86.5C 105.568,84.4275 107.901,82.7608 110.5,81.5C 109.859,82.4822 109.193,83.4822 108.5,84.5C 110.369,85.6236 112.369,86.4569 114.5,87C 113.833,87.3333 113.167,87.6667 112.5,88C 113.167,89.3333 113.833,90.6667 114.5,92C 118.943,93.9403 123.61,94.9403 128.5,95C 131.29,97.2103 132.123,100.044 131,103.5C 129.108,104.13 127.441,105.13 126,106.5C 125.251,107.635 125.417,108.635 126.5,109.5C 129.421,110.407 132.421,110.74 135.5,110.5C 130.695,111.487 125.695,111.821 120.5,111.5C 118.833,111.5 117.167,111.5 115.5,111.5C 114.737,110.732 113.737,110.232 112.5,110C 115.119,109.849 117.453,109.015 119.5,107.5C 118.833,106.833 118.167,106.167 117.5,105.5C 121.511,104.969 125.344,103.969 129,102.5C 129.877,100.326 129.377,98.6591 127.5,97.5C 124.877,95.7345 121.877,95.0679 118.5,95.5C 117.07,95.4208 115.736,95.7542 114.5,96.5C 111.775,94.5714 108.775,94.0714 105.5,95C 104.643,95.6891 103.977,96.5224 103.5,97.5C 105.616,99.6 107.283,101.933 108.5,104.5C 108.597,107.911 106.93,109.245 103.5,108.5C 101.738,108.643 100.071,108.309 98.5,107.5C 94.7256,103.401 91.0589,99.4012 87.5,95.5C 87.0051,90.0967 87.8384,84.7633 90,79.5C 91.3819,76.9568 93.2152,74.9568 95.5,73.5 Z"/></g>
<g><path style="opacity:1" fill="#95423f" d="M 129.5,82.5 C 135.657,85.1275 141.823,85.1275 148,82.5C 149.533,82.7728 151.033,83.1062 152.5,83.5C 148.954,85.6459 145.287,87.6459 141.5,89.5C 141.953,88.5416 142.619,87.7083 143.5,87C 140.833,86.6667 138.167,86.3333 135.5,86C 132.975,85.5762 130.975,84.4095 129.5,82.5 Z"/></g>
<g><path style="opacity:1" fill="#a73735" d="M 178.5,77.5 C 179.434,78.5676 179.768,79.901 179.5,81.5C 177.926,83.1016 177.259,85.1016 177.5,87.5C 175.801,87.3398 174.134,87.5065 172.5,88C 180.592,89.3228 182.592,93.4895 178.5,100.5C 174.818,101.427 171.318,102.76 168,104.5C 165.071,102.954 162.238,101.287 159.5,99.5C 159.376,97.4184 158.376,95.9184 156.5,95C 153.833,94.3333 151.167,94.3333 148.5,95C 147.944,95.3826 147.611,95.8826 147.5,96.5C 145.989,97.5025 144.322,98.1692 142.5,98.5C 142.744,95.7374 144.077,93.5707 146.5,92C 151.833,90.6667 157.167,89.3333 162.5,88C 163.333,87.1667 164.167,86.3333 165,85.5C 165.575,81.0262 165.075,76.6929 163.5,72.5C 166.167,72.5 168.833,72.5 171.5,72.5C 171.5,73.8333 171.5,75.1667 171.5,76.5C 173.861,76.6741 176.194,77.0074 178.5,77.5 Z"/></g>
<g><path style="opacity:1" fill="#deb249" d="M 169.5,6.5 C 175.173,6.99095 180.506,8.32428 185.5,10.5C 184.5,10.5 183.5,10.5 182.5,10.5C 182.037,24.9019 182.704,39.2353 184.5,53.5C 187.086,55.6794 188.919,58.346 190,61.5C 190.308,60.6919 190.808,60.0253 191.5,59.5C 192.474,61.7427 192.808,64.076 192.5,66.5C 188.334,66.608 187.667,67.9413 190.5,70.5C 190.392,72.2229 190.892,73.8896 192,75.5C 194.064,74.4086 196.231,74.2419 198.5,75C 199.756,75.4169 200.423,76.2502 200.5,77.5C 199.193,78.1534 197.86,78.8201 196.5,79.5C 195.549,78.6744 194.549,78.5078 193.5,79C 194.167,80.3333 195.167,81.3333 196.5,82C 193.519,86.2614 193.852,90.0947 197.5,93.5C 197.971,99.2444 199.638,104.578 202.5,109.5C 199.221,113.146 195.887,113.313 192.5,110C 190.833,109.333 189.167,109.333 187.5,110C 184.228,110.437 182.561,112.27 182.5,115.5C 182.626,117.2 183.293,118.7 184.5,120C 184.056,121.762 183.556,121.595 183,119.5C 182.501,124.489 182.334,129.489 182.5,134.5C 183.5,134.5 184.5,134.5 185.5,134.5C 185.785,136.288 185.452,137.955 184.5,139.5C 183.914,139.291 183.414,138.957 183,138.5C 182.506,140.134 182.34,141.801 182.5,143.5C 181.053,132.969 180.72,122.302 181.5,111.5C 182.404,110.791 182.737,109.791 182.5,108.5C 184.527,106.82 186.861,105.653 189.5,105C 190.126,104.25 190.626,103.416 191,102.5C 191.667,97.5 191.667,92.5 191,87.5C 188.977,85.9873 189.144,84.6539 191.5,83.5C 189.699,80.4646 189.032,77.1313 189.5,73.5C 188.448,73.6495 187.448,73.4828 186.5,73C 184.115,69.9201 184.115,66.7534 186.5,63.5C 185.218,58.615 183.218,54.2817 180.5,50.5C 179.47,36.809 179.47,23.1424 180.5,9.5C 177.126,9.32564 173.793,8.82564 170.5,8C 169.944,7.61742 169.611,7.11742 169.5,6.5 Z"/></g>
<g><path style="opacity:1" fill="#e9b94a" d="M 247.5,97.5 C 246.334,100.562 244.834,103.562 243,106.5C 240.191,107.764 238.024,109.764 236.5,112.5C 235.094,111.332 233.928,111.665 233,113.5C 232.728,110.746 232.228,108.079 231.5,105.5C 232.803,101.333 232.803,97.166 231.5,93C 232.167,92.6667 232.833,92.3333 233.5,92C 233.108,89.6457 233.108,87.1457 233.5,84.5C 236.797,84.6713 237.131,84.0046 234.5,82.5C 234.63,80.362 234.63,78.362 234.5,76.5C 237.611,77.1798 239.778,75.8464 241,72.5C 241.631,73.8719 242.298,75.2052 243,76.5C 246.929,75.0216 248.429,76.1882 247.5,80C 247.611,81.7215 248.111,81.8882 249,80.5C 249.299,86.0247 248.799,91.6914 247.5,97.5 Z"/></g>
<g><path style="opacity:1" fill="#e1b64c" d="M 52.5,17.5 C 50.9408,19.6243 48.9408,21.291 46.5,22.5C 43.0344,23.109 42.0344,24.9423 43.5,28C 41.4732,29.3957 41.1398,31.0624 42.5,33C 39.8525,33.179 37.1859,33.0124 34.5,32.5C 32.0741,32.4035 29.9074,33.0702 28,34.5C 27.9018,43.0422 27.7352,51.5422 27.5,60C 28.2688,65.7957 28.7688,71.6291 29,77.5C 30.0386,78.2438 30.5386,79.2438 30.5,80.5C 30.5,84.8333 30.5,89.1667 30.5,93.5C 30.6572,100.023 31.3239,106.356 32.5,112.5C 32.5,113.833 32.5,115.167 32.5,116.5C 31.5,116.5 30.5,116.5 29.5,116.5C 26.5046,90.6117 24.8379,64.6117 24.5,38.5C 23.5,38.5 22.5,38.5 21.5,38.5C 29.9558,28.7689 40.2891,21.7689 52.5,17.5 Z"/></g>
<g><path style="opacity:1" fill="#e3b648" d="M 69.5,74.5 C 69.3354,76.8268 68.6687,78.9935 67.5,81C 68.3333,81.8333 69.1667,82.6667 70,83.5C 69.102,89.677 70.2687,95.5103 73.5,101C 73.1667,101.333 72.8333,101.667 72.5,102C 76.4969,105.649 80.4969,109.316 84.5,113C 83.8333,113.667 83.1667,114.333 82.5,115C 85.1667,116.667 85.1667,118.333 82.5,120C 82.8333,120.333 83.1667,120.667 83.5,121C 81.9532,121.333 80.6199,120.833 79.5,119.5C 78.8165,119.863 78.1499,120.196 77.5,120.5C 74.5329,122.473 71.1996,123.639 67.5,124C 69.4054,124.826 69.7388,125.993 68.5,127.5C 67.914,127.291 67.414,126.957 67,126.5C 66.425,129.286 64.925,131.286 62.5,132.5C 60.5051,122.85 60.1718,113.184 61.5,103.5C 60.905,97.7284 59.905,92.0618 58.5,86.5C 59.2389,86.631 59.9056,86.4643 60.5,86C 60.2071,80.9444 60.2071,75.7777 60.5,70.5C 60.3433,69.1266 60.51,67.7932 61,66.5C 62.4206,70.3233 63.4206,74.3233 64,78.5C 65.2408,77.0625 65.7408,75.5625 65.5,74C 66.8193,73.805 68.1526,73.9717 69.5,74.5 Z"/></g>
<g><path style="opacity:1" fill="#deb349" d="M 247.5,97.5 C 248.167,97.5 248.833,97.5 249.5,97.5C 249.214,100.937 247.881,103.937 245.5,106.5C 235.024,120.309 221.691,130.309 205.5,136.5C 205.414,135.504 205.748,134.671 206.5,134C 209.022,132.659 211.689,131.826 214.5,131.5C 214.708,129.08 214.374,126.747 213.5,124.5C 216.485,121.243 217.152,117.576 215.5,113.5C 217.802,112.14 219.468,112.807 220.5,115.5C 221.874,114.289 223.374,113.289 225,112.5C 226.465,113.33 227.965,113.496 229.5,113C 227.5,111.667 225.5,110.333 223.5,109C 223.957,108.586 224.291,108.086 224.5,107.5C 222.238,104.586 222.571,101.92 225.5,99.5C 227.167,99.5 228.833,99.5 230.5,99.5C 230.859,101.766 230.192,103.599 228.5,105C 229.448,105.483 230.448,105.649 231.5,105.5C 232.228,108.079 232.728,110.746 233,113.5C 233.928,111.665 235.094,111.332 236.5,112.5C 238.024,109.764 240.191,107.764 243,106.5C 244.834,103.562 246.334,100.562 247.5,97.5 Z"/></g>
<g><path style="opacity:1" fill="#e5b84a" d="M 59.5,70.5 C 59.8333,70.5 60.1667,70.5 60.5,70.5C 60.2071,75.7777 60.2071,80.9444 60.5,86C 59.9056,86.4643 59.2389,86.631 58.5,86.5C 57.8423,85.6016 57.1757,84.6016 56.5,83.5C 54.5137,85.9255 53.1804,88.7589 52.5,92C 53.5518,102.962 53.5518,113.462 52.5,123.5C 48.7155,124.13 45.0488,124.463 41.5,124.5C 40.0971,122.43 38.4304,120.763 36.5,119.5C 37.2071,117.219 38.2071,115.052 39.5,113C 38.8742,112.25 38.3742,111.416 38,110.5C 37.2995,114.775 35.4662,115.442 32.5,112.5C 31.3239,106.356 30.6572,100.023 30.5,93.5C 31.1653,95.6979 31.8319,98.0312 32.5,100.5C 34.1311,98.7026 36.1311,97.5359 38.5,97C 36.8333,96.6667 35.1667,96.3333 33.5,96C 32.9781,95.4387 32.6448,94.772 32.5,94C 33.8857,90.2164 35.219,86.383 36.5,82.5C 36.6698,84.5497 37.6698,86.5497 39.5,88.5C 40.7741,85.633 41.6075,82.633 42,79.5C 43.8255,78.4291 44.9921,79.0958 45.5,81.5C 44.878,84.3704 44.2113,87.2037 43.5,90C 44.1667,90.6667 44.8333,91.3333 45.5,92C 44.991,94.5697 43.991,96.9031 42.5,99C 44.6785,99.4419 45.3452,100.442 44.5,102C 45.448,102.483 46.448,102.649 47.5,102.5C 47.9543,93.5619 47.9543,84.7286 47.5,76C 48.3279,75.0853 49.3279,74.4186 50.5,74C 45.3021,72.1265 45.6354,70.7932 51.5,70C 50.6919,69.6924 50.0253,69.1924 49.5,68.5C 50.723,67.3861 52.0563,67.2195 53.5,68C 54.4239,68.85 54.4239,69.85 53.5,71C 54.6458,71.7594 55.6458,72.4261 56.5,73C 54.5239,75.7361 54.6905,78.5695 57,81.5C 59.0754,78.1656 59.9088,74.4989 59.5,70.5 Z"/></g>
<g><path style="opacity:1" fill="#632921" d="M 118.5,95.5 C 121.877,95.0679 124.877,95.7345 127.5,97.5C 127.863,99.9115 126.863,101.411 124.5,102C 120.445,102.232 116.445,102.732 112.5,103.5C 111.406,104.868 111.74,106.035 113.5,107C 109.176,107.045 108.51,105.379 111.5,102C 113.034,101.077 114.701,100.577 116.5,100.5C 118.832,101.172 121.166,101.339 123.5,101C 124.337,99.9887 124.67,98.8221 124.5,97.5C 121.99,97.9465 119.99,97.2798 118.5,95.5 Z"/></g>
<g><path style="opacity:1" fill="#af3637" d="M 124.5,77.5 C 125.785,79.4516 127.451,81.1182 129.5,82.5C 130.975,84.4095 132.975,85.5762 135.5,86C 138.167,86.3333 140.833,86.6667 143.5,87C 142.619,87.7083 141.953,88.5416 141.5,89.5C 137.785,90.8856 135.452,93.5523 134.5,97.5C 136.493,101.795 137.16,106.128 136.5,110.5C 136.167,110.5 135.833,110.5 135.5,110.5C 132.421,110.74 129.421,110.407 126.5,109.5C 125.417,108.635 125.251,107.635 126,106.5C 127.441,105.13 129.108,104.13 131,103.5C 132.123,100.044 131.29,97.2103 128.5,95C 123.61,94.9403 118.943,93.9403 114.5,92C 113.833,90.6667 113.167,89.3333 112.5,88C 113.167,87.6667 113.833,87.3333 114.5,87C 112.369,86.4569 110.369,85.6236 108.5,84.5C 109.193,83.4822 109.859,82.4822 110.5,81.5C 114.556,78.374 119.223,77.0407 124.5,77.5 Z"/></g>
<g><path style="opacity:1" fill="#8a4738" d="M 118.5,95.5 C 119.99,97.2798 121.99,97.9465 124.5,97.5C 124.67,98.8221 124.337,99.9887 123.5,101C 121.166,101.339 118.832,101.172 116.5,100.5C 114.701,100.577 113.034,101.077 111.5,102C 108.51,105.379 109.176,107.045 113.5,107C 111.74,106.035 111.406,104.868 112.5,103.5C 116.445,102.732 120.445,102.232 124.5,102C 126.863,101.411 127.863,99.9115 127.5,97.5C 129.377,98.6591 129.877,100.326 129,102.5C 125.344,103.969 121.511,104.969 117.5,105.5C 118.167,106.167 118.833,106.833 119.5,107.5C 117.453,109.015 115.119,109.849 112.5,110C 113.737,110.232 114.737,110.732 115.5,111.5C 111.159,111.342 107.159,110.342 103.5,108.5C 106.93,109.245 108.597,107.911 108.5,104.5C 107.283,101.933 105.616,99.6 103.5,97.5C 103.977,96.5224 104.643,95.6891 105.5,95C 108.775,94.0714 111.775,94.5714 114.5,96.5C 115.736,95.7542 117.07,95.4208 118.5,95.5 Z"/></g>
<g><path style="opacity:1" fill="#672222" d="M 130.5,121.5 C 131.519,123.54 131.519,125.54 130.5,127.5C 129.016,125.718 128.016,123.718 127.5,121.5C 126.281,117.62 123.615,115.62 119.5,115.5C 118.833,114.833 118.167,114.167 117.5,113.5C 119.179,113.715 120.179,113.048 120.5,111.5C 125.695,111.821 130.695,111.487 135.5,110.5C 135.833,110.5 136.167,110.5 136.5,110.5C 139.141,109.737 141.808,109.57 144.5,110C 137.135,112.886 129.468,114.22 121.5,114C 125.908,114.916 128.908,117.416 130.5,121.5 Z"/></g>
<g><path style="opacity:1" fill="#421a11" d="M 179.5,81.5 C 179.351,82.552 179.517,83.552 180,84.5C 180.333,84.1667 180.667,83.8333 181,83.5C 181.05,85.744 181.883,87.4107 183.5,88.5C 185.266,93.8446 184.599,98.8446 181.5,103.5C 174.259,108.905 166.259,112.738 157.5,115C 153.342,119.756 153.676,124.256 158.5,128.5C 157.051,129.172 155.718,129.839 154.5,130.5C 153.167,130.5 151.833,130.5 150.5,130.5C 144.178,131.014 137.845,131.347 131.5,131.5C 130.167,130.833 128.833,130.167 127.5,129.5C 130.059,129.802 132.393,129.468 134.5,128.5C 139.646,128.819 144.646,128.153 149.5,126.5C 148.804,118.748 152.137,113.248 159.5,110C 164.153,108.677 168.819,107.344 173.5,106C 175.373,104.296 177.04,102.463 178.5,100.5C 182.592,93.4895 180.592,89.3228 172.5,88C 174.134,87.5065 175.801,87.3398 177.5,87.5C 177.259,85.1016 177.926,83.1016 179.5,81.5 Z"/></g>
<g><path style="opacity:0.999" fill="#e6b94a" d="M 201.5,119.5 C 198.515,121.517 196.182,124.184 194.5,127.5C 193.346,125.144 192.013,124.977 190.5,127C 192.901,128.577 195.234,129.411 197.5,129.5C 196.585,130.328 195.919,131.328 195.5,132.5C 196.156,134.453 196.489,136.453 196.5,138.5C 192.097,140.659 187.431,142.326 182.5,143.5C 182.34,141.801 182.506,140.134 183,138.5C 183.414,138.957 183.914,139.291 184.5,139.5C 185.452,137.955 185.785,136.288 185.5,134.5C 184.5,134.5 183.5,134.5 182.5,134.5C 182.334,129.489 182.501,124.489 183,119.5C 183.556,121.595 184.056,121.762 184.5,120C 183.293,118.7 182.626,117.2 182.5,115.5C 183.5,115.5 184.5,115.5 185.5,115.5C 185.238,114.022 185.571,112.689 186.5,111.5C 188.488,112.289 188.821,113.455 187.5,115C 189.608,115.36 191.608,116.027 193.5,117C 192.833,117.667 192.167,118.333 191.5,119C 192.38,120.356 192.714,121.856 192.5,123.5C 196.473,122.925 197.473,120.758 195.5,117C 196.742,113.643 197.576,113.81 198,117.5C 200.149,116.16 201.316,116.827 201.5,119.5 Z"/></g>
<g><path style="opacity:1" fill="#4a2117" d="M 96.5,28.5 C 97.2064,33.2266 97.2064,37.8932 96.5,42.5C 98.1667,42.5 99.8333,42.5 101.5,42.5C 101.5,43.8333 101.5,45.1667 101.5,46.5C 99.3146,46.2964 97.3146,45.6298 95.5,44.5C 95.5,42.8333 95.5,41.1667 95.5,39.5C 90.3885,38.91 86.7218,40.91 84.5,45.5C 87.1468,48.4418 87.1468,51.4418 84.5,54.5C 86.4277,57.6206 87.761,60.9539 88.5,64.5C 87.1275,67.3428 86.1275,70.3428 85.5,73.5C 87.3417,73.7126 89.0084,73.7126 90.5,73.5C 85.3044,80.3572 84.3044,87.6905 87.5,95.5C 91.0589,99.4012 94.7256,103.401 98.5,107.5C 100.071,108.309 101.738,108.643 103.5,108.5C 107.159,110.342 111.159,111.342 115.5,111.5C 117.167,111.5 118.833,111.5 120.5,111.5C 120.179,113.048 119.179,113.715 117.5,113.5C 113.139,112.979 108.806,112.312 104.5,111.5C 103.672,115.796 103.172,120.129 103,124.5C 101.007,126.406 101.507,127.573 104.5,128C 112.18,128.403 119.847,128.903 127.5,129.5C 128.833,130.167 130.167,130.833 131.5,131.5C 121.122,131.804 110.789,131.304 100.5,130C 100.252,124.278 100.252,118.445 100.5,112.5C 98.2972,112.396 96.2972,111.73 94.5,110.5C 94.1667,109.833 93.8333,109.167 93.5,108.5C 89.0029,103.884 85.5029,98.5508 83,92.5C 83.0209,83.6627 83.5209,74.8294 84.5,66C 82.5293,62.478 81.196,58.6447 80.5,54.5C 81.6043,53.0026 82.6043,51.336 83.5,49.5C 79.1092,45.7659 78.4425,41.4326 81.5,36.5C 82.8333,36.1667 84.1667,35.8333 85.5,35.5C 88.8333,35.5 92.1667,35.5 95.5,35.5C 95.1984,32.9407 95.5318,30.6074 96.5,28.5 Z"/></g>
<g><path style="opacity:1" fill="#a33a37" d="M 141.5,89.5 C 137.157,93.0682 136.49,97.2348 139.5,102C 146.781,104.722 153.447,103.889 159.5,99.5C 162.238,101.287 165.071,102.954 168,104.5C 171.318,102.76 174.818,101.427 178.5,100.5C 177.04,102.463 175.373,104.296 173.5,106C 168.819,107.344 164.153,108.677 159.5,110C 152.137,113.248 148.804,118.748 149.5,126.5C 144.646,128.153 139.646,128.819 134.5,128.5C 133.167,126.167 131.833,123.833 130.5,121.5C 128.908,117.416 125.908,114.916 121.5,114C 129.468,114.22 137.135,112.886 144.5,110C 141.808,109.57 139.141,109.737 136.5,110.5C 137.16,106.128 136.493,101.795 134.5,97.5C 135.452,93.5523 137.785,90.8856 141.5,89.5 Z"/></g>
<g><path style="opacity:1" fill="#b03437" d="M 153.5,106.5 C 159.253,106.862 159.586,107.862 154.5,109.5C 153.539,112.295 151.706,114.295 149,115.5C 147.997,119.957 145.163,121.624 140.5,120.5C 140.421,121.93 140.754,123.264 141.5,124.5C 141.113,125.72 140.28,126.387 139,126.5C 136.511,124.837 135.011,122.503 134.5,119.5C 133.675,118.614 132.675,118.281 131.5,118.5C 131.5,117.5 131.5,116.5 131.5,115.5C 137.192,114.988 142.525,113.321 147.5,110.5C 147.167,109.833 146.833,109.167 146.5,108.5C 148.969,107.832 151.302,107.165 153.5,106.5 Z"/></g>
<g><path style="opacity:1" fill="#9d7b37" d="M 186.5,77.5 C 186.32,83.03 186.987,88.6967 188.5,94.5C 188.299,96.973 187.632,99.3064 186.5,101.5C 184.069,102.36 182.736,104.027 182.5,106.5C 175.493,109 168.827,112.166 162.5,116C 160.963,117.11 160.297,118.61 160.5,120.5C 159.5,120.5 158.5,120.5 157.5,120.5C 158.465,122.965 159.465,125.465 160.5,128C 160.355,128.772 160.022,129.439 159.5,130C 157.866,130.494 156.199,130.66 154.5,130.5C 155.718,129.839 157.051,129.172 158.5,128.5C 153.676,124.256 153.342,119.756 157.5,115C 166.259,112.738 174.259,108.905 181.5,103.5C 184.599,98.8446 185.266,93.8446 183.5,88.5C 183.654,84.5473 184.654,80.8806 186.5,77.5 Z"/></g>
<g><path style="opacity:1" fill="#e4b84b" d="M 77.5,120.5 C 78.4132,122.086 78.4132,123.586 77.5,125C 79.7349,126.883 82.0683,128.717 84.5,130.5C 85.086,130.291 85.586,129.957 86,129.5C 86.6838,130.784 86.5171,131.951 85.5,133C 86.7287,133.781 88.062,134.281 89.5,134.5C 93.1325,133.65 96.7991,133.65 100.5,134.5C 101.167,134.5 101.5,134.833 101.5,135.5C 101.586,139.857 101.92,144.19 102.5,148.5C 91.5388,147.057 80.5388,145.39 69.5,143.5C 68.8333,143.167 68.1667,142.833 67.5,142.5C 66.8707,140.003 65.204,138.67 62.5,138.5C 62.5,136.5 62.5,134.5 62.5,132.5C 64.925,131.286 66.425,129.286 67,126.5C 67.414,126.957 67.914,127.291 68.5,127.5C 69.7388,125.993 69.4054,124.826 67.5,124C 71.1996,123.639 74.5329,122.473 77.5,120.5 Z"/></g>
<g><path style="opacity:1" fill="#9d3332" d="M 119.5,115.5 C 123.615,115.62 126.281,117.62 127.5,121.5C 127.5,123.167 127.5,124.833 127.5,126.5C 125.61,126.703 124.11,126.037 123,124.5C 123.379,122.925 123.212,121.425 122.5,120C 119.479,119.327 116.479,118.993 113.5,119C 115,120.5 116.5,122 118,123.5C 118.749,124.635 118.583,125.635 117.5,126.5C 113.892,127.593 110.225,127.76 106.5,127C 105.978,126.439 105.645,125.772 105.5,125C 106.726,121.598 107.393,118.098 107.5,114.5C 111.519,114.646 115.519,114.979 119.5,115.5 Z"/></g>
<g><path style="opacity:1" fill="#853832" d="M 117.5,113.5 C 118.167,114.167 118.833,114.833 119.5,115.5C 115.519,114.979 111.519,114.646 107.5,114.5C 107.393,118.098 106.726,121.598 105.5,125C 105.645,125.772 105.978,126.439 106.5,127C 110.225,127.76 113.892,127.593 117.5,126.5C 118.583,125.635 118.749,124.635 118,123.5C 116.5,122 115,120.5 113.5,119C 116.479,118.993 119.479,119.327 122.5,120C 123.212,121.425 123.379,122.925 123,124.5C 124.11,126.037 125.61,126.703 127.5,126.5C 127.5,124.833 127.5,123.167 127.5,121.5C 128.016,123.718 129.016,125.718 130.5,127.5C 131.519,125.54 131.519,123.54 130.5,121.5C 131.833,123.833 133.167,126.167 134.5,128.5C 132.393,129.468 130.059,129.802 127.5,129.5C 119.847,128.903 112.18,128.403 104.5,128C 101.507,127.573 101.007,126.406 103,124.5C 103.172,120.129 103.672,115.796 104.5,111.5C 108.806,112.312 113.139,112.979 117.5,113.5 Z"/></g>
<g><path style="opacity:1" fill="#e4b548" d="M 215.5,113.5 C 217.152,117.576 216.485,121.243 213.5,124.5C 214.374,126.747 214.708,129.08 214.5,131.5C 211.689,131.826 209.022,132.659 206.5,134C 205.748,134.671 205.414,135.504 205.5,136.5C 204.486,137.674 203.153,138.34 201.5,138.5C 199.833,138.5 198.167,138.5 196.5,138.5C 196.489,136.453 196.156,134.453 195.5,132.5C 195.919,131.328 196.585,130.328 197.5,129.5C 195.234,129.411 192.901,128.577 190.5,127C 192.013,124.977 193.346,125.144 194.5,127.5C 196.182,124.184 198.515,121.517 201.5,119.5C 205.085,112.845 207.418,113.178 208.5,120.5C 210.098,121.485 211.765,121.651 213.5,121C 214.123,118.393 214.79,115.893 215.5,113.5 Z"/></g>
<g><path style="opacity:0.999" fill="#e4b94f" d="M 179.5,146.5 C 174.126,148.592 168.46,149.925 162.5,150.5C 145.864,151.505 129.198,151.505 112.5,150.5C 120.8,149.629 129.133,149.295 137.5,149.5C 137.238,148.022 137.571,146.689 138.5,145.5C 139.983,147.946 141.149,147.612 142,144.5C 144.822,149.604 146.322,148.937 146.5,142.5C 147.552,142.649 148.552,142.483 149.5,142C 145.038,137.237 141.205,137.737 138,143.5C 137.803,141.139 136.636,139.472 134.5,138.5C 129.172,138.631 123.839,138.631 118.5,138.5C 121.99,138.113 125.823,137.779 130,137.5C 133.116,137.28 135.95,137.947 138.5,139.5C 143.916,136.39 148.75,137.056 153,141.5C 155.069,140.736 157.236,140.236 159.5,140C 162.733,136.56 166.4,134.56 170.5,134C 167.867,131.087 168.533,129.254 172.5,128.5C 172.351,129.552 172.517,130.552 173,131.5C 174.677,129.475 175.677,127.141 176,124.5C 176.333,124.833 176.667,125.167 177,125.5C 178.086,132.501 178.92,139.501 179.5,146.5 Z"/></g>
<g><path style="opacity:1" fill="#906f35" d="M 94.5,110.5 C 96.2972,111.73 98.2972,112.396 100.5,112.5C 100.252,118.445 100.252,124.278 100.5,130C 110.789,131.304 121.122,131.804 131.5,131.5C 137.845,131.347 144.178,131.014 150.5,130.5C 149.391,131.29 148.058,131.79 146.5,132C 130.789,132.802 115.122,132.636 99.5,131.5C 98.0077,130.393 97.0077,128.893 96.5,127C 97.5127,122.529 97.6794,118.029 97,113.5C 95.583,112.922 94.7496,111.922 94.5,110.5 Z"/></g>
<g><path style="opacity:1" fill="#c7a142" d="M 182.5,106.5 C 182.5,107.167 182.5,107.833 182.5,108.5C 182.737,109.791 182.404,110.791 181.5,111.5C 178.391,113.021 175.058,113.854 171.5,114C 170.667,114.833 169.833,115.667 169,116.5C 168.028,121.325 166.528,125.992 164.5,130.5C 162.042,131.124 160.376,132.624 159.5,135C 157.5,135.5 155.5,136 153.5,136.5C 148.326,135.193 143.159,135.193 138,136.5C 128.277,136.051 118.611,135.051 109,133.5C 106.333,133.167 104.333,134.167 103,136.5C 102.617,135.944 102.117,135.611 101.5,135.5C 101.5,134.833 101.167,134.5 100.5,134.5C 100.443,133.391 100.11,132.391 99.5,131.5C 115.122,132.636 130.789,132.802 146.5,132C 148.058,131.79 149.391,131.29 150.5,130.5C 151.833,130.5 153.167,130.5 154.5,130.5C 156.199,130.66 157.866,130.494 159.5,130C 160.022,129.439 160.355,128.772 160.5,128C 159.465,125.465 158.465,122.965 157.5,120.5C 158.5,120.5 159.5,120.5 160.5,120.5C 160.297,118.61 160.963,117.11 162.5,116C 168.827,112.166 175.493,109 182.5,106.5 Z"/></g>
<g><path style="opacity:1" fill="#dbb24a" d="M 181.5,111.5 C 180.72,122.302 181.053,132.969 182.5,143.5C 187.431,142.326 192.097,140.659 196.5,138.5C 198.167,138.5 199.833,138.5 201.5,138.5C 194.602,142.135 187.268,144.802 179.5,146.5C 178.92,139.501 178.086,132.501 177,125.5C 176.667,125.167 176.333,124.833 176,124.5C 175.677,127.141 174.677,129.475 173,131.5C 172.517,130.552 172.351,129.552 172.5,128.5C 168.533,129.254 167.867,131.087 170.5,134C 166.4,134.56 162.733,136.56 159.5,140C 157.236,140.236 155.069,140.736 153,141.5C 148.75,137.056 143.916,136.39 138.5,139.5C 135.95,137.947 133.116,137.28 130,137.5C 125.823,137.779 121.99,138.113 118.5,138.5C 114.413,138.52 110.413,138.353 106.5,138C 105.54,141.73 105.207,145.563 105.5,149.5C 102.5,149.5 99.5,149.5 96.5,149.5C 87.1679,148.451 78.1679,146.451 69.5,143.5C 80.5388,145.39 91.5388,147.057 102.5,148.5C 101.92,144.19 101.586,139.857 101.5,135.5C 102.117,135.611 102.617,135.944 103,136.5C 104.333,134.167 106.333,133.167 109,133.5C 118.611,135.051 128.277,136.051 138,136.5C 143.159,135.193 148.326,135.193 153.5,136.5C 155.5,136 157.5,135.5 159.5,135C 160.376,132.624 162.042,131.124 164.5,130.5C 166.528,125.992 168.028,121.325 169,116.5C 169.833,115.667 170.667,114.833 171.5,114C 175.058,113.854 178.391,113.021 181.5,111.5 Z"/></g>
<g><path style="opacity:1" fill="#ecc050" d="M 118.5,138.5 C 123.839,138.631 129.172,138.631 134.5,138.5C 136.636,139.472 137.803,141.139 138,143.5C 141.205,137.737 145.038,137.237 149.5,142C 148.552,142.483 147.552,142.649 146.5,142.5C 146.322,148.937 144.822,149.604 142,144.5C 141.149,147.612 139.983,147.946 138.5,145.5C 137.571,146.689 137.238,148.022 137.5,149.5C 129.133,149.295 120.8,149.629 112.5,150.5C 109.941,150.802 107.607,150.468 105.5,149.5C 105.207,145.563 105.54,141.73 106.5,138C 110.413,138.353 114.413,138.52 118.5,138.5 Z"/></g>
<g><path style="opacity:0.047" fill="#bea97e" d="M 42.5,132.5 C 50.3276,137 58.6609,140.334 67.5,142.5C 68.1667,142.833 68.8333,143.167 69.5,143.5C 78.1679,146.451 87.1679,148.451 96.5,149.5C 99.1589,149.917 101.492,150.917 103.5,152.5C 81.4663,150.152 60.7997,143.819 41.5,133.5C 42.1667,133.5 42.5,133.167 42.5,132.5 Z"/></g>
<g><path style="opacity:0.333" fill="#ceae65" d="M 96.5,149.5 C 99.5,149.5 102.5,149.5 105.5,149.5C 107.607,150.468 109.941,150.802 112.5,150.5C 129.198,151.505 145.864,151.505 162.5,150.5C 157.072,151.506 151.738,152.506 146.5,153.5C 133.5,153.5 120.5,153.5 107.5,153.5C 106.432,152.566 105.099,152.232 103.5,152.5C 101.492,150.917 99.1589,149.917 96.5,149.5 Z"/></g>
</svg>
