<svg xmlns="http://www.w3.org/2000/svg" width="256" height="154" style="shape-rendering:geometricPrecision;text-rendering:geometricPrecision;image-rendering:optimizeQuality;fill-rule:evenodd;clip-rule:evenodd"><path fill="#cc1226" d="M-.5-.5h256v154H-.5V-.5Z" style="opacity:1"/><path fill="#a02326" d="M134.5 15.5a14.694 14.694 0 0 1-3.5-3 18.452 18.452 0 0 0-.5 6h-9c-1.599.268-2.932-.066-4-1 4.055.324 8.055-.01 12-1-1.461-2.31-1.794-4.644-1-7 3.008.518 5.341 2.018 7 4.5-.556.383-.889.883-1 1.5Z" style="opacity:1"/><path fill="#a62623" d="M116.5 17.5c-3.461-.61-6.128.556-8 3.5-3.196.805-6.196.638-9-.5 2.747.313 5.414-.02 8-1a3.647 3.647 0 0 0-1-1.5c2.328-.83 4.662-1.663 7-2.5 1.53.14 2.53.806 3 2Z" style="opacity:1"/><path fill="#e2c234" d="M134.5 15.5v2c-1.068.934-2.401 1.268-4 1a18.452 18.452 0 0 1 .5-6 14.694 14.694 0 0 0 3.5 3Z" style="opacity:1"/><path fill="#952620" d="M197.5 25.5c1.086-.12 1.753-.787 2-2-.885-3.193-1.219-6.193-1-9 .815-2.408 2.481-3.24 5-2.5l-2.5 2.5a31.337 31.337 0 0 0 .5 12c-1.599.268-2.932-.066-4-1Z" style="opacity:1"/><path fill="#ad2223" d="M228.5 21.5c.731-2.099.731-4.099 0-6-3.488 6.416-8.821 10.416-16 12 .901-2.227 2.567-3.227 5-3v-3l6-1a32.462 32.462 0 0 1 .5-8c1.673 2.417 3.506 2.417 5.5 0 1.152 2.606 1.318 5.273.5 8-.383.556-.883.89-1.5 1Z" style="opacity:1"/><path fill="#9a3823" d="M142.5 31.5h-2c-.453-.958-1.119-1.792-2-2.5 3.552-4.222 4.719-9.055 3.5-14.5-.383.556-.883.89-1.5 1 1.639-6.563 2.972-6.396 4 .5a46.964 46.964 0 0 1-3 12.5 5.575 5.575 0 0 1 1 3Z" style="opacity:1"/><path fill="#972c23" d="M48.5 29.5a36.213 36.213 0 0 0 4.5 2c.76 2.48-.074 4.148-2.5 5 .221-1.235.888-2.235 2-3l-6-2c.355-1.022 1.022-1.689 2-2Z" style="opacity:1"/><path fill="#86391f" d="M96.5 36.5c-2.107.968-4.44 1.302-7 1v-3c-2.885-.306-5.552.027-8 1-2.43-1.153-2.43-2.153 0-3a29.153 29.153 0 0 0 9 1v3h6Z" style="opacity:1"/><path fill="#9f2e23" d="M93.5 28.5c1.244 2.3 3.244 3.634 6 4 6.067-3.22 11.567-2.554 16.5 2 .494 1.634.66 3.3.5 5-1.91-2.062-4.243-3.562-7-4.5a26.719 26.719 0 0 0-13 1.5c-2.007-2.188-3.007-4.855-3-8Z" style="opacity:1"/><path fill="#e6c739" d="M141.5 31.5h1a20.967 20.967 0 0 1 3 4.5c-.676 1.683-1.676 1.85-3 .5-.801-1.542-1.134-3.209-1-5Z" style="opacity:1"/><path fill="#8d772a" d="M140.5 31.5h1c-.134 1.791.199 3.458 1 5-.961 1.765-1.295 3.765-1 6-1.003-2.885-1.336-6.551-1-11Z" style="opacity:1"/><path fill="#f0d52d" d="M71.5 37.5c1.447.634 2.113 1.8 2 3.5-.028 1.07-.361 1.903-1 2.5-3.299-1.801-3.632-3.801-1-6Z" style="opacity:1"/><path fill="#d9b830" d="M81.5 35.5c2.448-.973 5.115-1.306 8-1v3c2.56.302 4.893-.032 7-1a26.719 26.719 0 0 1 13-1.5c2.757.938 5.09 2.438 7 4.5-.111.617-.444 1.117-1 1.5a32.438 32.438 0 0 1-8 .5c2.131-.814 4.464-1.314 7-1.5a24.046 24.046 0 0 0-9-2.5 5824.879 5824.879 0 0 1-12 3c-1.56-.02-3.06-.352-4.5-1-.945.405-1.612 1.072-2 2-1.331-2.496-3.164-4.496-5.5-6Z" style="opacity:1"/><path fill="#a32624" d="M107.5 41.5a25.87 25.87 0 0 0-10 1l-2 5 1.5 1c6.547-3.42 13.381-3.92 20.5-1.5-1.473.71-2.14 1.876-2 3.5h-5c-1.107-2.431-3.107-3.431-6-3a1882.537 1882.537 0 0 1-10 3c-.158-3.045.508-5.879 2-8.5-1.237-.232-2.237-.732-3-1.5 3.992-.993 7.991-1.993 12-3a24.046 24.046 0 0 1 9 2.5c-2.536.186-4.869.686-7 1.5Z" style="opacity:1"/><path fill="#f1d024" d="M198.5 14.5c-.219 2.807.115 5.807 1 9-.247 1.213-.914 1.88-2 2-2.711-.315-5.044.352-7 2-.838.342-1.172 1.008-1 2a87.099 87.099 0 0 0-22 1.5c7.297-.3 14.63-.467 22-.5 4.863.32 9.53-.014 14-1 3.377.432 6.377-.235 9-2 7.179-1.584 12.512-5.584 16-12 .731 1.901.731 3.901 0 6a68.972 68.972 0 0 1-6 8.5 89.82 89.82 0 0 0-15 10.5c-.968 2.107-1.302 4.44-1 7a51.648 51.648 0 0 1-7-1c-3.632-2.04-7.632-3.207-12-3.5a67.356 67.356 0 0 0-24 1.5l-2-1a39.718 39.718 0 0 1 5-7c-4.915 2.808-7.581 7.141-8 13a8736.22 8736.22 0 0 1-8 18 42.918 42.918 0 0 1-9.5 5 1434.034 1434.034 0 0 1-18.5-3c-1.226.02-2.226.353-3 1-1.291.237-2.291-.096-3-1 .048-1.007-.952-1.34-3-1 3.462-.982 7.129-1.315 11-1h4c6.923 1.14 12.59-.86 17-6a6.544 6.544 0 0 0 3-3c6.333-5.627 7.333-11.96 3-19-.882-4.41.452-7.91 4-10.5 8.71-.957 17.377-2.29 26-4 6.03-3.01 11.696-6.51 17-10.5Z" style="opacity:1"/><path fill="#9b872b" d="M163.5 32.5a2.427 2.427 0 0 1 2 .5c-3.262 2.592-5.762 5.759-7.5 9.5.493-3.98 2.327-7.314 5.5-10Z" style="opacity:1"/><path fill="#a28b26" d="M166.5 36.5c.558-1.29 1.558-2.123 3-2.5l30-1a75.674 75.674 0 0 1 14-2 44.8 44.8 0 0 1-11 3l-32 1a10.122 10.122 0 0 1-4 1.5Z" style="opacity:1"/><path fill="#7b3819" d="M190.5 27.5c3.873 1.93 8.206 2.597 13 2-4.47.986-9.137 1.32-14 1v-1c-.172-.992.162-1.658 1-2Z" style="opacity:1"/><path fill="#907c27" d="M189.5 29.5v1c-7.37.033-14.703.2-22 .5a87.099 87.099 0 0 1 22-1.5Z" style="opacity:1"/><path fill="#993d24" d="M34.5 39.5a36.213 36.213 0 0 0 4.5 2c.495 1.973.662 3.973.5 6a36.213 36.213 0 0 1-2-4.5c-1.399-.595-2.732-.428-4 .5-1.31-1.74-.976-3.073 1-4Z" style="opacity:1"/><path fill="#b08f2f" d="M71.5 37.5c-2.632 2.199-2.299 4.199 1 6 .284 1.915-.049 3.581-1 5 .127-4.873-2.206-6.873-7-6 1.068-.934 2.401-1.268 4-1v-5c1.291-.237 2.291.096 3 1Z" style="opacity:1"/><path fill="#aa2525" d="M50.5 36.5c-.04 2.925.793 5.591 2.5 8 .667 3 .667 6 0 9A106.988 106.988 0 0 1 45.5 39c-3.324-1.616-6.657-1.783-10-.5-.086-.996.248-1.83 1-2.5 3.794-.283 7.46.383 11 2a15.276 15.276 0 0 1 1.5 4.5c.19-2.208.69-4.208 1.5-6Z" style="opacity:1"/><path fill="#a52a21" d="M50.5 28.5c2.524-1.3 5.19-1.3 8 0 .747 3.355 2.414 6.522 5 9.5-1.342 2.015-1.842 4.182-1.5 6.5.383-.556.883-.89 1.5-1-.673 4.514-2.506 8.514-5.5 12a180.183 180.183 0 0 1 2.5-21c-2.776.411-3.443-.422-2-2.5-.26-1.261-.926-2.261-2-3a18.436 18.436 0 0 0-6-.5Z" style="opacity:1"/><path fill="#a38b2e" d="M166.5 36.5a39.718 39.718 0 0 0-5 7l2 1a67.356 67.356 0 0 1 24-1.5c4.368.293 8.368 1.46 12 3.5-13.063-4.092-26.063-3.926-39 .5-.566.995-1.233 1.828-2 2.5.419-5.859 3.085-10.192 8-13Z" style="opacity:1"/><path fill="#a62725" d="M151.5 39.5c4.333 7.04 3.333 13.373-3 19 .093-3.65 1.426-6.817 4-9.5.09-3.024-.244-6.191-1-9.5Z" style="opacity:1"/><path fill="#af9235" d="M207.5 40.5a23.833 23.833 0 0 0 1 9c-1.168 1.717-2.835 2.384-5 2 .418-.722 1.084-1.222 2-1.5-2.227-.941-4.227-2.108-6-3.5 2.306.493 4.639.826 7 1-.302-2.56.032-4.893 1-7Z" style="opacity:1"/><path fill="#b22324" d="M142.5 31.5c1.517.01 2.684.677 3.5 2 1.613 5.968 1.613 11.968 0 18-1.333 1.333-2.667 1.333-4 0-1.25 4.4-.084 7.733 3.5 10-4.41 5.14-10.077 7.14-17 6v-2a35.068 35.068 0 0 0 6-8h2c1.822 5.096 3.155 5.096 4 0-.02-1.226-.353-2.226-1-3-.734-1.208-1.067-2.541-1-4v-1c1.278-.282 2.278-.949 3-2 .958.453 1.792 1.12 2.5 2 1.087-3.114.254-5.447-2.5-7-.295-2.235.039-4.235 1-6 1.324 1.35 2.324 1.183 3-.5a20.967 20.967 0 0 0-3-4.5Z" style="opacity:1"/><path fill="#a54125" d="M109.5 51.5v3h-7v3h-5c.709-.904 1.709-1.237 3-1-.219-1.175.114-2.175 1-3 2.697-.67 5.363-1.336 8-2Z" style="opacity:1"/><path fill="#7e4826" d="m227.5 51.5-2 4a9.86 9.86 0 0 1 1-6c.798.457 1.131 1.124 1 2Z" style="opacity:1"/><path fill="#efce25" d="M50.5 28.5a18.436 18.436 0 0 1 6 .5c1.074.739 1.74 1.739 2 3-1.443 2.078-.776 2.911 2 2.5a180.183 180.183 0 0 0-2.5 21c2.994-3.486 4.827-7.486 5.5-12 0-.667.333-1 1-1 4.794-.873 7.127 1.127 7 6a76.3 76.3 0 0 0-10.5 9 12.5 12.5 0 0 0 0 7 393.024 393.024 0 0 1 16.5 17c-.321 1.548-1.321 2.215-3 2-.346-4.167-2.68-6-7-5.5a4.452 4.452 0 0 0 2-1.5 32.371 32.371 0 0 0-5.5-4c-1.372 1.41-2.205 3.077-2.5 5a40.708 40.708 0 0 0-8.5-10 3.943 3.943 0 0 0-2 1c-2.496 8.478-7.996 11.812-16.5 10 .086-.996-.248-1.83-1-2.5a20.216 20.216 0 0 0 6-1.5c-1.322-2.365-1.322-4.698 0-7 3.373-.566 6.373-1.9 9-4 1.885-2.295 2.385-4.962 1.5-8-.748-2.251-2.248-3.584-4.5-4l-6-4a18.436 18.436 0 0 0-.5-6 36.213 36.213 0 0 1-4.5-2c0-.667.333-1 1-1 3.343-1.283 6.676-1.116 10 .5A106.988 106.988 0 0 0 53 53.5c.667-3 .667-6 0-9-1.707-2.409-2.54-5.075-2.5-8 2.426-.852 3.26-2.52 2.5-5a36.213 36.213 0 0 1-4.5-2l2-1Z" style="opacity:1"/><path fill="#d6b32e" d="M227.5 51.5c2.963 6.552 3.63 13.219 2 20a72.368 72.368 0 0 0-.5-12c-1.092-2.431-2.259-2.431-3.5 0v-4l2-4Z" style="opacity:1"/><path fill="#a33824" d="M45.5 51.5c2.252.416 3.752 1.749 4.5 4 .885 3.038.385 5.705-1.5 8a40.936 40.936 0 0 0-.5-9c-1.417-.578-2.25-1.578-2.5-3Z" style="opacity:1"/><path fill="#ae9733" d="M193.5 62.5c.284 1.915-.049 3.581-1 5a54.199 54.199 0 0 0-5-7.5c2.268-.09 3.768 1.077 4.5 3.5.383-.556.883-.89 1.5-1Z" style="opacity:1"/><path fill="#8d311e" d="M196.5 55.5a55.4 55.4 0 0 0-2 13c-7.388-.985-12.055 2.015-14 9h-1v-1c1.664-6.677 5.997-9.677 13-9 .951-1.419 1.284-3.085 1-5-.592-3.13.408-5.464 3-7Z" style="opacity:1"/><path fill="#8f501d" d="M87.5 64.5v5c-1.459-.067-2.792.266-4 1 .321-1.548 1.321-2.215 3-2-.268-1.599.066-2.932 1-4Z" style="opacity:1"/><path fill="#9a2821" d="M225.5 59.5c-2.421 6.048-6.755 10.048-13 12-4.797.06-9.131 1.06-13 3-.904-.709-1.237-1.709-1-3 6.293.272 12.293-.728 18-3-.381-2.442.286-3.109 2-2 1.699-3.032 4.032-5.365 7-7Z" style="opacity:1"/><path fill="#a78c2b" d="M179.5 76.5v2a193.775 193.775 0 0 1-12-11.5c.667-.667 1.333-.667 2 0a133.355 133.355 0 0 0 10 9.5Z" style="opacity:1"/><path fill="#f7d51b" d="M229.5 71.5c.31 4.2-.357 8.2-2 12h-3c.043 4.393-.457 4.726-1.5 1-.654 1.196-1.154 1.196-1.5 0 2.692-2.496 2.525-4.83-.5-7-1.049 1.607-2.549 2.273-4.5 2v-3c-4.292.465-8.292-.368-12-2.5 2.957-.28 5.623-1.113 8-2.5 6.245-1.952 10.579-5.952 13-12 1.241-2.431 2.408-2.431 3.5 0 .499 3.986.666 7.986.5 12Z" style="opacity:1"/><path fill="#8b321e" d="M39.5 67.5c-1.322 2.302-1.322 4.635 0 7a20.216 20.216 0 0 1-6 1.5c.752.67 1.086 1.504 1 2.5-1.604-.787-2.27-2.12-2-4h5c-.51-2.888.157-5.221 2-7Z" style="opacity:1"/><path fill="#eecc26" d="M212.5 71.5c-2.377 1.387-5.043 2.22-8 2.5 3.708 2.132 7.708 2.965 12 2.5v3c1.951.273 3.451-.393 4.5-2 3.025 2.17 3.192 4.504.5 7 .346 1.196.846 1.196 1.5 0 1.043 3.726 1.543 3.393 1.5-1h3a4201.139 4201.139 0 0 1-4 9c-.958.453-1.792 1.12-2.5 2l-1-13a63.68 63.68 0 0 0-6.5 7 68.7 68.7 0 0 1-14 7c-2.414-1.41-4.081-3.41-5-6a99.923 99.923 0 0 0 21-11.5c-4.489 1.064-8.822.564-13-1.5-.473-1.406-1.473-2.073-3-2 3.869-1.94 8.203-2.94 13-3Z" style="opacity:1"/><path fill="#af2123" d="M179.5 77.5h1c-.262 1.478.071 2.811 1 4 2.472-1.266 4.806-1.266 7 0-3.382.226-6.382 1.226-9 3a496.933 496.933 0 0 0-14-1.5 16.66 16.66 0 0 1 4-4c3.543-.144 6.876-.311 10-.5v-1Z" style="opacity:1"/><path fill="#ccad35" d="M188.5 81.5h1c1.038 1.608.371 2.608-2 3-.886.825-1.219 1.825-1 3-2.518-.764-4.851-1.764-7-3 2.618-1.774 5.618-2.774 9-3Z" style="opacity:1"/><path fill="#b42025" d="M202.5 76.5c4.178 2.064 8.511 2.564 13 1.5a99.923 99.923 0 0 1-21 11.5l-2 1-6-3c-.219-1.175.114-2.175 1-3 2.371-.392 3.038-1.392 2-3 2.535 1.667 5.368 2.667 8.5 3l4.5-1a97.246 97.246 0 0 1 0-7Z" style="opacity:1"/><path fill="#8f2c21" d="M223.5 92.5c-.555 2.229-1.889 3.895-4 5-.153-4.243-.32-8.576-.5-13-1.451 1.964-3.284 3.297-5.5 4a63.68 63.68 0 0 1 6.5-7l1 13c.708-.88 1.542-1.547 2.5-2Z" style="opacity:1"/><path fill="#a18a32" d="M194.5 89.5c.919 2.59 2.586 4.59 5 6v2c-2.667-2-5-4.333-7-7l2-1Z" style="opacity:1"/><path fill="#f5d41d" d="M140.5 31.5c-.336 4.449-.003 8.115 1 11 2.754 1.553 3.587 3.886 2.5 7-.708-.88-1.542-1.547-2.5-2-1.612-3.408-2.612-2.741-3 2v1a36.063 36.063 0 0 0-4 7 35.068 35.068 0 0 1-6 8 127.66 127.66 0 0 1-12-1c-3.794-.177-7.127.823-10 3 6.151-1.164 12.151-1.164 18 0-3.871-.315-7.538.018-11 1a12.935 12.935 0 0 0-5 .5c-1.456.423-1.956 1.256-1.5 2.5 2.904-1.727 6.07-2.394 9.5-2 .709.904 1.709 1.237 3 1a99.532 99.532 0 0 1 21 4c.926 4.962.926 9.962 0 15 1.599-5.069 2.433-10.402 2.5-16a25.285 25.285 0 0 1 6-3c1.798 1.004 3.632 1.504 5.5 1.5-2.135-.876-3.469-2.376-4-4.5a25.025 25.025 0 0 0 5-3.5h8a98.92 98.92 0 0 0-9-2.5c.77-3.42 2.77-5.587 6-6.5a6.807 6.807 0 0 1-3-1.5 6.845 6.845 0 0 0 1-4c.767-.672 1.434-1.505 2-2.5 12.937-4.426 25.937-4.592 39-.5 1.773 1.392 3.773 2.559 6 3.5-.916.278-1.582.778-2 1.5-3.114.055-5.448 1.388-7 4-2.592 1.536-3.592 3.87-3 7-.617.11-1.117.444-1.5 1-.732-2.423-2.232-3.59-4.5-3.5a54.199 54.199 0 0 1 5 7.5c-7.003-.677-11.336 2.323-13 9a133.355 133.355 0 0 1-10-9.5c-.667-.667-1.333-.667-2 0a193.775 193.775 0 0 0 12 11.5c-3.124.189-6.457.356-10 .5a16.66 16.66 0 0 0-4 4c4.684.435 9.351.935 14 1.5 2.149 1.236 4.482 2.236 7 3l6 3c2 2.667 4.333 5 7 7 2.622.533 5.122 1.533 7.5 3 .667 1 .667 2 0 3-1.356-.88-2.856-1.214-4.5-1a51.569 51.569 0 0 1 1 7 72.032 72.032 0 0 1-1 11 13.021 13.021 0 0 0-2 5.5c1.808 3.617 1.308 6.783-1.5 9.5a20.64 20.64 0 0 0-2-6c-1.36 2.523-3.193 4.523-5.5 6-2.319.492-4.319 1.492-6 3h-13c-2.203-.104-4.203-.77-6-2-1.465-1.237-3.132-2.237-5-3a50.725 50.725 0 0 1-5-6.5 4.934 4.934 0 0 0-3-.5c.778-.656 1.444-1.489 2-2.5-2.568-9.357.432-16.191 9-20.5-4.309.813-8.643 1.647-13 2.5a14.698 14.698 0 0 0-3 3.5c-8.076 1.986-15.742 4.319-23 7-4.763.524-9.43.524-14 0-2.434-.148-5.101-.314-8-.5-1.455-2.016-3.455-2.849-6-2.5l-2-1c1.074-1.385 2.407-2.551 4-3.5-2.836.085-5.17 1.251-7 3.5-6.252.411-11.585 2.744-16 7l11 2c.363.683.696 1.35 1 2a19.24 19.24 0 0 1-1 6v1c-1.955.823-3.955.99-6 .5a29.97 29.97 0 0 1-7-6c-8.465-1.352-13.632 2.148-15.5 10.5-1.264 2.107-3.097 3.107-5.5 3-2.39-2.115-3.724-4.781-4-8v-1a50.528 50.528 0 0 0 12-6c-1.575-1.131-3.241-1.298-5-.5a41.79 41.79 0 0 1-8 3.5c-1.855.16-3.188-.507-4-2v-8c5.99.929 11.99 1.429 18 1.5-4.181-2.226-8.515-3.726-13-4.5-.106-3.115.894-5.781 3-8 3.972 1.449 7.306 3.949 10 7.5a10.256 10.256 0 0 0 4 1.5c5.386-1.381 10.052-4.048 14-8 2.333-3 5-5.667 8-8h-5c.16-1.7-.007-3.366-.5-5-1.649 1.453-3.482 2.453-5.5 3-1.602 1.574-3.602 2.24-6 2a52.55 52.55 0 0 0-1.5-7 153.538 153.538 0 0 1-8.5-14c.295-1.923 1.128-3.59 2.5-5a32.371 32.371 0 0 1 5.5 4 4.452 4.452 0 0 1-2 1.5c4.32-.5 6.654 1.333 7 5.5 1.679.215 2.679-.452 3-2h1c.82 2.805 1.32 5.805 1.5 9a66.96 66.96 0 0 1 1.5-5.5 12.988 12.988 0 0 1-1-5.5 32.513 32.513 0 0 0 3-9c1.208-.734 2.541-1.067 4-1v-5a133.928 133.928 0 0 0 10-7h5v-3h7v-3c.667 0 1-.333 1-1h5c-.14-1.624.527-2.79 2-3.5-7.119-2.42-13.953-1.92-20.5 1.5l-1.5-1 2-5a25.87 25.87 0 0 1 10-1 32.438 32.438 0 0 0 8-.5c.556-.383.889-.883 1-1.5a12.93 12.93 0 0 0-.5-5c-4.933-4.554-10.433-5.22-16.5-2-2.756-.366-4.756-1.7-6-4v-4c-2.825-.338-4.992.662-6.5 3-.96-3.726.54-5.892 4.5-6.5a32.437 32.437 0 0 1 8-.5c2.804 1.138 5.804 1.305 9 .5 1.872-2.944 4.539-4.11 8-3.5h1c1.068.934 2.401 1.268 4 1 3.477.823 7.144 1.323 11 1.5-1.801 1.387-2.468 2.887-2 4.5 1.715-2.382 3.715-4.382 6-6 1.73-.526 3.064-1.526 4-3 .617-.11 1.117-.444 1.5-1 1.219 5.445.052 10.278-3.5 14.5.881.708 1.547 1.542 2 2.5Z" style="opacity:1"/><path fill="#897525" d="M140.5 89.5c0 1.333.667 2 2 2-2.196 1.354-3.696 3.354-4.5 6a29.283 29.283 0 0 1-2.5-7c1.29.558 2.123 1.558 2.5 3a51.239 51.239 0 0 0 2.5-4Z" style="opacity:1"/><path fill="#9b842d" d="M159.5 91.5c.639-.597.972-1.43 1-2.5a107.82 107.82 0 0 1-2.5-12.5 38.328 38.328 0 0 1 4 13l2-4c.631 3.084-.202 5.75-2.5 8-1.022-.356-1.689-1.022-2-2Z" style="opacity:1"/><path fill="#a38a2b" d="M159.5 91.5a52.538 52.538 0 0 0-9.5-3c-2.708.609-5.208 1.609-7.5 3 3.099-3.74 7.099-4.907 12-3.5 2.084.697 3.751 1.864 5 3.5Z" style="opacity:1"/><path fill="#988030" d="M135.5 90.5a37.625 37.625 0 0 0-12-2.5c3-.667 6-.667 9 0 1.442.377 2.442 1.21 3 2.5Z" style="opacity:1"/><path fill="#a48c32" d="M88.5 98.5a171.62 171.62 0 0 1 4-3c-2.69-5.211-2.357-10.211 1-15l1 .5c-2.667 5-2.667 10 0 15-1.658 1.662-3.658 2.496-6 2.5Z" style="opacity:1"/><path fill="#9f8526" d="M80.5 79.5c-.067 1.9.266 3.734 1 5.5a66.96 66.96 0 0 0-1.5 5.5c-.18-3.195-.68-6.195-1.5-9 .333-1 1-1.667 2-2Z" style="opacity:1"/><path fill="#9c8528" d="M150.5 67.5c.531 2.124 1.865 3.624 4 4.5-1.868.004-3.702-.496-5.5-1.5a25.285 25.285 0 0 0-6 3c-.067 5.598-.901 10.931-2.5 16 .926-5.038.926-10.038 0-15a99.532 99.532 0 0 0-21-4c.774-.647 1.774-.98 3-1a1434.034 1434.034 0 0 0 18.5 3 42.918 42.918 0 0 0 9.5-5Z" style="opacity:1"/><path fill="#a38c2e" d="M106.5 67.5c-1.062 2.257-2.728 3.423-5 3.5 1.289-1.802 2.956-2.969 5-3.5Z" style="opacity:1"/><path fill="#867122" d="M113.5 68.5c2.048-.34 3.048-.007 3 1-3.43-.394-6.596.273-9.5 2-.456-1.244.044-2.077 1.5-2.5a12.935 12.935 0 0 1 5-.5Z" style="opacity:1"/><path fill="#af9929" d="M128.5 65.5v2h-4c-5.849-1.164-11.849-1.164-18 0 2.873-2.177 6.206-3.177 10-3 3.989.522 7.989.856 12 1Z" style="opacity:1"/><path fill="#9d852f" d="M158.5 49.5a6.845 6.845 0 0 1-1 4 6.807 6.807 0 0 0 3 1.5c-3.23.913-5.23 3.08-6 6.5a98.92 98.92 0 0 1 9 2.5h-8a25.025 25.025 0 0 1-5 3.5 8736.22 8736.22 0 0 0 8-18Z" style="opacity:1"/><path fill="#dabc30" d="M139.5 54.5c.647.774.98 1.774 1 3-.845 5.096-2.178 5.096-4 0 0-2 1-3 3-3Z" style="opacity:1"/><path fill="#9f822b" d="M176.5 55.5c2.753-1.159 5.419-.659 8 1.5a32.369 32.369 0 0 1-8-1.5Z" style="opacity:1"/><path fill="#968328" d="M138.5 50.5c-.067 1.459.266 2.792 1 4-2 0-3 1-3 3h-2a36.063 36.063 0 0 1 4-7Z" style="opacity:1"/><path fill="#924d1d" d="M141.5 47.5c-.722 1.051-1.722 1.718-3 2 .388-4.741 1.388-5.408 3-2Z" style="opacity:1"/><path fill="#ae9932" d="M133.5 29.5c5.196.065 5.196.732 0 2l-1 3c.52 2.54 1.187 5.04 2 7.5-.009 1.404-.509 2.57-1.5 3.5a60.237 60.237 0 0 0-2.5-11.5c.057-2.209 1.057-3.709 3-4.5Z" style="opacity:1"/><path fill="#a69234" d="M113.5 21.5a60.94 60.94 0 0 1 11 .5 208.446 208.446 0 0 0-8 6.5c-2.593-1.57-3.593-3.904-3-7Z" style="opacity:1"/><path fill="#1d180a" d="M115.5 22.5h3v3h-3v-3Z" style="opacity:1"/><path fill="#957c2b" d="m134.5 17.5 2 1c-2.285 1.618-4.285 3.618-6 6-.468-1.613.199-3.113 2-4.5-3.856-.177-7.523-.677-11-1.5h9c1.599.268 2.932-.066 4-1Z" style="opacity:1"/><path fill="#994322" d="M88.5 98.5c-3 2.333-5.667 5-8 8-.117-1.984.55-3.65 2-5a9.106 9.106 0 0 1-1-5h-4c2.018-.547 3.851-1.547 5.5-3 .493 1.634.66 3.3.5 5h5Z" style="opacity:1"/><path fill="#947a24" d="M164.5 103.5c2.141-.663 4.475-.997 7-1 3.641-.185 6.974.481 10 2l-4 1c-3.873-1.93-8.206-2.597-13-2Z" style="opacity:1"/><path fill="#eecf31" d="M45.5 105.5h4c.215 1.679-.452 2.679-2 3-2.082.124-3.582 1.124-4.5 3-.667-1.667-.667-3.333 0-5 .67-.752 1.504-1.086 2.5-1Z" style="opacity:1"/><path fill="#a78e29" d="M111.5 98.5c2.116 1.588 2.449 3.588 1 6-2.953 1.092-5.953 1.592-9 1.5a22.508 22.508 0 0 1 7-2c.906-1.699 1.239-3.533 1-5.5Z" style="opacity:1"/><path fill="#a4852d" d="M45.5 105.5c1.419-.951 3.085-1.284 5-1 .342.838 1.008 1.172 2 1-2.106 2.219-3.106 4.885-3 8h-1v-2a5.728 5.728 0 0 0-1-3c1.548-.321 2.215-1.321 2-3h-4Z" style="opacity:1"/><path fill="#a42623" d="M164.5 103.5c-8.568 4.309-11.568 11.143-9 20.5-.556 1.011-1.222 1.844-2 2.5.159-5.034-.174-10.2-1-15.5 1.791-.415 3.124-1.415 4-3-2.402 1.046-5.068 1.546-8 1.5a14.698 14.698 0 0 1 3-3.5c4.357-.853 8.691-1.687 13-2.5Z" style="opacity:1"/><path fill="#9d2d23" d="M50.5 104.5c-1.915-.284-3.581.049-5 1-.996-.086-1.83.248-2.5 1-.667 1.667-.667 3.333 0 5 .918-1.876 2.418-2.876 4.5-3 .61.891.943 1.891 1 3a5.575 5.575 0 0 1-3-1c-.648 1.649-1.648 2.982-3 4-3.265-8.712-.598-12.045 8-10Z" style="opacity:1"/><path fill="#947725" d="M95.5 112.5h-3c1.83-2.249 4.164-3.415 7-3.5-1.593.949-2.926 2.115-4 3.5Z" style="opacity:1"/><path fill="#c31a26" d="M181.5 104.5c6.929 4.308 8.263 9.974 4 17-9.049 5.66-15.049 3.493-18-6.5 1.349-5.188 4.683-8.354 10-9.5l4-1Z" style="opacity:1"/><path fill="#91301e" d="M48.5 113.5h1c4.485.774 8.819 2.274 13 4.5-6.01-.071-12.01-.571-18-1.5 1.72-.522 3.053-1.522 4-3Z" style="opacity:1"/><path fill="#ddbe37" d="M204.5 114.5c3.45 1.237 4.45 3.57 3 7-.765-1.112-1.765-1.779-3-2v-5Z" style="opacity:1"/><path fill="#993a1f" d="M97.5 113.5c2.545-.349 4.545.484 6 2.5 2.899.186 5.566.352 8 .5-2.84.62-5.674 1.287-8.5 2-.979-2.72-2.812-4.386-5.5-5Z" style="opacity:1"/><path fill="#922a1b" d="M111.5 116.5c4.57.524 9.237.524 14 0-3.303.978-6.803 1.645-10.5 2-1.681-.108-2.848-.775-3.5-2Z" style="opacity:1"/><path fill="#947729" d="M203.5 109.5c.951 1.419 1.284 3.085 1 5v5l-2 1a72.032 72.032 0 0 0 1-11Z" style="opacity:1"/><path fill="#80621c" d="M44.5 116.5v8h-2c1.242-2.111 1.242-4.111 0-6 .333-1 1-1.667 2-2Z" style="opacity:1"/><path fill="#debe33" d="M42.5 118.5c1.242 1.889 1.242 3.889 0 6-.472 2.031-1.472 3.698-3 5-1.898-4.533-.898-8.199 3-11Z" style="opacity:1"/><path fill="#a12a24" d="M49.5 129.5c-1.418-1.808-3.418-2.475-6-2 .04 1.859-.794 3.192-2.5 4-.717-.544-1.217-1.211-1.5-2 1.528-1.302 2.528-2.969 3-5h2c.812 1.493 2.145 2.16 4 2a41.79 41.79 0 0 0 8-3.5c1.759-.798 3.425-.631 5 .5a50.528 50.528 0 0 1-12 6Z" style="opacity:1"/><path fill="#d0b133" d="M88.5 123.5c5.596 2.473 6.43 6.139 2.5 11a12.935 12.935 0 0 1-.5-5h-3a19.24 19.24 0 0 0 1-6Z" style="opacity:1"/><path fill="#9f8a3a" d="M161.5 133.5c1.868.763 3.535 1.763 5 3a18.453 18.453 0 0 1-6-.5c.752-.671 1.086-1.504 1-2.5Z" style="opacity:1"/><path fill="#8f6722" d="M191.5 135.5c-.489 1.495-1.155 2.829-2 4a2.428 2.428 0 0 0-.5-2c-1.55 1.091-2.717 2.424-3.5 4v-3c1.681-1.508 3.681-2.508 6-3Z" style="opacity:1"/><path fill="#c7a532" d="M49.5 130.5c.276 3.219 1.61 5.885 4 8h-3c1.945 4.727.945 5.727-3 3-1.395-4.08-.728-7.746 2-11Z" style="opacity:1"/><path fill="#a92a24" d="M87.5 130.5c-1.453 1.729-3.453 2.729-6 3a87.307 87.307 0 0 1-7.5-5c-4.124-1.356-7.957-.689-11.5 2-.739 3.581-2.405 6.581-5 9-1.506 1.247-3.006 1.247-4.5 0 .135 1.925.302 3.925.5 6-2.041-.354-3.874-.354-5.5 0a8.435 8.435 0 0 1-.5-4c3.945 2.727 4.945 1.727 3-3h3c2.403.107 4.236-.893 5.5-3 1.868-8.352 7.035-11.852 15.5-10.5a29.97 29.97 0 0 0 7 6c2.045.49 4.045.323 6-.5Z" style="opacity:1"/><path fill="#caaf3b" d="M172.5 138.5h11c-3.942.43-7.609 1.764-11 4l-2-1a185.977 185.977 0 0 0 2-3Z" style="opacity:1"/><path fill="#e5c636" d="M189.5 139.5c-.458 2.809-1.791 3.476-4 2 .783-1.576 1.95-2.909 3.5-4 .464.594.631 1.261.5 2Z" style="opacity:1"/></svg>