<?xml version="1.0" encoding="UTF-8"?>
<!DOCTYPE svg PUBLIC "-//W3C//DTD SVG 1.1//EN" "http://www.w3.org/Graphics/SVG/1.1/DTD/svg11.dtd">
<svg xmlns="http://www.w3.org/2000/svg" version="1.1" width="256px" height="154px" style="shape-rendering:geometricPrecision; text-rendering:geometricPrecision; image-rendering:optimizeQuality; fill-rule:evenodd; clip-rule:evenodd" xmlns:xlink="http://www.w3.org/1999/xlink">
<g><path style="opacity:1" fill="#cc1226" d="M -0.5,-0.5 C 84.8333,-0.5 170.167,-0.5 255.5,-0.5C 255.5,50.8333 255.5,102.167 255.5,153.5C 170.167,153.5 84.8333,153.5 -0.5,153.5C -0.5,102.167 -0.5,50.8333 -0.5,-0.5 Z"/></g>
<g><path style="opacity:1" fill="#a02326" d="M 134.5,15.5 C 133.206,14.7101 132.039,13.7101 131,12.5C 130.505,14.4727 130.338,16.4727 130.5,18.5C 127.5,18.5 124.5,18.5 121.5,18.5C 119.901,18.7678 118.568,18.4345 117.5,17.5C 121.555,17.8242 125.555,17.4909 129.5,16.5C 128.039,14.1891 127.706,11.8558 128.5,9.5C 131.508,10.0181 133.841,11.5181 135.5,14C 134.944,14.3826 134.611,14.8826 134.5,15.5 Z"/></g>
<g><path style="opacity:1" fill="#a62623" d="M 116.5,17.5 C 113.039,16.8895 110.372,18.0561 108.5,21C 105.304,21.8045 102.304,21.6378 99.5,20.5C 102.247,20.8134 104.914,20.48 107.5,19.5C 107.291,18.914 106.957,18.414 106.5,18C 108.828,17.1699 111.162,16.3366 113.5,15.5C 115.03,15.6399 116.03,16.3065 116.5,17.5 Z"/></g>
<g><path style="opacity:1" fill="#e2c234" d="M 134.5,15.5 C 134.5,16.1667 134.5,16.8333 134.5,17.5C 133.432,18.4345 132.099,18.7678 130.5,18.5C 130.338,16.4727 130.505,14.4727 131,12.5C 132.039,13.7101 133.206,14.7101 134.5,15.5 Z"/></g>
<g><path style="opacity:1" fill="#952620" d="M 197.5,25.5 C 198.586,25.38 199.253,24.7133 199.5,23.5C 198.615,20.3068 198.281,17.3068 198.5,14.5C 199.315,12.0924 200.981,11.2591 203.5,12C 202.667,12.8333 201.833,13.6667 201,14.5C 200.393,18.5369 200.56,22.5369 201.5,26.5C 199.901,26.7678 198.568,26.4345 197.5,25.5 Z"/></g>
<g><path style="opacity:1" fill="#ad2223" d="M 228.5,21.5 C 229.231,19.4012 229.231,17.4012 228.5,15.5C 225.012,21.9155 219.679,25.9155 212.5,27.5C 213.401,25.2729 215.067,24.2729 217.5,24.5C 217.5,23.5 217.5,22.5 217.5,21.5C 219.5,21.1667 221.5,20.8333 223.5,20.5C 223.336,17.8127 223.503,15.146 224,12.5C 225.673,14.9166 227.506,14.9166 229.5,12.5C 230.652,15.1062 230.818,17.7728 230,20.5C 229.617,21.056 229.117,21.3893 228.5,21.5 Z"/></g>
<g><path style="opacity:1" fill="#9a3823" d="M 142.5,31.5 C 142.167,31.5 141.833,31.5 141.5,31.5C 141.167,31.5 140.833,31.5 140.5,31.5C 140.047,30.5416 139.381,29.7083 138.5,29C 142.052,24.7779 143.219,19.9446 142,14.5C 141.617,15.056 141.117,15.3893 140.5,15.5C 142.139,8.93683 143.472,9.1035 144.5,16C 144.071,20.3123 143.071,24.4789 141.5,28.5C 142.127,29.4168 142.461,30.4168 142.5,31.5 Z"/></g>
<g><path style="opacity:1" fill="#972c23" d="M 48.5,29.5 C 49.8775,30.2344 51.3775,30.9011 53,31.5C 53.7596,33.9808 52.9263,35.6475 50.5,36.5C 50.7214,35.2652 51.3881,34.2652 52.5,33.5C 50.5,32.8333 48.5,32.1667 46.5,31.5C 46.8555,30.4777 47.5222,29.811 48.5,29.5 Z"/></g>
<g><path style="opacity:1" fill="#86391f" d="M 96.5,36.5 C 94.3926,37.4682 92.0593,37.8016 89.5,37.5C 89.5,36.5 89.5,35.5 89.5,34.5C 86.6146,34.1936 83.9479,34.5269 81.5,35.5C 79.0698,34.3467 79.0698,33.3467 81.5,32.5C 84.4486,33.3022 87.4486,33.6355 90.5,33.5C 90.5,34.5 90.5,35.5 90.5,36.5C 92.5,36.5 94.5,36.5 96.5,36.5 Z"/></g>
<g><path style="opacity:1" fill="#9f2e23" d="M 93.5,28.5 C 94.7441,30.8005 96.7441,32.1338 99.5,32.5C 105.567,29.2793 111.067,29.9459 116,34.5C 116.494,36.1341 116.66,37.8008 116.5,39.5C 114.59,37.4383 112.257,35.9383 109.5,35C 105.044,34.4222 100.711,34.9222 96.5,36.5C 94.493,34.3115 93.493,31.6448 93.5,28.5 Z"/></g>
<g><path style="opacity:1" fill="#e6c739" d="M 141.5,31.5 C 141.833,31.5 142.167,31.5 142.5,31.5C 143.685,32.8566 144.685,34.3566 145.5,36C 144.824,37.6833 143.824,37.8499 142.5,36.5C 141.699,34.9582 141.366,33.2915 141.5,31.5 Z"/></g>
<g><path style="opacity:1" fill="#8d772a" d="M 140.5,31.5 C 140.833,31.5 141.167,31.5 141.5,31.5C 141.366,33.2915 141.699,34.9582 142.5,36.5C 141.539,38.2646 141.205,40.2646 141.5,42.5C 140.497,39.6155 140.164,35.9489 140.5,31.5 Z"/></g>
<g><path style="opacity:1" fill="#f0d52d" d="M 71.5,37.5 C 72.9468,38.1342 73.6134,39.3009 73.5,41C 73.472,42.0698 73.1386,42.9032 72.5,43.5C 69.2012,41.6989 68.8678,39.6989 71.5,37.5 Z"/></g>
<g><path style="opacity:1" fill="#d9b830" d="M 81.5,35.5 C 83.9479,34.5269 86.6146,34.1936 89.5,34.5C 89.5,35.5 89.5,36.5 89.5,37.5C 92.0593,37.8016 94.3926,37.4682 96.5,36.5C 100.711,34.9222 105.044,34.4222 109.5,35C 112.257,35.9383 114.59,37.4383 116.5,39.5C 116.389,40.1174 116.056,40.6174 115.5,41C 112.854,41.4974 110.187,41.6641 107.5,41.5C 109.631,40.6862 111.964,40.1862 114.5,40C 111.656,38.5763 108.656,37.743 105.5,37.5C 101.491,38.5067 97.4915,39.5067 93.5,40.5C 91.9397,40.4809 90.4397,40.1476 89,39.5C 88.0546,39.9054 87.3879,40.572 87,41.5C 85.669,39.0038 83.8356,37.0038 81.5,35.5 Z"/></g>
<g><path style="opacity:1" fill="#a32624" d="M 107.5,41.5 C 104.102,41.1796 100.768,41.513 97.5,42.5C 96.8333,44.1667 96.1667,45.8333 95.5,47.5C 96,47.8333 96.5,48.1667 97,48.5C 103.547,45.0808 110.381,44.5808 117.5,47C 116.027,47.7096 115.36,48.8762 115.5,50.5C 113.833,50.5 112.167,50.5 110.5,50.5C 109.393,48.0689 107.393,47.0689 104.5,47.5C 101.161,48.5118 97.8275,49.5118 94.5,50.5C 94.3418,47.4545 95.0085,44.6212 96.5,42C 95.2625,41.7679 94.2625,41.2679 93.5,40.5C 97.4915,39.5067 101.491,38.5067 105.5,37.5C 108.656,37.743 111.656,38.5763 114.5,40C 111.964,40.1862 109.631,40.6862 107.5,41.5 Z"/></g>
<g><path style="opacity:1" fill="#f1d024" d="M 198.5,14.5 C 198.281,17.3068 198.615,20.3068 199.5,23.5C 199.253,24.7133 198.586,25.38 197.5,25.5C 194.789,25.1849 192.456,25.8516 190.5,27.5C 189.662,27.8417 189.328,28.5084 189.5,29.5C 182.053,29.0714 174.719,29.5714 167.5,31C 174.797,30.6994 182.13,30.5328 189.5,30.5C 194.363,30.8195 199.03,30.4861 203.5,29.5C 206.877,29.9321 209.877,29.2655 212.5,27.5C 219.679,25.9155 225.012,21.9155 228.5,15.5C 229.231,17.4012 229.231,19.4012 228.5,21.5C 226.752,24.4305 224.752,27.2639 222.5,30C 217.084,33.0299 212.084,36.5299 207.5,40.5C 206.532,42.6074 206.198,44.9407 206.5,47.5C 204.139,47.3259 201.806,46.9926 199.5,46.5C 195.868,44.46 191.868,43.2933 187.5,43C 179.397,42.0612 171.397,42.5612 163.5,44.5C 162.833,44.1667 162.167,43.8333 161.5,43.5C 162.931,40.9613 164.597,38.6279 166.5,36.5C 161.585,39.3076 158.919,43.641 158.5,49.5C 155.872,55.4316 153.205,61.4316 150.5,67.5C 147.582,69.5436 144.415,71.2103 141,72.5C 134.835,71.5416 128.668,70.5416 122.5,69.5C 121.274,69.5195 120.274,69.8529 119.5,70.5C 118.209,70.7373 117.209,70.404 116.5,69.5C 116.548,68.4929 115.548,68.1596 113.5,68.5C 116.962,67.5184 120.629,67.185 124.5,67.5C 125.833,67.5 127.167,67.5 128.5,67.5C 135.423,68.6393 141.09,66.6393 145.5,61.5C 146.833,60.8333 147.833,59.8333 148.5,58.5C 154.833,52.8734 155.833,46.54 151.5,39.5C 150.618,35.0907 151.952,31.5907 155.5,29C 164.21,28.0434 172.877,26.71 181.5,25C 187.53,21.9903 193.196,18.4903 198.5,14.5 Z"/></g>
<g><path style="opacity:1" fill="#9b872b" d="M 163.5,32.5 C 164.239,32.369 164.906,32.5357 165.5,33C 162.238,35.592 159.738,38.7587 158,42.5C 158.493,38.5195 160.327,35.1862 163.5,32.5 Z"/></g>
<g><path style="opacity:1" fill="#a28b26" d="M 166.5,36.5 C 167.058,35.2101 168.058,34.3768 169.5,34C 179.5,33.6667 189.5,33.3333 199.5,33C 204.165,31.8876 208.832,31.221 213.5,31C 209.971,32.4657 206.305,33.4657 202.5,34C 191.833,34.3333 181.167,34.6667 170.5,35C 169.255,35.7914 167.922,36.2914 166.5,36.5 Z"/></g>
<g><path style="opacity:1" fill="#7b3819" d="M 190.5,27.5 C 194.373,29.4302 198.706,30.0969 203.5,29.5C 199.03,30.4861 194.363,30.8195 189.5,30.5C 189.5,30.1667 189.5,29.8333 189.5,29.5C 189.328,28.5084 189.662,27.8417 190.5,27.5 Z"/></g>
<g><path style="opacity:1" fill="#907c27" d="M 189.5,29.5 C 189.5,29.8333 189.5,30.1667 189.5,30.5C 182.13,30.5328 174.797,30.6994 167.5,31C 174.719,29.5714 182.053,29.0714 189.5,29.5 Z"/></g>
<g><path style="opacity:1" fill="#993d24" d="M 34.5,39.5 C 35.8775,40.2344 37.3775,40.9011 39,41.5C 39.4955,43.4727 39.6621,45.4727 39.5,47.5C 38.7656,46.1225 38.0989,44.6225 37.5,43C 36.1011,42.4054 34.7678,42.5721 33.5,43.5C 32.1908,41.7605 32.5241,40.4271 34.5,39.5 Z"/></g>
<g><path style="opacity:1" fill="#b08f2f" d="M 71.5,37.5 C 68.8678,39.6989 69.2012,41.6989 72.5,43.5C 72.7845,45.4147 72.4511,47.0813 71.5,48.5C 71.627,43.6269 69.2936,41.6269 64.5,42.5C 65.5676,41.5655 66.901,41.2322 68.5,41.5C 68.5,39.8333 68.5,38.1667 68.5,36.5C 69.791,36.2627 70.791,36.596 71.5,37.5 Z"/></g>
<g><path style="opacity:1" fill="#aa2525" d="M 50.5,36.5 C 50.4598,39.4245 51.2932,42.0912 53,44.5C 53.6667,47.5 53.6667,50.5 53,53.5C 50.1146,48.8265 47.6146,43.9932 45.5,39C 42.1763,37.3837 38.843,37.217 35.5,38.5C 35.4142,37.5041 35.7476,36.6708 36.5,36C 40.294,35.7167 43.9606,36.3834 47.5,38C 48.2266,39.3988 48.7266,40.8988 49,42.5C 49.1909,40.2922 49.6909,38.2922 50.5,36.5 Z"/></g>
<g><path style="opacity:1" fill="#a52a21" d="M 50.5,28.5 C 53.0241,27.1997 55.6908,27.1997 58.5,28.5C 59.2473,31.8551 60.914,35.0217 63.5,38C 62.1577,40.015 61.6577,42.1817 62,44.5C 62.3826,43.944 62.8826,43.6107 63.5,43.5C 62.8273,48.0138 60.994,52.0138 58,55.5C 58.4166,48.4981 59.2499,41.4981 60.5,34.5C 57.7237,34.9111 57.057,34.0777 58.5,32C 58.2409,30.7387 57.5742,29.7387 56.5,29C 54.5273,28.5045 52.5273,28.3379 50.5,28.5 Z"/></g>
<g><path style="opacity:1" fill="#a38b2e" d="M 166.5,36.5 C 164.597,38.6279 162.931,40.9613 161.5,43.5C 162.167,43.8333 162.833,44.1667 163.5,44.5C 171.397,42.5612 179.397,42.0612 187.5,43C 191.868,43.2933 195.868,44.46 199.5,46.5C 186.437,42.4076 173.437,42.5743 160.5,47C 159.934,47.9947 159.267,48.828 158.5,49.5C 158.919,43.641 161.585,39.3076 166.5,36.5 Z"/></g>
<g><path style="opacity:1" fill="#a62725" d="M 151.5,39.5 C 155.833,46.54 154.833,52.8734 148.5,58.5C 148.593,54.8497 149.926,51.683 152.5,49C 152.59,45.9757 152.256,42.809 151.5,39.5 Z"/></g>
<g><path style="opacity:1" fill="#af9235" d="M 207.5,40.5 C 207.26,43.5788 207.593,46.5788 208.5,49.5C 207.332,51.2174 205.665,51.8841 203.5,51.5C 203.918,50.7784 204.584,50.2784 205.5,50C 203.273,49.059 201.273,47.8923 199.5,46.5C 201.806,46.9926 204.139,47.3259 206.5,47.5C 206.198,44.9407 206.532,42.6074 207.5,40.5 Z"/></g>
<g><path style="opacity:1" fill="#b22324" d="M 142.5,31.5 C 144.017,31.5106 145.184,32.1772 146,33.5C 147.613,39.468 147.613,45.468 146,51.5C 144.667,52.8333 143.333,52.8333 142,51.5C 140.75,55.8993 141.916,59.2327 145.5,61.5C 141.09,66.6393 135.423,68.6393 128.5,67.5C 128.5,66.8333 128.5,66.1667 128.5,65.5C 130.885,63.1162 132.885,60.4495 134.5,57.5C 135.167,57.5 135.833,57.5 136.5,57.5C 138.322,62.5962 139.655,62.5962 140.5,57.5C 140.48,56.2739 140.147,55.2739 139.5,54.5C 138.766,53.2921 138.433,51.9587 138.5,50.5C 138.5,50.1667 138.5,49.8333 138.5,49.5C 139.778,49.2178 140.778,48.5511 141.5,47.5C 142.458,47.9528 143.292,48.6195 144,49.5C 145.087,46.3861 144.254,44.0528 141.5,42.5C 141.205,40.2646 141.539,38.2646 142.5,36.5C 143.824,37.8499 144.824,37.6833 145.5,36C 144.685,34.3566 143.685,32.8566 142.5,31.5 Z"/></g>
<g><path style="opacity:1" fill="#a54125" d="M 109.5,51.5 C 109.5,52.5 109.5,53.5 109.5,54.5C 107.167,54.5 104.833,54.5 102.5,54.5C 102.5,55.5 102.5,56.5 102.5,57.5C 100.833,57.5 99.1667,57.5 97.5,57.5C 98.209,56.596 99.209,56.2627 100.5,56.5C 100.281,55.325 100.614,54.325 101.5,53.5C 104.197,52.8307 106.863,52.1641 109.5,51.5 Z"/></g>
<g><path style="opacity:1" fill="#7e4826" d="M 227.5,51.5 C 226.833,52.8333 226.167,54.1667 225.5,55.5C 225.201,53.396 225.534,51.396 226.5,49.5C 227.298,49.9569 227.631,50.6236 227.5,51.5 Z"/></g>
<g><path style="opacity:1" fill="#efce25" d="M 50.5,28.5 C 52.5273,28.3379 54.5273,28.5045 56.5,29C 57.5742,29.7387 58.2409,30.7387 58.5,32C 57.057,34.0777 57.7237,34.9111 60.5,34.5C 59.2499,41.4981 58.4166,48.4981 58,55.5C 60.994,52.0138 62.8273,48.0138 63.5,43.5C 63.5,42.8333 63.8333,42.5 64.5,42.5C 69.2936,41.6269 71.627,43.6269 71.5,48.5C 67.7922,51.1268 64.2922,54.1268 61,57.5C 60.3333,59.8333 60.3333,62.1667 61,64.5C 66.7243,70.056 72.2243,75.7226 77.5,81.5C 77.1788,83.0481 76.1788,83.7148 74.5,83.5C 74.1538,79.333 71.8205,77.4997 67.5,78C 68.3081,77.6924 68.9747,77.1924 69.5,76.5C 67.8067,74.9733 65.9734,73.6399 64,72.5C 62.6283,73.9101 61.795,75.5767 61.5,77.5C 59.2093,73.709 56.376,70.3757 53,67.5C 52.228,67.6448 51.5613,67.9781 51,68.5C 48.5044,76.9783 43.0044,80.3117 34.5,78.5C 34.5858,77.5041 34.2524,76.6708 33.5,76C 35.5767,75.8078 37.5767,75.3078 39.5,74.5C 38.1783,72.1354 38.1783,69.8021 39.5,67.5C 42.8732,66.9341 45.8732,65.6007 48.5,63.5C 50.385,61.2046 50.885,58.538 50,55.5C 49.2525,53.249 47.7525,51.9156 45.5,51.5C 43.5,50.1667 41.5,48.8333 39.5,47.5C 39.6621,45.4727 39.4955,43.4727 39,41.5C 37.3775,40.9011 35.8775,40.2344 34.5,39.5C 34.5,38.8333 34.8333,38.5 35.5,38.5C 38.843,37.217 42.1763,37.3837 45.5,39C 47.6146,43.9932 50.1146,48.8265 53,53.5C 53.6667,50.5 53.6667,47.5 53,44.5C 51.2932,42.0912 50.4598,39.4245 50.5,36.5C 52.9263,35.6475 53.7596,33.9808 53,31.5C 51.3775,30.9011 49.8775,30.2344 48.5,29.5C 49.1667,29.1667 49.8333,28.8333 50.5,28.5 Z"/></g>
<g><path style="opacity:1" fill="#d6b32e" d="M 227.5,51.5 C 230.463,58.0519 231.13,64.7186 229.5,71.5C 229.666,67.4862 229.499,63.4862 229,59.5C 227.908,57.0688 226.741,57.0688 225.5,59.5C 225.5,58.1667 225.5,56.8333 225.5,55.5C 226.167,54.1667 226.833,52.8333 227.5,51.5 Z"/></g>
<g><path style="opacity:1" fill="#a33824" d="M 45.5,51.5 C 47.7525,51.9156 49.2525,53.249 50,55.5C 50.885,58.538 50.385,61.2046 48.5,63.5C 48.6646,60.4816 48.498,57.4816 48,54.5C 46.583,53.9221 45.7496,52.9221 45.5,51.5 Z"/></g>
<g><path style="opacity:1" fill="#ae9733" d="M 193.5,62.5 C 193.784,64.4147 193.451,66.0813 192.5,67.5C 191.055,64.8818 189.389,62.3818 187.5,60C 189.768,59.9101 191.268,61.0768 192,63.5C 192.383,62.944 192.883,62.6107 193.5,62.5 Z"/></g>
<g><path style="opacity:1" fill="#8d311e" d="M 196.5,55.5 C 195.319,59.7426 194.652,64.076 194.5,68.5C 187.112,67.5153 182.445,70.5153 180.5,77.5C 180.167,77.5 179.833,77.5 179.5,77.5C 179.5,77.1667 179.5,76.8333 179.5,76.5C 181.164,69.8228 185.497,66.8228 192.5,67.5C 193.451,66.0813 193.784,64.4147 193.5,62.5C 192.908,59.3695 193.908,57.0361 196.5,55.5 Z"/></g>
<g><path style="opacity:1" fill="#8f501d" d="M 87.5,64.5 C 87.5,66.1667 87.5,67.8333 87.5,69.5C 86.0413,69.4326 84.7079,69.7659 83.5,70.5C 83.8212,68.9519 84.8212,68.2852 86.5,68.5C 86.2322,66.901 86.5655,65.5676 87.5,64.5 Z"/></g>
<g><path style="opacity:1" fill="#9a2821" d="M 225.5,59.5 C 223.079,65.5483 218.745,69.5483 212.5,71.5C 207.703,71.5605 203.369,72.5605 199.5,74.5C 198.596,73.791 198.263,72.791 198.5,71.5C 204.793,71.7722 210.793,70.7722 216.5,68.5C 216.119,66.0582 216.786,65.3915 218.5,66.5C 220.199,63.4678 222.532,61.1345 225.5,59.5 Z"/></g>
<g><path style="opacity:1" fill="#a78c2b" d="M 179.5,76.5 C 179.5,76.8333 179.5,77.1667 179.5,77.5C 179.5,77.8333 179.5,78.1667 179.5,78.5C 175.369,74.8704 171.369,71.037 167.5,67C 168.167,66.3333 168.833,66.3333 169.5,67C 172.703,70.3709 176.036,73.5375 179.5,76.5 Z"/></g>
<g><path style="opacity:1" fill="#f7d51b" d="M 229.5,71.5 C 229.81,75.6995 229.143,79.6995 227.5,83.5C 226.5,83.5 225.5,83.5 224.5,83.5C 224.543,87.8926 224.043,88.2259 223,84.5C 222.346,85.6956 221.846,85.6956 221.5,84.5C 224.192,82.0036 224.025,79.6703 221,77.5C 219.951,79.1066 218.451,79.7733 216.5,79.5C 216.5,78.5 216.5,77.5 216.5,76.5C 212.208,76.9651 208.208,76.1318 204.5,74C 207.457,73.7206 210.123,72.8873 212.5,71.5C 218.745,69.5483 223.079,65.5483 225.5,59.5C 226.741,57.0688 227.908,57.0688 229,59.5C 229.499,63.4862 229.666,67.4862 229.5,71.5 Z"/></g>
<g><path style="opacity:1" fill="#8b321e" d="M 39.5,67.5 C 38.1783,69.8021 38.1783,72.1354 39.5,74.5C 37.5767,75.3078 35.5767,75.8078 33.5,76C 34.2524,76.6708 34.5858,77.5041 34.5,78.5C 32.8958,77.713 32.2291,76.3797 32.5,74.5C 34.1667,74.5 35.8333,74.5 37.5,74.5C 36.9898,71.6122 37.6565,69.2789 39.5,67.5 Z"/></g>
<g><path style="opacity:1" fill="#eecc26" d="M 212.5,71.5 C 210.123,72.8873 207.457,73.7206 204.5,74C 208.208,76.1318 212.208,76.9651 216.5,76.5C 216.5,77.5 216.5,78.5 216.5,79.5C 218.451,79.7733 219.951,79.1066 221,77.5C 224.025,79.6703 224.192,82.0036 221.5,84.5C 221.846,85.6956 222.346,85.6956 223,84.5C 224.043,88.2259 224.543,87.8926 224.5,83.5C 225.5,83.5 226.5,83.5 227.5,83.5C 226.172,86.4971 224.839,89.4971 223.5,92.5C 222.542,92.9528 221.708,93.6195 221,94.5C 220.667,90.1667 220.333,85.8333 220,81.5C 217.628,83.7032 215.461,86.0365 213.5,88.5C 209.117,91.3583 204.45,93.6916 199.5,95.5C 197.086,94.0892 195.419,92.0892 194.5,89.5C 201.95,86.5143 208.95,82.681 215.5,78C 211.011,79.0642 206.678,78.5642 202.5,76.5C 202.027,75.0937 201.027,74.427 199.5,74.5C 203.369,72.5605 207.703,71.5605 212.5,71.5 Z"/></g>
<g><path style="opacity:1" fill="#af2123" d="M 179.5,77.5 C 179.833,77.5 180.167,77.5 180.5,77.5C 180.238,78.9778 180.571,80.3112 181.5,81.5C 183.972,80.2335 186.306,80.2335 188.5,81.5C 185.118,81.7263 182.118,82.7263 179.5,84.5C 174.851,83.935 170.184,83.435 165.5,83C 166.614,81.4301 167.947,80.0968 169.5,79C 173.043,78.8557 176.376,78.689 179.5,78.5C 179.5,78.1667 179.5,77.8333 179.5,77.5 Z"/></g>
<g><path style="opacity:1" fill="#ccad35" d="M 188.5,81.5 C 188.833,81.5 189.167,81.5 189.5,81.5C 190.538,83.1084 189.871,84.1084 187.5,84.5C 186.614,85.325 186.281,86.325 186.5,87.5C 183.982,86.7362 181.649,85.7362 179.5,84.5C 182.118,82.7263 185.118,81.7263 188.5,81.5 Z"/></g>
<g><path style="opacity:1" fill="#b42025" d="M 202.5,76.5 C 206.678,78.5642 211.011,79.0642 215.5,78C 208.95,82.681 201.95,86.5143 194.5,89.5C 193.833,89.8333 193.167,90.1667 192.5,90.5C 190.5,89.5 188.5,88.5 186.5,87.5C 186.281,86.325 186.614,85.325 187.5,84.5C 189.871,84.1084 190.538,83.1084 189.5,81.5C 192.035,83.1668 194.868,84.1668 198,84.5C 199.5,84.1667 201,83.8333 202.5,83.5C 202.416,81.1247 202.416,78.7913 202.5,76.5 Z"/></g>
<g><path style="opacity:1" fill="#8f2c21" d="M 223.5,92.5 C 222.945,94.7288 221.611,96.3954 219.5,97.5C 219.347,93.2569 219.18,88.9236 219,84.5C 217.549,86.4641 215.716,87.7974 213.5,88.5C 215.461,86.0365 217.628,83.7032 220,81.5C 220.333,85.8333 220.667,90.1667 221,94.5C 221.708,93.6195 222.542,92.9528 223.5,92.5 Z"/></g>
<g><path style="opacity:1" fill="#a18a32" d="M 194.5,89.5 C 195.419,92.0892 197.086,94.0892 199.5,95.5C 199.5,96.1667 199.5,96.8333 199.5,97.5C 196.833,95.5 194.5,93.1667 192.5,90.5C 193.167,90.1667 193.833,89.8333 194.5,89.5 Z"/></g>
<g><path style="opacity:1" fill="#f5d41d" d="M 140.5,31.5 C 140.164,35.9489 140.497,39.6155 141.5,42.5C 144.254,44.0528 145.087,46.3861 144,49.5C 143.292,48.6195 142.458,47.9528 141.5,47.5C 139.888,44.092 138.888,44.7587 138.5,49.5C 138.5,49.8333 138.5,50.1667 138.5,50.5C 136.917,52.6626 135.584,54.9959 134.5,57.5C 132.885,60.4495 130.885,63.1162 128.5,65.5C 124.489,65.3558 120.489,65.0225 116.5,64.5C 112.706,64.3229 109.373,65.3229 106.5,67.5C 112.651,66.3357 118.651,66.3357 124.5,67.5C 120.629,67.185 116.962,67.5184 113.5,68.5C 111.801,68.3398 110.134,68.5065 108.5,69C 107.044,69.4226 106.544,70.2559 107,71.5C 109.904,69.7732 113.07,69.1065 116.5,69.5C 117.209,70.404 118.209,70.7373 119.5,70.5C 126.645,71.0797 133.645,72.413 140.5,74.5C 141.426,79.4615 141.426,84.4615 140.5,89.5C 142.099,84.4314 142.933,79.0981 143,73.5C 144.861,72.2364 146.861,71.2364 149,70.5C 150.798,71.5038 152.632,72.0038 154.5,72C 152.365,71.1237 151.031,69.6237 150.5,67.5C 152.287,66.5533 153.953,65.3866 155.5,64C 158.167,64 160.833,64 163.5,64C 160.556,63.0296 157.556,62.1962 154.5,61.5C 155.27,58.08 157.27,55.9134 160.5,55C 159.376,54.7508 158.376,54.2508 157.5,53.5C 158.246,52.2638 158.579,50.9305 158.5,49.5C 159.267,48.828 159.934,47.9947 160.5,47C 173.437,42.5743 186.437,42.4076 199.5,46.5C 201.273,47.8923 203.273,49.059 205.5,50C 204.584,50.2784 203.918,50.7784 203.5,51.5C 200.386,51.5548 198.052,52.8881 196.5,55.5C 193.908,57.0361 192.908,59.3695 193.5,62.5C 192.883,62.6107 192.383,62.944 192,63.5C 191.268,61.0768 189.768,59.9101 187.5,60C 189.389,62.3818 191.055,64.8818 192.5,67.5C 185.497,66.8228 181.164,69.8228 179.5,76.5C 176.036,73.5375 172.703,70.3709 169.5,67C 168.833,66.3333 168.167,66.3333 167.5,67C 171.369,71.037 175.369,74.8704 179.5,78.5C 176.376,78.689 173.043,78.8557 169.5,79C 167.947,80.0968 166.614,81.4301 165.5,83C 170.184,83.435 174.851,83.935 179.5,84.5C 181.649,85.7362 183.982,86.7362 186.5,87.5C 188.5,88.5 190.5,89.5 192.5,90.5C 194.5,93.1667 196.833,95.5 199.5,97.5C 202.122,98.0331 204.622,99.0331 207,100.5C 207.667,101.5 207.667,102.5 207,103.5C 205.644,102.62 204.144,102.286 202.5,102.5C 202.993,104.806 203.326,107.139 203.5,109.5C 203.448,113.198 203.114,116.865 202.5,120.5C 201.425,122.157 200.758,123.991 200.5,126C 202.308,129.617 201.808,132.783 199,135.5C 198.64,133.392 197.973,131.392 197,129.5C 195.64,132.023 193.807,134.023 191.5,135.5C 189.181,135.992 187.181,136.992 185.5,138.5C 184.833,138.5 184.167,138.5 183.5,138.5C 179.833,138.5 176.167,138.5 172.5,138.5C 170.297,138.396 168.297,137.73 166.5,136.5C 165.035,135.263 163.368,134.263 161.5,133.5C 159.697,131.519 158.03,129.352 156.5,127C 155.552,126.517 154.552,126.351 153.5,126.5C 154.278,125.844 154.944,125.011 155.5,124C 152.932,114.643 155.932,107.809 164.5,103.5C 160.191,104.313 155.857,105.147 151.5,106C 150.29,107.039 149.29,108.206 148.5,109.5C 140.424,111.486 132.758,113.819 125.5,116.5C 120.737,117.024 116.07,117.024 111.5,116.5C 109.066,116.352 106.399,116.186 103.5,116C 102.045,113.984 100.045,113.151 97.5,113.5C 96.8333,113.167 96.1667,112.833 95.5,112.5C 96.5736,111.115 97.9069,109.949 99.5,109C 96.6641,109.085 94.3307,110.251 92.5,112.5C 86.2482,112.911 80.9148,115.244 76.5,119.5C 80.1667,120.167 83.8333,120.833 87.5,121.5C 87.8627,122.183 88.1961,122.85 88.5,123.5C 88.4828,125.565 88.1495,127.565 87.5,129.5C 87.5,129.833 87.5,130.167 87.5,130.5C 85.5454,131.323 83.5454,131.49 81.5,131C 78.8723,129.374 76.539,127.374 74.5,125C 66.0346,123.648 60.8679,127.148 59,135.5C 57.7365,137.607 55.9032,138.607 53.5,138.5C 51.1093,136.385 49.7759,133.719 49.5,130.5C 49.5,130.167 49.5,129.833 49.5,129.5C 53.7255,128.054 57.7255,126.054 61.5,123.5C 59.9255,122.369 58.2588,122.202 56.5,123C 53.8992,124.471 51.2325,125.637 48.5,126.5C 46.6455,126.66 45.3121,125.993 44.5,124.5C 44.5,121.833 44.5,119.167 44.5,116.5C 50.4899,117.429 56.4899,117.929 62.5,118C 58.3187,115.774 53.9854,114.274 49.5,113.5C 49.3939,110.385 50.3939,107.719 52.5,105.5C 56.4724,106.949 59.8057,109.449 62.5,113C 63.7287,113.781 65.062,114.281 66.5,114.5C 71.8857,113.119 76.5524,110.452 80.5,106.5C 82.8333,103.5 85.5,100.833 88.5,98.5C 86.8333,98.5 85.1667,98.5 83.5,98.5C 83.6602,96.8008 83.4935,95.1341 83,93.5C 81.3513,94.9528 79.5179,95.9528 77.5,96.5C 75.8984,98.0739 73.8984,98.7406 71.5,98.5C 71.162,96.146 70.662,93.8127 70,91.5C 66.893,86.9441 64.0597,82.2774 61.5,77.5C 61.795,75.5767 62.6283,73.9101 64,72.5C 65.9734,73.6399 67.8067,74.9733 69.5,76.5C 68.9747,77.1924 68.3081,77.6924 67.5,78C 71.8205,77.4997 74.1538,79.333 74.5,83.5C 76.1788,83.7148 77.1788,83.0481 77.5,81.5C 77.8333,81.5 78.1667,81.5 78.5,81.5C 79.3195,84.3054 79.8195,87.3054 80,90.5C 80.4221,88.6447 80.9221,86.8114 81.5,85C 80.7665,83.2341 80.4332,81.4008 80.5,79.5C 81.9534,76.6065 82.9534,73.6065 83.5,70.5C 84.7079,69.7659 86.0413,69.4326 87.5,69.5C 87.5,67.8333 87.5,66.1667 87.5,64.5C 90.9495,62.3118 94.2828,59.9785 97.5,57.5C 99.1667,57.5 100.833,57.5 102.5,57.5C 102.5,56.5 102.5,55.5 102.5,54.5C 104.833,54.5 107.167,54.5 109.5,54.5C 109.5,53.5 109.5,52.5 109.5,51.5C 110.167,51.5 110.5,51.1667 110.5,50.5C 112.167,50.5 113.833,50.5 115.5,50.5C 115.36,48.8762 116.027,47.7096 117.5,47C 110.381,44.5808 103.547,45.0808 97,48.5C 96.5,48.1667 96,47.8333 95.5,47.5C 96.1667,45.8333 96.8333,44.1667 97.5,42.5C 100.768,41.513 104.102,41.1796 107.5,41.5C 110.187,41.6641 112.854,41.4974 115.5,41C 116.056,40.6174 116.389,40.1174 116.5,39.5C 116.66,37.8008 116.494,36.1341 116,34.5C 111.067,29.9459 105.567,29.2793 99.5,32.5C 96.7441,32.1338 94.7441,30.8005 93.5,28.5C 93.5,27.1667 93.5,25.8333 93.5,24.5C 90.6748,24.1616 88.5082,25.1616 87,27.5C 86.0394,23.7744 87.5394,21.6078 91.5,21C 94.146,20.5026 96.8127,20.3359 99.5,20.5C 102.304,21.6378 105.304,21.8045 108.5,21C 110.372,18.0561 113.039,16.8895 116.5,17.5C 116.833,17.5 117.167,17.5 117.5,17.5C 118.568,18.4345 119.901,18.7678 121.5,18.5C 124.977,19.3227 128.644,19.8227 132.5,20C 130.699,21.3868 130.032,22.8868 130.5,24.5C 132.215,22.1182 134.215,20.1182 136.5,18.5C 138.23,17.9744 139.564,16.9744 140.5,15.5C 141.117,15.3893 141.617,15.056 142,14.5C 143.219,19.9446 142.052,24.7779 138.5,29C 139.381,29.7083 140.047,30.5416 140.5,31.5 Z"/></g>
<g><path style="opacity:1" fill="#897525" d="M 140.5,89.5 C 140.5,90.8333 141.167,91.5 142.5,91.5C 140.304,92.8541 138.804,94.8541 138,97.5C 136.864,95.257 136.03,92.9237 135.5,90.5C 136.79,91.0577 137.623,92.0577 138,93.5C 138.934,92.1416 139.768,90.8083 140.5,89.5 Z"/></g>
<g><path style="opacity:1" fill="#9b842d" d="M 159.5,91.5 C 160.139,90.9032 160.472,90.0698 160.5,89C 159.402,84.7926 158.569,80.626 158,76.5C 160.105,80.5834 161.438,84.9167 162,89.5C 162.667,88.1667 163.333,86.8333 164,85.5C 164.631,88.5836 163.798,91.2503 161.5,93.5C 160.478,93.1445 159.811,92.4778 159.5,91.5 Z"/></g>
<g><path style="opacity:1" fill="#a38a2b" d="M 159.5,91.5 C 156.452,90.2065 153.285,89.2065 150,88.5C 147.292,89.1086 144.792,90.1086 142.5,91.5C 145.599,87.7597 149.599,86.593 154.5,88C 156.584,88.6972 158.251,89.8639 159.5,91.5 Z"/></g>
<g><path style="opacity:1" fill="#988030" d="M 135.5,90.5 C 131.675,89.0187 127.675,88.1854 123.5,88C 126.5,87.3333 129.5,87.3333 132.5,88C 133.942,88.3768 134.942,89.2101 135.5,90.5 Z"/></g>
<g><path style="opacity:1" fill="#a48c32" d="M 88.5,98.5 C 89.7653,97.5207 91.0986,96.5207 92.5,95.5C 89.81,90.2888 90.1433,85.2888 93.5,80.5C 93.8333,80.6667 94.1667,80.8333 94.5,81C 91.8333,86 91.8333,91 94.5,96C 92.8421,97.6625 90.8421,98.4959 88.5,98.5 Z"/></g>
<g><path style="opacity:1" fill="#9f8526" d="M 80.5,79.5 C 80.4332,81.4008 80.7665,83.2341 81.5,85C 80.9221,86.8114 80.4221,88.6447 80,90.5C 79.8195,87.3054 79.3195,84.3054 78.5,81.5C 78.8333,80.5 79.5,79.8333 80.5,79.5 Z"/></g>
<g><path style="opacity:1" fill="#9c8528" d="M 150.5,67.5 C 151.031,69.6237 152.365,71.1237 154.5,72C 152.632,72.0038 150.798,71.5038 149,70.5C 146.861,71.2364 144.861,72.2364 143,73.5C 142.933,79.0981 142.099,84.4314 140.5,89.5C 141.426,84.4615 141.426,79.4615 140.5,74.5C 133.645,72.413 126.645,71.0797 119.5,70.5C 120.274,69.8529 121.274,69.5195 122.5,69.5C 128.668,70.5416 134.835,71.5416 141,72.5C 144.415,71.2103 147.582,69.5436 150.5,67.5 Z"/></g>
<g><path style="opacity:1" fill="#a38c2e" d="M 106.5,67.5 C 105.438,69.7565 103.772,70.9232 101.5,71C 102.789,69.1978 104.456,68.0312 106.5,67.5 Z"/></g>
<g><path style="opacity:1" fill="#867122" d="M 113.5,68.5 C 115.548,68.1596 116.548,68.4929 116.5,69.5C 113.07,69.1065 109.904,69.7732 107,71.5C 106.544,70.2559 107.044,69.4226 108.5,69C 110.134,68.5065 111.801,68.3398 113.5,68.5 Z"/></g>
<g><path style="opacity:1" fill="#af9929" d="M 128.5,65.5 C 128.5,66.1667 128.5,66.8333 128.5,67.5C 127.167,67.5 125.833,67.5 124.5,67.5C 118.651,66.3357 112.651,66.3357 106.5,67.5C 109.373,65.3229 112.706,64.3229 116.5,64.5C 120.489,65.0225 124.489,65.3558 128.5,65.5 Z"/></g>
<g><path style="opacity:1" fill="#9d852f" d="M 158.5,49.5 C 158.579,50.9305 158.246,52.2638 157.5,53.5C 158.376,54.2508 159.376,54.7508 160.5,55C 157.27,55.9134 155.27,58.08 154.5,61.5C 157.556,62.1962 160.556,63.0296 163.5,64C 160.833,64 158.167,64 155.5,64C 153.953,65.3866 152.287,66.5533 150.5,67.5C 153.205,61.4316 155.872,55.4316 158.5,49.5 Z"/></g>
<g><path style="opacity:1" fill="#dabc30" d="M 139.5,54.5 C 140.147,55.2739 140.48,56.2739 140.5,57.5C 139.655,62.5962 138.322,62.5962 136.5,57.5C 136.5,55.5 137.5,54.5 139.5,54.5 Z"/></g>
<g><path style="opacity:1" fill="#9f822b" d="M 176.5,55.5 C 179.253,54.3414 181.919,54.8414 184.5,57C 181.826,56.8471 179.16,56.3471 176.5,55.5 Z"/></g>
<g><path style="opacity:1" fill="#968328" d="M 138.5,50.5 C 138.433,51.9587 138.766,53.2921 139.5,54.5C 137.5,54.5 136.5,55.5 136.5,57.5C 135.833,57.5 135.167,57.5 134.5,57.5C 135.584,54.9959 136.917,52.6626 138.5,50.5 Z"/></g>
<g><path style="opacity:1" fill="#924d1d" d="M 141.5,47.5 C 140.778,48.5511 139.778,49.2178 138.5,49.5C 138.888,44.7587 139.888,44.092 141.5,47.5 Z"/></g>
<g><path style="opacity:1" fill="#ae9932" d="M 133.5,29.5 C 138.696,29.5649 138.696,30.2316 133.5,31.5C 133.167,32.5 132.833,33.5 132.5,34.5C 133.02,37.0396 133.687,39.5396 134.5,42C 134.491,43.4038 133.991,44.5704 133,45.5C 132.541,41.5811 131.708,37.7478 130.5,34C 130.557,31.7911 131.557,30.2911 133.5,29.5 Z"/></g>
<g><path style="opacity:1" fill="#a69234" d="M 113.5,21.5 C 117.182,21.3347 120.848,21.5014 124.5,22C 121.755,24.1206 119.089,26.2872 116.5,28.5C 113.907,26.9292 112.907,24.5959 113.5,21.5 Z"/></g>
<g><path style="opacity:1" fill="#1d180a" d="M 115.5,22.5 C 116.5,22.5 117.5,22.5 118.5,22.5C 118.5,23.5 118.5,24.5 118.5,25.5C 117.5,25.5 116.5,25.5 115.5,25.5C 115.5,24.5 115.5,23.5 115.5,22.5 Z"/></g>
<g><path style="opacity:1" fill="#957c2b" d="M 134.5,17.5 C 135.167,17.8333 135.833,18.1667 136.5,18.5C 134.215,20.1182 132.215,22.1182 130.5,24.5C 130.032,22.8868 130.699,21.3868 132.5,20C 128.644,19.8227 124.977,19.3227 121.5,18.5C 124.5,18.5 127.5,18.5 130.5,18.5C 132.099,18.7678 133.432,18.4345 134.5,17.5 Z"/></g>
<g><path style="opacity:1" fill="#994322" d="M 88.5,98.5 C 85.5,100.833 82.8333,103.5 80.5,106.5C 80.3832,104.516 81.0499,102.85 82.5,101.5C 81.6906,99.9291 81.3573,98.2624 81.5,96.5C 80.1667,96.5 78.8333,96.5 77.5,96.5C 79.5179,95.9528 81.3513,94.9528 83,93.5C 83.4935,95.1341 83.6602,96.8008 83.5,98.5C 85.1667,98.5 86.8333,98.5 88.5,98.5 Z"/></g>
<g><path style="opacity:1" fill="#947a24" d="M 164.5,103.5 C 166.641,102.837 168.975,102.503 171.5,102.5C 175.141,102.315 178.474,102.981 181.5,104.5C 180.167,104.833 178.833,105.167 177.5,105.5C 173.627,103.57 169.294,102.903 164.5,103.5 Z"/></g>
<g><path style="opacity:1" fill="#eecf31" d="M 45.5,105.5 C 46.8333,105.5 48.1667,105.5 49.5,105.5C 49.7148,107.179 49.0481,108.179 47.5,108.5C 45.4184,108.624 43.9184,109.624 43,111.5C 42.3333,109.833 42.3333,108.167 43,106.5C 43.6708,105.748 44.5041,105.414 45.5,105.5 Z"/></g>
<g><path style="opacity:1" fill="#a78e29" d="M 111.5,98.5 C 113.616,100.088 113.949,102.088 112.5,104.5C 109.547,105.592 106.547,106.092 103.5,106C 105.715,104.956 108.048,104.29 110.5,104C 111.406,102.301 111.739,100.467 111.5,98.5 Z"/></g>
<g><path style="opacity:1" fill="#a4852d" d="M 45.5,105.5 C 46.9187,104.549 48.5853,104.216 50.5,104.5C 50.8417,105.338 51.5084,105.672 52.5,105.5C 50.3939,107.719 49.3939,110.385 49.5,113.5C 49.1667,113.5 48.8333,113.5 48.5,113.5C 48.5,112.833 48.5,112.167 48.5,111.5C 48.4431,110.391 48.1098,109.391 47.5,108.5C 49.0481,108.179 49.7148,107.179 49.5,105.5C 48.1667,105.5 46.8333,105.5 45.5,105.5 Z"/></g>
<g><path style="opacity:1" fill="#a42623" d="M 164.5,103.5 C 155.932,107.809 152.932,114.643 155.5,124C 154.944,125.011 154.278,125.844 153.5,126.5C 153.659,121.466 153.326,116.3 152.5,111C 154.291,110.585 155.624,109.585 156.5,108C 154.098,109.046 151.432,109.546 148.5,109.5C 149.29,108.206 150.29,107.039 151.5,106C 155.857,105.147 160.191,104.313 164.5,103.5 Z"/></g>
<g><path style="opacity:1" fill="#9d2d23" d="M 50.5,104.5 C 48.5853,104.216 46.9187,104.549 45.5,105.5C 44.5041,105.414 43.6708,105.748 43,106.5C 42.3333,108.167 42.3333,109.833 43,111.5C 43.9184,109.624 45.4184,108.624 47.5,108.5C 48.1098,109.391 48.4431,110.391 48.5,111.5C 47.4168,111.461 46.4168,111.127 45.5,110.5C 44.8524,112.149 43.8524,113.482 42.5,114.5C 39.2351,105.788 41.9017,102.455 50.5,104.5 Z"/></g>
<g><path style="opacity:1" fill="#947725" d="M 95.5,112.5 C 94.5,112.5 93.5,112.5 92.5,112.5C 94.3307,110.251 96.6641,109.085 99.5,109C 97.9069,109.949 96.5736,111.115 95.5,112.5 Z"/></g>
<g><path style="opacity:1" fill="#c31a26" d="M 181.5,104.5 C 188.429,108.808 189.763,114.474 185.5,121.5C 176.451,127.16 170.451,124.993 167.5,115C 168.849,109.812 172.183,106.646 177.5,105.5C 178.833,105.167 180.167,104.833 181.5,104.5 Z"/></g>
<g><path style="opacity:1" fill="#91301e" d="M 48.5,113.5 C 48.8333,113.5 49.1667,113.5 49.5,113.5C 53.9854,114.274 58.3187,115.774 62.5,118C 56.4899,117.929 50.4899,117.429 44.5,116.5C 46.2191,115.978 47.5525,114.978 48.5,113.5 Z"/></g>
<g><path style="opacity:1" fill="#ddbe37" d="M 204.5,114.5 C 207.95,115.737 208.95,118.07 207.5,121.5C 206.735,120.388 205.735,119.721 204.5,119.5C 204.5,117.833 204.5,116.167 204.5,114.5 Z"/></g>
<g><path style="opacity:1" fill="#993a1f" d="M 97.5,113.5 C 100.045,113.151 102.045,113.984 103.5,116C 106.399,116.186 109.066,116.352 111.5,116.5C 108.66,117.12 105.826,117.787 103,118.5C 102.021,115.78 100.188,114.114 97.5,113.5 Z"/></g>
<g><path style="opacity:1" fill="#922a1b" d="M 111.5,116.5 C 116.07,117.024 120.737,117.024 125.5,116.5C 122.197,117.478 118.697,118.145 115,118.5C 113.319,118.392 112.152,117.725 111.5,116.5 Z"/></g>
<g><path style="opacity:1" fill="#947729" d="M 203.5,109.5 C 204.451,110.919 204.784,112.585 204.5,114.5C 204.5,116.167 204.5,117.833 204.5,119.5C 203.833,119.833 203.167,120.167 202.5,120.5C 203.114,116.865 203.448,113.198 203.5,109.5 Z"/></g>
<g><path style="opacity:1" fill="#80621c" d="M 44.5,116.5 C 44.5,119.167 44.5,121.833 44.5,124.5C 43.8333,124.5 43.1667,124.5 42.5,124.5C 43.7416,122.389 43.7416,120.389 42.5,118.5C 42.8333,117.5 43.5,116.833 44.5,116.5 Z"/></g>
<g><path style="opacity:1" fill="#debe33" d="M 42.5,118.5 C 43.7416,120.389 43.7416,122.389 42.5,124.5C 42.0276,126.531 41.0276,128.198 39.5,129.5C 37.6025,124.967 38.6025,121.301 42.5,118.5 Z"/></g>
<g><path style="opacity:1" fill="#a12a24" d="M 49.5,129.5 C 48.0821,127.692 46.0821,127.025 43.5,127.5C 43.5391,129.359 42.7058,130.692 41,131.5C 40.2828,130.956 39.7828,130.289 39.5,129.5C 41.0276,128.198 42.0276,126.531 42.5,124.5C 43.1667,124.5 43.8333,124.5 44.5,124.5C 45.3121,125.993 46.6455,126.66 48.5,126.5C 51.2325,125.637 53.8992,124.471 56.5,123C 58.2588,122.202 59.9255,122.369 61.5,123.5C 57.7255,126.054 53.7255,128.054 49.5,129.5 Z"/></g>
<g><path style="opacity:1" fill="#d0b133" d="M 88.5,123.5 C 94.0964,125.973 94.9297,129.639 91,134.5C 90.5065,132.866 90.3398,131.199 90.5,129.5C 89.5,129.5 88.5,129.5 87.5,129.5C 88.1495,127.565 88.4828,125.565 88.5,123.5 Z"/></g>
<g><path style="opacity:1" fill="#9f8a3a" d="M 161.5,133.5 C 163.368,134.263 165.035,135.263 166.5,136.5C 164.473,136.662 162.473,136.495 160.5,136C 161.252,135.329 161.586,134.496 161.5,133.5 Z"/></g>
<g><path style="opacity:1" fill="#8f6722" d="M 191.5,135.5 C 191.011,136.995 190.345,138.329 189.5,139.5C 189.631,138.761 189.464,138.094 189,137.5C 187.45,138.591 186.283,139.924 185.5,141.5C 185.5,140.5 185.5,139.5 185.5,138.5C 187.181,136.992 189.181,135.992 191.5,135.5 Z"/></g>
<g><path style="opacity:1" fill="#c7a532" d="M 49.5,130.5 C 49.7759,133.719 51.1093,136.385 53.5,138.5C 52.5,138.5 51.5,138.5 50.5,138.5C 52.445,143.227 51.445,144.227 47.5,141.5C 46.1054,137.42 46.7721,133.754 49.5,130.5 Z"/></g>
<g><path style="opacity:1" fill="#a92a24" d="M 87.5,130.5 C 86.0473,132.229 84.0473,133.229 81.5,133.5C 78.8972,131.951 76.3972,130.285 74,128.5C 69.8762,127.144 66.0428,127.811 62.5,130.5C 61.7615,134.081 60.0948,137.081 57.5,139.5C 55.9936,140.747 54.4936,140.747 53,139.5C 53.1349,141.425 53.3016,143.425 53.5,145.5C 51.4588,145.146 49.6255,145.146 48,145.5C 47.51,144.207 47.3433,142.873 47.5,141.5C 51.445,144.227 52.445,143.227 50.5,138.5C 51.5,138.5 52.5,138.5 53.5,138.5C 55.9032,138.607 57.7365,137.607 59,135.5C 60.8679,127.148 66.0346,123.648 74.5,125C 76.539,127.374 78.8723,129.374 81.5,131C 83.5454,131.49 85.5454,131.323 87.5,130.5 Z"/></g>
<g><path style="opacity:1" fill="#caaf3b" d="M 172.5,138.5 C 176.167,138.5 179.833,138.5 183.5,138.5C 179.558,138.93 175.891,140.264 172.5,142.5C 171.833,142.167 171.167,141.833 170.5,141.5C 171.193,140.482 171.859,139.482 172.5,138.5 Z"/></g>
<g><path style="opacity:1" fill="#e5c636" d="M 189.5,139.5 C 189.042,142.309 187.709,142.976 185.5,141.5C 186.283,139.924 187.45,138.591 189,137.5C 189.464,138.094 189.631,138.761 189.5,139.5 Z"/></g>
</svg>
