<?xml version="1.0" encoding="UTF-8"?>
<svg xmlns="http://www.w3.org/2000/svg" xmlns:xlink="http://www.w3.org/1999/xlink" width="150px" height="150px" viewBox="0 0 150 106" version="1.1">
<g id="surface1">
<path style=" stroke:none;fill-rule:evenodd;fill:rgb(1.960784%,1.568628%,1.568628%);fill-opacity:1;" d="M 0.5 52.941406 L 0.5 105.882812 L 149.5 105.882812 L 149.5 0 L 0.5 0 L 0.5 52.941406 M 144.308594 5.207031 L 144.550781 5.4375 L 144.550781 100.414062 L 144.320312 100.660156 L 144.09375 100.90625 L 5.9375 100.90625 L 5.691406 100.675781 L 5.449219 100.445312 L 5.449219 5.464844 L 5.679688 5.222656 L 5.90625 4.976562 L 144.0625 4.976562 L 144.308594 5.207031 M 63.3125 19.898438 C 63.136719 19.949219 62.867188 20.019531 62.707031 20.054688 C 62.550781 20.089844 62.246094 20.273438 62.03125 20.464844 C 61.671875 20.78125 61.578125 20.808594 60.667969 20.871094 C 58.9375 20.980469 58.46875 21.902344 60.066406 22.046875 C 60.769531 22.109375 61.152344 22.355469 61.152344 22.742188 C 61.152344 22.902344 61.222656 23.136719 61.308594 23.261719 C 61.457031 23.472656 61.445312 23.5 61.082031 23.714844 C 60.648438 23.972656 60.273438 23.933594 60.101562 23.617188 C 60.039062 23.496094 59.703125 23.324219 59.253906 23.179688 C 58.703125 23.003906 58.453125 22.863281 58.292969 22.632812 C 58.171875 22.460938 57.875 22.238281 57.636719 22.132812 C 57.398438 22.027344 57.089844 21.820312 56.949219 21.664062 C 56.539062 21.222656 56.402344 21.316406 56.148438 22.214844 C 56.0625 22.519531 56.316406 22.828125 56.832031 23.042969 C 57.035156 23.128906 57.296875 23.285156 57.414062 23.394531 C 57.53125 23.5 57.839844 23.621094 58.097656 23.660156 C 58.996094 23.796875 59.253906 23.921875 59.414062 24.308594 C 59.53125 24.597656 59.621094 24.671875 59.859375 24.671875 C 60.347656 24.671875 60.855469 24.859375 61.277344 25.203125 C 61.570312 25.441406 61.902344 25.570312 62.496094 25.691406 C 62.945312 25.78125 63.644531 25.921875 64.050781 26.007812 C 64.917969 26.183594 66.683594 27.050781 67.210938 27.554688 C 67.902344 28.222656 68.03125 28.351562 68.441406 28.792969 C 71.085938 31.640625 68.882812 36.386719 65.972656 34.117188 C 65.148438 33.472656 64.996094 33.117188 65.035156 31.871094 C 65.046875 31.375 65.070312 30.589844 65.082031 30.125 L 65.101562 29.28125 L 64.753906 29.066406 C 64.5625 28.949219 64.175781 28.699219 63.898438 28.515625 C 63.617188 28.328125 63.140625 28.097656 62.84375 27.996094 C 62.546875 27.898438 62.101562 27.683594 61.859375 27.515625 C 61.617188 27.347656 61.097656 27.113281 60.707031 26.996094 C 60.3125 26.875 59.769531 26.640625 59.496094 26.46875 C 58.957031 26.136719 57.769531 25.808594 57.484375 25.914062 C 57.386719 25.949219 57.132812 26.089844 56.917969 26.226562 C 56.289062 26.617188 54.066406 26.207031 53.144531 25.527344 C 52.996094 25.421875 52.617188 25.199219 52.300781 25.039062 C 51.367188 24.5625 49.527344 22.875 49.164062 22.160156 C 48.953125 21.742188 48.308594 21.085938 47.886719 20.859375 C 47.652344 20.734375 47.027344 20.972656 46.605469 21.351562 C 46.152344 21.757812 46.140625 23.125 46.582031 23.78125 C 46.71875 23.984375 46.90625 24.296875 47 24.476562 C 47.378906 25.210938 48.953125 26.628906 49.773438 26.972656 C 49.980469 27.058594 50.410156 27.289062 50.726562 27.484375 C 51.046875 27.679688 51.6875 27.957031 52.148438 28.101562 C 52.613281 28.242188 53.253906 28.457031 53.570312 28.578125 C 53.890625 28.695312 54.363281 28.796875 54.625 28.800781 C 55.964844 28.816406 56.511719 29.21875 56.246094 29.996094 C 55.988281 30.753906 55.851562 30.8125 54.257812 30.808594 C 52.773438 30.808594 52.25 30.710938 50.839844 30.1875 C 49.902344 29.835938 49.46875 29.601562 49.328125 29.363281 C 49.28125 29.285156 49.019531 29.109375 48.75 28.96875 C 48.476562 28.832031 48.164062 28.617188 48.054688 28.492188 C 47.558594 27.941406 46.269531 28.949219 46.460938 29.738281 C 46.644531 30.464844 47.480469 31.648438 48.070312 32 C 48.386719 32.191406 48.820312 32.453125 49.035156 32.582031 C 49.847656 33.074219 52.398438 33.273438 54.609375 33.019531 C 55.742188 32.890625 56.046875 32.925781 56.417969 33.226562 L 56.65625 33.425781 L 56.222656 34.003906 C 55.898438 34.4375 55.644531 34.648438 55.230469 34.828125 C 54.925781 34.960938 54.367188 35.21875 53.992188 35.398438 C 53.367188 35.703125 53.199219 35.734375 52.070312 35.769531 L 50.835938 35.808594 L 49.65625 35.210938 C 49.007812 34.878906 48.316406 34.46875 48.125 34.296875 C 47.390625 33.648438 46.410156 34.167969 46.410156 35.203125 C 46.410156 35.929688 47.925781 37.640625 48.804688 37.910156 C 50.265625 38.355469 53.011719 38.074219 54.460938 37.328125 C 55.640625 36.726562 56.445312 36.695312 56.808594 37.246094 C 56.957031 37.46875 56.933594 37.507812 56.308594 38.089844 C 54.503906 39.769531 51.1875 40.945312 49.78125 40.398438 C 47.695312 39.59375 46.515625 39.796875 46.515625 40.96875 C 46.515625 41.550781 47.425781 42.585938 48.046875 42.703125 C 49.261719 42.933594 50.925781 42.828125 51.742188 42.464844 C 51.992188 42.351562 52.566406 42.160156 53.015625 42.035156 C 53.46875 41.910156 54.1875 41.601562 54.621094 41.339844 C 55.601562 40.753906 56.308594 40.800781 56.308594 41.453125 C 56.308594 41.605469 55.078125 42.851562 54.75 43.03125 C 54.652344 43.085938 54.363281 43.3125 54.109375 43.535156 C 53.855469 43.757812 53.59375 43.941406 53.53125 43.941406 C 53.464844 43.941406 53.140625 44.128906 52.804688 44.355469 C 51.914062 44.964844 51.058594 45.140625 49.070312 45.125 L 47.464844 45.109375 L 47.097656 45.480469 C 45.875 46.710938 47.066406 48.28125 49.148438 48.183594 C 50.058594 48.140625 51.5 47.765625 51.9375 47.453125 C 52.171875 47.289062 52.527344 47.089844 52.730469 47.015625 C 52.929688 46.9375 53.335938 46.695312 53.625 46.484375 C 53.914062 46.269531 54.269531 46.03125 54.414062 45.957031 C 54.558594 45.878906 54.878906 45.632812 55.121094 45.410156 C 55.472656 45.089844 55.660156 44.996094 55.992188 44.984375 C 56.222656 44.976562 56.46875 44.964844 56.535156 44.957031 C 56.839844 44.929688 57.070312 45.476562 56.914062 45.855469 C 56.332031 47.253906 54.105469 49.371094 52.238281 50.304688 L 51.097656 50.875 L 49.042969 50.878906 C 46.460938 50.886719 46.230469 50.988281 46.53125 51.992188 C 46.800781 52.898438 48.171875 53.6875 49.1875 53.519531 C 51.882812 53.074219 54.476562 51.480469 56.265625 49.167969 C 56.519531 48.835938 56.960938 48.875 57.15625 49.246094 C 57.332031 49.574219 57.070312 50.464844 56.699219 50.808594 C 56.535156 50.964844 56.3125 51.257812 56.203125 51.46875 C 55.796875 52.253906 53.421875 54.699219 52.675781 55.101562 C 52.386719 55.257812 52 55.480469 51.816406 55.59375 C 51.339844 55.902344 50.121094 56.125 48.894531 56.132812 C 47.523438 56.144531 47.308594 56.226562 46.976562 56.886719 L 46.710938 57.410156 L 47.128906 58.007812 C 47.636719 58.738281 48.273438 59.039062 49.527344 59.144531 C 51.429688 59.304688 52.390625 58.816406 54.464844 56.632812 C 56.699219 54.285156 59.011719 51.785156 59.34375 51.359375 C 59.792969 50.78125 60.667969 51.359375 60.671875 52.234375 C 60.675781 53.710938 59.550781 55.269531 57.957031 55.996094 C 57.261719 56.3125 56.835938 56.863281 56.835938 57.445312 C 56.835938 58.035156 58.179688 58.316406 59.097656 57.917969 C 59.625 57.691406 60.90625 56.605469 61.003906 56.304688 C 61.035156 56.203125 61.246094 55.882812 61.472656 55.59375 C 61.769531 55.21875 61.949219 54.835938 62.105469 54.242188 C 62.363281 53.261719 62.738281 52.484375 63.183594 52.015625 C 63.589844 51.589844 63.589844 51.589844 64.089844 52.042969 L 64.496094 52.414062 L 64.359375 53.074219 C 64.0625 54.480469 63.949219 54.667969 62.628906 55.96875 L 62.15625 56.433594 L 62.417969 56.695312 C 62.78125 57.0625 63.621094 57.097656 64.082031 56.765625 C 64.675781 56.34375 65.699219 55.121094 65.960938 54.53125 C 66.398438 53.527344 66.5625 53.28125 67.042969 52.902344 C 67.574219 52.484375 67.609375 52.488281 67.878906 53.027344 C 68.109375 53.484375 67.953125 54.390625 67.574219 54.796875 C 67.460938 54.917969 67.242188 55.324219 67.09375 55.699219 C 66.773438 56.492188 66.191406 57.222656 64.996094 58.335938 C 64.433594 58.859375 62.359375 59.796875 61.386719 59.964844 C 60.015625 60.203125 59.742188 60.90625 60.628906 61.917969 C 61.199219 62.570312 61.066406 62.714844 59.621094 62.992188 C 59.046875 63.101562 58.335938 63.3125 58.046875 63.460938 C 57.699219 63.636719 57.027344 63.808594 56.082031 63.96875 L 54.644531 64.210938 L 54.082031 63.953125 C 53.773438 63.816406 53.375 63.570312 53.203125 63.410156 C 53.027344 63.246094 52.699219 63.054688 52.46875 62.980469 C 52.238281 62.902344 52 62.746094 51.941406 62.628906 C 51.882812 62.511719 51.691406 62.269531 51.515625 62.09375 C 51.34375 61.914062 51.078125 61.605469 50.925781 61.402344 L 50.652344 61.042969 L 49.496094 61.003906 C 47.6875 60.949219 47.21875 61.214844 48.039062 61.832031 C 48.296875 62.023438 48.53125 62.246094 48.558594 62.324219 C 48.691406 62.667969 49.710938 63.105469 50.386719 63.105469 C 50.996094 63.105469 51.074219 63.132812 51.472656 63.496094 C 52.578125 64.5 52.269531 65.261719 50.726562 65.324219 C 50.195312 65.347656 50.308594 65.429688 51.171875 65.648438 C 51.601562 65.761719 51.683594 65.828125 51.789062 66.144531 C 51.960938 66.667969 51.875 66.707031 50.445312 66.796875 C 48.851562 66.898438 48.566406 67.039062 48.222656 67.90625 C 47.730469 69.148438 48.019531 69.449219 49.464844 69.1875 C 50.683594 68.964844 50.871094 68.878906 51.140625 68.390625 C 51.269531 68.160156 51.519531 67.863281 51.695312 67.734375 C 51.871094 67.605469 52.054688 67.398438 52.101562 67.273438 C 52.167969 67.105469 52.367188 67.003906 52.941406 66.863281 C 53.359375 66.761719 53.910156 66.5625 54.171875 66.425781 L 54.644531 66.171875 L 55.191406 66.421875 C 55.492188 66.5625 55.984375 66.734375 56.285156 66.804688 C 56.761719 66.921875 56.863281 66.992188 57.070312 67.375 C 57.359375 67.902344 57.96875 68.175781 59.097656 68.292969 C 59.503906 68.332031 60.007812 68.445312 60.21875 68.539062 C 61.167969 68.964844 61.105469 67.859375 60.125 66.890625 C 59.628906 66.398438 59.621094 66.394531 58.574219 66.265625 C 57.65625 66.152344 57.484375 66.097656 57.230469 65.847656 C 56.695312 65.3125 56.972656 65.117188 58.625 64.871094 C 59.285156 64.773438 60.0625 64.574219 60.554688 64.375 C 61.851562 63.855469 62.667969 63.828125 63.207031 64.292969 C 63.4375 64.492188 63.839844 64.800781 64.101562 64.980469 L 64.574219 65.300781 L 65.15625 65.023438 C 65.6875 64.769531 65.765625 64.683594 66.109375 63.980469 C 66.316406 63.5625 66.558594 63.132812 66.652344 63.027344 C 66.742188 62.925781 66.933594 62.601562 67.070312 62.3125 C 67.210938 62.019531 67.5 61.550781 67.714844 61.269531 C 67.925781 60.988281 68.101562 60.71875 68.101562 60.667969 C 68.101562 60.527344 69.261719 59.246094 69.925781 58.648438 C 70.59375 58.050781 71.382812 57.8125 71.777344 58.089844 C 72.089844 58.3125 72.632812 59.359375 72.628906 59.742188 C 72.628906 60.363281 71.867188 62.476562 71.441406 63.035156 C 71.226562 63.316406 71.050781 63.589844 71.050781 63.640625 C 71.050781 63.859375 69.316406 65.65625 68.808594 65.96875 C 68.507812 66.152344 68.140625 66.410156 67.996094 66.542969 C 67.488281 66.996094 66.46875 67.28125 65.304688 67.292969 C 63.90625 67.304688 63.027344 67.855469 63.296875 68.554688 C 63.558594 69.238281 66.257812 69.9375 66.851562 69.472656 C 66.988281 69.367188 67.269531 69.191406 67.472656 69.089844 C 67.671875 68.984375 68.035156 68.722656 68.273438 68.503906 C 68.832031 67.988281 69.492188 67.84375 69.816406 68.171875 C 70.519531 68.875 67.804688 71.316406 65.921875 71.675781 C 65.121094 71.828125 64.417969 72.171875 64.417969 72.40625 C 64.417969 72.925781 66.144531 73.820312 66.78125 73.628906 C 67.933594 73.285156 69.140625 72.53125 70.109375 71.542969 C 70.828125 70.808594 71.425781 71.894531 70.867188 72.917969 C 70.101562 74.316406 69.070312 75.070312 67.925781 75.070312 C 66.777344 75.070312 66.800781 76.570312 67.957031 76.921875 C 69.4375 77.375 70.511719 76.71875 71.839844 74.550781 C 72.285156 73.824219 72.386719 73.695312 72.53125 73.695312 C 72.953125 73.691406 73.390625 74.378906 73.3125 74.925781 C 73.101562 76.398438 73 76.621094 72.042969 77.683594 C 71.046875 78.789062 70.910156 79.253906 71.414062 79.820312 C 71.605469 80.03125 71.863281 80.40625 71.984375 80.652344 C 72.109375 80.898438 72.34375 81.257812 72.507812 81.445312 C 72.671875 81.636719 72.9375 82.042969 73.101562 82.34375 C 73.261719 82.644531 73.457031 82.917969 73.535156 82.949219 C 73.613281 82.976562 73.8125 83.277344 73.984375 83.617188 C 74.296875 84.242188 75.394531 85.402344 75.570312 85.292969 C 75.621094 85.261719 75.832031 84.980469 76.035156 84.671875 C 76.242188 84.359375 76.484375 84.042969 76.582031 83.964844 C 76.675781 83.882812 76.863281 83.597656 77 83.328125 C 77.136719 83.058594 77.320312 82.777344 77.414062 82.703125 C 77.503906 82.625 77.730469 82.296875 77.914062 81.96875 C 78.097656 81.640625 78.40625 81.183594 78.597656 80.953125 C 78.792969 80.726562 78.949219 80.476562 78.949219 80.398438 C 78.949219 80.320312 79.121094 80.066406 79.332031 79.832031 L 79.714844 79.410156 L 79.527344 78.90625 C 79.421875 78.613281 79.113281 78.164062 78.785156 77.824219 C 77.703125 76.691406 76.929688 74.546875 77.449219 74.097656 C 78.125 73.507812 78.742188 73.726562 79.042969 74.65625 C 79.109375 74.863281 79.378906 75.289062 79.636719 75.59375 C 79.898438 75.902344 80.160156 76.246094 80.222656 76.359375 C 80.820312 77.484375 83.589844 77.183594 83.667969 75.988281 C 83.707031 75.351562 83.597656 75.21875 82.972656 75.128906 C 81.144531 74.863281 79.792969 73.609375 79.792969 72.1875 C 79.792969 71.1875 80.265625 71.136719 81.191406 72.035156 C 81.609375 72.441406 82.164062 72.863281 82.421875 72.972656 C 82.683594 73.085938 83.0625 73.265625 83.265625 73.371094 C 84.15625 73.832031 85.097656 73.6875 85.820312 72.980469 C 86.421875 72.390625 86.109375 71.867188 85.082031 71.738281 C 83 71.46875 80.242188 68.953125 81.125 68.128906 C 81.488281 67.789062 81.539062 67.804688 82.441406 68.523438 C 84.261719 69.980469 85.585938 70.027344 87.210938 68.683594 L 87.523438 68.425781 L 87.21875 67.980469 C 86.734375 67.28125 86.617188 67.230469 85.589844 67.304688 C 84.550781 67.378906 83.378906 67.046875 82.664062 66.476562 C 82.457031 66.308594 82.113281 66.070312 81.90625 65.945312 C 81.015625 65.402344 79.304688 63.335938 78.929688 62.34375 C 78.820312 62.050781 78.605469 61.570312 78.457031 61.269531 C 77.589844 59.558594 78.515625 57.59375 79.953125 58.082031 C 80.644531 58.320312 82.484375 60.183594 82.976562 61.144531 C 83.09375 61.375 83.316406 61.734375 83.472656 61.9375 C 83.628906 62.144531 83.84375 62.527344 83.949219 62.789062 C 84.054688 63.050781 84.273438 63.433594 84.425781 63.636719 C 84.582031 63.84375 84.808594 64.203125 84.929688 64.4375 C 85.222656 65.019531 85.34375 65.101562 85.964844 65.128906 C 86.488281 65.152344 87.265625 64.757812 87.265625 64.464844 C 87.265625 63.910156 88.910156 63.863281 90.203125 64.386719 C 90.652344 64.566406 91.464844 64.777344 92.054688 64.863281 C 93.390625 65.0625 93.550781 65.105469 93.699219 65.285156 C 94.042969 65.703125 93.011719 66.28125 91.921875 66.28125 C 91.425781 66.28125 91.292969 66.328125 90.949219 66.625 C 90.734375 66.816406 90.429688 67.074219 90.28125 67.199219 C 89.542969 67.820312 90.035156 68.824219 90.898438 68.460938 C 91.117188 68.367188 91.527344 68.292969 91.8125 68.292969 C 92.503906 68.292969 93.480469 67.804688 93.765625 67.3125 C 93.953125 66.996094 94.109375 66.914062 95.144531 66.566406 L 96.316406 66.175781 L 96.792969 66.480469 C 97.0625 66.652344 97.496094 66.816406 97.800781 66.855469 C 98.136719 66.898438 98.398438 67.003906 98.511719 67.136719 C 98.613281 67.253906 98.929688 67.609375 99.21875 67.925781 C 99.507812 68.242188 99.847656 68.617188 99.96875 68.757812 C 100.128906 68.941406 100.34375 69.035156 100.707031 69.082031 C 100.988281 69.113281 101.433594 69.21875 101.695312 69.308594 C 102.523438 69.601562 102.679688 69.53125 102.800781 68.808594 C 102.996094 67.648438 101.925781 66.789062 100.28125 66.785156 C 99.15625 66.777344 98.957031 66.710938 98.957031 66.347656 C 98.957031 65.957031 99.25 65.652344 99.699219 65.582031 C 100.203125 65.5 100.355469 65.328125 99.925781 65.328125 C 98.8125 65.328125 98.40625 64.730469 98.929688 63.847656 C 99.335938 63.160156 99.324219 63.164062 100.667969 63.050781 C 101.453125 62.984375 102.113281 62.625 102.113281 62.265625 C 102.113281 62.222656 102.351562 62.035156 102.640625 61.855469 C 103.5625 61.277344 103.15625 60.988281 101.421875 60.988281 L 100.296875 60.988281 L 99.601562 61.703125 C 99.214844 62.097656 98.855469 62.507812 98.796875 62.621094 C 98.738281 62.734375 98.550781 62.871094 98.375 62.925781 C 98.203125 62.980469 97.824219 63.207031 97.535156 63.425781 C 96.796875 63.980469 96.398438 64.164062 95.933594 64.164062 C 95.285156 64.15625 93.148438 63.6875 92.679688 63.445312 C 92.441406 63.324219 91.785156 63.128906 91.21875 63.015625 C 89.792969 62.730469 89.648438 62.574219 90.164062 61.894531 C 91.027344 60.757812 90.828125 60.246094 89.425781 59.988281 C 87.917969 59.707031 85.976562 58.675781 85.066406 57.664062 C 84.917969 57.496094 84.644531 57.210938 84.464844 57.03125 C 84.285156 56.847656 84.035156 56.472656 83.917969 56.195312 C 83.796875 55.917969 83.554688 55.488281 83.378906 55.242188 C 82.796875 54.417969 82.691406 53.382812 83.136719 52.847656 L 83.425781 52.496094 L 83.625 52.71875 C 84.011719 53.148438 84.527344 53.953125 84.882812 54.6875 C 85.628906 56.226562 87.078125 57.28125 87.882812 56.867188 C 88.582031 56.507812 88.617188 56.613281 87.253906 55.074219 C 87.03125 54.820312 86.847656 54.5625 86.847656 54.5 C 86.847656 54.4375 86.707031 54.097656 86.539062 53.742188 C 85.9375 52.476562 86.066406 51.996094 87.058594 51.828125 C 87.613281 51.734375 87.808594 51.917969 88.054688 52.75 C 88.140625 53.039062 88.300781 53.429688 88.414062 53.613281 C 88.527344 53.796875 88.722656 54.304688 88.851562 54.742188 C 89.023438 55.3125 89.179688 55.625 89.425781 55.851562 C 89.609375 56.027344 89.84375 56.324219 89.9375 56.511719 C 90.035156 56.699219 90.242188 56.925781 90.402344 57.007812 C 90.558594 57.09375 90.820312 57.304688 90.980469 57.476562 C 91.511719 58.058594 93.023438 58.34375 93.5625 57.964844 C 94.324219 57.429688 93.875 56.347656 92.726562 55.957031 C 92.457031 55.863281 92.121094 55.683594 91.984375 55.554688 C 91.84375 55.429688 91.566406 55.199219 91.367188 55.046875 C 91.167969 54.894531 90.933594 54.632812 90.851562 54.464844 C 90.765625 54.296875 90.554688 53.949219 90.378906 53.695312 C 90.082031 53.269531 90.058594 53.167969 90.0625 52.355469 C 90.070312 51.285156 90.160156 51.140625 90.773438 51.21875 C 91.378906 51.296875 91.230469 51.167969 93.324219 53.46875 C 98.261719 58.902344 99.164062 59.515625 101.613281 59.101562 C 103.472656 58.785156 104.265625 57.816406 103.675781 56.578125 C 103.503906 56.214844 103.140625 56.132812 101.660156 56.125 C 100.320312 56.117188 99.347656 55.890625 98.628906 55.417969 C 98.316406 55.210938 97.894531 54.953125 97.691406 54.84375 C 97.113281 54.527344 95.476562 52.832031 94.882812 51.933594 C 94.730469 51.703125 94.449219 51.335938 94.257812 51.121094 C 94.066406 50.90625 93.863281 50.546875 93.804688 50.324219 C 93.746094 50.101562 93.625 49.824219 93.539062 49.707031 C 93.3125 49.40625 93.335938 49.347656 93.738281 49.175781 C 94.300781 48.941406 94.492188 48.984375 94.75 49.402344 C 95.332031 50.347656 96.886719 51.644531 98.691406 52.6875 C 99.054688 52.894531 101.605469 53.578125 102.027344 53.578125 C 102.441406 53.578125 103.628906 53.007812 103.8125 52.71875 C 104.5625 51.546875 104.027344 50.605469 102.746094 50.84375 C 102.425781 50.902344 101.59375 50.933594 100.894531 50.910156 L 99.621094 50.867188 L 98.417969 50.25 C 97.757812 49.910156 97.125 49.523438 97.007812 49.386719 C 96.890625 49.253906 96.65625 49.058594 96.480469 48.953125 C 95.847656 48.566406 94.066406 46.554688 93.964844 46.113281 C 93.925781 45.9375 93.867188 45.714844 93.839844 45.621094 C 93.8125 45.527344 93.910156 45.300781 94.058594 45.125 L 94.328125 44.804688 L 94.824219 44.96875 C 95.097656 45.058594 95.488281 45.289062 95.691406 45.476562 C 95.894531 45.667969 96.226562 45.90625 96.429688 46.007812 C 96.632812 46.105469 96.914062 46.300781 97.0625 46.433594 C 97.207031 46.570312 97.609375 46.8125 97.957031 46.96875 C 98.304688 47.128906 98.730469 47.367188 98.902344 47.496094 C 99.917969 48.261719 103.007812 48.375 103.613281 47.667969 C 103.996094 47.226562 104.132812 46.472656 103.933594 45.914062 C 103.65625 45.136719 103.480469 45.0625 102.121094 45.140625 C 100.328125 45.242188 98.53125 44.910156 97.957031 44.363281 C 97.839844 44.253906 97.574219 44.09375 97.367188 44.003906 C 97.160156 43.917969 96.855469 43.710938 96.683594 43.546875 C 96.515625 43.382812 96.140625 43.082031 95.847656 42.886719 C 94.972656 42.285156 94.246094 41.429688 94.445312 41.230469 C 94.875 40.796875 95.628906 40.878906 96.273438 41.429688 C 96.453125 41.578125 96.992188 41.816406 97.488281 41.960938 C 97.976562 42.105469 98.632812 42.328125 98.945312 42.453125 C 99.613281 42.71875 101.164062 42.882812 102.0625 42.777344 C 103.777344 42.578125 104.753906 41.035156 103.738281 40.136719 C 103.246094 39.703125 102.863281 39.734375 101.007812 40.371094 C 100.238281 40.636719 99.375 40.632812 98.746094 40.355469 C 98.601562 40.292969 98.136719 40.140625 97.714844 40.015625 C 97.289062 39.890625 96.722656 39.632812 96.449219 39.445312 C 96.175781 39.257812 95.742188 39.003906 95.480469 38.886719 C 94.929688 38.628906 93.902344 37.699219 93.902344 37.453125 C 93.902344 36.71875 94.949219 36.613281 96.140625 37.226562 C 96.441406 37.382812 96.828125 37.582031 96.992188 37.667969 C 98.300781 38.351562 102.011719 38.210938 102.804688 37.449219 C 102.996094 37.261719 103.269531 37.03125 103.410156 36.929688 C 103.5625 36.828125 103.78125 36.464844 103.925781 36.082031 C 104.589844 34.363281 103.671875 33.445312 102.351562 34.507812 C 102.136719 34.683594 101.71875 34.929688 101.429688 35.058594 C 101.140625 35.183594 100.761719 35.386719 100.589844 35.511719 C 100.117188 35.84375 97.617188 35.847656 97.0625 35.515625 C 96.859375 35.394531 96.359375 35.167969 95.949219 35.011719 C 95.375 34.792969 95.074219 34.589844 94.601562 34.113281 L 93.996094 33.496094 L 94.203125 33.238281 C 94.402344 32.992188 94.449219 32.984375 95.5 33.027344 C 99.242188 33.183594 100.890625 33.054688 101.796875 32.53125 C 104.140625 31.195312 104.753906 29.753906 103.558594 28.40625 L 103.347656 28.171875 L 102.652344 28.558594 C 102.269531 28.769531 101.777344 29.101562 101.558594 29.296875 C 100.324219 30.398438 96.152344 31.292969 95.046875 30.699219 C 94.820312 30.578125 94.21875 29.6875 94.21875 29.476562 C 94.21875 29.21875 95.167969 28.875 96.121094 28.789062 C 96.6875 28.734375 97.214844 28.621094 97.457031 28.496094 C 97.679688 28.382812 98.273438 28.167969 98.777344 28.019531 C 99.285156 27.875 99.828125 27.660156 99.984375 27.546875 C 100.144531 27.433594 100.570312 27.195312 100.9375 27.015625 C 101.824219 26.585938 103.789062 24.855469 103.796875 24.5 C 103.796875 24.433594 103.9375 24.125 104.105469 23.808594 C 104.625 22.828125 104.664062 22.535156 104.363281 21.925781 C 104.023438 21.246094 103.445312 20.71875 103.132812 20.8125 C 102.503906 20.996094 102.160156 21.257812 101.855469 21.777344 C 101.226562 22.847656 99.433594 24.53125 98.308594 25.101562 C 97.976562 25.269531 97.675781 25.457031 97.636719 25.523438 C 97.550781 25.664062 97.253906 25.78125 96.113281 26.121094 C 94.449219 26.621094 94.480469 26.617188 93.992188 26.257812 C 93.289062 25.75 91.503906 25.9375 91.117188 26.5625 C 91.078125 26.628906 90.707031 26.78125 90.289062 26.90625 C 89.871094 27.03125 89.316406 27.265625 89.058594 27.429688 C 88.796875 27.59375 88.308594 27.828125 87.976562 27.953125 C 87.351562 28.1875 86.53125 28.675781 85.917969 29.183594 C 85.578125 29.460938 85.566406 29.492188 85.625 30.0625 C 85.898438 32.789062 85.855469 33.039062 84.976562 33.902344 C 83.835938 35.027344 83 35.03125 81.886719 33.925781 C 80.929688 32.972656 80.722656 31.164062 81.457031 30.128906 C 81.625 29.894531 81.800781 29.582031 81.84375 29.433594 C 81.972656 29.015625 83.84375 27.242188 84.519531 26.902344 C 84.84375 26.738281 85.304688 26.5 85.542969 26.375 C 85.78125 26.25 86.347656 26.074219 86.804688 25.988281 C 88.433594 25.675781 88.960938 25.519531 89.316406 25.246094 C 89.515625 25.09375 90 24.875 90.394531 24.761719 C 90.902344 24.613281 91.191406 24.457031 91.390625 24.230469 C 91.601562 23.988281 91.867188 23.855469 92.433594 23.703125 C 92.855469 23.589844 93.320312 23.410156 93.472656 23.304688 C 93.621094 23.195312 93.945312 23.007812 94.191406 22.882812 C 94.679688 22.632812 94.785156 22.210938 94.53125 21.539062 L 94.421875 21.25 L 94.132812 21.519531 C 93.976562 21.664062 93.671875 21.84375 93.453125 21.914062 C 93.207031 21.992188 92.90625 22.21875 92.671875 22.5 C 92.402344 22.824219 92.183594 22.980469 91.917969 23.03125 C 91.46875 23.113281 90.832031 23.425781 90.644531 23.65625 C 90.433594 23.914062 89.410156 23.890625 89.324219 23.625 C 89.121094 22.976562 90.050781 22.023438 90.886719 22.023438 C 91.417969 22.023438 91.71875 21.804688 91.667969 21.457031 C 91.625 21.144531 90.855469 20.871094 89.996094 20.863281 C 89.390625 20.859375 89.242188 20.816406 88.851562 20.53125 C 87.636719 19.648438 85.246094 19.585938 83.648438 20.402344 C 83.105469 20.679688 81.488281 21.066406 80.867188 21.070312 C 80.007812 21.074219 79.765625 21.40625 80.175781 22.027344 C 80.507812 22.53125 80.347656 23.195312 79.785156 23.636719 C 79.617188 23.769531 79.332031 23.992188 79.148438 24.132812 C 78.84375 24.371094 78.824219 24.425781 78.863281 24.933594 L 78.910156 25.476562 L 77.339844 26.476562 L 77.40625 26.941406 C 77.507812 27.703125 75.902344 29.894531 75.382812 29.699219 C 74.464844 29.351562 73.339844 27.894531 73.261719 26.945312 L 73.210938 26.3125 L 72.515625 25.898438 L 71.824219 25.484375 L 71.929688 24.953125 C 72.046875 24.367188 72.027344 24.34375 71.15625 23.789062 C 70.949219 23.65625 70.664062 23.316406 70.5 23.015625 L 70.210938 22.476562 L 70.601562 21.976562 C 71.039062 21.410156 70.96875 21.230469 70.269531 21.132812 C 68.652344 20.90625 67.765625 20.710938 67.3125 20.480469 C 66.28125 19.964844 64.148438 19.652344 63.3125 19.898438 M 65.203125 21.773438 C 65.894531 21.871094 66.226562 22.351562 65.871094 22.734375 C 65.523438 23.105469 63.621094 23.101562 63.273438 22.730469 L 63.042969 22.480469 L 63.261719 22.203125 C 63.566406 21.8125 64.304688 21.652344 65.203125 21.773438 M 86.863281 21.828125 C 88.492188 22.1875 88.167969 22.976562 86.390625 22.976562 C 85.074219 22.976562 84.652344 22.734375 85.007812 22.191406 C 85.339844 21.679688 85.789062 21.59375 86.863281 21.828125 M 47.042969 63.835938 C 45.257812 64.089844 45.292969 65.535156 47.089844 65.851562 C 47.90625 65.992188 49.570312 65.726562 49.570312 65.453125 C 49.570312 65.332031 49.214844 64.429688 49.117188 64.296875 C 49.035156 64.1875 47.675781 63.714844 47.558594 63.753906 C 47.535156 63.761719 47.304688 63.800781 47.042969 63.835938 M 102.617188 63.890625 C 101.882812 64.046875 101.617188 64.277344 101.46875 64.871094 C 101.363281 65.285156 101.320312 65.332031 101.023438 65.34375 L 100.691406 65.359375 L 101 65.40625 C 101.167969 65.433594 101.414062 65.523438 101.542969 65.609375 C 102.179688 66.027344 104.175781 65.960938 104.804688 65.5 C 105.121094 65.265625 105.132812 64.449219 104.824219 64.242188 C 104.609375 64.101562 103.390625 63.71875 103.257812 63.75 C 103.238281 63.753906 102.949219 63.816406 102.617188 63.890625 "/>
<path style=" stroke:none;fill-rule:evenodd;fill:rgb(98.823529%,1.568628%,1.568628%);fill-opacity:1;" d="M 5.679688 5.222656 L 5.449219 5.464844 L 5.449219 100.445312 L 5.691406 100.675781 L 5.9375 100.90625 L 144.09375 100.90625 L 144.320312 100.660156 L 144.550781 100.414062 L 144.550781 5.4375 L 144.308594 5.207031 L 144.0625 4.976562 L 5.90625 4.976562 L 5.679688 5.222656 M 66.207031 20.058594 C 66.527344 20.144531 67.023438 20.335938 67.3125 20.480469 C 67.765625 20.710938 68.652344 20.90625 70.269531 21.132812 C 70.96875 21.230469 71.039062 21.410156 70.601562 21.976562 L 70.210938 22.476562 L 70.5 23.015625 C 70.664062 23.316406 70.949219 23.65625 71.15625 23.789062 C 72.027344 24.34375 72.046875 24.367188 71.929688 24.953125 L 71.824219 25.484375 L 72.515625 25.898438 L 73.210938 26.3125 L 73.261719 26.945312 C 73.339844 27.894531 74.464844 29.351562 75.382812 29.699219 C 75.902344 29.894531 77.507812 27.703125 77.40625 26.941406 L 77.339844 26.476562 L 78.910156 25.476562 L 78.863281 24.933594 C 78.824219 24.425781 78.84375 24.371094 79.148438 24.132812 C 79.332031 23.992188 79.617188 23.769531 79.785156 23.636719 C 80.347656 23.195312 80.507812 22.53125 80.175781 22.027344 C 79.765625 21.40625 80.007812 21.074219 80.867188 21.070312 C 81.488281 21.066406 83.105469 20.679688 83.648438 20.402344 C 85.246094 19.585938 87.636719 19.648438 88.851562 20.53125 C 89.242188 20.816406 89.390625 20.859375 89.996094 20.863281 C 90.855469 20.871094 91.625 21.144531 91.667969 21.457031 C 91.71875 21.804688 91.417969 22.023438 90.886719 22.023438 C 90.050781 22.023438 89.121094 22.976562 89.324219 23.625 C 89.410156 23.890625 90.433594 23.914062 90.644531 23.65625 C 90.832031 23.425781 91.46875 23.113281 91.917969 23.03125 C 92.183594 22.980469 92.402344 22.824219 92.671875 22.5 C 92.90625 22.21875 93.207031 21.992188 93.453125 21.914062 C 93.671875 21.84375 93.976562 21.664062 94.132812 21.519531 L 94.421875 21.25 L 94.53125 21.539062 C 94.785156 22.210938 94.679688 22.632812 94.191406 22.882812 C 93.945312 23.007812 93.621094 23.195312 93.472656 23.304688 C 93.320312 23.410156 92.855469 23.589844 92.433594 23.703125 C 91.867188 23.855469 91.601562 23.988281 91.390625 24.230469 C 91.191406 24.457031 90.902344 24.613281 90.394531 24.761719 C 90 24.875 89.515625 25.09375 89.316406 25.246094 C 88.960938 25.519531 88.433594 25.675781 86.804688 25.988281 C 86.347656 26.074219 85.78125 26.25 85.542969 26.375 C 85.304688 26.5 84.84375 26.738281 84.519531 26.902344 C 83.84375 27.242188 81.972656 29.015625 81.84375 29.433594 C 81.800781 29.582031 81.625 29.894531 81.457031 30.128906 C 80.722656 31.164062 80.929688 32.972656 81.886719 33.925781 C 83 35.03125 83.835938 35.027344 84.976562 33.902344 C 85.855469 33.039062 85.898438 32.789062 85.625 30.0625 C 85.566406 29.492188 85.578125 29.460938 85.917969 29.183594 C 86.53125 28.675781 87.351562 28.1875 87.976562 27.953125 C 88.308594 27.828125 88.796875 27.59375 89.058594 27.429688 C 89.316406 27.265625 89.871094 27.03125 90.289062 26.90625 C 90.707031 26.78125 91.078125 26.628906 91.117188 26.5625 C 91.503906 25.9375 93.289062 25.75 93.992188 26.257812 C 94.480469 26.617188 94.449219 26.621094 96.113281 26.121094 C 97.253906 25.78125 97.550781 25.664062 97.636719 25.523438 C 97.675781 25.457031 97.976562 25.269531 98.308594 25.101562 C 99.433594 24.53125 101.226562 22.847656 101.855469 21.777344 C 102.160156 21.257812 102.503906 20.996094 103.132812 20.8125 C 103.445312 20.71875 104.023438 21.246094 104.363281 21.925781 C 104.664062 22.535156 104.625 22.828125 104.105469 23.808594 C 103.9375 24.125 103.796875 24.433594 103.796875 24.5 C 103.789062 24.855469 101.824219 26.585938 100.9375 27.015625 C 100.570312 27.195312 100.144531 27.433594 99.984375 27.546875 C 99.828125 27.660156 99.285156 27.875 98.777344 28.019531 C 98.273438 28.167969 97.679688 28.382812 97.457031 28.496094 C 97.214844 28.621094 96.6875 28.734375 96.121094 28.789062 C 95.167969 28.875 94.21875 29.21875 94.21875 29.476562 C 94.21875 29.6875 94.820312 30.578125 95.046875 30.699219 C 96.152344 31.292969 100.324219 30.398438 101.558594 29.296875 C 101.777344 29.101562 102.269531 28.769531 102.652344 28.558594 L 103.347656 28.171875 L 103.558594 28.40625 C 104.753906 29.753906 104.140625 31.195312 101.796875 32.53125 C 100.890625 33.054688 99.242188 33.183594 95.5 33.027344 C 94.449219 32.984375 94.402344 32.992188 94.203125 33.238281 L 93.996094 33.496094 L 94.601562 34.113281 C 95.074219 34.589844 95.375 34.792969 95.949219 35.011719 C 96.359375 35.167969 96.859375 35.394531 97.0625 35.515625 C 97.617188 35.847656 100.117188 35.84375 100.589844 35.511719 C 100.761719 35.386719 101.140625 35.183594 101.429688 35.058594 C 101.71875 34.929688 102.136719 34.683594 102.351562 34.507812 C 103.671875 33.445312 104.589844 34.363281 103.925781 36.082031 C 103.78125 36.464844 103.5625 36.828125 103.410156 36.929688 C 103.269531 37.03125 102.996094 37.261719 102.804688 37.449219 C 102.011719 38.210938 98.300781 38.351562 96.992188 37.667969 C 96.828125 37.582031 96.441406 37.382812 96.140625 37.226562 C 94.949219 36.613281 93.902344 36.71875 93.902344 37.453125 C 93.902344 37.699219 94.929688 38.628906 95.480469 38.886719 C 95.742188 39.003906 96.175781 39.257812 96.449219 39.445312 C 96.722656 39.632812 97.289062 39.890625 97.714844 40.015625 C 98.136719 40.140625 98.601562 40.292969 98.746094 40.355469 C 99.375 40.632812 100.238281 40.636719 101.007812 40.371094 C 102.863281 39.734375 103.246094 39.703125 103.738281 40.136719 C 104.753906 41.035156 103.777344 42.578125 102.0625 42.777344 C 101.164062 42.882812 99.613281 42.71875 98.945312 42.453125 C 98.632812 42.328125 97.976562 42.105469 97.488281 41.960938 C 96.992188 41.816406 96.453125 41.578125 96.273438 41.429688 C 95.628906 40.878906 94.875 40.796875 94.445312 41.230469 C 94.246094 41.429688 94.972656 42.285156 95.847656 42.886719 C 96.140625 43.082031 96.515625 43.382812 96.683594 43.546875 C 96.855469 43.710938 97.160156 43.917969 97.367188 44.003906 C 97.574219 44.09375 97.839844 44.253906 97.957031 44.363281 C 98.53125 44.910156 100.328125 45.242188 102.121094 45.140625 C 103.480469 45.0625 103.65625 45.136719 103.933594 45.914062 C 104.132812 46.472656 103.996094 47.226562 103.613281 47.667969 C 103.007812 48.375 99.917969 48.261719 98.902344 47.496094 C 98.730469 47.367188 98.304688 47.128906 97.957031 46.96875 C 97.609375 46.8125 97.207031 46.570312 97.0625 46.433594 C 96.914062 46.300781 96.632812 46.105469 96.429688 46.007812 C 96.226562 45.90625 95.894531 45.667969 95.691406 45.476562 C 95.488281 45.289062 95.097656 45.058594 94.824219 44.96875 L 94.328125 44.804688 L 94.058594 45.125 C 93.910156 45.300781 93.8125 45.527344 93.839844 45.621094 C 93.867188 45.714844 93.925781 45.9375 93.964844 46.113281 C 94.066406 46.554688 95.847656 48.566406 96.480469 48.953125 C 96.65625 49.058594 96.890625 49.253906 97.007812 49.386719 C 97.125 49.523438 97.757812 49.910156 98.417969 50.25 L 99.621094 50.867188 L 100.894531 50.910156 C 101.59375 50.933594 102.425781 50.902344 102.746094 50.84375 C 104.027344 50.605469 104.5625 51.546875 103.8125 52.71875 C 103.628906 53.007812 102.441406 53.578125 102.027344 53.578125 C 101.605469 53.578125 99.054688 52.894531 98.691406 52.6875 C 96.886719 51.644531 95.332031 50.347656 94.75 49.402344 C 94.492188 48.984375 94.300781 48.941406 93.738281 49.175781 C 93.335938 49.347656 93.3125 49.40625 93.539062 49.707031 C 93.625 49.824219 93.746094 50.101562 93.804688 50.324219 C 93.863281 50.546875 94.066406 50.90625 94.257812 51.121094 C 94.449219 51.335938 94.730469 51.703125 94.882812 51.933594 C 95.476562 52.832031 97.113281 54.527344 97.691406 54.84375 C 97.894531 54.953125 98.316406 55.210938 98.628906 55.417969 C 99.347656 55.890625 100.320312 56.117188 101.660156 56.125 C 103.140625 56.132812 103.503906 56.214844 103.675781 56.578125 C 104.265625 57.816406 103.472656 58.785156 101.613281 59.101562 C 99.164062 59.515625 98.261719 58.902344 93.324219 53.46875 C 91.230469 51.167969 91.378906 51.296875 90.773438 51.21875 C 90.160156 51.140625 90.070312 51.285156 90.0625 52.355469 C 90.058594 53.167969 90.082031 53.269531 90.378906 53.695312 C 90.554688 53.949219 90.765625 54.296875 90.851562 54.464844 C 90.933594 54.632812 91.167969 54.894531 91.367188 55.046875 C 91.566406 55.199219 91.84375 55.429688 91.984375 55.554688 C 92.121094 55.683594 92.457031 55.863281 92.726562 55.957031 C 93.875 56.347656 94.324219 57.429688 93.5625 57.964844 C 93.023438 58.34375 91.511719 58.058594 90.980469 57.476562 C 90.820312 57.304688 90.558594 57.09375 90.402344 57.007812 C 90.242188 56.925781 90.035156 56.699219 89.9375 56.511719 C 89.84375 56.324219 89.609375 56.027344 89.425781 55.851562 C 89.179688 55.625 89.023438 55.3125 88.851562 54.742188 C 88.722656 54.304688 88.527344 53.796875 88.414062 53.613281 C 88.300781 53.429688 88.140625 53.039062 88.054688 52.75 C 87.808594 51.917969 87.613281 51.734375 87.058594 51.828125 C 86.066406 51.996094 85.9375 52.476562 86.539062 53.742188 C 86.707031 54.097656 86.847656 54.4375 86.847656 54.5 C 86.847656 54.5625 87.03125 54.820312 87.253906 55.074219 C 88.617188 56.613281 88.582031 56.507812 87.882812 56.867188 C 87.078125 57.28125 85.628906 56.226562 84.882812 54.6875 C 84.527344 53.953125 84.011719 53.148438 83.625 52.71875 L 83.425781 52.496094 L 83.136719 52.847656 C 82.691406 53.382812 82.796875 54.417969 83.378906 55.242188 C 83.554688 55.488281 83.796875 55.917969 83.917969 56.195312 C 84.035156 56.472656 84.285156 56.847656 84.464844 57.03125 C 84.644531 57.210938 84.917969 57.496094 85.066406 57.664062 C 85.976562 58.675781 87.917969 59.707031 89.425781 59.988281 C 90.828125 60.246094 91.027344 60.757812 90.164062 61.894531 C 89.648438 62.574219 89.792969 62.730469 91.21875 63.015625 C 91.785156 63.128906 92.441406 63.324219 92.679688 63.445312 C 93.148438 63.6875 95.285156 64.15625 95.933594 64.164062 C 96.398438 64.164062 96.796875 63.980469 97.535156 63.425781 C 97.824219 63.207031 98.203125 62.980469 98.375 62.925781 C 98.550781 62.871094 98.738281 62.734375 98.796875 62.621094 C 98.855469 62.507812 99.214844 62.097656 99.601562 61.703125 L 100.296875 60.988281 L 101.421875 60.988281 C 103.15625 60.988281 103.5625 61.277344 102.640625 61.855469 C 102.351562 62.035156 102.113281 62.222656 102.113281 62.265625 C 102.113281 62.625 101.453125 62.984375 100.667969 63.050781 C 99.324219 63.164062 99.335938 63.160156 98.929688 63.847656 C 98.40625 64.730469 98.8125 65.328125 99.925781 65.328125 C 100.355469 65.328125 100.203125 65.5 99.699219 65.582031 C 99.25 65.652344 98.957031 65.957031 98.957031 66.347656 C 98.957031 66.710938 99.15625 66.777344 100.28125 66.785156 C 101.925781 66.789062 102.996094 67.648438 102.800781 68.808594 C 102.679688 69.53125 102.523438 69.601562 101.695312 69.308594 C 101.433594 69.21875 100.988281 69.113281 100.707031 69.082031 C 100.34375 69.035156 100.128906 68.941406 99.96875 68.757812 C 99.847656 68.617188 99.507812 68.242188 99.21875 67.925781 C 98.929688 67.609375 98.613281 67.253906 98.511719 67.136719 C 98.398438 67.003906 98.136719 66.898438 97.800781 66.855469 C 97.496094 66.816406 97.0625 66.652344 96.792969 66.480469 L 96.316406 66.175781 L 95.144531 66.566406 C 94.109375 66.914062 93.953125 66.996094 93.765625 67.3125 C 93.480469 67.804688 92.503906 68.292969 91.8125 68.292969 C 91.527344 68.292969 91.117188 68.367188 90.898438 68.460938 C 90.035156 68.824219 89.542969 67.820312 90.28125 67.199219 C 90.429688 67.074219 90.734375 66.816406 90.949219 66.625 C 91.292969 66.328125 91.425781 66.28125 91.921875 66.28125 C 93.011719 66.28125 94.042969 65.703125 93.699219 65.285156 C 93.550781 65.105469 93.390625 65.0625 92.054688 64.863281 C 91.464844 64.777344 90.652344 64.566406 90.203125 64.386719 C 88.910156 63.863281 87.265625 63.910156 87.265625 64.464844 C 87.265625 64.757812 86.488281 65.152344 85.964844 65.128906 C 85.34375 65.101562 85.222656 65.019531 84.929688 64.4375 C 84.808594 64.203125 84.582031 63.84375 84.425781 63.636719 C 84.273438 63.433594 84.054688 63.050781 83.949219 62.789062 C 83.84375 62.527344 83.628906 62.144531 83.472656 61.9375 C 83.316406 61.734375 83.09375 61.375 82.976562 61.144531 C 82.484375 60.183594 80.644531 58.320312 79.953125 58.082031 C 78.515625 57.59375 77.589844 59.558594 78.457031 61.269531 C 78.605469 61.570312 78.820312 62.050781 78.929688 62.34375 C 79.304688 63.335938 81.015625 65.402344 81.90625 65.945312 C 82.113281 66.070312 82.457031 66.308594 82.664062 66.476562 C 83.378906 67.046875 84.550781 67.378906 85.589844 67.304688 C 86.617188 67.230469 86.734375 67.28125 87.21875 67.980469 L 87.523438 68.425781 L 87.210938 68.683594 C 85.585938 70.027344 84.261719 69.980469 82.441406 68.523438 C 81.539062 67.804688 81.488281 67.789062 81.125 68.128906 C 80.242188 68.953125 83 71.46875 85.082031 71.738281 C 86.109375 71.867188 86.421875 72.390625 85.820312 72.980469 C 85.097656 73.6875 84.15625 73.832031 83.265625 73.371094 C 83.0625 73.265625 82.683594 73.085938 82.421875 72.972656 C 82.164062 72.863281 81.609375 72.441406 81.191406 72.035156 C 80.265625 71.136719 79.792969 71.1875 79.792969 72.1875 C 79.792969 73.609375 81.144531 74.863281 82.972656 75.128906 C 83.597656 75.21875 83.707031 75.351562 83.667969 75.988281 C 83.589844 77.183594 80.820312 77.484375 80.222656 76.359375 C 80.160156 76.246094 79.898438 75.902344 79.636719 75.59375 C 79.378906 75.289062 79.109375 74.863281 79.042969 74.65625 C 78.742188 73.726562 78.125 73.507812 77.449219 74.097656 C 76.929688 74.546875 77.703125 76.691406 78.785156 77.824219 C 79.113281 78.164062 79.421875 78.613281 79.527344 78.90625 L 79.714844 79.410156 L 79.332031 79.832031 C 79.121094 80.066406 78.949219 80.320312 78.949219 80.398438 C 78.949219 80.476562 78.792969 80.726562 78.597656 80.953125 C 78.40625 81.183594 78.097656 81.640625 77.914062 81.96875 C 77.730469 82.296875 77.503906 82.625 77.414062 82.703125 C 77.320312 82.777344 77.136719 83.058594 77 83.328125 C 76.863281 83.597656 76.675781 83.882812 76.582031 83.964844 C 76.484375 84.042969 76.242188 84.359375 76.035156 84.671875 C 75.832031 84.980469 75.621094 85.261719 75.570312 85.292969 C 75.394531 85.402344 74.296875 84.242188 73.984375 83.617188 C 73.8125 83.277344 73.613281 82.976562 73.535156 82.949219 C 73.457031 82.917969 73.261719 82.644531 73.101562 82.34375 C 72.9375 82.042969 72.671875 81.636719 72.507812 81.445312 C 72.34375 81.257812 72.109375 80.898438 71.984375 80.652344 C 71.863281 80.40625 71.605469 80.03125 71.414062 79.820312 C 70.910156 79.253906 71.046875 78.789062 72.042969 77.683594 C 73 76.621094 73.101562 76.398438 73.3125 74.925781 C 73.390625 74.378906 72.953125 73.691406 72.53125 73.695312 C 72.386719 73.695312 72.285156 73.824219 71.839844 74.550781 C 70.511719 76.71875 69.4375 77.375 67.957031 76.921875 C 66.800781 76.570312 66.777344 75.070312 67.925781 75.070312 C 69.070312 75.070312 70.101562 74.316406 70.867188 72.917969 C 71.425781 71.894531 70.828125 70.808594 70.109375 71.542969 C 69.140625 72.53125 67.933594 73.285156 66.78125 73.628906 C 66.144531 73.820312 64.417969 72.925781 64.417969 72.40625 C 64.417969 72.171875 65.121094 71.828125 65.921875 71.675781 C 67.804688 71.316406 70.519531 68.875 69.816406 68.171875 C 69.492188 67.84375 68.832031 67.988281 68.273438 68.503906 C 68.035156 68.722656 67.671875 68.984375 67.472656 69.089844 C 67.269531 69.191406 66.988281 69.367188 66.851562 69.472656 C 66.257812 69.9375 63.558594 69.238281 63.296875 68.554688 C 63.027344 67.855469 63.90625 67.304688 65.304688 67.292969 C 66.46875 67.28125 67.488281 66.996094 67.996094 66.542969 C 68.140625 66.410156 68.507812 66.152344 68.808594 65.96875 C 69.316406 65.65625 71.050781 63.859375 71.050781 63.640625 C 71.050781 63.589844 71.226562 63.316406 71.441406 63.035156 C 71.867188 62.476562 72.628906 60.363281 72.628906 59.742188 C 72.632812 59.359375 72.089844 58.3125 71.777344 58.089844 C 71.382812 57.8125 70.59375 58.050781 69.925781 58.648438 C 69.261719 59.246094 68.101562 60.527344 68.101562 60.667969 C 68.101562 60.71875 67.925781 60.988281 67.714844 61.269531 C 67.5 61.550781 67.210938 62.019531 67.070312 62.3125 C 66.933594 62.601562 66.742188 62.925781 66.652344 63.027344 C 66.558594 63.132812 66.316406 63.5625 66.109375 63.980469 C 65.765625 64.683594 65.6875 64.769531 65.15625 65.023438 L 64.574219 65.300781 L 64.101562 64.980469 C 63.839844 64.800781 63.4375 64.492188 63.207031 64.292969 C 62.667969 63.828125 61.851562 63.855469 60.554688 64.375 C 60.0625 64.574219 59.285156 64.773438 58.625 64.871094 C 57.527344 65.035156 56.941406 65.234375 56.941406 65.445312 C 56.941406 65.84375 57.527344 66.136719 58.574219 66.265625 C 59.621094 66.394531 59.628906 66.398438 60.125 66.890625 C 61.105469 67.859375 61.167969 68.964844 60.21875 68.539062 C 60.007812 68.445312 59.503906 68.332031 59.097656 68.292969 C 57.96875 68.175781 57.359375 67.902344 57.070312 67.375 C 56.863281 66.992188 56.761719 66.921875 56.285156 66.804688 C 55.984375 66.734375 55.492188 66.5625 55.191406 66.421875 L 54.644531 66.171875 L 54.171875 66.425781 C 53.910156 66.5625 53.359375 66.761719 52.941406 66.863281 C 52.367188 67.003906 52.167969 67.105469 52.101562 67.273438 C 52.054688 67.398438 51.871094 67.605469 51.695312 67.734375 C 51.519531 67.863281 51.269531 68.160156 51.140625 68.390625 C 50.871094 68.878906 50.683594 68.964844 49.464844 69.1875 C 48.019531 69.449219 47.730469 69.148438 48.222656 67.90625 C 48.566406 67.039062 48.851562 66.898438 50.445312 66.796875 C 51.875 66.707031 51.960938 66.667969 51.789062 66.144531 C 51.683594 65.828125 51.601562 65.761719 51.171875 65.648438 C 50.308594 65.429688 50.195312 65.347656 50.726562 65.324219 C 52.269531 65.261719 52.578125 64.5 51.472656 63.496094 C 51.074219 63.132812 50.996094 63.105469 50.386719 63.105469 C 49.710938 63.105469 48.691406 62.667969 48.558594 62.324219 C 48.53125 62.246094 48.296875 62.023438 48.039062 61.832031 C 47.21875 61.214844 47.6875 60.949219 49.496094 61.003906 L 50.652344 61.042969 L 50.925781 61.402344 C 51.078125 61.605469 51.34375 61.914062 51.515625 62.09375 C 51.691406 62.269531 51.882812 62.511719 51.941406 62.628906 C 52 62.746094 52.238281 62.902344 52.46875 62.980469 C 52.699219 63.054688 53.027344 63.246094 53.203125 63.410156 C 53.375 63.570312 53.773438 63.816406 54.082031 63.953125 L 54.644531 64.210938 L 56.082031 63.96875 C 57.027344 63.808594 57.699219 63.636719 58.046875 63.460938 C 58.335938 63.3125 59.046875 63.101562 59.621094 62.992188 C 61.066406 62.714844 61.199219 62.570312 60.628906 61.917969 C 59.742188 60.90625 60.015625 60.203125 61.386719 59.964844 C 62.359375 59.796875 64.433594 58.859375 64.996094 58.335938 C 66.191406 57.222656 66.773438 56.492188 67.09375 55.699219 C 67.242188 55.324219 67.460938 54.917969 67.574219 54.796875 C 67.953125 54.390625 68.109375 53.484375 67.878906 53.027344 C 67.609375 52.488281 67.574219 52.484375 67.042969 52.902344 C 66.5625 53.28125 66.398438 53.527344 65.960938 54.53125 C 65.699219 55.121094 64.675781 56.34375 64.082031 56.765625 C 63.621094 57.097656 62.78125 57.0625 62.417969 56.695312 L 62.15625 56.433594 L 62.628906 55.96875 C 63.949219 54.667969 64.0625 54.480469 64.359375 53.074219 L 64.496094 52.414062 L 64.089844 52.042969 C 63.589844 51.589844 63.589844 51.589844 63.183594 52.015625 C 62.738281 52.484375 62.363281 53.261719 62.105469 54.242188 C 61.949219 54.835938 61.769531 55.21875 61.472656 55.59375 C 61.246094 55.882812 61.035156 56.203125 61.003906 56.304688 C 60.90625 56.605469 59.625 57.691406 59.097656 57.917969 C 58.179688 58.316406 56.835938 58.035156 56.835938 57.445312 C 56.835938 56.863281 57.261719 56.3125 57.957031 55.996094 C 59.550781 55.269531 60.675781 53.710938 60.671875 52.234375 C 60.667969 51.359375 59.792969 50.78125 59.34375 51.359375 C 59.011719 51.785156 56.699219 54.285156 54.464844 56.632812 C 52.390625 58.816406 51.429688 59.304688 49.527344 59.144531 C 48.273438 59.039062 47.636719 58.738281 47.128906 58.007812 L 46.710938 57.410156 L 46.976562 56.886719 C 47.308594 56.226562 47.523438 56.144531 48.894531 56.132812 C 50.121094 56.125 51.339844 55.902344 51.816406 55.59375 C 52 55.480469 52.386719 55.257812 52.675781 55.101562 C 53.421875 54.699219 55.796875 52.253906 56.203125 51.46875 C 56.3125 51.257812 56.535156 50.964844 56.699219 50.808594 C 57.070312 50.464844 57.332031 49.574219 57.15625 49.246094 C 56.960938 48.875 56.519531 48.835938 56.265625 49.167969 C 54.476562 51.480469 51.882812 53.074219 49.1875 53.519531 C 48.171875 53.6875 46.800781 52.898438 46.53125 51.992188 C 46.230469 50.988281 46.460938 50.886719 49.042969 50.878906 L 51.097656 50.875 L 52.238281 50.304688 C 54.105469 49.371094 56.332031 47.253906 56.914062 45.855469 C 57.070312 45.476562 56.839844 44.929688 56.535156 44.957031 C 56.46875 44.964844 56.222656 44.976562 55.992188 44.984375 C 55.660156 44.996094 55.472656 45.089844 55.121094 45.410156 C 54.878906 45.632812 54.558594 45.878906 54.414062 45.957031 C 54.269531 46.03125 53.914062 46.269531 53.625 46.484375 C 53.335938 46.695312 52.929688 46.9375 52.730469 47.015625 C 52.527344 47.089844 52.171875 47.289062 51.9375 47.453125 C 51.5 47.765625 50.058594 48.140625 49.148438 48.183594 C 47.066406 48.28125 45.875 46.710938 47.097656 45.480469 L 47.464844 45.109375 L 49.070312 45.125 C 51.058594 45.140625 51.914062 44.964844 52.804688 44.355469 C 53.140625 44.128906 53.464844 43.941406 53.53125 43.941406 C 53.59375 43.941406 53.855469 43.757812 54.109375 43.535156 C 54.363281 43.3125 54.652344 43.085938 54.75 43.03125 C 55.078125 42.851562 56.308594 41.605469 56.308594 41.453125 C 56.308594 40.800781 55.601562 40.753906 54.621094 41.339844 C 54.1875 41.601562 53.46875 41.910156 53.015625 42.035156 C 52.566406 42.160156 51.992188 42.351562 51.742188 42.464844 C 50.925781 42.828125 49.261719 42.933594 48.046875 42.703125 C 47.425781 42.585938 46.515625 41.550781 46.515625 40.96875 C 46.515625 39.796875 47.695312 39.59375 49.78125 40.398438 C 50.636719 40.730469 52.390625 40.425781 53.835938 39.691406 C 55.816406 38.6875 57.078125 37.652344 56.808594 37.246094 C 56.445312 36.695312 55.640625 36.726562 54.460938 37.328125 C 53.011719 38.074219 50.265625 38.355469 48.804688 37.910156 C 47.925781 37.640625 46.410156 35.929688 46.410156 35.203125 C 46.410156 34.589844 46.539062 34.316406 46.871094 34.214844 C 47.675781 33.96875 47.757812 33.972656 48.125 34.296875 C 48.316406 34.46875 49.007812 34.878906 49.65625 35.210938 L 50.835938 35.808594 L 52.070312 35.769531 C 53.199219 35.734375 53.367188 35.703125 53.992188 35.398438 C 54.367188 35.21875 54.925781 34.960938 55.230469 34.828125 C 55.644531 34.648438 55.898438 34.4375 56.222656 34.003906 L 56.65625 33.425781 L 56.417969 33.226562 C 56.046875 32.925781 55.742188 32.890625 54.609375 33.019531 C 52.398438 33.273438 49.847656 33.074219 49.035156 32.582031 C 48.820312 32.453125 48.386719 32.191406 48.070312 32 C 47.480469 31.648438 46.644531 30.464844 46.460938 29.738281 C 46.269531 28.949219 47.558594 27.941406 48.054688 28.492188 C 48.164062 28.617188 48.476562 28.832031 48.75 28.96875 C 49.019531 29.109375 49.28125 29.285156 49.328125 29.363281 C 49.46875 29.601562 49.902344 29.835938 50.839844 30.1875 C 52.25 30.710938 52.773438 30.808594 54.257812 30.808594 C 55.851562 30.8125 55.988281 30.753906 56.246094 29.996094 C 56.511719 29.21875 55.964844 28.816406 54.625 28.800781 C 54.363281 28.796875 53.890625 28.695312 53.570312 28.578125 C 53.253906 28.457031 52.613281 28.242188 52.148438 28.101562 C 51.6875 27.957031 51.046875 27.679688 50.726562 27.484375 C 50.410156 27.289062 49.980469 27.058594 49.773438 26.972656 C 48.953125 26.628906 47.378906 25.210938 47 24.476562 C 46.90625 24.296875 46.71875 23.984375 46.582031 23.78125 C 46.140625 23.125 46.152344 21.757812 46.605469 21.351562 C 47.027344 20.972656 47.652344 20.734375 47.886719 20.859375 C 48.308594 21.085938 48.953125 21.742188 49.164062 22.160156 C 49.527344 22.875 51.367188 24.5625 52.300781 25.039062 C 52.617188 25.199219 52.996094 25.421875 53.144531 25.527344 C 54.066406 26.207031 56.289062 26.617188 56.917969 26.226562 C 57.132812 26.089844 57.386719 25.949219 57.484375 25.914062 C 57.769531 25.808594 58.957031 26.136719 59.496094 26.46875 C 59.769531 26.640625 60.3125 26.875 60.707031 26.996094 C 61.097656 27.113281 61.617188 27.347656 61.859375 27.515625 C 62.101562 27.683594 62.546875 27.898438 62.84375 27.996094 C 63.140625 28.097656 63.617188 28.328125 63.898438 28.515625 C 64.175781 28.699219 64.5625 28.949219 64.753906 29.066406 L 65.101562 29.28125 L 65.082031 30.125 C 65.070312 30.589844 65.046875 31.375 65.035156 31.871094 C 64.976562 33.84375 66.648438 35.3125 68.082031 34.550781 C 70.320312 33.363281 70.191406 30.453125 67.796875 28.125 C 67.671875 28 67.40625 27.746094 67.210938 27.554688 C 66.683594 27.050781 64.917969 26.183594 64.050781 26.007812 C 63.644531 25.921875 62.945312 25.78125 62.496094 25.691406 C 61.902344 25.570312 61.570312 25.441406 61.277344 25.203125 C 60.855469 24.859375 60.347656 24.671875 59.859375 24.671875 C 59.621094 24.671875 59.53125 24.597656 59.414062 24.308594 C 59.253906 23.921875 58.996094 23.796875 58.097656 23.660156 C 57.839844 23.621094 57.53125 23.5 57.414062 23.394531 C 57.296875 23.285156 57.035156 23.128906 56.832031 23.042969 C 56.316406 22.828125 56.0625 22.519531 56.148438 22.214844 C 56.402344 21.316406 56.539062 21.222656 56.949219 21.664062 C 57.089844 21.820312 57.398438 22.027344 57.636719 22.132812 C 57.875 22.238281 58.171875 22.460938 58.292969 22.632812 C 58.453125 22.863281 58.703125 23.003906 59.253906 23.179688 C 59.703125 23.324219 60.039062 23.496094 60.101562 23.617188 C 60.273438 23.933594 60.648438 23.972656 61.082031 23.714844 C 61.445312 23.5 61.457031 23.472656 61.308594 23.261719 C 61.222656 23.136719 61.152344 22.902344 61.152344 22.742188 C 61.152344 22.355469 60.769531 22.109375 60.066406 22.046875 C 58.46875 21.902344 58.9375 20.980469 60.667969 20.871094 C 61.578125 20.808594 61.671875 20.78125 62.03125 20.464844 C 62.246094 20.273438 62.550781 20.089844 62.707031 20.054688 C 62.867188 20.019531 63.136719 19.949219 63.3125 19.898438 C 63.746094 19.769531 65.503906 19.867188 66.207031 20.058594 M 63.921875 21.828125 C 63.648438 21.890625 63.390625 22.035156 63.261719 22.203125 L 63.042969 22.480469 L 63.273438 22.730469 C 63.621094 23.101562 65.523438 23.105469 65.871094 22.734375 C 66.496094 22.066406 65.308594 21.515625 63.921875 21.828125 M 85.359375 21.8125 C 84.929688 22.0625 84.808594 22.445312 85.066406 22.722656 C 85.554688 23.242188 87.898438 23.03125 87.898438 22.464844 C 87.898438 21.988281 85.925781 21.480469 85.359375 21.8125 M 48.308594 63.953125 C 49.101562 64.191406 49.144531 64.230469 49.394531 64.910156 C 49.617188 65.519531 49.621094 65.496094 49.28125 65.628906 C 48.292969 66.019531 46.824219 65.972656 46.101562 65.53125 C 45.289062 65.035156 45.859375 64.003906 47.042969 63.835938 C 47.304688 63.800781 47.535156 63.761719 47.558594 63.753906 C 47.582031 63.746094 47.917969 63.835938 48.308594 63.953125 M 103.929688 63.90625 C 105.042969 64.195312 105.484375 65 104.804688 65.5 C 104.175781 65.960938 102.179688 66.027344 101.542969 65.609375 C 101.414062 65.523438 101.167969 65.433594 101 65.40625 L 100.691406 65.359375 L 101.023438 65.34375 C 101.320312 65.332031 101.363281 65.285156 101.46875 64.871094 C 101.617188 64.277344 101.882812 64.046875 102.617188 63.890625 C 102.949219 63.816406 103.238281 63.753906 103.257812 63.75 C 103.277344 63.746094 103.582031 63.816406 103.929688 63.90625 "/>
</g>
</svg>
