<?xml version="1.0" encoding="UTF-8"?>
<svg xmlns="http://www.w3.org/2000/svg" xmlns:xlink="http://www.w3.org/1999/xlink" width="150px" height="150px" viewBox="0 0 150 107" version="1.1">
<g id="surface1">
<path style=" stroke:none;fill-rule:evenodd;fill:rgb(0%,9.411765%,47.450981%);fill-opacity:1;" d="M 64.21875 2.195312 L 63.464844 2.460938 L 3.09375 2.460938 L 2.78125 2.777344 L 2.464844 3.089844 L 2.492188 19.164062 L 2.523438 35.238281 L 2.773438 35.441406 C 3.027344 35.644531 63.464844 35.785156 63.996094 35.582031 C 64.4375 35.410156 64.429688 35.703125 64.484375 18.964844 L 64.539062 2.871094 L 64.78125 2.675781 C 64.917969 2.566406 65.277344 2.445312 65.585938 2.410156 C 66.472656 2.308594 147.242188 2.398438 147.457031 2.5 C 147.984375 2.757812 147.960938 2.039062 147.960938 19.554688 C 147.960938 35.128906 147.96875 35.898438 148.148438 35.71875 C 148.460938 35.410156 148.492188 3 148.179688 2.496094 C 147.816406 1.898438 150.039062 1.929688 106.0625 1.929688 L 64.96875 1.929688 L 64.21875 2.195312 M 8.15625 6.257812 C 8.714844 6.660156 8.742188 6.851562 8.351562 7.667969 C 7.921875 8.5625 6.699219 8.617188 6.285156 7.757812 C 5.605469 6.34375 6.867188 5.335938 8.15625 6.257812 M 15.128906 6.132812 C 16.320312 6.847656 15.667969 8.488281 14.269531 8.296875 C 13.660156 8.210938 13.578125 8.136719 13.308594 7.371094 C 13.066406 6.683594 13.125 6.53125 13.816406 6.09375 C 14.429688 5.707031 14.410156 5.707031 15.128906 6.132812 M 22.214844 6.082031 C 22.964844 6.558594 23.011719 6.648438 22.808594 7.253906 C 22.351562 8.625 21.007812 8.804688 20.5 7.566406 C 20.167969 6.742188 20.222656 6.554688 20.921875 6.136719 C 21.636719 5.707031 21.625 5.707031 22.214844 6.082031 M 29.585938 6.226562 C 29.914062 6.449219 30.042969 6.613281 30.042969 6.800781 C 30.042969 8.496094 28.128906 8.953125 27.582031 7.390625 C 27.332031 6.671875 27.386719 6.550781 28.136719 6.113281 C 28.769531 5.746094 28.898438 5.757812 29.585938 6.226562 M 36.558594 6.125 C 37.253906 6.546875 37.3125 6.734375 37.011719 7.53125 C 36.5625 8.738281 35.210938 8.699219 34.761719 7.464844 C 34.480469 6.699219 34.507812 6.625 35.242188 6.128906 C 35.871094 5.703125 35.855469 5.703125 36.558594 6.125 M 43.6875 6.113281 C 44.394531 6.566406 44.433594 6.664062 44.183594 7.394531 C 43.933594 8.144531 43.871094 8.199219 43.1875 8.285156 C 41.816406 8.457031 41.210938 6.835938 42.382812 6.132812 C 43.101562 5.703125 43.050781 5.707031 43.6875 6.113281 M 50.859375 6.132812 C 52.03125 6.835938 51.4375 8.421875 50.0625 8.277344 C 49.285156 8.195312 48.539062 7.050781 48.945312 6.5625 C 49.546875 5.828125 50.128906 5.699219 50.859375 6.132812 M 57.945312 6.082031 C 58.78125 6.613281 58.828125 6.980469 58.195312 7.996094 C 57.785156 8.65625 56.621094 8.4375 56.261719 7.632812 C 55.882812 6.777344 55.941406 6.558594 56.652344 6.132812 C 57.367188 5.707031 57.351562 5.707031 57.945312 6.082031 M 7.671875 13.152344 C 9.019531 13.984375 8.808594 15.332031 7.320312 15.394531 L 6.539062 15.425781 L 6.328125 14.964844 C 5.941406 14.109375 6.074219 13.726562 6.972656 13.128906 C 7.296875 12.910156 7.28125 12.910156 7.671875 13.152344 M 22.242188 13.328125 C 22.890625 13.820312 22.960938 14.609375 22.414062 15.269531 C 22.222656 15.5 21 15.464844 20.78125 15.222656 C 20.496094 14.90625 20.320312 13.964844 20.503906 13.742188 C 21.148438 12.960938 21.613281 12.847656 22.242188 13.328125 M 43.71875 13.402344 C 44.683594 14.246094 44.273438 15.414062 43.019531 15.414062 L 42.265625 15.414062 L 42.058594 14.960938 C 41.714844 14.203125 41.769531 13.894531 42.34375 13.390625 C 42.964844 12.84375 43.085938 12.84375 43.71875 13.402344 M 57.929688 13.289062 C 58.578125 13.765625 58.667969 14.625 58.128906 15.28125 C 58.007812 15.429688 56.792969 15.464844 56.574219 15.328125 C 56.128906 15.042969 56.023438 13.933594 56.410156 13.578125 C 57.1875 12.863281 57.316406 12.839844 57.929688 13.289062 M 32.703125 14.5625 C 32.777344 14.679688 32.9375 15.039062 33.054688 15.359375 C 33.355469 16.15625 33.625 16.34375 34.601562 16.433594 C 35.820312 16.550781 35.953125 16.964844 34.996094 17.691406 C 34.253906 18.257812 34.15625 18.539062 34.386719 19.46875 C 34.71875 20.832031 34.433594 21.035156 33.214844 20.296875 C 32.40625 19.808594 32.1875 19.8125 31.332031 20.339844 C 30.21875 21.019531 29.90625 20.84375 30.199219 19.707031 C 30.488281 18.597656 30.453125 18.460938 29.667969 17.710938 C 28.691406 16.78125 28.742188 16.578125 29.988281 16.441406 C 31.144531 16.3125 31.378906 16.113281 31.753906 14.960938 C 31.96875 14.292969 32.417969 14.105469 32.703125 14.5625 M 7.980469 20.4375 C 8.707031 20.9375 8.71875 20.96875 8.472656 21.6875 C 8.003906 23.0625 6.515625 22.996094 6.117188 21.578125 C 5.945312 20.960938 5.996094 20.839844 6.621094 20.449219 C 7.261719 20.050781 7.414062 20.046875 7.980469 20.4375 M 22.375 20.460938 C 22.980469 20.894531 23.007812 21 22.742188 21.71875 C 22.289062 22.949219 21.003906 22.996094 20.5 21.800781 C 20.183594 21.058594 20.210938 20.925781 20.789062 20.503906 C 21.425781 20.035156 21.769531 20.027344 22.375 20.460938 M 43.796875 20.476562 C 44.335938 20.886719 44.394531 21.113281 44.152344 21.839844 C 43.671875 23.277344 41.738281 22.664062 41.738281 21.074219 C 41.738281 20.8125 42.675781 20.128906 43.042969 20.128906 C 43.207031 20.125 43.53125 20.277344 43.796875 20.476562 M 58.054688 20.449219 C 58.703125 20.867188 58.742188 20.988281 58.472656 21.71875 C 58.015625 22.957031 56.671875 22.992188 56.210938 21.773438 C 55.921875 21.023438 55.949219 20.917969 56.519531 20.503906 C 57.144531 20.042969 57.40625 20.035156 58.054688 20.449219 M 7.855469 27.515625 C 8.675781 28.054688 8.765625 28.542969 8.199219 29.410156 C 8.015625 29.691406 6.671875 29.773438 6.460938 29.519531 C 5.910156 28.847656 6.007812 28.054688 6.699219 27.5625 C 7.335938 27.113281 7.257812 27.117188 7.855469 27.515625 M 15.066406 27.527344 C 15.765625 27.988281 15.875 28.839844 15.320312 29.519531 C 15.164062 29.707031 13.796875 29.699219 13.640625 29.507812 C 13.089844 28.847656 13.160156 28.058594 13.808594 27.5625 C 14.410156 27.109375 14.429688 27.105469 15.066406 27.527344 M 22.167969 27.492188 C 22.855469 27.992188 22.894531 28.070312 22.746094 28.6875 C 22.550781 29.507812 22.382812 29.652344 21.605469 29.667969 C 20.785156 29.683594 20.757812 29.664062 20.535156 28.964844 C 20.300781 28.21875 20.382812 27.957031 20.996094 27.539062 C 21.613281 27.113281 21.644531 27.113281 22.167969 27.492188 M 29.328125 27.523438 C 30.082031 28.019531 30.179688 28.773438 29.585938 29.519531 C 29.382812 29.773438 28.035156 29.691406 27.855469 29.410156 C 27.578125 28.976562 27.429688 28.316406 27.558594 28.074219 C 27.667969 27.875 28.59375 27.191406 28.753906 27.191406 C 28.792969 27.191406 29.054688 27.339844 29.328125 27.523438 M 36.4375 27.492188 C 37.207031 28.050781 37.269531 28.304688 36.871094 29.257812 L 36.707031 29.652344 L 35.953125 29.652344 C 35.09375 29.652344 34.988281 29.566406 34.75 28.671875 C 34.636719 28.25 34.640625 28.140625 34.769531 27.984375 C 34.988281 27.71875 35.738281 27.191406 35.890625 27.191406 C 35.960938 27.191406 36.207031 27.324219 36.4375 27.492188 M 43.671875 27.566406 C 44.3125 28.035156 44.363281 28.164062 44.140625 28.839844 C 43.882812 29.625 43.847656 29.652344 43.027344 29.652344 C 42.203125 29.652344 42.167969 29.625 41.90625 28.828125 C 41.683594 28.148438 41.753906 27.984375 42.453125 27.523438 C 43.074219 27.109375 43.050781 27.109375 43.671875 27.566406 M 50.8125 27.5625 C 51.457031 28.019531 51.515625 28.167969 51.316406 28.847656 C 51.085938 29.636719 51.042969 29.664062 50.171875 29.628906 C 48.90625 29.578125 48.488281 28.398438 49.460938 27.628906 C 50.136719 27.097656 50.152344 27.09375 50.8125 27.5625 M 57.898438 27.492188 C 58.585938 27.992188 58.625 28.070312 58.476562 28.6875 C 58.265625 29.566406 57.277344 30.050781 56.574219 29.617188 C 55.964844 29.242188 56.054688 27.964844 56.722656 27.519531 C 57.335938 27.117188 57.375 27.113281 57.898438 27.492188 M 2.183594 71.375 C 1.992188 71.65625 1.984375 72.238281 1.984375 87.992188 C 1.984375 106.207031 1.921875 104.730469 2.707031 105.003906 C 3.269531 105.199219 147.21875 105.164062 147.691406 104.96875 C 148.441406 104.652344 148.390625 105.925781 148.390625 87.992188 C 148.390625 72.789062 148.378906 71.796875 148.203125 71.472656 C 148.023438 71.148438 148.011719 71.839844 147.960938 87.617188 C 147.933594 96.707031 147.867188 104.167969 147.8125 104.246094 C 147.511719 104.714844 151.175781 104.691406 75.179688 104.691406 C 25.390625 104.691406 3.257812 104.65625 3.035156 104.578125 C 2.375 104.347656 2.414062 105.429688 2.414062 87.492188 C 2.414062 78.464844 2.40625 71.078125 2.398438 71.078125 C 2.390625 71.078125 2.296875 71.210938 2.183594 71.375 "/>
<path style=" stroke:none;fill-rule:evenodd;fill:rgb(83.137256%,1.568628%,1.568628%);fill-opacity:1;" d="M 65.261719 2.460938 C 64.886719 2.546875 64.59375 2.746094 64.59375 2.910156 C 64.59375 2.96875 64.71875 2.914062 64.875 2.789062 L 65.15625 2.570312 L 147.199219 2.570312 L 147.800781 3.085938 L 147.800781 35.09375 L 147.539062 35.371094 L 147.28125 35.644531 L 106.214844 35.644531 C 83.625 35.644531 65.066406 35.613281 64.964844 35.578125 C 64.863281 35.539062 64.722656 35.363281 64.648438 35.183594 L 64.511719 34.859375 L 64.339844 35.1875 C 64.246094 35.367188 64.085938 35.554688 63.980469 35.605469 C 63.871094 35.660156 50.292969 35.722656 33.347656 35.753906 C 4.308594 35.804688 2.894531 35.816406 2.714844 35.996094 C 2.511719 36.199219 2.320312 70.414062 2.386719 94.683594 C 2.417969 104.875 2.382812 104.351562 3.046875 104.582031 C 3.257812 104.65625 26.734375 104.691406 75.179688 104.691406 C 151.175781 104.691406 147.511719 104.714844 147.8125 104.246094 C 147.867188 104.164062 147.914062 82.136719 147.917969 53.628906 C 147.933594 0.0195312 147.957031 2.746094 147.457031 2.5 C 147.21875 2.386719 65.75 2.34375 65.261719 2.460938 M 7.054688 8.316406 C 7.191406 8.34375 7.382812 8.34375 7.484375 8.316406 C 7.585938 8.289062 7.480469 8.269531 7.242188 8.269531 C 7.007812 8.269531 6.921875 8.292969 7.054688 8.316406 M 14.40625 8.316406 C 14.507812 8.34375 14.675781 8.34375 14.78125 8.316406 C 14.882812 8.289062 14.800781 8.265625 14.59375 8.265625 C 14.386719 8.265625 14.300781 8.289062 14.40625 8.316406 M 21.273438 8.316406 C 21.375 8.34375 21.542969 8.34375 21.648438 8.316406 C 21.75 8.289062 21.664062 8.265625 21.460938 8.265625 C 21.253906 8.265625 21.167969 8.289062 21.273438 8.316406 M 35.703125 8.316406 C 35.835938 8.34375 36.054688 8.34375 36.1875 8.316406 C 36.320312 8.292969 36.210938 8.273438 35.945312 8.273438 C 35.679688 8.273438 35.570312 8.292969 35.703125 8.316406 M 57.054688 8.316406 C 57.1875 8.34375 57.40625 8.34375 57.539062 8.316406 C 57.671875 8.292969 57.5625 8.273438 57.296875 8.273438 C 57.03125 8.273438 56.921875 8.292969 57.054688 8.316406 M 21.328125 22.558594 C 21.519531 22.582031 21.808594 22.582031 21.972656 22.554688 C 22.132812 22.53125 21.972656 22.511719 21.621094 22.511719 C 21.265625 22.511719 21.132812 22.535156 21.328125 22.558594 M 57.054688 22.558594 C 57.25 22.582031 57.539062 22.582031 57.699219 22.554688 C 57.863281 22.53125 57.703125 22.511719 57.351562 22.511719 C 56.996094 22.511719 56.863281 22.535156 57.054688 22.558594 M 147.5 71.65625 L 147.800781 71.917969 L 147.832031 87.527344 C 147.863281 103.769531 147.863281 103.933594 147.523438 104.269531 C 147.320312 104.472656 146.277344 104.476562 75.167969 104.476562 L 3.019531 104.476562 L 2.574219 103.914062 L 2.574219 71.925781 L 2.839844 71.664062 L 3.101562 71.398438 L 147.199219 71.398438 L 147.5 71.65625 "/>
<path style=" stroke:none;fill-rule:evenodd;fill:rgb(98.431373%,98.431373%,98.431373%);fill-opacity:1;" d="M 64.839844 2.828125 L 64.539062 3.085938 L 64.507812 18.804688 C 64.476562 35.171875 64.472656 35.101562 64.8125 35.4375 C 65.019531 35.644531 65.558594 35.644531 106.152344 35.644531 L 147.28125 35.644531 L 147.539062 35.371094 L 147.800781 35.09375 L 147.800781 3.085938 L 147.199219 2.570312 L 65.140625 2.570312 L 64.839844 2.828125 M 6.617188 6.207031 C 5.96875 6.617188 5.933594 6.722656 6.222656 7.488281 C 6.488281 8.199219 6.550781 8.242188 7.339844 8.242188 C 8.003906 8.242188 8.171875 8.128906 8.40625 7.519531 C 8.695312 6.769531 8.648438 6.59375 8.066406 6.21875 C 7.421875 5.808594 7.253906 5.804688 6.617188 6.207031 M 13.757812 6.183594 C 13.199219 6.539062 13.117188 6.800781 13.367188 7.445312 C 13.636719 8.152344 13.761719 8.242188 14.464844 8.242188 C 15.226562 8.238281 15.277344 8.207031 15.550781 7.515625 C 15.855469 6.742188 15.84375 6.691406 15.261719 6.265625 C 14.648438 5.816406 14.359375 5.800781 13.757812 6.183594 M 20.789062 6.265625 C 20.199219 6.695312 20.183594 6.804688 20.578125 7.601562 L 20.867188 8.1875 L 21.484375 8.222656 C 22.269531 8.261719 22.441406 8.160156 22.667969 7.527344 C 23.140625 6.214844 21.953125 5.414062 20.789062 6.265625 M 27.976562 6.265625 C 27.386719 6.699219 27.363281 6.828125 27.730469 7.652344 L 27.992188 8.242188 L 28.6875 8.242188 C 29.515625 8.242188 29.636719 8.148438 29.894531 7.335938 C 30.105469 6.667969 30.0625 6.574219 29.375 6.140625 C 28.835938 5.800781 28.582031 5.824219 27.976562 6.265625 M 35.148438 6.214844 C 34.5625 6.585938 34.519531 6.921875 34.941406 7.785156 L 35.140625 8.1875 L 36.640625 8.1875 L 36.886719 7.695312 C 37.535156 6.390625 36.398438 5.421875 35.148438 6.214844 M 42.246094 6.265625 C 41.667969 6.691406 41.65625 6.742188 41.960938 7.515625 C 42.234375 8.207031 42.28125 8.238281 43.042969 8.242188 C 43.75 8.242188 43.875 8.152344 44.144531 7.445312 C 44.597656 6.257812 43.335938 5.46875 42.246094 6.265625 M 49.425781 6.230469 C 48.835938 6.613281 48.796875 6.886719 49.210938 7.761719 L 49.410156 8.1875 L 50.113281 8.21875 C 50.914062 8.253906 51.027344 8.179688 51.324219 7.410156 C 51.578125 6.753906 51.558594 6.679688 50.992188 6.265625 C 50.363281 5.804688 50.085938 5.796875 49.425781 6.230469 M 56.652344 6.148438 C 55.984375 6.582031 55.945312 6.679688 56.167969 7.3125 C 56.457031 8.136719 56.582031 8.242188 57.285156 8.242188 C 58.019531 8.238281 58.085938 8.199219 58.359375 7.597656 C 58.90625 6.394531 57.757812 5.421875 56.652344 6.148438 M 6.671875 13.390625 C 5.699219 14.105469 6.097656 15.417969 7.285156 15.414062 C 8.492188 15.410156 8.9375 14.199219 8.007812 13.441406 C 7.4375 12.972656 7.25 12.96875 6.671875 13.390625 M 20.84375 13.476562 C 20.320312 13.949219 20.332031 13.910156 20.550781 14.644531 C 20.878906 15.742188 22.332031 15.773438 22.636719 14.6875 C 22.816406 14.035156 22.773438 13.855469 22.316406 13.445312 C 21.75 12.933594 21.429688 12.941406 20.84375 13.476562 M 42.300781 13.445312 C 41.8125 13.851562 41.761719 14.050781 41.964844 14.675781 C 42.222656 15.460938 43.394531 15.746094 43.871094 15.140625 C 44.808594 13.953125 43.449219 12.484375 42.300781 13.445312 M 56.5625 13.472656 C 56.054688 13.941406 56.0625 13.90625 56.28125 14.644531 C 56.609375 15.75 57.984375 15.769531 58.355469 14.675781 C 58.769531 13.445312 57.507812 12.601562 56.5625 13.472656 M 32.054688 14.53125 C 31.960938 14.632812 31.773438 15.003906 31.632812 15.351562 C 31.308594 16.164062 31.011719 16.378906 30.140625 16.453125 C 28.851562 16.566406 28.765625 16.839844 29.730469 17.742188 L 30.386719 18.355469 L 30.328125 18.945312 C 30.296875 19.269531 30.234375 19.769531 30.195312 20.054688 C 30.074219 20.886719 30.355469 20.9375 31.398438 20.273438 C 32.117188 19.8125 32.519531 19.804688 33.207031 20.242188 C 34.410156 21.003906 34.6875 20.875 34.410156 19.679688 C 34.132812 18.496094 34.140625 18.460938 34.925781 17.710938 C 35.921875 16.757812 35.882812 16.621094 34.574219 16.476562 C 33.617188 16.367188 33.304688 16.136719 33.011719 15.324219 C 32.671875 14.382812 32.394531 14.152344 32.054688 14.53125 M 6.679688 20.46875 C 5.449219 21.226562 6.269531 22.878906 7.699219 22.523438 C 8.632812 22.296875 8.839844 21.050781 8.035156 20.511719 C 7.335938 20.042969 7.375 20.042969 6.679688 20.46875 M 20.945312 20.441406 C 20.339844 20.878906 20.269531 21.039062 20.457031 21.5625 C 20.761719 22.429688 20.847656 22.492188 21.652344 22.457031 L 22.371094 22.425781 L 22.609375 21.945312 C 22.984375 21.183594 22.9375 20.9375 22.34375 20.503906 C 21.71875 20.046875 21.507812 20.035156 20.945312 20.441406 M 42.359375 20.457031 C 41.71875 20.875 41.671875 21.039062 41.976562 21.804688 C 42.363281 22.777344 43.589844 22.914062 44.023438 22.03125 C 44.445312 21.171875 44.40625 20.941406 43.761719 20.511719 C 43.066406 20.042969 43 20.039062 42.359375 20.457031 M 56.660156 20.441406 C 55.984375 20.886719 55.949219 20.996094 56.226562 21.738281 C 56.496094 22.457031 56.59375 22.511719 57.515625 22.460938 C 58.070312 22.425781 58.109375 22.40625 58.292969 22.03125 C 58.9375 20.71875 57.847656 19.65625 56.660156 20.441406 M 6.664062 27.621094 C 5.683594 28.332031 6.089844 29.652344 7.285156 29.648438 C 8.046875 29.648438 8.136719 29.585938 8.371094 28.898438 C 8.765625 27.738281 7.652344 26.910156 6.664062 27.621094 M 13.824219 27.589844 C 13.246094 28.0625 13.210938 28.183594 13.417969 28.925781 C 13.738281 30.074219 15.25 29.976562 15.570312 28.785156 C 15.851562 27.726562 14.652344 26.910156 13.824219 27.589844 M 20.816406 27.710938 L 20.335938 28.125 L 20.472656 28.648438 C 20.710938 29.535156 20.835938 29.652344 21.542969 29.648438 C 22.277344 29.648438 22.367188 29.601562 22.582031 29.089844 C 23.140625 27.75 21.898438 26.78125 20.816406 27.710938 M 28.03125 27.683594 C 27.519531 28.109375 27.457031 28.410156 27.742188 29.089844 C 28.128906 30.019531 29.480469 29.902344 29.8125 28.914062 C 30.023438 28.285156 29.96875 28.085938 29.46875 27.679688 C 28.882812 27.199219 28.605469 27.203125 28.03125 27.683594 M 35.226562 27.617188 C 34.664062 28.03125 34.632812 28.132812 34.832031 28.820312 C 35.039062 29.535156 35.195312 29.652344 35.960938 29.652344 C 36.648438 29.652344 36.761719 29.554688 37.011719 28.769531 C 37.34375 27.734375 36.132812 26.953125 35.226562 27.617188 M 42.300781 27.683594 C 41.8125 28.089844 41.757812 28.292969 41.96875 28.914062 C 42.332031 29.992188 43.796875 30 44.09375 28.925781 C 44.28125 28.257812 44.234375 28.085938 43.757812 27.679688 C 43.1875 27.195312 42.882812 27.195312 42.300781 27.683594 M 49.503906 27.625 C 48.957031 28.0625 48.910156 28.222656 49.140625 28.898438 C 49.542969 30.082031 50.972656 30.007812 51.300781 28.785156 C 51.589844 27.691406 50.398438 26.921875 49.503906 27.625 M 56.546875 27.710938 L 56.0625 28.125 L 56.203125 28.648438 C 56.441406 29.535156 56.566406 29.652344 57.273438 29.648438 C 58.007812 29.648438 58.097656 29.601562 58.3125 29.089844 C 58.871094 27.75 57.628906 26.78125 56.546875 27.710938 M 2.839844 71.664062 L 2.574219 71.925781 L 2.574219 103.914062 L 3.019531 104.476562 L 75.167969 104.476562 C 146.277344 104.476562 147.320312 104.472656 147.523438 104.269531 C 147.863281 103.933594 147.863281 103.769531 147.832031 87.527344 L 147.800781 71.917969 L 147.5 71.65625 L 147.199219 71.398438 L 3.101562 71.398438 L 2.839844 71.664062 "/>
<path style=" stroke:none;fill-rule:evenodd;fill:rgb(0%,0%,0%);fill-opacity:1;" d="M 0 53.523438 L 0 107.046875 L 150 107.046875 L 150 0 L 0 0 L 0 53.523438 M 147.566406 2.039062 C 148.46875 2.292969 148.394531 0.703125 148.363281 19.175781 C 148.335938 35.347656 148.335938 35.519531 148.121094 35.753906 C 147.910156 35.988281 147.90625 36.140625 147.90625 53.507812 L 147.90625 71.023438 L 148.390625 71.773438 L 148.390625 87.96875 C 148.390625 105.929688 148.445312 104.652344 147.691406 104.96875 C 147.21875 105.164062 3.269531 105.199219 2.707031 105.003906 C 1.921875 104.730469 1.984375 106.207031 1.984375 87.992188 L 1.984375 71.667969 L 2.226562 71.332031 L 2.464844 70.996094 L 2.492188 53.59375 C 2.519531 37.050781 2.53125 36.179688 2.714844 35.996094 C 2.894531 35.816406 4.296875 35.804688 33.078125 35.753906 L 63.25 35.699219 L 33.140625 35.671875 C 3.671875 35.648438 3.023438 35.640625 2.773438 35.441406 L 2.523438 35.238281 L 2.492188 19.164062 L 2.464844 3.089844 L 2.78125 2.777344 L 3.09375 2.460938 L 63.464844 2.460938 L 64.21875 2.195312 L 64.96875 1.929688 L 106.0625 1.929688 C 134.582031 1.929688 147.28125 1.960938 147.566406 2.039062 "/>
</g>
</svg>
