<?xml version="1.0" encoding="UTF-8"?>
<svg xmlns="http://www.w3.org/2000/svg" xmlns:xlink="http://www.w3.org/1999/xlink" width="150px" height="150px" viewBox="0 0 150 150" version="1.1">
<g id="surface1">
<path style=" stroke:none;fill-rule:evenodd;fill:rgb(98.431373%,98.431373%,98.431373%);fill-opacity:1;" d="M 34.128906 33.191406 C 33.792969 33.382812 33.382812 33.792969 33.191406 34.128906 L 32.855469 34.726562 L 32.851562 74.96875 C 32.851562 120.554688 32.71875 115.933594 34.050781 116.773438 L 34.644531 117.148438 L 115.429688 117.148438 L 115.988281 116.769531 C 117.277344 115.894531 117.148438 120.457031 117.148438 74.96875 L 117.144531 34.726562 L 116.808594 34.128906 C 116.617188 33.792969 116.207031 33.382812 115.871094 33.191406 L 115.273438 32.855469 L 34.726562 32.855469 L 34.128906 33.191406 M 112.359375 37.503906 C 112.71875 37.699219 112.828125 112.109375 112.46875 112.46875 C 112.242188 112.699219 38.011719 112.730469 37.648438 112.503906 C 37.421875 112.359375 37.203125 39.25 37.425781 37.988281 L 37.511719 37.5 L 56.292969 37.460938 C 66.625 37.441406 83.398438 37.40625 93.570312 37.386719 C 106.105469 37.363281 112.164062 37.398438 112.359375 37.503906 "/>
<path style=" stroke:none;fill-rule:evenodd;fill:rgb(3.921569%,3.921569%,3.921569%);fill-opacity:1;" d="M 75 75 L 75 112.351562 L 112.273438 112.273438 L 112.273438 37.726562 L 75 37.648438 L 75 75 M 94.792969 57.132812 C 97.644531 58.835938 98.015625 64.304688 95.449219 66.78125 C 91.871094 70.234375 87.449219 64.207031 89.859375 59.160156 C 90.945312 56.882812 92.980469 56.046875 94.792969 57.132812 M 101.554688 65.796875 C 102.105469 66.308594 102.300781 66.601562 102.300781 66.910156 C 102.300781 67.1875 102.507812 67.570312 102.898438 68.023438 C 103.664062 68.90625 103.652344 69.085938 102.789062 69.929688 C 101.804688 70.890625 101.542969 70.914062 100.644531 70.101562 L 100.039062 69.554688 L 99.671875 69.90625 C 99.195312 70.351562 99.199219 70.386719 99.824219 71.082031 C 100.539062 71.871094 100.503906 72.207031 99.601562 73.078125 C 98.691406 73.953125 98.601562 73.957031 97.726562 73.199219 C 96.925781 72.507812 96.871094 72.515625 95.851562 73.574219 L 95.175781 74.273438 L 96.074219 75.078125 C 97.433594 76.296875 97.484375 76.3125 98.507812 75.859375 C 106.167969 72.464844 112.226562 82.734375 105.355469 87.464844 C 104.988281 87.714844 104.207031 88.351562 103.613281 88.878906 C 97.863281 93.984375 89.101562 94.238281 83.496094 89.464844 C 82.90625 88.960938 82.089844 88.386719 81.683594 88.1875 C 79.257812 87.003906 77.722656 83.960938 78.152344 81.1875 C 78.816406 76.890625 83.464844 74.285156 87.488281 75.953125 L 88.503906 76.371094 L 89.085938 75.910156 C 90.765625 74.582031 90.804688 74.34375 89.503906 73.3125 L 88.929688 72.859375 L 88.296875 73.480469 C 87.519531 74.242188 87.210938 74.253906 86.375 73.558594 C 85.304688 72.664062 85.265625 72.457031 86.019531 71.558594 C 86.582031 70.882812 86.578125 70.648438 85.988281 70.265625 C 85.609375 70.015625 85.597656 70.019531 85.03125 70.632812 C 84.253906 71.476562 83.863281 71.457031 82.929688 70.519531 C 82.058594 69.652344 82.046875 69.535156 82.726562 68.742188 C 83.082031 68.324219 83.25 67.976562 83.25 67.65625 C 83.25 67.054688 84.457031 65.699219 84.992188 65.699219 C 85.359375 65.699219 85.542969 65.847656 90.054688 69.800781 C 91.53125 71.09375 92.792969 72.148438 92.863281 72.148438 C 92.929688 72.148438 94.355469 70.808594 96.03125 69.171875 C 100.871094 64.4375 100.40625 64.722656 101.554688 65.796875 M 91.890625 77.414062 C 90.589844 78.628906 90.632812 78.507812 91.113281 79.714844 C 92.40625 82.976562 90.929688 86.785156 87.789062 88.28125 C 86.714844 88.792969 86.683594 88.851562 87.316406 89.238281 C 90.207031 90.996094 95.449219 90.902344 99.152344 89.023438 C 99.816406 88.6875 100.03125 88.351562 99.582031 88.351562 C 99.171875 88.351562 97.707031 87.496094 96.980469 86.828125 C 95.0625 85.078125 94.328125 82.378906 95.097656 79.925781 C 95.519531 78.585938 95.527344 78.605469 94.214844 77.421875 L 93.027344 76.351562 L 91.890625 77.414062 M 99.820312 78.054688 C 96.972656 79.378906 96.476562 83.058594 98.867188 85.105469 C 101.703125 87.535156 106.050781 85.210938 105.710938 81.449219 C 105.457031 78.640625 102.375 76.863281 99.820312 78.054688 M 83.503906 78.207031 C 79.054688 79.867188 80.105469 86.3125 84.824219 86.324219 C 90.226562 86.335938 90.460938 78.355469 85.066406 78.050781 C 84.445312 78.015625 83.859375 78.074219 83.503906 78.207031 "/>
<path style=" stroke:none;fill-rule:evenodd;fill:rgb(1.568628%,7.843138%,82.745099%);fill-opacity:1;" d="M 37.71875 37.835938 C 37.679688 37.941406 37.664062 54.730469 37.6875 75.148438 L 37.726562 112.273438 L 75 112.351562 L 75 37.648438 L 56.394531 37.648438 C 41.648438 37.648438 37.777344 37.6875 37.71875 37.835938 M 90.332031 59.183594 C 89.949219 59.453125 89.890625 60.09375 90.210938 60.535156 C 90.40625 60.800781 90.65625 60.828125 93.058594 60.871094 L 95.695312 60.917969 L 96.070312 60.542969 C 96.527344 60.085938 96.554688 59.652344 96.148438 59.25 C 95.742188 58.84375 90.898438 58.789062 90.332031 59.183594 M 90.523438 61.375 C 89.925781 61.722656 89.804688 62.476562 90.273438 62.902344 C 91.144531 63.691406 96.449219 63.144531 96.449219 62.265625 C 96.449219 61.355469 91.765625 60.648438 90.523438 61.375 M 90.25 63.875 C 89.820312 64.34375 89.925781 65.054688 90.460938 65.332031 C 91.1875 65.707031 95.6875 65.59375 96.132812 65.1875 C 96.53125 64.828125 96.539062 64.289062 96.148438 63.898438 C 95.710938 63.460938 90.644531 63.4375 90.25 63.875 M 99.675781 65.644531 C 99.34375 65.941406 97.859375 67.371094 96.375 68.820312 C 90.96875 74.09375 89.167969 75.835938 88.847656 76.105469 C 88.527344 76.371094 88.496094 76.367188 87.496094 75.957031 C 83.464844 74.285156 78.816406 76.886719 78.152344 81.1875 C 77.722656 83.960938 79.265625 87.019531 81.683594 88.183594 C 82.089844 88.378906 82.613281 88.71875 82.847656 88.933594 C 83.078125 89.148438 83.230469 89.222656 83.183594 89.101562 C 83.089844 88.863281 86.460938 88.785156 86.832031 89.015625 C 86.929688 89.074219 86.964844 89.03125 86.925781 88.921875 C 86.878906 88.796875 87.195312 88.5625 87.789062 88.28125 C 90.929688 86.785156 92.40625 82.976562 91.113281 79.714844 C 90.914062 79.210938 90.75 78.734375 90.75 78.652344 C 90.75 78.566406 91.742188 77.5625 92.953125 76.414062 C 94.164062 75.265625 95.460938 74 95.832031 73.601562 C 96.851562 72.515625 96.917969 72.5 97.726562 73.199219 C 98.601562 73.957031 98.691406 73.953125 99.601562 73.078125 C 100.503906 72.207031 100.539062 71.871094 99.824219 71.082031 C 99.199219 70.386719 99.195312 70.351562 99.671875 69.90625 L 100.039062 69.554688 L 100.644531 70.101562 C 101.542969 70.914062 101.804688 70.890625 102.789062 69.929688 C 103.652344 69.085938 103.664062 68.90625 102.898438 68.023438 C 102.507812 67.570312 102.300781 67.1875 102.300781 66.910156 C 102.300781 66.429688 101.007812 65.101562 100.542969 65.101562 C 100.394531 65.101562 100.003906 65.34375 99.675781 65.644531 M 86.839844 78.535156 C 88.238281 79.292969 89 80.585938 89 82.199219 C 89 87.546875 81.054688 87.8125 80.726562 82.476562 C 80.523438 79.109375 83.898438 76.933594 86.839844 78.535156 "/>
<path style=" stroke:none;fill-rule:evenodd;fill:rgb(39.215687%,39.215687%,39.607844%);fill-opacity:1;" d="M 56.292969 37.460938 L 37.511719 37.5 L 37.425781 37.988281 C 37.203125 39.25 37.421875 112.359375 37.648438 112.503906 C 38.011719 112.730469 112.242188 112.699219 112.46875 112.46875 C 112.828125 112.109375 112.71875 37.699219 112.359375 37.503906 C 112.164062 37.398438 106.105469 37.363281 93.570312 37.386719 C 83.398438 37.40625 66.625 37.441406 56.292969 37.460938 M 112.273438 75 L 112.273438 112.273438 L 37.648438 112.351562 L 37.648438 75.101562 C 37.648438 54.613281 37.695312 37.804688 37.75 37.75 C 37.804688 37.695312 54.597656 37.667969 75.0625 37.6875 L 112.273438 37.726562 L 112.273438 75 M 92.445312 56.730469 C 91.550781 56.921875 90.417969 57.980469 89.859375 59.160156 C 87.449219 64.207031 91.871094 70.234375 95.449219 66.78125 C 98.980469 63.375 96.722656 55.828125 92.445312 56.730469 M 96.148438 59.25 C 96.554688 59.652344 96.527344 60.085938 96.070312 60.542969 L 95.695312 60.917969 L 93.058594 60.871094 C 90.160156 60.820312 90 60.765625 90 59.828125 C 90 59.050781 90.378906 58.949219 93.257812 58.949219 C 95.648438 58.949219 95.875 58.972656 96.148438 59.25 M 96.164062 61.628906 C 97.101562 62.789062 96.402344 63.148438 93.199219 63.148438 C 90.148438 63.148438 89.382812 62.792969 90.113281 61.710938 C 90.566406 61.042969 95.632812 60.972656 96.164062 61.628906 M 96.148438 63.898438 C 96.539062 64.289062 96.53125 64.828125 96.132812 65.1875 C 95.6875 65.59375 91.1875 65.707031 90.460938 65.332031 C 89.925781 65.054688 89.820312 64.34375 90.25 63.875 C 90.644531 63.4375 95.710938 63.460938 96.148438 63.898438 M 83.945312 66.445312 C 83.425781 67 83.25 67.304688 83.25 67.65625 C 83.25 67.976562 83.082031 68.324219 82.726562 68.742188 C 82.046875 69.535156 82.058594 69.652344 82.929688 70.519531 C 83.863281 71.457031 84.253906 71.476562 85.03125 70.632812 C 85.597656 70.019531 85.609375 70.015625 85.988281 70.265625 C 86.578125 70.648438 86.582031 70.882812 86.019531 71.558594 C 85.265625 72.457031 85.304688 72.664062 86.375 73.558594 C 87.210938 74.253906 87.519531 74.242188 88.300781 73.476562 L 88.933594 72.851562 L 89.632812 73.4375 C 90.015625 73.761719 90.421875 74.089844 90.539062 74.171875 C 90.769531 74.335938 92.746094 72.519531 92.667969 72.214844 C 92.632812 72.085938 89.140625 68.972656 85.90625 66.1875 C 85.121094 65.511719 84.777344 65.554688 83.945312 66.445312 M 94.046875 75.386719 L 93.074219 76.371094 L 94.242188 77.449219 C 95.53125 78.640625 95.515625 78.59375 95.097656 79.925781 C 94.113281 83.070312 95.683594 86.617188 98.664062 87.96875 C 99.136719 88.183594 99.625 88.414062 99.75 88.476562 C 101.375 89.308594 104.917969 88.210938 106.585938 86.355469 C 111.296875 81.117188 105.476562 72.914062 99 75.664062 C 97.480469 76.308594 97.542969 76.316406 96.347656 75.308594 C 95.03125 74.203125 95.21875 74.195312 94.046875 75.386719 M 103.199219 78.011719 C 107.363281 79.890625 106.039062 86.101562 101.476562 86.101562 C 97.855469 86.101562 95.984375 81.488281 98.558594 78.914062 C 99.734375 77.738281 101.734375 77.351562 103.199219 78.011719 "/>
<path style=" stroke:none;fill-rule:evenodd;fill:rgb(17.254902%,82.352942%,85.09804%);fill-opacity:1;" d="M 103.273438 88.441406 C 102.84375 88.5625 101.984375 88.640625 101.25 88.625 C 100.121094 88.601562 99.882812 88.648438 99.15625 89.019531 C 95.449219 90.914062 91.234375 91.078125 87.773438 89.460938 C 86.679688 88.949219 83.101562 88.574219 83.101562 88.96875 C 83.101562 89.355469 85.414062 90.972656 86.960938 91.667969 C 92.128906 93.984375 100.160156 92.558594 103.867188 88.664062 C 104.355469 88.148438 104.335938 88.136719 103.273438 88.441406 "/>
</g>
</svg>
