<?xml version="1.0" encoding="UTF-8"?>
<svg xmlns="http://www.w3.org/2000/svg" xmlns:xlink="http://www.w3.org/1999/xlink" width="150px" height="150px" viewBox="0 0 149 100" version="1.1">
<g id="surface1">
<path style=" stroke:none;fill-rule:evenodd;fill:rgb(79.607844%,5.098039%,16.862746%);fill-opacity:1;" d="M 5.6875 5.105469 C 4.953125 5.316406 5.015625 3.21875 5.015625 27.410156 C 5.015625 50.691406 4.992188 49.574219 5.5 49.867188 C 5.664062 49.960938 11.851562 50 32.835938 50.039062 C 58.53125 50.085938 59.96875 50.097656 60.222656 50.261719 C 60.648438 50.542969 60.789062 50.847656 60.945312 51.847656 C 61.394531 54.667969 63.339844 56.609375 69.5625 60.441406 C 70.285156 60.882812 71.457031 61.636719 72.164062 62.117188 C 72.875 62.59375 73.9375 63.289062 74.527344 63.664062 C 76.511719 64.925781 76.308594 65.292969 73.257812 65.933594 L 71.667969 66.265625 L 68.6875 66.265625 C 63.691406 66.265625 61.078125 65.523438 57.183594 62.992188 C 55.496094 61.890625 55.105469 61.929688 53.980469 63.304688 C 53.09375 64.382812 53.074219 65.003906 53.90625 65.6875 C 54.160156 65.898438 54.582031 66.273438 54.847656 66.527344 L 55.328125 66.988281 L 55.328125 67.90625 C 55.328125 69.296875 55.496094 69.519531 57.117188 70.304688 C 58.605469 71.023438 59.007812 71.019531 59.726562 70.273438 C 60.5625 69.40625 61 69.320312 62.433594 69.761719 C 63.753906 70.164062 63.933594 70.34375 64.261719 71.578125 C 64.515625 72.542969 65.089844 72.808594 66.929688 72.808594 C 68.617188 72.808594 68.867188 72.683594 69.484375 71.53125 C 69.902344 70.75 70.085938 70.648438 71.546875 70.40625 C 73.0625 70.152344 73.257812 70.207031 73.875 71.101562 C 74.605469 72.15625 75.21875 72.296875 76.683594 71.757812 C 78.664062 71.03125 78.878906 70.828125 78.972656 69.566406 C 79.113281 67.71875 79.941406 67.167969 81.289062 68.023438 C 81.570312 68.203125 82.269531 68.636719 82.84375 68.992188 C 83.417969 69.34375 84.824219 70.261719 85.972656 71.03125 C 87.121094 71.800781 88.484375 72.632812 89.003906 72.882812 C 89.546875 73.144531 90.199219 73.554688 90.542969 73.855469 C 91.199219 74.433594 92.84375 75.648438 94.503906 76.789062 C 95.644531 77.574219 96.042969 77.933594 96.992188 79.039062 C 98.550781 80.855469 100.625 80.378906 100.625 78.203125 C 100.625 77.105469 100.15625 76.582031 97.007812 74.152344 C 95.691406 73.136719 94.347656 72.082031 94.019531 71.8125 C 93.691406 71.539062 93.066406 71.128906 92.628906 70.898438 C 92.191406 70.664062 91.585938 70.238281 91.28125 69.949219 C 90.980469 69.660156 90.457031 69.207031 90.117188 68.941406 C 86.570312 66.183594 86.636719 66.269531 87.414062 65.230469 C 87.867188 64.625 87.910156 64.304688 87.613281 63.726562 C 87.117188 62.746094 87.234375 62.347656 88.425781 60.925781 C 89.273438 59.917969 89.597656 59.757812 90.542969 59.90625 C 91.847656 60.109375 92.167969 59.882812 93.003906 58.160156 C 93.75 56.613281 93.757812 56.074219 93.042969 55.269531 C 92.25 54.375 92.238281 54.277344 92.71875 52.589844 C 93.304688 50.550781 93.320312 50.539062 96.503906 50.136719 C 96.886719 50.085938 107.441406 50.042969 120.171875 50.042969 C 145.472656 50.035156 143.566406 50.085938 143.84375 49.417969 C 143.960938 49.140625 143.984375 45.699219 143.984375 27.410156 C 143.984375 3.105469 144.054688 5.320312 143.265625 5.097656 C 142.773438 4.960938 6.15625 4.96875 5.6875 5.105469 M 81.304688 20.785156 C 82.644531 21.46875 83.183594 22.007812 83.109375 22.601562 C 82.878906 24.382812 82.871094 24.363281 84.152344 25.460938 C 85.769531 26.847656 85.945312 26.910156 87.011719 26.425781 C 87.964844 25.996094 88.152344 26.066406 89.324219 27.292969 C 90.730469 28.765625 90.835938 29.144531 90.121094 30.175781 C 89.539062 31.015625 89.582031 31.417969 90.414062 32.808594 C 91.632812 34.851562 91.582031 34.808594 92.910156 34.914062 C 93.96875 34.996094 94.144531 35.167969 94.667969 36.605469 C 95.378906 38.5625 95.3125 39.03125 94.222656 39.746094 C 93.292969 40.355469 93.257812 40.507812 93.527344 42.648438 C 93.765625 44.519531 93.855469 44.699219 94.808594 45.191406 C 95.832031 45.726562 95.976562 45.980469 95.964844 47.238281 C 95.941406 49.269531 95.597656 49.851562 94.238281 50.132812 C 93.171875 50.355469 92.914062 50.730469 92.375 52.835938 C 91.992188 54.339844 92.015625 54.519531 92.722656 55.316406 C 93.554688 56.253906 93.546875 56.5625 92.652344 58.269531 C 91.996094 59.511719 91.78125 59.6875 90.957031 59.640625 C 89.242188 59.535156 89.191406 59.554688 88.230469 60.746094 C 86.917969 62.367188 86.824219 62.632812 87.253906 63.574219 C 87.664062 64.476562 87.425781 65.121094 86.5625 65.433594 C 85.886719 65.679688 86.265625 66.429688 87.539062 67.378906 C 88.019531 67.738281 88.671875 68.269531 88.980469 68.558594 C 89.292969 68.847656 89.75 69.210938 89.996094 69.363281 C 90.242188 69.519531 90.695312 69.902344 91 70.21875 C 91.621094 70.851562 91.742188 70.933594 92.441406 71.167969 C 92.945312 71.339844 93.972656 72.019531 94.316406 72.410156 C 94.425781 72.535156 94.941406 72.960938 95.460938 73.351562 C 95.976562 73.746094 96.984375 74.511719 97.695312 75.050781 C 100.320312 77.039062 100.878906 78 100.109375 79.171875 C 99.449219 80.171875 98.335938 80.140625 97.382812 79.089844 C 97.117188 78.800781 96.652344 78.296875 96.351562 77.972656 C 96.054688 77.648438 95.292969 77.023438 94.664062 76.589844 C 92.542969 75.113281 91.339844 74.203125 90.789062 73.65625 C 90.375 73.242188 90.039062 73.027344 89.414062 72.765625 C 88.523438 72.394531 88.226562 72.21875 86.269531 70.902344 C 84.980469 70.039062 82.878906 68.691406 81.433594 67.808594 C 79.757812 66.785156 78.835938 67.339844 78.675781 69.472656 C 78.589844 70.625 78.554688 70.667969 77.316406 71.207031 C 75.398438 72.035156 74.828125 71.984375 74.105469 70.917969 C 73.546875 70.089844 73.285156 69.96875 72.21875 70.050781 C 70.183594 70.203125 69.699219 70.4375 69.09375 71.574219 C 68.625 72.457031 68.378906 72.5625 66.832031 72.542969 C 65.035156 72.523438 64.664062 72.28125 64.367188 70.957031 C 64.199219 70.199219 63.902344 69.960938 62.640625 69.558594 C 60.988281 69.035156 60.324219 69.117188 59.679688 69.9375 C 59.042969 70.746094 58.625 70.75 56.964844 69.953125 C 55.695312 69.34375 55.570312 69.160156 55.601562 67.957031 C 55.632812 66.859375 55.503906 66.609375 54.558594 65.917969 C 53.324219 65.015625 53.292969 64.394531 54.421875 63.214844 C 55.386719 62.207031 55.511719 62.222656 57.738281 63.644531 C 59.652344 64.871094 61.484375 65.609375 64.019531 66.179688 L 65.710938 66.5625 L 68.640625 66.566406 L 71.570312 66.566406 L 73.359375 66.183594 C 75.996094 65.621094 76.542969 65.332031 76.230469 64.667969 C 76.0625 64.308594 75.878906 64.167969 74.300781 63.191406 C 73.726562 62.835938 72.8125 62.242188 72.265625 61.875 C 71.71875 61.503906 70.691406 60.839844 69.980469 60.398438 C 64.324219 56.886719 62.332031 55.144531 61.472656 52.949219 C 60.824219 51.300781 61.476562 47.222656 62.5 46.5 C 63.023438 46.128906 63.171875 46.242188 64.179688 47.816406 C 65.03125 49.140625 67.835938 52.007812 69.730469 53.492188 C 70.523438 54.113281 71.417969 54.824219 71.71875 55.074219 C 72.019531 55.324219 73.113281 56.171875 74.152344 56.964844 C 75.191406 57.757812 76.375 58.679688 76.785156 59.019531 C 77.195312 59.359375 78.128906 60.09375 78.859375 60.652344 C 81.878906 62.96875 81.988281 63.003906 82.625 61.863281 C 82.816406 61.523438 83.320312 60.914062 83.820312 60.425781 C 86.15625 58.132812 88.921875 53.246094 89.386719 50.585938 C 89.933594 47.464844 89.945312 47.328125 89.9375 45.144531 C 89.90625 35.894531 83.691406 27.371094 75.152344 24.871094 C 73.304688 24.328125 73.011719 23.855469 73.460938 22.121094 C 73.796875 20.828125 74.660156 20.605469 76.421875 21.367188 C 77.359375 21.769531 77.886719 21.671875 78.550781 20.972656 C 79.457031 20.019531 79.761719 19.996094 81.304688 20.785156 M 73.171875 30.140625 C 73.292969 30.320312 73.578125 31.035156 73.804688 31.730469 C 74.597656 34.160156 74.503906 34.089844 77.046875 34.15625 C 80.035156 34.238281 80.167969 34.691406 77.726562 36.507812 C 75.871094 37.890625 75.8125 38.089844 76.578125 40.460938 C 77.148438 42.230469 77.179688 42.476562 76.855469 42.691406 C 76.457031 42.953125 75.402344 42.453125 74.054688 41.351562 C 72.816406 40.347656 72.445312 40.398438 70.484375 41.84375 C 68.183594 43.539062 67.804688 43.148438 68.785156 40.0625 C 69.433594 38.011719 69.375 37.855469 67.394531 36.40625 C 65.152344 34.761719 65.347656 34.246094 68.242188 34.160156 C 70.683594 34.089844 70.824219 33.984375 71.46875 31.726562 C 72.003906 29.863281 72.609375 29.296875 73.171875 30.140625 M 88.203125 50.132812 C 89.03125 50.292969 89.109375 50.851562 88.519531 52.445312 C 87.488281 55.238281 85.601562 58.253906 83.644531 60.238281 C 83.066406 60.820312 82.453125 61.46875 82.273438 61.675781 C 81.882812 62.128906 81.371094 62.125 80.746094 61.65625 C 79.695312 60.871094 78.320312 59.792969 77.429688 59.066406 C 76.882812 58.621094 75.542969 57.578125 74.449219 56.746094 C 73.359375 55.917969 72.238281 55.054688 71.96875 54.828125 C 71.695312 54.605469 70.933594 54.011719 70.277344 53.511719 C 67.34375 51.273438 66.769531 50.425781 67.984375 50.132812 C 68.417969 50.027344 87.664062 50.027344 88.203125 50.132812 "/>
<path style=" stroke:none;fill-rule:evenodd;fill:rgb(94.117647%,76.078433%,1.960784%);fill-opacity:1;" d="M 79.417969 20.277344 C 79.257812 20.328125 78.867188 20.640625 78.550781 20.972656 C 77.886719 21.671875 77.359375 21.769531 76.421875 21.367188 C 74.660156 20.605469 73.796875 20.828125 73.460938 22.121094 C 73.011719 23.855469 73.304688 24.328125 75.152344 24.871094 C 83.691406 27.371094 89.90625 35.894531 89.9375 45.144531 C 89.945312 47.328125 89.933594 47.464844 89.386719 50.585938 C 88.921875 53.246094 86.15625 58.132812 83.820312 60.425781 C 83.320312 60.914062 82.816406 61.523438 82.625 61.863281 C 82.117188 62.777344 81.730469 62.800781 80.621094 61.988281 C 79.730469 61.339844 77.503906 59.613281 76.785156 59.019531 C 76.375 58.679688 75.191406 57.757812 74.152344 56.964844 C 73.113281 56.171875 72.019531 55.324219 71.71875 55.074219 C 71.417969 54.824219 70.523438 54.113281 69.730469 53.492188 C 67.835938 52.007812 65.03125 49.140625 64.179688 47.816406 C 63.171875 46.242188 63.023438 46.128906 62.5 46.5 C 61.476562 47.222656 60.824219 51.300781 61.472656 52.949219 C 62.332031 55.144531 64.324219 56.886719 69.980469 60.398438 C 70.691406 60.839844 71.71875 61.503906 72.265625 61.875 C 72.8125 62.242188 73.726562 62.835938 74.300781 63.191406 C 75.878906 64.167969 76.0625 64.308594 76.230469 64.667969 C 76.542969 65.332031 75.996094 65.621094 73.359375 66.183594 L 71.570312 66.566406 L 68.640625 66.566406 L 65.710938 66.5625 L 64.019531 66.179688 C 61.484375 65.609375 59.652344 64.871094 57.738281 63.644531 C 55.511719 62.222656 55.386719 62.207031 54.421875 63.214844 C 53.292969 64.394531 53.324219 65.015625 54.558594 65.917969 C 55.503906 66.609375 55.632812 66.859375 55.601562 67.957031 C 55.570312 69.160156 55.695312 69.34375 56.964844 69.953125 C 58.625 70.75 59.042969 70.746094 59.679688 69.9375 C 60.324219 69.117188 60.988281 69.035156 62.640625 69.558594 C 63.902344 69.960938 64.199219 70.199219 64.367188 70.957031 C 64.664062 72.28125 65.035156 72.523438 66.832031 72.542969 C 68.378906 72.5625 68.625 72.457031 69.09375 71.574219 C 69.699219 70.4375 70.183594 70.203125 72.21875 70.050781 C 73.285156 69.96875 73.546875 70.089844 74.105469 70.917969 C 74.828125 71.984375 75.398438 72.035156 77.316406 71.207031 C 78.554688 70.667969 78.589844 70.625 78.675781 69.472656 C 78.835938 67.339844 79.757812 66.785156 81.433594 67.808594 C 82.878906 68.691406 84.980469 70.039062 86.269531 70.902344 C 88.226562 72.21875 88.523438 72.394531 89.414062 72.765625 C 90.039062 73.027344 90.375 73.242188 90.789062 73.65625 C 91.339844 74.203125 92.542969 75.113281 94.664062 76.589844 C 95.292969 77.023438 96.054688 77.648438 96.351562 77.972656 C 96.652344 78.296875 97.117188 78.800781 97.382812 79.089844 C 98.335938 80.140625 99.449219 80.171875 100.109375 79.171875 C 100.878906 78 100.320312 77.039062 97.695312 75.050781 C 96.984375 74.511719 95.976562 73.746094 95.460938 73.351562 C 94.941406 72.960938 94.425781 72.535156 94.316406 72.410156 C 93.972656 72.019531 92.945312 71.339844 92.441406 71.167969 C 91.742188 70.933594 91.621094 70.851562 91 70.21875 C 90.695312 69.902344 90.242188 69.519531 89.996094 69.363281 C 89.75 69.210938 89.292969 68.847656 88.980469 68.558594 C 88.671875 68.269531 88.019531 67.738281 87.539062 67.378906 C 86.265625 66.429688 85.886719 65.679688 86.5625 65.433594 C 87.425781 65.121094 87.664062 64.476562 87.253906 63.574219 C 86.824219 62.632812 86.917969 62.367188 88.230469 60.746094 C 89.191406 59.554688 89.242188 59.535156 90.957031 59.640625 C 91.78125 59.6875 91.996094 59.511719 92.652344 58.269531 C 93.546875 56.5625 93.554688 56.253906 92.722656 55.316406 C 92.015625 54.519531 91.992188 54.339844 92.375 52.835938 C 92.914062 50.730469 93.171875 50.355469 94.238281 50.132812 C 95.597656 49.851562 95.941406 49.269531 95.964844 47.238281 C 95.976562 45.980469 95.832031 45.726562 94.808594 45.191406 C 93.855469 44.699219 93.765625 44.519531 93.527344 42.648438 C 93.257812 40.507812 93.292969 40.355469 94.222656 39.746094 C 95.3125 39.03125 95.378906 38.5625 94.667969 36.605469 C 94.144531 35.167969 93.96875 34.996094 92.910156 34.914062 C 91.582031 34.808594 91.632812 34.851562 90.414062 32.808594 C 89.582031 31.417969 89.539062 31.015625 90.121094 30.175781 C 90.835938 29.144531 90.730469 28.765625 89.324219 27.292969 C 88.152344 26.066406 87.964844 25.996094 87.011719 26.425781 C 85.945312 26.910156 85.769531 26.847656 84.152344 25.460938 C 82.871094 24.363281 82.878906 24.382812 83.109375 22.601562 C 83.226562 21.667969 80.488281 19.941406 79.417969 20.277344 M 72.25 29.984375 C 71.9375 30.324219 71.75 30.742188 71.46875 31.726562 C 70.824219 33.984375 70.683594 34.089844 68.242188 34.160156 C 65.347656 34.246094 65.152344 34.761719 67.394531 36.40625 C 69.375 37.855469 69.433594 38.011719 68.785156 40.0625 C 67.804688 43.148438 68.183594 43.539062 70.484375 41.84375 C 72.445312 40.398438 72.816406 40.347656 74.054688 41.351562 C 75.402344 42.453125 76.457031 42.953125 76.855469 42.691406 C 77.179688 42.476562 77.148438 42.230469 76.578125 40.460938 C 75.8125 38.089844 75.871094 37.890625 77.726562 36.507812 C 80.167969 34.691406 80.035156 34.238281 77.046875 34.15625 C 74.503906 34.089844 74.597656 34.160156 73.804688 31.730469 C 73.195312 29.871094 72.777344 29.402344 72.25 29.984375 "/>
<path style=" stroke:none;fill-rule:evenodd;fill:rgb(1.568628%,1.568628%,1.568628%);fill-opacity:1;" d="M 0 49.9375 L 0 99.875 L 149 99.875 L 149 0 L 0 0 L 0 49.9375 M 143.265625 5.097656 C 144.054688 5.320312 143.984375 3.105469 143.984375 27.410156 C 143.984375 45.699219 143.960938 49.140625 143.84375 49.417969 C 143.566406 50.085938 145.472656 50.035156 120.171875 50.042969 C 107.441406 50.042969 96.886719 50.085938 96.503906 50.136719 C 93.320312 50.539062 93.304688 50.550781 92.71875 52.589844 C 92.238281 54.277344 92.25 54.375 93.042969 55.269531 C 93.757812 56.074219 93.75 56.613281 93.003906 58.160156 C 92.167969 59.882812 91.847656 60.109375 90.542969 59.90625 C 89.597656 59.757812 89.273438 59.917969 88.425781 60.925781 C 87.234375 62.347656 87.117188 62.746094 87.613281 63.726562 C 87.910156 64.304688 87.867188 64.625 87.414062 65.230469 C 86.636719 66.269531 86.570312 66.183594 90.117188 68.941406 C 90.457031 69.207031 90.980469 69.660156 91.28125 69.949219 C 91.585938 70.238281 92.191406 70.664062 92.628906 70.898438 C 93.066406 71.128906 93.691406 71.539062 94.019531 71.8125 C 94.347656 72.082031 95.691406 73.136719 97.007812 74.152344 C 100.15625 76.582031 100.625 77.105469 100.625 78.203125 C 100.625 80.378906 98.550781 80.855469 96.992188 79.039062 C 96.042969 77.933594 95.644531 77.574219 94.503906 76.789062 C 92.84375 75.648438 91.199219 74.433594 90.542969 73.855469 C 90.199219 73.554688 89.546875 73.144531 89.003906 72.882812 C 88.484375 72.632812 87.121094 71.800781 85.972656 71.03125 C 84.824219 70.261719 83.417969 69.34375 82.84375 68.992188 C 82.269531 68.636719 81.570312 68.203125 81.289062 68.023438 C 79.941406 67.167969 79.113281 67.71875 78.972656 69.566406 C 78.878906 70.828125 78.664062 71.03125 76.683594 71.757812 C 75.21875 72.296875 74.605469 72.15625 73.875 71.101562 C 73.257812 70.207031 73.0625 70.152344 71.546875 70.40625 C 70.085938 70.648438 69.902344 70.75 69.484375 71.53125 C 68.867188 72.683594 68.617188 72.808594 66.929688 72.808594 C 65.089844 72.808594 64.515625 72.542969 64.261719 71.578125 C 63.933594 70.34375 63.753906 70.164062 62.433594 69.761719 C 61 69.320312 60.5625 69.40625 59.726562 70.273438 C 59.007812 71.019531 58.605469 71.023438 57.117188 70.304688 C 55.496094 69.519531 55.328125 69.296875 55.328125 67.90625 L 55.328125 66.988281 L 54.847656 66.527344 C 54.582031 66.273438 54.160156 65.898438 53.90625 65.6875 C 53.074219 65.003906 53.09375 64.382812 53.980469 63.304688 C 55.105469 61.929688 55.496094 61.890625 57.183594 62.992188 C 61.078125 65.523438 63.691406 66.265625 68.6875 66.265625 L 71.667969 66.265625 L 73.257812 65.933594 C 76.308594 65.292969 76.511719 64.925781 74.527344 63.664062 C 73.9375 63.289062 72.875 62.59375 72.164062 62.117188 C 71.457031 61.636719 70.285156 60.882812 69.5625 60.441406 C 63.339844 56.609375 61.394531 54.667969 60.945312 51.847656 C 60.789062 50.847656 60.648438 50.542969 60.222656 50.261719 C 59.96875 50.097656 58.53125 50.085938 32.835938 50.039062 C 11.851562 50 5.664062 49.960938 5.5 49.867188 C 4.992188 49.574219 5.015625 50.691406 5.015625 27.410156 C 5.015625 3.21875 4.953125 5.316406 5.6875 5.105469 C 6.15625 4.96875 142.773438 4.960938 143.265625 5.097656 M 67.984375 50.132812 C 66.769531 50.425781 67.34375 51.273438 70.277344 53.511719 C 70.933594 54.011719 71.695312 54.605469 71.96875 54.828125 C 72.238281 55.054688 73.359375 55.917969 74.449219 56.746094 C 75.542969 57.578125 76.882812 58.621094 77.429688 59.066406 C 78.320312 59.792969 79.695312 60.871094 80.746094 61.65625 C 81.371094 62.125 81.882812 62.128906 82.273438 61.675781 C 82.453125 61.46875 83.066406 60.820312 83.644531 60.238281 C 85.601562 58.253906 87.488281 55.238281 88.519531 52.445312 C 89.109375 50.851562 89.03125 50.292969 88.203125 50.132812 C 87.664062 50.027344 68.417969 50.027344 67.984375 50.132812 "/>
</g>
</svg>
