<?xml version="1.0" encoding="UTF-8"?>
<svg xmlns="http://www.w3.org/2000/svg" xmlns:xlink="http://www.w3.org/1999/xlink" width="150px" height="150px" viewBox="0 0 150 150" version="1.1">
<g id="surface1">
<path style=" stroke:none;fill-rule:evenodd;fill:rgb(89.411765%,3.137255%,3.137255%);fill-opacity:1;" d="M 5.195312 27.488281 C 4.65625 27.640625 4.386719 27.949219 4.261719 28.550781 C 4.066406 29.496094 4.167969 121.257812 4.363281 121.636719 C 4.449219 121.804688 4.652344 122.039062 4.8125 122.15625 L 5.105469 122.375 L 74.363281 122.375 C 140.355469 122.375 143.632812 122.367188 143.898438 122.191406 C 144.054688 122.089844 144.261719 121.882812 144.363281 121.726562 C 144.648438 121.292969 144.648438 28.503906 144.363281 28.066406 C 144.261719 27.914062 144.054688 27.703125 143.898438 27.601562 C 143.574219 27.390625 5.945312 27.277344 5.195312 27.488281 M 143.710938 27.722656 C 143.90625 27.804688 144.136719 28.011719 144.226562 28.1875 C 144.476562 28.667969 144.476562 121.125 144.226562 121.609375 C 144.136719 121.785156 143.90625 121.988281 143.710938 122.070312 C 143.160156 122.300781 5.539062 122.292969 5.054688 122.0625 C 4.871094 121.976562 4.65625 121.800781 4.570312 121.671875 C 4.328125 121.304688 4.28125 28.765625 4.527344 28.253906 C 4.617188 28.0625 4.835938 27.832031 5.019531 27.742188 C 5.5 27.507812 143.148438 27.488281 143.710938 27.722656 M 97.417969 33.503906 C 95.960938 33.683594 95.171875 34.007812 94.378906 34.75 C 94.089844 35.019531 93.425781 35.574219 92.90625 35.984375 C 90.332031 38 89.421875 39.703125 89.128906 43.074219 C 88.652344 48.566406 87.484375 53.496094 86.5625 53.917969 C 86.046875 54.152344 84.957031 52.632812 84.757812 51.394531 C 84.589844 50.363281 84.53125 50.308594 83.300781 50.101562 C 82.570312 49.976562 82.273438 49.382812 82.273438 48.042969 C 82.273438 46.359375 82.484375 45.945312 83.835938 45 C 85.058594 44.140625 85.597656 43.253906 85.300781 42.597656 C 85.132812 42.234375 84.867188 42.28125 84.164062 42.8125 C 83.378906 43.402344 83.082031 43.421875 82.804688 42.898438 C 82.613281 42.53125 82.660156 42.273438 83.113281 41.214844 C 84.019531 39.09375 83.621094 36.519531 82.386719 36.519531 C 82.039062 36.519531 81.972656 36.480469 81.917969 36.257812 C 81.746094 35.578125 80.976562 35.398438 79.777344 35.757812 C 79.300781 35.902344 78.484375 35.941406 74.773438 35.992188 C 70.480469 36.050781 70.332031 36.058594 70.046875 36.269531 C 69.542969 36.644531 69.507812 36.960938 69.878906 37.644531 C 70.058594 37.96875 70.300781 38.496094 70.421875 38.8125 C 70.734375 39.65625 71.085938 40 72.195312 40.554688 C 74.441406 41.671875 74.796875 43.613281 72.726562 43.441406 C 72.234375 43.402344 71.410156 43.335938 70.898438 43.296875 C 69.304688 43.171875 68.953125 42.675781 69.496094 41.304688 C 69.761719 40.625 69.757812 40.464844 69.441406 39.757812 C 69.300781 39.4375 69.117188 38.851562 69.039062 38.457031 C 68.824219 37.421875 68.675781 37.382812 67.269531 38.035156 C 66.851562 38.226562 66 38.53125 65.378906 38.710938 C 63.148438 39.355469 62.789062 39.890625 63.519531 41.507812 L 63.894531 42.34375 L 63.828125 43.515625 C 63.773438 44.496094 63.710938 44.789062 63.457031 45.351562 C 63.0625 46.214844 63.105469 46.308594 64.140625 46.808594 C 65.992188 47.707031 66.769531 49.386719 66.03125 50.902344 C 65.402344 52.191406 64.652344 52.347656 63.898438 51.355469 C 63.253906 50.503906 62.617188 49.886719 61.152344 48.703125 C 59.066406 47.011719 58.992188 46.882812 59.320312 45.597656 C 60.039062 42.789062 58.230469 41.128906 55.417969 42.003906 C 53.035156 42.746094 52.65625 45.59375 54.660156 47.710938 C 55.441406 48.539062 55.859375 48.75 57.320312 49.039062 C 59.265625 49.429688 61.238281 50.511719 62.613281 51.945312 C 63.40625 52.773438 63.445312 53.019531 62.8125 53.257812 C 61.761719 53.660156 60.949219 53.375 59.730469 52.179688 C 57.652344 50.144531 56.472656 50.265625 55.34375 52.636719 C 54.285156 54.859375 52.332031 54.433594 50.699219 51.625 C 48.816406 48.382812 48.6875 45.136719 50.371094 43.25 C 51.074219 42.464844 51.15625 42.261719 51.066406 41.539062 C 51.035156 41.269531 50.96875 40.414062 50.921875 39.640625 C 50.769531 37.105469 49.953125 36.363281 48.941406 37.847656 C 48.414062 38.621094 48.1875 38.824219 47.367188 39.246094 C 46.746094 39.566406 46.679688 39.636719 46.5 40.136719 C 46.132812 41.152344 45.257812 40.761719 44.917969 39.429688 C 44.570312 38.066406 43.179688 36.042969 42.261719 35.578125 C 41.355469 35.113281 40.929688 35.355469 40.730469 36.449219 C 40.671875 36.78125 40.527344 37.265625 40.410156 37.527344 C 40.101562 38.222656 40.140625 38.535156 40.621094 39.257812 C 41.410156 40.4375 40.789062 41.128906 39.488281 40.523438 C 39.089844 40.335938 38.757812 40.265625 38.304688 40.265625 C 37.785156 40.265625 37.511719 40.1875 36.75 39.835938 C 34.738281 38.910156 34.125 39.3125 34.914062 41.050781 C 35.089844 41.441406 35.28125 42.066406 35.339844 42.441406 C 35.539062 43.730469 36.015625 44.355469 37.25 44.941406 C 38.484375 45.53125 38.449219 45.929688 37.085938 46.765625 C 36.828125 46.925781 36.402344 47.253906 36.140625 47.496094 C 35.765625 47.84375 35.53125 47.964844 35.058594 48.066406 C 33.082031 48.476562 33.972656 50.394531 36.316406 50.769531 C 36.800781 50.847656 37.144531 50.980469 37.519531 51.238281 C 38.15625 51.679688 38.457031 51.691406 39.386719 51.328125 C 40.367188 50.941406 40.929688 51.210938 40.929688 52.0625 C 40.929688 52.894531 40.46875 53.199219 39.367188 53.101562 C 37.507812 52.941406 37.488281 54.121094 39.339844 54.722656 C 41.574219 55.449219 42.226562 56.90625 40.4375 57.160156 C 39.121094 57.34375 38.929688 57.5625 39.269531 58.476562 L 39.5 59.089844 L 39.070312 59.554688 C 38.316406 60.375 38.460938 60.78125 39.910156 61.953125 C 40.550781 62.472656 40.894531 62.667969 41.449219 62.835938 C 42.292969 63.085938 42.75 63.433594 42.976562 64.003906 C 43.28125 64.769531 44.230469 64.980469 45.824219 64.636719 C 47.058594 64.371094 47.507812 64.664062 47.644531 65.828125 C 47.773438 66.925781 47.316406 67.65625 46.117188 68.273438 C 44.867188 68.917969 44.207031 68.789062 43.320312 67.734375 C 42.296875 66.519531 41.910156 67 41.992188 69.390625 C 42.082031 72 42.714844 72.859375 44.742188 73.144531 C 46.832031 73.4375 48.722656 72.65625 51.023438 70.546875 C 52.910156 68.820312 55.125 68.179688 55.882812 69.148438 C 56.230469 69.585938 56.15625 69.910156 55.613281 70.367188 C 55.351562 70.585938 54.878906 71.171875 54.5625 71.664062 C 52.96875 74.164062 48.242188 77.605469 46.402344 77.601562 C 44.421875 77.597656 43.453125 76.957031 43.316406 75.566406 C 43.230469 74.695312 43.097656 74.480469 42.433594 74.144531 C 42.207031 74.03125 41.691406 73.6875 41.292969 73.382812 C 39.050781 71.675781 37.363281 71.996094 38.390625 73.929688 L 38.761719 74.632812 L 38.726562 75.996094 C 38.679688 77.957031 38.4375 78.28125 36.78125 78.59375 C 33.488281 79.21875 31.890625 80.066406 31.890625 81.199219 C 31.890625 81.738281 32.167969 81.867188 33.34375 81.867188 C 34.539062 81.867188 35.171875 82.113281 35.757812 82.796875 C 36.628906 83.816406 36.652344 84.210938 35.878906 84.917969 C 34.789062 85.917969 34.492188 87.265625 35.148438 88.230469 C 35.625 88.929688 35.8125 88.902344 37.300781 87.902344 L 38.382812 87.171875 L 39.144531 87.199219 C 40.074219 87.226562 40.34375 87 40.722656 85.867188 C 41.277344 84.199219 42.628906 83.800781 43.003906 85.195312 C 43.140625 85.691406 43.089844 85.90625 42.695312 86.546875 C 40.878906 89.492188 42.898438 90.457031 45.535156 87.898438 C 46.320312 87.144531 46.566406 86.828125 46.785156 86.308594 C 47.46875 84.710938 47.582031 84.625 48.191406 85.289062 C 48.796875 85.945312 49.085938 85.828125 49.847656 84.605469 C 50.859375 82.984375 51.976562 82.71875 52.257812 84.03125 C 52.402344 84.714844 52.527344 84.714844 53.253906 84.050781 C 54.023438 83.347656 54.496094 83.210938 55.117188 83.511719 C 55.914062 83.898438 56.050781 83.820312 56.65625 82.617188 C 57.164062 81.601562 57.929688 80.929688 58.566406 80.929688 C 59.058594 80.929688 59.46875 80.734375 59.660156 80.410156 C 59.972656 79.882812 60.128906 79.785156 60.675781 79.785156 C 61.226562 79.785156 61.628906 79.621094 62.222656 79.15625 C 62.421875 79 62.839844 78.789062 63.148438 78.691406 C 63.941406 78.4375 64.140625 78.171875 64.394531 77.074219 C 64.839844 75.136719 65.363281 74.546875 66.3125 74.914062 C 66.875 75.132812 67.074219 75.105469 67.390625 74.765625 C 67.769531 74.359375 68.449219 72.859375 68.652344 71.976562 C 68.953125 70.695312 69.65625 70.015625 70.535156 70.164062 C 70.734375 70.195312 71.164062 70.269531 71.492188 70.328125 C 72.210938 70.449219 73.277344 70.304688 73.863281 70.003906 C 74.628906 69.617188 74.746094 69.671875 75.945312 71.011719 C 76.148438 71.238281 76.570312 71.578125 76.878906 71.757812 C 78.640625 72.804688 79.601562 73.773438 79.929688 74.847656 C 80.121094 75.46875 80.28125 75.738281 80.742188 76.253906 C 81.621094 77.222656 81.609375 77.460938 80.644531 78.535156 C 79.527344 79.78125 78.617188 79.746094 75.929688 78.363281 C 74.96875 77.871094 74.925781 77.863281 74.007812 77.863281 L 73.070312 77.863281 L 72.214844 78.382812 C 71.746094 78.667969 71.015625 79.210938 70.597656 79.585938 C 70.179688 79.964844 69.535156 80.453125 69.171875 80.671875 C 68.804688 80.890625 68.222656 81.273438 67.871094 81.519531 C 66.980469 82.148438 66.675781 82.253906 65.21875 82.433594 C 63.707031 82.625 63.46875 82.695312 62.566406 83.222656 C 62.125 83.480469 61.542969 83.703125 60.941406 83.84375 C 59.6875 84.140625 58.898438 84.515625 57.964844 85.261719 C 56.789062 86.199219 54.417969 88.449219 54.027344 88.992188 C 53.835938 89.257812 53.5 89.605469 53.277344 89.765625 L 52.875 90.058594 L 50.445312 90.070312 C 47.964844 90.082031 47.765625 90.101562 47.445312 90.375 C 47.027344 90.734375 47.199219 91.132812 48.363281 92.484375 C 49.84375 94.207031 51.390625 94.398438 54.003906 93.191406 C 55.320312 92.582031 55.546875 92.539062 56.550781 92.730469 C 57.023438 92.816406 57.757812 92.890625 58.183594 92.890625 C 58.714844 92.890625 59.027344 92.941406 59.1875 93.050781 C 59.515625 93.285156 59.472656 93.410156 59.0625 93.410156 C 58.761719 93.410156 58.378906 93.621094 58.378906 93.785156 C 58.378906 94.007812 58.761719 94.628906 59.195312 95.109375 C 60.242188 96.265625 60.289062 97.25 59.355469 98.519531 C 58.734375 99.367188 58.351562 99.523438 56.496094 99.703125 C 54.085938 99.9375 53.621094 99.816406 53.082031 98.804688 C 52.703125 98.089844 52.289062 97.71875 51.699219 97.566406 C 50.863281 97.351562 50.628906 97.253906 49.804688 96.78125 C 47.574219 95.503906 46.378906 95.753906 47.464844 97.277344 C 47.691406 97.589844 48 98.164062 48.15625 98.546875 C 48.308594 98.933594 48.59375 99.441406 48.792969 99.675781 C 50.109375 101.257812 49.730469 102.050781 47.632812 102.089844 C 46.523438 102.109375 46.308594 102.179688 45.71875 102.691406 C 45.523438 102.859375 45.019531 103.15625 44.589844 103.351562 C 42.664062 104.230469 41.628906 105.636719 42.617188 106.039062 C 43.347656 106.335938 45.085938 106.339844 45.660156 106.046875 C 46.3125 105.714844 46.378906 105.746094 46.738281 106.554688 C 46.902344 106.917969 47.273438 107.480469 47.5625 107.800781 C 48.277344 108.589844 48.308594 108.773438 47.84375 109.382812 C 47.058594 110.414062 47.109375 111.714844 47.964844 112.507812 C 48.554688 113.058594 48.949219 112.824219 50.058594 111.257812 C 51.246094 109.578125 52.222656 108.875 53.378906 108.863281 C 54.183594 108.851562 54.34375 109.003906 54.140625 109.566406 C 53.941406 110.113281 54.089844 112.171875 54.339844 112.402344 C 55.101562 113.09375 56.320312 111.878906 57.171875 109.578125 C 57.898438 107.621094 57.964844 107.554688 58.851562 107.925781 C 59.167969 108.058594 59.328125 108.070312 59.6875 107.980469 C 59.933594 107.917969 60.351562 107.867188 60.613281 107.867188 C 61.34375 107.867188 61.660156 107.503906 61.757812 106.558594 C 61.871094 105.441406 62.183594 105.144531 62.847656 105.527344 C 63.296875 105.785156 63.53125 105.714844 63.941406 105.214844 C 64.320312 104.75 64.332031 104.746094 64.96875 104.746094 C 65.710938 104.746094 65.949219 104.574219 66.171875 103.863281 C 66.910156 101.53125 67.941406 99.457031 68.5 99.191406 C 69.453125 98.738281 69.894531 99.535156 69.378906 100.777344 C 68.976562 101.742188 69.386719 101.902344 70.382812 101.175781 C 72.839844 99.378906 72.703125 97.804688 69.765625 94.136719 C 68.339844 92.359375 68.101562 90.691406 69.140625 89.773438 C 70.867188 88.257812 76.449219 87.191406 78.257812 88.03125 C 78.59375 88.1875 79.046875 88.3125 79.265625 88.3125 C 79.820312 88.3125 79.96875 88.503906 80.933594 90.441406 C 82.546875 93.6875 82.605469 94.804688 81.222656 95.871094 C 80.3125 96.578125 79.867188 96.667969 78.726562 96.371094 C 77.320312 96.007812 77.21875 96.734375 78.445312 98.371094 C 79.992188 100.4375 81.96875 100.863281 83.882812 99.546875 C 84.140625 99.367188 84.714844 99.03125 85.15625 98.796875 C 85.597656 98.5625 86.210938 98.238281 86.519531 98.074219 C 87.257812 97.683594 88.726562 97.648438 89.875 98 C 90.683594 98.246094 91.480469 98.226562 92.554688 97.933594 C 94.125 97.511719 94.632812 97.953125 94.632812 99.726562 C 94.625 103.507812 91.539062 105.9375 89.609375 103.675781 C 89.019531 102.984375 88.742188 102.875 87.609375 102.875 C 87.136719 102.875 86.242188 102.777344 85.625 102.65625 C 83.464844 102.238281 83.097656 102.53125 84.042969 103.933594 C 84.472656 104.574219 84.585938 104.839844 84.675781 105.429688 C 84.800781 106.234375 84.964844 106.613281 85.402344 107.117188 C 85.992188 107.792969 85.691406 108.128906 84.355469 108.28125 C 83.375 108.394531 82.960938 108.605469 82.460938 109.25 C 82.277344 109.492188 81.78125 110.054688 81.359375 110.5 C 79.769531 112.1875 79.714844 113.421875 81.246094 113.007812 C 81.738281 112.871094 82.960938 112.65625 84.191406 112.484375 C 84.621094 112.425781 86.945312 113.136719 87.226562 113.410156 C 87.292969 113.480469 87.417969 113.972656 87.503906 114.507812 C 87.757812 116.085938 88.5 117.210938 89.503906 117.542969 C 90.335938 117.816406 90.492188 117.578125 90.207031 116.453125 C 89.960938 115.46875 90.128906 114.765625 90.78125 114.0625 C 91.054688 113.773438 91.445312 113.246094 91.65625 112.894531 C 92.402344 111.648438 93.734375 111.449219 94.683594 112.441406 L 94.976562 112.746094 L 94.777344 113.023438 C 94.210938 113.824219 94.21875 113.789062 94.21875 115.101562 C 94.21875 116.746094 94.460938 116.96875 95.507812 116.273438 C 96.363281 115.707031 97.804688 113.441406 98.234375 112 C 98.320312 111.707031 98.578125 111.109375 98.808594 110.667969 C 99.222656 109.882812 99.230469 109.851562 99.308594 108.390625 C 99.371094 107.175781 99.421875 106.859375 99.585938 106.640625 C 100.074219 105.984375 100.289062 106.074219 100.71875 107.117188 C 101.207031 108.308594 101.40625 108.386719 101.960938 107.625 C 102.132812 107.382812 102.523438 107.050781 102.832031 106.878906 C 103.136719 106.707031 103.726562 106.257812 104.136719 105.875 C 105.050781 105.027344 105.382812 104.851562 106.050781 104.851562 C 106.78125 104.851562 106.9375 104.605469 106.863281 103.574219 C 106.832031 103.128906 106.867188 102.515625 106.953125 102.0625 C 107.101562 101.273438 107.0625 100.894531 106.742188 100.015625 C 106.0625 98.164062 107.332031 97.457031 108.378906 99.105469 C 109.207031 100.40625 110.429688 98.226562 109.839844 96.496094 C 109.367188 95.105469 107.753906 94.171875 105.488281 93.980469 C 104.414062 93.886719 103.984375 93.714844 102.476562 92.769531 C 99.933594 91.175781 98.214844 90.390625 96.25 89.925781 C 94.589844 89.53125 94.425781 89.417969 94.425781 88.648438 C 94.425781 87.984375 95.796875 83.335938 96.113281 82.933594 C 96.398438 82.570312 96.714844 82.789062 98.5625 84.601562 C 100.535156 86.535156 101.078125 86.9375 103.253906 88.105469 C 104.027344 88.519531 104.972656 89.082031 105.355469 89.363281 C 106.492188 90.183594 107.75 90.683594 109.699219 91.078125 C 111.347656 91.410156 111.832031 92.308594 111.253906 93.957031 C 110.90625 94.949219 111.140625 95.808594 111.785156 95.886719 C 112.183594 95.933594 112.28125 95.722656 112.378906 94.597656 C 112.449219 93.796875 112.539062 93.410156 112.789062 92.867188 C 113.648438 90.980469 113.378906 89.648438 111.863281 88.300781 C 111.035156 87.566406 110.949219 87.324219 111.238281 86.53125 C 113.183594 81.222656 113.03125 79.574219 110.171875 74.847656 C 108.660156 72.355469 109.269531 70.402344 111.632812 70.160156 C 112.820312 70.035156 113.113281 69.695312 112.59375 69.03125 C 111.703125 67.898438 109.386719 68.304688 107.675781 69.902344 C 106.835938 70.683594 106.710938 70.71875 106.046875 70.355469 C 102.8125 68.59375 106.066406 64.183594 110.546875 64.261719 C 111.5 64.277344 111.691406 64.25 111.898438 64.082031 L 112.136719 63.886719 L 111.929688 63.492188 C 111.441406 62.558594 109.574219 61.933594 107.417969 61.972656 C 105.9375 62 105.746094 61.921875 105.746094 61.296875 C 105.746094 60.730469 106.070312 60.335938 107.597656 59.023438 C 111.683594 55.515625 113.65625 52.578125 113.820312 49.761719 C 113.894531 48.507812 113.839844 48.351562 113.441406 48.734375 C 112.910156 49.242188 112 50.601562 111.324219 51.882812 C 109.925781 54.546875 108.128906 56.449219 106.132812 57.378906 C 105.167969 57.828125 105.160156 57.816406 105.144531 56.460938 L 105.132812 55.292969 L 105.914062 53.835938 C 110.410156 45.449219 110.824219 42.945312 108.394531 38.917969 C 106.125 35.164062 101.679688 32.96875 97.417969 33.503906 M 42.460938 35.960938 C 43.476562 36.738281 43.453125 37.640625 42.414062 37.742188 C 41.753906 37.804688 41.484375 37.660156 41.234375 37.109375 C 40.667969 35.867188 41.417969 35.164062 42.460938 35.960938 M 50.140625 37.507812 C 50.964844 38.085938 50.808594 40.347656 49.9375 40.453125 C 48.941406 40.570312 48.359375 39.40625 48.890625 38.355469 C 49.355469 37.433594 49.699219 37.199219 50.140625 37.507812 M 35.902344 39.734375 C 36.648438 40.074219 36.882812 40.699219 36.441406 41.167969 C 36.023438 41.613281 35.457031 41.421875 35.015625 40.679688 C 34.484375 39.785156 34.941406 39.296875 35.902344 39.734375 M 104.152344 40.265625 C 104.574219 40.433594 105.214844 40.621094 105.578125 40.6875 C 106.484375 40.84375 106.851562 41.09375 107.15625 41.753906 C 108.207031 44.050781 106.828125 47.488281 102.320312 53.835938 C 98.363281 59.410156 97.210938 62.226562 97.355469 65.988281 C 97.46875 68.902344 98.859375 71.289062 102.785156 75.308594 C 106.308594 78.917969 106.945312 79.832031 106.9375 81.292969 C 106.933594 82.71875 106.394531 83.300781 104.382812 84.058594 C 102.324219 84.835938 101.507812 84.476562 99.171875 81.769531 C 98.652344 81.164062 97.734375 80.140625 97.140625 79.496094 C 96.109375 78.382812 96 78.21875 95.050781 76.375 C 92.0625 70.570312 89.582031 67.472656 84.417969 63.089844 C 83.34375 62.175781 82.117188 61.136719 81.691406 60.777344 C 80.167969 59.484375 80.183594 58.6875 81.726562 58.980469 C 82.652344 59.15625 83.117188 59.070312 83.460938 58.660156 C 83.902344 58.136719 83.832031 57.886719 83.070312 57.242188 C 82.394531 56.679688 82.800781 56.335938 84.140625 56.332031 C 85.109375 56.328125 85.179688 56.3125 86.039062 55.886719 C 87.800781 55.023438 88.816406 55.503906 88.816406 57.203125 C 88.816406 57.9375 89.121094 58.988281 89.496094 59.535156 C 89.933594 60.179688 90.070312 60.046875 90.425781 58.621094 C 90.820312 57.050781 90.957031 56.722656 91.746094 55.417969 C 92.097656 54.832031 92.609375 53.84375 92.886719 53.21875 C 94.132812 50.375 95.621094 50.582031 95.441406 53.574219 C 95.40625 54.148438 95.320312 54.5 95.121094 54.894531 C 94.597656 55.921875 94.679688 56.792969 95.277344 56.523438 C 95.554688 56.394531 95.757812 56.023438 96.453125 54.386719 C 97.28125 52.429688 97.375 51.953125 97.382812 49.558594 C 97.394531 46.992188 97.355469 47.066406 98.804688 46.761719 C 100.1875 46.46875 101.335938 45.75 101.664062 44.96875 C 101.855469 44.507812 101.742188 44.339844 101.003906 43.957031 C 99.523438 43.195312 99.535156 41.503906 101.023438 40.445312 C 101.976562 39.769531 102.796875 39.722656 104.152344 40.265625 M 57.660156 42.070312 C 59.011719 42.554688 59.589844 43.71875 59.210938 45.203125 C 58.785156 46.863281 58.886719 47.101562 60.632812 48.539062 C 62.722656 50.265625 63.46875 51.074219 63.324219 51.453125 C 63.210938 51.753906 62.757812 51.582031 61.75 50.863281 C 59.851562 49.507812 59.007812 49.125 57.15625 48.792969 C 54.640625 48.339844 52.941406 45.773438 53.75 43.652344 C 54.21875 42.417969 56.292969 41.582031 57.660156 42.070312 M 113.863281 46.957031 C 113.738281 47.105469 113.703125 47.328125 113.730469 47.800781 C 113.746094 48.097656 113.753906 48.101562 113.894531 47.902344 C 114.21875 47.4375 114.191406 46.5625 113.863281 46.957031 M 35.53125 48.636719 C 36.324219 49.046875 36.328125 50.25 35.535156 50.25 C 34.75 50.246094 33.941406 49.070312 34.40625 48.605469 C 34.578125 48.433594 35.164062 48.449219 35.53125 48.636719 M 65.101562 65.222656 C 65.132812 65.339844 65.445312 65.589844 65.816406 65.796875 C 66.753906 66.324219 66.824219 66.574219 66.273438 67.464844 C 65.71875 68.363281 65.160156 67.984375 64.988281 66.59375 C 64.839844 65.398438 64.820312 65.386719 64.164062 66.089844 C 63.394531 66.921875 62.996094 66.902344 62.390625 66.015625 C 62.015625 65.460938 62 65.472656 63.125 65.394531 C 63.679688 65.355469 64.25 65.257812 64.398438 65.179688 C 64.789062 64.972656 65.039062 64.988281 65.101562 65.222656 M 60.65625 70.472656 C 61.359375 70.835938 60.96875 71.570312 60.070312 71.570312 C 59.425781 71.570312 59.085938 70.957031 59.484375 70.511719 C 59.695312 70.28125 60.25 70.261719 60.65625 70.472656 M 40.019531 72.84375 C 41.101562 73.300781 41.539062 74.210938 40.921875 74.730469 C 40.25 75.296875 39.464844 75.015625 38.757812 73.953125 C 37.921875 72.703125 38.492188 72.203125 40.019531 72.84375 M 34.648438 79.894531 C 34.921875 80.195312 34.898438 80.761719 34.601562 81.078125 C 34.160156 81.546875 32.644531 81.726562 32.375 81.339844 C 31.824219 80.550781 33.992188 79.171875 34.648438 79.894531 M 36.601562 85.457031 C 37.9375 86.109375 37.316406 88.417969 35.808594 88.417969 C 34.761719 88.417969 34.824219 85.828125 35.878906 85.398438 C 36.1875 85.273438 36.234375 85.277344 36.601562 85.457031 M 44.328125 87.4375 C 45.136719 87.960938 44.242188 89.144531 43.042969 89.144531 C 42.242188 89.144531 42.019531 88.605469 42.496094 87.832031 C 42.886719 87.199219 43.6875 87.027344 44.328125 87.4375 M 63.675781 90.914062 C 64.300781 91.539062 63.449219 92.996094 62.460938 92.996094 C 62.152344 92.996094 62.089844 92.945312 61.945312 92.605469 C 61.855469 92.390625 61.695312 92.089844 61.585938 91.9375 C 61.304688 91.542969 61.34375 91.375 61.761719 91.179688 C 62.832031 90.667969 63.359375 90.597656 63.675781 90.914062 M 90.949219 93.875 C 91.609375 94.53125 90.988281 95.660156 90.089844 95.445312 C 88.871094 95.148438 88.832031 95.101562 89.304688 94.484375 C 89.917969 93.679688 90.527344 93.453125 90.949219 93.875 M 88.34375 112.257812 C 88.710938 112.78125 88.433594 113.292969 87.882812 113.117188 C 87.535156 113.007812 87.722656 112.027344 88.089844 112.027344 C 88.140625 112.027344 88.253906 112.128906 88.34375 112.257812 "/>
<path style=" stroke:none;fill-rule:evenodd;fill:rgb(1.568628%,1.568628%,1.568628%);fill-opacity:1;" d="M 0 75 L 0 127.003906 L 150 127.003906 L 150 23 L 0 23 L 0 75 M 143.898438 27.601562 C 144.054688 27.703125 144.261719 27.914062 144.363281 28.066406 C 144.648438 28.503906 144.648438 121.292969 144.363281 121.726562 C 144.261719 121.882812 144.054688 122.089844 143.898438 122.191406 C 143.632812 122.367188 140.355469 122.375 74.363281 122.375 L 5.105469 122.375 L 4.8125 122.15625 C 4.652344 122.039062 4.449219 121.804688 4.363281 121.636719 C 4.167969 121.257812 4.066406 29.496094 4.261719 28.550781 C 4.386719 27.949219 4.65625 27.640625 5.195312 27.488281 C 5.945312 27.277344 143.574219 27.390625 143.898438 27.601562 M 41.25 35.78125 C 40.859375 36.175781 41.121094 37.378906 41.660156 37.667969 C 41.992188 37.847656 42.902344 37.738281 43.074219 37.503906 C 43.648438 36.71875 41.929688 35.101562 41.25 35.78125 M 49.308594 37.691406 C 48.433594 38.859375 48.449219 39.855469 49.34375 40.316406 C 50.082031 40.699219 50.597656 40.273438 50.671875 39.222656 C 50.773438 37.804688 49.929688 36.859375 49.308594 37.691406 M 34.980469 39.648438 C 34.441406 39.964844 35.230469 41.398438 35.949219 41.40625 C 36.28125 41.410156 36.667969 41.011719 36.667969 40.671875 C 36.667969 40.003906 35.542969 39.320312 34.980469 39.648438 M 55.808594 42.089844 C 52.15625 43.074219 53.164062 48.070312 57.15625 48.792969 C 59.007812 49.125 59.851562 49.507812 61.75 50.863281 C 62.757812 51.582031 63.210938 51.753906 63.324219 51.453125 C 63.46875 51.074219 62.722656 50.265625 60.632812 48.539062 C 58.886719 47.101562 58.785156 46.863281 59.210938 45.203125 C 59.773438 43 58.101562 41.46875 55.808594 42.089844 M 34.40625 48.605469 C 34.097656 48.914062 34.390625 49.714844 34.933594 50.042969 C 35.78125 50.5625 36.441406 49.972656 35.992188 49.101562 C 35.722656 48.578125 34.738281 48.269531 34.40625 48.605469 M 38.636719 72.644531 C 37.835938 73.042969 39.148438 75 40.21875 75 C 40.730469 75 41.238281 74.582031 41.238281 74.160156 C 41.238281 73.347656 39.390625 72.269531 38.636719 72.644531 M 33.332031 79.890625 C 32.148438 80.515625 31.898438 81.554688 32.929688 81.554688 C 34.113281 81.554688 34.839844 81.136719 34.839844 80.464844 C 34.839844 79.726562 34.140625 79.460938 33.332031 79.890625 M 35.878906 85.398438 C 34.824219 85.828125 34.761719 88.417969 35.808594 88.417969 C 36.34375 88.417969 37.210938 87.683594 37.355469 87.109375 C 37.601562 86.128906 36.6875 85.070312 35.878906 85.398438 M 43.046875 87.316406 C 42.40625 87.601562 42.011719 88.695312 42.4375 89.003906 C 43.167969 89.539062 44.828125 88.652344 44.621094 87.835938 C 44.5 87.34375 43.628906 87.054688 43.046875 87.316406 "/>
<path style=" stroke:none;fill-rule:evenodd;fill:rgb(98.431373%,98.431373%,98.431373%);fill-opacity:1;" d="M 5.019531 27.742188 C 4.835938 27.832031 4.617188 28.0625 4.527344 28.253906 C 4.28125 28.765625 4.328125 121.304688 4.570312 121.671875 C 4.65625 121.800781 4.871094 121.976562 5.054688 122.0625 C 5.539062 122.292969 143.160156 122.300781 143.710938 122.070312 C 143.90625 121.988281 144.136719 121.785156 144.226562 121.609375 C 144.476562 121.125 144.476562 28.667969 144.226562 28.1875 C 144.136719 28.011719 143.90625 27.804688 143.710938 27.722656 C 143.148438 27.488281 5.5 27.507812 5.019531 27.742188 M 101.050781 33.710938 C 104.769531 34.484375 107.660156 36.898438 109.238281 40.554688 C 110.589844 43.6875 109.921875 46.355469 105.914062 53.835938 L 105.132812 55.292969 L 105.144531 56.460938 C 105.160156 57.816406 105.167969 57.828125 106.132812 57.378906 C 108.128906 56.449219 109.925781 54.546875 111.324219 51.882812 C 112 50.601562 112.910156 49.242188 113.441406 48.734375 C 113.839844 48.351562 113.894531 48.507812 113.820312 49.761719 C 113.65625 52.578125 111.683594 55.515625 107.597656 59.023438 C 106.070312 60.335938 105.746094 60.730469 105.746094 61.296875 C 105.746094 61.921875 105.9375 62 107.417969 61.972656 C 109.574219 61.933594 111.441406 62.558594 111.929688 63.492188 L 112.136719 63.886719 L 111.898438 64.082031 C 111.691406 64.25 111.5 64.277344 110.546875 64.261719 C 106.066406 64.183594 102.8125 68.59375 106.046875 70.355469 C 106.710938 70.71875 106.835938 70.683594 107.675781 69.902344 C 109.386719 68.304688 111.703125 67.898438 112.59375 69.03125 C 113.113281 69.695312 112.820312 70.035156 111.632812 70.160156 C 109.269531 70.402344 108.660156 72.355469 110.171875 74.847656 C 113.03125 79.574219 113.183594 81.222656 111.238281 86.53125 C 110.949219 87.324219 111.035156 87.566406 111.863281 88.300781 C 113.378906 89.648438 113.648438 90.980469 112.789062 92.867188 C 112.539062 93.410156 112.449219 93.796875 112.378906 94.597656 C 112.28125 95.722656 112.183594 95.933594 111.785156 95.886719 C 111.140625 95.808594 110.90625 94.949219 111.253906 93.957031 C 111.832031 92.308594 111.347656 91.410156 109.699219 91.078125 C 107.75 90.683594 106.492188 90.183594 105.355469 89.363281 C 104.972656 89.082031 104.027344 88.519531 103.253906 88.105469 C 101.078125 86.9375 100.535156 86.535156 98.5625 84.601562 C 96.714844 82.789062 96.398438 82.570312 96.113281 82.933594 C 95.796875 83.335938 94.425781 87.984375 94.425781 88.648438 C 94.425781 89.417969 94.589844 89.53125 96.25 89.925781 C 98.214844 90.390625 99.933594 91.175781 102.476562 92.769531 C 103.984375 93.714844 104.414062 93.886719 105.488281 93.980469 C 107.753906 94.171875 109.367188 95.105469 109.839844 96.496094 C 110.429688 98.226562 109.207031 100.40625 108.378906 99.105469 C 107.332031 97.457031 106.0625 98.164062 106.742188 100.015625 C 107.0625 100.894531 107.101562 101.273438 106.953125 102.0625 C 106.867188 102.515625 106.832031 103.128906 106.863281 103.574219 C 106.9375 104.605469 106.78125 104.851562 106.050781 104.851562 C 105.382812 104.851562 105.050781 105.027344 104.136719 105.875 C 103.726562 106.257812 103.136719 106.707031 102.832031 106.878906 C 102.523438 107.050781 102.132812 107.382812 101.960938 107.625 C 101.40625 108.386719 101.207031 108.308594 100.71875 107.117188 C 100.289062 106.074219 100.074219 105.984375 99.585938 106.640625 C 99.421875 106.859375 99.371094 107.175781 99.308594 108.390625 C 99.230469 109.851562 99.222656 109.882812 98.808594 110.667969 C 98.578125 111.109375 98.320312 111.707031 98.234375 112 C 97.804688 113.441406 96.363281 115.707031 95.507812 116.273438 C 94.460938 116.96875 94.21875 116.746094 94.21875 115.101562 C 94.21875 113.789062 94.210938 113.824219 94.777344 113.023438 L 94.976562 112.746094 L 94.683594 112.441406 C 93.734375 111.449219 92.402344 111.648438 91.65625 112.894531 C 91.445312 113.246094 91.054688 113.773438 90.78125 114.0625 C 90.128906 114.765625 89.960938 115.46875 90.207031 116.453125 C 90.492188 117.578125 90.335938 117.816406 89.503906 117.542969 C 88.5 117.210938 87.757812 116.085938 87.503906 114.507812 C 87.417969 113.972656 87.292969 113.480469 87.226562 113.410156 C 86.945312 113.136719 84.621094 112.425781 84.191406 112.484375 C 82.960938 112.65625 81.738281 112.871094 81.246094 113.007812 C 79.714844 113.421875 79.769531 112.1875 81.359375 110.5 C 81.78125 110.054688 82.277344 109.492188 82.460938 109.25 C 82.960938 108.605469 83.375 108.394531 84.355469 108.28125 C 85.691406 108.128906 85.992188 107.792969 85.402344 107.117188 C 84.964844 106.613281 84.800781 106.234375 84.675781 105.429688 C 84.585938 104.839844 84.472656 104.574219 84.042969 103.933594 C 83.097656 102.53125 83.464844 102.238281 85.625 102.65625 C 86.242188 102.777344 87.136719 102.875 87.609375 102.875 C 88.742188 102.875 89.019531 102.984375 89.609375 103.675781 C 91.539062 105.9375 94.625 103.507812 94.632812 99.726562 C 94.632812 97.953125 94.125 97.511719 92.554688 97.933594 C 91.480469 98.226562 90.683594 98.246094 89.875 98 C 88.726562 97.648438 87.257812 97.683594 86.519531 98.074219 C 86.210938 98.238281 85.597656 98.5625 85.15625 98.796875 C 84.714844 99.03125 84.140625 99.367188 83.882812 99.546875 C 82.722656 100.34375 81.921875 100.457031 80.523438 100.015625 C 79.5 99.691406 79.335938 99.558594 78.445312 98.371094 C 77.21875 96.734375 77.320312 96.007812 78.726562 96.371094 C 79.867188 96.667969 80.3125 96.578125 81.222656 95.871094 C 82.605469 94.804688 82.546875 93.6875 80.933594 90.441406 C 79.96875 88.503906 79.820312 88.3125 79.265625 88.3125 C 79.046875 88.3125 78.59375 88.1875 78.257812 88.03125 C 76.449219 87.191406 70.867188 88.257812 69.140625 89.773438 C 68.101562 90.691406 68.339844 92.359375 69.765625 94.136719 C 72.703125 97.804688 72.839844 99.378906 70.382812 101.175781 C 69.386719 101.902344 68.976562 101.742188 69.378906 100.777344 C 69.894531 99.535156 69.453125 98.738281 68.5 99.191406 C 67.941406 99.457031 66.910156 101.53125 66.171875 103.863281 C 65.949219 104.574219 65.710938 104.746094 64.96875 104.746094 C 64.332031 104.746094 64.320312 104.75 63.941406 105.214844 C 63.53125 105.714844 63.296875 105.785156 62.847656 105.527344 C 62.183594 105.144531 61.871094 105.441406 61.757812 106.558594 C 61.660156 107.503906 61.34375 107.867188 60.613281 107.867188 C 60.351562 107.867188 59.933594 107.917969 59.6875 107.980469 C 59.328125 108.070312 59.167969 108.058594 58.851562 107.925781 C 57.964844 107.554688 57.898438 107.621094 57.171875 109.578125 C 56.320312 111.878906 55.101562 113.09375 54.339844 112.402344 C 54.089844 112.171875 53.941406 110.113281 54.140625 109.566406 C 54.34375 109.003906 54.183594 108.851562 53.378906 108.863281 C 52.222656 108.875 51.246094 109.578125 50.058594 111.257812 C 48.949219 112.824219 48.554688 113.058594 47.964844 112.507812 C 47.109375 111.714844 47.058594 110.414062 47.84375 109.382812 C 48.308594 108.773438 48.277344 108.589844 47.5625 107.800781 C 47.273438 107.480469 46.902344 106.917969 46.738281 106.554688 C 46.378906 105.746094 46.3125 105.714844 45.660156 106.046875 C 45.085938 106.339844 43.347656 106.335938 42.617188 106.039062 C 41.628906 105.636719 42.664062 104.230469 44.589844 103.351562 C 45.019531 103.15625 45.523438 102.859375 45.71875 102.691406 C 46.308594 102.179688 46.523438 102.109375 47.632812 102.089844 C 49.730469 102.050781 50.109375 101.257812 48.792969 99.675781 C 48.59375 99.441406 48.308594 98.933594 48.15625 98.546875 C 48 98.164062 47.691406 97.589844 47.464844 97.277344 C 46.378906 95.753906 47.574219 95.503906 49.804688 96.78125 C 50.628906 97.253906 50.863281 97.351562 51.699219 97.566406 C 52.289062 97.71875 52.703125 98.089844 53.082031 98.804688 C 53.621094 99.816406 54.085938 99.9375 56.496094 99.703125 C 59.785156 99.386719 61.074219 97.1875 59.195312 95.109375 C 58.226562 94.039062 58.175781 93.410156 59.0625 93.410156 C 59.472656 93.410156 59.515625 93.285156 59.1875 93.050781 C 59.027344 92.941406 58.714844 92.890625 58.183594 92.890625 C 57.757812 92.890625 57.023438 92.816406 56.550781 92.730469 C 55.546875 92.539062 55.320312 92.582031 54.003906 93.191406 C 51.390625 94.398438 49.84375 94.207031 48.363281 92.484375 C 47.199219 91.132812 47.027344 90.734375 47.445312 90.375 C 47.765625 90.101562 47.964844 90.082031 50.445312 90.070312 L 52.875 90.058594 L 53.277344 89.765625 C 53.5 89.605469 53.835938 89.257812 54.027344 88.992188 C 54.417969 88.449219 56.789062 86.199219 57.964844 85.261719 C 58.898438 84.515625 59.6875 84.140625 60.941406 83.84375 C 61.542969 83.703125 62.125 83.480469 62.566406 83.222656 C 63.46875 82.695312 63.707031 82.625 65.21875 82.433594 C 66.675781 82.253906 66.980469 82.148438 67.871094 81.519531 C 68.222656 81.273438 68.804688 80.890625 69.171875 80.671875 C 69.535156 80.453125 70.179688 79.964844 70.597656 79.585938 C 71.015625 79.210938 71.746094 78.667969 72.214844 78.382812 L 73.070312 77.863281 L 74.007812 77.863281 C 74.925781 77.863281 74.96875 77.871094 75.929688 78.363281 C 78.617188 79.746094 79.527344 79.78125 80.644531 78.535156 C 81.609375 77.460938 81.621094 77.222656 80.742188 76.253906 C 80.28125 75.738281 80.121094 75.46875 79.929688 74.847656 C 79.601562 73.773438 78.640625 72.804688 76.878906 71.757812 C 76.570312 71.578125 76.148438 71.238281 75.945312 71.011719 C 74.746094 69.671875 74.628906 69.617188 73.863281 70.003906 C 73.277344 70.304688 72.210938 70.449219 71.492188 70.328125 C 71.164062 70.269531 70.734375 70.195312 70.535156 70.164062 C 69.65625 70.015625 68.953125 70.695312 68.652344 71.976562 C 68.449219 72.859375 67.769531 74.359375 67.390625 74.765625 C 67.074219 75.105469 66.875 75.132812 66.3125 74.914062 C 65.363281 74.546875 64.839844 75.136719 64.394531 77.074219 C 64.140625 78.171875 63.941406 78.4375 63.148438 78.691406 C 62.839844 78.789062 62.421875 79 62.222656 79.15625 C 61.628906 79.621094 61.226562 79.785156 60.675781 79.785156 C 60.128906 79.785156 59.972656 79.882812 59.660156 80.410156 C 59.46875 80.734375 59.058594 80.929688 58.566406 80.929688 C 57.929688 80.929688 57.164062 81.601562 56.65625 82.617188 C 56.050781 83.820312 55.914062 83.898438 55.117188 83.511719 C 54.496094 83.210938 54.023438 83.347656 53.253906 84.050781 C 52.527344 84.714844 52.402344 84.714844 52.257812 84.03125 C 51.976562 82.71875 50.859375 82.984375 49.847656 84.605469 C 49.085938 85.828125 48.796875 85.945312 48.191406 85.289062 C 47.582031 84.625 47.46875 84.710938 46.785156 86.308594 C 46.210938 87.660156 44.105469 89.351562 42.992188 89.351562 C 41.8125 89.355469 41.6875 88.183594 42.695312 86.546875 C 43.089844 85.90625 43.140625 85.691406 43.003906 85.195312 C 42.628906 83.800781 41.277344 84.199219 40.722656 85.867188 C 40.34375 87 40.074219 87.226562 39.144531 87.199219 L 38.382812 87.171875 L 37.300781 87.902344 C 35.8125 88.902344 35.625 88.929688 35.148438 88.230469 C 34.492188 87.265625 34.789062 85.917969 35.878906 84.917969 C 36.652344 84.210938 36.628906 83.816406 35.757812 82.796875 C 35.171875 82.113281 34.539062 81.867188 33.34375 81.867188 C 32.167969 81.867188 31.890625 81.738281 31.890625 81.199219 C 31.890625 80.066406 33.488281 79.21875 36.78125 78.59375 C 38.4375 78.28125 38.679688 77.957031 38.726562 75.996094 L 38.761719 74.632812 L 38.390625 73.929688 C 37.363281 71.996094 39.050781 71.675781 41.292969 73.382812 C 41.691406 73.6875 42.207031 74.03125 42.433594 74.144531 C 43.097656 74.480469 43.230469 74.695312 43.316406 75.566406 C 43.453125 76.957031 44.421875 77.597656 46.402344 77.601562 C 48.242188 77.605469 52.96875 74.164062 54.5625 71.664062 C 54.878906 71.171875 55.351562 70.585938 55.613281 70.367188 C 56.15625 69.910156 56.230469 69.585938 55.882812 69.148438 C 55.125 68.179688 52.910156 68.820312 51.023438 70.546875 C 48.722656 72.65625 46.832031 73.4375 44.742188 73.144531 C 42.714844 72.859375 42.082031 72 41.992188 69.390625 C 41.910156 67 42.296875 66.519531 43.320312 67.734375 C 44.207031 68.789062 44.867188 68.917969 46.117188 68.273438 C 47.316406 67.65625 47.773438 66.925781 47.644531 65.828125 C 47.507812 64.664062 47.058594 64.371094 45.824219 64.636719 C 44.230469 64.980469 43.28125 64.769531 42.976562 64.003906 C 42.75 63.433594 42.292969 63.085938 41.449219 62.835938 C 40.894531 62.667969 40.550781 62.472656 39.910156 61.953125 C 38.460938 60.78125 38.316406 60.375 39.070312 59.554688 L 39.5 59.089844 L 39.269531 58.476562 C 38.929688 57.5625 39.121094 57.34375 40.4375 57.160156 C 42.226562 56.90625 41.574219 55.449219 39.339844 54.722656 C 37.488281 54.121094 37.507812 52.941406 39.367188 53.101562 C 40.46875 53.199219 40.929688 52.894531 40.929688 52.0625 C 40.929688 51.210938 40.367188 50.941406 39.386719 51.328125 C 38.457031 51.691406 38.15625 51.679688 37.519531 51.238281 C 37.144531 50.980469 36.800781 50.847656 36.316406 50.769531 C 35.117188 50.578125 34.496094 50.207031 34.167969 49.480469 C 33.800781 48.671875 34.050781 48.273438 35.058594 48.066406 C 35.53125 47.964844 35.765625 47.84375 36.140625 47.496094 C 36.402344 47.253906 36.828125 46.925781 37.085938 46.765625 C 38.449219 45.929688 38.484375 45.53125 37.25 44.941406 C 36.015625 44.355469 35.539062 43.730469 35.339844 42.441406 C 35.28125 42.066406 35.089844 41.441406 34.914062 41.050781 C 34.125 39.3125 34.738281 38.910156 36.75 39.835938 C 37.511719 40.1875 37.785156 40.265625 38.304688 40.265625 C 38.757812 40.265625 39.089844 40.335938 39.488281 40.523438 C 40.789062 41.128906 41.410156 40.4375 40.621094 39.257812 C 40.140625 38.535156 40.101562 38.222656 40.410156 37.527344 C 40.527344 37.265625 40.671875 36.78125 40.730469 36.449219 C 40.929688 35.355469 41.355469 35.113281 42.261719 35.578125 C 43.179688 36.042969 44.570312 38.066406 44.917969 39.429688 C 45.257812 40.761719 46.132812 41.152344 46.5 40.136719 C 46.679688 39.636719 46.746094 39.566406 47.367188 39.246094 C 48.1875 38.824219 48.414062 38.621094 48.941406 37.847656 C 49.953125 36.363281 50.769531 37.105469 50.921875 39.640625 C 50.96875 40.414062 51.035156 41.269531 51.066406 41.539062 C 51.15625 42.261719 51.074219 42.464844 50.371094 43.25 C 48.6875 45.136719 48.816406 48.382812 50.699219 51.625 C 51.753906 53.441406 52.949219 54.277344 54.035156 53.949219 C 54.789062 53.722656 54.859375 53.652344 55.34375 52.636719 C 56.472656 50.265625 57.652344 50.144531 59.730469 52.179688 C 60.949219 53.375 61.761719 53.660156 62.8125 53.257812 C 64.355469 52.671875 60.441406 49.660156 57.320312 49.039062 C 55.859375 48.75 55.441406 48.539062 54.660156 47.710938 C 52.65625 45.59375 53.035156 42.746094 55.417969 42.003906 C 58.230469 41.128906 60.039062 42.789062 59.320312 45.597656 C 58.992188 46.882812 59.066406 47.011719 61.152344 48.703125 C 62.617188 49.886719 63.253906 50.503906 63.898438 51.355469 C 64.652344 52.347656 65.402344 52.191406 66.03125 50.902344 C 66.769531 49.386719 65.992188 47.707031 64.140625 46.808594 C 63.105469 46.308594 63.0625 46.214844 63.457031 45.351562 C 63.710938 44.789062 63.773438 44.496094 63.828125 43.515625 L 63.894531 42.34375 L 63.519531 41.507812 C 62.789062 39.890625 63.148438 39.355469 65.378906 38.710938 C 66 38.53125 66.851562 38.226562 67.269531 38.035156 C 68.675781 37.382812 68.824219 37.421875 69.039062 38.457031 C 69.117188 38.851562 69.300781 39.4375 69.441406 39.757812 C 69.757812 40.464844 69.761719 40.625 69.496094 41.304688 C 68.953125 42.675781 69.304688 43.171875 70.898438 43.296875 C 71.410156 43.335938 72.234375 43.402344 72.726562 43.441406 C 74.796875 43.613281 74.441406 41.671875 72.195312 40.554688 C 71.085938 40 70.734375 39.65625 70.421875 38.8125 C 70.300781 38.496094 70.058594 37.96875 69.878906 37.644531 C 69.507812 36.960938 69.542969 36.644531 70.046875 36.269531 C 70.332031 36.058594 70.480469 36.050781 74.773438 35.992188 C 78.484375 35.941406 79.300781 35.902344 79.777344 35.757812 C 80.976562 35.398438 81.746094 35.578125 81.917969 36.257812 C 81.972656 36.480469 82.039062 36.519531 82.386719 36.519531 C 83.621094 36.519531 84.019531 39.09375 83.113281 41.214844 C 82.660156 42.273438 82.613281 42.53125 82.804688 42.898438 C 83.082031 43.421875 83.378906 43.402344 84.164062 42.8125 C 84.867188 42.28125 85.132812 42.234375 85.300781 42.597656 C 85.597656 43.253906 85.058594 44.140625 83.835938 45 C 82.484375 45.945312 82.273438 46.359375 82.273438 48.042969 C 82.273438 49.382812 82.570312 49.976562 83.300781 50.101562 C 84.53125 50.308594 84.589844 50.363281 84.757812 51.394531 C 84.957031 52.632812 86.046875 54.152344 86.5625 53.917969 C 87.484375 53.496094 88.652344 48.566406 89.128906 43.074219 C 89.421875 39.703125 90.332031 38 92.90625 35.984375 C 93.425781 35.574219 94.089844 35.019531 94.378906 34.75 C 95.71875 33.5 98.191406 33.113281 101.050781 33.710938 M 101.882812 39.980469 C 99.746094 40.691406 99.226562 43.039062 101.003906 43.957031 C 101.742188 44.339844 101.855469 44.507812 101.664062 44.96875 C 101.335938 45.75 100.1875 46.46875 98.804688 46.761719 C 97.355469 47.066406 97.394531 46.992188 97.382812 49.558594 C 97.375 51.953125 97.28125 52.429688 96.453125 54.386719 C 95.757812 56.023438 95.554688 56.394531 95.277344 56.523438 C 94.679688 56.792969 94.597656 55.921875 95.121094 54.894531 C 95.320312 54.5 95.40625 54.148438 95.441406 53.574219 C 95.621094 50.582031 94.132812 50.375 92.886719 53.21875 C 92.609375 53.84375 92.097656 54.832031 91.746094 55.417969 C 90.957031 56.722656 90.820312 57.050781 90.425781 58.621094 C 90.070312 60.046875 89.933594 60.179688 89.496094 59.535156 C 89.121094 58.988281 88.816406 57.9375 88.816406 57.203125 C 88.816406 55.503906 87.800781 55.023438 86.039062 55.886719 C 85.179688 56.3125 85.109375 56.328125 84.140625 56.332031 C 82.800781 56.335938 82.394531 56.679688 83.070312 57.242188 C 83.832031 57.886719 83.902344 58.136719 83.460938 58.660156 C 83.117188 59.070312 82.652344 59.15625 81.726562 58.980469 C 80.183594 58.6875 80.167969 59.484375 81.691406 60.777344 C 82.117188 61.136719 83.34375 62.175781 84.417969 63.089844 C 89.582031 67.472656 92.0625 70.570312 95.050781 76.375 C 96 78.21875 96.109375 78.382812 97.140625 79.496094 C 97.734375 80.140625 98.652344 81.164062 99.171875 81.769531 C 101.507812 84.476562 102.324219 84.835938 104.382812 84.058594 C 106.394531 83.300781 106.933594 82.71875 106.9375 81.292969 C 106.945312 79.832031 106.308594 78.917969 102.785156 75.308594 C 98.859375 71.289062 97.46875 68.902344 97.355469 65.988281 C 97.210938 62.226562 98.363281 59.410156 102.320312 53.835938 C 106.828125 47.488281 108.207031 44.050781 107.15625 41.753906 C 106.851562 41.09375 106.484375 40.84375 105.578125 40.6875 C 105.214844 40.621094 104.574219 40.433594 104.152344 40.265625 C 103.257812 39.90625 102.425781 39.800781 101.882812 39.980469 M 114.109375 47.316406 C 114.003906 47.890625 113.75 48.210938 113.730469 47.800781 C 113.703125 47.328125 113.738281 47.105469 113.863281 46.957031 C 114.054688 46.726562 114.1875 46.917969 114.109375 47.316406 M 64.398438 65.179688 C 64.25 65.257812 63.679688 65.355469 63.125 65.394531 C 62 65.472656 62.015625 65.460938 62.390625 66.015625 C 62.996094 66.902344 63.394531 66.921875 64.164062 66.089844 C 64.820312 65.386719 64.839844 65.398438 64.988281 66.59375 C 65.160156 67.984375 65.71875 68.363281 66.273438 67.464844 C 66.824219 66.574219 66.753906 66.324219 65.816406 65.796875 C 65.445312 65.589844 65.132812 65.339844 65.101562 65.222656 C 65.039062 64.988281 64.789062 64.972656 64.398438 65.179688 M 59.484375 70.511719 C 59.242188 70.78125 59.269531 71.214844 59.546875 71.40625 C 60.125 71.816406 61.226562 71.347656 61.011719 70.785156 C 60.847656 70.355469 59.796875 70.167969 59.484375 70.511719 M 62.511719 90.863281 C 61.359375 91.285156 61.230469 91.4375 61.585938 91.9375 C 61.695312 92.089844 61.855469 92.390625 61.945312 92.605469 C 62.339844 93.550781 63.882812 92.640625 63.886719 91.460938 C 63.886719 90.792969 63.34375 90.558594 62.511719 90.863281 M 89.949219 93.867188 C 89.527344 94.15625 89.023438 94.777344 89.023438 95.011719 C 89.023438 95.160156 89.1875 95.226562 90.089844 95.445312 C 90.988281 95.660156 91.609375 94.53125 90.949219 93.875 C 90.628906 93.554688 90.414062 93.550781 89.949219 93.867188 M 87.835938 112.257812 C 87.46875 112.78125 87.742188 113.292969 88.296875 113.117188 C 88.644531 113.007812 88.457031 112.027344 88.089844 112.027344 C 88.039062 112.027344 87.921875 112.128906 87.835938 112.257812 "/>
</g>
</svg>
