<?xml version="1.0" encoding="UTF-8"?>
<svg xmlns="http://www.w3.org/2000/svg" xmlns:xlink="http://www.w3.org/1999/xlink" width="150px" height="150px" viewBox="0 0 150 150" version="1.1">
<g id="surface1">
<path style=" stroke:none;fill-rule:evenodd;fill:rgb(94.901961%,82.745099%,8.235294%);fill-opacity:1;" d="M 49.179688 42.308594 C 48.605469 42.613281 48.253906 43.207031 48.1875 43.972656 C 48.105469 44.957031 47.945312 45.058594 47.121094 44.683594 C 45.46875 43.929688 43.941406 45.363281 44.8125 46.855469 C 45.09375 47.335938 45.878906 48.105469 46.675781 48.679688 C 47.339844 49.160156 47.535156 49.460938 47.554688 50.015625 C 47.605469 51.636719 47.40625 66.441406 47.328125 66.761719 C 47.214844 67.210938 45.898438 68.71875 45.367188 69.015625 C 45.070312 69.179688 44.53125 69.191406 38.292969 69.191406 C 30.472656 69.191406 31.265625 69.3125 30.335938 67.976562 C 29.144531 66.273438 28.332031 65.789062 27.445312 66.25 C 26.515625 66.730469 26.300781 67.558594 26.800781 68.703125 C 27.238281 69.707031 27.160156 69.859375 26.179688 69.941406 C 23.585938 70.160156 23.703125 73.808594 26.304688 73.808594 C 27.023438 73.808594 27.175781 74.171875 26.792969 74.933594 C 26.332031 75.832031 26.5 76.796875 27.195312 77.296875 C 28.148438 77.972656 29.191406 77.402344 30.476562 75.496094 C 31.21875 74.386719 31.238281 74.382812 33.871094 74.457031 C 36.78125 74.542969 37.332031 74.960938 36.648438 76.558594 C 36.554688 76.765625 36.371094 77.257812 36.238281 77.648438 C 36.105469 78.035156 35.511719 79.214844 34.921875 80.269531 C 34.328125 81.324219 33.84375 82.257812 33.84375 82.347656 C 33.84375 83.117188 34.976562 83.113281 35.300781 82.34375 C 35.609375 81.613281 35.824219 81.566406 36.707031 82.027344 L 37.324219 82.355469 L 37.9375 82.027344 C 38.828125 81.558594 39.054688 81.613281 39.359375 82.390625 C 39.519531 82.800781 39.960938 83.003906 40.417969 82.867188 C 40.851562 82.738281 40.855469 82.273438 40.421875 81.550781 C 39.691406 80.328125 38.640625 78.324219 38.460938 77.808594 C 38.351562 77.496094 38.144531 77.035156 38 76.78125 C 37.609375 76.105469 37.621094 75.339844 38.03125 74.929688 L 38.328125 74.628906 L 41.660156 74.628906 C 44.230469 74.628906 45.070312 74.660156 45.324219 74.769531 C 45.6875 74.921875 46.996094 76.257812 47.125 76.613281 C 47.265625 76.984375 47.082031 102.011719 46.941406 102.367188 C 46.875 102.535156 46.386719 103.117188 45.863281 103.660156 C 44.503906 105.0625 44.230469 105.734375 44.636719 106.707031 C 45.089844 107.792969 46.183594 108.230469 47.425781 107.8125 C 48.027344 107.613281 48.386719 107.632812 49.40625 107.917969 C 50.085938 108.109375 50.089844 108.109375 50.863281 107.878906 C 51.773438 107.613281 52.222656 107.597656 52.738281 107.816406 C 54.089844 108.394531 55.722656 107.308594 55.726562 105.824219 C 55.726562 105.378906 55.410156 104.902344 54.390625 103.824219 C 53.066406 102.425781 53.171875 102.984375 53.171875 97.261719 C 53.171875 94.542969 53.101562 90.613281 53.015625 88.527344 C 52.757812 81.859375 52.761719 76.910156 53.039062 76.476562 C 54.097656 74.777344 54.519531 74.628906 58.386719 74.628906 C 62.632812 74.628906 62.960938 74.828125 62.320312 76.945312 C 62.238281 77.222656 62.167969 77.84375 62.167969 78.328125 C 62.167969 79.921875 61.683594 80.828125 60.839844 80.828125 C 59.828125 80.828125 59.355469 79.617188 59.804688 78.175781 C 60.09375 77.242188 59.734375 76.746094 59.160156 77.289062 C 58.890625 77.542969 58.71875 79.789062 58.910156 80.6875 C 59.199219 82.082031 60.679688 82.675781 62 81.929688 C 62.703125 81.527344 62.839844 81.527344 63.578125 81.898438 C 64.921875 82.578125 66.007812 82.292969 66.578125 81.117188 C 67.011719 80.21875 66.863281 77.460938 66.359375 77.195312 C 65.789062 76.886719 65.558594 77.324219 65.847656 78.164062 C 66.402344 79.785156 65.570312 81.246094 64.375 80.742188 C 63.777344 80.488281 63.496094 79.773438 63.496094 78.476562 C 63.492188 77.902344 63.425781 77.203125 63.34375 76.882812 C 62.8125 74.902344 63.207031 74.574219 66.261719 74.46875 C 68.9375 74.378906 68.863281 74.351562 69.777344 75.746094 C 70.789062 77.285156 71.570312 77.792969 72.503906 77.511719 C 73.386719 77.246094 73.785156 76.03125 73.324219 74.988281 C 72.917969 74.066406 73.035156 73.878906 74.0625 73.777344 C 76.519531 73.539062 76.433594 70.214844 73.96875 69.9375 C 73.09375 69.839844 72.988281 69.699219 73.257812 69.019531 C 73.65625 68.015625 73.601562 67.15625 73.097656 66.585938 C 72.234375 65.597656 71.109375 66.066406 69.777344 67.964844 C 68.855469 69.285156 69.839844 69.140625 61.78125 69.140625 L 54.773438 69.140625 L 53.914062 68.21875 C 53.441406 67.714844 52.976562 67.160156 52.886719 66.988281 C 52.707031 66.65625 52.59375 62.40625 52.535156 53.65625 C 52.503906 48.960938 52.410156 49.40625 53.535156 48.566406 C 54.519531 47.832031 55.09375 47.265625 55.335938 46.789062 C 56.082031 45.34375 54.65625 43.988281 53.121094 44.667969 C 52.179688 45.089844 51.988281 44.964844 51.84375 43.859375 C 51.660156 42.378906 50.410156 41.652344 49.179688 42.308594 M 37.734375 79.132812 C 38.28125 79.679688 38.023438 80.578125 37.324219 80.578125 C 36.617188 80.578125 36.359375 79.679688 36.902344 79.132812 C 37.066406 78.96875 37.257812 78.835938 37.324219 78.835938 C 37.386719 78.835938 37.574219 78.96875 37.734375 79.132812 "/>
<path style=" stroke:none;fill-rule:evenodd;fill:rgb(1.568628%,38.82353%,98.431373%);fill-opacity:1;" d="M 3.152344 27.503906 C 2.632812 27.789062 2.660156 25.453125 2.660156 74.957031 C 2.660156 125.808594 2.613281 122.148438 3.234375 122.40625 C 3.460938 122.496094 20.171875 122.519531 74.832031 122.5 L 146.128906 122.472656 L 146.625 121.898438 L 146.625 27.976562 L 146.128906 27.402344 L 74.78125 27.378906 C 12.898438 27.363281 3.390625 27.378906 3.152344 27.503906 M 51.023438 42.347656 C 51.566406 42.722656 51.742188 43.042969 51.84375 43.859375 C 51.988281 44.964844 52.179688 45.089844 53.121094 44.667969 C 54.65625 43.988281 56.082031 45.34375 55.335938 46.789062 C 55.09375 47.265625 54.519531 47.832031 53.535156 48.566406 C 52.410156 49.40625 52.503906 48.960938 52.535156 53.65625 C 52.59375 62.40625 52.707031 66.65625 52.886719 66.988281 C 52.976562 67.160156 53.441406 67.714844 53.914062 68.21875 L 54.773438 69.140625 L 61.78125 69.140625 C 69.839844 69.140625 68.855469 69.285156 69.777344 67.964844 C 71.109375 66.066406 72.234375 65.597656 73.097656 66.585938 C 73.601562 67.15625 73.65625 68.015625 73.257812 69.019531 C 72.988281 69.699219 73.09375 69.839844 73.96875 69.9375 C 76.433594 70.214844 76.519531 73.539062 74.0625 73.777344 C 73.035156 73.878906 72.917969 74.066406 73.324219 74.988281 C 73.785156 76.03125 73.386719 77.246094 72.503906 77.511719 C 71.570312 77.792969 70.789062 77.285156 69.777344 75.746094 C 68.863281 74.351562 68.9375 74.378906 66.261719 74.46875 C 63.207031 74.574219 62.8125 74.902344 63.34375 76.882812 C 63.425781 77.203125 63.492188 77.902344 63.496094 78.476562 C 63.496094 79.773438 63.777344 80.488281 64.375 80.742188 C 65.570312 81.246094 66.402344 79.785156 65.847656 78.164062 C 65.558594 77.324219 65.789062 76.886719 66.359375 77.195312 C 66.863281 77.460938 67.011719 80.21875 66.578125 81.117188 C 66.007812 82.292969 64.921875 82.578125 63.578125 81.898438 C 62.839844 81.527344 62.703125 81.527344 62 81.929688 C 60.679688 82.675781 59.199219 82.082031 58.910156 80.6875 C 58.71875 79.789062 58.890625 77.542969 59.160156 77.289062 C 59.734375 76.746094 60.09375 77.242188 59.804688 78.175781 C 59.355469 79.617188 59.828125 80.828125 60.839844 80.828125 C 61.683594 80.828125 62.167969 79.921875 62.167969 78.328125 C 62.167969 77.84375 62.238281 77.222656 62.320312 76.945312 C 62.960938 74.828125 62.632812 74.628906 58.386719 74.628906 C 54.519531 74.628906 54.097656 74.777344 53.039062 76.476562 C 52.761719 76.910156 52.757812 81.859375 53.015625 88.527344 C 53.101562 90.613281 53.171875 94.542969 53.171875 97.261719 C 53.171875 102.984375 53.066406 102.425781 54.390625 103.824219 C 55.410156 104.902344 55.726562 105.378906 55.726562 105.824219 C 55.722656 107.308594 54.089844 108.394531 52.738281 107.816406 C 52.222656 107.597656 51.773438 107.613281 50.863281 107.878906 C 50.089844 108.109375 50.085938 108.109375 49.40625 107.917969 C 48.386719 107.632812 48.027344 107.613281 47.425781 107.8125 C 46.183594 108.230469 45.089844 107.792969 44.636719 106.707031 C 44.230469 105.734375 44.503906 105.0625 45.863281 103.660156 C 46.386719 103.117188 46.875 102.535156 46.941406 102.367188 C 47.082031 102.011719 47.265625 76.984375 47.125 76.613281 C 46.996094 76.257812 45.6875 74.921875 45.324219 74.769531 C 45.070312 74.660156 44.230469 74.628906 41.660156 74.628906 L 38.328125 74.628906 L 38.03125 74.929688 C 37.621094 75.339844 37.609375 76.105469 38 76.78125 C 38.144531 77.035156 38.351562 77.496094 38.460938 77.808594 C 38.640625 78.324219 39.691406 80.328125 40.421875 81.550781 C 40.855469 82.273438 40.851562 82.738281 40.417969 82.867188 C 39.960938 83.003906 39.519531 82.800781 39.359375 82.390625 C 39.054688 81.613281 38.828125 81.558594 37.9375 82.027344 L 37.324219 82.355469 L 36.707031 82.027344 C 35.824219 81.566406 35.609375 81.613281 35.300781 82.34375 C 34.976562 83.113281 33.84375 83.117188 33.84375 82.347656 C 33.84375 82.257812 34.328125 81.324219 34.921875 80.269531 C 35.511719 79.214844 36.105469 78.035156 36.238281 77.648438 C 36.371094 77.257812 36.554688 76.765625 36.648438 76.558594 C 37.332031 74.960938 36.78125 74.542969 33.871094 74.457031 C 31.238281 74.382812 31.21875 74.386719 30.476562 75.496094 C 29.191406 77.402344 28.148438 77.972656 27.195312 77.296875 C 26.5 76.796875 26.332031 75.832031 26.792969 74.933594 C 27.175781 74.171875 27.023438 73.808594 26.304688 73.808594 C 23.703125 73.808594 23.585938 70.160156 26.179688 69.941406 C 27.160156 69.859375 27.238281 69.707031 26.800781 68.703125 C 26.300781 67.558594 26.515625 66.730469 27.445312 66.25 C 28.332031 65.789062 29.144531 66.273438 30.335938 67.976562 C 31.265625 69.3125 30.472656 69.191406 38.292969 69.191406 C 44.53125 69.191406 45.070312 69.179688 45.367188 69.015625 C 45.898438 68.71875 47.214844 67.210938 47.328125 66.761719 C 47.40625 66.441406 47.605469 51.636719 47.554688 50.015625 C 47.535156 49.460938 47.339844 49.160156 46.675781 48.679688 C 45.878906 48.105469 45.09375 47.335938 44.8125 46.855469 C 43.941406 45.363281 45.46875 43.929688 47.121094 44.683594 C 47.945312 45.058594 48.105469 44.957031 48.1875 43.972656 C 48.316406 42.46875 49.882812 41.570312 51.023438 42.347656 M 36.902344 79.132812 C 36.359375 79.679688 36.617188 80.578125 37.324219 80.578125 C 38.023438 80.578125 38.28125 79.679688 37.734375 79.132812 C 37.574219 78.96875 37.386719 78.835938 37.324219 78.835938 C 37.257812 78.835938 37.066406 78.96875 36.902344 79.132812 "/>
<path style=" stroke:none;fill-rule:evenodd;fill:rgb(1.568628%,1.568628%,1.568628%);fill-opacity:1;" d="M 0 74.9375 L 0 126.214844 L 150 126.214844 L 150 23.65625 L 0 23.65625 L 0 74.9375 M 146.378906 27.6875 L 146.625 27.976562 L 146.625 121.898438 L 146.128906 122.472656 L 74.832031 122.5 C 20.171875 122.519531 3.460938 122.496094 3.234375 122.40625 C 2.613281 122.148438 2.660156 125.808594 2.660156 74.957031 C 2.660156 25.453125 2.632812 27.789062 3.152344 27.503906 C 3.390625 27.378906 12.898438 27.363281 74.78125 27.378906 L 146.128906 27.402344 L 146.378906 27.6875 "/>
</g>
</svg>
