<?xml version="1.0" encoding="UTF-8"?>
<svg xmlns="http://www.w3.org/2000/svg" xmlns:xlink="http://www.w3.org/1999/xlink" width="150px" height="150px" viewBox="0 0 150 75" version="1.1">
<defs>
<clipPath id="clip1">
  <path d="M 0 0 L 75 0 L 75 37.5 L 0 37.5 Z M 0 0 "/>
</clipPath>
<clipPath id="clip2">
  <path d="M 0 0 L 75 0 L 75 38 L 0 38 Z M 0 0 "/>
</clipPath>
<clipPath id="clip3">
  <path d="M 0 0 L 0 18.75 L 75 18.75 L 75 37.5 Z M 75 0 L 37.5 0 L 37.5 37.5 L 0 37.5 Z M 75 0 "/>
</clipPath>
</defs>
<g id="surface1">
<rect x="0" y="0" width="150" height="75" style="fill:rgb(0.392157%,12.941177%,41.176471%);fill-opacity:1;stroke:none;"/>
<g clip-path="url(#clip1)" clip-rule="nonzero">
<path style="fill-rule:nonzero;fill:rgb(0%,0%,0%);fill-opacity:1;stroke-width:0.6;stroke-linecap:butt;stroke-linejoin:miter;stroke:rgb(100%,100%,100%);stroke-opacity:1;stroke-miterlimit:4;" d="M 0 0 L 6 3 M 6 0 L 0 3 " transform="matrix(12.5,0,0,12.5,0,0)"/>
</g>
<g clip-path="url(#clip2)" clip-rule="nonzero">
<g clip-path="url(#clip3)" clip-rule="nonzero">
<path style="fill-rule:nonzero;fill:rgb(0%,0%,0%);fill-opacity:1;stroke-width:0.4;stroke-linecap:butt;stroke-linejoin:miter;stroke:rgb(89.411765%,0%,16.862746%);stroke-opacity:1;stroke-miterlimit:4;" d="M 0 0 L 6 3 M 6 0 L 0 3 " transform="matrix(12.5,0,0,12.5,0,0)"/>
</g>
</g>
<path style="fill-rule:nonzero;fill:rgb(0%,0%,0%);fill-opacity:1;stroke-width:1;stroke-linecap:butt;stroke-linejoin:miter;stroke:rgb(100%,100%,100%);stroke-opacity:1;stroke-miterlimit:4;" d="M 3 0 L 3 3 M 0 1.5 L 6 1.5 " transform="matrix(12.5,0,0,12.5,0,0)"/>
<path style="fill-rule:nonzero;fill:rgb(0%,0%,0%);fill-opacity:1;stroke-width:0.6;stroke-linecap:butt;stroke-linejoin:miter;stroke:rgb(89.411765%,0%,16.862746%);stroke-opacity:1;stroke-miterlimit:4;" d="M 3 0 L 3 3 M 0 1.5 L 6 1.5 " transform="matrix(12.5,0,0,12.5,0,0)"/>
<path style=" stroke:none;fill-rule:nonzero;fill:rgb(100%,100%,100%);fill-opacity:1;" d="M 112.5 57.953125 L 113.710938 61.363281 L 112.5 64.773438 L 111.289062 61.363281 Z M 112.5 57.953125 "/>
<path style=" stroke:none;fill-rule:nonzero;fill:rgb(100%,100%,100%);fill-opacity:1;" d="M 115.910156 61.363281 L 112.5 62.574219 L 109.089844 61.363281 L 112.5 60.152344 Z M 115.910156 61.363281 "/>
<path style=" stroke:none;fill-rule:nonzero;fill:rgb(100%,100%,100%);fill-opacity:1;" d="M 114.910156 58.953125 L 113.355469 62.222656 L 110.089844 63.773438 L 111.644531 60.507812 Z M 114.910156 58.953125 "/>
<path style=" stroke:none;fill-rule:nonzero;fill:rgb(100%,100%,100%);fill-opacity:1;" d="M 114.910156 63.773438 L 111.644531 62.222656 L 110.089844 58.953125 L 113.355469 60.507812 Z M 114.910156 63.773438 "/>
<path style=" stroke:none;fill-rule:nonzero;fill:rgb(100%,100%,100%);fill-opacity:1;" d="M 100.960938 43.75 L 101.640625 45.46875 L 103.40625 44.925781 L 102.484375 46.527344 L 104.007812 47.570312 L 102.183594 47.847656 L 102.316406 49.691406 L 100.960938 48.4375 L 99.605469 49.691406 L 99.738281 47.847656 L 97.914062 47.570312 L 99.4375 46.527344 L 98.519531 44.925781 L 100.285156 45.46875 Z M 100.960938 43.75 "/>
<path style=" stroke:none;fill-rule:nonzero;fill:rgb(100%,100%,100%);fill-opacity:1;" d="M 112.5 31.25 L 113.179688 32.96875 L 114.941406 32.425781 L 114.023438 34.027344 L 115.546875 35.070312 L 113.722656 35.347656 L 113.855469 37.191406 L 112.5 35.9375 L 111.144531 37.191406 L 111.277344 35.347656 L 109.453125 35.070312 L 110.976562 34.027344 L 110.058594 32.425781 L 111.820312 32.96875 Z M 112.5 31.25 "/>
<path style=" stroke:none;fill-rule:nonzero;fill:rgb(100%,100%,100%);fill-opacity:1;" d="M 123.214844 41.070312 L 124.433594 43.75 L 123.214844 46.429688 L 121.996094 43.75 Z M 123.214844 41.070312 "/>
<path style=" stroke:none;fill-rule:nonzero;fill:rgb(100%,100%,100%);fill-opacity:1;" d="M 125.535156 42.410156 L 123.824219 44.804688 L 120.894531 45.089844 L 122.605469 42.695312 Z M 125.535156 42.410156 "/>
<path style=" stroke:none;fill-rule:nonzero;fill:rgb(100%,100%,100%);fill-opacity:1;" d="M 125.535156 45.089844 L 122.605469 44.804688 L 120.894531 42.410156 L 123.824219 42.695312 Z M 125.535156 45.089844 "/>
<path style=" stroke:none;fill-rule:nonzero;fill:rgb(100%,100%,100%);fill-opacity:1;" d="M 117.1875 48.125 L 117.738281 49.242188 L 118.972656 49.421875 L 118.078125 50.289062 L 118.289062 51.515625 L 117.1875 50.9375 L 116.085938 51.515625 L 116.296875 50.289062 L 115.402344 49.421875 L 116.636719 49.242188 Z M 117.1875 48.125 "/>
<path style=" stroke:none;fill-rule:nonzero;fill:rgb(100%,100%,100%);fill-opacity:1;" d="M 111.710938 22.902344 C 110.886719 22.914062 110.0625 22.929688 109.246094 22.984375 C 108.640625 23.035156 107.953125 23.089844 107.367188 23.179688 L 107.21875 23.210938 C 106.847656 23.285156 106.796875 23.761719 106.992188 24.019531 C 107.386719 24.554688 109.730469 24.96875 112.5 24.96875 C 115.269531 24.96875 117.613281 24.554688 118.007812 24.019531 C 118.203125 23.761719 118.152344 23.285156 117.78125 23.210938 L 117.632812 23.179688 C 117.050781 23.089844 116.359375 23.035156 115.753906 22.984375 C 114.9375 22.929688 114.113281 22.914062 113.289062 22.902344 Z M 111.710938 22.902344 "/>
<path style=" stroke:none;fill-rule:nonzero;fill:rgb(0%,0%,0%);fill-opacity:1;" d="M 113.050781 23.410156 C 112.84375 23.375 112.65625 23.332031 112.480469 23.28125 C 112.324219 23.238281 112.175781 23.1875 112.035156 23.136719 C 112.078125 23.210938 112.136719 23.28125 112.289062 23.339844 C 112.167969 23.335938 112.007812 23.382812 111.949219 23.410156 C 112.007812 23.4375 112.175781 23.484375 112.292969 23.480469 C 112.148438 23.539062 112.09375 23.609375 112.058594 23.683594 C 112.1875 23.636719 112.324219 23.589844 112.464844 23.546875 C 112.648438 23.496094 112.839844 23.449219 113.050781 23.410156 Z M 110.894531 23.421875 C 110.691406 23.394531 110.503906 23.355469 110.324219 23.308594 C 110.167969 23.273438 110.015625 23.226562 109.878906 23.175781 C 109.917969 23.25 109.980469 23.320312 110.132812 23.375 C 110.011719 23.375 109.855469 23.429688 109.800781 23.457031 C 109.859375 23.480469 110.023438 23.523438 110.144531 23.515625 C 110 23.574219 109.945312 23.652344 109.914062 23.726562 C 110.039062 23.671875 110.171875 23.621094 110.316406 23.574219 C 110.496094 23.515625 110.6875 23.46875 110.894531 23.421875 Z M 108.757812 23.535156 C 108.554688 23.519531 108.359375 23.496094 108.175781 23.464844 C 108.019531 23.4375 107.867188 23.40625 107.722656 23.367188 C 107.769531 23.4375 107.835938 23.503906 107.992188 23.539062 C 107.871094 23.550781 107.71875 23.617188 107.664062 23.648438 C 107.726562 23.667969 107.890625 23.699219 108.011719 23.683594 C 107.871094 23.753906 107.824219 23.835938 107.796875 23.910156 C 107.921875 23.847656 108.050781 23.785156 108.191406 23.730469 C 108.367188 23.65625 108.554688 23.589844 108.757812 23.535156 Z M 115.203125 23.457031 C 115 23.488281 114.808594 23.523438 114.628906 23.570312 C 114.46875 23.605469 114.320312 23.652344 114.183594 23.707031 C 114.222656 23.632812 114.285156 23.558594 114.4375 23.507812 C 114.316406 23.507812 114.160156 23.453125 114.105469 23.425781 C 114.164062 23.402344 114.328125 23.359375 114.449219 23.363281 C 114.304688 23.304688 114.25 23.230469 114.222656 23.152344 C 114.347656 23.210938 114.480469 23.257812 114.625 23.308594 C 114.800781 23.363281 114.992188 23.414062 115.203125 23.457031 Z M 117.335938 23.648438 C 117.128906 23.664062 116.9375 23.683594 116.757812 23.714844 C 116.597656 23.742188 116.445312 23.777344 116.300781 23.816406 C 116.347656 23.746094 116.417969 23.679688 116.574219 23.640625 C 116.449219 23.632812 116.296875 23.566406 116.242188 23.535156 C 116.304688 23.511719 116.46875 23.480469 116.59375 23.5 C 116.453125 23.429688 116.402344 23.347656 116.375 23.273438 C 116.496094 23.335938 116.628906 23.394531 116.765625 23.453125 C 116.941406 23.523438 117.128906 23.589844 117.335938 23.648438 Z M 117.335938 23.648438 "/>
<path style=" stroke:none;fill-rule:nonzero;fill:rgb(80.000001%,80.000001%,80.000001%);fill-opacity:1;" d="M 112.5 23.914062 C 109.199219 23.914062 107.199219 24.121094 107.363281 24.277344 C 108.523438 24.796875 110.800781 24.964844 112.5 24.96875 C 114.199219 24.964844 116.480469 24.796875 117.636719 24.277344 C 117.800781 24.121094 115.800781 23.914062 112.5 23.914062 Z M 112.5 23.914062 "/>
<path style="fill:none;stroke-width:0.616;stroke-linecap:butt;stroke-linejoin:miter;stroke:rgb(0%,0%,0%);stroke-opacity:1;stroke-miterlimit:4;" d="M 1143.510231 822.718923 C 1143.851666 821.846988 1142.443246 821.609188 1140.949467 821.450654 C 1135.14507 820.697619 1128.743161 820.182385 1123.024123 819.78605 C 1114.10413 819.191549 1105.098778 819.033015 1096.093427 818.914115 L 1078.850952 818.914115 C 1069.845601 819.033015 1060.840249 819.191549 1051.920256 819.78605 C 1046.201218 820.182385 1039.799309 820.697619 1033.994912 821.450654 C 1032.501133 821.609188 1031.092713 821.846988 1031.434148 822.718923 " transform="matrix(0.0915254,0,0,0.0985595,12.968632,-56.797704)"/>
<path style="fill:none;stroke-width:0.616;stroke-linecap:butt;stroke-linejoin:miter;stroke:rgb(0%,0%,0%);stroke-opacity:1;stroke-miterlimit:4;" d="M 1078.850952 808.64906 C 1069.845601 808.76796 1060.840249 808.926494 1051.920256 809.481361 C 1045.304951 809.996596 1037.793378 810.551464 1031.391469 811.463032 L 1029.769652 811.7801 C 1025.71511 812.533135 1025.160278 817.368412 1027.294247 819.984218 C 1031.604866 825.413996 1057.212501 829.615138 1087.47219 829.615138 C 1117.731878 829.615138 1143.339513 825.413996 1147.650132 819.984218 C 1149.784101 817.368412 1149.229269 812.533135 1145.174727 811.7801 L 1143.55291 811.463032 C 1137.193681 810.551464 1129.639429 809.996596 1123.024123 809.481361 C 1114.10413 808.926494 1105.098778 808.76796 1096.093427 808.64906 Z M 1078.850952 808.64906 " transform="matrix(0.0915254,0,0,0.0985595,12.968632,-56.797704)"/>
<path style="fill-rule:evenodd;fill:rgb(89.411765%,0%,16.862746%);fill-opacity:1;stroke-width:2.416973;stroke-linecap:butt;stroke-linejoin:miter;stroke:rgb(0%,0%,0%);stroke-opacity:1;stroke-miterlimit:4;" d="M 1219.662249 702.223369 L 1237.198258 653.655314 L 1244.247046 633.532102 L 1261.783055 623.243542 L 1279.662907 584.812745 L 1288.087069 574.82679 L 1289.29052 539.573342 C 1289.29052 539.573342 1277.084083 514.457152 1258.000778 505.530313 C 1230.837156 492.518311 1193.874 494.333939 1193.874 494.333939 C 1193.874 494.333939 1185.277917 473.000308 1169.633046 464.678678 C 1153.988175 456.357049 1136.624088 454.238816 1118.400392 454.238816 C 1100.004774 454.238816 1067.339659 469.822958 1049.631728 474.362029 C 1040.347959 476.631564 1019.545438 484.650589 1019.545438 484.650589 C 1019.545438 484.650589 998.914839 476.631564 989.63107 474.362029 C 971.923139 469.822958 939.086102 454.238816 920.862406 454.238816 C 902.63871 454.238816 885.790388 456.054444 869.629752 464.678678 C 854.500646 472.697703 833.870047 494.333939 833.870047 494.333939 C 833.870047 494.333939 810.144858 491.307892 793.468457 500.83994 C 772.665937 512.641524 758.052596 537.606411 758.052596 537.606411 L 759.427969 576.188511 L 762.69448 591.016141 L 776.10437 605.541167 L 793.640379 635.196428 L 806.19066 664.246479 L 819.600549 702.223369 Z M 1219.662249 702.223369 " transform="matrix(0.0227211,0,0,0.0258175,89.241051,3.987528)"/>
<path style="fill-rule:nonzero;fill:rgb(100%,78.039217%,17.254902%);fill-opacity:1;stroke-width:1.176461;stroke-linecap:butt;stroke-linejoin:miter;stroke:rgb(0%,0%,0%);stroke-opacity:1;stroke-miterlimit:4;" d="M 358.408031 213.628485 C 349.365389 215.595416 339.833956 219.604928 332.257688 227.094394 C 325.333142 233.978651 320.608158 242.148978 318.00127 252.059282 C 315.475848 261.364377 315.394382 266.886913 316.534896 276.116356 C 317.919805 287.99359 325.251677 299.946476 325.251677 299.946476 L 337.87879 297.676941 C 337.87879 297.676941 330.221057 281.638892 329.406404 274.603332 C 328.347356 266.05475 328.428821 263.331307 330.546918 255.463585 C 332.746479 247.368909 335.923624 241.770722 341.381795 236.323838 C 346.595571 231.179558 353.845977 228.002208 361.34078 226.262231 C 368.02093 224.749208 375.515732 224.068347 381.38123 225.278766 C 392.460503 227.548301 399.71091 231.179558 411.767766 235.037768 C 420.484547 237.76121 427.083232 238.669024 435.881478 239.198582 C 441.258184 239.501187 447.531008 238.139466 453.31504 236.929047 C 459.180538 235.642977 464.068452 234.356907 464.068452 234.356907 L 460.809843 221.798812 C 460.809843 221.798812 456.084859 223.009231 450.626687 224.21965 C 445.168516 225.354417 438.24397 226.337883 436.69613 226.18658 C 428.386676 225.732673 423.498761 225.051813 415.678098 222.630975 C 404.517359 219.07537 396.615231 215.141509 383.988118 212.493718 C 375.515732 210.75374 366.798951 211.737206 358.408031 213.628485 Z M 358.408031 213.628485 " transform="matrix(-0.0479499,0,0,0.051635,134.650472,2.367726)"/>
<path style="fill-rule:nonzero;fill:rgb(100%,100%,100%);fill-opacity:1;stroke-width:1.176461;stroke-linecap:butt;stroke-linejoin:miter;stroke:rgb(0%,0%,0%);stroke-opacity:1;stroke-miterlimit:4;" d="M 323.459442 286.02666 C 323.459442 288.523149 322.155998 290.868335 319.956436 292.154405 C 317.83834 293.440475 315.149987 293.440475 312.950425 292.154405 C 310.832329 290.868335 309.44742 288.523149 309.44742 286.02666 C 309.44742 283.45452 310.832329 281.109334 312.950425 279.823264 C 315.149987 278.612845 317.83834 278.612845 319.956436 279.823264 C 322.155998 281.109334 323.459442 283.45452 323.459442 286.02666 Z M 320.119367 269.232099 C 320.119367 271.804239 318.734457 274.149425 316.616361 275.359844 C 314.416799 276.645914 311.809912 276.645914 309.61035 275.359844 C 307.410788 274.149425 306.107345 271.804239 306.107345 269.232099 C 306.107345 266.659959 307.410788 264.314773 309.61035 263.104354 C 311.809912 261.818284 314.416799 261.818284 316.616361 263.104354 C 318.734457 264.314773 320.119367 266.659959 320.119367 269.232099 Z M 321.096949 251.529724 C 321.096949 254.026213 319.793506 256.371399 317.593944 257.657469 C 315.475848 258.943539 312.787495 258.943539 310.587933 257.657469 C 308.469837 256.371399 307.166393 254.026213 307.166393 251.529724 C 307.166393 248.957584 308.469837 246.612398 310.587933 245.326328 C 312.787495 244.040258 315.475848 244.040258 317.593944 245.326328 C 319.793506 246.612398 321.096949 248.957584 321.096949 251.529724 Z M 327.94003 234.659512 C 327.94003 237.231652 326.555121 239.576838 324.437024 240.787257 C 322.237463 242.073327 319.630575 242.073327 317.431013 240.787257 C 315.312917 239.576838 313.928008 237.231652 313.928008 234.659512 C 313.928008 232.163023 315.312917 229.817837 317.431013 228.531767 C 319.630575 227.245697 322.237463 227.245697 324.437024 228.531767 C 326.555121 229.817837 327.94003 232.163023 327.94003 234.659512 Z M 340.648608 221.496207 C 340.648608 223.992696 339.345164 226.337883 337.145602 227.623953 C 335.027506 228.910023 332.339153 228.910023 330.221057 227.623953 C 328.021495 226.337883 326.718051 223.992696 326.718051 221.496207 C 326.718051 218.924067 328.021495 216.578881 330.221057 215.292811 C 332.339153 214.082392 335.027506 214.082392 337.145602 215.292811 C 339.345164 216.578881 340.648608 218.924067 340.648608 221.496207 Z M 356.534331 212.871973 C 356.615796 215.368462 355.230887 217.713649 353.11279 218.999719 C 350.913229 220.285789 348.224876 220.285789 346.106779 218.999719 C 343.907218 217.713649 342.603774 215.368462 342.603774 212.871973 C 342.603774 210.299833 343.907218 207.954647 346.106779 206.668577 C 348.224876 205.382507 350.913229 205.382507 353.11279 206.668577 C 355.230887 207.954647 356.615796 210.299833 356.534331 212.871973 Z M 374.782545 208.257252 C 374.782545 210.829392 373.397636 213.174578 371.27954 214.460648 C 369.079978 215.746718 366.47309 215.746718 364.273529 214.460648 C 362.155432 213.174578 360.770523 210.829392 360.770523 208.257252 C 360.770523 205.760763 362.155432 203.415576 364.273529 202.129506 C 366.47309 200.843437 369.079978 200.843437 371.27954 202.129506 C 373.397636 203.415576 374.782545 205.760763 374.782545 208.257252 Z M 393.438086 209.165066 C 393.438086 211.737206 392.053177 214.082392 389.935081 215.368462 C 387.735519 216.654532 385.128631 216.654532 382.92907 215.368462 C 380.810973 214.082392 379.426064 211.737206 379.426064 209.165066 C 379.426064 206.668577 380.810973 204.323391 382.92907 203.037321 C 385.128631 201.751251 387.735519 201.751251 389.935081 203.037321 C 392.053177 204.323391 393.438086 206.668577 393.438086 209.165066 Z M 443.865072 222.404021 C 443.865072 224.90051 442.561628 227.245697 440.443532 228.531767 C 438.24397 229.817837 435.555617 229.817837 433.437521 228.531767 C 431.237959 227.245697 429.934515 224.90051 429.934515 222.404021 C 429.934515 219.831882 431.237959 217.486695 433.437521 216.276276 C 435.555617 214.990206 438.24397 214.990206 440.443532 216.276276 C 442.561628 217.486695 443.865072 219.831882 443.865072 222.404021 Z M 411.116044 214.233695 C 411.116044 216.730183 409.8126 219.07537 407.694504 220.36144 C 405.494942 221.64751 402.806589 221.64751 400.688493 220.36144 C 398.488931 219.07537 397.185487 216.730183 397.185487 214.233695 C 397.185487 211.661555 398.488931 209.316368 400.688493 208.030298 C 402.806589 206.819879 405.494942 206.819879 407.694504 208.030298 C 409.8126 209.316368 411.116044 211.661555 411.116044 214.233695 Z M 427.490558 219.226672 C 427.490558 221.723161 426.187114 224.068347 424.069018 225.354417 C 421.869456 226.640487 419.181103 226.640487 417.063007 225.354417 C 414.863445 224.068347 413.560001 221.723161 413.560001 219.226672 C 413.560001 216.654532 414.863445 214.309346 417.063007 213.023276 C 419.181103 211.812857 421.869456 211.812857 424.069018 213.023276 C 426.187114 214.309346 427.490558 216.654532 427.490558 219.226672 Z M 427.490558 219.226672 " transform="matrix(-0.0479499,0,0,0.051635,134.650472,2.367726)"/>
<path style="fill-rule:nonzero;fill:rgb(100%,78.039217%,17.254902%);fill-opacity:1;stroke-width:1.176461;stroke-linecap:butt;stroke-linejoin:miter;stroke:rgb(0%,0%,0%);stroke-opacity:1;stroke-miterlimit:4;" d="M 358.407771 213.628485 C 349.365129 215.595416 339.833695 219.604928 332.257427 227.094394 C 325.332882 233.978651 320.607897 242.148978 318.00101 252.059282 C 315.475587 261.364377 315.394122 266.886913 316.534635 276.116356 C 317.919544 287.99359 325.251416 299.946476 325.251416 299.946476 L 337.878529 297.676941 C 337.878529 297.676941 330.302261 281.638892 329.406144 274.603332 C 328.347096 266.05475 328.428561 263.331307 330.546657 255.463585 C 332.746219 247.368909 335.923363 241.770722 341.381535 236.323838 C 346.59531 231.179558 353.845717 228.002208 361.340519 226.262231 C 368.020669 224.749208 375.515472 224.068347 381.380969 225.278766 C 392.460243 227.548301 399.710649 231.179558 411.767505 235.037768 C 420.484286 237.76121 427.082971 238.669024 435.881218 239.198582 C 441.257924 239.501187 447.530747 238.139466 453.31478 236.929047 C 459.180277 235.642977 464.068192 234.356907 464.068192 234.356907 L 460.809582 221.798812 C 460.809582 221.798812 456.084598 223.009231 450.626427 224.21965 C 445.168255 225.354417 438.24371 226.337883 436.69587 226.18658 C 428.386415 225.732673 423.4985 225.051813 415.677837 222.630975 C 404.517099 219.07537 396.61497 215.141509 383.987857 212.493718 C 375.515472 210.75374 366.798691 211.737206 358.407771 213.628485 Z M 358.407771 213.628485 " transform="matrix(0.0479499,0,0,0.051635,90.349541,2.367726)"/>
<path style="fill-rule:nonzero;fill:rgb(100%,100%,100%);fill-opacity:1;stroke-width:1.176461;stroke-linecap:butt;stroke-linejoin:miter;stroke:rgb(0%,0%,0%);stroke-opacity:1;stroke-miterlimit:4;" d="M 323.459181 286.02666 C 323.459181 288.523149 322.155737 290.868335 319.956176 292.154405 C 317.838079 293.440475 315.149726 293.440475 312.950165 292.154405 C 310.832068 290.868335 309.447159 288.523149 309.447159 286.02666 C 309.447159 283.45452 310.832068 281.109334 312.950165 279.823264 C 315.149726 278.612845 317.838079 278.612845 319.956176 279.823264 C 322.155737 281.109334 323.459181 283.45452 323.459181 286.02666 Z M 320.119106 269.232099 C 320.119106 271.804239 318.734197 274.149425 316.616101 275.359844 C 314.416539 276.645914 311.809651 276.645914 309.61009 275.359844 C 307.491993 274.149425 306.107084 271.804239 306.107084 269.232099 C 306.107084 266.659959 307.491993 264.314773 309.61009 263.104354 C 311.809651 261.818284 314.416539 261.818284 316.616101 263.104354 C 318.734197 264.314773 320.119106 266.659959 320.119106 269.232099 Z M 321.096689 251.529724 C 321.096689 254.026213 319.793245 256.371399 317.593683 257.657469 C 315.475587 258.943539 312.787234 258.943539 310.587672 257.657469 C 308.469576 256.371399 307.166132 254.026213 307.166132 251.529724 C 307.166132 248.957584 308.469576 246.612398 310.587672 245.326328 C 312.787234 244.040258 315.475587 244.040258 317.593683 245.326328 C 319.793245 246.612398 321.096689 248.957584 321.096689 251.529724 Z M 327.939769 234.659512 C 327.939769 237.231652 326.55486 239.576838 324.436764 240.787257 C 322.237202 242.073327 319.630315 242.073327 317.430753 240.787257 C 315.312657 239.576838 313.927747 237.231652 313.927747 234.659512 C 313.927747 232.163023 315.312657 229.817837 317.430753 228.531767 C 319.630315 227.245697 322.237202 227.245697 324.436764 228.531767 C 326.55486 229.817837 327.939769 232.163023 327.939769 234.659512 Z M 340.648347 221.496207 C 340.648347 223.992696 339.344904 226.337883 337.145342 227.623953 C 335.027246 228.910023 332.338893 228.910023 330.220796 227.623953 C 328.021235 226.337883 326.717791 223.992696 326.717791 221.496207 C 326.717791 218.924067 328.021235 216.578881 330.220796 215.292811 C 332.338893 214.082392 335.027246 214.082392 337.145342 215.292811 C 339.344904 216.578881 340.648347 218.924067 340.648347 221.496207 Z M 356.53407 212.871973 C 356.615535 215.368462 355.230626 217.713649 353.11253 218.999719 C 350.912968 220.285789 348.224615 220.285789 346.106519 218.999719 C 343.906957 217.713649 342.603513 215.368462 342.603513 212.871973 C 342.603513 210.299833 343.906957 207.954647 346.106519 206.668577 C 348.224615 205.382507 350.912968 205.382507 353.11253 206.668577 C 355.230626 207.954647 356.615535 210.299833 356.53407 212.871973 Z M 374.782285 208.257252 C 374.782285 210.829392 373.397376 213.174578 371.279279 214.460648 C 369.079718 215.746718 366.47283 215.746718 364.273268 214.460648 C 362.155172 213.174578 360.770263 210.829392 360.770263 208.257252 C 360.770263 205.760763 362.155172 203.415576 364.273268 202.129506 C 366.47283 200.843437 369.079718 200.843437 371.279279 202.129506 C 373.397376 203.415576 374.782285 205.760763 374.782285 208.257252 Z M 393.437825 209.165066 C 393.437825 211.737206 392.052916 214.082392 389.93482 215.368462 C 387.735258 216.654532 385.128371 216.654532 382.928809 215.368462 C 380.810713 214.082392 379.425804 211.737206 379.425804 209.165066 C 379.425804 206.668577 380.810713 204.323391 382.928809 203.037321 C 385.128371 201.751251 387.735258 201.751251 389.93482 203.037321 C 392.052916 204.323391 393.437825 206.668577 393.437825 209.165066 Z M 443.864811 222.404021 C 443.864811 224.90051 442.561368 227.245697 440.443271 228.531767 C 438.24371 229.817837 435.555357 229.817837 433.43726 228.531767 C 431.237699 227.245697 429.934255 224.90051 429.934255 222.404021 C 429.934255 219.831882 431.237699 217.486695 433.43726 216.276276 C 435.555357 214.990206 438.24371 214.990206 440.443271 216.276276 C 442.561368 217.486695 443.864811 219.831882 443.864811 222.404021 Z M 411.115783 214.233695 C 411.115783 216.730183 409.81234 219.07537 407.694243 220.36144 C 405.494682 221.64751 402.806329 221.64751 400.688232 220.36144 C 398.488671 219.07537 397.185227 216.730183 397.185227 214.233695 C 397.185227 211.661555 398.488671 209.316368 400.688232 208.030298 C 402.806329 206.819879 405.494682 206.819879 407.694243 208.030298 C 409.81234 209.316368 411.115783 211.661555 411.115783 214.233695 Z M 427.490297 219.226672 C 427.490297 221.723161 426.186854 224.068347 424.068757 225.354417 C 421.869196 226.640487 419.180843 226.640487 417.062746 225.354417 C 414.863185 224.068347 413.559741 221.723161 413.559741 219.226672 C 413.559741 216.654532 414.863185 214.309346 417.062746 213.023276 C 419.180843 211.812857 421.869196 211.812857 424.068757 213.023276 C 426.186854 214.309346 427.490297 216.654532 427.490297 219.226672 Z M 427.490297 219.226672 " transform="matrix(0.0479499,0,0,0.051635,90.349541,2.367726)"/>
<path style="fill-rule:nonzero;fill:rgb(100%,78.039217%,17.254902%);fill-opacity:1;stroke-width:1.176461;stroke-linecap:butt;stroke-linejoin:miter;stroke:rgb(0%,0%,0%);stroke-opacity:1;stroke-miterlimit:4;" d="M 298.868089 276.078013 C 300.741789 273.657175 303.022816 271.917198 304.896517 269.420709 C 306.770217 266.848569 308.236592 263.67122 309.051244 260.342568 C 305.629704 261.174731 302.452559 262.687755 299.845672 264.579034 C 297.401714 266.394662 295.609479 268.664198 293.246987 270.631128 L 293.246987 239.8411 C 295.609479 241.732379 297.401714 244.001914 299.845672 245.817543 C 302.452559 247.784473 305.629704 249.221846 309.051244 250.054008 C 308.236592 246.801008 306.770217 243.548007 304.896517 240.975867 C 303.022816 238.55503 300.741789 236.815053 298.868089 234.394215 L 332.920561 234.394215 C 331.04686 236.815053 328.765833 238.55503 326.892133 240.975867 C 325.018432 243.548007 323.552058 246.801008 322.737405 250.054008 C 326.158945 249.221846 329.33609 247.784473 331.942978 245.817543 C 334.386935 244.001914 336.17917 241.732379 338.541662 239.8411 L 338.541662 270.631128 C 336.17917 268.664198 334.386935 266.394662 331.942978 264.579034 C 329.33609 262.687755 326.158945 261.174731 322.737405 260.342568 C 323.552058 263.67122 325.018432 266.848569 326.892133 269.420709 C 328.765833 271.917198 331.04686 273.657175 332.920561 276.078013 Z M 298.868089 276.078013 " transform="matrix(0.0479499,0,0,0.051635,97.3529,-2.0717)"/>
<path style="fill-rule:nonzero;fill:rgb(100%,100%,100%);fill-opacity:1;stroke-width:1.176469;stroke-linecap:butt;stroke-linejoin:miter;stroke:rgb(0%,0%,0%);stroke-opacity:1;stroke-miterlimit:4;" d="M 324.36671 255.198288 C 324.36671 258.299987 322.737405 261.09908 320.130517 262.687755 C 317.52363 264.200778 314.26502 264.200778 311.658132 262.687755 C 309.051244 261.09908 307.421939 258.299987 307.421939 255.198288 C 307.421939 252.172241 309.051244 249.297497 311.658132 247.784473 C 314.26502 246.27145 317.52363 246.27145 320.130517 247.784473 C 322.737405 249.297497 324.36671 252.172241 324.36671 255.198288 Z M 324.36671 255.198288 " transform="matrix(0.0479499,0,0,0.051635,97.3529,-2.0717)"/>
<path style="fill-rule:nonzero;fill:rgb(100%,78.039217%,17.254902%);fill-opacity:1;stroke-width:0.64894;stroke-linecap:butt;stroke-linejoin:miter;stroke:rgb(0%,0%,0%);stroke-opacity:1;stroke-miterlimit:4;" d="M 2700.175842 785.005775 C 2700.175842 788.83414 2698.21464 792.368015 2694.960827 794.261162 C 2691.707014 796.19638 2687.695463 796.19638 2684.44165 794.261162 C 2681.187837 792.368015 2679.226635 788.83414 2679.226635 785.005775 C 2679.226635 781.219481 2681.187837 777.685605 2684.44165 775.792458 C 2687.695463 773.857241 2691.707014 773.857241 2694.960827 775.792458 C 2698.21464 777.685605 2700.175842 781.219481 2700.175842 785.005775 Z M 2700.175842 785.005775 " transform="matrix(0.0876376,0,0,0.0928513,-123.218863,-59.71305)"/>
<path style="fill-rule:nonzero;fill:rgb(100%,78.039217%,17.254902%);fill-opacity:1;stroke-width:1.247424;stroke-linecap:butt;stroke-linejoin:miter;stroke:rgb(0%,0%,0%);stroke-opacity:1;stroke-miterlimit:4;" d="M 195.868405 28.469179 L 195.868405 45.474625 L 178.765335 45.474625 L 178.765335 54.217992 L 221.609388 54.217992 L 221.609388 45.474625 L 204.506318 45.474625 L 204.506318 28.469179 Z M 195.868405 28.469179 " transform="matrix(0.0452221,0,0,0.0486976,103.447098,10.7269)"/>
<path style="fill-rule:evenodd;fill:rgb(100%,78.039217%,17.254902%);fill-opacity:1;stroke-width:1.176461;stroke-linecap:butt;stroke-linejoin:miter;stroke:rgb(0%,0%,0%);stroke-opacity:1;stroke-miterlimit:4;" d="M 309.621501 310.574949 L 322.167148 310.574949 C 325.670154 310.574949 328.521438 313.374042 328.521438 316.929647 L 328.521438 375.861913 C 328.521438 379.417518 325.670154 382.292263 322.167148 382.292263 L 309.621501 382.292263 C 306.118495 382.292263 303.267212 379.417518 303.267212 375.861913 L 303.267212 316.929647 C 303.267212 313.374042 306.118495 310.574949 309.621501 310.574949 Z M 309.621501 310.574949 " transform="matrix(0.0479499,0,0,0.051635,97.3529,-2.0717)"/>
<path style="fill-rule:evenodd;fill:rgb(100%,78.039217%,17.254902%);fill-opacity:1;stroke-width:1.153604;stroke-linecap:butt;stroke-linejoin:miter;stroke:rgb(0%,0%,0%);stroke-opacity:1;stroke-miterlimit:4;" d="M 224.865511 941.253656 C 226.783181 941.253656 228.345727 942.922309 228.345727 945.008126 L 228.345727 1016.676792 C 228.345727 1018.762608 226.783181 1020.514695 224.865511 1020.514695 C 222.876816 1020.514695 221.314271 1018.762608 221.314271 1016.676792 L 221.314271 945.008126 C 221.314271 942.922309 222.876816 941.253656 224.865511 941.253656 Z M 224.865511 941.253656 " transform="matrix(0.0549984,0,0,0.0468192,99.480416,-30.107795)"/>
<path style="fill-rule:evenodd;fill:rgb(100%,78.039217%,17.254902%);fill-opacity:1;stroke-width:1.153604;stroke-linecap:butt;stroke-linejoin:miter;stroke:rgb(0%,0%,0%);stroke-opacity:1;stroke-miterlimit:4;" d="M 244.003724 941.253588 C 245.992419 941.253588 247.554965 942.922242 247.554965 945.008059 L 247.554965 1016.676724 C 247.554965 1018.762541 245.992419 1020.514627 244.003724 1020.514627 C 242.086054 1020.514627 240.523508 1018.762541 240.523508 1016.676724 L 240.523508 945.008059 C 240.523508 942.922242 242.086054 941.253588 244.003724 941.253588 Z M 244.003724 941.253588 " transform="matrix(0.0549984,0,0,0.0468192,99.732533,-30.107791)"/>
<path style="fill-rule:nonzero;fill:rgb(100%,100%,100%);fill-opacity:1;stroke-width:1.176461;stroke-linecap:butt;stroke-linejoin:miter;stroke:rgb(0%,0%,0%);stroke-opacity:1;stroke-miterlimit:4;" d="M 322.900336 312.087972 C 322.900336 314.584461 321.515427 316.929647 319.39733 318.215717 C 317.197769 319.501787 314.590881 319.501787 312.391319 318.215717 C 310.273223 316.929647 308.888314 314.584461 308.888314 312.087972 C 308.888314 309.515832 310.273223 307.170646 312.391319 305.884576 C 314.590881 304.674157 317.197769 304.674157 319.39733 305.884576 C 321.515427 307.170646 322.900336 309.515832 322.900336 312.087972 Z M 322.900336 312.087972 " transform="matrix(0.0479499,0,0,0.051635,97.3529,-2.0717)"/>
<path style="fill-rule:nonzero;fill:rgb(100%,100%,100%);fill-opacity:1;stroke-width:1.176461;stroke-linecap:butt;stroke-linejoin:miter;stroke:rgb(0%,0%,0%);stroke-opacity:1;stroke-miterlimit:4;" d="M 322.900336 326.159091 C 322.900336 328.731231 321.515427 331.076417 319.39733 332.362487 C 317.197769 333.572906 314.590881 333.572906 312.391319 332.362487 C 310.273223 331.076417 308.888314 328.731231 308.888314 326.159091 C 308.888314 323.662602 310.273223 321.317416 312.391319 320.031346 C 314.590881 318.745276 317.197769 318.745276 319.39733 320.031346 C 321.515427 321.317416 322.900336 323.662602 322.900336 326.159091 Z M 322.900336 326.159091 " transform="matrix(0.0479499,0,0,0.051635,97.3529,-2.0717)"/>
<path style="fill-rule:nonzero;fill:rgb(100%,100%,100%);fill-opacity:1;stroke-width:1.176461;stroke-linecap:butt;stroke-linejoin:miter;stroke:rgb(0%,0%,0%);stroke-opacity:1;stroke-miterlimit:4;" d="M 322.900336 340.305861 C 322.900336 342.802349 321.515427 345.147536 319.39733 346.433606 C 317.197769 347.719676 314.590881 347.719676 312.391319 346.433606 C 310.273223 345.147536 308.888314 342.802349 308.888314 340.305861 C 308.888314 337.733721 310.273223 335.388534 312.391319 334.178115 C 314.590881 332.892045 317.197769 332.892045 319.39733 334.178115 C 321.515427 335.388534 322.900336 337.733721 322.900336 340.305861 Z M 322.900336 340.305861 " transform="matrix(0.0479499,0,0,0.051635,97.3529,-2.0717)"/>
<path style="fill-rule:nonzero;fill:rgb(100%,100%,100%);fill-opacity:1;stroke-width:1.176461;stroke-linecap:butt;stroke-linejoin:miter;stroke:rgb(0%,0%,0%);stroke-opacity:1;stroke-miterlimit:4;" d="M 322.900336 354.45263 C 322.900336 356.949119 321.515427 359.294306 319.39733 360.580376 C 317.197769 361.866446 314.590881 361.866446 312.391319 360.580376 C 310.273223 359.294306 308.888314 356.949119 308.888314 354.45263 C 308.888314 351.88049 310.273223 349.535304 312.391319 348.249234 C 314.590881 347.038815 317.197769 347.038815 319.39733 348.249234 C 321.515427 349.535304 322.900336 351.88049 322.900336 354.45263 Z M 322.900336 354.45263 " transform="matrix(0.0479499,0,0,0.051635,97.3529,-2.0717)"/>
<path style="fill-rule:nonzero;fill:rgb(100%,100%,100%);fill-opacity:1;stroke-width:1.176461;stroke-linecap:butt;stroke-linejoin:miter;stroke:rgb(0%,0%,0%);stroke-opacity:1;stroke-miterlimit:4;" d="M 322.900336 368.523749 C 322.900336 371.095889 321.515427 373.441075 319.39733 374.727145 C 317.197769 376.013215 314.590881 376.013215 312.391319 374.727145 C 310.273223 373.441075 308.888314 371.095889 308.888314 368.523749 C 308.888314 366.02726 310.273223 363.682074 312.391319 362.396004 C 314.590881 361.109934 317.197769 361.109934 319.39733 362.396004 C 321.515427 363.682074 322.900336 366.02726 322.900336 368.523749 Z M 322.900336 368.523749 " transform="matrix(0.0479499,0,0,0.051635,97.3529,-2.0717)"/>
<path style="fill-rule:nonzero;fill:rgb(100%,78.039217%,17.254902%);fill-opacity:1;stroke-width:1.176461;stroke-linecap:butt;stroke-linejoin:miter;stroke:rgb(0%,0%,0%);stroke-opacity:1;stroke-miterlimit:4;" d="M -147.270948 1086.935616 C -154.032563 1101.9902 -159.40927 1116.666528 -164.70451 1131.721112 L -381.320594 1131.721112 C -386.371439 1117.120435 -391.585215 1101.460642 -398.020969 1086.935616 C -398.020969 1086.935616 -384.497738 1105.84841 -374.396048 1110.387481 C -368.774946 1112.883969 -361.768935 1113.640481 -355.984903 1111.597899 C -348.32717 1108.874457 -338.22548 1095.030292 -338.22548 1095.030292 C -338.22548 1095.030292 -329.019907 1105.697108 -322.828549 1108.496201 C -317.044516 1111.143992 -310.201436 1111.295295 -303.847147 1110.99269 C -298.14458 1110.765736 -291.871756 1110.538783 -287.228237 1107.285782 C -280.140761 1102.444107 -273.13475 1085.800849 -273.13475 1085.800849 C -273.13475 1085.800849 -266.291669 1098.888502 -260.833498 1103.654526 C -256.35291 1107.512736 -250.731808 1110.463132 -244.86631 1111.597899 C -239.000813 1112.808318 -232.646524 1112.430062 -227.025422 1110.387481 C -219.449154 1107.664038 -207.392298 1096.240711 -207.392298 1096.240711 C -207.392298 1096.240711 -199.082843 1106.529271 -193.298811 1109.177062 C -187.677709 1111.67355 -180.834629 1112.430062 -174.887666 1110.99269 C -168.533377 1109.479666 -163.156671 1104.864945 -158.268756 1100.552828 C -153.951098 1096.694618 -147.270948 1086.935616 -147.270948 1086.935616 Z M -147.270948 1086.935616 " transform="matrix(0.0479499,0,0,0.051635,125.573345,-36.850505)"/>
<path style=" stroke:none;fill-rule:nonzero;fill:rgb(100%,78.039217%,17.254902%);fill-opacity:1;" d="M 112.5 19.714844 C 112.5 19.714844 112.261719 20.105469 112.117188 20.242188 C 111.914062 20.425781 111.78125 20.539062 111.523438 20.628906 C 111.261719 20.714844 110.902344 20.765625 110.628906 20.75 C 110.367188 20.734375 110.097656 20.652344 109.859375 20.527344 C 109.65625 20.421875 109.328125 20.109375 109.328125 20.109375 C 109.167969 20.332031 108.964844 20.488281 108.769531 20.601562 C 108.523438 20.75 108.28125 20.761719 108.023438 20.75 C 107.503906 20.71875 107.015625 20.367188 106.625 19.65625 C 106.375 19.011719 106.082031 18.359375 105.71875 17.675781 C 106.140625 17.519531 106.625 17.433594 107.167969 17.40625 C 106.949219 18.074219 106.71875 18.722656 106.800781 19.261719 C 107.253906 18.894531 107.402344 18.394531 107.558594 17.898438 L 108.085938 19.902344 C 107.765625 19.84375 107.9375 19.773438 107.09375 19.601562 C 107.261719 19.941406 107.648438 20.367188 108.074219 20.40625 C 108.363281 20.4375 108.570312 20.339844 108.75 20.171875 C 108.882812 20.046875 109 19.886719 109 19.703125 C 109 19.601562 109 19.496094 108.996094 19.390625 C 108.996094 19.324219 108.921875 19.230469 108.859375 19.230469 C 108.796875 19.226562 108.78125 19.332031 108.765625 19.394531 C 108.734375 19.515625 108.796875 19.652344 108.765625 19.777344 C 108.730469 19.910156 108.664062 20.019531 108.554688 20.09375 C 108.460938 20.15625 108.238281 20.171875 108.238281 20.171875 L 108.308594 19.875 C 108.359375 19.667969 108.171875 19.503906 108.125 19.292969 C 108.097656 19.160156 108.082031 19.007812 108.125 18.878906 C 108.175781 18.738281 108.273438 18.601562 108.402344 18.539062 C 108.445312 18.515625 108.503906 18.515625 108.554688 18.519531 C 108.625 18.523438 108.765625 18.574219 108.765625 18.574219 C 108.765625 18.574219 108.726562 18.363281 108.734375 18.234375 C 108.75 18.078125 108.871094 17.789062 108.9375 17.652344 C 109.054688 17.425781 109.234375 17.21875 109.253906 17.199219 C 109.277344 17.21875 109.472656 17.417969 109.601562 17.636719 C 109.679688 17.765625 109.757812 17.957031 109.78125 18.113281 C 109.796875 18.238281 109.792969 18.507812 109.792969 18.507812 C 109.792969 18.507812 110 18.414062 110.074219 18.402344 C 110.125 18.394531 110.179688 18.394531 110.226562 18.414062 C 110.355469 18.464844 110.464844 18.59375 110.523438 18.730469 C 110.574219 18.859375 110.570312 19.011719 110.546875 19.148438 C 110.515625 19.359375 110.402344 19.523438 110.464844 19.726562 L 110.554688 20.019531 C 110.554688 20.019531 110.332031 20.019531 110.234375 19.964844 C 110.121094 19.898438 110.046875 19.796875 110.003906 19.664062 C 109.960938 19.542969 109.984375 19.398438 109.917969 19.292969 C 109.886719 19.246094 109.84375 19.195312 109.785156 19.203125 C 109.722656 19.207031 109.679688 19.316406 109.675781 19.382812 L 109.664062 19.664062 C 109.660156 19.75 109.699219 19.839844 109.742188 19.910156 C 109.847656 20.082031 110.003906 20.1875 110.179688 20.265625 C 110.371094 20.347656 110.542969 20.378906 110.75 20.382812 C 110.925781 20.382812 111.222656 20.355469 111.386719 20.292969 C 111.589844 20.222656 111.707031 20.128906 111.863281 19.972656 C 111.949219 19.886719 112.007812 19.757812 112.046875 19.636719 C 112.09375 19.496094 112.078125 19.25 112.078125 19.25 C 111.875 19.332031 111.703125 19.445312 111.542969 19.570312 C 111.367188 19.71875 111.210938 19.886719 111.066406 20.066406 L 111.050781 17.640625 C 111.261719 17.890625 111.410156 18.113281 111.621094 18.296875 C 111.796875 18.457031 111.886719 18.515625 112.0625 18.578125 C 112.011719 18.382812 111.996094 18.265625 111.867188 18.070312 C 111.6875 17.800781 111.511719 17.507812 111.292969 17.238281 C 111.695312 17.167969 112.09375 17.148438 112.5 17.148438 C 112.90625 17.148438 113.304688 17.167969 113.707031 17.238281 C 113.488281 17.507812 113.3125 17.800781 113.132812 18.070312 C 113.003906 18.265625 112.988281 18.382812 112.9375 18.578125 C 113.113281 18.515625 113.203125 18.457031 113.378906 18.296875 C 113.589844 18.113281 113.738281 17.890625 113.949219 17.640625 L 113.933594 20.066406 C 113.789062 19.886719 113.632812 19.71875 113.457031 19.570312 C 113.296875 19.445312 113.125 19.332031 112.921875 19.25 C 112.921875 19.25 112.90625 19.496094 112.953125 19.636719 C 112.992188 19.757812 113.050781 19.886719 113.136719 19.972656 C 113.292969 20.128906 113.410156 20.222656 113.613281 20.292969 C 113.777344 20.355469 114.074219 20.382812 114.25 20.382812 C 114.457031 20.378906 114.628906 20.347656 114.820312 20.265625 C 114.996094 20.1875 115.152344 20.082031 115.257812 19.910156 C 115.300781 19.839844 115.339844 19.75 115.335938 19.664062 L 115.324219 19.382812 C 115.320312 19.316406 115.277344 19.207031 115.214844 19.203125 C 115.15625 19.195312 115.113281 19.246094 115.082031 19.292969 C 115.015625 19.398438 115.039062 19.542969 114.996094 19.664062 C 114.953125 19.796875 114.878906 19.898438 114.765625 19.964844 C 114.667969 20.019531 114.445312 20.019531 114.445312 20.019531 L 114.535156 19.726562 C 114.597656 19.523438 114.484375 19.359375 114.453125 19.148438 C 114.429688 19.011719 114.425781 18.859375 114.476562 18.730469 C 114.535156 18.59375 114.644531 18.464844 114.773438 18.414062 C 114.820312 18.394531 114.878906 18.394531 114.925781 18.402344 C 115 18.414062 115.207031 18.507812 115.207031 18.507812 C 115.207031 18.507812 115.203125 18.238281 115.21875 18.113281 C 115.242188 17.957031 115.320312 17.765625 115.398438 17.636719 C 115.527344 17.417969 115.722656 17.21875 115.746094 17.199219 C 115.765625 17.21875 115.945312 17.425781 116.0625 17.652344 C 116.128906 17.789062 116.25 18.078125 116.265625 18.234375 C 116.273438 18.363281 116.234375 18.574219 116.234375 18.574219 C 116.234375 18.574219 116.375 18.523438 116.445312 18.519531 C 116.496094 18.515625 116.554688 18.515625 116.597656 18.539062 C 116.726562 18.601562 116.824219 18.738281 116.875 18.878906 C 116.917969 19.007812 116.902344 19.160156 116.875 19.292969 C 116.828125 19.503906 116.640625 19.667969 116.691406 19.875 L 116.761719 20.171875 C 116.761719 20.171875 116.539062 20.15625 116.445312 20.09375 C 116.335938 20.019531 116.269531 19.910156 116.234375 19.777344 C 116.203125 19.652344 116.265625 19.515625 116.234375 19.394531 C 116.21875 19.332031 116.203125 19.226562 116.140625 19.230469 C 116.078125 19.230469 116.003906 19.324219 116.003906 19.390625 C 116 19.496094 116 19.601562 116 19.703125 C 116 19.886719 116.117188 20.046875 116.25 20.171875 C 116.429688 20.339844 116.636719 20.4375 116.925781 20.40625 C 117.351562 20.367188 117.738281 19.941406 117.90625 19.601562 C 117.0625 19.773438 117.234375 19.84375 116.914062 19.902344 L 117.441406 17.898438 C 117.597656 18.394531 117.746094 18.894531 118.199219 19.261719 C 118.28125 18.722656 118.050781 18.074219 117.832031 17.40625 C 118.375 17.433594 118.859375 17.519531 119.28125 17.675781 C 118.917969 18.359375 118.625 19.011719 118.375 19.65625 C 117.984375 20.367188 117.496094 20.71875 116.976562 20.75 C 116.71875 20.761719 116.476562 20.75 116.230469 20.601562 C 116.035156 20.488281 115.832031 20.332031 115.671875 20.109375 C 115.671875 20.109375 115.34375 20.421875 115.140625 20.527344 C 114.902344 20.652344 114.632812 20.734375 114.371094 20.75 C 114.097656 20.765625 113.738281 20.714844 113.476562 20.628906 C 113.21875 20.539062 113.085938 20.425781 112.882812 20.242188 C 112.738281 20.105469 112.5 19.714844 112.5 19.714844 Z M 112.5 19.714844 "/>
<path style=" stroke:none;fill-rule:nonzero;fill:rgb(100%,78.039217%,17.254902%);fill-opacity:1;" d="M 108.023438 20.75 C 107.503906 20.71875 107.015625 20.367188 106.625 19.65625 C 106.375 19.011719 106.082031 18.359375 105.71875 17.675781 C 106.140625 17.519531 106.625 17.433594 107.167969 17.40625 C 106.949219 18.074219 106.71875 18.722656 106.800781 19.261719 C 107.253906 18.894531 107.402344 18.394531 107.558594 17.898438 L 108.085938 19.902344 C 107.765625 19.84375 107.9375 19.773438 107.09375 19.601562 C 107.261719 19.941406 107.648438 20.367188 108.074219 20.40625 Z M 116.925781 20.40625 C 117.351562 20.367188 117.738281 19.941406 117.90625 19.601562 C 117.0625 19.773438 117.234375 19.84375 116.914062 19.902344 L 117.441406 17.898438 C 117.597656 18.394531 117.746094 18.894531 118.199219 19.261719 C 118.28125 18.722656 118.050781 18.074219 117.832031 17.40625 C 118.375 17.433594 118.859375 17.519531 119.28125 17.675781 C 118.917969 18.359375 118.625 19.011719 118.375 19.65625 C 117.984375 20.367188 117.496094 20.71875 116.976562 20.75 L 116.964844 20.769531 Z M 116.925781 20.40625 "/>
<path style=" stroke:none;fill-rule:nonzero;fill:rgb(100%,78.039217%,17.254902%);fill-opacity:1;" d="M 110.628906 20.75 C 110.367188 20.734375 110.097656 20.652344 109.859375 20.527344 C 109.65625 20.421875 109.328125 20.109375 109.328125 20.109375 C 109.167969 20.332031 108.964844 20.488281 108.769531 20.601562 C 108.523438 20.75 108.28125 20.761719 108.023438 20.75 L 108.015625 20.84375 L 108.074219 20.40625 C 108.363281 20.4375 108.570312 20.339844 108.75 20.171875 C 108.882812 20.046875 109 19.886719 109 19.703125 C 109 19.601562 109 19.496094 108.996094 19.390625 C 108.996094 19.324219 108.921875 19.230469 108.859375 19.230469 C 108.796875 19.226562 108.78125 19.332031 108.765625 19.394531 C 108.734375 19.515625 108.796875 19.652344 108.765625 19.777344 C 108.730469 19.910156 108.664062 20.019531 108.554688 20.09375 C 108.460938 20.15625 108.238281 20.171875 108.238281 20.171875 L 108.308594 19.875 C 108.359375 19.667969 108.171875 19.503906 108.125 19.292969 C 108.097656 19.160156 108.082031 19.007812 108.125 18.878906 C 108.175781 18.738281 108.273438 18.601562 108.402344 18.539062 C 108.445312 18.515625 108.503906 18.515625 108.554688 18.519531 C 108.625 18.523438 108.765625 18.574219 108.765625 18.574219 C 108.765625 18.574219 108.726562 18.363281 108.734375 18.234375 C 108.75 18.078125 108.871094 17.789062 108.9375 17.652344 C 109.054688 17.425781 109.234375 17.21875 109.253906 17.199219 C 109.277344 17.21875 109.472656 17.417969 109.601562 17.636719 C 109.679688 17.765625 109.757812 17.957031 109.78125 18.113281 C 109.796875 18.238281 109.792969 18.507812 109.792969 18.507812 C 109.792969 18.507812 110 18.414062 110.074219 18.402344 C 110.125 18.394531 110.179688 18.394531 110.226562 18.414062 C 110.355469 18.464844 110.464844 18.59375 110.523438 18.730469 C 110.574219 18.859375 110.570312 19.011719 110.546875 19.148438 C 110.515625 19.359375 110.402344 19.523438 110.464844 19.726562 L 110.554688 20.019531 C 110.554688 20.019531 110.332031 20.019531 110.234375 19.964844 C 110.121094 19.898438 110.046875 19.796875 110.003906 19.664062 C 109.960938 19.542969 109.984375 19.398438 109.917969 19.292969 C 109.886719 19.246094 109.84375 19.195312 109.785156 19.203125 C 109.722656 19.207031 109.679688 19.316406 109.675781 19.382812 L 109.664062 19.664062 C 109.660156 19.75 109.699219 19.839844 109.742188 19.910156 C 109.847656 20.082031 110.003906 20.1875 110.179688 20.265625 C 110.371094 20.347656 110.542969 20.378906 110.75 20.382812 Z M 110.628906 20.75 "/>
<path style=" stroke:none;fill-rule:nonzero;fill:rgb(0%,0%,0%);fill-opacity:1;" d="M 115.800781 19.699219 L 115.792969 19.6875 C 115.785156 19.554688 115.828125 19.328125 115.828125 19.328125 C 115.851562 19.214844 115.941406 19.09375 116.050781 19.050781 C 116.113281 19.027344 116.183594 19.015625 116.25 19.050781 C 116.289062 19.070312 116.320312 19.085938 116.347656 19.117188 C 116.375 19.144531 116.390625 19.183594 116.40625 19.238281 C 116.433594 19.320312 116.421875 19.402344 116.410156 19.476562 C 116.386719 19.59375 116.390625 19.695312 116.421875 19.777344 C 116.441406 19.832031 116.488281 19.875 116.542969 19.914062 C 116.53125 19.871094 116.523438 19.851562 116.519531 19.808594 C 116.511719 19.742188 116.519531 19.671875 116.546875 19.613281 C 116.585938 19.507812 116.644531 19.425781 116.679688 19.332031 C 116.71875 19.246094 116.738281 19.144531 116.730469 19.050781 C 116.726562 18.976562 116.703125 18.894531 116.664062 18.839844 C 116.617188 18.777344 116.550781 18.730469 116.484375 18.714844 C 116.421875 18.703125 116.324219 18.726562 116.246094 18.753906 C 116.167969 18.78125 116.105469 18.808594 116.105469 18.808594 L 116.035156 18.847656 L 116.046875 18.761719 C 116.089844 18.488281 116.125 18.347656 116.046875 18.085938 C 116.015625 17.980469 115.960938 17.863281 115.871094 17.726562 C 115.828125 17.660156 115.78125 17.582031 115.722656 17.507812 C 115.578125 17.6875 115.476562 17.867188 115.417969 18.050781 C 115.355469 18.25 115.355469 18.515625 115.367188 18.726562 L 115.375 18.8125 L 115.308594 18.769531 C 115.308594 18.769531 115.230469 18.71875 115.136719 18.671875 C 115.046875 18.625 114.933594 18.582031 114.886719 18.585938 C 114.792969 18.59375 114.734375 18.640625 114.675781 18.722656 C 114.625 18.789062 114.617188 18.847656 114.605469 18.945312 C 114.601562 19.003906 114.613281 19.117188 114.621094 19.1875 C 114.632812 19.273438 114.679688 19.363281 114.691406 19.472656 C 114.699219 19.507812 114.707031 19.539062 114.714844 19.570312 C 114.722656 19.605469 114.726562 19.648438 114.71875 19.695312 C 114.710938 19.726562 114.703125 19.75 114.691406 19.792969 C 114.714844 19.78125 114.730469 19.773438 114.742188 19.765625 C 114.785156 19.730469 114.804688 19.667969 114.832031 19.59375 C 114.847656 19.554688 114.851562 19.519531 114.855469 19.476562 C 114.855469 19.433594 114.859375 19.386719 114.878906 19.328125 C 114.914062 19.234375 114.953125 19.125 115.042969 19.054688 C 115.113281 19 115.210938 18.984375 115.296875 19.011719 C 115.347656 19.027344 115.382812 19.0625 115.410156 19.101562 C 115.433594 19.140625 115.453125 19.179688 115.46875 19.222656 C 115.492188 19.277344 115.507812 19.359375 115.519531 19.429688 C 115.53125 19.5 115.535156 19.558594 115.535156 19.558594 L 115.535156 19.574219 L 115.472656 19.796875 L 115.394531 19.777344 L 115.453125 19.5625 C 115.453125 19.558594 115.449219 19.507812 115.4375 19.441406 C 115.425781 19.375 115.410156 19.292969 115.398438 19.261719 C 115.378906 19.21875 115.363281 19.179688 115.34375 19.152344 C 115.324219 19.125 115.304688 19.105469 115.273438 19.097656 C 115.214844 19.078125 115.136719 19.089844 115.089844 19.125 C 115.027344 19.175781 114.988281 19.269531 114.953125 19.363281 C 114.9375 19.402344 114.9375 19.4375 114.9375 19.480469 C 114.933594 19.523438 114.929688 19.574219 114.910156 19.628906 C 114.882812 19.695312 114.863281 19.78125 114.789062 19.835938 C 114.738281 19.875 114.640625 19.914062 114.640625 19.914062 L 114.558594 19.953125 L 114.589844 19.859375 C 114.589844 19.859375 114.628906 19.726562 114.640625 19.679688 C 114.644531 19.644531 114.644531 19.621094 114.636719 19.59375 C 114.628906 19.5625 114.617188 19.53125 114.613281 19.484375 C 114.601562 19.398438 114.554688 19.308594 114.542969 19.199219 C 114.53125 19.128906 114.515625 19.019531 114.523438 18.933594 C 114.535156 18.835938 114.550781 18.75 114.613281 18.667969 C 114.679688 18.574219 114.765625 18.507812 114.878906 18.5 C 114.96875 18.492188 115.078125 18.542969 115.175781 18.59375 C 115.234375 18.625 115.253906 18.640625 115.285156 18.660156 C 115.277344 18.453125 115.277344 18.21875 115.339844 18.019531 C 115.40625 17.8125 115.523438 17.605469 115.695312 17.40625 L 115.722656 17.371094 L 115.753906 17.40625 C 115.832031 17.5 115.890625 17.601562 115.9375 17.675781 C 116.03125 17.820312 116.089844 17.945312 116.125 18.058594 C 116.199219 18.308594 116.171875 18.476562 116.136719 18.703125 C 116.164062 18.691406 116.175781 18.683594 116.222656 18.667969 C 116.304688 18.640625 116.410156 18.613281 116.5 18.628906 C 116.589844 18.648438 116.671875 18.707031 116.726562 18.785156 C 116.785156 18.859375 116.808594 18.957031 116.8125 19.046875 C 116.820312 19.15625 116.796875 19.269531 116.757812 19.371094 C 116.714844 19.472656 116.65625 19.554688 116.621094 19.648438 C 116.601562 19.695312 116.59375 19.75 116.597656 19.796875 C 116.609375 19.867188 116.644531 19.984375 116.644531 19.984375 L 116.667969 20.066406 L 116.589844 20.039062 C 116.46875 19.996094 116.386719 19.914062 116.347656 19.808594 C 116.304688 19.707031 116.304688 19.585938 116.328125 19.457031 C 116.339844 19.390625 116.347656 19.324219 116.332031 19.269531 C 116.316406 19.21875 116.304688 19.195312 116.289062 19.179688 C 116.273438 19.164062 116.253906 19.148438 116.214844 19.128906 C 116.179688 19.109375 116.125 19.113281 116.078125 19.132812 C 116.003906 19.160156 115.917969 19.265625 115.90625 19.34375 C 115.894531 19.476562 115.859375 19.613281 115.800781 19.699219 Z M 118.136719 19.539062 L 118.15625 19.496094 L 118.113281 19.476562 C 117.777344 19.363281 117.46875 19.449219 117.175781 19.582031 C 117.296875 19.238281 117.386719 18.890625 117.449219 18.542969 C 117.765625 19.160156 118.035156 19.359375 118.289062 19.484375 L 118.335938 19.507812 L 118.347656 19.453125 C 118.421875 19.03125 118.425781 18.472656 118.109375 17.640625 C 118.464844 17.664062 118.824219 17.707031 119.175781 17.878906 L 119.210938 17.796875 C 118.820312 17.609375 118.433594 17.566406 118.050781 17.546875 L 117.984375 17.542969 L 118.011719 17.609375 C 118.339844 18.429688 118.339844 18.964844 118.273438 19.375 C 118.027344 19.246094 117.78125 19.054688 117.46875 18.410156 L 117.414062 18.296875 L 117.390625 18.421875 C 117.324219 18.828125 117.214844 19.238281 117.074219 19.644531 L 117.035156 19.746094 L 117.125 19.699219 C 117.421875 19.554688 117.71875 19.460938 118.039062 19.550781 L 118.046875 19.558594 Z M 106.960938 19.550781 C 107.28125 19.460938 107.578125 19.554688 107.871094 19.699219 L 107.960938 19.746094 L 107.925781 19.644531 C 107.785156 19.238281 107.675781 18.828125 107.609375 18.421875 L 107.585938 18.296875 L 107.53125 18.410156 C 107.21875 19.054688 106.96875 19.246094 106.726562 19.375 C 106.660156 18.964844 106.660156 18.429688 106.988281 17.609375 L 107.015625 17.542969 L 106.949219 17.546875 C 106.566406 17.566406 106.179688 17.609375 105.789062 17.796875 L 105.824219 17.878906 C 106.179688 17.707031 106.535156 17.664062 106.890625 17.640625 C 106.574219 18.472656 106.578125 19.03125 106.652344 19.453125 L 106.664062 19.507812 L 106.710938 19.484375 C 106.964844 19.359375 107.234375 19.160156 107.550781 18.546875 C 107.613281 18.890625 107.707031 19.238281 107.824219 19.582031 C 107.53125 19.449219 107.222656 19.363281 106.886719 19.476562 L 106.84375 19.496094 L 106.863281 19.539062 L 106.855469 19.542969 Z M 109.59375 19.746094 L 109.546875 19.558594 C 109.546875 19.550781 109.550781 19.507812 109.5625 19.441406 C 109.570312 19.375 109.589844 19.292969 109.601562 19.261719 C 109.621094 19.21875 109.636719 19.179688 109.65625 19.152344 C 109.675781 19.125 109.695312 19.105469 109.726562 19.097656 C 109.785156 19.078125 109.859375 19.089844 109.910156 19.125 C 109.972656 19.175781 110.011719 19.269531 110.046875 19.363281 C 110.0625 19.402344 110.0625 19.4375 110.0625 19.480469 C 110.066406 19.523438 110.070312 19.574219 110.089844 19.628906 C 110.117188 19.695312 110.136719 19.78125 110.210938 19.835938 C 110.261719 19.875 110.359375 19.914062 110.359375 19.914062 L 110.441406 19.953125 L 110.410156 19.859375 C 110.410156 19.859375 110.371094 19.726562 110.359375 19.679688 C 110.355469 19.644531 110.359375 19.621094 110.363281 19.59375 C 110.371094 19.5625 110.382812 19.53125 110.386719 19.484375 C 110.398438 19.398438 110.445312 19.308594 110.457031 19.199219 C 110.464844 19.128906 110.484375 19.019531 110.476562 18.933594 C 110.464844 18.835938 110.449219 18.75 110.386719 18.667969 C 110.320312 18.574219 110.234375 18.507812 110.121094 18.5 C 110.03125 18.492188 109.921875 18.542969 109.824219 18.59375 C 109.765625 18.625 109.746094 18.640625 109.714844 18.660156 C 109.722656 18.453125 109.722656 18.21875 109.660156 18.019531 C 109.59375 17.8125 109.476562 17.605469 109.304688 17.40625 L 109.277344 17.371094 L 109.246094 17.40625 C 109.167969 17.5 109.109375 17.601562 109.058594 17.675781 C 108.964844 17.820312 108.910156 17.945312 108.875 18.058594 C 108.800781 18.308594 108.828125 18.476562 108.863281 18.703125 C 108.835938 18.691406 108.824219 18.683594 108.777344 18.667969 C 108.695312 18.640625 108.589844 18.613281 108.5 18.628906 C 108.410156 18.648438 108.328125 18.707031 108.273438 18.785156 C 108.214844 18.859375 108.191406 18.957031 108.1875 19.046875 C 108.179688 19.15625 108.203125 19.269531 108.242188 19.371094 C 108.285156 19.472656 108.34375 19.554688 108.378906 19.648438 C 108.398438 19.695312 108.40625 19.75 108.398438 19.796875 C 108.390625 19.867188 108.355469 19.984375 108.355469 19.984375 L 108.332031 20.066406 L 108.410156 20.039062 C 108.53125 19.996094 108.613281 19.914062 108.652344 19.808594 C 108.695312 19.707031 108.695312 19.585938 108.671875 19.457031 C 108.660156 19.390625 108.652344 19.324219 108.667969 19.269531 C 108.683594 19.21875 108.695312 19.195312 108.710938 19.179688 C 108.726562 19.164062 108.746094 19.148438 108.785156 19.128906 C 108.820312 19.109375 108.875 19.113281 108.921875 19.132812 C 108.996094 19.160156 109.074219 19.269531 109.09375 19.34375 C 109.09375 19.347656 109.128906 19.578125 109.125 19.683594 L 109.222656 19.699219 C 109.214844 19.554688 109.171875 19.328125 109.171875 19.328125 C 109.148438 19.214844 109.058594 19.09375 108.949219 19.050781 C 108.886719 19.027344 108.8125 19.015625 108.75 19.050781 C 108.710938 19.070312 108.679688 19.085938 108.652344 19.117188 C 108.625 19.144531 108.609375 19.183594 108.589844 19.238281 C 108.566406 19.320312 108.578125 19.402344 108.589844 19.476562 C 108.609375 19.59375 108.609375 19.695312 108.578125 19.777344 C 108.554688 19.832031 108.511719 19.875 108.457031 19.914062 C 108.46875 19.871094 108.476562 19.851562 108.480469 19.808594 C 108.488281 19.742188 108.480469 19.671875 108.453125 19.613281 C 108.414062 19.507812 108.355469 19.425781 108.320312 19.332031 C 108.28125 19.246094 108.261719 19.144531 108.269531 19.050781 C 108.273438 18.976562 108.292969 18.894531 108.335938 18.839844 C 108.378906 18.777344 108.449219 18.730469 108.515625 18.714844 C 108.578125 18.703125 108.675781 18.726562 108.753906 18.753906 C 108.832031 18.78125 108.894531 18.808594 108.894531 18.808594 L 108.964844 18.847656 L 108.949219 18.761719 C 108.910156 18.488281 108.875 18.347656 108.953125 18.085938 C 108.984375 17.980469 109.035156 17.863281 109.125 17.726562 C 109.171875 17.660156 109.21875 17.582031 109.277344 17.511719 C 109.421875 17.6875 109.523438 17.867188 109.582031 18.050781 C 109.644531 18.25 109.644531 18.515625 109.628906 18.726562 L 109.625 18.8125 L 109.691406 18.769531 C 109.691406 18.769531 109.769531 18.71875 109.859375 18.671875 C 109.953125 18.625 110.066406 18.582031 110.117188 18.585938 C 110.207031 18.59375 110.265625 18.640625 110.324219 18.722656 C 110.375 18.789062 110.382812 18.851562 110.394531 18.945312 C 110.398438 19.003906 110.386719 19.117188 110.375 19.191406 C 110.367188 19.273438 110.320312 19.367188 110.308594 19.472656 C 110.300781 19.507812 110.292969 19.539062 110.285156 19.570312 C 110.277344 19.605469 110.269531 19.648438 110.28125 19.695312 C 110.285156 19.726562 110.296875 19.75 110.308594 19.792969 C 110.285156 19.78125 110.269531 19.773438 110.257812 19.765625 C 110.210938 19.730469 110.195312 19.667969 110.164062 19.59375 C 110.148438 19.554688 110.148438 19.519531 110.144531 19.476562 C 110.144531 19.433594 110.140625 19.386719 110.121094 19.328125 C 110.085938 19.234375 110.046875 19.125 109.957031 19.054688 C 109.886719 19 109.789062 18.984375 109.703125 19.011719 C 109.652344 19.027344 109.613281 19.0625 109.589844 19.101562 C 109.5625 19.140625 109.546875 19.179688 109.53125 19.222656 C 109.507812 19.277344 109.492188 19.359375 109.480469 19.429688 C 109.46875 19.5 109.464844 19.558594 109.464844 19.558594 L 109.464844 19.574219 L 109.511719 19.765625 L 109.539062 19.769531 Z M 112.695312 19.03125 L 112.695312 18.976562 L 112.746094 18.992188 C 112.972656 19.050781 113.148438 19.136719 113.292969 19.226562 C 113.476562 19.34375 113.609375 19.476562 113.753906 19.605469 L 113.777344 18.148438 C 113.65625 18.292969 113.542969 18.445312 113.375 18.570312 C 113.238281 18.671875 112.980469 18.804688 112.742188 18.832031 L 112.683594 18.839844 L 112.695312 18.78125 C 112.730469 18.617188 112.726562 18.5 112.804688 18.308594 C 112.878906 18.121094 113.03125 17.855469 113.335938 17.40625 C 113.070312 17.375 112.84375 17.339844 112.5 17.339844 C 112.15625 17.339844 111.929688 17.375 111.664062 17.40625 C 111.96875 17.855469 112.121094 18.121094 112.195312 18.308594 C 112.273438 18.5 112.269531 18.617188 112.304688 18.78125 L 112.316406 18.839844 L 112.257812 18.832031 C 112.019531 18.804688 111.761719 18.671875 111.625 18.570312 C 111.457031 18.445312 111.34375 18.292969 111.222656 18.148438 L 111.246094 19.601562 C 111.386719 19.476562 111.523438 19.34375 111.707031 19.226562 C 111.851562 19.136719 112.027344 19.050781 112.253906 18.992188 L 112.304688 18.976562 L 112.304688 19.03125 L 112.222656 19.09375 C 112.03125 19.152344 111.875 19.222656 111.75 19.304688 C 111.546875 19.433594 111.402344 19.582031 111.230469 19.730469 L 111.167969 19.785156 L 111.164062 19.695312 L 111.140625 18.035156 L 111.136719 17.925781 L 111.210938 18.003906 C 111.367188 18.171875 111.484375 18.359375 111.671875 18.496094 C 111.785156 18.582031 112.007812 18.695312 112.214844 18.734375 C 112.191406 18.601562 112.179688 18.496094 112.117188 18.339844 C 112.046875 18.15625 111.898438 17.890625 111.558594 17.398438 L 111.519531 17.335938 L 111.589844 17.328125 C 111.878906 17.296875 112.121094 17.25 112.5 17.25 C 112.878906 17.25 113.117188 17.296875 113.410156 17.328125 L 113.480469 17.335938 L 113.441406 17.398438 C 113.101562 17.890625 112.953125 18.15625 112.878906 18.339844 C 112.816406 18.496094 112.808594 18.601562 112.785156 18.734375 C 112.992188 18.695312 113.214844 18.582031 113.328125 18.496094 C 113.511719 18.359375 113.632812 18.171875 113.789062 18.003906 L 113.863281 17.925781 L 113.859375 18.035156 L 113.832031 19.695312 L 113.832031 19.785156 L 113.765625 19.730469 C 113.59375 19.582031 113.453125 19.433594 113.25 19.304688 C 113.125 19.222656 112.96875 19.152344 112.777344 19.097656 Z M 112.695312 19.03125 "/>
<path style="fill:none;stroke-width:1.176461;stroke-linecap:butt;stroke-linejoin:miter;stroke:rgb(0%,0%,0%);stroke-opacity:1;stroke-miterlimit:4;" d="M -272.645958 1095.484199 C -272.645958 1095.484199 -277.615338 1103.049317 -280.629552 1105.697108 C -284.865745 1109.252713 -287.635563 1111.446597 -293.012269 1113.186574 C -298.470441 1114.8509 -305.965243 1115.834365 -311.66781 1115.53176 C -317.125982 1115.229156 -322.747083 1113.640481 -327.716463 1111.219643 C -331.952656 1109.177062 -338.795737 1103.124968 -338.795737 1103.124968 C -342.135812 1107.437085 -346.372004 1110.463132 -350.445266 1112.657016 C -355.577577 1115.53176 -360.628422 1115.758714 -366.005128 1115.53176 C -376.840005 1114.926551 -387.023161 1108.117945 -395.169685 1094.349431 C -400.383461 1081.866987 -406.493354 1069.233241 -414.069622 1055.994285 C -405.271376 1052.968238 -395.169685 1051.303913 -383.846016 1050.774354 C -388.40807 1063.710705 -393.214519 1076.2688 -391.503749 1086.708663 C -382.053781 1079.597452 -378.958102 1069.914102 -375.699492 1060.306402 L -364.701684 1099.115455 C -371.381834 1097.980688 -367.797363 1096.618967 -385.393856 1093.290315 C -381.890851 1099.871967 -373.825791 1108.117945 -364.94608 1108.874457 C -358.917652 1109.479666 -354.599994 1107.588387 -350.852593 1104.335386 C -348.082774 1101.914549 -345.638817 1098.812851 -345.638817 1095.257245 C -345.638817 1093.290315 -345.638817 1091.247733 -345.720282 1089.205151 C -345.720282 1087.919081 -347.268122 1086.103453 -348.571566 1086.103453 C -349.87501 1086.027802 -350.200871 1088.070384 -350.526732 1089.280803 C -351.178454 1091.625989 -349.87501 1094.27378 -350.526732 1096.694618 C -351.259919 1099.266758 -352.644828 1101.384991 -354.925855 1102.822363 C -356.881021 1104.032782 -361.52454 1104.335386 -361.52454 1104.335386 L -360.058165 1098.585897 C -358.999117 1094.576385 -362.909449 1091.399036 -363.887032 1087.313872 C -364.457288 1084.741732 -364.783149 1081.791336 -363.887032 1079.294847 C -362.827983 1076.571405 -360.791352 1073.923614 -358.102999 1072.713195 C -357.206882 1072.259288 -355.984903 1072.259288 -354.925855 1072.334939 C -353.45948 1072.410591 -350.526732 1073.394056 -350.526732 1073.394056 C -350.526732 1073.394056 -351.341384 1069.308892 -351.178454 1066.812404 C -350.852593 1063.786357 -348.32717 1058.18817 -346.942261 1055.540378 C -344.498304 1051.15261 -340.750902 1047.143098 -340.343576 1046.764842 C -339.854785 1047.143098 -335.781522 1051.001308 -333.093169 1055.237774 C -331.463865 1057.734262 -329.83456 1061.44117 -329.345768 1064.467217 C -329.019907 1066.888055 -329.101372 1072.107986 -329.101372 1072.107986 C -329.101372 1072.107986 -324.783715 1070.292358 -323.235875 1070.065404 C -322.176827 1069.914102 -321.036313 1069.914102 -320.05873 1070.292358 C -317.370377 1071.275823 -315.089351 1073.772312 -313.867372 1076.420103 C -312.808324 1078.916592 -312.889789 1081.866987 -313.37858 1084.514779 C -314.030302 1088.599942 -316.392794 1091.777291 -315.089351 1095.711152 L -313.21565 1101.384991 C -313.21565 1101.384991 -317.859169 1101.384991 -319.8958 1100.325874 C -322.258292 1099.039804 -323.806132 1097.072874 -324.702249 1094.500734 C -325.598367 1092.155547 -325.109576 1089.356454 -326.494485 1087.313872 C -327.146207 1086.406058 -328.042324 1085.422593 -329.264303 1085.573895 C -330.567747 1085.649546 -331.463865 1087.767779 -331.54533 1089.053849 L -331.789726 1094.500734 C -331.871191 1096.16506 -331.056538 1097.905037 -330.160421 1099.266758 C -327.960859 1102.595409 -324.702249 1104.637991 -321.036313 1106.151015 C -317.044516 1107.739689 -313.460046 1108.344899 -309.142388 1108.42055 C -305.476452 1108.42055 -299.285093 1107.890992 -295.863553 1106.680573 C -291.62736 1105.318852 -289.183403 1103.503224 -285.924793 1100.477177 C -284.132558 1098.812851 -282.910579 1096.316362 -282.095927 1093.971175 C -281.118344 1091.247733 -281.444205 1086.481709 -281.444205 1086.481709 C -285.680398 1088.070384 -289.264868 1090.264268 -292.604943 1092.685105 C -296.270879 1095.55985 -299.529489 1098.812851 -302.543703 1102.292805 L -302.869564 1055.313425 C -298.470441 1060.1551 -295.374762 1064.467217 -290.975638 1068.022822 C -287.309702 1071.124521 -285.436002 1072.259288 -281.770066 1073.469707 C -282.829114 1069.687148 -283.154975 1067.417613 -285.843328 1063.635054 C -289.590729 1058.415123 -293.256665 1052.741285 -297.818719 1047.521354 C -289.427799 1046.159633 -281.118344 1045.781377 -272.645958 1045.781377 C -264.173573 1045.781377 -255.864118 1046.159633 -247.473198 1047.521354 C -252.035252 1052.741285 -255.701188 1058.415123 -259.448589 1063.635054 C -262.136942 1067.417613 -262.462803 1069.687148 -263.521851 1073.469707 C -259.855915 1072.259288 -257.982215 1071.124521 -254.316279 1068.022822 C -249.917155 1064.467217 -246.821476 1060.1551 -242.422353 1055.313425 L -242.748214 1102.292805 C -245.762428 1098.812851 -249.021038 1095.55985 -252.686974 1092.685105 C -256.027049 1090.264268 -259.611519 1088.070384 -263.847712 1086.481709 C -263.847712 1086.481709 -264.173573 1091.247733 -263.19599 1093.971175 C -262.381338 1096.316362 -261.159359 1098.812851 -259.367124 1100.477177 C -256.108514 1103.503224 -253.664557 1105.318852 -249.428364 1106.680573 C -246.006824 1107.890992 -239.815465 1108.42055 -236.149529 1108.42055 C -231.831871 1108.344899 -228.247401 1107.739689 -224.255604 1106.151015 C -220.589668 1104.637991 -217.331058 1102.595409 -215.131496 1099.266758 C -214.235379 1097.905037 -213.420726 1096.16506 -213.502191 1094.500734 L -213.746587 1089.053849 C -213.828052 1087.767779 -214.72417 1085.649546 -216.027614 1085.573895 C -217.249593 1085.422593 -218.14571 1086.406058 -218.797432 1087.313872 C -220.182341 1089.356454 -219.69355 1092.155547 -220.589668 1094.500734 C -221.485785 1097.072874 -223.033625 1099.039804 -225.396117 1100.325874 C -227.432748 1101.384991 -232.076267 1101.384991 -232.076267 1101.384991 L -230.202566 1095.711152 C -228.899123 1091.777291 -231.261615 1088.599942 -231.913337 1084.514779 C -232.402128 1081.866987 -232.483593 1078.916592 -231.424545 1076.420103 C -230.202566 1073.772312 -227.92154 1071.275823 -225.233187 1070.292358 C -224.255604 1069.914102 -223.033625 1069.914102 -222.056042 1070.065404 C -220.508202 1070.292358 -216.190545 1072.107986 -216.190545 1072.107986 C -216.190545 1072.107986 -216.27201 1066.888055 -215.946149 1064.467217 C -215.457357 1061.44117 -213.828052 1057.734262 -212.198748 1055.237774 C -209.510395 1051.001308 -205.437132 1047.143098 -204.948341 1046.764842 C -204.541015 1047.143098 -200.793613 1051.15261 -198.349656 1055.540378 C -196.964747 1058.18817 -194.439324 1063.786357 -194.113463 1066.812404 C -193.950533 1069.308892 -194.765185 1073.394056 -194.765185 1073.394056 C -194.765185 1073.394056 -191.832437 1072.410591 -190.366062 1072.334939 C -189.307014 1072.259288 -188.085035 1072.259288 -187.188918 1072.713195 C -184.500565 1073.923614 -182.463934 1076.571405 -181.404885 1079.294847 C -180.508768 1081.791336 -180.834629 1084.741732 -181.404885 1087.313872 C -182.382468 1091.399036 -186.2928 1094.576385 -185.233752 1098.585897 L -183.767377 1104.335386 C -183.767377 1104.335386 -188.410896 1104.032782 -190.366062 1102.822363 C -192.647089 1101.384991 -194.031998 1099.266758 -194.765185 1096.694618 C -195.416907 1094.27378 -194.113463 1091.625989 -194.765185 1089.280803 C -195.091046 1088.070384 -195.416907 1086.027802 -196.720351 1086.103453 C -198.023795 1086.103453 -199.571635 1087.919081 -199.571635 1089.205151 C -199.6531 1091.247733 -199.6531 1093.290315 -199.6531 1095.257245 C -199.6531 1098.812851 -197.209143 1101.914549 -194.439324 1104.335386 C -190.691923 1107.588387 -186.374265 1109.479666 -180.345837 1108.874457 C -171.466126 1108.117945 -163.401066 1099.871967 -159.898061 1093.290315 C -177.494554 1096.618967 -173.910083 1097.980688 -180.590233 1099.115455 L -169.592425 1060.306402 C -166.333815 1069.914102 -163.238136 1079.597452 -153.788168 1086.708663 C -152.077398 1076.2688 -156.883847 1063.710705 -161.445901 1050.774354 C -150.122232 1051.303913 -140.020541 1052.968238 -131.222295 1055.994285 C -138.798563 1069.233241 -144.908456 1081.866987 -150.122232 1094.349431 C -158.268756 1108.117945 -168.451912 1114.926551 -179.286789 1115.53176 C -184.663495 1115.758714 -189.71434 1115.53176 -194.846651 1112.657016 C -198.919913 1110.463132 -203.156105 1107.437085 -206.49618 1103.124968 C -206.49618 1103.124968 -213.339261 1109.177062 -217.575454 1111.219643 C -222.544834 1113.640481 -228.165935 1115.229156 -233.624107 1115.53176 C -239.326674 1115.834365 -246.821476 1114.8509 -252.279648 1113.186574 C -257.656354 1111.446597 -260.426172 1109.252713 -264.662365 1105.697108 C -267.676579 1103.049317 -272.645958 1095.484199 -272.645958 1095.484199 Z M -272.645958 1095.484199 " transform="matrix(0.0479499,0,0,0.051635,125.573345,-36.850505)"/>
<path style="fill-rule:nonzero;fill:rgb(100%,100%,100%);fill-opacity:1;stroke-width:1.176461;stroke-linecap:butt;stroke-linejoin:miter;stroke:rgb(0%,0%,0%);stroke-opacity:1;stroke-miterlimit:4;" d="M 323.552058 406.122383 C 323.552058 408.921477 322.085683 411.493617 319.723191 412.930989 C 317.360699 414.29271 314.42795 414.29271 312.065458 412.930989 C 309.702966 411.493617 308.236592 408.921477 308.236592 406.122383 C 308.236592 403.32329 309.702966 400.75115 312.065458 399.389429 C 314.42795 397.952056 317.360699 397.952056 319.723191 399.389429 C 322.085683 400.75115 323.552058 403.32329 323.552058 406.122383 Z M 202.087379 416.86485 C 202.087379 419.663943 200.621005 422.236083 198.258513 423.673456 C 195.89602 425.035177 192.963272 425.035177 190.60078 423.673456 C 188.156822 422.236083 186.690448 419.663943 186.771913 416.86485 C 186.690448 414.065757 188.156822 411.493617 190.60078 410.131895 C 192.963272 408.694523 195.89602 408.694523 198.258513 410.131895 C 200.621005 411.493617 202.087379 414.065757 202.087379 416.86485 Z M 429.70127 416.86485 C 429.70127 419.663943 431.167645 422.236083 433.530137 423.673456 C 435.892629 425.035177 438.825378 425.035177 441.18787 423.673456 C 443.631827 422.236083 445.098201 419.663943 445.016736 416.86485 C 445.098201 414.065757 443.631827 411.493617 441.18787 410.131895 C 438.825378 408.694523 435.892629 408.694523 433.530137 410.131895 C 431.167645 411.493617 429.70127 414.065757 429.70127 416.86485 Z M 429.70127 416.86485 " transform="matrix(0.0479499,0,0,0.051635,97.3529,-2.0717)"/>
<path style="fill-rule:nonzero;fill:rgb(100%,78.039217%,17.254902%);fill-opacity:1;stroke-width:1.176461;stroke-linecap:butt;stroke-linejoin:miter;stroke:rgb(0%,0%,0%);stroke-opacity:1;stroke-miterlimit:4;" d="M -346.485411 1090.733371 L -329.597689 1090.740622 L -327.35408 1094.498969 L -329.519528 1098.321111 L -346.488596 1098.309446 L -349.138932 1094.529028 Z M -346.485411 1090.733371 " transform="matrix(0.0478795,-0.00279782,0.00259815,0.0515592,122.708772,-37.710613)"/>
<path style=" stroke:none;fill-rule:nonzero;fill:rgb(96.470588%,87.843138%,47.058824%);fill-opacity:1;" d="M 116.046875 19.496094 L 115.238281 19.449219 L 115.121094 19.636719 L 115.214844 19.839844 L 116.027344 19.886719 L 116.164062 19.699219 Z M 116.046875 19.496094 "/>
<path style="fill-rule:nonzero;fill:rgb(100%,78.039217%,17.254902%);fill-opacity:1;stroke-width:1.176461;stroke-linecap:butt;stroke-linejoin:miter;stroke:rgb(0%,0%,0%);stroke-opacity:1;stroke-miterlimit:4;" d="M -346.485085 1090.733383 L -329.597363 1090.740634 L -327.353755 1094.498981 L -329.519203 1098.321123 L -346.48827 1098.309458 L -349.138607 1094.52904 Z M -346.485085 1090.733383 " transform="matrix(-0.0478795,-0.00279782,-0.00259815,0.0515592,102.291243,-37.710613)"/>
<path style=" stroke:none;fill-rule:evenodd;fill:rgb(100%,78.039217%,17.254902%);fill-opacity:1;" d="M 107.390625 22.878906 C 107.390625 22.878906 107.96875 22.832031 108.984375 22.769531 C 110.003906 22.710938 111.097656 22.675781 111.652344 22.675781 L 113.347656 22.675781 C 113.890625 22.675781 115.003906 22.710938 116.015625 22.769531 C 117.027344 22.832031 117.601562 22.886719 117.601562 22.886719 L 117.957031 21.179688 C 117.957031 21.179688 114.324219 20.828125 112.5 20.828125 C 110.675781 20.828125 107.046875 21.179688 107.046875 21.179688 Z M 107.390625 22.878906 "/>
<path style="fill:none;stroke-width:1.176461;stroke-linecap:butt;stroke-linejoin:miter;stroke:rgb(0%,0%,0%);stroke-opacity:1;stroke-miterlimit:4;" d="M 496.47712 341.747167 C 534.521389 341.671516 572.484192 343.789749 610.365531 347.950563 L 603.440985 381.237081 C 565.804042 377.908429 535.01018 377.000615 496.965911 376.69801 M 497.454703 341.747167 C 459.410434 341.671516 421.44763 343.789749 383.566292 347.950563 L 390.490838 381.237081 C 428.12778 377.908429 458.921642 377.000615 496.965911 376.69801 " transform="matrix(0.0479499,0,0,0.051635,88.670536,3.201534)"/>
<path style="fill-rule:nonzero;fill:rgb(100%,78.039217%,17.254902%);fill-opacity:1;stroke-width:1.330036;stroke-linecap:butt;stroke-linejoin:miter;stroke:rgb(0%,0%,0%);stroke-opacity:1;stroke-miterlimit:4;" d="M -644.332215 561.74 L -644.332215 561.837761 L -644.412788 561.837761 C -657.787943 563.010901 -673.258001 564.379565 -686.713729 566.823607 C -688.647486 569.854219 -688.808633 572.493784 -685.343984 574.742303 C -672.371696 572.396022 -657.062784 571.027359 -643.687629 569.756457 C -625.558655 568.387794 -607.268534 567.507939 -588.978412 567.312415 L -554.009635 567.312415 C -543.13225 567.312415 -520.007736 568.094509 -499.300418 569.756457 C -478.673674 571.418406 -457.644063 574.742303 -457.644063 574.742303 C -454.018268 572.298261 -454.421134 569.658695 -456.354892 566.823607 C -456.354892 566.823607 -477.626222 563.401948 -498.736406 561.74 C -519.685443 560.078051 -542.648811 559.295958 -554.009635 559.295958 L -588.978412 559.295958 C -607.510253 559.295958 -625.880947 560.469098 -644.332215 561.74 Z M -644.332215 561.74 " transform="matrix(0.0484807,0,0,0.0399569,140.206458,-1.55865)"/>
<path style=" stroke:none;fill-rule:nonzero;fill:rgb(100%,78.039217%,17.254902%);fill-opacity:1;" d="M 109.21875 22.664062 L 109.214844 22.664062 C 108.613281 22.714844 107.914062 22.769531 107.304688 22.867188 C 107.21875 22.984375 107.210938 23.09375 107.367188 23.179688 C 107.953125 23.089844 108.640625 23.03125 109.246094 22.980469 C 110.0625 22.925781 110.886719 22.894531 111.710938 22.882812 L 113.289062 22.882812 C 113.78125 22.882812 114.820312 22.917969 115.753906 22.984375 C 116.683594 23.046875 117.632812 23.179688 117.632812 23.179688 C 117.792969 23.085938 117.777344 22.976562 117.6875 22.867188 C 117.6875 22.867188 116.730469 22.730469 115.78125 22.664062 C 114.835938 22.597656 113.796875 22.5625 113.289062 22.5625 L 111.710938 22.5625 C 110.878906 22.566406 110.046875 22.613281 109.21875 22.664062 Z M 109.21875 22.664062 "/>
<path style="fill:none;stroke-width:1.379316;stroke-linecap:butt;stroke-linejoin:miter;stroke:rgb(0%,0%,0%);stroke-opacity:1;stroke-miterlimit:4;" d="M -644.283886 561.782815 L -644.370541 561.782815 C -657.71536 563.053716 -673.226546 564.42238 -686.744674 566.866422 C -688.651077 569.799272 -688.824386 572.536599 -685.358199 574.687356 C -672.359999 572.438838 -657.108777 570.972412 -643.677303 569.701511 C -625.566478 568.332847 -607.282342 567.9418 -588.998207 567.746277 L -553.989721 567.746277 C -543.071232 567.746277 -520.02109 568.137324 -499.310624 569.799272 C -478.686813 571.363459 -457.629728 574.687356 -457.629728 574.687356 C -454.076887 572.341076 -454.423506 569.603749 -456.416563 566.866422 C -456.416563 566.866422 -477.646957 563.444763 -498.704042 561.782815 C -519.674472 560.120866 -542.724614 559.729819 -553.989721 559.729819 L -588.998207 559.729819 C -607.455652 559.827581 -625.913096 560.511913 -644.283886 561.782815 Z M -644.283886 561.782815 " transform="matrix(0.0450784,0,0,0.0399569,138.262008,0.216983)"/>
<path style="fill:none;stroke-width:2.660071;stroke-linecap:butt;stroke-linejoin:miter;stroke:rgb(0%,0%,0%);stroke-opacity:1;stroke-miterlimit:4;" d="M 2843.103721 823.595962 L 2926.577578 823.595962 C 2928.189042 823.595962 2929.63936 824.964626 2929.63936 826.528812 L 2929.63936 879.711165 C 2929.63936 881.470875 2928.189042 882.644016 2926.577578 882.644016 L 2843.103721 882.644016 C 2841.492257 882.644016 2840.041939 881.470875 2840.041939 879.711165 L 2840.041939 826.528812 C 2840.041939 824.964626 2841.492257 823.595962 2843.103721 823.595962 Z M 2843.103721 823.595962 " transform="matrix(0.0242404,0,0,0.0199784,42.570384,4.780219)"/>
<path style="fill-rule:evenodd;fill:rgb(0.392157%,12.941177%,41.176471%);fill-opacity:1;stroke-width:2.660071;stroke-linecap:butt;stroke-linejoin:miter;stroke:rgb(62.7451%,53.725493%,17.254902%);stroke-opacity:1;stroke-miterlimit:4;" d="M 2854.867412 831.416877 L 2914.813888 831.416877 C 2917.714523 831.416877 2919.970574 833.567634 2919.970574 836.500484 L 2919.970574 869.739454 C 2919.970574 872.672305 2917.714523 875.018585 2914.813888 875.018585 L 2854.867412 875.018585 C 2851.966776 875.018585 2849.710725 872.672305 2849.710725 869.739454 L 2849.710725 836.500484 C 2849.710725 833.567634 2851.966776 831.416877 2854.867412 831.416877 Z M 2854.867412 831.416877 " transform="matrix(0.0242404,0,0,0.0199784,42.570384,4.78022)"/>
<path style="fill-rule:evenodd;fill:rgb(16.862746%,58.823532%,96.470588%);fill-opacity:1;stroke-width:2.660071;stroke-linecap:butt;stroke-linejoin:miter;stroke:rgb(62.7451%,53.725493%,17.254902%);stroke-opacity:1;stroke-miterlimit:4;" d="M 2918.520256 873.454398 C 2917.553377 874.432015 2916.264206 875.018585 2914.813888 875.018585 L 2854.867412 875.018585 C 2853.417094 875.018585 2852.127922 874.432015 2851.161043 873.454398 C 2850.355311 872.476781 2849.710725 871.303641 2849.710725 869.739454 L 2849.710725 836.500484 C 2849.710725 835.13182 2850.355311 833.763157 2851.161043 832.78554 C 2852.127922 832.003447 2919.325988 872.476781 2918.520256 873.454398 Z M 2918.520256 873.454398 " transform="matrix(0.0242404,0,0,0.0199784,42.570384,4.78022)"/>
<path style="fill-rule:evenodd;fill:rgb(0.392157%,12.941177%,41.176471%);fill-opacity:1;stroke-width:2.660071;stroke-linecap:butt;stroke-linejoin:miter;stroke:rgb(0%,0%,0%);stroke-opacity:1;stroke-miterlimit:4;" d="M 2918.520256 873.454398 C 2917.553377 874.432015 2916.264206 875.018585 2914.813888 875.018585 L 2854.867412 875.018585 C 2853.417094 875.018585 2852.127922 874.432015 2851.161043 873.454398 C 2850.355311 872.476781 2849.710725 871.303641 2849.710725 869.739454 L 2849.710725 836.500484 C 2849.710725 835.13182 2850.355311 833.763157 2851.161043 832.78554 C 2851.644483 832.394493 2869.209445 842.561708 2886.290968 852.924446 C 2902.889051 862.896137 2918.842549 873.063351 2918.520256 873.454398 Z M 2918.520256 873.454398 " transform="matrix(0.0242404,0,0,0.0199784,42.570384,4.78022)"/>
<path style="fill-rule:evenodd;fill:rgb(0.392157%,12.941177%,41.176471%);fill-opacity:1;stroke-width:2.660071;stroke-linecap:butt;stroke-linejoin:miter;stroke:rgb(0%,0%,0%);stroke-opacity:1;stroke-miterlimit:4;" d="M 2918.520256 832.78554 C 2919.325988 833.763157 2919.970574 835.13182 2919.970574 836.500484 L 2919.970574 869.739454 C 2919.970574 871.303641 2919.325988 872.476781 2918.520256 873.454398 C 2917.553377 874.432015 2916.264206 875.018585 2914.813888 875.018585 L 2854.867412 875.018585 C 2853.417094 875.018585 2852.127922 874.432015 2851.161043 873.454398 C 2850.355311 872.476781 2917.553377 832.003447 2918.520256 832.78554 Z M 2918.520256 832.78554 " transform="matrix(0.0242404,0,0,0.0199784,42.570384,4.78022)"/>
<path style="fill-rule:evenodd;fill:rgb(0.392157%,12.941177%,41.176471%);fill-opacity:1;stroke-width:2.660071;stroke-linecap:butt;stroke-linejoin:miter;stroke:rgb(0%,0%,0%);stroke-opacity:1;stroke-miterlimit:4;" d="M 2918.520256 873.454398 C 2917.553377 874.432015 2916.264206 875.018585 2914.813888 875.018585 L 2854.867412 875.018585 C 2853.417094 875.018585 2852.127922 874.432015 2851.161043 873.454398 C 2850.677604 873.063351 2867.759127 862.309567 2884.84065 851.946829 C 2884.84065 851.946829 2919.325988 872.476781 2918.520256 873.454398 Z M 2918.520256 873.454398 " transform="matrix(0.0242404,0,0,0.0199784,42.570384,4.78022)"/>
<path style="fill:none;stroke-width:2.660071;stroke-linecap:butt;stroke-linejoin:miter;stroke:rgb(0%,0%,0%);stroke-opacity:1;stroke-miterlimit:4;" d="M 2854.867412 831.416877 L 2914.813888 831.416877 C 2917.714523 831.416877 2919.970574 833.567634 2919.970574 836.500484 L 2919.970574 869.739454 C 2919.970574 872.672305 2917.714523 875.018585 2914.813888 875.018585 L 2854.867412 875.018585 C 2851.966776 875.018585 2849.710725 872.672305 2849.710725 869.739454 L 2849.710725 836.500484 C 2849.710725 833.567634 2851.966776 831.416877 2854.867412 831.416877 Z M 2854.867412 831.416877 " transform="matrix(0.0242404,0,0,0.0199784,42.570384,4.78022)"/>
<path style="fill-rule:evenodd;fill:rgb(0.392157%,12.941177%,41.176471%);fill-opacity:1;stroke-width:2.660071;stroke-linecap:butt;stroke-linejoin:miter;stroke:rgb(0%,0%,0%);stroke-opacity:1;stroke-miterlimit:4;" d="M 2865.180784 841.388568 L 2904.500515 841.388568 L 2904.500515 863.67823 L 2865.180784 863.67823 Z M 2865.180784 841.388568 " transform="matrix(0.0242404,0,0,0.0199784,42.570384,4.78022)"/>
<path style="fill-rule:evenodd;fill:rgb(100%,78.039217%,17.254902%);fill-opacity:1;stroke-width:1.428384;stroke-linecap:butt;stroke-linejoin:miter;stroke:rgb(0%,0%,0%);stroke-opacity:1;stroke-miterlimit:4;" d="M 505.38199 340.222485 L 519.684349 340.230573 C 525.617886 340.198356 530.500626 345.059182 530.423344 350.943698 L 530.426387 352.122644 C 530.441603 358.017375 525.630219 362.887964 519.696681 362.92018 L 505.394323 362.912093 C 499.475948 362.847766 494.670544 358.093699 494.670491 352.102425 L 494.652285 351.020022 C 494.652232 345.028747 499.448453 340.254701 505.38199 340.222485 Z M 505.38199 340.222485 " transform="matrix(0.0415104,-0.0043924,0.00651953,0.0397714,86.111871,10.157458)"/>
<path style="fill-rule:evenodd;fill:rgb(29.019609%,46.666667%,16.078432%);fill-opacity:1;stroke-width:1.428384;stroke-linecap:butt;stroke-linejoin:miter;stroke:rgb(0%,0%,0%);stroke-opacity:1;stroke-miterlimit:4;" d="M 505.836928 343.317472 L 519.199139 343.319946 C 523.822537 343.241254 527.561927 346.993632 527.511927 351.506115 C 527.539263 356.125357 523.849979 359.843044 519.241744 359.825194 L 505.879532 359.822719 C 501.271298 359.804869 497.516745 356.149034 497.581907 351.540007 C 497.539409 347.017308 501.228693 343.299621 505.836928 343.317472 Z M 505.836928 343.317472 " transform="matrix(0.0415104,-0.0043924,0.00651953,0.0397714,86.111871,10.157458)"/>
<path style="fill-rule:nonzero;fill:rgb(100%,78.039217%,17.254902%);fill-opacity:1;stroke-width:1.361212;stroke-linecap:butt;stroke-linejoin:miter;stroke:rgb(0%,0%,0%);stroke-opacity:1;stroke-miterlimit:4;" d="M 626.196555 310.865158 L 602.478922 298.123862 L 626.179788 286.021245 L 629.056955 299.133452 Z M 626.196555 310.865158 " transform="matrix(-0.0392295,0.00737449,0.00741636,0.0457494,129.517719,3.839903)"/>
<path style=" stroke:none;fill-rule:nonzero;fill:rgb(89.411765%,0%,16.862746%);fill-opacity:1;" d="M 107.234375 22.523438 L 107.839844 21.972656 L 107.101562 21.699219 L 106.941406 22.132812 Z M 107.234375 22.523438 "/>
<path style=" stroke:none;fill-rule:nonzero;fill:rgb(89.411765%,0%,16.862746%);fill-opacity:1;" d="M 107.234375 22.523438 L 107.839844 21.972656 L 106.949219 22.132812 Z M 107.234375 22.523438 "/>
<path style="fill:none;stroke-width:1.361212;stroke-linecap:butt;stroke-linejoin:miter;stroke:rgb(0%,0%,0%);stroke-opacity:1;stroke-miterlimit:4;" d="M 608.947818 298.105724 L 631.846191 298.086162 M 626.149755 307.457359 L 608.963482 298.188583 L 626.129959 289.444619 L 631.992457 297.806434 Z M 626.149755 307.457359 " transform="matrix(-0.0392295,0.00737449,0.00741636,0.0457494,129.517719,3.839903)"/>
<path style="fill-rule:nonzero;fill:rgb(100%,100%,100%);fill-opacity:1;stroke-width:1.176461;stroke-linecap:butt;stroke-linejoin:miter;stroke:rgb(0%,0%,0%);stroke-opacity:1;stroke-miterlimit:4;" d="M 467.461383 353.676116 C 467.461383 355.037837 466.728196 356.323907 465.587682 357.004767 C 464.365704 357.761279 462.899329 357.761279 461.758816 357.004767 C 460.536837 356.323907 459.80365 355.037837 459.80365 353.676116 C 459.80365 352.238743 460.536837 350.952673 461.758816 350.271813 C 462.899329 349.590952 464.365704 349.590952 465.587682 350.271813 C 466.728196 350.952673 467.461383 352.238743 467.461383 353.676116 Z M 467.461383 353.676116 " transform="matrix(0.0479499,0,0,0.051635,88.659494,3.257458)"/>
<path style="fill-rule:nonzero;fill:rgb(100%,100%,100%);fill-opacity:1;stroke-width:1.175804;stroke-linecap:butt;stroke-linejoin:miter;stroke:rgb(0%,0%,0%);stroke-opacity:1;stroke-miterlimit:4;" d="M 468.276035 365.855955 C 468.276035 367.217676 467.542848 368.503746 466.32087 369.260258 C 465.180356 369.941118 463.713982 369.941118 462.492003 369.260258 C 461.35149 368.503746 460.618302 367.217676 460.618302 365.855955 C 460.618302 364.494234 461.35149 363.208164 462.492003 362.451652 C 463.713982 361.770791 465.180356 361.770791 466.32087 362.451652 C 467.542848 363.208164 468.276035 364.494234 468.276035 365.855955 Z M 468.276035 365.855955 " transform="matrix(0.0479499,0,0,0.051635,88.659494,3.257458)"/>
<path style="fill-rule:nonzero;fill:rgb(100%,100%,100%);fill-opacity:1;stroke-width:1.176461;stroke-linecap:butt;stroke-linejoin:miter;stroke:rgb(0%,0%,0%);stroke-opacity:1;stroke-miterlimit:4;" d="M 416.056814 356.475209 C 416.056814 357.83693 415.323627 359.123 414.101648 359.879512 C 412.961135 360.560373 411.49476 360.560373 410.272782 359.879512 C 409.132268 359.123 408.399081 357.83693 408.399081 356.475209 C 408.399081 355.113488 409.132268 353.827418 410.272782 353.070906 C 411.49476 352.390046 412.961135 352.390046 414.101648 353.070906 C 415.323627 353.827418 416.056814 355.113488 416.056814 356.475209 Z M 416.790001 368.655048 C 416.790001 370.092421 416.138279 371.302839 414.916301 372.059351 C 413.694322 372.740212 412.309413 372.740212 411.087434 372.059351 C 409.946921 371.302839 409.213734 370.092421 409.213734 368.655048 C 409.213734 367.293327 409.946921 366.007257 411.087434 365.326397 C 412.309413 364.569885 413.694322 364.569885 414.916301 365.326397 C 416.138279 366.007257 416.790001 367.293327 416.790001 368.655048 Z M 416.790001 368.655048 " transform="matrix(0.0479499,0,0,0.051635,88.659494,3.257458)"/>
<path style="fill-rule:evenodd;fill:rgb(100%,78.039217%,17.254902%);fill-opacity:1;stroke-width:1.428384;stroke-linecap:butt;stroke-linejoin:miter;stroke:rgb(0%,0%,0%);stroke-opacity:1;stroke-miterlimit:4;" d="M 505.382338 340.222524 L 519.684697 340.230611 C 525.618234 340.198395 530.408475 345.049005 530.423691 350.943736 L 530.426735 352.122682 C 530.441951 358.017414 525.630566 362.888002 519.697029 362.920219 L 505.394671 362.912131 C 499.476296 362.847805 494.670892 358.093737 494.670839 352.102463 L 494.652633 351.02006 C 494.652579 345.028786 499.448801 340.25474 505.382338 340.222524 Z M 505.382338 340.222524 " transform="matrix(-0.0415104,-0.0043924,-0.00651953,0.0397714,138.888143,10.157458)"/>
<path style="fill-rule:evenodd;fill:rgb(29.019609%,46.666667%,16.078432%);fill-opacity:1;stroke-width:1.428384;stroke-linecap:butt;stroke-linejoin:miter;stroke:rgb(0%,0%,0%);stroke-opacity:1;stroke-miterlimit:4;" d="M 505.837275 343.31751 L 519.199487 343.319985 C 523.822884 343.241292 527.562275 346.99367 527.512275 351.506154 C 527.53961 356.125396 523.850326 359.843083 519.242092 359.825232 L 505.87988 359.822758 C 501.271645 359.804907 497.517092 356.149072 497.582255 351.540046 C 497.539757 347.017346 501.229041 343.299659 505.837275 343.31751 Z M 505.837275 343.31751 " transform="matrix(-0.0415104,-0.0043924,-0.00651953,0.0397714,138.888143,10.157458)"/>
<path style="fill-rule:nonzero;fill:rgb(100%,78.039217%,17.254902%);fill-opacity:1;stroke-width:1.361212;stroke-linecap:butt;stroke-linejoin:miter;stroke:rgb(0%,0%,0%);stroke-opacity:1;stroke-miterlimit:4;" d="M 626.196192 310.865216 L 602.478559 298.123921 L 626.179425 286.021303 L 629.056592 299.13351 Z M 626.196192 310.865216 " transform="matrix(0.0392295,0.00737449,-0.00741636,0.0457494,95.482295,3.839903)"/>
<path style=" stroke:none;fill-rule:nonzero;fill:rgb(89.411765%,0%,16.862746%);fill-opacity:1;" d="M 117.765625 22.523438 L 117.160156 21.972656 L 117.898438 21.699219 L 118.058594 22.132812 Z M 117.765625 22.523438 "/>
<path style=" stroke:none;fill-rule:nonzero;fill:rgb(89.411765%,0%,16.862746%);fill-opacity:1;" d="M 117.765625 22.523438 L 117.160156 21.972656 L 118.050781 22.132812 Z M 117.765625 22.523438 "/>
<path style="fill:none;stroke-width:1.361212;stroke-linecap:butt;stroke-linejoin:miter;stroke:rgb(0%,0%,0%);stroke-opacity:1;stroke-miterlimit:4;" d="M 608.947454 298.105783 L 631.845828 298.08622 M 626.149391 307.457418 L 608.963119 298.188642 L 626.129596 289.444678 L 631.992094 297.806493 Z M 626.149391 307.457418 " transform="matrix(0.0392295,0.00737449,-0.00741636,0.0457494,95.482295,3.839903)"/>
<path style="fill-rule:nonzero;fill:rgb(100%,100%,100%);fill-opacity:1;stroke-width:1.176461;stroke-linecap:butt;stroke-linejoin:miter;stroke:rgb(0%,0%,0%);stroke-opacity:1;stroke-miterlimit:4;" d="M 467.461689 353.676116 C 467.461689 355.037837 466.728502 356.323907 465.587989 357.004767 C 464.36601 357.761279 462.899636 357.761279 461.759122 357.004767 C 460.537144 356.323907 459.803956 355.037837 459.803956 353.676116 C 459.803956 352.238743 460.537144 350.952673 461.759122 350.271813 C 462.899636 349.590952 464.36601 349.590952 465.587989 350.271813 C 466.728502 350.952673 467.461689 352.238743 467.461689 353.676116 Z M 468.276342 365.855955 C 468.276342 367.217676 467.543154 368.503746 466.321176 369.260258 C 465.180662 369.941118 463.714288 369.941118 462.492309 369.260258 C 461.351796 368.503746 460.618609 367.217676 460.618609 365.855955 C 460.618609 364.494234 461.351796 363.208164 462.492309 362.451652 C 463.714288 361.770791 465.180662 361.770791 466.321176 362.451652 C 467.543154 363.208164 468.276342 364.494234 468.276342 365.855955 Z M 416.05712 356.475209 C 416.05712 357.83693 415.323933 359.123 414.101955 359.879512 C 412.961441 360.560373 411.495067 360.560373 410.273088 359.879512 C 409.132575 359.123 408.399387 357.83693 408.399387 356.475209 C 408.399387 355.113488 409.132575 353.827418 410.273088 353.070906 C 411.495067 352.390046 412.961441 352.390046 414.101955 353.070906 C 415.323933 353.827418 416.05712 355.113488 416.05712 356.475209 Z M 416.790308 368.655048 C 416.790308 370.092421 416.138586 371.302839 414.916607 372.059351 C 413.694628 372.740212 412.309719 372.740212 411.08774 372.059351 C 409.947227 371.302839 409.21404 370.092421 409.21404 368.655048 C 409.21404 367.293327 409.947227 366.007257 411.08774 365.326397 C 412.309719 364.569885 413.694628 364.569885 414.916607 365.326397 C 416.138586 366.007257 416.790308 367.293327 416.790308 368.655048 Z M 416.790308 368.655048 " transform="matrix(-0.0479499,0,0,0.051635,136.340521,3.257458)"/>
</g>
</svg>
