<svg xmlns="http://www.w3.org/2000/svg" width="150" height="150" viewBox="0 0 150 75"><defs><clipPath id="a"><path d="M0 0h88v44H0Zm0 0"/></clipPath><clipPath id="b"><path d="M0 0v18.75h87.5V37.5H75Zm0 37.5v6.25h37.5V0H75Zm0 0"/></clipPath></defs><path d="M0 0h150v75H0z" style="fill:#012169;fill-opacity:1;stroke:none"/><path d="m0 0 600 300m0-300L0 300" style="fill:none;stroke-width:60;stroke-linecap:butt;stroke-linejoin:miter;stroke:#fff;stroke-opacity:1;stroke-miterlimit:4" transform="scale(.125)"/><g clip-path="url(#a)"><g clip-path="url(#b)"><path d="m0 0 600 300m0-300L0 300" style="fill:none;stroke-width:40;stroke-linecap:butt;stroke-linejoin:miter;stroke:#e4002b;stroke-opacity:1;stroke-miterlimit:4" transform="scale(.125)"/></g></g><path d="M0 150h700M300 0v350" style="fill:none;stroke-width:100;stroke-linecap:butt;stroke-linejoin:miter;stroke:#fff;stroke-opacity:1;stroke-miterlimit:4" transform="scale(.125)"/><path d="M0 150h700M300 0v350" style="fill:none;stroke-width:60;stroke-linecap:butt;stroke-linejoin:miter;stroke:#e4002b;stroke-opacity:1;stroke-miterlimit:4" transform="scale(.125)"/><path d="M0 37.5h75V0h75v75H0Zm0 0" style="stroke:none;fill-rule:nonzero;fill:#012169;fill-opacity:1"/><path d="M129.164 37.5c0-9.203-7.46-16.664-16.664-16.664-9.203 0-16.664 7.46-16.664 16.664 0 9.203 7.46 16.664 16.664 16.664 9.203 0 16.664-7.46 16.664-16.664Zm0 0" style="stroke:none;fill-rule:nonzero;fill:#ffa400;fill-opacity:1"/><path d="m105.328 46.348-.086.718 14.008.008.145-.726Zm0 0" style="stroke:none;fill-rule:nonzero;fill:#40721b;fill-opacity:1"/><path d="m116.629 46.324-.317.813 1.325.05.14-.863ZM107.219 46.266l-.313.812 1.32.055.145-.867Zm0 0" style="stroke:none;fill-rule:nonzero;fill:#012169;fill-opacity:1"/><path d="m107.941 28.656-.183 2.074-.371 1.813.96 2.367.188 1c.547.477.727.88.996 1.555l1 .113.89-.187c.47-.942.442-1.73.368-2.739 1.04.246 1.762.688 2.332 1.52l.297 1.332c.727.152 1.043.043 1.629-.336l.777-1.07.371-1.407c.227-.828.457-1.652.664-2.48l-.222-1.297.148-1.812 3.332 3.293c.504 6.324-.87 6.402-6.293 8.773l-.59 2.812-.734 1.52 1.102.883 1.554 1.594-.812 1.59c-2.531.667-3.969.468-6.367-.407a2.459 2.459 0 0 1-.297-1.406l1.445-1.406c.035-.114 1.258-.649 1.418-.754l-.164-.422-.848-2.414-.703-2.442-4.07-2.48c-1.63-5.676-2.996-6.707 2.183-9.18Zm0 0" style="stroke:none;fill-rule:nonzero;fill:#fff;fill-opacity:1"/><path d="M107.281 23.898c-.351.184-.582.614-.66 1.016.195.938-.031 1.895-.039 2.852-.242-.438-.289-.957-.426-1.446-.242-.52-.336-1.3-.965-1.445-.418.613-.03 1.379-.043 2.07.079.39.504.735.235 1.172l-.89-1.25c-.298-.332-.657-.832-1.083-.82-.09.82.406 1.398.656 2.07.024.074.055.145.094.211h.016c.14.235.34.453.316.703-.332-.238-.652-.492-.976-.73h-.036c-.543-.39-1.09-.727-1.734-.848-.039.332.074.613.254.875h.02c.293.418.746.785 1 1.211l-.075.078a11.312 11.312 0 0 1-1.511-.82c-.317-.07-.63-.39-.97-.156 0 .625.4 1.113.813 1.523-.523.066-1.101-.305-1.625 0 .11.469.668.754.813 1.211-.492.266-1.149.098-1.664.313.129.37.496.632.699.976l-.117.117c-.406 0-.715.266-1.047.469.05.469.629.723.852 1.172-.376.246-.793.578-1.043.976.214.301.535.457.77.688h.019c.05.059.101.117.14.187-.281.38-.836.614-.855 1.133.273.313.719.332 1.047.586-.164.305-.485.574-.387.934.433.238.988.207 1.473.316a4.062 4.062 0 0 0-.274.977c.29.379.922.215 1.317.312-.028.313-.243.653-.27 1.016.375.242.852.031 1.277.039.25-.059.282.223.309.39.078.547.621.098.969.235l.386.664c.215.016.407-.02.582-.117.309-.196.457.168.582.351.223.352.54 0 .813 0 .2.098.281.313.426.47.289.163.453-.196.656-.352.387-.207.531.39.852.468.367-.304.773-.398 1.238-.234.515-.441.457-1.125.504-1.758.039-.11.078-.285.234-.277.184.773.629 1.62.313 2.39h-.008c-.047.106-.11.215-.192.325-.925.672-1.586 2.175-3.02 1.718-.581.516-1.644-.09-2.089.66a.753.753 0 0 0 .152.747c.352.214.934.152 1.243.113.214.129.414.25.695.2.242-.38.504-.009.773.038.282.008.512-.344.774-.156-.262.43-.559.828-.656 1.328-.028.352.542.254.39.664.082.3.406.195.578.348.02.511.578.375.89.511.095.88 1.056-.117 1.235.704.207 0 .36-.137.547-.196.23.028.402.293.54.47.386.312.53-.208.812-.392l.699.274.46-.547c.544.402.74-.398 1.24-.234.35.039.312-.364.464-.547.602.09.512-.754 1.086-.742.039-.684-.574-1.086-.738-1.68.234-.137.418.066.586.195.355.117.539-.187.812-.273.492.77.984-.293 1.625-.078.29-.098.559-.403.5-.746-.066-.157-.164-.36-.348-.387-.957.117-1.605-.528-2.59-.352l-1.628-1.562a1.211 1.211 0 0 1-.375-.403h-.016c-.309-.574-.078-1.32.082-1.921.02-.114.145-.31.309-.23.379.526.164 1.366.777 1.835.18.105.387.148.54-.04.253-.233.522.067.66.274.198.032.327-.136.464-.273.29-.246.54.105.813.156.144-.117.257-.312.382-.469.235-.136.387.125.582.196.356.11.368-.442.621-.625.282-.012.485.172.774.156l.309-.547c.308-.363.699.031 1.085-.039l.504-.742.813-.04c.21-.234.203-.566.191-.898.407-.261.977-.125 1.434-.273.027-.352-.176-.723-.309-1.055.387-.199.899-.097 1.317-.234.132-.488-.371-.86-.465-1.25l1.2-.586c-.02-.441-.571-.586-.735-.938.09-.07.183-.128.28-.187h.04c.266-.152.543-.277.8-.453l.04-.196c-.367-.402-.844-.683-1.317-.898l-.039-.117.852-.781v-.196c-.34-.343-.852-.285-1.238-.508.191-.41.812-.546.89-1.015-.242-.281-.601-.262-.93-.313-.222 0-.472.157-.656 0 .243-.449.774-.672.891-1.172-.754-.3-1.523.204-2.211.313.207-.32.457-.578.777-.781.301-.285.899-.567.735-1.016-.746 0-1.364.293-1.973.625-.445.156-.812.625-1.238.703.308-.398.812-.644 1.156-1.093.227-.25.27-.575.414-.86h.016a.958.958 0 0 1 .27-.324c.03-.227.28-.442.077-.668-.64.16-1.238.523-1.761.973h-.032a7.5 7.5 0 0 0-.878.918l-.079-.079c.18-.265.293-.55.45-.82h.015c.102-.176.223-.34.39-.484.231-.508.696-1.125.349-1.68-.993.3-1.516 1.371-2.094 2.137h-.024c-.015.023-.035.043-.05.066a.346.346 0 0 1-.047-.066h-.012c-.05-.113-.043-.25-.059-.38.551-.718.532-1.698.618-2.616.007-.157-.122-.332-.27-.235-.61.457-.773 1.16-1.043 1.797l-.078-.078v-1.562c-.04-.422-.188-.938-.621-1.055-.445.437-.27 1.133-.465 1.68-.172 0-.203-.207-.309-.313-.058-.059-.191-.059-.23.04-.05.925-.055 1.827-.027 2.722 0 .008-.004.02 0 .027.035 1.305.132 2.59.218 3.906-.593 1.18-.507 2.637-.875 3.43-.367.79-.617 1.152-.984 1.469-.34.262-.754-.012-1.156.078-.223-.273-.207-.656-.313-.977-.023-.058-.043-.117-.07-.172h-.008c-.598-1.335-2.105-1.71-3.289-2.187-.137-.016-.312-.047-.473-.047-.168-.004-.32.024-.418.125.426.219.871.461 1.16.899l-.074.078c-.359-.125-.773-.235-1.164-.196.235.657 1.008.735 1.395 1.25l.012.102h.003c.051.437.059.934-.367 1.203-.316.215-.46-.215-.73-.234-.274-.032-.614.242-.817-.078-.043-.368-.289-.641-.562-.95-.277-.308-.54-.656-.402-1.175-.477-.946-.786-1.954-.817-3.086.137-1.133.496-2.282.664-3.438h.004c.129-.898.14-1.805-.164-2.71-.289.019-.328.37-.578.468l-.078-.078a9.008 9.008 0 0 0-.117-1.797Zm.309 5.641c.02.586.152 1.172-.117 1.68.086-.555-.801-1.336.117-1.68Zm10.37.469c.228.008.208.265.313.39-.085.325-.32.684-.156 1.016.211-.137.195-.508.465-.586-.039.418-.191.879-.465 1.25-.289-.594-.27-1.406-.156-2.07Zm-11.105.469c.243.312.204.808.31 1.21-.212-.324-.571-.8-.31-1.21Zm12.153.82c-.047.371-.367.723-.617 1.055h-.04c.028-.38.356-.801.657-1.055Zm-12.578.039c.261.168.414.516.617.781-.156.77-.281 1.504-.117 2.305-.258.008-.453-.145-.657-.274a.655.655 0 0 1-.117-.468c.196-.086.371.332.582.078-.047-.383-.531-.508-.66-.86.281-.195.555.41.738 0-.117-.332-.765-.457-.582-.898l.387.195c.02-.32-.289-.554-.191-.86Zm12.656.664c.125-.02.184.129.152.234-.078.383-.55.645-.851.899-.125-.43.39-.79.699-1.133Zm.191.977c.176.07 0 .183 0 .273-.175.273-.53.262-.812.352.097-.266.492-.536.812-.625Zm-.386.78c.058 0 .164-.007.156.079.02.371-.406.195-.582.352-.106-.227.262-.352.426-.43Zm-7.938.43c.39-.019.68.274.66.665-.086.195.051.554-.27.586-.269-.02-.484-.165-.698-.313.261-.125.652.266.894-.04.047-.401-.352-.612-.582-.898Zm-2.976.47c.277.39.148.995.406 1.429h.02a.865.865 0 0 0 .269.262c.387.257.496.695.621 1.097.027.36-.164.672-.465.856-.164.011-.281-.106-.273-.27-.067-.129.148-.234-.04-.312-.199.136-.386.422-.656.273-.097-.273.157-.5.235-.742-.313-.04-.535.477-.93.234-.086-.332.191-.507.348-.742-.309-.176-.543.176-.852 0 .02-.285.492-.383.735-.59a1.845 1.845 0 0 1-.13-.086h-.038c-.188-.132-.391-.304-.41-.55.355-.196.597.375.925.117.012-.293-.336-.547-.152-.82.137.058.23.207.347.312.243-.066.028-.313.04-.469Zm9.484.038c.066.176-.145.332.035.47.215-.02.215-.294.465-.235.195.41-.637.566-.27.86.211-.08.461-.321.696-.118-.008.215-.192.285-.34.387h-.031a.321.321 0 0 0-.13.175c.337.02.657.145.848.43.063.156-.113.211-.23.191-.293.06-.59-.117-.813 0 .172.305.63.352.582.786-.398.156-.652-.266-1.007-.313-.098.281.367.43.308.742-.355.117-.617-.246-.89-.394-.067.187.058.383.156.55-.281.137-.563-.07-.7-.312-.386-.559.34-.937.505-1.41.132-.125.226-.27.3-.418h.016c.215-.441.27-.953.5-1.39Zm-5.2.309c.052-.004.09.008.09.082.008.078-.011.207-.117.156h-.117v-.234c.04.015.098 0 .145-.004Zm1.094.707c.188.086.336.219.446.375h.015c.192.285.27.648.274 1.008-.38 1.386-.184 3.008.426 4.218l-.153.977c-.511-.078-.148.543-.312.781-.063.266-.18.508-.313.746h-.015c-.094.164-.196.32-.29.48l.192.114c-.23.746-.531 1.496-1.2 2.035-.76-.468-1.054-1.347-1.277-2.148h.274a1.703 1.703 0 0 0-.156-.477h-.012c-.11-.222-.242-.449-.336-.672-.195-.304.25-.91-.234-.902l-.079.082c-.753-1.387.563-2.578.465-4.027.106-.254-.25-.7.235-.66.675.015 1.265-.344 1.625-.942.11-.172.117-.402.16-.613h.004c.039-.16.101-.3.261-.375Zm.696 8.742c.281.332.699.309 1.047.469.367.3.742.633 1.043 1.016-.805-.07-1.914.398-2.399-.547Zm-3.262.234c.156.008.262.168.281.626-.414.878-1.5.761-2.36.703.048-.286.474-.54.735-.743.414.102 1-.609 1.344-.586Zm.129 1.407c-.496.664-1.219 1.093-1.781 1.758h-.117c.058-.547.746-.813 1.12-1.211Zm2.477 0h.117c.793.781 1.383 1.543 2.05 2.383.012.125 0 .242-.117.312-.668-.937-1.472-1.719-2.05-2.695Zm.543 0c.707.508 1.273 1.18 1.894 1.836v.117c-.707-.547-1.305-1.29-1.894-1.953Zm-.7.27 1.703 2.425c-.02.098.051.223-.078.273-.465-.898-1.468-1.68-1.625-2.699Zm2.418.066c.207-.004.406.039.524.172-.04.125-.055.261-.192.351-.367.145-.62-.234-.89-.433.14-.043.351-.086.558-.09Zm3.23.004c.165-.004.31.027.391.168-.117.644-.93.234-1.39.351.027-.266.316-.383.5-.508.152.024.332-.008.5-.011Zm-1.523.007c.11-.004.211.008.29.079.007.187-.196.343-.348.394-.188.078-.446.04-.543-.117-.047-.215.125-.293.273-.352.102.012.219-.004.328-.004Zm-9.718.036c.117 0 .234.015.332.043.105.167 0 .414-.196.433-.281-.031-.465.067-.695-.078a.722.722 0 0 1 .23-.355c.098-.028.215-.043.329-.043Zm1.648 0a.83.83 0 0 1 .27.043c-.223.128-.446.707-.852.433-.031-.195.172-.332.309-.433a.854.854 0 0 1 .273-.043Zm1.738.007c-.222.75-1.265 1.22-1.625 1.993h-.078c.246-.805 1.125-1.368 1.703-1.993Zm.465 0c-.27.887-1.031 1.582-1.43 2.422-.066.028-.109-.039-.156-.078.438-.82.95-1.683 1.586-2.344Zm.274 0c-.079.996-.575 1.926-.852 2.891-.117.11-.262-.047-.309-.156.211-.985.774-1.828 1.16-2.735Zm-5.97.02c.286-.012.641.078.9.016l.077.082c.008.187-.195.34-.347.39-.34.02-.875.164-1.086-.156.054-.254.234-.324.457-.332Zm7.09.137h.079c.328.828.976 1.53 1.16 2.422.039.136-.125.3-.23.269-.262-.926-.852-1.719-1.008-2.691Zm-.773.195c.008.84.418 2.031-.504 2.578h-.117c-.047-.965.34-1.789.621-2.578Zm.387 0h.117c.328.8.484 1.715.465 2.617-1.14-.492-.438-1.777-.582-2.617Zm0 0" style="stroke:none;fill-rule:nonzero;fill:#231f20;fill-opacity:1"/></svg>