<?xml version="1.0" encoding="UTF-8"?>
<svg xmlns="http://www.w3.org/2000/svg" xmlns:xlink="http://www.w3.org/1999/xlink" width="150px" height="150px" viewBox="0 0 150 75" version="1.1">
<defs>
<clipPath id="clip1">
  <path d="M 0 0 L 88 0 L 88 44 L 0 44 Z M 0 0 "/>
</clipPath>
<clipPath id="clip2">
  <path d="M 0 0 L 0 18.75 L 87.5 18.75 L 87.5 37.5 L 75 37.5 Z M 0 37.5 L 0 43.75 L 37.5 43.75 L 37.5 0 L 75 0 Z M 0 37.5 "/>
</clipPath>
</defs>
<g id="surface1">
<rect x="0" y="0" width="150" height="75" style="fill:rgb(0.392157%,12.941177%,41.176471%);fill-opacity:1;stroke:none;"/>
<path style="fill:none;stroke-width:60;stroke-linecap:butt;stroke-linejoin:miter;stroke:rgb(100%,100%,100%);stroke-opacity:1;stroke-miterlimit:4;" d="M 0 0 L 600 300 M 600 0 L 0 300 " transform="matrix(0.125,0,0,0.125,0,0)"/>
<g clip-path="url(#clip1)" clip-rule="nonzero">
<g clip-path="url(#clip2)" clip-rule="nonzero">
<path style="fill:none;stroke-width:40;stroke-linecap:butt;stroke-linejoin:miter;stroke:rgb(89.411765%,0%,16.862746%);stroke-opacity:1;stroke-miterlimit:4;" d="M 0 0 L 600 300 M 600 0 L 0 300 " transform="matrix(0.125,0,0,0.125,0,0)"/>
</g>
</g>
<path style="fill:none;stroke-width:100;stroke-linecap:butt;stroke-linejoin:miter;stroke:rgb(100%,100%,100%);stroke-opacity:1;stroke-miterlimit:4;" d="M 0 150 L 700 150 M 300 0 L 300 350 " transform="matrix(0.125,0,0,0.125,0,0)"/>
<path style="fill:none;stroke-width:60;stroke-linecap:butt;stroke-linejoin:miter;stroke:rgb(89.411765%,0%,16.862746%);stroke-opacity:1;stroke-miterlimit:4;" d="M 0 150 L 700 150 M 300 0 L 300 350 " transform="matrix(0.125,0,0,0.125,0,0)"/>
<path style=" stroke:none;fill-rule:nonzero;fill:rgb(0.392157%,12.941177%,41.176471%);fill-opacity:1;" d="M 0 37.5 L 75 37.5 L 75 0 L 150 0 L 150 75 L 0 75 Z M 0 37.5 "/>
<path style=" stroke:none;fill-rule:nonzero;fill:rgb(100%,64.313728%,0%);fill-opacity:1;" d="M 129.164062 37.5 C 129.164062 28.296875 121.703125 20.835938 112.5 20.835938 C 103.296875 20.835938 95.835938 28.296875 95.835938 37.5 C 95.835938 46.703125 103.296875 54.164062 112.5 54.164062 C 121.703125 54.164062 129.164062 46.703125 129.164062 37.5 Z M 129.164062 37.5 "/>
<path style=" stroke:none;fill-rule:nonzero;fill:rgb(25.098041%,44.705883%,10.588235%);fill-opacity:1;" d="M 105.328125 46.347656 L 105.242188 47.066406 L 119.25 47.074219 L 119.394531 46.347656 Z M 105.328125 46.347656 "/>
<path style=" stroke:none;fill-rule:nonzero;fill:rgb(0.392157%,12.941177%,41.176471%);fill-opacity:1;" d="M 116.628906 46.324219 L 116.3125 47.136719 L 117.636719 47.1875 L 117.777344 46.324219 Z M 116.628906 46.324219 "/>
<path style=" stroke:none;fill-rule:nonzero;fill:rgb(0.392157%,12.941177%,41.176471%);fill-opacity:1;" d="M 107.21875 46.265625 L 106.90625 47.078125 L 108.226562 47.132812 L 108.371094 46.265625 Z M 107.21875 46.265625 "/>
<path style=" stroke:none;fill-rule:nonzero;fill:rgb(100%,100%,100%);fill-opacity:1;" d="M 107.941406 28.65625 L 107.757812 30.730469 L 107.386719 32.542969 L 108.347656 34.910156 L 108.535156 35.910156 C 109.082031 36.386719 109.261719 36.789062 109.53125 37.464844 L 110.53125 37.578125 L 111.421875 37.390625 C 111.890625 36.449219 111.863281 35.660156 111.789062 34.652344 C 112.828125 34.898438 113.550781 35.339844 114.121094 36.171875 L 114.417969 37.503906 C 115.144531 37.65625 115.460938 37.546875 116.046875 37.167969 L 116.824219 36.097656 L 117.195312 34.691406 C 117.421875 33.863281 117.652344 33.039062 117.859375 32.210938 L 117.636719 30.914062 L 117.785156 29.101562 L 121.117188 32.394531 C 121.621094 38.71875 120.246094 38.796875 114.824219 41.167969 L 114.234375 43.980469 L 113.5 45.5 L 114.601562 46.382812 L 116.15625 47.976562 L 115.34375 49.566406 C 112.8125 50.234375 111.375 50.035156 108.976562 49.160156 C 108.726562 48.675781 108.644531 48.273438 108.679688 47.753906 L 110.125 46.347656 C 110.160156 46.234375 111.382812 45.699219 111.542969 45.59375 L 111.378906 45.171875 L 110.53125 42.757812 L 109.828125 40.316406 L 105.757812 37.835938 C 104.128906 32.160156 102.761719 31.128906 107.941406 28.65625 Z M 107.941406 28.65625 "/>
<path style=" stroke:none;fill-rule:nonzero;fill:rgb(13.725491%,12.156863%,12.54902%);fill-opacity:1;" d="M 107.28125 23.898438 C 106.929688 24.082031 106.699219 24.511719 106.621094 24.914062 C 106.816406 25.851562 106.589844 26.808594 106.582031 27.765625 C 106.339844 27.328125 106.292969 26.808594 106.15625 26.320312 C 105.914062 25.800781 105.820312 25.019531 105.191406 24.875 C 104.773438 25.488281 105.160156 26.253906 105.148438 26.945312 C 105.226562 27.335938 105.652344 27.679688 105.382812 28.117188 L 104.492188 26.867188 C 104.195312 26.535156 103.835938 26.035156 103.410156 26.046875 C 103.320312 26.867188 103.816406 27.445312 104.066406 28.117188 C 104.089844 28.191406 104.121094 28.261719 104.160156 28.328125 L 104.175781 28.328125 C 104.316406 28.5625 104.515625 28.78125 104.492188 29.03125 C 104.160156 28.792969 103.839844 28.539062 103.515625 28.300781 L 103.480469 28.300781 C 102.9375 27.910156 102.390625 27.574219 101.746094 27.453125 C 101.707031 27.785156 101.820312 28.066406 102 28.328125 L 102.019531 28.328125 C 102.3125 28.746094 102.765625 29.113281 103.019531 29.539062 L 102.945312 29.617188 C 102.421875 29.382812 101.917969 29.109375 101.433594 28.796875 C 101.117188 28.726562 100.804688 28.40625 100.464844 28.640625 C 100.464844 29.265625 100.863281 29.753906 101.277344 30.164062 C 100.753906 30.230469 100.175781 29.859375 99.652344 30.164062 C 99.761719 30.632812 100.320312 30.917969 100.464844 31.375 C 99.972656 31.640625 99.316406 31.472656 98.800781 31.6875 C 98.929688 32.058594 99.296875 32.320312 99.5 32.664062 L 99.382812 32.78125 C 98.976562 32.78125 98.667969 33.046875 98.335938 33.25 C 98.386719 33.71875 98.964844 33.972656 99.1875 34.421875 C 98.8125 34.667969 98.394531 35 98.144531 35.398438 C 98.359375 35.699219 98.679688 35.855469 98.914062 36.085938 L 98.933594 36.085938 C 98.984375 36.144531 99.035156 36.203125 99.074219 36.273438 C 98.792969 36.652344 98.238281 36.886719 98.21875 37.40625 C 98.492188 37.71875 98.9375 37.738281 99.265625 37.992188 C 99.101562 38.296875 98.78125 38.566406 98.878906 38.925781 C 99.3125 39.164062 99.867188 39.132812 100.351562 39.242188 C 100.226562 39.550781 100.125 39.875 100.078125 40.21875 C 100.367188 40.597656 101 40.433594 101.394531 40.53125 C 101.367188 40.84375 101.152344 41.183594 101.125 41.546875 C 101.5 41.789062 101.976562 41.578125 102.402344 41.585938 C 102.652344 41.527344 102.683594 41.808594 102.710938 41.976562 C 102.789062 42.523438 103.332031 42.074219 103.679688 42.210938 L 104.066406 42.875 C 104.28125 42.890625 104.472656 42.855469 104.648438 42.757812 C 104.957031 42.5625 105.105469 42.925781 105.230469 43.109375 C 105.453125 43.460938 105.769531 43.109375 106.042969 43.109375 C 106.242188 43.207031 106.324219 43.421875 106.46875 43.578125 C 106.757812 43.742188 106.921875 43.382812 107.125 43.226562 C 107.511719 43.019531 107.65625 43.617188 107.976562 43.695312 C 108.34375 43.390625 108.75 43.296875 109.214844 43.460938 C 109.730469 43.019531 109.671875 42.335938 109.71875 41.703125 C 109.757812 41.59375 109.796875 41.417969 109.953125 41.425781 C 110.136719 42.199219 110.582031 43.046875 110.265625 43.816406 L 110.257812 43.816406 C 110.210938 43.921875 110.148438 44.03125 110.066406 44.140625 C 109.140625 44.8125 108.480469 46.316406 107.046875 45.859375 C 106.464844 46.375 105.402344 45.769531 104.957031 46.519531 C 104.871094 46.773438 104.925781 47.070312 105.109375 47.265625 C 105.460938 47.480469 106.042969 47.417969 106.351562 47.378906 C 106.566406 47.507812 106.765625 47.628906 107.046875 47.578125 C 107.289062 47.199219 107.550781 47.570312 107.820312 47.617188 C 108.101562 47.625 108.332031 47.273438 108.59375 47.460938 C 108.332031 47.890625 108.035156 48.289062 107.9375 48.789062 C 107.910156 49.140625 108.480469 49.042969 108.328125 49.453125 C 108.410156 49.753906 108.734375 49.648438 108.90625 49.800781 C 108.925781 50.3125 109.484375 50.175781 109.796875 50.3125 C 109.890625 51.191406 110.851562 50.195312 111.03125 51.015625 C 111.238281 51.015625 111.390625 50.878906 111.578125 50.820312 C 111.808594 50.847656 111.980469 51.113281 112.117188 51.289062 C 112.503906 51.601562 112.648438 51.082031 112.929688 50.898438 L 113.628906 51.171875 L 114.089844 50.625 C 114.632812 51.027344 114.828125 50.226562 115.328125 50.390625 C 115.679688 50.429688 115.640625 50.027344 115.792969 49.84375 C 116.394531 49.933594 116.304688 49.089844 116.878906 49.101562 C 116.917969 48.417969 116.304688 48.015625 116.140625 47.421875 C 116.375 47.285156 116.558594 47.488281 116.726562 47.617188 C 117.082031 47.734375 117.265625 47.429688 117.539062 47.34375 C 118.03125 48.113281 118.523438 47.050781 119.164062 47.265625 C 119.453125 47.167969 119.722656 46.863281 119.664062 46.519531 C 119.597656 46.363281 119.5 46.160156 119.316406 46.132812 C 118.359375 46.25 117.710938 45.605469 116.726562 45.78125 L 115.097656 44.21875 C 114.929688 44.101562 114.804688 43.964844 114.722656 43.816406 L 114.707031 43.816406 C 114.398438 43.242188 114.628906 42.496094 114.789062 41.894531 C 114.808594 41.78125 114.933594 41.585938 115.097656 41.664062 C 115.476562 42.191406 115.261719 43.03125 115.875 43.5 C 116.054688 43.605469 116.261719 43.648438 116.414062 43.460938 C 116.667969 43.226562 116.9375 43.527344 117.074219 43.734375 C 117.273438 43.765625 117.402344 43.597656 117.539062 43.460938 C 117.828125 43.214844 118.078125 43.566406 118.351562 43.617188 C 118.496094 43.5 118.609375 43.304688 118.734375 43.148438 C 118.96875 43.011719 119.121094 43.273438 119.316406 43.34375 C 119.671875 43.453125 119.683594 42.902344 119.9375 42.71875 C 120.21875 42.707031 120.421875 42.890625 120.710938 42.875 L 121.019531 42.328125 C 121.328125 41.964844 121.71875 42.359375 122.105469 42.289062 L 122.609375 41.546875 L 123.421875 41.507812 C 123.632812 41.273438 123.625 40.941406 123.613281 40.609375 C 124.019531 40.347656 124.589844 40.484375 125.046875 40.335938 C 125.074219 39.984375 124.871094 39.613281 124.738281 39.28125 C 125.125 39.082031 125.636719 39.183594 126.054688 39.046875 C 126.1875 38.558594 125.683594 38.1875 125.589844 37.796875 L 126.789062 37.210938 C 126.769531 36.769531 126.21875 36.625 126.054688 36.273438 C 126.144531 36.203125 126.238281 36.144531 126.335938 36.085938 L 126.375 36.085938 C 126.640625 35.933594 126.917969 35.808594 127.175781 35.632812 L 127.214844 35.4375 C 126.847656 35.035156 126.371094 34.753906 125.898438 34.539062 L 125.859375 34.421875 L 126.710938 33.640625 L 126.710938 33.445312 C 126.371094 33.101562 125.859375 33.160156 125.472656 32.9375 C 125.664062 32.527344 126.285156 32.390625 126.363281 31.921875 C 126.121094 31.640625 125.761719 31.660156 125.433594 31.609375 C 125.210938 31.609375 124.960938 31.765625 124.777344 31.609375 C 125.019531 31.160156 125.550781 30.9375 125.667969 30.4375 C 124.914062 30.136719 124.144531 30.640625 123.457031 30.75 C 123.664062 30.429688 123.914062 30.171875 124.234375 29.96875 C 124.535156 29.683594 125.132812 29.402344 124.96875 28.953125 C 124.222656 28.953125 123.605469 29.246094 122.996094 29.578125 C 122.550781 29.734375 122.183594 30.203125 121.757812 30.28125 C 122.066406 29.882812 122.570312 29.636719 122.914062 29.1875 C 123.140625 28.9375 123.183594 28.613281 123.328125 28.328125 L 123.34375 28.328125 C 123.40625 28.207031 123.492188 28.097656 123.613281 28.003906 C 123.644531 27.777344 123.894531 27.5625 123.691406 27.335938 C 123.050781 27.496094 122.453125 27.859375 121.929688 28.308594 L 121.898438 28.308594 C 121.578125 28.585938 121.285156 28.902344 121.019531 29.226562 L 120.941406 29.148438 C 121.121094 28.882812 121.234375 28.597656 121.390625 28.328125 L 121.40625 28.328125 C 121.507812 28.152344 121.628906 27.988281 121.796875 27.84375 C 122.027344 27.335938 122.492188 26.71875 122.144531 26.164062 C 121.152344 26.464844 120.628906 27.535156 120.050781 28.300781 L 120.027344 28.300781 C 120.011719 28.324219 119.992188 28.34375 119.976562 28.367188 C 119.957031 28.34375 119.941406 28.324219 119.929688 28.300781 L 119.917969 28.300781 C 119.867188 28.1875 119.875 28.050781 119.859375 27.921875 C 120.410156 27.203125 120.390625 26.222656 120.476562 25.304688 C 120.484375 25.148438 120.355469 24.972656 120.207031 25.070312 C 119.597656 25.527344 119.433594 26.230469 119.164062 26.867188 L 119.085938 26.789062 L 119.085938 25.226562 C 119.046875 24.804688 118.898438 24.289062 118.464844 24.171875 C 118.019531 24.609375 118.195312 25.304688 118 25.851562 C 117.828125 25.851562 117.796875 25.644531 117.691406 25.539062 C 117.632812 25.480469 117.5 25.480469 117.460938 25.578125 C 117.410156 26.503906 117.40625 27.40625 117.433594 28.300781 C 117.433594 28.308594 117.429688 28.320312 117.433594 28.328125 C 117.46875 29.632812 117.566406 30.917969 117.652344 32.234375 C 117.058594 33.414062 117.144531 34.871094 116.777344 35.664062 C 116.410156 36.453125 116.160156 36.816406 115.792969 37.132812 C 115.453125 37.394531 115.039062 37.121094 114.636719 37.210938 C 114.414062 36.9375 114.429688 36.554688 114.324219 36.234375 C 114.300781 36.175781 114.28125 36.117188 114.253906 36.0625 L 114.246094 36.0625 C 113.648438 34.726562 112.140625 34.351562 110.957031 33.875 C 110.820312 33.859375 110.644531 33.828125 110.484375 33.828125 C 110.316406 33.824219 110.164062 33.851562 110.066406 33.953125 C 110.492188 34.171875 110.9375 34.414062 111.226562 34.851562 L 111.152344 34.929688 C 110.792969 34.804688 110.378906 34.695312 109.988281 34.734375 C 110.222656 35.390625 110.996094 35.46875 111.382812 35.984375 C 111.386719 36.015625 111.390625 36.050781 111.394531 36.085938 L 111.398438 36.085938 C 111.449219 36.523438 111.457031 37.019531 111.03125 37.289062 C 110.714844 37.503906 110.570312 37.074219 110.300781 37.054688 C 110.027344 37.023438 109.6875 37.296875 109.484375 36.976562 C 109.441406 36.609375 109.195312 36.335938 108.921875 36.027344 C 108.644531 35.71875 108.382812 35.371094 108.519531 34.851562 C 108.042969 33.90625 107.734375 32.898438 107.703125 31.765625 C 107.839844 30.632812 108.199219 29.484375 108.367188 28.328125 L 108.371094 28.328125 C 108.5 27.429688 108.511719 26.523438 108.207031 25.617188 C 107.917969 25.636719 107.878906 25.988281 107.628906 26.085938 L 107.550781 26.007812 C 107.570312 25.382812 107.53125 24.785156 107.433594 24.210938 Z M 107.589844 29.539062 C 107.609375 30.125 107.742188 30.710938 107.472656 31.21875 C 107.558594 30.664062 106.671875 29.882812 107.589844 29.539062 Z M 117.960938 30.007812 C 118.1875 30.015625 118.167969 30.273438 118.273438 30.398438 C 118.1875 30.722656 117.953125 31.082031 118.117188 31.414062 C 118.328125 31.277344 118.3125 30.90625 118.582031 30.828125 C 118.542969 31.246094 118.390625 31.707031 118.117188 32.078125 C 117.828125 31.484375 117.847656 30.671875 117.960938 30.007812 Z M 106.855469 30.476562 C 107.097656 30.789062 107.058594 31.285156 107.164062 31.6875 C 106.953125 31.363281 106.59375 30.886719 106.855469 30.476562 Z M 119.007812 31.296875 C 118.960938 31.667969 118.640625 32.019531 118.390625 32.351562 L 118.351562 32.351562 C 118.378906 31.972656 118.707031 31.550781 119.007812 31.296875 Z M 106.429688 31.335938 C 106.691406 31.503906 106.84375 31.851562 107.046875 32.117188 C 106.890625 32.886719 106.765625 33.621094 106.929688 34.421875 C 106.671875 34.429688 106.476562 34.277344 106.273438 34.148438 C 106.175781 34.011719 106.136719 33.855469 106.15625 33.679688 C 106.351562 33.59375 106.527344 34.011719 106.738281 33.757812 C 106.691406 33.375 106.207031 33.25 106.078125 32.898438 C 106.359375 32.703125 106.632812 33.308594 106.816406 32.898438 C 106.699219 32.566406 106.050781 32.441406 106.234375 32 L 106.621094 32.195312 C 106.640625 31.875 106.332031 31.640625 106.429688 31.335938 Z M 119.085938 32 C 119.210938 31.980469 119.269531 32.128906 119.238281 32.234375 C 119.160156 32.617188 118.6875 32.878906 118.386719 33.132812 C 118.261719 32.703125 118.777344 32.34375 119.085938 32 Z M 119.277344 32.976562 C 119.453125 33.046875 119.277344 33.160156 119.277344 33.25 C 119.101562 33.523438 118.746094 33.511719 118.464844 33.601562 C 118.5625 33.335938 118.957031 33.066406 119.277344 32.976562 Z M 118.890625 33.757812 C 118.949219 33.757812 119.054688 33.75 119.046875 33.835938 C 119.066406 34.207031 118.640625 34.03125 118.464844 34.1875 C 118.359375 33.960938 118.726562 33.835938 118.890625 33.757812 Z M 110.953125 34.1875 C 111.34375 34.167969 111.632812 34.460938 111.613281 34.851562 C 111.527344 35.046875 111.664062 35.40625 111.34375 35.4375 C 111.074219 35.417969 110.859375 35.273438 110.644531 35.125 C 110.90625 35 111.296875 35.390625 111.539062 35.085938 C 111.585938 34.683594 111.1875 34.472656 110.957031 34.1875 Z M 107.976562 34.65625 C 108.253906 35.046875 108.125 35.652344 108.382812 36.085938 L 108.402344 36.085938 C 108.46875 36.183594 108.550781 36.273438 108.671875 36.347656 C 109.058594 36.605469 109.167969 37.042969 109.292969 37.445312 C 109.320312 37.804688 109.128906 38.117188 108.828125 38.300781 C 108.664062 38.3125 108.546875 38.195312 108.554688 38.03125 C 108.488281 37.902344 108.703125 37.796875 108.515625 37.71875 C 108.316406 37.855469 108.128906 38.140625 107.859375 37.992188 C 107.761719 37.71875 108.015625 37.492188 108.09375 37.25 C 107.78125 37.210938 107.558594 37.726562 107.164062 37.484375 C 107.078125 37.152344 107.355469 36.976562 107.511719 36.742188 C 107.203125 36.566406 106.96875 36.917969 106.660156 36.742188 C 106.679688 36.457031 107.152344 36.359375 107.394531 36.152344 C 107.355469 36.128906 107.308594 36.097656 107.265625 36.066406 L 107.226562 36.066406 C 107.039062 35.933594 106.835938 35.761719 106.816406 35.515625 C 107.171875 35.320312 107.414062 35.890625 107.742188 35.632812 C 107.753906 35.339844 107.40625 35.085938 107.589844 34.8125 C 107.726562 34.871094 107.820312 35.019531 107.9375 35.125 C 108.179688 35.058594 107.964844 34.8125 107.976562 34.65625 Z M 117.460938 34.695312 C 117.527344 34.871094 117.316406 35.027344 117.496094 35.164062 C 117.710938 35.144531 117.710938 34.871094 117.960938 34.929688 C 118.15625 35.339844 117.324219 35.496094 117.691406 35.789062 C 117.902344 35.710938 118.152344 35.46875 118.386719 35.671875 C 118.378906 35.886719 118.195312 35.957031 118.046875 36.058594 L 118.015625 36.058594 C 117.953125 36.105469 117.90625 36.160156 117.886719 36.234375 C 118.222656 36.253906 118.542969 36.378906 118.734375 36.664062 C 118.796875 36.820312 118.621094 36.875 118.503906 36.855469 C 118.210938 36.914062 117.914062 36.738281 117.691406 36.855469 C 117.863281 37.160156 118.320312 37.207031 118.273438 37.640625 C 117.875 37.796875 117.621094 37.375 117.265625 37.328125 C 117.167969 37.609375 117.632812 37.757812 117.574219 38.070312 C 117.21875 38.1875 116.957031 37.824219 116.683594 37.675781 C 116.617188 37.863281 116.742188 38.058594 116.839844 38.226562 C 116.558594 38.363281 116.277344 38.15625 116.140625 37.914062 C 115.753906 37.355469 116.480469 36.976562 116.644531 36.503906 C 116.777344 36.378906 116.871094 36.234375 116.945312 36.085938 L 116.960938 36.085938 C 117.175781 35.644531 117.230469 35.132812 117.460938 34.695312 Z M 112.261719 35.003906 C 112.3125 35 112.351562 35.011719 112.351562 35.085938 C 112.359375 35.164062 112.339844 35.292969 112.234375 35.242188 L 112.117188 35.242188 L 112.117188 35.007812 C 112.15625 35.023438 112.214844 35.007812 112.261719 35.003906 Z M 113.355469 35.710938 C 113.542969 35.796875 113.691406 35.929688 113.800781 36.085938 L 113.816406 36.085938 C 114.007812 36.371094 114.085938 36.734375 114.089844 37.09375 C 113.710938 38.480469 113.90625 40.101562 114.515625 41.3125 L 114.363281 42.289062 C 113.851562 42.210938 114.214844 42.832031 114.050781 43.070312 C 113.988281 43.335938 113.871094 43.578125 113.738281 43.816406 L 113.722656 43.816406 C 113.628906 43.980469 113.527344 44.136719 113.433594 44.296875 L 113.625 44.410156 C 113.394531 45.15625 113.09375 45.90625 112.425781 46.445312 C 111.664062 45.976562 111.371094 45.097656 111.148438 44.296875 L 111.421875 44.296875 C 111.398438 44.136719 111.339844 43.976562 111.265625 43.820312 L 111.253906 43.820312 C 111.144531 43.597656 111.011719 43.371094 110.917969 43.148438 C 110.722656 42.84375 111.167969 42.238281 110.683594 42.246094 L 110.605469 42.328125 C 109.851562 40.941406 111.167969 39.75 111.070312 38.300781 C 111.175781 38.046875 110.820312 37.601562 111.304688 37.640625 C 111.980469 37.65625 112.570312 37.296875 112.929688 36.699219 C 113.039062 36.527344 113.046875 36.296875 113.089844 36.085938 L 113.09375 36.085938 C 113.132812 35.925781 113.195312 35.785156 113.355469 35.710938 Z M 114.050781 44.453125 C 114.332031 44.785156 114.75 44.761719 115.097656 44.921875 C 115.464844 45.222656 115.839844 45.554688 116.140625 45.9375 C 115.335938 45.867188 114.226562 46.335938 113.742188 45.390625 Z M 110.789062 44.6875 C 110.945312 44.695312 111.050781 44.855469 111.070312 45.3125 C 110.65625 46.191406 109.570312 46.074219 108.710938 46.015625 C 108.757812 45.730469 109.183594 45.476562 109.445312 45.273438 C 109.859375 45.375 110.445312 44.664062 110.789062 44.6875 Z M 110.917969 46.09375 C 110.421875 46.757812 109.699219 47.1875 109.136719 47.851562 L 109.019531 47.851562 C 109.078125 47.304688 109.765625 47.039062 110.140625 46.640625 Z M 113.394531 46.09375 L 113.511719 46.09375 C 114.304688 46.875 114.894531 47.636719 115.5625 48.476562 C 115.574219 48.601562 115.5625 48.71875 115.445312 48.789062 C 114.777344 47.851562 113.972656 47.070312 113.394531 46.09375 Z M 113.9375 46.09375 C 114.644531 46.601562 115.210938 47.273438 115.832031 47.929688 L 115.832031 48.046875 C 115.125 47.5 114.527344 46.757812 113.9375 46.09375 Z M 113.238281 46.363281 L 114.941406 48.789062 C 114.921875 48.886719 114.992188 49.011719 114.863281 49.0625 C 114.398438 48.164062 113.394531 47.382812 113.238281 46.363281 Z M 115.65625 46.429688 C 115.863281 46.425781 116.0625 46.46875 116.179688 46.601562 C 116.140625 46.726562 116.125 46.863281 115.988281 46.953125 C 115.621094 47.097656 115.367188 46.71875 115.097656 46.519531 C 115.238281 46.476562 115.449219 46.433594 115.65625 46.429688 Z M 118.886719 46.433594 C 119.050781 46.429688 119.195312 46.460938 119.277344 46.601562 C 119.160156 47.246094 118.347656 46.835938 117.886719 46.953125 C 117.914062 46.6875 118.203125 46.570312 118.386719 46.445312 C 118.539062 46.46875 118.71875 46.4375 118.886719 46.433594 Z M 117.363281 46.441406 C 117.472656 46.4375 117.574219 46.449219 117.652344 46.519531 C 117.660156 46.707031 117.457031 46.863281 117.304688 46.914062 C 117.117188 46.992188 116.859375 46.953125 116.761719 46.796875 C 116.714844 46.582031 116.886719 46.503906 117.035156 46.445312 C 117.136719 46.457031 117.253906 46.441406 117.363281 46.441406 Z M 107.644531 46.476562 C 107.761719 46.476562 107.878906 46.492188 107.976562 46.519531 C 108.082031 46.6875 107.976562 46.933594 107.78125 46.953125 C 107.5 46.921875 107.316406 47.019531 107.085938 46.875 C 107.121094 46.738281 107.203125 46.621094 107.316406 46.519531 C 107.414062 46.492188 107.53125 46.476562 107.644531 46.476562 Z M 109.292969 46.476562 C 109.390625 46.476562 109.484375 46.492188 109.5625 46.519531 C 109.339844 46.648438 109.117188 47.226562 108.710938 46.953125 C 108.679688 46.757812 108.882812 46.621094 109.019531 46.519531 C 109.097656 46.492188 109.195312 46.476562 109.292969 46.476562 Z M 111.03125 46.484375 C 110.808594 47.234375 109.765625 47.703125 109.40625 48.476562 L 109.328125 48.476562 C 109.574219 47.671875 110.453125 47.109375 111.03125 46.484375 Z M 111.496094 46.484375 C 111.226562 47.371094 110.464844 48.066406 110.066406 48.90625 C 110 48.933594 109.957031 48.867188 109.910156 48.828125 C 110.347656 48.007812 110.859375 47.144531 111.496094 46.484375 Z M 111.769531 46.484375 C 111.691406 47.480469 111.195312 48.410156 110.917969 49.375 C 110.800781 49.484375 110.65625 49.328125 110.609375 49.21875 C 110.820312 48.234375 111.382812 47.390625 111.769531 46.484375 Z M 105.800781 46.503906 C 106.085938 46.492188 106.441406 46.582031 106.699219 46.519531 L 106.777344 46.601562 C 106.785156 46.789062 106.582031 46.941406 106.429688 46.992188 C 106.089844 47.011719 105.554688 47.15625 105.34375 46.835938 C 105.398438 46.582031 105.578125 46.511719 105.800781 46.503906 Z M 112.890625 46.640625 L 112.96875 46.640625 C 113.296875 47.46875 113.945312 48.171875 114.128906 49.0625 C 114.167969 49.199219 114.003906 49.363281 113.898438 49.332031 C 113.636719 48.40625 113.046875 47.613281 112.890625 46.640625 Z M 112.117188 46.835938 C 112.125 47.675781 112.535156 48.867188 111.613281 49.414062 L 111.496094 49.414062 C 111.449219 48.449219 111.835938 47.625 112.117188 46.835938 Z M 112.503906 46.835938 L 112.621094 46.835938 C 112.949219 47.636719 113.105469 48.550781 113.085938 49.453125 C 111.945312 48.960938 112.648438 47.675781 112.503906 46.835938 Z M 112.503906 46.835938 "/>
</g>
</svg>
