<svg xmlns="http://www.w3.org/2000/svg" width="150" height="150" viewBox="0 0 150 75"><path d="M75.125.125h74.996v74.988H.125c0-12.449 0-24.91.031-37.437.051-.067.07-.07.153-.063 1.882 0 3.707-.004 5.593 0 .457.008.856-.023 1.246.02.946.097 1.77-.188 2.61-.613 6.953-3.504 13.922-6.973 20.887-10.454.218-.109.437-.214.742-.359v11.398c.87 0 1.68 0 2.547.008 2.52.004 4.98-.004 7.5 0 .84.012 1.625.012 2.445.012V26.219c.281.129.5.226.719.332 7.238 3.617 14.476 7.234 21.718 10.847.215.106.461.215.692.22 2.664.007 5.328-.009 8.039-.036.05-.945.055-1.871.066-2.852.203-.992-.203-1.457-1.062-1.875-4.965-2.414-9.89-4.906-14.828-7.378-.168-.082-.325-.184-.489-.278.016-.035.028-.07.04-.101h16.331c0-.856 0-1.664.008-2.532.004-2.52-.004-4.98 0-7.5.012-.84.012-1.625.012-2.464H58.598c.273-.141.394-.211.52-.274 5.163-2.582 10.327-5.168 15.5-7.738.382-.192.53-.406.519-.844-.035-1.207-.012-2.414-.012-3.621m31.695 21.871-.578.234c-7.344 2.997-11.61 11.043-9.953 18.766 1.914 8.91 10.281 14.555 19.293 13.02 9.176-1.567 15.379-10.809 13.332-19.864-2.258-10.007-12.305-15.57-22.094-12.156Zm0 0" style="stroke:none;fill-rule:nonzero;fill:#012169;fill-opacity:1"/><path d="M75.105 15.125c.004 2.46.012 4.922-.05 7.441-11.258.059-22.45.059-33.68.059v14.98c-2.46.004-4.922.012-7.441-.05-.059-5.012-.059-9.957-.059-14.93H.125c0-2.46 0-4.922.059-7.441 11.257-.059 22.457-.059 33.691-.059v-15c2.46 0 4.922 0 7.441.059.059 5.007.059 9.953.059 14.941h33.73Zm0 0" style="stroke:none;fill-rule:nonzero;fill:#e4002b;fill-opacity:1"/><path d="M33.816.125c.059 4.977.059 9.953.059 15H.184a16.97 16.97 0 0 1 0-2.441c5.476-.059 10.898-.059 16.316-.059-.094-.16-.215-.223-.332-.285C10.953 9.73 5.742 7.12.528 4.516c-.126-.063-.27-.094-.403-.141 0-.422 0-.84.047-1.324.215.011.383.086.55.172 5.317 2.656 10.665 5.246 15.93 8 1.961 1.023 3.903 1.648 6.11 1.414.703-.075 1.418-.012 2.129-.012a1.119 1.119 0 0 0-.426-.336C17.848 8.98 11.23 5.68 4.617 2.367 3.152 1.633 1.703.875.25.125c2.754 0 5.504 0 8.34.035l22.785 11.39V.126h2.441ZM75.113 15.066c-11.23.059-22.449.059-33.738.059V.184a16.97 16.97 0 0 1 2.441 0c.059 3.8.059 7.539.059 11.351.25-.117.434-.195.613-.285 5.89-2.941 11.778-5.883 17.66-8.832 1.5-.754 2.985-1.527 4.477-2.293.879 0 1.754 0 2.68.043-8.153 4.148-16.352 8.25-24.551 12.355 1.617.102 3.21.118 4.805.09.359-.004.746-.086 1.062-.246a7227.248 7227.248 0 0 0 19.852-9.914c1.52-.762 3.02-1.55 4.527-2.328h.094c.031 1.207.008 2.414.043 3.621.011.438-.137.652-.52.844-5.172 2.57-10.336 5.156-15.5 7.738-.125.063-.246.133-.52.274h16.528c0 .84 0 1.625-.012 2.464ZM.125 22.684c11.223-.059 22.445-.059 33.75-.059v14.922c-.809.058-1.617.058-2.488.058V26.207c-.305.145-.524.25-.742.36-6.965 3.48-13.934 6.949-20.887 10.453-.84.425-1.664.71-2.61.613-.39-.043-.789-.012-1.218-.055 8.172-4.144 16.375-8.242 24.578-12.344a57.83 57.83 0 0 0-4.86-.097c-.335.004-.699.09-1 .242a5194.946 5194.946 0 0 0-16.171 8.074C5.73 34.832 2.992 36.22.25 37.605c-.023 0-.043.004-.094.012a74.92 74.92 0 0 1 .016-4.183c5.484-2.77 10.922-5.485 16.363-8.2-.015-.039-.031-.074-.047-.109H.125v-2.441Zm0 0" style="stroke:none;fill-rule:nonzero;fill:#fefefe;fill-opacity:1"/><path d="M66.566.125a201.47 201.47 0 0 1-4.418 2.293c-5.882 2.95-11.77 5.89-17.66 8.832-.18.09-.363.168-.613.285V.184C51.418.125 58.965.125 66.566.125Zm0 0" style="stroke:none;fill-rule:nonzero;fill:#022269;fill-opacity:1"/><path d="M31.316.125c.059 3.77.059 7.54.059 11.426A8796.76 8796.76 0 0 1 8.648.16C16.168.124 23.715.124 31.316.124Zm0 0" style="stroke:none;fill-rule:nonzero;fill:#02226a;fill-opacity:1"/><path d="M74.941.125c-1.449.777-2.949 1.566-4.468 2.328a7227.248 7227.248 0 0 1-19.852 9.914c-.316.16-.703.242-1.062.246a59.953 59.953 0 0 1-4.805-.09c8.2-4.105 16.398-8.207 24.61-12.355C71.21.125 73.046.125 74.94.125Zm0 0" style="stroke:none;fill-rule:nonzero;fill:#e4042e;fill-opacity:1"/><path d="M.125 25.184c5.453-.059 10.91-.059 16.363-.059.016.035.032.07.047.11-5.441 2.714-10.879 5.43-16.363 8.14-.047-2.71-.047-5.422-.047-8.191ZM.125 4.434a.77.77 0 0 1 .402.082C5.742 7.12 10.953 9.73 16.168 12.34c.117.062.238.125.332.285H.184C.125 9.915.125 7.203.125 4.434Zm0 0" style="stroke:none;fill-rule:nonzero;fill:#02226a;fill-opacity:1"/><path d="M.188.125c1.515.75 2.964 1.508 4.43 2.242C11.23 5.68 17.847 8.98 24.464 12.29c.144.074.285.152.426.336-.711 0-1.426-.063-2.13.012-2.206.234-4.148-.39-6.109-1.414-5.265-2.754-10.613-5.344-15.93-8a3.653 3.653 0 0 0-.55-.23C.125 2.042.125 1.081.188.124Zm0 0" style="stroke:none;fill-rule:nonzero;fill:#e4042e;fill-opacity:1"/><path d="M106.867 21.984c9.742-3.402 19.79 2.16 22.047 12.168 2.047 9.055-4.156 18.297-13.332 19.864-9.012 1.535-17.379-4.11-19.293-13.02-1.656-7.723 2.61-15.77 9.953-18.766.192-.078.383-.156.625-.246m9.422 7.653c-.316.453-.633.906-.992 1.414-.078-.293-.133-.492-.2-.738-.124.183-.206.308-.35.519l-.157-1.027c-.63.855-1.336 1.62-1.805 2.508-.484.914-1.172 1.519-1.976 2.12-1.204.899-2.063 2.063-1.86 3.72.028.226-.105.468-.168.702l-.203-.003c-.07-.204-.172-.403-.207-.61-.2-1.117.16-2.09.79-2.992.57-.82 1.218-1.602 1.66-2.488.753-1.504.519-3.742-1.727-3.965-1.074-.106-2.207.496-2.469 1.488-.16.617-.105 1.293-.117 1.945 0 .098.183.196.36.372.116-.762.468-1.122 1.112-1.215.211-.028.391-.227.594-.325.227-.109.465-.19.696-.285.101.278.32.575.273.825-.078.41-.27.832-.523 1.168-.43.558-.973 1.03-1.415 1.582-.746.945-1.5 1.89-2.148 2.898-.5.785-.664 1.7-.508 2.645.332 2.05 1.653 3.128 3.95 3.718 1.628.418 3.222.086 4.8-.336.313-.082.563-.105.836.176.418.43.969.652 1.59.55.633-.105 1.258-.253 1.883-.386.023-.008.035-.047.062-.086-.086-.035-.164-.058-.234-.097-.078-.043-.152-.098-.316-.207.175-.051.246-.075.316-.094 1.516-.348 2.719-1.23 3.785-2.309.387-.39.36-1.07.883-1.418.195-.129.308-.383.465-.593a12.877 12.877 0 0 1-.41-.114c.421-.695.812-1.34 1.234-2.031-1.453.23-2.54 1.531-4.148 1.102.343-.512.656-.973.984-1.461l-.625-.051c.246-.281.488-.531.695-.805.2-.266.364-.558.586-.8l.035-.094c-.023.023-.047.046-.16.058-.594.469-.933-.12-1.37-.324.272-.371.546-.742.925-1.254-.531.215-.895.36-1.258.504l-.066-.117c.191-.211.379-.422.523-.668 0 0 .004-.004.008 0 .012.012.023.023-.055-.035-.187.015-.379.03-.61.05.169-.445.313-.832.481-1.148.028-.016.059-.027.086-.04-.035-.003-.07-.007-.183.04-.512.16-1.028.316-1.543.473-.024-.051-.047-.098-.067-.149.254-.46.512-.922.817-1.43-.004-.03-.004-.062-.008-.093a.53.53 0 0 1-.176.086c-.312.215-.625.43-1.086.75.168-.64.29-1.086.41-1.535-.468.55-.968.949-1.695 1.011.023-.425.039-.8.066-1.11.028-.007.055-.01.086-.019-.03-.011-.062-.02-.156.028Zm0 0" style="stroke:none;fill-rule:nonzero;fill:#fed000;fill-opacity:1"/><path d="M41.434 37.613c-.059-4.98-.059-9.949-.059-14.988h33.672c.058.809.058 1.617.058 2.473H58.773c-.011.03-.023.066-.039.101.164.094.32.196.489.278 4.937 2.472 9.863 4.964 14.828 7.378.86.418 1.265.883 1.02 1.864-6.298-3.074-12.544-6.2-18.79-9.317-.218-.109-.457-.261-.687-.265-1.739-.02-3.477-.012-5.219-.012.148.191.324.285.5.375 5.594 2.797 11.195 5.59 16.79 8.39 2.448 1.227 4.89 2.477 7.335 3.715-2.664.004-5.328.02-7.992.012-.23-.004-.477-.113-.692-.219-7.242-3.613-14.48-7.23-21.718-10.847-.22-.106-.438-.203-.72-.332v11.406c-.82 0-1.605 0-2.444-.012Zm0 0" style="stroke:none;fill-rule:nonzero;fill:#fefefe;fill-opacity:1"/><path d="M.309 37.613a662.298 662.298 0 0 1 8.168-4.16c5.386-2.7 10.777-5.394 16.171-8.074.301-.152.665-.238 1-.242a57.83 57.83 0 0 1 4.86.097c-8.203 4.102-16.406 8.2-24.637 12.336-1.855.04-3.68.043-5.562.043ZM75.047 37.582c-2.492-1.215-4.934-2.465-7.383-3.691C62.07 31.09 56.47 28.297 50.875 25.5c-.176-.09-.352-.184-.5-.375 1.742 0 3.48-.008 5.219.012.23.004.468.156.687.265 6.246 3.118 12.492 6.243 18.782 9.375.039.934.035 1.86-.016 2.805Zm0 0" style="stroke:none;fill-rule:nonzero;fill:#e4042e;fill-opacity:1"/><path d="M121.242 34.613c-.18.282-.344.575-.543.84-.207.274-.449.524-.695.805l.625.05-.984 1.462c1.609.43 2.695-.872 4.148-1.102-.422.691-.813 1.336-1.234 2.031.175.051.273.078.41.114-.156.21-.27.464-.465.593-.524.348-.496 1.028-.883 1.418-1.066 1.078-2.27 1.961-3.785 2.309-.07.02-.14.043-.316.094.164.109.238.164.316.207.07.039.148.062.234.097-.027.04-.039.078-.062.086-.625.133-1.25.281-1.883.387-.621.101-1.172-.121-1.59-.55-.273-.282-.523-.259-.836-.177-1.578.422-3.172.754-4.8.336-2.297-.59-3.618-1.668-3.95-3.718-.156-.946.008-1.86.508-2.645.648-1.008 1.402-1.953 2.148-2.898.442-.551.985-1.024 1.415-1.582.253-.336.445-.758.523-1.168.047-.25-.172-.547-.273-.825-.23.094-.47.176-.696.285-.203.098-.383.297-.594.325-.644.093-.996.453-1.113 1.215-.176-.176-.36-.274-.36-.372.013-.652-.042-1.328.118-1.945.262-.992 1.395-1.594 2.469-1.488 2.246.223 2.48 2.46 1.726 3.965-.441.886-1.09 1.668-1.66 2.488-.629.902-.988 1.875-.789 2.992.035.207.137.406.207.61l.203.003c.063-.234.196-.476.168-.703-.203-1.656.656-2.82 1.86-3.718.804-.602 1.492-1.207 1.976-2.121.469-.887 1.176-1.653 1.805-2.508l.156 1.027c.145-.21.227-.336.352-.52l.199.739c.36-.508.676-.961 1.023-1.446.032-.035.032-.043.032-.043-.02.375-.036.75-.059 1.176.727-.062 1.227-.46 1.695-1.011-.12.449-.242.894-.41 1.535.461-.32.774-.535 1.14-.739.055.008.083.043.083.043-.258.461-.516.922-.77 1.383.02.051.043.098.067.149.515-.157 1.03-.313 1.582-.504.035-.028.035-.035.035-.035-.145.382-.29.77-.457 1.214.23-.02.422-.035.652-.015.04.031.05.035.05.035-.19.21-.378.422-.57.633.024.039.044.078.067.117.363-.145.727-.29 1.258-.504-.38.512-.653.883-.926 1.254.438.203.777.793 1.414.328.043 0 .04-.008.04-.008Zm0 0" style="stroke:none;fill-rule:nonzero;fill:#020200;fill-opacity:1"/><path d="M116.352 29.574c.03.016.062.024.093.035-.03.008-.058.012-.09-.015-.003-.032-.003-.024-.003-.02ZM118.762 30.516c.015-.043.047-.067.078-.09a.229.229 0 0 1-.016.117c-.023.023-.05-.012-.062-.027ZM119.719 31.57c.035.008.07.012.105.016-.027.012-.058.023-.097.004-.012-.031-.012-.024-.008-.02ZM119.953 32.793a.253.253 0 0 0-.031-.035c-.004-.004-.008 0 .016.02.023.015.011.011.015.015ZM121.25 34.625c.023-.02.047-.043.07-.066-.011.03-.023.062-.054.074-.024-.02-.02-.012-.016-.008Zm0 0" style="stroke:none;fill-rule:nonzero;fill:#020200;fill-opacity:1"/></svg>