<svg xmlns="http://www.w3.org/2000/svg" width="150" height="150" viewBox="0 0 150 75"><defs><clipPath id="a"><path d="M0 0h88v44H0Zm0 0"/></clipPath><clipPath id="b"><path d="M0 0v18.75h87.5V37.5H75Zm0 37.5v6.25h37.5V0H75Zm0 0"/></clipPath></defs><path d="M0 0h150v75H0z" style="fill:#001e62;fill-opacity:1;stroke:none"/><path d="m0 0 600 300m0-300L0 300" style="fill:none;stroke-width:60;stroke-linecap:butt;stroke-linejoin:miter;stroke:#fff;stroke-opacity:1;stroke-miterlimit:4" transform="scale(.125)"/><g clip-path="url(#a)"><g clip-path="url(#b)"><path d="m0 0 600 300m0-300L0 300" style="fill:none;stroke-width:40;stroke-linecap:butt;stroke-linejoin:miter;stroke:#da291c;stroke-opacity:1;stroke-miterlimit:4" transform="scale(.125)"/></g></g><path d="M0 150h700M300 0v350" style="fill:none;stroke-width:100;stroke-linecap:butt;stroke-linejoin:miter;stroke:#fff;stroke-opacity:1;stroke-miterlimit:4" transform="scale(.125)"/><path d="M0 150h700M300 0v350" style="fill:none;stroke-width:60;stroke-linecap:butt;stroke-linejoin:miter;stroke:#da291c;stroke-opacity:1;stroke-miterlimit:4" transform="scale(.125)"/><path d="M87.5 12.5h50v50h-50Zm0 0" style="stroke:none;fill-rule:nonzero;fill:#fff;fill-opacity:1"/><path d="M108.375 12.5h8.25v50h-8.25Zm0 0" style="stroke:none;fill-rule:nonzero;fill:#da291c;fill-opacity:1"/><path d="M137.5 33.375v8.25h-50v-8.25Zm0 0" style="stroke:none;fill-rule:nonzero;fill:#da291c;fill-opacity:1"/><path d="M75 0v37.5H0V75h150V0Zm37.5 18.75c10.355 0 18.75 8.395 18.75 18.75s-8.395 18.75-18.75 18.75-18.75-8.395-18.75-18.75 8.395-18.75 18.75-18.75Zm0 0" style="stroke:none;fill-rule:nonzero;fill:#001e62;fill-opacity:1"/><path d="M.003.004s.653-.41.653-1.118c0-.709-.127-.96-.154-1.585-.036-.634-.118-1.082.254-1.79.372-.709.898-1.147.898-1.147s.598.587.78.848c.18.262.29.895.253 1.306-.027.4-.109 1.034 0 1.267.118.215.825 1.37.79 1.632-.046.26-.817 2.004-.817 2.004l.961.112.109 1.119.743-.187.263.513.526-.261.254.457.408-.261.336.587.553-.447.263.494.49-.606.552.447.327-.624.417.373.299-.634.408.289s.254-.513.254-.774v-.373s.743 0 .78-.187c.045-.186-.218-1.034-.29-1.183-.082-.15-.454-.746-.454-.746s.417-.634.49-.895c.072-.261.072-1.305.59-1.78.516-.486 1.305-.784 1.305-.784l.081-.298s.4-.336 1.188-.336c.77 0 2.258.56 5.757 1.193 3.491.634 4.534 0 5.205-.298.662-.298 1.713-.857 2.34-.857.634 0 1.296.372 1.296.969s-.626.998-1.487 1.193c-.853.177-5.014-.046-6.093-.373-1.08-.345-2.938-.857-4.978-.857-2.04 0-4.46.56-4.497 2.675-.036 2.116 2.375 2.49 3.046 2.527.671.037 1.632 0 2.004.298.372.298.671.634.671.634l.154-.56s.29.373.48.597c.182.215.744.476 1.07.625.345.149.862.746.862.746s.48-.811.48-1.231c0-.41-.253-1.147-.815-1.445-.554-.298-1.56-.447-2.485-.522-.934-.075-2.493 0-2.72-.037-.226-.038-1.56-.224-1.596-1.483-.036-1.267 1.224-1.528 1.669-1.566.453-.028 2.53-.289 3.055-.028.517.252 1.333.252 1.406.7.081.447.036.82.036.82s.453.037.67-.187c.227-.223.49-.559.49-.559s.254.224.327.448c.081.223.109.633.109.633s.453-.074.707-.372c.272-.299.49-.56.49-.56s.145.187.299.41c.145.224.145.672.145.672s.444-.075.707-.345c.263-.252.48-.625.48-.625s.19.224.263.448c.073.223 0 .596 0 .596s.554-.149.78-.335c.227-.187.408-.56.408-.56s1.233.261 2.086.075c.852-.187 3.155-.224 3.273-2.527.108-2.302-2.05-2.153-2.05-2.153s-.072-.709.454-1.156c.508-.447 1.179-.662 2.004-.56.816.113 1.514.821 2.04.858.517.038 1.151-.149 1.187-.484.037-.336.19-.7.19-.7s.445-.345.554-.522c.109-.195.181-.447.181-.447h-.589s.372-.224.408-.41c.045-.187.072-.634.072-.634l-.335-.038s.045-.596.118-.848c.072-.26.698-.634.635-1.156-.082-.522-.49-.783-.753-1.007-.254-.223-.254-.848-.254-.848s-.453.112-.562.326c-.109.233-.145 1.678-.145 1.678s.036-.559-.145-.857c-.19-.299-.408-.261-.716-.373-.29-.112-.662-.662-.662-.662s-.336.298-.336.624c0 .336.227.746.227.746l.335.671-.562-.596s-.335.112-.598-.037c-.254-.15-.59-.373-.59-.373s-.19.298 0 .67c.182.364.408.411.481.598.073.186.036.438.263.596.218.15.67.252.889.215.217-.038.525 0 .553.372.045.373-.4.746-.816.672-.408-.075-1.741-.895-3.527-.82-1.787.083-2.303 1.267-2.566 1.79-.263.521-.037 1.407-.708 1.817-.67.41-1.632.522-2.076.224-.453-.299-.716-.634-.67-1.082.035-.438.815-.55 1.223-.587.408-.047.853-.158 1.115-.597.254-.447.227-1.193.227-1.193l-.707.187.145-1.37s-.444.148-.671.111c-.218-.037-.218-.373-.326-.708-.118-.336-.3-.485-.3-.485s-.154.298-.562.485c-.408.186-.625-.41-.625-.41s-.3.186-1.16.149c-.853-.038-1.524-.56-2.077-.82-.562-.262-1.043-.374-1.45-.336-.409.037-.899.186-.853.335.036.15.67.448.67.448s-.307.037-.743.149c-.453.112-.707.074-.743.224-.046.149.444.4.634.522.182.112.662.251.699.41.036.14-.671.214-.635.363.045.15.48.373.707.457.227.065.635.438 1.188.326.562-.111.816-.438 1.188-.484.371-.038.68-.112 1.269-.075.598.037 1.26-.112 1.378.522.109.634-.553 1.007-1.342 1.007-.78 0-.625-.447-1.45-.41-.816.037-1.152.708-1.224 1.258-.073.56.852 1.566.852 1.566s-.671-.037-1.333-.372c-.67-.327-.707-.56-.67-.783.035-.224-.518-.364-.817-.262-.3.112-.816.262-.816.038 0-.215.263-.41.145-.588-.109-.186-.861-.149-1.151-.149-.3 0-.671.066-.671-.186 0-.261.553-.298.371-.485-.19-.186-.888-.373-1.713-.373-.816 0-1.741.485-1.741.485s.743-.932.517-1.408c-.227-.494-.48-.56-.671-.718-.181-.14-.662-.102-1.034-.289-.372-.186-.417-.149-.707-.298-.3-.149-1.124-.783-1.124-.783s-.254.121-.29.261c-.037.15-.182.336-.182.336s-.707-.737-1.042-.783c-.336-.038-.263.559-.454.559-.181 0-1.106-.746-1.106-.746s-.045.671-.263.671c-.227 0-.897-.67-.897-.67s-.218.745-1.152.782c-.925.038-1.297-.447-1.886-.41-.598.037-1.496.671-1.496.671s.671.15.707.336c.037.186-1.079.447-1.079.671 0 .215.97.298 1.08.476.108.195-.517.484-.445.67.073.187.889-.111 1.26.15.372.26.454.224.671.074.218-.149.862-.783 1.524-.894.67-.103 1.486-.327 2.348-.15.852.187 2.375.746 2.375.746S5.59-10.362 5-9.878c-.598.485-.526.672-.789.784-.253.111-.48-.224-.96-.15-.481.075-1.415.96-1.415.96S.792-8.543.611-8.31c-.19.223.3.773.181 1.072-.108.298-1.333-.187-1.378.074-.027.261.608.97.526 1.23-.073.253-1.224-.074-1.224.187s.59.783.562.998c-.045.224-.68.046-.789.224-.108.186.48.522.445.745-.028.224-.155.727-.635 1.026-.48.298-2.031.457-2.031.457l1.895.391s-.426.224-.39.597c.036.373-1.378.065-1.378.065l2.43.848-1.968.27S-1.438 1.049.003.005Zm0 0" style="fill-rule:nonzero;fill:#ffc828;fill-opacity:1;stroke-width:.141215;stroke-linecap:butt;stroke-linejoin:miter;stroke:#000;stroke-opacity:1;stroke-miterlimit:4" transform="matrix(.43083 0 0 -.41902 105.866 35.455)"/><path d="M0 .001s-.635-.074-.853.037c-.217.112-.508.69-.335.709C-.853.784.08.505.072.374c-.036-.373-.29-1.64-.29-1.64s.145.148.408.111c.254-.037.444-.736.444-.736s.145.736.372.699c.227-.037.517-.112.517-.112S.933.076.97.411c.036.336 1.26.373 1.26.373S2.085.337 1.75.188c-.336-.15-.708 0-.708 0" style="fill-rule:nonzero;fill:#ffc828;fill-opacity:1;stroke-width:.141215;stroke-linecap:butt;stroke-linejoin:miter;stroke:#000;stroke-opacity:1;stroke-miterlimit:4" transform="matrix(.43083 0 0 -.41902 108.594 35.872)"/><path d="M0 .004.127-1.71l1.505.718L2.42.32 1.63-.993l.2-1.632 1.378.783.263 1.38-.263-1.38.653-1.38.989 1.12.063 1.37-.063-1.37 1.242-1.12.725 1.51-.39 1.25.39-1.25 1.641-.717.4 1.436L7.996.32l.861-1.314 2.094.466-1.051 2.424M3.645 2.969s0-.55.136-.774c.154-.224.118-.56.308-.634.181-.075.218.41.435.373.227-.037 0-.448.19-.783.182-.336.3-.634.635-.671.336-.038.526.41.562.783.028.373-.036.783.145.783.19 0 .145-.56.336-.56.181 0 0 .672.29.858.3.187.562.96.345.96-.236 0-.118-.624-.671-.746-.563-.102-.825 0-.934.234-.11.223-.3.26-.3.26s.073-.186-.108-.372c-.182-.187-.227-.187-.59-.187-.38 0-.562.448-.78.476Zm0 0" style="fill-rule:nonzero;fill:#ffc828;fill-opacity:1;stroke-width:.141215;stroke-linecap:butt;stroke-linejoin:miter;stroke:#000;stroke-opacity:1;stroke-miterlimit:4" transform="matrix(.43083 0 0 -.41902 106.578 37.818)"/><path d="m97.285 39.516.613-1.438-1.449-.578 1.45-.578-.614-1.438 1.434.618.582-1.454.578 1.454 1.437-.618-.617 1.438 1.45.578-1.45.578.617 1.438-1.437-.618-.578 1.454-.582-1.454Zm30.43 0-.613-1.438 1.449-.578-1.45-.578.614-1.438-1.434.618-.582-1.454-.578 1.454-1.437-.618.617 1.438-1.45.578 1.45.578-.617 1.438 1.437-.618.578 1.454.582-1.454Zm-13.2 13.199-1.437-.613-.578 1.449-.578-1.45-1.438.614.618-1.434-1.454-.582 1.454-.578-.618-1.437 1.438.617.578-1.45.578 1.45 1.438-.617-.618 1.437 1.454.578-1.454.582Zm0-30.43-1.437.613-.578-1.449-.578 1.45-1.438-.614.618 1.434-1.454.582 1.454.578-.618 1.437 1.438-.617.578 1.45.578-1.45 1.438.617-.618-1.437 1.454-.578-1.454-.582Zm0 0" style="stroke:none;fill-rule:nonzero;fill:#ffc828;fill-opacity:1"/></svg>