<?xml version="1.0" encoding="UTF-8"?>
<svg xmlns="http://www.w3.org/2000/svg" xmlns:xlink="http://www.w3.org/1999/xlink" width="150px" height="150px" viewBox="0 0 150 75" version="1.1">
<defs>
<clipPath id="clip1">
  <path d="M 0 0 L 88 0 L 88 44 L 0 44 Z M 0 0 "/>
</clipPath>
<clipPath id="clip2">
  <path d="M 0 0 L 0 18.75 L 87.5 18.75 L 87.5 37.5 L 75 37.5 Z M 0 37.5 L 0 43.75 L 37.5 43.75 L 37.5 0 L 75 0 Z M 0 37.5 "/>
</clipPath>
</defs>
<g id="surface1">
<rect x="0" y="0" width="150" height="75" style="fill:rgb(0%,11.764706%,38.431373%);fill-opacity:1;stroke:none;"/>
<path style="fill:none;stroke-width:60;stroke-linecap:butt;stroke-linejoin:miter;stroke:rgb(100%,100%,100%);stroke-opacity:1;stroke-miterlimit:4;" d="M 0 0 L 600 300 M 600 0 L 0 300 " transform="matrix(0.125,0,0,0.125,0,0)"/>
<g clip-path="url(#clip1)" clip-rule="nonzero">
<g clip-path="url(#clip2)" clip-rule="nonzero">
<path style="fill:none;stroke-width:40;stroke-linecap:butt;stroke-linejoin:miter;stroke:rgb(85.490197%,16.078432%,10.980392%);stroke-opacity:1;stroke-miterlimit:4;" d="M 0 0 L 600 300 M 600 0 L 0 300 " transform="matrix(0.125,0,0,0.125,0,0)"/>
</g>
</g>
<path style="fill:none;stroke-width:100;stroke-linecap:butt;stroke-linejoin:miter;stroke:rgb(100%,100%,100%);stroke-opacity:1;stroke-miterlimit:4;" d="M 0 150 L 700 150 M 300 0 L 300 350 " transform="matrix(0.125,0,0,0.125,0,0)"/>
<path style="fill:none;stroke-width:60;stroke-linecap:butt;stroke-linejoin:miter;stroke:rgb(85.490197%,16.078432%,10.980392%);stroke-opacity:1;stroke-miterlimit:4;" d="M 0 150 L 700 150 M 300 0 L 300 350 " transform="matrix(0.125,0,0,0.125,0,0)"/>
<path style=" stroke:none;fill-rule:nonzero;fill:rgb(100%,100%,100%);fill-opacity:1;" d="M 87.5 12.5 L 137.5 12.5 L 137.5 62.5 L 87.5 62.5 Z M 87.5 12.5 "/>
<path style=" stroke:none;fill-rule:nonzero;fill:rgb(85.490197%,16.078432%,10.980392%);fill-opacity:1;" d="M 108.375 12.5 L 116.625 12.5 L 116.625 62.5 L 108.375 62.5 Z M 108.375 12.5 "/>
<path style=" stroke:none;fill-rule:nonzero;fill:rgb(85.490197%,16.078432%,10.980392%);fill-opacity:1;" d="M 137.5 33.375 L 137.5 41.625 L 87.5 41.625 L 87.5 33.375 Z M 137.5 33.375 "/>
<path style=" stroke:none;fill-rule:nonzero;fill:rgb(0%,11.764706%,38.431373%);fill-opacity:1;" d="M 75 0 L 75 37.5 L 0 37.5 L 0 75 L 150 75 L 150 0 Z M 112.5 18.75 C 122.855469 18.75 131.25 27.144531 131.25 37.5 C 131.25 47.855469 122.855469 56.25 112.5 56.25 C 102.144531 56.25 93.75 47.855469 93.75 37.5 C 93.75 27.144531 102.144531 18.75 112.5 18.75 Z M 112.5 18.75 "/>
<path style="fill-rule:nonzero;fill:rgb(100%,78.431374%,15.686275%);fill-opacity:1;stroke-width:0.141215;stroke-linecap:butt;stroke-linejoin:miter;stroke:rgb(0%,0%,0%);stroke-opacity:1;stroke-miterlimit:4;" d="M 0.0034886 0.00418779 C 0.0034886 0.00418779 0.6563 -0.405997 0.6563 -1.114497 C 0.6563 -1.822998 0.529365 -2.074702 0.502164 -2.699301 C 0.465897 -3.333223 0.384295 -3.780697 0.756035 -4.489197 C 1.127775 -5.197698 1.653651 -5.635849 1.653651 -5.635849 C 1.653651 -5.635849 2.252062 -5.04854 2.433398 -4.787513 C 2.614735 -4.526487 2.723537 -3.892565 2.68727 -3.482381 C 2.660069 -3.081518 2.578468 -2.447597 2.68727 -2.214538 C 2.805138 -2.000123 3.512351 -0.844148 3.476084 -0.583122 C 3.430749 -0.322095 2.660069 1.421189 2.660069 1.421189 L 3.621153 1.533057 L 3.729955 2.651742 L 4.473435 2.465295 L 4.736373 2.978026 L 5.262249 2.716999 L 5.51612 3.173795 L 5.924127 2.912769 L 6.2596 3.500079 L 6.812676 3.052605 L 7.075614 3.54669 L 7.565223 2.940736 L 8.118299 3.38821 L 8.444705 2.763611 L 8.861779 3.136506 L 9.160984 2.502584 L 9.568992 2.791578 C 9.568992 2.791578 9.822863 2.278847 9.822863 2.017821 L 9.822863 1.644926 C 9.822863 1.644926 10.566343 1.644926 10.60261 1.458478 C 10.647944 1.272031 10.385006 0.423695 10.312472 0.274537 C 10.23087 0.125379 9.85913 -0.471253 9.85913 -0.471253 C 9.85913 -0.471253 10.276204 -1.105175 10.348739 -1.366201 C 10.421274 -1.627228 10.421274 -2.671334 10.938083 -3.146775 C 11.454892 -3.631539 12.243706 -3.929855 12.243706 -3.929855 L 12.325307 -4.228171 C 12.325307 -4.228171 12.724248 -4.563776 13.513062 -4.563776 C 14.283742 -4.563776 15.770702 -4.004434 19.270497 -3.370512 C 22.761226 -2.736591 23.803911 -3.370512 24.474856 -3.668828 C 25.136735 -3.967144 26.188487 -4.526487 26.814098 -4.526487 C 27.448776 -4.526487 28.110654 -4.153592 28.110654 -3.55696 C 28.110654 -2.960328 27.485043 -2.559465 26.623694 -2.363696 C 25.771413 -2.18657 21.609739 -2.410307 20.530786 -2.736591 C 19.451834 -3.081518 17.593134 -3.594249 15.553098 -3.594249 C 13.513062 -3.594249 11.092219 -3.034907 11.055951 -0.918727 C 11.019684 1.197452 13.43146 1.570347 14.102406 1.607636 C 14.773351 1.644926 15.734434 1.607636 16.106174 1.905952 C 16.477914 2.204268 16.77712 2.539874 16.77712 2.539874 L 16.931256 1.980531 C 16.931256 1.980531 17.221394 2.353426 17.411798 2.577163 C 17.593134 2.791578 18.155277 3.052605 18.481683 3.201763 C 18.826223 3.350921 19.343032 3.947553 19.343032 3.947553 C 19.343032 3.947553 19.823574 3.136506 19.823574 2.716999 C 19.823574 2.306814 19.569703 1.570347 19.007559 1.272031 C 18.454483 0.973715 17.448065 0.824557 16.523248 0.749978 C 15.589365 0.675399 14.029871 0.749978 13.8032 0.712688 C 13.57653 0.675399 12.243706 0.488951 12.207439 -0.769569 C 12.171171 -2.037412 13.43146 -2.298439 13.875735 -2.335728 C 14.329076 -2.363696 16.40538 -2.624722 16.931256 -2.363696 C 17.448065 -2.111991 18.264079 -2.111991 18.336614 -1.664517 C 18.418215 -1.217043 18.372881 -0.844148 18.372881 -0.844148 C 18.372881 -0.844148 18.826223 -0.806859 19.043827 -1.030596 C 19.270497 -1.254333 19.533435 -1.589938 19.533435 -1.589938 C 19.533435 -1.589938 19.787306 -1.366201 19.859841 -1.142464 C 19.941442 -0.918727 19.968643 -0.508543 19.968643 -0.508543 C 19.968643 -0.508543 20.421984 -0.583122 20.675856 -0.881438 C 20.94786 -1.179754 21.165464 -1.44078 21.165464 -1.44078 C 21.165464 -1.44078 21.310533 -1.254333 21.46467 -1.030596 C 21.609739 -0.806859 21.609739 -0.359385 21.609739 -0.359385 C 21.609739 -0.359385 22.054013 -0.433964 22.316951 -0.704313 C 22.579889 -0.956017 22.797493 -1.328912 22.797493 -1.328912 C 22.797493 -1.328912 22.987897 -1.105175 23.060431 -0.881438 C 23.132966 -0.657701 23.060431 -0.284806 23.060431 -0.284806 C 23.060431 -0.284806 23.613508 -0.433964 23.840178 -0.620411 C 24.066849 -0.806859 24.248186 -1.179754 24.248186 -1.179754 C 24.248186 -1.179754 25.481274 -0.918727 26.333556 -1.105175 C 27.185838 -1.291622 29.488812 -1.328912 29.606681 -3.631539 C 29.715483 -5.934165 27.557578 -5.785007 27.557578 -5.785007 C 27.557578 -5.785007 27.485043 -6.493508 28.010919 -6.940982 C 28.518661 -7.388456 29.189607 -7.60287 30.014688 -7.500324 C 30.830702 -7.388456 31.528848 -6.679955 32.054724 -6.642666 C 32.571533 -6.605376 33.206211 -6.791824 33.242479 -7.127429 C 33.278746 -7.463035 33.432882 -7.826607 33.432882 -7.826607 C 33.432882 -7.826607 33.877156 -8.171535 33.985958 -8.34866 C 34.09476 -8.54443 34.167295 -8.796134 34.167295 -8.796134 L 33.577951 -8.796134 C 33.577951 -8.796134 33.949691 -9.019871 33.985958 -9.206319 C 34.031293 -9.392767 34.058493 -9.840241 34.058493 -9.840241 L 33.72302 -9.87753 C 33.72302 -9.87753 33.768355 -10.474162 33.840889 -10.725866 C 33.913424 -10.986893 34.539035 -11.359788 34.475567 -11.881841 C 34.393966 -12.403894 33.985958 -12.66492 33.72302 -12.888657 C 33.469149 -13.112394 33.469149 -13.736993 33.469149 -13.736993 C 33.469149 -13.736993 33.015808 -13.625125 32.907006 -13.41071 C 32.798204 -13.177651 32.761937 -11.732683 32.761937 -11.732683 C 32.761937 -11.732683 32.798204 -12.292025 32.616867 -12.590341 C 32.426464 -12.888657 32.20886 -12.851368 31.900588 -12.963236 C 31.61045 -13.075105 31.23871 -13.625125 31.23871 -13.625125 C 31.23871 -13.625125 30.903237 -13.326809 30.903237 -13.000526 C 30.903237 -12.66492 31.129908 -12.254736 31.129908 -12.254736 L 31.46538 -11.583525 L 30.903237 -12.180157 C 30.903237 -12.180157 30.567764 -12.068288 30.304826 -12.217446 C 30.050955 -12.366604 29.715483 -12.590341 29.715483 -12.590341 C 29.715483 -12.590341 29.525079 -12.292025 29.715483 -11.91913 C 29.896819 -11.555558 30.12349 -11.508946 30.196024 -11.322498 C 30.268559 -11.136051 30.232292 -10.884347 30.458962 -10.725866 C 30.676566 -10.576708 31.129908 -10.474162 31.347512 -10.511452 C 31.565115 -10.548741 31.873388 -10.511452 31.900588 -10.138557 C 31.945922 -9.765662 31.501648 -9.392767 31.084574 -9.467346 C 30.676566 -9.541925 29.343743 -10.362294 27.557578 -10.287715 C 25.771413 -10.203813 25.254603 -9.019871 24.991665 -8.497818 C 24.728727 -7.975765 24.955398 -7.09014 24.284453 -6.679955 C 23.613508 -6.269771 22.652424 -6.157902 22.208149 -6.456218 C 21.754808 -6.754534 21.49187 -7.09014 21.537204 -7.537614 C 21.573471 -7.975765 22.353219 -8.087634 22.761226 -8.124923 C 23.169233 -8.171535 23.613508 -8.283404 23.876446 -8.721555 C 24.130317 -9.16903 24.103116 -9.91482 24.103116 -9.91482 L 23.395904 -9.728372 L 23.540973 -11.098761 C 23.540973 -11.098761 23.096698 -10.949603 22.870028 -10.986893 C 22.652424 -11.024182 22.652424 -11.359788 22.543622 -11.695393 C 22.425753 -12.030999 22.244417 -12.180157 22.244417 -12.180157 C 22.244417 -12.180157 22.090281 -11.881841 21.682273 -11.695393 C 21.274266 -11.508946 21.056662 -12.105578 21.056662 -12.105578 C 21.056662 -12.105578 20.757457 -11.91913 19.896108 -11.95642 C 19.043827 -11.993709 18.372881 -12.515762 17.819805 -12.776789 C 17.257662 -13.037815 16.77712 -13.149684 16.369112 -13.112394 C 15.961105 -13.075105 15.471496 -12.925947 15.516831 -12.776789 C 15.553098 -12.627631 16.187776 -12.329315 16.187776 -12.329315 C 16.187776 -12.329315 15.879504 -12.292025 15.444296 -12.180157 C 14.990955 -12.068288 14.737083 -12.105578 14.700816 -11.95642 C 14.655482 -11.807262 15.145091 -11.555558 15.335494 -11.434367 C 15.516831 -11.322498 15.997372 -11.182663 16.03364 -11.024182 C 16.069907 -10.884347 15.362695 -10.809768 15.398962 -10.66061 C 15.444296 -10.511452 15.879504 -10.287715 16.106174 -10.203813 C 16.332845 -10.138557 16.740852 -9.765662 17.293929 -9.87753 C 17.856072 -9.989399 18.109943 -10.315682 18.481683 -10.362294 C 18.853423 -10.399583 19.161695 -10.474162 19.751039 -10.436873 C 20.34945 -10.399583 21.011328 -10.548741 21.129197 -9.91482 C 21.237999 -9.280898 20.57612 -8.908003 19.787306 -8.908003 C 19.007559 -8.908003 19.161695 -9.355477 18.336614 -9.318188 C 17.5206 -9.280898 17.185127 -8.609687 17.112592 -8.059667 C 17.040058 -7.500324 17.964874 -6.493508 17.964874 -6.493508 C 17.964874 -6.493508 17.293929 -6.530797 16.63205 -6.866403 C 15.961105 -7.192686 15.924838 -7.425745 15.961105 -7.649482 C 15.997372 -7.873219 15.444296 -8.013055 15.145091 -7.910509 C 14.845885 -7.79864 14.329076 -7.649482 14.329076 -7.873219 C 14.329076 -8.087634 14.592014 -8.283404 14.474145 -8.460529 C 14.365344 -8.646976 13.612797 -8.609687 13.322658 -8.609687 C 13.023453 -8.609687 12.651713 -8.54443 12.651713 -8.796134 C 12.651713 -9.057161 13.20479 -9.094451 13.023453 -9.280898 C 12.83305 -9.467346 12.134904 -9.653793 11.309823 -9.653793 C 10.493808 -9.653793 9.568992 -9.16903 9.568992 -9.16903 C 9.568992 -9.16903 10.312472 -10.101267 10.085801 -10.576708 C 9.85913 -11.070794 9.605259 -11.136051 9.414856 -11.294531 C 9.233519 -11.434367 8.752977 -11.397077 8.381237 -11.583525 C 8.009497 -11.769972 7.964163 -11.732683 7.674025 -11.881841 C 7.374819 -12.030999 6.549738 -12.66492 6.549738 -12.66492 C 6.549738 -12.66492 6.295867 -12.543729 6.2596 -12.403894 C 6.223332 -12.254736 6.078263 -12.068288 6.078263 -12.068288 C 6.078263 -12.068288 5.371051 -12.804756 5.035578 -12.851368 C 4.700105 -12.888657 4.77264 -12.292025 4.582237 -12.292025 C 4.4009 -12.292025 3.476084 -13.037815 3.476084 -13.037815 C 3.476084 -13.037815 3.430749 -12.366604 3.213146 -12.366604 C 2.986475 -12.366604 2.31553 -13.037815 2.31553 -13.037815 C 2.31553 -13.037815 2.097926 -12.292025 1.164043 -12.254736 C 0.239226 -12.217446 -0.132514 -12.70221 -0.721858 -12.66492 C -1.320268 -12.627631 -2.217884 -11.993709 -2.217884 -11.993709 C -2.217884 -11.993709 -1.546939 -11.844551 -1.510672 -11.658104 C -1.474404 -11.471656 -2.589624 -11.21063 -2.589624 -10.986893 C -2.589624 -10.772478 -1.619474 -10.688577 -1.510672 -10.511452 C -1.40187 -10.315682 -2.027481 -10.026688 -1.954946 -9.840241 C -1.882412 -9.653793 -1.066397 -9.952109 -0.694657 -9.691083 C -0.322917 -9.430056 -0.241316 -9.467346 -0.0237119 -9.616504 C 0.193892 -9.765662 0.837637 -10.399583 1.499515 -10.511452 C 2.17046 -10.613998 2.986475 -10.837735 3.847824 -10.66061 C 4.700105 -10.474162 6.223332 -9.91482 6.223332 -9.91482 C 6.223332 -9.91482 5.588654 -10.362294 4.999311 -9.87753 C 4.4009 -9.392767 4.473435 -9.206319 4.210497 -9.094451 C 3.956625 -8.982582 3.729955 -9.318188 3.249413 -9.243609 C 2.768871 -9.16903 1.834988 -8.283404 1.834988 -8.283404 C 1.834988 -8.283404 0.792303 -8.54443 0.610966 -8.311371 C 0.420563 -8.087634 0.910171 -7.537614 0.792303 -7.239298 C 0.683501 -6.940982 -0.540521 -7.425745 -0.585855 -7.164719 C -0.613056 -6.903692 0.0216223 -6.195192 -0.0599792 -5.934165 C -0.132514 -5.682461 -1.284001 -6.008744 -1.284001 -5.747718 C -1.284001 -5.486691 -0.694657 -4.964638 -0.721858 -4.750224 C -0.767192 -4.526487 -1.40187 -4.703612 -1.510672 -4.526487 C -1.619474 -4.340039 -1.03013 -4.004434 -1.066397 -3.780697 C -1.093598 -3.55696 -1.220533 -3.053551 -1.701075 -2.755235 C -2.181617 -2.456919 -3.732044 -2.298439 -3.732044 -2.298439 L -1.837077 -1.906899 C -1.837077 -1.906899 -2.263218 -1.683162 -2.226951 -1.310267 C -2.190684 -0.937372 -3.605109 -1.245011 -3.605109 -1.245011 L -1.175199 -0.396674 L -3.142701 -0.126325 C -3.142701 -0.126325 -1.438137 1.048294 0.0034886 0.00418779 Z M 0.0034886 0.00418779 " transform="matrix(0.430829,0,0,-0.419019,105.865685,35.45488)"/>
<path style="fill-rule:nonzero;fill:rgb(100%,78.431374%,15.686275%);fill-opacity:1;stroke-width:0.141215;stroke-linecap:butt;stroke-linejoin:miter;stroke:rgb(0%,0%,0%);stroke-opacity:1;stroke-miterlimit:4;" d="M -0.000566677 0.00109247 C -0.000566677 0.00109247 -0.635245 -0.0734865 -0.852848 0.038382 C -1.070452 0.15025 -1.360591 0.728238 -1.188321 0.746882 C -0.852848 0.784172 0.0810348 0.504501 0.0719679 0.373987 C 0.0357006 0.00109247 -0.218171 -1.266751 -0.218171 -1.266751 C -0.218171 -1.266751 -0.0731013 -1.117593 0.189837 -1.154882 C 0.443708 -1.192172 0.634111 -1.89135 0.634111 -1.89135 C 0.634111 -1.89135 0.77918 -1.154882 1.005851 -1.192172 C 1.232522 -1.229461 1.52266 -1.30404 1.52266 -1.30404 C 1.52266 -1.30404 0.933317 0.0756715 0.969584 0.411277 C 1.005851 0.746882 2.229873 0.784172 2.229873 0.784172 C 2.229873 0.784172 2.084804 0.336698 1.749331 0.18754 C 1.413858 0.038382 1.042118 0.18754 1.042118 0.18754 " transform="matrix(0.430829,0,0,-0.419019,108.593994,35.871552)"/>
<path style="fill-rule:nonzero;fill:rgb(100%,78.431374%,15.686275%);fill-opacity:1;stroke-width:0.141215;stroke-linecap:butt;stroke-linejoin:miter;stroke:rgb(0%,0%,0%);stroke-opacity:1;stroke-miterlimit:4;" d="M -0.000230212 0.00414227 L 0.126705 -1.711175 L 1.631799 -0.993352 L 2.420613 0.321103 L 1.631799 -0.993352 L 1.831269 -2.624768 L 3.209427 -1.841688 L 3.472365 -0.461976 L 3.209427 -1.841688 L 3.862238 -3.2214 L 4.850523 -2.102715 L 4.91399 -0.732325 L 4.850523 -2.102715 L 6.092678 -3.2214 L 6.818024 -1.711175 L 6.428151 -0.461976 L 6.818024 -1.711175 L 8.45912 -2.428998 L 8.85806 -0.993352 L 7.996712 0.321103 L 8.85806 -0.993352 L 10.952498 -0.527233 L 9.900746 1.896584 M 3.644634 2.968658 C 3.644634 2.968658 3.644634 2.418637 3.780637 2.1949 C 3.934773 1.971163 3.898506 1.635558 4.088909 1.560979 C 4.270246 1.4864 4.306513 1.971163 4.524117 1.933874 C 4.750787 1.896584 4.524117 1.4864 4.71452 1.150794 C 4.895857 0.815189 5.013725 0.516873 5.349198 0.479583 C 5.684671 0.442294 5.875074 0.889768 5.911341 1.262663 C 5.938542 1.635558 5.875074 2.045742 6.056411 2.045742 C 6.246814 2.045742 6.20148 1.4864 6.391883 1.4864 C 6.57322 1.4864 6.391883 2.157611 6.682022 2.344058 C 6.981227 2.530506 7.244165 3.304263 7.026561 3.304263 C 6.790824 3.304263 6.908692 2.679664 6.355616 2.558473 C 5.793473 2.455927 5.530535 2.558473 5.421733 2.791532 C 5.312931 3.015269 5.122527 3.052559 5.122527 3.052559 C 5.122527 3.052559 5.195062 2.866111 5.013725 2.679664 C 4.832389 2.493216 4.787055 2.493216 4.424382 2.493216 C 4.043575 2.493216 3.862238 2.94069 3.644634 2.968658 Z M 3.644634 2.968658 " transform="matrix(0.430829,0,0,-0.419019,106.578224,37.818142)"/>
<path style=" stroke:none;fill-rule:nonzero;fill:rgb(100%,78.431374%,15.686275%);fill-opacity:1;" d="M 97.285156 39.515625 L 97.898438 38.078125 L 96.449219 37.5 L 97.898438 36.921875 L 97.285156 35.484375 L 98.71875 36.101562 L 99.300781 34.648438 L 99.878906 36.101562 L 101.316406 35.484375 L 100.699219 36.921875 L 102.148438 37.5 L 100.699219 38.078125 L 101.316406 39.515625 L 99.878906 38.898438 L 99.300781 40.351562 L 98.71875 38.898438 Z M 127.714844 39.515625 L 127.101562 38.078125 L 128.550781 37.5 L 127.101562 36.921875 L 127.714844 35.484375 L 126.28125 36.101562 L 125.699219 34.648438 L 125.121094 36.101562 L 123.683594 35.484375 L 124.300781 36.921875 L 122.851562 37.5 L 124.300781 38.078125 L 123.683594 39.515625 L 125.121094 38.898438 L 125.699219 40.351562 L 126.28125 38.898438 Z M 114.515625 52.714844 L 113.078125 52.101562 L 112.5 53.550781 L 111.921875 52.101562 L 110.484375 52.714844 L 111.101562 51.28125 L 109.648438 50.699219 L 111.101562 50.121094 L 110.484375 48.683594 L 111.921875 49.300781 L 112.5 47.851562 L 113.078125 49.300781 L 114.515625 48.683594 L 113.898438 50.121094 L 115.351562 50.699219 L 113.898438 51.28125 Z M 114.515625 22.285156 L 113.078125 22.898438 L 112.5 21.449219 L 111.921875 22.898438 L 110.484375 22.285156 L 111.101562 23.71875 L 109.648438 24.300781 L 111.101562 24.878906 L 110.484375 26.316406 L 111.921875 25.699219 L 112.5 27.148438 L 113.078125 25.699219 L 114.515625 26.316406 L 113.898438 24.878906 L 115.351562 24.300781 L 113.898438 23.71875 Z M 114.515625 22.285156 "/>
</g>
</svg>
