<svg xmlns="http://www.w3.org/2000/svg" width="150" height="150" viewBox="0 0 150 75"><defs><clipPath id="a"><path d="M0 0h88v44H0Zm0 0"/></clipPath><clipPath id="b"><path d="M0 0v18.75h87.5V37.5H75Zm0 37.5v6.25h37.5V0H75Zm0 0"/></clipPath></defs><path d="M0 0h150v75H0z" style="fill:#012169;fill-opacity:1;stroke:none"/><path d="m0 0 600 300m0-300L0 300" style="fill:none;stroke-width:60;stroke-linecap:butt;stroke-linejoin:miter;stroke:#fff;stroke-opacity:1;stroke-miterlimit:4" transform="scale(.125)"/><g clip-path="url(#a)"><g clip-path="url(#b)"><path d="m0 0 600 300m0-300L0 300" style="fill:none;stroke-width:40;stroke-linecap:butt;stroke-linejoin:miter;stroke:#e4002b;stroke-opacity:1;stroke-miterlimit:4" transform="scale(.125)"/></g></g><path d="M0 150h700M300 0v350" style="fill:none;stroke-width:100;stroke-linecap:butt;stroke-linejoin:miter;stroke:#fff;stroke-opacity:1;stroke-miterlimit:4" transform="scale(.125)"/><path d="M0 150h700M300 0v350" style="fill:none;stroke-width:60;stroke-linecap:butt;stroke-linejoin:miter;stroke:#e4002b;stroke-opacity:1;stroke-miterlimit:4" transform="scale(.125)"/><path d="M0 37.5h75V0h75v75H0Zm0 0" style="stroke:none;fill-rule:nonzero;fill:#012169;fill-opacity:1"/><path d="M129.164 37.5c0-9.203-7.46-16.664-16.664-16.664-9.203 0-16.664 7.46-16.664 16.664 0 9.203 7.46 16.664 16.664 16.664 9.203 0 16.664-7.46 16.664-16.664Zm0 0" style="stroke:none;fill-rule:nonzero;fill:#fff;fill-opacity:1"/><path d="M118.645 45.074c-.266.172-.536.364-.512.715a.965.965 0 0 1-.2-1.062c-.347.046-.519.347-.59.66-.081-.364-.241-.957.239-1.098-.062-.312-.363.156-.387.324-.144.594-.132-.11-.16-.363-.023-.238.133-.45.328-.55.239-.47.848-.305 1.266-.274.305.039.742-.067.683-.457.04-.532.012-1.305-.609-1.465-.422-.152-.453.152-.375.496.086.371-.074.246-.305.2-.218.01.067.386-.18.523-.093.152-.48-.313-.5-.067-.038.27-.175.668-.53.551-.11.219-.137.488-.31.695-.296.446-.796.672-1.265.86-.418.02-.515.5-.496.843-.168-.335-.476-.804-.144-1.136a.55.55 0 0 0-.371.734c.14.45-.254-.152-.344-.312-.195-.168.078-.645-.09-.602-.25.16-.234.473-.258.75-.11-.328-.387-.809-.02-1.062.012-.582.708-.66 1.157-.641.398.098.492-.383.75-.586.207-.352.562-.613.734-.973.067-.535-.656-.632-.883-1.027-.203-.133-.132-.563-.382-.547-.66-.016-1.317.16-1.922.383-.418.176-.903-.07-1.301.055.14.222-.25.714-.313.277-.132-.145-.113.66-.332.293-.289-.027.067.352-.132.527-.032.278-.387-.324-.454-.05.075.246-.078.738-.308.363-.332-.196-.121.176-.223.367-.195.504-.14.05-.363-.129.09.148.012.672-.168.461-.3-.04-.27.09-.164.309.004.507-.191.105-.402.238.207.273-.067.46-.293.277-.438.07-.668.547-.715.969-.297.434-.871.652-1.375.477-.223.195-.203.609-.547.695-.399.215-.223-.05-.223-.328.047-.336-.242-.266-.386-.051-.196.164-.278.66-.383.164-.106-.223 0-.477.054-.664-.086-.246-.308.266-.343.414-.063.242-.2-.438-.149-.578.219-.367.32-.957.824-1.082.465-.024.938.015 1.41 0 .18-.461.352-.922.446-1.406.078-.41.426-.73.344-1.176-.012-.235-.403.379-.278-.203-.02-.145-.62.633-.375.12.102-.19.121-.636-.062-.237-.235.312-.645.367-1.008.41.273-.157.672-.407.64-.711-.167.152-.535.683-.503.164a20.589 20.589 0 0 0-.176-.953c-.332.093-.668.023-1.008-.04.18-.085.473-.5.11-.492-.336.11-.43-.148-.731-.043-.18-.183-.516-.105-.77-.05.122-.375-.347-.23-.347.039-.2.168-.184.523-.496.586-.133.066-.703.285-.551.117.238-.102.344-.668.027-.524a.707.707 0 0 0-.28.72c-.263-.255-.5-.645-.278-.993-.246.11-.422.312-.547.55-.086-.413-.242-.937.09-1.265-.301.098-.36.5-.477.77-.004-.422-.191-1.051.258-1.301.27-.102.367-.465.66-.586.395-.328.988-.25 1.39.039.243.098.47.117.735.09.543-.028 1.11.027 1.613.258.032-.18.477-.48.125-.496-.398-.082.067-.329.114-.551.191-.313-.04-.64.035-.969.101-.336.543-.379.715-.66.117-.313-.29-.043-.442-.055-.254.153-.664-.105-.422-.383.008-.277-.171-.738-.511-.59-.477.051-1.067-.054-1.211-.585-.078-.274.14-.73.46-.477.301.188.489.578.9.477.253-.012.5-.067.75-.125-.192-.188-.423-.391-.696-.239-.426.102-.707-.34-.586-.715-.012-.238.02-.71.383-.57.316-.035-.34-.148-.313-.348.067-.355.567-.238.809-.421.465-.207.812-.746 1.39-.676.29-.281.754-.27 1.137-.293-.058-.3.059-.61.219-.863.168.156.312.648.531.515.246-.18-.242-.37.203-.422.344-.093.59.258.606.567.234-.012.476.156.492.402.305-.34.8-.258 1.172-.09-.098.106-.29.688-.07.383.152-.234.734-.168.585.168-.07.43.207-.102.438.09.371-.02-.098.238.074.422.234.148.242.508.55.605.247.102.556.184.2.418-.27.16-.398.188-.07.406.347.32.015.922.492 1.153.16.183.625.136.273.402-.207.16-.359.227-.199.512.016.203.48.418.262.523-.215.078-.477.196-.684.047-.21.383.278.602.586.613 1.582-.27 3.18-.613 4.762-.957.785-.191 1.668-.039 2.262.543.414.368 1.078.02 1.086-.511.117-.641-.59-1.028-1.149-.965-1.3-.125-2.61-.113-3.902-.317-.766-.16-1.45-.757-1.547-1.558-.172-.84.223-1.836 1.09-2.106.855-.343 1.832-.27 2.656.13.566.093 1.07-.22 1.574-.423.575-.195 1.203.067 1.524.567.324-.2.73-.102 1.062.039-.273.125-.605.223-.77.476.204.227.419.47-.038.438-.266.058-.575.094-.75.332-.77.008-1.633-.02-2.235-.55-.457.015-.867-.192-1.281-.329-.64-.098-1.57-.062-1.797.676-.183.476-.066 1.074.422 1.32.965.473 2.086.344 3.133.422.984.063 2.113.098 2.875.824.562.547.504 1.477.008 2.051-.25.309-.559.57-.907.77.235.636.711 1.28.461 1.98-.007.34-.457.492-.386.84-.032.492-.235 1.008-.66 1.285.406.2.214.254-.032.465-.101.152.403.125.48.332.391.27-.128.121-.28.266.101.039.378.695-.02.546-.371-.02-.063.336-.184.532-.117.386-.511.691-.511 1.136-.086.465-.403 1.055-.957.934-.258-.066-.457.27-.75.238Zm0 0" style="stroke:none;fill-rule:nonzero;fill:#000;fill-opacity:1"/><path d="M121.379 36.504c1.832-1.082 1.668-2.695.148-3.242-1.136-.367-2.254-.278-3.39-.367-1.52-.055-2.145-.403-2.328-1.028-.11-1.355.754-1.668 2.09-1.484.347.203.734.312 1.171.332.387.348 1.008.566 2.164.531.239-.277.621-.293.97-.348-.09-.113-.165-.222-.255-.332.07-.164.293-.312.64-.476-.405-.145-.64-.055-.862.074-.477-.734-1.137-.86-1.997-.348-.367.145-.734.22-1.082.184-.62-.332-1.246-.402-1.867-.332-1.281.184-1.87.844-1.797 1.98.075 1.028.715 1.63 1.942 1.797 1.246.07 2.492.164 3.738.254 1.668.184.863 2.457-.328 1.578-.715-.66-1.41-.625-2.125-.515-.898.203-1.797.386-2.695.586-.676.129-1.356.257-2.051.386-.695-.074-.934-.347-.68-.824.13.145.367.145.68 0-.313-.312-.422-.625-.348-.933.11.18.238-.04.348-.184-.367-.113-.586-.332-.68-.645.055-.53-.164-.859-.676-1.007.329-.016.567-.145.715-.348-.347-.145-.66-.293-.715-.621-.238-.164-.293-.348-.148-.531-.328-.11-.457.02-.402.382-.13-.238-.184-.476-.13-.714-.292-.2-.511 0-.695.367a.994.994 0 0 1 .11-.715c-.621-.273-.899-.035-1.153.277.09-.386-.054-.57-.457-.57-.074-.492-.296-.676-.644-.492.168.144.094.308-.219.457a6.11 6.11 0 0 0-.402-.531c-.164.257-.164.511-.13.789-.64 0-1.042.09-1.19.273a1.18 1.18 0 0 0-.825.293c-.183.184-.402.313-.66.441l-.602.165c-.148.128-.019.218.383.402.075.11-.09.203-.312.144-.184-.07-.2.223-.219.496-.035.387.02.715.606.625.421-.222.546.438.988.31-.66.183-1.281.331-1.63.148-.605-.68-.788-.551-.788-.075.11.403.383.696 1.41.551.258.238.367.492.313.75-.13.184-.075.273.218.273.184-.035.367-.09.531-.124.149 0 .184.109.075.347-.164.13-.332.238-.496.367-.274.11-.22.438-.11.785a1.502 1.502 0 0 1-.367.79c.148.09.277.109.402.074a22.76 22.76 0 0 1-.437.64c-.68-.312-1.375-.293-2.07-.238-.13-.055-.239-.11-.368-.148-.695-.438-1.226-.184-1.683.347-.149.203-.149.387 0 .586.015.258.035.532.531.606.035.238.125.441.656.258.04.218.203.293.496.218a1.07 1.07 0 0 0 .332-.511c.309-.055.438 0 .383.183.387-.074.606-.039.696.074.203-.074.332-.058.347.07.551-.07.531.02.625.075.055.148 0 .273-.183.422.328.074.62.09.898-.035l.219 1.187c.148-.125.312-.273.457-.531.055.441-.07.68-.328.824.402-.055.64-.348.804-.77.04.258.075.497 0 .7.149-.13.223-.278.204-.442.09.164.144.348.144.512.203-.164.168-.308.184-.473.074.348.148.696.039 1.043-.239.403-.348.79-.407 1.153-.109.332-.238.66-.347 1.008h-1.153c-.457-.09-.714.183-.863.605-.144.203-.07.328.258.367 0 .09.02.164.074.2.055.238.293.222.531.183.313.223.567.184.79-.11.546.165.988.02 1.335-.421.09-.457.22-.73.383-.785.223-.293.442-.258.66-.149.055-.09.04-.164-.074-.258.13-.218.258-.234.387-.07.09-.203.02-.348-.148-.46.257-.145.421-.165.515-.071.074-.13.055-.332-.039-.586.168.055.313.144.352.363.125-.199.125-.383 0-.531.18-.09.363-.035.546.129a.605.605 0 0 0 0-.567c.204.02.387.036.497.184.109-.238.035-.402-.075-.55.274-.036.403-.036.403 0 .148-.184 0-.259-.07-.348.253-.036.402.035.437.183.183-.203.164-.332-.074-.441.222-.016.441-.016.68-.035.511.109.788.035 1.042-.075.586-.218 1.211-.367 1.942-.312.074.367.277.68.644.937.602.348.676.715.254 1.098-.347.422-.676.844-1.008 1.266-.843-.055-1.3.09-1.375.418-.054.203.059.312.332.332-.02.328.512.437.676.144.074.203.184.387.442.332.164.09.293 0 .421-.11.497-.128.899-.476 1.192-1.116-.02-.278.09-.367.348-.293.218-.149.238-.422.257-.68.22.074.403.148.512.219.164-.219.09-.364 0-.512.254-.074.367-.035.457 0 0-.238-.02-.496-.035-.75.73-.094 1.281.164 1.191 1.61 0 .496-.46.515-.972.476-.368-.07-.735-.09-.973.184-.016.164-.016.332.223.496 0 .328.015.312.308.476.149.348.184.293.551.348.332-.02.512-.149.68-.274.933.254.988-.66 1.152-1.265l.387-.606c.055-.183.09-.367-.04-.547.15-.148.294-.203.442-.148.055-.293-.11-.387-.332-.422.168-.144.352-.219.516-.219-.203-.218-.442-.293-.68-.257.11-.2.219-.383.387-.422-.13-.145-.258-.184-.422-.145.676-.347.86-.933.86-1.613.366-.348.53-.805.386-1.445a65.62 65.62 0 0 0-.496-1.137Zm0 0" style="stroke:none;fill-rule:nonzero;fill:#e4002b;fill-opacity:1"/><path d="M118.008 44.82c-.11.274-.09.532.074.75.02-.164.184-.328.438-.492-.254.016-.438-.074-.512-.258ZM117.586 44.379c-.238.074-.293.312-.219.7.055-.184.203-.333.457-.407-.219-.035-.308-.125-.238-.293ZM117.367 43.813c-.258.09-.258.402-.219.734.055-.184.145-.367.348-.461-.11-.07-.148-.164-.129-.273ZM114.637 44.582c-.164.129-.145.367.054.715 0-.238.11-.422.293-.531-.144-.02-.273-.055-.347-.184ZM113.922 44.418c-.09.184-.016.418.203.676-.055-.184 0-.367.164-.567-.129.035-.238 0-.367-.109ZM113.54 44.07c-.15.11-.15.309-.056.586a.666.666 0 0 1 .274-.457c-.074-.02-.145 0-.219-.129ZM105.695 45.168a.752.752 0 0 1 0 .531c.278-.054.422-.238.496-.496-.164.055-.332.074-.496-.035ZM105.035 44.91c-.125.168-.144.387-.015.66.054-.144.183-.293.367-.437-.184 0-.313-.055-.352-.223ZM104.617 44.547c-.129.074-.113.293-.039.547a.712.712 0 0 1 .293-.438c-.074-.02-.164-.035-.254-.11ZM102.195 39.195c.13.149.02.313-.11.457.388-.09.587-.218.626-.382-.164.054-.332.035-.516-.075ZM101.5 38.922c-.184.219-.145.476.074.75 0-.164.11-.348.332-.55-.183 0-.332-.056-.406-.2ZM100.953 38.336c.07.2.164.383.438.492-.239.11-.403.258-.512.422-.094-.438-.11-.77.074-.914ZM100.805 37.73c-.274.075-.328.403-.293.844a.69.69 0 0 1 .402-.46.62.62 0 0 1-.11-.384Zm0 0" style="stroke:none;fill-rule:nonzero;fill:#e4002b;fill-opacity:1"/><path d="M108.535 32.71c.278.384.442.77.496 1.153 0-.55-.164-.933-.496-1.152ZM109.637 31.54c.422.401.77.784.988 1.17a1.843 1.843 0 0 0-.988-1.17ZM109.086 32.215c.457.586.754 1.246.77 2.015.148-1.062-.239-1.613-.77-2.015Zm0 0" style="stroke:none;fill-rule:nonzero;fill:#000;fill-opacity:1"/><path d="M108.832 32.582c.473.586.695 1.227.566 1.922.204-.953 0-1.594-.566-1.922ZM106.79 30.504c-.087.004-.142.031-.235.062-.13.532.61.586.902.313a.477.477 0 0 0 .117-.14l.012-.032.004-.02c.004-.003-.004-.015-.004-.019v-.008c-.004-.004-.004-.012-.008-.02 0 0-.004-.007-.004-.011-.004 0-.008-.004-.008-.004a.008.008 0 0 0-.007-.008c-.004-.004-.012-.008-.02-.012 0-.003-.004-.007-.004-.007-.004-.004-.015-.004-.02-.008-.113-.047-.32-.05-.425-.063-.145-.023-.23-.03-.3-.023Zm.026.062c.145-.011.344.012.559.059-.191.066-.566.137-.672.188a.03.03 0 0 1-.016.007.3.3 0 0 1-.082-.12v-.04c0-.004.004-.008.008-.012l.004-.011c.004 0 .008-.008.008-.008.008-.008.02-.02.031-.024.004-.003.016-.003.02-.007a.441.441 0 0 1 .14-.032Zm.692.11c-.016.183-.2.273-.73.203.273-.074.53-.133.73-.203ZM118.102 44.656c.054-.183.164-.293.382-.238.586.09.899-.055.954-.441-.13.293-.422.476-1.028.367-.347-.055-.347.129-.308.312ZM117.75 44.125c.02-.223.223-.258.516-.223.511.075.843-.035 1.043-.199-.09.2-.274.367-1.008.254-.239-.016-.422.02-.551.168ZM114.656 44.25c.035-.145.2-.2.457-.145.387 0 .551-.203.66-.476-.109.273-.312.457-.734.422-.254-.11-.402-.035-.383.199ZM115.113 43.5c-.02.148-.074.258-.402.223-.367.054-.66.164-.754.422.02-.352.203-.477.516-.422.293-.02.492-.094.64-.223ZM106.43 44.855c-.075-.308.093-.437.367-.476-.293-.016-.55.02-.367.476ZM105.02 44.602c.074-.223.199-.368.402-.442.402-.129.879-.129 1.355-.074-.511-.125-.972-.145-1.375-.016-.218.07-.347.254-.382.532Zm0 0" style="stroke:none;fill-rule:nonzero;fill:#000;fill-opacity:1"/><path d="M106.816 44.27c-.406-.02-.808-.02-1.062.164-.293.02-.277.257-.203.55 0-.238.02-.457.238-.476.219-.164.606-.219 1.027-.238ZM118.54 30.402c.624-.074 1.1-.312 1.538-.605-.367.402-.844.64-1.539.605ZM120.445 30.164c-.367-.039.64.238.64.238-.073-.148-.292-.183-.64-.238ZM119.602 30.84c.585.183 1.156.277 1.742.074-.531.293-1.102.313-1.742-.074Zm0 0" style="stroke:none;fill-rule:nonzero;fill:#000;fill-opacity:1"/><path d="M120.059 30.254c.66.277 1.32.387 1.925.055-.605.586-1.265.421-1.925-.055Zm0 0" style="stroke:none;fill-rule:nonzero;fill:#000;fill-opacity:1"/><path d="M119.73 30.219c.66-.328 1.282-.348 1.868.11-.547-.567-1.172-.677-1.868-.11ZM119.457 30.418c.695.352 1.484.46 2.344.277-.844.293-1.63.184-2.344-.277ZM112.402 39.836c-.093.387-.257.496-.422.57.329.016.532-.113.422-.57ZM117.367 39.617c-.695.512-1.449.586-2.219.496 1.008.254 1.778.164 2.22-.496ZM117.844 38.664c-.348.918-.383 1.816.273 2.676-.84-.75-.77-1.668-.273-2.676ZM108.008 29.395c.125.312.07.605-.059.918.239-.387.313-.715.059-.918ZM105.184 32.016c.437.18.675.18.734 0-.04.218-.129.382-.734 0ZM105.605 32.785c.512.11 1.063.219.825.403.496-.204.035-.313-.825-.403ZM101.063 38.059c.421-.457.933-.586 1.5-.512-.696-.238-1.208-.074-1.5.512ZM101.574 38.61c.313-.477.77-.696 1.266-.79-.606-.015-1.082.13-1.266.79ZM102.145 38.922c.18-.422.53-.66 1.007-.734-.535-.145-.843.148-1.007.734ZM106.816 34.965c-.476.586-.824 1.207-1.136 1.847.11-.714.312-1.41 1.136-1.847ZM107.695 33.938c-.148.347-.203.675 0 1.027-.257-.352-.203-.68 0-1.028ZM107.273 34.176c0 .183-.093.347-.277.531.293-.203.387-.387.277-.531ZM106.777 34.102c.055.203.09.406-.02.605.24-.2.15-.402.02-.605ZM106.45 34.047c.054.238.015.476-.095.695.258-.219.278-.457.094-.695ZM105.879 32.547c-.656-.258-.969-.223-.914.07-.13-.402.055-.547.914-.07ZM105.293 31.52c.312.109.477.238.64.402-.054-.328-.273-.457-.64-.402ZM105.164 33.59a6.31 6.31 0 0 0 1.688-.477c-.532.313-1.102.496-1.688.477Zm0 0" style="stroke:none;fill-rule:nonzero;fill:#000;fill-opacity:1"/><path d="M106.484 32.379c.88.406 1.301.918.696 1.668.918-.824.55-1.356-.696-1.668ZM109.95 30.309c.198-.13.472-.22.804-.239-.422-.144-.68-.054-.805.239ZM109.14 30.898c.165.348.497.457 1.008.293-.53.348-.878.254-1.007-.293ZM110.148 31.023c-.308-.328-.64-.492-1.007-.218.402-.477.714-.184 1.007.218Zm0 0" style="stroke:none;fill-rule:nonzero;fill:#000;fill-opacity:1"/><path d="M108.902 30.695c.457-.441.989-.386 1.559.164-.55-.605-1.063-.824-1.559-.164ZM109.176 29.762c-.09.273-.274.566-.676.84.586-.254.734-.532.676-.84ZM108.773 29.34c-.128.348-.367.695-.714 1.043.625-.313.918-.66.714-1.043ZM111.305 31.594c.328-.332.695-.11 1.078.183-.492-.625-.86-.68-1.078-.183ZM111.305 30.73c-.278.313-.442.625-.496.918-.149-.332.02-.625.496-.918ZM111.21 30.547c-.44.332-.733.64-.897.953.019-.457.332-.77.898-.953ZM111.21 31.996c.458.09.9.02 1.356-.11-.129.22-1.375.384-1.355.11ZM111.45 32.254c.695.328 1.062.84 1.097 1.574-.016-1.027-.383-1.558-1.098-1.574ZM111.89 33.078a4.046 4.046 0 0 0 1.243 1.758c-.88-.422-1.242-1.027-1.242-1.758ZM110.188 33.734c.402.532.601 1.102.73 1.707.039-.918-.164-1.523-.73-1.707ZM110.113 33.258c.348.11.602.367.73.808 0-.625-.238-.898-.73-.808Zm0 0" style="stroke:none;fill-rule:nonzero;fill:#000;fill-opacity:1"/><path d="M110.406 31.773c.621.551 1.078 1.137 1.317 1.762-.2-1.117-.676-1.594-1.317-1.762ZM109.324 31.996c.824.55 1.446 1.098 1.887 1.668-.328-.625-.953-1.176-1.887-1.668ZM107.86 33.957c.64.531 1.023 1.246 1.023 2.215.222-1.207-.2-1.887-1.024-2.215ZM111.797 38.574c.312.64.332 1.262-.309 1.867.934-.53.86-1.171.309-1.867ZM107.219 39.414c.074.348-.13.531-.387.715.348-.129.586-.313.387-.715ZM105.184 37.691c-.075.348-.02.715.293 1.063-.497-.238-.512-.621-.293-1.063ZM105.988 37.785a3.514 3.514 0 0 0-.218 1.54c-.149-.641-.13-1.173.218-1.54ZM107.145 37.621c-.422.785-.735 1.555-.715 2.344-.164-1.028.164-1.758.715-2.344ZM107.309 39.16c.238.567.457 1.133 1.246 1.188.035-.403-.164-.805-.422-1.207.422.328.75.714.66 1.504-.988.035-1.375-.59-1.484-1.485ZM108.445 38.371c.11.477.258.934.696 1.356-.696-.457-.715-.899-.696-1.356ZM107.457 35.676a3.547 3.547 0 0 1-1.121 2.183c.754-.386 1.21-1.027 1.121-2.183ZM106.906 35.129c-.074.437-.293.898-.695 1.355-.238.258-.238.75 0 1.485-.04-.57-.055-1.102.238-1.395.457-.601.602-1.078.457-1.445Zm0 0" style="stroke:none;fill-rule:nonzero;fill:#000;fill-opacity:1"/><path d="M107.547 35.148c.203.715.348 1.465.055 2.29-.184.53-.184 1.082.257 1.722-.586-.531-.625-1.082-.421-1.668.273-.77.257-1.558.109-2.344ZM109.176 37.07c-.09.477-.274.989-.035 1.52-.055-.512.328-.895.68-1.262-.239.586-.497 1.152-.735 1.723-.348-.606-.238-1.285.09-1.98Zm0 0" style="stroke:none;fill-rule:nonzero;fill:#000;fill-opacity:1"/><path d="M107.95 35.148c1.648 1.649.148 2.27-.016 3.903-.352-1.45 1.3-1.996.015-3.903ZM108.555 33.516c.625.953.808 2.05.53 3.297.552-1.555.15-2.508-.53-3.297ZM111.469 33.734c.531.645.84 1.301.86 1.946.148-.735-.24-1.375-.86-1.946ZM111.102 33.883c.238.972.625 1.758 1.265 2.07-.734-.164-1.101-.973-1.265-2.07Zm0 0" style="stroke:none;fill-rule:nonzero;fill:#000;fill-opacity:1"/><path d="M110.992 34.25c.203.844.274 1.668-.02 2.508.626-.84.442-1.664.02-2.508ZM109.469 34.508a3.2 3.2 0 0 1 .496 1.316c.11-.476-.055-.914-.496-1.316ZM109.434 35.934c.441.695.695 1.449.789 2.199.109-.918-.164-1.668-.79-2.2Zm0 0" style="stroke:none;fill-rule:nonzero;fill:#000;fill-opacity:1"/><path d="M109.836 34.379c.824 1.262 1.191 2.527.477 3.809.843-1.356.824-2.637-.477-3.81Zm0 0" style="stroke:none;fill-rule:nonzero;fill:#000;fill-opacity:1"/></svg>