<?xml version="1.0" encoding="UTF-8"?>
<svg xmlns="http://www.w3.org/2000/svg" xmlns:xlink="http://www.w3.org/1999/xlink" width="150px" height="150px" viewBox="0 0 150 75" version="1.1">
<g id="surface1">
<path style=" stroke:none;fill-rule:nonzero;fill:rgb(0.392157%,12.941177%,41.176471%);fill-opacity:1;" d="M 75.125 0.125 C 100.121094 0.125 125.117188 0.125 150.121094 0.125 C 150.121094 25.117188 150.121094 50.109375 150.121094 75.113281 C 100.140625 75.113281 50.15625 75.113281 0.125 75.113281 C 0.125 62.664062 0.125 50.203125 0.15625 37.675781 C 0.207031 37.609375 0.226562 37.605469 0.308594 37.613281 C 2.191406 37.613281 4.015625 37.609375 5.902344 37.613281 C 6.359375 37.621094 6.757812 37.589844 7.148438 37.632812 C 8.09375 37.730469 8.917969 37.445312 9.757812 37.019531 C 16.710938 33.515625 23.679688 30.046875 30.644531 26.566406 C 30.863281 26.457031 31.082031 26.351562 31.386719 26.207031 C 31.386719 30.058594 31.386719 33.828125 31.386719 37.605469 C 32.257812 37.605469 33.066406 37.605469 33.933594 37.613281 C 36.453125 37.617188 38.914062 37.609375 41.433594 37.613281 C 42.273438 37.625 43.058594 37.625 43.878906 37.625 C 43.878906 33.800781 43.878906 30.042969 43.878906 26.21875 C 44.160156 26.347656 44.378906 26.445312 44.597656 26.550781 C 51.835938 30.167969 59.074219 33.785156 66.316406 37.398438 C 66.53125 37.503906 66.777344 37.613281 67.007812 37.617188 C 69.671875 37.625 72.335938 37.609375 75.046875 37.582031 C 75.097656 36.636719 75.101562 35.710938 75.113281 34.730469 C 75.316406 33.738281 74.910156 33.273438 74.050781 32.855469 C 69.085938 30.441406 64.160156 27.949219 59.222656 25.476562 C 59.054688 25.394531 58.898438 25.292969 58.734375 25.199219 C 58.75 25.164062 58.761719 25.128906 58.773438 25.097656 C 64.214844 25.097656 69.65625 25.097656 75.105469 25.097656 C 75.105469 24.242188 75.105469 23.433594 75.113281 22.566406 C 75.117188 20.046875 75.109375 17.585938 75.113281 15.066406 C 75.125 14.226562 75.125 13.441406 75.125 12.601562 C 69.625 12.601562 64.191406 12.601562 58.597656 12.601562 C 58.871094 12.460938 58.992188 12.390625 59.117188 12.328125 C 64.28125 9.746094 69.445312 7.160156 74.617188 4.589844 C 75 4.398438 75.148438 4.183594 75.136719 3.746094 C 75.101562 2.539062 75.125 1.332031 75.125 0.125 M 106.820312 21.996094 C 106.625 22.074219 106.433594 22.152344 106.242188 22.230469 C 98.898438 25.226562 94.632812 33.273438 96.289062 40.996094 C 98.203125 49.90625 106.570312 55.550781 115.582031 54.015625 C 124.757812 52.449219 130.960938 43.207031 128.914062 34.152344 C 126.65625 24.144531 116.609375 18.582031 106.820312 21.996094 Z M 106.820312 21.996094 "/>
<path style=" stroke:none;fill-rule:nonzero;fill:rgb(89.411765%,0%,16.862746%);fill-opacity:1;" d="M 75.105469 15.125 C 75.109375 17.585938 75.117188 20.046875 75.054688 22.566406 C 63.796875 22.625 52.605469 22.625 41.375 22.625 C 41.375 27.664062 41.375 32.632812 41.375 37.605469 C 38.914062 37.609375 36.453125 37.617188 33.933594 37.554688 C 33.875 32.542969 33.875 27.597656 33.875 22.625 C 22.570312 22.625 11.347656 22.625 0.125 22.625 C 0.125 20.164062 0.125 17.703125 0.183594 15.183594 C 11.441406 15.125 22.640625 15.125 33.875 15.125 C 33.875 10.078125 33.875 5.101562 33.875 0.125 C 36.335938 0.125 38.796875 0.125 41.316406 0.183594 C 41.375 5.191406 41.375 10.136719 41.375 15.125 C 52.664062 15.125 63.882812 15.125 75.105469 15.125 Z M 75.105469 15.125 "/>
<path style=" stroke:none;fill-rule:nonzero;fill:rgb(99.607843%,99.607843%,99.607843%);fill-opacity:1;" d="M 33.816406 0.125 C 33.875 5.101562 33.875 10.078125 33.875 15.125 C 22.640625 15.125 11.441406 15.125 0.183594 15.125 C 0.125 14.332031 0.125 13.535156 0.183594 12.683594 C 5.660156 12.625 11.082031 12.625 16.5 12.625 C 16.40625 12.464844 16.285156 12.402344 16.167969 12.339844 C 10.953125 9.730469 5.742188 7.121094 0.527344 4.515625 C 0.402344 4.453125 0.257812 4.421875 0.125 4.375 C 0.125 3.953125 0.125 3.535156 0.171875 3.050781 C 0.386719 3.0625 0.554688 3.136719 0.722656 3.222656 C 6.039062 5.878906 11.386719 8.46875 16.652344 11.222656 C 18.613281 12.246094 20.554688 12.871094 22.761719 12.636719 C 23.464844 12.5625 24.179688 12.625 24.890625 12.625 C 24.75 12.441406 24.609375 12.363281 24.464844 12.289062 C 17.847656 8.980469 11.230469 5.679688 4.617188 2.367188 C 3.152344 1.632812 1.703125 0.875 0.25 0.125 C 3.003906 0.125 5.753906 0.125 8.589844 0.160156 C 16.21875 3.972656 23.765625 7.746094 31.375 11.550781 C 31.375 7.664062 31.375 3.894531 31.375 0.125 C 32.167969 0.125 32.964844 0.125 33.816406 0.125 Z M 33.816406 0.125 "/>
<path style=" stroke:none;fill-rule:nonzero;fill:rgb(99.607843%,99.607843%,99.607843%);fill-opacity:1;" d="M 75.113281 15.066406 C 63.882812 15.125 52.664062 15.125 41.375 15.125 C 41.375 10.136719 41.375 5.191406 41.375 0.183594 C 42.167969 0.125 42.964844 0.125 43.816406 0.183594 C 43.875 3.984375 43.875 7.722656 43.875 11.535156 C 44.125 11.417969 44.308594 11.339844 44.488281 11.25 C 50.378906 8.308594 56.265625 5.367188 62.148438 2.417969 C 63.648438 1.664062 65.132812 0.890625 66.625 0.125 C 67.503906 0.125 68.378906 0.125 69.304688 0.167969 C 61.152344 4.316406 52.953125 8.417969 44.753906 12.523438 C 46.371094 12.625 47.964844 12.640625 49.558594 12.613281 C 49.917969 12.609375 50.304688 12.527344 50.621094 12.367188 C 57.246094 9.074219 63.859375 5.765625 70.472656 2.453125 C 71.992188 1.691406 73.492188 0.902344 75 0.125 C 75 0.125 75.0625 0.125 75.09375 0.125 C 75.125 1.332031 75.101562 2.539062 75.136719 3.746094 C 75.148438 4.183594 75 4.398438 74.617188 4.589844 C 69.445312 7.160156 64.28125 9.746094 59.117188 12.328125 C 58.992188 12.390625 58.871094 12.460938 58.597656 12.601562 C 64.191406 12.601562 69.625 12.601562 75.125 12.601562 C 75.125 13.441406 75.125 14.226562 75.113281 15.066406 Z M 75.113281 15.066406 "/>
<path style=" stroke:none;fill-rule:nonzero;fill:rgb(99.607843%,99.607843%,99.607843%);fill-opacity:1;" d="M 0.125 22.683594 C 11.347656 22.625 22.570312 22.625 33.875 22.625 C 33.875 27.597656 33.875 32.542969 33.875 37.546875 C 33.066406 37.605469 32.257812 37.605469 31.386719 37.605469 C 31.386719 33.828125 31.386719 30.058594 31.386719 26.207031 C 31.082031 26.351562 30.863281 26.457031 30.644531 26.566406 C 23.679688 30.046875 16.710938 33.515625 9.757812 37.019531 C 8.917969 37.445312 8.09375 37.730469 7.148438 37.632812 C 6.757812 37.589844 6.359375 37.621094 5.929688 37.578125 C 14.101562 33.433594 22.304688 29.335938 30.507812 25.234375 C 28.871094 25.125 27.261719 25.109375 25.648438 25.136719 C 25.3125 25.140625 24.949219 25.226562 24.648438 25.378906 C 19.253906 28.058594 13.863281 30.753906 8.476562 33.453125 C 5.730469 34.832031 2.992188 36.21875 0.25 37.605469 C 0.226562 37.605469 0.207031 37.609375 0.15625 37.617188 C 0.125 36.246094 0.125 34.871094 0.171875 33.433594 C 5.65625 30.664062 11.09375 27.949219 16.535156 25.234375 C 16.519531 25.195312 16.503906 25.160156 16.488281 25.125 C 11.035156 25.125 5.578125 25.125 0.125 25.125 C 0.125 24.332031 0.125 23.535156 0.125 22.683594 Z M 0.125 22.683594 "/>
<path style=" stroke:none;fill-rule:nonzero;fill:rgb(0.784314%,13.333334%,41.176471%);fill-opacity:1;" d="M 66.566406 0.125 C 65.132812 0.890625 63.648438 1.664062 62.148438 2.417969 C 56.265625 5.367188 50.378906 8.308594 44.488281 11.25 C 44.308594 11.339844 44.125 11.417969 43.875 11.535156 C 43.875 7.722656 43.875 3.984375 43.875 0.183594 C 51.417969 0.125 58.964844 0.125 66.566406 0.125 Z M 66.566406 0.125 "/>
<path style=" stroke:none;fill-rule:nonzero;fill:rgb(0.784314%,13.333334%,41.568628%);fill-opacity:1;" d="M 31.316406 0.125 C 31.375 3.894531 31.375 7.664062 31.375 11.550781 C 23.765625 7.746094 16.21875 3.972656 8.648438 0.160156 C 16.167969 0.125 23.714844 0.125 31.316406 0.125 Z M 31.316406 0.125 "/>
<path style=" stroke:none;fill-rule:nonzero;fill:rgb(89.411765%,1.568628%,18.039216%);fill-opacity:1;" d="M 74.941406 0.125 C 73.492188 0.902344 71.992188 1.691406 70.472656 2.453125 C 63.859375 5.765625 57.246094 9.074219 50.621094 12.367188 C 50.304688 12.527344 49.917969 12.609375 49.558594 12.613281 C 47.964844 12.640625 46.371094 12.625 44.753906 12.523438 C 52.953125 8.417969 61.152344 4.316406 69.363281 0.167969 C 71.210938 0.125 73.046875 0.125 74.941406 0.125 Z M 74.941406 0.125 "/>
<path style=" stroke:none;fill-rule:nonzero;fill:rgb(0.784314%,13.333334%,41.568628%);fill-opacity:1;" d="M 0.125 25.183594 C 5.578125 25.125 11.035156 25.125 16.488281 25.125 C 16.503906 25.160156 16.519531 25.195312 16.535156 25.234375 C 11.09375 27.949219 5.65625 30.664062 0.171875 33.375 C 0.125 30.664062 0.125 27.953125 0.125 25.183594 Z M 0.125 25.183594 "/>
<path style=" stroke:none;fill-rule:nonzero;fill:rgb(0.784314%,13.333334%,41.568628%);fill-opacity:1;" d="M 0.125 4.433594 C 0.257812 4.421875 0.402344 4.453125 0.527344 4.515625 C 5.742188 7.121094 10.953125 9.730469 16.167969 12.339844 C 16.285156 12.402344 16.40625 12.464844 16.5 12.625 C 11.082031 12.625 5.660156 12.625 0.183594 12.625 C 0.125 9.914062 0.125 7.203125 0.125 4.433594 Z M 0.125 4.433594 "/>
<path style=" stroke:none;fill-rule:nonzero;fill:rgb(89.411765%,1.568628%,18.039216%);fill-opacity:1;" d="M 0.1875 0.125 C 1.703125 0.875 3.152344 1.632812 4.617188 2.367188 C 11.230469 5.679688 17.847656 8.980469 24.464844 12.289062 C 24.609375 12.363281 24.75 12.441406 24.890625 12.625 C 24.179688 12.625 23.464844 12.5625 22.761719 12.636719 C 20.554688 12.871094 18.613281 12.246094 16.652344 11.222656 C 11.386719 8.46875 6.039062 5.878906 0.722656 3.222656 C 0.554688 3.136719 0.386719 3.0625 0.171875 2.992188 C 0.125 2.042969 0.125 1.082031 0.1875 0.125 Z M 0.1875 0.125 "/>
<path style=" stroke:none;fill-rule:nonzero;fill:rgb(99.607843%,81.568629%,0%);fill-opacity:1;" d="M 106.867188 21.984375 C 116.609375 18.582031 126.65625 24.144531 128.914062 34.152344 C 130.960938 43.207031 124.757812 52.449219 115.582031 54.015625 C 106.570312 55.550781 98.203125 49.90625 96.289062 40.996094 C 94.632812 33.273438 98.898438 25.226562 106.242188 22.230469 C 106.433594 22.152344 106.625 22.074219 106.867188 21.984375 M 116.289062 29.636719 C 115.972656 30.089844 115.65625 30.542969 115.296875 31.050781 C 115.21875 30.757812 115.164062 30.558594 115.097656 30.3125 C 114.972656 30.496094 114.890625 30.621094 114.746094 30.832031 C 114.683594 30.421875 114.636719 30.117188 114.589844 29.804688 C 113.960938 30.660156 113.253906 31.425781 112.785156 32.3125 C 112.300781 33.226562 111.613281 33.832031 110.808594 34.433594 C 109.605469 35.332031 108.746094 36.496094 108.949219 38.152344 C 108.976562 38.378906 108.84375 38.621094 108.78125 38.855469 C 108.714844 38.855469 108.644531 38.851562 108.578125 38.851562 C 108.507812 38.648438 108.40625 38.449219 108.371094 38.242188 C 108.171875 37.125 108.53125 36.152344 109.160156 35.25 C 109.730469 34.429688 110.378906 33.648438 110.820312 32.761719 C 111.574219 31.257812 111.339844 29.019531 109.09375 28.796875 C 108.019531 28.691406 106.886719 29.292969 106.625 30.285156 C 106.464844 30.902344 106.519531 31.578125 106.507812 32.230469 C 106.507812 32.328125 106.691406 32.425781 106.867188 32.601562 C 106.984375 31.839844 107.335938 31.480469 107.980469 31.386719 C 108.191406 31.359375 108.371094 31.160156 108.574219 31.0625 C 108.800781 30.953125 109.039062 30.871094 109.269531 30.777344 C 109.371094 31.054688 109.589844 31.351562 109.542969 31.601562 C 109.464844 32.011719 109.273438 32.433594 109.019531 32.769531 C 108.589844 33.328125 108.046875 33.800781 107.605469 34.351562 C 106.859375 35.296875 106.105469 36.242188 105.457031 37.25 C 104.957031 38.035156 104.792969 38.949219 104.949219 39.894531 C 105.28125 41.945312 106.601562 43.023438 108.898438 43.613281 C 110.527344 44.03125 112.121094 43.699219 113.699219 43.277344 C 114.011719 43.195312 114.261719 43.171875 114.535156 43.453125 C 114.953125 43.882812 115.503906 44.105469 116.125 44.003906 C 116.757812 43.898438 117.382812 43.75 118.007812 43.617188 C 118.03125 43.609375 118.042969 43.570312 118.070312 43.53125 C 117.984375 43.496094 117.90625 43.472656 117.835938 43.433594 C 117.757812 43.390625 117.683594 43.335938 117.519531 43.226562 C 117.695312 43.175781 117.765625 43.152344 117.835938 43.132812 C 119.351562 42.785156 120.554688 41.902344 121.621094 40.824219 C 122.007812 40.433594 121.980469 39.753906 122.503906 39.40625 C 122.699219 39.277344 122.8125 39.023438 122.96875 38.8125 C 122.832031 38.777344 122.734375 38.75 122.558594 38.699219 C 122.980469 38.003906 123.371094 37.359375 123.792969 36.667969 C 122.339844 36.898438 121.253906 38.199219 119.644531 37.769531 C 119.988281 37.257812 120.300781 36.796875 120.628906 36.308594 C 120.386719 36.289062 120.199219 36.273438 120.003906 36.257812 C 120.25 35.976562 120.492188 35.726562 120.699219 35.453125 C 120.898438 35.1875 121.0625 34.894531 121.285156 34.652344 C 121.296875 34.621094 121.308594 34.589844 121.320312 34.558594 C 121.296875 34.582031 121.273438 34.605469 121.160156 34.617188 C 120.566406 35.085938 120.226562 34.496094 119.789062 34.292969 C 120.0625 33.921875 120.335938 33.550781 120.714844 33.039062 C 120.183594 33.253906 119.820312 33.398438 119.457031 33.542969 C 119.433594 33.503906 119.414062 33.464844 119.390625 33.425781 C 119.582031 33.214844 119.769531 33.003906 119.914062 32.757812 C 119.914062 32.757812 119.917969 32.753906 119.921875 32.757812 C 119.933594 32.769531 119.945312 32.78125 119.867188 32.722656 C 119.679688 32.738281 119.488281 32.753906 119.257812 32.773438 C 119.425781 32.328125 119.570312 31.941406 119.738281 31.625 C 119.765625 31.609375 119.796875 31.597656 119.824219 31.585938 C 119.789062 31.582031 119.753906 31.578125 119.640625 31.625 C 119.128906 31.785156 118.613281 31.941406 118.097656 32.097656 C 118.074219 32.046875 118.050781 32 118.03125 31.949219 C 118.285156 31.488281 118.542969 31.027344 118.847656 30.519531 C 118.84375 30.488281 118.84375 30.457031 118.839844 30.425781 C 118.808594 30.449219 118.777344 30.472656 118.664062 30.511719 C 118.351562 30.726562 118.039062 30.941406 117.578125 31.261719 C 117.746094 30.621094 117.867188 30.175781 117.988281 29.726562 C 117.519531 30.277344 117.019531 30.675781 116.292969 30.738281 C 116.316406 30.3125 116.332031 29.9375 116.359375 29.628906 C 116.386719 29.621094 116.414062 29.617188 116.445312 29.609375 C 116.414062 29.597656 116.382812 29.589844 116.289062 29.636719 Z M 116.289062 29.636719 "/>
<path style=" stroke:none;fill-rule:nonzero;fill:rgb(99.607843%,99.607843%,99.607843%);fill-opacity:1;" d="M 41.433594 37.613281 C 41.375 32.632812 41.375 27.664062 41.375 22.625 C 52.605469 22.625 63.796875 22.625 75.046875 22.625 C 75.105469 23.433594 75.105469 24.242188 75.105469 25.097656 C 69.65625 25.097656 64.214844 25.097656 58.773438 25.097656 C 58.761719 25.128906 58.75 25.164062 58.734375 25.199219 C 58.898438 25.292969 59.054688 25.394531 59.222656 25.476562 C 64.160156 27.949219 69.085938 30.441406 74.050781 32.855469 C 74.910156 33.273438 75.316406 33.738281 75.070312 34.71875 C 68.773438 31.644531 62.527344 28.519531 56.28125 25.402344 C 56.0625 25.292969 55.824219 25.140625 55.59375 25.136719 C 53.855469 25.117188 52.117188 25.125 50.375 25.125 C 50.523438 25.316406 50.699219 25.410156 50.875 25.5 C 56.46875 28.296875 62.070312 31.089844 67.664062 33.890625 C 70.113281 35.117188 72.554688 36.367188 75 37.605469 C 72.335938 37.609375 69.671875 37.625 67.007812 37.617188 C 66.777344 37.613281 66.53125 37.503906 66.316406 37.398438 C 59.074219 33.785156 51.835938 30.167969 44.597656 26.550781 C 44.378906 26.445312 44.160156 26.347656 43.878906 26.21875 C 43.878906 30.042969 43.878906 33.800781 43.878906 37.625 C 43.058594 37.625 42.273438 37.625 41.433594 37.613281 Z M 41.433594 37.613281 "/>
<path style=" stroke:none;fill-rule:nonzero;fill:rgb(89.411765%,1.568628%,18.039216%);fill-opacity:1;" d="M 0.308594 37.613281 C 2.992188 36.21875 5.730469 34.832031 8.476562 33.453125 C 13.863281 30.753906 19.253906 28.058594 24.648438 25.378906 C 24.949219 25.226562 25.3125 25.140625 25.648438 25.136719 C 27.261719 25.109375 28.871094 25.125 30.507812 25.234375 C 22.304688 29.335938 14.101562 33.433594 5.871094 37.570312 C 4.015625 37.609375 2.191406 37.613281 0.308594 37.613281 Z M 0.308594 37.613281 "/>
<path style=" stroke:none;fill-rule:nonzero;fill:rgb(89.411765%,1.568628%,18.039216%);fill-opacity:1;" d="M 75.046875 37.582031 C 72.554688 36.367188 70.113281 35.117188 67.664062 33.890625 C 62.070312 31.089844 56.46875 28.296875 50.875 25.5 C 50.699219 25.410156 50.523438 25.316406 50.375 25.125 C 52.117188 25.125 53.855469 25.117188 55.59375 25.136719 C 55.824219 25.140625 56.0625 25.292969 56.28125 25.402344 C 62.527344 28.519531 68.773438 31.644531 75.0625 34.777344 C 75.101562 35.710938 75.097656 36.636719 75.046875 37.582031 Z M 75.046875 37.582031 "/>
<path style=" stroke:none;fill-rule:nonzero;fill:rgb(0.784314%,0.784314%,0%);fill-opacity:1;" d="M 121.242188 34.613281 C 121.0625 34.894531 120.898438 35.1875 120.699219 35.453125 C 120.492188 35.726562 120.25 35.976562 120.003906 36.257812 C 120.199219 36.273438 120.386719 36.289062 120.628906 36.308594 C 120.300781 36.796875 119.988281 37.257812 119.644531 37.769531 C 121.253906 38.199219 122.339844 36.898438 123.792969 36.667969 C 123.371094 37.359375 122.980469 38.003906 122.558594 38.699219 C 122.734375 38.75 122.832031 38.777344 122.96875 38.8125 C 122.8125 39.023438 122.699219 39.277344 122.503906 39.40625 C 121.980469 39.753906 122.007812 40.433594 121.621094 40.824219 C 120.554688 41.902344 119.351562 42.785156 117.835938 43.132812 C 117.765625 43.152344 117.695312 43.175781 117.519531 43.226562 C 117.683594 43.335938 117.757812 43.390625 117.835938 43.433594 C 117.90625 43.472656 117.984375 43.496094 118.070312 43.53125 C 118.042969 43.570312 118.03125 43.609375 118.007812 43.617188 C 117.382812 43.75 116.757812 43.898438 116.125 44.003906 C 115.503906 44.105469 114.953125 43.882812 114.535156 43.453125 C 114.261719 43.171875 114.011719 43.195312 113.699219 43.277344 C 112.121094 43.699219 110.527344 44.03125 108.898438 43.613281 C 106.601562 43.023438 105.28125 41.945312 104.949219 39.894531 C 104.792969 38.949219 104.957031 38.035156 105.457031 37.25 C 106.105469 36.242188 106.859375 35.296875 107.605469 34.351562 C 108.046875 33.800781 108.589844 33.328125 109.019531 32.769531 C 109.273438 32.433594 109.464844 32.011719 109.542969 31.601562 C 109.589844 31.351562 109.371094 31.054688 109.269531 30.777344 C 109.039062 30.871094 108.800781 30.953125 108.574219 31.0625 C 108.371094 31.160156 108.191406 31.359375 107.980469 31.386719 C 107.335938 31.480469 106.984375 31.839844 106.867188 32.601562 C 106.691406 32.425781 106.507812 32.328125 106.507812 32.230469 C 106.519531 31.578125 106.464844 30.902344 106.625 30.285156 C 106.886719 29.292969 108.019531 28.691406 109.09375 28.796875 C 111.339844 29.019531 111.574219 31.257812 110.820312 32.761719 C 110.378906 33.648438 109.730469 34.429688 109.160156 35.25 C 108.53125 36.152344 108.171875 37.125 108.371094 38.242188 C 108.40625 38.449219 108.507812 38.648438 108.578125 38.851562 C 108.644531 38.851562 108.714844 38.855469 108.78125 38.855469 C 108.84375 38.621094 108.976562 38.378906 108.949219 38.152344 C 108.746094 36.496094 109.605469 35.332031 110.808594 34.433594 C 111.613281 33.832031 112.300781 33.226562 112.785156 32.3125 C 113.253906 31.425781 113.960938 30.660156 114.589844 29.804688 C 114.636719 30.117188 114.683594 30.421875 114.746094 30.832031 C 114.890625 30.621094 114.972656 30.496094 115.097656 30.3125 C 115.164062 30.558594 115.21875 30.757812 115.296875 31.050781 C 115.65625 30.542969 115.972656 30.089844 116.320312 29.605469 C 116.351562 29.570312 116.351562 29.5625 116.351562 29.5625 C 116.332031 29.9375 116.316406 30.3125 116.292969 30.738281 C 117.019531 30.675781 117.519531 30.277344 117.988281 29.726562 C 117.867188 30.175781 117.746094 30.621094 117.578125 31.261719 C 118.039062 30.941406 118.351562 30.726562 118.71875 30.523438 C 118.773438 30.53125 118.800781 30.566406 118.800781 30.566406 C 118.542969 31.027344 118.285156 31.488281 118.03125 31.949219 C 118.050781 32 118.074219 32.046875 118.097656 32.097656 C 118.613281 31.941406 119.128906 31.785156 119.679688 31.59375 C 119.714844 31.566406 119.714844 31.558594 119.714844 31.558594 C 119.570312 31.941406 119.425781 32.328125 119.257812 32.773438 C 119.488281 32.753906 119.679688 32.738281 119.910156 32.757812 C 119.949219 32.789062 119.960938 32.792969 119.960938 32.792969 C 119.769531 33.003906 119.582031 33.214844 119.390625 33.425781 C 119.414062 33.464844 119.433594 33.503906 119.457031 33.542969 C 119.820312 33.398438 120.183594 33.253906 120.714844 33.039062 C 120.335938 33.550781 120.0625 33.921875 119.789062 34.292969 C 120.226562 34.496094 120.566406 35.085938 121.203125 34.621094 C 121.246094 34.621094 121.242188 34.613281 121.242188 34.613281 Z M 121.242188 34.613281 "/>
<path style=" stroke:none;fill-rule:nonzero;fill:rgb(0.784314%,0.784314%,0%);fill-opacity:1;" d="M 116.351562 29.574219 C 116.382812 29.589844 116.414062 29.597656 116.445312 29.609375 C 116.414062 29.617188 116.386719 29.621094 116.355469 29.59375 C 116.351562 29.5625 116.351562 29.570312 116.351562 29.574219 Z M 116.351562 29.574219 "/>
<path style=" stroke:none;fill-rule:nonzero;fill:rgb(0.784314%,0.784314%,0%);fill-opacity:1;" d="M 118.761719 30.515625 C 118.777344 30.472656 118.808594 30.449219 118.839844 30.425781 C 118.84375 30.457031 118.84375 30.488281 118.824219 30.542969 C 118.800781 30.566406 118.773438 30.53125 118.761719 30.515625 Z M 118.761719 30.515625 "/>
<path style=" stroke:none;fill-rule:nonzero;fill:rgb(0.784314%,0.784314%,0%);fill-opacity:1;" d="M 119.71875 31.570312 C 119.753906 31.578125 119.789062 31.582031 119.824219 31.585938 C 119.796875 31.597656 119.765625 31.609375 119.726562 31.589844 C 119.714844 31.558594 119.714844 31.566406 119.71875 31.570312 Z M 119.71875 31.570312 "/>
<path style=" stroke:none;fill-rule:nonzero;fill:rgb(0.784314%,0.784314%,0%);fill-opacity:1;" d="M 119.953125 32.792969 C 119.945312 32.78125 119.933594 32.769531 119.921875 32.757812 C 119.917969 32.753906 119.914062 32.757812 119.9375 32.777344 C 119.960938 32.792969 119.949219 32.789062 119.953125 32.792969 Z M 119.953125 32.792969 "/>
<path style=" stroke:none;fill-rule:nonzero;fill:rgb(0.784314%,0.784314%,0%);fill-opacity:1;" d="M 121.25 34.625 C 121.273438 34.605469 121.296875 34.582031 121.320312 34.558594 C 121.308594 34.589844 121.296875 34.621094 121.265625 34.632812 C 121.242188 34.613281 121.246094 34.621094 121.25 34.625 Z M 121.25 34.625 "/>
</g>
</svg>
