<?xml version="1.0" encoding="UTF-8"?>
<svg xmlns="http://www.w3.org/2000/svg" xmlns:xlink="http://www.w3.org/1999/xlink" width="150px" height="150px" viewBox="0 0 150 75" version="1.1">
<defs>
<clipPath id="clip1">
  <path d="M 0 0 L 88 0 L 88 44 L 0 44 Z M 0 0 "/>
</clipPath>
<clipPath id="clip2">
  <path d="M 0 0 L 0 18.75 L 87.5 18.75 L 87.5 37.5 L 75 37.5 Z M 0 37.5 L 0 43.75 L 37.5 43.75 L 37.5 0 L 75 0 Z M 0 37.5 "/>
</clipPath>
</defs>
<g id="surface1">
<rect x="0" y="0" width="150" height="75" style="fill:rgb(0.392157%,12.941177%,41.176471%);fill-opacity:1;stroke:none;"/>
<path style="fill:none;stroke-width:60;stroke-linecap:butt;stroke-linejoin:miter;stroke:rgb(100%,100%,100%);stroke-opacity:1;stroke-miterlimit:4;" d="M 0 0 L 600 300 M 600 0 L 0 300 " transform="matrix(0.125,0,0,0.125,0,0)"/>
<g clip-path="url(#clip1)" clip-rule="nonzero">
<g clip-path="url(#clip2)" clip-rule="nonzero">
<path style="fill:none;stroke-width:40;stroke-linecap:butt;stroke-linejoin:miter;stroke:rgb(89.411765%,0%,16.862746%);stroke-opacity:1;stroke-miterlimit:4;" d="M 0 0 L 600 300 M 600 0 L 0 300 " transform="matrix(0.125,0,0,0.125,0,0)"/>
</g>
</g>
<path style="fill:none;stroke-width:100;stroke-linecap:butt;stroke-linejoin:miter;stroke:rgb(100%,100%,100%);stroke-opacity:1;stroke-miterlimit:4;" d="M 0 150 L 700 150 M 300 0 L 300 350 " transform="matrix(0.125,0,0,0.125,0,0)"/>
<path style="fill:none;stroke-width:60;stroke-linecap:butt;stroke-linejoin:miter;stroke:rgb(89.411765%,0%,16.862746%);stroke-opacity:1;stroke-miterlimit:4;" d="M 0 150 L 700 150 M 300 0 L 300 350 " transform="matrix(0.125,0,0,0.125,0,0)"/>
<path style=" stroke:none;fill-rule:nonzero;fill:rgb(0.392157%,12.941177%,41.176471%);fill-opacity:1;" d="M 0 37.5 L 75 37.5 L 75 0 L 150 0 L 150 75 L 0 75 Z M 0 37.5 "/>
<path style=" stroke:none;fill-rule:nonzero;fill:rgb(100%,100%,100%);fill-opacity:1;" d="M 129.164062 37.5 C 129.164062 28.296875 121.703125 20.835938 112.5 20.835938 C 103.296875 20.835938 95.835938 28.296875 95.835938 37.5 C 95.835938 46.703125 103.296875 54.164062 112.5 54.164062 C 121.703125 54.164062 129.164062 46.703125 129.164062 37.5 Z M 129.164062 37.5 "/>
<path style=" stroke:none;fill-rule:nonzero;fill:rgb(0%,0%,0%);fill-opacity:1;" d="M 118.644531 45.074219 C 118.378906 45.246094 118.109375 45.4375 118.132812 45.789062 C 117.855469 45.503906 117.777344 45.09375 117.933594 44.726562 C 117.585938 44.773438 117.414062 45.074219 117.34375 45.386719 C 117.261719 45.023438 117.101562 44.429688 117.582031 44.289062 C 117.519531 43.976562 117.21875 44.445312 117.195312 44.613281 C 117.050781 45.207031 117.0625 44.503906 117.035156 44.25 C 117.011719 44.011719 117.167969 43.800781 117.363281 43.699219 C 117.601562 43.230469 118.210938 43.394531 118.628906 43.425781 C 118.933594 43.464844 119.371094 43.359375 119.3125 42.96875 C 119.351562 42.4375 119.324219 41.664062 118.703125 41.503906 C 118.28125 41.351562 118.25 41.65625 118.328125 42 C 118.414062 42.371094 118.253906 42.246094 118.023438 42.199219 C 117.804688 42.210938 118.089844 42.585938 117.84375 42.722656 C 117.75 42.875 117.363281 42.410156 117.34375 42.65625 C 117.304688 42.925781 117.167969 43.324219 116.8125 43.207031 C 116.703125 43.425781 116.675781 43.695312 116.503906 43.902344 C 116.207031 44.347656 115.707031 44.574219 115.238281 44.761719 C 114.820312 44.78125 114.722656 45.261719 114.742188 45.605469 C 114.574219 45.269531 114.265625 44.800781 114.597656 44.46875 C 114.28125 44.554688 114.105469 44.886719 114.226562 45.203125 C 114.367188 45.652344 113.972656 45.050781 113.882812 44.890625 C 113.6875 44.722656 113.960938 44.246094 113.792969 44.289062 C 113.542969 44.449219 113.558594 44.761719 113.535156 45.039062 C 113.425781 44.710938 113.148438 44.230469 113.515625 43.976562 C 113.527344 43.394531 114.222656 43.316406 114.671875 43.335938 C 115.070312 43.433594 115.164062 42.953125 115.421875 42.75 C 115.628906 42.398438 115.984375 42.136719 116.15625 41.777344 C 116.222656 41.242188 115.5 41.144531 115.273438 40.75 C 115.070312 40.617188 115.140625 40.1875 114.890625 40.203125 C 114.230469 40.1875 113.574219 40.363281 112.96875 40.585938 C 112.550781 40.761719 112.066406 40.515625 111.667969 40.640625 C 111.808594 40.863281 111.417969 41.355469 111.355469 40.917969 C 111.222656 40.773438 111.242188 41.578125 111.023438 41.210938 C 110.734375 41.183594 111.089844 41.5625 110.890625 41.738281 C 110.859375 42.015625 110.503906 41.414062 110.4375 41.6875 C 110.511719 41.933594 110.359375 42.425781 110.128906 42.050781 C 109.796875 41.855469 110.007812 42.226562 109.90625 42.417969 C 109.710938 42.921875 109.765625 42.46875 109.542969 42.289062 C 109.632812 42.4375 109.554688 42.960938 109.375 42.75 C 109.074219 42.710938 109.105469 42.839844 109.210938 43.058594 C 109.214844 43.566406 109.019531 43.164062 108.808594 43.296875 C 109.015625 43.570312 108.742188 43.757812 108.515625 43.574219 C 108.078125 43.644531 107.847656 44.121094 107.800781 44.542969 C 107.503906 44.976562 106.929688 45.195312 106.425781 45.019531 C 106.203125 45.214844 106.222656 45.628906 105.878906 45.714844 C 105.480469 45.929688 105.65625 45.664062 105.65625 45.386719 C 105.703125 45.050781 105.414062 45.121094 105.269531 45.335938 C 105.074219 45.5 104.992188 45.996094 104.886719 45.5 C 104.78125 45.277344 104.886719 45.023438 104.941406 44.835938 C 104.855469 44.589844 104.632812 45.101562 104.597656 45.25 C 104.535156 45.492188 104.398438 44.8125 104.449219 44.671875 C 104.667969 44.304688 104.769531 43.714844 105.273438 43.589844 C 105.738281 43.566406 106.210938 43.605469 106.683594 43.589844 C 106.863281 43.128906 107.035156 42.667969 107.128906 42.183594 C 107.207031 41.773438 107.554688 41.453125 107.472656 41.007812 C 107.460938 40.773438 107.070312 41.386719 107.195312 40.804688 C 107.175781 40.660156 106.574219 41.4375 106.820312 40.925781 C 106.921875 40.734375 106.941406 40.289062 106.757812 40.6875 C 106.523438 41 106.113281 41.054688 105.75 41.097656 C 106.023438 40.941406 106.421875 40.691406 106.390625 40.386719 C 106.222656 40.539062 105.855469 41.070312 105.886719 40.550781 C 105.839844 40.242188 105.761719 39.84375 105.710938 39.597656 C 105.378906 39.691406 105.042969 39.621094 104.703125 39.558594 C 104.882812 39.472656 105.175781 39.058594 104.8125 39.066406 C 104.476562 39.175781 104.382812 38.917969 104.082031 39.023438 C 103.902344 38.839844 103.566406 38.917969 103.3125 38.972656 C 103.433594 38.597656 102.964844 38.742188 102.964844 39.011719 C 102.765625 39.179688 102.78125 39.535156 102.46875 39.597656 C 102.335938 39.664062 101.765625 39.882812 101.917969 39.714844 C 102.15625 39.613281 102.261719 39.046875 101.945312 39.191406 C 101.710938 39.375 101.613281 39.617188 101.664062 39.910156 C 101.402344 39.65625 101.164062 39.265625 101.386719 38.917969 C 101.140625 39.027344 100.964844 39.230469 100.839844 39.46875 C 100.753906 39.054688 100.597656 38.53125 100.929688 38.203125 C 100.628906 38.300781 100.570312 38.703125 100.453125 38.972656 C 100.449219 38.550781 100.261719 37.921875 100.710938 37.671875 C 100.980469 37.570312 101.078125 37.207031 101.371094 37.085938 C 101.765625 36.757812 102.359375 36.835938 102.761719 37.125 C 103.003906 37.222656 103.230469 37.242188 103.496094 37.214844 C 104.039062 37.1875 104.605469 37.242188 105.109375 37.472656 C 105.140625 37.292969 105.585938 36.992188 105.234375 36.976562 C 104.835938 36.894531 105.300781 36.648438 105.347656 36.425781 C 105.539062 36.113281 105.308594 35.785156 105.382812 35.457031 C 105.484375 35.121094 105.925781 35.078125 106.097656 34.796875 C 106.214844 34.484375 105.808594 34.753906 105.65625 34.742188 C 105.402344 34.894531 104.992188 34.636719 105.234375 34.359375 C 105.242188 34.082031 105.0625 33.621094 104.722656 33.769531 C 104.246094 33.820312 103.65625 33.714844 103.511719 33.183594 C 103.433594 32.910156 103.652344 32.453125 103.972656 32.707031 C 104.273438 32.894531 104.460938 33.285156 104.871094 33.183594 C 105.125 33.171875 105.371094 33.117188 105.621094 33.058594 C 105.429688 32.871094 105.199219 32.667969 104.925781 32.820312 C 104.5 32.921875 104.21875 32.480469 104.339844 32.105469 C 104.328125 31.867188 104.359375 31.394531 104.722656 31.535156 C 105.039062 31.5 104.382812 31.386719 104.410156 31.1875 C 104.476562 30.832031 104.976562 30.949219 105.21875 30.765625 C 105.683594 30.558594 106.03125 30.019531 106.609375 30.089844 C 106.898438 29.808594 107.363281 29.820312 107.746094 29.796875 C 107.6875 29.496094 107.804688 29.1875 107.964844 28.933594 C 108.132812 29.089844 108.277344 29.582031 108.496094 29.449219 C 108.742188 29.269531 108.253906 29.078125 108.699219 29.027344 C 109.042969 28.933594 109.289062 29.285156 109.304688 29.59375 C 109.539062 29.582031 109.78125 29.75 109.796875 29.996094 C 110.101562 29.65625 110.597656 29.738281 110.96875 29.90625 C 110.871094 30.011719 110.679688 30.59375 110.898438 30.289062 C 111.050781 30.054688 111.632812 30.121094 111.484375 30.457031 C 111.414062 30.886719 111.691406 30.355469 111.921875 30.546875 C 112.292969 30.527344 111.824219 30.785156 111.996094 30.96875 C 112.230469 31.117188 112.238281 31.476562 112.546875 31.574219 C 112.792969 31.675781 113.101562 31.757812 112.746094 31.992188 C 112.476562 32.152344 112.347656 32.179688 112.675781 32.398438 C 113.023438 32.71875 112.691406 33.320312 113.167969 33.550781 C 113.328125 33.734375 113.792969 33.6875 113.441406 33.953125 C 113.234375 34.113281 113.082031 34.179688 113.242188 34.464844 C 113.257812 34.667969 113.722656 34.882812 113.503906 34.988281 C 113.289062 35.066406 113.027344 35.183594 112.820312 35.035156 C 112.609375 35.417969 113.097656 35.636719 113.40625 35.648438 C 114.988281 35.378906 116.585938 35.035156 118.167969 34.691406 C 118.953125 34.5 119.835938 34.652344 120.429688 35.234375 C 120.84375 35.601562 121.507812 35.253906 121.515625 34.722656 C 121.632812 34.082031 120.925781 33.695312 120.367188 33.757812 C 119.066406 33.632812 117.757812 33.644531 116.464844 33.441406 C 115.699219 33.28125 115.015625 32.683594 114.917969 31.882812 C 114.746094 31.042969 115.140625 30.046875 116.007812 29.777344 C 116.863281 29.433594 117.839844 29.507812 118.664062 29.90625 C 119.230469 30 119.734375 29.6875 120.238281 29.484375 C 120.8125 29.289062 121.441406 29.550781 121.761719 30.050781 C 122.085938 29.851562 122.492188 29.949219 122.824219 30.089844 C 122.550781 30.214844 122.21875 30.3125 122.054688 30.566406 C 122.257812 30.792969 122.472656 31.035156 122.015625 31.003906 C 121.75 31.0625 121.441406 31.097656 121.265625 31.335938 C 120.496094 31.34375 119.632812 31.316406 119.03125 30.785156 C 118.574219 30.800781 118.164062 30.59375 117.75 30.457031 C 117.109375 30.359375 116.179688 30.394531 115.953125 31.132812 C 115.769531 31.609375 115.886719 32.207031 116.375 32.453125 C 117.339844 32.925781 118.460938 32.796875 119.507812 32.875 C 120.492188 32.9375 121.621094 32.972656 122.382812 33.699219 C 122.945312 34.246094 122.886719 35.175781 122.390625 35.75 C 122.140625 36.058594 121.832031 36.320312 121.484375 36.519531 C 121.71875 37.15625 122.195312 37.800781 121.945312 38.5 C 121.9375 38.839844 121.488281 38.992188 121.558594 39.339844 C 121.527344 39.832031 121.324219 40.347656 120.898438 40.625 C 121.304688 40.824219 121.113281 40.878906 120.867188 41.089844 C 120.765625 41.242188 121.269531 41.214844 121.347656 41.421875 C 121.738281 41.691406 121.21875 41.542969 121.066406 41.6875 C 121.167969 41.726562 121.445312 42.382812 121.046875 42.234375 C 120.675781 42.214844 120.984375 42.570312 120.863281 42.765625 C 120.746094 43.152344 120.351562 43.457031 120.351562 43.902344 C 120.265625 44.367188 119.949219 44.957031 119.394531 44.835938 C 119.136719 44.769531 118.9375 45.105469 118.644531 45.074219 Z M 118.644531 45.074219 "/>
<path style=" stroke:none;fill-rule:nonzero;fill:rgb(89.411765%,0%,16.862746%);fill-opacity:1;" d="M 121.378906 36.503906 C 123.210938 35.421875 123.046875 33.808594 121.527344 33.261719 C 120.390625 32.894531 119.273438 32.984375 118.136719 32.894531 C 116.617188 32.839844 115.992188 32.492188 115.808594 31.867188 C 115.699219 30.511719 116.5625 30.199219 117.898438 30.382812 C 118.246094 30.585938 118.632812 30.695312 119.070312 30.714844 C 119.457031 31.0625 120.078125 31.28125 121.234375 31.246094 C 121.472656 30.96875 121.855469 30.953125 122.203125 30.898438 C 122.113281 30.785156 122.039062 30.675781 121.949219 30.566406 C 122.019531 30.402344 122.242188 30.253906 122.589844 30.089844 C 122.183594 29.945312 121.949219 30.035156 121.726562 30.164062 C 121.25 29.429688 120.589844 29.304688 119.730469 29.816406 C 119.363281 29.960938 118.996094 30.035156 118.648438 30 C 118.027344 29.667969 117.402344 29.597656 116.78125 29.667969 C 115.5 29.851562 114.910156 30.511719 114.984375 31.648438 C 115.058594 32.675781 115.699219 33.277344 116.925781 33.445312 C 118.171875 33.515625 119.417969 33.609375 120.664062 33.699219 C 122.332031 33.882812 121.527344 36.15625 120.335938 35.277344 C 119.621094 34.617188 118.925781 34.652344 118.210938 34.761719 C 117.3125 34.964844 116.414062 35.148438 115.515625 35.347656 C 114.839844 35.476562 114.160156 35.605469 113.464844 35.734375 C 112.769531 35.660156 112.53125 35.386719 112.785156 34.910156 C 112.914062 35.054688 113.152344 35.054688 113.464844 34.910156 C 113.152344 34.597656 113.042969 34.285156 113.117188 33.976562 C 113.226562 34.15625 113.355469 33.9375 113.464844 33.792969 C 113.097656 33.679688 112.878906 33.460938 112.785156 33.148438 C 112.839844 32.617188 112.621094 32.289062 112.109375 32.140625 C 112.4375 32.125 112.675781 31.996094 112.824219 31.792969 C 112.476562 31.648438 112.164062 31.5 112.109375 31.171875 C 111.871094 31.007812 111.816406 30.824219 111.960938 30.640625 C 111.632812 30.53125 111.503906 30.660156 111.558594 31.023438 C 111.429688 30.785156 111.375 30.546875 111.429688 30.308594 C 111.136719 30.109375 110.917969 30.308594 110.734375 30.675781 C 110.679688 30.4375 110.714844 30.199219 110.84375 29.960938 C 110.222656 29.6875 109.945312 29.925781 109.691406 30.238281 C 109.78125 29.851562 109.636719 29.667969 109.234375 29.667969 C 109.160156 29.175781 108.9375 28.992188 108.589844 29.175781 C 108.757812 29.320312 108.683594 29.484375 108.371094 29.632812 C 108.242188 29.449219 108.113281 29.265625 107.96875 29.101562 C 107.804688 29.359375 107.804688 29.613281 107.839844 29.890625 C 107.199219 29.890625 106.796875 29.980469 106.648438 30.164062 C 106.375 30.164062 106.101562 30.21875 105.824219 30.457031 C 105.640625 30.640625 105.421875 30.769531 105.164062 30.898438 C 104.964844 30.953125 104.761719 31.007812 104.5625 31.0625 C 104.414062 31.191406 104.542969 31.28125 104.945312 31.464844 C 105.019531 31.574219 104.855469 31.667969 104.632812 31.609375 C 104.449219 31.539062 104.433594 31.832031 104.414062 32.105469 C 104.378906 32.492188 104.433594 32.820312 105.019531 32.730469 C 105.441406 32.507812 105.566406 33.167969 106.007812 33.039062 C 105.347656 33.222656 104.726562 33.371094 104.378906 33.1875 C 103.773438 32.507812 103.589844 32.636719 103.589844 33.113281 C 103.699219 33.515625 103.972656 33.808594 105 33.664062 C 105.257812 33.902344 105.367188 34.15625 105.3125 34.414062 C 105.183594 34.597656 105.238281 34.6875 105.53125 34.6875 C 105.714844 34.652344 105.898438 34.597656 106.0625 34.5625 C 106.210938 34.5625 106.246094 34.671875 106.136719 34.910156 C 105.972656 35.039062 105.804688 35.148438 105.640625 35.277344 C 105.367188 35.386719 105.421875 35.714844 105.53125 36.0625 C 105.476562 36.394531 105.347656 36.648438 105.164062 36.851562 C 105.3125 36.941406 105.441406 36.960938 105.566406 36.925781 C 105.421875 37.144531 105.273438 37.363281 105.128906 37.566406 C 104.449219 37.253906 103.753906 37.273438 103.058594 37.328125 C 102.929688 37.273438 102.820312 37.21875 102.691406 37.179688 C 101.996094 36.742188 101.464844 36.996094 101.007812 37.527344 C 100.859375 37.730469 100.859375 37.914062 101.007812 38.113281 C 101.023438 38.371094 101.042969 38.644531 101.539062 38.71875 C 101.574219 38.957031 101.664062 39.160156 102.195312 38.976562 C 102.234375 39.195312 102.398438 39.269531 102.691406 39.195312 C 102.855469 39.050781 102.964844 38.882812 103.023438 38.683594 C 103.332031 38.628906 103.460938 38.683594 103.40625 38.867188 C 103.792969 38.792969 104.011719 38.828125 104.101562 38.941406 C 104.304688 38.867188 104.433594 38.882812 104.449219 39.011719 C 105 38.941406 104.980469 39.03125 105.074219 39.085938 C 105.128906 39.234375 105.074219 39.359375 104.890625 39.507812 C 105.21875 39.582031 105.511719 39.597656 105.789062 39.472656 C 105.863281 39.875 105.933594 40.257812 106.007812 40.660156 C 106.15625 40.535156 106.320312 40.386719 106.464844 40.128906 C 106.519531 40.570312 106.394531 40.808594 106.136719 40.953125 C 106.539062 40.898438 106.777344 40.605469 106.941406 40.183594 C 106.980469 40.441406 107.015625 40.679688 106.941406 40.882812 C 107.089844 40.753906 107.164062 40.605469 107.144531 40.441406 C 107.234375 40.605469 107.289062 40.789062 107.289062 40.953125 C 107.492188 40.789062 107.457031 40.644531 107.472656 40.480469 C 107.546875 40.828125 107.621094 41.175781 107.511719 41.523438 C 107.273438 41.925781 107.164062 42.3125 107.105469 42.675781 C 106.996094 43.007812 106.867188 43.335938 106.757812 43.683594 L 105.605469 43.683594 C 105.148438 43.59375 104.890625 43.867188 104.742188 44.289062 C 104.597656 44.492188 104.671875 44.617188 105 44.65625 C 105 44.746094 105.019531 44.820312 105.074219 44.855469 C 105.128906 45.09375 105.367188 45.078125 105.605469 45.039062 C 105.917969 45.261719 106.171875 45.222656 106.394531 44.929688 C 106.941406 45.09375 107.382812 44.949219 107.730469 44.507812 C 107.820312 44.050781 107.949219 43.777344 108.113281 43.722656 C 108.335938 43.429688 108.554688 43.464844 108.773438 43.574219 C 108.828125 43.484375 108.8125 43.410156 108.699219 43.316406 C 108.828125 43.097656 108.957031 43.082031 109.085938 43.246094 C 109.175781 43.042969 109.105469 42.898438 108.9375 42.785156 C 109.195312 42.640625 109.359375 42.621094 109.453125 42.714844 C 109.527344 42.585938 109.507812 42.382812 109.414062 42.128906 C 109.582031 42.183594 109.726562 42.273438 109.765625 42.492188 C 109.890625 42.292969 109.890625 42.109375 109.765625 41.960938 C 109.945312 41.871094 110.128906 41.925781 110.3125 42.089844 C 110.40625 41.90625 110.40625 41.707031 110.3125 41.523438 C 110.515625 41.542969 110.699219 41.558594 110.808594 41.707031 C 110.917969 41.46875 110.84375 41.304688 110.734375 41.15625 C 111.007812 41.121094 111.136719 41.121094 111.136719 41.15625 C 111.285156 40.972656 111.136719 40.898438 111.066406 40.808594 C 111.320312 40.773438 111.46875 40.84375 111.503906 40.992188 C 111.6875 40.789062 111.667969 40.660156 111.429688 40.550781 C 111.652344 40.535156 111.871094 40.535156 112.109375 40.515625 C 112.621094 40.625 112.898438 40.550781 113.152344 40.441406 C 113.738281 40.222656 114.363281 40.074219 115.09375 40.128906 C 115.167969 40.496094 115.371094 40.808594 115.738281 41.066406 C 116.339844 41.414062 116.414062 41.78125 115.992188 42.164062 C 115.644531 42.585938 115.316406 43.007812 114.984375 43.429688 C 114.140625 43.375 113.683594 43.519531 113.609375 43.847656 C 113.554688 44.050781 113.667969 44.160156 113.941406 44.179688 C 113.921875 44.507812 114.453125 44.617188 114.617188 44.324219 C 114.691406 44.527344 114.800781 44.710938 115.058594 44.65625 C 115.222656 44.746094 115.351562 44.65625 115.480469 44.546875 C 115.976562 44.417969 116.378906 44.070312 116.671875 43.429688 C 116.652344 43.152344 116.761719 43.0625 117.019531 43.136719 C 117.238281 42.988281 117.257812 42.714844 117.277344 42.457031 C 117.496094 42.53125 117.679688 42.605469 117.789062 42.675781 C 117.953125 42.457031 117.878906 42.3125 117.789062 42.164062 C 118.042969 42.089844 118.15625 42.128906 118.246094 42.164062 C 118.246094 41.925781 118.226562 41.667969 118.210938 41.414062 C 118.941406 41.320312 119.492188 41.578125 119.402344 43.023438 C 119.402344 43.519531 118.941406 43.539062 118.429688 43.5 C 118.0625 43.429688 117.695312 43.410156 117.457031 43.683594 C 117.441406 43.847656 117.441406 44.015625 117.679688 44.179688 C 117.679688 44.507812 117.695312 44.492188 117.988281 44.65625 C 118.136719 45.003906 118.171875 44.949219 118.539062 45.003906 C 118.871094 44.984375 119.050781 44.855469 119.21875 44.730469 C 120.152344 44.984375 120.207031 44.070312 120.371094 43.464844 C 120.5 43.261719 120.628906 43.0625 120.757812 42.859375 C 120.8125 42.675781 120.847656 42.492188 120.71875 42.3125 C 120.867188 42.164062 121.011719 42.109375 121.160156 42.164062 C 121.214844 41.871094 121.050781 41.777344 120.828125 41.742188 C 120.996094 41.597656 121.179688 41.523438 121.34375 41.523438 C 121.140625 41.304688 120.902344 41.230469 120.664062 41.265625 C 120.773438 41.066406 120.882812 40.882812 121.050781 40.84375 C 120.921875 40.699219 120.792969 40.660156 120.628906 40.699219 C 121.304688 40.351562 121.488281 39.765625 121.488281 39.085938 C 121.855469 38.738281 122.019531 38.28125 121.875 37.640625 C 121.710938 37.253906 121.542969 36.871094 121.378906 36.503906 Z M 121.378906 36.503906 "/>
<path style=" stroke:none;fill-rule:nonzero;fill:rgb(89.411765%,0%,16.862746%);fill-opacity:1;" d="M 118.007812 44.820312 C 117.898438 45.09375 117.917969 45.351562 118.082031 45.570312 C 118.101562 45.40625 118.265625 45.242188 118.519531 45.078125 C 118.265625 45.09375 118.082031 45.003906 118.007812 44.820312 Z M 118.007812 44.820312 "/>
<path style=" stroke:none;fill-rule:nonzero;fill:rgb(89.411765%,0%,16.862746%);fill-opacity:1;" d="M 117.585938 44.378906 C 117.347656 44.453125 117.292969 44.691406 117.367188 45.078125 C 117.421875 44.894531 117.570312 44.746094 117.824219 44.671875 C 117.605469 44.636719 117.515625 44.546875 117.585938 44.378906 Z M 117.585938 44.378906 "/>
<path style=" stroke:none;fill-rule:nonzero;fill:rgb(89.411765%,0%,16.862746%);fill-opacity:1;" d="M 117.367188 43.8125 C 117.109375 43.902344 117.109375 44.214844 117.148438 44.546875 C 117.203125 44.363281 117.292969 44.179688 117.496094 44.085938 C 117.386719 44.015625 117.347656 43.921875 117.367188 43.8125 Z M 117.367188 43.8125 "/>
<path style=" stroke:none;fill-rule:nonzero;fill:rgb(89.411765%,0%,16.862746%);fill-opacity:1;" d="M 114.636719 44.582031 C 114.472656 44.710938 114.492188 44.949219 114.691406 45.296875 C 114.691406 45.058594 114.800781 44.875 114.984375 44.765625 C 114.839844 44.746094 114.710938 44.710938 114.636719 44.582031 Z M 114.636719 44.582031 "/>
<path style=" stroke:none;fill-rule:nonzero;fill:rgb(89.411765%,0%,16.862746%);fill-opacity:1;" d="M 113.921875 44.417969 C 113.832031 44.601562 113.90625 44.835938 114.125 45.09375 C 114.070312 44.910156 114.125 44.726562 114.289062 44.527344 C 114.160156 44.5625 114.050781 44.527344 113.921875 44.417969 Z M 113.921875 44.417969 "/>
<path style=" stroke:none;fill-rule:nonzero;fill:rgb(89.411765%,0%,16.862746%);fill-opacity:1;" d="M 113.539062 44.070312 C 113.390625 44.179688 113.390625 44.378906 113.484375 44.65625 C 113.5 44.507812 113.574219 44.34375 113.757812 44.199219 C 113.683594 44.179688 113.613281 44.199219 113.539062 44.070312 Z M 113.539062 44.070312 "/>
<path style=" stroke:none;fill-rule:nonzero;fill:rgb(89.411765%,0%,16.862746%);fill-opacity:1;" d="M 105.695312 45.167969 C 105.75 45.332031 105.769531 45.496094 105.695312 45.699219 C 105.972656 45.644531 106.117188 45.460938 106.191406 45.203125 C 106.027344 45.257812 105.859375 45.277344 105.695312 45.167969 Z M 105.695312 45.167969 "/>
<path style=" stroke:none;fill-rule:nonzero;fill:rgb(89.411765%,0%,16.862746%);fill-opacity:1;" d="M 105.035156 44.910156 C 104.910156 45.078125 104.890625 45.296875 105.019531 45.570312 C 105.074219 45.425781 105.203125 45.277344 105.386719 45.132812 C 105.203125 45.132812 105.074219 45.078125 105.035156 44.910156 Z M 105.035156 44.910156 "/>
<path style=" stroke:none;fill-rule:nonzero;fill:rgb(89.411765%,0%,16.862746%);fill-opacity:1;" d="M 104.617188 44.546875 C 104.488281 44.621094 104.503906 44.839844 104.578125 45.09375 C 104.632812 44.875 104.742188 44.746094 104.871094 44.65625 C 104.796875 44.636719 104.707031 44.621094 104.617188 44.546875 Z M 104.617188 44.546875 "/>
<path style=" stroke:none;fill-rule:nonzero;fill:rgb(89.411765%,0%,16.862746%);fill-opacity:1;" d="M 102.195312 39.195312 C 102.324219 39.34375 102.214844 39.507812 102.085938 39.652344 C 102.472656 39.5625 102.671875 39.433594 102.710938 39.269531 C 102.546875 39.324219 102.378906 39.304688 102.195312 39.195312 Z M 102.195312 39.195312 "/>
<path style=" stroke:none;fill-rule:nonzero;fill:rgb(89.411765%,0%,16.862746%);fill-opacity:1;" d="M 101.5 38.921875 C 101.316406 39.140625 101.355469 39.398438 101.574219 39.671875 C 101.574219 39.507812 101.683594 39.324219 101.90625 39.121094 C 101.722656 39.121094 101.574219 39.066406 101.5 38.921875 Z M 101.5 38.921875 "/>
<path style=" stroke:none;fill-rule:nonzero;fill:rgb(89.411765%,0%,16.862746%);fill-opacity:1;" d="M 100.953125 38.335938 C 101.023438 38.535156 101.117188 38.71875 101.390625 38.828125 C 101.152344 38.9375 100.988281 39.085938 100.878906 39.25 C 100.785156 38.8125 100.769531 38.480469 100.953125 38.335938 Z M 100.953125 38.335938 "/>
<path style=" stroke:none;fill-rule:nonzero;fill:rgb(89.411765%,0%,16.862746%);fill-opacity:1;" d="M 100.804688 37.730469 C 100.53125 37.804688 100.476562 38.132812 100.511719 38.574219 C 100.585938 38.335938 100.730469 38.1875 100.914062 38.113281 C 100.824219 37.988281 100.804688 37.859375 100.804688 37.730469 Z M 100.804688 37.730469 "/>
<path style=" stroke:none;fill-rule:nonzero;fill:rgb(0%,0%,0%);fill-opacity:1;" d="M 108.535156 32.710938 C 108.8125 33.09375 108.976562 33.480469 109.03125 33.863281 C 109.03125 33.3125 108.867188 32.929688 108.535156 32.710938 Z M 108.535156 32.710938 "/>
<path style=" stroke:none;fill-rule:nonzero;fill:rgb(0%,0%,0%);fill-opacity:1;" d="M 109.636719 31.539062 C 110.058594 31.941406 110.40625 32.324219 110.625 32.710938 C 110.441406 32.105469 110.074219 31.757812 109.636719 31.539062 Z M 109.636719 31.539062 "/>
<path style=" stroke:none;fill-rule:nonzero;fill:rgb(0%,0%,0%);fill-opacity:1;" d="M 109.085938 32.214844 C 109.542969 32.800781 109.839844 33.460938 109.855469 34.230469 C 110.003906 33.167969 109.617188 32.617188 109.085938 32.214844 Z M 109.085938 32.214844 "/>
<path style=" stroke:none;fill-rule:nonzero;fill:rgb(0%,0%,0%);fill-opacity:1;" d="M 108.832031 32.582031 C 109.304688 33.167969 109.527344 33.808594 109.398438 34.503906 C 109.601562 33.550781 109.398438 32.910156 108.832031 32.582031 Z M 108.832031 32.582031 "/>
<path style=" stroke:none;fill-rule:nonzero;fill:rgb(0%,0%,0%);fill-opacity:1;" d="M 106.789062 30.503906 C 106.703125 30.507812 106.648438 30.535156 106.554688 30.566406 C 106.425781 31.097656 107.164062 31.152344 107.457031 30.878906 C 107.519531 30.824219 107.554688 30.777344 107.574219 30.738281 C 107.578125 30.730469 107.582031 30.714844 107.585938 30.707031 C 107.585938 30.703125 107.589844 30.691406 107.589844 30.6875 C 107.59375 30.683594 107.585938 30.671875 107.585938 30.667969 C 107.585938 30.667969 107.585938 30.664062 107.585938 30.660156 C 107.582031 30.65625 107.582031 30.648438 107.578125 30.640625 C 107.578125 30.640625 107.574219 30.632812 107.574219 30.628906 C 107.570312 30.628906 107.566406 30.625 107.566406 30.625 C 107.566406 30.621094 107.5625 30.617188 107.558594 30.617188 C 107.554688 30.613281 107.546875 30.609375 107.539062 30.605469 C 107.539062 30.601562 107.535156 30.597656 107.535156 30.597656 C 107.53125 30.59375 107.519531 30.59375 107.515625 30.589844 C 107.402344 30.542969 107.195312 30.539062 107.089844 30.527344 C 106.945312 30.503906 106.859375 30.496094 106.789062 30.503906 Z M 106.816406 30.566406 C 106.960938 30.554688 107.160156 30.578125 107.375 30.625 C 107.183594 30.691406 106.808594 30.761719 106.703125 30.8125 C 106.699219 30.816406 106.691406 30.820312 106.6875 30.820312 C 106.648438 30.78125 106.625 30.75 106.613281 30.71875 C 106.609375 30.714844 106.605469 30.703125 106.605469 30.699219 C 106.605469 30.695312 106.605469 30.691406 106.605469 30.6875 C 106.605469 30.683594 106.605469 30.675781 106.605469 30.675781 C 106.605469 30.671875 106.605469 30.664062 106.605469 30.660156 C 106.605469 30.65625 106.609375 30.652344 106.613281 30.648438 C 106.613281 30.648438 106.617188 30.636719 106.617188 30.636719 C 106.621094 30.636719 106.625 30.628906 106.625 30.628906 C 106.632812 30.621094 106.644531 30.609375 106.65625 30.605469 C 106.660156 30.601562 106.671875 30.601562 106.675781 30.597656 C 106.710938 30.582031 106.761719 30.570312 106.816406 30.566406 Z M 107.507812 30.675781 C 107.492188 30.859375 107.308594 30.949219 106.777344 30.878906 C 107.050781 30.804688 107.308594 30.746094 107.507812 30.675781 Z M 107.507812 30.675781 "/>
<path style=" stroke:none;fill-rule:nonzero;fill:rgb(0%,0%,0%);fill-opacity:1;" d="M 118.101562 44.65625 C 118.15625 44.472656 118.265625 44.363281 118.484375 44.417969 C 119.070312 44.507812 119.382812 44.363281 119.4375 43.976562 C 119.308594 44.269531 119.015625 44.453125 118.410156 44.34375 C 118.0625 44.289062 118.0625 44.472656 118.101562 44.65625 Z M 118.101562 44.65625 "/>
<path style=" stroke:none;fill-rule:nonzero;fill:rgb(0%,0%,0%);fill-opacity:1;" d="M 117.75 44.125 C 117.769531 43.902344 117.972656 43.867188 118.265625 43.902344 C 118.777344 43.976562 119.109375 43.867188 119.308594 43.703125 C 119.21875 43.902344 119.035156 44.070312 118.300781 43.957031 C 118.0625 43.941406 117.878906 43.976562 117.75 44.125 Z M 117.75 44.125 "/>
<path style=" stroke:none;fill-rule:nonzero;fill:rgb(0%,0%,0%);fill-opacity:1;" d="M 114.65625 44.25 C 114.691406 44.105469 114.855469 44.050781 115.113281 44.105469 C 115.5 44.105469 115.664062 43.902344 115.773438 43.628906 C 115.664062 43.902344 115.460938 44.085938 115.039062 44.050781 C 114.785156 43.941406 114.636719 44.015625 114.65625 44.25 Z M 114.65625 44.25 "/>
<path style=" stroke:none;fill-rule:nonzero;fill:rgb(0%,0%,0%);fill-opacity:1;" d="M 115.113281 43.5 C 115.09375 43.648438 115.039062 43.757812 114.710938 43.722656 C 114.34375 43.777344 114.050781 43.886719 113.957031 44.144531 C 113.976562 43.792969 114.160156 43.667969 114.472656 43.722656 C 114.765625 43.703125 114.964844 43.628906 115.113281 43.5 Z M 115.113281 43.5 "/>
<path style=" stroke:none;fill-rule:nonzero;fill:rgb(0%,0%,0%);fill-opacity:1;" d="M 106.429688 44.855469 C 106.355469 44.546875 106.523438 44.417969 106.796875 44.378906 C 106.503906 44.363281 106.246094 44.398438 106.429688 44.855469 Z M 106.429688 44.855469 "/>
<path style=" stroke:none;fill-rule:nonzero;fill:rgb(0%,0%,0%);fill-opacity:1;" d="M 105.019531 44.601562 C 105.09375 44.378906 105.21875 44.234375 105.421875 44.160156 C 105.824219 44.03125 106.300781 44.03125 106.777344 44.085938 C 106.265625 43.960938 105.804688 43.941406 105.402344 44.070312 C 105.183594 44.140625 105.054688 44.324219 105.019531 44.601562 Z M 105.019531 44.601562 "/>
<path style=" stroke:none;fill-rule:nonzero;fill:rgb(0%,0%,0%);fill-opacity:1;" d="M 106.816406 44.269531 C 106.410156 44.25 106.007812 44.25 105.753906 44.433594 C 105.460938 44.453125 105.476562 44.691406 105.550781 44.984375 C 105.550781 44.746094 105.570312 44.527344 105.789062 44.507812 C 106.007812 44.34375 106.394531 44.289062 106.816406 44.269531 Z M 106.816406 44.269531 "/>
<path style=" stroke:none;fill-rule:nonzero;fill:rgb(0%,0%,0%);fill-opacity:1;" d="M 118.539062 30.402344 C 119.164062 30.328125 119.640625 30.089844 120.078125 29.796875 C 119.710938 30.199219 119.234375 30.4375 118.539062 30.402344 Z M 118.539062 30.402344 "/>
<path style=" stroke:none;fill-rule:nonzero;fill:rgb(0%,0%,0%);fill-opacity:1;" d="M 120.445312 30.164062 C 120.078125 30.125 121.085938 30.402344 121.085938 30.402344 C 121.011719 30.253906 120.792969 30.21875 120.445312 30.164062 Z M 120.445312 30.164062 "/>
<path style=" stroke:none;fill-rule:nonzero;fill:rgb(0%,0%,0%);fill-opacity:1;" d="M 119.601562 30.839844 C 120.1875 31.023438 120.757812 31.117188 121.34375 30.914062 C 120.8125 31.207031 120.242188 31.226562 119.601562 30.839844 Z M 119.601562 30.839844 "/>
<path style=" stroke:none;fill-rule:nonzero;fill:rgb(0%,0%,0%);fill-opacity:1;" d="M 120.058594 30.253906 C 120.71875 30.53125 121.378906 30.640625 121.984375 30.308594 C 121.378906 30.894531 120.71875 30.730469 120.058594 30.253906 Z M 120.058594 30.253906 "/>
<path style=" stroke:none;fill-rule:nonzero;fill:rgb(0%,0%,0%);fill-opacity:1;" d="M 119.730469 30.21875 C 120.390625 29.890625 121.011719 29.871094 121.597656 30.328125 C 121.050781 29.761719 120.425781 29.652344 119.730469 30.21875 Z M 119.730469 30.21875 "/>
<path style=" stroke:none;fill-rule:nonzero;fill:rgb(0%,0%,0%);fill-opacity:1;" d="M 119.457031 30.417969 C 120.152344 30.769531 120.941406 30.878906 121.800781 30.695312 C 120.957031 30.988281 120.171875 30.878906 119.457031 30.417969 Z M 119.457031 30.417969 "/>
<path style=" stroke:none;fill-rule:nonzero;fill:rgb(0%,0%,0%);fill-opacity:1;" d="M 112.402344 39.835938 C 112.308594 40.222656 112.144531 40.332031 111.980469 40.40625 C 112.308594 40.421875 112.511719 40.292969 112.402344 39.835938 Z M 112.402344 39.835938 "/>
<path style=" stroke:none;fill-rule:nonzero;fill:rgb(0%,0%,0%);fill-opacity:1;" d="M 117.367188 39.617188 C 116.671875 40.128906 115.917969 40.203125 115.148438 40.113281 C 116.15625 40.367188 116.925781 40.277344 117.367188 39.617188 Z M 117.367188 39.617188 "/>
<path style=" stroke:none;fill-rule:nonzero;fill:rgb(0%,0%,0%);fill-opacity:1;" d="M 117.84375 38.664062 C 117.496094 39.582031 117.460938 40.480469 118.117188 41.339844 C 117.277344 40.589844 117.347656 39.671875 117.84375 38.664062 Z M 117.84375 38.664062 "/>
<path style=" stroke:none;fill-rule:nonzero;fill:rgb(0%,0%,0%);fill-opacity:1;" d="M 108.007812 29.394531 C 108.132812 29.707031 108.078125 30 107.949219 30.3125 C 108.1875 29.925781 108.261719 29.597656 108.007812 29.394531 Z M 108.007812 29.394531 "/>
<path style=" stroke:none;fill-rule:nonzero;fill:rgb(0%,0%,0%);fill-opacity:1;" d="M 105.183594 32.015625 C 105.621094 32.195312 105.859375 32.195312 105.917969 32.015625 C 105.878906 32.234375 105.789062 32.398438 105.183594 32.015625 Z M 105.183594 32.015625 "/>
<path style=" stroke:none;fill-rule:nonzero;fill:rgb(0%,0%,0%);fill-opacity:1;" d="M 105.605469 32.785156 C 106.117188 32.894531 106.667969 33.003906 106.429688 33.1875 C 106.925781 32.984375 106.464844 32.875 105.605469 32.785156 Z M 105.605469 32.785156 "/>
<path style=" stroke:none;fill-rule:nonzero;fill:rgb(0%,0%,0%);fill-opacity:1;" d="M 101.0625 38.058594 C 101.484375 37.601562 101.996094 37.472656 102.5625 37.546875 C 101.867188 37.308594 101.355469 37.472656 101.0625 38.058594 Z M 101.0625 38.058594 "/>
<path style=" stroke:none;fill-rule:nonzero;fill:rgb(0%,0%,0%);fill-opacity:1;" d="M 101.574219 38.609375 C 101.886719 38.132812 102.34375 37.914062 102.839844 37.820312 C 102.234375 37.804688 101.757812 37.949219 101.574219 38.609375 Z M 101.574219 38.609375 "/>
<path style=" stroke:none;fill-rule:nonzero;fill:rgb(0%,0%,0%);fill-opacity:1;" d="M 102.144531 38.921875 C 102.324219 38.5 102.675781 38.261719 103.152344 38.1875 C 102.617188 38.042969 102.308594 38.335938 102.144531 38.921875 Z M 102.144531 38.921875 "/>
<path style=" stroke:none;fill-rule:nonzero;fill:rgb(0%,0%,0%);fill-opacity:1;" d="M 106.816406 34.964844 C 106.339844 35.550781 105.992188 36.171875 105.679688 36.8125 C 105.789062 36.097656 105.992188 35.402344 106.816406 34.964844 Z M 106.816406 34.964844 "/>
<path style=" stroke:none;fill-rule:nonzero;fill:rgb(0%,0%,0%);fill-opacity:1;" d="M 107.695312 33.9375 C 107.546875 34.285156 107.492188 34.613281 107.695312 34.964844 C 107.4375 34.613281 107.492188 34.285156 107.695312 33.9375 Z M 107.695312 33.9375 "/>
<path style=" stroke:none;fill-rule:nonzero;fill:rgb(0%,0%,0%);fill-opacity:1;" d="M 107.273438 34.175781 C 107.273438 34.359375 107.179688 34.523438 106.996094 34.707031 C 107.289062 34.503906 107.382812 34.320312 107.273438 34.175781 Z M 107.273438 34.175781 "/>
<path style=" stroke:none;fill-rule:nonzero;fill:rgb(0%,0%,0%);fill-opacity:1;" d="M 106.777344 34.101562 C 106.832031 34.304688 106.867188 34.507812 106.757812 34.707031 C 106.996094 34.507812 106.90625 34.304688 106.777344 34.101562 Z M 106.777344 34.101562 "/>
<path style=" stroke:none;fill-rule:nonzero;fill:rgb(0%,0%,0%);fill-opacity:1;" d="M 106.449219 34.046875 C 106.503906 34.285156 106.464844 34.523438 106.355469 34.742188 C 106.613281 34.523438 106.632812 34.285156 106.449219 34.046875 Z M 106.449219 34.046875 "/>
<path style=" stroke:none;fill-rule:nonzero;fill:rgb(0%,0%,0%);fill-opacity:1;" d="M 105.878906 32.546875 C 105.222656 32.289062 104.910156 32.324219 104.964844 32.617188 C 104.835938 32.214844 105.019531 32.070312 105.878906 32.546875 Z M 105.878906 32.546875 "/>
<path style=" stroke:none;fill-rule:nonzero;fill:rgb(0%,0%,0%);fill-opacity:1;" d="M 105.292969 31.519531 C 105.605469 31.628906 105.769531 31.757812 105.933594 31.921875 C 105.878906 31.59375 105.660156 31.464844 105.292969 31.519531 Z M 105.292969 31.519531 "/>
<path style=" stroke:none;fill-rule:nonzero;fill:rgb(0%,0%,0%);fill-opacity:1;" d="M 105.164062 33.589844 C 105.734375 33.515625 106.300781 33.351562 106.851562 33.113281 C 106.320312 33.425781 105.75 33.609375 105.164062 33.589844 Z M 105.164062 33.589844 "/>
<path style=" stroke:none;fill-rule:nonzero;fill:rgb(0%,0%,0%);fill-opacity:1;" d="M 106.484375 32.378906 C 107.363281 32.785156 107.785156 33.296875 107.179688 34.046875 C 108.097656 33.222656 107.730469 32.691406 106.484375 32.378906 Z M 106.484375 32.378906 "/>
<path style=" stroke:none;fill-rule:nonzero;fill:rgb(0%,0%,0%);fill-opacity:1;" d="M 109.949219 30.308594 C 110.148438 30.179688 110.421875 30.089844 110.753906 30.070312 C 110.332031 29.925781 110.074219 30.015625 109.949219 30.308594 Z M 109.949219 30.308594 "/>
<path style=" stroke:none;fill-rule:nonzero;fill:rgb(0%,0%,0%);fill-opacity:1;" d="M 109.140625 30.898438 C 109.304688 31.246094 109.636719 31.355469 110.148438 31.191406 C 109.617188 31.539062 109.269531 31.445312 109.140625 30.898438 Z M 109.140625 30.898438 "/>
<path style=" stroke:none;fill-rule:nonzero;fill:rgb(0%,0%,0%);fill-opacity:1;" d="M 110.148438 31.023438 C 109.839844 30.695312 109.507812 30.53125 109.140625 30.804688 C 109.542969 30.328125 109.855469 30.621094 110.148438 31.023438 Z M 110.148438 31.023438 "/>
<path style=" stroke:none;fill-rule:nonzero;fill:rgb(0%,0%,0%);fill-opacity:1;" d="M 108.902344 30.695312 C 109.359375 30.253906 109.890625 30.308594 110.460938 30.859375 C 109.910156 30.253906 109.398438 30.035156 108.902344 30.695312 Z M 108.902344 30.695312 "/>
<path style=" stroke:none;fill-rule:nonzero;fill:rgb(0%,0%,0%);fill-opacity:1;" d="M 109.175781 29.761719 C 109.085938 30.035156 108.902344 30.328125 108.5 30.601562 C 109.085938 30.347656 109.234375 30.070312 109.175781 29.761719 Z M 109.175781 29.761719 "/>
<path style=" stroke:none;fill-rule:nonzero;fill:rgb(0%,0%,0%);fill-opacity:1;" d="M 108.773438 29.339844 C 108.644531 29.6875 108.40625 30.035156 108.058594 30.382812 C 108.683594 30.070312 108.976562 29.722656 108.773438 29.339844 Z M 108.773438 29.339844 "/>
<path style=" stroke:none;fill-rule:nonzero;fill:rgb(0%,0%,0%);fill-opacity:1;" d="M 111.304688 31.59375 C 111.632812 31.261719 112 31.484375 112.382812 31.777344 C 111.890625 31.152344 111.523438 31.097656 111.304688 31.59375 Z M 111.304688 31.59375 "/>
<path style=" stroke:none;fill-rule:nonzero;fill:rgb(0%,0%,0%);fill-opacity:1;" d="M 111.304688 30.730469 C 111.027344 31.042969 110.863281 31.355469 110.808594 31.648438 C 110.660156 31.316406 110.828125 31.023438 111.304688 30.730469 Z M 111.304688 30.730469 "/>
<path style=" stroke:none;fill-rule:nonzero;fill:rgb(0%,0%,0%);fill-opacity:1;" d="M 111.210938 30.546875 C 110.769531 30.878906 110.476562 31.1875 110.3125 31.5 C 110.332031 31.042969 110.644531 30.730469 111.210938 30.546875 Z M 111.210938 30.546875 "/>
<path style=" stroke:none;fill-rule:nonzero;fill:rgb(0%,0%,0%);fill-opacity:1;" d="M 111.210938 31.996094 C 111.667969 32.085938 112.109375 32.015625 112.566406 31.886719 C 112.4375 32.105469 111.191406 32.269531 111.210938 31.996094 Z M 111.210938 31.996094 "/>
<path style=" stroke:none;fill-rule:nonzero;fill:rgb(0%,0%,0%);fill-opacity:1;" d="M 111.449219 32.253906 C 112.144531 32.582031 112.511719 33.09375 112.546875 33.828125 C 112.53125 32.800781 112.164062 32.269531 111.449219 32.253906 Z M 111.449219 32.253906 "/>
<path style=" stroke:none;fill-rule:nonzero;fill:rgb(0%,0%,0%);fill-opacity:1;" d="M 111.890625 33.078125 C 112.109375 33.679688 112.476562 34.285156 113.132812 34.835938 C 112.253906 34.414062 111.890625 33.808594 111.890625 33.078125 Z M 111.890625 33.078125 "/>
<path style=" stroke:none;fill-rule:nonzero;fill:rgb(0%,0%,0%);fill-opacity:1;" d="M 110.1875 33.734375 C 110.589844 34.265625 110.789062 34.835938 110.917969 35.441406 C 110.957031 34.523438 110.753906 33.917969 110.1875 33.734375 Z M 110.1875 33.734375 "/>
<path style=" stroke:none;fill-rule:nonzero;fill:rgb(0%,0%,0%);fill-opacity:1;" d="M 110.113281 33.257812 C 110.460938 33.367188 110.714844 33.625 110.84375 34.066406 C 110.84375 33.441406 110.605469 33.167969 110.113281 33.257812 Z M 110.113281 33.257812 "/>
<path style=" stroke:none;fill-rule:nonzero;fill:rgb(0%,0%,0%);fill-opacity:1;" d="M 110.40625 31.773438 C 111.027344 32.324219 111.484375 32.910156 111.722656 33.535156 C 111.523438 32.417969 111.046875 31.941406 110.40625 31.773438 Z M 110.40625 31.773438 "/>
<path style=" stroke:none;fill-rule:nonzero;fill:rgb(0%,0%,0%);fill-opacity:1;" d="M 109.324219 31.996094 C 110.148438 32.546875 110.769531 33.09375 111.210938 33.664062 C 110.882812 33.039062 110.257812 32.488281 109.324219 31.996094 Z M 109.324219 31.996094 "/>
<path style=" stroke:none;fill-rule:nonzero;fill:rgb(0%,0%,0%);fill-opacity:1;" d="M 107.859375 33.957031 C 108.5 34.488281 108.882812 35.203125 108.882812 36.171875 C 109.105469 34.964844 108.683594 34.285156 107.859375 33.957031 Z M 107.859375 33.957031 "/>
<path style=" stroke:none;fill-rule:nonzero;fill:rgb(0%,0%,0%);fill-opacity:1;" d="M 111.796875 38.574219 C 112.109375 39.214844 112.128906 39.835938 111.488281 40.441406 C 112.421875 39.910156 112.347656 39.269531 111.796875 38.574219 Z M 111.796875 38.574219 "/>
<path style=" stroke:none;fill-rule:nonzero;fill:rgb(0%,0%,0%);fill-opacity:1;" d="M 107.21875 39.414062 C 107.292969 39.761719 107.089844 39.945312 106.832031 40.128906 C 107.179688 40 107.417969 39.816406 107.21875 39.414062 Z M 107.21875 39.414062 "/>
<path style=" stroke:none;fill-rule:nonzero;fill:rgb(0%,0%,0%);fill-opacity:1;" d="M 105.183594 37.691406 C 105.109375 38.039062 105.164062 38.40625 105.476562 38.753906 C 104.980469 38.515625 104.964844 38.132812 105.183594 37.691406 Z M 105.183594 37.691406 "/>
<path style=" stroke:none;fill-rule:nonzero;fill:rgb(0%,0%,0%);fill-opacity:1;" d="M 105.988281 37.785156 C 105.789062 38.296875 105.734375 38.8125 105.769531 39.324219 C 105.621094 38.683594 105.640625 38.152344 105.988281 37.785156 Z M 105.988281 37.785156 "/>
<path style=" stroke:none;fill-rule:nonzero;fill:rgb(0%,0%,0%);fill-opacity:1;" d="M 107.144531 37.621094 C 106.722656 38.40625 106.410156 39.175781 106.429688 39.964844 C 106.265625 38.9375 106.59375 38.207031 107.144531 37.621094 Z M 107.144531 37.621094 "/>
<path style=" stroke:none;fill-rule:nonzero;fill:rgb(0%,0%,0%);fill-opacity:1;" d="M 107.308594 39.160156 C 107.546875 39.726562 107.765625 40.292969 108.554688 40.347656 C 108.589844 39.945312 108.390625 39.542969 108.132812 39.140625 C 108.554688 39.46875 108.882812 39.855469 108.792969 40.644531 C 107.804688 40.679688 107.417969 40.054688 107.308594 39.160156 Z M 107.308594 39.160156 "/>
<path style=" stroke:none;fill-rule:nonzero;fill:rgb(0%,0%,0%);fill-opacity:1;" d="M 108.445312 38.371094 C 108.554688 38.847656 108.703125 39.304688 109.140625 39.726562 C 108.445312 39.269531 108.425781 38.828125 108.445312 38.371094 Z M 108.445312 38.371094 "/>
<path style=" stroke:none;fill-rule:nonzero;fill:rgb(0%,0%,0%);fill-opacity:1;" d="M 107.457031 35.675781 C 107.328125 36.613281 106.921875 37.308594 106.335938 37.859375 C 107.089844 37.472656 107.546875 36.832031 107.457031 35.675781 Z M 107.457031 35.675781 "/>
<path style=" stroke:none;fill-rule:nonzero;fill:rgb(0%,0%,0%);fill-opacity:1;" d="M 106.90625 35.128906 C 106.832031 35.566406 106.613281 36.027344 106.210938 36.484375 C 105.972656 36.742188 105.972656 37.234375 106.210938 37.96875 C 106.171875 37.398438 106.15625 36.867188 106.449219 36.574219 C 106.90625 35.972656 107.050781 35.496094 106.90625 35.128906 Z M 106.90625 35.128906 "/>
<path style=" stroke:none;fill-rule:nonzero;fill:rgb(0%,0%,0%);fill-opacity:1;" d="M 107.546875 35.148438 C 107.75 35.863281 107.894531 36.613281 107.601562 37.4375 C 107.417969 37.96875 107.417969 38.519531 107.859375 39.160156 C 107.273438 38.628906 107.234375 38.078125 107.4375 37.492188 C 107.710938 36.722656 107.695312 35.933594 107.546875 35.148438 Z M 107.546875 35.148438 "/>
<path style=" stroke:none;fill-rule:nonzero;fill:rgb(0%,0%,0%);fill-opacity:1;" d="M 109.175781 37.070312 C 109.085938 37.546875 108.902344 38.058594 109.140625 38.589844 C 109.085938 38.078125 109.46875 37.695312 109.820312 37.328125 C 109.582031 37.914062 109.324219 38.480469 109.085938 39.050781 C 108.738281 38.445312 108.847656 37.765625 109.175781 37.070312 Z M 109.175781 37.070312 "/>
<path style=" stroke:none;fill-rule:nonzero;fill:rgb(0%,0%,0%);fill-opacity:1;" d="M 107.949219 35.148438 C 109.597656 36.796875 108.097656 37.417969 107.933594 39.050781 C 107.582031 37.601562 109.234375 37.054688 107.949219 35.148438 Z M 107.949219 35.148438 "/>
<path style=" stroke:none;fill-rule:nonzero;fill:rgb(0%,0%,0%);fill-opacity:1;" d="M 108.554688 33.515625 C 109.179688 34.46875 109.363281 35.566406 109.085938 36.8125 C 109.636719 35.257812 109.234375 34.304688 108.554688 33.515625 Z M 108.554688 33.515625 "/>
<path style=" stroke:none;fill-rule:nonzero;fill:rgb(0%,0%,0%);fill-opacity:1;" d="M 111.46875 33.734375 C 112 34.378906 112.308594 35.035156 112.328125 35.679688 C 112.476562 34.945312 112.089844 34.304688 111.46875 33.734375 Z M 111.46875 33.734375 "/>
<path style=" stroke:none;fill-rule:nonzero;fill:rgb(0%,0%,0%);fill-opacity:1;" d="M 111.101562 33.882812 C 111.339844 34.855469 111.726562 35.640625 112.367188 35.953125 C 111.632812 35.789062 111.265625 34.980469 111.101562 33.882812 Z M 111.101562 33.882812 "/>
<path style=" stroke:none;fill-rule:nonzero;fill:rgb(0%,0%,0%);fill-opacity:1;" d="M 110.992188 34.25 C 111.195312 35.09375 111.265625 35.917969 110.972656 36.757812 C 111.597656 35.917969 111.414062 35.09375 110.992188 34.25 Z M 110.992188 34.25 "/>
<path style=" stroke:none;fill-rule:nonzero;fill:rgb(0%,0%,0%);fill-opacity:1;" d="M 109.46875 34.507812 C 109.746094 34.945312 109.910156 35.386719 109.964844 35.824219 C 110.074219 35.347656 109.910156 34.910156 109.46875 34.507812 Z M 109.46875 34.507812 "/>
<path style=" stroke:none;fill-rule:nonzero;fill:rgb(0%,0%,0%);fill-opacity:1;" d="M 109.433594 35.933594 C 109.875 36.628906 110.128906 37.382812 110.222656 38.132812 C 110.332031 37.214844 110.058594 36.464844 109.433594 35.933594 Z M 109.433594 35.933594 "/>
<path style=" stroke:none;fill-rule:nonzero;fill:rgb(0%,0%,0%);fill-opacity:1;" d="M 109.835938 34.378906 C 110.660156 35.640625 111.027344 36.90625 110.3125 38.1875 C 111.15625 36.832031 111.136719 35.550781 109.835938 34.378906 Z M 109.835938 34.378906 "/>
</g>
</svg>
