<svg xmlns="http://www.w3.org/2000/svg" width="150" height="150" viewBox="0 0 150 75"><defs><clipPath id="a"><path d="M0 0h75v38H0Zm0 0"/></clipPath><clipPath id="b"><path d="M0 0v18.75h87.5V37.5H75Zm0 37.5v6.25h37.5V0H75Zm0 0"/></clipPath><clipPath id="c"><path d="M0 0h88v44H0Zm0 0"/></clipPath><clipPath id="d"><path d="M0 0v18.75h87.5V37.5H75Zm0 37.5v6.25h37.5V0H75Zm0 0"/></clipPath></defs><path d="M0 0h150v75H0z" style="fill:#012169;fill-opacity:1;stroke:none"/><path d="m0 0 600 300m0-300L0 300" style="fill-rule:nonzero;fill:#000;fill-opacity:1;stroke-width:60;stroke-linecap:butt;stroke-linejoin:miter;stroke:#fff;stroke-opacity:1;stroke-miterlimit:4" transform="scale(.125)"/><g clip-path="url(#a)"><g clip-path="url(#b)"><path d="m0 0 75 37.5M75 0 0 37.5" style="stroke:none;fill-rule:nonzero;fill:#000;fill-opacity:1"/></g></g><g clip-path="url(#c)"><g clip-path="url(#d)"><path d="m0 0 600 300m0-300L0 300" style="fill:none;stroke-width:40;stroke-linecap:butt;stroke-linejoin:miter;stroke:#e4002b;stroke-opacity:1;stroke-miterlimit:4" transform="scale(.125)"/></g></g><path d="M0 150h700M300 0v350" style="fill-rule:nonzero;fill:#000;fill-opacity:1;stroke-width:100;stroke-linecap:butt;stroke-linejoin:miter;stroke:#fff;stroke-opacity:1;stroke-miterlimit:4" transform="scale(.125)"/><path d="M0 150h700M300 0v350" style="fill-rule:nonzero;fill:#000;fill-opacity:1;stroke-width:60;stroke-linecap:butt;stroke-linejoin:miter;stroke:#e4002b;stroke-opacity:1;stroke-miterlimit:4" transform="scale(.125)"/><path d="M0 37.5h75V0h75v75H0Zm0 0" style="stroke:none;fill-rule:nonzero;fill:#012169;fill-opacity:1"/><path d="M129.164 37.5c0-9.203-7.46-16.664-16.664-16.664-9.203 0-16.664 7.46-16.664 16.664 0 9.203 7.46 16.664 16.664 16.664 9.203 0 16.664-7.46 16.664-16.664Zm0 0" style="stroke:none;fill-rule:nonzero;fill:#fff;fill-opacity:1"/><path d="m117.7 52.39-5.2-2.292-5.2 2.293 5.2-14.891ZM117.7 22.61l-5.2 2.292-5.2-2.293 5.2 14.891ZM97.61 42.7l2.292-5.2-2.293-5.2 14.891 5.2ZM127.39 42.7l-2.292-5.2 2.293-5.2-14.891 5.2Zm0 0" style="stroke:none;fill-rule:nonzero;fill:#41b6e6;fill-opacity:1"/><path d="M111.727 42.379a45.01 45.01 0 0 0-2.41.082c-.59.047-1.262.102-1.837.191l-.144.028c-.36.074-.41.539-.223.793.387.523 2.68.93 5.387.93 2.707 0 5-.407 5.387-.93.187-.254.136-.72-.223-.793l-.144-.028a25.612 25.612 0 0 0-1.836-.191 45.01 45.01 0 0 0-2.41-.082Zm0 0" style="stroke:none;fill-rule:nonzero;fill:#fff;fill-opacity:1"/><path d="M113.04 42.879a5.977 5.977 0 0 1-.56-.125 8.05 8.05 0 0 1-.433-.145c.039.07.101.145.246.2a.896.896 0 0 0-.332.07c.059.023.219.07.336.066-.14.055-.195.13-.227.2.125-.047.258-.09.395-.133.18-.051.367-.094.574-.133ZM110.934 42.89a5.058 5.058 0 0 1-.996-.242c.035.075.101.141.25.192a.888.888 0 0 0-.329.082.944.944 0 0 0 .336.058c-.136.06-.191.133-.222.208.12-.055.254-.106.39-.149.18-.059.367-.105.57-.148ZM108.844 43a6.15 6.15 0 0 1-1.012-.164c.043.066.11.133.262.168a1.093 1.093 0 0 0-.32.105c.062.02.222.051.34.036-.137.07-.184.148-.212.222a4.607 4.607 0 0 1 .941-.367ZM115.145 42.922a6.542 6.542 0 0 0-.563.11c-.156.038-.3.081-.437.132.039-.07.101-.14.25-.191a.91.91 0 0 1-.329-.082 1.04 1.04 0 0 1 .336-.059c-.136-.059-.191-.133-.218-.207.12.055.254.102.39.152.176.055.364.106.57.145ZM117.227 43.11c-.2.015-.387.035-.567.066-.152.027-.3.062-.445.097a.402.402 0 0 1 .265-.168 1.083 1.083 0 0 1-.324-.105.815.815 0 0 1 .344-.035c-.137-.07-.188-.149-.21-.223.116.063.245.121.382.176.172.07.355.137.555.191Zm0 0" style="stroke:none;fill-rule:nonzero;fill:#000;fill-opacity:1"/><path d="M112.5 43.371c-3.227 0-5.184.2-5.02.356 1.13.507 3.36.671 5.02.675 1.66-.004 3.89-.168 5.02-.675.164-.157-1.793-.356-5.02-.356Zm0 0" style="stroke:none;fill-rule:nonzero;fill:#ccc;fill-opacity:1"/><path d="M1143.532 822.697c.306-.85-1.091-1.094-2.576-1.256-5.807-.73-12.225-1.257-17.9-1.662-8.95-.567-17.945-.77-26.939-.851h-17.29c-8.993.08-17.988.284-26.938.851-5.676.405-12.094.932-17.9 1.662-1.485.162-2.882.405-2.577 1.256" style="fill:none;stroke-width:.616;stroke-linecap:butt;stroke-linejoin:miter;stroke:#000;stroke-opacity:1;stroke-miterlimit:4" transform="matrix(.08947 0 0 .09637 15.205 -35.551)"/><path d="M1078.828 808.633c-8.994.121-17.989.283-26.939.85-6.593.487-14.102 1.055-20.52 1.987l-1.616.284c-4.016.77-4.584 5.593-2.488 8.228 4.322 5.431 29.95 9.647 60.207 9.647s55.885-4.216 60.208-9.647c2.096-2.635 1.528-7.458-2.489-8.228l-1.615-.284c-6.418-.932-13.928-1.5-20.52-1.986-8.95-.568-17.945-.73-26.939-.851Zm0 0" style="fill:none;stroke-width:.616;stroke-linecap:butt;stroke-linejoin:miter;stroke:#000;stroke-opacity:1;stroke-miterlimit:4" transform="matrix(.08947 0 0 .09637 15.205 -35.551)"/><path d="m1219.594 702.244 17.588-48.587 7.035-20.115 17.587-10.368 17.763-38.22 8.442-10.057 1.231-35.435s-12.135-25.067-31.305-34.041c-27.085-12.843-64.194-10.987-64.194-10.987s-8.442-21.508-24.095-29.863c-15.652-8.201-33.064-10.213-51.354-10.213-18.291 0-51.004 15.474-68.59 19.96-9.322 2.322-30.075 10.368-30.075 10.368s-20.753-8.046-30.074-10.367c-17.588-4.487-50.3-19.961-68.591-19.961-18.29 0-35.175 1.702-51.355 10.213-15.125 8.046-35.702 29.863-35.702 29.863s-23.743-3.094-40.45 6.345c-20.754 11.914-35.351 36.827-35.351 36.827l1.407 38.529 3.165 14.854 13.542 14.545 17.412 29.555 12.663 29.245 13.366 37.91Zm0 0" style="fill-rule:evenodd;fill:#e4002b;fill-opacity:1;stroke-width:2.416973;stroke-linecap:butt;stroke-linejoin:miter;stroke:#000;stroke-opacity:1;stroke-miterlimit:4" transform="matrix(.02221 0 0 .02524 89.764 23.885)"/><path d="M358.445 213.599c-9.084 2.011-18.668 6.034-26.168 13.462-7 6.885-11.667 15.086-14.334 24.99-2.5 9.283-2.584 14.777-1.417 24.06 1.417 11.915 8.75 23.83 8.75 23.83l12.585-2.244s-7.584-16.015-8.418-23.133c-1.083-8.51-1-11.218 1.084-19.11 2.167-8.123 5.417-13.694 10.917-19.11 5.167-5.183 12.417-8.355 19.918-10.057 6.667-1.547 14.167-2.244 20-1.006 11.085 2.321 18.335 5.88 30.419 9.748 8.667 2.708 15.334 3.637 24.085 4.178 5.416.31 11.667-1.083 17.5-2.32 5.834-1.239 10.668-2.477 10.668-2.477l-3.25-12.61s-4.667 1.237-10.168 2.398c-5.5 1.16-12.334 2.089-14 2.012-8.25-.465-13.168-1.161-20.918-3.637-11.167-3.481-19.084-7.427-31.668-10.058-8.5-1.779-17.251-.773-25.585 1.084Zm0 0" style="fill-rule:nonzero;fill:#ffc72c;fill-opacity:1;stroke-width:1.176461;stroke-linecap:butt;stroke-linejoin:miter;stroke:#000;stroke-opacity:1;stroke-miterlimit:4" transform="matrix(-.04687 0 0 .05049 134.153 22.301)"/><path d="M2700.185 785.049c0 3.836-2.003 7.324-5.259 9.184a10.072 10.072 0 0 1-10.519 0 10.159 10.159 0 0 1-5.134-9.184c-.125-3.836 1.878-7.324 5.134-9.3a10.612 10.612 0 0 1 10.519 0c3.256 1.976 5.26 5.464 5.26 9.3Zm0 0" style="fill-rule:nonzero;fill:#fff;fill-opacity:1;stroke-width:1.767785;stroke-linecap:butt;stroke-linejoin:miter;stroke:#000;stroke-opacity:1;stroke-miterlimit:4" transform="matrix(-.0312 0 0 .0336 203.221 10.364)"/><path d="M2700.226 785.015c0 3.837-2.003 7.324-5.26 9.3a10.612 10.612 0 0 1-10.518 0c-3.256-1.976-5.26-5.463-5.26-9.3 0-3.836 2.004-7.324 5.26-9.184a10.072 10.072 0 0 1 10.519 0c3.256 1.86 5.26 5.348 5.26 9.184Zm0 0" style="fill-rule:nonzero;fill:#fff;fill-opacity:1;stroke-width:1.767785;stroke-linecap:butt;stroke-linejoin:miter;stroke:#000;stroke-opacity:1;stroke-miterlimit:4" transform="matrix(-.0312 0 0 .0336 203.379 9.517)"/><path d="M2700.205 785.044c0 3.836-2.004 7.324-5.26 9.184a10.072 10.072 0 0 1-10.519 0c-3.256-1.86-5.26-5.348-5.26-9.184 0-3.837 2.004-7.324 5.26-9.3a10.612 10.612 0 0 1 10.52 0c3.255 1.976 5.259 5.463 5.259 9.3Zm0 0" style="fill-rule:nonzero;fill:#fff;fill-opacity:1;stroke-width:1.767785;stroke-linecap:butt;stroke-linejoin:miter;stroke:#000;stroke-opacity:1;stroke-miterlimit:4" transform="matrix(-.0312 0 0 .0336 203.331 8.622)"/><path d="M2700.223 784.985c0 3.836-2.004 7.324-5.26 9.3a10.612 10.612 0 0 1-10.519 0c-3.256-1.976-5.26-5.464-5.26-9.3 0-3.72 2.004-7.324 5.26-9.184a10.072 10.072 0 0 1 10.52 0c3.255 1.86 5.259 5.464 5.259 9.184Zm0 0" style="fill-rule:nonzero;fill:#fff;fill-opacity:1;stroke-width:1.767785;stroke-linecap:butt;stroke-linejoin:miter;stroke:#000;stroke-opacity:1;stroke-miterlimit:4" transform="matrix(-.0312 0 0 .0336 203.011 7.772)"/><path d="M2700.248 785.039c0 3.836-2.004 7.324-5.26 9.184a10.072 10.072 0 0 1-10.519 0c-3.255-1.86-5.259-5.348-5.259-9.184 0-3.836 2.004-7.324 5.26-9.3a10.612 10.612 0 0 1 10.518 0c3.256 1.976 5.26 5.464 5.26 9.3Zm0 0" style="fill-rule:nonzero;fill:#fff;fill-opacity:1;stroke-width:1.767785;stroke-linecap:butt;stroke-linejoin:miter;stroke:#000;stroke-opacity:1;stroke-miterlimit:4" transform="matrix(-.0312 0 0 .0336 202.414 7.107)"/><path d="M2700.248 785.002c0 3.837-2.003 7.324-5.26 9.3a10.612 10.612 0 0 1-10.518 0c-3.256-1.976-5.26-5.463-5.26-9.3 0-3.836 2.004-7.324 5.26-9.184a10.072 10.072 0 0 1 10.519 0c3.256 1.86 5.26 5.348 5.26 9.184Zm0 0" style="fill-rule:nonzero;fill:#fff;fill-opacity:1;stroke-width:1.767785;stroke-linecap:butt;stroke-linejoin:miter;stroke:#000;stroke-opacity:1;stroke-miterlimit:4" transform="matrix(-.0312 0 0 .0336 201.668 6.67)"/><path d="M2700.213 784.977c0 3.836-2.004 7.44-5.26 9.3a10.612 10.612 0 0 1-10.519 0c-3.255-1.86-5.26-5.464-5.26-9.3 0-3.72 2.005-7.324 5.26-9.184a10.072 10.072 0 0 1 10.52 0c3.255 1.86 5.259 5.464 5.259 9.184Zm0 0" style="fill-rule:nonzero;fill:#fff;fill-opacity:1;stroke-width:1.767785;stroke-linecap:butt;stroke-linejoin:miter;stroke:#000;stroke-opacity:1;stroke-miterlimit:4" transform="matrix(-.0312 0 0 .0336 200.816 6.44)"/><path d="M2700.246 785.005c0 3.837-2.004 7.324-5.26 9.3a10.612 10.612 0 0 1-10.519 0c-3.256-1.976-5.26-5.463-5.26-9.3 0-3.836 2.004-7.324 5.26-9.184a10.072 10.072 0 0 1 10.519 0c3.256 1.86 5.26 5.348 5.26 9.184Zm0 0" style="fill-rule:nonzero;fill:#fff;fill-opacity:1;stroke-width:1.767785;stroke-linecap:butt;stroke-linejoin:miter;stroke:#000;stroke-opacity:1;stroke-miterlimit:4" transform="matrix(-.0312 0 0 .0336 199.942 6.487)"/><path d="M2700.154 785.067c0 3.72-2.004 7.324-5.26 9.185-3.13 1.976-7.138 1.976-10.394 0-3.256-1.86-5.26-5.464-5.26-9.185 0-3.836 2.004-7.324 5.26-9.3 3.256-1.86 7.263-1.86 10.394 0 3.256 1.976 5.26 5.464 5.26 9.3Zm0 0" style="fill-rule:nonzero;fill:#fff;fill-opacity:1;stroke-width:1.767785;stroke-linecap:butt;stroke-linejoin:miter;stroke:#000;stroke-opacity:1;stroke-miterlimit:4" transform="matrix(-.0312 0 0 .0336 197.575 7.152)"/><path d="M2700.142 785.045c0 3.836-2.004 7.324-5.134 9.184a10.072 10.072 0 0 1-10.52 0c-3.255-1.86-5.259-5.348-5.259-9.184 0-3.837 2.004-7.324 5.26-9.3a10.612 10.612 0 0 1 10.519 0 11.018 11.018 0 0 1 5.134 9.3Zm0 0" style="fill-rule:nonzero;fill:#fff;fill-opacity:1;stroke-width:1.767785;stroke-linecap:butt;stroke-linejoin:miter;stroke:#000;stroke-opacity:1;stroke-miterlimit:4" transform="matrix(-.0312 0 0 .0336 199.11 6.74)"/><path d="M2700.21 784.968c0 3.837-2.003 7.44-5.259 9.3a10.612 10.612 0 0 1-10.519 0c-3.256-1.86-5.26-5.463-5.26-9.3 0-3.72 2.004-7.324 5.26-9.184a10.612 10.612 0 0 1 10.519 0c3.256 1.86 5.26 5.464 5.26 9.184Zm0 0" style="fill-rule:nonzero;fill:#fff;fill-opacity:1;stroke-width:1.767785;stroke-linecap:butt;stroke-linejoin:miter;stroke:#000;stroke-opacity:1;stroke-miterlimit:4" transform="matrix(-.0312 0 0 .0336 198.343 6.992)"/><path d="M358.445 213.599c-9.084 2.011-18.668 6.034-26.168 13.462-7 6.885-11.667 15.086-14.334 24.99-2.5 9.283-2.584 14.777-1.417 24.06 1.417 11.915 8.75 23.83 8.75 23.83l12.585-2.244s-7.584-16.015-8.418-23.133c-1.083-8.51-1-11.218 1.084-19.11 2.167-8.123 5.417-13.694 10.917-19.11 5.167-5.183 12.417-8.355 19.918-10.057 6.667-1.547 14.167-2.244 20-1.006 11.085 2.321 18.335 5.88 30.419 9.748 8.667 2.708 15.334 3.637 24.085 4.178 5.417.31 11.667-1.083 17.5-2.32 5.834-1.239 10.668-2.477 10.668-2.477l-3.25-12.61s-4.667 1.237-10.168 2.398c-5.5 1.16-12.334 2.089-14 2.012-8.25-.465-13.168-1.161-20.918-3.637-11.167-3.481-19.084-7.427-31.668-10.058-8.5-1.779-17.251-.773-25.585 1.084Zm0 0" style="fill-rule:nonzero;fill:#ffc72c;fill-opacity:1;stroke-width:1.176461;stroke-linecap:butt;stroke-linejoin:miter;stroke:#000;stroke-opacity:1;stroke-miterlimit:4" transform="matrix(.04687 0 0 .05049 90.847 22.301)"/><path d="M2700.185 785.049c0 3.836-2.003 7.324-5.259 9.184a10.072 10.072 0 0 1-10.519 0 10.159 10.159 0 0 1-5.134-9.184c-.125-3.836 1.878-7.324 5.134-9.3a10.612 10.612 0 0 1 10.519 0c3.256 1.976 5.26 5.464 5.26 9.3Zm0 0" style="fill-rule:nonzero;fill:#fff;fill-opacity:1;stroke-width:1.767785;stroke-linecap:butt;stroke-linejoin:miter;stroke:#000;stroke-opacity:1;stroke-miterlimit:4" transform="matrix(.0312 0 0 .0336 21.779 10.364)"/><path d="M2700.226 785.015c0 3.837-2.003 7.324-5.26 9.3a10.612 10.612 0 0 1-10.518 0c-3.256-1.976-5.26-5.463-5.26-9.3 0-3.836 2.004-7.324 5.26-9.184a10.072 10.072 0 0 1 10.519 0c3.256 1.86 5.26 5.348 5.26 9.184Zm0 0" style="fill-rule:nonzero;fill:#fff;fill-opacity:1;stroke-width:1.767785;stroke-linecap:butt;stroke-linejoin:miter;stroke:#000;stroke-opacity:1;stroke-miterlimit:4" transform="matrix(.0312 0 0 .0336 21.621 9.517)"/><path d="M2700.205 785.044c0 3.836-2.004 7.324-5.26 9.184a10.072 10.072 0 0 1-10.519 0c-3.256-1.86-5.26-5.348-5.26-9.184 0-3.837 2.004-7.324 5.26-9.3a10.612 10.612 0 0 1 10.52 0c3.255 1.976 5.259 5.463 5.259 9.3Zm0 0" style="fill-rule:nonzero;fill:#fff;fill-opacity:1;stroke-width:1.767785;stroke-linecap:butt;stroke-linejoin:miter;stroke:#000;stroke-opacity:1;stroke-miterlimit:4" transform="matrix(.0312 0 0 .0336 21.669 8.622)"/><path d="M2700.223 784.985c0 3.836-2.004 7.324-5.26 9.3a10.612 10.612 0 0 1-10.519 0c-3.256-1.976-5.26-5.464-5.26-9.3 0-3.72 2.004-7.324 5.26-9.184a10.072 10.072 0 0 1 10.52 0c3.255 1.86 5.259 5.464 5.259 9.184Zm0 0" style="fill-rule:nonzero;fill:#fff;fill-opacity:1;stroke-width:1.767785;stroke-linecap:butt;stroke-linejoin:miter;stroke:#000;stroke-opacity:1;stroke-miterlimit:4" transform="matrix(.0312 0 0 .0336 21.989 7.772)"/><path d="M2700.248 785.039c0 3.836-2.004 7.324-5.26 9.184a10.072 10.072 0 0 1-10.519 0c-3.255-1.86-5.259-5.348-5.259-9.184 0-3.836 2.004-7.324 5.26-9.3a10.612 10.612 0 0 1 10.518 0c3.256 1.976 5.26 5.464 5.26 9.3Zm0 0" style="fill-rule:nonzero;fill:#fff;fill-opacity:1;stroke-width:1.767785;stroke-linecap:butt;stroke-linejoin:miter;stroke:#000;stroke-opacity:1;stroke-miterlimit:4" transform="matrix(.0312 0 0 .0336 22.586 7.107)"/><path d="M2700.248 785.002c0 3.837-2.003 7.324-5.26 9.3a10.612 10.612 0 0 1-10.518 0c-3.256-1.976-5.26-5.463-5.26-9.3 0-3.836 2.004-7.324 5.26-9.184a10.072 10.072 0 0 1 10.519 0c3.256 1.86 5.26 5.348 5.26 9.184Zm0 0" style="fill-rule:nonzero;fill:#fff;fill-opacity:1;stroke-width:1.767785;stroke-linecap:butt;stroke-linejoin:miter;stroke:#000;stroke-opacity:1;stroke-miterlimit:4" transform="matrix(.0312 0 0 .0336 23.332 6.67)"/><path d="M2700.213 784.977c0 3.836-2.004 7.44-5.26 9.3a10.612 10.612 0 0 1-10.519 0c-3.255-1.86-5.259-5.464-5.259-9.3 0-3.72 2.004-7.324 5.26-9.184a10.072 10.072 0 0 1 10.518 0c3.256 1.86 5.26 5.464 5.26 9.184Zm0 0" style="fill-rule:nonzero;fill:#fff;fill-opacity:1;stroke-width:1.767785;stroke-linecap:butt;stroke-linejoin:miter;stroke:#000;stroke-opacity:1;stroke-miterlimit:4" transform="matrix(.0312 0 0 .0336 24.184 6.44)"/><path d="M2700.246 785.005c0 3.837-2.004 7.324-5.26 9.3a10.612 10.612 0 0 1-10.519 0c-3.256-1.976-5.26-5.463-5.26-9.3 0-3.836 2.004-7.324 5.26-9.184a10.072 10.072 0 0 1 10.52 0c3.255 1.86 5.259 5.348 5.259 9.184Zm0 0" style="fill-rule:nonzero;fill:#fff;fill-opacity:1;stroke-width:1.767785;stroke-linecap:butt;stroke-linejoin:miter;stroke:#000;stroke-opacity:1;stroke-miterlimit:4" transform="matrix(.0312 0 0 .0336 25.058 6.487)"/><path d="M2700.154 785.067c0 3.72-2.004 7.324-5.26 9.185-3.13 1.976-7.138 1.976-10.394 0-3.255-1.86-5.26-5.464-5.26-9.185 0-3.836 2.005-7.324 5.26-9.3 3.256-1.86 7.263-1.86 10.394 0 3.256 1.976 5.26 5.464 5.26 9.3Zm0 0" style="fill-rule:nonzero;fill:#fff;fill-opacity:1;stroke-width:1.767785;stroke-linecap:butt;stroke-linejoin:miter;stroke:#000;stroke-opacity:1;stroke-miterlimit:4" transform="matrix(.0312 0 0 .0336 27.425 7.152)"/><path d="M2700.142 785.045c0 3.836-2.004 7.324-5.134 9.184a10.072 10.072 0 0 1-10.52 0c-3.255-1.86-5.259-5.348-5.259-9.184 0-3.837 2.004-7.324 5.26-9.3a10.612 10.612 0 0 1 10.519 0 11.018 11.018 0 0 1 5.134 9.3Zm0 0" style="fill-rule:nonzero;fill:#fff;fill-opacity:1;stroke-width:1.767785;stroke-linecap:butt;stroke-linejoin:miter;stroke:#000;stroke-opacity:1;stroke-miterlimit:4" transform="matrix(.0312 0 0 .0336 25.89 6.74)"/><path d="M2700.21 784.968c0 3.837-2.003 7.44-5.259 9.3a10.612 10.612 0 0 1-10.519 0c-3.256-1.86-5.26-5.463-5.26-9.3 0-3.72 2.004-7.324 5.26-9.184a10.612 10.612 0 0 1 10.519 0c3.256 1.86 5.26 5.464 5.26 9.184Zm0 0" style="fill-rule:nonzero;fill:#fff;fill-opacity:1;stroke-width:1.767785;stroke-linecap:butt;stroke-linejoin:miter;stroke:#000;stroke-opacity:1;stroke-miterlimit:4" transform="matrix(.0312 0 0 .0336 26.657 6.992)"/><path d="M185.985 37.04c1.516-1.982 3.444-3.452 4.96-5.499 1.583-2.11 2.754-4.795 3.374-7.48-2.755.703-5.44 1.918-7.507 3.516-2.066 1.535-3.513 3.389-5.51 4.924V7.116c1.997 1.535 3.444 3.453 5.51 4.988 2.066 1.534 4.752 2.749 7.507 3.452-.62-2.685-1.79-5.37-3.375-7.48-1.515-2.047-3.443-3.517-4.959-5.5h28.101c-1.515 1.983-3.444 3.453-4.959 5.5-1.584 2.11-2.755 4.795-3.375 7.48 2.755-.703 5.441-1.918 7.507-3.452 2.067-1.535 3.513-3.453 5.51-4.988v25.385c-1.997-1.535-3.443-3.39-5.51-4.924-2.066-1.598-4.752-2.813-7.507-3.517.62 2.686 1.79 5.371 3.375 7.481 1.515 2.047 3.444 3.517 4.959 5.5Zm0 0" style="fill-rule:nonzero;fill:#ffc72c;fill-opacity:1;stroke-width:.972282;stroke-linecap:butt;stroke-linejoin:miter;stroke:#000;stroke-opacity:1;stroke-miterlimit:4" transform="matrix(.05672 0 0 .0611 101.155 29.636)"/><path d="M2700.154 785.055c0 3.747-1.966 7.302-5.175 9.224-3.311 1.921-7.244 1.921-10.556 0-3.208-1.922-5.175-5.477-5.175-9.224 0-3.843 1.967-7.398 5.175-9.32a10.858 10.858 0 0 1 10.556 0c3.209 1.922 5.175 5.477 5.175 9.32Zm0 0" style="fill-rule:nonzero;fill:#fff;fill-opacity:1;stroke-width:1.46098;stroke-linecap:butt;stroke-linejoin:miter;stroke:#000;stroke-opacity:1;stroke-miterlimit:4" transform="matrix(.03774 0 0 .04066 10.979 -1.07)"/><path d="M2700.189 785.02c0 3.83-2.007 7.358-5.244 9.251a10.393 10.393 0 0 1-10.487 0c-3.238-1.893-5.244-5.421-5.244-9.25 0-3.786 2.006-7.314 5.244-9.25a10.393 10.393 0 0 1 10.487 0 10.807 10.807 0 0 1 5.244 9.25Zm0 0" style="fill-rule:nonzero;fill:#ffc72c;fill-opacity:1;stroke-width:.64894;stroke-linecap:butt;stroke-linejoin:miter;stroke:#000;stroke-opacity:1;stroke-miterlimit:4" transform="matrix(.08567 0 0 .0908 -117.923 -38.402)"/><path d="M195.858 28.413v17.063h-17.055v8.696h42.769v-8.696h-17.055V28.413Zm0 0" style="fill-rule:nonzero;fill:#ffc72c;fill-opacity:1;stroke-width:1.247424;stroke-linecap:butt;stroke-linejoin:miter;stroke:#000;stroke-opacity:1;stroke-miterlimit:4" transform="matrix(.0442 0 0 .04762 103.65 30.475)"/><path d="M309.644 310.562h12.5c3.584 0 6.418 2.862 6.418 6.344v58.954a6.386 6.386 0 0 1-6.417 6.422h-12.5a6.386 6.386 0 0 1-6.418-6.422v-58.954c0-3.482 2.834-6.344 6.417-6.344Zm0 0" style="fill-rule:evenodd;fill:#ffc72c;fill-opacity:1;stroke-width:1.176461;stroke-linecap:butt;stroke-linejoin:miter;stroke:#000;stroke-opacity:1;stroke-miterlimit:4" transform="matrix(.04687 0 0 .05049 97.693 17.96)"/><path d="M224.884 941.237c1.889 0 3.487 1.707 3.487 3.755v71.673c0 2.133-1.598 3.84-3.487 3.84-1.962 0-3.56-1.707-3.56-3.84v-71.673c0-2.048 1.598-3.755 3.56-3.755Zm0 0" style="fill-rule:evenodd;fill:#ffc72c;fill-opacity:1;stroke-width:1.153604;stroke-linecap:butt;stroke-linejoin:miter;stroke:#000;stroke-opacity:1;stroke-miterlimit:4" transform="matrix(.05376 0 0 .04578 99.773 -9.454)"/><path d="M243.986 941.237c1.962 0 3.56 1.707 3.56 3.755v71.673c0 2.133-1.598 3.84-3.56 3.84-1.89 0-3.488-1.707-3.488-3.84v-71.673c0-2.048 1.599-3.755 3.488-3.755Zm0 0" style="fill-rule:evenodd;fill:#ffc72c;fill-opacity:1;stroke-width:1.153604;stroke-linecap:butt;stroke-linejoin:miter;stroke:#000;stroke-opacity:1;stroke-miterlimit:4" transform="matrix(.05376 0 0 .04578 100.02 -9.454)"/><path d="M2700.22 784.975c0 3.836-2.003 7.44-5.26 9.3a10.612 10.612 0 0 1-10.518 0c-3.256-1.86-5.26-5.464-5.26-9.3 0-3.72 2.004-7.324 5.26-9.185a10.612 10.612 0 0 1 10.519 0c3.256 1.86 5.26 5.464 5.26 9.185Zm0 0" style="fill-rule:nonzero;fill:#fff;fill-opacity:1;stroke-width:1.767785;stroke-linecap:butt;stroke-linejoin:miter;stroke:#000;stroke-opacity:1;stroke-miterlimit:4" transform="matrix(.0312 0 0 .0336 28.598 7.34)"/><path d="M2700.22 785.052c0 3.837-2.003 7.324-5.26 9.184a10.072 10.072 0 0 1-10.518 0c-3.256-1.86-5.26-5.347-5.26-9.184 0-3.836 2.004-7.324 5.26-9.3a10.612 10.612 0 0 1 10.519 0c3.256 1.976 5.26 5.464 5.26 9.3Zm0 0" style="fill-rule:nonzero;fill:#fff;fill-opacity:1;stroke-width:1.767785;stroke-linecap:butt;stroke-linejoin:miter;stroke:#000;stroke-opacity:1;stroke-miterlimit:4" transform="matrix(.0312 0 0 .0336 28.598 8.051)"/><path d="M2700.22 784.982c0 3.836-2.003 7.324-5.26 9.3a10.612 10.612 0 0 1-10.518 0c-3.256-1.976-5.26-5.464-5.26-9.3 0-3.72 2.004-7.324 5.26-9.184a10.072 10.072 0 0 1 10.519 0c3.256 1.86 5.26 5.464 5.26 9.184Zm0 0" style="fill-rule:nonzero;fill:#fff;fill-opacity:1;stroke-width:1.767785;stroke-linecap:butt;stroke-linejoin:miter;stroke:#000;stroke-opacity:1;stroke-miterlimit:4" transform="matrix(.0312 0 0 .0336 28.598 8.765)"/><path d="M2700.22 785.028c0 3.837-2.003 7.324-5.26 9.184a10.072 10.072 0 0 1-10.518 0c-3.256-1.86-5.26-5.347-5.26-9.184 0-3.836 2.004-7.324 5.26-9.3a10.612 10.612 0 0 1 10.519 0c3.256 1.976 5.26 5.464 5.26 9.3Zm0 0" style="fill-rule:nonzero;fill:#fff;fill-opacity:1;stroke-width:1.767785;stroke-linecap:butt;stroke-linejoin:miter;stroke:#000;stroke-opacity:1;stroke-miterlimit:4" transform="matrix(.0312 0 0 .0336 28.598 9.478)"/><path d="M2700.22 785.074c0 3.72-2.003 7.324-5.26 9.185a10.072 10.072 0 0 1-10.518 0c-3.256-1.86-5.26-5.464-5.26-9.185 0-3.836 2.004-7.44 5.26-9.3a10.612 10.612 0 0 1 10.519 0c3.256 1.86 5.26 5.464 5.26 9.3Zm0 0" style="fill-rule:nonzero;fill:#fff;fill-opacity:1;stroke-width:1.767785;stroke-linecap:butt;stroke-linejoin:miter;stroke:#000;stroke-opacity:1;stroke-miterlimit:4" transform="matrix(.0312 0 0 .0336 28.598 10.191)"/><path d="M-147.306 1086.934c-6.667 15.01-12.084 29.71-17.334 44.796h-216.678c-5.084-14.622-10.25-30.25-16.668-44.796 0 0 13.501 18.878 23.585 23.443 5.584 2.553 12.584 3.326 18.418 1.238 7.583-2.708 17.75-16.557 17.75-16.557s9.168 10.677 15.418 13.462c5.834 2.63 12.584 2.785 19 2.476 5.668-.233 11.918-.465 16.585-3.714 7.084-4.874 14.084-21.43 14.084-21.43s6.917 13.074 12.334 17.794c4.5 3.868 10.084 6.808 15.918 7.969 5.833 1.16 12.25.773 17.834-1.238 7.584-2.708 19.668-14.159 19.668-14.159s8.25 10.368 14.084 12.92c5.667 2.554 12.417 3.25 18.417 1.858 6.417-1.47 11.75-6.112 16.584-10.445 4.417-3.868 11.001-13.617 11.001-13.617Zm0 0" style="fill-rule:nonzero;fill:#ffc72c;fill-opacity:1;stroke-width:1.176461;stroke-linecap:butt;stroke-linejoin:miter;stroke:#000;stroke-opacity:1;stroke-miterlimit:4" transform="matrix(.04687 0 0 .05049 125.28 -16.047)"/><path d="M112.5 39.262s-.23.383-.375.515c-.195.184-.328.293-.582.38a2.538 2.538 0 0 1-.871.116 1.92 1.92 0 0 1-.754-.214c-.2-.106-.52-.41-.52-.41a1.788 1.788 0 0 1-.543.484c-.242.144-.48.156-.73.14-.508-.027-.984-.37-1.367-1.066a18.552 18.552 0 0 0-.887-1.937c.41-.153.887-.239 1.418-.266-.215.652-.441 1.289-.36 1.816.442-.36.587-.847.739-1.332l.52 1.961c-.317-.058-.149-.129-.973-.297.164.336.543.75.96.79a.805.805 0 0 0 .66-.231c.13-.121.247-.277.243-.457v-.305c-.004-.066-.078-.16-.137-.16-.058 0-.074.102-.09.16-.03.121.032.254 0 .375a.5.5 0 0 1-.21.309c-.09.062-.309.078-.309.078l.07-.29c.051-.206-.132-.362-.18-.57a.796.796 0 0 1 0-.406.603.603 0 0 1 .27-.332c.047-.02.102-.023.149-.02.07.005.21.055.21.055s-.038-.207-.03-.332c.011-.152.132-.433.199-.57.113-.223.289-.422.308-.441.02.02.211.21.34.425.074.13.152.317.172.465.02.125.012.387.012.387s.207-.09.277-.102a.276.276 0 0 1 .148.012c.13.051.235.176.29.309.05.125.046.273.027.406-.031.211-.145.371-.082.57l.086.282s-.22.004-.313-.051a.493.493 0 0 1-.226-.293c-.04-.117-.016-.262-.086-.363-.028-.047-.07-.094-.13-.09-.058.004-.1.113-.105.18l-.008.273a.442.442 0 0 0 .075.242c.101.168.254.27.43.344.183.082.355.113.554.117.172 0 .465-.027.625-.086.195-.074.313-.164.465-.316a.842.842 0 0 0 .18-.328c.043-.141.027-.376.027-.376a1.977 1.977 0 0 0-.52.313c-.171.14-.324.305-.468.48l-.016-2.367c.207.242.356.457.559.64.171.153.257.212.43.274-.048-.191-.063-.308-.192-.496-.176-.265-.348-.55-.559-.812.39-.07.782-.09 1.18-.09.398 0 .79.02 1.18.09-.211.261-.383.547-.559.812-.129.188-.144.305-.191.496.172-.062.257-.12.43-.273.203-.184.35-.399.558-.64l-.016 2.366a3.412 3.412 0 0 0-.468-.48 1.977 1.977 0 0 0-.52-.313s-.016.235.027.376c.04.117.094.242.18.328.152.152.27.242.465.316.16.059.453.086.625.086.2-.004.371-.035.555-.117a.867.867 0 0 0 .43-.344.442.442 0 0 0 .074-.242l-.008-.274c-.004-.066-.047-.175-.106-.18-.058-.003-.101.044-.129.09-.07.102-.047.247-.086.364a.493.493 0 0 1-.226.293c-.094.054-.313.05-.313.05l.086-.28c.063-.2-.05-.36-.082-.571a.795.795 0 0 1 .028-.406.561.561 0 0 1 .289-.309.276.276 0 0 1 .148-.012c.07.012.277.102.277.102s-.007-.262.012-.387a1.42 1.42 0 0 1 .172-.465c.129-.214.32-.406.34-.425.02.02.195.218.308.441.067.137.188.418.2.57.007.125-.032.332-.032.332s.141-.05.211-.054a.326.326 0 0 1 .149.02.603.603 0 0 1 .27.331.796.796 0 0 1 0 .407c-.048.207-.231.363-.18.57l.07.289s-.219-.016-.309-.078a.5.5 0 0 1-.21-.309c-.032-.12.03-.254 0-.375-.016-.058-.032-.16-.09-.16-.059 0-.133.094-.137.16v.305c-.004.18.113.336.242.457.18.164.383.258.66.23.418-.039.797-.453.961-.789-.824.168-.656.239-.972.297l.519-1.96c.152.484.297.972.738 1.331.082-.527-.144-1.164-.36-1.816.532.027 1.009.113 1.419.266-.356.671-.64 1.308-.887 1.937-.383.695-.86 1.04-1.367 1.066-.25.016-.488.004-.73-.14a1.788 1.788 0 0 1-.543-.485s-.32.305-.52.41a1.92 1.92 0 0 1-.754.215 2.538 2.538 0 0 1-.871-.117c-.254-.086-.387-.195-.582-.379-.145-.132-.375-.515-.375-.515Zm0 0" style="stroke:none;fill-rule:nonzero;fill:#ffc72c;fill-opacity:1"/><path d="M108.125 40.273c-.508-.027-.984-.37-1.367-1.066a18.552 18.552 0 0 0-.887-1.937c.41-.153.887-.239 1.418-.266-.215.652-.441 1.289-.36 1.816.442-.36.587-.847.739-1.332l.52 1.961c-.317-.058-.149-.129-.973-.297.164.336.543.75.96.79Zm8.7-.332c.417-.039.796-.453.96-.789-.824.168-.656.239-.972.297l.519-1.96c.152.484.297.972.738 1.331.082-.527-.144-1.164-.36-1.816.532.027 1.009.113 1.419.266-.356.671-.64 1.308-.887 1.937-.383.695-.86 1.04-1.367 1.066l-.008.02Zm0 0" style="stroke:none;fill-rule:nonzero;fill:#ffc72c;fill-opacity:1"/><path d="M110.672 40.273a1.92 1.92 0 0 1-.754-.214c-.2-.106-.52-.41-.52-.41a1.788 1.788 0 0 1-.543.484c-.242.144-.48.156-.73.14l-.008.094.059-.426a.805.805 0 0 0 .66-.23c.129-.121.246-.277.242-.457v-.305c-.004-.066-.078-.16-.137-.16-.058 0-.074.102-.09.16-.03.121.032.254 0 .375a.5.5 0 0 1-.21.309c-.09.062-.309.078-.309.078l.07-.29c.051-.206-.132-.362-.18-.57a.796.796 0 0 1 0-.406.603.603 0 0 1 .27-.332c.047-.02.102-.023.149-.02.07.005.21.055.21.055s-.038-.207-.03-.332c.011-.152.132-.433.199-.57.113-.223.289-.422.308-.441.02.02.211.21.34.425.074.13.152.317.172.465.02.125.012.387.012.387s.207-.09.277-.102a.276.276 0 0 1 .148.012c.13.051.235.176.29.309.05.125.046.273.027.406-.031.211-.145.371-.082.57l.086.282s-.22.004-.313-.051a.493.493 0 0 1-.226-.293c-.04-.117-.016-.262-.086-.363-.028-.047-.07-.094-.13-.09-.058.004-.1.113-.105.18l-.008.273a.442.442 0 0 0 .075.242c.101.168.254.27.43.344.183.082.355.113.554.117Zm0 0" style="stroke:none;fill-rule:nonzero;fill:#ffc72c;fill-opacity:1"/><path d="m115.727 39.246-.008-.012c-.008-.129.035-.351.035-.351a.38.38 0 0 1 .219-.27.234.234 0 0 1 .191 0c.04.02.07.035.098.067.023.027.039.066.058.12a.493.493 0 0 1 0 .227.568.568 0 0 0 .012.297.304.304 0 0 0 .121.133c-.012-.039-.02-.059-.023-.102a.394.394 0 0 1 .023-.19c.043-.102.098-.185.133-.274a.608.608 0 0 0 .05-.274.449.449 0 0 0-.066-.21.321.321 0 0 0-.175-.122.536.536 0 0 0-.235.04c-.078.023-.137.054-.137.054l-.066.035.012-.082c.039-.27.074-.406 0-.66a1.37 1.37 0 0 0-.172-.352c-.043-.062-.09-.14-.145-.21a1.499 1.499 0 0 0-.297.527c-.062.195-.066.453-.05.66l.004.086-.063-.043s-.078-.05-.168-.098a.638.638 0 0 0-.246-.082c-.09.008-.148.055-.203.133-.05.066-.059.125-.07.219-.008.058.007.168.015.238.012.082.055.172.07.277.004.035.012.063.02.098a.288.288 0 0 1 .004.117c-.004.035-.016.059-.027.098.023-.012.039-.02.05-.028.043-.035.063-.093.09-.167a.289.289 0 0 0 .02-.114c.004-.043.004-.09.023-.144.035-.09.074-.2.16-.27a.273.273 0 0 1 .25-.039c.051.016.086.047.11.086.027.035.043.078.058.117.024.055.04.133.047.203l.02.125v.016l-.063.219-.078-.02.059-.207c0-.004-.004-.054-.016-.12a.699.699 0 0 0-.039-.177c-.02-.043-.035-.078-.05-.105-.02-.028-.04-.047-.071-.055a.208.208 0 0 0-.18.028c-.062.046-.097.14-.133.23-.015.039-.015.074-.015.117-.004.043-.004.09-.028.145-.023.066-.046.148-.117.203-.05.039-.144.078-.144.078l-.082.035.031-.09s.039-.133.047-.18c.008-.03.004-.054 0-.081-.008-.028-.02-.063-.024-.106-.011-.082-.058-.172-.07-.277-.008-.07-.023-.18-.016-.262a.465.465 0 0 1 .086-.262.359.359 0 0 1 .258-.164c.086-.008.196.043.29.094.062.031.077.043.109.062-.008-.199-.004-.43.054-.62.067-.208.176-.407.344-.602l.031-.035.028.035c.078.09.132.187.18.262.093.14.152.261.183.375.074.242.047.406.012.628.027-.011.035-.015.082-.03a.505.505 0 0 1 .273-.04c.086.02.168.078.223.152a.467.467 0 0 1 .082.254.67.67 0 0 1-.055.317c-.043.101-.097.183-.133.273-.02.043-.027.098-.02.145.009.07.044.183.044.183l.023.082-.074-.027a.389.389 0 0 1-.242-.227.632.632 0 0 1-.016-.343.42.42 0 0 0 .004-.184c-.016-.05-.027-.074-.043-.09-.012-.015-.035-.027-.074-.047-.031-.02-.086-.015-.129.004-.074.028-.16.13-.168.203-.016.133-.047.266-.105.348Zm2.28-.152.024-.047-.047-.016c-.324-.11-.629-.027-.91.106.114-.34.2-.68.262-1.02.312.602.574.801.824.922l.043.023.012-.054c.074-.41.078-.957-.235-1.77.352.02.7.063 1.047.23l.032-.081c-.38-.18-.758-.227-1.133-.242l-.067-.004.028.062c.32.805.32 1.324.258 1.727-.239-.121-.48-.313-.79-.942l-.054-.113-.02.125a7.098 7.098 0 0 1-.312 1.195l-.035.098.09-.043c.285-.14.578-.234.89-.145l.008.004Zm-10.921.011c.312-.09.602.004.89.145l.087.043-.032-.098A7.098 7.098 0 0 1 107.72 38l-.02-.125-.054.113c-.31.63-.551.82-.79.942-.066-.403-.062-.922.258-1.727l.024-.062-.063.004c-.375.015-.754.062-1.133.242l.032.082c.347-.168.695-.211 1.047-.23-.313.812-.31 1.359-.235 1.769l.008.054.047-.023c.25-.121.512-.32.824-.918.063.34.148.676.262 1.016-.281-.133-.586-.215-.91-.106l-.047.016.023.047-.012.004Zm2.57.192-.043-.184c0-.008.004-.054.012-.117a.884.884 0 0 1 .043-.176c.02-.043.035-.078.05-.105.02-.028.04-.047.071-.055a.21.21 0 0 1 .18.028c.062.046.097.14.133.23.015.039.015.074.015.117.004.043.004.09.028.145.023.066.046.148.117.203a.81.81 0 0 0 .144.078l.082.035-.031-.09s-.039-.133-.047-.18c-.008-.03-.004-.054 0-.081.008-.028.02-.063.024-.106.011-.082.054-.172.07-.277.008-.07.023-.18.016-.262a.465.465 0 0 0-.086-.262.359.359 0 0 0-.258-.164c-.086-.008-.196.043-.29.094-.062.031-.077.043-.109.062.008-.199.004-.43-.054-.62a1.717 1.717 0 0 0-.344-.602l-.031-.035-.028.035c-.078.09-.132.187-.183.262-.09.14-.149.261-.18.375-.074.242-.047.406-.012.628-.027-.011-.035-.015-.082-.03a.505.505 0 0 0-.273-.04.398.398 0 0 0-.223.152.467.467 0 0 0-.082.254.67.67 0 0 0 .055.317c.043.101.097.183.133.273.02.043.023.098.02.145-.009.07-.044.183-.044.183l-.023.082.074-.027a.389.389 0 0 0 .242-.227.632.632 0 0 0 .016-.343.42.42 0 0 1-.004-.184c.016-.05.027-.074.043-.09.012-.015.035-.027.07-.047s.09-.015.133 0a.35.35 0 0 1 .168.207v.004s.039.227.031.328l.094.02c-.008-.145-.047-.367-.047-.367a.39.39 0 0 0-.219-.27.243.243 0 0 0-.195 0 .337.337 0 0 0-.094.067.318.318 0 0 0-.058.12.462.462 0 0 0-.004.231.518.518 0 0 1-.012.293.273.273 0 0 1-.117.133c.012-.039.02-.059.023-.102a.394.394 0 0 0-.023-.19c-.043-.102-.098-.185-.133-.274a.56.56 0 0 1-.05-.274.376.376 0 0 1 .066-.21.321.321 0 0 1 .175-.122.512.512 0 0 1 .23.04c.08.023.142.054.142.054l.066.035-.012-.082c-.039-.27-.074-.406 0-.66.031-.102.082-.219.172-.352.043-.062.09-.14.145-.21.144.171.242.347.297.527.062.195.062.453.05.664l-.004.082.063-.043s.074-.05.164-.098a.672.672 0 0 1 .25-.082c.09.008.148.055.203.133.05.066.059.125.07.219.008.058-.007.168-.02.238-.007.082-.05.172-.066.277-.003.035-.011.063-.02.098a.283.283 0 0 0-.007.117c.008.035.016.059.027.098l-.05-.028c-.043-.035-.059-.093-.086-.167a.289.289 0 0 1-.02-.114c-.004-.043-.004-.09-.023-.144-.035-.09-.074-.2-.16-.266a.264.264 0 0 0-.25-.043.189.189 0 0 0-.11.086c-.027.035-.043.078-.058.121a.71.71 0 0 0-.047.2c-.012.07-.02.128-.02.128v.012l.051.191h.023Zm3.035-.7v-.054l.047.012c.223.062.395.144.535.234.18.113.313.242.454.367l.023-1.426c-.121.141-.23.293-.395.415a1.514 1.514 0 0 1-.62.257l-.055.004.011-.058c.032-.16.032-.27.106-.461.07-.18.223-.442.52-.88-.258-.03-.481-.066-.817-.066-.336 0-.559.036-.816.067.296.437.449.699.52.879.073.191.073.3.105.46l.011.06-.054-.005a1.514 1.514 0 0 1-.621-.257c-.165-.122-.274-.27-.395-.41l.023 1.417c.141-.12.274-.25.454-.363.14-.09.308-.172.53-.234l.052-.012v.055l-.079.058c-.19.059-.34.13-.464.207-.196.125-.34.274-.504.414l-.067.055v-.086l-.023-1.625-.004-.11.07.079c.157.168.27.351.45.484.113.082.332.192.53.23-.023-.128-.03-.23-.09-.382-.07-.18-.218-.442-.546-.926l-.043-.059.07-.007c.286-.032.52-.075.891-.075s.605.043.89.075l.07.008-.042.058c-.328.484-.477.746-.547.926-.058.152-.066.254-.09.383.2-.04.418-.149.528-.23.18-.134.296-.317.453-.485l.07-.078-.004.11-.023 1.624v.086l-.067-.055c-.168-.14-.308-.289-.504-.414a1.813 1.813 0 0 0-.46-.203Zm0 0" style="stroke:none;fill-rule:nonzero;fill:#000;fill-opacity:1"/><path d="M-272.646 1095.445s-4.917 7.582-8 10.212c-4.167 3.637-7 5.803-12.418 7.505-5.416 1.702-12.917 2.63-18.584 2.32-5.5-.309-11.084-1.856-16.084-4.254-4.25-2.09-11.084-8.124-11.084-8.124-3.333 4.333-7.584 7.35-11.584 9.594-5.167 2.862-10.25 3.094-15.584 2.785-10.834-.542-21.001-7.35-29.168-21.121-5.25-12.457-11.334-25.068-18.918-38.375 8.75-3.017 18.918-4.72 30.252-5.26-4.584 12.92-9.417 25.53-7.667 35.975 9.417-7.118 12.5-16.789 15.75-26.382l11.084 38.838c-6.75-1.16-3.166-2.553-20.75-5.88 3.5 6.654 11.583 14.855 20.5 15.629 5.917.541 10.251-1.316 14.085-4.565 2.75-2.398 5.25-5.493 5.166-9.052v-6.035c-.083-1.315-1.666-3.172-2.916-3.172s-1.584 2.012-1.917 3.172c-.667 2.399.667 5.03 0 7.428-.75 2.63-2.167 4.719-4.5 6.112-1.917 1.238-6.584 1.547-6.584 1.547l1.5-5.725c1.083-4.1-2.833-7.195-3.833-11.296-.584-2.553-.917-5.493 0-8.046 1.083-2.708 3.083-5.339 5.75-6.576 1-.387 2.167-.465 3.167-.387 1.5.077 4.5 1.083 4.5 1.083s-.834-4.1-.667-6.576c.25-3.018 2.834-8.588 4.25-11.296 2.417-4.41 6.167-8.356 6.584-8.743.417.387 4.5 4.178 7.25 8.433 1.584 2.554 3.25 6.267 3.667 9.207.417 2.476.25 7.66.25 7.66s4.417-1.78 5.917-2.012c1-.155 2.167-.155 3.167.232 2.75 1.006 5 3.482 6.167 6.112 1.083 2.476 1 5.416.583 8.046-.666 4.178-3.083 7.35-1.75 11.296l1.834 5.57s-4.667.078-6.667-1.005c-2.417-1.238-3.917-3.25-4.834-5.803-.833-2.32-.333-5.183-1.833-7.195-.584-.928-1.5-1.857-2.75-1.78-1.25.078-2.167 2.244-2.25 3.56l-.167 5.415c-.084 1.702.667 3.404 1.583 4.797 2.167 3.327 5.417 5.338 9.167 6.808 3.917 1.625 7.584 2.244 11.834 2.321 3.667 0 9.917-.541 13.334-1.702 4.167-1.47 6.667-3.25 9.918-6.266 1.833-1.702 3-4.178 3.833-6.5.917-2.785.583-7.427.583-7.427-4.166 1.548-7.833 3.714-11.083 6.19-3.667 2.785-6.918 6.035-10.001 9.516l-.333-46.885c4.417 4.797 7.583 9.052 11.917 12.689 3.667 3.017 5.5 4.177 9.167 5.415-1-3.79-1.333-6.112-4.083-9.825-3.75-5.261-7.418-10.91-11.918-16.093 8.334-1.393 16.668-1.78 25.168-1.78s16.834.387 25.168 1.78c-4.5 5.184-8.167 10.832-11.917 16.093-2.75 3.713-3.084 6.034-4.084 9.825 3.667-1.238 5.5-2.398 9.167-5.415 4.334-3.637 7.5-7.892 11.918-12.689l-.334 46.885c-3.083-3.481-6.333-6.73-10-9.516-3.25-2.476-6.917-4.642-11.084-6.19 0 0-.333 4.642.583 7.428.834 2.32 2 4.797 3.834 6.499 3.25 3.017 5.75 4.796 9.917 6.266 3.417 1.16 9.667 1.702 13.334 1.702 4.25-.077 7.917-.696 11.834-2.32 3.75-1.47 7-3.482 9.167-6.809.917-1.393 1.667-3.095 1.584-4.797l-.167-5.415c-.083-1.316-1-3.482-2.25-3.56-1.25-.077-2.167.852-2.75 1.78-1.5 2.012-1 4.874-1.834 7.195-.917 2.553-2.417 4.565-4.833 5.803-2 1.083-6.667 1.006-6.667 1.006l1.833-5.57c1.333-3.947-1.083-7.119-1.75-11.297-.417-2.63-.5-5.57.583-8.046 1.167-2.63 3.417-5.106 6.167-6.112 1-.387 2.167-.387 3.167-.232 1.5.232 5.917 2.012 5.917 2.012s-.167-5.184.25-7.66c.417-2.94 2.084-6.653 3.667-9.207 2.75-4.255 6.834-8.046 7.25-8.433.417.387 4.167 4.333 6.584 8.743 1.417 2.708 4 8.278 4.25 11.296.167 2.475-.666 6.576-.666 6.576s3-1.006 4.5-1.083c1-.078 2.167 0 3.167.387 2.666 1.237 4.666 3.868 5.75 6.576.917 2.553.583 5.493 0 8.046-1 4.1-4.917 7.195-3.834 11.296l1.5 5.725s-4.666-.31-6.583-1.547c-2.334-1.393-3.75-3.482-4.5-6.112-.667-2.399.666-5.03 0-7.428-.334-1.16-.667-3.172-1.917-3.172s-2.834 1.857-2.917 3.172v6.035c-.083 3.559 2.417 6.654 5.167 9.052 3.833 3.25 8.167 5.106 14.084 4.565 8.917-.774 17-8.975 20.501-15.629-17.584 3.327-14 4.72-20.751 5.88l11.084-38.838c3.25 9.593 6.333 19.264 15.75 26.382 1.75-10.445-3.083-23.055-7.666-35.976 11.333.542 21.5 2.244 30.251 5.261-7.584 13.307-13.667 25.918-18.918 38.375-8.167 13.771-18.334 20.58-29.168 21.12-5.333.31-10.417.078-15.584-2.784-4-2.244-8.25-5.261-11.584-9.594 0 0-6.833 6.035-11.084 8.124-5 2.398-10.584 3.945-16.084 4.255-5.667.31-13.167-.619-18.584-2.321-5.417-1.702-8.25-3.868-12.417-7.505-3.084-2.63-8-10.212-8-10.212Zm0 0" style="fill:none;stroke-width:1.176461;stroke-linecap:butt;stroke-linejoin:miter;stroke:#000;stroke-opacity:1;stroke-miterlimit:4" transform="matrix(.04687 0 0 .05049 125.28 -16.047)"/><path d="M2700.175 784.99c0 3.804-1.936 7.398-5.237 9.3-3.188 1.902-7.286 1.902-10.474 0-3.301-1.902-5.236-5.496-5.236-9.3 0-3.805 1.935-7.293 5.236-9.195 3.188-1.903 7.286-1.903 10.474 0 3.301 1.902 5.237 5.39 5.237 9.194Zm0 0" style="fill-rule:nonzero;fill:#fff;fill-opacity:1;stroke-width:1.607078;stroke-linecap:butt;stroke-linejoin:miter;stroke:#000;stroke-opacity:1;stroke-miterlimit:4" transform="matrix(.03431 0 0 .03696 20.208 9.451)"/><path d="M2700.144 785.016c0 3.805-1.935 7.398-5.237 9.3-3.187 1.903-7.172 1.903-10.473 0-3.187-1.902-5.237-5.495-5.237-9.3 0-3.804 2.05-7.292 5.237-9.194 3.301-1.903 7.286-1.903 10.473 0 3.302 1.902 5.237 5.39 5.237 9.194Zm0 0" style="fill-rule:nonzero;fill:#fff;fill-opacity:1;stroke-width:1.607078;stroke-linecap:butt;stroke-linejoin:miter;stroke:#000;stroke-opacity:1;stroke-miterlimit:4" transform="matrix(.03431 0 0 .03696 14.514 9.993)"/><path d="M2700.144 785.016c0 3.805-1.935 7.398-5.237 9.3-3.187 1.903-7.172 1.903-10.473 0-3.187-1.902-5.237-5.495-5.237-9.3 0-3.804 2.05-7.292 5.237-9.194 3.301-1.903 7.286-1.903 10.473 0 3.302 1.902 5.237 5.39 5.237 9.194Zm0 0" style="fill-rule:nonzero;fill:#fff;fill-opacity:1;stroke-width:1.607078;stroke-linecap:butt;stroke-linejoin:miter;stroke:#000;stroke-opacity:1;stroke-miterlimit:4" transform="matrix(-.03431 0 0 .03696 210.486 9.993)"/><path d="m-346.432 1090.678 16.855.062 2.217 3.762-2.211 3.832-16.86.015-2.711-3.867Zm0 0" style="fill-rule:nonzero;fill:#ffc72c;fill-opacity:1;stroke-width:1.176461;stroke-linecap:butt;stroke-linejoin:miter;stroke:#000;stroke-opacity:1;stroke-miterlimit:4" transform="matrix(.0468 -.00274 .00254 .05042 122.48 -16.888)"/><path d="m115.965 39.047-.79-.043-.112.184.093.199.79.047.136-.188Zm0 0" style="stroke:none;fill-rule:nonzero;fill:#f6e078;fill-opacity:1"/><path d="m-346.432 1090.678 16.855.062 2.217 3.762-2.211 3.832-16.86.015-2.711-3.867Zm0 0" style="fill-rule:nonzero;fill:#ffc72c;fill-opacity:1;stroke-width:1.176461;stroke-linecap:butt;stroke-linejoin:miter;stroke:#000;stroke-opacity:1;stroke-miterlimit:4" transform="matrix(-.0468 -.00274 -.00254 .05042 102.52 -16.888)"/><path d="M107.504 42.355s.566-.042 1.562-.101a48.246 48.246 0 0 1 2.606-.094h1.66c.527 0 1.617.031 2.606.094.988.059 1.546.11 1.546.11l.348-1.669s-3.547-.343-5.332-.343c-1.781 0-5.332.343-5.332.343Zm0 0" style="stroke:none;fill-rule:evenodd;fill:#ffc72c;fill-opacity:1"/><path d="M496.466 341.741c38.085 0 76.087 2.012 113.923 6.19l-6.917 33.345c-37.67-3.404-68.504-4.255-106.506-4.565m.5-34.97c-38.085 0-76.087 2.012-113.922 6.19l6.917 33.345c37.668-3.404 68.503-4.255 106.505-4.565" style="fill:none;stroke-width:1.176461;stroke-linecap:butt;stroke-linejoin:miter;stroke:#000;stroke-opacity:1;stroke-miterlimit:4" transform="matrix(.04687 0 0 .05049 89.206 23.117)"/><path d="M-644.358 561.755c-13.435 1.3-28.848 2.699-42.366 5.099-1.896 2.999-2.06 5.698 1.401 7.898 12.94-2.4 28.272-3.8 41.625-5 18.133-1.399 36.432-2.199 54.648-2.499h35.03c10.963 0 33.96.9 54.73 2.5 20.607 1.6 41.625 4.999 41.625 4.999 3.627-2.4 3.215-5.1 1.319-7.898 0 0-21.266-3.4-42.367-5.1-20.935-1.6-43.932-2.499-55.307-2.499h-35.03c-18.464.1-36.844 1.2-55.308 2.5Zm0 0" style="fill-rule:nonzero;fill:#ffc72c;fill-opacity:1;stroke-width:1.330036;stroke-linecap:butt;stroke-linejoin:miter;stroke:#000;stroke-opacity:1;stroke-miterlimit:4" transform="matrix(.0474 0 0 .03907 139.584 18.462)"/><path d="M109.29 42.148c-.59.051-1.274.102-1.868.196-.082.117-.09.222.062.308.57-.09 1.246-.144 1.832-.195.801-.05 1.61-.086 2.41-.094h1.544c.48 0 1.496.032 2.41.098.91.062 1.836.191 1.836.191.16-.093.144-.199.058-.308 0 0-.937-.133-1.867-.196a39.43 39.43 0 0 0-2.437-.097h-1.543c-.813 0-1.625.047-2.438.097Zm0 0" style="stroke:none;fill-rule:nonzero;fill:#ffc72c;fill-opacity:1"/><path d="M-644.361 561.807c-13.386 1.3-28.899 2.6-42.373 4.999-1.862 3-2.039 5.699 1.418 7.898 12.943-2.3 28.279-3.699 41.575-4.999 18.173-1.3 36.523-1.7 54.695-2h35.016c10.903 0 33.951.4 54.694 2.1 20.655 1.6 41.664 4.9 41.664 4.9 3.635-2.4 3.28-5.1 1.33-7.9 0 0-21.275-3.398-42.373-4.998-20.92-1.7-43.969-2.1-55.315-2.1h-35.016c-18.438.1-36.877.8-55.315 2.1Zm0 0" style="fill:none;stroke-width:1.379316;stroke-linecap:butt;stroke-linejoin:miter;stroke:#000;stroke-opacity:1;stroke-miterlimit:4" transform="matrix(.04407 0 0 .03907 137.683 20.198)"/><path d="M2843.134 823.62h83.414c1.649 0 2.967 1.2 2.967 3v53.189c0 1.6-1.318 3-2.967 3h-83.414c-1.649 0-2.967-1.4-2.967-3v-53.19c0-1.8 1.318-3 2.967-3Zm0 0" style="fill:none;stroke-width:2.660071;stroke-linecap:butt;stroke-linejoin:miter;stroke:#000;stroke-opacity:1;stroke-miterlimit:4" transform="matrix(.0237 0 0 .01954 44.142 24.66)"/><path d="M2854.838 831.418h60.006c2.802 0 5.11 2.2 5.11 5v33.393c0 2.8-2.308 5.199-5.11 5.199h-60.006c-2.802 0-5.11-2.4-5.11-5.2v-33.393c0-2.8 2.308-4.999 5.11-4.999Zm0 0" style="fill-rule:evenodd;fill:#00247d;fill-opacity:1;stroke-width:2.660071;stroke-linecap:butt;stroke-linejoin:miter;stroke:#a0892c;stroke-opacity:1;stroke-miterlimit:4" transform="matrix(.0237 0 0 .01954 44.142 24.66)"/><path d="M2918.47 873.41c-.989 1-2.308 1.6-3.626 1.6h-60.006c-1.319 0-2.637-.6-3.626-1.6-.99-.8-1.484-2.2-1.484-3.6v-33.393c0-1.4.494-2.6 1.484-3.599.989-1 68.247 39.792 67.258 40.592Zm0 0" style="fill-rule:evenodd;fill:#2b96f6;fill-opacity:1;stroke-width:2.660071;stroke-linecap:butt;stroke-linejoin:miter;stroke:#a0892c;stroke-opacity:1;stroke-miterlimit:4" transform="matrix(.0237 0 0 .01954 44.142 24.66)"/><path d="M2918.47 873.41c-.989 1-2.308 1.6-3.626 1.6h-60.006c-1.319 0-2.637-.6-3.626-1.6-.99-.8-1.484-2.2-1.484-3.6v-33.393c0-1.4.494-2.6 1.484-3.599.494-.4 17.968 9.798 35.113 20.196 16.485 9.998 32.64 19.996 32.145 20.396Zm0 0" style="fill-rule:evenodd;fill:#012169;fill-opacity:1;stroke-width:2.660071;stroke-linecap:butt;stroke-linejoin:miter;stroke:#000;stroke-opacity:1;stroke-miterlimit:4" transform="matrix(.0237 0 0 .01954 44.142 24.66)"/><path d="M2918.47 832.818c.99 1 1.484 2.2 1.484 3.6v33.393c0 1.4-.495 2.8-1.484 3.599-.989 1-2.308 1.6-3.626 1.6h-60.006c-1.319 0-2.637-.6-3.626-1.6-.99-.8 66.27-41.592 67.258-40.592Zm0 0" style="fill-rule:evenodd;fill:#012169;fill-opacity:1;stroke-width:2.660071;stroke-linecap:butt;stroke-linejoin:miter;stroke:#000;stroke-opacity:1;stroke-miterlimit:4" transform="matrix(.0237 0 0 .01954 44.142 24.66)"/><path d="M2918.47 873.41c-.989 1-2.308 1.6-3.626 1.6h-60.006c-1.319 0-2.637-.6-3.626-1.6-.495-.4 16.65-11.198 33.629-21.396 0 0 34.618 20.596 33.63 21.396Zm0 0" style="fill-rule:evenodd;fill:#012169;fill-opacity:1;stroke-width:2.660071;stroke-linecap:butt;stroke-linejoin:miter;stroke:#000;stroke-opacity:1;stroke-miterlimit:4" transform="matrix(.0237 0 0 .01954 44.142 24.66)"/><path d="M2854.838 831.418h60.006c2.802 0 5.11 2.2 5.11 5v33.393c0 2.8-2.308 5.199-5.11 5.199h-60.006c-2.802 0-5.11-2.4-5.11-5.2v-33.393c0-2.8 2.308-4.999 5.11-4.999Zm0 0" style="fill:none;stroke-width:2.660071;stroke-linecap:butt;stroke-linejoin:miter;stroke:#000;stroke-opacity:1;stroke-miterlimit:4" transform="matrix(.0237 0 0 .01954 44.142 24.66)"/><path d="M2865.224 841.216h39.234v22.396h-39.234Zm0 0" style="fill-rule:evenodd;fill:#012169;fill-opacity:1;stroke-width:2.660071;stroke-linecap:butt;stroke-linejoin:miter;stroke:#000;stroke-opacity:1;stroke-miterlimit:4" transform="matrix(.0237 0 0 .01954 44.142 24.66)"/><path d="m505.452 340.175 14.237.066c5.975-.044 10.796 4.808 10.733 10.727l.019 1.107c.016 6.029-4.78 10.823-10.74 10.767l-14.253.033c-5.975.044-10.796-4.808-10.828-10.738l-.003-1.205c.063-5.92 4.86-10.714 10.835-10.757Zm0 0" style="fill-rule:evenodd;fill:#ffc72c;fill-opacity:1;stroke-width:1.428384;stroke-linecap:butt;stroke-linejoin:miter;stroke:#000;stroke-opacity:1;stroke-miterlimit:4" transform="matrix(.04058 -.0043 .00637 .03889 86.705 29.918)"/><path d="m505.838 343.231 13.37.07c4.62.008 8.287 3.628 8.33 8.253a8.288 8.288 0 0 1-8.318 8.222l-13.386.028c-4.525.003-8.271-3.726-8.236-8.242-.043-4.625 3.715-8.328 8.24-8.33Zm0 0" style="fill-rule:evenodd;fill:#4a7729;fill-opacity:1;stroke-width:1.428384;stroke-linecap:butt;stroke-linejoin:miter;stroke:#000;stroke-opacity:1;stroke-miterlimit:4" transform="matrix(.04058 -.0043 .00637 .03889 86.705 29.918)"/><path d="m626.217 310.89-23.704-12.77 23.685-12.113 2.895 13.156Zm0 0" style="fill-rule:nonzero;fill:#ffc72c;fill-opacity:1;stroke-width:1.361212;stroke-linecap:butt;stroke-linejoin:miter;stroke:#000;stroke-opacity:1;stroke-miterlimit:4" transform="matrix(-.03835 .00721 .00725 .04473 129.135 23.741)"/><path d="m107.352 42.012.593-.54-.722-.269-.157.426Zm0 0" style="stroke:none;fill-rule:nonzero;fill:#e4002b;fill-opacity:1"/><path d="m107.352 42.012.593-.54-.87.157Zm0 0" style="stroke:none;fill-rule:nonzero;fill:#e4002b;fill-opacity:1"/><path d="m452.4 250.553 22.915-.026" style="fill:none;stroke-width:1.361212;stroke-linecap:butt;stroke-linejoin:miter;stroke:#000;stroke-opacity:1;stroke-miterlimit:4" transform="matrix(-.03835 .00721 .00725 .04473 123.478 26.998)"/><path d="m626.185 307.49-17.236-9.272 17.182-8.794 5.866 8.397Zm0 0" style="fill:none;stroke-width:1.361212;stroke-linecap:butt;stroke-linejoin:miter;stroke:#000;stroke-opacity:1;stroke-miterlimit:4" transform="matrix(-.03835 .00721 .00725 .04473 129.135 23.741)"/><path d="M2700.087 785.002c0 3.82-1.829 7.429-5.03 9.34-3.43 1.91-7.316 1.91-10.517 0-3.43-1.911-5.258-5.52-5.258-9.34 0-3.82 1.829-7.217 5.258-9.127 3.201-1.91 7.088-1.91 10.517 0 3.201 1.91 5.03 5.306 5.03 9.127Zm0 0" style="fill-rule:nonzero;fill:#fff;fill-opacity:1;stroke-width:3.227603;stroke-linecap:butt;stroke-linejoin:miter;stroke:#000;stroke-opacity:1;stroke-miterlimit:4" transform="matrix(.01709 0 0 .0184 64.974 26.58)"/><path d="M2700.229 785.1c0 3.82-2.058 7.216-5.259 9.126-3.2 1.91-7.316 1.91-10.517 0-3.2-1.91-5.259-5.306-5.259-9.127 0-3.82 2.058-7.429 5.259-9.34 3.2-1.91 7.316-1.91 10.517 0 3.201 1.911 5.259 5.52 5.259 9.34Zm0 0" style="fill-rule:nonzero;fill:#fff;fill-opacity:1;stroke-width:3.225799;stroke-linecap:butt;stroke-linejoin:miter;stroke:#000;stroke-opacity:1;stroke-miterlimit:4" transform="matrix(.01709 0 0 .0184 65.011 27.196)"/><path d="M2700.133 784.926c0 3.821-1.83 7.43-5.259 9.34-3.2 1.91-7.088 1.91-10.517 0-3.201-1.91-5.259-5.519-5.03-9.34-.229-3.608 1.829-7.216 5.03-9.127 3.43-1.91 7.316-1.91 10.517 0 3.43 1.91 5.259 5.519 5.259 9.127Zm0 0" style="fill-rule:nonzero;fill:#fff;fill-opacity:1;stroke-width:3.227603;stroke-linecap:butt;stroke-linejoin:miter;stroke:#000;stroke-opacity:1;stroke-miterlimit:4" transform="matrix(.01709 0 0 .0184 62.563 26.723)"/><path d="M2700.274 785.024c0 3.82-2.057 7.429-5.258 9.339-3.201 1.91-7.317 1.91-10.518 0-3.2-1.91-5.258-5.519-5.258-9.34 0-3.82 2.058-7.428 5.258-9.339 3.201-1.91 7.317-1.91 10.518 0 3.2 1.91 5.258 5.519 5.258 9.34Zm0 0" style="fill-rule:nonzero;fill:#fff;fill-opacity:1;stroke-width:3.227603;stroke-linecap:butt;stroke-linejoin:miter;stroke:#000;stroke-opacity:1;stroke-miterlimit:4" transform="matrix(.01709 0 0 .0184 62.6 27.338)"/><path d="m505.452 340.175 14.237.066c5.975-.044 10.796 4.808 10.733 10.727l.019 1.107c.016 6.029-4.78 10.823-10.74 10.767l-14.253.033c-5.975.044-10.796-4.808-10.828-10.738l-.003-1.205c.063-5.92 4.86-10.714 10.835-10.757Zm0 0" style="fill-rule:evenodd;fill:#ffc72c;fill-opacity:1;stroke-width:1.428384;stroke-linecap:butt;stroke-linejoin:miter;stroke:#000;stroke-opacity:1;stroke-miterlimit:4" transform="matrix(-.04058 -.0043 -.00637 .03889 138.295 29.918)"/><path d="m505.838 343.231 13.37.07c4.62.008 8.287 3.628 8.33 8.253a8.288 8.288 0 0 1-8.318 8.222l-13.386.028c-4.525.003-8.271-3.726-8.236-8.242-.043-4.625 3.715-8.328 8.24-8.33Zm0 0" style="fill-rule:evenodd;fill:#4a7729;fill-opacity:1;stroke-width:1.428384;stroke-linecap:butt;stroke-linejoin:miter;stroke:#000;stroke-opacity:1;stroke-miterlimit:4" transform="matrix(-.04058 -.0043 -.00637 .03889 138.295 29.918)"/><path d="m626.217 310.89-23.704-12.77 23.685-12.113 2.895 13.156Zm0 0" style="fill-rule:nonzero;fill:#ffc72c;fill-opacity:1;stroke-width:1.361212;stroke-linecap:butt;stroke-linejoin:miter;stroke:#000;stroke-opacity:1;stroke-miterlimit:4" transform="matrix(.03835 .00721 -.00725 .04473 95.865 23.741)"/><path d="m117.648 42.012-.593-.54.722-.269.157.426Zm0 0" style="stroke:none;fill-rule:nonzero;fill:#e4002b;fill-opacity:1"/><path d="m117.648 42.012-.593-.54.87.157Zm0 0" style="stroke:none;fill-rule:nonzero;fill:#e4002b;fill-opacity:1"/><path d="m452.4 250.553 22.915-.026" style="fill:none;stroke-width:1.361212;stroke-linecap:butt;stroke-linejoin:miter;stroke:#000;stroke-opacity:1;stroke-miterlimit:4" transform="matrix(.03835 .00721 -.00725 .04473 101.522 26.998)"/><path d="m626.185 307.49-17.236-9.272 17.182-8.794 5.866 8.397Zm0 0" style="fill:none;stroke-width:1.361212;stroke-linecap:butt;stroke-linejoin:miter;stroke:#000;stroke-opacity:1;stroke-miterlimit:4" transform="matrix(.03835 .00721 -.00725 .04473 95.865 23.741)"/><path d="M2700.087 785.002c0 3.82-1.829 7.429-5.03 9.34-3.43 1.91-7.316 1.91-10.517 0-3.43-1.911-5.258-5.52-5.258-9.34 0-3.82 1.829-7.217 5.258-9.127 3.201-1.91 7.088-1.91 10.517 0 3.201 1.91 5.03 5.306 5.03 9.127Zm0 0" style="fill-rule:nonzero;fill:#fff;fill-opacity:1;stroke-width:3.227603;stroke-linecap:butt;stroke-linejoin:miter;stroke:#000;stroke-opacity:1;stroke-miterlimit:4" transform="matrix(-.01709 0 0 .0184 160.026 26.58)"/><path d="M2700.229 785.1c0 3.82-2.058 7.216-5.259 9.126-3.2 1.91-7.316 1.91-10.517 0-3.2-1.91-5.259-5.306-5.259-9.127 0-3.82 2.058-7.429 5.26-9.34 3.2-1.91 7.315-1.91 10.516 0 3.201 1.911 5.259 5.52 5.259 9.34Zm0 0" style="fill-rule:nonzero;fill:#fff;fill-opacity:1;stroke-width:3.227603;stroke-linecap:butt;stroke-linejoin:miter;stroke:#000;stroke-opacity:1;stroke-miterlimit:4" transform="matrix(-.01709 0 0 .0184 159.989 27.196)"/><path d="M2700.133 784.926c0 3.821-1.83 7.43-5.259 9.34-3.2 1.91-7.088 1.91-10.517 0-3.2-1.91-5.259-5.519-5.03-9.34-.229-3.608 1.83-7.216 5.03-9.127 3.43-1.91 7.316-1.91 10.517 0 3.43 1.91 5.259 5.519 5.259 9.127Zm0 0" style="fill-rule:nonzero;fill:#fff;fill-opacity:1;stroke-width:3.227603;stroke-linecap:butt;stroke-linejoin:miter;stroke:#000;stroke-opacity:1;stroke-miterlimit:4" transform="matrix(-.01709 0 0 .0184 162.437 26.723)"/><path d="M2700.274 785.024c0 3.82-2.057 7.429-5.258 9.339-3.201 1.91-7.317 1.91-10.518 0-3.2-1.91-5.258-5.519-5.258-9.34 0-3.82 2.058-7.428 5.258-9.339 3.201-1.91 7.317-1.91 10.518 0 3.2 1.91 5.258 5.519 5.258 9.34Zm0 0" style="fill-rule:nonzero;fill:#fff;fill-opacity:1;stroke-width:3.227603;stroke-linecap:butt;stroke-linejoin:miter;stroke:#000;stroke-opacity:1;stroke-miterlimit:4" transform="matrix(-.01709 0 0 .0184 162.4 27.338)"/></svg>