<svg xmlns="http://www.w3.org/2000/svg" width="150" height="150" viewBox="0 0 150 75"><path d="M0 0h150v75H0z" style="fill:#c75b12;fill-opacity:1;stroke:none"/><path d="M0 0h50v75H0Zm0 0" style="stroke:none;fill-rule:nonzero;fill:#000;fill-opacity:1"/><path d="m25 50.625 2.262 5.625L25 61.875l-2.262-5.625Zm0 0" style="stroke:none;fill-rule:nonzero;fill:#fff;fill-opacity:1"/><path d="M30.625 56.25 25 58.512l-5.625-2.262L25 53.988Zm0 0" style="stroke:none;fill-rule:nonzero;fill:#fff;fill-opacity:1"/><path d="m28.977 52.273-2.375 5.579-5.579 2.375 2.375-5.579Zm0 0" style="stroke:none;fill-rule:nonzero;fill:#fff;fill-opacity:1"/><path d="m28.977 60.227-5.579-2.375-2.375-5.579 5.579 2.375ZM10.125 29.438l1.3 2.359 2.657-.453-1.031 2.488 2.011 1.793-2.593.746-.149 2.691-2.195-1.562-2.195 1.563-.149-2.692-2.593-.746 2.011-1.793-1.031-2.488 2.656.453ZM25 13.688l1.3 2.359 2.657-.453-1.031 2.488 2.012 1.793-2.594.746-.149 2.692L25 21.75l-2.195 1.563-.149-2.692-2.593-.746 2.011-1.793-1.031-2.488 2.656.453ZM38.25 27l1.5 1.902v5.196L38.25 36l-1.5-1.902v-5.196Zm0 0" style="stroke:none;fill-rule:nonzero;fill:#fff;fill-opacity:1"/><path d="m42.148 29.25-.898 2.25-4.5 2.598-2.398-.348.898-2.25 4.5-2.598Zm0 0" style="stroke:none;fill-rule:nonzero;fill:#fff;fill-opacity:1"/><path d="m42.148 33.75-2.398.348-4.5-2.598-.898-2.25 2.398-.348 4.5 2.598ZM30.75 36l.992 1.637 1.86.437-1.247 1.446.157 1.906-1.762-.739-1.762.739.157-1.906-1.247-1.446 1.86-.437Zm0 0" style="stroke:none;fill-rule:nonzero;fill:#fff;fill-opacity:1"/><path d="M95.988 29.168A4.87 4.87 0 0 0 100 31.5a4.87 4.87 0 0 0 4.012-2.332L100 39Zm0 0" style="stroke:none;fill-rule:nonzero;fill:#000;fill-opacity:1"/><path d="M100 18.75a9.272 9.272 0 0 1 3.188.75 3.603 3.603 0 0 1 2.062 3.25 10.867 10.867 0 0 1-.75 4 6.31 6.31 0 0 1-3.375 3.715c-.348.18-.734.273-1.125.285a2.622 2.622 0 0 1-1.125-.285A6.31 6.31 0 0 1 95.5 26.75a10.867 10.867 0 0 1-.75-4 3.603 3.603 0 0 1 2.063-3.25 9.272 9.272 0 0 1 3.187-.75Zm0 0" style="stroke:none;fill-rule:nonzero;fill:#fff;fill-opacity:1"/><path d="M104.012 29.168a4.871 4.871 0 0 0 .68 4.59 4.865 4.865 0 0 0 4.324 1.683l-10.188 2.993Zm0 0" style="stroke:none;fill-rule:nonzero;fill:#000;fill-opacity:1"/><path d="M114.66 25.809a9.286 9.286 0 0 1 1.399 2.96 3.595 3.595 0 0 1-1.254 3.637 10.843 10.843 0 0 1-3.594 1.91 6.3 6.3 0 0 1-5.008-.324 2.596 2.596 0 0 1-.926-.699 2.661 2.661 0 0 1-.48-1.059 6.314 6.314 0 0 1 .8-4.957 10.982 10.982 0 0 1 2.66-3.078 3.598 3.598 0 0 1 3.829-.414 9.312 9.312 0 0 1 2.574 2.024Zm0 0" style="stroke:none;fill-rule:nonzero;fill:#fff;fill-opacity:1"/><path d="M109.016 35.441a4.888 4.888 0 0 0-3.168 3.395 4.876 4.876 0 0 0 1.382 4.43l-8.69-6.098Zm0 0" style="stroke:none;fill-rule:nonzero;fill:#000;fill-opacity:1"/><path d="M118.281 41.672a9.378 9.378 0 0 1-1.441 2.941 3.61 3.61 0 0 1-3.63 1.29 10.792 10.792 0 0 1-3.73-1.626 6.285 6.285 0 0 1-2.87-4.113 2.587 2.587 0 0 1-.028-1.16c.094-.383.277-.734.527-1.035a6.305 6.305 0 0 1 4.371-2.465 10.873 10.873 0 0 1 4.067.16 3.604 3.604 0 0 1 2.71 2.734c.2 1.082.208 2.192.024 3.274Zm0 0" style="stroke:none;fill-rule:nonzero;fill:#fff;fill-opacity:1"/><path d="M107.23 43.266a4.879 4.879 0 0 0-4.628-.36 4.88 4.88 0 0 0-2.602 3.84l-.652-10.598Zm0 0" style="stroke:none;fill-rule:nonzero;fill:#000;fill-opacity:1"/><path d="M108.137 54.395a9.373 9.373 0 0 1-3.2.707 3.605 3.605 0 0 1-3.269-2.036 10.904 10.904 0 0 1-1.059-3.93 6.299 6.299 0 0 1 1.43-4.808c.238-.312.543-.566.89-.746.356-.16.747-.242 1.137-.23a6.28 6.28 0 0 1 4.653 1.882c1.004.93 1.82 2.043 2.41 3.278a3.603 3.603 0 0 1-.445 3.824 9.462 9.462 0 0 1-2.547 2.059Zm0 0" style="stroke:none;fill-rule:nonzero;fill:#fff;fill-opacity:1"/><path d="M100 46.746a4.88 4.88 0 0 0-2.602-3.84 4.879 4.879 0 0 0-4.628.36l7.882-7.118Zm0 0" style="stroke:none;fill-rule:nonzero;fill:#000;fill-opacity:1"/><path d="M91.863 54.395a9.462 9.462 0 0 1-2.547-2.06 3.603 3.603 0 0 1-.445-3.823 10.827 10.827 0 0 1 2.41-3.278 6.28 6.28 0 0 1 4.653-1.882c.39-.012.78.07 1.136.23.348.18.653.434.89.746a6.299 6.299 0 0 1 1.43 4.809 10.904 10.904 0 0 1-1.058 3.93 3.605 3.605 0 0 1-3.27 2.035 9.373 9.373 0 0 1-3.199-.707Zm0 0" style="stroke:none;fill-rule:nonzero;fill:#fff;fill-opacity:1"/><path d="M92.77 43.266a4.876 4.876 0 0 0 1.382-4.43 4.888 4.888 0 0 0-3.168-3.395l10.477 1.727Zm0 0" style="stroke:none;fill-rule:nonzero;fill:#000;fill-opacity:1"/><path d="M81.719 41.672a9.403 9.403 0 0 1 .023-3.274 3.604 3.604 0 0 1 2.711-2.734 10.873 10.873 0 0 1 4.067-.16 6.305 6.305 0 0 1 4.37 2.465c.25.3.434.652.528 1.035.078.383.07.777-.027 1.16a6.285 6.285 0 0 1-2.871 4.113 10.792 10.792 0 0 1-3.73 1.625 3.61 3.61 0 0 1-3.63-1.289 9.378 9.378 0 0 1-1.441-2.941Zm0 0" style="stroke:none;fill-rule:nonzero;fill:#fff;fill-opacity:1"/><path d="M90.984 35.441a4.865 4.865 0 0 0 4.325-1.683 4.871 4.871 0 0 0 .68-4.59l5.183 9.266Zm0 0" style="stroke:none;fill-rule:nonzero;fill:#000;fill-opacity:1"/><path d="M85.34 25.809a9.312 9.312 0 0 1 2.574-2.024 3.598 3.598 0 0 1 3.828.414 10.982 10.982 0 0 1 2.66 3.078 6.314 6.314 0 0 1 .801 4.957 2.661 2.661 0 0 1-.48 1.059c-.25.297-.567.539-.926.7a6.3 6.3 0 0 1-5.008.323 10.843 10.843 0 0 1-3.594-1.91 3.595 3.595 0 0 1-1.254-3.636 9.286 9.286 0 0 1 1.399-2.961Zm0 0" style="stroke:none;fill-rule:nonzero;fill:#fff;fill-opacity:1"/></svg>