<svg xmlns="http://www.w3.org/2000/svg" width="150" height="150" viewBox="0 0 150 75"><defs><clipPath id="a"><path d="M0 0h75v37.5H0Zm0 0"/></clipPath><clipPath id="b"><path d="M0 0h75v38H0Zm0 0"/></clipPath><clipPath id="c"><path d="M0 0v18.75h75V37.5Zm75 0H37.5v37.5H0Zm0 0"/></clipPath></defs><path d="M0 0h150v75H0z" style="fill:#012169;fill-opacity:1;stroke:none"/><g clip-path="url(#a)"><path d="m0 0 6 3m0-3L0 3" style="fill-rule:nonzero;fill:#000;fill-opacity:1;stroke-width:.6;stroke-linecap:butt;stroke-linejoin:miter;stroke:#fff;stroke-opacity:1;stroke-miterlimit:4" transform="scale(12.5)"/></g><g clip-path="url(#b)"><g clip-path="url(#c)"><path d="m0 0 6 3m0-3L0 3" style="fill-rule:nonzero;fill:#000;fill-opacity:1;stroke-width:.4;stroke-linecap:butt;stroke-linejoin:miter;stroke:#e4002b;stroke-opacity:1;stroke-miterlimit:4" transform="scale(12.5)"/></g></g><path d="M3 0v3M0 1.5h6" style="fill-rule:nonzero;fill:#000;fill-opacity:1;stroke-width:1;stroke-linecap:butt;stroke-linejoin:miter;stroke:#fff;stroke-opacity:1;stroke-miterlimit:4" transform="scale(12.5)"/><path d="M3 0v3M0 1.5h6" style="fill-rule:nonzero;fill:#000;fill-opacity:1;stroke-width:.6;stroke-linecap:butt;stroke-linejoin:miter;stroke:#e4002b;stroke-opacity:1;stroke-miterlimit:4" transform="scale(12.5)"/><path d="m112.5 57.953 1.21 3.41-1.21 3.41-1.21-3.41Zm0 0" style="stroke:none;fill-rule:nonzero;fill:#fff;fill-opacity:1"/><path d="m115.91 61.363-3.41 1.211-3.41-1.21 3.41-1.212Zm0 0" style="stroke:none;fill-rule:nonzero;fill:#fff;fill-opacity:1"/><path d="m114.91 58.953-1.555 3.27-3.265 1.55 1.555-3.265Zm0 0" style="stroke:none;fill-rule:nonzero;fill:#fff;fill-opacity:1"/><path d="m114.91 63.773-3.265-1.55-1.555-3.27 3.265 1.555ZM100.96 43.75l.68 1.719 1.766-.543-.922 1.601 1.524 1.043-1.824.278.132 1.843-1.355-1.254-1.356 1.254.133-1.843-1.824-.278 1.523-1.043-.917-1.601 1.765.543ZM112.5 31.25l.68 1.719 1.761-.543-.918 1.601 1.524 1.043-1.824.278.132 1.843-1.355-1.254-1.355 1.254.132-1.843-1.824-.278 1.524-1.043-.918-1.601 1.761.543ZM123.215 41.07l1.219 2.68-1.22 2.68-1.218-2.68Zm0 0" style="stroke:none;fill-rule:nonzero;fill:#fff;fill-opacity:1"/><path d="m125.535 42.41-1.71 2.395-2.93.285 1.71-2.395Zm0 0" style="stroke:none;fill-rule:nonzero;fill:#fff;fill-opacity:1"/><path d="m125.535 45.09-2.93-.285-1.71-2.395 2.93.285ZM117.188 48.125l.55 1.117 1.235.18-.895.867.211 1.227-1.102-.578-1.101.578.21-1.227-.894-.867 1.235-.18ZM111.71 22.902c-.823.012-1.647.028-2.464.082-.605.051-1.293.106-1.879.196l-.148.03c-.371.075-.422.552-.227.81.395.535 2.738.949 5.508.949s5.113-.414 5.508-.95c.195-.257.144-.734-.227-.808l-.148-.031c-.582-.09-1.274-.145-1.88-.196-.816-.054-1.64-.07-2.464-.082Zm0 0" style="stroke:none;fill-rule:nonzero;fill:#fff;fill-opacity:1"/><path d="M113.05 23.41a5.962 5.962 0 0 1-1.016-.273.44.44 0 0 0 .255.203.923.923 0 0 0-.34.07.965.965 0 0 0 .344.07c-.145.06-.2.13-.234.204a8.23 8.23 0 0 1 .406-.137c.183-.05.375-.098.586-.137Zm-2.155.012a4.752 4.752 0 0 1-.57-.113 3.504 3.504 0 0 1-.446-.133c.039.074.101.144.254.199a.911.911 0 0 0-.332.082.975.975 0 0 0 .344.059c-.145.058-.2.136-.23.21.124-.054.257-.105.401-.152.18-.058.371-.105.579-.152Zm-2.137.113a6.417 6.417 0 0 1-.582-.07 5.145 5.145 0 0 1-.453-.098c.047.07.113.137.27.172a1.001 1.001 0 0 0-.329.11.99.99 0 0 0 .348.035.387.387 0 0 0-.215.226c.125-.062.254-.125.394-.18.176-.074.364-.14.567-.195Zm6.445-.078a5.748 5.748 0 0 0-.574.113c-.16.035-.309.082-.445.137.039-.074.101-.148.254-.2a.911.911 0 0 1-.333-.081 1.06 1.06 0 0 1 .344-.063c-.144-.058-.199-.133-.226-.21.125.058.257.105.402.156.176.054.367.105.578.148Zm2.133.191a4.928 4.928 0 0 0-1.035.168c.047-.07.117-.136.273-.175a.92.92 0 0 1-.332-.106.846.846 0 0 1 .352-.035c-.14-.07-.192-.152-.219-.227.121.063.254.122.39.18.176.07.364.137.57.195Zm0 0" style="stroke:none;fill-rule:nonzero;fill:#000;fill-opacity:1"/><path d="M112.5 23.914c-3.3 0-5.3.207-5.137.363 1.16.52 3.438.688 5.137.692 1.7-.004 3.98-.172 5.137-.692.164-.156-1.836-.363-5.137-.363Zm0 0" style="stroke:none;fill-rule:nonzero;fill:#ccc;fill-opacity:1"/><path d="M1143.51 822.719c.342-.872-1.067-1.11-2.56-1.268-5.805-.753-12.207-1.269-17.926-1.665-8.92-.594-17.925-.753-26.93-.872h-17.243c-9.005.119-18.01.278-26.93.872-5.72.396-12.122.912-17.926 1.665-1.494.158-2.902.396-2.56 1.268" style="fill:none;stroke-width:.616;stroke-linecap:butt;stroke-linejoin:miter;stroke:#000;stroke-opacity:1;stroke-miterlimit:4" transform="matrix(.09153 0 0 .09856 12.969 -56.798)"/><path d="M1078.851 808.65c-9.005.118-18.01.276-26.93.831-6.616.516-14.128 1.07-20.53 1.982l-1.621.317c-4.055.753-4.61 5.588-2.476 8.204 4.31 5.43 29.919 9.631 60.178 9.631 30.26 0 55.868-4.201 60.178-9.63 2.134-2.617 1.58-7.452-2.475-8.205l-1.622-.317c-6.36-.912-13.914-1.466-20.529-1.982-8.92-.555-17.925-.713-26.93-.832Zm0 0" style="fill:none;stroke-width:.616;stroke-linecap:butt;stroke-linejoin:miter;stroke:#000;stroke-opacity:1;stroke-miterlimit:4" transform="matrix(.09153 0 0 .09856 12.969 -56.798)"/><path d="m1219.662 702.223 17.536-48.568 7.049-20.123 17.536-10.288 17.88-38.431 8.424-9.986 1.204-35.254s-12.207-25.116-31.29-34.043c-27.164-13.012-64.127-11.196-64.127-11.196s-8.596-21.334-24.241-29.655c-15.645-8.322-33.009-10.44-51.233-10.44-18.395 0-51.06 15.584-68.768 20.123-9.284 2.27-30.087 10.289-30.087 10.289s-20.63-8.02-29.914-10.289c-17.708-4.539-50.545-20.123-68.769-20.123-18.223 0-35.072 1.815-51.232 10.44-15.13 8.019-35.76 29.655-35.76 29.655s-23.725-3.026-40.402 6.506c-20.802 11.802-35.415 36.766-35.415 36.766l1.375 38.583 3.266 14.827 13.41 14.525 17.536 29.655 12.55 29.05 13.41 37.977Zm0 0" style="fill-rule:evenodd;fill:#e4002b;fill-opacity:1;stroke-width:2.416973;stroke-linecap:butt;stroke-linejoin:miter;stroke:#000;stroke-opacity:1;stroke-miterlimit:4" transform="matrix(.02272 0 0 .02582 89.241 3.988)"/><path d="M358.408 213.628c-9.043 1.967-18.574 5.977-26.15 13.466-6.925 6.885-11.65 15.055-14.257 24.965-2.525 9.305-2.607 14.828-1.466 24.057 1.385 11.878 8.717 23.83 8.717 23.83l12.627-2.27s-7.658-16.037-8.473-23.073c-1.059-8.548-.977-11.272 1.14-19.14 2.2-8.094 5.378-13.692 10.836-19.14 5.214-5.143 12.464-8.32 19.959-10.06 6.68-1.514 14.175-2.195 20.04-.984 11.08 2.27 18.33 5.9 30.387 9.759 8.717 2.723 15.315 3.631 24.113 4.16 5.377.303 11.65-1.059 17.434-2.269 5.866-1.286 10.753-2.572 10.753-2.572l-3.258-12.558s-4.725 1.21-10.183 2.42c-5.458 1.135-12.383 2.119-13.93 1.968-8.31-.454-13.198-1.135-21.019-3.556-11.16-3.556-19.063-7.49-31.69-10.137-8.472-1.74-17.189-.757-25.58 1.134Zm0 0" style="fill-rule:nonzero;fill:#ffc72c;fill-opacity:1;stroke-width:1.176461;stroke-linecap:butt;stroke-linejoin:miter;stroke:#000;stroke-opacity:1;stroke-miterlimit:4" transform="matrix(-.04795 0 0 .05164 134.65 2.368)"/><path d="M323.46 286.027a7.086 7.086 0 0 1-3.504 6.127c-2.118 1.286-4.806 1.286-7.006 0-2.118-1.286-3.503-3.63-3.503-6.127 0-2.572 1.385-4.918 3.503-6.204 2.2-1.21 4.888-1.21 7.006 0 2.2 1.286 3.503 3.632 3.503 6.204Zm-3.34-16.795c0 2.572-1.386 4.917-3.504 6.128-2.2 1.286-4.806 1.286-7.006 0-2.2-1.21-3.503-3.556-3.503-6.128s1.304-4.917 3.503-6.128c2.2-1.286 4.807-1.286 7.006 0 2.118 1.21 3.503 3.556 3.503 6.128Zm.977-17.702a7.086 7.086 0 0 1-3.503 6.127c-2.118 1.287-4.807 1.287-7.006 0-2.118-1.286-3.422-3.63-3.422-6.127 0-2.572 1.304-4.918 3.422-6.204 2.2-1.286 4.888-1.286 7.006 0 2.2 1.286 3.503 3.632 3.503 6.204Zm6.843-16.87c0 2.572-1.385 4.917-3.503 6.127-2.2 1.286-4.806 1.286-7.006 0-2.118-1.21-3.503-3.555-3.503-6.127 0-2.497 1.385-4.842 3.503-6.128 2.2-1.286 4.806-1.286 7.006 0 2.118 1.286 3.503 3.631 3.503 6.128Zm12.709-13.164a7.086 7.086 0 0 1-3.503 6.128 6.696 6.696 0 0 1-6.925 0 7.086 7.086 0 0 1-3.503-6.128c0-2.572 1.303-4.917 3.503-6.203a7.056 7.056 0 0 1 6.925 0c2.2 1.286 3.503 3.631 3.503 6.203Zm15.885-8.624c.082 2.496-1.303 4.842-3.421 6.128-2.2 1.286-4.888 1.286-7.006 0a7.086 7.086 0 0 1-3.503-6.128c0-2.572 1.303-4.917 3.503-6.203 2.118-1.286 4.806-1.286 7.006 0 2.118 1.286 3.503 3.63 3.421 6.203Zm18.249-4.615c0 2.572-1.385 4.918-3.503 6.204-2.2 1.286-4.807 1.286-7.006 0-2.119-1.286-3.503-3.632-3.503-6.204 0-2.496 1.384-4.841 3.503-6.127 2.2-1.287 4.806-1.287 7.006 0 2.118 1.286 3.503 3.63 3.503 6.127Zm18.655.908c0 2.572-1.385 4.917-3.503 6.203-2.2 1.287-4.806 1.287-7.006 0-2.118-1.286-3.503-3.63-3.503-6.203 0-2.496 1.385-4.842 3.503-6.128 2.2-1.286 4.807-1.286 7.006 0 2.118 1.286 3.503 3.632 3.503 6.128Zm50.427 13.239c0 2.497-1.303 4.842-3.421 6.128-2.2 1.286-4.888 1.286-7.006 0a7.086 7.086 0 0 1-3.503-6.128c0-2.572 1.303-4.917 3.503-6.128 2.118-1.286 4.806-1.286 7.006 0 2.118 1.21 3.421 3.556 3.421 6.128Zm-32.749-8.17c0 2.496-1.303 4.841-3.421 6.127-2.2 1.287-4.888 1.287-7.007 0a7.086 7.086 0 0 1-3.503-6.127c0-2.572 1.304-4.918 3.503-6.204 2.119-1.21 4.807-1.21 7.007 0 2.118 1.286 3.421 3.632 3.421 6.204Zm16.375 4.993c0 2.496-1.304 4.841-3.422 6.127-2.2 1.286-4.888 1.286-7.006 0a7.086 7.086 0 0 1-3.503-6.127c0-2.572 1.303-4.918 3.503-6.204 2.118-1.21 4.806-1.21 7.006 0 2.118 1.286 3.422 3.632 3.422 6.204Zm0 0" style="fill-rule:nonzero;fill:#fff;fill-opacity:1;stroke-width:1.176461;stroke-linecap:butt;stroke-linejoin:miter;stroke:#000;stroke-opacity:1;stroke-miterlimit:4" transform="matrix(-.04795 0 0 .05164 134.65 2.368)"/><path d="M358.408 213.628c-9.043 1.967-18.574 5.977-26.15 13.466-6.925 6.885-11.65 15.055-14.257 24.965-2.525 9.305-2.607 14.828-1.466 24.057 1.385 11.878 8.716 23.83 8.716 23.83l12.628-2.27s-7.577-16.037-8.473-23.073c-1.059-8.548-.977-11.272 1.14-19.14 2.2-8.094 5.377-13.692 10.836-19.14 5.213-5.143 12.464-8.32 19.959-10.06 6.68-1.514 14.174-2.195 20.04-.984 11.08 2.27 18.33 5.9 30.387 9.759 8.716 2.723 15.315 3.631 24.113 4.16 5.377.303 11.65-1.059 17.434-2.269 5.865-1.286 10.753-2.572 10.753-2.572l-3.258-12.558s-4.725 1.21-10.184 2.42c-5.458 1.135-12.382 2.119-13.93 1.968-8.31-.454-13.198-1.135-21.018-3.556-11.16-3.556-19.063-7.49-31.69-10.137-8.473-1.74-17.19-.757-25.58 1.134Zm0 0" style="fill-rule:nonzero;fill:#ffc72c;fill-opacity:1;stroke-width:1.176461;stroke-linecap:butt;stroke-linejoin:miter;stroke:#000;stroke-opacity:1;stroke-miterlimit:4" transform="matrix(.04795 0 0 .05164 90.35 2.368)"/><path d="M323.46 286.027a7.086 7.086 0 0 1-3.504 6.127c-2.118 1.286-4.806 1.286-7.006 0-2.118-1.286-3.503-3.63-3.503-6.127 0-2.572 1.385-4.918 3.503-6.204 2.2-1.21 4.888-1.21 7.006 0 2.2 1.286 3.503 3.632 3.503 6.204Zm-3.34-16.795c0 2.572-1.386 4.917-3.504 6.128-2.2 1.286-4.806 1.286-7.006 0-2.118-1.21-3.503-3.556-3.503-6.128s1.385-4.917 3.503-6.128c2.2-1.286 4.807-1.286 7.006 0 2.118 1.21 3.503 3.556 3.503 6.128Zm.977-17.702a7.086 7.086 0 0 1-3.503 6.127c-2.118 1.287-4.807 1.287-7.006 0-2.118-1.286-3.422-3.63-3.422-6.127 0-2.572 1.304-4.918 3.422-6.204 2.2-1.286 4.888-1.286 7.006 0 2.2 1.286 3.503 3.632 3.503 6.204Zm6.843-16.87c0 2.572-1.385 4.917-3.503 6.127-2.2 1.286-4.807 1.286-7.006 0-2.118-1.21-3.503-3.555-3.503-6.127 0-2.497 1.385-4.842 3.503-6.128 2.2-1.286 4.806-1.286 7.006 0 2.118 1.286 3.503 3.631 3.503 6.128Zm12.708-13.164a7.086 7.086 0 0 1-3.503 6.128 6.696 6.696 0 0 1-6.924 0 7.086 7.086 0 0 1-3.503-6.128c0-2.572 1.303-4.917 3.503-6.203a7.056 7.056 0 0 1 6.924 0c2.2 1.286 3.503 3.631 3.503 6.203Zm15.886-8.624c.082 2.496-1.303 4.842-3.421 6.128-2.2 1.286-4.888 1.286-7.006 0a7.086 7.086 0 0 1-3.503-6.128c0-2.572 1.303-4.917 3.503-6.203 2.118-1.286 4.806-1.286 7.006 0 2.118 1.286 3.503 3.63 3.421 6.203Zm18.248-4.615c0 2.572-1.385 4.918-3.503 6.204-2.2 1.286-4.806 1.286-7.006 0-2.118-1.286-3.503-3.632-3.503-6.204 0-2.496 1.385-4.841 3.503-6.127 2.2-1.287 4.807-1.287 7.006 0 2.118 1.286 3.503 3.63 3.503 6.127Zm18.656.908c0 2.572-1.385 4.917-3.503 6.203-2.2 1.287-4.807 1.287-7.006 0-2.118-1.286-3.503-3.63-3.503-6.203 0-2.496 1.385-4.842 3.503-6.128 2.2-1.286 4.806-1.286 7.006 0 2.118 1.286 3.503 3.632 3.503 6.128Zm50.427 13.239c0 2.497-1.304 4.842-3.422 6.128-2.2 1.286-4.888 1.286-7.006 0a7.086 7.086 0 0 1-3.503-6.128c0-2.572 1.304-4.917 3.503-6.128 2.118-1.286 4.807-1.286 7.006 0 2.118 1.21 3.422 3.556 3.422 6.128Zm-32.75-8.17c0 2.496-1.303 4.841-3.42 6.127-2.2 1.287-4.889 1.287-7.007 0a7.086 7.086 0 0 1-3.503-6.127c0-2.572 1.304-4.918 3.503-6.204 2.118-1.21 4.807-1.21 7.006 0 2.118 1.286 3.422 3.632 3.422 6.204Zm16.375 4.993c0 2.496-1.303 4.841-3.421 6.127-2.2 1.286-4.888 1.286-7.006 0a7.086 7.086 0 0 1-3.503-6.127c0-2.572 1.303-4.918 3.503-6.204 2.118-1.21 4.806-1.21 7.006 0 2.118 1.286 3.421 3.632 3.421 6.204Zm0 0" style="fill-rule:nonzero;fill:#fff;fill-opacity:1;stroke-width:1.176461;stroke-linecap:butt;stroke-linejoin:miter;stroke:#000;stroke-opacity:1;stroke-miterlimit:4" transform="matrix(.04795 0 0 .05164 90.35 2.368)"/><path d="M298.868 276.078c1.874-2.42 4.155-4.16 6.029-6.657 1.873-2.572 3.34-5.75 4.154-9.078-3.421.832-6.598 2.345-9.205 4.236-2.444 1.816-4.237 4.085-6.599 6.052v-30.79c2.362 1.891 4.155 4.16 6.599 5.977 2.607 1.966 5.784 3.404 9.205 4.236-.814-3.253-2.28-6.506-4.154-9.078-1.874-2.421-4.155-4.16-6.029-6.582h34.053c-1.874 2.421-4.155 4.161-6.029 6.582-1.874 2.572-3.34 5.825-4.155 9.078 3.422-.832 6.6-2.27 9.206-4.236 2.444-1.816 4.236-4.086 6.599-5.977v30.79c-2.363-1.967-4.155-4.236-6.599-6.052-2.607-1.891-5.784-3.404-9.206-4.236.815 3.328 2.281 6.506 4.155 9.078 1.874 2.496 4.155 4.236 6.029 6.657Zm0 0" style="fill-rule:nonzero;fill:#ffc72c;fill-opacity:1;stroke-width:1.176461;stroke-linecap:butt;stroke-linejoin:miter;stroke:#000;stroke-opacity:1;stroke-miterlimit:4" transform="matrix(.04795 0 0 .05164 97.353 -2.072)"/><path d="M324.367 255.198c0 3.102-1.63 5.901-4.236 7.49a8.474 8.474 0 0 1-8.473 0c-2.607-1.589-4.236-4.388-4.236-7.49 0-3.026 1.63-5.9 4.236-7.414a8.474 8.474 0 0 1 8.473 0c2.606 1.513 4.236 4.388 4.236 7.414Zm0 0" style="fill-rule:nonzero;fill:#fff;fill-opacity:1;stroke-width:1.176469;stroke-linecap:butt;stroke-linejoin:miter;stroke:#000;stroke-opacity:1;stroke-miterlimit:4" transform="matrix(.04795 0 0 .05164 97.353 -2.072)"/><path d="M2700.176 785.006c0 3.828-1.961 7.362-5.215 9.255a10.255 10.255 0 0 1-10.52 0c-3.253-1.893-5.214-5.427-5.214-9.255 0-3.787 1.96-7.32 5.215-9.214a10.255 10.255 0 0 1 10.519 0c3.254 1.894 5.215 5.427 5.215 9.214Zm0 0" style="fill-rule:nonzero;fill:#ffc72c;fill-opacity:1;stroke-width:.64894;stroke-linecap:butt;stroke-linejoin:miter;stroke:#000;stroke-opacity:1;stroke-miterlimit:4" transform="matrix(.08764 0 0 .09285 -123.219 -59.713)"/><path d="M195.868 28.47v17.005h-17.103v8.743h42.844v-8.743h-17.103V28.469Zm0 0" style="fill-rule:nonzero;fill:#ffc72c;fill-opacity:1;stroke-width:1.247424;stroke-linecap:butt;stroke-linejoin:miter;stroke:#000;stroke-opacity:1;stroke-miterlimit:4" transform="matrix(.04522 0 0 .0487 103.447 10.727)"/><path d="M309.622 310.575h12.545a6.33 6.33 0 0 1 6.354 6.355v58.932c0 3.556-2.85 6.43-6.354 6.43h-12.545c-3.504 0-6.355-2.874-6.355-6.43V316.93a6.33 6.33 0 0 1 6.355-6.355Zm0 0" style="fill-rule:evenodd;fill:#ffc72c;fill-opacity:1;stroke-width:1.176461;stroke-linecap:butt;stroke-linejoin:miter;stroke:#000;stroke-opacity:1;stroke-miterlimit:4" transform="matrix(.04795 0 0 .05164 97.353 -2.072)"/><path d="M224.866 941.254c1.917 0 3.48 1.668 3.48 3.754v71.669c0 2.086-1.563 3.838-3.48 3.838-1.99 0-3.552-1.752-3.552-3.838v-71.669c0-2.086 1.563-3.754 3.552-3.754Zm0 0" style="fill-rule:evenodd;fill:#ffc72c;fill-opacity:1;stroke-width:1.153604;stroke-linecap:butt;stroke-linejoin:miter;stroke:#000;stroke-opacity:1;stroke-miterlimit:4" transform="matrix(.055 0 0 .04682 99.48 -30.108)"/><path d="M244.004 941.254c1.988 0 3.551 1.668 3.551 3.754v71.669c0 2.086-1.563 3.838-3.551 3.838-1.918 0-3.48-1.752-3.48-3.838v-71.669c0-2.086 1.562-3.754 3.48-3.754Zm0 0" style="fill-rule:evenodd;fill:#ffc72c;fill-opacity:1;stroke-width:1.153604;stroke-linecap:butt;stroke-linejoin:miter;stroke:#000;stroke-opacity:1;stroke-miterlimit:4" transform="matrix(.055 0 0 .04682 99.733 -30.108)"/><path d="M322.9 312.088c0 2.496-1.385 4.842-3.503 6.128-2.2 1.286-4.806 1.286-7.006 0-2.118-1.286-3.503-3.632-3.503-6.128 0-2.572 1.385-4.917 3.503-6.203a7.212 7.212 0 0 1 7.006 0c2.118 1.286 3.503 3.63 3.503 6.203Zm0 0" style="fill-rule:nonzero;fill:#fff;fill-opacity:1;stroke-width:1.176461;stroke-linecap:butt;stroke-linejoin:miter;stroke:#000;stroke-opacity:1;stroke-miterlimit:4" transform="matrix(.04795 0 0 .05164 97.353 -2.072)"/><path d="M322.9 326.16c0 2.571-1.385 4.916-3.503 6.202a7.212 7.212 0 0 1-7.006 0c-2.118-1.286-3.503-3.63-3.503-6.203 0-2.496 1.385-4.842 3.503-6.128 2.2-1.286 4.807-1.286 7.006 0 2.118 1.286 3.503 3.632 3.503 6.128Zm0 0" style="fill-rule:nonzero;fill:#fff;fill-opacity:1;stroke-width:1.176461;stroke-linecap:butt;stroke-linejoin:miter;stroke:#000;stroke-opacity:1;stroke-miterlimit:4" transform="matrix(.04795 0 0 .05164 97.353 -2.072)"/><path d="M322.9 340.306c0 2.496-1.385 4.842-3.503 6.128-2.2 1.286-4.806 1.286-7.006 0-2.118-1.286-3.503-3.632-3.503-6.128 0-2.572 1.385-4.917 3.503-6.128 2.2-1.286 4.807-1.286 7.006 0 2.118 1.21 3.503 3.556 3.503 6.128Zm0 0" style="fill-rule:nonzero;fill:#fff;fill-opacity:1;stroke-width:1.176461;stroke-linecap:butt;stroke-linejoin:miter;stroke:#000;stroke-opacity:1;stroke-miterlimit:4" transform="matrix(.04795 0 0 .05164 97.353 -2.072)"/><path d="M322.9 354.453c0 2.496-1.385 4.841-3.503 6.127-2.2 1.286-4.806 1.286-7.006 0-2.118-1.286-3.503-3.63-3.503-6.127 0-2.573 1.385-4.918 3.503-6.204a7.212 7.212 0 0 1 7.006 0c2.118 1.286 3.503 3.631 3.503 6.204Zm0 0" style="fill-rule:nonzero;fill:#fff;fill-opacity:1;stroke-width:1.176461;stroke-linecap:butt;stroke-linejoin:miter;stroke:#000;stroke-opacity:1;stroke-miterlimit:4" transform="matrix(.04795 0 0 .05164 97.353 -2.072)"/><path d="M322.9 368.524c0 2.572-1.385 4.917-3.503 6.203-2.2 1.286-4.806 1.286-7.006 0-2.118-1.286-3.503-3.631-3.503-6.203 0-2.497 1.385-4.842 3.503-6.128 2.2-1.286 4.807-1.286 7.006 0 2.118 1.286 3.503 3.631 3.503 6.128Zm0 0" style="fill-rule:nonzero;fill:#fff;fill-opacity:1;stroke-width:1.176461;stroke-linecap:butt;stroke-linejoin:miter;stroke:#000;stroke-opacity:1;stroke-miterlimit:4" transform="matrix(.04795 0 0 .05164 97.353 -2.072)"/><path d="M-147.27 1086.936c-6.763 15.054-12.14 29.73-17.435 44.785H-381.32c-5.05-14.6-10.264-30.26-16.7-44.785 0 0 13.523 18.912 23.625 23.451 5.621 2.497 12.627 3.253 18.411 1.21 7.658-2.723 17.76-16.567 17.76-16.567s9.205 10.667 15.396 13.466c5.784 2.648 12.628 2.8 18.982 2.497 5.702-.227 11.975-.454 16.619-3.707 7.087-4.842 14.093-21.485 14.093-21.485s6.843 13.088 12.302 17.854c4.48 3.858 10.101 6.808 15.967 7.943 5.865 1.21 12.22.832 17.84-1.21 7.577-2.724 19.634-14.147 19.634-14.147s8.31 10.288 14.093 12.936c5.621 2.497 12.464 3.253 18.411 1.816 6.355-1.513 11.731-6.128 16.62-10.44 4.317-3.858 10.997-13.617 10.997-13.617Zm0 0" style="fill-rule:nonzero;fill:#ffc72c;fill-opacity:1;stroke-width:1.176461;stroke-linecap:butt;stroke-linejoin:miter;stroke:#000;stroke-opacity:1;stroke-miterlimit:4" transform="matrix(.04795 0 0 .05164 125.573 -36.85)"/><path d="M112.5 19.715s-.238.39-.383.527c-.203.184-.336.297-.594.387a2.676 2.676 0 0 1-.894.121 1.938 1.938 0 0 1-.77-.223c-.203-.105-.53-.418-.53-.418a1.77 1.77 0 0 1-.56.493c-.246.148-.488.16-.746.148-.52-.031-1.007-.383-1.398-1.094a18.227 18.227 0 0 0-.906-1.98c.422-.156.906-.242 1.449-.27-.219.668-.45 1.317-.367 1.856.453-.367.601-.867.758-1.364l.527 2.004c-.32-.058-.148-.129-.992-.3.168.34.554.765.98.804a.802.802 0 0 0 .676-.234c.133-.125.25-.285.25-.469 0-.101 0-.207-.004-.312 0-.067-.074-.16-.137-.16-.062-.004-.078.101-.093.164-.032.12.03.257 0 .382a.529.529 0 0 1-.211.317c-.094.062-.317.078-.317.078l.07-.297c.051-.207-.136-.371-.183-.582a.826.826 0 0 1 0-.414.604.604 0 0 1 .277-.34.285.285 0 0 1 .153-.02c.07.004.21.055.21.055s-.038-.21-.03-.34c.015-.156.136-.445.203-.582.117-.226.296-.433.316-.453.023.02.219.219.348.438.078.129.156.32.18.476.015.125.011.395.011.395s.207-.094.281-.106a.287.287 0 0 1 .153.012.59.59 0 0 1 .296.316c.051.13.047.282.024.418-.031.211-.145.375-.082.579l.09.293s-.223 0-.32-.055a.515.515 0 0 1-.231-.3c-.043-.122-.02-.267-.086-.372-.031-.047-.074-.098-.133-.09-.062.004-.105.113-.11.18l-.01.281a.459.459 0 0 0 .077.246.926.926 0 0 0 .438.356c.191.082.363.113.57.117.176 0 .473-.028.637-.09.203-.07.32-.164.476-.32a.853.853 0 0 0 .184-.336c.047-.14.031-.387.031-.387a2.21 2.21 0 0 0-.535.32 3.578 3.578 0 0 0-.477.496l-.015-2.425c.21.25.36.472.57.656.176.16.266.219.442.281-.051-.195-.067-.312-.196-.508-.18-.27-.355-.562-.574-.832.402-.07.8-.09 1.207-.09.406 0 .805.02 1.207.09-.219.27-.394.563-.574.832-.13.196-.145.313-.195.508.175-.062.265-.121.44-.281.212-.184.36-.406.571-.656l-.015 2.425c-.145-.18-.301-.347-.477-.496a2.21 2.21 0 0 0-.535-.32s-.016.246.031.387c.04.12.098.25.184.336.156.156.273.25.476.32.164.062.461.09.637.09.207-.004.379-.035.57-.117a.926.926 0 0 0 .438-.356.459.459 0 0 0 .078-.246l-.012-.281c-.004-.067-.047-.176-.11-.18-.058-.008-.1.043-.132.09-.066.105-.043.25-.086.371a.515.515 0 0 1-.23.3c-.098.056-.32.056-.32.056l.09-.293c.062-.204-.052-.368-.083-.579a.798.798 0 0 1 .024-.418.59.59 0 0 1 .296-.316.29.29 0 0 1 .153-.012c.074.012.281.106.281.106s-.004-.27.012-.395c.023-.156.101-.347.18-.476.128-.219.324-.418.347-.438.02.02.2.227.317.453.066.137.187.426.203.582a1.83 1.83 0 0 1-.032.34s.141-.05.211-.054a.285.285 0 0 1 .153.02c.129.062.226.198.277.339a.826.826 0 0 1 0 .414c-.047.21-.234.375-.184.582l.07.297s-.222-.016-.316-.078a.529.529 0 0 1-.21-.317c-.032-.125.03-.261 0-.382-.016-.063-.032-.168-.094-.165-.063 0-.137.094-.137.16-.004.106-.004.212-.004.313 0 .184.117.344.25.469.18.168.387.265.676.234.426-.039.812-.465.98-.804-.844.171-.672.242-.992.3l.527-2.004c.157.497.305.997.758 1.364.082-.54-.148-1.188-.367-1.856.543.028 1.027.114 1.45.27a18.227 18.227 0 0 0-.907 1.98c-.39.711-.879 1.063-1.398 1.094-.258.012-.5 0-.747-.148a1.77 1.77 0 0 1-.558-.493s-.328.313-.531.418a1.938 1.938 0 0 1-.77.223 2.676 2.676 0 0 1-.894-.121c-.258-.09-.391-.203-.594-.387-.145-.137-.383-.527-.383-.527Zm0 0" style="stroke:none;fill-rule:nonzero;fill:#ffc72c;fill-opacity:1"/><path d="M108.023 20.75c-.52-.031-1.007-.383-1.398-1.094a18.227 18.227 0 0 0-.906-1.98c.422-.156.906-.242 1.449-.27-.219.668-.45 1.317-.367 1.856.453-.367.601-.867.758-1.364l.527 2.004c-.32-.058-.148-.129-.992-.3.168.34.554.765.98.804Zm8.903-.344c.426-.039.812-.465.98-.804-.844.171-.672.242-.992.3l.527-2.004c.157.497.305.997.758 1.364.082-.54-.148-1.188-.367-1.856.543.028 1.027.114 1.45.27a18.227 18.227 0 0 0-.907 1.98c-.39.711-.879 1.063-1.398 1.094l-.012.02Zm0 0" style="stroke:none;fill-rule:nonzero;fill:#ffc72c;fill-opacity:1"/><path d="M110.629 20.75a1.938 1.938 0 0 1-.77-.223c-.203-.105-.53-.418-.53-.418a1.77 1.77 0 0 1-.56.493c-.246.148-.488.16-.746.148l-.007.094.058-.438a.802.802 0 0 0 .676-.234c.133-.125.25-.285.25-.469 0-.101 0-.207-.004-.312 0-.067-.074-.16-.137-.16-.062-.004-.078.101-.093.164-.032.12.03.257 0 .382a.529.529 0 0 1-.211.317c-.094.062-.317.078-.317.078l.07-.297c.051-.207-.136-.371-.183-.582a.826.826 0 0 1 0-.414.604.604 0 0 1 .277-.34.285.285 0 0 1 .153-.02c.07.004.21.055.21.055s-.038-.21-.03-.34c.015-.156.136-.445.203-.582.117-.226.296-.433.316-.453.023.02.219.219.348.438.078.129.156.32.18.476.015.125.011.395.011.395s.207-.094.281-.106a.287.287 0 0 1 .153.012.59.59 0 0 1 .296.316c.051.13.047.282.024.418-.031.211-.145.375-.082.579l.09.293s-.223 0-.32-.055a.515.515 0 0 1-.231-.3c-.043-.122-.02-.267-.086-.372-.031-.047-.074-.098-.133-.09-.062.004-.105.113-.11.18l-.01.281a.459.459 0 0 0 .077.246.926.926 0 0 0 .438.356c.191.082.363.113.57.117Zm0 0" style="stroke:none;fill-rule:nonzero;fill:#ffc72c;fill-opacity:1"/><path d="m115.8 19.7-.007-.012c-.008-.133.035-.36.035-.36a.4.4 0 0 1 .223-.277c.062-.024.133-.035.199 0 .04.02.07.035.098.066a.27.27 0 0 1 .058.121.493.493 0 0 1 .004.239.546.546 0 0 0 .012.3.31.31 0 0 0 .121.137c-.012-.043-.02-.062-.023-.105a.368.368 0 0 1 .027-.196c.039-.105.098-.187.133-.281a.582.582 0 0 0 .05-.281.42.42 0 0 0-.066-.211.33.33 0 0 0-.18-.125.544.544 0 0 0-.238.039c-.078.027-.14.055-.14.055l-.07.039.01-.086c.044-.274.079-.414 0-.676a1.365 1.365 0 0 0-.175-.36c-.043-.066-.09-.144-.148-.218-.145.18-.246.36-.305.543-.063.199-.063.465-.05.676l.007.085-.066-.042s-.079-.051-.172-.098c-.09-.047-.203-.09-.25-.086-.094.008-.153.055-.211.137-.051.066-.059.125-.07.222-.004.059.007.172.015.242.012.086.059.176.07.286l.024.097a.328.328 0 0 1 .004.125c-.008.032-.016.055-.028.098.024-.012.04-.02.051-.027.043-.036.063-.098.09-.172a.39.39 0 0 0 .023-.117c0-.043.004-.09.024-.149.035-.094.074-.203.164-.273a.28.28 0 0 1 .254-.043c.05.015.086.05.113.09.024.039.043.078.059.12.023.055.039.137.05.208.012.07.016.129.016.129v.015l-.062.223-.078-.02.058-.215c0-.003-.004-.054-.016-.12a1.481 1.481 0 0 0-.039-.18c-.02-.043-.035-.082-.054-.11-.02-.027-.04-.047-.07-.054a.216.216 0 0 0-.184.027c-.063.05-.102.145-.137.238-.016.04-.016.075-.016.117-.003.043-.007.094-.027.149-.027.066-.047.152-.12.207-.052.039-.15.078-.15.078l-.081.04.03-.095s.04-.132.052-.18a.206.206 0 0 0-.004-.085c-.008-.032-.02-.063-.024-.11-.011-.086-.058-.175-.07-.285a1.149 1.149 0 0 1-.02-.265.503.503 0 0 1 .09-.266c.067-.094.153-.16.266-.168.09-.008.2.043.297.094.058.031.078.047.11.066-.009-.207-.009-.441.054-.64.066-.207.183-.415.355-.614l.028-.035.03.035c.079.094.138.196.184.27.094.144.153.27.188.383.074.25.047.418.012.644.027-.012.039-.02.086-.035a.607.607 0 0 1 .277-.04c.09.02.172.079.227.157a.456.456 0 0 1 .085.262.767.767 0 0 1-.054.324c-.043.102-.102.184-.137.277a.33.33 0 0 0-.023.149c.011.07.047.187.047.187l.023.082-.078-.027a.385.385 0 0 1-.242-.23.62.62 0 0 1-.02-.352.437.437 0 0 0 .004-.187c-.016-.051-.027-.075-.043-.09a.263.263 0 0 0-.074-.051c-.035-.02-.09-.016-.137.004a.322.322 0 0 0-.172.21.794.794 0 0 1-.105.356Zm2.337-.16.02-.044-.044-.02c-.336-.113-.644-.027-.937.106.12-.344.21-.691.273-1.039.317.617.586.816.84.941l.047.024.012-.055c.074-.422.078-.98-.239-1.812.356.023.715.066 1.067.238l.035-.082c-.39-.188-.777-.23-1.16-.25l-.067-.004.028.066c.328.82.328 1.356.261 1.766-.246-.129-.492-.32-.804-.965l-.055-.113-.023.125a7.412 7.412 0 0 1-.317 1.223l-.039.101.09-.047c.297-.144.594-.238.914-.148l.008.008Zm-11.176.01c.32-.09.617.005.91.15l.09.046-.035-.101a7.412 7.412 0 0 1-.317-1.223l-.023-.125-.055.113c-.312.645-.562.836-.804.965-.067-.41-.067-.945.261-1.766l.028-.066-.067.004c-.383.02-.77.062-1.16.25l.035.082c.356-.172.711-.215 1.067-.238-.317.832-.313 1.39-.239 1.812l.012.055.047-.024c.254-.125.523-.324.84-.937.062.344.156.691.273 1.035-.293-.133-.601-.219-.937-.105l-.043.02.02.042-.009.004Zm2.633.196-.047-.187c0-.008.004-.051.016-.118a.982.982 0 0 1 .039-.18c.02-.042.035-.081.054-.109.02-.027.04-.047.07-.054a.218.218 0 0 1 .184.027c.063.05.102.145.137.238.016.04.016.075.016.117.003.043.007.094.027.149.027.066.047.152.12.207.052.039.15.078.15.078l.081.04-.03-.095s-.04-.132-.052-.18c-.004-.034 0-.058.004-.085.008-.032.02-.063.024-.11.011-.086.058-.175.07-.285.008-.07.027-.18.02-.265a.503.503 0 0 0-.09-.266c-.067-.094-.153-.16-.266-.168-.09-.008-.2.043-.297.094-.058.031-.078.047-.11.066.009-.207.009-.441-.054-.64a1.774 1.774 0 0 0-.355-.614l-.028-.035-.03.035c-.079.094-.138.196-.188.27-.094.144-.149.27-.184.383-.074.25-.047.418-.012.644-.027-.012-.039-.02-.086-.035a.607.607 0 0 0-.277-.04.383.383 0 0 0-.227.157.456.456 0 0 0-.085.262.767.767 0 0 0 .054.324c.043.102.102.184.137.277a.28.28 0 0 1 .02.149c-.008.07-.044.187-.044.187l-.023.082.078-.027a.385.385 0 0 0 .242-.23.62.62 0 0 0 .02-.352.437.437 0 0 1-.004-.187c.016-.051.027-.075.043-.09a.263.263 0 0 1 .074-.051c.035-.02.09-.016.137.004.074.027.152.137.172.21 0 .005.035.235.031.34l.098.016c-.008-.144-.051-.37-.051-.37a.4.4 0 0 0-.223-.278c-.062-.024-.136-.035-.199 0a.289.289 0 0 0-.098.066.317.317 0 0 0-.062.121.545.545 0 0 0 0 .239c.02.117.02.218-.012.3a.335.335 0 0 1-.121.137c.012-.043.02-.062.023-.105a.368.368 0 0 0-.027-.196c-.039-.105-.098-.187-.133-.281a.582.582 0 0 1-.05-.281.386.386 0 0 1 .066-.211.317.317 0 0 1 .18-.125.544.544 0 0 1 .238.039c.078.027.14.055.14.055l.07.039-.015-.086c-.039-.274-.074-.414.004-.676.031-.106.082-.223.172-.36.047-.066.094-.144.152-.214.145.175.246.355.305.539.063.199.063.465.047.676l-.004.085.066-.042s.079-.051.168-.098c.094-.047.207-.09.258-.086.09.008.149.055.207.137.051.066.059.129.07.222.004.059-.007.172-.019.246-.008.082-.055.176-.066.282a3.685 3.685 0 0 1-.024.097.265.265 0 0 0-.004.125c.004.032.016.055.028.098-.024-.012-.04-.02-.051-.027-.047-.036-.063-.098-.094-.172-.016-.04-.016-.074-.02-.117a.446.446 0 0 0-.023-.149c-.035-.094-.074-.203-.164-.273a.28.28 0 0 0-.254-.043.203.203 0 0 0-.113.09.495.495 0 0 0-.059.12c-.023.055-.039.137-.05.208-.012.07-.016.129-.016.129v.015l.047.192.027.004Zm3.101-.715v-.054l.051.015c.227.059.402.145.547.235.184.117.316.25.46.378l.024-1.457c-.12.145-.234.297-.402.422a1.468 1.468 0 0 1-.633.262l-.058.008.011-.059c.035-.164.032-.281.11-.472.074-.188.226-.454.53-.903-.265-.031-.491-.066-.835-.066s-.57.035-.836.066c.305.45.457.715.531.903.078.191.075.308.11.472l.011.059-.058-.008a1.468 1.468 0 0 1-.633-.262c-.168-.125-.281-.277-.402-.422l.023 1.454c.14-.125.277-.258.461-.375.145-.09.32-.176.547-.235l.05-.015v.054l-.081.063a1.842 1.842 0 0 0-.473.21c-.203.13-.348.278-.52.426l-.062.055-.004-.09-.023-1.66-.004-.11.074.079c.156.168.273.355.46.492.114.086.337.2.544.238-.024-.132-.035-.238-.098-.394-.07-.184-.219-.45-.558-.942l-.04-.062.07-.008c.29-.031.532-.078.911-.078s.617.047.91.078l.07.008-.039.062c-.34.493-.488.758-.562.942-.063.156-.07.262-.094.394.207-.039.43-.152.543-.238.184-.137.305-.324.461-.492l.074-.078-.004.11-.027 1.66v.09l-.066-.056c-.172-.148-.313-.296-.516-.425a1.718 1.718 0 0 0-.473-.207Zm0 0" style="stroke:none;fill-rule:nonzero;fill:#000;fill-opacity:1"/><path d="M-272.646 1095.484s-4.97 7.565-7.984 10.213c-4.236 3.556-7.006 5.75-12.382 7.49-5.458 1.664-12.953 2.647-18.656 2.345-5.458-.303-11.08-1.892-16.048-4.312-4.237-2.043-11.08-8.095-11.08-8.095-3.34 4.312-7.576 7.338-11.65 9.532-5.132 2.875-10.182 3.102-15.56 2.875-10.834-.605-21.017-7.414-29.164-21.183a341.487 341.487 0 0 0-18.9-38.355c8.799-3.026 18.9-4.69 30.224-5.22-4.562 12.937-9.369 25.495-7.658 35.935 9.45-7.112 12.546-16.795 15.805-26.403l10.997 38.81c-6.68-1.135-3.095-2.497-20.692-5.826 3.503 6.582 11.568 14.828 20.448 15.584 6.028.606 10.346-1.286 14.093-4.539 2.77-2.42 5.214-5.522 5.214-9.078 0-1.967 0-4.01-.081-6.052 0-1.286-1.548-3.102-2.852-3.102-1.303-.075-1.629 1.967-1.955 3.178-.651 2.345.652 4.993 0 7.414-.733 2.572-2.118 4.69-4.399 6.127-1.955 1.21-6.599 1.513-6.599 1.513l1.467-5.75c1.059-4.009-2.851-7.186-3.829-11.271-.57-2.572-.896-5.523 0-8.02 1.059-2.723 3.096-5.37 5.784-6.58.896-.455 2.118-.455 3.177-.38 1.467.077 4.4 1.06 4.4 1.06s-.815-4.085-.652-6.582c.325-3.026 2.85-8.624 4.236-11.272 2.444-4.387 6.191-8.397 6.598-8.775.49.378 4.562 4.236 7.25 8.473 1.63 2.496 3.26 6.203 3.748 9.23.326 2.42.245 7.64.245 7.64s4.317-1.816 5.865-2.043c1.06-.15 2.2-.15 3.177.227 2.689.984 4.97 3.48 6.192 6.128 1.059 2.497.977 5.447.488 8.095-.651 4.085-3.014 7.262-1.71 11.196l1.873 5.674s-4.643 0-6.68-1.06c-2.362-1.285-3.91-3.252-4.806-5.824-.896-2.345-.408-5.145-1.792-7.187-.652-.908-1.548-1.891-2.77-1.74-1.304.076-2.2 2.194-2.281 3.48l-.245 5.447c-.081 1.664.733 3.404 1.63 4.766 2.2 3.328 5.458 5.371 9.124 6.884 3.991 1.589 7.576 2.194 11.894 2.27 3.666 0 9.857-.53 13.278-1.74 4.237-1.362 6.68-3.178 9.94-6.204 1.791-1.664 3.013-4.16 3.828-6.506.978-2.723.652-7.49.652-7.49-4.236 1.59-7.82 3.783-11.16 6.204-3.667 2.875-6.925 6.128-9.94 9.608l-.326-46.98c4.4 4.842 7.495 9.154 11.894 12.71 3.666 3.102 5.54 4.236 9.206 5.447-1.06-3.783-1.385-6.052-4.073-9.835-3.748-5.22-7.414-10.894-11.976-16.114 8.391-1.361 16.7-1.74 25.173-1.74 8.472 0 16.782.379 25.173 1.74-4.562 5.22-8.228 10.894-11.976 16.114-2.688 3.783-3.014 6.052-4.073 9.835 3.666-1.21 5.54-2.345 9.206-5.447 4.399-3.556 7.495-7.868 11.894-12.71l-.326 46.98c-3.014-3.48-6.273-6.733-9.939-9.608-3.34-2.42-6.925-4.615-11.16-6.203 0 0-.327 4.766.651 7.49.815 2.344 2.037 4.84 3.829 6.505 3.258 3.026 5.702 4.842 9.939 6.204 3.421 1.21 9.613 1.74 13.278 1.74 4.318-.076 7.903-.681 11.894-2.27 3.666-1.513 6.925-3.556 9.125-6.884.896-1.362 1.71-3.102 1.629-4.766l-.245-5.447c-.081-1.286-.977-3.404-2.28-3.48-1.223-.151-2.119.832-2.77 1.74-1.385 2.042-.897 4.842-1.793 7.187-.896 2.572-2.444 4.539-4.806 5.825-2.037 1.059-6.68 1.059-6.68 1.059l1.873-5.674c1.304-3.934-1.059-7.111-1.71-11.196-.49-2.648-.57-5.598.488-8.095 1.222-2.648 3.503-5.144 6.192-6.128.977-.378 2.2-.378 3.177-.227 1.548.227 5.865 2.043 5.865 2.043s-.081-5.22.245-7.64c.489-3.027 2.118-6.734 3.747-9.23 2.689-4.237 6.762-8.095 7.25-8.473.408.378 4.155 4.388 6.6 8.775 1.384 2.648 3.91 8.246 4.236 11.272.162 2.497-.652 6.582-.652 6.582s2.933-.983 4.399-1.06c1.059-.075 2.281-.075 3.177.38 2.688 1.21 4.725 3.857 5.784 6.58.896 2.497.57 5.448 0 8.02-.977 4.085-4.888 7.262-3.829 11.272l1.467 5.75s-4.644-.303-6.6-1.514c-2.28-1.437-3.665-3.555-4.398-6.127-.652-2.421.652-5.069 0-7.414-.326-1.21-.652-3.253-1.955-3.178-1.304 0-2.852 1.816-2.852 3.102-.081 2.043-.081 4.085-.081 6.052 0 3.556 2.444 6.658 5.214 9.078 3.747 3.253 8.065 5.145 14.093 4.54 8.88-.757 16.945-9.003 20.448-15.585-17.597 3.329-14.012 4.69-20.692 5.825l10.998-38.809c3.258 9.608 6.354 19.291 15.804 26.403 1.71-10.44-3.096-22.998-7.658-35.935 11.324.53 21.425 2.194 30.224 5.22a341.487 341.487 0 0 0-18.9 38.355c-8.147 13.769-18.33 20.578-29.165 21.183-5.376.227-10.427 0-15.56-2.875-4.073-2.194-8.31-5.22-11.65-9.532 0 0-6.842 6.052-11.078 8.095-4.97 2.42-10.59 4.01-16.05 4.312-5.702.302-13.196-.681-18.655-2.345-5.376-1.74-8.146-3.934-12.382-7.49-3.015-2.648-7.984-10.213-7.984-10.213Zm0 0" style="fill:none;stroke-width:1.176461;stroke-linecap:butt;stroke-linejoin:miter;stroke:#000;stroke-opacity:1;stroke-miterlimit:4" transform="matrix(.04795 0 0 .05164 125.573 -36.85)"/><path d="M323.552 406.122a7.97 7.97 0 0 1-3.829 6.809 7.688 7.688 0 0 1-7.658 0 7.97 7.97 0 0 1-3.828-6.809c0-2.799 1.466-5.37 3.828-6.733a7.339 7.339 0 0 1 7.658 0c2.363 1.362 3.83 3.934 3.83 6.733Zm-121.465 10.743a7.97 7.97 0 0 1-3.828 6.808 7.688 7.688 0 0 1-7.658 0c-2.444-1.437-3.91-4.01-3.83-6.808a7.427 7.427 0 0 1 3.83-6.733 7.339 7.339 0 0 1 7.658 0c2.362 1.362 3.828 3.934 3.828 6.733Zm227.614 0a7.97 7.97 0 0 0 3.83 6.808 7.688 7.688 0 0 0 7.657 0c2.444-1.437 3.91-4.01 3.829-6.808a7.427 7.427 0 0 0-3.83-6.733 7.339 7.339 0 0 0-7.657 0c-2.362 1.362-3.829 3.934-3.829 6.733Zm0 0" style="fill-rule:nonzero;fill:#fff;fill-opacity:1;stroke-width:1.176461;stroke-linecap:butt;stroke-linejoin:miter;stroke:#000;stroke-opacity:1;stroke-miterlimit:4" transform="matrix(.04795 0 0 .05164 97.353 -2.072)"/><path d="m-346.485 1090.733 16.887.008 2.244 3.758-2.166 3.822-16.969-.012-2.65-3.78Zm0 0" style="fill-rule:nonzero;fill:#ffc72c;fill-opacity:1;stroke-width:1.176461;stroke-linecap:butt;stroke-linejoin:miter;stroke:#000;stroke-opacity:1;stroke-miterlimit:4" transform="matrix(.04788 -.0028 .0026 .05156 122.709 -37.71)"/><path d="m116.047 19.496-.809-.047-.117.188.094.203.812.047.137-.188Zm0 0" style="stroke:none;fill-rule:nonzero;fill:#f6e078;fill-opacity:1"/><path d="m-346.485 1090.733 16.888.008 2.243 3.758-2.165 3.822-16.97-.012-2.65-3.78Zm0 0" style="fill-rule:nonzero;fill:#ffc72c;fill-opacity:1;stroke-width:1.176461;stroke-linecap:butt;stroke-linejoin:miter;stroke:#000;stroke-opacity:1;stroke-miterlimit:4" transform="matrix(-.04788 -.0028 -.0026 .05156 102.291 -37.71)"/><path d="M107.39 22.879s.579-.047 1.594-.11a55.292 55.292 0 0 1 2.668-.093h1.696a55.456 55.456 0 0 1 4.254.21l.355-1.706s-3.633-.352-5.457-.352c-1.824 0-5.453.352-5.453.352Zm0 0" style="stroke:none;fill-rule:evenodd;fill:#ffc72c;fill-opacity:1"/><path d="M496.477 341.747c38.044-.075 76.007 2.043 113.889 6.204l-6.925 33.286c-37.637-3.329-68.43-4.236-106.475-4.539m.489-34.95c-38.045-.076-76.007 2.042-113.889 6.203l6.925 33.286c37.637-3.329 68.43-4.236 106.475-4.539" style="fill:none;stroke-width:1.176461;stroke-linecap:butt;stroke-linejoin:miter;stroke:#000;stroke-opacity:1;stroke-miterlimit:4" transform="matrix(.04795 0 0 .05164 88.67 3.202)"/><path d="M-644.332 561.74v.098h-.08c-13.376 1.173-28.846 2.542-42.302 4.986-1.933 3.03-2.095 5.67 1.37 7.918 12.972-2.346 28.281-3.715 41.656-4.986 18.13-1.368 36.42-2.248 54.71-2.444h34.968c10.878 0 34.002.783 54.71 2.444 20.626 1.662 41.656 4.986 41.656 4.986 3.626-2.444 3.223-5.083 1.29-7.918 0 0-21.272-3.422-42.382-5.084-20.95-1.662-43.913-2.444-55.274-2.444h-34.968c-18.532 0-36.903 1.173-55.354 2.444Zm0 0" style="fill-rule:nonzero;fill:#ffc72c;fill-opacity:1;stroke-width:1.330036;stroke-linecap:butt;stroke-linejoin:miter;stroke:#000;stroke-opacity:1;stroke-miterlimit:4" transform="matrix(.04848 0 0 .03996 140.206 -1.559)"/><path d="M109.219 22.664h-.004c-.602.05-1.3.106-1.91.203-.086.117-.094.227.062.313.586-.09 1.274-.149 1.88-.2.816-.054 1.64-.085 2.464-.097h1.578c.492 0 1.531.035 2.465.101.93.063 1.879.196 1.879.196.16-.094.144-.203.055-.313 0 0-.958-.137-1.907-.203a41.988 41.988 0 0 0-2.492-.102h-1.578c-.832.004-1.664.051-2.492.102Zm0 0" style="stroke:none;fill-rule:nonzero;fill:#ffc72c;fill-opacity:1"/><path d="M-644.284 561.783h-.087c-13.344 1.27-28.856 2.64-42.374 5.083-1.906 2.933-2.08 5.67 1.387 7.821 12.998-2.248 28.25-3.715 41.68-4.985 18.112-1.37 36.396-1.76 54.68-1.956h35.008c10.919 0 33.969.391 54.68 2.053 20.623 1.564 41.68 4.888 41.68 4.888 3.553-2.346 3.206-5.083 1.213-7.82 0 0-21.23-3.422-42.287-5.084-20.97-1.662-44.02-2.053-55.286-2.053h-35.008a868.105 868.105 0 0 0-55.286 2.053Zm0 0" style="fill:none;stroke-width:1.379316;stroke-linecap:butt;stroke-linejoin:miter;stroke:#000;stroke-opacity:1;stroke-miterlimit:4" transform="matrix(.04508 0 0 .03996 138.262 .217)"/><path d="M2843.104 823.596h83.474c1.611 0 3.061 1.369 3.061 2.933v53.182c0 1.76-1.45 2.933-3.061 2.933h-83.474c-1.612 0-3.062-1.173-3.062-2.933V826.53c0-1.564 1.45-2.933 3.062-2.933Zm0 0" style="fill:none;stroke-width:2.660071;stroke-linecap:butt;stroke-linejoin:miter;stroke:#000;stroke-opacity:1;stroke-miterlimit:4" transform="matrix(.02424 0 0 .01998 42.57 4.78)"/><path d="M2854.867 831.417h59.947c2.9 0 5.157 2.15 5.157 5.083v33.24c0 2.932-2.256 5.279-5.157 5.279h-59.947c-2.9 0-5.156-2.347-5.156-5.28V836.5c0-2.932 2.256-5.083 5.156-5.083Zm0 0" style="fill-rule:evenodd;fill:#012169;fill-opacity:1;stroke-width:2.660071;stroke-linecap:butt;stroke-linejoin:miter;stroke:#a0892c;stroke-opacity:1;stroke-miterlimit:4" transform="matrix(.02424 0 0 .01998 42.57 4.78)"/><path d="M2918.52 873.454c-.967.978-2.256 1.565-3.706 1.565h-59.947c-1.45 0-2.74-.587-3.706-1.565-.806-.977-1.45-2.15-1.45-3.715V836.5c0-1.368.644-2.737 1.45-3.714.967-.783 68.165 39.69 67.36 40.668Zm0 0" style="fill-rule:evenodd;fill:#2b96f6;fill-opacity:1;stroke-width:2.660071;stroke-linecap:butt;stroke-linejoin:miter;stroke:#a0892c;stroke-opacity:1;stroke-miterlimit:4" transform="matrix(.02424 0 0 .01998 42.57 4.78)"/><path d="M2918.52 873.454c-.967.978-2.256 1.565-3.706 1.565h-59.947c-1.45 0-2.74-.587-3.706-1.565-.806-.977-1.45-2.15-1.45-3.715V836.5c0-1.368.644-2.737 1.45-3.714.483-.392 18.048 9.776 35.13 20.138 16.598 9.972 32.552 20.14 32.23 20.53Zm0 0" style="fill-rule:evenodd;fill:#012169;fill-opacity:1;stroke-width:2.660071;stroke-linecap:butt;stroke-linejoin:miter;stroke:#000;stroke-opacity:1;stroke-miterlimit:4" transform="matrix(.02424 0 0 .01998 42.57 4.78)"/><path d="M2918.52 832.786c.806.977 1.45 2.346 1.45 3.714v33.24c0 1.564-.644 2.737-1.45 3.714-.967.978-2.256 1.565-3.706 1.565h-59.947c-1.45 0-2.74-.587-3.706-1.565-.806-.977 66.392-41.45 67.36-40.668Zm0 0" style="fill-rule:evenodd;fill:#012169;fill-opacity:1;stroke-width:2.660071;stroke-linecap:butt;stroke-linejoin:miter;stroke:#000;stroke-opacity:1;stroke-miterlimit:4" transform="matrix(.02424 0 0 .01998 42.57 4.78)"/><path d="M2918.52 873.454c-.967.978-2.256 1.565-3.706 1.565h-59.947c-1.45 0-2.74-.587-3.706-1.565-.483-.39 16.598-11.144 33.68-21.507 0 0 34.485 20.53 33.68 21.507Zm0 0" style="fill-rule:evenodd;fill:#012169;fill-opacity:1;stroke-width:2.660071;stroke-linecap:butt;stroke-linejoin:miter;stroke:#000;stroke-opacity:1;stroke-miterlimit:4" transform="matrix(.02424 0 0 .01998 42.57 4.78)"/><path d="M2854.867 831.417h59.947c2.9 0 5.157 2.15 5.157 5.083v33.24c0 2.932-2.256 5.279-5.157 5.279h-59.947c-2.9 0-5.156-2.347-5.156-5.28V836.5c0-2.932 2.256-5.083 5.156-5.083Zm0 0" style="fill:none;stroke-width:2.660071;stroke-linecap:butt;stroke-linejoin:miter;stroke:#000;stroke-opacity:1;stroke-miterlimit:4" transform="matrix(.02424 0 0 .01998 42.57 4.78)"/><path d="M2865.18 841.389h39.32v22.29h-39.32Zm0 0" style="fill-rule:evenodd;fill:#012169;fill-opacity:1;stroke-width:2.660071;stroke-linecap:butt;stroke-linejoin:miter;stroke:#000;stroke-opacity:1;stroke-miterlimit:4" transform="matrix(.02424 0 0 .01998 42.57 4.78)"/><path d="m505.382 340.222 14.302.009c5.934-.033 10.817 4.828 10.74 10.713l.002 1.179c.016 5.894-4.796 10.765-10.73 10.797l-14.302-.008c-5.918-.064-10.723-4.818-10.724-10.81l-.018-1.082a10.762 10.762 0 0 1 10.73-10.798Zm0 0" style="fill-rule:evenodd;fill:#ffc72c;fill-opacity:1;stroke-width:1.428384;stroke-linecap:butt;stroke-linejoin:miter;stroke:#000;stroke-opacity:1;stroke-miterlimit:4" transform="matrix(.04151 -.0044 .00652 .03977 86.112 10.157)"/><path d="m505.837 343.317 13.362.003c4.624-.079 8.363 3.674 8.313 8.186.027 4.62-3.662 8.337-8.27 8.32l-13.362-.003c-4.609-.018-8.363-3.674-8.298-8.283-.043-4.523 3.647-8.24 8.255-8.223Zm0 0" style="fill-rule:evenodd;fill:#4a7729;fill-opacity:1;stroke-width:1.428384;stroke-linecap:butt;stroke-linejoin:miter;stroke:#000;stroke-opacity:1;stroke-miterlimit:4" transform="matrix(.04151 -.0044 .00652 .03977 86.112 10.157)"/><path d="m626.197 310.865-23.718-12.741 23.7-12.103 2.878 13.112Zm0 0" style="fill-rule:nonzero;fill:#ffc72c;fill-opacity:1;stroke-width:1.361212;stroke-linecap:butt;stroke-linejoin:miter;stroke:#000;stroke-opacity:1;stroke-miterlimit:4" transform="matrix(-.03923 .00737 .00742 .04575 129.518 3.84)"/><path d="m107.234 22.523.606-.55-.738-.274-.16.434Zm0 0" style="stroke:none;fill-rule:nonzero;fill:#e4002b;fill-opacity:1"/><path d="m107.234 22.523.606-.55-.89.16Zm0 0" style="stroke:none;fill-rule:nonzero;fill:#e4002b;fill-opacity:1"/><path d="m608.948 298.106 22.898-.02m-5.696 9.371-17.187-9.268 17.167-8.744 5.862 8.361Zm0 0" style="fill:none;stroke-width:1.361212;stroke-linecap:butt;stroke-linejoin:miter;stroke:#000;stroke-opacity:1;stroke-miterlimit:4" transform="matrix(-.03923 .00737 .00742 .04575 129.518 3.84)"/><path d="M467.461 353.676c0 1.362-.733 2.648-1.873 3.329-1.222.756-2.689.756-3.83 0a3.814 3.814 0 0 1-1.954-3.329c0-1.437.733-2.723 1.955-3.404 1.14-.681 2.607-.681 3.829 0 1.14.68 1.873 1.967 1.873 3.404Zm0 0" style="fill-rule:nonzero;fill:#fff;fill-opacity:1;stroke-width:1.176461;stroke-linecap:butt;stroke-linejoin:miter;stroke:#000;stroke-opacity:1;stroke-miterlimit:4" transform="matrix(.04795 0 0 .05164 88.66 3.257)"/><path d="M468.276 365.856c0 1.362-.733 2.648-1.955 3.404-1.14.681-2.607.681-3.829 0-1.14-.756-1.874-2.042-1.874-3.404s.733-2.648 1.874-3.404c1.222-.681 2.688-.681 3.829 0 1.222.756 1.955 2.042 1.955 3.404Zm0 0" style="fill-rule:nonzero;fill:#fff;fill-opacity:1;stroke-width:1.175804;stroke-linecap:butt;stroke-linejoin:miter;stroke:#000;stroke-opacity:1;stroke-miterlimit:4" transform="matrix(.04795 0 0 .05164 88.66 3.257)"/><path d="M416.057 356.475c0 1.362-.733 2.648-1.955 3.405-1.14.68-2.607.68-3.83 0-1.14-.757-1.873-2.043-1.873-3.405 0-1.362.733-2.648 1.874-3.404 1.222-.681 2.688-.681 3.829 0 1.222.756 1.955 2.042 1.955 3.404Zm.733 12.18c0 1.437-.652 2.648-1.874 3.404-1.222.681-2.607.681-3.829 0-1.14-.756-1.873-1.967-1.873-3.404 0-1.362.733-2.648 1.873-3.329 1.222-.756 2.607-.756 3.83 0 1.221.681 1.873 1.967 1.873 3.329Zm0 0" style="fill-rule:nonzero;fill:#fff;fill-opacity:1;stroke-width:1.176461;stroke-linecap:butt;stroke-linejoin:miter;stroke:#000;stroke-opacity:1;stroke-miterlimit:4" transform="matrix(.04795 0 0 .05164 88.66 3.257)"/><path d="m505.382 340.223 14.303.008c5.933-.033 10.723 4.818 10.739 10.713l.003 1.179c.015 5.894-4.796 10.765-10.73 10.797l-14.302-.008c-5.919-.064-10.724-4.818-10.724-10.81l-.018-1.082a10.762 10.762 0 0 1 10.73-10.797Zm0 0" style="fill-rule:evenodd;fill:#ffc72c;fill-opacity:1;stroke-width:1.428384;stroke-linecap:butt;stroke-linejoin:miter;stroke:#000;stroke-opacity:1;stroke-miterlimit:4" transform="matrix(-.04151 -.0044 -.00652 .03977 138.888 10.157)"/><path d="m505.837 343.318 13.362.002c4.624-.079 8.363 3.674 8.313 8.186.028 4.62-3.662 8.337-8.27 8.32l-13.362-.003c-4.608-.018-8.363-3.674-8.298-8.283-.042-4.523 3.647-8.24 8.255-8.222Zm0 0" style="fill-rule:evenodd;fill:#4a7729;fill-opacity:1;stroke-width:1.428384;stroke-linecap:butt;stroke-linejoin:miter;stroke:#000;stroke-opacity:1;stroke-miterlimit:4" transform="matrix(-.04151 -.0044 -.00652 .03977 138.888 10.157)"/><path d="m626.196 310.865-23.717-12.741 23.7-12.103 2.878 13.113Zm0 0" style="fill-rule:nonzero;fill:#ffc72c;fill-opacity:1;stroke-width:1.361212;stroke-linecap:butt;stroke-linejoin:miter;stroke:#000;stroke-opacity:1;stroke-miterlimit:4" transform="matrix(.03923 .00737 -.00742 .04575 95.482 3.84)"/><path d="m117.766 22.523-.606-.55.738-.274.16.434Zm0 0" style="stroke:none;fill-rule:nonzero;fill:#e4002b;fill-opacity:1"/><path d="m117.766 22.523-.606-.55.89.16Zm0 0" style="stroke:none;fill-rule:nonzero;fill:#e4002b;fill-opacity:1"/><path d="m608.947 298.106 22.899-.02m-5.697 9.371-17.186-9.268 17.167-8.744 5.862 8.361Zm0 0" style="fill:none;stroke-width:1.361212;stroke-linecap:butt;stroke-linejoin:miter;stroke:#000;stroke-opacity:1;stroke-miterlimit:4" transform="matrix(.03923 .00737 -.00742 .04575 95.482 3.84)"/><path d="M467.462 353.676c0 1.362-.733 2.648-1.874 3.329-1.222.756-2.688.756-3.829 0a3.814 3.814 0 0 1-1.955-3.329c0-1.437.733-2.723 1.955-3.404 1.14-.681 2.607-.681 3.829 0 1.14.68 1.874 1.967 1.874 3.404Zm.814 12.18c0 1.362-.733 2.648-1.955 3.404-1.14.681-2.607.681-3.829 0-1.14-.756-1.873-2.042-1.873-3.404s.733-2.648 1.873-3.404c1.222-.681 2.689-.681 3.83 0 1.221.756 1.954 2.042 1.954 3.404Zm-52.219-9.38c0 1.36-.733 2.647-1.955 3.404-1.14.68-2.607.68-3.829 0-1.14-.757-1.874-2.043-1.874-3.405 0-1.362.734-2.648 1.874-3.404 1.222-.681 2.688-.681 3.829 0 1.222.756 1.955 2.042 1.955 3.404Zm.733 12.179c0 1.437-.651 2.648-1.873 3.404-1.222.681-2.607.681-3.83 0-1.14-.756-1.873-1.967-1.873-3.404 0-1.362.733-2.648 1.874-3.329 1.222-.756 2.607-.756 3.829 0 1.222.681 1.873 1.967 1.873 3.329Zm0 0" style="fill-rule:nonzero;fill:#fff;fill-opacity:1;stroke-width:1.176461;stroke-linecap:butt;stroke-linejoin:miter;stroke:#000;stroke-opacity:1;stroke-miterlimit:4" transform="matrix(-.04795 0 0 .05164 136.34 3.257)"/></svg>