<?xml version="1.0" encoding="UTF-8"?>
<svg xmlns="http://www.w3.org/2000/svg" xmlns:xlink="http://www.w3.org/1999/xlink" width="150px" height="150px" viewBox="0 0 150 99" version="1.1">
<g id="surface1">
<path style=" stroke:none;fill-rule:evenodd;fill:rgb(100%,100%,100%);fill-opacity:1;" d="M 114.375 12.199219 C 113.988281 12.585938 114.375 13.117188 114.863281 12.863281 C 115.378906 12.601562 115.40625 12.507812 115.03125 12.277344 C 114.652344 12.046875 114.539062 12.035156 114.375 12.199219 M 108.007812 12.363281 L 107.777344 12.550781 L 108.121094 12.761719 C 108.554688 13.023438 108.558594 13.023438 108.699219 12.710938 C 108.917969 12.230469 108.460938 12 108.007812 12.363281 M 104.414062 12.351562 C 104.339844 12.425781 104.339844 12.910156 104.417969 13.109375 C 104.480469 13.273438 104.878906 13.238281 105.125 13.042969 C 105.359375 12.855469 105.273438 12.484375 104.976562 12.417969 C 104.824219 12.386719 104.652344 12.34375 104.589844 12.324219 C 104.527344 12.304688 104.449219 12.316406 104.414062 12.351562 M 117.644531 12.445312 C 117.253906 12.519531 117.464844 12.722656 117.96875 12.753906 C 118.425781 12.78125 118.675781 12.65625 118.550781 12.457031 C 118.5 12.375 118.046875 12.371094 117.644531 12.445312 M 101.253906 13.152344 C 101.019531 13.410156 101.050781 13.648438 101.339844 13.78125 C 101.707031 13.949219 101.925781 13.640625 101.722656 13.246094 C 101.554688 12.921875 101.476562 12.90625 101.253906 13.152344 M 121.214844 13.292969 L 121.007812 13.515625 L 121.234375 13.683594 C 121.554688 13.921875 121.878906 13.617188 121.667969 13.277344 C 121.503906 13.015625 121.46875 13.019531 121.214844 13.292969 M 46.210938 13.324219 C 45.878906 13.503906 45.878906 13.480469 46.226562 13.738281 L 46.507812 13.949219 L 46.613281 13.714844 C 46.785156 13.34375 46.570312 13.132812 46.210938 13.324219 M 49.277344 13.34375 C 49.128906 13.507812 49.128906 13.542969 49.296875 13.796875 L 49.480469 14.074219 L 49.691406 13.804688 C 50.015625 13.390625 49.625 12.960938 49.277344 13.34375 M 31.1875 13.417969 C 31.085938 13.539062 31.09375 13.605469 31.238281 13.765625 C 31.46875 14.015625 31.527344 14.011719 31.660156 13.726562 C 31.835938 13.339844 31.453125 13.09375 31.1875 13.417969 M 28.332031 13.457031 C 28.234375 13.515625 28.238281 13.558594 28.351562 13.648438 C 28.460938 13.742188 28.503906 13.734375 28.546875 13.621094 C 28.617188 13.441406 28.5 13.351562 28.332031 13.457031 M 36.363281 14.285156 C 36.261719 14.511719 36.382812 14.949219 36.550781 14.949219 C 36.769531 14.949219 37.042969 14.539062 36.921875 14.394531 C 36.671875 14.09375 36.46875 14.054688 36.363281 14.285156 M 43.355469 14.292969 C 43.191406 14.652344 43.386719 15.136719 43.621094 14.945312 C 43.941406 14.679688 43.964844 14.492188 43.714844 14.257812 L 43.472656 14.03125 L 43.355469 14.292969 M 124.375 14.277344 C 124.03125 14.621094 124.386719 15.140625 124.816406 14.917969 C 125.367188 14.632812 125.417969 14.476562 125.015625 14.308594 C 124.585938 14.128906 124.527344 14.125 124.375 14.277344 M 97.945312 14.382812 L 97.621094 14.484375 L 98.039062 14.671875 C 98.4375 14.851562 98.46875 14.851562 98.585938 14.691406 C 98.839844 14.34375 98.53125 14.195312 97.945312 14.382812 M 40.691406 14.449219 L 40.445312 14.527344 L 40.710938 14.597656 C 41.070312 14.695312 41.535156 14.5625 41.238281 14.449219 C 41.003906 14.355469 41.007812 14.355469 40.691406 14.449219 M 25.316406 14.714844 C 25.1875 14.964844 25.183594 15.046875 25.304688 15.332031 C 25.480469 15.75 25.644531 15.648438 25.640625 15.117188 C 25.640625 14.519531 25.503906 14.351562 25.316406 14.714844 M 33.464844 14.53125 C 33.464844 14.574219 33.644531 14.59375 33.863281 14.570312 C 34.078125 14.550781 34.257812 14.515625 34.257812 14.496094 C 34.257812 14.472656 34.078125 14.457031 33.863281 14.457031 C 33.644531 14.457031 33.464844 14.488281 33.464844 14.53125 M 52.324219 14.855469 C 52.242188 14.988281 52.367188 15.542969 52.484375 15.542969 C 52.535156 15.542969 52.574219 15.367188 52.574219 15.148438 C 52.574219 14.769531 52.460938 14.636719 52.324219 14.855469 M 55.320312 15.355469 C 55.160156 15.449219 55.160156 15.476562 55.308594 15.765625 L 55.46875 16.078125 L 55.617188 15.796875 C 55.796875 15.453125 55.617188 15.1875 55.320312 15.355469 M 94.386719 15.40625 C 94.242188 15.785156 94.492188 15.984375 94.789062 15.730469 L 95.0625 15.492188 L 94.753906 15.378906 C 94.496094 15.28125 94.433594 15.285156 94.386719 15.40625 M 22.199219 15.429688 C 22.105469 15.492188 22.125 15.554688 22.28125 15.695312 C 22.457031 15.855469 22.5 15.863281 22.578125 15.738281 C 22.753906 15.460938 22.488281 15.242188 22.199219 15.429688 M 19.308594 17.96875 C 19.308594 18.386719 19.339844 18.515625 19.457031 18.515625 C 19.570312 18.515625 19.605469 18.386719 19.605469 17.96875 C 19.605469 17.550781 19.570312 17.425781 19.457031 17.425781 C 19.339844 17.425781 19.308594 17.550781 19.308594 17.96875 M 130.496094 17.5625 C 130.496094 17.765625 130.960938 17.851562 131.191406 17.691406 C 131.445312 17.511719 131.339844 17.425781 130.875 17.425781 C 130.617188 17.425781 130.496094 17.46875 130.496094 17.5625 M 18.332031 20.976562 C 18.183594 21.480469 18.1875 21.550781 18.378906 21.625 C 18.679688 21.742188 18.800781 21.523438 18.675781 21.09375 C 18.515625 20.554688 18.464844 20.535156 18.332031 20.976562 M 59.082031 20.714844 C 58.839844 20.894531 58.695312 21.445312 58.855469 21.578125 C 59.394531 22.027344 59.894531 21.71875 59.6875 21.066406 C 59.546875 20.617188 59.359375 20.511719 59.082031 20.714844 M 90.4375 20.945312 C 90.3125 21.441406 90.417969 21.636719 90.792969 21.601562 C 91.261719 21.554688 91.332031 21.460938 91.152344 21.113281 C 90.949219 20.722656 90.515625 20.621094 90.4375 20.945312 M 43.28125 22.238281 C 43.121094 22.589844 43.371094 23.027344 43.648438 22.878906 C 44.046875 22.664062 44.105469 22.488281 43.859375 22.226562 C 43.566406 21.914062 43.425781 21.917969 43.28125 22.238281 M 33.371094 22.367188 C 33.207031 22.675781 33.480469 22.820312 34.03125 22.714844 C 34.664062 22.589844 34.675781 22.417969 34.058594 22.285156 C 33.429688 22.152344 33.488281 22.144531 33.371094 22.367188 M 18.3125 24.121094 C 18.152344 24.601562 18.367188 24.863281 18.757812 24.65625 L 19.003906 24.523438 L 18.792969 24.144531 C 18.527344 23.671875 18.460938 23.667969 18.3125 24.121094 M 58.382812 24.265625 C 58.039062 24.757812 58.65625 25.011719 59.222656 24.613281 C 59.425781 24.472656 59.425781 24.472656 59.191406 24.324219 C 58.757812 24.050781 58.542969 24.035156 58.382812 24.265625 M 91.128906 24.265625 C 90.945312 24.46875 90.945312 24.476562 91.132812 24.613281 C 91.507812 24.886719 91.890625 24.644531 91.6875 24.261719 C 91.546875 24.003906 91.367188 24.003906 91.128906 24.265625 M 131.207031 24.285156 L 130.992188 24.515625 L 131.277344 24.683594 C 131.652344 24.902344 131.878906 24.699219 131.699219 24.304688 C 131.5625 24 131.476562 24 131.207031 24.285156 M 25.003906 24.339844 L 24.613281 24.515625 L 24.96875 24.730469 C 25.5625 25.097656 26.101562 24.808594 25.6875 24.347656 C 25.480469 24.121094 25.492188 24.121094 25.003906 24.339844 M 51.421875 24.410156 C 51.3125 24.6875 51.460938 24.859375 51.753906 24.792969 C 52.949219 24.523438 52.996094 24.4375 52 24.324219 C 51.59375 24.277344 51.464844 24.296875 51.421875 24.410156 M 25.320312 30.339844 C 25.109375 30.496094 25.09375 30.921875 25.296875 31.085938 C 25.660156 31.390625 26.027344 30.734375 25.679688 30.394531 C 25.523438 30.238281 25.46875 30.230469 25.320312 30.339844 M 4.972656 33.144531 C 4.554688 33.265625 4.4375 33.34375 4.378906 33.554688 C 4.242188 34.039062 4.292969 65.398438 4.429688 65.5625 C 4.710938 65.902344 5.453125 65.929688 13.464844 65.898438 C 23.117188 65.859375 22.976562 65.875 22.722656 64.945312 C 22.117188 62.714844 22.175781 64.386719 22.167969 48.910156 C 22.164062 32.507812 22.226562 33.539062 21.238281 33.25 C 20.953125 33.167969 18.707031 33.132812 13.265625 33.125 C 9.101562 33.117188 5.648438 33.085938 5.59375 33.054688 C 5.539062 33.023438 5.261719 33.0625 4.972656 33.144531 M 145.230469 33.023438 C 145.199219 33.050781 141.539062 33.09375 137.09375 33.117188 C 129.449219 33.160156 128.519531 33.191406 128.160156 33.441406 C 127.839844 33.660156 127.816406 34.667969 127.820312 47.980469 C 127.824219 64.683594 127.8125 64.953125 126.96875 65.425781 C 126.847656 65.492188 126.929688 65.566406 127.34375 65.75 L 127.871094 65.992188 L 145.597656 66.046875 L 146.136719 65.484375 L 146.140625 49.921875 C 146.140625 41.363281 146.113281 34.171875 146.078125 33.9375 C 145.992188 33.371094 145.457031 32.792969 145.230469 33.023438 M 56.664062 33.175781 C 56.140625 33.28125 55.808594 33.507812 55.714844 33.8125 C 55.667969 33.976562 55.613281 40.394531 55.59375 48.382812 C 55.558594 63.609375 55.566406 63.375 55.0625 64.171875 C 54.910156 64.410156 54.71875 64.8125 54.632812 65.0625 L 54.472656 65.523438 L 54.886719 65.628906 C 55.113281 65.683594 55.410156 65.761719 55.542969 65.800781 C 56.117188 65.960938 94.304688 66.046875 95.007812 65.890625 C 95.699219 65.734375 96.003906 65.519531 95.789062 65.34375 C 95.617188 65.203125 94.863281 64.070312 94.59375 63.546875 C 94.453125 63.269531 94.378906 43.679688 94.488281 34.949219 C 94.5 33.957031 94.339844 33.53125 93.867188 33.320312 C 93.476562 33.144531 57.5 33.003906 56.664062 33.175781 M 119.292969 38.234375 C 119.207031 38.390625 119.175781 38.792969 119.195312 39.476562 C 119.246094 41.148438 118.992188 41.402344 117.300781 41.378906 C 115.859375 41.359375 115.804688 41.382812 115.890625 41.96875 C 115.984375 42.59375 115.949219 42.574219 116.910156 42.578125 C 118.714844 42.585938 119.128906 42.832031 119.1875 43.933594 C 119.246094 44.996094 119.003906 45.277344 117.722656 45.636719 C 116.800781 45.890625 116.578125 45.894531 116.003906 45.640625 C 115.484375 45.410156 115.285156 45.464844 114.972656 45.914062 C 114.425781 46.707031 114.6875 46.839844 116.640625 46.765625 C 119.355469 46.664062 119.214844 46.417969 119.277344 51.421875 C 119.332031 56.171875 119.34375 56.246094 119.941406 55.511719 L 120.246094 55.128906 L 120.296875 51.453125 C 120.363281 46.535156 120.277344 46.683594 123.039062 46.761719 C 124.984375 46.820312 125.046875 46.792969 124.796875 45.957031 C 124.628906 45.386719 124.265625 45.261719 123.78125 45.601562 C 123.226562 45.992188 121.066406 45.503906 120.695312 44.902344 C 119.894531 43.613281 120.785156 42.5 122.523438 42.617188 C 123.820312 42.703125 123.863281 42.6875 123.863281 42.023438 C 123.863281 41.332031 123.777344 41.292969 122.476562 41.351562 C 120.804688 41.429688 119.960938 40.515625 120.449219 39.144531 C 120.648438 38.585938 120.625 38.4375 120.320312 38.28125 C 119.769531 38 119.433594 37.984375 119.292969 38.234375 M 99.503906 38.414062 C 95.84375 38.480469 95.742188 38.527344 95.742188 40.199219 C 95.742188 41.929688 95.230469 41.824219 103.613281 41.828125 C 111.765625 41.832031 111.164062 41.976562 111.074219 40.03125 C 111.019531 38.84375 110.789062 38.546875 109.855469 38.472656 C 108.847656 38.390625 102.796875 38.359375 99.503906 38.414062 M 24.359375 44.875 C 23.378906 45.34375 23.453125 44.972656 23.449219 49.511719 L 23.449219 53.5 L 23.679688 53.6875 C 23.808594 53.789062 24.144531 53.984375 24.433594 54.117188 L 24.957031 54.355469 L 53.019531 54.355469 L 53.53125 54.117188 C 54.308594 53.753906 54.28125 53.9375 54.242188 49.515625 C 54.203125 45.074219 54.234375 45.246094 53.417969 44.863281 L 52.960938 44.648438 L 38.941406 44.625 L 24.921875 44.605469 L 24.359375 44.875 M 96.519531 46.054688 C 95.886719 46.226562 95.792969 46.421875 95.792969 47.546875 C 95.792969 48.691406 95.957031 48.929688 96.828125 49.082031 C 97.398438 49.179688 110.058594 49.183594 110.410156 49.085938 C 111.074219 48.898438 111.335938 46.835938 110.765625 46.265625 L 110.492188 45.988281 L 103.6875 45.972656 C 99.453125 45.964844 96.742188 45.996094 96.519531 46.054688 M 96.457031 53.878906 C 95.824219 54.1875 95.71875 54.46875 95.800781 55.605469 C 95.902344 57.007812 95.128906 56.875 103.480469 56.910156 L 110.476562 56.9375 L 110.734375 56.710938 C 111.285156 56.226562 111.289062 54.472656 110.734375 53.953125 L 110.480469 53.710938 L 103.679688 53.691406 C 96.945312 53.667969 96.878906 53.671875 96.457031 53.878906 M 96.519531 61.453125 C 95.90625 61.613281 95.574219 63.152344 95.980469 63.9375 C 96.285156 64.535156 96.839844 64.578125 103.960938 64.597656 C 109.085938 64.609375 109.695312 64.628906 110.085938 64.78125 C 110.609375 64.984375 110.695312 64.917969 110.941406 64.109375 C 111.289062 62.980469 111.121094 61.832031 110.554688 61.460938 C 110.441406 61.386719 96.804688 61.375 96.519531 61.453125 "/>
<path style=" stroke:none;fill-rule:evenodd;fill:rgb(2.352941%,54.11765%,28.627452%);fill-opacity:1;" d="M 3.945312 33.242188 C 3.808594 33.574219 3.765625 65.226562 3.898438 65.691406 C 3.980469 65.984375 3.984375 65.980469 4.121094 65.457031 C 4.261719 64.917969 4.222656 32.96875 4.082031 32.96875 C 4.066406 32.96875 4.003906 33.09375 3.945312 33.242188 M 146.550781 33.414062 C 146.554688 33.578125 146.484375 34.050781 146.394531 34.464844 C 146.195312 35.417969 146.195312 35.070312 146.214844 51.417969 C 146.226562 65.554688 146.230469 65.433594 145.808594 65.828125 L 145.558594 66.0625 L 135.578125 65.988281 C 111.511719 65.8125 112.808594 65.773438 112.023438 66.695312 C 111.375 67.457031 110.992188 67.453125 110.253906 66.6875 C 109.480469 65.878906 109.863281 65.921875 103.316406 65.9375 C 76.320312 66.007812 75.746094 66.015625 75.246094 66.304688 L 75 66.449219 L 75 80.789062 C 75.003906 97.230469 74.875 95.421875 76.042969 95.6875 C 76.652344 95.824219 80.351562 95.839844 111.1875 95.839844 L 145.652344 95.839844 L 145.886719 95.605469 C 146.339844 95.152344 146.335938 95.304688 146.335938 80.542969 L 146.335938 66.480469 L 146.882812 65.691406 L 146.882812 49.703125 C 146.882812 34.925781 146.867188 33.691406 146.714844 33.414062 L 146.550781 33.117188 L 146.550781 33.414062 M 118.21875 58.003906 C 117.917969 58.101562 117.535156 58.257812 117.367188 58.34375 C 116.976562 58.546875 116.671875 58.59375 115.675781 58.605469 L 114.867188 58.613281 L 114.328125 59.382812 C 113.691406 60.277344 113.359375 60.648438 112.839844 61.039062 C 111.910156 61.734375 111.398438 63.121094 111.78125 63.914062 C 112.132812 64.640625 111.773438 64.605469 118.902344 64.605469 L 125.296875 64.605469 L 125.671875 64.371094 C 126.902344 63.605469 126.902344 60.816406 125.675781 58.964844 C 125.601562 58.855469 125.542969 58.800781 125.542969 58.84375 C 125.542969 58.886719 125.445312 58.851562 125.324219 58.769531 C 125.203125 58.683594 124.925781 58.613281 124.707031 58.613281 C 124.09375 58.613281 123.085938 58.433594 122.375 58.195312 C 121.890625 58.035156 121.464844 57.976562 120.644531 57.96875 C 120.042969 57.960938 119.375 57.925781 119.160156 57.886719 C 118.890625 57.84375 118.589844 57.882812 118.21875 58.003906 "/>
<path style=" stroke:none;fill-rule:evenodd;fill:rgb(2.352941%,1.568628%,1.568628%);fill-opacity:1;" d="M 0 49.503906 L 0 99.007812 L 150 99.007812 L 150 0 L 0 0 L 0 49.503906 M 145.734375 4.277344 C 146.382812 4.734375 146.332031 3.621094 146.335938 17.917969 C 146.335938 26.597656 146.304688 31.097656 146.230469 31.636719 L 146.125 32.4375 L 146.503906 33.074219 L 146.882812 33.707031 L 146.882812 65.691406 L 146.335938 66.480469 L 146.335938 80.542969 C 146.335938 95.304688 146.339844 95.152344 145.886719 95.605469 L 145.652344 95.839844 L 111.1875 95.839844 C 73.328125 95.839844 75.621094 95.878906 75.148438 95.277344 L 74.949219 95.023438 L 74.5625 95.289062 C 73.710938 95.882812 76.296875 95.84375 39.21875 95.835938 C 13.132812 95.832031 5.117188 95.804688 4.851562 95.710938 C 4.164062 95.476562 4.210938 96.554688 4.183594 80.617188 C 4.164062 67.082031 4.152344 66.214844 3.988281 65.914062 C 3.820312 65.613281 3.8125 64.703125 3.816406 49.546875 L 3.820312 33.503906 L 4.097656 32.976562 C 4.359375 32.476562 4.367188 32.417969 4.265625 31.835938 C 4.117188 30.992188 4.117188 5.453125 4.261719 4.925781 C 4.394531 4.449219 4.742188 4.222656 5.441406 4.160156 C 7.207031 4 145.503906 4.117188 145.734375 4.277344 "/>
<path style=" stroke:none;fill-rule:evenodd;fill:rgb(83.92157%,12.54902%,1.568628%);fill-opacity:1;" d="M 5.441406 4.160156 C 4.742188 4.222656 4.394531 4.449219 4.261719 4.925781 C 4.117188 5.445312 4.117188 31.03125 4.261719 31.820312 C 4.351562 32.289062 4.339844 32.460938 4.207031 32.816406 C 4.0625 33.1875 4.054688 33.445312 4.132812 34.816406 L 4.226562 36.386719 L 4.242188 34.945312 C 4.257812 33.277344 4.3125 33.164062 5.117188 32.988281 C 5.554688 32.894531 19.941406 32.898438 23.367188 32.996094 C 25.488281 33.054688 26.089844 32.792969 25.425781 32.105469 C 25.015625 31.679688 24.632812 30.875 24.445312 30.042969 C 24.355469 29.648438 24.199219 29.332031 23.941406 29.019531 C 23.734375 28.769531 23.40625 28.339844 23.214844 28.0625 L 22.867188 27.558594 L 23.109375 27.03125 C 23.621094 25.925781 22.40625 24.773438 21.089844 25.121094 C 20.878906 25.175781 20.808594 25.582031 20.988281 25.691406 C 21.042969 25.726562 21.179688 26.058594 21.292969 26.429688 C 21.40625 26.804688 21.585938 27.1875 21.691406 27.285156 C 21.957031 27.523438 21.78125 27.621094 21.082031 27.621094 C 20.234375 27.625 19.378906 26.746094 19.6875 26.183594 C 20.054688 25.519531 20.359375 25.140625 20.574219 25.085938 C 20.953125 24.984375 20.84375 24.378906 20.394531 24.089844 C 19.789062 23.695312 19.789062 23.695312 19.859375 23.074219 C 19.902344 22.683594 19.875 22.335938 19.773438 21.96875 C 19.605469 21.382812 19.648438 20.914062 19.945312 20.03125 C 20.171875 19.355469 20.152344 19.316406 19.351562 18.910156 L 18.664062 18.5625 L 18.632812 18.085938 C 18.550781 16.804688 19.78125 16.71875 20.199219 17.976562 C 20.449219 18.71875 20.394531 18.6875 20.785156 18.324219 C 20.953125 18.164062 21.230469 18.003906 21.398438 17.96875 C 22.09375 17.816406 22.171875 17.292969 21.621094 16.453125 C 21.0625 15.601562 21.164062 15.242188 22.023438 15.050781 C 22.691406 14.902344 23.070312 15.226562 23.070312 15.953125 C 23.070312 16.515625 23.25 16.734375 23.710938 16.734375 C 24.21875 16.734375 25.078125 16.511719 24.929688 16.421875 C 24.714844 16.289062 24.78125 14.695312 25.011719 14.441406 C 25.515625 13.882812 25.894531 14.109375 26.238281 15.179688 C 26.359375 15.546875 26.484375 15.835938 26.519531 15.816406 C 26.554688 15.796875 26.75 15.707031 26.953125 15.613281 C 27.597656 15.320312 27.757812 14.78125 27.425781 14.03125 C 27.179688 13.472656 27.234375 13.316406 27.757812 13.125 C 28.652344 12.800781 28.914062 12.945312 29.125 13.882812 C 29.289062 14.621094 29.4375 14.765625 29.875 14.613281 C 30.25 14.484375 30.277344 14.4375 30.441406 13.640625 C 30.523438 13.253906 31.304688 12.800781 31.632812 12.953125 C 32.089844 13.160156 32.199219 13.460938 32.027344 14.042969 C 31.863281 14.59375 31.902344 14.757812 32.273438 15.097656 C 32.566406 15.363281 32.765625 15.214844 32.972656 14.570312 C 33.226562 13.800781 33.367188 13.683594 33.988281 13.738281 C 34.8125 13.8125 35.148438 14.273438 34.972656 15.089844 C 34.882812 15.503906 34.894531 15.550781 35.109375 15.691406 C 35.617188 16.023438 35.953125 15.742188 35.871094 15.054688 C 35.804688 14.488281 35.960938 13.972656 36.285156 13.667969 L 36.523438 13.441406 L 37.015625 13.742188 C 37.742188 14.191406 38.019531 13.785156 38.019531 12.261719 L 38.019531 11.503906 L 37.574219 11.078125 C 37.023438 10.554688 37.023438 10.558594 37.597656 10.007812 C 37.859375 9.757812 38.160156 9.421875 38.273438 9.261719 L 38.480469 8.96875 L 39.238281 9.714844 C 40.125 10.582031 40.121094 10.5625 39.589844 11.140625 C 39.085938 11.6875 38.921875 13.042969 39.25 13.90625 L 39.417969 14.34375 L 39.863281 14.003906 C 40.128906 13.804688 40.421875 13.664062 40.578125 13.667969 C 41.804688 13.695312 42.121094 14.136719 41.820312 15.402344 C 41.785156 15.550781 41.839844 15.636719 42.027344 15.722656 C 42.648438 16.007812 42.9375 15.769531 42.886719 15.007812 C 42.789062 13.425781 43.429688 13.179688 44.566406 14.367188 C 45.25 15.082031 45.5 15.167969 45.820312 14.796875 L 46.058594 14.519531 L 45.605469 14.082031 C 45.074219 13.574219 45.074219 13.570312 45.382812 13.277344 C 46.253906 12.460938 47.222656 12.90625 47.070312 14.050781 C 46.941406 15.023438 48.371094 15.089844 48.621094 14.117188 C 48.832031 13.308594 48.867188 13.234375 49.125 13.042969 C 49.4375 12.808594 49.761719 12.859375 50.164062 13.203125 L 50.433594 13.4375 L 50.207031 13.964844 C 49.546875 15.496094 50.546875 16.515625 51.28125 15.0625 C 51.644531 14.339844 52.308594 13.976562 52.667969 14.300781 C 52.9375 14.546875 53.050781 15.804688 52.84375 16.222656 C 52.695312 16.519531 52.699219 16.523438 52.996094 16.628906 C 53.710938 16.875 54.429688 16.648438 54.507812 16.148438 C 54.625 15.421875 54.664062 15.335938 54.976562 15.144531 C 55.945312 14.554688 56.351562 15.261719 55.886719 16.726562 C 55.601562 17.632812 55.632812 17.777344 56.183594 18.074219 C 56.609375 18.304688 56.953125 18.171875 57.226562 17.671875 C 57.457031 17.25 58.433594 17 58.714844 17.289062 C 59.222656 17.804688 58.929688 18.828125 58.238281 18.960938 C 57.398438 19.117188 57.210938 19.417969 57.636719 19.9375 C 58.140625 20.542969 58.402344 20.628906 59.003906 20.378906 C 59.636719 20.117188 59.824219 20.242188 59.980469 21.019531 C 60.15625 21.902344 59.851562 22.089844 58.644531 21.828125 C 58.160156 21.722656 57.820312 22.105469 57.820312 22.761719 C 57.820312 23.132812 57.773438 23.289062 57.636719 23.386719 C 56.925781 23.886719 56.820312 24.972656 57.441406 25.46875 C 58.222656 26.097656 58.148438 26.863281 57.253906 27.429688 C 56.222656 28.085938 55.894531 27.816406 56.066406 26.457031 C 56.277344 24.808594 55.59375 24.449219 54.519531 25.640625 C 53.949219 26.269531 53.910156 26.464844 54.222656 27.039062 L 54.488281 27.527344 L 54.25 28.03125 C 54.121094 28.3125 53.800781 28.753906 53.542969 29.015625 C 53.101562 29.457031 53.070312 29.523438 53.070312 30 C 53.070312 30.863281 52.816406 31.53125 52.296875 32.042969 L 51.835938 32.496094 L 52.136719 32.765625 C 52.433594 33.027344 52.445312 33.03125 53.667969 32.996094 C 56.757812 32.902344 93.425781 32.898438 94.773438 32.988281 C 96.339844 33.09375 97.140625 33.007812 97.523438 32.691406 C 97.738281 32.511719 97.195312 31.164062 96.578125 30.335938 C 96.449219 30.167969 96.195312 29.714844 96.007812 29.332031 C 95.820312 28.949219 95.558594 28.484375 95.421875 28.304688 C 95.285156 28.121094 95.070312 27.769531 94.949219 27.523438 C 94.824219 27.28125 94.628906 26.945312 94.507812 26.78125 C 94.390625 26.617188 94.191406 26.164062 94.066406 25.769531 C 93.898438 25.238281 93.789062 25.039062 93.628906 24.988281 C 93.324219 24.894531 92.773438 24.453125 92.773438 24.308594 C 92.773438 23.921875 92.492188 23.96875 92.363281 24.378906 C 92.097656 25.210938 91.160156 25.363281 90.710938 24.648438 C 90.472656 24.265625 91.207031 23.265625 91.730469 23.265625 C 92.214844 23.265625 92.53125 22.492188 92.210938 22.09375 C 92.019531 21.859375 91.359375 21.785156 90.71875 21.925781 C 90.292969 22.019531 90.054688 21.710938 90.085938 21.109375 C 90.121094 20.441406 90.328125 20.160156 90.726562 20.242188 C 90.898438 20.277344 91.308594 20.351562 91.632812 20.40625 C 92.050781 20.476562 92.296875 20.578125 92.453125 20.746094 C 92.578125 20.882812 92.722656 20.992188 92.769531 20.992188 C 92.820312 20.992188 92.851562 21.066406 92.847656 21.164062 C 92.816406 21.5625 93.113281 22.648438 93.335938 22.945312 C 93.464844 23.121094 93.632812 23.457031 93.707031 23.6875 C 94.109375 24.972656 94.324219 25.105469 95.023438 24.503906 C 95.246094 24.3125 95.453125 24.160156 95.484375 24.160156 C 95.746094 24.160156 96.695312 24.945312 96.992188 25.40625 C 97.667969 26.464844 98.46875 27.199219 98.707031 26.984375 C 99.042969 26.679688 99.308594 24.859375 99.308594 22.828125 C 99.308594 21.570312 100.367188 21.605469 101.039062 22.886719 C 101.179688 23.15625 101.441406 23.585938 101.625 23.839844 C 101.808594 24.097656 101.984375 24.398438 102.019531 24.515625 C 102.402344 25.773438 103.390625 25.074219 103.71875 23.3125 C 104.167969 20.902344 104.394531 20.675781 105.054688 21.988281 C 105.316406 22.511719 105.503906 22.773438 105.621094 22.773438 C 105.714844 22.773438 105.957031 22.800781 106.164062 22.835938 L 106.53125 22.898438 L 106.839844 22.214844 C 107.007812 21.839844 107.191406 21.445312 107.242188 21.332031 C 107.296875 21.21875 107.617188 20.839844 107.953125 20.492188 C 108.511719 19.914062 108.882812 19.582031 109.734375 18.890625 C 110.097656 18.589844 110.191406 18.140625 110.195312 16.660156 L 110.199219 15.453125 L 109.890625 15.101562 L 109.582031 14.753906 L 108.519531 14.753906 C 107.933594 14.753906 107.230469 14.792969 106.960938 14.847656 C 105.777344 15.070312 104.257812 14.609375 104.257812 14.023438 C 104.253906 13.851562 104.1875 13.425781 104.105469 13.074219 C 103.894531 12.179688 104.136719 11.894531 104.957031 12.070312 C 105.707031 12.234375 105.761719 12.300781 105.683594 12.980469 C 105.542969 14.238281 106.417969 14.613281 108.101562 14.015625 C 108.488281 13.878906 108.558594 13.878906 108.832031 14.019531 C 109.335938 14.28125 110.421875 14.125 110.742188 13.746094 C 110.984375 13.460938 110.992188 13.40625 110.992188 11.964844 L 110.992188 10.476562 L 109.976562 9.5 L 111.480469 7.996094 L 112.230469 8.75 L 112.984375 9.5 L 112.753906 9.726562 C 112.628906 9.847656 112.414062 10.023438 112.277344 10.109375 C 111.796875 10.421875 111.8125 13.023438 112.300781 13.691406 C 112.5 13.964844 113.53125 14.175781 113.90625 14.015625 C 114.390625 13.816406 114.53125 13.585938 114.28125 13.410156 C 113.773438 13.058594 113.789062 12.269531 114.308594 11.777344 L 114.542969 11.558594 L 115.019531 11.792969 C 115.9375 12.25 115.925781 12.839844 114.996094 13.289062 C 114.234375 13.660156 114.554688 14.015625 115.777344 14.167969 C 117.019531 14.324219 117.410156 14.015625 117.214844 13.035156 C 117.058594 12.269531 117.21875 12.078125 118.019531 12.078125 C 118.847656 12.078125 118.984375 12.253906 118.757812 13.054688 C 118.574219 13.710938 118.621094 14.296875 118.871094 14.4375 C 119.203125 14.621094 118.71875 14.777344 117.554688 14.855469 C 116.914062 14.902344 116.367188 14.921875 116.339844 14.902344 C 116.15625 14.789062 114.320312 14.671875 113.828125 14.742188 C 112.875 14.871094 112.667969 15.160156 112.601562 16.449219 C 112.511719 18.210938 112.601562 18.4375 113.769531 19.480469 C 114.832031 20.429688 115.519531 21.34375 115.914062 22.328125 C 116.417969 23.570312 116.554688 23.535156 117.683594 21.867188 C 118.71875 20.332031 118.863281 20.488281 119.152344 23.476562 C 119.335938 25.363281 119.375 25.46875 119.871094 25.292969 C 120.078125 25.21875 120.320312 25.15625 120.410156 25.152344 C 120.511719 25.148438 120.730469 24.839844 120.996094 24.332031 C 121.226562 23.882812 121.519531 23.382812 121.640625 23.21875 C 121.761719 23.054688 121.957031 22.6875 122.078125 22.402344 C 122.683594 20.980469 123.253906 21.792969 123.660156 24.652344 C 124.035156 27.289062 124.324219 27.667969 125.039062 26.484375 C 125.21875 26.191406 125.433594 25.894531 125.511719 25.828125 C 125.59375 25.757812 125.8125 25.398438 126 25.027344 C 126.492188 24.050781 126.890625 24.078125 127.289062 25.113281 C 127.480469 25.617188 127.582031 25.597656 127.675781 25.023438 C 127.777344 24.421875 127.875 24.28125 128.355469 24.054688 C 129.007812 23.746094 129.035156 23.640625 128.992188 21.621094 C 128.949219 19.492188 128.886719 19.304688 128.148438 19.113281 C 127.394531 18.921875 127.246094 18.839844 127.082031 18.523438 C 126.882812 18.136719 126.707031 18.050781 125.949219 17.964844 C 125.449219 17.90625 125.277344 17.839844 125.109375 17.640625 C 124.644531 17.089844 124.554688 17.03125 124.15625 17.03125 C 123.5625 17.03125 123.113281 16.800781 122.832031 16.351562 C 122.542969 15.898438 121.964844 15.71875 120.371094 15.59375 C 119.308594 15.511719 119.226562 15.335938 119.949219 14.683594 C 120.355469 14.320312 120.394531 14.242188 120.394531 13.835938 C 120.394531 12.976562 121.394531 12.394531 121.898438 12.957031 C 122.246094 13.347656 122.25 13.558594 121.910156 14.164062 L 121.640625 14.644531 L 121.867188 14.886719 C 121.992188 15.019531 122.304688 15.179688 122.558594 15.242188 C 122.8125 15.308594 123.121094 15.425781 123.242188 15.503906 C 123.636719 15.757812 123.863281 15.539062 123.863281 14.898438 C 123.863281 14.445312 123.90625 14.308594 124.148438 14.039062 L 124.4375 13.714844 L 124.914062 13.84375 C 125.90625 14.109375 126.019531 14.425781 125.347656 15.058594 L 124.832031 15.542969 L 125.160156 15.714844 C 125.339844 15.8125 125.71875 16.105469 126.003906 16.371094 L 126.523438 16.847656 L 126.824219 16.671875 C 127.101562 16.507812 127.128906 16.445312 127.128906 15.984375 C 127.128906 15.351562 127.289062 15.1875 128 15.09375 C 129.070312 14.949219 129.335938 16.121094 128.414062 16.929688 C 127.714844 17.542969 128.046875 18.050781 129.113281 18 C 129.726562 17.972656 129.742188 17.964844 130.050781 17.523438 C 130.71875 16.570312 132.027344 16.949219 131.765625 18.023438 L 131.632812 18.5625 L 131.089844 18.695312 C 130.078125 18.941406 129.933594 19.214844 130.207031 20.367188 C 130.503906 21.601562 130.5 21.589844 130.6875 21.039062 C 131.101562 19.832031 132.871094 19.878906 132.871094 21.09375 C 132.871094 21.808594 132.683594 21.921875 131.652344 21.835938 C 130.640625 21.75 130.484375 21.84375 130.558594 22.492188 C 130.628906 23.101562 130.746094 23.257812 131.195312 23.328125 C 132.152344 23.484375 132.507812 24.886719 131.644531 25.105469 C 131.390625 25.167969 130.640625 24.84375 130.574219 24.640625 C 130.550781 24.570312 130.347656 24.664062 130.042969 24.886719 C 129.773438 25.082031 129.476562 25.300781 129.382812 25.371094 C 129.289062 25.4375 129.144531 25.761719 129.0625 26.085938 C 128.957031 26.492188 128.808594 26.78125 128.574219 27.027344 C 128.261719 27.347656 127.84375 28.074219 126.964844 29.839844 C 126.777344 30.214844 126.519531 30.660156 126.394531 30.832031 C 125.398438 32.167969 125.769531 33.179688 127.195312 33.027344 C 127.511719 32.992188 131.765625 32.941406 136.644531 32.914062 L 145.519531 32.863281 L 145.828125 33.171875 C 146.164062 33.507812 146.164062 33.488281 146.164062 35.394531 C 146.164062 35.886719 146.179688 36.066406 146.203125 35.792969 C 146.222656 35.519531 146.3125 34.917969 146.402344 34.457031 C 146.601562 33.4375 146.59375 33.25 146.328125 32.78125 C 146.140625 32.441406 146.132812 32.351562 146.230469 31.640625 C 146.304688 31.113281 146.335938 26.71875 146.335938 17.933594 C 146.332031 3.621094 146.382812 4.734375 145.734375 4.277344 C 145.503906 4.117188 7.207031 4 5.441406 4.160156 M 109.046875 12.054688 C 109.175781 12.507812 108.976562 13.144531 108.660156 13.285156 C 108.019531 13.578125 107.027344 12.746094 107.378906 12.210938 C 107.773438 11.605469 108.886719 11.503906 109.046875 12.054688 M 101.875 12.929688 C 102.332031 13.316406 102.386719 13.472656 102.273438 14.070312 C 102.152344 14.710938 102.1875 14.753906 102.992188 14.898438 C 103.492188 14.988281 103.636719 15.058594 103.734375 15.253906 C 103.878906 15.542969 103.578125 15.621094 102.277344 15.636719 C 101.867188 15.644531 101.355469 15.691406 101.136719 15.742188 C 100.921875 15.789062 100.460938 15.839844 100.117188 15.851562 L 99.488281 15.875 L 99.550781 16.191406 L 99.609375 16.511719 L 98.738281 16.675781 C 97.542969 16.894531 97.085938 17.066406 97.050781 17.304688 C 97.007812 17.5625 96.671875 17.703125 95.898438 17.78125 L 95.261719 17.847656 L 95.113281 17.496094 C 95.035156 17.304688 94.847656 17.089844 94.691406 17.015625 C 93.558594 16.464844 93.816406 14.675781 94.980469 15.015625 C 95.726562 15.238281 95.769531 15.292969 95.722656 15.972656 C 95.660156 16.792969 96.597656 17.355469 96.945312 16.707031 C 97.089844 16.433594 97.28125 16.277344 97.691406 16.097656 C 97.960938 15.976562 98.296875 15.582031 98.203125 15.5 C 98.183594 15.484375 97.988281 15.359375 97.773438 15.226562 C 96.894531 14.679688 96.992188 14.066406 97.984375 13.859375 C 98.714844 13.707031 99.109375 14.070312 99.109375 14.890625 C 99.109375 15.285156 99.351562 15.589844 99.59375 15.488281 C 99.679688 15.453125 99.953125 15.359375 100.199219 15.277344 C 101.097656 14.984375 101.457031 14.621094 101.125 14.347656 C 100.632812 13.9375 100.597656 13.441406 101.03125 13.011719 C 101.433594 12.605469 101.484375 12.601562 101.875 12.929688 M 29.03125 16.230469 C 28.410156 16.519531 28.0625 17.277344 28.257812 17.921875 C 28.589844 19.003906 29.328125 20.332031 30.003906 21.042969 C 31.011719 22.109375 31.148438 22.460938 30.808594 23.148438 C 30.386719 23.988281 31.242188 25.445312 32.351562 25.785156 C 32.609375 25.867188 33.960938 24.664062 33.960938 24.359375 C 33.960938 24.273438 34.042969 24.035156 34.148438 23.835938 L 34.332031 23.46875 L 33.972656 23.410156 C 33.421875 23.320312 33.382812 23.296875 33.167969 22.949219 C 32.78125 22.3125 33.097656 21.734375 33.949219 21.519531 C 34.960938 21.261719 35.285156 21.976562 34.714844 23.183594 C 34.433594 23.769531 35.03125 25.140625 35.753906 25.578125 C 36.515625 26.042969 36.832031 25.929688 37.285156 25.035156 L 37.535156 24.542969 L 37.328125 24.210938 C 37.214844 24.027344 37.0625 23.558594 36.988281 23.171875 C 36.84375 22.414062 36.734375 22.246094 36.128906 21.824219 C 35.574219 21.441406 35.757812 21.113281 37.019531 20.21875 C 37.875 19.617188 37.886719 19.59375 38.023438 18.628906 C 38.175781 17.574219 38.109375 17.085938 37.773438 16.734375 L 37.511719 16.460938 L 36.652344 16.65625 C 35.296875 16.96875 33.023438 16.792969 32.214844 16.316406 C 31.660156 15.988281 29.667969 15.933594 29.03125 16.230469 M 45.671875 16.128906 C 45.496094 16.175781 45.238281 16.285156 45.101562 16.375 C 44.75 16.605469 42.78125 16.867188 41.980469 16.792969 C 40.097656 16.613281 40.164062 16.613281 39.832031 16.820312 C 39.222656 17.203125 39.078125 18.167969 39.550781 18.710938 C 39.621094 18.792969 39.792969 19.085938 39.929688 19.355469 C 40.101562 19.703125 40.296875 19.921875 40.578125 20.078125 C 40.796875 20.203125 41.109375 20.472656 41.273438 20.675781 C 41.4375 20.882812 41.730469 21.136719 41.921875 21.242188 C 42.382812 21.488281 42.371094 21.539062 41.804688 21.726562 C 41.222656 21.917969 41.070312 22.152344 40.980469 22.953125 C 40.921875 23.527344 40.875 23.625 40.464844 24.042969 L 40.015625 24.503906 L 40.179688 25 C 40.488281 25.917969 41.410156 26.125 42.113281 25.433594 C 42.339844 25.210938 42.664062 24.90625 42.839844 24.753906 C 43.011719 24.601562 43.238281 24.28125 43.34375 24.046875 L 43.535156 23.613281 L 43.609375 24.058594 C 43.953125 26.117188 45.851562 26.277344 46.351562 24.289062 L 46.460938 23.859375 L 46.890625 24.257812 C 47.269531 24.601562 47.382812 24.652344 47.792969 24.65625 C 48.496094 24.65625 48.726562 24.816406 48.875 25.386719 C 48.941406 25.65625 49.101562 25.980469 49.234375 26.109375 L 49.46875 26.34375 L 50.128906 26.035156 C 50.800781 25.71875 50.828125 25.6875 50.796875 25.246094 C 50.726562 24.246094 50.621094 24.171875 49.59375 24.414062 C 49.300781 24.480469 49.109375 24.128906 49.109375 23.515625 C 49.109375 22.40625 48.589844 21.996094 47.859375 22.535156 C 47.6875 22.660156 47.300781 22.875 47 23.007812 L 46.453125 23.25 L 46.363281 22.882812 C 46.253906 22.460938 46.371094 22.113281 46.648438 22.023438 C 46.75 21.992188 46.898438 21.839844 46.980469 21.683594 C 47.058594 21.527344 47.257812 21.304688 47.425781 21.1875 C 47.585938 21.074219 47.84375 20.769531 47.988281 20.511719 C 48.136719 20.257812 48.355469 19.914062 48.472656 19.753906 C 49.292969 18.636719 49.359375 16.640625 48.589844 16.222656 C 48.324219 16.078125 46.140625 16.011719 45.671875 16.128906 M 92.585938 17.238281 C 92.675781 17.28125 92.796875 17.519531 92.859375 17.765625 C 93 18.328125 93.433594 18.769531 93.660156 18.578125 C 94.113281 18.195312 94.546875 18.007812 94.75 18.117188 C 95.125 18.316406 94.929688 18.660156 94.324219 18.863281 C 93.988281 18.972656 93.945312 19.042969 93.722656 19.816406 C 93.449219 20.757812 92.976562 20.707031 92.972656 19.734375 C 92.96875 19.074219 92.839844 18.953125 92.035156 18.867188 C 91.246094 18.78125 91.089844 18.613281 91.089844 17.855469 C 91.089844 17.113281 91.785156 16.824219 92.585938 17.238281 M 23.820312 18.03125 C 22.03125 18.269531 20.851562 20.113281 21.300781 21.960938 C 21.414062 22.425781 22.078125 23.65625 22.324219 23.859375 C 23.320312 24.6875 26.640625 23.378906 27.46875 21.835938 L 27.65625 21.480469 L 27.191406 20.308594 C 26.324219 18.128906 25.789062 17.765625 23.820312 18.03125 M 51.980469 18.09375 C 51.300781 18.269531 51.207031 18.347656 50.933594 18.96875 C 50.8125 19.242188 50.578125 19.675781 50.417969 19.929688 C 49.488281 21.398438 49.796875 22.308594 51.535156 23.203125 C 54.289062 24.617188 55.613281 24.347656 56.082031 22.277344 C 56.359375 21.0625 56.136719 19.453125 55.644531 19.109375 C 55.527344 19.027344 55.214844 18.773438 54.949219 18.546875 C 54.328125 18.015625 53.042969 17.820312 51.980469 18.09375 M 18.8125 20.25 C 19.421875 20.5625 19.589844 21.476562 19.09375 21.777344 C 18.394531 22.203125 17.460938 21.832031 17.566406 21.167969 C 17.65625 20.609375 17.789062 20.402344 18.152344 20.242188 C 18.542969 20.074219 18.472656 20.074219 18.8125 20.25 M 43.878906 21.53125 C 44.027344 21.667969 44.265625 21.9375 44.414062 22.128906 L 44.683594 22.484375 L 44.394531 22.78125 C 43.65625 23.554688 43.28125 23.578125 42.921875 22.871094 C 42.371094 21.78125 43.078125 20.789062 43.878906 21.53125 M 28.8125 22.269531 C 28.160156 22.359375 28.117188 22.410156 28.117188 23.101562 C 28.117188 23.859375 28.058594 23.949219 27.515625 24.074219 C 26.78125 24.238281 26.46875 24.964844 26.835938 25.648438 C 27.296875 26.511719 28.414062 26.003906 28.414062 24.933594 C 28.414062 24.324219 28.453125 24.277344 28.765625 24.488281 C 29.421875 24.9375 30.394531 24.34375 30.394531 23.5 C 30.394531 23.257812 29.601562 22.179688 29.433594 22.191406 C 29.335938 22.199219 29.058594 22.234375 28.8125 22.269531 M 18.953125 23.382812 C 19.214844 23.5 19.253906 23.578125 19.359375 24.179688 C 19.472656 24.808594 18.796875 25.261719 18.214844 24.949219 C 17.378906 24.5 18.089844 22.988281 18.953125 23.382812 M 59.011719 23.714844 C 59.984375 24.207031 60 24.6875 59.054688 25.042969 C 58.117188 25.394531 57.820312 25.1875 57.820312 24.179688 C 57.820312 23.355469 58.09375 23.246094 59.011719 23.714844 M 24.226562 25.960938 C 23.886719 26.566406 23.886719 26.546875 24.222656 26.734375 C 24.378906 26.820312 24.726562 27.035156 24.992188 27.207031 L 25.484375 27.523438 L 25.707031 27.3125 C 26.253906 26.796875 26.175781 25.917969 25.566406 25.785156 C 25.417969 25.753906 25.117188 25.675781 24.894531 25.605469 L 24.492188 25.484375 L 24.226562 25.960938 M 51.898438 25.914062 C 50.960938 26.4375 50.984375 27.339844 51.9375 27.480469 C 52.898438 27.625 53.417969 26.542969 52.746094 25.804688 L 52.523438 25.5625 L 51.898438 25.914062 M 37.96875 26.964844 C 37.238281 27.308594 37.171875 27.417969 37.335938 28.042969 C 37.722656 29.476562 39.875 29.359375 40.152344 27.890625 C 40.320312 26.992188 39.0625 26.457031 37.96875 26.964844 M 30.875 27.800781 C 30.195312 28.050781 30 28.265625 30 28.769531 C 30 30.40625 32.515625 30.316406 32.929688 28.664062 C 33.113281 27.925781 31.910156 27.421875 30.875 27.800781 M 44.953125 28.09375 L 44.511719 28.484375 L 44.855469 29.050781 C 45.464844 30.0625 46.125 30.289062 47.0625 29.8125 L 47.574219 29.554688 L 47.574219 28.375 L 47.109375 28.085938 C 46.308594 27.59375 45.515625 27.59375 44.953125 28.09375 M 36.882812 30.046875 C 35.046875 30.195312 33.992188 30.34375 33.367188 30.542969 C 33.121094 30.621094 32.476562 30.78125 31.929688 30.894531 C 31.015625 31.085938 30.492188 31.296875 28.414062 32.3125 C 28.085938 32.476562 28.117188 32.589844 28.550781 32.808594 C 28.976562 33.019531 48.019531 33.085938 48.792969 32.875 C 49.589844 32.664062 49.625 32.519531 48.960938 32.226562 C 48.632812 32.085938 47.964844 31.773438 47.476562 31.539062 C 46.984375 31.300781 46.339844 31.054688 46.039062 30.988281 C 45.742188 30.921875 45.109375 30.761719 44.632812 30.632812 C 43.621094 30.355469 42.019531 30.140625 40.296875 30.050781 C 39.617188 30.019531 38.925781 29.972656 38.761719 29.957031 C 38.597656 29.9375 37.753906 29.980469 36.882812 30.046875 M 106.632812 30.296875 C 106.335938 30.339844 106.023438 30.402344 105.941406 30.433594 C 105.859375 30.46875 104.976562 30.671875 103.984375 30.882812 C 102.660156 31.171875 102.035156 31.351562 101.65625 31.570312 C 101.371094 31.730469 100.949219 31.914062 100.714844 31.976562 C 100.484375 32.039062 100.082031 32.179688 99.824219 32.289062 L 99.355469 32.492188 L 99.605469 32.628906 C 100.238281 32.984375 100.480469 32.992188 111.207031 32.988281 C 121.910156 32.980469 122.308594 32.96875 122.804688 32.621094 C 123.035156 32.460938 122.777344 32.304688 121.835938 32.035156 C 121.511719 31.941406 120.992188 31.730469 120.683594 31.570312 C 120.367188 31.40625 119.269531 31.058594 118.15625 30.769531 L 116.1875 30.253906 L 111.683594 30.238281 C 109.207031 30.226562 106.933594 30.253906 106.632812 30.296875 M 24.046875 34.484375 C 23.273438 35.007812 23.300781 34.828125 23.292969 39.46875 C 23.28125 44.066406 23.246094 43.824219 23.96875 44.15625 C 24.566406 44.425781 53.148438 44.476562 53.664062 44.207031 C 54.1875 43.9375 54.1875 43.9375 54.171875 39.511719 C 54.160156 35.25 54.128906 34.914062 53.734375 34.480469 L 53.535156 34.261719 L 24.378906 34.261719 L 24.046875 34.484375 M 96.683594 34.339844 C 95.871094 34.496094 95.414062 37.207031 96.085938 37.875 C 96.375 38.164062 95.734375 38.144531 104.480469 38.136719 L 110.496094 38.132812 L 110.777344 38.371094 C 111.417969 38.910156 111.503906 41.265625 110.902344 41.800781 L 110.597656 42.074219 L 103.492188 42.078125 C 95.011719 42.078125 95.90625 41.90625 95.863281 43.574219 C 95.832031 44.78125 95.980469 45.445312 96.316406 45.609375 C 96.410156 45.65625 99.664062 45.695312 103.554688 45.699219 L 110.621094 45.707031 L 110.90625 46.023438 C 111.347656 46.515625 111.34375 48.539062 110.898438 49.03125 L 110.609375 49.355469 L 103.46875 49.40625 L 96.324219 49.457031 L 96.136719 49.703125 C 95.90625 50 95.863281 50.234375 95.804688 51.570312 L 95.761719 52.597656 L 96.074219 52.941406 L 96.390625 53.285156 L 103.449219 53.292969 C 111.988281 53.296875 111.289062 53.101562 111.289062 55.484375 L 111.289062 56.617188 L 110.980469 56.871094 L 110.679688 57.128906 L 103.730469 57.128906 C 96.507812 57.128906 96.140625 57.148438 95.929688 57.546875 C 95.839844 57.710938 95.777344 59.800781 95.835938 60.621094 C 95.867188 61.078125 96.0625 61.089844 103.539062 61.089844 L 110.589844 61.089844 L 110.902344 61.367188 C 111.207031 61.640625 111.210938 61.652344 111.328125 63.09375 C 111.390625 63.890625 111.464844 64.566406 111.488281 64.589844 C 111.605469 64.703125 112.671875 64.769531 112.671875 64.664062 C 112.671875 64.605469 112.59375 64.554688 112.492188 64.554688 C 111.242188 64.554688 111.488281 62.046875 112.839844 61.039062 C 113.359375 60.648438 113.691406 60.277344 114.328125 59.382812 L 114.867188 58.613281 L 115.675781 58.605469 C 116.691406 58.59375 116.96875 58.550781 117.417969 58.320312 C 117.980469 58.035156 118.898438 57.796875 119.175781 57.867188 L 119.429688 57.929688 L 119.15625 57.695312 C 118.800781 57.390625 118.691406 56.730469 118.875 55.957031 C 118.972656 55.539062 119.007812 54.386719 119.007812 51.429688 L 119.011719 47.460938 L 118.777344 47.242188 C 118.558594 47.035156 118.472656 47.027344 116.722656 47.035156 C 114.300781 47.046875 114.160156 46.976562 114.285156 45.875 C 114.363281 45.183594 114.328125 45.195312 116.539062 45.230469 L 118.511719 45.257812 L 118.761719 44.992188 C 119.140625 44.582031 119.128906 43.511719 118.738281 43.121094 L 118.464844 42.847656 L 117.015625 42.917969 C 115.28125 43.003906 115.148438 42.9375 115.148438 42.023438 C 115.148438 41.085938 115.253906 41.035156 117.03125 41.070312 C 119.0625 41.113281 119.304688 40.828125 118.921875 38.847656 C 118.757812 38 119.203125 37.484375 120 37.597656 C 120.878906 37.722656 120.96875 37.941406 120.835938 39.5625 C 120.71875 41.015625 120.988281 41.253906 122.527344 41.082031 C 124.074219 40.910156 124.492188 41.132812 124.4375 42.089844 C 124.398438 42.777344 123.855469 43.125 123.070312 42.96875 C 121.515625 42.65625 120.839844 42.957031 120.765625 43.996094 C 120.726562 44.535156 120.746094 44.59375 121.042969 44.910156 L 121.359375 45.246094 L 122.488281 45.246094 C 123.105469 45.242188 123.804688 45.199219 124.039062 45.144531 C 124.792969 44.972656 125.222656 45.316406 125.265625 46.136719 C 125.308594 46.875 124.9375 47.15625 124.019531 47.082031 C 121.691406 46.894531 121.429688 46.90625 121.09375 47.1875 L 120.78125 47.453125 L 120.835938 51.871094 C 120.867188 54.300781 120.894531 56.523438 120.898438 56.8125 C 120.910156 57.417969 120.699219 57.816406 120.367188 57.828125 C 120.246094 57.832031 120.058594 57.878906 119.949219 57.929688 C 119.816406 57.992188 120.007812 58.007812 120.546875 57.972656 C 121.089844 57.9375 121.511719 57.964844 121.882812 58.070312 C 123.285156 58.453125 123.578125 58.515625 124.5 58.605469 C 125.640625 58.71875 125.609375 58.695312 126.136719 59.902344 C 126.351562 60.402344 126.511719 60.65625 126.574219 60.59375 C 126.792969 60.375 126.6875 35.265625 126.464844 34.96875 C 125.933594 34.257812 127.273438 34.316406 111.242188 34.308594 C 103.34375 34.304688 96.792969 34.316406 96.683594 34.339844 M 4.203125 39.503906 C 4.203125 40.894531 4.214844 41.460938 4.230469 40.765625 C 4.25 40.074219 4.25 38.9375 4.230469 38.242188 C 4.214844 37.546875 4.203125 38.117188 4.203125 39.503906 M 146.171875 51.683594 L 146.183594 65.296875 L 146.234375 52.078125 C 146.261719 44.808594 146.257812 38.683594 146.226562 38.464844 C 146.191406 38.246094 146.167969 44.195312 146.171875 51.683594 M 4.1875 45.199219 C 4.191406 45.523438 4.207031 45.648438 4.230469 45.46875 C 4.253906 45.289062 4.25 45.023438 4.230469 44.875 C 4.207031 44.726562 4.1875 44.871094 4.1875 45.199219 M 24.058594 54.820312 C 23.261719 55.164062 23.3125 54.851562 23.316406 59.335938 L 23.316406 63.332031 L 23.585938 63.738281 C 23.734375 63.960938 24.003906 64.257812 24.183594 64.394531 L 24.515625 64.648438 L 37.507812 64.703125 L 37.964844 65.023438 C 38.53125 65.421875 38.527344 65.421875 39.5625 65.003906 L 40.414062 64.664062 L 46.46875 64.652344 C 53.375 64.644531 53.351562 64.648438 53.882812 63.894531 L 54.152344 63.515625 L 54.167969 59.449219 C 54.1875 55.003906 54.191406 55.039062 53.609375 54.792969 C 53.089844 54.574219 24.566406 54.601562 24.058594 54.820312 M 4.195312 62.179688 C 4.195312 62.75 4.210938 62.984375 4.230469 62.699219 C 4.25 62.410156 4.25 61.945312 4.230469 61.660156 C 4.210938 61.371094 4.195312 61.605469 4.195312 62.179688 M 4.113281 65.460938 C 4.074219 65.664062 4.066406 65.953125 4.101562 66.105469 C 4.136719 66.261719 4.171875 72.824219 4.183594 80.691406 C 4.210938 96.628906 4.15625 95.480469 4.886719 95.71875 C 5.1875 95.816406 12.230469 95.835938 39.441406 95.816406 L 73.613281 95.792969 L 74.058594 95.578125 C 74.304688 95.457031 74.617188 95.269531 74.753906 95.160156 L 75 94.960938 L 75 66.453125 L 75.230469 66.3125 C 75.433594 66.1875 73.15625 66.160156 57.988281 66.097656 C 44.511719 66.042969 40.46875 66.054688 40.332031 66.144531 C 40.230469 66.210938 40.015625 66.441406 39.851562 66.664062 C 39.636719 66.949219 39.402344 67.117188 39.019531 67.261719 L 38.480469 67.464844 L 37.96875 66.902344 C 37.050781 65.890625 38.75 65.96875 19.851562 66.082031 C 3.3125 66.183594 4.523438 66.25 4.226562 65.246094 C 4.203125 65.164062 4.152344 65.261719 4.113281 65.460938 "/>
<path style=" stroke:none;fill-rule:evenodd;fill:rgb(100%,80.000001%,0%);fill-opacity:1;" d="M 110.707031 8.761719 L 109.976562 9.5 L 110.992188 10.476562 L 110.992188 11.964844 C 110.992188 13.40625 110.984375 13.460938 110.742188 13.746094 C 110.421875 14.125 109.335938 14.28125 108.832031 14.019531 C 108.558594 13.878906 108.488281 13.878906 108.101562 14.015625 C 106.417969 14.613281 105.542969 14.238281 105.683594 12.980469 C 105.761719 12.300781 105.707031 12.234375 104.957031 12.070312 C 104.136719 11.894531 103.894531 12.179688 104.105469 13.074219 C 104.1875 13.425781 104.253906 13.851562 104.257812 14.023438 C 104.257812 14.609375 105.777344 15.070312 106.960938 14.847656 C 107.230469 14.792969 107.933594 14.753906 108.519531 14.753906 L 109.582031 14.753906 L 109.890625 15.101562 L 110.199219 15.453125 L 110.195312 16.660156 C 110.191406 18.140625 110.097656 18.589844 109.734375 18.890625 C 108.882812 19.582031 108.511719 19.914062 107.953125 20.492188 C 107.617188 20.839844 107.296875 21.21875 107.242188 21.332031 C 107.191406 21.445312 107.007812 21.839844 106.839844 22.214844 L 106.53125 22.898438 L 106.164062 22.835938 C 105.957031 22.800781 105.714844 22.773438 105.621094 22.773438 C 105.503906 22.773438 105.316406 22.511719 105.054688 21.988281 C 104.394531 20.675781 104.167969 20.902344 103.71875 23.3125 C 103.390625 25.074219 102.402344 25.773438 102.019531 24.515625 C 101.984375 24.398438 101.808594 24.097656 101.625 23.839844 C 101.441406 23.585938 101.179688 23.15625 101.039062 22.886719 C 100.367188 21.605469 99.308594 21.570312 99.308594 22.828125 C 99.308594 24.859375 99.042969 26.679688 98.707031 26.984375 C 98.46875 27.199219 97.667969 26.464844 96.992188 25.40625 C 96.695312 24.945312 95.746094 24.160156 95.484375 24.160156 C 95.453125 24.160156 95.246094 24.3125 95.023438 24.503906 C 94.324219 25.105469 94.109375 24.972656 93.707031 23.6875 C 93.632812 23.457031 93.464844 23.121094 93.335938 22.945312 C 93.113281 22.648438 92.816406 21.5625 92.847656 21.164062 C 92.851562 21.066406 92.820312 20.992188 92.769531 20.992188 C 92.722656 20.992188 92.578125 20.882812 92.453125 20.746094 C 92.296875 20.578125 92.050781 20.476562 91.632812 20.40625 C 91.308594 20.351562 90.898438 20.277344 90.726562 20.242188 C 90.328125 20.160156 90.121094 20.441406 90.085938 21.109375 C 90.054688 21.710938 90.292969 22.019531 90.71875 21.925781 C 91.359375 21.785156 92.019531 21.859375 92.210938 22.09375 C 92.53125 22.492188 92.214844 23.265625 91.730469 23.265625 C 91.207031 23.265625 90.472656 24.265625 90.710938 24.648438 C 91.160156 25.363281 92.097656 25.210938 92.363281 24.378906 C 92.492188 23.96875 92.773438 23.921875 92.773438 24.308594 C 92.773438 24.453125 93.324219 24.894531 93.628906 24.988281 C 93.789062 25.039062 93.898438 25.238281 94.066406 25.769531 C 94.191406 26.164062 94.390625 26.617188 94.507812 26.78125 C 94.628906 26.945312 94.824219 27.28125 94.949219 27.523438 C 95.070312 27.769531 95.285156 28.121094 95.421875 28.304688 C 95.558594 28.484375 95.820312 28.949219 96.007812 29.332031 C 96.195312 29.714844 96.449219 30.167969 96.578125 30.335938 C 97.195312 31.164062 97.738281 32.511719 97.523438 32.691406 C 97.140625 33.007812 96.339844 33.09375 94.773438 32.988281 C 93.425781 32.898438 56.757812 32.902344 53.667969 32.996094 C 52.445312 33.03125 52.433594 33.027344 52.136719 32.765625 L 51.835938 32.496094 L 52.296875 32.042969 C 52.816406 31.53125 53.070312 30.863281 53.070312 30 C 53.070312 29.523438 53.101562 29.457031 53.542969 29.015625 C 53.800781 28.753906 54.121094 28.3125 54.25 28.03125 L 54.488281 27.527344 L 54.222656 27.039062 C 53.910156 26.464844 53.949219 26.269531 54.519531 25.640625 C 55.59375 24.449219 56.277344 24.808594 56.066406 26.457031 C 55.894531 27.816406 56.222656 28.085938 57.253906 27.429688 C 58.148438 26.863281 58.222656 26.097656 57.441406 25.46875 C 56.820312 24.972656 56.925781 23.886719 57.636719 23.386719 C 57.773438 23.289062 57.820312 23.132812 57.820312 22.761719 C 57.820312 22.105469 58.160156 21.722656 58.644531 21.828125 C 59.851562 22.089844 60.15625 21.902344 59.980469 21.019531 C 59.824219 20.242188 59.636719 20.117188 59.003906 20.378906 C 58.402344 20.628906 58.140625 20.542969 57.636719 19.9375 C 57.210938 19.417969 57.398438 19.117188 58.238281 18.960938 C 58.929688 18.828125 59.222656 17.804688 58.714844 17.289062 C 58.433594 17 57.457031 17.25 57.226562 17.671875 C 56.953125 18.171875 56.609375 18.304688 56.183594 18.074219 C 55.632812 17.777344 55.601562 17.632812 55.886719 16.726562 C 56.351562 15.257812 55.945312 14.554688 54.976562 15.144531 C 54.664062 15.335938 54.625 15.421875 54.507812 16.148438 C 54.429688 16.648438 53.710938 16.875 52.996094 16.628906 C 52.699219 16.523438 52.695312 16.519531 52.84375 16.222656 C 53.050781 15.804688 52.9375 14.546875 52.667969 14.300781 C 52.308594 13.976562 51.644531 14.339844 51.28125 15.0625 C 50.546875 16.515625 49.546875 15.496094 50.207031 13.964844 L 50.433594 13.4375 L 50.164062 13.203125 C 49.761719 12.859375 49.4375 12.808594 49.125 13.042969 C 48.867188 13.234375 48.832031 13.308594 48.621094 14.117188 C 48.371094 15.089844 46.941406 15.023438 47.070312 14.050781 C 47.222656 12.90625 46.253906 12.460938 45.382812 13.277344 C 45.074219 13.570312 45.074219 13.574219 45.605469 14.082031 L 46.058594 14.519531 L 45.820312 14.796875 C 45.5 15.167969 45.25 15.082031 44.566406 14.367188 C 43.429688 13.179688 42.789062 13.425781 42.886719 15.007812 C 42.9375 15.769531 42.648438 16.007812 42.027344 15.722656 C 41.839844 15.636719 41.785156 15.550781 41.820312 15.402344 C 42.121094 14.136719 41.804688 13.695312 40.578125 13.667969 C 40.421875 13.664062 40.128906 13.804688 39.863281 14.003906 L 39.417969 14.34375 L 39.25 13.90625 C 38.921875 13.042969 39.085938 11.6875 39.589844 11.140625 C 40.121094 10.5625 40.125 10.582031 39.238281 9.714844 L 38.480469 8.96875 L 38.273438 9.261719 C 38.160156 9.421875 37.859375 9.757812 37.597656 10.007812 C 37.023438 10.558594 37.023438 10.554688 37.574219 11.078125 L 38.019531 11.503906 L 38.019531 12.261719 C 38.019531 13.785156 37.742188 14.191406 37.015625 13.742188 L 36.523438 13.441406 L 36.285156 13.667969 C 35.960938 13.972656 35.804688 14.488281 35.871094 15.054688 C 35.953125 15.742188 35.617188 16.023438 35.109375 15.691406 C 34.894531 15.550781 34.882812 15.503906 34.972656 15.089844 C 35.296875 13.570312 33.457031 13.09375 32.972656 14.570312 C 32.765625 15.214844 32.566406 15.363281 32.273438 15.097656 C 31.902344 14.757812 31.863281 14.59375 32.027344 14.042969 C 32.199219 13.460938 32.089844 13.160156 31.632812 12.953125 C 31.304688 12.800781 30.523438 13.253906 30.441406 13.640625 C 30.277344 14.4375 30.25 14.484375 29.875 14.613281 C 29.4375 14.765625 29.289062 14.621094 29.125 13.882812 C 28.914062 12.945312 28.652344 12.800781 27.757812 13.125 C 27.234375 13.316406 27.179688 13.472656 27.425781 14.03125 C 27.757812 14.78125 27.597656 15.320312 26.953125 15.613281 C 26.75 15.707031 26.554688 15.796875 26.519531 15.816406 C 26.484375 15.835938 26.359375 15.546875 26.238281 15.179688 C 25.894531 14.109375 25.515625 13.882812 25.011719 14.441406 C 24.78125 14.695312 24.714844 16.289062 24.929688 16.421875 C 25.078125 16.511719 24.21875 16.734375 23.710938 16.734375 C 23.25 16.734375 23.070312 16.515625 23.070312 15.953125 C 23.070312 15.226562 22.691406 14.902344 22.023438 15.050781 C 21.164062 15.242188 21.0625 15.601562 21.621094 16.453125 C 22.171875 17.292969 22.09375 17.816406 21.398438 17.96875 C 21.230469 18.003906 20.953125 18.164062 20.785156 18.324219 C 20.394531 18.6875 20.449219 18.71875 20.199219 17.976562 C 19.78125 16.71875 18.550781 16.804688 18.632812 18.085938 L 18.664062 18.5625 L 19.351562 18.910156 C 20.152344 19.316406 20.171875 19.355469 19.945312 20.03125 C 19.648438 20.914062 19.605469 21.382812 19.773438 21.96875 C 19.875 22.335938 19.902344 22.683594 19.859375 23.074219 C 19.789062 23.695312 19.789062 23.695312 20.394531 24.089844 C 20.84375 24.378906 20.953125 24.984375 20.574219 25.085938 C 20.359375 25.140625 20.054688 25.519531 19.6875 26.183594 C 19.378906 26.746094 20.234375 27.625 21.082031 27.621094 C 21.78125 27.621094 21.957031 27.523438 21.691406 27.285156 C 21.585938 27.1875 21.40625 26.804688 21.292969 26.429688 C 21.179688 26.058594 21.042969 25.726562 20.988281 25.691406 C 20.808594 25.582031 20.878906 25.175781 21.089844 25.121094 C 22.40625 24.773438 23.621094 25.925781 23.109375 27.03125 L 22.867188 27.558594 L 23.214844 28.0625 C 23.40625 28.339844 23.734375 28.769531 23.941406 29.019531 C 24.199219 29.332031 24.355469 29.648438 24.445312 30.042969 C 24.632812 30.875 25.015625 31.679688 25.425781 32.105469 C 26.089844 32.792969 25.488281 33.054688 23.367188 32.996094 C 15.621094 32.78125 4.175781 32.921875 4.484375 33.230469 C 4.511719 33.257812 4.757812 33.214844 5.03125 33.132812 C 5.304688 33.050781 5.554688 33.015625 5.589844 33.046875 C 5.625 33.082031 9.070312 33.117188 13.246094 33.125 C 18.699219 33.132812 20.953125 33.167969 21.238281 33.25 C 22.226562 33.539062 22.164062 32.507812 22.167969 48.910156 C 22.175781 64.386719 22.117188 62.714844 22.722656 64.945312 C 22.976562 65.875 23.125 65.859375 13.414062 65.894531 C 4.269531 65.929688 4.375 65.9375 4.339844 65.160156 C 4.328125 64.835938 4.324219 64.832031 4.285156 65.089844 C 4.214844 65.542969 4.425781 65.816406 4.988281 66.003906 C 5.457031 66.160156 6.496094 66.164062 19.851562 66.082031 C 38.746094 65.96875 37.050781 65.890625 37.96875 66.898438 L 38.476562 67.460938 L 39 67.269531 C 39.308594 67.160156 39.625 66.957031 39.769531 66.785156 C 39.902344 66.621094 40.105469 66.382812 40.21875 66.257812 L 40.425781 66.027344 L 58.210938 66.078125 C 69.527344 66.109375 75.757812 66.09375 75.347656 66.035156 C 74.992188 65.984375 70.449219 65.925781 65.246094 65.902344 C 60.046875 65.882812 55.679688 65.835938 55.542969 65.796875 C 55.410156 65.761719 55.113281 65.683594 54.886719 65.628906 L 54.472656 65.523438 L 54.632812 65.0625 C 54.71875 64.8125 54.910156 64.410156 55.0625 64.171875 C 55.566406 63.375 55.558594 63.609375 55.59375 48.382812 C 55.628906 33.042969 55.609375 33.609375 56.195312 33.328125 C 56.789062 33.042969 93.234375 33.035156 93.863281 33.320312 C 94.339844 33.53125 94.5 33.957031 94.488281 34.949219 C 94.378906 43.679688 94.453125 63.269531 94.59375 63.546875 C 94.863281 64.070312 95.617188 65.203125 95.789062 65.34375 C 95.96875 65.492188 95.761719 65.691406 95.265625 65.84375 C 95.121094 65.890625 98.183594 65.925781 102.078125 65.925781 C 109.988281 65.925781 109.476562 65.878906 110.253906 66.6875 C 110.992188 67.453125 111.375 67.457031 112.023438 66.695312 C 112.753906 65.84375 112.3125 65.890625 119.355469 65.890625 C 122.785156 65.890625 126.015625 65.90625 126.535156 65.925781 C 127.824219 65.972656 127.835938 65.96875 127.277344 65.699219 C 127.003906 65.570312 126.835938 65.457031 126.902344 65.453125 C 127.289062 65.429688 127.726562 63.875 127.785156 62.328125 C 127.804688 61.726562 127.824219 55.269531 127.820312 47.980469 C 127.816406 34.667969 127.839844 33.660156 128.160156 33.441406 C 128.519531 33.191406 129.445312 33.160156 137.027344 33.117188 C 141.4375 33.09375 145.148438 33.046875 145.273438 33.015625 C 145.5625 32.945312 146.007812 33.390625 146.066406 33.8125 L 146.109375 34.109375 L 146.125 33.792969 C 146.136719 33.5625 146.058594 33.398438 145.828125 33.171875 L 145.519531 32.863281 L 136.644531 32.914062 C 131.765625 32.941406 127.511719 32.992188 127.195312 33.027344 C 125.769531 33.179688 125.398438 32.167969 126.394531 30.832031 C 126.519531 30.660156 126.777344 30.214844 126.964844 29.839844 C 127.84375 28.074219 128.261719 27.347656 128.574219 27.027344 C 128.808594 26.78125 128.957031 26.492188 129.0625 26.085938 C 129.144531 25.761719 129.289062 25.4375 129.382812 25.371094 C 129.476562 25.300781 129.773438 25.082031 130.042969 24.886719 C 130.347656 24.664062 130.550781 24.570312 130.574219 24.640625 C 130.640625 24.84375 131.390625 25.167969 131.644531 25.105469 C 132.507812 24.886719 132.152344 23.484375 131.195312 23.328125 C 130.746094 23.257812 130.628906 23.101562 130.558594 22.492188 C 130.484375 21.84375 130.640625 21.75 131.652344 21.835938 C 132.683594 21.921875 132.871094 21.808594 132.871094 21.09375 C 132.871094 19.878906 131.101562 19.832031 130.6875 21.039062 C 130.5 21.589844 130.503906 21.601562 130.207031 20.367188 C 129.933594 19.214844 130.078125 18.941406 131.089844 18.695312 L 131.632812 18.5625 L 131.765625 18.023438 C 132.027344 16.949219 130.71875 16.570312 130.050781 17.523438 C 129.742188 17.964844 129.726562 17.972656 129.113281 18 C 128.046875 18.050781 127.714844 17.542969 128.414062 16.929688 C 129.335938 16.121094 129.070312 14.949219 128 15.09375 C 127.289062 15.1875 127.128906 15.351562 127.128906 15.984375 C 127.128906 16.445312 127.101562 16.507812 126.824219 16.671875 L 126.523438 16.847656 L 126.003906 16.371094 C 125.71875 16.105469 125.339844 15.8125 125.160156 15.714844 L 124.832031 15.542969 L 125.347656 15.058594 C 126.019531 14.425781 125.90625 14.109375 124.914062 13.84375 L 124.4375 13.714844 L 124.148438 14.039062 C 123.90625 14.308594 123.863281 14.445312 123.863281 14.898438 C 123.863281 15.539062 123.636719 15.757812 123.242188 15.503906 C 123.121094 15.425781 122.8125 15.308594 122.558594 15.242188 C 122.304688 15.179688 121.992188 15.019531 121.867188 14.886719 L 121.640625 14.644531 L 121.910156 14.164062 C 122.25 13.558594 122.246094 13.347656 121.898438 12.957031 C 121.394531 12.394531 120.394531 12.976562 120.394531 13.835938 C 120.394531 14.242188 120.355469 14.320312 119.949219 14.683594 C 119.226562 15.335938 119.308594 15.511719 120.371094 15.59375 C 121.964844 15.71875 122.542969 15.898438 122.832031 16.351562 C 123.113281 16.800781 123.5625 17.03125 124.15625 17.03125 C 124.554688 17.03125 124.644531 17.089844 125.109375 17.640625 C 125.277344 17.839844 125.449219 17.90625 125.949219 17.964844 C 126.707031 18.050781 126.882812 18.136719 127.082031 18.523438 C 127.246094 18.839844 127.394531 18.921875 128.148438 19.113281 C 128.886719 19.304688 128.949219 19.492188 128.992188 21.621094 C 129.035156 23.640625 129.007812 23.746094 128.355469 24.054688 C 127.875 24.28125 127.777344 24.421875 127.675781 25.023438 C 127.582031 25.597656 127.480469 25.617188 127.289062 25.113281 C 126.890625 24.078125 126.492188 24.050781 126 25.027344 C 125.8125 25.398438 125.59375 25.757812 125.511719 25.828125 C 125.433594 25.894531 125.21875 26.191406 125.039062 26.484375 C 124.324219 27.667969 124.035156 27.289062 123.660156 24.652344 C 123.253906 21.792969 122.683594 20.980469 122.078125 22.402344 C 121.957031 22.6875 121.761719 23.054688 121.640625 23.21875 C 121.519531 23.382812 121.226562 23.882812 120.996094 24.332031 C 120.730469 24.839844 120.511719 25.148438 120.410156 25.152344 C 120.320312 25.15625 120.078125 25.21875 119.871094 25.292969 C 119.375 25.46875 119.335938 25.363281 119.152344 23.476562 C 118.863281 20.488281 118.71875 20.332031 117.683594 21.867188 C 116.554688 23.535156 116.417969 23.570312 115.914062 22.328125 C 115.519531 21.34375 114.832031 20.429688 113.769531 19.480469 C 112.601562 18.4375 112.511719 18.210938 112.601562 16.449219 C 112.667969 15.160156 112.875 14.871094 113.828125 14.742188 C 114.320312 14.671875 116.15625 14.789062 116.339844 14.902344 C 116.367188 14.921875 116.914062 14.902344 117.554688 14.855469 C 118.71875 14.777344 119.203125 14.621094 118.871094 14.4375 C 118.621094 14.296875 118.574219 13.710938 118.757812 13.054688 C 118.984375 12.253906 118.847656 12.078125 118.019531 12.078125 C 117.21875 12.078125 117.058594 12.269531 117.214844 13.035156 C 117.410156 14.015625 117.019531 14.324219 115.777344 14.167969 C 114.554688 14.015625 114.234375 13.660156 114.996094 13.289062 C 115.925781 12.839844 115.9375 12.25 115.019531 11.792969 L 114.542969 11.558594 L 114.308594 11.777344 C 113.789062 12.269531 113.773438 13.058594 114.28125 13.410156 C 114.53125 13.585938 114.390625 13.816406 113.90625 14.015625 C 113.53125 14.175781 112.5 13.964844 112.300781 13.691406 C 111.8125 13.023438 111.796875 10.421875 112.277344 10.109375 C 112.414062 10.023438 112.628906 9.847656 112.753906 9.726562 L 112.984375 9.5 L 112.242188 8.761719 C 111.359375 7.878906 111.582031 7.878906 110.707031 8.761719 M 107.855469 11.824219 C 107.054688 12.179688 107.117188 12.898438 107.972656 13.222656 C 108.566406 13.449219 108.855469 13.328125 109.019531 12.777344 C 109.289062 11.878906 108.742188 11.429688 107.855469 11.824219 M 115.03125 12.277344 C 115.40625 12.507812 115.378906 12.601562 114.863281 12.863281 C 114.5 13.050781 114.492188 13.050781 114.375 12.863281 C 114.007812 12.277344 114.421875 11.90625 115.03125 12.277344 M 108.703125 12.316406 C 108.789062 12.417969 108.789062 12.515625 108.699219 12.710938 C 108.558594 13.023438 108.554688 13.023438 108.121094 12.761719 L 107.777344 12.550781 L 108.007812 12.363281 C 108.28125 12.144531 108.546875 12.125 108.703125 12.316406 M 104.976562 12.417969 C 105.476562 12.53125 105.316406 13.066406 104.738281 13.203125 C 104.445312 13.273438 104.355469 13.148438 104.355469 12.683594 C 104.355469 12.375 104.421875 12.273438 104.589844 12.324219 C 104.652344 12.34375 104.824219 12.386719 104.976562 12.417969 M 118.550781 12.457031 C 118.675781 12.65625 118.425781 12.78125 117.96875 12.753906 C 117.464844 12.722656 117.253906 12.519531 117.644531 12.445312 C 118.046875 12.371094 118.5 12.375 118.550781 12.457031 M 101.03125 13.011719 C 100.597656 13.441406 100.632812 13.9375 101.125 14.347656 C 101.457031 14.621094 101.097656 14.984375 100.199219 15.277344 C 99.953125 15.359375 99.679688 15.453125 99.59375 15.488281 C 99.351562 15.589844 99.109375 15.285156 99.109375 14.890625 C 99.109375 14.070312 98.714844 13.707031 97.984375 13.859375 C 96.992188 14.066406 96.894531 14.679688 97.773438 15.226562 C 97.988281 15.359375 98.183594 15.484375 98.203125 15.5 C 98.296875 15.582031 97.960938 15.976562 97.691406 16.097656 C 97.28125 16.277344 97.089844 16.433594 96.945312 16.707031 C 96.597656 17.355469 95.660156 16.792969 95.722656 15.972656 C 95.769531 15.292969 95.726562 15.238281 94.980469 15.015625 C 93.816406 14.675781 93.558594 16.464844 94.691406 17.015625 C 94.847656 17.089844 95.035156 17.304688 95.113281 17.496094 L 95.261719 17.847656 L 95.898438 17.78125 C 96.671875 17.703125 97.007812 17.5625 97.050781 17.304688 C 97.085938 17.066406 97.542969 16.894531 98.738281 16.675781 L 99.609375 16.511719 L 99.550781 16.191406 L 99.488281 15.875 L 100.117188 15.851562 C 100.460938 15.839844 100.921875 15.789062 101.136719 15.742188 C 101.355469 15.691406 101.867188 15.644531 102.277344 15.636719 C 103.578125 15.621094 103.878906 15.542969 103.734375 15.253906 C 103.636719 15.058594 103.492188 14.988281 102.992188 14.898438 C 102.1875 14.753906 102.152344 14.710938 102.273438 14.070312 C 102.386719 13.472656 102.332031 13.316406 101.875 12.929688 C 101.484375 12.601562 101.433594 12.605469 101.03125 13.011719 M 101.722656 13.246094 C 101.925781 13.640625 101.707031 13.949219 101.339844 13.78125 C 101.050781 13.648438 101.019531 13.410156 101.253906 13.152344 C 101.476562 12.90625 101.554688 12.921875 101.722656 13.246094 M 121.667969 13.277344 C 121.878906 13.617188 121.554688 13.921875 121.234375 13.683594 L 121.007812 13.515625 L 121.214844 13.292969 C 121.46875 13.019531 121.503906 13.015625 121.667969 13.277344 M 46.613281 13.714844 L 46.507812 13.949219 L 46.226562 13.738281 C 45.878906 13.480469 45.878906 13.503906 46.210938 13.324219 C 46.570312 13.132812 46.785156 13.34375 46.613281 13.714844 M 49.738281 13.351562 C 49.894531 13.523438 49.890625 13.550781 49.691406 13.804688 L 49.480469 14.074219 L 49.296875 13.796875 C 49.011719 13.363281 49.398438 12.972656 49.738281 13.351562 M 31.65625 13.378906 C 31.734375 13.460938 31.738281 13.554688 31.660156 13.726562 C 31.527344 14.011719 31.46875 14.015625 31.238281 13.765625 C 30.957031 13.453125 31.359375 13.082031 31.65625 13.378906 M 28.546875 13.621094 C 28.503906 13.734375 28.460938 13.742188 28.351562 13.648438 C 28.238281 13.558594 28.234375 13.515625 28.332031 13.457031 C 28.5 13.351562 28.617188 13.441406 28.546875 13.621094 M 36.921875 14.394531 C 37.019531 14.511719 37.003906 14.578125 36.839844 14.746094 C 36.578125 15.007812 36.488281 15.003906 36.367188 14.726562 C 36.128906 14.203125 36.550781 13.949219 36.921875 14.394531 M 43.863281 14.652344 C 43.558594 15.222656 43.082031 14.890625 43.355469 14.292969 L 43.472656 14.03125 L 43.714844 14.257812 C 43.890625 14.425781 43.929688 14.527344 43.863281 14.652344 M 125.015625 14.308594 C 125.417969 14.476562 125.367188 14.632812 124.816406 14.917969 C 124.386719 15.140625 124.03125 14.621094 124.375 14.277344 C 124.527344 14.125 124.585938 14.128906 125.015625 14.308594 M 98.601562 14.390625 C 98.859375 14.703125 98.507812 14.882812 98.039062 14.671875 L 97.621094 14.484375 L 97.945312 14.382812 C 98.394531 14.238281 98.476562 14.238281 98.601562 14.390625 M 41.238281 14.449219 C 41.535156 14.5625 41.070312 14.695312 40.710938 14.597656 L 40.445312 14.527344 L 40.691406 14.449219 C 41.007812 14.355469 41.003906 14.355469 41.238281 14.449219 M 25.640625 15.117188 C 25.644531 15.648438 25.480469 15.75 25.304688 15.332031 C 25.183594 15.046875 25.1875 14.964844 25.316406 14.714844 C 25.503906 14.351562 25.640625 14.519531 25.640625 15.117188 M 34.257812 14.496094 C 34.257812 14.515625 34.078125 14.550781 33.863281 14.570312 C 33.644531 14.59375 33.464844 14.574219 33.464844 14.53125 C 33.464844 14.488281 33.644531 14.457031 33.863281 14.457031 C 34.078125 14.457031 34.257812 14.472656 34.257812 14.496094 M 52.574219 15.148438 C 52.574219 15.367188 52.535156 15.542969 52.484375 15.542969 C 52.367188 15.542969 52.242188 14.988281 52.324219 14.855469 C 52.460938 14.636719 52.574219 14.769531 52.574219 15.148438 M 55.617188 15.796875 L 55.46875 16.078125 L 55.308594 15.765625 C 55.160156 15.476562 55.160156 15.449219 55.320312 15.355469 C 55.617188 15.1875 55.796875 15.453125 55.617188 15.796875 M 94.789062 15.730469 C 94.515625 15.964844 94.515625 15.964844 94.421875 15.761719 C 94.261719 15.398438 94.394531 15.242188 94.753906 15.378906 L 95.0625 15.492188 L 94.789062 15.730469 M 22.640625 15.496094 C 22.722656 15.757812 22.492188 15.886719 22.28125 15.695312 C 22.125 15.554688 22.105469 15.492188 22.199219 15.429688 C 22.359375 15.328125 22.597656 15.363281 22.640625 15.496094 M 32.214844 16.316406 C 33.023438 16.792969 35.296875 16.96875 36.652344 16.65625 L 37.511719 16.460938 L 37.773438 16.734375 C 38.109375 17.085938 38.175781 17.574219 38.023438 18.628906 C 37.886719 19.59375 37.875 19.617188 37.019531 20.21875 C 35.757812 21.113281 35.574219 21.441406 36.128906 21.824219 C 36.734375 22.246094 36.84375 22.414062 36.988281 23.171875 C 37.0625 23.558594 37.214844 24.027344 37.328125 24.210938 L 37.535156 24.542969 L 37.285156 25.035156 C 36.832031 25.929688 36.515625 26.042969 35.753906 25.578125 C 35.03125 25.140625 34.433594 23.769531 34.714844 23.183594 C 35.285156 21.976562 34.960938 21.261719 33.949219 21.519531 C 33.097656 21.734375 32.78125 22.3125 33.167969 22.949219 C 33.382812 23.296875 33.421875 23.320312 33.972656 23.410156 L 34.332031 23.46875 L 34.148438 23.835938 C 34.042969 24.035156 33.960938 24.273438 33.960938 24.359375 C 33.960938 24.664062 32.609375 25.867188 32.351562 25.785156 C 31.242188 25.445312 30.386719 23.988281 30.808594 23.148438 C 31.148438 22.460938 31.011719 22.109375 30.003906 21.042969 C 29.328125 20.332031 28.589844 19.003906 28.257812 17.921875 C 28.0625 17.277344 28.410156 16.519531 29.03125 16.230469 C 29.667969 15.933594 31.660156 15.988281 32.214844 16.316406 M 48.589844 16.222656 C 49.359375 16.640625 49.292969 18.636719 48.472656 19.753906 C 48.355469 19.914062 48.136719 20.257812 47.988281 20.511719 C 47.84375 20.769531 47.585938 21.074219 47.425781 21.1875 C 47.257812 21.304688 47.058594 21.527344 46.980469 21.683594 C 46.898438 21.839844 46.75 21.992188 46.648438 22.023438 C 46.371094 22.113281 46.253906 22.460938 46.363281 22.882812 L 46.453125 23.25 L 47 23.007812 C 47.300781 22.875 47.6875 22.660156 47.859375 22.535156 C 48.589844 21.996094 49.109375 22.40625 49.109375 23.515625 C 49.109375 24.128906 49.300781 24.480469 49.59375 24.414062 C 50.621094 24.171875 50.726562 24.246094 50.796875 25.246094 C 50.828125 25.6875 50.800781 25.71875 50.128906 26.035156 L 49.46875 26.34375 L 49.234375 26.109375 C 49.101562 25.980469 48.941406 25.65625 48.875 25.386719 C 48.726562 24.816406 48.496094 24.65625 47.792969 24.65625 C 47.382812 24.652344 47.269531 24.601562 46.890625 24.257812 L 46.460938 23.859375 L 46.351562 24.289062 C 45.851562 26.277344 43.953125 26.117188 43.609375 24.058594 L 43.535156 23.613281 L 43.34375 24.046875 C 43.238281 24.28125 43.011719 24.601562 42.839844 24.753906 C 42.664062 24.90625 42.339844 25.210938 42.113281 25.433594 C 41.410156 26.125 40.488281 25.917969 40.179688 25 L 40.015625 24.503906 L 40.464844 24.042969 C 40.875 23.625 40.921875 23.527344 40.980469 22.953125 C 41.070312 22.152344 41.222656 21.917969 41.804688 21.726562 C 42.371094 21.539062 42.382812 21.488281 41.921875 21.242188 C 41.730469 21.136719 41.4375 20.882812 41.273438 20.675781 C 41.109375 20.472656 40.796875 20.203125 40.578125 20.078125 C 40.296875 19.921875 40.101562 19.703125 39.929688 19.355469 C 39.792969 19.085938 39.621094 18.792969 39.550781 18.710938 C 39.078125 18.167969 39.222656 17.203125 39.832031 16.820312 C 40.164062 16.613281 40.097656 16.613281 41.980469 16.792969 C 42.78125 16.867188 44.75 16.605469 45.101562 16.375 C 45.621094 16.035156 48.046875 15.925781 48.589844 16.222656 M 91.292969 17.195312 C 91.132812 17.308594 91.089844 17.445312 91.089844 17.855469 C 91.089844 18.613281 91.246094 18.78125 92.035156 18.867188 C 92.839844 18.953125 92.96875 19.074219 92.972656 19.734375 C 92.976562 20.707031 93.449219 20.757812 93.722656 19.816406 C 93.945312 19.042969 93.988281 18.972656 94.324219 18.863281 C 94.929688 18.660156 95.125 18.316406 94.75 18.117188 C 94.546875 18.007812 94.113281 18.195312 93.660156 18.578125 C 93.433594 18.769531 93 18.328125 92.859375 17.765625 C 92.796875 17.519531 92.675781 17.28125 92.585938 17.238281 C 92.269531 17.074219 91.5 17.050781 91.292969 17.195312 M 19.605469 17.96875 C 19.605469 18.386719 19.570312 18.515625 19.457031 18.515625 C 19.339844 18.515625 19.308594 18.386719 19.308594 17.96875 C 19.308594 17.550781 19.339844 17.425781 19.457031 17.425781 C 19.570312 17.425781 19.605469 17.550781 19.605469 17.96875 M 131.320312 17.492188 C 131.445312 17.617188 131 17.828125 130.746094 17.765625 C 130.34375 17.664062 130.433594 17.425781 130.875 17.425781 C 131.082031 17.425781 131.285156 17.457031 131.320312 17.492188 M 25.855469 18.175781 C 26.277344 18.394531 26.695312 19.058594 27.191406 20.308594 L 27.65625 21.480469 L 27.46875 21.835938 C 26.640625 23.378906 23.320312 24.6875 22.324219 23.859375 C 21.78125 23.410156 21.1875 21.898438 21.1875 20.972656 C 21.1875 20.113281 21.964844 18.847656 22.808594 18.324219 C 23.425781 17.941406 25.234375 17.855469 25.855469 18.175781 M 53.941406 18.074219 C 54.371094 18.125 54.554688 18.210938 54.949219 18.546875 C 55.214844 18.773438 55.527344 19.027344 55.644531 19.109375 C 56.136719 19.453125 56.359375 21.0625 56.082031 22.277344 C 55.613281 24.347656 54.289062 24.617188 51.535156 23.203125 C 49.796875 22.308594 49.488281 21.398438 50.417969 19.929688 C 50.578125 19.675781 50.8125 19.242188 50.933594 18.96875 C 51.207031 18.347656 51.300781 18.269531 51.980469 18.09375 C 52.507812 17.957031 52.851562 17.953125 53.941406 18.074219 M 18.152344 20.242188 C 17.789062 20.402344 17.65625 20.609375 17.566406 21.167969 C 17.460938 21.832031 18.394531 22.203125 19.09375 21.777344 C 19.589844 21.476562 19.421875 20.5625 18.8125 20.25 C 18.472656 20.074219 18.542969 20.074219 18.152344 20.242188 M 18.675781 21.09375 C 18.800781 21.523438 18.679688 21.742188 18.378906 21.625 C 18.1875 21.550781 18.183594 21.480469 18.332031 20.976562 C 18.464844 20.535156 18.515625 20.554688 18.675781 21.09375 M 59.6875 21.066406 C 59.859375 21.605469 59.71875 21.832031 59.273438 21.742188 C 58.8125 21.648438 58.714844 21.523438 58.820312 21.160156 C 59.011719 20.480469 59.488281 20.433594 59.6875 21.066406 M 91.152344 21.113281 C 91.332031 21.460938 91.261719 21.554688 90.792969 21.601562 C 90.417969 21.636719 90.3125 21.441406 90.4375 20.945312 C 90.515625 20.621094 90.949219 20.722656 91.152344 21.113281 M 42.960938 21.398438 C 42.527344 21.558594 42.71875 22.820312 43.253906 23.304688 C 43.492188 23.519531 43.847656 23.355469 44.394531 22.78125 L 44.683594 22.484375 L 44.414062 22.128906 C 43.800781 21.328125 43.527344 21.1875 42.960938 21.398438 M 43.859375 22.226562 C 44.105469 22.488281 44.046875 22.664062 43.648438 22.878906 C 43.371094 23.027344 43.121094 22.589844 43.28125 22.238281 C 43.425781 21.917969 43.566406 21.914062 43.859375 22.226562 M 30.003906 22.789062 C 30.460938 23.5 30.457031 23.472656 30.1875 24.03125 C 29.863281 24.699219 29.328125 24.871094 28.765625 24.488281 C 28.453125 24.277344 28.414062 24.324219 28.414062 24.933594 C 28.414062 26.003906 27.296875 26.511719 26.835938 25.648438 C 26.46875 24.964844 26.78125 24.238281 27.515625 24.074219 C 28.058594 23.949219 28.117188 23.859375 28.117188 23.101562 C 28.117188 22.355469 28.222656 22.28125 29.433594 22.191406 C 29.546875 22.183594 29.746094 22.394531 30.003906 22.789062 M 34.058594 22.285156 C 34.675781 22.417969 34.664062 22.589844 34.03125 22.714844 C 33.480469 22.820312 33.207031 22.675781 33.371094 22.367188 C 33.488281 22.144531 33.429688 22.152344 34.058594 22.285156 M 18.1875 23.441406 C 17.785156 23.886719 17.800781 24.726562 18.214844 24.949219 C 19.011719 25.375 19.554688 24.699219 19.25 23.652344 C 19.148438 23.300781 18.445312 23.160156 18.1875 23.441406 M 57.886719 23.53125 C 57.785156 23.632812 57.808594 24.742188 57.917969 24.945312 C 58.132812 25.351562 59.449219 25.125 59.710938 24.640625 C 59.984375 24.128906 58.308594 23.113281 57.886719 23.53125 M 18.792969 24.144531 L 19.003906 24.523438 L 18.757812 24.65625 C 18.367188 24.863281 18.152344 24.601562 18.3125 24.121094 C 18.460938 23.667969 18.527344 23.671875 18.792969 24.144531 M 59.191406 24.324219 C 59.425781 24.472656 59.425781 24.472656 59.222656 24.613281 C 58.65625 25.011719 58.039062 24.757812 58.382812 24.265625 C 58.542969 24.035156 58.757812 24.050781 59.191406 24.324219 M 91.6875 24.261719 C 91.890625 24.644531 91.507812 24.886719 91.132812 24.613281 C 90.945312 24.476562 90.945312 24.46875 91.128906 24.265625 C 91.367188 24.003906 91.546875 24.003906 91.6875 24.261719 M 131.699219 24.304688 C 131.878906 24.699219 131.652344 24.902344 131.277344 24.683594 L 130.992188 24.515625 L 131.207031 24.285156 C 131.476562 24 131.5625 24 131.699219 24.304688 M 25.6875 24.347656 C 26.101562 24.808594 25.5625 25.097656 24.96875 24.730469 L 24.613281 24.515625 L 25.003906 24.339844 C 25.492188 24.121094 25.480469 24.121094 25.6875 24.347656 M 52.667969 24.460938 C 52.808594 24.535156 52.636719 24.59375 51.753906 24.792969 C 51.460938 24.859375 51.3125 24.6875 51.421875 24.410156 C 51.476562 24.257812 52.355469 24.292969 52.667969 24.460938 M 25.566406 25.785156 C 26.175781 25.917969 26.253906 26.796875 25.707031 27.3125 L 25.484375 27.523438 L 24.992188 27.207031 C 24.726562 27.035156 24.378906 26.820312 24.222656 26.734375 C 23.886719 26.546875 23.886719 26.566406 24.226562 25.960938 L 24.492188 25.484375 L 24.894531 25.605469 C 25.117188 25.675781 25.417969 25.753906 25.566406 25.785156 M 53.03125 26.304688 C 53.304688 27.390625 51.726562 28.019531 51.332031 26.980469 C 51.113281 26.410156 51.15625 26.328125 51.898438 25.914062 L 52.523438 25.5625 L 52.746094 25.804688 C 52.867188 25.9375 52.996094 26.164062 53.03125 26.304688 M 39.726562 26.996094 C 40.398438 27.335938 40.285156 28.507812 39.550781 28.855469 C 38.644531 29.285156 37.5625 28.890625 37.335938 28.042969 C 37.070312 27.035156 38.535156 26.394531 39.726562 26.996094 M 32.4375 27.824219 C 33.554688 28.25 32.414062 30.144531 31.152344 29.953125 C 30.210938 29.808594 30 29.589844 30 28.769531 C 30 27.902344 31.304688 27.394531 32.4375 27.824219 M 47.109375 28.085938 L 47.574219 28.375 L 47.574219 29.554688 L 47.0625 29.8125 C 46.125 30.289062 45.464844 30.0625 44.855469 29.050781 L 44.511719 28.484375 L 44.953125 28.09375 C 45.515625 27.59375 46.308594 27.59375 47.109375 28.085938 M 40.296875 30.050781 C 42.019531 30.140625 43.621094 30.355469 44.632812 30.632812 C 45.109375 30.761719 45.742188 30.921875 46.039062 30.988281 C 46.339844 31.054688 46.984375 31.300781 47.476562 31.539062 C 47.964844 31.773438 48.632812 32.085938 48.960938 32.226562 C 49.625 32.519531 49.589844 32.664062 48.792969 32.875 C 48.019531 33.085938 28.976562 33.019531 28.550781 32.808594 C 28.117188 32.589844 28.085938 32.476562 28.414062 32.3125 C 30.492188 31.296875 31.015625 31.085938 31.929688 30.894531 C 32.476562 30.78125 33.121094 30.621094 33.367188 30.542969 C 34.195312 30.277344 37.976562 29.867188 38.761719 29.957031 C 38.925781 29.972656 39.617188 30.019531 40.296875 30.050781 M 25.800781 30.835938 C 25.765625 30.980469 25.671875 31.125 25.589844 31.152344 C 25.210938 31.300781 24.980469 30.59375 25.320312 30.339844 C 25.578125 30.148438 25.894531 30.476562 25.800781 30.835938 M 118.15625 30.769531 C 119.269531 31.058594 120.367188 31.40625 120.683594 31.570312 C 120.992188 31.730469 121.511719 31.941406 121.835938 32.035156 C 122.777344 32.304688 123.035156 32.460938 122.804688 32.621094 C 122.308594 32.96875 121.910156 32.980469 111.207031 32.988281 C 100.480469 32.992188 100.238281 32.984375 99.605469 32.628906 L 99.355469 32.492188 L 99.824219 32.289062 C 100.082031 32.179688 100.484375 32.039062 100.714844 31.976562 C 100.949219 31.914062 101.371094 31.730469 101.65625 31.570312 C 102.035156 31.351562 102.660156 31.171875 103.984375 30.882812 C 104.976562 30.671875 105.859375 30.46875 105.941406 30.433594 C 106.363281 30.261719 107.574219 30.21875 111.683594 30.238281 L 116.1875 30.253906 L 118.15625 30.769531 M 4.296875 33.507812 C 4.265625 33.585938 4.257812 33.730469 4.28125 33.832031 C 4.304688 33.941406 4.335938 33.890625 4.371094 33.6875 C 4.421875 33.351562 4.386719 33.265625 4.296875 33.507812 M 53.734375 34.480469 C 54.128906 34.914062 54.160156 35.25 54.171875 39.511719 C 54.1875 43.9375 54.1875 43.9375 53.664062 44.207031 C 53.148438 44.476562 24.566406 44.425781 23.96875 44.15625 C 23.246094 43.824219 23.28125 44.066406 23.292969 39.46875 C 23.300781 34.828125 23.273438 35.007812 24.046875 34.484375 L 24.378906 34.261719 L 53.535156 34.261719 L 53.734375 34.480469 M 125.933594 34.507812 C 126.726562 34.972656 126.65625 33.773438 126.660156 46.945312 C 126.664062 63.914062 126.675781 63.703125 125.710938 64.339844 L 125.3125 64.605469 L 119.164062 64.632812 C 115.785156 64.648438 112.695312 64.667969 112.300781 64.671875 C 111.394531 64.6875 111.464844 64.796875 111.328125 63.09375 C 111.210938 61.652344 111.207031 61.640625 110.902344 61.367188 L 110.589844 61.089844 L 103.539062 61.089844 C 96.0625 61.089844 95.867188 61.078125 95.835938 60.621094 C 95.777344 59.800781 95.839844 57.710938 95.929688 57.546875 C 96.140625 57.148438 96.507812 57.128906 103.730469 57.128906 L 110.679688 57.128906 L 110.980469 56.871094 L 111.289062 56.617188 L 111.289062 55.484375 C 111.289062 53.101562 111.988281 53.296875 103.449219 53.292969 L 96.390625 53.285156 L 96.074219 52.941406 L 95.761719 52.597656 L 95.804688 51.570312 C 95.863281 50.234375 95.90625 50 96.136719 49.703125 L 96.324219 49.457031 L 103.46875 49.40625 L 110.609375 49.355469 L 110.898438 49.03125 C 111.34375 48.539062 111.347656 46.515625 110.90625 46.023438 L 110.621094 45.707031 L 103.554688 45.699219 C 99.664062 45.695312 96.410156 45.65625 96.316406 45.609375 C 95.980469 45.445312 95.832031 44.78125 95.863281 43.574219 C 95.90625 41.90625 95.011719 42.078125 103.492188 42.078125 L 110.597656 42.074219 L 110.902344 41.800781 C 111.503906 41.265625 111.417969 38.910156 110.777344 38.371094 L 110.496094 38.132812 L 104.480469 38.136719 C 95.734375 38.144531 96.375 38.164062 96.085938 37.875 C 95.414062 37.207031 95.871094 34.496094 96.683594 34.339844 C 97.578125 34.164062 125.628906 34.328125 125.933594 34.507812 M 119.230469 37.746094 C 118.925781 38.074219 118.835938 38.398438 118.921875 38.851562 C 119.304688 40.828125 119.0625 41.113281 117.03125 41.070312 C 115.253906 41.035156 115.148438 41.085938 115.148438 42.023438 C 115.148438 42.9375 115.28125 43.003906 117.015625 42.917969 L 118.464844 42.847656 L 118.738281 43.121094 C 119.128906 43.511719 119.140625 44.582031 118.761719 44.992188 L 118.511719 45.257812 L 116.539062 45.230469 C 114.328125 45.195312 114.363281 45.183594 114.285156 45.875 C 114.160156 46.976562 114.300781 47.046875 116.722656 47.035156 C 118.472656 47.027344 118.558594 47.035156 118.777344 47.242188 L 119.011719 47.460938 L 119.007812 51.429688 C 119.007812 54.386719 118.972656 55.539062 118.875 55.957031 C 118.570312 57.257812 118.996094 57.992188 119.992188 57.882812 C 120.839844 57.785156 121.117188 57.226562 120.894531 56.050781 C 120.835938 55.742188 120.792969 53.816406 120.792969 51.480469 L 120.792969 47.445312 L 121.101562 47.183594 C 121.429688 46.90625 121.699219 46.898438 124.019531 47.082031 C 124.9375 47.15625 125.308594 46.875 125.265625 46.136719 C 125.222656 45.316406 124.792969 44.972656 124.039062 45.144531 C 123.804688 45.199219 123.105469 45.242188 122.488281 45.246094 L 121.359375 45.246094 L 121.042969 44.910156 C 120.746094 44.59375 120.726562 44.535156 120.765625 43.996094 C 120.839844 42.957031 121.515625 42.65625 123.070312 42.96875 C 123.855469 43.125 124.398438 42.777344 124.4375 42.089844 C 124.492188 41.132812 124.074219 40.910156 122.527344 41.082031 C 120.898438 41.265625 120.527344 40.773438 120.886719 38.910156 C 121.085938 37.882812 119.894531 37.042969 119.230469 37.746094 M 120.320312 38.28125 C 120.625 38.4375 120.648438 38.585938 120.449219 39.144531 C 119.960938 40.515625 120.804688 41.429688 122.476562 41.351562 C 123.777344 41.292969 123.863281 41.332031 123.863281 42.023438 C 123.863281 42.6875 123.820312 42.703125 122.523438 42.617188 C 120.785156 42.5 119.894531 43.613281 120.695312 44.902344 C 121.066406 45.503906 123.226562 45.992188 123.78125 45.601562 C 124.265625 45.261719 124.628906 45.386719 124.796875 45.957031 C 125.046875 46.792969 124.984375 46.820312 123.039062 46.761719 C 120.277344 46.683594 120.363281 46.535156 120.296875 51.453125 L 120.246094 55.128906 L 119.941406 55.511719 C 119.34375 56.246094 119.332031 56.171875 119.277344 51.421875 C 119.214844 46.417969 119.355469 46.664062 116.640625 46.765625 C 114.6875 46.839844 114.425781 46.707031 114.972656 45.914062 C 115.285156 45.464844 115.484375 45.410156 116.003906 45.640625 C 116.578125 45.894531 116.800781 45.890625 117.722656 45.636719 C 119.003906 45.277344 119.246094 44.996094 119.1875 43.933594 C 119.128906 42.832031 118.714844 42.585938 116.910156 42.578125 C 115.949219 42.574219 115.984375 42.59375 115.890625 41.96875 C 115.804688 41.382812 115.859375 41.359375 117.300781 41.378906 C 118.992188 41.402344 119.246094 41.148438 119.195312 39.476562 C 119.152344 37.996094 119.351562 37.785156 120.320312 38.28125 M 109.855469 38.472656 C 110.515625 38.523438 110.5625 38.542969 110.792969 38.886719 C 111.257812 39.5625 111.171875 41.417969 110.664062 41.707031 C 110.339844 41.890625 96.945312 41.878906 96.410156 41.695312 C 95.480469 41.375 95.445312 39.140625 96.363281 38.640625 C 96.820312 38.390625 107.226562 38.261719 109.855469 38.472656 M 53.417969 44.863281 C 54.234375 45.246094 54.203125 45.074219 54.242188 49.515625 C 54.28125 53.9375 54.308594 53.753906 53.53125 54.117188 L 53.019531 54.355469 L 24.957031 54.355469 L 24.433594 54.117188 C 24.144531 53.984375 23.808594 53.789062 23.679688 53.6875 L 23.449219 53.5 L 23.449219 49.511719 C 23.453125 44.972656 23.378906 45.34375 24.359375 44.875 L 24.921875 44.605469 L 38.941406 44.625 L 52.960938 44.648438 L 53.417969 44.863281 M 110.765625 46.265625 C 111.335938 46.835938 111.074219 48.898438 110.410156 49.085938 C 110.058594 49.183594 97.398438 49.179688 96.828125 49.082031 C 95.957031 48.929688 95.792969 48.691406 95.792969 47.546875 C 95.792969 45.84375 95.238281 45.953125 103.6875 45.972656 L 110.492188 45.988281 L 110.765625 46.265625 M 110.734375 53.953125 C 111.289062 54.472656 111.285156 56.226562 110.734375 56.710938 L 110.476562 56.9375 L 103.480469 56.910156 C 95.128906 56.875 95.902344 57.007812 95.800781 55.605469 C 95.652344 53.5625 95.242188 53.664062 103.679688 53.691406 L 110.480469 53.710938 L 110.734375 53.953125 M 53.609375 54.792969 C 54.191406 55.039062 54.1875 55.003906 54.167969 59.449219 L 54.152344 63.515625 L 53.882812 63.894531 C 53.351562 64.648438 53.375 64.644531 46.46875 64.652344 L 40.414062 64.664062 L 39.5625 65.003906 C 38.527344 65.421875 38.53125 65.421875 37.964844 65.023438 L 37.507812 64.703125 L 24.515625 64.648438 L 24.183594 64.394531 C 24.003906 64.257812 23.734375 63.960938 23.585938 63.738281 L 23.316406 63.332031 L 23.316406 59.335938 C 23.3125 54.851562 23.261719 55.164062 24.058594 54.820312 C 24.566406 54.601562 53.089844 54.574219 53.609375 54.792969 M 110.554688 61.460938 C 111.121094 61.832031 111.289062 62.980469 110.941406 64.109375 C 110.695312 64.917969 110.609375 64.984375 110.085938 64.78125 C 109.695312 64.628906 109.085938 64.609375 103.960938 64.597656 C 96.839844 64.578125 96.285156 64.535156 95.980469 63.9375 C 95.574219 63.152344 95.90625 61.613281 96.519531 61.453125 C 96.804688 61.375 110.441406 61.386719 110.554688 61.460938 "/>
</g>
</svg>
