<?xml version="1.0" encoding="UTF-8"?>
<svg xmlns="http://www.w3.org/2000/svg" xmlns:xlink="http://www.w3.org/1999/xlink" width="150px" height="150px" viewBox="0 0 150 150" version="1.1">
<g id="surface1">
<path style=" stroke:none;fill-rule:evenodd;fill:rgb(1.960784%,1.568628%,1.568628%);fill-opacity:1;" d="M 0 74.960938 L 0 117.203125 L 74.117188 117.203125 C 114.886719 117.203125 148.640625 117.226562 149.117188 117.253906 L 150 117.304688 L 150 32.71875 L 0 32.71875 L 0 74.960938 M 145.273438 75.195312 L 145.273438 113.875 L 5.820312 113.875 L 5.800781 75.273438 C 5.789062 54.042969 5.796875 36.628906 5.816406 36.574219 C 5.847656 36.496094 19.835938 36.480469 75.5625 36.496094 L 145.273438 36.515625 L 145.273438 75.195312 M 94.148438 40.785156 C 87.28125 41.75 78.007812 50.371094 64.636719 68.226562 C 46.207031 92.835938 42.84375 102.054688 50.355469 107.402344 C 58.1875 112.980469 67.644531 106.003906 85.746094 81.304688 C 100.238281 61.527344 105.015625 51.480469 102.734375 45.578125 C 101.46875 42.300781 97.824219 40.269531 94.148438 40.785156 M 96.210938 41.335938 C 98.644531 41.605469 100.917969 43.160156 101.949219 45.265625 C 104.796875 51.074219 99.4375 62.054688 83.09375 83.886719 C 66.648438 105.863281 57.746094 112.164062 50.632812 106.867188 C 43.914062 101.859375 46.792969 93.527344 62.761719 71.792969 C 77.679688 51.484375 87.496094 42.089844 94.59375 41.339844 C 95.453125 41.246094 95.4375 41.246094 96.210938 41.335938 M 95.675781 47.597656 C 95.050781 48.09375 94.191406 48.273438 91.992188 48.382812 C 86 48.667969 82.464844 50.585938 78.109375 55.917969 C 77.328125 56.882812 77.304688 57.027344 77.992188 56.648438 C 79.160156 56.003906 80.203125 55.777344 82.617188 55.660156 C 86.457031 55.476562 88.511719 54.742188 91.210938 52.609375 C 92.347656 51.707031 95.035156 48.894531 95.871094 47.734375 C 96.058594 47.472656 95.941406 47.390625 95.675781 47.597656 M 95.3125 48.117188 C 95.3125 48.320312 93.226562 50.628906 92.203125 51.558594 C 89.121094 54.351562 86.898438 55.300781 83.011719 55.503906 C 80.472656 55.632812 79.617188 55.765625 78.597656 56.195312 C 77.859375 56.503906 77.863281 56.441406 78.628906 55.523438 C 82.667969 50.695312 86.214844 48.808594 91.808594 48.535156 C 93.511719 48.449219 94.207031 48.371094 94.765625 48.191406 C 95.167969 48.0625 95.3125 48.042969 95.3125 48.117188 M 91.011719 55.9375 C 89.507812 57.484375 87.871094 58.070312 83.164062 58.753906 C 74.792969 59.96875 70.90625 62.417969 66.917969 68.996094 C 66.203125 70.175781 66.203125 70.1875 67.085938 69.773438 C 68.246094 69.230469 69.179688 68.988281 72.449219 68.386719 C 78.550781 67.257812 82.832031 64.914062 87.65625 60.050781 C 89.195312 58.5 91.5625 55.789062 91.5625 55.578125 C 91.5625 55.429688 91.429688 55.515625 91.011719 55.9375 M 90.3125 56.894531 C 90.3125 57.273438 86.15625 61.421875 84.257812 62.933594 C 80.269531 66.125 77.371094 67.339844 70.898438 68.542969 C 69.546875 68.792969 68.207031 69.140625 67.398438 69.457031 C 66.613281 69.757812 66.617188 69.765625 67.226562 68.761719 C 71.035156 62.527344 74.957031 60.097656 83.097656 58.910156 C 87.089844 58.332031 88.644531 57.894531 89.960938 56.996094 C 90.207031 56.828125 90.3125 56.796875 90.3125 56.894531 M 82.695312 67.695312 C 82.171875 68.054688 81.214844 68.539062 80.359375 68.871094 C 79.082031 69.363281 78.425781 69.554688 73.75 70.78125 C 65.152344 73.03125 61.027344 75.804688 57.894531 81.460938 C 57.136719 82.828125 57.152344 83.039062 57.949219 82.269531 C 59.449219 80.828125 60.746094 80.410156 64.140625 80.285156 C 67.808594 80.148438 69.484375 79.789062 71.835938 78.636719 C 74.832031 77.175781 78.167969 74.160156 81.378906 70.03125 C 83.234375 67.632812 83.53125 67.113281 82.695312 67.695312 M 82.605469 68.132812 C 82.574219 68.183594 82.230469 68.648438 81.847656 69.167969 C 77.75 74.652344 73.804688 78 69.921875 79.285156 C 68.171875 79.863281 67.039062 80.042969 64.164062 80.167969 C 60.925781 80.308594 59.757812 80.613281 58.414062 81.648438 C 57.785156 82.132812 57.734375 82.121094 58.011719 81.566406 C 59.824219 77.984375 63.105469 74.964844 67.175781 73.128906 C 69.289062 72.175781 70.96875 71.644531 76.171875 70.296875 C 78.6875 69.644531 80.441406 69.050781 81.585938 68.46875 C 82.5 68.007812 82.722656 67.933594 82.605469 68.132812 M 68.945312 83.03125 C 67.667969 83.917969 66.019531 84.574219 62.617188 85.542969 C 55.652344 87.523438 52.625 89.527344 50.058594 93.847656 C 49.433594 94.90625 49.476562 95.085938 50.148438 94.1875 C 51.253906 92.691406 52.007812 92.445312 54.257812 92.8125 C 58.730469 93.546875 62.140625 91.675781 67.195312 85.71875 C 69.421875 83.09375 69.890625 82.375 68.945312 83.03125 M 68.828125 83.441406 C 68.828125 83.710938 65.261719 87.753906 63.964844 88.957031 C 60.292969 92.355469 57.746094 93.34375 54.335938 92.695312 C 52.734375 92.394531 51.910156 92.457031 51.1875 92.941406 C 50.625 93.3125 50.628906 93.183594 51.195312 92.429688 C 53.761719 89.019531 56.351562 87.480469 62.5 85.730469 C 65.0625 85 66.492188 84.492188 67.617188 83.921875 C 68.640625 83.398438 68.828125 83.324219 68.828125 83.441406 "/>
<path style=" stroke:none;fill-rule:evenodd;fill:rgb(83.137256%,65.490198%,34.901962%);fill-opacity:1;" d="M 6.835938 36.53125 C 6.878906 36.574219 7.160156 36.746094 7.460938 36.910156 C 7.761719 37.070312 7.972656 37.167969 7.929688 37.125 C 7.886719 37.082031 7.605469 36.914062 7.304688 36.75 C 7.003906 36.582031 6.792969 36.488281 6.835938 36.53125 M 8.085938 37.238281 C 8.128906 37.28125 8.410156 37.449219 8.710938 37.613281 C 9.011719 37.773438 9.222656 37.875 9.179688 37.832031 C 9.136719 37.785156 8.855469 37.617188 8.554688 37.453125 C 8.253906 37.292969 8.042969 37.191406 8.085938 37.238281 M 9.335938 37.941406 C 9.378906 37.984375 9.65625 38.15625 9.960938 38.316406 C 10.265625 38.484375 10.472656 38.578125 10.429688 38.535156 C 10.386719 38.492188 10.105469 38.320312 9.804688 38.15625 C 9.503906 37.996094 9.292969 37.898438 9.335938 37.941406 M 10.585938 38.644531 C 10.628906 38.691406 10.910156 38.859375 11.210938 39.023438 C 11.511719 39.1875 11.722656 39.285156 11.679688 39.238281 C 11.636719 39.195312 11.355469 39.027344 11.054688 38.863281 C 10.753906 38.699219 10.542969 38.601562 10.585938 38.644531 M 11.835938 39.351562 C 11.878906 39.394531 12.160156 39.566406 12.460938 39.730469 C 12.761719 39.890625 12.972656 39.988281 12.929688 39.945312 C 12.886719 39.898438 12.609375 39.730469 12.304688 39.570312 C 12 39.402344 11.792969 39.304688 11.835938 39.351562 M 13.085938 40.054688 C 13.128906 40.097656 13.410156 40.269531 13.710938 40.433594 C 14.011719 40.59375 14.222656 40.691406 14.179688 40.648438 C 14.136719 40.605469 13.855469 40.4375 13.554688 40.273438 C 13.253906 40.105469 13.042969 40.011719 13.085938 40.054688 M 14.335938 40.761719 C 14.378906 40.804688 14.660156 40.972656 14.960938 41.136719 C 15.261719 41.296875 15.472656 41.398438 15.429688 41.355469 C 15.386719 41.3125 15.105469 41.140625 14.804688 40.976562 C 14.503906 40.816406 14.292969 40.714844 14.335938 40.761719 M 94.59375 41.339844 C 87.496094 42.089844 77.679688 51.484375 62.761719 71.792969 C 46.792969 93.527344 43.914062 101.859375 50.632812 106.867188 C 57.746094 112.164062 66.648438 105.863281 83.09375 83.886719 C 99.4375 62.054688 104.796875 51.074219 101.949219 45.265625 C 100.917969 43.160156 98.644531 41.605469 96.210938 41.335938 C 95.4375 41.246094 95.453125 41.246094 94.59375 41.339844 M 15.585938 41.464844 C 15.628906 41.507812 15.910156 41.679688 16.210938 41.839844 C 16.511719 42.007812 16.722656 42.101562 16.679688 42.058594 C 16.636719 42.015625 16.355469 41.84375 16.054688 41.679688 C 15.753906 41.519531 15.542969 41.421875 15.585938 41.464844 M 16.835938 42.167969 C 16.878906 42.214844 17.160156 42.382812 17.460938 42.546875 C 17.761719 42.710938 17.972656 42.808594 17.929688 42.761719 C 17.886719 42.71875 17.605469 42.550781 17.304688 42.386719 C 17.003906 42.222656 16.792969 42.125 16.835938 42.167969 M 18.085938 42.875 C 18.128906 42.917969 18.410156 43.089844 18.710938 43.253906 C 19.011719 43.414062 19.222656 43.511719 19.179688 43.46875 C 19.136719 43.421875 18.855469 43.253906 18.554688 43.09375 C 18.253906 42.925781 18.042969 42.828125 18.085938 42.875 M 19.335938 43.578125 C 19.378906 43.621094 19.660156 43.792969 19.960938 43.957031 C 20.261719 44.117188 20.472656 44.214844 20.429688 44.171875 C 20.386719 44.128906 20.105469 43.960938 19.804688 43.796875 C 19.503906 43.628906 19.292969 43.535156 19.335938 43.578125 M 20.585938 44.285156 C 20.628906 44.328125 20.910156 44.496094 21.210938 44.660156 C 21.511719 44.820312 21.722656 44.921875 21.679688 44.878906 C 21.636719 44.835938 21.355469 44.664062 21.054688 44.5 C 20.753906 44.339844 20.542969 44.242188 20.585938 44.285156 M 21.835938 44.988281 C 21.878906 45.03125 22.160156 45.203125 22.460938 45.363281 C 22.761719 45.53125 22.972656 45.625 22.929688 45.582031 C 22.886719 45.539062 22.605469 45.367188 22.304688 45.203125 C 22.003906 45.042969 21.792969 44.945312 21.835938 44.988281 M 23.085938 45.691406 C 23.128906 45.738281 23.410156 45.90625 23.710938 46.070312 C 24.011719 46.234375 24.222656 46.332031 24.179688 46.285156 C 24.136719 46.242188 23.855469 46.074219 23.554688 45.910156 C 23.253906 45.746094 23.042969 45.648438 23.085938 45.691406 M 24.296875 46.375 C 24.296875 46.398438 24.402344 46.46875 24.53125 46.535156 C 24.660156 46.605469 24.765625 46.644531 24.765625 46.621094 C 24.765625 46.601562 24.660156 46.523438 24.53125 46.457031 C 24.402344 46.390625 24.296875 46.355469 24.296875 46.375 M 24.882812 46.710938 C 24.925781 46.753906 25.207031 46.925781 25.507812 47.085938 C 25.808594 47.253906 26.019531 47.347656 25.976562 47.304688 C 25.933594 47.261719 25.652344 47.089844 25.351562 46.925781 C 25.050781 46.765625 24.839844 46.667969 24.882812 46.710938 M 26.132812 47.414062 C 26.175781 47.460938 26.457031 47.628906 26.757812 47.792969 C 27.058594 47.957031 27.269531 48.054688 27.226562 48.007812 C 27.183594 47.964844 26.902344 47.796875 26.601562 47.632812 C 26.300781 47.46875 26.089844 47.371094 26.132812 47.414062 M 95.871094 47.734375 C 95.035156 48.894531 92.347656 51.707031 91.210938 52.609375 C 88.511719 54.742188 86.457031 55.476562 82.617188 55.660156 C 80.203125 55.777344 79.160156 56.003906 77.992188 56.648438 C 77.304688 57.027344 77.328125 56.882812 78.109375 55.917969 C 82.464844 50.585938 86 48.667969 91.992188 48.382812 C 94.191406 48.273438 95.050781 48.09375 95.675781 47.597656 C 95.941406 47.390625 96.058594 47.472656 95.871094 47.734375 M 27.382812 48.121094 C 27.425781 48.164062 27.707031 48.332031 28.007812 48.5 C 28.308594 48.660156 28.519531 48.757812 28.476562 48.714844 C 28.433594 48.667969 28.152344 48.5 27.851562 48.335938 C 27.550781 48.171875 27.339844 48.078125 27.382812 48.121094 M 94.765625 48.191406 C 94.207031 48.371094 93.511719 48.449219 91.808594 48.535156 C 86.214844 48.808594 82.667969 50.695312 78.628906 55.523438 C 77.863281 56.441406 77.859375 56.503906 78.597656 56.195312 C 79.617188 55.765625 80.472656 55.632812 83.011719 55.503906 C 87.5 55.273438 90.402344 53.753906 93.960938 49.765625 C 95.53125 48.007812 95.566406 47.9375 94.765625 48.191406 M 94.1875 49.34375 C 90.441406 53.679688 87.59375 55.171875 82.617188 55.425781 C 80.789062 55.515625 79.761719 55.660156 78.941406 55.9375 C 78.632812 56.046875 78.363281 56.128906 78.328125 56.128906 C 78.035156 56.128906 81.117188 52.96875 82.359375 52.003906 C 85.421875 49.605469 87.699219 48.832031 92.382812 48.613281 C 93.449219 48.5625 94.121094 48.492188 94.492188 48.394531 C 94.792969 48.3125 95.050781 48.253906 95.066406 48.269531 C 95.082031 48.28125 94.691406 48.765625 94.1875 49.34375 M 28.632812 48.824219 C 28.675781 48.867188 28.957031 49.039062 29.257812 49.203125 C 29.558594 49.363281 29.769531 49.460938 29.726562 49.417969 C 29.683594 49.375 29.402344 49.207031 29.101562 49.042969 C 28.800781 48.878906 28.589844 48.78125 28.632812 48.824219 M 29.882812 49.53125 C 29.925781 49.574219 30.207031 49.742188 30.507812 49.90625 C 30.808594 50.066406 31.019531 50.167969 30.976562 50.125 C 30.933594 50.078125 30.652344 49.910156 30.351562 49.746094 C 30.050781 49.585938 29.839844 49.484375 29.882812 49.53125 M 31.132812 50.234375 C 31.175781 50.277344 31.457031 50.449219 31.757812 50.609375 C 32.058594 50.777344 32.269531 50.871094 32.226562 50.828125 C 32.183594 50.785156 31.902344 50.613281 31.601562 50.449219 C 31.300781 50.289062 31.089844 50.191406 31.132812 50.234375 M 32.382812 50.9375 C 32.425781 50.984375 32.707031 51.152344 33.007812 51.316406 C 33.308594 51.480469 33.519531 51.578125 33.476562 51.53125 C 33.433594 51.488281 33.152344 51.320312 32.851562 51.15625 C 32.550781 50.992188 32.339844 50.894531 32.382812 50.9375 M 33.632812 51.644531 C 33.675781 51.6875 33.957031 51.859375 34.257812 52.023438 C 34.558594 52.183594 34.769531 52.28125 34.726562 52.238281 C 34.683594 52.191406 34.402344 52.023438 34.101562 51.863281 C 33.800781 51.695312 33.589844 51.601562 33.632812 51.644531 M 34.882812 52.347656 C 34.925781 52.390625 35.207031 52.5625 35.507812 52.726562 C 35.808594 52.886719 36.019531 52.984375 35.976562 52.941406 C 35.933594 52.898438 35.652344 52.730469 35.351562 52.566406 C 35.050781 52.402344 34.839844 52.304688 34.882812 52.347656 M 36.132812 53.054688 C 36.175781 53.097656 36.457031 53.265625 36.757812 53.429688 C 37.058594 53.589844 37.269531 53.691406 37.226562 53.648438 C 37.183594 53.601562 36.902344 53.433594 36.601562 53.269531 C 36.300781 53.109375 36.089844 53.007812 36.132812 53.054688 M 37.382812 53.757812 C 37.425781 53.800781 37.707031 53.972656 38.007812 54.132812 C 38.308594 54.300781 38.519531 54.394531 38.476562 54.351562 C 38.433594 54.308594 38.152344 54.136719 37.851562 53.972656 C 37.550781 53.8125 37.339844 53.714844 37.382812 53.757812 M 38.632812 54.460938 C 38.675781 54.507812 38.953125 54.675781 39.257812 54.839844 C 39.5625 55.003906 39.769531 55.101562 39.726562 55.054688 C 39.683594 55.011719 39.402344 54.84375 39.101562 54.679688 C 38.800781 54.515625 38.589844 54.417969 38.632812 54.460938 M 39.882812 55.167969 C 39.925781 55.210938 40.207031 55.382812 40.507812 55.546875 C 40.808594 55.707031 41.019531 55.804688 40.976562 55.761719 C 40.933594 55.714844 40.652344 55.546875 40.351562 55.386719 C 40.050781 55.21875 39.839844 55.125 39.882812 55.167969 M 91.5625 55.578125 C 91.5625 55.789062 89.195312 58.5 87.65625 60.050781 C 82.832031 64.914062 78.550781 67.257812 72.449219 68.386719 C 69.179688 68.988281 68.246094 69.230469 67.085938 69.773438 C 66.203125 70.1875 66.203125 70.175781 66.917969 68.996094 C 70.90625 62.417969 74.792969 59.96875 83.164062 58.753906 C 87.871094 58.070312 89.507812 57.484375 91.011719 55.9375 C 91.429688 55.515625 91.5625 55.429688 91.5625 55.578125 M 41.132812 55.871094 C 41.175781 55.914062 41.457031 56.085938 41.757812 56.25 C 42.058594 56.410156 42.269531 56.507812 42.226562 56.464844 C 42.183594 56.421875 41.90625 56.253906 41.601562 56.089844 C 41.296875 55.925781 41.089844 55.828125 41.132812 55.871094 M 42.382812 56.578125 C 42.425781 56.621094 42.707031 56.789062 43.007812 56.953125 C 43.308594 57.113281 43.519531 57.214844 43.476562 57.171875 C 43.433594 57.125 43.152344 56.957031 42.851562 56.792969 C 42.550781 56.632812 42.339844 56.53125 42.382812 56.578125 M 89.960938 56.996094 C 88.644531 57.894531 87.089844 58.332031 83.097656 58.910156 C 74.957031 60.097656 71.035156 62.527344 67.226562 68.761719 C 66.617188 69.765625 66.613281 69.757812 67.398438 69.457031 C 68.207031 69.140625 69.546875 68.792969 70.898438 68.542969 C 77.371094 67.339844 80.269531 66.125 84.257812 62.933594 C 86.480469 61.160156 90.734375 56.832031 90.253906 56.835938 C 90.222656 56.835938 90.089844 56.90625 89.960938 56.996094 M 43.59375 57.261719 C 43.59375 57.285156 43.699219 57.355469 43.828125 57.421875 C 43.957031 57.488281 44.0625 57.523438 44.0625 57.503906 C 44.0625 57.480469 43.957031 57.410156 43.828125 57.34375 C 43.699219 57.277344 43.59375 57.242188 43.59375 57.261719 M 89.25 57.988281 C 83.851562 64.015625 79.121094 66.902344 72.65625 68.109375 C 69.488281 68.699219 68.644531 68.894531 67.597656 69.265625 C 66.804688 69.550781 66.796875 69.621094 67.722656 68.21875 C 71.644531 62.261719 75.238281 60.148438 83.398438 58.988281 C 86.539062 58.539062 87.902344 58.199219 89.21875 57.535156 C 89.980469 57.15625 89.980469 57.175781 89.25 57.988281 M 44.140625 57.574219 C 44.140625 57.59375 44.28125 57.683594 44.453125 57.777344 C 44.625 57.863281 44.765625 57.917969 44.765625 57.894531 C 44.765625 57.875 44.625 57.785156 44.453125 57.695312 C 44.28125 57.605469 44.140625 57.550781 44.140625 57.574219 M 44.84375 57.964844 C 44.84375 57.988281 44.949219 58.058594 45.078125 58.125 C 45.207031 58.191406 45.3125 58.230469 45.3125 58.207031 C 45.3125 58.1875 45.207031 58.113281 45.078125 58.046875 C 44.949219 57.980469 44.84375 57.945312 44.84375 57.964844 M 45.429688 58.296875 C 45.472656 58.34375 45.753906 58.511719 46.054688 58.675781 C 46.355469 58.835938 46.566406 58.9375 46.523438 58.894531 C 46.480469 58.847656 46.199219 58.679688 45.898438 58.515625 C 45.597656 58.355469 45.386719 58.253906 45.429688 58.296875 M 46.679688 59.003906 C 46.722656 59.050781 47.003906 59.21875 47.304688 59.378906 C 47.605469 59.546875 47.816406 59.640625 47.773438 59.597656 C 47.730469 59.554688 47.449219 59.382812 47.148438 59.21875 C 46.847656 59.058594 46.636719 58.960938 46.679688 59.003906 M 47.929688 59.710938 C 47.972656 59.753906 48.253906 59.921875 48.554688 60.085938 C 48.855469 60.25 49.066406 60.347656 49.023438 60.304688 C 48.980469 60.257812 48.699219 60.089844 48.398438 59.925781 C 48.097656 59.761719 47.886719 59.664062 47.929688 59.710938 M 49.179688 60.414062 C 49.222656 60.457031 49.5 60.625 49.804688 60.792969 C 50.109375 60.953125 50.316406 61.050781 50.273438 61.007812 C 50.230469 60.964844 49.949219 60.792969 49.648438 60.628906 C 49.347656 60.464844 49.136719 60.371094 49.179688 60.414062 M 50.429688 61.117188 C 50.472656 61.160156 50.753906 61.332031 51.054688 61.496094 C 51.355469 61.65625 51.566406 61.753906 51.523438 61.710938 C 51.480469 61.667969 51.199219 61.5 50.898438 61.335938 C 50.597656 61.171875 50.386719 61.074219 50.429688 61.117188 M 51.679688 61.824219 C 51.722656 61.867188 52.003906 62.035156 52.304688 62.199219 C 52.605469 62.359375 52.816406 62.460938 52.773438 62.417969 C 52.730469 62.371094 52.453125 62.203125 52.148438 62.039062 C 51.84375 61.878906 51.636719 61.777344 51.679688 61.824219 M 52.929688 62.527344 C 52.972656 62.574219 53.253906 62.742188 53.554688 62.902344 C 53.855469 63.070312 54.066406 63.164062 54.023438 63.121094 C 53.980469 63.078125 53.699219 62.90625 53.398438 62.742188 C 53.097656 62.582031 52.886719 62.484375 52.929688 62.527344 M 54.179688 63.234375 C 54.222656 63.277344 54.503906 63.445312 54.804688 63.609375 C 55.105469 63.773438 55.316406 63.871094 55.273438 63.828125 C 55.230469 63.78125 54.949219 63.613281 54.648438 63.449219 C 54.347656 63.285156 54.136719 63.1875 54.179688 63.234375 M 55.429688 63.9375 C 55.472656 63.980469 55.753906 64.148438 56.054688 64.316406 C 56.355469 64.476562 56.566406 64.574219 56.523438 64.53125 C 56.480469 64.488281 56.199219 64.316406 55.898438 64.152344 C 55.597656 63.988281 55.386719 63.894531 55.429688 63.9375 M 56.679688 64.640625 C 56.722656 64.683594 57.003906 64.855469 57.304688 65.019531 C 57.605469 65.179688 57.816406 65.277344 57.773438 65.234375 C 57.730469 65.191406 57.449219 65.023438 57.148438 64.859375 C 56.847656 64.695312 56.636719 64.597656 56.679688 64.640625 M 57.929688 65.347656 C 57.972656 65.390625 58.253906 65.558594 58.554688 65.722656 C 58.855469 65.882812 59.066406 65.984375 59.023438 65.941406 C 58.980469 65.894531 58.699219 65.726562 58.398438 65.5625 C 58.097656 65.402344 57.886719 65.300781 57.929688 65.347656 M 59.179688 66.050781 C 59.222656 66.097656 59.503906 66.265625 59.804688 66.425781 C 60.105469 66.59375 60.316406 66.6875 60.273438 66.644531 C 60.230469 66.601562 59.949219 66.429688 59.648438 66.265625 C 59.347656 66.105469 59.136719 66.007812 59.179688 66.050781 M 60.429688 66.757812 C 60.472656 66.800781 60.753906 66.96875 61.054688 67.132812 C 61.355469 67.296875 61.566406 67.394531 61.523438 67.351562 C 61.480469 67.304688 61.199219 67.136719 60.898438 66.972656 C 60.597656 66.808594 60.386719 66.710938 60.429688 66.757812 M 61.679688 67.460938 C 61.722656 67.503906 62.003906 67.671875 62.304688 67.839844 C 62.605469 68 62.816406 68.097656 62.773438 68.054688 C 62.730469 68.011719 62.449219 67.839844 62.148438 67.679688 C 61.847656 67.511719 61.636719 67.417969 61.679688 67.460938 M 82.722656 68.238281 C 79.082031 73.300781 75.230469 76.976562 71.835938 78.636719 C 69.484375 79.789062 67.808594 80.148438 64.140625 80.285156 C 60.746094 80.410156 59.449219 80.828125 57.949219 82.269531 C 57.152344 83.039062 57.136719 82.828125 57.894531 81.460938 C 61.027344 75.804688 65.152344 73.03125 73.75 70.78125 C 78.425781 69.554688 79.082031 69.363281 80.359375 68.871094 C 81.214844 68.539062 82.171875 68.054688 82.695312 67.695312 C 83.273438 67.289062 83.285156 67.464844 82.722656 68.238281 M 81.585938 68.46875 C 80.441406 69.050781 78.6875 69.644531 76.171875 70.296875 C 70.96875 71.644531 69.289062 72.175781 67.175781 73.128906 C 63.105469 74.964844 59.824219 77.984375 58.011719 81.566406 C 57.734375 82.121094 57.785156 82.132812 58.414062 81.648438 C 59.757812 80.613281 60.925781 80.308594 64.164062 80.167969 C 67.039062 80.042969 68.171875 79.863281 69.921875 79.285156 C 73.804688 78 77.75 74.652344 81.847656 69.167969 C 82.882812 67.777344 82.894531 67.804688 81.585938 68.46875 M 62.890625 68.144531 C 62.890625 68.164062 63 68.238281 63.125 68.308594 C 63.253906 68.375 63.359375 68.410156 63.359375 68.390625 C 63.359375 68.367188 63.253906 68.296875 63.125 68.226562 C 63 68.160156 62.890625 68.121094 62.890625 68.144531 M 82.292969 68.367188 C 81.703125 69.371094 79.171875 72.398438 77.582031 73.988281 C 73.335938 78.25 70.144531 79.765625 64.921875 80.011719 C 61.152344 80.1875 60.015625 80.421875 58.691406 81.3125 C 58.023438 81.765625 58.019531 81.734375 58.597656 80.757812 C 61.144531 76.472656 65.042969 73.664062 70.976562 71.839844 C 72.371094 71.410156 72.957031 71.253906 76.132812 70.425781 C 78.953125 69.691406 80.824219 69.0625 81.828125 68.5 C 82.269531 68.25 82.382812 68.21875 82.292969 68.367188 M 63.4375 68.453125 C 63.4375 68.472656 63.597656 68.578125 63.792969 68.683594 C 63.984375 68.792969 64.121094 68.851562 64.097656 68.808594 C 64.046875 68.726562 63.4375 68.398438 63.4375 68.453125 M 85.867188 81.136719 C 85.949219 81.210938 86.40625 81.421875 86.40625 81.386719 C 86.40625 81.339844 85.972656 81.105469 85.890625 81.105469 C 85.859375 81.105469 85.851562 81.117188 85.867188 81.136719 M 86.523438 81.476562 C 86.566406 81.519531 86.847656 81.6875 87.148438 81.855469 C 87.449219 82.015625 87.660156 82.113281 87.617188 82.070312 C 87.574219 82.027344 87.292969 81.855469 86.992188 81.691406 C 86.691406 81.527344 86.480469 81.433594 86.523438 81.476562 M 87.773438 82.179688 C 87.816406 82.222656 88.097656 82.394531 88.398438 82.558594 C 88.699219 82.71875 88.910156 82.816406 88.867188 82.773438 C 88.824219 82.730469 88.542969 82.5625 88.242188 82.398438 C 87.941406 82.234375 87.730469 82.136719 87.773438 82.179688 M 69.453125 82.835938 C 69.453125 83.136719 66.558594 86.53125 64.8125 88.28125 C 60.722656 92.378906 58.199219 93.460938 54.257812 92.8125 C 52.007812 92.445312 51.253906 92.691406 50.148438 94.1875 C 49.476562 95.085938 49.433594 94.90625 50.058594 93.847656 C 52.625 89.527344 55.652344 87.523438 62.617188 85.542969 C 66.019531 84.574219 67.667969 83.917969 68.945312 83.03125 C 69.367188 82.738281 69.453125 82.703125 69.453125 82.835938 M 89.023438 82.882812 C 89.066406 82.929688 89.34375 83.101562 89.648438 83.261719 C 89.953125 83.425781 90.160156 83.523438 90.117188 83.476562 C 90.074219 83.433594 89.792969 83.265625 89.492188 83.101562 C 89.191406 82.941406 88.980469 82.839844 89.023438 82.882812 M 67.617188 83.921875 C 66.492188 84.492188 65.0625 85 62.5 85.730469 C 56.351562 87.480469 53.761719 89.019531 51.195312 92.429688 C 50.628906 93.183594 50.625 93.3125 51.1875 92.941406 C 51.910156 92.457031 52.734375 92.394531 54.335938 92.695312 C 58.734375 93.53125 62.449219 91.335938 67.84375 84.714844 C 69.136719 83.125 69.144531 83.144531 67.617188 83.921875 M 90.273438 83.589844 C 90.316406 83.636719 90.597656 83.804688 90.898438 83.964844 C 91.199219 84.132812 91.410156 84.230469 91.367188 84.183594 C 91.324219 84.140625 91.042969 83.96875 90.742188 83.808594 C 90.441406 83.644531 90.230469 83.546875 90.273438 83.589844 M 67.6875 84.730469 C 62.363281 91.300781 58.828125 93.363281 54.253906 92.574219 C 52.871094 92.335938 52.117188 92.34375 51.53125 92.605469 C 51.019531 92.832031 51.019531 92.824219 51.617188 92.066406 C 54.035156 89.003906 56.59375 87.546875 62.558594 85.835938 C 65.441406 85.011719 67.492188 84.269531 68.140625 83.8125 C 68.597656 83.492188 68.457031 83.78125 67.6875 84.730469 M 91.523438 84.296875 C 91.566406 84.339844 91.847656 84.507812 92.148438 84.671875 C 92.449219 84.835938 92.660156 84.933594 92.617188 84.890625 C 92.574219 84.84375 92.296875 84.675781 91.992188 84.511719 C 91.6875 84.347656 91.480469 84.25 91.523438 84.296875 M 92.773438 85 C 92.816406 85.042969 93.097656 85.210938 93.398438 85.378906 C 93.699219 85.539062 93.910156 85.636719 93.867188 85.59375 C 93.824219 85.550781 93.542969 85.378906 93.242188 85.214844 C 92.941406 85.050781 92.730469 84.957031 92.773438 85 M 94.023438 85.703125 C 94.066406 85.746094 94.347656 85.917969 94.648438 86.082031 C 94.949219 86.242188 95.160156 86.339844 95.117188 86.296875 C 95.074219 86.253906 94.792969 86.085938 94.492188 85.921875 C 94.191406 85.757812 93.980469 85.660156 94.023438 85.703125 M 95.273438 86.40625 C 95.316406 86.453125 95.597656 86.625 95.898438 86.785156 C 96.199219 86.949219 96.410156 87.046875 96.367188 87 C 96.324219 86.957031 96.042969 86.789062 95.742188 86.625 C 95.441406 86.464844 95.230469 86.363281 95.273438 86.40625 M 96.523438 87.113281 C 96.566406 87.160156 96.847656 87.328125 97.148438 87.488281 C 97.449219 87.65625 97.660156 87.753906 97.617188 87.707031 C 97.574219 87.664062 97.292969 87.492188 96.992188 87.332031 C 96.691406 87.167969 96.480469 87.070312 96.523438 87.113281 M 97.773438 87.820312 C 97.816406 87.863281 98.097656 88.03125 98.398438 88.195312 C 98.699219 88.359375 98.910156 88.457031 98.867188 88.414062 C 98.824219 88.367188 98.542969 88.199219 98.242188 88.035156 C 97.941406 87.871094 97.730469 87.773438 97.773438 87.820312 M 99.023438 88.523438 C 99.066406 88.566406 99.347656 88.734375 99.648438 88.902344 C 99.949219 89.0625 100.160156 89.160156 100.117188 89.117188 C 100.074219 89.074219 99.792969 88.902344 99.492188 88.738281 C 99.191406 88.574219 98.980469 88.480469 99.023438 88.523438 M 100.273438 89.226562 C 100.316406 89.269531 100.597656 89.441406 100.898438 89.605469 C 101.199219 89.765625 101.410156 89.863281 101.367188 89.820312 C 101.324219 89.777344 101.042969 89.609375 100.742188 89.445312 C 100.441406 89.28125 100.230469 89.183594 100.273438 89.226562 M 101.484375 89.910156 C 101.484375 89.933594 101.589844 90.007812 101.71875 90.074219 C 101.847656 90.140625 101.953125 90.175781 101.953125 90.15625 C 101.953125 90.132812 101.847656 90.0625 101.71875 89.996094 C 101.589844 89.925781 101.484375 89.890625 101.484375 89.910156 M 102.03125 90.226562 C 102.03125 90.246094 102.171875 90.335938 102.34375 90.425781 C 102.515625 90.511719 102.65625 90.570312 102.65625 90.546875 C 102.65625 90.523438 102.515625 90.433594 102.34375 90.347656 C 102.171875 90.257812 102.03125 90.203125 102.03125 90.226562 M 102.734375 90.617188 C 102.734375 90.640625 102.84375 90.710938 102.96875 90.777344 C 103.097656 90.84375 103.203125 90.878906 103.203125 90.859375 C 103.203125 90.839844 103.097656 90.765625 102.96875 90.699219 C 102.84375 90.632812 102.734375 90.597656 102.734375 90.617188 M 103.320312 90.949219 C 103.363281 90.992188 103.644531 91.164062 103.945312 91.328125 C 104.246094 91.488281 104.457031 91.585938 104.414062 91.542969 C 104.371094 91.5 104.089844 91.332031 103.789062 91.167969 C 103.488281 91.003906 103.277344 90.90625 103.320312 90.949219 M 104.570312 91.652344 C 104.613281 91.703125 104.894531 91.871094 105.195312 92.03125 C 105.496094 92.195312 105.707031 92.292969 105.664062 92.246094 C 105.621094 92.203125 105.339844 92.035156 105.039062 91.871094 C 104.738281 91.710938 104.527344 91.609375 104.570312 91.652344 M 105.820312 92.363281 C 105.863281 92.40625 106.144531 92.574219 106.445312 92.734375 C 106.746094 92.902344 106.957031 93 106.914062 92.953125 C 106.871094 92.910156 106.589844 92.738281 106.289062 92.578125 C 105.988281 92.414062 105.777344 92.316406 105.820312 92.363281 M 107.070312 93.066406 C 107.113281 93.109375 107.394531 93.277344 107.695312 93.4375 C 107.996094 93.605469 108.207031 93.703125 108.164062 93.660156 C 108.121094 93.613281 107.839844 93.441406 107.539062 93.28125 C 107.238281 93.117188 107.027344 93.019531 107.070312 93.066406 M 108.320312 93.769531 C 108.363281 93.8125 108.644531 93.980469 108.945312 94.148438 C 109.246094 94.308594 109.457031 94.40625 109.414062 94.363281 C 109.371094 94.320312 109.089844 94.148438 108.789062 93.984375 C 108.488281 93.824219 108.277344 93.726562 108.320312 93.769531 M 109.570312 94.472656 C 109.613281 94.515625 109.894531 94.6875 110.195312 94.851562 C 110.496094 95.011719 110.707031 95.109375 110.664062 95.066406 C 110.621094 95.023438 110.339844 94.855469 110.039062 94.691406 C 109.738281 94.527344 109.527344 94.429688 109.570312 94.472656 M 110.820312 95.175781 C 110.863281 95.226562 111.144531 95.394531 111.445312 95.554688 C 111.746094 95.71875 111.957031 95.816406 111.914062 95.769531 C 111.871094 95.726562 111.589844 95.558594 111.289062 95.394531 C 110.988281 95.234375 110.777344 95.132812 110.820312 95.175781 M 112.070312 95.886719 C 112.113281 95.929688 112.394531 96.097656 112.695312 96.257812 C 112.996094 96.425781 113.207031 96.523438 113.164062 96.476562 C 113.121094 96.433594 112.839844 96.261719 112.539062 96.101562 C 112.238281 95.9375 112.027344 95.839844 112.070312 95.886719 M 113.320312 96.589844 C 113.363281 96.632812 113.644531 96.800781 113.945312 96.960938 C 114.246094 97.128906 114.457031 97.226562 114.414062 97.183594 C 114.371094 97.136719 114.089844 96.964844 113.789062 96.804688 C 113.488281 96.640625 113.277344 96.542969 113.320312 96.589844 M 114.570312 97.292969 C 114.613281 97.335938 114.894531 97.503906 115.195312 97.671875 C 115.496094 97.832031 115.707031 97.929688 115.664062 97.886719 C 115.621094 97.84375 115.339844 97.671875 115.039062 97.507812 C 114.738281 97.347656 114.527344 97.25 114.570312 97.292969 M 115.820312 97.996094 C 115.863281 98.039062 116.144531 98.210938 116.445312 98.375 C 116.746094 98.535156 116.957031 98.632812 116.914062 98.589844 C 116.871094 98.546875 116.589844 98.378906 116.289062 98.214844 C 115.988281 98.050781 115.777344 97.953125 115.820312 97.996094 M 117.070312 98.699219 C 117.113281 98.75 117.394531 98.917969 117.695312 99.078125 C 117.996094 99.242188 118.207031 99.339844 118.164062 99.292969 C 118.121094 99.25 117.839844 99.082031 117.539062 98.917969 C 117.238281 98.757812 117.027344 98.65625 117.070312 98.699219 M 118.320312 99.410156 C 118.363281 99.453125 118.640625 99.621094 118.945312 99.78125 C 119.25 99.949219 119.457031 100.046875 119.414062 100 C 119.371094 99.957031 119.089844 99.785156 118.789062 99.625 C 118.488281 99.460938 118.277344 99.363281 118.320312 99.410156 M 119.570312 100.113281 C 119.613281 100.15625 119.894531 100.324219 120.195312 100.484375 C 120.496094 100.652344 120.707031 100.75 120.664062 100.707031 C 120.621094 100.660156 120.339844 100.492188 120.039062 100.328125 C 119.738281 100.164062 119.527344 100.066406 119.570312 100.113281 M 120.820312 100.816406 C 120.863281 100.859375 121.144531 101.027344 121.445312 101.195312 C 121.746094 101.355469 121.957031 101.453125 121.914062 101.410156 C 121.871094 101.367188 121.59375 101.195312 121.289062 101.03125 C 120.984375 100.871094 120.777344 100.773438 120.820312 100.816406 M 122.03125 101.5 C 122.03125 101.519531 122.136719 101.59375 122.265625 101.664062 C 122.394531 101.730469 122.5 101.765625 122.5 101.746094 C 122.5 101.722656 122.394531 101.648438 122.265625 101.582031 C 122.136719 101.515625 122.03125 101.476562 122.03125 101.5 M 122.617188 101.835938 C 122.660156 101.878906 122.941406 102.046875 123.242188 102.210938 C 123.542969 102.375 123.753906 102.472656 123.710938 102.429688 C 123.667969 102.382812 123.386719 102.210938 123.085938 102.050781 C 122.785156 101.886719 122.574219 101.792969 122.617188 101.835938 M 123.867188 102.539062 C 123.910156 102.582031 124.191406 102.75 124.492188 102.917969 C 124.792969 103.078125 125.003906 103.175781 124.960938 103.132812 C 124.917969 103.089844 124.636719 102.921875 124.335938 102.753906 C 124.035156 102.59375 123.824219 102.496094 123.867188 102.539062 M 125.117188 103.242188 C 125.160156 103.285156 125.441406 103.457031 125.742188 103.621094 C 126.042969 103.78125 126.253906 103.878906 126.210938 103.835938 C 126.167969 103.792969 125.886719 103.625 125.585938 103.460938 C 125.285156 103.296875 125.074219 103.199219 125.117188 103.242188 M 126.367188 103.945312 C 126.410156 103.992188 126.691406 104.164062 126.992188 104.324219 C 127.292969 104.488281 127.503906 104.582031 127.460938 104.539062 C 127.417969 104.496094 127.136719 104.328125 126.835938 104.164062 C 126.535156 104 126.324219 103.902344 126.367188 103.945312 M 127.617188 104.65625 C 127.660156 104.699219 127.941406 104.867188 128.242188 105.027344 C 128.542969 105.195312 128.753906 105.292969 128.710938 105.246094 C 128.667969 105.203125 128.386719 105.03125 128.085938 104.871094 C 127.785156 104.707031 127.574219 104.609375 127.617188 104.65625 M 128.867188 105.359375 C 128.910156 105.402344 129.1875 105.570312 129.492188 105.734375 C 129.796875 105.898438 130.003906 105.996094 129.960938 105.953125 C 129.917969 105.90625 129.636719 105.734375 129.335938 105.574219 C 129.035156 105.410156 128.824219 105.316406 128.867188 105.359375 M 130.117188 106.0625 C 130.160156 106.105469 130.441406 106.273438 130.742188 106.441406 C 131.042969 106.601562 131.253906 106.699219 131.210938 106.65625 C 131.167969 106.613281 130.886719 106.445312 130.585938 106.277344 C 130.285156 106.117188 130.074219 106.019531 130.117188 106.0625 M 131.367188 106.765625 C 131.410156 106.808594 131.691406 106.980469 131.992188 107.144531 C 132.292969 107.304688 132.503906 107.402344 132.460938 107.359375 C 132.417969 107.316406 132.140625 107.148438 131.835938 106.984375 C 131.53125 106.820312 131.324219 106.722656 131.367188 106.765625 M 132.617188 107.46875 C 132.660156 107.515625 132.941406 107.6875 133.242188 107.847656 C 133.542969 108.011719 133.753906 108.109375 133.710938 108.0625 C 133.667969 108.019531 133.386719 107.851562 133.085938 107.6875 C 132.785156 107.527344 132.574219 107.425781 132.617188 107.46875 M 133.867188 108.179688 C 133.910156 108.222656 134.191406 108.390625 134.492188 108.550781 C 134.792969 108.71875 135.003906 108.816406 134.960938 108.769531 C 134.917969 108.726562 134.636719 108.554688 134.335938 108.394531 C 134.035156 108.230469 133.824219 108.132812 133.867188 108.179688 M 135.117188 108.882812 C 135.160156 108.925781 135.441406 109.09375 135.742188 109.257812 C 136.042969 109.421875 136.253906 109.519531 136.210938 109.476562 C 136.167969 109.429688 135.886719 109.257812 135.585938 109.097656 C 135.285156 108.933594 135.074219 108.839844 135.117188 108.882812 M 136.367188 109.585938 C 136.410156 109.628906 136.691406 109.796875 136.992188 109.964844 C 137.292969 110.125 137.503906 110.222656 137.460938 110.179688 C 137.417969 110.136719 137.136719 109.96875 136.835938 109.800781 C 136.535156 109.640625 136.324219 109.542969 136.367188 109.585938 M 137.617188 110.289062 C 137.660156 110.332031 137.941406 110.503906 138.242188 110.667969 C 138.542969 110.828125 138.753906 110.925781 138.710938 110.882812 C 138.667969 110.839844 138.386719 110.671875 138.085938 110.507812 C 137.785156 110.34375 137.574219 110.246094 137.617188 110.289062 M 138.867188 110.992188 C 138.910156 111.042969 139.191406 111.210938 139.492188 111.371094 C 139.792969 111.535156 140.003906 111.632812 139.960938 111.585938 C 139.917969 111.542969 139.636719 111.375 139.335938 111.210938 C 139.035156 111.050781 138.824219 110.949219 138.867188 110.992188 M 140.117188 111.703125 C 140.160156 111.746094 140.441406 111.914062 140.742188 112.074219 C 141.042969 112.242188 141.253906 112.339844 141.210938 112.292969 C 141.167969 112.25 140.886719 112.078125 140.585938 111.917969 C 140.285156 111.753906 140.074219 111.65625 140.117188 111.703125 M 141.328125 112.382812 C 141.328125 112.40625 141.433594 112.476562 141.5625 112.542969 C 141.691406 112.609375 141.796875 112.648438 141.796875 112.625 C 141.796875 112.605469 141.691406 112.53125 141.5625 112.46875 C 141.433594 112.402344 141.328125 112.363281 141.328125 112.382812 M 141.875 112.695312 C 141.875 112.71875 142.015625 112.8125 142.1875 112.898438 C 142.359375 112.984375 142.5 113.039062 142.5 113.019531 C 142.5 112.996094 142.359375 112.90625 142.1875 112.820312 C 142.015625 112.730469 141.875 112.675781 141.875 112.695312 M 142.578125 113.089844 C 142.578125 113.109375 142.6875 113.183594 142.8125 113.25 C 142.941406 113.316406 143.046875 113.351562 143.046875 113.332031 C 143.046875 113.308594 142.941406 113.238281 142.8125 113.171875 C 142.6875 113.105469 142.578125 113.066406 142.578125 113.089844 M 143.230469 113.464844 C 143.722656 113.796875 143.921875 113.914062 143.96875 113.910156 C 144.0625 113.90625 143.726562 113.675781 143.398438 113.515625 C 143.226562 113.433594 143.152344 113.410156 143.230469 113.464844 "/>
<path style=" stroke:none;fill-rule:evenodd;fill:rgb(1.568628%,1.568628%,98.431373%);fill-opacity:1;" d="M 5.816406 36.574219 C 5.796875 36.628906 5.789062 54.042969 5.800781 75.273438 L 5.820312 113.875 L 74.839844 113.894531 C 119.621094 113.90625 143.832031 113.886719 143.78125 113.835938 C 143.671875 113.726562 86.078125 81.25 85.9375 81.21875 C 85.863281 81.199219 85.148438 82.09375 83.886719 83.792969 C 67.148438 106.332031 57.949219 112.8125 50.355469 107.402344 C 43.046875 102.195312 46.109375 93.234375 62.980469 70.445312 C 63.578125 69.644531 64.0625 68.957031 64.0625 68.917969 C 64.0625 68.875 51.574219 61.796875 36.308594 53.191406 C 21.042969 44.582031 8.136719 37.300781 7.625 37.007812 C 6.664062 36.460938 5.925781 36.285156 5.816406 36.574219 M 37.160156 117.261719 C 57.621094 117.273438 91.128906 117.273438 111.613281 117.261719 C 132.101562 117.25 115.363281 117.242188 74.414062 117.242188 C 33.464844 117.242188 16.703125 117.25 37.160156 117.261719 "/>
<path style=" stroke:none;fill-rule:evenodd;fill:rgb(87.058824%,80.392158%,61.56863%);fill-opacity:1;" d="M 94.492188 48.394531 C 94.121094 48.492188 93.449219 48.5625 92.382812 48.613281 C 87.699219 48.832031 85.421875 49.605469 82.359375 52.003906 C 81.117188 52.96875 78.035156 56.128906 78.328125 56.128906 C 78.363281 56.128906 78.632812 56.046875 78.941406 55.9375 C 79.761719 55.660156 80.789062 55.515625 82.617188 55.425781 C 86.988281 55.203125 89.316406 54.191406 92.523438 51.121094 C 93.242188 50.429688 95.128906 48.316406 95.066406 48.269531 C 95.050781 48.253906 94.792969 48.3125 94.492188 48.394531 M 89.21875 57.535156 C 87.902344 58.199219 86.539062 58.539062 83.398438 58.988281 C 75.238281 60.148438 71.644531 62.261719 67.722656 68.21875 C 66.796875 69.621094 66.804688 69.550781 67.597656 69.265625 C 68.644531 68.894531 69.488281 68.699219 72.65625 68.109375 C 79.121094 66.902344 83.851562 64.015625 89.25 57.988281 C 89.980469 57.175781 89.980469 57.15625 89.21875 57.535156 M 81.828125 68.5 C 80.824219 69.0625 78.953125 69.691406 76.132812 70.425781 C 72.957031 71.253906 72.371094 71.410156 70.976562 71.839844 C 65.042969 73.664062 61.144531 76.472656 58.597656 80.757812 C 58.019531 81.734375 58.023438 81.765625 58.691406 81.3125 C 60.015625 80.421875 61.152344 80.1875 64.921875 80.011719 C 71.351562 79.710938 75.832031 76.894531 81.257812 69.753906 C 82.550781 68.050781 82.523438 68.109375 81.828125 68.5 M 68.140625 83.8125 C 67.492188 84.269531 65.441406 85.011719 62.558594 85.835938 C 56.59375 87.546875 54.035156 89.003906 51.617188 92.066406 C 51.019531 92.824219 51.019531 92.832031 51.53125 92.605469 C 52.117188 92.34375 52.871094 92.335938 54.253906 92.574219 C 58.398438 93.289062 61.503906 91.742188 65.972656 86.746094 C 67.835938 84.660156 68.804688 83.34375 68.140625 83.8125 "/>
<path style=" stroke:none;fill-rule:evenodd;fill:rgb(98.431373%,1.568628%,1.568628%);fill-opacity:1;" d="M 6.992188 36.570312 C 20.066406 44.074219 64.199219 68.796875 64.296875 68.671875 C 64.363281 68.589844 65.046875 67.683594 65.820312 66.65625 C 82.089844 45.050781 92.808594 37.3125 99.871094 42.070312 C 106.886719 46.796875 103.339844 57.105469 86.921875 79.691406 C 86.375 80.441406 85.960938 81.078125 85.996094 81.109375 C 86.027344 81.140625 98.976562 88.453125 114.765625 97.351562 C 130.558594 106.253906 143.609375 113.625 143.769531 113.730469 C 144.03125 113.894531 144.144531 113.917969 144.671875 113.898438 L 145.273438 113.875 L 145.273438 36.515625 L 76.054688 36.496094 C 24.019531 36.484375 6.875 36.503906 6.992188 36.570312 "/>
</g>
</svg>
