<?xml version="1.0" encoding="UTF-8"?>
<svg xmlns="http://www.w3.org/2000/svg" xmlns:xlink="http://www.w3.org/1999/xlink" width="150px" height="150px" viewBox="0 0 150 100" version="1.1">
<g id="surface1">
<path style=" stroke:none;fill-rule:evenodd;fill:rgb(0%,17.254902%,53.333336%);fill-opacity:1;" d="M 50.183594 1.902344 C 49.964844 1.949219 49.613281 2.054688 49.410156 2.140625 C 49.074219 2.285156 46.726562 2.300781 25.816406 2.300781 L 2.597656 2.300781 L 2.304688 2.589844 L 2.007812 2.882812 L 2.007812 49.078125 L 1.785156 49.605469 L 1.558594 50.132812 L 1.558594 62.332031 C 1.558594 72.992188 1.574219 74.558594 1.707031 74.777344 C 1.84375 75 1.863281 73.722656 1.910156 62.746094 L 1.960938 50.46875 L 2.523438 49.984375 L 25.75 49.980469 C 43.472656 49.976562 49.0625 49.945312 49.332031 49.855469 C 49.976562 49.632812 49.9375 51.246094 49.910156 25.917969 L 49.882812 2.804688 L 50.160156 2.527344 L 50.441406 2.25 L 98.726562 2.222656 C 132.585938 2.207031 147.128906 2.230469 147.410156 2.304688 C 148.132812 2.5 148.089844 1.792969 148.097656 14.167969 C 148.105469 25.109375 148.109375 25.238281 148.296875 24.84375 C 148.480469 24.457031 148.488281 24.027344 148.492188 13.667969 C 148.492188 1.929688 148.515625 2.417969 147.929688 2.03125 C 147.625 1.835938 51.144531 1.707031 50.183594 1.902344 M 25.203125 7.773438 C 25.425781 7.957031 25.539062 8.152344 28.882812 13.945312 C 30.058594 15.980469 31.957031 19.265625 33.105469 21.242188 C 45.328125 42.328125 44.234375 40.34375 43.855469 40.722656 C 43.589844 40.988281 42.703125 41 24.242188 40.96875 L 6.035156 40.9375 L 5.820312 40.722656 C 5.441406 40.347656 5.140625 40.929688 10.847656 31.089844 C 11.914062 29.25 13.882812 25.851562 15.222656 23.542969 C 16.558594 21.234375 18.617188 17.679688 19.796875 15.644531 C 20.976562 13.609375 22.4375 11.089844 23.039062 10.046875 C 24.464844 7.578125 24.691406 7.34375 25.203125 7.773438 M 148.089844 62.375 C 148.089844 69.304688 148.117188 74.976562 148.144531 74.976562 C 148.480469 74.976562 148.492188 74.457031 148.492188 62.457031 C 148.492188 50.949219 148.46875 50.003906 148.1875 49.832031 C 148.125 49.792969 148.089844 54.320312 148.089844 62.375 "/>
<path style=" stroke:none;fill-rule:evenodd;fill:rgb(82.745099%,7.843138%,10.980392%);fill-opacity:1;" d="M 50.585938 2.269531 C 50.324219 2.332031 49.933594 2.695312 49.933594 2.871094 C 49.933594 2.949219 50.039062 2.886719 50.175781 2.730469 L 50.417969 2.449219 L 147.40625 2.449219 L 147.890625 3.011719 L 147.890625 13.605469 C 147.890625 25.269531 147.921875 24.65625 147.273438 24.882812 C 147.042969 24.960938 133.808594 24.992188 98.894531 24.992188 C 48.085938 24.992188 50.351562 25.011719 50.070312 24.578125 C 50.023438 24.503906 49.957031 19.695312 49.925781 13.894531 C 49.894531 8.09375 49.882812 13.628906 49.902344 26.191406 C 49.941406 51.234375 49.976562 49.632812 49.332031 49.855469 C 49.058594 49.945312 59.914062 49.976562 98.128906 49.980469 L 147.277344 49.984375 L 147.839844 50.46875 L 147.839844 74.394531 L 147.609375 74.578125 C 147.484375 74.679688 147.144531 74.789062 146.859375 74.824219 C 145.75 74.953125 2.777344 74.835938 2.546875 74.703125 C 2.109375 74.453125 2.109375 74.476562 2.109375 62.414062 C 2.109375 49.941406 2.09375 50.304688 2.632812 50.089844 C 2.796875 50.023438 2.816406 49.996094 2.691406 49.992188 C 2.597656 49.988281 2.394531 50.09375 2.242188 50.226562 L 1.960938 50.46875 L 1.988281 73.695312 C 2.019531 97.992188 2.007812 97.34375 2.472656 97.558594 C 2.65625 97.640625 21.523438 97.667969 75.109375 97.667969 L 147.496094 97.667969 L 147.742188 97.425781 L 147.992188 97.179688 L 148.007812 86.300781 C 148.085938 38.777344 148.054688 3.03125 147.933594 2.730469 C 147.835938 2.492188 147.710938 2.386719 147.421875 2.308594 C 147.035156 2.199219 51.027344 2.164062 50.585938 2.269531 M 5.640625 40.347656 C 5.625 40.550781 5.902344 40.886719 6.082031 40.886719 C 6.132812 40.886719 6.074219 40.820312 5.957031 40.738281 C 5.839844 40.652344 5.722656 40.484375 5.695312 40.363281 C 5.65625 40.152344 5.652344 40.148438 5.640625 40.347656 M 15.648438 40.960938 C 20.691406 40.976562 28.941406 40.976562 33.984375 40.960938 C 39.027344 40.949219 34.902344 40.9375 24.816406 40.9375 C 14.730469 40.9375 10.605469 40.949219 15.648438 40.960938 "/>
<path style=" stroke:none;fill-rule:evenodd;fill:rgb(98.431373%,98.431373%,98.431373%);fill-opacity:1;" d="M 50.472656 2.5 C 49.902344 2.726562 49.933594 2.109375 49.933594 13.613281 C 49.933594 24.960938 49.914062 24.613281 50.480469 24.847656 C 50.9375 25.035156 146.730469 25.070312 147.273438 24.882812 C 147.921875 24.65625 147.890625 25.269531 147.890625 13.605469 L 147.890625 3.011719 L 147.40625 2.449219 L 99.046875 2.429688 C 71.957031 2.417969 50.59375 2.449219 50.472656 2.5 M 24.394531 7.867188 C 24.308594 7.964844 23.808594 8.789062 23.289062 9.695312 C 22.765625 10.605469 21.304688 13.125 20.046875 15.296875 C 18.785156 17.46875 16.660156 21.132812 15.320312 23.441406 C 13.984375 25.75 11.925781 29.304688 10.746094 31.339844 C 5.171875 40.960938 5.457031 40.40625 5.960938 40.734375 C 6.382812 41.007812 43.664062 40.914062 43.867188 40.636719 C 44.140625 40.269531 45.320312 42.390625 33.007812 21.144531 C 31.859375 19.164062 29.789062 15.585938 28.410156 13.195312 C 25.320312 7.847656 25.261719 7.757812 24.859375 7.71875 C 24.664062 7.699219 24.5 7.75 24.394531 7.867188 M 2.632812 50.089844 C 2.09375 50.304688 2.109375 49.941406 2.109375 62.414062 C 2.109375 74.476562 2.109375 74.453125 2.546875 74.703125 C 2.777344 74.835938 145.75 74.953125 146.859375 74.824219 C 147.144531 74.789062 147.484375 74.679688 147.609375 74.578125 L 147.839844 74.394531 L 147.839844 50.46875 L 147.277344 49.984375 L 75.070312 49.992188 C 31.320312 49.996094 2.773438 50.035156 2.632812 50.089844 "/>
<path style=" stroke:none;fill-rule:evenodd;fill:rgb(0%,0%,0%);fill-opacity:1;" d="M 0 49.984375 L 0 99.96875 L 150 99.96875 L 150 0 L 0 0 L 0 49.984375 M 147.929688 2.03125 C 148.515625 2.414062 148.492188 1.933594 148.492188 13.644531 L 148.492188 24.398438 L 148.238281 24.996094 L 147.988281 25.59375 L 148.015625 37.613281 C 148.039062 49.445312 148.042969 49.640625 148.242188 49.929688 C 148.441406 50.222656 148.441406 50.414062 148.46875 62.269531 L 148.496094 74.3125 L 148.269531 74.71875 L 148.039062 75.125 L 147.992188 86.207031 L 147.941406 97.289062 L 147.703125 97.480469 C 147.417969 97.707031 2.984375 97.789062 2.476562 97.558594 C 2 97.34375 2.007812 97.5625 2.007812 86.105469 L 2.007812 75.25 L 1.785156 74.886719 L 1.558594 74.527344 L 1.558594 50.132812 L 1.785156 49.605469 L 2.007812 49.078125 L 2.007812 2.882812 L 2.304688 2.589844 L 2.597656 2.300781 L 25.816406 2.300781 C 46.726562 2.300781 49.074219 2.285156 49.410156 2.140625 C 49.613281 2.054688 49.964844 1.949219 50.183594 1.902344 C 51.144531 1.707031 147.625 1.835938 147.929688 2.03125 "/>
</g>
</svg>
