<svg xmlns="http://www.w3.org/2000/svg" viewBox="0 0 72 72"><path fill="#f1b31c" d="M5 17h62v38H5z"/><path fill="#fff" stroke="#fff" stroke-miterlimit="10" d="M5 19v5l62 23v-5Z"/><path stroke="#000" stroke-miterlimit="10" d="M5 25v5l62 23v-5Z"/><g fill="none" stroke="#d22f27" stroke-linecap="round" stroke-linejoin="round" stroke-width="2"><path d="M41.528 34.915a6 6 0 1 1-11.057 0M36 28v12.5"/><path d="M42 43.25c-3.714 3.143-8.143 3.214-12 0M26 41.75V36l-2-4.25M46 41.75V36.5l2-4.75M39.385 31.592c-2.277-.818-4.662-.753-6.864-.03"/></g><path fill="none" stroke="#000" stroke-linecap="round" stroke-linejoin="round" stroke-width="2" d="M5 17h62v38H5z"/></svg>