<?xml version="1.0" encoding="UTF-8"?>
<svg xmlns="http://www.w3.org/2000/svg" xmlns:xlink="http://www.w3.org/1999/xlink" width="150px" height="150px" viewBox="0 0 150 150" version="1.1">
<g id="surface1">
<path style=" stroke:none;fill-rule:evenodd;fill:rgb(98.039216%,98.039216%,98.039216%);fill-opacity:1;" d="M 4.382812 28.398438 C 4.289062 28.496094 4.261719 33.257812 4.261719 49.226562 L 4.261719 69.929688 L 4.488281 70.085938 C 4.816406 70.316406 144.871094 70.332031 145.183594 70.101562 C 145.492188 69.875 145.492188 60.125 145.183594 59.898438 C 145.015625 59.773438 139.539062 59.753906 106.1875 59.753906 C 67.523438 59.753906 67.386719 59.753906 67.183594 59.550781 C 66.90625 59.269531 66.863281 49.882812 67.140625 49.488281 L 67.296875 49.261719 L 106.144531 49.261719 C 139.523438 49.261719 145.015625 49.242188 145.183594 49.117188 C 145.460938 48.914062 145.550781 39.425781 145.28125 39.011719 L 145.125 38.769531 L 106.199219 38.746094 C 67.796875 38.71875 67.269531 38.714844 67.125 38.523438 C 67.007812 38.355469 66.984375 37.5 66.984375 33.46875 C 66.984375 28.894531 66.972656 28.605469 66.796875 28.445312 C 66.554688 28.226562 4.601562 28.179688 4.382812 28.398438 M 12.609375 30.519531 C 12.84375 31.066406 12.882812 31.277344 12.839844 31.726562 L 12.785156 32.269531 L 13.273438 32.203125 C 13.84375 32.125 15.050781 32.539062 15.230469 32.875 C 15.472656 33.328125 13.863281 33.914062 13.117188 33.644531 C 12.851562 33.550781 12.601562 33.472656 12.558594 33.472656 C 12.347656 33.472656 12.574219 34.179688 13.554688 36.59375 C 16.578125 44.039062 16.472656 43.386719 14.53125 42.597656 C 13.117188 42.023438 13.023438 42.03125 12.589844 42.796875 C 12.175781 43.535156 11.976562 43.53125 11.558594 42.792969 C 11.136719 42.039062 10.996094 42.019531 9.792969 42.535156 C 8.628906 43.03125 8.226562 43.136719 8.207031 42.933594 C 8.179688 42.585938 8.335938 42.164062 9.957031 38.191406 C 11.640625 34.054688 11.863281 33.386719 11.492188 33.507812 C 10.496094 33.835938 10.496094 33.835938 9.71875 33.519531 C 8.84375 33.160156 8.703125 32.890625 9.253906 32.628906 C 10.136719 32.214844 10.460938 32.125 10.894531 32.191406 L 11.335938 32.257812 L 11.328125 31.617188 C 11.308594 29.996094 12.09375 29.320312 12.609375 30.519531 M 28.257812 30.46875 C 28.488281 30.941406 28.550781 31.207031 28.542969 31.652344 L 28.527344 32.222656 L 29.105469 32.210938 C 29.824219 32.195312 30.902344 32.679688 30.902344 33.011719 C 30.902344 33.464844 29.25 33.929688 28.722656 33.625 C 27.828125 33.113281 27.84375 33.167969 29.9375 38.3125 C 32.0625 43.519531 32.054688 43.378906 30.109375 42.546875 C 28.761719 41.96875 28.8125 41.960938 28.179688 42.945312 C 27.839844 43.480469 27.675781 43.449219 27.226562 42.773438 C 26.738281 42.042969 26.632812 42.035156 25.238281 42.632812 C 23.386719 43.425781 23.285156 43.984375 26.332031 36.488281 C 27.617188 33.328125 27.621094 33.292969 26.828125 33.625 C 26.046875 33.953125 24.261719 33.296875 24.648438 32.824219 C 24.902344 32.519531 26.09375 32.128906 26.5625 32.199219 L 26.996094 32.261719 L 26.996094 31.699219 C 26.996094 31.167969 27.277344 30.234375 27.527344 29.929688 C 27.730469 29.683594 27.957031 29.855469 28.257812 30.46875 M 43.925781 30.390625 C 44.132812 30.835938 44.199219 31.132812 44.195312 31.621094 L 44.195312 32.261719 L 44.660156 32.199219 C 45.15625 32.128906 46.335938 32.511719 46.59375 32.824219 C 46.984375 33.296875 45.199219 33.953125 44.417969 33.625 C 43.574219 33.273438 43.574219 33.277344 45.597656 38.261719 C 47.539062 43.042969 47.445312 42.777344 47.246094 42.941406 C 47.078125 43.085938 47.0625 43.082031 45.636719 42.488281 C 44.542969 42.03125 44.390625 42.058594 43.988281 42.765625 C 43.5625 43.515625 43.347656 43.523438 42.941406 42.800781 C 42.515625 42.039062 42.371094 42.019531 41.152344 42.539062 C 39.171875 43.386719 39.167969 43.503906 41.285156 38.277344 C 43.425781 33.003906 43.378906 33.183594 42.539062 33.617188 C 41.957031 33.921875 40.339844 33.472656 40.339844 33.011719 C 40.339844 32.675781 41.421875 32.195312 42.148438 32.210938 L 42.738281 32.222656 L 42.675781 31.832031 C 42.605469 31.421875 42.710938 30.988281 43.054688 30.238281 C 43.34375 29.613281 43.582031 29.65625 43.925781 30.390625 M 59.671875 30.574219 C 59.929688 31.203125 59.976562 31.425781 59.925781 31.785156 L 59.859375 32.222656 L 60.453125 32.210938 C 61.191406 32.199219 62.3125 32.664062 62.3125 32.984375 C 62.3125 33.429688 60.652344 33.921875 60.101562 33.636719 C 59.253906 33.195312 59.296875 33.367188 61.242188 38.140625 C 63.429688 43.515625 63.40625 43.347656 61.839844 42.6875 C 60.117188 41.964844 60.089844 41.964844 59.609375 42.859375 C 59.289062 43.445312 59.035156 43.5 58.78125 43.035156 C 58.21875 41.996094 58.128906 41.980469 56.574219 42.644531 C 54.847656 43.382812 54.832031 43.554688 56.980469 38.277344 C 59.042969 33.207031 59.023438 33.273438 58.195312 33.621094 C 57.5625 33.886719 55.972656 33.417969 55.972656 32.964844 C 55.972656 32.683594 57.117188 32.203125 57.792969 32.203125 L 58.398438 32.199219 L 58.371094 31.679688 C 58.347656 31.277344 58.410156 31.003906 58.648438 30.480469 C 59.070312 29.546875 59.25 29.5625 59.671875 30.574219 M 20.414062 43.316406 C 20.648438 43.835938 20.710938 44.109375 20.691406 44.511719 L 20.664062 45.035156 L 21.214844 45.042969 C 21.734375 45.050781 22.707031 45.359375 23.011719 45.617188 C 23.574219 46.085938 21.582031 46.863281 20.828125 46.472656 C 20.019531 46.054688 20.050781 46.15625 22.121094 51.234375 C 24.238281 56.433594 24.230469 56.253906 22.292969 55.425781 C 21.011719 54.875 20.929688 54.886719 20.449219 55.636719 C 19.992188 56.355469 19.800781 56.355469 19.398438 55.636719 C 18.976562 54.886719 18.882812 54.875 17.570312 55.421875 C 15.605469 56.234375 15.59375 56.460938 17.757812 51.148438 C 19.882812 45.933594 19.835938 46.117188 19.019531 46.457031 C 18.136719 46.828125 16.292969 46.097656 16.878906 45.609375 C 17.226562 45.320312 18.382812 44.984375 18.792969 45.050781 L 19.210938 45.117188 L 19.140625 44.65625 C 19.089844 44.308594 19.125 44.066406 19.285156 43.648438 C 19.761719 42.421875 19.980469 42.359375 20.414062 43.316406 M 36.078125 43.304688 C 36.316406 43.78125 36.382812 44.039062 36.371094 44.488281 L 36.363281 45.066406 L 36.929688 45.054688 C 37.644531 45.042969 38.71875 45.519531 38.71875 45.847656 C 38.71875 46.332031 37.230469 46.753906 36.523438 46.46875 C 35.695312 46.132812 35.644531 45.949219 37.75 51.09375 C 39.871094 56.28125 39.867188 56.230469 38.332031 55.566406 C 36.628906 54.832031 36.585938 54.832031 36.136719 55.632812 C 35.765625 56.292969 35.5 56.359375 35.238281 55.863281 C 35.140625 55.683594 34.9375 55.402344 34.785156 55.242188 C 34.464844 54.90625 34.496094 54.902344 33.101562 55.492188 C 31.316406 56.25 31.304688 56.40625 33.480469 51.054688 C 35.46875 46.179688 35.472656 46.15625 34.734375 46.464844 C 33.976562 46.78125 32.25 46.242188 32.441406 45.746094 C 32.539062 45.488281 33.804688 45.03125 34.355469 45.058594 L 34.867188 45.082031 L 34.867188 44.445312 C 34.867188 43.972656 34.9375 43.660156 35.140625 43.21875 C 35.488281 42.464844 35.667969 42.480469 36.078125 43.304688 M 51.765625 43.277344 C 52.007812 43.78125 52.066406 44.03125 52.046875 44.472656 L 52.023438 45.035156 L 52.578125 45.046875 C 53.410156 45.0625 54.5 45.519531 54.5 45.859375 C 54.5 46.28125 52.84375 46.730469 52.226562 46.472656 C 51.398438 46.125 51.371094 46.019531 53.433594 51.089844 C 55.640625 56.515625 55.621094 56.210938 53.695312 55.425781 C 52.363281 54.886719 52.210938 54.890625 51.898438 55.503906 C 51.472656 56.351562 51.160156 56.402344 50.792969 55.675781 C 50.390625 54.878906 50.253906 54.859375 48.941406 55.421875 C 47.003906 56.253906 47 56.371094 49.050781 51.347656 C 51.25 45.957031 51.207031 46.125 50.386719 46.46875 C 49.527344 46.828125 47.667969 46.085938 48.242188 45.609375 C 48.585938 45.320312 49.742188 44.984375 50.15625 45.050781 L 50.570312 45.117188 L 50.511719 44.675781 C 50.46875 44.347656 50.519531 44.066406 50.703125 43.574219 C 51.136719 42.417969 51.332031 42.363281 51.765625 43.277344 M 12.535156 56.140625 C 12.769531 56.613281 12.839844 56.886719 12.839844 57.359375 L 12.84375 57.972656 L 13.351562 57.9375 C 14.140625 57.886719 15.390625 58.441406 15.261719 58.785156 C 15.210938 58.917969 14.425781 59.296875 13.875 59.457031 C 13.691406 59.507812 13.445312 59.488281 13.175781 59.390625 C 12.214844 59.050781 12.203125 58.984375 14.066406 63.558594 C 15.914062 68.097656 16.03125 68.40625 15.964844 68.582031 C 15.878906 68.808594 15.503906 68.738281 14.511719 68.304688 C 13.359375 67.804688 13.042969 67.804688 12.722656 68.308594 C 12.597656 68.507812 12.402344 68.78125 12.285156 68.921875 L 12.078125 69.175781 L 11.867188 68.921875 C 11.753906 68.78125 11.558594 68.507812 11.433594 68.308594 C 11.117188 67.808594 10.808594 67.808594 9.660156 68.304688 C 7.71875 69.152344 7.703125 69.421875 9.945312 63.929688 C 11.957031 59.003906 11.957031 59.007812 11.011719 59.402344 C 10.421875 59.652344 8.871094 59.089844 8.949219 58.65625 C 9.003906 58.367188 9.914062 57.988281 10.679688 57.941406 L 11.367188 57.898438 L 11.304688 57.511719 C 11.207031 56.894531 11.796875 55.40625 12.105469 55.496094 C 12.171875 55.519531 12.367188 55.808594 12.535156 56.140625 M 28.238281 56.15625 C 28.488281 56.691406 28.550781 56.957031 28.539062 57.410156 L 28.523438 57.988281 L 29.074219 57.941406 C 29.699219 57.890625 30.953125 58.378906 30.953125 58.675781 C 30.953125 59.09375 29.421875 59.632812 28.875 59.40625 C 28.40625 59.207031 28.113281 59.199219 28.113281 59.382812 C 28.113281 59.535156 28.128906 59.578125 30.230469 64.761719 C 32.039062 69.21875 32.042969 69.097656 30.203125 68.308594 C 28.886719 67.746094 28.703125 67.757812 28.3125 68.453125 C 27.84375 69.285156 27.660156 69.28125 27.210938 68.449219 C 26.855469 67.789062 26.640625 67.773438 25.367188 68.300781 C 23.441406 69.105469 23.429688 69.332031 25.582031 64.054688 C 27.71875 58.816406 27.683594 58.96875 26.667969 59.394531 C 26.210938 59.585938 24.554688 59.085938 24.5625 58.757812 C 24.570312 58.410156 25.667969 57.921875 26.441406 57.921875 L 26.996094 57.921875 L 26.996094 57.359375 C 26.996094 56.6875 27.484375 55.476562 27.757812 55.476562 C 27.859375 55.476562 28.039062 55.730469 28.238281 56.15625 M 43.660156 55.652344 C 43.964844 56.015625 44.269531 56.972656 44.234375 57.476562 L 44.199219 57.960938 L 44.710938 57.933594 C 45.757812 57.878906 46.976562 58.566406 46.488281 58.933594 C 45.9375 59.351562 45.023438 59.578125 44.605469 59.402344 C 43.550781 58.960938 43.539062 58.90625 45.628906 64.042969 C 46.609375 66.453125 47.386719 68.492188 47.355469 68.574219 C 47.265625 68.804688 46.9375 68.746094 45.898438 68.308594 C 44.566406 67.753906 44.449219 67.761719 43.96875 68.488281 C 43.519531 69.167969 43.378906 69.207031 43.0625 68.71875 C 42.429688 67.726562 42.421875 67.726562 41.027344 68.308594 C 39.164062 69.09375 39.15625 69.25 41.289062 64.003906 C 43.433594 58.734375 43.375 58.984375 42.375 59.402344 C 41.8125 59.640625 40.289062 59.105469 40.289062 58.671875 C 40.289062 58.410156 41.519531 57.921875 42.171875 57.921875 L 42.738281 57.921875 L 42.675781 57.484375 C 42.539062 56.585938 43.28125 55.210938 43.660156 55.652344 M 59.351562 55.601562 C 59.605469 55.910156 59.914062 56.886719 59.921875 57.40625 L 59.929688 57.960938 L 60.488281 57.9375 C 61.128906 57.910156 62.3125 58.394531 62.3125 58.679688 C 62.3125 59.113281 60.796875 59.640625 60.230469 59.402344 C 59.207031 58.972656 59.148438 58.726562 61.308594 64.023438 C 63.449219 69.28125 63.4375 69.089844 61.5625 68.304688 C 60.296875 67.773438 60.140625 67.792969 59.648438 68.539062 C 59.144531 69.304688 59.078125 69.300781 58.589844 68.464844 C 58.195312 67.785156 57.984375 67.769531 56.722656 68.308594 C 54.855469 69.109375 54.847656 69.234375 56.980469 63.996094 C 59.074219 58.851562 59.050781 58.964844 58.003906 59.402344 C 57.800781 59.488281 57.53125 59.53125 57.410156 59.492188 C 56.90625 59.34375 56.03125 58.90625 55.984375 58.785156 C 55.859375 58.460938 57.039062 57.921875 57.878906 57.921875 L 58.40625 57.921875 L 58.410156 57.285156 C 58.414062 56.222656 59 55.179688 59.351562 55.601562 M 4.429688 80.925781 C 4.179688 81.199219 4.171875 90.820312 4.421875 91.070312 C 4.652344 91.300781 144.871094 91.316406 145.183594 91.085938 C 145.492188 90.859375 145.492188 81.109375 145.183594 80.882812 C 144.839844 80.628906 4.660156 80.667969 4.429688 80.925781 M 4.488281 101.878906 L 4.261719 102.039062 L 4.261719 106.964844 C 4.261719 111.308594 4.28125 111.914062 4.421875 112.054688 C 4.566406 112.199219 11.105469 112.214844 74.851562 112.214844 L 145.125 112.214844 L 145.28125 111.972656 C 145.496094 111.644531 145.46875 102.121094 145.25 101.90625 C 145.03125 101.683594 4.800781 101.660156 4.488281 101.878906 "/>
<path style=" stroke:none;fill-rule:evenodd;fill:rgb(1.568628%,1.568628%,1.568628%);fill-opacity:1;" d="M 0 74.929688 L 0 125.863281 L 150 125.863281 L 150 24 L 0 24 L 0 74.929688 M 66.796875 28.445312 C 66.972656 28.605469 66.984375 28.894531 66.984375 33.46875 C 66.984375 37.5 67.007812 38.355469 67.125 38.523438 C 67.269531 38.714844 67.796875 38.71875 106.199219 38.746094 L 145.125 38.769531 L 145.28125 39.011719 C 145.550781 39.425781 145.460938 48.914062 145.183594 49.117188 C 145.015625 49.242188 139.523438 49.261719 106.144531 49.261719 L 67.296875 49.261719 L 67.140625 49.488281 C 66.863281 49.882812 66.90625 59.269531 67.183594 59.550781 C 67.386719 59.753906 67.523438 59.753906 106.1875 59.753906 C 139.539062 59.753906 145.015625 59.773438 145.183594 59.898438 C 145.492188 60.125 145.492188 69.875 145.183594 70.101562 C 144.871094 70.332031 4.816406 70.316406 4.488281 70.085938 L 4.261719 69.929688 L 4.261719 49.226562 C 4.261719 33.257812 4.289062 28.496094 4.382812 28.398438 C 4.601562 28.179688 66.554688 28.226562 66.796875 28.445312 M 11.59375 30.382812 C 11.382812 30.839844 11.324219 31.125 11.328125 31.617188 L 11.335938 32.257812 L 10.894531 32.191406 C 10.460938 32.125 10.136719 32.214844 9.253906 32.628906 C 8.703125 32.890625 8.84375 33.160156 9.71875 33.519531 C 10.496094 33.835938 10.496094 33.835938 11.492188 33.507812 C 11.863281 33.386719 11.640625 34.054688 9.957031 38.191406 C 7.703125 43.71875 7.714844 43.425781 9.792969 42.535156 C 10.996094 42.019531 11.136719 42.039062 11.558594 42.792969 C 11.976562 43.53125 12.175781 43.535156 12.589844 42.796875 C 13.023438 42.03125 13.117188 42.023438 14.53125 42.597656 C 16.472656 43.386719 16.578125 44.039062 13.554688 36.59375 C 12.574219 34.179688 12.347656 33.472656 12.558594 33.472656 C 12.601562 33.472656 12.851562 33.550781 13.117188 33.644531 C 13.863281 33.914062 15.472656 33.328125 15.230469 32.875 C 15.050781 32.539062 13.84375 32.125 13.273438 32.203125 L 12.785156 32.269531 L 12.839844 31.726562 C 12.882812 31.277344 12.84375 31.066406 12.609375 30.519531 C 12.214844 29.601562 11.972656 29.566406 11.59375 30.382812 M 27.527344 29.929688 C 27.277344 30.234375 26.996094 31.167969 26.996094 31.699219 L 26.996094 32.261719 L 26.5625 32.199219 C 26.09375 32.128906 24.902344 32.519531 24.648438 32.824219 C 24.261719 33.296875 26.046875 33.953125 26.828125 33.625 C 27.621094 33.292969 27.617188 33.328125 26.332031 36.488281 C 23.285156 43.984375 23.386719 43.425781 25.238281 42.632812 C 26.632812 42.035156 26.738281 42.042969 27.226562 42.773438 C 27.675781 43.449219 27.839844 43.480469 28.179688 42.945312 C 28.8125 41.960938 28.761719 41.96875 30.109375 42.546875 C 32.054688 43.378906 32.0625 43.519531 29.9375 38.3125 C 27.84375 33.167969 27.828125 33.113281 28.722656 33.625 C 29.25 33.929688 30.902344 33.464844 30.902344 33.011719 C 30.902344 32.679688 29.824219 32.195312 29.105469 32.210938 L 28.527344 32.222656 L 28.542969 31.652344 C 28.566406 30.679688 27.875 29.511719 27.527344 29.929688 M 43.054688 30.238281 C 42.710938 30.988281 42.605469 31.421875 42.675781 31.832031 L 42.738281 32.222656 L 42.148438 32.210938 C 41.421875 32.195312 40.339844 32.675781 40.339844 33.011719 C 40.339844 33.472656 41.957031 33.921875 42.539062 33.617188 C 43.378906 33.183594 43.425781 33.003906 41.285156 38.277344 C 39.167969 43.503906 39.171875 43.386719 41.152344 42.539062 C 42.371094 42.019531 42.515625 42.039062 42.941406 42.800781 C 43.347656 43.523438 43.5625 43.515625 43.988281 42.765625 C 44.390625 42.058594 44.542969 42.03125 45.636719 42.488281 C 47.0625 43.082031 47.078125 43.085938 47.246094 42.941406 C 47.445312 42.777344 47.539062 43.042969 45.597656 38.261719 C 43.574219 33.277344 43.574219 33.273438 44.417969 33.625 C 45.199219 33.953125 46.984375 33.296875 46.59375 32.824219 C 46.335938 32.511719 45.15625 32.128906 44.660156 32.199219 L 44.195312 32.261719 L 44.195312 31.621094 C 44.199219 30.234375 43.46875 29.347656 43.054688 30.238281 M 58.648438 30.480469 C 58.410156 31.003906 58.347656 31.277344 58.371094 31.679688 L 58.398438 32.199219 L 57.792969 32.203125 C 57.117188 32.203125 55.972656 32.683594 55.972656 32.964844 C 55.972656 33.417969 57.5625 33.886719 58.195312 33.621094 C 59.023438 33.273438 59.042969 33.207031 56.980469 38.277344 C 54.832031 43.554688 54.847656 43.382812 56.574219 42.644531 C 58.128906 41.980469 58.21875 41.996094 58.78125 43.035156 C 59.035156 43.5 59.289062 43.445312 59.609375 42.859375 C 60.089844 41.964844 60.117188 41.964844 61.839844 42.6875 C 63.40625 43.347656 63.429688 43.515625 61.242188 38.140625 C 59.296875 33.367188 59.253906 33.195312 60.101562 33.636719 C 60.652344 33.921875 62.3125 33.429688 62.3125 32.984375 C 62.3125 32.664062 61.191406 32.199219 60.453125 32.210938 L 59.859375 32.222656 L 59.925781 31.785156 C 59.976562 31.425781 59.929688 31.203125 59.671875 30.574219 C 59.25 29.5625 59.070312 29.546875 58.648438 30.480469 M 19.648438 42.871094 C 19.285156 43.429688 19.070312 44.191406 19.140625 44.65625 L 19.210938 45.117188 L 18.792969 45.050781 C 18.382812 44.984375 17.226562 45.320312 16.878906 45.609375 C 16.292969 46.097656 18.136719 46.828125 19.019531 46.457031 C 19.835938 46.117188 19.882812 45.933594 17.757812 51.148438 C 15.59375 56.460938 15.605469 56.234375 17.570312 55.421875 C 18.882812 54.875 18.976562 54.886719 19.398438 55.636719 C 19.800781 56.355469 19.992188 56.355469 20.449219 55.636719 C 20.929688 54.886719 21.011719 54.875 22.292969 55.425781 C 24.230469 56.253906 24.238281 56.433594 22.121094 51.234375 C 20.050781 46.15625 20.019531 46.054688 20.828125 46.472656 C 21.582031 46.863281 23.574219 46.085938 23.011719 45.617188 C 22.707031 45.359375 21.734375 45.050781 21.214844 45.042969 L 20.664062 45.035156 L 20.691406 44.511719 C 20.746094 43.460938 20.011719 42.304688 19.648438 42.871094 M 35.140625 43.21875 C 34.9375 43.660156 34.867188 43.972656 34.867188 44.445312 L 34.867188 45.082031 L 34.355469 45.058594 C 33.804688 45.03125 32.539062 45.488281 32.441406 45.746094 C 32.25 46.242188 33.976562 46.78125 34.734375 46.464844 C 35.472656 46.15625 35.46875 46.179688 33.480469 51.054688 C 31.304688 56.40625 31.316406 56.25 33.101562 55.492188 C 34.496094 54.902344 34.464844 54.90625 34.785156 55.242188 C 34.9375 55.402344 35.140625 55.683594 35.238281 55.863281 C 35.5 56.359375 35.765625 56.292969 36.136719 55.632812 C 36.585938 54.832031 36.628906 54.832031 38.332031 55.566406 C 39.867188 56.230469 39.871094 56.28125 37.75 51.09375 C 35.644531 45.949219 35.695312 46.132812 36.523438 46.46875 C 37.230469 46.753906 38.71875 46.332031 38.71875 45.847656 C 38.71875 45.519531 37.644531 45.042969 36.929688 45.054688 L 36.363281 45.066406 L 36.371094 44.488281 C 36.382812 44.039062 36.316406 43.78125 36.078125 43.304688 C 35.667969 42.480469 35.488281 42.464844 35.140625 43.21875 M 51.0625 42.777344 C 50.78125 43.117188 50.457031 44.242188 50.511719 44.675781 L 50.570312 45.117188 L 50.15625 45.050781 C 49.742188 44.984375 48.585938 45.320312 48.242188 45.609375 C 47.667969 46.085938 49.527344 46.828125 50.386719 46.46875 C 51.207031 46.125 51.25 45.957031 49.050781 51.347656 C 47 56.371094 47.003906 56.253906 48.941406 55.421875 C 50.253906 54.859375 50.390625 54.878906 50.792969 55.675781 C 51.160156 56.402344 51.472656 56.351562 51.898438 55.503906 C 52.210938 54.890625 52.363281 54.886719 53.695312 55.425781 C 55.621094 56.210938 55.640625 56.515625 53.433594 51.089844 C 51.371094 46.019531 51.398438 46.125 52.226562 46.472656 C 52.84375 46.730469 54.5 46.28125 54.5 45.859375 C 54.5 45.519531 53.410156 45.0625 52.578125 45.046875 L 52.023438 45.035156 L 52.046875 44.472656 C 52.085938 43.503906 51.417969 42.347656 51.0625 42.777344 M 11.777344 55.800781 C 11.4375 56.355469 11.234375 57.085938 11.304688 57.511719 L 11.367188 57.898438 L 10.679688 57.941406 C 9.914062 57.988281 9.003906 58.367188 8.949219 58.65625 C 8.871094 59.089844 10.421875 59.652344 11.011719 59.402344 C 11.957031 59.007812 11.957031 59.003906 9.945312 63.929688 C 7.703125 69.421875 7.71875 69.152344 9.660156 68.304688 C 10.808594 67.808594 11.117188 67.808594 11.433594 68.308594 C 11.558594 68.507812 11.753906 68.78125 11.867188 68.921875 L 12.078125 69.175781 L 12.285156 68.921875 C 12.402344 68.78125 12.597656 68.507812 12.722656 68.308594 C 13.042969 67.804688 13.359375 67.804688 14.511719 68.304688 C 15.503906 68.738281 15.878906 68.808594 15.964844 68.582031 C 16.03125 68.40625 15.914062 68.097656 14.066406 63.558594 C 12.203125 58.984375 12.214844 59.050781 13.175781 59.390625 C 13.445312 59.488281 13.691406 59.507812 13.875 59.457031 C 14.425781 59.296875 15.210938 58.917969 15.261719 58.785156 C 15.390625 58.441406 14.140625 57.886719 13.351562 57.9375 L 12.84375 57.972656 L 12.839844 57.359375 C 12.839844 56.886719 12.769531 56.613281 12.535156 56.140625 C 12.167969 55.410156 12.046875 55.355469 11.777344 55.800781 M 27.292969 56.136719 C 27.078125 56.609375 26.996094 56.953125 26.996094 57.359375 L 26.996094 57.921875 L 26.441406 57.921875 C 25.667969 57.921875 24.570312 58.410156 24.5625 58.757812 C 24.554688 59.085938 26.210938 59.585938 26.667969 59.394531 C 27.683594 58.96875 27.71875 58.816406 25.582031 64.054688 C 23.429688 69.332031 23.441406 69.105469 25.367188 68.300781 C 26.640625 67.773438 26.855469 67.789062 27.210938 68.449219 C 27.660156 69.28125 27.84375 69.285156 28.3125 68.453125 C 28.703125 67.757812 28.886719 67.746094 30.203125 68.308594 C 32.042969 69.097656 32.039062 69.21875 30.230469 64.761719 C 28.128906 59.578125 28.113281 59.535156 28.113281 59.382812 C 28.113281 59.199219 28.40625 59.207031 28.875 59.40625 C 29.421875 59.632812 30.953125 59.09375 30.953125 58.675781 C 30.953125 58.378906 29.699219 57.890625 29.074219 57.941406 L 28.523438 57.988281 L 28.539062 57.410156 C 28.550781 56.957031 28.488281 56.691406 28.238281 56.15625 C 27.832031 55.285156 27.679688 55.28125 27.292969 56.136719 M 43.191406 55.703125 C 42.839844 56.25 42.609375 57.046875 42.675781 57.484375 L 42.738281 57.921875 L 42.171875 57.921875 C 41.519531 57.921875 40.289062 58.410156 40.289062 58.671875 C 40.289062 59.105469 41.8125 59.640625 42.375 59.402344 C 43.375 58.984375 43.433594 58.734375 41.289062 64.003906 C 39.15625 69.25 39.164062 69.09375 41.027344 68.308594 C 42.421875 67.726562 42.429688 67.726562 43.0625 68.71875 C 43.378906 69.207031 43.519531 69.167969 43.96875 68.488281 C 44.449219 67.761719 44.566406 67.753906 45.898438 68.308594 C 46.9375 68.746094 47.265625 68.804688 47.355469 68.574219 C 47.386719 68.492188 46.609375 66.453125 45.628906 64.042969 C 43.539062 58.90625 43.550781 58.960938 44.605469 59.402344 C 45.023438 59.578125 45.9375 59.351562 46.488281 58.933594 C 46.976562 58.566406 45.757812 57.878906 44.710938 57.933594 L 44.199219 57.960938 L 44.234375 57.476562 C 44.308594 56.425781 43.554688 55.144531 43.191406 55.703125 M 58.683594 56.0625 C 58.484375 56.492188 58.414062 56.816406 58.410156 57.285156 L 58.40625 57.921875 L 57.878906 57.921875 C 57.039062 57.921875 55.859375 58.460938 55.984375 58.785156 C 56.03125 58.90625 56.90625 59.34375 57.410156 59.492188 C 57.53125 59.53125 57.800781 59.488281 58.003906 59.402344 C 59.050781 58.964844 59.074219 58.851562 56.980469 63.996094 C 54.847656 69.234375 54.855469 69.109375 56.722656 68.308594 C 57.984375 67.769531 58.195312 67.785156 58.589844 68.464844 C 59.078125 69.300781 59.144531 69.304688 59.648438 68.539062 C 60.140625 67.792969 60.296875 67.773438 61.5625 68.304688 C 63.4375 69.089844 63.449219 69.28125 61.308594 64.023438 C 59.148438 58.726562 59.207031 58.972656 60.230469 59.402344 C 60.796875 59.640625 62.3125 59.113281 62.3125 58.679688 C 62.3125 58.394531 61.128906 57.910156 60.488281 57.9375 L 59.929688 57.960938 L 59.921875 57.40625 C 59.914062 56.886719 59.605469 55.910156 59.351562 55.601562 C 59.140625 55.351562 58.949219 55.484375 58.683594 56.0625 M 145.183594 80.882812 C 145.492188 81.109375 145.492188 90.859375 145.183594 91.085938 C 144.871094 91.316406 4.652344 91.300781 4.421875 91.070312 C 4.171875 90.820312 4.179688 81.199219 4.429688 80.925781 C 4.660156 80.667969 144.839844 80.628906 145.183594 80.882812 M 145.25 101.90625 C 145.46875 102.121094 145.496094 111.644531 145.28125 111.972656 L 145.125 112.214844 L 74.851562 112.214844 C 11.105469 112.214844 4.566406 112.199219 4.421875 112.054688 C 4.28125 111.914062 4.261719 111.308594 4.261719 106.964844 L 4.261719 102.039062 L 4.488281 101.878906 C 4.800781 101.660156 145.03125 101.683594 145.25 101.90625 "/>
</g>
</svg>
