<?xml version="1.0" encoding="UTF-8"?>
<svg xmlns="http://www.w3.org/2000/svg" xmlns:xlink="http://www.w3.org/1999/xlink" width="150px" height="150px" viewBox="0 0 150 96" version="1.1">
<g id="surface1">
<path style=" stroke:none;fill-rule:evenodd;fill:rgb(100%,98.431373%,0%);fill-opacity:1;" d="M 67.136719 21.449219 C 67.09375 21.515625 67.054688 22.585938 67.046875 23.828125 C 67.027344 27.074219 66.808594 30.21875 66.589844 30.4375 C 66.398438 30.621094 66.527344 30.730469 65.292969 29.324219 C 64.542969 28.46875 63.691406 28.140625 63.460938 28.621094 C 63.417969 28.707031 63.363281 29.75 63.332031 30.941406 C 63.25 34.441406 62.933594 34.691406 61.316406 32.523438 C 59.5625 30.167969 57.882812 29.148438 55.4375 28.957031 C 53.796875 28.828125 53.753906 29.214844 55.277344 30.484375 C 56.773438 31.726562 56.921875 32.058594 57.035156 34.480469 C 57.105469 36.007812 57.144531 36.261719 57.414062 37.03125 C 57.894531 38.410156 57.769531 38.554688 55.914062 38.78125 C 54.761719 38.921875 54.582031 38.921875 53.59375 38.773438 C 52.191406 38.5625 51.867188 38.589844 51.824219 38.929688 C 51.789062 39.265625 52.714844 40.253906 53.988281 41.234375 C 55.476562 42.375 55.386719 42.578125 53.332031 42.675781 C 49.894531 42.84375 49.019531 42.773438 47.714844 42.21875 C 46.457031 41.683594 45.867188 41.890625 46.039062 42.796875 C 46.230469 43.828125 47.277344 44.421875 49.917969 45.011719 C 52.707031 45.636719 55.875 47.140625 55.875 47.847656 C 55.875 48.269531 55.773438 48.28125 51.375 48.332031 C 45.78125 48.394531 45.734375 48.429688 48.066406 50.667969 C 50.546875 53.054688 52.539062 54.117188 54.929688 54.339844 C 56.167969 54.453125 56.230469 54.730469 55.296875 56.015625 C 54.242188 57.460938 53.792969 58.691406 53.402344 61.207031 C 52.652344 66.007812 52.6875 66.910156 53.636719 67.113281 C 57.425781 67.925781 62.144531 67.441406 65.09375 65.941406 C 66.828125 65.054688 66.929688 65.109375 67.058594 66.972656 C 67.234375 69.496094 67.988281 70.621094 71.792969 74.023438 C 75.03125 76.921875 74.625 76.9375 77.765625 73.808594 C 81.085938 70.503906 81.652344 69.539062 81.933594 66.703125 C 82.085938 65.160156 82.34375 64.9375 83.246094 65.578125 C 84.546875 66.507812 84.917969 66.738281 85.652344 67.078125 C 87.769531 68.0625 93.871094 68.152344 95.65625 67.222656 C 96.328125 66.875 96.441406 64.714844 95.960938 61.578125 C 95.542969 58.871094 95.199219 58.121094 93.375 55.921875 C 92.613281 55.003906 92.816406 54.773438 94.609375 54.527344 C 97.585938 54.121094 99.054688 53.359375 101.4375 50.980469 C 102.671875 49.742188 103.132812 49.113281 103.132812 48.644531 C 103.132812 48.070312 102.953125 48.042969 98.945312 48.039062 C 94.398438 48.035156 93.832031 47.925781 94.636719 47.230469 C 95.289062 46.664062 96.875 46.261719 99.011719 46.117188 C 100.980469 45.988281 101.902344 45.699219 102.347656 45.074219 C 102.855469 44.371094 102.523438 44.046875 101.195312 43.953125 C 99.894531 43.863281 98.675781 43.597656 97.503906 43.15625 C 95.976562 42.582031 95.511719 42.46875 94.234375 42.382812 C 92.210938 42.242188 92.195312 42.167969 93.773438 40.558594 C 95.261719 39.039062 95.609375 38.417969 95.109375 38.15625 C 94.90625 38.046875 94.941406 38.042969 93.5 38.394531 C 91.914062 38.78125 90.339844 38.628906 89.699219 38.03125 C 89.238281 37.601562 89.402344 37.367188 91.132812 36.011719 C 93.847656 33.878906 95.09375 31.960938 95.09375 29.917969 C 95.09375 28.738281 94.808594 28.792969 93.398438 30.25 C 92.085938 31.601562 91.660156 31.859375 90.527344 32.007812 C 89.386719 32.152344 88.339844 32.425781 87.453125 32.816406 C 86.632812 33.171875 86.183594 33.234375 85.996094 33.011719 C 85.714844 32.675781 85.214844 30.730469 85.214844 29.972656 C 85.214844 28.449219 84.402344 28.566406 83.414062 30.234375 C 82.878906 31.132812 82.6875 31.324219 82.320312 31.324219 C 81.722656 31.324219 81.621094 29.933594 82.015625 27.222656 L 82.242188 25.667969 L 82.015625 24.484375 C 81.871094 23.734375 81.792969 23.015625 81.804688 22.523438 C 81.851562 20.5625 80.804688 21.179688 79.988281 23.585938 C 79.203125 25.902344 77.339844 28.734375 76.792969 28.441406 C 76.597656 28.335938 75 26.542969 74.703125 26.089844 C 74.238281 25.390625 74.035156 25.875 74.066406 27.605469 C 74.085938 28.839844 74.070312 28.96875 73.847656 29.453125 C 72.882812 31.546875 71.878906 30.492188 70.289062 25.703125 C 69.972656 24.75 69.554688 23.652344 69.367188 23.261719 C 68.734375 21.957031 67.476562 20.933594 67.136719 21.449219 M 88.144531 48.046875 C 88.851562 48.242188 88.941406 48.738281 88.609375 50.652344 C 86.5625 62.53125 70.5625 66.167969 63.292969 56.410156 C 60.871094 53.160156 59.679688 48.3125 61.226562 48.015625 C 61.722656 47.917969 87.792969 47.949219 88.144531 48.046875 "/>
<path style=" stroke:none;fill-rule:evenodd;fill:rgb(0%,49.411765%,31.764707%);fill-opacity:1;" d="M 2.140625 1.757812 C 1.957031 1.820312 1.71875 1.996094 1.605469 2.144531 L 1.402344 2.417969 L 1.378906 24.421875 C 1.351562 48.355469 1.320312 46.902344 1.851562 47.183594 C 2.011719 47.269531 2.023438 47.25 1.960938 46.964844 C 1.921875 46.792969 1.886719 36.753906 1.886719 24.660156 L 1.886719 2.675781 L 2.152344 2.449219 C 2.320312 2.304688 2.59375 2.203125 2.925781 2.164062 C 4.371094 1.996094 147.148438 2.160156 147.410156 2.328125 C 147.566406 2.429688 147.707031 2.644531 147.769531 2.875 C 147.898438 3.351562 147.863281 46.753906 147.734375 47.023438 C 147.601562 47.296875 147.863281 47.175781 148.105469 46.851562 L 148.304688 46.585938 L 148.304688 2.417969 L 148.101562 2.144531 C 147.992188 1.996094 147.75 1.820312 147.570312 1.757812 C 147.089844 1.59375 2.621094 1.59375 2.140625 1.757812 M 64.976562 8.46875 C 59.773438 9.84375 57.800781 12.359375 60.179688 14.59375 C 61.183594 15.535156 63.652344 14.917969 64.34375 13.554688 C 64.519531 13.207031 64.953125 12.425781 65.308594 11.820312 C 67.238281 8.527344 67.171875 7.886719 64.976562 8.46875 M 83.152344 8.402344 C 82.773438 8.777344 83.132812 9.734375 84.523438 12.085938 C 84.890625 12.707031 85.304688 13.433594 85.441406 13.703125 C 85.714844 14.242188 85.902344 14.359375 87.230469 14.832031 C 89.734375 15.726562 91.429688 13.238281 89.8125 11.054688 C 88.773438 9.65625 83.859375 7.699219 83.152344 8.402344 M 52.054688 13.746094 C 49.777344 15.179688 47.980469 17.191406 47.644531 18.6875 C 47.1875 20.707031 49.542969 22.566406 51.1875 21.480469 C 52.117188 20.867188 52.300781 20.925781 52.683594 21.949219 C 53.691406 24.625 57.035156 24.042969 60.644531 20.5625 C 61.886719 19.363281 61.574219 19.0625 58.71875 18.730469 C 56.027344 18.414062 55.132812 18.433594 54.183594 18.816406 C 52.957031 19.316406 52.753906 19.128906 53.007812 17.742188 C 53.714844 13.835938 53.480469 12.851562 52.054688 13.746094 M 96.453125 13.59375 C 96.234375 13.855469 96.234375 14.46875 96.460938 16.148438 C 96.871094 19.230469 96.839844 19.332031 95.5625 18.851562 C 94.421875 18.425781 94.132812 18.410156 91.847656 18.636719 C 87.683594 19.046875 87.453125 19.351562 89.847656 21.273438 C 93.582031 24.269531 96.050781 24.46875 97.03125 21.851562 C 97.375 20.941406 97.503906 20.902344 98.449219 21.460938 C 99.351562 21.996094 99.546875 22.007812 100.402344 21.582031 C 103.125 20.21875 102.527344 17.5 98.878906 14.660156 C 97.304688 13.433594 96.777344 13.203125 96.453125 13.59375 M 66.089844 13.707031 C 64.660156 14.011719 64.289062 14.273438 64.0625 15.132812 C 63.214844 18.351562 65.945312 19.425781 69.855469 17.414062 C 72.929688 15.832031 73.453125 15.089844 71.910156 14.519531 C 69.734375 13.71875 67.507812 13.40625 66.089844 13.707031 M 80.742188 13.695312 C 76.621094 14.6875 76.109375 15.136719 77.832031 16.265625 C 81.507812 18.667969 83.878906 19.09375 85.238281 17.601562 C 85.859375 16.917969 85.945312 15.402344 85.410156 14.535156 C 84.957031 13.792969 82.3125 13.320312 80.742188 13.695312 M 43.027344 22.871094 C 42.359375 23.300781 40.285156 25.96875 39.839844 26.964844 C 38.710938 29.492188 39.789062 31.320312 42.402344 31.324219 L 43.308594 31.324219 L 43.898438 30.746094 C 44.652344 30.007812 44.785156 30.007812 45.496094 30.734375 C 47.230469 32.515625 49.316406 31.734375 51.617188 28.441406 C 53.84375 25.253906 53.507812 24.96875 48.789062 26.046875 C 48.117188 26.203125 47.425781 26.328125 47.253906 26.328125 C 46.8125 26.328125 46.371094 26.5625 45.703125 27.15625 C 44.769531 27.980469 44.605469 27.851562 44.441406 26.148438 C 44.386719 25.585938 44.304688 24.722656 44.253906 24.230469 C 44.117188 22.828125 43.742188 22.414062 43.027344 22.871094 M 105.828125 22.835938 C 105.574219 23.125 105.464844 23.617188 105.359375 24.980469 C 105.128906 27.902344 105.039062 28.042969 103.984375 27.15625 C 103.257812 26.542969 102.859375 26.328125 102.453125 26.328125 C 102.285156 26.328125 101.664062 26.21875 101.066406 26.082031 C 96.078125 24.949219 95.765625 25.246094 98.269531 28.726562 C 100.394531 31.6875 102.527344 32.4375 104.125 30.792969 C 104.894531 29.996094 105.011719 29.996094 105.8125 30.757812 L 106.429688 31.34375 L 107.515625 31.308594 C 110.375 31.21875 111.160156 28.703125 109.214844 25.867188 C 107.671875 23.617188 106.257812 22.351562 105.828125 22.835938 M 44.226562 35.71875 C 44.03125 35.867188 43.558594 36.324219 43.175781 36.738281 C 42.792969 37.152344 42.136719 37.730469 41.722656 38.015625 C 41.074219 38.46875 40.9375 38.617188 40.722656 39.085938 C 39.890625 40.929688 39.796875 40.910156 38.628906 38.683594 C 37.214844 35.992188 36.785156 35.996094 35.890625 38.726562 C 34.300781 43.574219 35.601562 46.433594 38.871094 45.269531 C 39.1875 45.15625 39.539062 45.0625 39.65625 45.0625 C 39.933594 45.0625 40.117188 44.847656 40.414062 44.175781 C 40.730469 43.46875 40.832031 43.4375 41.757812 43.761719 C 44.0625 44.574219 45.464844 43.183594 45.578125 39.972656 C 45.710938 36.253906 45.289062 34.925781 44.226562 35.71875 M 104.554688 35.628906 C 104.125 36.097656 103.914062 39.996094 104.234375 41.4375 C 104.703125 43.515625 106.183594 44.449219 107.925781 43.757812 C 108.742188 43.433594 108.953125 43.484375 109.222656 44.078125 C 109.605469 44.925781 109.589844 44.910156 110.734375 45.242188 C 111.8125 45.554688 112.074219 45.578125 112.636719 45.414062 C 114.429688 44.894531 115.011719 42.695312 114.128906 39.78125 C 112.976562 35.972656 112.550781 35.796875 111.128906 38.539062 C 110.308594 40.125 110.058594 40.472656 109.78125 40.433594 C 109.566406 40.402344 109.535156 40.351562 108.945312 39.09375 C 108.695312 38.554688 108.566406 38.402344 108.140625 38.136719 C 107.863281 37.964844 107.109375 37.3125 106.46875 36.6875 C 105.210938 35.464844 104.871094 35.277344 104.554688 35.628906 M 39.796875 48.769531 C 39.597656 48.878906 36.621094 48.902344 21.402344 48.914062 C 2.433594 48.925781 2.261719 48.925781 1.910156 49.277344 L 1.695312 49.488281 L 1.695312 93.582031 L 2.230469 94.117188 L 74.664062 94.140625 C 138.140625 94.160156 147.140625 94.148438 147.441406 94.023438 C 148.113281 93.746094 148.0625 95.519531 148.0625 71.554688 C 148.0625 55.953125 148.03125 49.8125 147.957031 49.59375 C 147.714844 48.902344 149.335938 48.960938 128.648438 48.90625 C 113.890625 48.871094 110.011719 48.835938 109.839844 48.738281 C 109.558594 48.578125 109.390625 48.820312 109.195312 49.679688 C 108.71875 51.789062 108.570312 51.585938 112.769531 54.625 C 116.28125 57.167969 116.136719 56.871094 115.222656 59.648438 C 113.671875 64.355469 113.523438 64.507812 110.820312 64.085938 C 110.132812 63.980469 109.113281 63.832031 108.554688 63.753906 C 107.996094 63.679688 107.296875 63.570312 107.003906 63.515625 C 105.171875 63.164062 104.867188 63.304688 103.65625 65.089844 C 102.242188 67.179688 102.136719 66.671875 104.96875 71.378906 C 106.882812 74.5625 106.914062 74.46875 102.917969 77.921875 C 101.121094 79.476562 101.210938 79.484375 97.792969 77.398438 C 93.386719 74.707031 93.65625 74.785156 91.921875 75.75 C 89.996094 76.824219 90.105469 76.480469 90.1875 81.097656 C 90.253906 85.050781 90.257812 85.003906 89.679688 85.394531 C 89.019531 85.835938 85.074219 86.917969 83.75 87.023438 C 82.582031 87.113281 82.699219 87.253906 79.988281 82.488281 C 78.3125 79.535156 78.714844 79.75 74.855469 79.75 C 71.207031 79.75 71.238281 79.742188 70.433594 81.179688 C 68.058594 85.4375 67.253906 86.734375 66.882812 86.925781 C 66.066406 87.34375 60.449219 85.957031 59.742188 85.160156 L 59.433594 84.808594 L 59.476562 81.101562 C 59.535156 76.371094 59.671875 76.792969 57.75 75.757812 C 55.988281 74.808594 56.246094 74.742188 52.285156 77.167969 C 48.277344 79.617188 48.613281 79.617188 45.933594 77.167969 C 42.695312 74.207031 42.746094 74.675781 45.214844 70.535156 C 47.457031 66.785156 47.394531 67.148438 46.101562 65.210938 C 45.195312 63.855469 44.78125 63.421875 44.367188 63.40625 C 43.8125 63.386719 43.210938 63.429688 42.65625 63.527344 C 41.257812 63.769531 38.140625 64.203125 37.472656 64.253906 C 36.246094 64.339844 35.855469 63.773438 34.613281 60.109375 C 33.539062 56.9375 33.480469 57.105469 36.265625 55.101562 C 41.070312 51.644531 40.976562 51.761719 40.527344 49.804688 C 40.3125 48.875 40.117188 48.59375 39.796875 48.769531 "/>
<path style=" stroke:none;fill-rule:evenodd;fill:rgb(23.921569%,57.254905%,85.490197%);fill-opacity:1;" d="M 2.628906 2.210938 C 2.449219 2.25 2.207031 2.378906 2.09375 2.492188 L 1.886719 2.695312 L 1.886719 24.722656 C 1.886719 36.835938 1.921875 46.863281 1.960938 47.011719 L 2.039062 47.273438 L 20.898438 47.273438 C 38.03125 47.273438 39.777344 47.289062 39.976562 47.429688 C 40.320312 47.667969 40.410156 48 40.230469 48.378906 C 40.089844 48.667969 40.089844 48.722656 40.222656 48.925781 C 40.617188 49.523438 40.808594 51.25 40.535156 51.773438 C 40.378906 52.074219 39.261719 52.945312 36.265625 55.101562 C 33.480469 57.105469 33.539062 56.9375 34.613281 60.109375 C 35.855469 63.773438 36.246094 64.339844 37.472656 64.253906 C 38.140625 64.203125 41.257812 63.769531 42.65625 63.527344 C 43.210938 63.429688 43.8125 63.386719 44.367188 63.40625 C 44.78125 63.421875 45.195312 63.855469 46.101562 65.210938 C 47.394531 67.148438 47.457031 66.785156 45.214844 70.535156 C 42.746094 74.675781 42.695312 74.207031 45.933594 77.167969 C 48.613281 79.617188 48.277344 79.617188 52.285156 77.167969 C 56.246094 74.742188 55.988281 74.808594 57.75 75.757812 C 59.671875 76.792969 59.535156 76.371094 59.476562 81.101562 L 59.433594 84.808594 L 59.742188 85.160156 C 60.449219 85.957031 66.066406 87.34375 66.882812 86.925781 C 67.253906 86.734375 68.058594 85.4375 70.433594 81.179688 C 71.238281 79.742188 71.207031 79.75 74.855469 79.75 C 78.714844 79.75 78.3125 79.535156 79.988281 82.488281 C 82.699219 87.253906 82.582031 87.113281 83.75 87.023438 C 85.074219 86.917969 89.019531 85.835938 89.679688 85.394531 C 90.257812 85.003906 90.253906 85.050781 90.1875 81.097656 C 90.105469 76.480469 89.996094 76.824219 91.921875 75.75 C 93.65625 74.785156 93.386719 74.707031 97.792969 77.398438 C 101.210938 79.484375 101.121094 79.476562 102.917969 77.921875 C 106.914062 74.46875 106.882812 74.5625 104.96875 71.378906 C 102.136719 66.671875 102.242188 67.179688 103.65625 65.089844 C 104.867188 63.304688 105.171875 63.164062 107.003906 63.515625 C 107.296875 63.570312 107.996094 63.679688 108.554688 63.753906 C 109.113281 63.832031 110.132812 63.980469 110.820312 64.085938 C 113.523438 64.507812 113.671875 64.355469 115.222656 59.648438 C 116.136719 56.871094 116.28125 57.167969 112.769531 54.625 C 109.582031 52.316406 109.398438 52.164062 109.148438 51.667969 L 108.917969 51.210938 L 109.078125 50.273438 C 109.164062 49.761719 109.3125 49.183594 109.410156 48.992188 C 109.5625 48.683594 109.566406 48.617188 109.441406 48.351562 C 109.265625 47.980469 109.414062 47.546875 109.777344 47.382812 C 109.949219 47.304688 115.054688 47.273438 128.835938 47.273438 L 147.652344 47.273438 L 147.734375 47.058594 C 147.859375 46.726562 147.894531 3.335938 147.769531 2.875 C 147.707031 2.644531 147.566406 2.429688 147.410156 2.328125 C 147.132812 2.148438 3.394531 2.03125 2.628906 2.210938 M 66.515625 8.421875 C 66.941406 8.714844 66.652344 9.527344 65.308594 11.820312 C 64.953125 12.425781 64.519531 13.207031 64.34375 13.554688 C 63.652344 14.917969 61.183594 15.535156 60.179688 14.59375 C 58.113281 12.652344 59.472656 10.25 63.378906 8.949219 C 65.386719 8.28125 66.132812 8.15625 66.515625 8.421875 M 85.320312 8.636719 C 89.898438 9.960938 91.65625 12.269531 89.710938 14.40625 C 89.027344 15.160156 88.4375 15.261719 87.230469 14.832031 C 85.902344 14.359375 85.714844 14.242188 85.441406 13.703125 C 85.304688 13.433594 84.890625 12.707031 84.523438 12.085938 C 82.3125 8.355469 82.441406 7.804688 85.320312 8.636719 M 53.324219 13.8125 C 53.488281 14.195312 53.359375 15.804688 53.007812 17.742188 C 52.753906 19.128906 52.957031 19.316406 54.183594 18.816406 C 55.132812 18.433594 56.027344 18.414062 58.71875 18.730469 C 61.574219 19.0625 61.886719 19.363281 60.644531 20.5625 C 57.035156 24.042969 53.691406 24.625 52.683594 21.949219 C 52.300781 20.925781 52.117188 20.867188 51.1875 21.480469 C 50.445312 21.972656 50.121094 21.996094 49.371094 21.621094 C 46.5625 20.210938 47.03125 17.707031 50.65625 14.789062 C 52.464844 13.332031 53.035156 13.125 53.324219 13.8125 M 97.515625 13.65625 C 102.070312 16.410156 103.40625 20.078125 100.402344 21.582031 C 99.546875 22.007812 99.351562 21.996094 98.449219 21.460938 C 97.503906 20.902344 97.375 20.941406 97.03125 21.851562 C 96.050781 24.46875 93.582031 24.269531 89.847656 21.273438 C 87.453125 19.351562 87.683594 19.046875 91.847656 18.636719 C 94.132812 18.410156 94.421875 18.425781 95.5625 18.851562 C 96.839844 19.332031 96.871094 19.230469 96.460938 16.148438 C 96.113281 13.554688 96.363281 12.960938 97.515625 13.65625 M 69.855469 13.945312 C 73.734375 14.925781 73.734375 15.417969 69.855469 17.414062 C 65.945312 19.425781 63.214844 18.351562 64.0625 15.132812 C 64.457031 13.625 66.75 13.15625 69.855469 13.945312 M 83.472656 13.683594 C 85.433594 14.101562 86.089844 14.984375 85.703125 16.699219 C 85.214844 18.863281 82.785156 19.046875 79.363281 17.171875 C 76.167969 15.421875 76.109375 14.972656 78.964844 14.171875 C 81.367188 13.5 82.1875 13.410156 83.472656 13.683594 M 68.421875 21.9375 C 69.171875 22.699219 69.527344 23.421875 70.289062 25.703125 C 71.878906 30.492188 72.882812 31.546875 73.847656 29.453125 C 74.070312 28.96875 74.085938 28.839844 74.066406 27.605469 C 74.035156 25.875 74.238281 25.390625 74.703125 26.089844 C 75 26.542969 76.597656 28.335938 76.792969 28.441406 C 77.339844 28.734375 79.203125 25.902344 79.988281 23.585938 C 80.804688 21.179688 81.851562 20.5625 81.804688 22.523438 C 81.792969 23.015625 81.871094 23.734375 82.015625 24.484375 L 82.242188 25.667969 L 82.015625 27.222656 C 81.621094 29.933594 81.722656 31.324219 82.320312 31.324219 C 82.6875 31.324219 82.878906 31.132812 83.414062 30.234375 C 84.402344 28.566406 85.214844 28.449219 85.214844 29.972656 C 85.214844 30.730469 85.714844 32.675781 85.996094 33.011719 C 86.183594 33.234375 86.632812 33.171875 87.453125 32.816406 C 88.339844 32.425781 89.386719 32.152344 90.527344 32.007812 C 91.660156 31.859375 92.085938 31.601562 93.398438 30.25 C 94.808594 28.792969 95.09375 28.738281 95.09375 29.917969 C 95.09375 31.960938 93.847656 33.878906 91.132812 36.011719 C 89.402344 37.367188 89.238281 37.601562 89.699219 38.03125 C 90.339844 38.628906 91.914062 38.78125 93.5 38.394531 C 94.941406 38.042969 94.90625 38.046875 95.109375 38.15625 C 95.609375 38.417969 95.261719 39.039062 93.773438 40.558594 C 92.195312 42.167969 92.210938 42.242188 94.234375 42.382812 C 95.511719 42.46875 95.976562 42.582031 97.503906 43.15625 C 98.675781 43.597656 99.894531 43.863281 101.195312 43.953125 C 102.523438 44.046875 102.855469 44.371094 102.347656 45.074219 C 101.902344 45.699219 100.980469 45.988281 99.011719 46.117188 C 96.875 46.261719 95.289062 46.664062 94.636719 47.230469 C 93.832031 47.925781 94.398438 48.035156 98.945312 48.039062 C 102.953125 48.042969 103.132812 48.070312 103.132812 48.644531 C 103.132812 49.113281 102.671875 49.742188 101.4375 50.980469 C 99.054688 53.359375 97.585938 54.121094 94.609375 54.527344 C 92.816406 54.773438 92.613281 55.003906 93.375 55.921875 C 94.875 57.730469 95.125 58.148438 95.527344 59.523438 C 96.085938 61.441406 96.464844 65.917969 96.128906 66.703125 C 95.546875 68.078125 88.355469 68.335938 85.652344 67.078125 C 84.917969 66.738281 84.546875 66.507812 83.246094 65.578125 C 82.34375 64.9375 82.085938 65.160156 81.933594 66.703125 C 81.652344 69.539062 81.085938 70.503906 77.765625 73.808594 C 74.625 76.9375 75.03125 76.921875 71.792969 74.023438 C 67.988281 70.621094 67.234375 69.496094 67.058594 66.972656 C 66.929688 65.109375 66.828125 65.054688 65.09375 65.941406 C 62.144531 67.441406 57.425781 67.925781 53.636719 67.113281 C 52.6875 66.910156 52.652344 66.007812 53.402344 61.207031 C 53.792969 58.691406 54.242188 57.460938 55.296875 56.015625 C 56.230469 54.730469 56.167969 54.453125 54.929688 54.339844 C 52.539062 54.117188 50.546875 53.054688 48.066406 50.667969 C 45.734375 48.429688 45.78125 48.394531 51.375 48.332031 C 55.773438 48.28125 55.875 48.269531 55.875 47.847656 C 55.875 47.140625 52.707031 45.636719 49.917969 45.011719 C 47.277344 44.421875 46.230469 43.828125 46.039062 42.796875 C 45.867188 41.890625 46.457031 41.683594 47.714844 42.21875 C 49.019531 42.773438 49.894531 42.84375 53.332031 42.675781 C 55.386719 42.578125 55.476562 42.375 53.988281 41.234375 C 52.714844 40.253906 51.789062 39.265625 51.824219 38.929688 C 51.867188 38.589844 52.191406 38.5625 53.59375 38.773438 C 54.582031 38.921875 54.761719 38.921875 55.914062 38.78125 C 57.769531 38.554688 57.894531 38.410156 57.414062 37.03125 C 57.144531 36.261719 57.105469 36.007812 57.035156 34.480469 C 56.921875 32.058594 56.773438 31.726562 55.277344 30.484375 C 53.753906 29.214844 53.796875 28.828125 55.4375 28.957031 C 57.882812 29.148438 59.5625 30.167969 61.316406 32.523438 C 62.933594 34.691406 63.25 34.441406 63.332031 30.941406 C 63.363281 29.75 63.417969 28.707031 63.460938 28.621094 C 63.691406 28.140625 64.542969 28.46875 65.292969 29.324219 C 66.527344 30.730469 66.398438 30.621094 66.589844 30.4375 C 66.808594 30.21875 67.027344 27.074219 67.046875 23.828125 C 67.054688 22.585938 67.09375 21.515625 67.136719 21.449219 C 67.339844 21.140625 67.8125 21.316406 68.421875 21.9375 M 43.988281 23.03125 C 44.101562 23.222656 44.199219 23.671875 44.253906 24.230469 C 44.304688 24.722656 44.386719 25.585938 44.441406 26.148438 C 44.605469 27.851562 44.769531 27.980469 45.703125 27.15625 C 46.371094 26.5625 46.8125 26.328125 47.253906 26.328125 C 47.425781 26.328125 48.117188 26.203125 48.789062 26.046875 C 53.507812 24.96875 53.84375 25.253906 51.617188 28.441406 C 49.316406 31.734375 47.230469 32.515625 45.496094 30.734375 C 44.785156 30.007812 44.652344 30.007812 43.898438 30.746094 L 43.308594 31.324219 L 42.402344 31.324219 C 39.34375 31.320312 38.457031 28.796875 40.476562 25.847656 C 42.226562 23.292969 43.527344 22.246094 43.988281 23.03125 M 106.988281 23.183594 C 109.238281 25.339844 110.523438 27.804688 110.203125 29.335938 C 109.917969 30.699219 109.15625 31.257812 107.515625 31.308594 L 106.429688 31.34375 L 105.8125 30.757812 C 105.011719 29.996094 104.894531 29.996094 104.125 30.792969 C 102.527344 32.4375 100.394531 31.6875 98.269531 28.726562 C 95.765625 25.246094 96.078125 24.949219 101.066406 26.082031 C 101.664062 26.21875 102.285156 26.328125 102.453125 26.328125 C 102.859375 26.328125 103.257812 26.542969 103.984375 27.15625 C 105.039062 28.042969 105.128906 27.902344 105.359375 24.980469 C 105.546875 22.605469 105.9375 22.171875 106.988281 23.183594 M 44.976562 35.515625 C 45.433594 35.6875 45.667969 37.433594 45.578125 39.972656 C 45.464844 43.183594 44.0625 44.574219 41.757812 43.761719 C 40.832031 43.4375 40.730469 43.46875 40.414062 44.175781 C 40.117188 44.847656 39.933594 45.0625 39.65625 45.0625 C 39.539062 45.0625 39.1875 45.15625 38.871094 45.269531 C 35.601562 46.433594 34.300781 43.574219 35.890625 38.726562 C 36.785156 35.996094 37.214844 35.992188 38.628906 38.683594 C 39.796875 40.910156 39.890625 40.929688 40.722656 39.085938 C 40.9375 38.617188 41.074219 38.46875 41.722656 38.015625 C 42.136719 37.730469 42.792969 37.152344 43.175781 36.738281 C 44.207031 35.625 44.585938 35.367188 44.976562 35.515625 M 106.46875 36.6875 C 107.109375 37.3125 107.863281 37.964844 108.140625 38.136719 C 108.566406 38.402344 108.695312 38.554688 108.945312 39.09375 C 109.535156 40.351562 109.566406 40.402344 109.78125 40.433594 C 110.058594 40.472656 110.308594 40.125 111.128906 38.539062 C 112.550781 35.796875 112.976562 35.972656 114.128906 39.78125 C 115.011719 42.695312 114.429688 44.894531 112.636719 45.414062 C 112.074219 45.578125 111.8125 45.554688 110.734375 45.242188 C 109.589844 44.910156 109.605469 44.925781 109.222656 44.078125 C 108.953125 43.484375 108.742188 43.433594 107.925781 43.757812 C 106.183594 44.449219 104.703125 43.515625 104.234375 41.4375 C 104.054688 40.621094 104.085938 36.753906 104.28125 36.140625 C 104.597656 35.136719 104.96875 35.230469 106.46875 36.6875 "/>
<path style=" stroke:none;fill-rule:evenodd;fill:rgb(2.745098%,1.960784%,1.960784%);fill-opacity:1;" d="M 0 48.042969 L 0 96.085938 L 150 96.085938 L 150 0 L 0 0 L 0 48.042969 M 147.570312 1.757812 C 147.75 1.820312 147.992188 1.996094 148.101562 2.144531 L 148.304688 2.417969 L 148.332031 24.28125 C 148.355469 47.566406 148.375 46.726562 147.867188 47.097656 C 147.605469 47.292969 147.59375 47.324219 147.730469 47.472656 C 147.976562 47.742188 147.9375 48.214844 147.640625 48.507812 L 147.382812 48.761719 L 128.652344 48.761719 C 118.351562 48.761719 109.949219 48.785156 109.972656 48.8125 C 110 48.839844 118.398438 48.882812 128.632812 48.90625 C 149.339844 48.960938 147.714844 48.902344 147.957031 49.59375 C 148.03125 49.8125 148.0625 55.953125 148.0625 71.554688 C 148.0625 95.519531 148.113281 93.746094 147.441406 94.023438 C 147.140625 94.148438 138.140625 94.160156 74.664062 94.140625 L 2.230469 94.117188 L 1.695312 93.582031 L 1.695312 49.488281 L 1.910156 49.277344 C 2.261719 48.925781 2.433594 48.925781 21.402344 48.914062 C 31.386719 48.910156 39.609375 48.871094 39.667969 48.835938 C 39.730469 48.796875 31.363281 48.761719 21.074219 48.761719 C 3.558594 48.761719 2.347656 48.753906 2.109375 48.597656 C 1.785156 48.386719 1.683594 47.945312 1.875 47.5625 C 2.007812 47.296875 2.003906 47.265625 1.84375 47.179688 C 1.324219 46.902344 1.351562 48.332031 1.378906 24.421875 L 1.402344 2.417969 L 1.605469 2.144531 C 1.71875 1.996094 1.957031 1.820312 2.140625 1.757812 C 2.621094 1.59375 147.089844 1.59375 147.570312 1.757812 "/>
<path style=" stroke:none;fill-rule:evenodd;fill:rgb(100%,0%,0%);fill-opacity:1;" d="M 1.925781 47.429688 C 1.710938 47.6875 1.761719 48.324219 2.015625 48.527344 C 2.375 48.820312 2.621094 48.820312 21.566406 48.792969 L 39.890625 48.761719 L 40.105469 48.554688 C 40.410156 48.25 40.386719 47.785156 40.050781 47.5 L 39.789062 47.273438 L 20.921875 47.273438 C 3.621094 47.273438 2.046875 47.289062 1.925781 47.429688 M 109.746094 47.386719 C 109.222656 47.640625 109.257812 48.542969 109.800781 48.691406 C 109.941406 48.730469 118.453125 48.761719 128.71875 48.761719 L 147.382812 48.761719 L 147.640625 48.507812 C 147.941406 48.207031 147.976562 47.742188 147.714844 47.457031 C 147.519531 47.242188 110.191406 47.175781 109.746094 47.386719 M 61.226562 48.015625 C 59.679688 48.3125 60.871094 53.160156 63.292969 56.410156 C 70.5625 66.167969 86.5625 62.53125 88.609375 50.652344 C 88.941406 48.738281 88.851562 48.242188 88.144531 48.046875 C 87.792969 47.949219 61.722656 47.917969 61.226562 48.015625 "/>
</g>
</svg>
