<?xml version="1.0" encoding="UTF-8"?>
<svg xmlns="http://www.w3.org/2000/svg" xmlns:xlink="http://www.w3.org/1999/xlink" width="150px" height="150px" viewBox="0 0 150 150" version="1.1">
<g id="surface1">
<path style=" stroke:none;fill-rule:evenodd;fill:rgb(1.568628%,1.568628%,1.568628%);fill-opacity:1;" d="M 0 75.003906 L 0 125.34375 L 150 125.34375 L 150 24.664062 L 0 24.664062 L 0 75.003906 M 146.59375 74.855469 L 146.59375 121.722656 L 74.777344 121.695312 L 2.953125 121.671875 L 2.929688 74.828125 L 2.902344 27.988281 L 146.59375 27.988281 L 146.59375 74.855469 "/>
<path style=" stroke:none;fill-rule:evenodd;fill:rgb(86.274511%,7.843138%,7.843138%);fill-opacity:1;" d="M 2.902344 31.378906 C 2.902344 33.242188 2.929688 34.738281 2.964844 34.703125 C 3.011719 34.65625 13.023438 41.289062 13.363281 41.59375 C 13.515625 41.730469 13.472656 41.738281 10.71875 42.175781 C 9.261719 42.402344 8.058594 42.605469 8.042969 42.621094 C 8.027344 42.636719 9.917969 43.921875 12.242188 45.480469 L 16.472656 48.308594 L 17.121094 48.210938 C 17.480469 48.15625 18.738281 47.957031 19.921875 47.769531 L 22.070312 47.421875 L 25.910156 50 C 28.023438 51.417969 29.71875 52.613281 29.671875 52.652344 C 29.628906 52.691406 29.183594 52.78125 28.6875 52.851562 C 27.519531 53.011719 24.851562 53.441406 24.542969 53.511719 C 24.34375 53.558594 24.957031 54.007812 28.269531 56.234375 C 32.472656 59.054688 32.34375 58.988281 33.304688 58.800781 C 33.574219 58.75 34.730469 58.566406 35.875 58.398438 L 37.953125 58.082031 L 45.691406 63.273438 L 43.644531 63.605469 C 42.527344 63.785156 41.300781 63.980469 40.929688 64.039062 C 40.558594 64.097656 40.257812 64.179688 40.257812 64.21875 C 40.257812 64.253906 42.042969 65.472656 44.21875 66.929688 L 48.179688 69.578125 L 48.949219 69.464844 C 49.371094 69.402344 50.523438 69.21875 51.511719 69.058594 C 52.5 68.894531 53.433594 68.761719 53.589844 68.761719 C 54.019531 68.761719 63.140625 74.894531 62.960938 75.0625 C 62.441406 75.5625 53.742188 81.246094 53.5 81.246094 C 53.347656 81.246094 52.636719 81.148438 51.921875 81.035156 C 48.445312 80.476562 48.386719 80.472656 48.199219 80.578125 C 48.015625 80.679688 41.328125 85.105469 40.4375 85.710938 L 39.972656 86.027344 L 41.289062 86.246094 C 42.015625 86.367188 43.148438 86.546875 43.808594 86.640625 C 44.46875 86.738281 45.070312 86.847656 45.144531 86.882812 C 45.230469 86.929688 43.898438 87.878906 41.441406 89.527344 L 37.597656 92.101562 L 36.75 91.953125 C 36.28125 91.871094 35.066406 91.675781 34.046875 91.523438 L 32.191406 91.242188 L 28.6875 93.617188 C 26.761719 94.921875 24.949219 96.144531 24.65625 96.332031 C 23.980469 96.78125 23.984375 96.789062 24.960938 96.925781 C 27.011719 97.222656 29.238281 97.601562 29.238281 97.652344 C 29.238281 97.683594 27.523438 98.863281 25.425781 100.269531 L 21.617188 102.828125 L 20.347656 102.648438 C 19.648438 102.550781 18.425781 102.359375 17.636719 102.222656 L 16.199219 101.976562 L 14.878906 102.867188 C 9.265625 106.65625 8.109375 107.457031 8.179688 107.527344 C 8.25 107.59375 12.773438 108.328125 13.097656 108.328125 C 13.40625 108.328125 12.882812 108.703125 8.066406 111.902344 L 2.917969 115.328125 L 2.9375 118.496094 L 2.953125 121.671875 L 10.152344 121.695312 C 16.199219 121.71875 17.371094 121.699219 17.460938 121.578125 C 17.589844 121.417969 22.925781 117.828125 23.1875 117.726562 C 23.332031 117.671875 23.351562 117.703125 23.304688 117.902344 C 23.273438 118.035156 23.125 118.714844 22.976562 119.40625 C 22.832031 120.097656 22.65625 120.898438 22.589844 121.191406 L 22.460938 121.722656 L 23.398438 121.722656 C 23.914062 121.722656 24.335938 121.683594 24.335938 121.636719 C 24.335938 121.589844 25.835938 120.542969 27.675781 119.3125 L 31.023438 117.070312 L 31.171875 116.398438 C 31.253906 116.03125 31.511719 114.824219 31.742188 113.714844 C 31.972656 112.605469 32.191406 111.675781 32.226562 111.640625 C 32.402344 111.464844 39.992188 106.425781 40.027344 106.457031 C 40.070312 106.503906 39.902344 107.394531 39.402344 109.777344 C 39.207031 110.714844 39.058594 111.519531 39.074219 111.566406 C 39.117188 111.703125 47.039062 106.351562 47.097656 106.144531 C 47.125 106.042969 47.34375 105.054688 47.574219 103.949219 C 47.804688 102.84375 48.042969 101.703125 48.105469 101.414062 L 48.214844 100.890625 L 52.054688 98.316406 C 54.160156 96.902344 55.914062 95.742188 55.941406 95.742188 C 56.027344 95.742188 55.914062 96.359375 55.417969 98.703125 C 55.167969 99.863281 54.980469 100.847656 54.996094 100.894531 C 55.019531 100.964844 62.960938 95.703125 63.210938 95.457031 C 63.304688 95.363281 63.480469 94.589844 64.042969 91.871094 C 64.242188 90.929688 64.453125 90.097656 64.515625 90.019531 C 64.582031 89.9375 66.964844 88.3125 69.816406 86.398438 L 75 82.925781 L 80.171875 86.386719 C 86.269531 90.472656 85.535156 89.847656 85.808594 91.183594 C 86.335938 93.746094 86.707031 95.375 86.785156 95.449219 C 87.042969 95.699219 94.980469 100.960938 95.003906 100.894531 C 95.019531 100.847656 94.832031 99.863281 94.582031 98.703125 C 94.082031 96.335938 93.972656 95.742188 94.058594 95.742188 C 94.089844 95.742188 95.84375 96.898438 97.949219 98.3125 L 101.785156 100.882812 L 101.894531 101.410156 C 102.625 104.898438 102.855469 105.992188 102.902344 106.140625 C 102.960938 106.339844 110.882812 111.699219 110.925781 111.566406 C 110.941406 111.519531 110.792969 110.714844 110.597656 109.777344 C 110.082031 107.339844 109.925781 106.507812 109.976562 106.457031 C 110.011719 106.421875 117.605469 111.457031 117.773438 111.636719 C 117.808594 111.671875 118.027344 112.605469 118.257812 113.714844 C 118.488281 114.824219 118.746094 116.03125 118.828125 116.398438 L 118.976562 117.070312 L 122.324219 119.3125 C 124.164062 120.542969 125.664062 121.589844 125.664062 121.636719 C 125.664062 121.683594 126.085938 121.722656 126.601562 121.722656 L 127.539062 121.722656 L 127.410156 121.191406 C 127.125 119.972656 126.652344 117.675781 126.683594 117.648438 C 126.71875 117.609375 132.320312 121.339844 132.582031 121.574219 C 132.71875 121.699219 133.855469 121.722656 139.667969 121.722656 L 146.59375 121.722656 L 146.59375 118.371094 L 146.589844 115.023438 L 141.691406 111.753906 C 138.996094 109.953125 136.785156 108.453125 136.785156 108.421875 C 136.78125 108.386719 137.175781 108.304688 137.660156 108.234375 C 138.9375 108.046875 141.5 107.636719 141.773438 107.570312 C 142 107.515625 141.996094 107.507812 141.671875 107.289062 C 141.488281 107.164062 139.648438 105.921875 137.585938 104.527344 L 133.828125 101.992188 L 132.074219 102.285156 C 131.113281 102.441406 129.890625 102.628906 129.359375 102.699219 L 128.390625 102.820312 L 124.65625 100.316406 C 122.601562 98.9375 120.875 97.777344 120.820312 97.738281 C 120.636719 97.617188 120.773438 97.585938 123.335938 97.191406 C 124.730469 96.984375 125.867188 96.78125 125.867188 96.746094 C 125.867188 96.714844 124.054688 95.464844 121.835938 93.964844 L 117.808594 91.242188 L 116.253906 91.480469 C 115.402344 91.609375 114.1875 91.804688 113.554688 91.910156 L 112.410156 92.101562 L 108.5625 89.523438 C 105.609375 87.535156 104.765625 86.921875 104.90625 86.871094 C 105.007812 86.832031 105.902344 86.679688 106.890625 86.53125 C 107.882812 86.382812 109 86.210938 109.375 86.144531 L 110.050781 86.027344 L 108.972656 85.308594 C 106.15625 83.421875 101.964844 80.664062 101.785156 80.574219 C 101.636719 80.5 100.949219 80.578125 99.28125 80.855469 C 98.015625 81.0625 96.808594 81.238281 96.601562 81.242188 C 96.183594 81.25 86.800781 75.070312 86.976562 74.90625 C 87.617188 74.320312 96.183594 68.761719 96.453125 68.761719 C 96.632812 68.761719 97.429688 68.875 98.230469 69.003906 C 99.03125 69.136719 100.164062 69.320312 100.753906 69.410156 L 101.828125 69.578125 L 105.757812 66.941406 C 107.925781 65.492188 109.714844 64.289062 109.738281 64.269531 C 109.84375 64.175781 109.5625 64.105469 108.03125 63.867188 C 107.132812 63.722656 105.925781 63.53125 105.351562 63.4375 L 104.3125 63.273438 L 108.1875 60.679688 L 112.0625 58.078125 L 114.484375 58.457031 C 115.816406 58.660156 117.09375 58.847656 117.316406 58.871094 C 117.761719 58.917969 125.910156 53.632812 125.558594 53.519531 C 125.367188 53.460938 122.429688 52.992188 121.3125 52.84375 C 120.816406 52.777344 120.375 52.695312 120.332031 52.65625 C 120.289062 52.617188 121.980469 51.425781 124.09375 50.003906 L 127.933594 47.425781 L 128.828125 47.566406 C 129.320312 47.644531 130.578125 47.84375 131.625 48.011719 L 133.527344 48.308594 L 137.757812 45.484375 C 140.085938 43.925781 141.976562 42.640625 141.960938 42.628906 C 141.9375 42.601562 138.035156 41.964844 137.054688 41.824219 C 136.789062 41.785156 136.585938 41.71875 136.601562 41.675781 C 136.617188 41.632812 138.875 40.089844 141.613281 38.253906 L 146.59375 34.914062 L 146.59375 27.988281 L 133.207031 27.988281 L 129.882812 30.214844 C 128.054688 31.4375 126.539062 32.417969 126.519531 32.398438 C 126.5 32.378906 126.679688 31.4375 126.925781 30.300781 C 127.464844 27.785156 127.460938 27.988281 126.96875 27.988281 C 126.515625 27.988281 118.828125 33.027344 118.722656 33.394531 C 118.695312 33.492188 118.484375 34.457031 118.261719 35.539062 C 118.035156 36.617188 117.796875 37.714844 117.730469 37.976562 L 117.609375 38.453125 L 113.777344 41.023438 C 111.671875 42.433594 109.910156 43.589844 109.855469 43.589844 C 109.808594 43.589844 109.925781 42.855469 110.113281 41.957031 C 110.296875 41.054688 110.527344 39.96875 110.617188 39.535156 C 110.703125 39.109375 110.753906 38.730469 110.726562 38.703125 C 110.632812 38.609375 102.820312 43.914062 102.734375 44.132812 C 102.6875 44.253906 102.425781 45.429688 102.148438 46.746094 C 101.878906 48.066406 101.636719 49.160156 101.617188 49.175781 C 101.339844 49.410156 93.992188 54.265625 93.914062 54.265625 C 93.851562 54.265625 93.832031 54.191406 93.863281 54.101562 C 93.898438 54.015625 94.082031 53.191406 94.269531 52.265625 C 94.460938 51.34375 94.683594 50.308594 94.761719 49.960938 C 94.84375 49.617188 94.875 49.332031 94.832031 49.332031 C 94.789062 49.332031 92.910156 50.566406 90.660156 52.082031 L 86.566406 54.835938 L 86.351562 55.78125 C 86.230469 56.304688 85.992188 57.4375 85.808594 58.308594 C 85.632812 59.171875 85.460938 59.921875 85.425781 59.976562 C 85.335938 60.121094 75.117188 66.949219 75 66.949219 C 74.882812 66.949219 64.664062 60.121094 64.574219 59.976562 C 64.539062 59.921875 64.367188 59.171875 64.191406 58.308594 C 64.007812 57.4375 63.765625 56.300781 63.648438 55.777344 L 63.429688 54.824219 L 59.34375 52.078125 C 57.09375 50.566406 55.21875 49.332031 55.171875 49.332031 C 55.128906 49.332031 55.15625 49.617188 55.238281 49.960938 C 55.316406 50.308594 55.539062 51.34375 55.730469 52.265625 C 55.917969 53.191406 56.105469 54.019531 56.140625 54.113281 C 56.261719 54.4375 55.90625 54.226562 52.132812 51.695312 C 48.648438 49.367188 48.363281 49.152344 48.277344 48.824219 C 48.226562 48.632812 48 47.546875 47.769531 46.410156 C 47.539062 45.273438 47.3125 44.25 47.265625 44.128906 C 47.171875 43.902344 39.375 38.601562 39.277344 38.699219 C 39.25 38.730469 39.296875 39.109375 39.382812 39.535156 C 39.472656 39.96875 39.703125 41.054688 39.886719 41.957031 C 40.074219 42.855469 40.199219 43.589844 40.160156 43.589844 C 40.113281 43.589844 38.351562 42.433594 36.238281 41.023438 L 32.390625 38.453125 L 32.269531 37.976562 C 32.203125 37.714844 31.964844 36.617188 31.738281 35.539062 C 31.515625 34.457031 31.304688 33.492188 31.277344 33.394531 C 31.167969 33.023438 23.484375 27.988281 23.03125 27.988281 C 22.539062 27.988281 22.535156 27.785156 23.074219 30.300781 C 23.320312 31.4375 23.5 32.378906 23.480469 32.398438 C 23.460938 32.417969 21.953125 31.4375 20.132812 30.210938 L 16.824219 27.988281 L 2.902344 27.988281 L 2.902344 31.378906 "/>
<path style=" stroke:none;fill-rule:evenodd;fill:rgb(98.823529%,98.431373%,98.431373%);fill-opacity:1;" d="M 16.976562 28.078125 C 17.179688 28.265625 23.449219 32.433594 23.480469 32.398438 C 23.5 32.378906 23.308594 31.382812 23.050781 30.179688 L 22.589844 27.988281 L 19.738281 27.988281 C 18.078125 27.988281 16.921875 28.023438 16.976562 28.078125 M 23.585938 28.074219 C 23.636719 28.125 25.378906 29.300781 27.453125 30.6875 C 29.527344 32.078125 31.246094 33.292969 31.277344 33.394531 C 31.304688 33.492188 31.515625 34.457031 31.738281 35.539062 C 31.964844 36.617188 32.203125 37.714844 32.269531 37.976562 L 32.390625 38.453125 L 36.238281 41.023438 C 38.351562 42.433594 40.113281 43.589844 40.160156 43.589844 C 40.199219 43.589844 40.074219 42.855469 39.886719 41.957031 C 39.703125 41.054688 39.472656 39.96875 39.382812 39.535156 C 39.296875 39.109375 39.25 38.730469 39.277344 38.699219 C 39.375 38.601562 47.171875 43.902344 47.265625 44.128906 C 47.3125 44.25 47.539062 45.273438 47.769531 46.410156 C 48 47.546875 48.226562 48.632812 48.277344 48.824219 C 48.363281 49.152344 48.648438 49.367188 52.132812 51.695312 C 55.90625 54.226562 56.261719 54.4375 56.140625 54.113281 C 56.105469 54.019531 55.917969 53.191406 55.730469 52.265625 C 55.539062 51.34375 55.316406 50.308594 55.238281 49.960938 C 55.15625 49.617188 55.128906 49.332031 55.171875 49.332031 C 55.21875 49.332031 57.09375 50.566406 59.34375 52.078125 L 63.429688 54.824219 L 63.648438 55.777344 C 63.765625 56.300781 64.007812 57.4375 64.191406 58.308594 C 64.367188 59.171875 64.539062 59.921875 64.574219 59.976562 C 64.664062 60.121094 74.882812 66.949219 75 66.949219 C 75.117188 66.949219 85.335938 60.121094 85.425781 59.976562 C 85.460938 59.921875 85.632812 59.171875 85.808594 58.308594 C 85.992188 57.4375 86.230469 56.304688 86.351562 55.78125 L 86.566406 54.835938 L 90.660156 52.082031 C 92.910156 50.566406 94.789062 49.332031 94.832031 49.332031 C 94.875 49.332031 94.84375 49.617188 94.761719 49.960938 C 94.683594 50.308594 94.460938 51.34375 94.269531 52.265625 C 94.082031 53.191406 93.898438 54.015625 93.863281 54.101562 C 93.832031 54.191406 93.851562 54.265625 93.914062 54.265625 C 93.992188 54.265625 101.339844 49.410156 101.617188 49.175781 C 101.636719 49.160156 101.878906 48.066406 102.148438 46.746094 C 102.425781 45.429688 102.6875 44.253906 102.734375 44.132812 C 102.820312 43.914062 110.632812 38.609375 110.726562 38.703125 C 110.753906 38.730469 110.703125 39.109375 110.617188 39.535156 C 110.527344 39.96875 110.296875 41.054688 110.113281 41.957031 C 109.925781 42.855469 109.808594 43.589844 109.855469 43.589844 C 109.910156 43.589844 111.671875 42.433594 113.777344 41.023438 L 117.609375 38.453125 L 117.730469 37.976562 C 117.796875 37.714844 118.035156 36.617188 118.261719 35.539062 C 118.484375 34.457031 118.695312 33.492188 118.722656 33.394531 C 118.75 33.296875 120.472656 32.082031 122.546875 30.6875 C 124.621094 29.300781 126.363281 28.125 126.414062 28.074219 C 126.46875 28.023438 104.488281 27.988281 75 27.988281 C 45.414062 27.988281 23.53125 28.023438 23.585938 28.074219 M 126.949219 30.179688 C 126.691406 31.382812 126.5 32.378906 126.519531 32.398438 C 126.539062 32.421875 128.054688 31.4375 129.882812 30.214844 L 133.207031 27.988281 L 127.410156 27.988281 L 126.949219 30.179688 M 2.964844 34.703125 C 2.820312 34.851562 2.898438 115.300781 3.042969 115.246094 C 3.15625 115.203125 13.058594 108.59375 13.210938 108.464844 C 13.304688 108.382812 13.0625 108.339844 10.714844 107.976562 C 9.363281 107.773438 8.222656 107.570312 8.179688 107.527344 C 8.109375 107.460938 9.261719 106.65625 14.878906 102.867188 L 16.199219 101.976562 L 17.636719 102.222656 C 18.425781 102.359375 19.648438 102.550781 20.347656 102.648438 L 21.617188 102.828125 L 25.425781 100.269531 C 27.523438 98.863281 29.238281 97.683594 29.238281 97.652344 C 29.238281 97.601562 27.011719 97.222656 24.960938 96.925781 C 23.984375 96.789062 23.980469 96.78125 24.65625 96.332031 C 24.949219 96.144531 26.761719 94.921875 28.6875 93.617188 L 32.191406 91.242188 L 34.046875 91.523438 C 35.066406 91.675781 36.28125 91.871094 36.75 91.953125 L 37.597656 92.101562 L 41.441406 89.527344 C 43.898438 87.878906 45.230469 86.929688 45.144531 86.882812 C 45.070312 86.847656 44.46875 86.738281 43.808594 86.640625 C 43.148438 86.546875 42.015625 86.367188 41.289062 86.246094 L 39.972656 86.027344 L 40.4375 85.710938 C 41.328125 85.105469 48.015625 80.679688 48.199219 80.578125 C 48.386719 80.472656 48.445312 80.476562 51.921875 81.035156 C 52.636719 81.148438 53.347656 81.246094 53.5 81.246094 C 53.742188 81.246094 62.441406 75.5625 62.960938 75.0625 C 63.140625 74.894531 54.019531 68.761719 53.589844 68.761719 C 53.433594 68.761719 52.5 68.894531 51.511719 69.058594 C 50.523438 69.21875 49.371094 69.402344 48.949219 69.464844 L 48.179688 69.578125 L 44.21875 66.929688 C 42.042969 65.472656 40.257812 64.253906 40.257812 64.21875 C 40.257812 64.179688 40.558594 64.097656 40.929688 64.039062 C 41.300781 63.980469 42.527344 63.785156 43.644531 63.605469 L 45.691406 63.273438 L 37.953125 58.082031 L 35.875 58.398438 C 34.730469 58.566406 33.574219 58.75 33.304688 58.800781 C 32.34375 58.988281 32.472656 59.054688 28.269531 56.234375 C 24.957031 54.007812 24.34375 53.558594 24.542969 53.511719 C 24.851562 53.441406 27.519531 53.011719 28.6875 52.851562 C 29.183594 52.78125 29.628906 52.691406 29.671875 52.652344 C 29.71875 52.613281 28.023438 51.417969 25.910156 50 L 22.070312 47.421875 L 19.921875 47.769531 C 18.738281 47.957031 17.480469 48.15625 17.121094 48.210938 L 16.472656 48.308594 L 12.242188 45.480469 C 9.917969 43.921875 8.027344 42.636719 8.042969 42.621094 C 8.058594 42.605469 9.261719 42.402344 10.71875 42.175781 C 13.472656 41.738281 13.515625 41.730469 13.363281 41.59375 C 13.023438 41.289062 3.011719 34.65625 2.964844 34.703125 M 141.589844 38.269531 C 138.863281 40.097656 136.617188 41.632812 136.601562 41.675781 C 136.585938 41.71875 136.789062 41.785156 137.054688 41.824219 C 138.035156 41.964844 141.9375 42.601562 141.960938 42.628906 C 141.976562 42.640625 140.085938 43.925781 137.757812 45.484375 L 133.527344 48.308594 L 131.625 48.011719 C 130.578125 47.84375 129.320312 47.644531 128.828125 47.566406 L 127.933594 47.425781 L 124.09375 50.003906 C 121.980469 51.425781 120.289062 52.617188 120.332031 52.65625 C 120.375 52.695312 120.816406 52.777344 121.3125 52.84375 C 122.429688 52.992188 125.367188 53.460938 125.558594 53.519531 C 125.910156 53.632812 117.761719 58.917969 117.316406 58.871094 C 117.09375 58.847656 115.816406 58.660156 114.484375 58.457031 L 112.0625 58.078125 L 108.1875 60.679688 L 104.3125 63.273438 L 105.351562 63.4375 C 105.925781 63.53125 107.132812 63.722656 108.03125 63.867188 C 109.5625 64.105469 109.84375 64.175781 109.738281 64.269531 C 109.714844 64.289062 107.925781 65.492188 105.757812 66.941406 L 101.828125 69.578125 L 100.753906 69.410156 C 100.164062 69.320312 99.03125 69.136719 98.230469 69.003906 C 97.429688 68.875 96.632812 68.761719 96.453125 68.761719 C 96.183594 68.761719 87.617188 74.320312 86.976562 74.90625 C 86.800781 75.070312 96.183594 81.25 96.601562 81.242188 C 96.808594 81.238281 98.015625 81.0625 99.28125 80.855469 C 100.949219 80.578125 101.636719 80.5 101.785156 80.574219 C 101.964844 80.664062 106.15625 83.421875 108.972656 85.308594 L 110.050781 86.027344 L 109.375 86.144531 C 109 86.210938 107.882812 86.382812 106.890625 86.53125 C 105.902344 86.679688 105.007812 86.832031 104.90625 86.871094 C 104.765625 86.921875 105.609375 87.535156 108.5625 89.523438 L 112.410156 92.101562 L 113.554688 91.910156 C 114.1875 91.804688 115.402344 91.609375 116.253906 91.480469 L 117.808594 91.242188 L 121.835938 93.964844 C 124.054688 95.464844 125.867188 96.714844 125.867188 96.746094 C 125.867188 96.78125 124.730469 96.984375 123.335938 97.191406 C 120.773438 97.585938 120.636719 97.617188 120.820312 97.738281 C 120.875 97.777344 122.601562 98.9375 124.65625 100.316406 L 128.390625 102.820312 L 129.359375 102.699219 C 129.890625 102.628906 131.113281 102.441406 132.074219 102.285156 L 133.828125 101.992188 L 137.585938 104.527344 C 139.648438 105.921875 141.488281 107.164062 141.671875 107.289062 C 141.996094 107.507812 142 107.515625 141.773438 107.570312 C 141.5 107.636719 138.9375 108.046875 137.660156 108.234375 C 137.175781 108.304688 136.78125 108.386719 136.785156 108.421875 C 136.789062 108.503906 146.507812 114.992188 146.554688 114.945312 C 146.578125 114.925781 146.582031 96.914062 146.570312 74.925781 L 146.546875 34.945312 L 141.589844 38.269531 M 69.84375 86.378906 C 67.039062 88.265625 64.664062 89.882812 64.570312 89.980469 C 64.457031 90.09375 64.273438 90.765625 64.042969 91.867188 C 63.488281 94.566406 63.304688 95.363281 63.210938 95.457031 C 62.960938 95.703125 55.019531 100.964844 54.996094 100.894531 C 54.980469 100.847656 55.167969 99.863281 55.417969 98.703125 C 55.914062 96.359375 56.027344 95.742188 55.941406 95.742188 C 55.914062 95.742188 54.160156 96.902344 52.054688 98.316406 L 48.214844 100.890625 L 48.105469 101.414062 C 48.042969 101.703125 47.804688 102.84375 47.574219 103.949219 C 47.34375 105.054688 47.125 106.042969 47.097656 106.144531 C 47.039062 106.351562 39.117188 111.703125 39.074219 111.566406 C 39.058594 111.519531 39.207031 110.714844 39.402344 109.777344 C 39.902344 107.394531 40.070312 106.503906 40.027344 106.457031 C 39.992188 106.425781 32.402344 111.464844 32.226562 111.640625 C 32.191406 111.675781 31.972656 112.605469 31.742188 113.714844 C 31.511719 114.824219 31.253906 116.03125 31.171875 116.398438 L 31.023438 117.070312 L 27.675781 119.3125 C 25.835938 120.542969 24.335938 121.589844 24.335938 121.636719 C 24.335938 121.683594 47.132812 121.722656 75 121.722656 C 102.867188 121.722656 125.664062 121.683594 125.664062 121.636719 C 125.664062 121.589844 124.164062 120.542969 122.324219 119.3125 L 118.976562 117.070312 L 118.828125 116.398438 C 118.746094 116.03125 118.488281 114.824219 118.257812 113.714844 C 118.027344 112.605469 117.808594 111.671875 117.773438 111.636719 C 117.605469 111.457031 110.011719 106.421875 109.976562 106.457031 C 109.925781 106.507812 110.082031 107.339844 110.597656 109.777344 C 110.792969 110.714844 110.941406 111.519531 110.925781 111.566406 C 110.882812 111.699219 102.960938 106.339844 102.902344 106.140625 C 102.855469 105.992188 102.625 104.898438 101.894531 101.410156 L 101.785156 100.882812 L 97.949219 98.3125 C 95.84375 96.898438 94.089844 95.742188 94.058594 95.742188 C 93.972656 95.742188 94.082031 96.335938 94.582031 98.703125 C 94.832031 99.863281 95.019531 100.847656 95.003906 100.894531 C 94.980469 100.960938 87.042969 95.699219 86.785156 95.449219 C 86.707031 95.375 86.332031 93.738281 85.8125 91.203125 C 85.691406 90.617188 85.566406 90.09375 85.53125 90.039062 C 85.460938 89.929688 75.269531 83.082031 75.066406 83 C 75 82.976562 72.652344 84.496094 69.84375 86.378906 M 126.667969 117.667969 C 126.664062 117.742188 127.183594 120.207031 127.402344 121.167969 L 127.519531 121.671875 L 130.105469 121.699219 C 131.664062 121.714844 132.667969 121.6875 132.632812 121.632812 C 132.601562 121.578125 131.371094 120.730469 129.898438 119.738281 C 126.691406 117.59375 126.667969 117.574219 126.667969 117.667969 M 20.320312 119.605469 C 18.753906 120.660156 17.457031 121.5625 17.441406 121.621094 C 17.417969 121.691406 18.265625 121.714844 19.941406 121.699219 L 22.480469 121.671875 L 22.597656 121.167969 C 22.660156 120.886719 22.832031 120.097656 22.976562 119.40625 C 23.121094 118.714844 23.269531 118.042969 23.300781 117.917969 C 23.386719 117.554688 23.304688 117.601562 20.320312 119.605469 "/>
</g>
</svg>
