<?xml version="1.0" encoding="UTF-8"?>
<svg xmlns="http://www.w3.org/2000/svg" xmlns:xlink="http://www.w3.org/1999/xlink" width="150px" height="150px" viewBox="0 0 150 150" version="1.1">
<g id="surface1">
<path style=" stroke:none;fill-rule:evenodd;fill:rgb(1.568628%,1.568628%,1.568628%);fill-opacity:1;" d="M 0 75.035156 L 0 125.566406 L 150 125.566406 L 150 24.5 L 0 24.5 L 0 75.035156 M 146.316406 75.035156 L 146.316406 121.878906 L 3.683594 121.878906 L 3.660156 75.136719 C 3.644531 49.425781 3.65625 28.335938 3.679688 28.265625 C 3.71875 28.164062 18.039062 28.144531 75.023438 28.164062 L 146.316406 28.1875 L 146.316406 75.035156 "/>
<path style=" stroke:none;fill-rule:evenodd;fill:rgb(86.666667%,71.372551%,1.568628%);fill-opacity:1;" d="M 72.964844 38.472656 C 72.957031 38.488281 72.925781 39.113281 72.890625 39.863281 L 72.828125 41.226562 L 70.207031 41.226562 L 70.15625 40.015625 L 70.105469 38.800781 L 66.371094 38.800781 L 66.316406 43.472656 L 66.773438 43.914062 C 67.625 44.738281 67.585938 44.496094 67.695312 49.816406 C 67.800781 54.9375 67.738281 61.363281 67.574219 62.171875 C 67.53125 62.382812 67.472656 62.398438 66.828125 62.398438 C 65.738281 62.398438 65.8125 62.25 65.8125 64.375 C 65.8125 66.859375 65.863281 66.761719 64.628906 66.722656 L 63.644531 66.695312 L 63.617188 59.035156 L 63.59375 51.378906 L 64.0625 50.917969 C 64.910156 50.09375 64.914062 50.085938 64.882812 47.414062 L 64.855469 45.066406 L 62.8125 45.039062 L 60.765625 45.011719 L 60.765625 46.203125 C 60.761719 47.757812 60.882812 47.65625 59.144531 47.621094 L 57.6875 47.59375 L 57.636719 46.332031 L 57.585938 45.066406 L 53.851562 45.066406 L 53.800781 46.332031 L 53.75 47.59375 L 52.417969 47.621094 L 51.082031 47.648438 L 51.054688 46.511719 L 51.027344 45.371094 L 49.160156 45.34375 C 48.132812 45.332031 47.238281 45.355469 47.175781 45.394531 C 47.101562 45.445312 47.039062 46.199219 46.996094 47.59375 L 46.925781 49.714844 L 47.515625 50.328125 L 48.101562 50.9375 L 48.332031 52.347656 C 48.5625 53.789062 48.636719 63.433594 48.417969 63.792969 C 48.359375 63.878906 47.9375 63.917969 46.933594 63.917969 L 45.523438 63.917969 L 45.507812 67.378906 C 45.488281 71.589844 45.4375 71.125 45.972656 71.683594 C 46.886719 72.644531 47.242188 73.316406 47.242188 74.09375 C 47.242188 74.375 47.308594 74.769531 47.390625 74.96875 C 47.488281 75.199219 47.542969 75.660156 47.542969 76.230469 C 47.542969 76.800781 47.597656 77.265625 47.695312 77.496094 C 47.808594 77.761719 47.847656 78.257812 47.847656 79.402344 C 47.847656 80.25 47.914062 81.445312 47.996094 82.058594 C 48.171875 83.378906 48.203125 90.152344 48.035156 91.457031 C 47.980469 91.902344 47.898438 93.402344 47.859375 94.792969 C 47.8125 96.34375 47.738281 97.429688 47.664062 97.601562 C 47.59375 97.769531 47.542969 98.398438 47.542969 99.132812 C 47.542969 99.980469 47.496094 100.511719 47.390625 100.804688 C 47.304688 101.046875 47.242188 101.582031 47.242188 102.035156 C 47.242188 102.574219 47.175781 103.019531 47.039062 103.410156 C 46.910156 103.777344 46.839844 104.214844 46.847656 104.609375 C 46.859375 105.039062 46.8125 105.304688 46.699219 105.46875 C 46.597656 105.613281 46.535156 105.90625 46.535156 106.246094 C 46.535156 106.550781 46.460938 106.925781 46.367188 107.105469 C 46.277344 107.28125 46.171875 107.492188 46.128906 107.578125 C 46.078125 107.691406 45.839844 107.734375 45.1875 107.757812 L 44.3125 107.785156 L 44.3125 111.621094 L 105.6875 111.621094 L 105.6875 107.890625 L 105.410156 107.757812 C 104.925781 107.527344 104.777344 107.066406 104.777344 105.757812 C 104.777344 105.117188 104.726562 104.4375 104.664062 104.242188 C 104.601562 104.046875 104.511719 102.910156 104.46875 101.714844 C 104.421875 100.519531 104.332031 99.359375 104.265625 99.136719 C 104.183594 98.871094 104.136719 97.734375 104.125 95.804688 C 104.113281 93.914062 104.054688 92.53125 103.964844 91.910156 C 103.730469 90.324219 103.757812 79.191406 104 77.71875 C 104.136719 76.890625 104.164062 76.351562 104.117188 75.546875 C 104.074219 74.84375 104.09375 74.320312 104.171875 74.023438 C 104.238281 73.773438 104.339844 73.339844 104.398438 73.0625 C 104.511719 72.53125 104.839844 71.734375 104.964844 71.679688 C 105.304688 71.535156 105.484375 70.753906 105.484375 69.421875 C 105.484375 68.582031 105.523438 68.058594 105.585938 68.058594 C 105.671875 68.058594 105.746094 63.460938 105.660156 63.390625 C 105.648438 63.378906 104.570312 63.34375 103.265625 63.3125 L 100.890625 63.257812 L 100.867188 57.484375 L 100.839844 51.707031 L 101.285156 51.265625 C 101.53125 51.023438 101.765625 50.703125 101.800781 50.554688 C 101.839844 50.40625 101.933594 50.261719 102.011719 50.230469 C 102.160156 50.175781 102.234375 45.949219 102.09375 45.582031 C 102.039062 45.441406 101.757812 45.421875 99.972656 45.421875 L 97.914062 45.421875 L 97.914062 46.628906 C 97.914062 48.105469 97.976562 48.050781 96.332031 48.046875 C 94.804688 48.046875 94.898438 48.132812 94.863281 46.65625 C 94.847656 45.976562 94.800781 45.421875 94.757812 45.421875 C 94.71875 45.421875 93.84375 45.421875 92.816406 45.421875 L 90.949219 45.421875 L 90.949219 46.628906 C 90.949219 48.105469 90.992188 48.066406 89.460938 48.027344 L 88.375 48 L 88.273438 45.671875 L 86.261719 45.644531 C 84.71875 45.625 84.230469 45.648438 84.167969 45.746094 C 84.125 45.816406 84.085938 46.816406 84.085938 47.964844 L 84.085938 50.054688 L 84.714844 50.667969 L 85.347656 51.285156 L 85.464844 52.421875 C 85.53125 53.046875 85.632812 53.945312 85.691406 54.414062 C 85.820312 55.441406 85.839844 66.429688 85.714844 66.625 C 85.660156 66.710938 85.472656 66.746094 85.183594 66.726562 L 84.742188 66.695312 L 84.691406 64.574219 L 84.640625 62.449219 L 83.863281 62.398438 C 82.847656 62.335938 82.855469 62.347656 82.761719 60.761719 C 82.652344 58.886719 82.660156 48.203125 82.773438 47.039062 C 82.992188 44.800781 82.960938 44.917969 83.496094 44.3125 L 83.988281 43.761719 L 83.933594 38.496094 L 79.894531 38.496094 L 79.871094 39.660156 C 79.832031 41.4375 79.980469 41.277344 78.382812 41.277344 C 76.75 41.277344 76.816406 41.339844 76.816406 39.828125 C 76.816406 38.316406 77.007812 38.449219 74.835938 38.449219 C 73.816406 38.449219 72.976562 38.457031 72.964844 38.472656 M 76.238281 47.492188 C 76.390625 47.625 76.515625 47.796875 76.515625 47.875 C 76.515625 47.949219 76.582031 48.097656 76.664062 48.207031 C 76.859375 48.464844 76.886719 52.382812 76.695312 52.578125 C 76.492188 52.78125 72.917969 52.746094 72.839844 52.539062 C 72.808594 52.449219 72.777344 51.425781 72.777344 50.265625 L 72.777344 48.152344 L 73.246094 47.695312 L 73.71875 47.238281 L 74.839844 47.242188 C 75.878906 47.246094 75.980469 47.265625 76.238281 47.492188 M 56.632812 53.671875 C 57.128906 54.007812 57.4375 54.355469 57.4375 54.59375 C 57.4375 54.726562 57.488281 54.933594 57.554688 55.054688 C 57.757812 55.425781 57.550781 58.820312 57.304688 59.140625 C 57.195312 59.28125 54.046875 59.324219 53.832031 59.1875 C 53.742188 59.128906 53.703125 58.457031 53.679688 56.769531 L 53.652344 54.429688 L 53.945312 54.121094 C 54.109375 53.949219 54.320312 53.808594 54.414062 53.808594 C 54.507812 53.808594 54.640625 53.742188 54.710938 53.65625 C 54.894531 53.4375 56.292969 53.445312 56.632812 53.671875 M 93.789062 54.003906 C 93.992188 54.113281 94.28125 54.320312 94.4375 54.464844 L 94.722656 54.726562 L 94.703125 57.058594 C 94.691406 58.34375 94.65625 59.433594 94.625 59.480469 C 94.535156 59.628906 90.992188 59.59375 90.875 59.445312 C 90.695312 59.21875 90.632812 55.410156 90.804688 55.179688 C 90.882812 55.070312 90.949219 54.90625 90.949219 54.808594 C 90.949219 54.636719 91.648438 53.996094 91.957031 53.882812 C 92.339844 53.738281 93.433594 53.8125 93.789062 54.003906 M 65.914062 74.476562 C 65.984375 74.5625 66.125 74.628906 66.230469 74.628906 C 66.339844 74.628906 66.523438 74.796875 66.671875 75.03125 C 66.996094 75.546875 67.078125 79.90625 66.765625 80.027344 C 66.40625 80.164062 63.117188 80.09375 62.996094 79.945312 C 62.910156 79.839844 62.882812 79.203125 62.90625 77.691406 L 62.9375 75.582031 L 63.265625 75.164062 C 63.863281 74.410156 65.503906 73.984375 65.914062 74.476562 M 87.011719 74.476562 C 87.082031 74.5625 87.222656 74.628906 87.324219 74.628906 C 87.882812 74.628906 88.035156 75.273438 88.035156 77.667969 C 88.035156 78.886719 88.003906 79.929688 87.972656 79.984375 C 87.875 80.144531 84.367188 80.117188 84.148438 79.957031 C 83.988281 79.839844 83.976562 79.632812 84.003906 77.703125 L 84.035156 75.582031 L 84.363281 75.164062 C 84.960938 74.410156 86.601562 73.984375 87.011719 74.476562 M 53.847656 79.492188 C 53.898438 79.539062 54.078125 79.582031 54.246094 79.582031 C 54.59375 79.582031 55.113281 80.019531 55.113281 80.3125 C 55.113281 80.414062 55.1875 80.613281 55.28125 80.75 C 55.46875 81.035156 55.4375 84.65625 55.246094 84.847656 C 55.191406 84.902344 54.378906 84.929688 53.289062 84.914062 L 51.429688 84.886719 L 51.375 80.425781 L 51.777344 80.003906 C 52.058594 79.707031 52.265625 79.582031 52.460938 79.578125 C 52.617188 79.578125 52.832031 79.507812 52.941406 79.421875 C 53.144531 79.269531 53.652344 79.308594 53.847656 79.492188 M 100.1875 79.742188 L 100.6875 80.203125 L 100.664062 82.484375 C 100.632812 85.289062 100.8125 85.039062 98.816406 85.039062 C 96.539062 85.039062 96.746094 85.25 96.675781 82.875 C 96.589844 79.875 96.933594 79.277344 98.761719 79.277344 L 99.683594 79.277344 L 100.1875 79.742188 M 77 93.316406 C 77.117188 93.378906 77.488281 93.457031 77.832031 93.496094 C 78.207031 93.535156 78.46875 93.613281 78.503906 93.695312 C 78.53125 93.769531 78.636719 93.832031 78.738281 93.832031 C 78.949219 93.832031 80.148438 94.601562 80.148438 94.734375 C 80.148438 94.785156 80.308594 95.066406 80.5 95.363281 C 80.695312 95.65625 80.855469 95.980469 80.855469 96.082031 C 80.855469 96.183594 80.925781 96.371094 81.011719 96.503906 C 81.226562 96.832031 81.191406 107.382812 80.976562 107.597656 C 80.800781 107.773438 70.207031 107.847656 70 107.675781 C 69.894531 107.585938 69.855469 106.667969 69.824219 103.351562 C 69.792969 100.21875 69.746094 99.03125 69.644531 98.714844 C 69.535156 98.371094 69.535156 98.207031 69.640625 97.808594 C 69.710938 97.539062 69.792969 97.113281 69.816406 96.863281 C 69.863281 96.398438 70.242188 95.449219 70.378906 95.449219 C 70.421875 95.449219 70.457031 95.382812 70.457031 95.300781 C 70.457031 95.125 71.039062 94.4375 71.183594 94.4375 C 71.242188 94.4375 71.457031 94.300781 71.667969 94.136719 C 71.878906 93.96875 72.132812 93.832031 72.230469 93.832031 C 72.328125 93.832031 72.492188 93.757812 72.589844 93.667969 C 72.691406 93.578125 72.898438 93.507812 73.054688 93.511719 C 73.207031 93.515625 73.5625 93.453125 73.839844 93.375 C 74.117188 93.296875 74.433594 93.210938 74.546875 93.183594 C 74.902344 93.097656 76.78125 93.199219 77 93.316406 "/>
<path style=" stroke:none;fill-rule:evenodd;fill:rgb(86.274511%,4.313726%,7.843138%);fill-opacity:1;" d="M 3.679688 28.265625 C 3.65625 28.335938 3.644531 49.425781 3.660156 75.136719 L 3.683594 121.878906 L 146.316406 121.878906 L 146.316406 28.1875 L 75.023438 28.164062 C 18.039062 28.144531 3.71875 28.164062 3.679688 28.265625 M 76.753906 38.605469 C 76.789062 38.695312 76.816406 39.242188 76.816406 39.828125 C 76.816406 41.339844 76.75 41.277344 78.382812 41.277344 C 79.980469 41.277344 79.832031 41.4375 79.871094 39.660156 L 79.894531 38.496094 L 83.933594 38.496094 L 83.988281 43.761719 L 83.496094 44.3125 C 82.960938 44.917969 82.992188 44.800781 82.773438 47.039062 C 82.660156 48.203125 82.652344 58.886719 82.761719 60.761719 C 82.855469 62.347656 82.847656 62.335938 83.863281 62.398438 L 84.640625 62.449219 L 84.691406 64.574219 L 84.742188 66.695312 L 85.183594 66.726562 C 85.472656 66.746094 85.660156 66.710938 85.714844 66.625 C 85.839844 66.429688 85.820312 55.441406 85.691406 54.414062 C 85.632812 53.945312 85.53125 53.046875 85.464844 52.421875 L 85.347656 51.285156 L 84.714844 50.667969 L 84.085938 50.054688 L 84.085938 47.964844 C 84.085938 46.816406 84.125 45.816406 84.167969 45.746094 C 84.230469 45.648438 84.71875 45.625 86.261719 45.644531 L 88.273438 45.671875 L 88.375 48 L 89.460938 48.027344 C 90.992188 48.066406 90.949219 48.105469 90.949219 46.628906 L 90.949219 45.421875 L 92.816406 45.421875 C 93.84375 45.421875 94.71875 45.421875 94.757812 45.421875 C 94.800781 45.421875 94.847656 45.976562 94.863281 46.65625 C 94.898438 48.132812 94.804688 48.046875 96.332031 48.046875 C 97.976562 48.050781 97.914062 48.105469 97.914062 46.628906 L 97.914062 45.421875 L 99.972656 45.421875 C 101.757812 45.421875 102.039062 45.441406 102.09375 45.582031 C 102.234375 45.949219 102.160156 50.175781 102.011719 50.230469 C 101.933594 50.261719 101.839844 50.40625 101.800781 50.554688 C 101.765625 50.703125 101.53125 51.023438 101.285156 51.265625 L 100.839844 51.707031 L 100.867188 57.484375 L 100.890625 63.257812 L 103.265625 63.3125 C 104.570312 63.34375 105.648438 63.378906 105.660156 63.390625 C 105.746094 63.460938 105.671875 68.058594 105.585938 68.058594 C 105.523438 68.058594 105.484375 68.582031 105.484375 69.421875 C 105.484375 70.753906 105.304688 71.535156 104.964844 71.679688 C 104.839844 71.734375 104.511719 72.53125 104.398438 73.0625 C 104.339844 73.339844 104.238281 73.773438 104.171875 74.023438 C 104.09375 74.320312 104.074219 74.84375 104.117188 75.546875 C 104.164062 76.351562 104.136719 76.890625 104 77.71875 C 103.757812 79.191406 103.730469 90.324219 103.964844 91.910156 C 104.054688 92.53125 104.113281 93.914062 104.125 95.804688 C 104.136719 97.734375 104.183594 98.871094 104.265625 99.136719 C 104.332031 99.359375 104.421875 100.519531 104.46875 101.714844 C 104.511719 102.910156 104.601562 104.046875 104.664062 104.242188 C 104.726562 104.4375 104.777344 105.117188 104.777344 105.757812 C 104.777344 107.066406 104.925781 107.527344 105.410156 107.757812 L 105.6875 107.890625 L 105.6875 111.621094 L 44.3125 111.621094 L 44.3125 107.785156 L 45.1875 107.757812 C 45.839844 107.734375 46.078125 107.691406 46.128906 107.578125 C 46.171875 107.492188 46.277344 107.28125 46.367188 107.105469 C 46.460938 106.925781 46.535156 106.550781 46.535156 106.246094 C 46.535156 105.90625 46.597656 105.613281 46.699219 105.46875 C 46.8125 105.304688 46.859375 105.039062 46.847656 104.609375 C 46.839844 104.214844 46.910156 103.777344 47.039062 103.410156 C 47.175781 103.019531 47.242188 102.574219 47.242188 102.035156 C 47.242188 101.582031 47.304688 101.046875 47.390625 100.804688 C 47.496094 100.511719 47.542969 99.980469 47.542969 99.132812 C 47.542969 98.398438 47.59375 97.769531 47.664062 97.601562 C 47.738281 97.429688 47.8125 96.34375 47.859375 94.792969 C 47.898438 93.402344 47.980469 91.902344 48.035156 91.457031 C 48.203125 90.152344 48.171875 83.378906 47.996094 82.058594 C 47.914062 81.445312 47.847656 80.25 47.847656 79.402344 C 47.847656 78.257812 47.808594 77.761719 47.695312 77.496094 C 47.597656 77.265625 47.542969 76.800781 47.542969 76.230469 C 47.542969 75.660156 47.488281 75.199219 47.390625 74.96875 C 47.308594 74.769531 47.242188 74.375 47.242188 74.09375 C 47.242188 73.316406 46.886719 72.644531 45.972656 71.683594 C 45.4375 71.125 45.488281 71.589844 45.507812 67.378906 L 45.523438 63.917969 L 46.933594 63.917969 C 47.9375 63.917969 48.359375 63.878906 48.417969 63.792969 C 48.636719 63.433594 48.5625 53.789062 48.332031 52.347656 L 48.101562 50.9375 L 47.515625 50.328125 L 46.925781 49.714844 L 46.996094 47.59375 C 47.039062 46.199219 47.101562 45.445312 47.175781 45.394531 C 47.238281 45.355469 48.132812 45.332031 49.160156 45.34375 L 51.027344 45.371094 L 51.054688 46.511719 L 51.082031 47.648438 L 52.417969 47.621094 L 53.75 47.59375 L 53.800781 46.332031 L 53.851562 45.066406 L 57.585938 45.066406 L 57.636719 46.332031 L 57.6875 47.59375 L 59.144531 47.621094 C 60.882812 47.65625 60.761719 47.757812 60.765625 46.203125 L 60.765625 45.011719 L 62.8125 45.039062 L 64.855469 45.066406 L 64.882812 47.414062 C 64.914062 50.085938 64.910156 50.09375 64.0625 50.917969 L 63.59375 51.378906 L 63.617188 59.035156 L 63.644531 66.695312 L 64.628906 66.722656 C 65.863281 66.761719 65.8125 66.859375 65.8125 64.375 C 65.8125 62.25 65.738281 62.398438 66.828125 62.398438 C 67.472656 62.398438 67.53125 62.382812 67.574219 62.171875 C 67.738281 61.363281 67.800781 54.9375 67.695312 49.816406 C 67.585938 44.496094 67.625 44.738281 66.773438 43.914062 L 66.316406 43.472656 L 66.371094 38.800781 L 70.105469 38.800781 L 70.15625 40.015625 L 70.207031 41.226562 L 72.828125 41.226562 L 72.890625 39.863281 C 72.925781 39.113281 72.957031 38.488281 72.964844 38.472656 C 73.042969 38.339844 76.703125 38.46875 76.753906 38.605469 "/>
<path style=" stroke:none;fill-rule:evenodd;fill:rgb(1.960784%,45.09804%,73.333335%);fill-opacity:1;" d="M 73.246094 47.695312 L 72.777344 48.152344 L 72.777344 50.265625 C 72.777344 51.425781 72.808594 52.449219 72.839844 52.539062 C 72.917969 52.746094 76.492188 52.78125 76.695312 52.578125 C 76.886719 52.382812 76.859375 48.464844 76.664062 48.207031 C 76.582031 48.097656 76.515625 47.949219 76.515625 47.875 C 76.515625 47.4375 76 47.246094 74.839844 47.242188 L 73.71875 47.238281 L 73.246094 47.695312 M 54.710938 53.65625 C 54.640625 53.742188 54.507812 53.808594 54.414062 53.808594 C 54.320312 53.808594 54.109375 53.949219 53.945312 54.121094 L 53.652344 54.429688 L 53.679688 56.769531 C 53.703125 58.457031 53.742188 59.128906 53.832031 59.1875 C 54.046875 59.324219 57.195312 59.28125 57.304688 59.140625 C 57.550781 58.820312 57.757812 55.425781 57.554688 55.054688 C 57.488281 54.933594 57.4375 54.726562 57.4375 54.59375 C 57.4375 54.355469 57.128906 54.007812 56.632812 53.671875 C 56.292969 53.445312 54.894531 53.4375 54.710938 53.65625 M 91.957031 53.882812 C 91.648438 53.996094 90.949219 54.636719 90.949219 54.808594 C 90.949219 54.90625 90.882812 55.070312 90.804688 55.179688 C 90.632812 55.410156 90.695312 59.21875 90.875 59.445312 C 90.992188 59.59375 94.535156 59.628906 94.625 59.480469 C 94.65625 59.433594 94.691406 58.34375 94.703125 57.058594 L 94.722656 54.726562 L 94.4375 54.464844 C 93.8125 53.886719 92.671875 53.617188 91.957031 53.882812 M 63.972656 74.542969 C 63.765625 74.65625 63.449219 74.9375 63.265625 75.164062 L 62.9375 75.582031 L 62.90625 77.691406 C 62.882812 79.203125 62.910156 79.839844 62.996094 79.945312 C 63.117188 80.09375 66.40625 80.164062 66.765625 80.027344 C 67.078125 79.90625 66.996094 75.546875 66.671875 75.03125 C 66.523438 74.796875 66.339844 74.628906 66.230469 74.628906 C 66.125 74.628906 65.984375 74.5625 65.914062 74.476562 C 65.71875 74.242188 64.453125 74.285156 63.972656 74.542969 M 85.070312 74.542969 C 84.863281 74.65625 84.542969 74.9375 84.363281 75.164062 L 84.035156 75.582031 L 84.003906 77.703125 C 83.976562 79.632812 83.988281 79.839844 84.148438 79.957031 C 84.367188 80.117188 87.875 80.144531 87.972656 79.984375 C 88.003906 79.929688 88.035156 78.886719 88.035156 77.667969 C 88.035156 75.273438 87.882812 74.628906 87.324219 74.628906 C 87.222656 74.628906 87.082031 74.5625 87.011719 74.476562 C 86.816406 74.242188 85.550781 74.285156 85.070312 74.542969 M 52.941406 79.421875 C 52.832031 79.507812 52.617188 79.578125 52.460938 79.578125 C 52.265625 79.582031 52.058594 79.707031 51.777344 80.003906 L 51.375 80.425781 L 51.429688 84.886719 L 53.289062 84.914062 C 54.378906 84.929688 55.191406 84.902344 55.246094 84.847656 C 55.4375 84.65625 55.46875 81.035156 55.28125 80.75 C 55.1875 80.613281 55.113281 80.414062 55.113281 80.3125 C 55.113281 80.019531 54.59375 79.582031 54.246094 79.582031 C 54.078125 79.582031 53.898438 79.539062 53.847656 79.492188 C 53.652344 79.308594 53.144531 79.269531 52.941406 79.421875 M 97.550781 79.507812 C 96.664062 80.199219 96.605469 80.429688 96.675781 82.875 C 96.746094 85.25 96.539062 85.039062 98.816406 85.039062 C 100.8125 85.039062 100.632812 85.289062 100.664062 82.484375 L 100.6875 80.203125 L 100.1875 79.742188 L 99.683594 79.277344 L 98.761719 79.277344 C 97.960938 79.277344 97.800781 79.308594 97.550781 79.507812 M 74.546875 93.183594 C 74.433594 93.210938 74.117188 93.296875 73.839844 93.375 C 73.5625 93.453125 73.207031 93.515625 73.054688 93.511719 C 72.898438 93.507812 72.691406 93.578125 72.589844 93.667969 C 72.492188 93.757812 72.328125 93.832031 72.230469 93.832031 C 72.132812 93.832031 71.878906 93.96875 71.667969 94.136719 C 71.457031 94.300781 71.242188 94.4375 71.183594 94.4375 C 71.039062 94.4375 70.457031 95.125 70.457031 95.300781 C 70.457031 95.382812 70.421875 95.449219 70.378906 95.449219 C 70.242188 95.449219 69.863281 96.398438 69.816406 96.863281 C 69.792969 97.113281 69.710938 97.539062 69.640625 97.808594 C 69.535156 98.207031 69.535156 98.371094 69.644531 98.714844 C 69.746094 99.03125 69.792969 100.21875 69.824219 103.351562 C 69.855469 106.667969 69.894531 107.585938 70 107.675781 C 70.207031 107.847656 80.800781 107.773438 80.976562 107.597656 C 81.191406 107.382812 81.226562 96.832031 81.011719 96.503906 C 80.925781 96.371094 80.855469 96.183594 80.855469 96.082031 C 80.855469 95.980469 80.695312 95.65625 80.5 95.363281 C 80.308594 95.066406 80.148438 94.785156 80.148438 94.734375 C 80.148438 94.601562 78.949219 93.832031 78.738281 93.832031 C 78.636719 93.832031 78.53125 93.769531 78.503906 93.695312 C 78.46875 93.613281 78.207031 93.535156 77.832031 93.496094 C 77.488281 93.457031 77.117188 93.378906 77 93.316406 C 76.78125 93.199219 74.902344 93.097656 74.546875 93.183594 "/>
</g>
</svg>
