<?xml version="1.0" encoding="UTF-8"?>
<svg xmlns="http://www.w3.org/2000/svg" xmlns:xlink="http://www.w3.org/1999/xlink" width="150px" height="150px" viewBox="0 0 150 150" version="1.1">
<g id="surface1">
<path style=" stroke:none;fill-rule:evenodd;fill:rgb(2.352941%,2.745098%,2.745098%);fill-opacity:1;" d="M 0 75.085938 L 0 126.007812 L 150 126.007812 L 150 24.160156 L 0 24.160156 L 0 75.085938 M 145.820312 29.226562 C 145.914062 29.460938 145.914062 121.421875 145.820312 121.65625 C 145.75 121.824219 142.316406 121.832031 75.179688 121.808594 L 4.617188 121.785156 L 4.589844 75.542969 C 4.574219 50.113281 4.585938 29.246094 4.613281 29.179688 C 4.699219 28.941406 145.726562 28.992188 145.820312 29.226562 M 63.636719 74.789062 C 63.601562 74.851562 63.621094 74.949219 63.679688 75.011719 C 63.765625 75.09375 63.792969 75.066406 63.792969 74.902344 C 63.792969 74.65625 63.742188 74.617188 63.636719 74.789062 M 70.121094 79.015625 C 70.042969 79.324219 70.222656 79.570312 70.398438 79.390625 C 70.527344 79.261719 70.433594 78.75 70.285156 78.75 C 70.230469 78.75 70.15625 78.871094 70.121094 79.015625 M 84.023438 79.769531 C 83.953125 80.003906 84.042969 80.210938 84.1875 80.125 C 84.308594 80.046875 84.308594 79.566406 84.1875 79.566406 C 84.132812 79.566406 84.058594 79.65625 84.023438 79.769531 M 85.757812 79.828125 C 85.691406 80.011719 85.761719 80.179688 85.910156 80.179688 C 85.960938 80.179688 86.003906 80.066406 86.003906 79.921875 C 86.003906 79.636719 85.859375 79.582031 85.757812 79.828125 "/>
<path style=" stroke:none;fill-rule:evenodd;fill:rgb(54.509807%,7.843138%,20%);fill-opacity:1;" d="M 4.613281 29.179688 C 4.585938 29.246094 4.574219 50.113281 4.589844 75.542969 L 4.617188 121.785156 L 75.179688 121.808594 C 142.316406 121.832031 145.75 121.824219 145.820312 121.65625 C 145.914062 121.421875 145.914062 29.460938 145.820312 29.226562 C 145.726562 28.992188 4.699219 28.941406 4.613281 29.179688 M 75.148438 55.59375 C 75.453125 55.671875 75.777344 55.734375 75.871094 55.734375 C 76.039062 55.734375 76.675781 56 77.789062 56.519531 C 79.996094 57.5625 81.335938 57.933594 83.417969 58.074219 C 84.75 58.164062 85.6875 58.316406 86 58.480469 C 86.105469 58.539062 86.296875 58.585938 86.429688 58.585938 C 86.558594 58.585938 86.800781 58.660156 86.964844 58.746094 C 87.136719 58.835938 87.476562 58.988281 87.730469 59.085938 C 89.058594 59.597656 90.589844 60.914062 91.511719 62.34375 C 91.921875 62.976562 92.085938 63.300781 92.90625 65.054688 C 93.425781 66.167969 94.15625 67.332031 94.820312 68.109375 C 97.042969 70.710938 98.15625 72.984375 98.171875 74.945312 C 98.175781 75.496094 97.773438 77.261719 97.523438 77.785156 C 96.171875 80.613281 95.699219 82.183594 95.28125 85.273438 C 94.820312 88.648438 93.273438 90.839844 90.347656 92.273438 C 89.488281 92.695312 89.308594 92.765625 87.628906 93.355469 C 86.269531 93.828125 86.167969 93.886719 83.570312 95.722656 C 82.519531 96.464844 81.003906 97.285156 80.683594 97.289062 C 80.570312 97.292969 80.285156 97.378906 80.054688 97.484375 C 78.980469 97.972656 75.75 97.972656 74.679688 97.484375 C 74.445312 97.375 74.210938 97.289062 74.15625 97.289062 C 74.0625 97.289062 73.578125 97.078125 72.261719 96.476562 C 71.929688 96.320312 71.355469 96.070312 70.992188 95.917969 C 70.632812 95.761719 70.183594 95.574219 69.996094 95.496094 C 69.8125 95.417969 69.355469 95.308594 68.984375 95.253906 C 68.609375 95.195312 68.121094 95.082031 67.902344 95 C 67.679688 94.917969 67.257812 94.851562 66.960938 94.847656 C 66.671875 94.847656 66.167969 94.757812 65.847656 94.652344 C 65.527344 94.539062 65.089844 94.421875 64.875 94.386719 C 63.753906 94.199219 61.269531 92.816406 60.433594 91.925781 C 59.652344 91.082031 58.425781 89.128906 58.421875 88.710938 C 58.417969 88.488281 57.609375 86.394531 57.25 85.667969 C 56.894531 84.960938 56.109375 83.785156 55.378906 82.875 C 54.484375 81.769531 54.015625 80.90625 53.585938 79.566406 C 53.503906 79.3125 53.367188 78.894531 53.285156 78.628906 C 52.792969 77.128906 53.203125 75.582031 54.855469 72.691406 C 56.125 70.464844 56.296875 70.011719 56.394531 68.71875 C 56.441406 68.101562 56.554688 67.414062 56.636719 67.191406 C 56.71875 66.964844 56.789062 66.679688 56.792969 66.554688 C 56.804688 65.8125 57.878906 64.015625 58.847656 63.105469 C 59.824219 62.1875 60.882812 61.515625 62.363281 60.871094 C 64.558594 59.910156 66.863281 58.609375 69.195312 57.023438 C 69.902344 56.535156 70.554688 56.140625 70.644531 56.140625 C 70.730469 56.140625 70.90625 56.070312 71.039062 55.984375 C 71.261719 55.835938 71.945312 55.652344 73.074219 55.429688 C 73.558594 55.332031 74.386719 55.402344 75.148438 55.59375 M 72.667969 56.109375 C 71.75 56.230469 70.492188 56.828125 69.09375 57.804688 C 67.382812 59.003906 64.804688 60.453125 62.929688 61.277344 C 60.1875 62.480469 58.59375 63.828125 57.75 65.667969 C 57.386719 66.453125 57.332031 66.691406 56.945312 69.226562 C 56.78125 70.332031 56.125 71.882812 55.363281 72.960938 C 53.082031 76.207031 53.304688 79.261719 56.09375 82.824219 C 57.34375 84.429688 58.328125 86.28125 58.785156 87.917969 C 59.816406 91.554688 62.941406 93.757812 68.050781 94.4375 C 68.523438 94.5 68.949219 94.578125 69 94.609375 C 69.050781 94.644531 69.390625 94.746094 69.761719 94.84375 C 70.132812 94.941406 71.234375 95.378906 72.210938 95.8125 C 75.058594 97.082031 75.761719 97.289062 77.203125 97.289062 C 79.4375 97.289062 81.308594 96.636719 83.378906 95.128906 C 85.691406 93.453125 86.007812 93.28125 87.871094 92.652344 C 91.726562 91.355469 93.925781 89.230469 94.484375 86.285156 C 94.574219 85.808594 94.710938 85.101562 94.785156 84.710938 C 94.859375 84.316406 94.921875 83.84375 94.925781 83.660156 C 94.933594 82.820312 95.503906 80.964844 96.328125 79.058594 C 97.4375 76.503906 97.640625 75.492188 97.375 73.78125 C 97.164062 72.433594 96.113281 70.539062 94.625 68.832031 C 93.667969 67.734375 91.582031 64.144531 91.582031 63.597656 C 91.582031 63.464844 90.621094 62.09375 90.109375 61.492188 C 89.226562 60.453125 86.988281 59.222656 85.574219 59 C 85.199219 58.9375 84.769531 58.835938 84.609375 58.773438 C 84.457031 58.714844 83.691406 58.628906 82.914062 58.585938 C 81.320312 58.503906 80.421875 58.28125 78.726562 57.558594 C 75.128906 56.035156 74.464844 55.871094 72.667969 56.109375 M 76.066406 56.628906 C 76.484375 56.792969 77.214844 57.097656 77.6875 57.3125 C 79.082031 57.925781 79.957031 58.277344 80.101562 58.277344 C 80.171875 58.277344 80.488281 58.375 80.808594 58.488281 C 81.234375 58.636719 81.761719 58.707031 82.757812 58.746094 C 83.511719 58.777344 84.3125 58.863281 84.53125 58.941406 C 84.757812 59.015625 85.179688 59.105469 85.480469 59.140625 C 87.945312 59.433594 90.265625 61.339844 91.636719 64.1875 C 92.941406 66.886719 93.414062 67.6875 94.34375 68.730469 C 97.050781 71.785156 97.9375 74.671875 96.933594 77.175781 C 96.738281 77.660156 95.679688 80.175781 95.386719 80.855469 C 95.3125 81.03125 95.21875 81.351562 95.175781 81.566406 C 95.140625 81.785156 95.023438 82.25 94.917969 82.609375 C 94.8125 82.964844 94.726562 83.515625 94.726562 83.824219 C 94.726562 84.140625 94.640625 84.765625 94.527344 85.214844 C 94.417969 85.664062 94.304688 86.246094 94.269531 86.511719 C 94.039062 88.300781 92.378906 90.328125 90.214844 91.464844 C 89.28125 91.949219 88.488281 92.300781 88.300781 92.300781 C 88.210938 92.300781 87.960938 92.390625 87.753906 92.5 C 87.542969 92.613281 87.296875 92.703125 87.203125 92.703125 C 86.859375 92.703125 85.488281 93.441406 84.410156 94.207031 C 81.796875 96.058594 81.546875 96.199219 80.425781 96.550781 C 77.175781 97.5625 76.171875 97.421875 71.507812 95.3125 C 70.816406 94.996094 70.167969 94.742188 70.066406 94.742188 C 69.960938 94.742188 69.617188 94.65625 69.292969 94.542969 C 68.976562 94.433594 68.394531 94.316406 68 94.277344 C 67.609375 94.238281 67.113281 94.152344 66.886719 94.078125 C 66.664062 94.003906 66.296875 93.917969 66.074219 93.882812 C 62.652344 93.324219 59.582031 90.707031 58.929688 87.789062 C 58.628906 86.441406 57.421875 84.222656 56.035156 82.46875 C 55.113281 81.308594 54.96875 81.058594 54.445312 79.761719 L 54.015625 78.699219 L 54.015625 75.953125 L 54.4375 75.0625 C 54.667969 74.574219 55.191406 73.589844 55.605469 72.871094 C 56.933594 70.566406 57.074219 70.167969 57.304688 68.058594 C 57.535156 65.914062 58.433594 64.332031 60.175781 62.976562 C 60.753906 62.53125 63.039062 61.316406 63.53125 61.191406 C 63.699219 61.152344 64.136719 60.9375 64.515625 60.71875 C 64.890625 60.496094 65.230469 60.316406 65.269531 60.316406 C 65.394531 60.316406 68.875 58.1875 69.777344 57.558594 C 70.558594 57.011719 71.546875 56.546875 72.359375 56.332031 C 73.105469 56.136719 75.257812 56.308594 76.066406 56.628906 M 73.089844 60.777344 C 72.820312 60.851562 72.367188 60.941406 72.074219 60.976562 C 70.410156 61.1875 67.242188 62.558594 65.480469 63.832031 C 63.164062 65.503906 60.53125 68.699219 59.988281 70.5 C 59.945312 70.644531 59.847656 70.847656 59.773438 70.957031 C 59.699219 71.066406 59.636719 71.253906 59.636719 71.367188 C 59.636719 71.480469 59.550781 71.734375 59.445312 71.929688 C 59.34375 72.125 59.226562 72.523438 59.191406 72.8125 C 59.152344 73.105469 59.046875 73.515625 58.953125 73.730469 C 58.6875 74.332031 58.632812 78.464844 58.875 79.371094 C 58.976562 79.730469 59.113281 80.300781 59.183594 80.636719 C 59.863281 83.761719 62.367188 87.359375 65.3125 89.4375 C 67.125 90.710938 69.140625 91.71875 70.445312 91.992188 C 70.675781 92.042969 71.015625 92.148438 71.207031 92.226562 C 72.335938 92.710938 76.671875 92.984375 78.132812 92.664062 C 78.53125 92.578125 79.105469 92.480469 79.414062 92.445312 C 79.71875 92.414062 80.183594 92.296875 80.445312 92.1875 C 80.707031 92.078125 81.019531 91.992188 81.136719 91.992188 C 81.261719 91.992188 81.503906 91.925781 81.675781 91.847656 C 81.855469 91.769531 82.316406 91.574219 82.707031 91.421875 C 87.140625 89.683594 90.476562 86.082031 92.183594 81.199219 C 92.875 79.226562 93.078125 76.257812 92.660156 74.320312 C 92.578125 73.929688 92.464844 73.378906 92.410156 73.101562 C 91.824219 70.066406 89.15625 66.039062 86.5 64.167969 C 84.964844 63.089844 83.25 62.101562 82.539062 61.898438 C 82.410156 61.859375 82.074219 61.746094 81.796875 61.644531 C 79.292969 60.738281 74.820312 60.289062 73.089844 60.777344 M 78.019531 60.875 C 78.425781 60.957031 79.082031 61.070312 79.484375 61.128906 C 79.882812 61.183594 80.363281 61.296875 80.542969 61.371094 C 80.730469 61.449219 81.273438 61.640625 81.746094 61.792969 C 86.886719 63.492188 91.691406 68.792969 92.355469 73.488281 C 92.386719 73.726562 92.476562 74.246094 92.554688 74.648438 C 93.195312 77.941406 92.066406 82.417969 89.773438 85.675781 C 87.496094 88.914062 82.644531 91.9375 79.058594 92.351562 C 78.722656 92.390625 78.152344 92.484375 77.792969 92.5625 C 76.929688 92.742188 74.589844 92.742188 73.730469 92.5625 C 73.367188 92.484375 72.796875 92.390625 72.464844 92.351562 C 68.902344 91.933594 64.4375 89.207031 61.949219 85.945312 C 55.5625 77.546875 59.578125 65.148438 69.777344 61.789062 C 70.25 61.632812 70.800781 61.445312 70.992188 61.375 C 71.1875 61.300781 71.785156 61.164062 72.3125 61.078125 C 72.839844 60.992188 73.457031 60.882812 73.683594 60.835938 C 74.390625 60.683594 77.222656 60.710938 78.019531 60.875 M 75.457031 63.371094 C 75.457031 63.425781 75.574219 63.472656 75.714844 63.472656 C 75.863281 63.472656 75.949219 63.429688 75.914062 63.371094 C 75.875 63.316406 75.761719 63.269531 75.652344 63.269531 C 75.546875 63.269531 75.457031 63.316406 75.457031 63.371094 M 75.296875 64.628906 C 75.199219 64.878906 75.289062 65.253906 75.445312 65.253906 C 75.671875 65.253906 75.828125 64.929688 75.703125 64.726562 C 75.554688 64.492188 75.367188 64.445312 75.296875 64.628906 M 74.117188 65.925781 C 74.03125 66.1875 74.15625 66.425781 74.378906 66.429688 C 74.496094 66.429688 74.699219 66.457031 74.835938 66.492188 C 75.015625 66.546875 75.066406 66.527344 75.03125 66.417969 C 75.003906 66.339844 74.890625 66.273438 74.777344 66.273438 C 74.660156 66.273438 74.476562 66.164062 74.367188 66.027344 C 74.21875 65.839844 74.15625 65.8125 74.117188 65.925781 M 76.472656 66.175781 C 76.320312 66.355469 76.421875 66.53125 76.679688 66.53125 C 76.804688 66.53125 76.875 66.457031 76.875 66.335938 C 76.875 66.089844 76.625 65.992188 76.472656 66.175781 M 75.714844 66.320312 C 75.640625 66.4375 75.828125 66.5625 75.964844 66.476562 C 76.078125 66.40625 76.003906 66.222656 75.859375 66.222656 C 75.8125 66.222656 75.746094 66.265625 75.714844 66.320312 M 76.117188 67.769531 C 75.988281 68.128906 76.023438 68.59375 76.1875 68.703125 C 76.460938 68.882812 76.582031 68.675781 76.496094 68.164062 C 76.417969 67.722656 76.210938 67.503906 76.117188 67.769531 M 74.382812 68.007812 C 74.292969 68.371094 74.484375 68.769531 74.75 68.769531 C 75.074219 68.769531 75.003906 67.820312 74.671875 67.773438 C 74.503906 67.75 74.433594 67.804688 74.382812 68.007812 M 77.082031 70.132812 C 77.082031 70.320312 77.347656 70.535156 77.480469 70.453125 C 77.550781 70.40625 77.554688 70.328125 77.480469 70.191406 C 77.359375 69.960938 77.082031 69.921875 77.082031 70.132812 M 74.480469 72.171875 C 74.371094 72.464844 74.488281 73.097656 74.65625 73.128906 C 74.832031 73.164062 75.03125 72.34375 74.898438 72.132812 C 74.808594 71.984375 74.546875 72.007812 74.480469 72.171875 M 76.183594 72.414062 C 76.210938 72.648438 76.265625 72.691406 76.523438 72.691406 C 76.777344 72.691406 76.832031 72.648438 76.855469 72.414062 C 76.886719 72.152344 76.863281 72.132812 76.523438 72.132812 C 76.179688 72.132812 76.15625 72.152344 76.183594 72.414062 M 62.894531 72.507812 C 62.667969 72.601562 62.261719 73.578125 62.386719 73.730469 C 62.542969 73.914062 66.328125 73.921875 66.511719 73.742188 C 66.765625 73.484375 66.535156 72.640625 66.171875 72.5 C 65.976562 72.425781 63.089844 72.433594 62.894531 72.507812 M 66.070312 72.9375 C 66.566406 73.488281 66.320312 73.597656 64.527344 73.617188 C 63.621094 73.625 62.851562 73.597656 62.824219 73.554688 C 62.730469 73.398438 62.980469 72.9375 63.210938 72.847656 C 63.691406 72.652344 65.871094 72.722656 66.070312 72.9375 M 82.464844 73.273438 C 81.808594 74.167969 81.910156 74.367188 83.03125 74.371094 C 84.117188 74.375 84.257812 74.148438 83.6875 73.300781 C 83.273438 72.699219 82.890625 72.6875 82.464844 73.273438 M 83.335938 73.472656 C 83.765625 73.878906 83.65625 74.171875 83.070312 74.171875 C 82.457031 74.171875 82.378906 74.0625 82.65625 73.609375 C 82.914062 73.195312 83.019531 73.171875 83.335938 73.472656 M 69.363281 73.753906 C 68.808594 73.925781 68.050781 74.644531 68.050781 75 C 68.050781 75.046875 69.023438 75.085938 70.207031 75.085938 C 72.746094 75.085938 73.101562 75.128906 73.144531 75.421875 C 73.160156 75.535156 73.226562 75.648438 73.289062 75.667969 C 73.449219 75.71875 73.355469 74.054688 73.195312 73.898438 C 73.046875 73.761719 69.746094 73.632812 69.363281 73.753906 M 86.164062 74.316406 C 85.824219 74.898438 85.828125 75.140625 86.179688 75.3125 C 86.4375 75.433594 86.460938 75.496094 86.460938 76.003906 C 86.460938 76.886719 86.949219 76.863281 86.996094 75.980469 C 87.027344 75.457031 87.058594 75.386719 87.269531 75.332031 C 87.59375 75.246094 87.660156 75.035156 87.460938 74.644531 C 87.007812 73.746094 86.566406 73.632812 86.164062 74.316406 M 72.972656 74.1875 C 73.035156 74.246094 73.03125 74.339844 72.960938 74.453125 C 72.828125 74.65625 68.867188 74.78125 68.867188 74.574219 C 68.867188 74.433594 69.226562 74.132812 69.5 74.050781 C 69.820312 73.957031 72.847656 74.070312 72.972656 74.1875 M 90.261719 74.398438 C 89.886719 75.015625 90.070312 75.324219 90.789062 75.269531 C 91.445312 75.222656 91.328125 74.066406 90.671875 74.066406 C 90.546875 74.066406 90.382812 74.199219 90.261719 74.398438 M 86.976562 74.523438 C 87.199219 74.867188 87.097656 75.085938 86.714844 75.085938 C 86.53125 75.085938 86.378906 75.023438 86.34375 74.933594 C 86.28125 74.765625 86.558594 74.273438 86.714844 74.273438 C 86.765625 74.273438 86.882812 74.386719 86.976562 74.523438 M 63.453125 74.441406 C 63.308594 74.585938 63.386719 75.296875 63.550781 75.359375 C 63.9375 75.507812 64.273438 74.863281 63.988281 74.519531 C 63.863281 74.367188 63.570312 74.324219 63.453125 74.441406 M 65.21875 74.640625 C 64.988281 74.941406 64.953125 75.1875 65.125 75.363281 C 65.285156 75.527344 65.484375 75.421875 65.71875 75.035156 C 66.085938 74.441406 65.648438 74.09375 65.21875 74.640625 M 90.855469 74.863281 C 90.875 75.007812 90.832031 75.085938 90.734375 75.085938 C 90.539062 75.085938 90.429688 74.914062 90.507812 74.71875 C 90.59375 74.5 90.816406 74.59375 90.855469 74.863281 M 63.792969 74.902344 C 63.792969 75.066406 63.765625 75.09375 63.679688 75.011719 C 63.621094 74.949219 63.601562 74.851562 63.636719 74.789062 C 63.742188 74.617188 63.792969 74.65625 63.792969 74.902344 M 82.761719 75.078125 C 82.542969 75.488281 82.703125 75.902344 83.082031 75.902344 C 83.3125 75.902344 83.429688 75.457031 83.28125 75.128906 C 83.144531 74.832031 82.902344 74.808594 82.761719 75.078125 M 69.164062 75.910156 C 69.015625 76.1875 69.214844 76.429688 69.566406 76.386719 C 69.875 76.351562 69.953125 76.09375 69.722656 75.859375 C 69.503906 75.636719 69.296875 75.652344 69.164062 75.910156 M 70.917969 75.8125 C 70.546875 76.183594 71.007812 76.648438 71.414062 76.3125 C 71.609375 76.152344 71.632812 76.082031 71.539062 75.933594 C 71.402344 75.703125 71.085938 75.644531 70.917969 75.8125 M 90.3125 76.078125 C 90.101562 76.199219 89.796875 76.246094 89.304688 76.234375 C 87.953125 76.207031 87.933594 76.402344 89.179688 77.671875 L 90.128906 78.632812 L 90.777344 78.585938 C 92.027344 78.492188 92.089844 78.429688 92.089844 77.230469 C 92.089844 76.457031 92.058594 76.410156 91.378906 76.179688 C 91.128906 76.09375 90.855469 76 90.769531 75.96875 C 90.6875 75.933594 90.480469 75.984375 90.3125 76.078125 M 76.386719 76.53125 C 76.167969 76.753906 76.261719 76.90625 76.648438 76.96875 C 76.855469 77.003906 77.136719 77.078125 77.265625 77.132812 C 77.632812 77.28125 77.503906 76.925781 77.089844 76.644531 C 76.699219 76.375 76.566406 76.355469 76.386719 76.53125 M 81.515625 76.59375 C 80.867188 76.648438 80.984375 77.023438 81.917969 77.886719 L 82.691406 78.597656 L 84.957031 78.648438 C 87.429688 78.703125 87.367188 78.71875 87.058594 78.117188 C 86.851562 77.722656 86.132812 76.792969 85.945312 76.6875 C 85.804688 76.605469 82.253906 76.535156 81.515625 76.59375 M 91.785156 76.714844 C 91.976562 76.90625 91.992188 77 91.929688 77.507812 C 91.84375 78.21875 91.816406 78.242188 90.886719 78.242188 L 90.140625 78.246094 L 89.425781 77.542969 C 88.464844 76.605469 88.488281 76.570312 90.195312 76.53125 C 91.484375 76.5 91.578125 76.511719 91.785156 76.714844 M 85.71875 76.980469 C 85.949219 77.046875 86.644531 78.003906 86.5625 78.136719 C 86.523438 78.203125 85.800781 78.246094 84.671875 78.246094 L 82.839844 78.246094 L 82.265625 77.683594 C 81.707031 77.132812 81.699219 77.117188 81.898438 76.957031 C 82.09375 76.800781 85.175781 76.820312 85.71875 76.980469 M 62.238281 76.984375 C 62.132812 77.09375 62.15625 77.425781 62.269531 77.425781 C 62.324219 77.425781 62.371094 77.3125 62.371094 77.175781 C 62.371094 76.90625 62.347656 76.875 62.238281 76.984375 M 65.4375 77.039062 C 65.261719 77.214844 65.285156 77.523438 65.472656 77.59375 C 65.703125 77.6875 65.855469 77.480469 65.78125 77.183594 C 65.710938 76.890625 65.621094 76.855469 65.4375 77.039062 M 67.042969 77.066406 C 66.867188 77.277344 66.953125 77.578125 67.195312 77.578125 C 67.4375 77.578125 67.515625 77.210938 67.3125 77.035156 C 67.199219 76.941406 67.140625 76.949219 67.042969 77.066406 M 75.65625 77.25 C 75.417969 77.648438 75.414062 77.738281 75.601562 78.191406 C 75.800781 78.667969 75.867188 78.640625 75.796875 78.109375 C 75.757812 77.828125 75.792969 77.546875 75.898438 77.296875 C 76.089844 76.832031 75.933594 76.796875 75.65625 77.25 M 68.832031 77.160156 C 68.761719 77.34375 68.839844 77.425781 69.089844 77.425781 C 69.21875 77.425781 69.273438 77.367188 69.25 77.25 C 69.207031 77.027344 68.910156 76.960938 68.832031 77.160156 M 60.496094 77.390625 C 60.40625 77.480469 60.359375 77.621094 60.390625 77.707031 C 60.421875 77.785156 60.445312 77.871094 60.445312 77.894531 C 60.445312 78.015625 60.839844 77.914062 60.890625 77.777344 C 61.023438 77.425781 60.742188 77.148438 60.496094 77.390625 M 77.617188 77.527344 C 77.65625 77.671875 77.6875 77.867188 77.6875 77.96875 C 77.6875 78.070312 77.734375 78.125 77.789062 78.089844 C 77.949219 77.988281 77.90625 77.566406 77.722656 77.414062 C 77.566406 77.289062 77.554688 77.300781 77.617188 77.527344 M 87.945312 77.414062 C 87.710938 77.566406 87.847656 77.988281 88.132812 77.988281 C 88.324219 77.988281 88.398438 77.925781 88.421875 77.746094 C 88.449219 77.535156 88.308594 77.328125 88.132812 77.328125 C 88.105469 77.328125 88.019531 77.367188 87.945312 77.414062 M 70.035156 78.574219 C 69.820312 78.878906 69.835938 79.496094 70.066406 79.773438 L 70.25 80.007812 L 70.46875 79.785156 C 70.613281 79.644531 70.691406 79.441406 70.691406 79.203125 C 70.691406 78.53125 70.3125 78.171875 70.035156 78.574219 M 62.1875 78.671875 C 62.027344 78.839844 62.039062 79.109375 62.214844 79.257812 C 62.414062 79.421875 62.578125 79.304688 62.578125 79.011719 C 62.578125 78.703125 62.351562 78.507812 62.1875 78.671875 M 63.660156 78.714844 C 63.4375 78.941406 63.730469 79.445312 63.960938 79.246094 C 64.171875 79.074219 64.132812 78.648438 63.910156 78.648438 C 63.808594 78.648438 63.695312 78.679688 63.660156 78.714844 M 65.386719 78.714844 C 65.269531 78.832031 65.300781 79.125 65.445312 79.242188 C 65.632812 79.402344 65.84375 79.226562 65.804688 78.945312 C 65.769531 78.707031 65.527344 78.574219 65.386719 78.714844 M 66.976562 78.792969 C 66.882812 79.035156 67.011719 79.28125 67.21875 79.242188 C 67.328125 79.21875 67.394531 79.113281 67.394531 78.957031 C 67.394531 78.664062 67.070312 78.542969 66.976562 78.792969 M 70.445312 79.015625 C 70.523438 79.324219 70.347656 79.570312 70.171875 79.390625 C 70.042969 79.261719 70.132812 78.75 70.285156 78.75 C 70.335938 78.75 70.410156 78.871094 70.445312 79.015625 M 60.449219 79.003906 C 60.273438 79.214844 60.363281 79.511719 60.613281 79.546875 C 60.878906 79.585938 61.03125 79.226562 60.847656 79.003906 C 60.695312 78.816406 60.601562 78.816406 60.449219 79.003906 M 81.082031 79.472656 C 80.972656 79.816406 81.28125 80.078125 81.515625 79.839844 C 81.648438 79.703125 81.664062 79.625 81.578125 79.488281 C 81.414062 79.226562 81.164062 79.214844 81.082031 79.472656 M 83.746094 79.773438 C 83.589844 80.171875 83.59375 80.1875 83.808594 80.328125 C 84.121094 80.53125 84.828125 80.425781 84.730469 80.191406 C 84.695312 80.101562 84.617188 79.875 84.566406 79.695312 C 84.417969 79.175781 83.960938 79.21875 83.746094 79.773438 M 85.542969 79.714844 C 85.34375 80.195312 85.359375 80.355469 85.601562 80.433594 C 85.917969 80.53125 86.308594 80.230469 86.308594 79.890625 C 86.308594 79.285156 85.769531 79.164062 85.542969 79.714844 M 71.644531 79.578125 C 71.609375 79.636719 71.621094 79.730469 71.675781 79.78125 C 71.804688 79.910156 72.109375 79.785156 72.109375 79.605469 C 72.109375 79.441406 71.746094 79.417969 71.644531 79.578125 M 77.332031 79.671875 C 77.28125 79.75 76.992188 79.78125 76.484375 79.765625 C 75 79.710938 74.847656 79.738281 74.847656 80.03125 C 74.847656 80.351562 75.101562 80.457031 75.34375 80.242188 C 75.566406 80.039062 75.703125 80.035156 75.992188 80.222656 C 76.34375 80.445312 76.929688 80.457031 77.171875 80.238281 C 77.363281 80.0625 77.394531 80.0625 77.628906 80.214844 C 78.015625 80.46875 78.191406 80.425781 78.191406 80.089844 C 78.191406 79.859375 78.136719 79.777344 77.949219 79.730469 C 77.816406 79.695312 77.640625 79.644531 77.554688 79.613281 C 77.472656 79.578125 77.371094 79.605469 77.332031 79.671875 M 78.761719 79.640625 C 78.640625 79.761719 78.707031 79.871094 78.90625 79.871094 C 79.015625 79.871094 79.105469 79.832031 79.105469 79.78125 C 79.105469 79.667969 78.84375 79.5625 78.761719 79.640625 M 84.28125 79.816406 C 84.28125 80.089844 84.128906 80.242188 84.027344 80.078125 C 83.945312 79.941406 84.058594 79.566406 84.1875 79.566406 C 84.238281 79.566406 84.28125 79.679688 84.28125 79.816406 M 86.003906 79.921875 C 86.003906 80.175781 85.867188 80.265625 85.753906 80.085938 C 85.683594 79.964844 85.792969 79.667969 85.914062 79.667969 C 85.964844 79.667969 86.003906 79.78125 86.003906 79.921875 M 62.15625 80.121094 C 62.054688 80.34375 62.0625 80.414062 62.191406 80.546875 C 62.390625 80.75 62.578125 80.648438 62.578125 80.335938 C 62.578125 79.9375 62.300781 79.796875 62.15625 80.121094 M 63.640625 80.191406 C 63.554688 80.449219 63.808594 80.742188 64.039062 80.65625 C 64.230469 80.582031 64.25 80.269531 64.074219 80.097656 C 63.894531 79.910156 63.714844 79.949219 63.640625 80.191406 M 89.871094 80.425781 C 89.890625 80.519531 89.957031 80.59375 90.011719 80.59375 C 90.160156 80.585938 90.132812 80.355469 89.976562 80.300781 C 89.886719 80.273438 89.851562 80.320312 89.871094 80.425781 M 72.058594 81.507812 C 71.988281 81.730469 72.15625 82.011719 72.359375 82.011719 C 72.570312 82.011719 72.738281 81.730469 72.667969 81.507812 C 72.628906 81.375 72.515625 81.300781 72.359375 81.300781 C 72.210938 81.300781 72.097656 81.375 72.058594 81.507812 M 73.597656 81.367188 C 73.472656 81.488281 73.523438 81.886719 73.675781 81.945312 C 73.875 82.019531 74.066406 81.757812 73.988281 81.507812 C 73.921875 81.300781 73.730469 81.234375 73.597656 81.367188 M 80.546875 81.621094 C 80.300781 81.871094 80.492188 82.363281 80.792969 82.246094 C 80.941406 82.1875 80.972656 81.933594 80.871094 81.660156 C 80.796875 81.46875 80.710938 81.460938 80.546875 81.621094 M 79.046875 81.746094 C 78.9375 82.039062 79.050781 82.265625 79.308594 82.265625 C 79.527344 82.265625 79.566406 82.214844 79.566406 81.960938 C 79.566406 81.617188 79.160156 81.449219 79.046875 81.746094 M 88.839844 82.273438 C 88.738281 82.390625 88.730469 82.484375 88.8125 82.605469 C 88.957031 82.839844 89.308594 82.875 89.394531 82.664062 C 89.558594 82.222656 89.128906 81.921875 88.839844 82.273438 M 90.3125 82.3125 C 90.234375 82.574219 90.421875 82.835938 90.632812 82.753906 C 90.835938 82.675781 90.769531 82.175781 90.554688 82.132812 C 90.449219 82.113281 90.355469 82.1875 90.3125 82.3125 M 82.863281 82.566406 C 82.660156 82.8125 82.8125 83.253906 83.09375 83.214844 C 83.273438 83.1875 83.316406 83.117188 83.316406 82.824219 C 83.316406 82.433594 83.085938 82.296875 82.863281 82.566406 M 84.347656 82.488281 C 84.1875 82.648438 84.285156 83.121094 84.492188 83.1875 C 84.828125 83.292969 85.058594 83.007812 84.910156 82.675781 C 84.800781 82.4375 84.5 82.335938 84.347656 82.488281 M 75.511719 82.683594 C 75.335938 82.859375 75.324219 82.925781 75.445312 83.117188 C 75.585938 83.339844 75.910156 83.210938 75.945312 82.917969 C 75.980469 82.59375 75.730469 82.460938 75.511719 82.683594 M 76.914062 82.664062 C 76.882812 82.746094 76.875 82.917969 76.894531 83.046875 C 76.9375 83.371094 77.320312 83.371094 77.367188 83.050781 C 77.421875 82.660156 77.039062 82.339844 76.914062 82.664062 M 88.851562 83.527344 C 88.699219 83.808594 88.820312 84.046875 89.109375 84.046875 C 89.394531 84.046875 89.535156 83.792969 89.382812 83.550781 C 89.226562 83.304688 88.972656 83.292969 88.851562 83.527344 M 81.566406 83.707031 C 81.292969 83.820312 81.464844 83.945312 81.898438 83.945312 C 82.351562 83.945312 82.5 83.820312 82.191406 83.703125 C 82.007812 83.632812 81.753906 83.632812 81.566406 83.707031 M 86.554688 83.894531 C 86.457031 84.042969 86.289062 84.152344 86.152344 84.152344 C 86.023438 84.152344 85.886719 84.195312 85.855469 84.253906 C 85.769531 84.382812 86.152344 84.382812 86.636719 84.246094 C 86.945312 84.160156 87.019531 84.09375 87.019531 83.890625 C 87.019531 83.5625 86.765625 83.566406 86.554688 83.894531 M 75.101562 83.839844 C 75.359375 83.953125 75.789062 83.972656 75.722656 83.863281 C 75.695312 83.820312 75.5 83.777344 75.285156 83.769531 C 74.984375 83.753906 74.945312 83.773438 75.101562 83.839844 M 72.816406 83.945312 C 72.816406 84 72.90625 84.046875 73.019531 84.046875 C 73.125 84.046875 73.242188 84 73.277344 83.945312 C 73.3125 83.886719 73.226562 83.84375 73.078125 83.84375 C 72.933594 83.84375 72.816406 83.890625 72.816406 83.945312 M 84.429688 83.945312 C 84.464844 84 84.605469 84.046875 84.742188 84.046875 C 84.878906 84.046875 84.988281 84 84.988281 83.945312 C 84.988281 83.890625 84.851562 83.84375 84.679688 83.84375 C 84.496094 83.84375 84.394531 83.886719 84.429688 83.945312 M 71.371094 84.113281 C 71.234375 84.25 71.425781 84.355469 71.832031 84.355469 C 72.082031 84.355469 72.210938 84.316406 72.15625 84.261719 C 72.023438 84.136719 71.457031 84.023438 71.371094 84.113281 M 87.628906 84.355469 C 87.628906 84.410156 87.765625 84.453125 87.9375 84.453125 C 88.117188 84.453125 88.222656 84.414062 88.1875 84.355469 C 88.148438 84.296875 88.011719 84.253906 87.875 84.253906 C 87.738281 84.253906 87.628906 84.296875 87.628906 84.355469 "/>
<path style=" stroke:none;fill-rule:evenodd;fill:rgb(2.745098%,38.431373%,76.862746%);fill-opacity:1;" d="M 73.773438 61.488281 C 72.929688 61.558594 72.15625 61.664062 72.050781 61.71875 C 71.945312 61.773438 71.605469 61.875 71.300781 61.9375 C 65.75 63.109375 60.144531 69.035156 59.675781 74.222656 C 59.589844 75.167969 59.980469 75.769531 60.472656 75.449219 C 60.667969 75.320312 60.789062 75.300781 60.921875 75.375 C 61.039062 75.441406 61.164062 75.441406 61.292969 75.375 C 61.5625 75.226562 61.671875 75.378906 61.746094 76.019531 C 61.792969 76.402344 61.859375 76.5625 61.96875 76.5625 C 62.09375 76.5625 62.128906 76.300781 62.171875 75.035156 C 62.25 72.554688 62.453125 72.335938 64.636719 72.335938 L 66.042969 72.332031 L 66.328125 72.625 C 66.609375 72.90625 66.640625 73.027344 66.765625 74.320312 C 66.828125 74.984375 67.714844 74.960938 68.492188 74.277344 C 68.800781 74.003906 69.195312 73.75 69.359375 73.714844 C 69.8125 73.613281 69.890625 73.449219 69.855469 72.683594 C 69.824219 71.949219 69.683594 71.753906 69.488281 72.1875 C 69.203125 72.816406 68.90625 71.722656 69.164062 70.980469 C 69.222656 70.8125 69.25 70.652344 69.222656 70.625 C 69.132812 70.535156 68.675781 70.902344 68.609375 71.113281 C 68.5 71.460938 68.207031 71.320312 68.171875 70.90625 C 68.152344 70.664062 68.238281 70.367188 68.449219 69.976562 C 68.863281 69.199219 68.625 69.113281 67.808594 69.738281 C 67.191406 70.210938 67.035156 69.898438 67.5 69.109375 C 67.707031 68.757812 67.90625 68.589844 68.464844 68.3125 C 68.851562 68.113281 69.167969 67.910156 69.167969 67.855469 C 69.167969 67.648438 68.664062 67.421875 68.351562 67.484375 C 67.996094 67.554688 67.871094 67.378906 68.042969 67.054688 C 68.382812 66.417969 68.839844 66.367188 69.519531 66.886719 C 70.121094 67.347656 70.203125 67.339844 70.578125 66.75 C 71.144531 65.859375 71.621094 65.871094 71.25 66.765625 C 71.046875 67.246094 71.136719 67.445312 71.539062 67.445312 C 72.101562 67.445312 72.617188 68.027344 72.617188 68.667969 L 72.617188 68.878906 L 72.328125 68.664062 C 71.945312 68.378906 71.25 68.414062 71.25 68.71875 C 71.25 68.855469 71.328125 68.9375 71.476562 68.957031 C 71.964844 69.027344 72.417969 69.609375 72.40625 70.160156 C 72.386719 71.136719 72.121094 71.492188 71.988281 70.71875 C 71.910156 70.25 71.667969 69.890625 71.433594 69.890625 C 71.273438 69.890625 71.261719 70.039062 71.40625 70.3125 C 71.769531 70.996094 71.367188 72.609375 70.78125 72.796875 C 70.558594 72.867188 70.511719 73.339844 70.710938 73.539062 C 70.882812 73.710938 72.980469 73.707031 73.09375 73.53125 C 73.136719 73.460938 73.175781 72.671875 73.175781 71.773438 C 73.175781 70.238281 73.1875 70.125 73.410156 69.789062 C 73.640625 69.445312 73.644531 69.378906 73.597656 67.859375 C 73.546875 66.308594 73.550781 66.277344 73.804688 65.835938 C 74.050781 65.417969 74.058594 65.34375 73.996094 64.441406 C 73.921875 63.328125 74.007812 63.144531 74.578125 63.238281 C 74.929688 63.292969 75.355469 62.9375 75.355469 62.597656 C 75.355469 62.359375 75.535156 62.441406 75.773438 62.785156 C 76.074219 63.21875 76.152344 63.269531 76.546875 63.269531 C 76.925781 63.269531 76.90625 63.195312 76.878906 64.578125 C 76.855469 65.554688 76.871094 65.648438 77.09375 65.878906 C 77.324219 66.128906 77.328125 66.175781 77.296875 67.84375 L 77.265625 69.550781 L 77.816406 70.210938 L 77.777344 74.488281 L 78.257812 74.9375 L 78.730469 75.382812 L 79.03125 75.132812 C 79.453125 74.777344 79.871094 74.800781 80.074219 75.1875 C 80.261719 75.558594 80.398438 75.574219 80.527344 75.234375 C 80.78125 74.570312 81.238281 74.910156 81.238281 75.753906 C 81.238281 77.082031 81.710938 76.609375 81.761719 75.230469 C 81.804688 74.015625 82.347656 72.929688 83 72.761719 C 83.347656 72.671875 83.453125 72.269531 83.320312 71.550781 C 83.222656 71.035156 82.703125 71.265625 82.511719 71.902344 C 82.472656 72.027344 82.402344 72.132812 82.351562 72.132812 C 82.066406 72.132812 82.117188 70.8125 82.421875 70.296875 C 82.878906 69.519531 82.085938 69.832031 81.449219 70.683594 C 81.125 71.117188 81.097656 71.132812 80.964844 70.953125 C 80.523438 70.347656 81.492188 69.167969 82.632812 68.929688 C 83.304688 68.78125 82.804688 67.957031 82.042969 67.957031 C 81.902344 67.957031 81.5625 68.09375 81.296875 68.269531 C 80.699219 68.648438 80.574219 68.5625 80.84375 67.957031 C 81.292969 66.945312 81.925781 66.683594 82.746094 67.160156 C 83.21875 67.433594 83.398438 67.371094 83.671875 66.835938 C 84.042969 66.105469 84.582031 66.011719 84.375 66.71875 C 84.191406 67.339844 84.277344 67.449219 84.878906 67.378906 C 85.363281 67.320312 85.40625 67.335938 85.753906 67.6875 C 86.253906 68.183594 86.199219 68.417969 85.597656 68.382812 C 84.714844 68.328125 84.542969 68.722656 85.355469 68.957031 C 85.84375 69.09375 86.074219 69.324219 86.261719 69.859375 C 86.550781 70.667969 86.285156 70.871094 85.703125 70.285156 C 85.292969 69.871094 85.226562 69.957031 85.507812 70.554688 C 85.757812 71.089844 85.847656 72.332031 85.636719 72.40625 C 85.574219 72.429688 85.339844 72.128906 85.105469 71.738281 C 84.421875 70.578125 84.140625 70.671875 84.019531 72.09375 C 83.980469 72.570312 83.984375 73.152344 84.023438 73.382812 C 84.0625 73.621094 84.128906 74.371094 84.164062 75.054688 C 84.238281 76.449219 84.28125 76.539062 84.902344 76.539062 C 85.46875 76.539062 85.699219 76.265625 85.699219 75.597656 C 85.699219 74.917969 86.316406 73.761719 86.683594 73.761719 C 87.039062 73.761719 87.828125 75.019531 87.828125 75.582031 C 87.828125 76.03125 87.925781 76.207031 88.171875 76.207031 C 88.585938 76.207031 88.640625 76.03125 88.640625 74.726562 C 88.640625 73.355469 88.621094 73.292969 88.273438 73.523438 C 87.925781 73.753906 87.703125 73.554688 87.789062 73.085938 C 87.867188 72.652344 87.628906 72.527344 87.195312 72.777344 C 86.902344 72.941406 86.714844 72.925781 86.714844 72.734375 C 86.714844 72.496094 87.230469 71.839844 87.445312 71.808594 C 87.570312 71.792969 87.679688 71.707031 87.679688 71.621094 C 87.679688 71.40625 87.339844 71.375 87.125 71.570312 C 86.84375 71.824219 86.761719 71.570312 87.015625 71.25 C 87.386719 70.773438 87.589844 70.683594 88.117188 70.753906 C 88.519531 70.808594 88.625 70.789062 88.78125 70.621094 C 88.878906 70.507812 89.089844 70.363281 89.246094 70.300781 C 89.8125 70.066406 90.257812 70.640625 89.707031 70.890625 C 89.332031 71.0625 89.347656 71.582031 89.730469 71.746094 C 90.417969 72.039062 90.59375 72.5 90.058594 72.605469 C 89.753906 72.667969 89.75 72.679688 89.8125 73.113281 C 89.910156 73.757812 89.828125 73.914062 89.511719 73.707031 C 89.105469 73.4375 89.046875 73.582031 89.046875 74.816406 C 89.046875 76.035156 89.105469 76.207031 89.527344 76.207031 C 89.800781 76.207031 89.960938 75.875 89.960938 75.308594 C 89.960938 74.902344 90.328125 74.101562 90.558594 74.011719 C 90.886719 73.886719 91.480469 74.8125 91.480469 75.464844 C 91.484375 75.949219 91.605469 76.15625 91.839844 76.066406 C 92.0625 75.980469 92.003906 74.308594 91.75 73.496094 C 91.664062 73.222656 91.46875 72.609375 91.320312 72.132812 C 89.824219 67.367188 85.125 63.023438 80.3125 61.953125 C 80.054688 61.898438 79.710938 61.796875 79.550781 61.734375 C 79.277344 61.632812 76.121094 61.328125 75.558594 61.351562 C 75.417969 61.355469 74.613281 61.417969 73.773438 61.488281 M 77.058594 84.839844 C 76.746094 85.191406 76.597656 85.640625 76.546875 86.382812 C 76.445312 87.824219 75.152344 88.035156 75.148438 86.613281 C 75.140625 84.523438 73.339844 84.296875 73.242188 86.367188 C 73.195312 87.332031 73.140625 87.40625 72.460938 87.40625 C 71.746094 87.40625 71.601562 87.257812 71.601562 86.511719 C 71.597656 85.1875 70.78125 84.839844 70.617188 86.085938 C 70.480469 87.085938 69.886719 87.554688 69.136719 87.269531 C 68.527344 87.035156 68.394531 87.058594 67.980469 87.460938 C 67.5625 87.867188 67.5 87.882812 67.292969 87.640625 C 66.757812 87.007812 66.785156 87.027344 65.875 86.945312 C 63.46875 86.746094 63.402344 87.039062 65.480469 88.613281 C 66.523438 89.40625 66.679688 89.507812 67.84375 90.136719 C 71.585938 92.164062 76.910156 92.601562 81.082031 91.222656 C 83.46875 90.433594 85.582031 89.195312 87.195312 87.640625 C 88.035156 86.824219 88.136719 86.457031 87.703125 85.8125 C 87.023438 84.816406 86.105469 85.34375 86.105469 86.730469 C 86.105469 87.339844 86.011719 87.472656 85.515625 87.570312 C 84.882812 87.703125 84.71875 87.457031 84.664062 86.339844 C 84.613281 85.152344 84.378906 84.785156 83.746094 84.902344 C 83.179688 85.007812 83.019531 85.277344 82.984375 86.171875 C 82.941406 87.289062 82.90625 87.375 82.519531 87.503906 C 81.796875 87.746094 81.445312 87.429688 81.441406 86.542969 C 81.433594 84.410156 79.910156 84.179688 79.773438 86.289062 C 79.707031 87.300781 79.519531 87.570312 78.964844 87.453125 C 78.425781 87.335938 78.296875 87.144531 78.296875 86.441406 C 78.296875 85.117188 77.597656 84.21875 77.058594 84.839844 "/>
<path style=" stroke:none;fill-rule:evenodd;fill:rgb(54.901963%,44.313726%,25.882354%);fill-opacity:1;" d="M 73.074219 55.429688 C 71.945312 55.652344 71.261719 55.835938 71.039062 55.984375 C 70.90625 56.070312 70.730469 56.140625 70.644531 56.140625 C 70.554688 56.140625 69.902344 56.535156 69.195312 57.023438 C 66.863281 58.609375 64.558594 59.910156 62.363281 60.871094 C 60.882812 61.515625 59.824219 62.1875 58.847656 63.105469 C 57.878906 64.015625 56.804688 65.8125 56.792969 66.554688 C 56.789062 66.679688 56.71875 66.964844 56.636719 67.191406 C 56.554688 67.414062 56.441406 68.101562 56.394531 68.71875 C 56.296875 70.011719 56.125 70.464844 54.855469 72.691406 C 53.203125 75.582031 52.792969 77.128906 53.285156 78.628906 C 53.367188 78.894531 53.503906 79.3125 53.585938 79.566406 C 54.015625 80.90625 54.484375 81.769531 55.378906 82.875 C 56.109375 83.785156 56.894531 84.960938 57.25 85.667969 C 57.609375 86.394531 58.417969 88.488281 58.421875 88.710938 C 58.425781 89.128906 59.652344 91.082031 60.433594 91.925781 C 61.269531 92.816406 63.753906 94.199219 64.875 94.386719 C 65.089844 94.421875 65.527344 94.539062 65.847656 94.652344 C 66.167969 94.757812 66.671875 94.847656 66.960938 94.847656 C 67.257812 94.851562 67.679688 94.917969 67.902344 95 C 68.121094 95.082031 68.609375 95.195312 68.984375 95.253906 C 69.355469 95.308594 69.8125 95.417969 69.996094 95.496094 C 70.183594 95.574219 70.632812 95.761719 70.992188 95.917969 C 71.355469 96.070312 71.929688 96.320312 72.261719 96.476562 C 73.578125 97.078125 74.0625 97.289062 74.15625 97.289062 C 74.210938 97.289062 74.445312 97.375 74.679688 97.484375 C 75.75 97.972656 78.980469 97.972656 80.054688 97.484375 C 80.285156 97.378906 80.570312 97.292969 80.683594 97.289062 C 81.003906 97.285156 82.519531 96.464844 83.570312 95.722656 C 86.167969 93.886719 86.269531 93.828125 87.628906 93.355469 C 89.308594 92.765625 89.488281 92.695312 90.347656 92.273438 C 93.273438 90.839844 94.820312 88.648438 95.28125 85.273438 C 95.699219 82.183594 96.171875 80.613281 97.523438 77.785156 C 97.773438 77.261719 98.175781 75.496094 98.171875 74.945312 C 98.164062 73.90625 97.746094 72.519531 97.042969 71.164062 C 96.757812 70.621094 95.574219 68.996094 94.820312 68.109375 C 94.15625 67.332031 93.425781 66.167969 92.90625 65.054688 C 92.085938 63.300781 91.921875 62.976562 91.511719 62.34375 C 90.589844 60.914062 89.058594 59.597656 87.730469 59.085938 C 87.476562 58.988281 87.136719 58.835938 86.964844 58.746094 C 86.800781 58.660156 86.558594 58.585938 86.429688 58.585938 C 86.296875 58.585938 86.105469 58.539062 86 58.480469 C 85.6875 58.316406 84.75 58.164062 83.417969 58.074219 C 81.335938 57.933594 79.996094 57.5625 77.789062 56.519531 C 76.675781 56 76.039062 55.734375 75.871094 55.734375 C 75.777344 55.734375 75.453125 55.671875 75.148438 55.59375 C 74.386719 55.402344 73.558594 55.332031 73.074219 55.429688 M 74.902344 56.132812 C 75.476562 56.214844 76.207031 56.488281 78.726562 57.558594 C 80.421875 58.28125 81.320312 58.503906 82.914062 58.585938 C 83.691406 58.628906 84.457031 58.714844 84.609375 58.773438 C 84.769531 58.835938 85.199219 58.9375 85.574219 59 C 86.988281 59.222656 89.226562 60.453125 90.109375 61.492188 C 90.621094 62.09375 91.582031 63.464844 91.582031 63.597656 C 91.582031 64.144531 93.667969 67.734375 94.625 68.832031 C 96.113281 70.539062 97.164062 72.433594 97.375 73.78125 C 97.640625 75.492188 97.4375 76.503906 96.328125 79.058594 C 95.503906 80.964844 94.933594 82.820312 94.925781 83.660156 C 94.921875 83.84375 94.859375 84.316406 94.785156 84.710938 C 94.710938 85.101562 94.574219 85.808594 94.484375 86.285156 C 93.925781 89.230469 91.726562 91.355469 87.871094 92.652344 C 86.007812 93.28125 85.691406 93.453125 83.378906 95.128906 C 81.308594 96.636719 79.4375 97.289062 77.203125 97.289062 C 75.761719 97.289062 75.058594 97.082031 72.210938 95.8125 C 71.234375 95.378906 70.132812 94.941406 69.761719 94.84375 C 69.390625 94.746094 69.050781 94.644531 69 94.609375 C 68.949219 94.578125 68.523438 94.5 68.050781 94.4375 C 62.941406 93.757812 59.816406 91.554688 58.785156 87.917969 C 58.328125 86.28125 57.34375 84.429688 56.09375 82.824219 C 53.304688 79.261719 53.082031 76.207031 55.363281 72.960938 C 56.125 71.882812 56.78125 70.332031 56.945312 69.226562 C 57.332031 66.691406 57.386719 66.453125 57.75 65.667969 C 58.59375 63.828125 60.1875 62.480469 62.929688 61.277344 C 64.804688 60.453125 67.382812 59.003906 69.09375 57.804688 C 71.324219 56.246094 72.789062 55.824219 74.902344 56.132812 M 73.683594 60.835938 C 73.457031 60.882812 72.839844 60.992188 72.3125 61.078125 C 71.785156 61.164062 71.1875 61.300781 70.992188 61.375 C 70.800781 61.445312 70.25 61.632812 69.777344 61.789062 C 59.578125 65.148438 55.5625 77.546875 61.949219 85.945312 C 64.4375 89.207031 68.902344 91.933594 72.464844 92.351562 C 72.796875 92.390625 73.367188 92.484375 73.730469 92.5625 C 74.589844 92.742188 76.929688 92.742188 77.792969 92.5625 C 78.152344 92.484375 78.722656 92.390625 79.058594 92.351562 C 82.644531 91.9375 87.496094 88.914062 89.773438 85.675781 C 92.066406 82.417969 93.195312 77.941406 92.554688 74.648438 C 92.476562 74.246094 92.386719 73.726562 92.355469 73.488281 C 91.691406 68.792969 86.886719 63.492188 81.746094 61.792969 C 81.273438 61.640625 80.730469 61.449219 80.542969 61.371094 C 80.363281 61.296875 79.882812 61.183594 79.484375 61.128906 C 79.082031 61.070312 78.425781 60.957031 78.019531 60.875 C 77.222656 60.710938 74.390625 60.683594 73.683594 60.835938 M 77.535156 61.480469 C 78.484375 61.558594 79.390625 61.675781 79.550781 61.734375 C 79.710938 61.796875 80.054688 61.898438 80.3125 61.953125 C 85.125 63.023438 89.824219 67.367188 91.320312 72.132812 C 91.46875 72.609375 91.664062 73.222656 91.75 73.496094 C 92.003906 74.308594 92.0625 75.980469 91.839844 76.066406 C 91.609375 76.15625 91.484375 75.949219 91.480469 75.476562 C 91.480469 74.9375 91.359375 74.640625 91.277344 74.984375 C 91.226562 75.210938 91.167969 75.238281 90.71875 75.238281 C 90.289062 75.238281 90.203125 75.203125 90.089844 74.984375 C 89.972656 74.742188 89.964844 74.757812 89.960938 75.203125 C 89.960938 75.886719 89.816406 76.207031 89.519531 76.207031 C 89.113281 76.207031 89.054688 76.015625 89.023438 74.566406 C 89 73.433594 88.972656 73.203125 88.84375 73.203125 C 88.714844 73.203125 88.683594 73.433594 88.660156 74.566406 C 88.632812 76.003906 88.574219 76.207031 88.179688 76.207031 C 87.925781 76.207031 87.832031 76.035156 87.828125 75.5625 C 87.828125 75.144531 87.667969 74.859375 87.574219 75.105469 C 87.539062 75.195312 87.402344 75.300781 87.269531 75.332031 C 87.058594 75.386719 87.027344 75.457031 86.996094 75.980469 C 86.949219 76.863281 86.460938 76.886719 86.460938 76.003906 C 86.460938 75.496094 86.4375 75.433594 86.179688 75.3125 C 86.007812 75.226562 85.902344 75.089844 85.898438 74.953125 C 85.882812 74.519531 85.714844 75.09375 85.707031 75.597656 C 85.699219 76.09375 85.503906 76.472656 85.214844 76.542969 C 85.117188 76.566406 85.152344 76.574219 85.296875 76.558594 C 85.824219 76.5 86.554688 77.144531 87.058594 78.117188 C 87.367188 78.71875 87.429688 78.703125 84.957031 78.648438 L 82.691406 78.597656 L 81.917969 77.886719 C 81.324219 77.335938 81.144531 77.109375 81.140625 76.890625 C 81.132812 76.570312 80.972656 76.59375 83.367188 76.597656 C 84.175781 76.597656 84.75 76.574219 84.632812 76.546875 C 84.253906 76.445312 84.179688 76.210938 84.179688 75.132812 C 84.179688 73.425781 83.902344 72.734375 83.226562 72.753906 C 82.851562 72.765625 82.839844 72.773438 83.109375 72.832031 C 83.625 72.941406 84.195312 73.933594 83.90625 74.222656 C 83.546875 74.585938 81.972656 74.378906 82.074219 73.972656 C 82.160156 73.644531 82.054688 73.722656 81.890625 74.113281 C 81.800781 74.332031 81.746094 74.8125 81.746094 75.367188 C 81.746094 76.257812 81.660156 76.511719 81.371094 76.511719 C 81.277344 76.511719 81.238281 76.34375 81.238281 75.960938 C 81.238281 75.113281 80.882812 74.847656 80.453125 75.367188 C 80.246094 75.617188 80.214844 75.628906 80.121094 75.472656 C 79.777344 74.90625 79.375 74.851562 79.109375 75.335938 C 78.882812 75.746094 78.714844 75.769531 78.585938 75.402344 C 78.519531 75.199219 78.390625 75.0625 78.234375 75.023438 C 77.832031 74.921875 77.789062 74.683594 77.789062 72.621094 C 77.785156 70.578125 77.757812 70.402344 77.445312 70.433594 C 77.195312 70.457031 76.972656 70.125 77.164062 70.003906 C 77.40625 69.851562 77.328125 66.375 77.078125 65.964844 C 76.910156 65.699219 76.875 65.457031 76.875 64.621094 C 76.875 63.386719 76.824219 63.316406 76.015625 63.417969 C 75.613281 63.46875 75.457031 63.453125 75.457031 63.367188 C 75.457031 63.292969 75.554688 63.265625 75.703125 63.292969 C 75.945312 63.339844 75.949219 63.332031 75.820312 63.027344 C 75.644531 62.589844 75.375 62.558594 75.222656 62.960938 C 75.144531 63.171875 75.019531 63.296875 74.851562 63.328125 C 74.042969 63.488281 74.085938 63.414062 74.0625 64.648438 C 74.042969 65.664062 74.023438 65.78125 73.820312 65.949219 C 73.605469 66.125 73.601562 66.1875 73.621094 67.894531 C 73.644531 69.636719 73.644531 69.660156 73.394531 69.953125 C 73.148438 70.246094 73.144531 70.289062 73.191406 71.523438 C 73.21875 72.222656 73.203125 72.980469 73.152344 73.203125 L 73.066406 73.609375 L 72.003906 73.667969 L 70.941406 73.722656 L 72.019531 73.742188 C 73.308594 73.765625 73.296875 73.753906 73.359375 74.863281 C 73.402344 75.640625 73.238281 76.066406 73.144531 75.421875 C 73.101562 75.128906 72.746094 75.085938 70.207031 75.085938 C 69.023438 75.085938 68.050781 75.050781 68.050781 75.007812 C 68.050781 74.964844 68.128906 74.816406 68.222656 74.671875 C 68.371094 74.460938 68.375 74.445312 68.234375 74.554688 C 68.144531 74.625 68.019531 74.820312 67.949219 74.988281 C 67.808594 75.332031 67.585938 75.382812 67.496094 75.09375 C 67.460938 74.984375 67.277344 74.804688 67.082031 74.6875 C 66.757812 74.492188 66.734375 74.449219 66.734375 73.945312 C 66.734375 73.429688 66.726562 73.417969 66.578125 73.636719 C 66.402344 73.886719 62.570312 74 62.425781 73.761719 C 62.230469 73.445312 62.171875 73.792969 62.171875 75.195312 C 62.171875 76.601562 62.15625 76.726562 61.992188 76.695312 C 61.871094 76.671875 61.796875 76.535156 61.757812 76.253906 C 61.691406 75.742188 61.582031 75.566406 61.382812 75.640625 C 61.296875 75.675781 61.125 75.605469 60.992188 75.480469 C 60.773438 75.269531 60.746094 75.269531 60.503906 75.429688 C 59.320312 76.207031 59.464844 73.414062 60.753906 70.652344 C 62.71875 66.421875 67.070312 62.828125 71.300781 61.9375 C 71.605469 61.875 71.945312 61.773438 72.050781 61.71875 C 72.203125 61.636719 74.5 61.394531 75.558594 61.351562 C 75.695312 61.34375 76.589844 61.402344 77.535156 61.480469 M 75.703125 64.726562 C 75.777344 64.851562 75.777344 64.953125 75.699219 65.078125 C 75.539062 65.328125 75.3125 65.296875 75.269531 65.019531 C 75.199219 64.515625 75.460938 64.34375 75.703125 64.726562 M 74.777344 66.273438 C 74.890625 66.273438 75.003906 66.339844 75.03125 66.417969 C 75.066406 66.527344 75.015625 66.546875 74.835938 66.492188 C 74.699219 66.457031 74.496094 66.429688 74.378906 66.429688 C 74.15625 66.425781 74.03125 66.1875 74.117188 65.925781 C 74.15625 65.8125 74.21875 65.839844 74.367188 66.027344 C 74.476562 66.164062 74.660156 66.273438 74.777344 66.273438 M 76.875 66.335938 C 76.875 66.457031 76.804688 66.53125 76.679688 66.53125 C 76.421875 66.53125 76.320312 66.355469 76.472656 66.175781 C 76.625 65.992188 76.875 66.089844 76.875 66.335938 M 76.011719 66.320312 C 76.085938 66.4375 75.894531 66.5625 75.757812 66.476562 C 75.644531 66.40625 75.71875 66.222656 75.859375 66.222656 C 75.914062 66.222656 75.980469 66.265625 76.011719 66.320312 M 76.496094 68.164062 C 76.582031 68.675781 76.460938 68.882812 76.1875 68.703125 C 76.023438 68.59375 75.988281 68.128906 76.117188 67.769531 C 76.210938 67.503906 76.417969 67.722656 76.496094 68.164062 M 74.929688 68.289062 C 74.957031 68.71875 74.9375 68.769531 74.75 68.769531 C 74.484375 68.769531 74.292969 68.371094 74.382812 68.007812 C 74.507812 67.507812 74.894531 67.703125 74.929688 68.289062 M 69.976562 71.0625 C 69.921875 71.210938 69.878906 71.800781 69.878906 72.375 C 69.878906 73.046875 69.835938 73.457031 69.757812 73.539062 C 69.664062 73.632812 69.769531 73.660156 70.234375 73.660156 C 70.699219 73.660156 70.804688 73.632812 70.710938 73.539062 C 70.636719 73.457031 70.582031 73.039062 70.578125 72.394531 C 70.5625 70.941406 70.273438 70.289062 69.976562 71.0625 M 74.898438 72.132812 C 75.03125 72.34375 74.832031 73.164062 74.65625 73.128906 C 74.488281 73.097656 74.371094 72.464844 74.480469 72.171875 C 74.546875 72.007812 74.808594 71.984375 74.898438 72.132812 M 76.855469 72.414062 C 76.832031 72.648438 76.777344 72.691406 76.523438 72.691406 C 76.265625 72.691406 76.210938 72.648438 76.183594 72.414062 C 76.15625 72.152344 76.179688 72.132812 76.523438 72.132812 C 76.863281 72.132812 76.886719 72.152344 76.855469 72.414062 M 64.019531 72.414062 C 64.398438 72.433594 65.015625 72.433594 65.390625 72.414062 C 65.765625 72.394531 65.460938 72.378906 64.703125 72.378906 C 63.953125 72.378906 63.644531 72.394531 64.019531 72.414062 M 63.988281 74.519531 C 64.273438 74.863281 63.9375 75.507812 63.550781 75.359375 C 63.386719 75.296875 63.308594 74.585938 63.453125 74.441406 C 63.570312 74.324219 63.863281 74.367188 63.988281 74.519531 M 65.859375 74.535156 C 65.933594 74.722656 65.589844 75.34375 65.375 75.425781 C 65.203125 75.488281 65.011719 75.308594 65.011719 75.078125 C 65.011719 74.613281 65.71875 74.164062 65.859375 74.535156 M 83.28125 75.128906 C 83.429688 75.457031 83.3125 75.902344 83.082031 75.902344 C 82.703125 75.902344 82.542969 75.488281 82.761719 75.078125 C 82.902344 74.808594 83.144531 74.832031 83.28125 75.128906 M 69.722656 75.859375 C 69.953125 76.09375 69.875 76.351562 69.566406 76.386719 C 69.214844 76.429688 69.015625 76.1875 69.164062 75.910156 C 69.296875 75.652344 69.503906 75.636719 69.722656 75.859375 M 71.539062 75.933594 C 71.632812 76.082031 71.609375 76.152344 71.414062 76.3125 C 71.140625 76.539062 70.792969 76.429688 70.792969 76.121094 C 70.792969 75.699219 71.320312 75.566406 71.539062 75.933594 M 91.378906 76.179688 C 92.058594 76.410156 92.089844 76.457031 92.089844 77.230469 C 92.089844 78.429688 92.027344 78.492188 90.777344 78.585938 L 90.128906 78.632812 L 89.179688 77.671875 C 87.933594 76.402344 87.953125 76.207031 89.304688 76.234375 C 89.796875 76.246094 90.101562 76.199219 90.3125 76.078125 C 90.480469 75.984375 90.6875 75.933594 90.769531 75.96875 C 90.855469 76 91.128906 76.09375 91.378906 76.179688 M 77.089844 76.644531 C 77.503906 76.925781 77.632812 77.28125 77.265625 77.132812 C 77.136719 77.078125 76.855469 77.003906 76.648438 76.96875 C 76.261719 76.90625 76.167969 76.753906 76.386719 76.53125 C 76.566406 76.355469 76.699219 76.375 77.089844 76.644531 M 62.371094 77.175781 C 62.371094 77.3125 62.324219 77.425781 62.269531 77.425781 C 62.15625 77.425781 62.132812 77.09375 62.238281 76.984375 C 62.347656 76.875 62.371094 76.90625 62.371094 77.175781 M 65.78125 77.183594 C 65.855469 77.480469 65.703125 77.6875 65.472656 77.59375 C 65.285156 77.523438 65.261719 77.214844 65.4375 77.039062 C 65.621094 76.855469 65.710938 76.890625 65.78125 77.183594 M 67.421875 77.367188 C 67.40625 77.5 67.320312 77.578125 67.195312 77.578125 C 66.953125 77.578125 66.867188 77.277344 67.042969 77.066406 C 67.210938 76.867188 67.464844 77.074219 67.421875 77.367188 M 75.898438 77.296875 C 75.792969 77.546875 75.757812 77.828125 75.796875 78.109375 C 75.867188 78.640625 75.800781 78.667969 75.601562 78.191406 C 75.414062 77.738281 75.417969 77.648438 75.65625 77.25 C 75.933594 76.796875 76.089844 76.832031 75.898438 77.296875 M 69.25 77.25 C 69.273438 77.367188 69.21875 77.425781 69.089844 77.425781 C 68.839844 77.425781 68.761719 77.34375 68.832031 77.160156 C 68.910156 76.960938 69.207031 77.027344 69.25 77.25 M 60.847656 77.417969 C 60.984375 77.679688 60.878906 77.9375 60.636719 77.9375 C 60.53125 77.9375 60.445312 77.917969 60.445312 77.894531 C 60.445312 77.871094 60.421875 77.785156 60.390625 77.707031 C 60.359375 77.621094 60.40625 77.480469 60.496094 77.390625 C 60.707031 77.183594 60.722656 77.183594 60.847656 77.417969 M 77.890625 77.792969 C 77.890625 77.921875 77.84375 78.054688 77.789062 78.089844 C 77.734375 78.125 77.6875 78.070312 77.6875 77.96875 C 77.6875 77.867188 77.65625 77.671875 77.617188 77.527344 C 77.554688 77.300781 77.566406 77.289062 77.722656 77.414062 C 77.816406 77.492188 77.890625 77.664062 77.890625 77.792969 M 88.320312 77.414062 C 88.558594 77.566406 88.421875 77.988281 88.132812 77.988281 C 87.945312 77.988281 87.871094 77.925781 87.847656 77.746094 C 87.816406 77.535156 87.960938 77.328125 88.132812 77.328125 C 88.160156 77.328125 88.246094 77.367188 88.320312 77.414062 M 70.589844 78.652344 C 70.765625 78.984375 70.707031 79.550781 70.46875 79.785156 L 70.25 80.007812 L 70.066406 79.773438 C 69.835938 79.496094 69.820312 78.878906 70.035156 78.574219 C 70.207031 78.332031 70.433594 78.363281 70.589844 78.652344 M 62.578125 79.011719 C 62.578125 79.304688 62.414062 79.421875 62.214844 79.257812 C 62.039062 79.109375 62.027344 78.839844 62.1875 78.671875 C 62.351562 78.507812 62.578125 78.703125 62.578125 79.011719 M 64.097656 78.894531 C 64.097656 79.203125 63.875 79.40625 63.710938 79.238281 C 63.582031 79.105469 63.550781 78.828125 63.660156 78.714844 C 63.824219 78.550781 64.097656 78.65625 64.097656 78.894531 M 65.804688 78.945312 C 65.84375 79.226562 65.632812 79.402344 65.445312 79.242188 C 65.300781 79.125 65.269531 78.832031 65.386719 78.714844 C 65.527344 78.574219 65.769531 78.707031 65.804688 78.945312 M 67.394531 78.957031 C 67.394531 79.246094 67.070312 79.367188 66.976562 79.117188 C 66.882812 78.875 67.011719 78.628906 67.21875 78.667969 C 67.328125 78.691406 67.394531 78.792969 67.394531 78.957031 M 60.847656 79.003906 C 61.03125 79.226562 60.878906 79.585938 60.613281 79.546875 C 60.363281 79.511719 60.273438 79.214844 60.449219 79.003906 C 60.601562 78.816406 60.695312 78.816406 60.847656 79.003906 M 81.578125 79.488281 C 81.664062 79.625 81.648438 79.703125 81.515625 79.839844 C 81.28125 80.078125 80.972656 79.816406 81.082031 79.472656 C 81.164062 79.214844 81.414062 79.226562 81.578125 79.488281 M 84.566406 79.695312 C 84.617188 79.875 84.695312 80.101562 84.730469 80.191406 C 84.828125 80.425781 84.121094 80.53125 83.808594 80.328125 C 83.59375 80.1875 83.589844 80.171875 83.746094 79.773438 C 83.960938 79.21875 84.417969 79.175781 84.566406 79.695312 M 86.1875 79.488281 C 86.546875 79.847656 86.089844 80.589844 85.601562 80.433594 C 85.359375 80.355469 85.34375 80.195312 85.542969 79.714844 C 85.695312 79.347656 85.957031 79.253906 86.1875 79.488281 M 72.109375 79.605469 C 72.109375 79.785156 71.804688 79.910156 71.675781 79.78125 C 71.621094 79.730469 71.609375 79.636719 71.644531 79.578125 C 71.746094 79.417969 72.109375 79.441406 72.109375 79.605469 M 77.949219 79.730469 C 78.136719 79.777344 78.191406 79.859375 78.191406 80.089844 C 78.191406 80.425781 78.015625 80.46875 77.628906 80.214844 C 77.394531 80.0625 77.363281 80.0625 77.171875 80.238281 C 76.929688 80.457031 76.34375 80.445312 75.992188 80.222656 C 75.703125 80.035156 75.566406 80.039062 75.34375 80.242188 C 75.101562 80.457031 74.847656 80.351562 74.847656 80.03125 C 74.847656 79.738281 75 79.710938 76.484375 79.765625 C 76.992188 79.78125 77.28125 79.75 77.332031 79.671875 C 77.371094 79.605469 77.472656 79.578125 77.554688 79.613281 C 77.640625 79.644531 77.816406 79.695312 77.949219 79.730469 M 79.105469 79.78125 C 79.105469 79.832031 79.015625 79.871094 78.90625 79.871094 C 78.707031 79.871094 78.640625 79.761719 78.761719 79.640625 C 78.84375 79.5625 79.105469 79.667969 79.105469 79.78125 M 62.578125 80.335938 C 62.578125 80.648438 62.390625 80.75 62.191406 80.546875 C 61.96875 80.324219 62.191406 79.777344 62.429688 79.972656 C 62.511719 80.046875 62.578125 80.207031 62.578125 80.335938 M 64.074219 80.097656 C 64.25 80.269531 64.230469 80.582031 64.039062 80.65625 C 63.808594 80.742188 63.554688 80.449219 63.640625 80.191406 C 63.714844 79.949219 63.894531 79.910156 64.074219 80.097656 M 90.113281 80.464844 C 90.113281 80.652344 89.910156 80.617188 89.871094 80.425781 C 89.851562 80.320312 89.886719 80.273438 89.976562 80.300781 C 90.050781 80.328125 90.113281 80.398438 90.113281 80.464844 M 72.667969 81.507812 C 72.738281 81.730469 72.570312 82.011719 72.359375 82.011719 C 72.15625 82.011719 71.988281 81.730469 72.058594 81.507812 C 72.097656 81.375 72.210938 81.300781 72.359375 81.300781 C 72.515625 81.300781 72.628906 81.375 72.667969 81.507812 M 73.988281 81.507812 C 74.066406 81.757812 73.875 82.019531 73.675781 81.945312 C 73.523438 81.886719 73.472656 81.488281 73.597656 81.367188 C 73.730469 81.234375 73.921875 81.300781 73.988281 81.507812 M 80.871094 81.660156 C 80.972656 81.933594 80.941406 82.1875 80.792969 82.246094 C 80.492188 82.363281 80.300781 81.871094 80.546875 81.621094 C 80.710938 81.460938 80.796875 81.46875 80.871094 81.660156 M 79.566406 81.960938 C 79.566406 82.214844 79.527344 82.265625 79.308594 82.265625 C 79.050781 82.265625 78.9375 82.039062 79.046875 81.746094 C 79.160156 81.449219 79.566406 81.617188 79.566406 81.960938 M 89.398438 82.300781 C 89.488281 82.59375 89.351562 82.839844 89.121094 82.804688 C 88.824219 82.761719 88.667969 82.476562 88.839844 82.273438 C 89.019531 82.054688 89.320312 82.070312 89.398438 82.300781 M 90.75 82.433594 C 90.769531 82.59375 90.722656 82.71875 90.632812 82.753906 C 90.421875 82.835938 90.234375 82.574219 90.3125 82.3125 C 90.40625 82.019531 90.714844 82.097656 90.75 82.433594 M 83.316406 82.824219 C 83.316406 83.117188 83.273438 83.1875 83.09375 83.214844 C 82.8125 83.253906 82.660156 82.8125 82.863281 82.566406 C 83.085938 82.296875 83.316406 82.433594 83.316406 82.824219 M 84.910156 82.675781 C 85.058594 83.007812 84.828125 83.292969 84.492188 83.1875 C 84.285156 83.121094 84.1875 82.648438 84.347656 82.488281 C 84.5 82.335938 84.800781 82.4375 84.910156 82.675781 M 75.945312 82.917969 C 75.910156 83.210938 75.585938 83.339844 75.445312 83.117188 C 75.324219 82.925781 75.335938 82.859375 75.511719 82.683594 C 75.730469 82.460938 75.980469 82.59375 75.945312 82.917969 M 77.277344 82.667969 C 77.34375 82.746094 77.382812 82.921875 77.367188 83.050781 C 77.320312 83.371094 76.9375 83.371094 76.894531 83.046875 C 76.828125 82.582031 77.035156 82.378906 77.277344 82.667969 M 89.382812 83.550781 C 89.535156 83.792969 89.394531 84.046875 89.109375 84.046875 C 88.820312 84.046875 88.699219 83.808594 88.851562 83.527344 C 88.972656 83.292969 89.226562 83.304688 89.382812 83.550781 M 82.191406 83.703125 C 82.5 83.820312 82.351562 83.945312 81.898438 83.945312 C 81.644531 83.945312 81.441406 83.902344 81.441406 83.851562 C 81.441406 83.675781 81.890625 83.585938 82.191406 83.703125 M 87.019531 83.890625 C 87.019531 84.09375 86.945312 84.160156 86.636719 84.246094 C 86.152344 84.382812 85.769531 84.382812 85.855469 84.253906 C 85.886719 84.195312 86.023438 84.152344 86.152344 84.152344 C 86.289062 84.152344 86.457031 84.042969 86.554688 83.894531 C 86.765625 83.566406 87.019531 83.5625 87.019531 83.890625 M 75.722656 83.863281 C 75.789062 83.972656 75.359375 83.953125 75.101562 83.839844 C 74.945312 83.773438 74.984375 83.753906 75.285156 83.769531 C 75.5 83.777344 75.695312 83.820312 75.722656 83.863281 M 73.277344 83.945312 C 73.242188 84 73.125 84.046875 73.019531 84.046875 C 72.90625 84.046875 72.816406 84 72.816406 83.945312 C 72.816406 83.890625 72.933594 83.84375 73.078125 83.84375 C 73.226562 83.84375 73.3125 83.886719 73.277344 83.945312 M 84.988281 83.945312 C 84.988281 84 84.878906 84.046875 84.742188 84.046875 C 84.605469 84.046875 84.464844 84 84.429688 83.945312 C 84.394531 83.886719 84.496094 83.84375 84.679688 83.84375 C 84.851562 83.84375 84.988281 83.890625 84.988281 83.945312 M 72.15625 84.261719 C 72.210938 84.316406 72.082031 84.355469 71.832031 84.355469 C 71.425781 84.355469 71.234375 84.25 71.371094 84.113281 C 71.457031 84.023438 72.023438 84.136719 72.15625 84.261719 M 88.1875 84.355469 C 88.222656 84.414062 88.117188 84.453125 87.9375 84.453125 C 87.765625 84.453125 87.628906 84.410156 87.628906 84.355469 C 87.628906 84.296875 87.738281 84.253906 87.875 84.253906 C 88.011719 84.253906 88.148438 84.296875 88.1875 84.355469 M 77.941406 84.867188 C 78.203125 85.140625 78.246094 85.265625 78.300781 86.0625 C 78.378906 87.152344 78.425781 87.265625 78.867188 87.414062 C 79.265625 87.542969 79.710938 87.34375 79.722656 87.027344 C 79.773438 85.4375 79.863281 85.089844 80.273438 84.894531 C 80.996094 84.542969 81.402344 85.015625 81.503906 86.316406 C 81.582031 87.367188 81.683594 87.550781 82.1875 87.550781 C 82.777344 87.550781 82.894531 87.351562 82.960938 86.226562 C 83.082031 84.03125 84.789062 84.277344 84.789062 86.492188 C 84.789062 87.539062 85.28125 87.941406 85.859375 87.363281 C 86.070312 87.148438 86.105469 87.019531 86.105469 86.441406 C 86.105469 85.214844 87.007812 84.808594 87.707031 85.714844 C 88.882812 87.253906 84.476562 90.429688 79.414062 91.703125 C 77.976562 92.058594 73.554688 92.0625 72.160156 91.710938 C 69.855469 91.117188 68.769531 90.6875 66.851562 89.589844 C 65.625 88.894531 63.78125 87.28125 63.976562 87.082031 C 64.375 86.683594 66.628906 86.886719 67.105469 87.367188 C 67.523438 87.789062 67.667969 87.800781 67.933594 87.433594 C 68.148438 87.140625 68.742188 87.070312 69.535156 87.253906 C 69.945312 87.347656 70.53125 86.710938 70.617188 86.078125 C 70.773438 84.925781 71.597656 85.148438 71.707031 86.375 C 71.792969 87.261719 71.902344 87.40625 72.472656 87.40625 C 73.082031 87.40625 73.226562 87.175781 73.226562 86.207031 C 73.226562 85.515625 73.246094 85.4375 73.519531 85.160156 C 74.324219 84.355469 75.144531 85.140625 75.148438 86.714844 C 75.152344 87.4375 75.738281 87.757812 76.269531 87.324219 C 76.46875 87.164062 76.507812 87.007812 76.5625 86.144531 C 76.652344 84.71875 77.265625 84.15625 77.941406 84.867188 "/>
<path style=" stroke:none;fill-rule:evenodd;fill:rgb(70.980394%,1.568628%,15.686275%);fill-opacity:1;" d="M 72.359375 56.332031 C 71.546875 56.546875 70.558594 57.011719 69.777344 57.558594 C 68.875 58.1875 65.394531 60.316406 65.269531 60.316406 C 65.230469 60.316406 64.890625 60.496094 64.515625 60.71875 C 64.136719 60.9375 63.699219 61.152344 63.53125 61.191406 C 63.039062 61.316406 60.753906 62.53125 60.175781 62.976562 C 58.433594 64.332031 57.535156 65.914062 57.304688 68.058594 C 57.074219 70.167969 56.933594 70.566406 55.605469 72.871094 C 55.191406 73.589844 54.667969 74.574219 54.4375 75.0625 L 54.015625 75.953125 L 54.015625 78.699219 L 54.445312 79.761719 C 54.96875 81.058594 55.113281 81.308594 56.035156 82.46875 C 57.421875 84.222656 58.628906 86.441406 58.929688 87.789062 C 59.582031 90.707031 62.652344 93.324219 66.074219 93.882812 C 66.296875 93.917969 66.664062 94.003906 66.886719 94.078125 C 67.113281 94.152344 67.609375 94.238281 68 94.277344 C 68.394531 94.316406 68.976562 94.433594 69.292969 94.542969 C 69.617188 94.65625 69.960938 94.742188 70.066406 94.742188 C 70.167969 94.742188 70.816406 94.996094 71.507812 95.3125 C 76.171875 97.421875 77.175781 97.5625 80.425781 96.550781 C 81.546875 96.199219 81.796875 96.058594 84.410156 94.207031 C 85.488281 93.441406 86.859375 92.703125 87.203125 92.703125 C 87.296875 92.703125 87.542969 92.613281 87.753906 92.5 C 87.960938 92.390625 88.210938 92.300781 88.300781 92.300781 C 89.160156 92.300781 92.082031 90.441406 92.875 89.398438 C 93.472656 88.597656 94.195312 87.117188 94.269531 86.511719 C 94.304688 86.246094 94.417969 85.664062 94.527344 85.214844 C 94.640625 84.765625 94.726562 84.140625 94.726562 83.824219 C 94.726562 83.515625 94.8125 82.964844 94.917969 82.609375 C 95.023438 82.25 95.140625 81.785156 95.175781 81.566406 C 95.21875 81.351562 95.3125 81.03125 95.386719 80.855469 C 95.679688 80.175781 96.738281 77.660156 96.933594 77.175781 C 97.9375 74.671875 97.050781 71.785156 94.34375 68.730469 C 93.414062 67.6875 92.941406 66.886719 91.636719 64.1875 C 90.265625 61.339844 87.945312 59.433594 85.480469 59.140625 C 85.179688 59.105469 84.757812 59.015625 84.53125 58.941406 C 84.3125 58.863281 83.511719 58.777344 82.757812 58.746094 C 81.761719 58.707031 81.234375 58.636719 80.808594 58.488281 C 80.488281 58.375 80.171875 58.277344 80.101562 58.277344 C 79.957031 58.277344 79.082031 57.925781 77.6875 57.3125 C 75.558594 56.371094 75.414062 56.328125 73.984375 56.289062 C 73.261719 56.269531 72.53125 56.289062 72.359375 56.332031 M 78.957031 60.859375 C 79.90625 61.046875 80.929688 61.332031 81.796875 61.644531 C 82.074219 61.746094 82.410156 61.859375 82.539062 61.898438 C 83.25 62.101562 84.964844 63.089844 86.5 64.167969 C 89.15625 66.039062 91.824219 70.066406 92.410156 73.101562 C 92.464844 73.378906 92.578125 73.929688 92.660156 74.320312 C 93.078125 76.257812 92.875 79.226562 92.183594 81.199219 C 90.476562 86.082031 87.140625 89.683594 82.707031 91.421875 C 82.316406 91.574219 81.855469 91.769531 81.675781 91.847656 C 81.503906 91.925781 81.261719 91.992188 81.136719 91.992188 C 81.019531 91.992188 80.707031 92.078125 80.445312 92.1875 C 80.183594 92.296875 79.71875 92.414062 79.414062 92.445312 C 79.105469 92.480469 78.53125 92.578125 78.132812 92.664062 C 76.671875 92.984375 72.335938 92.710938 71.207031 92.226562 C 71.015625 92.148438 70.675781 92.042969 70.445312 91.992188 C 69.140625 91.71875 67.125 90.710938 65.3125 89.4375 C 62.367188 87.359375 59.863281 83.761719 59.183594 80.636719 C 59.113281 80.300781 58.976562 79.730469 58.875 79.371094 C 58.632812 78.464844 58.6875 74.332031 58.953125 73.730469 C 59.046875 73.515625 59.152344 73.105469 59.191406 72.8125 C 59.226562 72.523438 59.34375 72.125 59.445312 71.929688 C 59.550781 71.734375 59.636719 71.480469 59.636719 71.367188 C 59.636719 71.253906 59.699219 71.066406 59.773438 70.957031 C 59.847656 70.847656 59.945312 70.644531 59.988281 70.5 C 60.53125 68.699219 63.164062 65.503906 65.480469 63.832031 C 67.242188 62.558594 70.410156 61.1875 72.074219 60.976562 C 72.367188 60.941406 72.820312 60.851562 73.089844 60.777344 C 73.84375 60.5625 77.765625 60.617188 78.957031 60.859375 M 63.210938 72.847656 C 62.980469 72.9375 62.730469 73.398438 62.824219 73.554688 C 62.964844 73.78125 66.175781 73.605469 66.210938 73.363281 C 66.289062 72.804688 64.207031 72.445312 63.210938 72.847656 M 82.65625 73.609375 C 82.378906 74.0625 82.457031 74.171875 83.070312 74.171875 C 83.65625 74.171875 83.765625 73.878906 83.335938 73.472656 C 83.019531 73.171875 82.914062 73.195312 82.65625 73.609375 M 69.5 74.050781 C 69.226562 74.132812 68.867188 74.433594 68.867188 74.574219 C 68.867188 74.78125 72.828125 74.65625 72.960938 74.453125 C 73.03125 74.339844 73.035156 74.246094 72.972656 74.1875 C 72.847656 74.070312 69.820312 73.957031 69.5 74.050781 M 86.453125 74.523438 C 86.226562 74.867188 86.328125 75.085938 86.714844 75.085938 C 86.894531 75.085938 87.050781 75.023438 87.085938 74.933594 C 87.148438 74.765625 86.871094 74.273438 86.714844 74.273438 C 86.660156 74.273438 86.542969 74.386719 86.453125 74.523438 M 90.507812 74.71875 C 90.429688 74.914062 90.539062 75.085938 90.734375 75.085938 C 90.832031 75.085938 90.875 75.007812 90.855469 74.863281 C 90.816406 74.59375 90.59375 74.5 90.507812 74.71875 M 88.761719 76.703125 C 88.730469 76.789062 88.996094 77.125 89.425781 77.542969 L 90.140625 78.246094 L 90.886719 78.242188 C 91.816406 78.242188 91.84375 78.21875 91.929688 77.507812 C 92.046875 76.566406 91.910156 76.488281 90.195312 76.53125 C 89.136719 76.554688 88.808594 76.597656 88.761719 76.703125 M 81.898438 76.957031 C 81.699219 77.117188 81.707031 77.132812 82.265625 77.683594 L 82.839844 78.246094 L 84.671875 78.246094 C 85.800781 78.246094 86.523438 78.203125 86.5625 78.136719 C 86.644531 78.003906 85.949219 77.046875 85.71875 76.980469 C 85.175781 76.820312 82.09375 76.800781 81.898438 76.957031 "/>
<path style=" stroke:none;fill-rule:evenodd;fill:rgb(5.882353%,39.215687%,12.156863%);fill-opacity:1;" d="M 75.355469 62.546875 C 75.355469 62.597656 75.449219 62.660156 75.5625 62.691406 C 75.734375 62.734375 75.75 62.71875 75.652344 62.601562 C 75.519531 62.441406 75.355469 62.410156 75.355469 62.546875 M 75.839844 63.070312 C 75.914062 63.265625 76.019531 63.328125 76.300781 63.351562 C 76.542969 63.375 76.726562 63.460938 76.824219 63.605469 C 76.976562 63.828125 77.027344 63.730469 76.914062 63.429688 C 76.875 63.328125 76.730469 63.269531 76.515625 63.269531 C 76.292969 63.269531 76.101562 63.191406 75.964844 63.042969 L 75.746094 62.8125 L 75.839844 63.070312 M 74.996094 63.175781 C 74.953125 63.246094 74.792969 63.273438 74.582031 63.238281 C 74.140625 63.164062 73.929688 63.371094 73.949219 63.863281 C 73.964844 64.207031 73.96875 64.214844 74.007812 63.933594 C 74.054688 63.570312 74.28125 63.371094 74.636719 63.371094 C 74.929688 63.367188 75.230469 63.214844 75.132812 63.117188 C 75.097656 63.082031 75.039062 63.109375 74.996094 63.175781 M 73.847656 65.777344 C 73.726562 66.054688 73.730469 66.0625 73.886719 65.902344 C 73.980469 65.808594 74.039062 65.679688 74.019531 65.613281 C 73.996094 65.542969 73.917969 65.621094 73.847656 65.777344 M 71.121094 66.152344 C 70.996094 66.207031 70.753906 66.476562 70.578125 66.75 C 70.203125 67.339844 70.121094 67.347656 69.519531 66.886719 C 68.839844 66.367188 68.382812 66.417969 68.042969 67.054688 C 67.871094 67.378906 67.996094 67.554688 68.351562 67.484375 C 68.664062 67.421875 69.167969 67.648438 69.167969 67.855469 C 69.167969 67.910156 68.851562 68.113281 68.464844 68.3125 C 67.90625 68.589844 67.707031 68.757812 67.5 69.109375 C 67.035156 69.898438 67.191406 70.210938 67.808594 69.738281 C 68.625 69.113281 68.863281 69.199219 68.449219 69.976562 C 68.238281 70.367188 68.152344 70.664062 68.171875 70.90625 C 68.207031 71.320312 68.5 71.460938 68.609375 71.113281 C 68.675781 70.902344 69.132812 70.535156 69.222656 70.625 C 69.25 70.652344 69.222656 70.8125 69.164062 70.980469 C 68.90625 71.722656 69.203125 72.816406 69.492188 72.1875 C 69.558594 72.035156 69.667969 71.941406 69.746094 71.972656 C 69.839844 72.007812 69.878906 71.921875 69.878906 71.675781 C 69.878906 71.167969 70.050781 70.789062 70.253906 70.828125 C 70.480469 70.871094 70.5625 71.207031 70.578125 72.105469 C 70.589844 73.015625 70.800781 73.042969 71.347656 72.199219 C 71.539062 71.90625 71.578125 70.636719 71.40625 70.3125 C 71.261719 70.039062 71.273438 69.890625 71.433594 69.890625 C 71.664062 69.890625 71.910156 70.25 71.984375 70.703125 C 72.117188 71.480469 72.386719 71.132812 72.40625 70.160156 C 72.417969 69.609375 71.964844 69.027344 71.476562 68.957031 C 71.328125 68.9375 71.25 68.855469 71.25 68.71875 C 71.25 68.414062 71.945312 68.378906 72.328125 68.664062 L 72.617188 68.878906 L 72.617188 68.667969 C 72.617188 68.027344 72.101562 67.445312 71.539062 67.445312 C 71.128906 67.445312 71.050781 67.25 71.257812 66.738281 C 71.46875 66.207031 71.421875 66.015625 71.121094 66.152344 M 83.945312 66.457031 C 83.824219 66.589844 83.644531 66.839844 83.550781 67.019531 C 83.347656 67.394531 83.136719 67.425781 82.707031 67.144531 C 81.984375 66.660156 81.285156 66.964844 80.84375 67.957031 C 80.574219 68.5625 80.699219 68.648438 81.296875 68.269531 C 82.03125 67.800781 82.964844 67.988281 82.964844 68.609375 C 82.964844 68.804688 82.894531 68.871094 82.632812 68.929688 C 81.492188 69.167969 80.523438 70.347656 80.964844 70.953125 C 81.097656 71.132812 81.125 71.117188 81.449219 70.683594 C 82.085938 69.832031 82.878906 69.519531 82.421875 70.296875 C 82.117188 70.8125 82.066406 72.132812 82.351562 72.132812 C 82.402344 72.132812 82.472656 72.027344 82.511719 71.902344 C 82.828125 70.84375 83.460938 71.160156 83.347656 72.328125 C 83.316406 72.671875 83.34375 72.738281 83.515625 72.761719 C 83.625 72.78125 83.773438 72.90625 83.84375 73.050781 C 83.960938 73.285156 83.972656 73.261719 83.980469 72.742188 C 84.011719 70.757812 84.347656 70.457031 85.105469 71.738281 C 85.339844 72.128906 85.574219 72.429688 85.636719 72.40625 C 85.847656 72.332031 85.757812 71.089844 85.507812 70.554688 C 85.226562 69.957031 85.292969 69.871094 85.703125 70.285156 C 86.285156 70.871094 86.550781 70.667969 86.261719 69.859375 C 86.074219 69.324219 85.84375 69.09375 85.355469 68.957031 C 84.542969 68.722656 84.714844 68.328125 85.597656 68.382812 C 86.199219 68.417969 86.253906 68.183594 85.757812 67.691406 C 85.421875 67.351562 85.363281 67.328125 84.863281 67.359375 L 84.332031 67.394531 L 84.339844 67.09375 C 84.34375 66.921875 84.382812 66.660156 84.425781 66.507812 C 84.527344 66.144531 84.269531 66.121094 83.945312 66.457031 M 73.554688 66.835938 C 73.554688 67.03125 73.574219 67.113281 73.601562 67.011719 C 73.625 66.914062 73.625 66.753906 73.601562 66.660156 C 73.574219 66.5625 73.554688 66.640625 73.554688 66.835938 M 73.347656 69.867188 L 73.117188 70.246094 L 73.375 69.960938 C 73.511719 69.804688 73.632812 69.632812 73.632812 69.582031 C 73.632812 69.429688 73.597656 69.46875 73.347656 69.867188 M 77.28125 69.773438 C 77.28125 69.917969 77.804688 70.726562 77.859375 70.671875 C 77.882812 70.648438 77.871094 70.511719 77.835938 70.371094 C 77.769531 70.097656 77.28125 69.574219 77.28125 69.773438 M 89.082031 70.390625 C 88.910156 70.5 88.730469 70.640625 88.691406 70.707031 C 88.640625 70.785156 88.457031 70.800781 88.125 70.757812 C 87.585938 70.683594 87.386719 70.769531 87.015625 71.25 C 86.761719 71.570312 86.84375 71.824219 87.125 71.570312 C 87.339844 71.375 87.679688 71.40625 87.679688 71.621094 C 87.679688 71.707031 87.570312 71.792969 87.445312 71.808594 C 87.230469 71.839844 86.714844 72.496094 86.714844 72.734375 C 86.714844 72.925781 86.902344 72.941406 87.195312 72.777344 C 87.628906 72.527344 87.867188 72.652344 87.789062 73.085938 C 87.699219 73.558594 87.925781 73.753906 88.285156 73.515625 C 88.425781 73.421875 88.539062 73.382812 88.539062 73.421875 C 88.539062 73.460938 88.601562 73.410156 88.675781 73.304688 C 88.839844 73.085938 89.046875 73.175781 89.046875 73.464844 C 89.046875 73.585938 89.09375 73.644531 89.152344 73.605469 C 89.210938 73.570312 89.375 73.617188 89.511719 73.707031 C 89.828125 73.914062 89.910156 73.757812 89.8125 73.113281 C 89.75 72.679688 89.753906 72.667969 90.058594 72.605469 C 90.59375 72.5 90.417969 72.039062 89.730469 71.746094 C 89.347656 71.582031 89.332031 71.0625 89.707031 70.890625 C 90.007812 70.753906 90.039062 70.449219 89.761719 70.300781 C 89.5 70.160156 89.453125 70.167969 89.082031 70.390625 M 67.902344 74.738281 C 67.789062 74.824219 67.621094 74.871094 67.527344 74.847656 C 67.382812 74.808594 67.375 74.839844 67.46875 75.046875 C 67.621094 75.386719 67.785156 75.351562 67.980469 74.933594 C 68.074219 74.738281 68.140625 74.578125 68.125 74.578125 C 68.113281 74.582031 68.011719 74.652344 67.902344 74.738281 M 77.875 74.753906 C 77.9375 74.867188 78.078125 74.980469 78.191406 75.011719 C 78.472656 75.085938 78.453125 75.035156 78.082031 74.773438 C 77.78125 74.554688 77.773438 74.554688 77.875 74.753906 M 78.976562 75.160156 C 78.609375 75.441406 78.539062 75.644531 78.8125 75.644531 C 78.886719 75.644531 79.003906 75.539062 79.066406 75.410156 C 79.324219 74.886719 79.761719 74.855469 80.019531 75.339844 C 80.09375 75.480469 80.191406 75.59375 80.238281 75.59375 C 80.28125 75.59375 80.222656 75.433594 80.109375 75.238281 C 79.84375 74.792969 79.496094 74.769531 78.976562 75.160156 M 80.636719 75.027344 C 80.535156 75.144531 80.550781 75.160156 80.710938 75.121094 C 80.816406 75.089844 80.976562 75.144531 81.070312 75.234375 C 81.261719 75.429688 81.285156 75.367188 81.128906 75.078125 C 81.007812 74.847656 80.804688 74.824219 80.636719 75.027344 M 61.265625 75.386719 C 61.179688 75.4375 61.066406 75.453125 61.007812 75.417969 C 60.949219 75.382812 60.964844 75.429688 61.042969 75.527344 C 61.125 75.628906 61.261719 75.675781 61.367188 75.644531 C 61.480469 75.605469 61.585938 75.65625 61.652344 75.765625 C 61.785156 76 61.792969 75.890625 61.664062 75.550781 C 61.558594 75.265625 61.492188 75.238281 61.265625 75.386719 M 77.445312 84.625 C 77.71875 84.683594 78.03125 85.023438 78.179688 85.421875 L 78.300781 85.726562 L 78.242188 85.421875 C 78.164062 85.035156 77.714844 84.550781 77.441406 84.570312 C 77.238281 84.582031 77.238281 84.585938 77.445312 84.625 M 76.835938 84.972656 C 76.691406 85.144531 76.574219 85.363281 76.578125 85.457031 C 76.578125 85.5625 76.640625 85.511719 76.742188 85.324219 C 76.828125 85.152344 76.96875 84.9375 77.058594 84.839844 C 77.144531 84.742188 77.1875 84.65625 77.15625 84.65625 C 77.125 84.65625 76.976562 84.800781 76.835938 84.972656 M 80.210938 84.914062 C 80.0625 84.996094 79.914062 85.132812 79.878906 85.222656 C 79.835938 85.335938 79.921875 85.300781 80.128906 85.125 C 80.632812 84.707031 81.140625 84.867188 81.328125 85.503906 C 81.40625 85.769531 81.421875 85.785156 81.429688 85.59375 C 81.453125 85.035156 80.730469 84.628906 80.210938 84.914062 M 83.339844 84.988281 C 83.210938 85.113281 83.175781 85.164062 83.261719 85.101562 C 83.347656 85.035156 83.578125 84.9375 83.773438 84.882812 C 84.097656 84.789062 84.105469 84.78125 83.855469 84.769531 C 83.699219 84.765625 83.476562 84.859375 83.339844 84.988281 M 73.960938 84.933594 C 74.054688 84.957031 74.21875 84.957031 74.316406 84.933594 C 74.414062 84.90625 74.332031 84.886719 74.140625 84.886719 C 73.941406 84.886719 73.863281 84.90625 73.960938 84.933594 M 73.433594 85.230469 C 73.320312 85.382812 73.226562 85.574219 73.230469 85.664062 C 73.234375 85.765625 73.277344 85.730469 73.335938 85.578125 C 73.390625 85.441406 73.511719 85.242188 73.601562 85.144531 C 73.691406 85.046875 73.738281 84.964844 73.707031 84.964844 C 73.671875 84.964844 73.554688 85.085938 73.433594 85.230469 M 84.660156 86.296875 C 84.695312 86.972656 84.753906 87.300781 84.859375 87.40625 C 84.996094 87.542969 85 87.535156 84.902344 87.339844 C 84.839844 87.21875 84.785156 86.804688 84.78125 86.421875 C 84.777344 86.042969 84.738281 85.640625 84.699219 85.535156 C 84.652344 85.429688 84.640625 85.769531 84.660156 86.296875 M 86.25 85.621094 C 86.160156 85.761719 86.101562 85.917969 86.121094 85.96875 C 86.140625 86.019531 86.230469 85.90625 86.320312 85.714844 C 86.515625 85.3125 86.484375 85.269531 86.25 85.621094 M 71.574219 86.210938 C 71.625 87.066406 71.675781 87.273438 71.847656 87.339844 C 71.96875 87.386719 71.96875 87.355469 71.847656 87.125 C 71.765625 86.96875 71.703125 86.621094 71.703125 86.339844 C 71.699219 86.058594 71.664062 85.769531 71.617188 85.699219 C 71.574219 85.632812 71.554688 85.863281 71.574219 86.210938 M 81.449219 86.59375 C 81.445312 86.902344 81.480469 87.214844 81.527344 87.285156 C 81.570312 87.359375 81.589844 87.15625 81.566406 86.828125 C 81.511719 86.023438 81.457031 85.917969 81.449219 86.59375 M 70.03125 87.105469 C 69.824219 87.328125 69.5625 87.363281 69.257812 87.199219 C 69.148438 87.140625 69.003906 87.109375 68.9375 87.132812 C 68.71875 87.203125 69.578125 87.429688 69.828125 87.367188 C 69.964844 87.332031 70.125 87.214844 70.183594 87.105469 C 70.320312 86.84375 70.265625 86.84375 70.03125 87.105469 "/>
</g>
</svg>
