<?xml version="1.0" encoding="UTF-8"?>
<svg xmlns="http://www.w3.org/2000/svg" xmlns:xlink="http://www.w3.org/1999/xlink" width="150px" height="150px" viewBox="0 0 150 150" version="1.1">
<g id="surface1">
<path style=" stroke:none;fill-rule:evenodd;fill:rgb(5.098039%,5.098039%,5.098039%);fill-opacity:1;" d="M 59.542969 40.679688 C 56.617188 41.828125 56.128906 46.597656 58.800781 47.894531 C 59.679688 48.316406 60.355469 49.074219 60.355469 49.628906 C 60.355469 50.136719 60.039062 50.386719 58.96875 50.742188 C 58.53125 50.886719 58.253906 51.046875 57.96875 51.328125 C 57.476562 51.804688 57.246094 51.816406 56.652344 51.398438 C 56.40625 51.222656 55.984375 50.9375 55.714844 50.761719 C 54.050781 49.675781 53.929688 49.542969 53.929688 48.800781 C 53.929688 48.296875 54.144531 47.769531 54.703125 46.902344 C 56.078125 44.777344 55.507812 42.738281 53.363281 42.082031 C 50.496094 41.199219 48.121094 41.503906 46.691406 42.925781 C 45.609375 44.003906 45.40625 44.753906 45.269531 48.304688 C 45.144531 51.472656 45.015625 52.054688 44.222656 52.839844 C 43.113281 53.960938 39.355469 53.914062 38.664062 52.773438 C 37.921875 51.546875 39.328125 50.617188 41.570312 50.859375 C 42.242188 50.933594 42.5 51.117188 42.5 51.535156 C 42.5 51.84375 42.511719 51.847656 42.855469 51.667969 C 44.050781 51.046875 41.75 49.96875 39.878906 50.277344 C 38.15625 50.554688 37.242188 51.933594 37.96875 53.148438 C 38.792969 54.523438 40.214844 54.925781 43.035156 54.578125 C 46.011719 54.214844 47.171875 52.542969 46.738281 49.238281 C 46.230469 45.324219 47.609375 43.054688 50.492188 43.070312 C 52.933594 43.078125 53.988281 44.390625 53.222656 46.46875 C 52.667969 47.972656 52.574219 48.292969 52.527344 48.847656 C 52.429688 50 52.835938 50.699219 54.148438 51.625 C 54.917969 52.164062 54.777344 52.609375 53.847656 52.609375 C 53.574219 52.609375 52.824219 52.675781 52.179688 52.757812 C 50.863281 52.917969 50.625 52.890625 50.257812 52.523438 C 49.785156 52.046875 49.945312 51.042969 50.523438 50.855469 C 50.800781 50.765625 50.8125 50.75 50.671875 50.605469 C 50.285156 50.21875 49.640625 50.949219 49.644531 51.773438 C 49.652344 52.902344 50.210938 53.40625 51.585938 53.507812 C 52.625 53.585938 53.171875 53.691406 53.671875 53.902344 C 53.847656 53.976562 54.367188 54.074219 54.828125 54.117188 C 55.75 54.214844 55.890625 54.308594 55.890625 54.820312 C 55.890625 55.328125 55.148438 55.746094 53.433594 56.183594 C 51.550781 56.667969 50.757812 56.640625 48.214844 55.996094 C 45.171875 55.222656 42.394531 55.84375 40.269531 57.777344 C 37.894531 59.929688 36.152344 60.335938 33.457031 59.359375 C 31.921875 58.804688 31.546875 58.25 31.785156 56.90625 C 32.15625 54.816406 33.582031 53.976562 35.714844 54.605469 C 37.253906 55.0625 37.734375 56.550781 36.585938 57.277344 C 35.8125 57.765625 33.839844 57.0625 33.839844 56.300781 C 33.839844 56.0625 33.8125 56.007812 33.699219 56.050781 C 33.617188 56.082031 33.539062 56.105469 33.519531 56.105469 C 33.203125 56.105469 33.132812 57.28125 33.433594 57.519531 C 34.195312 58.121094 36.734375 58.480469 37.394531 58.074219 C 38.4375 57.4375 38.390625 55.453125 37.308594 54.582031 C 35.101562 52.800781 32.007812 53.269531 30.929688 55.546875 C 29.554688 58.453125 31.105469 60.371094 35.144531 60.769531 C 37.507812 61 39.027344 60.507812 40.761719 58.949219 C 43.273438 56.679688 45.078125 56.289062 47.015625 57.589844 C 47.589844 57.976562 48.085938 58.230469 48.511719 58.359375 C 49.601562 58.683594 49.761719 58.824219 49.589844 59.28125 C 49.558594 59.359375 49.265625 59.601562 48.941406 59.8125 C 48.011719 60.421875 47.5 61.035156 46.933594 62.214844 C 46.113281 63.941406 44.789062 64.726562 43.207031 64.441406 C 41.023438 64.039062 41.082031 62.210938 43.277344 62.195312 L 43.882812 62.191406 L 43.578125 61.933594 C 42.261719 60.804688 39.96875 62.644531 40.742188 64.21875 C 41.203125 65.171875 41.96875 65.484375 43.503906 65.347656 C 45.65625 65.148438 46.707031 64.621094 48.238281 62.960938 C 49.796875 61.277344 50.792969 60.738281 54.445312 59.597656 C 56.804688 58.859375 56.722656 59.527344 54.210938 61.46875 C 48.847656 65.609375 43.914062 67.386719 40.226562 66.511719 C 39.070312 66.234375 38.164062 65.878906 35.917969 64.835938 C 30.882812 62.484375 27.699219 62.804688 26.296875 65.804688 C 24.464844 69.722656 28.664062 75.65625 31.355469 72.957031 C 32.4375 71.867188 33.140625 69.371094 32.644531 68.359375 C 31.867188 66.773438 27.828125 68.148438 28.492188 69.773438 L 28.597656 70.046875 L 28.679688 69.660156 C 28.945312 68.40625 31.019531 67.765625 31.855469 68.675781 C 32.792969 69.695312 31.117188 72.6875 29.613281 72.6875 C 28.03125 72.6875 26.570312 69.910156 27 67.726562 C 27.457031 65.402344 28.792969 64.484375 31.429688 64.691406 L 32.367188 64.769531 L 34.464844 65.804688 C 38.785156 67.941406 41.476562 68.742188 44.503906 68.800781 C 45.660156 68.824219 46.417969 68.878906 46.488281 68.9375 C 46.949219 69.316406 45.964844 69.886719 43.421875 70.710938 C 40.152344 71.769531 38.523438 73.484375 37.765625 76.65625 C 37.148438 79.253906 36.308594 80.632812 34.929688 81.277344 C 33.839844 81.789062 31.960938 81.597656 31.023438 80.878906 C 29.800781 79.941406 29.949219 77.722656 31.28125 77.011719 C 32.714844 76.25 35 77.878906 33.816406 78.824219 C 33.277344 79.25 33.871094 79.324219 34.441406 78.902344 C 35.191406 78.34375 34.460938 77.199219 32.871094 76.4375 C 31.273438 75.671875 29.8125 76.492188 29.320312 78.421875 C 28.339844 82.308594 33.988281 84.871094 36.753906 81.792969 C 37.652344 80.792969 39.027344 78.199219 39.320312 76.945312 C 39.863281 74.648438 43.480469 72.355469 48.75 70.96875 C 49.507812 70.769531 50.554688 70.492188 51.070312 70.355469 C 52.144531 70.078125 53.09375 69.789062 54.84375 69.226562 C 56.839844 68.585938 57.113281 68.816406 56.785156 70.863281 C 56.480469 72.742188 55.59375 73.289062 53.476562 72.898438 C 50.921875 72.433594 49.992188 73.582031 50.285156 76.84375 C 50.464844 78.824219 49.710938 79.585938 47.835938 79.316406 C 46.65625 79.148438 46.171875 78.714844 46.09375 77.757812 C 46.015625 76.761719 46.359375 76.222656 47.144531 76.117188 C 47.625 76.054688 47.636719 75.78125 47.164062 75.585938 C 45.9375 75.070312 45.089844 76.035156 45.089844 77.941406 C 45.089844 80.179688 46.285156 80.910156 49.238281 80.480469 C 50.734375 80.265625 52.167969 78.613281 52.019531 77.28125 C 51.695312 74.449219 52.15625 73.84375 54.242188 74.347656 C 56.390625 74.867188 57.804688 74.042969 59 71.566406 C 59.375 70.792969 59.519531 70.628906 59.8125 70.628906 C 60.464844 70.636719 60.714844 71.363281 60.347656 72.191406 C 60.140625 72.671875 59.402344 74.992188 58.964844 76.582031 C 58.632812 77.765625 58.476562 78.042969 57.710938 78.828125 C 57.421875 79.125 56.761719 79.867188 56.238281 80.484375 C 54.675781 82.332031 53.703125 83.222656 53.117188 83.34375 C 52.851562 83.398438 52.410156 83.492188 52.144531 83.554688 C 51.8125 83.625 51.421875 83.816406 50.957031 84.136719 C 49.632812 85.035156 49.003906 85.179688 48.125 84.78125 C 47.8125 84.632812 47.574219 84.597656 47.050781 84.617188 C 46.6875 84.628906 46.15625 84.609375 45.875 84.570312 C 45.234375 84.480469 44.890625 84.589844 44.226562 85.105469 C 43.675781 85.539062 42.9375 85.648438 42.242188 85.40625 C 41.828125 85.261719 41.589844 85.363281 41.355469 85.777344 C 40.960938 86.480469 39.054688 86.824219 37.765625 86.4375 C 37.097656 86.230469 36.632812 86.375 35.78125 87.050781 C 35.550781 87.230469 35.238281 87.355469 34.796875 87.445312 C 34.445312 87.519531 33.8125 87.734375 33.394531 87.925781 C 32.972656 88.117188 32.371094 88.355469 32.054688 88.449219 C 31.519531 88.613281 31.222656 88.691406 29.6875 89.0625 C 29.390625 89.136719 28.929688 89.273438 28.660156 89.375 C 28.390625 89.476562 27.949219 89.632812 27.679688 89.726562 C 26.425781 90.171875 26.726562 90.222656 30.964844 90.28125 C 33.011719 90.3125 35.367188 90.382812 36.207031 90.441406 C 37.234375 90.507812 38.5625 90.519531 40.3125 90.472656 C 44.230469 90.363281 53.886719 90.382812 56.027344 90.503906 C 63.367188 90.917969 66.058594 90.902344 70.488281 90.429688 C 73.296875 90.132812 77.46875 89.933594 83.660156 89.808594 C 86.515625 89.75 88.195312 89.675781 88.796875 89.585938 C 89.839844 89.433594 93.464844 89.402344 94.910156 89.535156 C 96.617188 89.695312 100.011719 89.835938 102.5 89.851562 C 104.339844 89.863281 105.234375 89.90625 106.070312 90.035156 C 107.632812 90.261719 111.445312 90.269531 112.703125 90.050781 C 114.234375 89.777344 116.113281 89.691406 119.085938 89.753906 C 121.984375 89.8125 122.914062 89.75 123.140625 89.476562 C 123.355469 89.214844 121.875 88.019531 121.097656 87.820312 C 120.835938 87.757812 120.492188 87.527344 119.996094 87.097656 C 119.488281 86.65625 119.160156 86.445312 118.90625 86.382812 C 118.707031 86.339844 118.316406 86.167969 118.042969 86 C 117.667969 85.769531 117.339844 85.664062 116.71875 85.558594 C 115.808594 85.40625 115.738281 85.378906 115.234375 84.976562 C 114.964844 84.761719 114.796875 84.699219 114.496094 84.699219 C 114.269531 84.699219 113.996094 84.625 113.816406 84.519531 C 113.660156 84.421875 113.367188 84.339844 113.175781 84.339844 C 112.878906 84.339844 112.773438 84.28125 112.449219 83.925781 C 112.039062 83.476562 111.917969 83.453125 111.277344 83.71875 C 110.554688 84.019531 109.902344 83.203125 109.734375 81.785156 C 109.65625 81.113281 109.550781 80.714844 109.320312 80.199219 C 109.148438 79.820312 108.960938 79.332031 108.898438 79.121094 C 108.832031 78.910156 108.546875 78.335938 108.269531 77.84375 C 107.457031 76.433594 107.332031 75.824219 107.132812 72.195312 C 107.058594 70.851562 107.007812 70.476562 106.816406 69.953125 C 106.695312 69.609375 106.476562 68.882812 106.328125 68.34375 C 106.023438 67.203125 105.976562 67.0625 105.554688 66.109375 L 105.246094 65.398438 L 105.390625 64.933594 C 105.652344 64.085938 105.601562 63.859375 104.878906 62.808594 C 104.667969 62.5 104.339844 61.964844 104.152344 61.617188 C 103.914062 61.183594 103.46875 60.636719 102.722656 59.871094 C 102.128906 59.253906 101.453125 58.484375 101.21875 58.15625 C 100.753906 57.519531 99.800781 56.683594 99.179688 56.367188 C 98.96875 56.261719 98.460938 55.976562 98.054688 55.730469 C 96.671875 54.898438 93.632812 53.59375 92.765625 53.464844 C 92.546875 53.433594 91.816406 53.304688 91.140625 53.183594 C 89.34375 52.855469 86.429688 53.105469 82.589844 53.90625 C 81.046875 54.234375 78.984375 54.429688 77.679688 54.382812 L 76.558594 54.34375 L 75.378906 53.746094 C 74.066406 53.082031 73.425781 52.828125 71.886719 52.378906 C 71.316406 52.214844 70.648438 52.015625 70.402344 51.9375 C 70.113281 51.839844 69.628906 51.789062 69.019531 51.789062 C 67.699219 51.785156 67.492188 51.585938 67.992188 50.773438 C 68.625 49.746094 68.101562 48.953125 66.160156 47.984375 C 64.804688 47.304688 64.015625 47.34375 64.015625 48.089844 C 64.015625 48.71875 64.179688 48.816406 64.449219 48.355469 C 64.804688 47.75 65.292969 47.84375 66.230469 48.675781 C 67.316406 49.640625 67.382812 49.945312 66.679688 50.695312 C 65.78125 51.644531 65.464844 51.816406 64.433594 51.921875 C 61.609375 52.191406 61.277344 52.027344 61.933594 50.675781 C 62.765625 48.960938 62.34375 48.179688 59.789062 46.6875 C 57.097656 45.117188 58.253906 41.457031 61.480469 41.332031 C 63.46875 41.253906 64.355469 42.703125 62.761719 43.425781 C 62.316406 43.625 62.351562 43.773438 62.847656 43.808594 C 63.914062 43.886719 64.484375 42.578125 63.773438 41.691406 C 63.035156 40.765625 60.730469 40.214844 59.542969 40.679688 M 44.464844 62.917969 C 44.464844 63.035156 44.507812 63.097656 44.574219 63.074219 C 44.636719 63.054688 44.6875 62.980469 44.6875 62.917969 C 44.6875 62.851562 44.636719 62.78125 44.574219 62.761719 C 44.507812 62.738281 44.464844 62.800781 44.464844 62.917969 M 28.925781 70.621094 C 28.925781 70.671875 29.011719 70.753906 29.109375 70.804688 C 29.222656 70.867188 29.285156 70.871094 29.285156 70.8125 C 29.285156 70.761719 29.207031 70.679688 29.109375 70.628906 C 28.992188 70.5625 28.925781 70.558594 28.925781 70.621094 M 81.378906 74.664062 C 81.625 74.71875 82.347656 74.773438 82.980469 74.792969 C 84.589844 74.847656 84.457031 74.535156 84.792969 78.917969 C 85.089844 82.824219 85.089844 82.816406 84.089844 82.8125 C 83.828125 82.8125 83.1875 82.859375 82.660156 82.917969 C 81.367188 83.050781 81.199219 83.007812 80.445312 82.347656 C 79.632812 81.621094 79.632812 81.632812 80.171875 80.542969 C 80.8125 79.25 80.734375 78.957031 79.007812 76.113281 C 78.476562 75.234375 78.363281 74.820312 78.59375 74.578125 C 78.71875 74.449219 80.535156 74.503906 81.378906 74.664062 M 69.90625 75.734375 C 69.996094 75.78125 70.167969 75.976562 70.277344 76.160156 C 70.664062 76.789062 71.765625 78.121094 72.199219 78.480469 C 72.441406 78.671875 72.933594 79.058594 73.304688 79.332031 C 75.515625 80.984375 75.679688 81.585938 74.015625 81.925781 C 72.984375 82.132812 72.402344 82.144531 72.039062 81.957031 C 71.859375 81.863281 71.648438 81.832031 71.4375 81.867188 C 70.386719 82.035156 70.398438 82.035156 69.945312 81.796875 C 69.402344 81.503906 69.277344 81.503906 68.519531 81.792969 C 67.84375 82.046875 66.457031 82.039062 65.8125 81.777344 C 65.433594 81.617188 65.203125 81.617188 64.738281 81.785156 C 63.953125 82.0625 63.871094 81.621094 64.589844 80.96875 C 67.402344 78.414062 67.296875 78.523438 68.179688 77.191406 C 69.28125 75.539062 69.382812 75.453125 69.90625 75.734375 M 97.5625 77.480469 C 97.664062 77.550781 97.773438 77.757812 97.808594 77.933594 C 98.027344 79.113281 101.035156 80.765625 103.214844 80.902344 C 105.414062 81.039062 106.167969 82.53125 104.226562 82.890625 C 103.9375 82.945312 103.402344 83.050781 103.039062 83.132812 C 102.199219 83.3125 101.734375 83.253906 100.625 82.832031 C 99.722656 82.492188 99.539062 82.46875 96.335938 82.289062 C 95.574219 82.246094 94.898438 82.164062 94.6875 82.082031 C 94.398438 81.976562 94.117188 81.960938 93.214844 82.015625 C 91.398438 82.121094 91.210938 81.664062 92.679688 80.738281 C 92.953125 80.5625 93.539062 80.121094 93.980469 79.75 C 95.433594 78.535156 97.035156 77.390625 97.324219 77.355469 C 97.347656 77.351562 97.453125 77.40625 97.5625 77.480469 M 25.304688 96.335938 C 22.535156 97.289062 22.601562 102.953125 25.390625 103.710938 C 26.679688 104.0625 28.160156 103.378906 28.679688 102.203125 C 29.089844 101.269531 28.152344 101.0625 27.683594 101.984375 C 26.699219 103.925781 24.59375 102.792969 24.484375 100.261719 C 24.351562 97.148438 26.511719 95.742188 27.730469 98.160156 C 27.957031 98.605469 28.207031 98.753906 28.5625 98.636719 C 28.871094 98.539062 28.875 98.261719 28.582031 97.660156 C 27.980469 96.433594 26.625 95.886719 25.304688 96.335938 M 122.707031 96.300781 C 119.515625 97.300781 120.007812 103.773438 123.273438 103.789062 C 124.707031 103.792969 126.070312 102.851562 126.070312 101.851562 C 126.070312 101.261719 125.390625 101.226562 125.09375 101.804688 C 123.8125 104.300781 121.363281 102.429688 121.769531 99.261719 C 122.078125 96.847656 124.121094 96.132812 125.015625 98.125 C 125.3125 98.777344 126.070312 98.871094 126.070312 98.257812 C 126.070312 96.964844 124.148438 95.847656 122.707031 96.300781 M 31.164062 96.324219 C 30.011719 96.355469 29.820312 96.417969 29.820312 96.746094 C 29.820312 97.074219 29.996094 97.15625 30.679688 97.15625 C 31.234375 97.15625 31.367188 97.1875 31.582031 97.371094 L 31.828125 97.59375 L 31.84375 100.53125 C 31.859375 103.769531 31.847656 103.699219 32.425781 103.699219 C 33.023438 103.699219 33.035156 103.65625 33.039062 100.496094 C 33.039062 97.089844 33.015625 97.15625 34.285156 97.15625 C 34.8125 97.15625 35.089844 97.023438 35.089844 96.753906 C 35.089844 96.4375 34.828125 96.347656 33.855469 96.347656 C 33.332031 96.347656 32.761719 96.335938 32.589844 96.320312 C 32.414062 96.304688 31.777344 96.304688 31.164062 96.324219 M 77.105469 96.324219 C 76.3125 96.34375 75.722656 96.398438 75.652344 96.457031 C 75.441406 96.628906 75.484375 103.355469 75.699219 103.554688 C 76.277344 104.082031 76.554688 103.667969 76.609375 102.191406 C 76.664062 100.65625 76.6875 100.617188 77.589844 100.53125 C 78.644531 100.429688 78.929688 100.636719 79.316406 101.78125 C 79.882812 103.449219 80.164062 103.8125 80.757812 103.664062 C 81.074219 103.585938 81.046875 103.390625 80.535156 102.113281 C 79.953125 100.675781 79.953125 100.492188 80.53125 99.949219 C 81.519531 99.023438 81.507812 97.515625 80.507812 96.789062 C 79.910156 96.351562 79.355469 96.277344 77.105469 96.324219 M 83.707031 96.335938 C 83.296875 96.414062 83.304688 96.371094 83.304688 99.972656 C 83.304688 101.960938 83.339844 103.445312 83.390625 103.523438 C 83.460938 103.632812 83.820312 103.660156 85.53125 103.683594 C 87.777344 103.710938 87.945312 103.683594 87.945312 103.257812 C 87.945312 102.816406 87.808594 102.777344 86.195312 102.769531 C 84.367188 102.753906 84.375 102.761719 84.375 101.578125 C 84.375 100.398438 84.511719 100.292969 86.035156 100.292969 C 87.125 100.292969 87.421875 100.140625 87.121094 99.726562 C 87.03125 99.605469 86.808594 99.570312 85.902344 99.539062 C 84.523438 99.492188 84.453125 99.445312 84.367188 98.484375 C 84.253906 97.214844 84.378906 97.125 86.21875 97.148438 C 87.46875 97.164062 87.59375 97.152344 87.757812 96.992188 C 87.972656 96.769531 87.914062 96.457031 87.648438 96.398438 C 87.398438 96.34375 83.9375 96.289062 83.707031 96.335938 M 90.984375 96.339844 C 89.621094 96.414062 89.730469 96.066406 89.785156 100.15625 C 89.832031 103.761719 89.820312 103.699219 90.328125 103.699219 C 90.796875 103.699219 90.890625 103.449219 90.890625 102.1875 C 90.890625 100.675781 90.851562 100.714844 92.441406 100.648438 C 94.464844 100.5625 95.425781 99.714844 95.222656 98.199219 C 95.003906 96.609375 94.023438 96.179688 90.984375 96.339844 M 36.699219 96.441406 C 36.460938 96.589844 36.496094 103.398438 36.738281 103.574219 C 37.375 104.042969 37.589844 103.671875 37.589844 102.121094 C 37.589844 100.347656 37.765625 100.199219 39.746094 100.3125 C 40.816406 100.375 40.847656 100.421875 40.855469 101.976562 C 40.859375 103.410156 40.898438 103.578125 41.246094 103.65625 C 41.9375 103.804688 41.925781 103.867188 41.921875 99.835938 C 41.921875 96.328125 41.925781 96.347656 41.386719 96.347656 C 40.953125 96.347656 40.914062 96.464844 40.878906 97.816406 C 40.839844 99.46875 40.820312 99.488281 39.300781 99.488281 C 37.617188 99.484375 37.589844 99.457031 37.589844 97.785156 C 37.589844 96.40625 37.339844 96.03125 36.699219 96.441406 M 44.292969 96.480469 C 44.078125 96.738281 44.203125 102.148438 44.433594 102.578125 C 45.308594 104.210938 48.089844 104.21875 48.957031 102.59375 C 49.144531 102.234375 49.152344 102.113281 49.179688 99.472656 C 49.210938 96.550781 49.183594 96.3125 48.8125 96.367188 C 48.4375 96.421875 48.398438 96.695312 48.394531 99.226562 C 48.394531 102.449219 48.234375 102.824219 46.875 102.839844 C 45.464844 102.851562 45.324219 102.539062 45.265625 99.21875 C 45.242188 97.765625 45.191406 96.527344 45.152344 96.464844 C 45.054688 96.308594 44.421875 96.320312 44.292969 96.480469 M 51.539062 96.457031 C 51.457031 96.539062 51.429688 97.375 51.429688 99.996094 L 51.429688 103.421875 L 51.625 103.5625 C 51.789062 103.675781 52.140625 103.699219 53.644531 103.699219 C 55.671875 103.699219 55.804688 103.671875 55.804688 103.207031 C 55.804688 102.765625 55.636719 102.714844 54.253906 102.714844 C 53.128906 102.714844 53.03125 102.699219 52.8125 102.511719 L 52.582031 102.3125 L 52.582031 99.574219 C 52.582031 96.464844 52.574219 96.414062 52.007812 96.367188 C 51.804688 96.351562 51.601562 96.394531 51.539062 96.457031 M 57.601562 96.46875 C 57.492188 96.601562 57.441406 103.183594 57.546875 103.457031 C 57.621094 103.644531 57.949219 103.742188 58.210938 103.65625 C 58.503906 103.5625 58.570312 103.25 58.570312 101.984375 C 58.570312 100.378906 58.652344 100.292969 60.136719 100.296875 C 61.730469 100.300781 61.785156 100.355469 61.785156 102.089844 C 61.785156 103.535156 61.84375 103.699219 62.34375 103.699219 C 62.859375 103.699219 62.855469 103.734375 62.855469 99.992188 C 62.855469 96.230469 62.875 96.347656 62.304688 96.347656 C 61.839844 96.347656 61.785156 96.503906 61.785156 97.816406 C 61.785156 99.464844 61.761719 99.488281 60.105469 99.488281 C 58.585938 99.488281 58.429688 99.296875 58.542969 97.632812 C 58.609375 96.628906 58.492188 96.347656 58 96.347656 C 57.835938 96.347656 57.65625 96.40625 57.601562 96.46875 M 65.214844 96.574219 C 64.972656 96.941406 65.066406 101.878906 65.324219 102.453125 C 66.085938 104.125 68.929688 104.292969 69.808594 102.714844 C 70.359375 101.738281 70.34375 96.34375 69.792969 96.351562 C 69.429688 96.355469 69.417969 96.425781 69.375 99.148438 C 69.332031 101.585938 69.316406 101.800781 69.144531 102.128906 C 68.621094 103.128906 66.914062 103.101562 66.40625 102.085938 C 66.269531 101.8125 66.25 101.472656 66.25 99.257812 C 66.25 96.433594 66.234375 96.347656 65.667969 96.347656 C 65.441406 96.347656 65.320312 96.410156 65.214844 96.574219 M 97.074219 96.460938 C 96.859375 96.667969 96.925781 101.800781 97.148438 102.390625 C 97.722656 103.9375 100.234375 104.300781 101.445312 103.015625 C 101.894531 102.539062 101.910156 102.410156 101.945312 99.433594 C 101.980469 96.511719 101.960938 96.34375 101.578125 96.351562 C 101.21875 96.355469 101.207031 96.425781 101.164062 99.191406 C 101.105469 102.53125 100.976562 102.839844 99.644531 102.847656 C 98.234375 102.855469 98.089844 102.53125 98.035156 99.21875 C 98.011719 97.765625 97.957031 96.527344 97.917969 96.464844 C 97.828125 96.316406 97.214844 96.316406 97.074219 96.460938 M 104.335938 96.492188 C 104.089844 96.742188 104.128906 103.273438 104.382812 103.527344 C 104.648438 103.792969 107.972656 103.761719 108.480469 103.488281 C 109.761719 102.800781 109.960938 101.269531 108.894531 100.324219 C 108.480469 99.960938 108.480469 99.714844 108.898438 99.226562 C 109.703125 98.28125 109.3125 96.804688 108.160156 96.460938 C 107.574219 96.285156 104.515625 96.308594 104.335938 96.492188 M 111.628906 96.460938 C 111.542969 96.539062 111.515625 97.445312 111.515625 99.996094 L 111.515625 103.421875 L 111.71875 103.5625 C 111.878906 103.675781 112.234375 103.699219 113.730469 103.699219 C 115.761719 103.699219 115.894531 103.671875 115.894531 103.207031 C 115.894531 102.765625 115.726562 102.714844 114.308594 102.714844 C 112.53125 102.714844 112.675781 103.003906 112.675781 99.5 C 112.675781 97.738281 112.644531 96.632812 112.585938 96.523438 C 112.480469 96.320312 111.804688 96.273438 111.628906 96.460938 M 117.695312 96.460938 C 117.617188 96.539062 117.589844 97.445312 117.589844 99.996094 L 117.589844 103.421875 L 117.789062 103.5625 C 118.050781 103.746094 118.332031 103.738281 118.511719 103.539062 C 118.734375 103.292969 118.738281 96.710938 118.519531 96.492188 C 118.355469 96.324219 117.847656 96.304688 117.695312 96.460938 M 79.238281 97.230469 C 80.46875 97.652344 80.347656 99.296875 79.0625 99.65625 C 77.429688 100.113281 76.609375 99.691406 76.609375 98.414062 C 76.609375 97.097656 77.578125 96.65625 79.238281 97.230469 M 93.28125 97.304688 C 94.257812 97.65625 94.375 99 93.476562 99.53125 C 92.992188 99.8125 91.472656 99.84375 91.140625 99.578125 C 90.851562 99.355469 90.757812 97.734375 91.011719 97.386719 C 91.242188 97.074219 92.507812 97.03125 93.28125 97.304688 M 107.660156 97.277344 C 108.484375 97.714844 108.488281 98.800781 107.667969 99.300781 C 107.050781 99.679688 105.605469 99.613281 105.316406 99.195312 C 105.140625 98.949219 105.121094 97.621094 105.292969 97.410156 C 105.597656 97.027344 107.03125 96.945312 107.660156 97.277344 M 107.359375 100.375 C 108.617188 100.585938 108.882812 102.089844 107.761719 102.671875 C 107.269531 102.929688 105.585938 102.855469 105.363281 102.566406 C 105.09375 102.226562 105.09375 100.964844 105.359375 100.628906 C 105.609375 100.304688 106.363281 100.210938 107.359375 100.375 "/>
<path style=" stroke:none;fill-rule:evenodd;fill:rgb(69.803923%,8.627451%,21.176471%);fill-opacity:1;" d="M 14.527344 34.742188 C 14.402344 34.871094 14.476562 35.277344 14.832031 36.417969 C 15.535156 38.65625 15.804688 39.65625 15.753906 39.8125 C 15.699219 39.984375 14.578125 40.914062 12.972656 42.117188 C 12.421875 42.53125 11.953125 42.917969 11.925781 42.984375 C 11.855469 43.171875 11.960938 43.375 12.132812 43.382812 C 12.210938 43.386719 13.277344 43.394531 14.5 43.40625 L 16.71875 43.429688 L 16.929688 43.675781 C 17.046875 43.8125 17.273438 44.375 17.460938 44.972656 C 18.785156 49.316406 18.734375 49.292969 19.695312 46.15625 C 20.617188 43.128906 20.222656 43.453125 22.949219 43.457031 C 26.335938 43.460938 26.332031 43.476562 23.75 41.492188 C 22.691406 40.675781 21.824219 39.945312 21.78125 39.828125 C 21.722656 39.667969 21.839844 39.179688 22.285156 37.753906 C 23.367188 34.296875 23.355469 34.183594 21.996094 35.210938 C 21.609375 35.503906 20.753906 36.152344 20.089844 36.652344 C 18.65625 37.738281 18.835938 37.738281 17.394531 36.628906 C 15.152344 34.90625 14.675781 34.589844 14.527344 34.742188 M 17.175781 38.09375 C 17.46875 38.324219 17.492188 38.679688 17.214844 38.765625 C 16.984375 38.839844 16.695312 38.542969 16.695312 38.226562 C 16.695312 37.867188 16.835938 37.828125 17.175781 38.09375 M 20.769531 38.28125 C 20.671875 38.773438 20.476562 38.914062 20.230469 38.664062 C 20.042969 38.480469 20.050781 38.398438 20.269531 38.179688 C 20.5625 37.882812 20.839844 37.9375 20.769531 38.28125 M 19.1875 39.5625 C 19.511719 39.734375 20.089844 40.378906 20.085938 40.574219 C 20.085938 40.800781 19.867188 41.601562 19.746094 41.828125 C 19.53125 42.230469 18.324219 42.332031 17.941406 41.980469 C 17.71875 41.78125 17.382812 40.738281 17.449219 40.464844 C 17.597656 39.863281 18.683594 39.300781 19.1875 39.5625 M 59.820312 40.277344 C 57.449219 40.964844 56.226562 43.675781 57.0625 46.390625 C 57.296875 47.140625 57.886719 47.769531 58.78125 48.210938 C 59.21875 48.433594 59.496094 48.644531 59.742188 48.960938 C 60.367188 49.753906 60.199219 50.039062 58.804688 50.511719 C 58.390625 50.65625 58.0625 50.839844 57.84375 51.054688 C 57.390625 51.5 57.183594 51.476562 56.402344 50.890625 C 56.050781 50.621094 55.523438 50.265625 55.234375 50.09375 C 54.058594 49.398438 53.914062 48.8125 54.625 47.628906 C 56.40625 44.652344 56.007812 42.621094 53.46875 41.808594 C 51.1875 41.082031 48.554688 41.191406 47.277344 42.066406 C 45.503906 43.273438 45.132812 44.246094 45.003906 48.050781 C 44.835938 52.949219 44.203125 53.671875 40.484375 53.242188 C 38.585938 53.019531 38.03125 51.703125 39.652344 51.257812 C 40.355469 51.066406 42.460938 51.300781 41.898438 51.507812 C 41.835938 51.53125 41.695312 51.625 41.585938 51.71875 L 41.386719 51.894531 L 41.632812 52.117188 C 42.019531 52.460938 42.71875 52.308594 43.257812 51.765625 C 44.304688 50.71875 41.710938 49.550781 39.476562 50.054688 C 37.996094 50.394531 37.027344 51.808594 37.527344 52.90625 C 38.214844 54.417969 39.242188 54.957031 41.417969 54.949219 C 45.425781 54.9375 47.382812 53.320312 47.105469 50.257812 C 46.691406 45.613281 47.394531 43.792969 49.761719 43.367188 C 52.433594 42.886719 53.808594 44.46875 52.777344 46.847656 C 51.917969 48.839844 52.066406 50.324219 53.21875 51.246094 C 54.5625 52.328125 54.609375 52.246094 52.589844 52.445312 C 50.570312 52.640625 50.359375 52.582031 50.359375 51.851562 C 50.359375 51.375 50.472656 51.25 50.816406 51.375 C 51.402344 51.578125 51.527344 50.984375 51.011719 50.445312 C 50.109375 49.492188 48.867188 51.222656 49.496094 52.566406 C 49.9375 53.503906 50.320312 53.730469 51.605469 53.804688 C 52.21875 53.839844 52.804688 53.933594 53.304688 54.085938 C 53.722656 54.214844 54.363281 54.355469 54.726562 54.402344 C 56.21875 54.601562 55.800781 55.203125 53.773438 55.796875 C 51.914062 56.335938 50.628906 56.324219 48.394531 55.75 C 46.125 55.164062 45.199219 55.164062 43.410156 55.746094 C 42.046875 56.191406 40.992188 56.753906 40.207031 57.464844 C 37.964844 59.484375 36.277344 59.964844 33.972656 59.242188 C 32.332031 58.726562 32.015625 58.402344 32.070312 57.292969 C 32.179688 55.113281 33.859375 54.105469 35.929688 54.976562 C 37.695312 55.71875 37.0625 57.5 35.214844 57 C 34.074219 56.695312 33.828125 56.328125 34.753906 56.328125 C 35.328125 56.328125 35.40625 56.28125 35.269531 56.019531 C 34.714844 54.980469 33.058594 55.546875 32.894531 56.832031 C 32.789062 57.679688 33.277344 58.015625 35.164062 58.398438 C 37.308594 58.832031 38.109375 58.417969 38.394531 56.726562 C 38.699219 54.917969 37.234375 53.59375 34.515625 53.234375 C 30.472656 52.691406 28.445312 58.566406 32.074219 60.308594 C 35.0625 61.738281 38.589844 61.308594 40.859375 59.230469 C 43.21875 57.074219 45.175781 56.574219 46.707031 57.730469 C 47.3125 58.183594 48.019531 58.550781 48.683594 58.738281 C 49.394531 58.949219 49.371094 59.105469 48.527344 59.734375 C 47.722656 60.328125 47.171875 61.042969 46.644531 62.164062 C 46.050781 63.433594 45.65625 63.753906 44.257812 64.117188 C 43.046875 64.4375 41.578125 63.730469 41.972656 63.023438 C 42.382812 62.269531 44.015625 62.332031 44.015625 63.097656 C 44.015625 63.417969 44.277344 63.582031 44.648438 63.496094 C 45.476562 63.316406 45.058594 62.441406 43.769531 61.652344 C 41.980469 60.566406 39.574219 62.535156 40.484375 64.339844 C 41.039062 65.441406 41.816406 65.769531 43.496094 65.613281 C 45.757812 65.410156 46.535156 65.019531 48.484375 63.136719 C 50.375 61.308594 50.828125 61.050781 53.882812 60.089844 C 55.773438 59.492188 55.960938 59.570312 54.890625 60.515625 C 50.894531 64.0625 45.140625 66.710938 41.964844 66.457031 C 40 66.304688 39.25 66.066406 35.957031 64.535156 C 30.894531 62.179688 27.59375 62.519531 26.121094 65.546875 C 23.996094 69.894531 28.585938 76.203125 31.617188 73.101562 C 32.957031 71.726562 33.535156 68.808594 32.652344 67.863281 C 31.828125 66.976562 29.210938 67.414062 28.386719 68.570312 C 27.632812 69.632812 28.625 71.59375 29.769531 71.308594 C 30.339844 71.164062 30.414062 70.761719 29.894531 70.625 C 28.296875 70.191406 29.082031 68.5625 30.890625 68.5625 C 32.230469 68.5625 32.097656 70.554688 30.667969 71.867188 C 28.707031 73.667969 26.347656 69.933594 27.542969 66.929688 C 28.171875 65.359375 28.742188 65.023438 30.800781 65.023438 L 32.277344 65.023438 L 34.289062 66.027344 C 38.589844 68.171875 41.714844 69.117188 44.613281 69.136719 C 46.625 69.152344 46.308594 69.464844 43.277344 70.457031 C 39.914062 71.558594 38.355469 73.234375 37.457031 76.71875 C 36.515625 80.347656 35.171875 81.59375 32.617188 81.210938 C 30.8125 80.941406 29.929688 79.410156 30.738281 77.941406 C 31.273438 76.96875 32.820312 76.816406 33.5625 77.667969 C 34.066406 78.242188 33.890625 78.613281 33.101562 78.632812 C 32.261719 78.65625 32.695312 79.371094 33.609375 79.476562 C 35.066406 79.640625 35.484375 78.242188 34.324219 77.097656 C 32.136719 74.9375 29.492188 75.746094 28.976562 78.730469 C 28.28125 82.753906 34.390625 85.175781 37.019531 81.921875 C 38.003906 80.710938 38.945312 78.964844 39.453125 77.4375 C 40.421875 74.515625 43.199219 72.742188 49.347656 71.113281 C 51.835938 70.457031 52.457031 70.277344 54.8125 69.539062 C 56.65625 68.960938 56.855469 69.125 56.472656 70.921875 C 56.144531 72.492188 55.429688 72.941406 53.746094 72.644531 C 50.746094 72.113281 49.714844 73.261719 50 76.816406 C 50.152344 78.621094 49.71875 79.121094 48.082031 79.035156 C 46.980469 78.976562 46.453125 78.589844 46.363281 77.773438 C 46.269531 76.917969 46.554688 76.519531 47.3125 76.449219 C 48.191406 76.371094 47.945312 75.414062 47 75.234375 C 45.601562 74.972656 44.820312 75.929688 44.820312 77.90625 C 44.820312 80.1875 45.613281 80.886719 48.117188 80.828125 C 49.933594 80.789062 50.421875 80.613281 51.289062 79.667969 C 52.253906 78.621094 52.410156 78.007812 52.195312 76.09375 C 52.042969 74.710938 52.664062 74.226562 54.105469 74.613281 C 56.34375 75.214844 57.925781 74.324219 59.238281 71.707031 C 59.824219 70.535156 60.5625 70.824219 60.09375 72.042969 C 59.804688 72.789062 58.96875 75.453125 58.667969 76.5625 C 58.378906 77.644531 58.269531 77.816406 57.324219 78.828125 C 56.953125 79.222656 56.242188 80.035156 55.738281 80.632812 C 54.277344 82.371094 53.496094 83.015625 52.726562 83.128906 C 52.003906 83.230469 51.210938 83.570312 50.5625 84.042969 C 49.617188 84.742188 48.992188 84.867188 48.214844 84.507812 C 47.867188 84.351562 47.613281 84.324219 46.335938 84.3125 L 44.867188 84.296875 L 44.375 84.628906 C 44.101562 84.816406 43.800781 85.03125 43.695312 85.105469 C 43.527344 85.222656 43.398438 85.226562 42.753906 85.136719 C 41.679688 84.988281 41.601562 85 41.324219 85.339844 C 40.753906 86.046875 40.660156 86.113281 40.132812 86.222656 C 39.75 86.300781 39.523438 86.304688 39.292969 86.234375 C 39.117188 86.179688 38.875 86.164062 38.761719 86.191406 C 38.644531 86.222656 38.15625 86.195312 37.679688 86.132812 L 36.808594 86.015625 L 36.285156 86.34375 C 35.992188 86.527344 35.660156 86.753906 35.535156 86.851562 C 35.410156 86.949219 34.980469 87.113281 34.574219 87.210938 C 34.167969 87.304688 33.683594 87.460938 33.503906 87.554688 C 32.855469 87.886719 31.710938 88.289062 31.058594 88.414062 C 30.691406 88.484375 30.277344 88.585938 30.132812 88.640625 C 29.988281 88.695312 29.597656 88.800781 29.265625 88.871094 C 28.929688 88.941406 28.507812 89.074219 28.324219 89.167969 C 28.140625 89.257812 27.628906 89.449219 27.1875 89.582031 C 26.339844 89.835938 26.070312 90.003906 26.070312 90.265625 C 26.070312 90.519531 26.058594 90.519531 30.195312 90.5625 C 32.367188 90.585938 35.296875 90.671875 36.695312 90.753906 C 38.957031 90.886719 39.449219 90.890625 41.15625 90.78125 C 43.429688 90.636719 53.679688 90.644531 55.667969 90.789062 C 60.824219 91.171875 65.808594 91.171875 69.777344 90.785156 C 73.480469 90.425781 77.308594 90.242188 84.464844 90.074219 C 86.675781 90.023438 88.460938 89.9375 89.0625 89.855469 C 90.203125 89.703125 92.9375 89.675781 94.5625 89.804688 C 96.941406 89.996094 100.90625 90.167969 102.84375 90.167969 C 104.277344 90.167969 105.1875 90.210938 105.941406 90.316406 C 107.457031 90.535156 111.554688 90.542969 112.8125 90.328125 C 114.527344 90.042969 116.644531 89.957031 119.183594 90.070312 C 123.390625 90.261719 124.457031 89.851562 122.925781 88.628906 C 121.972656 87.875 121.835938 87.789062 121.160156 87.519531 C 120.75 87.359375 120.4375 87.144531 119.996094 86.714844 C 119.492188 86.226562 119.34375 86.132812 119.082031 86.132812 C 118.898438 86.132812 118.660156 86.046875 118.472656 85.910156 C 117.996094 85.558594 117.65625 85.429688 116.953125 85.320312 C 116.113281 85.191406 115.867188 85.097656 115.429688 84.730469 C 115.152344 84.496094 114.988281 84.429688 114.703125 84.429688 C 114.480469 84.429688 114.222656 84.355469 114.0625 84.25 C 113.894531 84.140625 113.644531 84.070312 113.402344 84.070312 C 113.050781 84.070312 112.96875 84.027344 112.640625 83.675781 C 112.191406 83.183594 111.910156 83.101562 111.375 83.304688 C 110.734375 83.554688 110.089844 83.019531 110.089844 82.234375 C 110.089844 81.71875 109.839844 80.609375 109.636719 80.203125 C 109.527344 79.992188 109.351562 79.550781 109.234375 79.21875 C 109.125 78.894531 108.792969 78.199219 108.492188 77.683594 C 107.769531 76.421875 107.589844 75.480469 107.414062 72.058594 C 107.34375 70.660156 107.308594 70.410156 107.066406 69.730469 C 106.914062 69.308594 106.652344 68.445312 106.476562 67.804688 C 106.300781 67.164062 106.039062 66.398438 105.894531 66.109375 C 105.585938 65.507812 105.574219 65.375 105.765625 64.757812 C 105.953125 64.128906 105.824219 63.644531 105.253906 62.863281 C 105.003906 62.523438 104.703125 62.042969 104.574219 61.796875 C 104.214844 61.078125 103.90625 60.683594 103.082031 59.871094 C 102.65625 59.449219 102.007812 58.714844 101.640625 58.234375 C 101.277344 57.757812 100.707031 57.136719 100.375 56.859375 C 98.992188 55.703125 94.191406 53.359375 92.855469 53.195312 C 92.585938 53.164062 91.863281 53.03125 91.25 52.902344 C 89.515625 52.550781 86.648438 52.785156 82.492188 53.628906 C 79.316406 54.269531 77.023438 54.277344 75.84375 53.644531 C 73.792969 52.539062 70.328125 51.453125 68.859375 51.445312 C 68.097656 51.445312 68.023438 51.367188 68.292969 50.84375 C 68.867188 49.710938 68.394531 48.855469 66.683594 47.917969 C 64.691406 46.828125 63.75 46.921875 63.75 48.207031 C 63.75 49.292969 64.460938 50.164062 64.5625 49.203125 C 64.667969 48.203125 65.015625 48.046875 65.773438 48.65625 C 67.042969 49.679688 67.097656 50.015625 66.109375 50.859375 C 65.261719 51.578125 65.214844 51.59375 63.695312 51.667969 C 61.777344 51.757812 61.75 51.738281 62.246094 50.679688 C 63.027344 49.007812 62.40625 47.746094 60.234375 46.636719 C 57.601562 45.28125 58.351562 41.796875 61.3125 41.605469 C 63.238281 41.476562 63.976562 42.691406 62.308594 43.246094 C 61.570312 43.492188 61.667969 43.894531 62.515625 44.097656 C 64.011719 44.460938 64.996094 42.640625 63.960938 41.410156 C 63.28125 40.59375 60.933594 39.953125 59.820312 40.277344 M 62.023438 40.714844 C 62.917969 40.980469 63.433594 41.265625 63.773438 41.691406 C 64.484375 42.578125 63.914062 43.886719 62.847656 43.808594 C 62.351562 43.773438 62.316406 43.625 62.761719 43.425781 C 64.355469 42.703125 63.46875 41.253906 61.480469 41.332031 C 58.253906 41.457031 57.097656 45.117188 59.789062 46.6875 C 62.34375 48.179688 62.765625 48.960938 61.933594 50.675781 C 61.277344 52.027344 61.609375 52.191406 64.433594 51.921875 C 66.054688 51.761719 67.542969 50.308594 66.972656 49.441406 C 66.175781 48.226562 64.859375 47.65625 64.449219 48.355469 C 64.179688 48.816406 64.015625 48.71875 64.015625 48.089844 C 64.015625 47.34375 64.804688 47.304688 66.160156 47.984375 C 68.101562 48.953125 68.625 49.746094 67.992188 50.773438 C 67.492188 51.585938 67.699219 51.785156 69.019531 51.789062 C 69.628906 51.789062 70.113281 51.839844 70.402344 51.9375 C 70.648438 52.015625 71.316406 52.214844 71.886719 52.378906 C 73.425781 52.828125 74.066406 53.082031 75.378906 53.746094 L 76.558594 54.34375 L 77.679688 54.382812 C 78.984375 54.429688 81.046875 54.234375 82.589844 53.90625 C 86.429688 53.105469 89.34375 52.855469 91.140625 53.183594 C 91.816406 53.304688 92.546875 53.433594 92.765625 53.464844 C 93.632812 53.59375 96.671875 54.898438 98.054688 55.730469 C 98.460938 55.976562 98.96875 56.261719 99.179688 56.367188 C 99.800781 56.683594 100.753906 57.519531 101.21875 58.15625 C 101.453125 58.484375 102.128906 59.253906 102.722656 59.871094 C 103.46875 60.636719 103.914062 61.183594 104.152344 61.617188 C 104.339844 61.964844 104.667969 62.5 104.878906 62.808594 C 105.601562 63.859375 105.652344 64.085938 105.390625 64.933594 L 105.246094 65.398438 L 105.554688 66.109375 C 105.976562 67.0625 106.023438 67.203125 106.328125 68.34375 C 106.476562 68.882812 106.695312 69.609375 106.816406 69.953125 C 107.007812 70.476562 107.058594 70.851562 107.132812 72.195312 C 107.332031 75.824219 107.457031 76.433594 108.269531 77.84375 C 108.546875 78.335938 108.832031 78.910156 108.898438 79.121094 C 108.960938 79.332031 109.148438 79.820312 109.320312 80.199219 C 109.550781 80.714844 109.65625 81.113281 109.734375 81.785156 C 109.902344 83.203125 110.554688 84.019531 111.277344 83.71875 C 111.917969 83.453125 112.039062 83.476562 112.449219 83.925781 C 112.773438 84.28125 112.878906 84.339844 113.175781 84.339844 C 113.367188 84.339844 113.660156 84.421875 113.816406 84.519531 C 113.996094 84.625 114.269531 84.699219 114.496094 84.699219 C 114.796875 84.699219 114.964844 84.761719 115.234375 84.976562 C 115.738281 85.378906 115.808594 85.40625 116.71875 85.558594 C 117.339844 85.664062 117.667969 85.769531 118.042969 86 C 118.316406 86.167969 118.707031 86.339844 118.90625 86.382812 C 119.160156 86.445312 119.488281 86.65625 119.996094 87.097656 C 120.492188 87.527344 120.835938 87.757812 121.097656 87.820312 C 121.875 88.019531 123.355469 89.214844 123.140625 89.476562 C 122.914062 89.75 121.984375 89.8125 119.085938 89.753906 C 116.113281 89.691406 114.234375 89.777344 112.703125 90.050781 C 111.445312 90.269531 107.632812 90.261719 106.070312 90.035156 C 105.234375 89.90625 104.339844 89.863281 102.5 89.851562 C 100.011719 89.835938 96.617188 89.695312 94.910156 89.535156 C 93.464844 89.402344 89.839844 89.433594 88.796875 89.585938 C 88.195312 89.675781 86.515625 89.75 83.660156 89.808594 C 77.46875 89.933594 73.296875 90.132812 70.488281 90.429688 C 66.058594 90.902344 63.367188 90.917969 56.027344 90.503906 C 53.886719 90.382812 44.230469 90.363281 40.3125 90.472656 C 38.5625 90.519531 37.234375 90.507812 36.207031 90.441406 C 35.367188 90.382812 33.011719 90.3125 30.964844 90.28125 C 26.726562 90.222656 26.425781 90.171875 27.679688 89.726562 C 27.949219 89.632812 28.390625 89.476562 28.660156 89.375 C 28.929688 89.273438 29.390625 89.136719 29.6875 89.0625 C 31.222656 88.691406 31.519531 88.613281 32.054688 88.449219 C 32.371094 88.355469 32.972656 88.117188 33.394531 87.925781 C 33.8125 87.734375 34.445312 87.519531 34.796875 87.445312 C 35.238281 87.355469 35.550781 87.230469 35.78125 87.050781 C 36.632812 86.375 37.097656 86.230469 37.765625 86.4375 C 39.054688 86.824219 40.960938 86.480469 41.355469 85.777344 C 41.589844 85.363281 41.828125 85.261719 42.242188 85.40625 C 42.9375 85.648438 43.675781 85.539062 44.226562 85.105469 C 44.890625 84.589844 45.234375 84.480469 45.875 84.570312 C 46.15625 84.609375 46.6875 84.628906 47.050781 84.617188 C 47.574219 84.597656 47.8125 84.632812 48.125 84.78125 C 49.003906 85.179688 49.632812 85.035156 50.957031 84.136719 C 51.421875 83.816406 51.8125 83.625 52.144531 83.554688 C 52.410156 83.492188 52.851562 83.398438 53.117188 83.34375 C 53.703125 83.222656 54.675781 82.332031 56.238281 80.484375 C 56.761719 79.867188 57.421875 79.125 57.710938 78.828125 C 58.476562 78.042969 58.632812 77.765625 58.964844 76.582031 C 59.402344 74.992188 60.140625 72.671875 60.347656 72.191406 C 60.714844 71.363281 60.464844 70.636719 59.8125 70.628906 C 59.519531 70.628906 59.375 70.792969 59 71.566406 C 57.804688 74.042969 56.390625 74.867188 54.242188 74.347656 C 52.15625 73.84375 51.695312 74.449219 52.019531 77.28125 C 52.167969 78.613281 50.734375 80.265625 49.238281 80.480469 C 46.285156 80.910156 45.089844 80.179688 45.089844 77.941406 C 45.089844 76.035156 45.9375 75.070312 47.164062 75.585938 C 47.636719 75.78125 47.625 76.054688 47.144531 76.117188 C 46.359375 76.222656 46.015625 76.761719 46.09375 77.757812 C 46.171875 78.714844 46.65625 79.148438 47.835938 79.316406 C 49.710938 79.585938 50.464844 78.824219 50.285156 76.84375 C 49.992188 73.582031 50.921875 72.433594 53.476562 72.898438 C 55.59375 73.289062 56.480469 72.742188 56.785156 70.863281 C 57.113281 68.816406 56.839844 68.585938 54.84375 69.226562 C 53.09375 69.789062 52.144531 70.078125 51.070312 70.355469 C 46.832031 71.472656 46.738281 71.5 45.398438 72.019531 C 42.246094 73.242188 39.710938 75.296875 39.320312 76.945312 C 39.027344 78.199219 37.652344 80.792969 36.753906 81.792969 C 33.988281 84.871094 28.339844 82.308594 29.320312 78.421875 C 29.8125 76.492188 31.273438 75.671875 32.871094 76.4375 C 34.460938 77.199219 35.191406 78.34375 34.441406 78.902344 C 33.871094 79.324219 33.277344 79.25 33.816406 78.824219 C 35 77.878906 32.714844 76.25 31.28125 77.011719 C 29.949219 77.722656 29.800781 79.941406 31.023438 80.878906 C 31.960938 81.597656 33.839844 81.789062 34.929688 81.277344 C 36.308594 80.632812 37.148438 79.253906 37.765625 76.65625 C 38.523438 73.484375 40.152344 71.769531 43.421875 70.710938 C 45.964844 69.886719 46.949219 69.316406 46.488281 68.9375 C 46.417969 68.878906 45.660156 68.824219 44.503906 68.800781 C 41.476562 68.742188 38.785156 67.941406 34.464844 65.804688 L 32.367188 64.769531 L 31.429688 64.691406 C 28.792969 64.484375 27.457031 65.402344 27 67.726562 C 26.570312 69.910156 28.03125 72.6875 29.613281 72.6875 C 31.117188 72.6875 32.792969 69.695312 31.855469 68.675781 C 31.019531 67.765625 28.945312 68.40625 28.679688 69.660156 L 28.597656 70.046875 L 28.492188 69.773438 C 27.828125 68.148438 31.867188 66.773438 32.644531 68.359375 C 33.140625 69.371094 32.4375 71.867188 31.355469 72.957031 C 28.664062 75.65625 24.464844 69.722656 26.296875 65.804688 C 27.699219 62.804688 30.882812 62.484375 35.917969 64.835938 C 38.164062 65.878906 39.070312 66.234375 40.226562 66.511719 C 43.914062 67.386719 48.847656 65.609375 54.210938 61.46875 C 56.722656 59.527344 56.804688 58.859375 54.445312 59.597656 C 50.792969 60.738281 49.796875 61.277344 48.238281 62.960938 C 46.707031 64.621094 45.65625 65.148438 43.503906 65.347656 C 41.96875 65.484375 41.203125 65.171875 40.742188 64.21875 C 39.96875 62.644531 42.261719 60.804688 43.578125 61.933594 L 43.882812 62.191406 L 43.277344 62.195312 C 41.082031 62.210938 41.023438 64.039062 43.207031 64.441406 C 44.789062 64.726562 46.113281 63.941406 46.933594 62.214844 C 47.5 61.035156 48.011719 60.421875 48.941406 59.8125 C 50.027344 59.101562 49.9375 58.785156 48.511719 58.359375 C 48.085938 58.230469 47.589844 57.976562 47.015625 57.589844 C 45.078125 56.289062 43.273438 56.679688 40.761719 58.949219 C 39.027344 60.507812 37.507812 61 35.144531 60.769531 C 31.105469 60.371094 29.554688 58.453125 30.929688 55.546875 C 32.007812 53.269531 35.101562 52.800781 37.308594 54.582031 C 38.390625 55.453125 38.4375 57.4375 37.394531 58.074219 C 36.734375 58.480469 34.195312 58.121094 33.433594 57.519531 C 33.132812 57.28125 33.203125 56.105469 33.519531 56.105469 C 33.539062 56.105469 33.617188 56.082031 33.699219 56.050781 C 33.8125 56.007812 33.839844 56.0625 33.839844 56.300781 C 33.839844 57.0625 35.8125 57.765625 36.585938 57.277344 C 37.734375 56.550781 37.253906 55.0625 35.714844 54.605469 C 33.582031 53.976562 32.15625 54.816406 31.785156 56.90625 C 31.546875 58.25 31.921875 58.804688 33.457031 59.359375 C 36.152344 60.335938 37.894531 59.929688 40.269531 57.777344 C 42.394531 55.84375 45.171875 55.222656 48.214844 55.996094 C 50.757812 56.640625 51.550781 56.667969 53.433594 56.183594 C 55.148438 55.746094 55.890625 55.328125 55.890625 54.820312 C 55.890625 54.308594 55.75 54.214844 54.828125 54.117188 C 54.367188 54.074219 53.847656 53.976562 53.671875 53.902344 C 53.171875 53.691406 52.625 53.585938 51.585938 53.507812 C 50.210938 53.40625 49.652344 52.902344 49.644531 51.773438 C 49.640625 50.949219 50.285156 50.21875 50.671875 50.605469 C 50.8125 50.75 50.800781 50.765625 50.523438 50.855469 C 49.945312 51.042969 49.785156 52.046875 50.257812 52.523438 C 50.625 52.890625 50.863281 52.917969 52.179688 52.757812 C 52.824219 52.675781 53.574219 52.609375 53.847656 52.609375 C 54.777344 52.609375 54.917969 52.164062 54.148438 51.625 C 52.835938 50.699219 52.429688 50 52.527344 48.847656 C 52.574219 48.292969 52.667969 47.972656 53.222656 46.46875 C 53.988281 44.390625 52.933594 43.078125 50.492188 43.070312 C 47.609375 43.054688 46.230469 45.324219 46.738281 49.238281 C 47.171875 52.542969 46.011719 54.214844 43.035156 54.578125 C 40.214844 54.925781 38.792969 54.523438 37.96875 53.148438 C 37.242188 51.933594 38.15625 50.554688 39.878906 50.277344 C 41.75 49.96875 44.050781 51.046875 42.855469 51.667969 C 42.511719 51.847656 42.5 51.84375 42.5 51.535156 C 42.5 51.117188 42.242188 50.933594 41.570312 50.859375 C 39.328125 50.617188 37.921875 51.546875 38.664062 52.773438 C 39.355469 53.914062 43.113281 53.960938 44.222656 52.839844 C 45.015625 52.054688 45.144531 51.472656 45.269531 48.304688 C 45.40625 44.753906 45.609375 44.003906 46.691406 42.925781 C 48.121094 41.503906 50.496094 41.199219 53.363281 42.082031 C 55.507812 42.738281 56.078125 44.777344 54.703125 46.902344 C 54.144531 47.769531 53.929688 48.296875 53.929688 48.800781 C 53.929688 49.542969 54.050781 49.675781 55.714844 50.761719 C 55.984375 50.9375 56.40625 51.222656 56.652344 51.398438 C 57.246094 51.816406 57.476562 51.804688 57.96875 51.328125 C 58.253906 51.046875 58.53125 50.886719 58.96875 50.742188 C 60.039062 50.386719 60.355469 50.136719 60.355469 49.628906 C 60.355469 49.074219 59.679688 48.316406 58.800781 47.894531 C 57.71875 47.367188 57.304688 46.726562 57.140625 45.292969 C 56.757812 41.996094 59.046875 39.851562 62.023438 40.714844 M 16.296875 41.808594 C 16.296875 42.0625 16.273438 42.082031 15.914062 42.105469 C 15.488281 42.136719 15.402344 41.96875 15.6875 41.65625 C 15.929688 41.386719 16.296875 41.476562 16.296875 41.808594 M 21.800781 41.644531 C 21.890625 41.722656 21.960938 41.867188 21.960938 41.964844 C 21.960938 42.203125 21.222656 42.160156 21.175781 41.917969 C 21.097656 41.507812 21.472656 41.347656 21.800781 41.644531 M 19.007812 43.683594 C 19.140625 43.835938 19.046875 44.269531 18.871094 44.335938 C 18.601562 44.441406 18.324219 43.835938 18.542969 43.613281 C 18.644531 43.511719 18.902344 43.550781 19.007812 43.683594 M 44.6875 62.917969 C 44.6875 62.980469 44.636719 63.054688 44.574219 63.074219 C 44.507812 63.097656 44.464844 63.035156 44.464844 62.917969 C 44.464844 62.800781 44.507812 62.738281 44.574219 62.761719 C 44.636719 62.78125 44.6875 62.851562 44.6875 62.917969 M 29.285156 70.8125 C 29.285156 70.871094 29.222656 70.867188 29.109375 70.804688 C 29.011719 70.753906 28.925781 70.671875 28.925781 70.621094 C 28.925781 70.558594 28.992188 70.5625 29.109375 70.628906 C 29.207031 70.679688 29.285156 70.761719 29.285156 70.8125 M 78.59375 74.578125 C 78.363281 74.820312 78.476562 75.234375 79.007812 76.113281 C 80.734375 78.957031 80.8125 79.25 80.171875 80.542969 C 79.632812 81.632812 79.632812 81.621094 80.445312 82.347656 C 81.199219 83.007812 81.367188 83.050781 82.660156 82.917969 C 83.1875 82.859375 83.828125 82.8125 84.089844 82.8125 C 85.089844 82.816406 85.089844 82.824219 84.792969 78.917969 C 84.457031 74.535156 84.589844 74.847656 82.980469 74.792969 C 82.347656 74.773438 81.625 74.71875 81.378906 74.664062 C 80.535156 74.503906 78.71875 74.449219 78.59375 74.578125 M 81.234375 74.933594 C 81.59375 74.980469 82.351562 75.042969 82.917969 75.078125 C 84.320312 75.15625 84.1875 74.882812 84.421875 78.152344 C 84.496094 79.214844 84.597656 80.300781 84.644531 80.570312 C 84.953125 82.296875 84.839844 82.441406 83.011719 82.601562 C 81.382812 82.742188 81.347656 82.734375 80.640625 82.089844 C 80 81.503906 80 81.523438 80.390625 80.761719 C 80.558594 80.433594 80.765625 79.957031 80.847656 79.703125 L 81 79.230469 L 80.527344 78.269531 C 80.265625 77.738281 79.78125 76.84375 79.449219 76.277344 C 78.492188 74.664062 78.578125 74.597656 81.234375 74.933594 M 69.164062 75.777344 C 69.09375 75.851562 68.648438 76.488281 68.179688 77.191406 C 67.296875 78.523438 67.402344 78.414062 64.589844 80.96875 C 63.871094 81.621094 63.953125 82.0625 64.738281 81.785156 C 65.203125 81.617188 65.433594 81.617188 65.8125 81.777344 C 66.457031 82.039062 67.84375 82.046875 68.519531 81.792969 C 69.277344 81.503906 69.402344 81.503906 69.945312 81.796875 C 70.398438 82.035156 70.386719 82.035156 71.4375 81.867188 C 71.648438 81.832031 71.859375 81.863281 72.039062 81.957031 C 72.402344 82.144531 72.984375 82.132812 74.015625 81.925781 C 75.679688 81.585938 75.515625 80.984375 73.304688 79.332031 C 72.933594 79.058594 72.441406 78.671875 72.199219 78.480469 C 71.765625 78.121094 70.664062 76.789062 70.277344 76.160156 C 69.964844 75.648438 69.46875 75.476562 69.164062 75.777344 M 70.066406 76.34375 C 70.695312 77.351562 71.640625 78.421875 72.425781 79.007812 C 75.175781 81.070312 75.335938 81.363281 73.863281 81.664062 C 72.859375 81.871094 72.546875 81.871094 72.054688 81.644531 C 71.667969 81.46875 71.636719 81.46875 71.109375 81.609375 L 70.5625 81.761719 L 70.109375 81.523438 C 69.535156 81.234375 69.246094 81.234375 68.417969 81.519531 C 67.710938 81.769531 66.289062 81.71875 65.71875 81.433594 C 65.59375 81.371094 65.382812 81.292969 65.242188 81.257812 C 64.898438 81.175781 64.9375 81.054688 65.46875 80.589844 C 66.953125 79.273438 67.695312 78.457031 68.492188 77.246094 C 69.445312 75.804688 69.652344 75.6875 70.066406 76.34375 M 97.082031 77.4375 C 96.816406 77.542969 94.984375 78.914062 93.980469 79.75 C 93.539062 80.121094 92.953125 80.5625 92.679688 80.738281 C 91.210938 81.664062 91.398438 82.121094 93.214844 82.015625 C 94.117188 81.960938 94.398438 81.976562 94.6875 82.082031 C 94.898438 82.164062 95.574219 82.246094 96.335938 82.289062 C 99.539062 82.46875 99.722656 82.492188 100.625 82.832031 C 101.734375 83.253906 102.199219 83.3125 103.039062 83.132812 C 103.402344 83.050781 103.9375 82.945312 104.226562 82.890625 C 106.167969 82.53125 105.414062 81.039062 103.214844 80.902344 C 101.035156 80.765625 98.027344 79.113281 97.808594 77.933594 C 97.773438 77.757812 97.664062 77.550781 97.5625 77.480469 C 97.347656 77.332031 97.347656 77.332031 97.082031 77.4375 M 97.5625 78.195312 C 97.71875 78.648438 98.003906 78.953125 98.839844 79.539062 C 100.339844 80.589844 101.636719 81.082031 103.203125 81.199219 C 104.917969 81.324219 105.671875 82.152344 104.429688 82.539062 C 102.976562 82.992188 101.753906 82.996094 100.671875 82.546875 C 100.058594 82.292969 99.796875 82.242188 98.882812 82.1875 C 98.296875 82.148438 97.671875 82.074219 97.5 82.019531 C 97.300781 81.953125 96.878906 81.9375 96.335938 81.972656 C 95.640625 82.019531 95.414062 82 95.042969 81.863281 C 94.699219 81.734375 94.339844 81.695312 93.4375 81.695312 C 91.976562 81.695312 91.910156 81.605469 92.875 80.949219 C 93.234375 80.707031 93.808594 80.269531 94.152344 79.976562 C 96.683594 77.84375 97.324219 77.507812 97.5625 78.195312 M 25.3125 96.027344 C 23.183594 96.703125 22.273438 99.964844 23.523438 102.441406 C 24.628906 104.628906 27.785156 104.625 28.890625 102.433594 C 29.625 100.980469 28.207031 100.5 27.367188 101.914062 C 26.191406 103.890625 24.242188 101.625 24.8125 98.949219 C 25.203125 97.121094 26.691406 96.714844 27.457031 98.234375 C 27.929688 99.167969 29.101562 99.226562 29.105469 98.316406 C 29.117188 96.824219 26.933594 95.511719 25.3125 96.027344 M 122.632812 96.023438 C 119.066406 97.207031 119.675781 104.082031 123.347656 104.082031 C 124.730469 104.082031 126.007812 103.226562 126.355469 102.074219 C 126.601562 101.246094 125.371094 100.660156 124.964844 101.414062 C 123.542969 104.082031 121.320312 101.84375 122.191406 98.617188 C 122.609375 97.054688 124.027344 96.832031 124.730469 98.226562 C 125.230469 99.21875 126.589844 99.203125 126.394531 98.207031 C 126.070312 96.601562 124.1875 95.503906 122.632812 96.023438 M 29.886719 96.050781 C 29.710938 96.101562 29.464844 96.523438 29.464844 96.78125 C 29.464844 97.207031 29.792969 97.425781 30.429688 97.425781 C 30.757812 97.425781 31.125 97.476562 31.25 97.539062 L 31.472656 97.65625 L 31.519531 100.640625 L 31.5625 103.628906 L 31.773438 103.796875 C 32.097656 104.0625 32.800781 104.035156 33.082031 103.75 L 33.304688 103.53125 L 33.304688 100.679688 C 33.308594 97.304688 33.257812 97.433594 34.574219 97.425781 C 35.289062 97.425781 35.621094 96.785156 35.1875 96.246094 L 35.015625 96.039062 L 32.53125 96.023438 C 31.164062 96.015625 29.972656 96.027344 29.886719 96.050781 M 36.636719 96.082031 C 36.265625 96.230469 36.25 96.375 36.25 100.023438 L 36.25 103.53125 L 36.46875 103.75 C 36.757812 104.039062 37.410156 104.0625 37.675781 103.789062 C 37.839844 103.628906 37.859375 103.492188 37.859375 102.453125 C 37.859375 100.667969 37.867188 100.65625 39.246094 100.65625 C 40.632812 100.652344 40.570312 100.578125 40.625 102.324219 C 40.667969 103.726562 40.671875 103.742188 40.894531 103.851562 C 41.265625 104.046875 41.765625 103.996094 42.015625 103.75 L 42.230469 103.53125 L 42.230469 100.070312 C 42.230469 95.996094 42.230469 96 41.367188 95.992188 C 40.703125 95.988281 40.609375 96.199219 40.589844 97.738281 C 40.574219 99.183594 40.59375 99.164062 39.300781 99.203125 C 37.90625 99.246094 37.910156 99.25 37.875 97.617188 C 37.839844 96.0625 37.550781 95.710938 36.636719 96.082031 M 44.132812 96.207031 L 43.882812 96.425781 L 43.890625 99.1875 C 43.894531 101.613281 43.917969 102.011719 44.058594 102.441406 C 44.726562 104.449219 48.175781 104.679688 49.171875 102.78125 L 49.417969 102.3125 L 49.445312 99.34375 L 49.472656 96.367188 L 49.226562 96.171875 C 49.042969 96.03125 48.902344 95.992188 48.707031 96.03125 C 48.167969 96.140625 48.171875 96.105469 48.125 99.066406 C 48.09375 100.984375 48.046875 101.832031 47.96875 101.96875 C 47.644531 102.535156 46.945312 102.742188 46.308594 102.460938 C 45.605469 102.148438 45.589844 102.082031 45.539062 99.007812 L 45.492188 96.332031 L 45.277344 96.164062 C 44.976562 95.917969 44.449219 95.9375 44.132812 96.207031 M 51.398438 96.175781 L 51.160156 96.363281 L 51.160156 99.988281 C 51.160156 104.492188 50.839844 103.96875 53.605469 103.96875 C 56.058594 103.96875 56.117188 103.949219 56.117188 103.207031 C 56.117188 102.519531 55.953125 102.445312 54.453125 102.445312 C 52.707031 102.445312 52.855469 102.738281 52.855469 99.351562 C 52.855469 96.402344 52.824219 96.164062 52.390625 96.050781 C 52.003906 95.945312 51.628906 95.992188 51.398438 96.175781 M 57.4375 96.207031 L 57.1875 96.425781 L 57.1875 103.628906 L 57.398438 103.796875 C 57.71875 104.058594 58.34375 104.03125 58.621094 103.75 C 58.832031 103.539062 58.835938 103.488281 58.835938 102.273438 C 58.835938 100.628906 58.816406 100.652344 60.179688 100.652344 C 61.542969 100.652344 61.519531 100.621094 61.519531 102.304688 C 61.519531 103.597656 61.519531 103.597656 61.75 103.785156 C 62.292969 104.210938 63.117188 103.933594 63.132812 103.316406 C 63.136719 103.160156 63.136719 101.535156 63.136719 99.710938 L 63.128906 96.398438 L 62.898438 96.191406 C 62.574219 95.910156 62.03125 95.917969 61.734375 96.210938 C 61.527344 96.425781 61.519531 96.480469 61.519531 97.628906 C 61.519531 99.214844 61.558594 99.164062 60.238281 99.203125 C 58.828125 99.242188 58.835938 99.253906 58.835938 97.703125 C 58.835938 96.378906 58.820312 96.300781 58.476562 96.121094 C 58.101562 95.929688 57.726562 95.960938 57.4375 96.207031 M 65.199219 96.082031 C 64.839844 96.234375 64.808594 96.511719 64.839844 99.445312 C 64.871094 102.609375 64.890625 102.699219 65.667969 103.421875 C 66.679688 104.355469 68.703125 104.28125 69.753906 103.269531 C 70.359375 102.683594 70.402344 102.429688 70.402344 99.1875 L 70.402344 96.332031 L 70.183594 96.15625 C 70.023438 96.027344 69.886719 95.992188 69.691406 96.03125 C 69.148438 96.140625 69.15625 96.109375 69.109375 99.019531 C 69.050781 102.324219 68.886719 102.734375 67.6875 102.585938 C 66.617188 102.449219 66.574219 102.3125 66.519531 99.070312 C 66.476562 96.707031 66.453125 96.335938 66.324219 96.207031 C 66.152344 96.035156 65.488281 95.957031 65.199219 96.082031 M 75.488281 96.210938 L 75.265625 96.433594 L 75.265625 103.597656 L 75.503906 103.785156 C 76.035156 104.207031 76.867188 103.921875 76.878906 103.316406 C 76.902344 101.902344 76.964844 101.070312 77.058594 100.960938 C 77.351562 100.605469 78.839844 100.894531 78.839844 101.3125 C 78.839844 101.34375 79.046875 101.902344 79.300781 102.542969 C 79.8125 103.835938 79.9375 103.96875 80.628906 103.96875 C 81.492188 103.96875 81.519531 103.734375 80.847656 102.109375 C 80.25 100.664062 80.25 100.664062 80.808594 100.085938 C 81.972656 98.894531 81.753906 97.070312 80.355469 96.351562 C 79.492188 95.910156 75.894531 95.808594 75.488281 96.210938 M 83.253906 96.195312 L 83.007812 96.414062 L 82.984375 99.808594 C 82.949219 104.402344 82.660156 103.96875 85.710938 103.96875 C 88.175781 103.96875 88.257812 103.945312 88.257812 103.25 C 88.257812 102.597656 88.09375 102.535156 86.417969 102.535156 C 84.695312 102.535156 84.640625 102.511719 84.640625 101.613281 C 84.640625 100.710938 84.699219 100.675781 86.019531 100.640625 C 87.304688 100.605469 87.5 100.511719 87.5 99.9375 C 87.5 99.363281 87.304688 99.265625 86.015625 99.230469 C 84.699219 99.191406 84.640625 99.15625 84.640625 98.273438 C 84.640625 97.441406 84.675781 97.425781 86.371094 97.425781 C 87.945312 97.425781 88.214844 97.324219 88.214844 96.722656 C 88.214844 96.066406 88.125 96.039062 85.6875 96.011719 L 83.503906 95.984375 L 83.253906 96.195312 M 89.847656 96.078125 C 89.480469 96.234375 89.464844 96.375 89.464844 100.023438 L 89.464844 103.53125 L 89.683594 103.75 C 89.851562 103.917969 89.996094 103.96875 90.3125 103.96875 C 91.050781 103.96875 91.164062 103.761719 91.164062 102.367188 C 91.164062 100.90625 91.148438 100.921875 92.472656 100.921875 C 94.441406 100.921875 95.613281 99.925781 95.519531 98.328125 C 95.457031 97.339844 95.027344 96.710938 94.109375 96.269531 C 93.582031 96.019531 90.332031 95.875 89.847656 96.078125 M 96.992188 96.101562 C 96.636719 96.269531 96.597656 96.621094 96.640625 99.367188 C 96.6875 102.417969 96.738281 102.675781 97.394531 103.332031 C 98.203125 104.140625 99.726562 104.332031 100.84375 103.773438 C 102.117188 103.132812 102.230469 102.761719 102.230469 99.171875 C 102.230469 96.03125 102.234375 96.046875 101.554688 96.046875 C 100.941406 96.046875 100.941406 96.042969 100.890625 99.082031 C 100.851562 101.652344 100.835938 101.820312 100.664062 102.058594 C 100.226562 102.65625 99.320312 102.773438 98.757812 102.304688 C 98.367188 101.972656 98.304688 101.492188 98.304688 98.808594 L 98.304688 96.433594 L 98.082031 96.210938 C 97.847656 95.972656 97.355469 95.921875 96.992188 96.101562 M 104.15625 96.203125 L 103.925781 96.433594 L 103.925781 100.003906 C 103.925781 102.945312 103.949219 103.609375 104.054688 103.75 C 104.210938 103.960938 107.355469 104.066406 108.179688 103.882812 C 109.820312 103.523438 110.433594 101.410156 109.226562 100.269531 C 108.859375 99.921875 108.851562 99.730469 109.191406 99.347656 C 110.039062 98.378906 109.628906 96.792969 108.394531 96.226562 C 108.039062 96.066406 107.773438 96.039062 106.1875 96.007812 L 104.382812 95.972656 L 104.15625 96.203125 M 111.484375 96.175781 L 111.25 96.363281 L 111.25 99.988281 C 111.25 104.492188 110.925781 103.96875 113.695312 103.96875 C 116.144531 103.96875 116.203125 103.949219 116.203125 103.207031 C 116.203125 102.519531 116.046875 102.445312 114.542969 102.445312 C 112.789062 102.445312 112.945312 102.753906 112.945312 99.257812 L 112.945312 96.433594 L 112.726562 96.210938 C 112.441406 95.925781 111.828125 95.90625 111.484375 96.175781 M 117.617188 96.09375 C 117.511719 96.148438 117.375 96.316406 117.324219 96.464844 C 117.199219 96.832031 117.199219 103.128906 117.324219 103.496094 C 117.492188 103.972656 118.25 104.132812 118.695312 103.785156 L 118.929688 103.597656 L 118.929688 100.03125 C 118.929688 96.734375 118.917969 96.445312 118.769531 96.261719 C 118.582031 96.03125 117.925781 95.9375 117.617188 96.09375 M 27.128906 96.335938 C 28.554688 96.878906 29.492188 98.976562 28.164062 98.640625 C 28.023438 98.605469 27.875 98.441406 27.730469 98.160156 C 26.511719 95.742188 24.351562 97.148438 24.484375 100.261719 C 24.59375 102.792969 26.699219 103.925781 27.683594 101.984375 C 28.152344 101.0625 29.089844 101.269531 28.679688 102.203125 C 27.828125 104.132812 25.15625 104.359375 23.976562 102.605469 C 21.984375 99.648438 24.207031 95.226562 27.128906 96.335938 M 124.386719 96.347656 C 125.523438 96.699219 126.546875 98.289062 125.847656 98.605469 C 125.519531 98.757812 125.226562 98.585938 125.015625 98.125 C 124.121094 96.132812 122.078125 96.847656 121.769531 99.261719 C 121.363281 102.429688 123.8125 104.300781 125.09375 101.804688 C 125.289062 101.425781 125.5 101.328125 125.835938 101.453125 C 126.648438 101.765625 125.429688 103.429688 124.195312 103.691406 C 122.164062 104.128906 120.757812 102.84375 120.566406 100.375 C 120.339844 97.535156 122.132812 95.648438 124.386719 96.347656 M 33.855469 96.347656 C 34.601562 96.347656 34.835938 96.378906 34.949219 96.492188 C 35.304688 96.847656 34.996094 97.15625 34.285156 97.15625 C 33.015625 97.15625 33.039062 97.089844 33.039062 100.496094 C 33.035156 103.65625 33.023438 103.699219 32.425781 103.699219 C 31.847656 103.699219 31.859375 103.769531 31.84375 100.53125 L 31.828125 97.59375 L 31.582031 97.371094 C 31.367188 97.1875 31.234375 97.15625 30.679688 97.15625 C 29.890625 97.15625 29.515625 96.804688 29.9375 96.457031 C 30.050781 96.355469 31.957031 96.261719 32.589844 96.320312 C 32.761719 96.335938 33.332031 96.347656 33.855469 96.347656 M 79.828125 96.449219 C 81.363281 96.832031 81.757812 98.800781 80.53125 99.949219 C 79.953125 100.492188 79.953125 100.675781 80.535156 102.113281 C 81.046875 103.390625 81.074219 103.585938 80.757812 103.664062 C 80.164062 103.8125 79.882812 103.449219 79.316406 101.78125 C 78.929688 100.636719 78.644531 100.429688 77.589844 100.53125 C 76.6875 100.617188 76.664062 100.65625 76.609375 102.191406 C 76.554688 103.667969 76.277344 104.082031 75.699219 103.554688 C 75.484375 103.355469 75.441406 96.628906 75.652344 96.457031 C 75.871094 96.269531 79.109375 96.265625 79.828125 96.449219 M 87.648438 96.398438 C 87.914062 96.457031 87.972656 96.769531 87.757812 96.992188 C 87.59375 97.152344 87.46875 97.164062 86.21875 97.148438 C 84.378906 97.125 84.253906 97.214844 84.367188 98.484375 C 84.453125 99.445312 84.523438 99.492188 85.902344 99.539062 C 86.808594 99.570312 87.03125 99.605469 87.121094 99.726562 C 87.421875 100.140625 87.125 100.292969 86.035156 100.292969 C 84.511719 100.292969 84.375 100.398438 84.375 101.578125 C 84.375 102.761719 84.367188 102.753906 86.195312 102.769531 C 87.808594 102.777344 87.945312 102.816406 87.945312 103.257812 C 87.945312 103.683594 87.777344 103.710938 85.53125 103.683594 C 83.820312 103.660156 83.460938 103.632812 83.390625 103.523438 C 83.253906 103.304688 83.277344 96.574219 83.414062 96.460938 C 83.609375 96.304688 86.96875 96.253906 87.648438 96.398438 M 93.839844 96.457031 C 95.574219 97.007812 95.730469 99.5 94.085938 100.355469 C 93.667969 100.574219 93.492188 100.605469 92.441406 100.648438 C 90.851562 100.714844 90.890625 100.675781 90.890625 102.1875 C 90.890625 103.589844 90.589844 104.054688 89.976562 103.589844 C 89.78125 103.441406 89.664062 96.996094 89.847656 96.617188 C 90.015625 96.285156 92.925781 96.167969 93.839844 96.457031 M 37.496094 96.523438 C 37.546875 96.621094 37.589844 97.1875 37.589844 97.785156 C 37.589844 99.457031 37.617188 99.484375 39.300781 99.488281 C 40.820312 99.488281 40.839844 99.46875 40.878906 97.816406 C 40.914062 96.464844 40.953125 96.347656 41.386719 96.347656 C 41.925781 96.347656 41.921875 96.328125 41.921875 99.835938 C 41.925781 103.867188 41.9375 103.804688 41.246094 103.65625 C 40.898438 103.578125 40.859375 103.410156 40.855469 101.976562 C 40.847656 100.421875 40.816406 100.375 39.746094 100.3125 C 37.765625 100.199219 37.589844 100.347656 37.589844 102.121094 C 37.589844 103.671875 37.375 104.042969 36.738281 103.574219 C 36.496094 103.398438 36.460938 96.589844 36.699219 96.441406 C 36.9375 96.285156 37.398438 96.332031 37.496094 96.523438 M 45.152344 96.464844 C 45.191406 96.527344 45.242188 97.765625 45.265625 99.21875 C 45.324219 102.539062 45.464844 102.851562 46.875 102.839844 C 48.234375 102.824219 48.394531 102.449219 48.394531 99.226562 C 48.398438 96.695312 48.4375 96.421875 48.8125 96.367188 C 49.183594 96.3125 49.210938 96.550781 49.179688 99.472656 C 49.152344 102.113281 49.144531 102.234375 48.957031 102.59375 C 48.089844 104.21875 45.308594 104.210938 44.433594 102.578125 C 44.203125 102.148438 44.078125 96.738281 44.292969 96.480469 C 44.421875 96.320312 45.054688 96.308594 45.152344 96.464844 M 52.472656 96.617188 C 52.550781 96.777344 52.582031 97.59375 52.582031 99.574219 L 52.582031 102.3125 L 52.8125 102.511719 C 53.03125 102.699219 53.128906 102.714844 54.253906 102.714844 C 55.636719 102.714844 55.804688 102.765625 55.804688 103.207031 C 55.804688 103.671875 55.671875 103.699219 53.644531 103.699219 C 52.140625 103.699219 51.789062 103.675781 51.625 103.5625 L 51.429688 103.421875 L 51.429688 99.996094 C 51.429688 97.375 51.457031 96.539062 51.539062 96.457031 C 51.734375 96.253906 52.34375 96.363281 52.472656 96.617188 M 58.449219 96.578125 C 58.570312 96.765625 58.585938 96.945312 58.542969 97.632812 C 58.429688 99.296875 58.585938 99.488281 60.105469 99.488281 C 61.761719 99.488281 61.785156 99.464844 61.785156 97.816406 C 61.785156 96.503906 61.839844 96.347656 62.304688 96.347656 C 62.875 96.347656 62.855469 96.230469 62.855469 99.992188 C 62.855469 103.734375 62.859375 103.699219 62.34375 103.699219 C 61.84375 103.699219 61.785156 103.535156 61.785156 102.089844 C 61.785156 100.355469 61.730469 100.300781 60.136719 100.296875 C 58.652344 100.292969 58.570312 100.378906 58.570312 101.984375 C 58.570312 103.25 58.503906 103.5625 58.210938 103.65625 C 57.949219 103.742188 57.621094 103.644531 57.546875 103.457031 C 57.441406 103.183594 57.492188 96.601562 57.601562 96.46875 C 57.777344 96.257812 58.28125 96.320312 58.449219 96.578125 M 66.113281 96.550781 C 66.230469 96.71875 66.25 97.132812 66.25 99.257812 C 66.25 101.472656 66.269531 101.8125 66.40625 102.085938 C 66.914062 103.101562 68.621094 103.128906 69.144531 102.128906 C 69.316406 101.800781 69.332031 101.585938 69.375 99.148438 C 69.417969 96.425781 69.429688 96.355469 69.792969 96.351562 C 70.34375 96.34375 70.359375 101.738281 69.808594 102.714844 C 68.929688 104.292969 66.085938 104.125 65.324219 102.453125 C 65.066406 101.878906 64.972656 96.941406 65.214844 96.574219 C 65.414062 96.273438 65.90625 96.261719 66.113281 96.550781 M 97.917969 96.464844 C 97.957031 96.527344 98.011719 97.765625 98.035156 99.21875 C 98.089844 102.53125 98.234375 102.855469 99.644531 102.847656 C 100.976562 102.839844 101.105469 102.53125 101.164062 99.191406 C 101.207031 96.425781 101.21875 96.355469 101.578125 96.351562 C 101.960938 96.34375 101.980469 96.511719 101.945312 99.433594 C 101.910156 102.410156 101.894531 102.539062 101.445312 103.015625 C 100.234375 104.300781 97.722656 103.9375 97.148438 102.390625 C 96.925781 101.800781 96.859375 96.667969 97.074219 96.460938 C 97.214844 96.316406 97.828125 96.316406 97.917969 96.464844 M 108.160156 96.460938 C 109.3125 96.804688 109.703125 98.28125 108.898438 99.226562 C 108.480469 99.714844 108.480469 99.960938 108.894531 100.324219 C 109.960938 101.269531 109.761719 102.800781 108.480469 103.488281 C 107.972656 103.761719 104.648438 103.792969 104.382812 103.527344 C 104.128906 103.273438 104.089844 96.742188 104.335938 96.492188 C 104.515625 96.308594 107.574219 96.285156 108.160156 96.460938 M 112.585938 96.523438 C 112.644531 96.632812 112.675781 97.738281 112.675781 99.5 C 112.675781 103.003906 112.53125 102.714844 114.308594 102.714844 C 115.726562 102.714844 115.894531 102.765625 115.894531 103.207031 C 115.894531 103.671875 115.761719 103.699219 113.730469 103.699219 C 112.234375 103.699219 111.878906 103.675781 111.71875 103.5625 L 111.515625 103.421875 L 111.515625 99.996094 C 111.515625 97.445312 111.542969 96.539062 111.628906 96.460938 C 111.804688 96.273438 112.480469 96.320312 112.585938 96.523438 M 118.519531 96.492188 C 118.738281 96.710938 118.734375 103.292969 118.511719 103.539062 C 118.332031 103.738281 118.050781 103.746094 117.789062 103.5625 L 117.589844 103.421875 L 117.589844 99.996094 C 117.589844 97.445312 117.617188 96.539062 117.695312 96.460938 C 117.847656 96.304688 118.355469 96.324219 118.519531 96.492188 M 76.867188 97.328125 C 76.617188 97.582031 76.609375 97.625 76.609375 98.414062 C 76.609375 99.578125 76.78125 99.753906 77.917969 99.753906 C 79.714844 99.753906 80.628906 98.800781 79.886719 97.6875 C 79.453125 97.035156 77.402344 96.792969 76.867188 97.328125 M 91.480469 97.160156 C 90.960938 97.253906 90.890625 97.410156 90.890625 98.46875 C 90.890625 99.707031 90.980469 99.789062 92.277344 99.742188 C 93.304688 99.703125 93.664062 99.550781 93.945312 99.039062 C 94.585938 97.867188 93.25 96.84375 91.480469 97.160156 M 105.578125 97.167969 C 105.242188 97.363281 105.179688 97.53125 105.179688 98.277344 C 105.179688 99.390625 105.523438 99.660156 106.789062 99.53125 C 108.304688 99.382812 108.871094 97.917969 107.660156 97.277344 C 107.296875 97.089844 105.851562 97.011719 105.578125 97.167969 M 78.828125 97.417969 C 79.90625 97.628906 80.1875 98.875 79.242188 99.265625 C 78.703125 99.496094 77.1875 99.449219 77.011719 99.199219 C 76.855469 98.972656 76.824219 98.105469 76.960938 97.742188 C 77.109375 97.359375 77.851562 97.230469 78.828125 97.417969 M 107.183594 97.433594 C 108.078125 97.664062 108.277344 98.679688 107.5 99.082031 C 107.160156 99.257812 105.90625 99.265625 105.667969 99.097656 C 105.464844 98.945312 105.371094 98.003906 105.53125 97.703125 C 105.71875 97.34375 106.398438 97.238281 107.183594 97.433594 M 93.214844 97.585938 C 94.214844 98.082031 93.898438 99.296875 92.730469 99.445312 C 92.117188 99.523438 91.476562 99.460938 91.296875 99.308594 C 91.09375 99.140625 91.105469 97.816406 91.308594 97.59375 C 91.515625 97.359375 92.761719 97.355469 93.214844 97.585938 M 105.738281 100.355469 C 105.179688 100.464844 104.917969 102 105.363281 102.566406 C 105.773438 103.089844 107.730469 102.882812 108.25 102.265625 C 109.175781 101.15625 107.644531 99.988281 105.738281 100.355469 M 107.683594 100.789062 C 108.367188 101.148438 108.359375 102.046875 107.671875 102.40625 C 107.199219 102.648438 105.75 102.585938 105.570312 102.3125 C 105.363281 101.992188 105.429688 100.953125 105.667969 100.777344 C 105.910156 100.601562 107.332031 100.609375 107.683594 100.789062 M 0.449219 110.089844 C 0.00390625 110.3125 0.00390625 110.339844 0 115.097656 C 0 117.550781 0.0234375 119.613281 0.0546875 119.691406 C 0.101562 119.820312 6.796875 119.835938 75.054688 119.835938 L 150 119.835938 L 150 110.261719 L 149.640625 110.121094 C 149.160156 109.925781 0.828125 109.898438 0.449219 110.089844 "/>
<path style=" stroke:none;fill-rule:evenodd;fill:rgb(98.039216%,98.039216%,98.039216%);fill-opacity:1;" d="M 0 70.421875 C 0.00390625 102.746094 0.0234375 110.605469 0.113281 110.421875 C 0.175781 110.300781 0.328125 110.152344 0.449219 110.089844 C 0.8125 109.90625 149.171875 109.925781 149.609375 110.109375 C 149.789062 110.183594 149.949219 110.242188 149.964844 110.242188 C 149.984375 110.242188 150 92.234375 150 70.222656 L 150 30.203125 L 0 30.203125 L 0 70.421875 M 15.628906 35.296875 C 16.007812 35.578125 16.800781 36.175781 17.394531 36.628906 C 18.835938 37.738281 18.65625 37.738281 20.089844 36.652344 C 23.675781 33.9375 23.503906 33.851562 22.285156 37.753906 C 21.839844 39.179688 21.722656 39.667969 21.78125 39.828125 C 21.824219 39.945312 22.691406 40.675781 23.75 41.492188 C 26.332031 43.476562 26.335938 43.460938 22.949219 43.457031 C 20.222656 43.453125 20.617188 43.128906 19.695312 46.15625 C 18.734375 49.292969 18.785156 49.316406 17.460938 44.972656 C 17.273438 44.375 17.046875 43.8125 16.929688 43.675781 L 16.71875 43.429688 L 14.5 43.40625 C 13.277344 43.394531 12.210938 43.386719 12.132812 43.382812 C 11.960938 43.375 11.855469 43.171875 11.925781 42.984375 C 11.953125 42.917969 12.421875 42.53125 12.972656 42.117188 C 14.578125 40.914062 15.699219 39.984375 15.753906 39.8125 C 15.804688 39.65625 15.535156 38.65625 14.832031 36.417969 C 14.21875 34.464844 14.3125 34.335938 15.628906 35.296875 M 16.757812 37.96875 C 16.515625 38.210938 16.894531 38.867188 17.214844 38.765625 C 17.492188 38.679688 17.46875 38.324219 17.175781 38.09375 C 16.925781 37.898438 16.851562 37.875 16.757812 37.96875 M 20.269531 38.179688 C 20.050781 38.398438 20.042969 38.480469 20.230469 38.664062 C 20.476562 38.914062 20.671875 38.773438 20.769531 38.28125 C 20.839844 37.9375 20.5625 37.882812 20.269531 38.179688 M 18 39.839844 C 17.390625 40.339844 17.339844 40.515625 17.585938 41.253906 C 17.816406 41.964844 17.976562 42.113281 18.546875 42.179688 C 19.417969 42.285156 19.734375 42.0625 19.96875 41.183594 C 20.136719 40.535156 20.125 40.460938 19.761719 40.054688 C 19.09375 39.3125 18.703125 39.265625 18 39.839844 M 62.277344 40.480469 C 63.570312 40.886719 64.085938 41.3125 64.335938 42.175781 C 64.664062 43.304688 63.65625 44.375 62.515625 44.097656 C 61.667969 43.894531 61.570312 43.492188 62.308594 43.246094 C 63.976562 42.691406 63.238281 41.476562 61.3125 41.605469 C 58.351562 41.796875 57.601562 45.28125 60.234375 46.636719 C 62.40625 47.746094 63.027344 49.007812 62.246094 50.679688 C 61.75 51.738281 61.777344 51.757812 63.695312 51.667969 C 65.214844 51.59375 65.261719 51.578125 66.109375 50.859375 C 67.097656 50.015625 67.042969 49.679688 65.773438 48.65625 C 65.015625 48.046875 64.667969 48.203125 64.5625 49.203125 C 64.460938 50.164062 63.75 49.292969 63.75 48.207031 C 63.75 46.921875 64.691406 46.828125 66.683594 47.917969 C 68.394531 48.855469 68.867188 49.710938 68.292969 50.84375 C 68.023438 51.367188 68.097656 51.445312 68.859375 51.445312 C 70.328125 51.453125 73.792969 52.539062 75.84375 53.644531 C 77.023438 54.277344 79.316406 54.269531 82.492188 53.628906 C 86.648438 52.785156 89.515625 52.550781 91.25 52.902344 C 91.863281 53.03125 92.585938 53.164062 92.855469 53.195312 C 94.191406 53.359375 98.992188 55.703125 100.375 56.859375 C 100.707031 57.136719 101.277344 57.757812 101.640625 58.234375 C 102.007812 58.714844 102.65625 59.449219 103.082031 59.871094 C 103.90625 60.683594 104.214844 61.078125 104.574219 61.796875 C 104.703125 62.042969 105.003906 62.523438 105.253906 62.863281 C 105.824219 63.644531 105.953125 64.128906 105.765625 64.757812 C 105.574219 65.375 105.585938 65.507812 105.894531 66.109375 C 106.039062 66.398438 106.300781 67.164062 106.476562 67.804688 C 106.652344 68.445312 106.914062 69.308594 107.066406 69.730469 C 107.308594 70.410156 107.34375 70.660156 107.414062 72.058594 C 107.589844 75.480469 107.769531 76.421875 108.492188 77.683594 C 108.792969 78.199219 109.125 78.894531 109.234375 79.21875 C 109.351562 79.550781 109.527344 79.992188 109.636719 80.203125 C 109.839844 80.609375 110.089844 81.71875 110.089844 82.234375 C 110.089844 83.019531 110.734375 83.554688 111.375 83.304688 C 111.910156 83.101562 112.191406 83.183594 112.640625 83.675781 C 112.96875 84.027344 113.050781 84.070312 113.402344 84.070312 C 113.644531 84.070312 113.894531 84.140625 114.0625 84.25 C 114.222656 84.355469 114.480469 84.429688 114.703125 84.429688 C 114.988281 84.429688 115.152344 84.496094 115.429688 84.730469 C 115.867188 85.097656 116.113281 85.191406 116.953125 85.320312 C 117.65625 85.429688 117.996094 85.558594 118.472656 85.910156 C 118.660156 86.046875 118.898438 86.132812 119.082031 86.132812 C 119.34375 86.132812 119.492188 86.226562 119.996094 86.714844 C 120.4375 87.144531 120.75 87.359375 121.160156 87.519531 C 121.835938 87.789062 121.972656 87.875 122.925781 88.628906 C 124.457031 89.851562 123.390625 90.261719 119.183594 90.070312 C 116.644531 89.957031 114.527344 90.042969 112.8125 90.328125 C 111.554688 90.542969 107.457031 90.535156 105.941406 90.316406 C 105.1875 90.210938 104.277344 90.167969 102.84375 90.167969 C 100.90625 90.167969 96.941406 89.996094 94.5625 89.804688 C 92.9375 89.675781 90.203125 89.703125 89.0625 89.855469 C 88.460938 89.9375 86.675781 90.023438 84.464844 90.074219 C 77.308594 90.242188 73.480469 90.425781 69.777344 90.785156 C 65.808594 91.171875 60.824219 91.171875 55.667969 90.789062 C 53.679688 90.644531 43.429688 90.636719 41.15625 90.78125 C 39.449219 90.890625 38.957031 90.886719 36.695312 90.753906 C 35.296875 90.671875 32.367188 90.585938 30.195312 90.5625 C 26.058594 90.519531 26.070312 90.519531 26.070312 90.265625 C 26.070312 90.003906 26.339844 89.835938 27.1875 89.582031 C 27.628906 89.449219 28.140625 89.257812 28.324219 89.167969 C 28.507812 89.074219 28.929688 88.941406 29.265625 88.871094 C 29.597656 88.800781 29.988281 88.695312 30.132812 88.640625 C 30.277344 88.585938 30.691406 88.484375 31.058594 88.414062 C 31.710938 88.289062 32.855469 87.886719 33.503906 87.554688 C 33.683594 87.460938 34.167969 87.304688 34.574219 87.210938 C 34.980469 87.113281 35.410156 86.949219 35.535156 86.851562 C 35.660156 86.753906 35.992188 86.527344 36.285156 86.34375 L 36.808594 86.015625 L 37.679688 86.132812 C 38.15625 86.195312 38.644531 86.222656 38.761719 86.191406 C 38.875 86.164062 39.117188 86.179688 39.292969 86.234375 C 39.523438 86.304688 39.75 86.300781 40.132812 86.222656 C 40.660156 86.113281 40.753906 86.046875 41.324219 85.339844 C 41.601562 85 41.679688 84.988281 42.753906 85.136719 C 43.398438 85.226562 43.527344 85.222656 43.695312 85.105469 C 43.800781 85.03125 44.101562 84.816406 44.375 84.628906 L 44.867188 84.296875 L 46.335938 84.3125 C 47.613281 84.324219 47.867188 84.351562 48.214844 84.507812 C 48.992188 84.867188 49.617188 84.742188 50.5625 84.042969 C 51.210938 83.570312 52.003906 83.230469 52.726562 83.128906 C 53.496094 83.015625 54.277344 82.371094 55.738281 80.632812 C 56.242188 80.035156 56.953125 79.222656 57.324219 78.828125 C 58.269531 77.816406 58.378906 77.644531 58.667969 76.5625 C 58.96875 75.453125 59.804688 72.789062 60.09375 72.042969 C 60.5625 70.824219 59.824219 70.535156 59.238281 71.707031 C 57.925781 74.324219 56.34375 75.214844 54.105469 74.613281 C 52.664062 74.226562 52.042969 74.710938 52.195312 76.09375 C 52.410156 78.007812 52.253906 78.621094 51.289062 79.667969 C 50.421875 80.613281 49.933594 80.789062 48.117188 80.828125 C 45.613281 80.886719 44.820312 80.1875 44.820312 77.90625 C 44.820312 75.929688 45.601562 74.972656 47 75.234375 C 47.945312 75.414062 48.191406 76.371094 47.3125 76.449219 C 46.554688 76.519531 46.269531 76.917969 46.363281 77.773438 C 46.453125 78.589844 46.980469 78.976562 48.082031 79.035156 C 49.71875 79.121094 50.152344 78.621094 50 76.816406 C 49.714844 73.261719 50.746094 72.113281 53.746094 72.644531 C 55.429688 72.941406 56.144531 72.492188 56.472656 70.921875 C 56.855469 69.125 56.65625 68.960938 54.8125 69.539062 C 52.457031 70.277344 51.835938 70.457031 49.347656 71.113281 C 43.199219 72.742188 40.421875 74.515625 39.453125 77.4375 C 38.945312 78.964844 38.003906 80.710938 37.019531 81.921875 C 34.390625 85.175781 28.28125 82.753906 28.976562 78.730469 C 29.492188 75.746094 32.136719 74.9375 34.324219 77.097656 C 35.484375 78.242188 35.066406 79.640625 33.609375 79.476562 C 32.695312 79.371094 32.261719 78.65625 33.101562 78.632812 C 33.890625 78.613281 34.066406 78.242188 33.5625 77.667969 C 32.820312 76.816406 31.273438 76.96875 30.738281 77.941406 C 29.929688 79.410156 30.8125 80.941406 32.617188 81.210938 C 35.171875 81.59375 36.515625 80.347656 37.457031 76.71875 C 38.355469 73.234375 39.914062 71.558594 43.277344 70.457031 C 46.308594 69.464844 46.625 69.152344 44.613281 69.136719 C 41.714844 69.117188 38.589844 68.171875 34.289062 66.027344 L 32.277344 65.023438 L 30.800781 65.023438 C 29.054688 65.023438 28.691406 65.144531 28.105469 65.925781 C 26.792969 67.660156 26.941406 70.253906 28.4375 71.753906 C 29.253906 72.578125 29.859375 72.609375 30.667969 71.867188 C 32.097656 70.554688 32.230469 68.5625 30.890625 68.5625 C 29.082031 68.5625 28.296875 70.191406 29.894531 70.625 C 30.414062 70.761719 30.339844 71.164062 29.769531 71.308594 C 28.625 71.59375 27.632812 69.632812 28.386719 68.570312 C 29.210938 67.414062 31.828125 66.976562 32.652344 67.863281 C 33.535156 68.808594 32.957031 71.726562 31.617188 73.101562 C 28.585938 76.203125 23.996094 69.894531 26.121094 65.546875 C 27.59375 62.519531 30.894531 62.179688 35.957031 64.535156 C 39.25 66.066406 40 66.304688 41.964844 66.457031 C 45.140625 66.710938 50.894531 64.0625 54.890625 60.515625 C 55.960938 59.570312 55.773438 59.492188 53.882812 60.089844 C 50.828125 61.050781 50.375 61.308594 48.484375 63.136719 C 46.535156 65.019531 45.757812 65.410156 43.496094 65.613281 C 41.816406 65.769531 41.039062 65.441406 40.484375 64.339844 C 39.574219 62.535156 41.980469 60.566406 43.769531 61.652344 C 45.058594 62.441406 45.476562 63.316406 44.648438 63.496094 C 44.277344 63.582031 44.015625 63.417969 44.015625 63.097656 C 44.015625 62.332031 42.382812 62.269531 41.972656 63.023438 C 41.578125 63.730469 43.046875 64.4375 44.257812 64.117188 C 45.65625 63.753906 46.050781 63.433594 46.644531 62.164062 C 47.171875 61.042969 47.722656 60.328125 48.527344 59.734375 C 49.371094 59.105469 49.394531 58.949219 48.683594 58.738281 C 48.019531 58.550781 47.3125 58.183594 46.707031 57.730469 C 45.175781 56.574219 43.21875 57.074219 40.859375 59.230469 C 38.589844 61.308594 35.0625 61.738281 32.074219 60.308594 C 28.445312 58.566406 30.472656 52.691406 34.515625 53.234375 C 37.234375 53.59375 38.699219 54.917969 38.394531 56.726562 C 38.109375 58.417969 37.308594 58.832031 35.164062 58.398438 C 33.277344 58.015625 32.789062 57.679688 32.894531 56.832031 C 33.058594 55.546875 34.714844 54.980469 35.269531 56.019531 C 35.40625 56.28125 35.328125 56.328125 34.753906 56.328125 C 33.828125 56.328125 34.074219 56.695312 35.214844 57 C 37.0625 57.5 37.695312 55.71875 35.929688 54.976562 C 33.859375 54.105469 32.179688 55.113281 32.070312 57.292969 C 32.015625 58.402344 32.332031 58.726562 33.972656 59.242188 C 36.277344 59.964844 37.964844 59.484375 40.207031 57.464844 C 40.992188 56.753906 42.046875 56.191406 43.410156 55.746094 C 45.199219 55.164062 46.125 55.164062 48.394531 55.75 C 50.628906 56.324219 51.914062 56.335938 53.773438 55.796875 C 55.800781 55.203125 56.21875 54.601562 54.726562 54.402344 C 54.363281 54.355469 53.722656 54.214844 53.304688 54.085938 C 52.804688 53.933594 52.21875 53.839844 51.605469 53.804688 C 50.320312 53.730469 49.9375 53.503906 49.496094 52.566406 C 48.867188 51.222656 50.109375 49.492188 51.011719 50.445312 C 51.527344 50.984375 51.402344 51.578125 50.816406 51.375 C 50.472656 51.25 50.359375 51.375 50.359375 51.851562 C 50.359375 52.582031 50.570312 52.640625 52.589844 52.445312 C 54.609375 52.246094 54.5625 52.328125 53.21875 51.246094 C 52.066406 50.324219 51.917969 48.839844 52.777344 46.847656 C 53.808594 44.46875 52.433594 42.886719 49.761719 43.367188 C 47.394531 43.792969 46.691406 45.613281 47.105469 50.257812 C 47.382812 53.320312 45.425781 54.9375 41.417969 54.949219 C 39.242188 54.957031 38.214844 54.417969 37.527344 52.90625 C 37.027344 51.808594 37.996094 50.394531 39.476562 50.054688 C 41.710938 49.550781 44.304688 50.71875 43.257812 51.765625 C 42.71875 52.308594 42.019531 52.460938 41.632812 52.117188 L 41.386719 51.894531 L 41.585938 51.71875 C 41.695312 51.625 41.835938 51.53125 41.898438 51.507812 C 42.195312 51.398438 41.734375 51.253906 40.929688 51.207031 C 38.21875 51.042969 37.808594 52.929688 40.484375 53.242188 C 44.203125 53.671875 44.835938 52.949219 45.003906 48.050781 C 45.132812 44.246094 45.503906 43.273438 47.277344 42.066406 C 48.554688 41.191406 51.1875 41.082031 53.46875 41.808594 C 56.007812 42.621094 56.40625 44.652344 54.625 47.628906 C 53.914062 48.8125 54.058594 49.398438 55.234375 50.09375 C 55.523438 50.265625 56.050781 50.621094 56.402344 50.890625 C 57.183594 51.476562 57.390625 51.5 57.84375 51.054688 C 58.0625 50.839844 58.390625 50.65625 58.804688 50.511719 C 60.199219 50.039062 60.367188 49.753906 59.742188 48.960938 C 59.496094 48.644531 59.21875 48.433594 58.78125 48.210938 C 55.625 46.648438 56.324219 41.285156 59.820312 40.277344 C 60.367188 40.113281 61.382812 40.203125 62.277344 40.480469 M 15.6875 41.65625 C 15.402344 41.96875 15.488281 42.136719 15.914062 42.105469 C 16.273438 42.082031 16.296875 42.0625 16.296875 41.808594 C 16.296875 41.476562 15.929688 41.386719 15.6875 41.65625 M 21.195312 41.625 C 21.078125 41.929688 21.199219 42.078125 21.585938 42.105469 C 21.90625 42.128906 21.960938 42.109375 21.960938 41.964844 C 21.960938 41.601562 21.3125 41.316406 21.195312 41.625 M 18.542969 43.613281 C 18.324219 43.835938 18.601562 44.441406 18.871094 44.335938 C 19.046875 44.269531 19.140625 43.835938 19.007812 43.683594 C 18.902344 43.550781 18.644531 43.511719 18.542969 43.613281 M 78.953125 74.808594 C 78.722656 74.898438 78.855469 75.277344 79.449219 76.277344 C 79.78125 76.84375 80.265625 77.738281 80.527344 78.269531 L 81 79.230469 L 80.847656 79.703125 C 80.765625 79.957031 80.558594 80.433594 80.390625 80.761719 C 80 81.523438 80 81.503906 80.640625 82.089844 C 81.347656 82.734375 81.382812 82.742188 83.011719 82.601562 C 84.839844 82.441406 84.953125 82.296875 84.644531 80.570312 C 84.597656 80.300781 84.496094 79.214844 84.421875 78.152344 C 84.1875 74.882812 84.320312 75.15625 82.917969 75.078125 C 82.351562 75.042969 81.59375 74.980469 81.234375 74.933594 C 80.359375 74.824219 79.089844 74.753906 78.953125 74.808594 M 69.457031 75.980469 C 69.371094 76 68.941406 76.570312 68.492188 77.246094 C 67.695312 78.457031 66.953125 79.273438 65.46875 80.589844 C 64.9375 81.054688 64.898438 81.175781 65.242188 81.257812 C 65.382812 81.292969 65.59375 81.371094 65.71875 81.433594 C 66.289062 81.71875 67.710938 81.769531 68.417969 81.519531 C 69.246094 81.234375 69.535156 81.234375 70.109375 81.523438 L 70.5625 81.761719 L 71.109375 81.609375 C 71.636719 81.46875 71.667969 81.46875 72.054688 81.644531 C 72.546875 81.871094 72.859375 81.871094 73.863281 81.664062 C 75.335938 81.363281 75.175781 81.070312 72.425781 79.007812 C 71.640625 78.421875 70.695312 77.351562 70.066406 76.34375 C 69.886719 76.066406 69.664062 75.933594 69.457031 75.980469 M 96.472656 78.175781 C 95.734375 78.695312 94.898438 79.347656 94.152344 79.976562 C 93.808594 80.269531 93.234375 80.707031 92.875 80.949219 C 91.910156 81.605469 91.976562 81.695312 93.4375 81.695312 C 94.339844 81.695312 94.699219 81.734375 95.042969 81.863281 C 95.414062 82 95.640625 82.019531 96.335938 81.972656 C 96.878906 81.9375 97.300781 81.953125 97.5 82.019531 C 97.671875 82.074219 98.296875 82.148438 98.882812 82.1875 C 99.796875 82.242188 100.058594 82.292969 100.671875 82.546875 C 101.753906 82.996094 102.976562 82.992188 104.429688 82.539062 C 105.671875 82.152344 104.917969 81.324219 103.203125 81.199219 C 101.636719 81.082031 100.339844 80.589844 98.839844 79.539062 C 98.003906 78.953125 97.71875 78.648438 97.5625 78.195312 C 97.390625 77.699219 97.148438 77.695312 96.472656 78.175781 M 27.265625 96.085938 C 28.609375 96.589844 29.609375 98.410156 28.777344 98.847656 C 28.261719 99.117188 27.792969 98.902344 27.457031 98.234375 C 26.691406 96.714844 25.203125 97.121094 24.8125 98.949219 C 24.242188 101.625 26.191406 103.890625 27.367188 101.914062 C 28.207031 100.5 29.625 100.980469 28.890625 102.433594 C 27.785156 104.625 24.628906 104.628906 23.523438 102.441406 C 21.785156 99 24.183594 94.925781 27.265625 96.085938 M 124.753906 96.15625 C 125.859375 96.644531 126.742188 98.195312 126.21875 98.71875 C 125.734375 99.207031 125.125 99.007812 124.730469 98.226562 C 124.027344 96.832031 122.609375 97.054688 122.191406 98.617188 C 121.320312 101.84375 123.542969 104.082031 124.964844 101.414062 C 125.371094 100.660156 126.601562 101.246094 126.355469 102.074219 C 125.667969 104.363281 122.355469 104.789062 121.015625 102.757812 C 118.816406 99.4375 121.488281 94.710938 124.753906 96.15625 M 35.1875 96.246094 C 35.621094 96.785156 35.289062 97.425781 34.574219 97.425781 C 33.257812 97.433594 33.308594 97.304688 33.304688 100.679688 L 33.304688 103.53125 L 33.082031 103.75 C 32.800781 104.035156 32.097656 104.0625 31.773438 103.796875 L 31.5625 103.628906 L 31.519531 100.640625 L 31.472656 97.65625 L 31.25 97.539062 C 31.125 97.476562 30.757812 97.425781 30.429688 97.425781 C 29.582031 97.425781 29.257812 97.011719 29.597656 96.351562 C 29.777344 96.003906 29.730469 96.007812 32.53125 96.023438 L 35.015625 96.039062 L 35.1875 96.246094 M 37.613281 96.171875 C 37.839844 96.347656 37.847656 96.382812 37.875 97.617188 C 37.910156 99.25 37.90625 99.246094 39.300781 99.203125 C 40.59375 99.164062 40.574219 99.183594 40.589844 97.738281 C 40.609375 96.199219 40.703125 95.988281 41.367188 95.992188 C 42.230469 96 42.230469 95.996094 42.230469 100.070312 L 42.230469 103.53125 L 42.015625 103.75 C 41.765625 103.996094 41.265625 104.046875 40.894531 103.851562 C 40.671875 103.742188 40.667969 103.726562 40.625 102.324219 C 40.570312 100.578125 40.632812 100.652344 39.246094 100.65625 C 37.867188 100.65625 37.859375 100.667969 37.859375 102.453125 C 37.859375 103.492188 37.839844 103.628906 37.675781 103.789062 C 37.410156 104.0625 36.757812 104.039062 36.46875 103.75 L 36.25 103.53125 L 36.25 100.023438 C 36.25 97.714844 36.28125 96.457031 36.34375 96.339844 C 36.539062 95.976562 37.246094 95.882812 37.613281 96.171875 M 45.277344 96.164062 L 45.492188 96.332031 L 45.539062 99.007812 C 45.589844 102.082031 45.605469 102.148438 46.308594 102.460938 C 46.945312 102.742188 47.644531 102.535156 47.96875 101.96875 C 48.046875 101.832031 48.09375 100.984375 48.125 99.066406 C 48.171875 96.105469 48.167969 96.140625 48.707031 96.03125 C 48.902344 95.992188 49.042969 96.03125 49.226562 96.171875 L 49.472656 96.367188 L 49.445312 99.34375 L 49.417969 102.3125 L 49.171875 102.78125 C 48.175781 104.679688 44.726562 104.449219 44.058594 102.441406 C 43.917969 102.011719 43.894531 101.613281 43.890625 99.1875 L 43.882812 96.425781 L 44.132812 96.207031 C 44.449219 95.9375 44.976562 95.917969 45.277344 96.164062 M 52.390625 96.050781 C 52.824219 96.164062 52.855469 96.402344 52.855469 99.351562 C 52.855469 102.738281 52.707031 102.445312 54.453125 102.445312 C 55.953125 102.445312 56.117188 102.519531 56.117188 103.207031 C 56.117188 103.949219 56.058594 103.96875 53.605469 103.96875 C 50.839844 103.96875 51.160156 104.492188 51.160156 99.988281 L 51.160156 96.363281 L 51.398438 96.175781 C 51.628906 95.992188 52.003906 95.945312 52.390625 96.050781 M 58.476562 96.121094 C 58.820312 96.300781 58.835938 96.378906 58.835938 97.703125 C 58.835938 99.253906 58.828125 99.242188 60.238281 99.203125 C 61.558594 99.164062 61.519531 99.214844 61.519531 97.628906 C 61.519531 96.480469 61.527344 96.425781 61.734375 96.210938 C 62.03125 95.917969 62.574219 95.910156 62.898438 96.191406 L 63.128906 96.398438 L 63.136719 99.710938 C 63.136719 101.535156 63.136719 103.160156 63.132812 103.316406 C 63.117188 103.933594 62.292969 104.210938 61.75 103.785156 C 61.519531 103.597656 61.519531 103.597656 61.519531 102.304688 C 61.519531 100.621094 61.542969 100.652344 60.179688 100.652344 C 58.816406 100.652344 58.835938 100.628906 58.835938 102.273438 C 58.835938 103.488281 58.832031 103.539062 58.621094 103.75 C 58.34375 104.03125 57.71875 104.058594 57.398438 103.796875 L 57.1875 103.628906 L 57.1875 96.425781 L 57.4375 96.207031 C 57.726562 95.960938 58.101562 95.929688 58.476562 96.121094 M 66.324219 96.207031 C 66.453125 96.335938 66.476562 96.707031 66.519531 99.070312 C 66.574219 102.3125 66.617188 102.449219 67.6875 102.585938 C 68.886719 102.734375 69.050781 102.324219 69.109375 99.019531 C 69.15625 96.109375 69.148438 96.140625 69.691406 96.03125 C 69.886719 95.992188 70.023438 96.027344 70.183594 96.15625 L 70.402344 96.332031 L 70.402344 99.1875 C 70.402344 101.6875 70.382812 102.097656 70.246094 102.496094 C 69.539062 104.527344 66.046875 104.628906 65.070312 102.640625 C 64.839844 102.160156 64.695312 96.957031 64.902344 96.417969 C 65.066406 95.988281 65.976562 95.859375 66.324219 96.207031 M 79.574219 96.09375 C 81.585938 96.523438 82.234375 98.621094 80.808594 100.085938 C 80.25 100.664062 80.25 100.664062 80.847656 102.109375 C 81.519531 103.734375 81.492188 103.96875 80.628906 103.96875 C 79.9375 103.96875 79.8125 103.835938 79.300781 102.542969 C 79.046875 101.902344 78.839844 101.34375 78.839844 101.3125 C 78.839844 100.894531 77.351562 100.605469 77.058594 100.960938 C 76.964844 101.070312 76.902344 101.902344 76.878906 103.316406 C 76.867188 103.921875 76.035156 104.207031 75.503906 103.785156 L 75.265625 103.597656 L 75.265625 96.433594 L 75.488281 96.210938 C 75.734375 95.960938 78.566406 95.878906 79.574219 96.09375 M 88.042969 96.246094 C 88.679688 97.039062 88.125 97.425781 86.371094 97.425781 C 84.675781 97.425781 84.640625 97.441406 84.640625 98.273438 C 84.640625 99.15625 84.699219 99.191406 86.015625 99.230469 C 87.304688 99.265625 87.5 99.363281 87.5 99.9375 C 87.5 100.511719 87.304688 100.605469 86.019531 100.640625 C 84.699219 100.675781 84.640625 100.710938 84.640625 101.613281 C 84.640625 102.511719 84.695312 102.535156 86.417969 102.535156 C 88.09375 102.535156 88.257812 102.597656 88.257812 103.25 C 88.257812 103.945312 88.175781 103.96875 85.710938 103.96875 C 82.660156 103.96875 82.949219 104.402344 82.984375 99.808594 L 83.007812 96.414062 L 83.253906 96.195312 L 83.503906 95.984375 L 85.6875 96.011719 C 87.863281 96.039062 87.875 96.039062 88.042969 96.246094 M 94.109375 96.269531 C 95.027344 96.710938 95.457031 97.339844 95.519531 98.328125 C 95.613281 99.925781 94.441406 100.921875 92.472656 100.921875 C 91.148438 100.921875 91.164062 100.90625 91.164062 102.367188 C 91.164062 103.761719 91.050781 103.96875 90.3125 103.96875 C 89.996094 103.96875 89.851562 103.917969 89.683594 103.75 L 89.464844 103.53125 L 89.464844 100.023438 C 89.464844 96.375 89.480469 96.234375 89.847656 96.078125 C 90.332031 95.875 93.582031 96.019531 94.109375 96.269531 M 98.082031 96.210938 L 98.304688 96.433594 L 98.304688 98.808594 C 98.304688 101.492188 98.367188 101.972656 98.757812 102.304688 C 99.320312 102.773438 100.226562 102.65625 100.664062 102.058594 C 100.835938 101.820312 100.851562 101.652344 100.890625 99.082031 C 100.941406 96.042969 100.941406 96.046875 101.554688 96.046875 C 102.234375 96.046875 102.230469 96.03125 102.230469 99.171875 C 102.230469 102.761719 102.117188 103.132812 100.84375 103.773438 C 99.296875 104.546875 97.273438 103.871094 96.828125 102.433594 C 96.644531 101.839844 96.539062 96.96875 96.695312 96.488281 C 96.867188 95.964844 97.679688 95.808594 98.082031 96.210938 M 108.394531 96.226562 C 109.628906 96.792969 110.039062 98.378906 109.191406 99.347656 C 108.851562 99.730469 108.859375 99.921875 109.226562 100.269531 C 110.433594 101.410156 109.820312 103.523438 108.179688 103.882812 C 107.355469 104.066406 104.210938 103.960938 104.054688 103.75 C 103.949219 103.609375 103.925781 102.945312 103.925781 100.003906 L 103.925781 96.433594 L 104.15625 96.203125 L 104.382812 95.972656 L 106.1875 96.007812 C 107.773438 96.039062 108.039062 96.066406 108.394531 96.226562 M 112.726562 96.210938 L 112.945312 96.433594 L 112.945312 99.257812 C 112.945312 102.753906 112.789062 102.445312 114.542969 102.445312 C 116.046875 102.445312 116.203125 102.519531 116.203125 103.207031 C 116.203125 103.949219 116.144531 103.96875 113.695312 103.96875 C 110.925781 103.96875 111.25 104.492188 111.25 99.988281 L 111.25 96.363281 L 111.484375 96.175781 C 111.828125 95.90625 112.441406 95.925781 112.726562 96.210938 M 118.769531 96.261719 C 118.917969 96.445312 118.929688 96.734375 118.929688 100.03125 L 118.929688 103.597656 L 118.695312 103.785156 C 118.25 104.132812 117.492188 103.972656 117.324219 103.496094 C 117.199219 103.128906 117.199219 96.832031 117.324219 96.464844 C 117.503906 95.964844 118.421875 95.835938 118.769531 96.261719 M 77.253906 97.429688 C 76.875 97.585938 76.714844 98.769531 77.011719 99.199219 C 77.363281 99.703125 79.421875 99.414062 79.703125 98.824219 C 80.175781 97.828125 78.554688 96.902344 77.253906 97.429688 M 105.832031 97.425781 C 105.40625 97.601562 105.289062 98.816406 105.667969 99.097656 C 106.117188 99.425781 107.632812 99.191406 107.863281 98.761719 C 108.351562 97.847656 106.996094 96.957031 105.832031 97.425781 M 91.308594 97.59375 C 91.105469 97.816406 91.09375 99.140625 91.296875 99.308594 C 91.476562 99.460938 92.117188 99.523438 92.730469 99.445312 C 93.898438 99.296875 94.214844 98.082031 93.214844 97.585938 C 92.761719 97.355469 91.515625 97.359375 91.308594 97.59375 M 105.667969 100.777344 C 105.429688 100.953125 105.363281 101.992188 105.570312 102.3125 C 105.75 102.585938 107.199219 102.648438 107.671875 102.40625 C 108.359375 102.046875 108.367188 101.148438 107.683594 100.789062 C 107.332031 100.609375 105.910156 100.601562 105.667969 100.777344 "/>
</g>
</svg>
