<?xml version="1.0" encoding="UTF-8"?>
<svg xmlns="http://www.w3.org/2000/svg" xmlns:xlink="http://www.w3.org/1999/xlink" width="150px" height="150px" viewBox="0 0 150 102" version="1.1">
<g id="surface1">
<path style=" stroke:none;fill-rule:evenodd;fill:rgb(98.039216%,98.039216%,97.647059%);fill-opacity:1;" d="M 2.761719 51.53125 L 2.761719 67.789062 L 148.363281 67.789062 L 148.335938 51.558594 L 148.3125 35.324219 L 75.535156 35.296875 L 2.761719 35.273438 L 2.761719 51.53125 M 74.488281 36.28125 C 75.046875 36.21875 76.363281 36.285156 76.460938 36.382812 C 76.523438 36.445312 76.648438 36.496094 76.742188 36.496094 C 76.929688 36.496094 77.351562 37.023438 77.351562 37.261719 C 77.351562 37.347656 77.433594 37.449219 77.53125 37.484375 C 77.828125 37.59375 77.84375 37.6875 77.847656 39.238281 C 77.855469 41.707031 78.1875 42.917969 78.863281 42.917969 C 79.183594 42.917969 79.296875 42.878906 79.296875 42.761719 C 79.296875 42.574219 79.703125 42.410156 80.167969 42.410156 C 80.359375 42.410156 80.542969 42.363281 80.578125 42.308594 C 80.609375 42.25 80.71875 42.203125 80.8125 42.203125 C 80.90625 42.203125 81.117188 42.136719 81.277344 42.050781 C 81.441406 41.96875 81.632812 41.898438 81.710938 41.898438 C 81.996094 41.898438 82.570312 41.550781 82.570312 41.378906 C 82.570312 41.132812 82.820312 41.074219 83.886719 41.070312 C 84.933594 41.0625 85.230469 41.128906 85.230469 41.363281 C 85.230469 41.589844 85.53125 41.898438 85.75 41.898438 C 85.867188 41.898438 85.949219 42 85.984375 42.179688 C 86.179688 43.234375 86.25 44.019531 86.304688 45.722656 C 86.339844 46.789062 86.429688 49.242188 86.511719 51.175781 C 86.59375 53.109375 86.710938 56.183594 86.773438 58.007812 C 86.863281 60.671875 86.914062 61.34375 87.035156 61.433594 C 87.394531 61.71875 86.675781 61.6875 86.230469 61.402344 C 85.992188 61.246094 85.65625 61.046875 85.488281 60.953125 C 85.304688 60.855469 85.167969 60.6875 85.144531 60.542969 C 85.105469 60.265625 84.648438 59.738281 84.441406 59.738281 C 84.210938 59.738281 83.800781 59.421875 83.796875 59.242188 C 83.796875 59.066406 83.214844 58.617188 82.988281 58.617188 C 82.796875 58.617188 82.367188 58.132812 82.367188 57.917969 C 82.367188 57.726562 81.851562 57.292969 81.625 57.292969 C 81.546875 57.292969 81.433594 57.238281 81.367188 57.171875 C 81.148438 56.957031 81.101562 57.175781 81.238281 57.777344 C 81.394531 58.488281 81.507812 58.71875 81.703125 58.71875 C 81.785156 58.71875 81.878906 58.847656 81.910156 59 C 81.941406 59.15625 82.050781 59.554688 82.15625 59.890625 C 82.257812 60.230469 82.375 60.628906 82.410156 60.785156 C 82.464844 61.023438 82.523438 61.066406 82.835938 61.066406 C 83.40625 61.066406 84.105469 61.425781 84.105469 61.722656 C 84.105469 62.042969 84.207031 62.289062 84.332031 62.289062 C 85.089844 62.289062 85.742188 63.765625 85.179688 64.207031 C 85.039062 64.316406 84.925781 64.492188 84.925781 64.597656 C 84.925781 64.898438 84.539062 65.449219 84.324219 65.449219 C 84.21875 65.449219 83.996094 65.515625 83.835938 65.601562 C 83.675781 65.683594 83.464844 65.753906 83.363281 65.753906 C 83.257812 65.753906 83.183594 65.832031 83.183594 65.949219 C 83.183594 66.117188 83.085938 66.152344 82.496094 66.203125 C 82.113281 66.238281 81.550781 66.3125 81.242188 66.375 C 79.617188 66.691406 69.550781 66.53125 68.273438 66.167969 C 68.257812 66.164062 68.246094 66.097656 68.246094 66.019531 C 68.246094 65.9375 68.089844 65.851562 67.863281 65.808594 C 66.441406 65.546875 65.996094 65.269531 65.996094 64.644531 C 65.996094 64.53125 65.9375 64.402344 65.867188 64.359375 C 65.792969 64.3125 65.679688 64.148438 65.613281 63.996094 C 65.542969 63.839844 65.417969 63.714844 65.332031 63.714844 C 65.226562 63.714844 65.175781 63.613281 65.175781 63.410156 C 65.175781 63.210938 65.230469 63.105469 65.324219 63.105469 C 65.792969 63.105469 66.507812 62.390625 66.507812 61.921875 C 66.507812 61.777344 66.566406 61.675781 66.65625 61.675781 C 66.738281 61.675781 66.921875 61.566406 67.066406 61.433594 C 67.332031 61.1875 67.730469 61.066406 68.257812 61.066406 C 68.492188 61.066406 68.5625 61.011719 68.609375 60.785156 C 68.640625 60.628906 68.78125 60.148438 68.917969 59.71875 C 69.054688 59.285156 69.167969 58.859375 69.167969 58.773438 C 69.167969 58.683594 69.28125 58.570312 69.421875 58.515625 C 69.621094 58.441406 69.679688 58.347656 69.679688 58.105469 C 69.679688 57.933594 69.75 57.65625 69.835938 57.488281 C 69.992188 57.1875 69.902344 56.710938 69.738281 56.972656 C 69.699219 57.035156 69.597656 57.089844 69.507812 57.089844 C 69.28125 57.089844 68.554688 57.6875 68.554688 57.878906 C 68.554688 58.085938 68.257812 58.414062 68.070312 58.414062 C 67.847656 58.414062 67.125 59.054688 67.125 59.253906 C 67.121094 59.359375 67.011719 59.457031 66.839844 59.496094 C 66.488281 59.578125 65.6875 60.328125 65.6875 60.578125 C 65.6875 60.683594 65.609375 60.789062 65.511719 60.820312 C 65.285156 60.890625 65.203125 60.9375 64.664062 61.34375 C 63.824219 61.980469 63.746094 61.894531 63.746094 60.324219 C 63.746094 58.015625 63.863281 56.070312 64.003906 56.070312 C 64.179688 56.070312 64.253906 55.488281 64.257812 54.03125 C 64.257812 53.328125 64.308594 51.953125 64.367188 50.972656 C 64.425781 49.992188 64.507812 47.71875 64.550781 45.925781 C 64.640625 42.269531 64.691406 41.992188 65.351562 41.703125 C 65.542969 41.621094 65.691406 41.472656 65.710938 41.351562 C 65.75 41.066406 66.421875 40.957031 67.316406 41.085938 C 67.6875 41.136719 68.046875 41.183594 68.113281 41.183594 C 68.175781 41.183594 68.246094 41.257812 68.265625 41.347656 C 68.300781 41.515625 69.28125 42.101562 69.527344 42.101562 C 69.605469 42.101562 69.871094 42.167969 70.109375 42.246094 C 70.351562 42.324219 70.769531 42.417969 71.035156 42.457031 C 71.414062 42.507812 71.519531 42.566406 71.519531 42.710938 C 71.519531 42.863281 71.617188 42.90625 72.035156 42.933594 C 72.644531 42.976562 72.75 42.949219 72.75 42.75 C 72.75 42.667969 72.863281 42.433594 73.003906 42.226562 C 73.144531 42.019531 73.261719 41.707031 73.261719 41.527344 C 73.261719 41.265625 73.308594 41.191406 73.488281 41.167969 C 73.714844 41.132812 73.730469 41.097656 73.976562 40.011719 C 74.230469 38.902344 74.039062 37.921875 73.570312 37.921875 C 73.476562 37.921875 73.3125 37.855469 73.203125 37.773438 C 73.09375 37.691406 72.878906 37.621094 72.722656 37.621094 C 72.457031 37.617188 72.441406 37.59375 72.441406 37.140625 C 72.441406 36.363281 72.714844 36.152344 73.617188 36.234375 C 74.011719 36.269531 74.402344 36.289062 74.488281 36.28125 M 73.875 37.246094 C 73.875 37.332031 73.984375 37.519531 74.117188 37.664062 C 74.59375 38.175781 74.617188 40.683594 74.152344 41.148438 C 74.113281 41.1875 74.078125 41.332031 74.078125 41.472656 C 74.078125 41.804688 73.71875 42.371094 73.464844 42.4375 C 73.34375 42.46875 73.261719 42.578125 73.261719 42.707031 C 73.261719 43.003906 73.742188 43.007812 73.789062 42.710938 C 73.835938 42.429688 74.015625 42.445312 74.085938 42.734375 C 74.140625 42.949219 74.191406 42.96875 74.71875 42.9375 C 75.210938 42.914062 75.308594 42.9375 75.40625 43.117188 L 75.519531 43.328125 L 75.816406 43.109375 C 76.070312 42.917969 76.167969 42.902344 76.519531 42.992188 C 76.746094 43.050781 76.984375 43.058594 77.0625 43.007812 C 77.136719 42.960938 77.328125 42.921875 77.480469 42.921875 C 77.664062 42.917969 77.761719 42.863281 77.761719 42.765625 C 77.761719 42.679688 77.695312 42.613281 77.613281 42.613281 C 77.222656 42.613281 77.101562 42.03125 77.046875 39.960938 L 76.996094 37.972656 L 76.546875 37.941406 C 76.300781 37.925781 75.964844 37.964844 75.804688 38.03125 C 75.5625 38.128906 75.46875 38.121094 75.261719 37.988281 C 75.121094 37.894531 74.914062 37.820312 74.800781 37.820312 C 74.683594 37.820312 74.589844 37.777344 74.589844 37.71875 C 74.589844 37.664062 74.523438 37.617188 74.445312 37.617188 C 74.363281 37.617188 74.285156 37.515625 74.265625 37.390625 C 74.226562 37.128906 73.875 37.003906 73.875 37.246094 M 66.148438 42.054688 C 65.925781 42.136719 65.726562 42.203125 65.714844 42.203125 C 65.699219 42.203125 65.6875 42.367188 65.6875 42.5625 C 65.6875 42.945312 65.878906 43.050781 65.964844 42.714844 C 66.039062 42.441406 66.507812 42.429688 66.507812 42.703125 C 66.507812 42.828125 66.601562 42.914062 66.789062 42.953125 C 66.945312 42.988281 67.265625 43.195312 67.5 43.417969 C 67.738281 43.636719 68.011719 43.835938 68.113281 43.855469 C 68.214844 43.875 68.3125 43.980469 68.332031 44.09375 C 68.367188 44.324219 69.15625 44.980469 69.5 45.0625 C 69.628906 45.09375 69.789062 45.246094 69.863281 45.398438 C 70.109375 45.90625 70.425781 46.027344 71.144531 45.894531 C 71.492188 45.832031 72.023438 45.75 72.320312 45.714844 C 72.769531 45.660156 72.878906 45.609375 72.957031 45.40625 C 73.03125 45.214844 73.125 45.160156 73.394531 45.160156 C 73.585938 45.160156 73.957031 45.046875 74.222656 44.90625 C 74.488281 44.765625 74.804688 44.652344 74.929688 44.652344 C 75.054688 44.652344 75.25 44.585938 75.363281 44.507812 C 75.539062 44.386719 75.597656 44.386719 75.765625 44.507812 C 75.871094 44.585938 76.035156 44.652344 76.128906 44.652344 C 76.332031 44.652344 76.914062 44.929688 77 45.066406 C 77.03125 45.117188 77.226562 45.160156 77.4375 45.164062 C 77.855469 45.164062 78.003906 45.234375 78.09375 45.476562 C 78.25 45.898438 81.140625 45.890625 81.140625 45.472656 C 81.140625 45.253906 81.453125 44.957031 81.683594 44.957031 C 81.925781 44.957031 82.65625 44.273438 82.691406 44.011719 C 82.710938 43.890625 82.820312 43.769531 82.9375 43.738281 C 83.242188 43.660156 84.105469 42.875 84.105469 42.675781 C 84.105469 42.550781 84.207031 42.511719 84.515625 42.511719 C 84.855469 42.511719 84.925781 42.542969 84.925781 42.714844 C 84.925781 42.828125 84.972656 42.917969 85.027344 42.917969 C 85.339844 42.917969 85.121094 42.222656 84.753906 42.050781 C 84.34375 41.855469 82.679688 42.054688 82.074219 42.371094 C 81.925781 42.445312 81.695312 42.507812 81.5625 42.511719 C 81.410156 42.511719 81.304688 42.585938 81.269531 42.714844 C 81.242188 42.828125 81.097656 42.949219 80.949219 42.984375 C 80.800781 43.019531 80.632812 43.082031 80.578125 43.125 C 80.519531 43.164062 80.109375 43.25 79.664062 43.316406 C 79.21875 43.378906 78.785156 43.488281 78.703125 43.558594 C 78.5625 43.671875 77.824219 43.757812 77.125 43.738281 C 76.703125 43.726562 75.957031 43.726562 75.640625 43.742188 C 75.484375 43.746094 75.148438 43.71875 74.890625 43.679688 C 74.367188 43.601562 73.773438 43.820312 73.773438 44.09375 C 73.773438 44.394531 73.40625 44.25 73.308594 43.914062 C 73.210938 43.589844 73.195312 43.582031 72.574219 43.5625 C 72.226562 43.550781 71.855469 43.5 71.757812 43.445312 C 71.65625 43.394531 71.320312 43.316406 71.015625 43.273438 C 70.707031 43.234375 70.382812 43.160156 70.296875 43.117188 C 70.210938 43.070312 70.011719 43.007812 69.859375 42.972656 C 69.703125 42.941406 69.578125 42.851562 69.578125 42.773438 C 69.578125 42.699219 69.449219 42.601562 69.296875 42.566406 C 69.140625 42.527344 68.875 42.4375 68.707031 42.363281 C 68.453125 42.253906 66.777344 41.886719 66.609375 41.902344 C 66.582031 41.90625 66.375 41.972656 66.148438 42.054688 M 75.308594 45.417969 C 75.25 45.566406 75.128906 45.671875 75.011719 45.671875 C 74.902344 45.671875 74.589844 45.78125 74.316406 45.914062 C 74.023438 46.058594 73.460938 46.207031 72.933594 46.273438 C 71.59375 46.449219 71.386719 46.542969 71.464844 46.933594 C 71.5 47.109375 71.570312 47.59375 71.621094 48.015625 C 71.671875 48.4375 71.757812 49.007812 71.816406 49.289062 C 71.871094 49.570312 71.921875 49.855469 71.925781 49.925781 C 71.925781 49.996094 72.019531 50.054688 72.132812 50.054688 C 72.28125 50.054688 72.359375 50.164062 72.441406 50.488281 C 72.5 50.726562 72.699219 51.21875 72.878906 51.582031 C 73.0625 51.949219 73.234375 52.359375 73.261719 52.5 C 73.292969 52.652344 73.394531 52.769531 73.515625 52.789062 C 73.734375 52.824219 74.386719 53.621094 74.386719 53.855469 C 74.386719 53.933594 74.511719 54.054688 74.667969 54.125 C 74.820312 54.199219 75.09375 54.324219 75.269531 54.40625 C 75.515625 54.523438 75.640625 54.53125 75.800781 54.449219 C 75.914062 54.386719 76.082031 54.335938 76.167969 54.335938 C 76.398438 54.335938 76.738281 54.015625 76.738281 53.800781 C 76.738281 53.699219 76.808594 53.589844 76.894531 53.558594 C 76.976562 53.523438 77.046875 53.445312 77.050781 53.382812 C 77.054688 53.167969 77.433594 52.808594 77.652344 52.808594 C 77.820312 52.808594 77.863281 52.742188 77.863281 52.511719 C 77.863281 52.347656 77.902344 52.195312 77.945312 52.179688 C 78.101562 52.113281 78.683594 50.878906 78.683594 50.617188 C 78.683594 50.433594 78.757812 50.328125 78.9375 50.257812 C 79.148438 50.179688 79.195312 50.09375 79.195312 49.796875 C 79.195312 49.59375 79.25 49.328125 79.316406 49.207031 C 79.378906 49.085938 79.472656 48.664062 79.519531 48.269531 C 79.566406 47.878906 79.632812 47.320312 79.667969 47.035156 C 79.746094 46.375 79.742188 46.371094 78.335938 46.28125 C 77.527344 46.230469 77.066406 46.148438 76.738281 46 C 76.484375 45.882812 76.171875 45.757812 76.042969 45.722656 C 75.914062 45.683594 75.765625 45.542969 75.710938 45.40625 C 75.59375 45.089844 75.429688 45.09375 75.308594 45.417969 M 73.851562 49.164062 L 73.878906 51.789062 L 73.589844 51.789062 C 73.324219 51.789062 73.289062 51.742188 73.171875 51.253906 C 73.097656 50.957031 72.980469 50.511719 72.90625 50.257812 C 72.558594 49.089844 72.390625 48.039062 72.433594 47.285156 C 72.4375 47.179688 72.566406 47.085938 72.753906 47.046875 C 72.957031 47 73.101562 46.886719 73.164062 46.726562 C 73.238281 46.527344 73.320312 46.480469 73.542969 46.503906 L 73.824219 46.539062 L 73.851562 49.164062 M 77.863281 46.78125 C 77.863281 46.90625 77.964844 47 78.144531 47.042969 C 78.71875 47.1875 78.875 47.957031 78.53125 48.933594 C 78.445312 49.171875 78.375 49.515625 78.375 49.699219 C 78.375 49.882812 78.308594 50.164062 78.222656 50.324219 C 78.140625 50.484375 78.070312 50.703125 78.070312 50.8125 C 78.070312 51.15625 77.734375 51.789062 77.550781 51.789062 C 77.453125 51.789062 77.347656 51.855469 77.316406 51.941406 C 77.105469 52.488281 77.046875 51.910156 77.046875 49.339844 L 77.046875 46.589844 L 77.457031 46.589844 C 77.789062 46.589844 77.863281 46.625 77.863281 46.78125 M 72.441406 52.289062 C 72.441406 52.710938 72.34375 52.910156 72.136719 52.910156 C 71.964844 52.910156 71.625 53.804688 71.625 54.253906 C 71.625 54.34375 71.554688 54.546875 71.46875 54.707031 C 71.386719 54.867188 71.316406 55.144531 71.316406 55.324219 C 71.316406 55.503906 71.273438 55.675781 71.21875 55.710938 C 71.164062 55.746094 71.085938 56 71.050781 56.277344 C 71 56.667969 70.941406 56.78125 70.804688 56.78125 C 70.617188 56.78125 70.296875 57.554688 70.289062 58.027344 C 70.289062 58.15625 70.21875 58.375 70.140625 58.515625 C 70.058594 58.65625 69.992188 58.910156 69.988281 59.078125 C 69.984375 59.246094 69.914062 59.472656 69.828125 59.582031 C 69.746094 59.6875 69.679688 59.863281 69.679688 59.964844 C 69.679688 60.070312 69.597656 60.183594 69.5 60.21875 C 68.859375 60.453125 69.042969 61.011719 69.808594 61.15625 C 72.226562 61.617188 72.558594 61.542969 72.75 60.503906 C 72.996094 59.164062 73.039062 58.960938 73.148438 58.617188 C 73.210938 58.421875 73.261719 58.066406 73.261719 57.824219 C 73.261719 57.453125 73.296875 57.375 73.515625 57.292969 C 73.738281 57.207031 73.773438 57.132812 73.773438 56.726562 C 73.773438 56.46875 73.824219 56.164062 73.886719 56.046875 C 74.117188 55.613281 74.1875 54.511719 73.996094 54.234375 C 73.902344 54.09375 73.800781 53.84375 73.773438 53.671875 C 73.734375 53.453125 73.65625 53.359375 73.492188 53.335938 C 73.363281 53.316406 73.261719 53.242188 73.261719 53.167969 C 73.261719 53.097656 73.191406 52.980469 73.105469 52.910156 C 73.023438 52.839844 72.953125 52.679688 72.953125 52.554688 C 72.953125 52.347656 72.675781 51.992188 72.511719 51.992188 C 72.472656 51.992188 72.441406 52.125 72.441406 52.289062 M 78.25 52.164062 C 78.148438 52.191406 78.070312 52.296875 78.070312 52.398438 C 78.070312 52.679688 77.734375 53.214844 77.554688 53.214844 C 77.304688 53.214844 77.046875 53.597656 77.046875 53.96875 C 77.046875 54.175781 76.988281 54.335938 76.902344 54.371094 C 76.773438 54.417969 76.773438 54.5 76.898438 54.96875 C 76.980469 55.265625 77.042969 55.742188 77.046875 56.03125 C 77.046875 56.320312 77.117188 56.75 77.199219 56.988281 C 77.285156 57.226562 77.351562 57.554688 77.351562 57.722656 C 77.351562 57.9375 77.410156 58.039062 77.550781 58.078125 C 77.757812 58.132812 78.238281 59.761719 78.34375 60.785156 C 78.421875 61.511719 79.003906 61.585938 81.214844 61.152344 C 81.78125 61.039062 82.140625 60.757812 81.714844 60.757812 C 81.632812 60.757812 81.519531 60.554688 81.445312 60.273438 C 81.371094 60.007812 81.273438 59.746094 81.226562 59.695312 C 81.179688 59.640625 81.140625 59.488281 81.140625 59.351562 C 81.140625 59.21875 81.070312 58.964844 80.988281 58.785156 C 80.847656 58.480469 80.675781 57.878906 80.554688 57.265625 C 80.523438 57.085938 80.4375 56.988281 80.320312 56.988281 C 80.117188 56.988281 80.015625 56.796875 80.011719 56.390625 C 80.007812 56.242188 79.941406 56.003906 79.859375 55.867188 C 79.78125 55.726562 79.710938 55.484375 79.710938 55.328125 C 79.707031 55.175781 79.667969 54.96875 79.617188 54.871094 C 79.433594 54.5 79.269531 53.960938 79.207031 53.519531 C 79.15625 53.144531 79.101562 53.054688 78.914062 53.03125 C 78.738281 53.003906 78.683594 52.929688 78.683594 52.707031 C 78.683594 52.378906 78.589844 52.085938 78.492188 52.105469 C 78.457031 52.113281 78.347656 52.136719 78.25 52.164062 M 67.5625 61.847656 C 67.445312 62.164062 66.875 62.792969 66.703125 62.796875 C 65.9375 62.804688 65.761719 63.28125 66.257812 64.007812 C 66.394531 64.207031 66.507812 64.5 66.507812 64.65625 C 66.507812 64.863281 66.558594 64.9375 66.695312 64.9375 C 66.796875 64.9375 66.984375 65.046875 67.109375 65.179688 C 67.304688 65.386719 67.460938 65.425781 68.328125 65.484375 C 68.875 65.519531 69.828125 65.597656 70.445312 65.664062 C 72.660156 65.890625 80.175781 65.785156 82.953125 65.488281 C 83.535156 65.425781 84.105469 64.949219 84.105469 64.527344 C 84.105469 64.398438 84.175781 64.328125 84.304688 64.328125 C 84.910156 64.328125 85.15625 63.097656 84.566406 63 C 84.128906 62.929688 83.621094 62.628906 83.546875 62.402344 C 83.511719 62.292969 83.417969 62.179688 83.335938 62.148438 C 83.253906 62.117188 83.183594 62.019531 83.183594 61.933594 C 83.183594 61.847656 83.117188 61.777344 83.03125 61.777344 C 82.949219 61.777344 82.878906 61.839844 82.878906 61.917969 C 82.878906 62.09375 81.71875 62.492188 81.210938 62.492188 C 80.914062 62.492188 80.792969 62.554688 80.613281 62.796875 C 80.488281 62.964844 80.328125 63.105469 80.261719 63.105469 C 80.195312 63.105469 80.117188 63.195312 80.085938 63.308594 C 80.019531 63.558594 79.707031 63.578125 79.707031 63.328125 C 79.707031 62.867188 77.019531 62.484375 76.582031 62.886719 C 76.433594 63.023438 75.753906 63.097656 75.644531 62.992188 C 75.585938 62.933594 75.421875 62.941406 75.214844 63.011719 C 74.957031 63.101562 74.820312 63.097656 74.609375 62.996094 C 73.695312 62.558594 71.316406 62.800781 71.316406 63.328125 C 71.316406 63.707031 70.632812 63.570312 70.558594 63.175781 C 70.472656 62.722656 70.175781 62.492188 69.671875 62.492188 C 69.445312 62.492188 69.136719 62.429688 68.984375 62.351562 C 68.832031 62.273438 68.511719 62.179688 68.273438 62.136719 C 68.011719 62.09375 67.835938 62.011719 67.835938 61.929688 C 67.835938 61.707031 67.636719 61.648438 67.5625 61.847656 M 83.222656 63.820312 C 83.457031 64.03125 83.222656 64.277344 82.707031 64.359375 C 82.328125 64.417969 82.167969 64.492188 82.132812 64.628906 C 82.09375 64.78125 81.949219 64.828125 81.332031 64.875 C 77.015625 65.195312 77.496094 65.191406 71.402344 64.953125 C 68.941406 64.859375 68.757812 64.832031 68.757812 64.582031 C 68.757812 64.492188 68.585938 64.414062 68.289062 64.371094 C 67.785156 64.296875 67.617188 64.097656 67.855469 63.855469 C 67.988281 63.726562 68.246094 63.722656 69.789062 63.828125 C 73.6875 64.09375 77.457031 64.058594 81.546875 63.714844 C 82.441406 63.640625 83.066406 63.679688 83.222656 63.820312 "/>
<path style=" stroke:none;fill-rule:evenodd;fill:rgb(80.000001%,7.843138%,14.117648%);fill-opacity:1;" d="M 2.726562 3.023438 C 2.691406 3.0625 2.660156 10.320312 2.660156 19.15625 L 2.660156 35.222656 L 75.425781 35.195312 C 119.441406 35.179688 148.234375 35.207031 148.300781 35.265625 C 148.414062 35.355469 148.425781 3.382812 148.316406 3.082031 C 148.261719 2.945312 2.867188 2.886719 2.726562 3.023438 "/>
<path style=" stroke:none;fill-rule:evenodd;fill:rgb(74.901962%,57.647061%,0%);fill-opacity:1;" d="M 75.5625 35.273438 L 148.3125 35.324219 L 148.335938 51.558594 L 148.363281 67.789062 L 2.761719 67.789062 L 2.738281 51.507812 L 2.710938 35.222656 L 2.6875 51.558594 L 2.660156 67.894531 L 75.535156 67.871094 L 148.414062 67.84375 L 148.441406 51.644531 C 148.460938 39.757812 148.433594 35.410156 148.351562 35.308594 C 148.253906 35.191406 136.628906 35.175781 75.523438 35.195312 L 2.8125 35.222656 L 75.5625 35.273438 M 72.671875 36.414062 C 72.304688 36.808594 72.339844 37.617188 72.722656 37.621094 C 72.878906 37.621094 73.09375 37.691406 73.203125 37.773438 C 73.3125 37.855469 73.476562 37.921875 73.570312 37.921875 C 74.039062 37.921875 74.230469 38.902344 73.976562 40.011719 C 73.730469 41.097656 73.714844 41.132812 73.488281 41.167969 C 73.308594 41.191406 73.261719 41.265625 73.261719 41.527344 C 73.261719 41.707031 73.144531 42.019531 73.003906 42.226562 C 72.863281 42.433594 72.75 42.667969 72.75 42.75 C 72.75 42.949219 72.644531 42.976562 72.035156 42.933594 C 71.617188 42.90625 71.519531 42.863281 71.519531 42.710938 C 71.519531 42.566406 71.414062 42.507812 71.035156 42.457031 C 70.769531 42.417969 70.351562 42.324219 70.109375 42.246094 C 69.871094 42.167969 69.605469 42.101562 69.527344 42.101562 C 69.28125 42.101562 68.300781 41.515625 68.265625 41.347656 C 68.246094 41.257812 68.175781 41.183594 68.113281 41.183594 C 68.046875 41.183594 67.6875 41.136719 67.316406 41.085938 C 66.421875 40.957031 65.75 41.066406 65.710938 41.351562 C 65.691406 41.472656 65.542969 41.621094 65.351562 41.703125 C 64.691406 41.992188 64.640625 42.269531 64.550781 45.925781 C 64.507812 47.71875 64.425781 49.992188 64.367188 50.972656 C 64.308594 51.953125 64.257812 53.328125 64.257812 54.03125 C 64.253906 55.488281 64.179688 56.070312 64.003906 56.070312 C 63.863281 56.070312 63.746094 58.015625 63.746094 60.324219 C 63.746094 61.894531 63.824219 61.980469 64.664062 61.34375 C 65.203125 60.9375 65.285156 60.890625 65.511719 60.820312 C 65.609375 60.789062 65.6875 60.683594 65.6875 60.578125 C 65.6875 60.328125 66.488281 59.578125 66.839844 59.496094 C 67.011719 59.457031 67.121094 59.359375 67.125 59.253906 C 67.125 59.054688 67.847656 58.414062 68.070312 58.414062 C 68.257812 58.414062 68.554688 58.085938 68.554688 57.878906 C 68.554688 57.6875 69.28125 57.089844 69.507812 57.089844 C 69.597656 57.089844 69.699219 57.035156 69.738281 56.972656 C 69.902344 56.710938 69.992188 57.1875 69.835938 57.488281 C 69.75 57.65625 69.679688 57.933594 69.679688 58.105469 C 69.679688 58.347656 69.621094 58.441406 69.421875 58.515625 C 69.28125 58.570312 69.167969 58.683594 69.167969 58.773438 C 69.167969 58.859375 69.054688 59.285156 68.917969 59.71875 C 68.78125 60.148438 68.640625 60.628906 68.609375 60.785156 C 68.5625 61.011719 68.492188 61.066406 68.257812 61.066406 C 67.730469 61.066406 67.332031 61.1875 67.066406 61.433594 C 66.921875 61.566406 66.738281 61.675781 66.65625 61.675781 C 66.566406 61.675781 66.507812 61.777344 66.507812 61.921875 C 66.507812 62.390625 65.792969 63.105469 65.324219 63.105469 C 65.230469 63.105469 65.175781 63.210938 65.175781 63.410156 C 65.175781 63.613281 65.226562 63.714844 65.332031 63.714844 C 65.417969 63.714844 65.542969 63.839844 65.613281 63.996094 C 65.679688 64.148438 65.792969 64.3125 65.867188 64.359375 C 65.9375 64.402344 65.996094 64.53125 65.996094 64.644531 C 65.996094 65.269531 66.441406 65.546875 67.863281 65.808594 C 68.089844 65.851562 68.246094 65.9375 68.246094 66.019531 C 68.246094 66.097656 68.257812 66.164062 68.273438 66.167969 C 69.550781 66.53125 79.617188 66.691406 81.242188 66.375 C 81.550781 66.3125 82.113281 66.238281 82.496094 66.203125 C 83.085938 66.152344 83.183594 66.117188 83.183594 65.949219 C 83.183594 65.832031 83.257812 65.753906 83.363281 65.753906 C 83.464844 65.753906 83.675781 65.683594 83.835938 65.601562 C 83.996094 65.515625 84.21875 65.449219 84.324219 65.449219 C 84.539062 65.449219 84.925781 64.898438 84.925781 64.597656 C 84.925781 64.492188 85.039062 64.316406 85.179688 64.207031 C 85.742188 63.765625 85.089844 62.289062 84.332031 62.289062 C 84.207031 62.289062 84.105469 62.042969 84.105469 61.722656 C 84.105469 61.425781 83.40625 61.066406 82.835938 61.066406 C 82.523438 61.066406 82.464844 61.023438 82.410156 60.785156 C 82.375 60.628906 82.257812 60.230469 82.15625 59.890625 C 82.050781 59.554688 81.941406 59.15625 81.910156 59 C 81.878906 58.847656 81.785156 58.71875 81.703125 58.71875 C 81.507812 58.71875 81.394531 58.488281 81.238281 57.777344 C 81.101562 57.175781 81.148438 56.957031 81.367188 57.171875 C 81.433594 57.238281 81.546875 57.292969 81.625 57.292969 C 81.851562 57.292969 82.367188 57.726562 82.367188 57.917969 C 82.367188 58.132812 82.796875 58.617188 82.988281 58.617188 C 83.214844 58.617188 83.796875 59.066406 83.796875 59.242188 C 83.800781 59.421875 84.210938 59.738281 84.441406 59.738281 C 84.648438 59.738281 85.105469 60.265625 85.144531 60.542969 C 85.167969 60.6875 85.304688 60.855469 85.488281 60.953125 C 85.65625 61.046875 85.992188 61.246094 86.230469 61.402344 C 86.675781 61.6875 87.394531 61.71875 87.035156 61.433594 C 86.914062 61.34375 86.863281 60.671875 86.773438 58.007812 C 86.710938 56.183594 86.59375 53.109375 86.511719 51.175781 C 86.429688 49.242188 86.339844 46.789062 86.304688 45.722656 C 86.25 44.019531 86.179688 43.234375 85.984375 42.179688 C 85.949219 42 85.867188 41.898438 85.75 41.898438 C 85.53125 41.898438 85.230469 41.589844 85.230469 41.363281 C 85.230469 41.128906 84.933594 41.0625 83.886719 41.070312 C 82.820312 41.074219 82.570312 41.132812 82.570312 41.378906 C 82.570312 41.550781 81.996094 41.898438 81.710938 41.898438 C 81.632812 41.898438 81.441406 41.96875 81.277344 42.050781 C 81.117188 42.136719 80.90625 42.203125 80.8125 42.203125 C 80.71875 42.203125 80.609375 42.25 80.578125 42.308594 C 80.542969 42.363281 80.359375 42.410156 80.167969 42.410156 C 79.703125 42.410156 79.296875 42.574219 79.296875 42.761719 C 79.296875 42.878906 79.183594 42.917969 78.863281 42.917969 C 78.1875 42.917969 77.855469 41.707031 77.847656 39.238281 C 77.84375 37.6875 77.828125 37.59375 77.53125 37.484375 C 77.433594 37.449219 77.351562 37.347656 77.351562 37.261719 C 77.351562 37.023438 76.929688 36.496094 76.742188 36.496094 C 76.648438 36.496094 76.523438 36.445312 76.460938 36.382812 C 76.363281 36.285156 75.046875 36.21875 74.488281 36.28125 C 74.402344 36.289062 74.011719 36.269531 73.617188 36.234375 C 72.949219 36.171875 72.886719 36.1875 72.671875 36.414062 M 74.265625 37.390625 C 74.285156 37.515625 74.363281 37.617188 74.445312 37.617188 C 74.523438 37.617188 74.589844 37.664062 74.589844 37.71875 C 74.589844 37.777344 74.683594 37.820312 74.800781 37.820312 C 74.914062 37.820312 75.121094 37.894531 75.261719 37.988281 C 75.46875 38.121094 75.5625 38.128906 75.804688 38.03125 C 75.964844 37.964844 76.300781 37.925781 76.546875 37.941406 L 76.996094 37.972656 L 77.046875 39.960938 C 77.101562 42.03125 77.222656 42.613281 77.613281 42.613281 C 77.695312 42.613281 77.761719 42.679688 77.761719 42.765625 C 77.761719 42.863281 77.664062 42.917969 77.480469 42.921875 C 77.328125 42.921875 77.136719 42.960938 77.0625 43.007812 C 76.984375 43.058594 76.746094 43.050781 76.519531 42.992188 C 76.167969 42.902344 76.070312 42.917969 75.816406 43.109375 L 75.519531 43.328125 L 75.40625 43.117188 C 75.308594 42.9375 75.210938 42.914062 74.71875 42.9375 C 74.191406 42.96875 74.140625 42.949219 74.085938 42.734375 C 74.015625 42.445312 73.835938 42.429688 73.789062 42.710938 C 73.742188 43.007812 73.261719 43.003906 73.261719 42.707031 C 73.261719 42.578125 73.34375 42.46875 73.464844 42.4375 C 73.71875 42.371094 74.078125 41.804688 74.078125 41.472656 C 74.078125 41.332031 74.113281 41.1875 74.152344 41.148438 C 74.617188 40.683594 74.59375 38.175781 74.117188 37.664062 C 73.984375 37.519531 73.875 37.332031 73.875 37.246094 C 73.875 37.003906 74.226562 37.128906 74.265625 37.390625 M 67.53125 42.066406 C 68.007812 42.15625 68.539062 42.292969 68.707031 42.363281 C 68.875 42.4375 69.140625 42.527344 69.296875 42.566406 C 69.449219 42.601562 69.578125 42.699219 69.578125 42.773438 C 69.578125 42.851562 69.703125 42.941406 69.859375 42.972656 C 70.011719 43.007812 70.210938 43.070312 70.296875 43.117188 C 70.382812 43.160156 70.707031 43.234375 71.015625 43.273438 C 71.320312 43.316406 71.65625 43.394531 71.757812 43.445312 C 71.855469 43.5 72.226562 43.550781 72.574219 43.5625 C 73.195312 43.582031 73.210938 43.589844 73.308594 43.914062 C 73.40625 44.25 73.773438 44.394531 73.773438 44.09375 C 73.773438 43.820312 74.367188 43.601562 74.890625 43.679688 C 75.148438 43.71875 75.484375 43.746094 75.640625 43.742188 C 75.957031 43.726562 76.703125 43.726562 77.125 43.738281 C 77.824219 43.757812 78.5625 43.671875 78.703125 43.558594 C 78.785156 43.488281 79.21875 43.378906 79.664062 43.316406 C 80.109375 43.25 80.519531 43.164062 80.578125 43.125 C 80.632812 43.082031 80.800781 43.019531 80.949219 42.984375 C 81.097656 42.949219 81.242188 42.828125 81.269531 42.714844 C 81.304688 42.585938 81.410156 42.511719 81.5625 42.511719 C 81.695312 42.507812 81.925781 42.445312 82.074219 42.371094 C 82.679688 42.054688 84.34375 41.855469 84.753906 42.050781 C 85.121094 42.222656 85.339844 42.917969 85.027344 42.917969 C 84.972656 42.917969 84.925781 42.828125 84.925781 42.714844 C 84.925781 42.542969 84.855469 42.511719 84.515625 42.511719 C 84.207031 42.511719 84.105469 42.550781 84.105469 42.675781 C 84.105469 42.875 83.242188 43.660156 82.9375 43.738281 C 82.820312 43.769531 82.710938 43.890625 82.691406 44.011719 C 82.65625 44.273438 81.925781 44.957031 81.683594 44.957031 C 81.453125 44.957031 81.140625 45.253906 81.140625 45.472656 C 81.140625 45.890625 78.25 45.898438 78.09375 45.476562 C 78.003906 45.234375 77.855469 45.164062 77.4375 45.164062 C 77.226562 45.160156 77.03125 45.117188 77 45.066406 C 76.914062 44.929688 76.332031 44.652344 76.128906 44.652344 C 76.035156 44.652344 75.871094 44.585938 75.765625 44.507812 C 75.597656 44.386719 75.539062 44.386719 75.363281 44.507812 C 75.25 44.585938 75.054688 44.652344 74.929688 44.652344 C 74.804688 44.652344 74.488281 44.765625 74.222656 44.90625 C 73.957031 45.046875 73.585938 45.160156 73.394531 45.160156 C 73.125 45.160156 73.03125 45.214844 72.957031 45.40625 C 72.878906 45.609375 72.769531 45.660156 72.320312 45.714844 C 72.023438 45.75 71.492188 45.832031 71.144531 45.894531 C 70.425781 46.027344 70.109375 45.90625 69.863281 45.398438 C 69.789062 45.246094 69.628906 45.09375 69.5 45.0625 C 69.15625 44.980469 68.367188 44.324219 68.332031 44.09375 C 68.3125 43.980469 68.214844 43.875 68.113281 43.855469 C 68.011719 43.835938 67.738281 43.636719 67.5 43.417969 C 67.265625 43.195312 66.945312 42.988281 66.789062 42.953125 C 66.601562 42.914062 66.507812 42.828125 66.507812 42.703125 C 66.507812 42.429688 66.039062 42.441406 65.964844 42.714844 C 65.878906 43.050781 65.6875 42.945312 65.6875 42.5625 C 65.6875 42.367188 65.699219 42.203125 65.714844 42.203125 C 65.726562 42.203125 65.925781 42.136719 66.148438 42.054688 C 66.660156 41.871094 66.515625 41.871094 67.53125 42.066406 M 75.710938 45.40625 C 75.765625 45.542969 75.914062 45.683594 76.042969 45.722656 C 76.171875 45.757812 76.484375 45.882812 76.738281 46 C 77.066406 46.148438 77.527344 46.230469 78.335938 46.28125 C 79.742188 46.371094 79.746094 46.375 79.667969 47.035156 C 79.632812 47.320312 79.566406 47.878906 79.519531 48.269531 C 79.472656 48.664062 79.378906 49.085938 79.316406 49.207031 C 79.25 49.328125 79.195312 49.59375 79.195312 49.796875 C 79.195312 50.09375 79.148438 50.179688 78.9375 50.257812 C 78.757812 50.328125 78.683594 50.433594 78.683594 50.617188 C 78.683594 50.878906 78.101562 52.113281 77.945312 52.179688 C 77.902344 52.195312 77.863281 52.347656 77.863281 52.511719 C 77.863281 52.742188 77.820312 52.808594 77.652344 52.808594 C 77.433594 52.808594 77.054688 53.167969 77.050781 53.382812 C 77.046875 53.445312 76.976562 53.523438 76.894531 53.558594 C 76.808594 53.589844 76.738281 53.699219 76.738281 53.800781 C 76.738281 54.015625 76.398438 54.335938 76.167969 54.335938 C 76.082031 54.335938 75.914062 54.386719 75.800781 54.449219 C 75.640625 54.53125 75.515625 54.523438 75.269531 54.40625 C 75.09375 54.324219 74.820312 54.199219 74.667969 54.125 C 74.511719 54.054688 74.386719 53.933594 74.386719 53.855469 C 74.386719 53.621094 73.734375 52.824219 73.515625 52.789062 C 73.394531 52.769531 73.292969 52.652344 73.261719 52.5 C 73.234375 52.359375 73.0625 51.949219 72.878906 51.582031 C 72.699219 51.21875 72.5 50.726562 72.441406 50.488281 C 72.359375 50.164062 72.28125 50.054688 72.132812 50.054688 C 72.019531 50.054688 71.925781 49.996094 71.925781 49.925781 C 71.921875 49.855469 71.871094 49.570312 71.816406 49.289062 C 71.757812 49.007812 71.671875 48.4375 71.621094 48.015625 C 71.570312 47.59375 71.5 47.109375 71.464844 46.933594 C 71.386719 46.542969 71.59375 46.449219 72.933594 46.273438 C 73.460938 46.207031 74.023438 46.058594 74.316406 45.914062 C 74.589844 45.78125 74.902344 45.671875 75.011719 45.671875 C 75.128906 45.671875 75.25 45.566406 75.308594 45.417969 C 75.429688 45.09375 75.59375 45.089844 75.710938 45.40625 M 73.164062 46.726562 C 73.101562 46.886719 72.957031 47 72.753906 47.046875 C 72.566406 47.085938 72.4375 47.179688 72.433594 47.285156 C 72.390625 48.039062 72.558594 49.089844 72.90625 50.257812 C 72.980469 50.511719 73.097656 50.957031 73.171875 51.253906 C 73.289062 51.742188 73.324219 51.789062 73.589844 51.789062 L 73.878906 51.789062 L 73.824219 46.539062 L 73.542969 46.503906 C 73.320312 46.480469 73.238281 46.527344 73.164062 46.726562 M 77.046875 49.339844 C 77.046875 51.910156 77.105469 52.488281 77.316406 51.941406 C 77.347656 51.855469 77.453125 51.789062 77.550781 51.789062 C 77.734375 51.789062 78.070312 51.15625 78.070312 50.8125 C 78.070312 50.703125 78.140625 50.484375 78.222656 50.324219 C 78.308594 50.164062 78.375 49.882812 78.375 49.699219 C 78.375 49.515625 78.445312 49.171875 78.53125 48.933594 C 78.875 47.957031 78.71875 47.1875 78.144531 47.042969 C 77.964844 47 77.863281 46.90625 77.863281 46.78125 C 77.863281 46.625 77.789062 46.589844 77.457031 46.589844 L 77.046875 46.589844 L 77.046875 49.339844 M 72.765625 52.160156 C 72.871094 52.253906 72.953125 52.429688 72.953125 52.554688 C 72.953125 52.679688 73.023438 52.839844 73.105469 52.910156 C 73.191406 52.980469 73.261719 53.097656 73.261719 53.167969 C 73.261719 53.242188 73.363281 53.316406 73.492188 53.335938 C 73.65625 53.359375 73.734375 53.453125 73.773438 53.671875 C 73.800781 53.84375 73.902344 54.09375 73.996094 54.234375 C 74.1875 54.511719 74.117188 55.613281 73.886719 56.046875 C 73.824219 56.164062 73.773438 56.46875 73.773438 56.726562 C 73.773438 57.132812 73.738281 57.207031 73.515625 57.292969 C 73.296875 57.375 73.261719 57.453125 73.261719 57.824219 C 73.261719 58.066406 73.210938 58.421875 73.148438 58.617188 C 73.039062 58.960938 72.996094 59.164062 72.75 60.503906 C 72.558594 61.542969 72.226562 61.617188 69.808594 61.15625 C 69.042969 61.011719 68.859375 60.453125 69.5 60.21875 C 69.597656 60.183594 69.679688 60.070312 69.679688 59.964844 C 69.679688 59.863281 69.746094 59.6875 69.828125 59.582031 C 69.914062 59.472656 69.984375 59.246094 69.988281 59.078125 C 69.992188 58.910156 70.058594 58.65625 70.140625 58.515625 C 70.21875 58.375 70.289062 58.15625 70.289062 58.027344 C 70.296875 57.554688 70.617188 56.78125 70.804688 56.78125 C 70.941406 56.78125 71 56.667969 71.050781 56.277344 C 71.085938 56 71.164062 55.746094 71.21875 55.710938 C 71.273438 55.675781 71.316406 55.503906 71.316406 55.324219 C 71.316406 55.144531 71.386719 54.867188 71.46875 54.707031 C 71.554688 54.546875 71.625 54.34375 71.625 54.253906 C 71.625 53.804688 71.964844 52.910156 72.136719 52.910156 C 72.34375 52.910156 72.441406 52.710938 72.441406 52.289062 C 72.441406 51.949219 72.503906 51.921875 72.765625 52.160156 M 78.621094 52.253906 C 78.65625 52.34375 78.683594 52.546875 78.683594 52.707031 C 78.683594 52.929688 78.738281 53.003906 78.914062 53.03125 C 79.101562 53.054688 79.15625 53.144531 79.207031 53.519531 C 79.269531 53.960938 79.433594 54.5 79.617188 54.871094 C 79.667969 54.96875 79.707031 55.175781 79.710938 55.328125 C 79.710938 55.484375 79.78125 55.726562 79.859375 55.867188 C 79.941406 56.003906 80.007812 56.242188 80.011719 56.390625 C 80.015625 56.796875 80.117188 56.988281 80.320312 56.988281 C 80.4375 56.988281 80.523438 57.085938 80.554688 57.265625 C 80.675781 57.878906 80.847656 58.480469 80.988281 58.785156 C 81.070312 58.964844 81.140625 59.21875 81.140625 59.351562 C 81.140625 59.488281 81.179688 59.640625 81.226562 59.695312 C 81.273438 59.746094 81.371094 60.007812 81.445312 60.273438 C 81.519531 60.554688 81.632812 60.757812 81.714844 60.757812 C 82.140625 60.757812 81.78125 61.039062 81.214844 61.152344 C 79.003906 61.585938 78.421875 61.511719 78.34375 60.785156 C 78.238281 59.761719 77.757812 58.132812 77.550781 58.078125 C 77.410156 58.039062 77.351562 57.9375 77.351562 57.722656 C 77.351562 57.554688 77.285156 57.226562 77.199219 56.988281 C 77.117188 56.75 77.046875 56.320312 77.046875 56.03125 C 77.042969 55.742188 76.980469 55.265625 76.898438 54.96875 C 76.773438 54.5 76.773438 54.417969 76.902344 54.371094 C 76.988281 54.335938 77.046875 54.175781 77.046875 53.96875 C 77.046875 53.597656 77.304688 53.214844 77.554688 53.214844 C 77.734375 53.214844 78.070312 52.679688 78.070312 52.398438 C 78.070312 52.238281 78.179688 52.160156 78.492188 52.105469 C 78.53125 52.097656 78.585938 52.167969 78.621094 52.253906 M 67.835938 61.929688 C 67.835938 62.011719 68.011719 62.09375 68.273438 62.136719 C 68.511719 62.179688 68.832031 62.273438 68.984375 62.351562 C 69.136719 62.429688 69.445312 62.492188 69.671875 62.492188 C 70.175781 62.492188 70.472656 62.722656 70.558594 63.175781 C 70.632812 63.570312 71.316406 63.707031 71.316406 63.328125 C 71.316406 62.800781 73.695312 62.558594 74.609375 62.996094 C 74.820312 63.097656 74.957031 63.101562 75.214844 63.011719 C 75.421875 62.941406 75.585938 62.933594 75.644531 62.992188 C 75.753906 63.097656 76.433594 63.023438 76.582031 62.886719 C 77.019531 62.484375 79.707031 62.867188 79.707031 63.328125 C 79.707031 63.578125 80.019531 63.558594 80.085938 63.308594 C 80.117188 63.195312 80.195312 63.105469 80.261719 63.105469 C 80.328125 63.105469 80.488281 62.964844 80.613281 62.796875 C 80.792969 62.554688 80.914062 62.492188 81.210938 62.492188 C 81.71875 62.492188 82.878906 62.09375 82.878906 61.917969 C 82.878906 61.839844 82.949219 61.777344 83.03125 61.777344 C 83.117188 61.777344 83.183594 61.847656 83.183594 61.933594 C 83.183594 62.019531 83.253906 62.117188 83.335938 62.148438 C 83.417969 62.179688 83.511719 62.292969 83.546875 62.402344 C 83.621094 62.628906 84.128906 62.929688 84.566406 63 C 85.15625 63.097656 84.910156 64.328125 84.304688 64.328125 C 84.175781 64.328125 84.105469 64.398438 84.105469 64.527344 C 84.105469 64.949219 83.535156 65.425781 82.953125 65.488281 C 80.175781 65.785156 72.660156 65.890625 70.445312 65.664062 C 69.828125 65.597656 68.875 65.519531 68.328125 65.484375 C 67.460938 65.425781 67.304688 65.386719 67.109375 65.179688 C 66.984375 65.046875 66.796875 64.9375 66.695312 64.9375 C 66.558594 64.9375 66.507812 64.863281 66.507812 64.65625 C 66.507812 64.5 66.394531 64.207031 66.257812 64.007812 C 65.761719 63.28125 65.9375 62.804688 66.703125 62.796875 C 66.875 62.792969 67.445312 62.164062 67.5625 61.847656 C 67.636719 61.648438 67.835938 61.707031 67.835938 61.929688 M 81.546875 63.714844 C 77.457031 64.058594 73.6875 64.09375 69.789062 63.828125 C 68.246094 63.722656 67.988281 63.726562 67.855469 63.855469 C 67.617188 64.097656 67.785156 64.296875 68.289062 64.371094 C 68.585938 64.414062 68.757812 64.492188 68.757812 64.582031 C 68.757812 64.832031 68.941406 64.859375 71.402344 64.953125 C 76.648438 65.15625 77.339844 65.167969 78.9375 65.050781 C 79.839844 64.984375 80.914062 64.902344 81.332031 64.875 C 81.949219 64.828125 82.09375 64.78125 82.132812 64.628906 C 82.167969 64.492188 82.328125 64.417969 82.707031 64.359375 C 83.097656 64.296875 83.242188 64.226562 83.269531 64.085938 C 83.34375 63.703125 82.878906 63.605469 81.546875 63.714844 "/>
<path style=" stroke:none;fill-rule:evenodd;fill:rgb(0%,0%,0%);fill-opacity:1;" d="M 0 50.972656 L 0 101.945312 L 150 101.945312 L 150 0 L 0 0 L 0 50.972656 M 148.292969 3.03125 C 148.320312 3.074219 148.355469 17.675781 148.378906 35.476562 L 148.414062 67.84375 L 75.535156 67.871094 L 2.660156 67.894531 L 2.660156 35.492188 C 2.660156 17.671875 2.691406 3.0625 2.726562 3.023438 C 2.824219 2.929688 148.238281 2.9375 148.292969 3.03125 "/>
</g>
</svg>
