<?xml version="1.0" encoding="UTF-8"?>
<svg xmlns="http://www.w3.org/2000/svg" xmlns:xlink="http://www.w3.org/1999/xlink" width="150px" height="150px" viewBox="0 0 150 150" version="1.1">
<g id="surface1">
<path style=" stroke:none;fill-rule:evenodd;fill:rgb(76.47059%,7.843138%,17.254902%);fill-opacity:1;" d="M 6.824219 32.691406 C 6.007812 32.777344 5.957031 32.800781 6.300781 32.953125 C 6.507812 33.046875 6.90625 33.363281 7.191406 33.660156 C 7.476562 33.957031 7.820312 34.199219 7.953125 34.199219 C 8.085938 34.199219 8.355469 34.367188 8.550781 34.574219 C 8.742188 34.78125 8.960938 34.949219 9.027344 34.949219 C 9.144531 34.949219 10.324219 35.671875 10.5 35.847656 C 10.589844 35.941406 11.164062 36.277344 11.78125 36.597656 C 12.035156 36.730469 12.441406 36.972656 12.683594 37.136719 C 12.925781 37.304688 13.378906 37.566406 13.6875 37.726562 C 13.996094 37.886719 14.25 38.070312 14.25 38.132812 C 14.25 38.199219 14.375 38.25 14.53125 38.25 C 14.6875 38.25 14.898438 38.351562 15 38.476562 C 15.101562 38.597656 15.265625 38.699219 15.367188 38.699219 C 15.464844 38.699219 15.683594 38.828125 15.851562 38.988281 C 16.019531 39.144531 16.457031 39.410156 16.816406 39.574219 C 17.179688 39.742188 17.625 40.015625 17.804688 40.1875 C 17.988281 40.359375 18.191406 40.5 18.257812 40.5 C 18.320312 40.5 18.78125 40.769531 19.273438 41.101562 C 19.769531 41.429688 20.222656 41.699219 20.28125 41.699219 C 20.371094 41.699219 21.171875 42.191406 21.683594 42.558594 C 21.769531 42.625 22.039062 42.78125 22.285156 42.910156 C 23.050781 43.320312 23.472656 43.570312 23.550781 43.664062 C 23.589844 43.714844 24.03125 43.976562 24.523438 44.25 C 25.019531 44.523438 25.449219 44.800781 25.476562 44.871094 C 25.503906 44.941406 25.644531 45 25.792969 45 C 25.941406 45 26.148438 45.101562 26.25 45.226562 C 26.351562 45.347656 26.496094 45.449219 26.570312 45.449219 C 26.644531 45.449219 27.050781 45.6875 27.46875 45.976562 C 27.890625 46.265625 28.285156 46.5 28.347656 46.5 C 28.40625 46.5 28.96875 46.835938 29.59375 47.25 C 30.21875 47.660156 31.023438 48.15625 31.378906 48.347656 C 32.300781 48.839844 32.644531 49.050781 33.578125 49.6875 C 34.027344 49.996094 34.460938 50.25 34.53125 50.25 C 34.605469 50.25 35.015625 50.472656 35.445312 50.746094 C 35.875 51.019531 36.425781 51.347656 36.675781 51.476562 C 37.628906 51.972656 39.402344 53.039062 39.8125 53.363281 C 40.046875 53.546875 40.300781 53.699219 40.375 53.699219 C 40.445312 53.699219 40.851562 53.9375 41.269531 54.226562 C 41.691406 54.515625 42.097656 54.75 42.175781 54.75 C 42.253906 54.75 42.535156 54.902344 42.796875 55.085938 C 43.394531 55.511719 43.730469 55.71875 44.421875 56.09375 C 44.722656 56.257812 45.613281 56.796875 46.40625 57.296875 C 47.195312 57.792969 47.875 58.199219 47.914062 58.199219 C 47.953125 58.199219 48.628906 58.605469 49.414062 59.101562 C 50.199219 59.59375 50.882812 60 50.929688 60 C 50.980469 60 51.234375 60.152344 51.496094 60.335938 C 52.203125 60.835938 52.480469 61.003906 53.503906 61.539062 C 54.644531 62.136719 59.058594 64.910156 59.179688 65.105469 C 59.226562 65.1875 59.382812 65.25 59.523438 65.25 C 59.871094 65.25 60.785156 65.753906 61.710938 66.453125 C 62.132812 66.769531 63.078125 67.34375 63.816406 67.726562 C 64.554688 68.105469 65.242188 68.535156 65.34375 68.671875 C 65.5 68.886719 65.53125 68.804688 65.527344 68.148438 C 65.519531 66.730469 65.792969 65.835938 67.058594 63.179688 C 68.277344 60.625 68.207031 60.792969 68.488281 59.773438 C 68.773438 58.742188 68.929688 58.5 69.308594 58.5 C 69.734375 58.5 69.808594 58.761719 69.777344 60.179688 C 69.746094 61.628906 69.929688 61.898438 70.195312 60.789062 C 70.480469 59.597656 70.625 59.0625 70.882812 58.199219 C 71.019531 57.746094 71.183594 57.105469 71.246094 56.773438 C 71.878906 53.511719 73.632812 52.007812 73.449219 54.882812 C 73.410156 55.511719 73.300781 56.867188 73.207031 57.898438 C 73.066406 59.429688 73.0625 63.6875 73.195312 69.113281 C 73.199219 69.214844 73.265625 69.300781 73.347656 69.300781 C 73.4375 69.300781 73.511719 66.984375 73.546875 63.039062 C 73.636719 52.832031 74.136719 49.800781 75.742188 49.800781 C 77.136719 49.800781 77.734375 54.375 77.6875 64.726562 C 77.664062 70.171875 77.660156 70.042969 77.851562 69.75 C 78.058594 69.425781 78.046875 56.230469 77.835938 55.179688 C 77.625 54.121094 77.949219 53.132812 78.425781 53.386719 C 78.921875 53.652344 79.691406 55.523438 80.40625 58.199219 C 80.503906 58.570312 80.679688 59.175781 80.792969 59.539062 C 80.90625 59.90625 81 60.355469 81 60.542969 C 81 60.730469 81.066406 60.921875 81.144531 60.972656 C 81.332031 61.085938 81.4375 60.617188 81.488281 59.476562 C 81.550781 57.972656 82.78125 58.445312 82.796875 59.976562 C 82.800781 60.230469 83.0625 60.835938 84.105469 62.992188 C 85.316406 65.484375 85.375 65.644531 85.601562 67.125 C 86.074219 70.222656 85.003906 72.980469 82.351562 75.511719 C 81.347656 76.46875 81.269531 76.730469 82.15625 76.179688 C 84.570312 74.675781 87.988281 75.488281 89.199219 77.855469 C 89.871094 79.171875 89.71875 82.097656 88.953125 82.574219 C 88.722656 82.714844 88.769531 82.949219 89.03125 82.949219 C 89.265625 82.949219 89.472656 83.0625 90.839844 83.945312 C 91.261719 84.214844 91.800781 84.519531 92.039062 84.625 C 92.277344 84.730469 92.683594 84.96875 92.9375 85.15625 C 93.195312 85.347656 93.453125 85.5 93.511719 85.5 C 93.574219 85.5 94.105469 85.820312 94.699219 86.207031 C 95.289062 86.597656 96.113281 87.089844 96.523438 87.304688 C 96.9375 87.519531 97.949219 88.121094 98.773438 88.644531 C 99.601562 89.164062 100.511719 89.703125 100.800781 89.835938 C 101.089844 89.964844 101.632812 90.265625 102 90.5 C 103.90625 91.699219 106.671875 93.378906 107.398438 93.785156 C 107.855469 94.035156 108.527344 94.453125 108.898438 94.714844 C 109.269531 94.976562 109.777344 95.277344 110.023438 95.382812 C 110.273438 95.488281 110.863281 95.839844 111.335938 96.164062 C 111.808594 96.484375 112.242188 96.75 112.296875 96.75 C 112.351562 96.75 112.605469 96.90625 112.859375 97.09375 C 113.117188 97.285156 113.714844 97.632812 114.191406 97.871094 C 114.667969 98.109375 115.132812 98.390625 115.222656 98.5 C 115.3125 98.609375 115.46875 98.699219 115.566406 98.699219 C 115.667969 98.699219 115.90625 98.867188 116.101562 99.074219 C 116.292969 99.28125 116.574219 99.449219 116.726562 99.449219 C 116.875 99.449219 117 99.515625 117 99.601562 C 117 99.683594 117.125 99.75 117.273438 99.75 C 117.425781 99.75 117.707031 99.917969 117.898438 100.125 C 118.09375 100.332031 118.375 100.5 118.527344 100.5 C 118.675781 100.5 118.800781 100.566406 118.800781 100.648438 C 118.800781 100.726562 118.960938 100.835938 119.160156 100.882812 C 119.359375 100.933594 119.675781 101.136719 119.863281 101.335938 C 120.050781 101.535156 120.324219 101.699219 120.476562 101.699219 C 120.625 101.699219 120.75 101.765625 120.75 101.851562 C 120.75 101.933594 120.875 102 121.023438 102 C 121.175781 102 121.457031 102.167969 121.648438 102.375 C 121.84375 102.582031 122.117188 102.75 122.257812 102.75 C 122.398438 102.75 122.597656 102.851562 122.699219 102.976562 C 122.804688 103.097656 122.96875 103.199219 123.066406 103.199219 C 123.167969 103.199219 123.40625 103.367188 123.601562 103.574219 C 123.792969 103.78125 124.074219 103.949219 124.226562 103.949219 C 124.375 103.949219 124.5 104.015625 124.5 104.101562 C 124.5 104.183594 124.625 104.25 124.773438 104.25 C 124.925781 104.25 125.207031 104.417969 125.398438 104.625 C 125.59375 104.832031 125.875 105 126.027344 105 C 126.175781 105 126.300781 105.066406 126.300781 105.148438 C 126.300781 105.226562 126.460938 105.335938 126.660156 105.382812 C 126.859375 105.433594 127.175781 105.636719 127.363281 105.835938 C 127.550781 106.035156 127.824219 106.199219 127.976562 106.199219 C 128.125 106.199219 128.25 106.265625 128.25 106.351562 C 128.25 106.433594 128.347656 106.5 128.464844 106.5 C 128.582031 106.5 128.878906 106.667969 129.121094 106.875 C 129.367188 107.082031 129.675781 107.25 129.808594 107.25 C 129.941406 107.25 130.050781 107.316406 130.050781 107.398438 C 130.050781 107.476562 130.210938 107.585938 130.410156 107.632812 C 130.609375 107.683594 130.925781 107.886719 131.113281 108.085938 C 131.300781 108.285156 131.574219 108.449219 131.726562 108.449219 C 131.875 108.449219 132 108.515625 132 108.601562 C 132 108.683594 132.078125 108.75 132.171875 108.75 C 132.269531 108.75 132.566406 108.917969 132.839844 109.125 C 133.109375 109.332031 133.425781 109.5 133.546875 109.5 C 133.664062 109.5 133.847656 109.601562 133.949219 109.726562 C 134.054688 109.847656 134.21875 109.949219 134.316406 109.949219 C 134.417969 109.949219 134.65625 110.117188 134.851562 110.324219 C 135.042969 110.53125 135.324219 110.699219 135.476562 110.699219 C 135.625 110.699219 135.75 110.765625 135.75 110.851562 C 135.75 110.933594 135.875 111 136.023438 111 C 136.175781 111 136.457031 111.167969 136.648438 111.375 C 136.84375 111.582031 137.117188 111.75 137.257812 111.75 C 137.398438 111.75 137.597656 111.851562 137.699219 111.976562 C 137.804688 112.097656 137.96875 112.199219 138.066406 112.199219 C 138.167969 112.199219 138.40625 112.367188 138.601562 112.574219 C 138.792969 112.78125 139.03125 112.949219 139.128906 112.949219 C 139.417969 112.949219 140.183594 113.375 140.472656 113.699219 C 140.625 113.863281 140.863281 114 141.003906 114 C 141.148438 114 141.347656 114.101562 141.449219 114.226562 C 141.554688 114.347656 141.71875 114.449219 141.816406 114.449219 C 141.917969 114.449219 142.15625 114.617188 142.351562 114.824219 C 142.542969 115.03125 142.824219 115.199219 142.976562 115.199219 C 143.125 115.199219 143.25 115.265625 143.25 115.351562 C 143.25 115.433594 143.363281 115.5 143.503906 115.5 C 143.644531 115.5 143.929688 115.664062 144.140625 115.863281 C 144.351562 116.0625 144.726562 116.246094 144.976562 116.273438 L 145.425781 116.324219 L 145.425781 32.625 L 76.574219 32.613281 C 38.707031 32.605469 7.320312 32.640625 6.824219 32.691406 M 81.453125 61.996094 C 81.449219 62.339844 81.511719 62.53125 81.601562 62.476562 C 81.789062 62.359375 81.789062 61.941406 81.601562 61.648438 C 81.492188 61.484375 81.453125 61.574219 81.453125 61.996094 M 69.453125 62.652344 C 69.453125 63.078125 69.492188 63.167969 69.601562 63 C 69.789062 62.707031 69.789062 62.292969 69.601562 62.175781 C 69.511719 62.121094 69.449219 62.308594 69.453125 62.652344 M 81.859375 63.390625 C 81.800781 63.449219 81.75 64.621094 81.75 65.996094 C 81.75 67.53125 81.691406 68.550781 81.59375 68.648438 C 81.507812 68.734375 81.410156 69.160156 81.382812 69.59375 C 81.351562 70.027344 81.253906 70.457031 81.164062 70.546875 C 81.074219 70.636719 81 70.921875 81 71.183594 C 81 71.441406 80.898438 71.859375 80.773438 72.109375 C 80.535156 72.585938 80.621094 73.265625 80.867188 72.875 C 80.9375 72.765625 80.996094 72.523438 80.996094 72.335938 C 81 72.152344 81.0625 72 81.136719 72 C 81.285156 72 81.582031 70.699219 81.703125 69.523438 C 81.746094 69.113281 81.851562 68.691406 81.9375 68.585938 C 82.304688 68.132812 82.230469 63.019531 81.859375 63.390625 M 69.109375 63.898438 C 68.980469 64.363281 69 66.8125 69.136719 67.425781 C 69.222656 67.800781 69.253906 67.722656 69.34375 66.914062 C 69.46875 65.792969 69.457031 64.609375 69.3125 63.976562 L 69.214844 63.523438 L 69.109375 63.898438 M 69.382812 68.222656 C 69.253906 68.632812 69.417969 70.011719 69.613281 70.132812 C 69.6875 70.179688 69.75 70.390625 69.75 70.597656 C 69.75 71.140625 70.195312 72.601562 70.359375 72.601562 C 70.65625 72.601562 70.335938 70.851562 69.890625 70.015625 C 69.8125 69.871094 69.746094 69.464844 69.738281 69.113281 C 69.722656 68.210938 69.535156 67.742188 69.382812 68.222656 M 73.589844 70.289062 C 73.464844 70.617188 73.496094 71.417969 73.648438 71.773438 C 73.738281 71.984375 73.78125 71.765625 73.789062 71.0625 C 73.800781 70.035156 73.753906 69.859375 73.589844 70.289062 M 77.351562 71.003906 C 77.203125 71.394531 77.226562 72.601562 77.382812 72.601562 C 77.558594 72.601562 77.675781 71.574219 77.554688 71.105469 C 77.46875 70.785156 77.441406 70.773438 77.351562 71.003906 M 73.9375 72.601562 C 73.890625 73.824219 74.125 74.699219 74.492188 74.699219 C 74.75 74.699219 74.75 74.664062 74.476562 74 C 74.351562 73.707031 74.25 73.253906 74.246094 72.992188 C 74.246094 72.289062 73.960938 71.929688 73.9375 72.601562 M 76.898438 73.5 C 76.796875 74.003906 76.914062 74.441406 77.117188 74.316406 C 77.289062 74.207031 77.292969 73.050781 77.117188 73.050781 C 77.046875 73.050781 76.945312 73.25 76.898438 73.5 M 80.34375 73.324219 C 80.277344 73.515625 80.261719 73.710938 80.3125 73.761719 C 80.464844 73.917969 80.578125 73.6875 80.519531 73.324219 L 80.464844 72.976562 L 80.34375 73.324219 M 70.949219 74.175781 C 70.949219 74.398438 71.015625 74.527344 71.101562 74.476562 C 71.183594 74.425781 71.25 74.289062 71.25 74.175781 C 71.25 74.0625 71.183594 73.925781 71.101562 73.875 C 71.015625 73.820312 70.949219 73.953125 70.949219 74.175781 M 71.253906 74.8125 C 71.257812 75.140625 71.546875 75.359375 71.546875 75.039062 C 71.550781 74.851562 71.484375 74.699219 71.398438 74.699219 C 71.316406 74.699219 71.25 74.75 71.253906 74.8125 M 68.160156 75.078125 C 68.199219 75.339844 68.765625 75.785156 68.894531 75.652344 C 68.964844 75.582031 68.300781 74.851562 68.167969 74.851562 C 68.144531 74.851562 68.140625 74.953125 68.160156 75.078125 M 76.601562 74.949219 C 76.453125 75.097656 76.476562 75.867188 76.632812 75.964844 C 76.707031 76.011719 76.796875 75.847656 76.832031 75.601562 C 76.902344 75.132812 76.773438 74.773438 76.601562 74.949219 M 71.664062 75.386719 C 71.542969 75.503906 71.714844 76.050781 71.867188 76.050781 C 72.039062 76.050781 72.039062 75.492188 71.871094 75.386719 C 71.800781 75.34375 71.707031 75.34375 71.664062 75.386719 M 72.003906 76.3125 C 72.007812 76.640625 72.296875 76.859375 72.296875 76.539062 C 72.300781 76.351562 72.234375 76.199219 72.148438 76.199219 C 72.066406 76.199219 72 76.25 72.003906 76.3125 M 78.828125 76.695312 C 78.765625 76.84375 78.753906 77.003906 78.804688 77.054688 C 78.957031 77.207031 79.082031 76.996094 79.011719 76.699219 C 78.949219 76.4375 78.941406 76.4375 78.828125 76.695312 M 78.453125 77.585938 C 78.453125 77.859375 78.480469 77.882812 78.601562 77.699219 C 78.789062 77.410156 78.789062 77.25 78.601562 77.25 C 78.515625 77.25 78.449219 77.402344 78.453125 77.585938 M 78.449219 81.226562 C 78.449219 81.449219 78.515625 81.578125 78.601562 81.523438 C 78.683594 81.472656 78.75 81.339844 78.75 81.226562 C 78.75 81.109375 78.683594 80.976562 78.601562 80.925781 C 78.515625 80.871094 78.449219 81 78.449219 81.226562 "/>
<path style=" stroke:none;fill-rule:evenodd;fill:rgb(1.568628%,1.568628%,1.568628%);fill-opacity:1;" d="M 0 75 L 0 121.648438 L 150 121.648438 L 150 28.351562 L 0 28.351562 L 0 75 M 145.460938 74.324219 C 145.480469 97.261719 145.453125 116.125 145.402344 116.25 C 145.351562 116.375 145.300781 116.609375 145.292969 116.773438 C 145.273438 117.117188 119.015625 117.234375 41.398438 117.226562 L 4.273438 117.226562 L 4.238281 74.96875 L 4.199219 32.710938 L 5.960938 32.660156 C 6.933594 32.636719 38.707031 32.617188 76.574219 32.621094 L 145.425781 32.625 L 145.460938 74.324219 "/>
<path style=" stroke:none;fill-rule:evenodd;fill:rgb(1.568628%,45.09804%,23.137255%);fill-opacity:1;" d="M 4.238281 74.960938 L 4.273438 117.226562 L 74.699219 117.175781 C 113.433594 117.148438 145.183594 117.070312 145.253906 117.003906 C 145.488281 116.777344 145.199219 116.25 144.839844 116.25 C 144.65625 116.25 144.34375 116.082031 144.148438 115.875 C 143.957031 115.667969 143.675781 115.5 143.523438 115.5 C 143.375 115.5 143.25 115.433594 143.25 115.351562 C 143.25 115.265625 143.125 115.199219 142.976562 115.199219 C 142.824219 115.199219 142.542969 115.03125 142.351562 114.824219 C 142.15625 114.617188 141.917969 114.449219 141.816406 114.449219 C 141.71875 114.449219 141.554688 114.347656 141.449219 114.226562 C 141.347656 114.101562 141.148438 114 141.003906 114 C 140.863281 114 140.625 113.863281 140.472656 113.699219 C 140.183594 113.375 139.417969 112.949219 139.128906 112.949219 C 139.03125 112.949219 138.792969 112.78125 138.601562 112.574219 C 138.40625 112.367188 138.167969 112.199219 138.066406 112.199219 C 137.96875 112.199219 137.804688 112.097656 137.699219 111.976562 C 137.597656 111.851562 137.398438 111.75 137.257812 111.75 C 137.117188 111.75 136.84375 111.582031 136.648438 111.375 C 136.457031 111.167969 136.175781 111 136.023438 111 C 135.875 111 135.75 110.933594 135.75 110.851562 C 135.75 110.765625 135.625 110.699219 135.476562 110.699219 C 135.324219 110.699219 135.042969 110.53125 134.851562 110.324219 C 134.65625 110.117188 134.417969 109.949219 134.316406 109.949219 C 134.21875 109.949219 134.054688 109.847656 133.949219 109.726562 C 133.847656 109.601562 133.664062 109.5 133.546875 109.5 C 133.425781 109.5 133.109375 109.332031 132.839844 109.125 C 132.566406 108.917969 132.269531 108.75 132.171875 108.75 C 132.078125 108.75 132 108.683594 132 108.601562 C 132 108.515625 131.875 108.449219 131.726562 108.449219 C 131.574219 108.449219 131.300781 108.285156 131.113281 108.085938 C 130.925781 107.886719 130.609375 107.683594 130.410156 107.632812 C 130.210938 107.585938 130.050781 107.476562 130.050781 107.398438 C 130.050781 107.316406 129.941406 107.25 129.808594 107.25 C 129.675781 107.25 129.367188 107.082031 129.121094 106.875 C 128.878906 106.667969 128.582031 106.5 128.464844 106.5 C 128.347656 106.5 128.25 106.433594 128.25 106.351562 C 128.25 106.265625 128.125 106.199219 127.976562 106.199219 C 127.824219 106.199219 127.550781 106.035156 127.363281 105.835938 C 127.175781 105.636719 126.859375 105.433594 126.660156 105.382812 C 126.460938 105.335938 126.300781 105.226562 126.300781 105.148438 C 126.300781 105.066406 126.175781 105 126.027344 105 C 125.875 105 125.59375 104.832031 125.398438 104.625 C 125.207031 104.417969 124.925781 104.25 124.773438 104.25 C 124.625 104.25 124.5 104.183594 124.5 104.101562 C 124.5 104.015625 124.375 103.949219 124.226562 103.949219 C 124.074219 103.949219 123.792969 103.78125 123.601562 103.574219 C 123.40625 103.367188 123.167969 103.199219 123.066406 103.199219 C 122.96875 103.199219 122.804688 103.097656 122.699219 102.976562 C 122.597656 102.851562 122.398438 102.75 122.257812 102.75 C 122.117188 102.75 121.84375 102.582031 121.648438 102.375 C 121.457031 102.167969 121.175781 102 121.023438 102 C 120.875 102 120.75 101.933594 120.75 101.851562 C 120.75 101.765625 120.625 101.699219 120.476562 101.699219 C 120.324219 101.699219 120.050781 101.535156 119.863281 101.335938 C 119.675781 101.136719 119.359375 100.933594 119.160156 100.882812 C 118.960938 100.835938 118.800781 100.726562 118.800781 100.648438 C 118.800781 100.566406 118.675781 100.5 118.527344 100.5 C 118.375 100.5 118.09375 100.332031 117.898438 100.125 C 117.707031 99.917969 117.425781 99.75 117.273438 99.75 C 117.125 99.75 117 99.683594 117 99.601562 C 117 99.515625 116.875 99.449219 116.726562 99.449219 C 116.574219 99.449219 116.292969 99.28125 116.101562 99.074219 C 115.90625 98.867188 115.667969 98.699219 115.566406 98.699219 C 115.46875 98.699219 115.3125 98.609375 115.222656 98.5 C 115.132812 98.390625 114.667969 98.109375 114.191406 97.871094 C 113.714844 97.632812 113.117188 97.285156 112.859375 97.09375 C 112.605469 96.90625 112.351562 96.75 112.296875 96.75 C 112.242188 96.75 111.808594 96.484375 111.335938 96.164062 C 110.863281 95.839844 110.273438 95.488281 110.023438 95.382812 C 109.777344 95.277344 109.269531 94.976562 108.898438 94.714844 C 108.527344 94.453125 107.855469 94.035156 107.398438 93.785156 C 106.671875 93.378906 103.90625 91.699219 102 90.5 C 101.632812 90.265625 101.089844 89.964844 100.800781 89.835938 C 100.511719 89.703125 99.601562 89.164062 98.773438 88.644531 C 97.949219 88.121094 96.9375 87.519531 96.523438 87.304688 C 96.113281 87.089844 95.289062 86.597656 94.699219 86.207031 C 94.105469 85.820312 93.574219 85.5 93.511719 85.5 C 93.453125 85.5 93.195312 85.347656 92.9375 85.15625 C 92.683594 84.96875 92.277344 84.730469 92.039062 84.625 C 91.800781 84.519531 91.261719 84.214844 90.839844 83.945312 C 88.960938 82.738281 89.074219 82.757812 88.050781 83.460938 C 87.242188 84.015625 85.960938 84.265625 85.125 84.03125 L 84.675781 83.902344 L 84.726562 82.628906 C 84.792969 81.070312 84.464844 80.648438 83.042969 80.46875 C 81.011719 80.21875 80.019531 81 79.835938 82.996094 C 79.753906 83.882812 79.386719 84.300781 78.691406 84.300781 C 78.152344 84.300781 78.558594 85.175781 79.105469 85.195312 C 79.925781 85.226562 82.007812 87.464844 82.808594 89.175781 C 83.378906 90.386719 83.542969 93.117188 83.113281 94.199219 C 82.097656 96.761719 81.019531 97.902344 78.429688 99.164062 C 75.085938 100.789062 69.707031 98.773438 68.179688 95.324219 C 67.5 93.789062 67.457031 93.585938 67.453125 91.902344 C 67.445312 89.210938 69.039062 86.496094 71.273438 85.390625 C 72.472656 84.796875 72.804688 84 71.851562 84 C 71.253906 84 71.074219 83.6875 70.949219 82.425781 C 70.714844 80.015625 68.503906 79.132812 66.773438 80.753906 L 66.273438 81.226562 L 66.324219 82.574219 L 66.375 83.925781 L 65.9375 83.976562 C 64.992188 84.082031 62.882812 83.242188 62.074219 82.433594 C 59.464844 79.824219 62.394531 75 66.585938 75 C 67.222656 75 67.8125 75.074219 67.902344 75.164062 C 68.347656 75.609375 68.1875 74.941406 67.695312 74.300781 C 67.046875 73.449219 66.089844 71.667969 65.941406 71.023438 C 65.882812 70.777344 65.769531 70.210938 65.6875 69.769531 C 65.484375 68.664062 65.355469 68.523438 63.820312 67.726562 C 63.078125 67.34375 62.132812 66.769531 61.710938 66.453125 C 60.785156 65.753906 59.871094 65.25 59.523438 65.25 C 59.382812 65.25 59.226562 65.1875 59.179688 65.105469 C 59.058594 64.910156 54.644531 62.136719 53.503906 61.539062 C 52.480469 61.003906 52.203125 60.835938 51.496094 60.335938 C 51.234375 60.152344 50.980469 60 50.929688 60 C 50.882812 60 50.199219 59.59375 49.414062 59.101562 C 48.628906 58.605469 47.953125 58.199219 47.914062 58.199219 C 47.875 58.199219 47.195312 57.792969 46.40625 57.296875 C 45.613281 56.796875 44.722656 56.257812 44.421875 56.09375 C 43.730469 55.71875 43.394531 55.511719 42.796875 55.085938 C 42.535156 54.902344 42.253906 54.75 42.175781 54.75 C 42.097656 54.75 41.691406 54.515625 41.269531 54.226562 C 40.851562 53.9375 40.445312 53.699219 40.375 53.699219 C 40.300781 53.699219 40.046875 53.546875 39.8125 53.363281 C 39.402344 53.039062 37.628906 51.972656 36.675781 51.476562 C 36.425781 51.347656 35.875 51.019531 35.445312 50.746094 C 35.015625 50.472656 34.605469 50.25 34.53125 50.25 C 34.460938 50.25 34.027344 49.996094 33.578125 49.6875 C 32.644531 49.050781 32.300781 48.839844 31.378906 48.347656 C 31.023438 48.15625 30.21875 47.660156 29.59375 47.25 C 28.96875 46.835938 28.40625 46.5 28.347656 46.5 C 28.285156 46.5 27.890625 46.265625 27.46875 45.976562 C 27.050781 45.6875 26.644531 45.449219 26.570312 45.449219 C 26.496094 45.449219 26.351562 45.347656 26.25 45.226562 C 26.148438 45.101562 25.941406 45 25.792969 45 C 25.644531 45 25.503906 44.941406 25.476562 44.871094 C 25.449219 44.800781 25.019531 44.523438 24.523438 44.25 C 24.03125 43.976562 23.589844 43.714844 23.550781 43.664062 C 23.472656 43.570312 23.050781 43.320312 22.285156 42.910156 C 22.039062 42.78125 21.769531 42.625 21.683594 42.558594 C 21.171875 42.191406 20.371094 41.699219 20.28125 41.699219 C 20.222656 41.699219 19.769531 41.429688 19.273438 41.101562 C 18.78125 40.769531 18.320312 40.5 18.257812 40.5 C 18.191406 40.5 17.988281 40.359375 17.804688 40.1875 C 17.625 40.015625 17.179688 39.742188 16.816406 39.574219 C 16.457031 39.410156 16.019531 39.144531 15.851562 38.988281 C 15.683594 38.828125 15.464844 38.699219 15.367188 38.699219 C 15.265625 38.699219 15.101562 38.597656 15 38.476562 C 14.898438 38.351562 14.6875 38.25 14.53125 38.25 C 14.375 38.25 14.25 38.199219 14.25 38.132812 C 14.25 38.070312 13.996094 37.886719 13.6875 37.726562 C 13.378906 37.566406 12.925781 37.304688 12.683594 37.136719 C 12.441406 36.972656 12.035156 36.730469 11.78125 36.597656 C 11.164062 36.277344 10.589844 35.941406 10.5 35.847656 C 10.324219 35.671875 9.144531 34.949219 9.027344 34.949219 C 8.960938 34.949219 8.742188 34.78125 8.550781 34.574219 C 8.355469 34.367188 8.085938 34.199219 7.953125 34.199219 C 7.820312 34.199219 7.476562 33.960938 7.191406 33.667969 C 6.488281 32.9375 5.945312 32.699219 5 32.699219 L 4.199219 32.699219 L 4.238281 74.960938 M 70.5 73.199219 C 70.5 73.363281 70.566406 73.5 70.648438 73.5 C 70.734375 73.5 70.800781 73.363281 70.800781 73.199219 C 70.800781 73.035156 70.734375 72.898438 70.648438 72.898438 C 70.566406 72.898438 70.5 73.035156 70.5 73.199219 M 74.25 74.980469 C 74.25 75.144531 74.308594 75.320312 74.378906 75.363281 C 74.453125 75.40625 74.554688 75.785156 74.609375 76.203125 C 74.71875 77.019531 75.007812 77.097656 74.988281 76.304688 C 74.964844 75.367188 74.25 74.082031 74.25 74.980469 M 73.753906 86.476562 C 70.605469 87.339844 68.871094 90.699219 70.003906 93.746094 C 72.179688 99.601562 81.011719 98.140625 80.996094 91.929688 C 80.992188 88.042969 77.53125 85.4375 73.753906 86.476562 "/>
<path style=" stroke:none;fill-rule:evenodd;fill:rgb(91.764706%,69.803923%,23.137255%);fill-opacity:1;" d="M 75.097656 49.96875 C 74.0625 50.570312 73.621094 54.28125 73.546875 63.039062 C 73.511719 66.984375 73.4375 69.300781 73.347656 69.300781 C 73.265625 69.300781 73.199219 69.214844 73.195312 69.113281 C 73.0625 63.6875 73.066406 59.429688 73.207031 57.898438 C 73.300781 56.867188 73.410156 55.511719 73.449219 54.882812 C 73.632812 52.007812 71.878906 53.511719 71.246094 56.773438 C 71.183594 57.105469 71.019531 57.746094 70.882812 58.199219 C 70.625 59.0625 70.480469 59.597656 70.195312 60.789062 C 69.929688 61.898438 69.746094 61.628906 69.777344 60.179688 C 69.808594 58.761719 69.734375 58.5 69.308594 58.5 C 68.929688 58.5 68.773438 58.742188 68.488281 59.773438 C 68.207031 60.792969 68.277344 60.625 67.058594 63.179688 C 64.78125 67.964844 65.101562 71.550781 68.097656 74.699219 C 69.054688 75.703125 69.097656 75.910156 68.238281 75.367188 C 65.113281 73.394531 59.726562 78.09375 61.363281 81.367188 C 62.101562 82.847656 64.390625 84.152344 65.9375 83.976562 L 66.375 83.925781 L 66.324219 82.574219 L 66.273438 81.226562 L 66.773438 80.753906 C 68.503906 79.132812 70.714844 80.015625 70.949219 82.425781 C 71.074219 83.6875 71.253906 84 71.851562 84 C 72.804688 84 72.472656 84.796875 71.273438 85.390625 C 69.039062 86.496094 67.445312 89.210938 67.453125 91.902344 C 67.457031 93.585938 67.5 93.789062 68.179688 95.324219 C 69.707031 98.773438 75.085938 100.789062 78.429688 99.164062 C 80.601562 98.105469 81.964844 96.847656 82.671875 95.25 C 83.273438 93.886719 83.320312 93.652344 83.3125 91.949219 C 83.300781 89.988281 82.933594 88.929688 81.707031 87.324219 C 81.160156 86.613281 79.445312 85.207031 79.105469 85.195312 C 78.558594 85.175781 78.152344 84.300781 78.691406 84.300781 C 79.386719 84.300781 79.753906 83.882812 79.835938 82.996094 C 80.019531 81 81.011719 80.21875 83.042969 80.46875 C 84.464844 80.648438 84.792969 81.070312 84.726562 82.628906 L 84.675781 83.902344 L 85.125 84.03125 C 88.234375 84.921875 90.816406 81.011719 89.199219 77.855469 C 87.988281 75.488281 84.570312 74.675781 82.15625 76.179688 C 81.269531 76.730469 81.347656 76.46875 82.351562 75.511719 C 85.003906 72.980469 86.074219 70.222656 85.601562 67.125 C 85.375 65.644531 85.316406 65.484375 84.105469 62.992188 C 83.0625 60.835938 82.800781 60.230469 82.796875 59.976562 C 82.78125 58.445312 81.550781 57.972656 81.488281 59.476562 C 81.4375 60.617188 81.332031 61.085938 81.144531 60.972656 C 81.066406 60.921875 81 60.730469 81 60.542969 C 81 60.355469 80.90625 59.90625 80.792969 59.539062 C 80.679688 59.175781 80.503906 58.570312 80.40625 58.199219 C 79.691406 55.523438 78.921875 53.652344 78.425781 53.386719 C 77.949219 53.132812 77.625 54.121094 77.835938 55.179688 C 78.046875 56.230469 78.058594 69.425781 77.851562 69.75 C 77.660156 70.042969 77.664062 70.171875 77.6875 64.726562 C 77.738281 53.011719 77.011719 48.859375 75.097656 49.96875 M 81.746094 62.128906 C 81.75 62.269531 81.683594 62.425781 81.601562 62.476562 C 81.511719 62.53125 81.449219 62.339844 81.453125 61.996094 C 81.453125 61.574219 81.492188 61.484375 81.601562 61.648438 C 81.679688 61.773438 81.746094 61.988281 81.746094 62.128906 M 69.746094 62.523438 C 69.746094 62.660156 69.679688 62.875 69.601562 63 C 69.492188 63.167969 69.453125 63.078125 69.453125 62.652344 C 69.449219 62.308594 69.511719 62.121094 69.601562 62.175781 C 69.683594 62.226562 69.75 62.382812 69.746094 62.523438 M 82.164062 66.335938 C 82.125 67.46875 82.019531 68.480469 81.9375 68.585938 C 81.851562 68.691406 81.746094 69.113281 81.703125 69.523438 C 81.582031 70.699219 81.285156 72 81.136719 72 C 81.0625 72 81 72.152344 80.996094 72.335938 C 80.996094 72.523438 80.9375 72.765625 80.867188 72.875 C 80.621094 73.265625 80.535156 72.585938 80.773438 72.109375 C 80.898438 71.859375 81 71.441406 81 71.183594 C 81 70.921875 81.074219 70.636719 81.164062 70.546875 C 81.253906 70.457031 81.351562 70.027344 81.382812 69.59375 C 81.410156 69.160156 81.507812 68.734375 81.59375 68.648438 C 81.691406 68.550781 81.75 67.53125 81.75 65.996094 C 81.75 64.621094 81.800781 63.449219 81.859375 63.390625 C 82.101562 63.148438 82.230469 64.382812 82.164062 66.335938 M 69.433594 65.191406 C 69.460938 66.453125 69.261719 67.972656 69.136719 67.425781 C 69 66.8125 68.980469 64.363281 69.109375 63.898438 L 69.214844 63.523438 L 69.3125 63.976562 C 69.371094 64.222656 69.421875 64.769531 69.433594 65.191406 M 69.738281 69.113281 C 69.746094 69.464844 69.8125 69.871094 69.890625 70.015625 C 70.335938 70.851562 70.65625 72.601562 70.359375 72.601562 C 70.195312 72.601562 69.75 71.140625 69.75 70.597656 C 69.75 70.390625 69.6875 70.179688 69.613281 70.132812 C 69.417969 70.011719 69.253906 68.632812 69.382812 68.222656 C 69.535156 67.742188 69.722656 68.210938 69.738281 69.113281 M 73.789062 71.0625 C 73.78125 71.765625 73.738281 71.984375 73.648438 71.773438 C 73.433594 71.273438 73.5 70.050781 73.742188 70.050781 C 73.773438 70.050781 73.796875 70.503906 73.789062 71.0625 M 77.585938 72.039062 C 77.546875 72.347656 77.457031 72.601562 77.382812 72.601562 C 77.226562 72.601562 77.203125 71.394531 77.351562 71.003906 C 77.507812 70.601562 77.667969 71.320312 77.585938 72.039062 M 74.246094 72.992188 C 74.25 73.253906 74.355469 73.714844 74.484375 74.023438 C 74.613281 74.332031 74.683594 74.613281 74.644531 74.65625 C 74.605469 74.695312 74.667969 75 74.785156 75.332031 C 75.03125 76.027344 75.066406 76.742188 74.859375 76.867188 C 74.78125 76.917969 74.671875 76.632812 74.617188 76.242188 C 74.558594 75.847656 74.460938 75.457031 74.398438 75.375 C 74.339844 75.292969 74.25 75.023438 74.203125 74.773438 C 74.15625 74.527344 74.0625 74.054688 73.996094 73.726562 C 73.839844 72.957031 73.917969 72.003906 74.109375 72.308594 C 74.183594 72.429688 74.246094 72.734375 74.246094 72.992188 M 70.800781 73.285156 C 70.800781 73.5 70.734375 73.628906 70.648438 73.574219 C 70.566406 73.523438 70.5 73.351562 70.5 73.191406 C 70.5 73.03125 70.566406 72.898438 70.648438 72.898438 C 70.734375 72.898438 70.800781 73.074219 70.800781 73.285156 M 77.25 73.640625 C 77.25 74.257812 77.042969 74.5625 76.894531 74.171875 C 76.78125 73.878906 76.949219 73.050781 77.117188 73.050781 C 77.191406 73.050781 77.25 73.316406 77.25 73.640625 M 80.488281 73.761719 C 80.3125 73.9375 80.226562 73.664062 80.34375 73.324219 L 80.464844 72.976562 L 80.519531 73.324219 C 80.550781 73.519531 80.535156 73.714844 80.488281 73.761719 M 71.25 74.175781 C 71.25 74.289062 71.183594 74.425781 71.101562 74.476562 C 71.015625 74.527344 70.949219 74.398438 70.949219 74.175781 C 70.949219 73.953125 71.015625 73.820312 71.101562 73.875 C 71.183594 73.925781 71.25 74.0625 71.25 74.175781 M 71.546875 75.039062 C 71.546875 75.308594 71.519531 75.332031 71.398438 75.148438 C 71.210938 74.859375 71.210938 74.699219 71.398438 74.699219 C 71.484375 74.699219 71.550781 74.851562 71.546875 75.039062 M 76.832031 75.601562 C 76.796875 75.847656 76.707031 76.011719 76.632812 75.964844 C 76.476562 75.867188 76.453125 75.097656 76.601562 74.949219 C 76.773438 74.773438 76.902344 75.132812 76.832031 75.601562 M 72 75.757812 C 72 75.917969 71.941406 76.050781 71.867188 76.050781 C 71.714844 76.050781 71.542969 75.503906 71.664062 75.386719 C 71.804688 75.246094 72 75.460938 72 75.757812 M 72.296875 76.539062 C 72.296875 76.808594 72.269531 76.832031 72.148438 76.648438 C 71.960938 76.359375 71.960938 76.199219 72.148438 76.199219 C 72.234375 76.199219 72.300781 76.351562 72.296875 76.539062 M 78.988281 77.0625 C 78.824219 77.226562 78.710938 76.964844 78.828125 76.695312 C 78.941406 76.4375 78.949219 76.4375 79.011719 76.699219 C 79.046875 76.851562 79.035156 77.011719 78.988281 77.0625 M 78.746094 77.363281 C 78.742188 77.691406 78.453125 77.910156 78.453125 77.585938 C 78.449219 77.402344 78.515625 77.25 78.601562 77.25 C 78.683594 77.25 78.75 77.300781 78.746094 77.363281 M 78.75 81.226562 C 78.75 81.339844 78.683594 81.472656 78.601562 81.523438 C 78.515625 81.578125 78.449219 81.449219 78.449219 81.226562 C 78.449219 81 78.515625 80.871094 78.601562 80.925781 C 78.683594 80.976562 78.75 81.109375 78.75 81.226562 M 77.246094 86.503906 C 81.585938 88.117188 82.375 93.925781 78.59375 96.476562 C 74.675781 99.117188 69.75 96.441406 69.75 91.671875 C 69.75 87.90625 73.695312 85.183594 77.246094 86.503906 "/>
</g>
</svg>
