<?xml version="1.0" encoding="UTF-8"?>
<svg xmlns="http://www.w3.org/2000/svg" xmlns:xlink="http://www.w3.org/1999/xlink" width="150px" height="150px" viewBox="0 0 150 93" version="1.1">
<g id="surface1">
<rect x="0" y="0" width="150" height="93" style="fill:rgb(100%,100%,100%);fill-opacity:1;stroke:none;"/>
<path style=" stroke:none;fill-rule:nonzero;fill:rgb(70.980394%,0%,15.294118%);fill-opacity:1;" d="M 0 0 L 150 0 L 150 31 L 0 31 Z M 0 0 "/>
<path style=" stroke:none;fill-rule:nonzero;fill:rgb(0%,17.647059%,33.725491%);fill-opacity:1;" d="M 0 0 L 62.5 0 L 62.5 62 L 0 62 Z M 0 0 "/>
<path style=" stroke:none;fill-rule:evenodd;fill:rgb(100%,100%,100%);fill-opacity:1;" d="M 32.648438 8.476562 L 34.875 6.921875 L 32.152344 6.882812 L 31.34375 4.296875 L 30.464844 6.855469 L 27.742188 6.820312 L 29.925781 8.4375 L 29.046875 10.996094 L 31.273438 9.441406 L 33.457031 11.058594 Z M 21.941406 10.378906 L 23.183594 7.972656 L 20.753906 9.195312 L 18.828125 7.28125 L 19.25 9.949219 L 16.820312 11.171875 L 19.511719 11.601562 L 19.933594 14.269531 L 21.175781 11.863281 L 23.867188 12.292969 Z M 13.320312 17.050781 L 13.292969 14.347656 L 11.710938 16.550781 L 9.109375 15.742188 L 10.734375 17.910156 L 9.15625 20.113281 L 11.738281 19.25 L 13.363281 21.421875 L 13.335938 18.71875 L 15.917969 17.859375 Z M 8.875 26.910156 L 7.585938 24.53125 L 7.21875 27.210938 L 4.535156 27.691406 L 6.992188 28.867188 L 6.625 31.542969 L 8.507812 29.589844 L 10.960938 30.761719 L 9.671875 28.382812 L 11.554688 26.429688 Z M 9.503906 37.667969 L 7.246094 36.15625 L 8.175781 38.695312 L 6.027344 40.359375 L 8.75 40.265625 L 9.679688 42.808594 L 10.433594 40.210938 L 13.152344 40.117188 L 10.898438 38.601562 L 11.652344 36.003906 Z M 15.121094 46.964844 L 12.414062 46.664062 L 14.429688 48.488281 L 13.304688 50.949219 L 15.671875 49.613281 L 17.683594 51.433594 L 17.132812 48.785156 L 19.5 47.449219 L 16.792969 47.148438 L 16.246094 44.5 Z M 24.46875 52.546875 L 21.933594 53.527344 L 24.566406 54.214844 L 24.726562 56.910156 L 26.195312 54.636719 L 28.832031 55.320312 L 27.105469 53.230469 L 28.574219 50.957031 L 26.035156 51.9375 L 24.308594 49.847656 Z M 35.304688 53.210938 L 33.515625 55.25 L 36.171875 54.640625 L 37.578125 56.957031 L 37.8125 54.265625 L 40.464844 53.65625 L 37.957031 52.601562 L 38.191406 49.910156 L 36.40625 51.949219 L 33.898438 50.894531 Z M 45.269531 48.8125 L 44.644531 51.441406 L 46.707031 49.679688 L 49.039062 51.085938 L 47.984375 48.59375 L 50.050781 46.832031 L 47.335938 47.050781 L 46.28125 44.558594 L 45.65625 47.1875 L 42.941406 47.410156 Z M 52 40.277344 L 52.675781 42.894531 L 53.679688 40.382812 L 56.398438 40.550781 L 54.300781 38.828125 L 55.300781 36.316406 L 53 37.765625 L 50.902344 36.042969 L 51.578125 38.660156 L 49.277344 40.109375 Z M 50.769531 19.351562 L 53.324219 20.285156 L 51.8125 18.039062 L 53.496094 15.917969 L 50.875 16.652344 L 49.359375 14.40625 L 49.253906 17.105469 L 46.636719 17.84375 L 49.191406 18.777344 L 49.085938 21.476562 Z M 43.046875 11.683594 L 45.746094 11.332031 L 43.351562 10.039062 L 43.851562 7.382812 L 41.875 9.242188 L 39.480469 7.953125 L 40.652344 10.390625 L 38.675781 12.25 L 41.378906 11.898438 L 42.546875 14.339844 Z M 53.953125 29.679688 L 55.78125 31.683594 L 55.492188 28.996094 L 57.976562 27.894531 L 55.3125 27.335938 L 55.023438 24.648438 L 53.667969 26.992188 L 51 26.4375 L 52.828125 28.441406 L 51.46875 30.785156 Z M 53.953125 29.679688 "/>
<path style="fill-rule:evenodd;fill:rgb(93.333334%,81.568629%,0%);fill-opacity:1;stroke-width:1.633;stroke-linecap:butt;stroke-linejoin:miter;stroke:rgb(93.333334%,81.568629%,0%);stroke-opacity:1;stroke-miterlimit:3.864;" d="M 918.72 2089.959677 L 882.36 2089.959677 L 882.36 2085.967742 C 883.26 2085.967742 884.88 2085.78629 886.68 2085.604839 C 888.66 2085.423387 890.1 2085.241935 890.82 2084.879032 C 892.08 2084.516129 892.98 2083.790323 893.52 2082.883065 C 894.24 2082.157258 894.42 2080.887097 894.42 2079.435484 L 894.42 2020.826613 C 894.42 2019.556452 894.24 2018.28629 893.88 2017.560484 C 893.34 2016.653226 892.44 2015.745968 890.82 2015.201613 C 889.74 2014.83871 888.3 2014.294355 886.5 2013.931452 C 884.88 2013.568548 883.44 2013.387097 882.36 2013.205645 L 882.36 2009.21371 L 918.72 2009.21371 L 918.72 2013.205645 C 917.46 2013.205645 916.02 2013.387097 914.4 2013.75 C 912.78 2013.931452 911.34 2014.294355 910.26 2014.657258 C 908.82 2015.020161 907.74 2015.745968 907.38 2016.834677 C 906.84 2017.923387 906.48 2019.012097 906.48 2020.282258 L 906.48 2078.709677 C 906.48 2079.979839 906.84 2081.068548 907.38 2082.157258 C 907.92 2083.064516 908.82 2083.790323 910.26 2084.334677 C 910.98 2084.697581 912.24 2085.060484 914.04 2085.423387 C 915.84 2085.78629 917.46 2085.967742 918.72 2085.967742 Z M 1018.26 2013.205645 C 1017.18 2013.205645 1015.56 2013.568548 1013.4 2014.112903 C 1011.24 2014.657258 1009.62 2015.383065 1008.72 2015.927419 C 1007.28 2016.834677 1006.38 2018.649194 1005.84 2021.370968 C 1005.48 2024.092742 1005.12 2027.540323 1005.12 2031.71371 L 1005.12 2090.866935 L 1000.26 2090.866935 L 951.3 2024.637097 L 951.3 2066.370968 C 951.3 2071.08871 951.66 2074.717742 952.2 2077.076613 C 952.74 2079.616935 953.64 2081.431452 954.9 2082.520161 C 955.8 2083.245968 957.6 2084.153226 960.3 2084.879032 C 963 2085.604839 964.8 2085.967742 965.7 2085.967742 L 965.7 2089.959677 L 932.58 2089.959677 L 932.58 2085.967742 C 933.66 2085.967742 935.28 2085.604839 937.8 2084.879032 C 940.14 2084.153226 941.76 2083.608871 942.3 2083.064516 C 943.74 2081.975806 944.64 2080.342742 945 2078.165323 C 945.54 2075.987903 945.72 2072.358871 945.72 2066.915323 L 945.72 2027.177419 C 945.72 2025.362903 945.54 2023.729839 944.82 2021.915323 C 944.28 2020.282258 943.56 2018.830645 942.48 2017.923387 C 941.04 2016.653226 939.24 2015.564516 936.9 2014.657258 C 934.56 2013.75 932.76 2013.387097 931.32 2013.205645 L 931.32 2009.21371 L 954.36 2009.21371 L 999.72 2070.907258 L 999.72 2032.439516 C 999.72 2027.721774 999.36 2024.092742 998.82 2021.552419 C 998.1 2019.012097 997.38 2017.379032 996.12 2016.471774 C 995.04 2015.745968 993.42 2015.020161 990.9 2014.294355 C 988.56 2013.75 986.76 2013.387097 985.5 2013.205645 L 985.5 2009.21371 L 1018.26 2009.21371 Z M 1137.42 2057.66129 C 1136.52 2057.842742 1135.26 2058.024194 1133.64 2058.205645 C 1132.2 2058.568548 1130.94 2058.931452 1130.04 2059.294355 C 1128.78 2059.83871 1128.06 2060.745968 1127.52 2061.834677 C 1127.16 2062.741935 1126.8 2064.012097 1126.8 2065.46371 L 1126.8 2071.633065 C 1126.8 2076.169355 1126.8 2079.254032 1126.98 2080.887097 C 1126.98 2082.520161 1126.98 2083.790323 1127.16 2084.879032 C 1122.12 2087.056452 1117.08 2088.870968 1112.04 2090.141129 C 1107 2091.229839 1102.14 2091.955645 1097.28 2091.955645 C 1092.24 2091.955645 1087.2 2090.866935 1082.34 2089.052419 C 1077.66 2087.056452 1073.52 2084.334677 1069.92 2080.705645 C 1066.32 2077.076613 1063.44 2072.721774 1061.28 2067.641129 C 1059.12 2062.379032 1058.04 2056.572581 1058.04 2050.221774 C 1058.04 2044.052419 1059.12 2038.427419 1061.1 2033.165323 C 1063.26 2027.903226 1066.14 2023.366935 1069.74 2019.375 C 1073.34 2015.564516 1077.66 2012.66129 1082.7 2010.665323 C 1087.56 2008.487903 1092.96 2007.399194 1098.72 2007.399194 C 1103.22 2007.399194 1107.18 2007.943548 1110.6 2009.032258 C 1114.02 2010.120968 1116.9 2011.572581 1119.42 2013.024194 L 1121.76 2009.21371 L 1126.44 2009.21371 L 1126.98 2037.520161 L 1122.3 2037.520161 C 1121.4 2034.254032 1120.5 2031.169355 1119.24 2028.266129 C 1118.16 2025.181452 1116.54 2022.459677 1114.74 2020.100806 C 1112.94 2017.741935 1110.6 2015.745968 1107.9 2014.475806 C 1105.2 2013.024194 1102.14 2012.298387 1098.36 2012.298387 C 1094.22 2012.298387 1090.62 2013.024194 1087.38 2014.83871 C 1084.32 2016.471774 1081.44 2018.830645 1079.1 2022.096774 C 1076.76 2025.181452 1075.14 2029.173387 1073.88 2033.891129 C 1072.62 2038.608871 1071.9 2043.870968 1071.9 2049.677419 C 1071.9 2054.758065 1072.62 2059.657258 1073.7 2064.193548 C 1074.96 2068.729839 1076.76 2072.721774 1079.1 2075.987903 C 1081.44 2079.254032 1084.5 2081.975806 1087.92 2083.971774 C 1091.52 2085.78629 1095.48 2086.875 1099.98 2086.875 C 1103.4 2086.875 1106.28 2086.330645 1109.16 2085.241935 C 1111.86 2084.334677 1113.84 2083.245968 1114.92 2081.975806 C 1115.28 2079.979839 1115.46 2077.983871 1115.46 2075.987903 C 1115.46 2073.991935 1115.46 2072.358871 1115.46 2070.907258 L 1115.46 2066.552419 C 1115.46 2064.919355 1115.28 2063.467742 1114.74 2062.197581 C 1114.38 2061.108871 1113.48 2060.020161 1112.04 2059.475806 C 1110.78 2058.931452 1109.16 2058.568548 1107 2058.205645 C 1104.84 2058.024194 1103.22 2057.842742 1101.96 2057.66129 L 1101.96 2053.487903 L 1137.42 2053.487903 Z M 1216.8 2018.830645 C 1220.4 2022.459677 1223.1 2026.995968 1225.08 2032.258065 C 1227.06 2037.520161 1228.14 2043.326613 1228.14 2049.677419 C 1228.14 2056.028226 1227.06 2062.016129 1225.08 2067.096774 C 1223.1 2072.358871 1220.22 2076.895161 1216.44 2080.524194 C 1213.02 2084.153226 1208.88 2087.056452 1204.2 2089.052419 C 1199.52 2091.048387 1194.66 2091.955645 1189.26 2091.955645 C 1183.68 2091.955645 1178.46 2090.866935 1173.78 2088.870968 C 1168.92 2086.693548 1164.96 2083.790323 1161.54 2079.979839 C 1158.12 2076.350806 1155.42 2071.814516 1153.44 2066.552419 C 1151.46 2061.290323 1150.56 2055.665323 1150.56 2049.677419 C 1150.56 2043.145161 1151.64 2037.33871 1153.62 2032.076613 C 1155.6 2026.995968 1158.48 2022.459677 1162.08 2018.830645 C 1165.68 2015.020161 1169.82 2012.116935 1174.5 2010.120968 C 1179.18 2008.306452 1184.22 2007.217742 1189.26 2007.217742 C 1194.66 2007.217742 1199.7 2008.306452 1204.38 2010.302419 C 1209.24 2012.298387 1213.38 2015.020161 1216.8 2018.830645 Z M 1208.34 2075.987903 C 1210.32 2072.540323 1211.94 2068.729839 1212.84 2064.375 C 1213.92 2060.020161 1214.28 2055.120968 1214.28 2049.677419 C 1214.28 2044.052419 1213.74 2038.971774 1212.66 2034.435484 C 1211.58 2029.717742 1210.14 2025.907258 1207.98 2022.641129 C 1205.82 2019.375 1203.3 2016.834677 1200.06 2015.020161 C 1197 2013.205645 1193.4 2012.298387 1189.26 2012.298387 C 1184.76 2012.298387 1180.98 2013.387097 1177.74 2015.383065 C 1174.5 2017.560484 1171.98 2020.282258 1170 2023.91129 C 1168.02 2027.177419 1166.58 2030.987903 1165.68 2035.524194 C 1164.78 2040.060484 1164.24 2044.778226 1164.24 2049.677419 C 1164.24 2055.120968 1164.78 2060.020161 1165.86 2064.556452 C 1166.76 2068.91129 1168.38 2072.903226 1170.36 2076.169355 C 1172.52 2079.616935 1175.04 2082.157258 1178.1 2084.153226 C 1181.34 2085.967742 1184.94 2086.875 1189.26 2086.875 C 1193.4 2086.875 1197 2085.967742 1200.24 2083.971774 C 1203.66 2082.157258 1206.18 2079.435484 1208.34 2075.987903 Z M 1317.6 2050.040323 C 1317.6 2056.935484 1316.34 2062.923387 1313.64 2068.004032 C 1311.12 2073.084677 1307.7 2077.076613 1303.56 2080.342742 C 1299.42 2083.608871 1294.74 2085.967742 1289.52 2087.600806 C 1284.3 2089.233871 1279.08 2089.959677 1273.5 2089.959677 L 1240.02 2089.959677 L 1240.02 2085.967742 C 1241.1 2085.967742 1242.54 2085.967742 1244.34 2085.604839 C 1246.14 2085.423387 1247.22 2085.241935 1247.76 2084.879032 C 1249.02 2084.516129 1249.74 2083.790323 1250.28 2082.701613 C 1250.82 2081.794355 1251 2080.705645 1251 2079.254032 L 1251 2021.008065 C 1251 2019.556452 1250.82 2018.467742 1250.46 2017.379032 C 1249.92 2016.471774 1249.2 2015.564516 1247.76 2015.020161 C 1246.68 2014.475806 1245.24 2013.931452 1243.98 2013.75 C 1242.72 2013.387097 1241.46 2013.387097 1240.56 2013.205645 L 1240.56 2009.21371 L 1275.84 2009.21371 C 1280.7 2009.21371 1285.38 2009.939516 1290.06 2011.391129 C 1294.74 2013.024194 1298.88 2015.020161 1302.3 2017.560484 C 1307.16 2020.826613 1310.76 2025.362903 1313.46 2030.806452 C 1316.16 2036.25 1317.6 2042.600806 1317.6 2050.040323 Z M 1303.56 2050.040323 C 1303.56 2044.596774 1302.84 2039.697581 1301.4 2035.342742 C 1299.96 2030.987903 1297.98 2027.177419 1295.1 2023.91129 C 1292.58 2020.645161 1289.34 2018.28629 1285.56 2016.471774 C 1281.78 2014.657258 1277.46 2013.75 1272.78 2013.75 C 1271.16 2013.75 1269.54 2013.75 1267.56 2013.931452 C 1265.58 2013.931452 1264.14 2013.931452 1263.24 2014.112903 L 1263.24 2076.169355 C 1263.24 2079.616935 1264.14 2081.975806 1266.12 2083.427419 C 1268.28 2084.697581 1271.34 2085.423387 1275.48 2085.423387 C 1280.34 2085.423387 1284.48 2084.516129 1288.08 2082.701613 C 1291.68 2081.068548 1294.56 2078.709677 1296.9 2075.625 C 1299.24 2072.540323 1300.86 2068.729839 1301.94 2064.556452 C 1303.02 2060.383065 1303.56 2055.483871 1303.56 2050.040323 Z M 1471.68 2013.205645 C 1470.78 2013.205645 1469.7 2013.568548 1468.44 2013.931452 C 1467.18 2014.294355 1466.1 2014.83871 1465.02 2015.383065 C 1463.58 2016.290323 1462.5 2017.197581 1461.78 2018.28629 C 1460.88 2019.375 1460.16 2020.826613 1459.62 2022.822581 C 1456.92 2031.71371 1453.86 2041.875 1450.26 2053.669355 C 1446.48 2066.189516 1442.52 2078.528226 1438.74 2091.048387 L 1433.52 2091.048387 L 1413.18 2028.810484 L 1391.94 2091.048387 L 1386.9 2091.048387 C 1382.94 2077.258065 1379.16 2063.467742 1375.2 2049.677419 C 1371.24 2035.342742 1368.54 2025.725806 1367.1 2021.008065 C 1366.74 2019.737903 1366.2 2018.649194 1365.66 2017.741935 C 1364.94 2016.834677 1364.04 2016.108871 1362.96 2015.201613 C 1361.88 2014.657258 1360.8 2014.112903 1359.54 2013.931452 C 1358.28 2013.568548 1357.2 2013.387097 1356.12 2013.205645 L 1356.12 2009.21371 L 1389.06 2009.21371 L 1389.06 2013.205645 C 1386.18 2013.387097 1383.66 2013.75 1381.68 2014.112903 C 1379.7 2014.475806 1378.62 2015.201613 1378.62 2016.108871 C 1378.62 2016.653226 1378.8 2017.016129 1378.8 2017.741935 C 1378.98 2018.28629 1378.98 2018.830645 1379.16 2019.193548 C 1380.06 2022.641129 1381.5 2028.084677 1383.66 2035.705645 C 1386 2043.508065 1389.24 2054.939516 1393.56 2070.362903 L 1413.72 2010.302419 L 1419.3 2010.302419 L 1439.64 2071.633065 C 1441.98 2063.467742 1444.32 2055.120968 1446.66 2046.955645 C 1448.64 2039.879032 1450.26 2033.891129 1451.7 2028.810484 C 1452.6 2025.362903 1453.14 2022.822581 1453.32 2021.552419 C 1453.5 2020.282258 1453.68 2019.193548 1453.68 2018.28629 C 1453.68 2017.016129 1452.78 2015.927419 1450.98 2015.020161 C 1449.18 2014.112903 1446.48 2013.568548 1442.52 2013.205645 L 1442.52 2009.21371 L 1471.68 2009.21371 Z M 1550.16 2066.189516 L 1548.54 2089.959677 L 1481.58 2089.959677 L 1481.58 2085.967742 C 1483.2 2085.78629 1484.64 2085.78629 1486.08 2085.604839 C 1488.06 2085.241935 1489.32 2085.060484 1489.86 2084.697581 C 1491.12 2084.153226 1491.84 2083.427419 1492.38 2082.520161 C 1492.92 2081.612903 1493.1 2080.342742 1493.1 2079.072581 L 1493.1 2020.826613 C 1493.1 2019.737903 1492.92 2018.649194 1492.38 2017.560484 C 1492.02 2016.653226 1491.12 2015.745968 1489.86 2015.201613 C 1488.78 2014.657258 1487.52 2014.294355 1485.72 2013.931452 C 1483.92 2013.568548 1482.66 2013.387097 1481.58 2013.205645 L 1481.58 2009.21371 L 1544.04 2009.21371 L 1544.04 2028.629032 L 1539.72 2028.629032 C 1539 2025.725806 1537.38 2022.641129 1534.86 2019.556452 C 1532.34 2016.290323 1530 2014.475806 1527.66 2014.112903 C 1526.22 2013.931452 1524.96 2013.931452 1523.52 2013.75 C 1521.9 2013.75 1519.92 2013.75 1517.94 2013.75 L 1505.16 2013.75 L 1505.16 2045.866935 L 1514.34 2045.866935 C 1517.22 2045.866935 1519.38 2045.504032 1520.64 2044.959677 C 1522.08 2044.415323 1523.16 2043.508065 1524.24 2042.237903 C 1525.14 2041.149194 1525.86 2039.697581 1526.4 2037.883065 C 1526.94 2035.887097 1527.3 2034.254032 1527.48 2032.620968 L 1531.8 2032.620968 L 1531.8 2064.193548 L 1527.48 2064.193548 C 1527.48 2062.379032 1526.94 2060.383065 1526.4 2058.387097 C 1525.68 2056.391129 1524.96 2054.939516 1524.24 2054.032258 C 1523.16 2052.580645 1521.72 2051.491935 1520.28 2051.129032 C 1518.66 2050.584677 1516.86 2050.403226 1514.34 2050.403226 L 1505.16 2050.403226 L 1505.16 2074.717742 C 1505.16 2077.076613 1505.34 2079.072581 1505.7 2080.524194 C 1506.06 2081.794355 1506.78 2082.883065 1507.68 2083.608871 C 1508.76 2084.334677 1510.02 2084.879032 1511.82 2085.060484 C 1513.44 2085.241935 1515.96 2085.423387 1519.02 2085.423387 L 1524.06 2085.423387 C 1526.04 2085.423387 1527.84 2085.241935 1529.1 2085.060484 C 1530.72 2084.879032 1532.16 2084.697581 1533.6 2084.334677 C 1535.22 2083.971774 1536.3 2083.427419 1536.84 2082.701613 C 1538.64 2080.887097 1540.44 2078.165323 1542.42 2074.354839 C 1544.22 2070.725806 1545.48 2068.004032 1546.02 2066.189516 Z M 1668.96 2031.169355 L 1665 2031.169355 C 1664.64 2029.717742 1664.1 2028.084677 1663.02 2026.270161 C 1662.3 2024.455645 1661.22 2022.641129 1660.14 2021.008065 C 1659.06 2019.193548 1657.8 2017.741935 1656.36 2016.290323 C 1655.1 2015.020161 1653.84 2014.294355 1652.58 2014.112903 C 1651.32 2013.931452 1649.88 2013.75 1648.08 2013.75 C 1646.28 2013.75 1644.66 2013.568548 1643.22 2013.568548 L 1639.8 2013.568548 L 1639.8 2078.346774 C 1639.8 2079.616935 1640.16 2080.705645 1640.7 2081.794355 C 1641.24 2082.701613 1642.14 2083.608871 1643.4 2084.153226 C 1644.12 2084.334677 1645.56 2084.697581 1647.72 2085.241935 C 1649.88 2085.604839 1651.68 2085.967742 1652.76 2085.967742 L 1652.76 2089.959677 L 1614.6 2089.959677 L 1614.6 2085.967742 C 1615.68 2085.967742 1617.3 2085.78629 1619.46 2085.604839 C 1621.8 2085.241935 1623.24 2085.060484 1624.14 2084.697581 C 1625.4 2084.153226 1626.3 2083.427419 1626.84 2082.520161 C 1627.38 2081.612903 1627.74 2080.342742 1627.74 2078.709677 L 1627.74 2013.568548 L 1624.5 2013.568548 C 1623.24 2013.568548 1621.8 2013.75 1620 2013.75 C 1618.38 2013.75 1616.76 2013.931452 1614.96 2014.112903 C 1613.7 2014.294355 1612.44 2015.020161 1611.18 2016.290323 C 1609.74 2017.741935 1608.48 2019.193548 1607.4 2021.008065 C 1606.32 2022.641129 1605.24 2024.455645 1604.34 2026.451613 C 1603.44 2028.266129 1602.9 2029.899194 1602.54 2031.169355 L 1598.58 2031.169355 L 1598.58 2009.21371 L 1668.96 2009.21371 Z M 1760.76 2089.959677 L 1738.98 2089.959677 C 1734.12 2082.520161 1729.8 2075.987903 1725.84 2070.362903 C 1721.7 2064.556452 1717.56 2058.931452 1713.24 2053.306452 L 1704.96 2053.306452 L 1704.96 2079.072581 C 1704.96 2080.342742 1705.14 2081.612903 1705.68 2082.520161 C 1706.04 2083.608871 1706.94 2084.334677 1708.2 2084.879032 C 1708.92 2085.060484 1710.18 2085.423387 1711.8 2085.604839 C 1713.6 2085.78629 1715.04 2085.967742 1716.12 2085.967742 L 1716.12 2089.959677 L 1682.1 2089.959677 L 1682.1 2085.967742 C 1683 2085.967742 1684.26 2085.78629 1685.88 2085.604839 C 1687.68 2085.423387 1688.94 2085.060484 1689.66 2084.879032 C 1690.74 2084.334677 1691.64 2083.608871 1692 2082.701613 C 1692.54 2081.794355 1692.9 2080.524194 1692.9 2079.072581 L 1692.9 2020.645161 C 1692.9 2019.193548 1692.72 2018.104839 1692.36 2017.016129 C 1691.82 2015.927419 1691.1 2015.201613 1689.66 2014.657258 C 1688.58 2014.294355 1687.5 2014.112903 1685.88 2013.75 C 1684.44 2013.568548 1683.18 2013.387097 1682.1 2013.205645 L 1682.1 2009.21371 L 1719.36 2009.21371 C 1722.78 2009.21371 1725.84 2009.576613 1728.9 2010.302419 C 1731.96 2011.028226 1734.66 2012.116935 1737 2013.568548 C 1739.34 2015.201613 1741.32 2017.197581 1742.76 2019.556452 C 1744.02 2022.096774 1744.74 2025 1744.74 2028.447581 C 1744.74 2031.532258 1744.38 2034.254032 1743.3 2036.612903 C 1742.4 2038.971774 1740.96 2041.149194 1739.16 2042.96371 C 1737.54 2044.596774 1735.38 2046.048387 1733.04 2047.137097 C 1730.7 2048.407258 1728 2049.314516 1725.12 2050.221774 C 1729.08 2055.483871 1732.32 2059.83871 1735.02 2063.467742 C 1737.72 2067.096774 1740.96 2071.451613 1744.74 2076.71371 C 1746.36 2078.891129 1747.98 2080.705645 1749.24 2081.794355 C 1750.68 2082.883065 1751.94 2083.608871 1753.2 2084.334677 C 1754.28 2084.879032 1755.54 2085.241935 1756.98 2085.604839 C 1758.42 2085.78629 1759.68 2085.967742 1760.76 2085.967742 Z M 1730.7 2029.717742 C 1730.7 2024.818548 1729.26 2021.008065 1726.56 2018.104839 C 1723.68 2015.201613 1719.72 2013.75 1714.68 2013.75 L 1704.96 2013.75 L 1704.96 2048.407258 L 1712.34 2048.407258 C 1717.74 2048.407258 1722.06 2046.774194 1725.48 2043.508065 C 1729.08 2040.060484 1730.7 2035.524194 1730.7 2029.717742 Z M 1845.18 2013.205645 C 1844.1 2013.205645 1842.48 2013.568548 1840.5 2013.931452 C 1838.34 2014.294355 1836.72 2015.020161 1835.46 2015.745968 C 1834.2 2016.653226 1833.3 2018.467742 1832.76 2021.189516 C 1832.22 2023.91129 1832.04 2027.358871 1832.04 2031.169355 L 1832.04 2066.370968 C 1832.04 2070.907258 1831.14 2074.717742 1829.16 2077.983871 C 1827.36 2081.431452 1824.84 2084.153226 1821.96 2086.149194 C 1818.9 2088.326613 1815.66 2089.778226 1812.42 2090.504032 C 1809.18 2091.41129 1805.94 2091.955645 1802.88 2091.955645 C 1798.02 2091.955645 1793.7 2091.229839 1789.92 2089.959677 C 1786.14 2088.689516 1782.9 2087.056452 1780.38 2084.879032 C 1777.86 2082.701613 1775.88 2080.342742 1774.62 2077.439516 C 1773.36 2074.717742 1772.64 2071.814516 1772.64 2068.729839 L 1772.64 2020.826613 C 1772.64 2019.556452 1772.46 2018.467742 1771.92 2017.560484 C 1771.56 2016.653226 1770.66 2015.927419 1769.4 2015.020161 C 1768.5 2014.657258 1767.24 2014.112903 1765.8 2013.931452 C 1764.18 2013.568548 1763.1 2013.387097 1762.02 2013.205645 L 1762.02 2009.21371 L 1795.68 2009.21371 L 1795.68 2013.205645 C 1794.6 2013.205645 1793.34 2013.387097 1791.72 2013.75 C 1790.1 2014.112903 1788.84 2014.294355 1788.12 2014.657258 C 1786.86 2015.020161 1785.96 2015.745968 1785.6 2016.834677 C 1785.06 2017.923387 1784.88 2019.012097 1784.88 2020.282258 L 1784.88 2065.100806 C 1784.88 2067.096774 1785.06 2069.455645 1785.6 2071.814516 C 1786.14 2074.173387 1787.04 2076.350806 1788.48 2078.528226 C 1789.92 2080.524194 1791.9 2082.33871 1794.42 2083.608871 C 1796.94 2084.879032 1800.54 2085.604839 1804.86 2085.604839 C 1809.18 2085.604839 1812.6 2084.879032 1815.48 2083.608871 C 1818.18 2082.33871 1820.52 2080.524194 1822.14 2078.346774 C 1823.76 2076.350806 1824.84 2074.173387 1825.38 2071.814516 C 1826.1 2069.637097 1826.46 2067.459677 1826.46 2065.100806 L 1826.46 2031.895161 C 1826.46 2027.721774 1826.1 2024.274194 1825.56 2021.733871 C 1824.84 2019.012097 1823.94 2017.197581 1822.86 2016.290323 C 1821.42 2015.383065 1819.62 2014.657258 1817.28 2014.112903 C 1815.12 2013.568548 1813.32 2013.387097 1812.06 2013.205645 L 1812.06 2009.21371 L 1845.18 2009.21371 Z M 1904.94 2052.943548 C 1906.74 2054.758065 1908 2056.935484 1908.72 2059.112903 C 1909.62 2061.471774 1909.98 2064.012097 1909.98 2067.096774 C 1909.98 2074.173387 1907.28 2080.16129 1902.06 2084.697581 C 1896.84 2089.415323 1890.36 2091.592742 1882.44 2091.592742 C 1878.84 2091.592742 1875.24 2091.048387 1871.64 2089.959677 C 1868.04 2088.870968 1864.98 2087.600806 1862.28 2085.967742 L 1859.94 2090.141129 L 1855.26 2090.141129 L 1854.54 2062.379032 L 1859.22 2062.379032 C 1860.12 2065.826613 1861.2 2068.91129 1862.46 2071.633065 C 1863.72 2074.354839 1865.34 2076.895161 1867.5 2079.435484 C 1869.48 2081.612903 1871.82 2083.427419 1874.34 2084.697581 C 1877.04 2085.967742 1880.1 2086.693548 1883.52 2086.693548 C 1886.22 2086.693548 1888.56 2086.330645 1890.36 2085.604839 C 1892.34 2085.060484 1893.96 2083.971774 1895.22 2082.701613 C 1896.48 2081.612903 1897.38 2079.979839 1897.92 2078.346774 C 1898.46 2076.71371 1898.82 2074.717742 1898.82 2072.540323 C 1898.82 2069.274194 1897.92 2066.370968 1896.12 2063.467742 C 1894.32 2060.745968 1891.44 2058.568548 1887.84 2057.116935 C 1885.14 2056.028226 1882.26 2054.939516 1879.38 2053.850806 C 1876.32 2052.762097 1873.44 2051.491935 1871.28 2050.403226 C 1866.6 2048.407258 1863.18 2045.685484 1860.48 2042.419355 C 1858.14 2039.153226 1856.88 2034.798387 1856.88 2029.354839 C 1856.88 2026.270161 1857.42 2023.548387 1858.68 2020.826613 C 1859.94 2018.104839 1861.74 2015.745968 1864.08 2013.75 C 1866.24 2011.754032 1868.76 2010.120968 1871.82 2009.032258 C 1874.88 2007.943548 1877.94 2007.399194 1881.18 2007.399194 C 1884.96 2007.399194 1888.2 2007.943548 1891.08 2009.032258 C 1894.14 2010.120968 1896.84 2011.572581 1899.18 2013.024194 L 1901.52 2009.21371 L 1906.2 2009.21371 L 1906.56 2036.068548 L 1902.06 2036.068548 C 1901.16 2032.983871 1900.26 2030.080645 1899.18 2027.177419 C 1898.1 2024.455645 1896.84 2021.915323 1895.04 2019.556452 C 1893.42 2017.379032 1891.44 2015.564516 1889.1 2014.294355 C 1886.76 2013.024194 1883.88 2012.298387 1880.46 2012.298387 C 1876.86 2012.298387 1873.8 2013.387097 1871.28 2015.745968 C 1868.76 2018.104839 1867.5 2021.008065 1867.5 2024.274194 C 1867.5 2027.721774 1868.22 2030.625 1869.84 2032.983871 C 1871.46 2035.342742 1873.8 2037.157258 1877.04 2038.608871 C 1879.74 2039.879032 1882.44 2041.149194 1885.14 2042.056452 C 1887.84 2043.145161 1890.36 2044.052419 1892.88 2045.141129 C 1895.22 2046.229839 1897.38 2047.318548 1899.54 2048.58871 C 1901.52 2049.858871 1903.5 2051.310484 1904.94 2052.943548 Z M 1992.42 2031.169355 L 1988.46 2031.169355 C 1988.1 2029.717742 1987.56 2028.084677 1986.66 2026.270161 C 1985.76 2024.455645 1984.68 2022.641129 1983.6 2021.008065 C 1982.52 2019.193548 1981.26 2017.741935 1979.82 2016.290323 C 1978.56 2015.020161 1977.3 2014.294355 1976.04 2014.112903 C 1974.78 2013.931452 1973.34 2013.75 1971.54 2013.75 C 1969.74 2013.75 1968.12 2013.568548 1966.68 2013.568548 L 1963.26 2013.568548 L 1963.26 2078.346774 C 1963.26 2079.616935 1963.62 2080.705645 1964.16 2081.794355 C 1964.7 2082.701613 1965.6 2083.608871 1966.86 2084.153226 C 1967.58 2084.334677 1969.02 2084.697581 1971.18 2085.241935 C 1973.34 2085.604839 1975.14 2085.967742 1976.22 2085.967742 L 1976.22 2089.959677 L 1938.24 2089.959677 L 1938.24 2085.967742 C 1939.14 2085.967742 1940.76 2085.78629 1942.92 2085.604839 C 1945.26 2085.241935 1946.7 2085.060484 1947.6 2084.697581 C 1948.86 2084.153226 1949.76 2083.427419 1950.3 2082.520161 C 1950.84 2081.612903 1951.2 2080.342742 1951.2 2078.709677 L 1951.2 2013.568548 L 1947.96 2013.568548 C 1946.7 2013.568548 1945.26 2013.75 1943.46 2013.75 C 1941.84 2013.75 1940.22 2013.931452 1938.42 2014.112903 C 1937.16 2014.294355 1935.9 2015.020161 1934.64 2016.290323 C 1933.2 2017.741935 1931.94 2019.193548 1930.86 2021.008065 C 1929.78 2022.641129 1928.7 2024.455645 1927.8 2026.451613 C 1926.9 2028.266129 1926.36 2029.899194 1926 2031.169355 L 1922.04 2031.169355 L 1922.04 2009.21371 L 1992.42 2009.21371 Z M 1992.42 2031.169355 " transform="matrix(0.0217014,0,0,0.0215278,0,0)"/>
<path style=" stroke:none;fill-rule:nonzero;fill:rgb(93.333334%,81.568629%,0%);fill-opacity:1;" d="M 31.3125 22.953125 C 31.316406 22.953125 31.316406 22.949219 31.316406 22.949219 C 31.320312 22.949219 31.535156 23.027344 31.539062 23.363281 C 31.730469 23.328125 31.808594 23.429688 31.769531 23.664062 C 31.769531 23.664062 31.542969 23.605469 31.503906 23.734375 C 31.449219 23.882812 31.492188 24.003906 31.632812 24.097656 C 31.632812 24.097656 31.871094 24.28125 32.019531 23.929688 C 32.167969 23.578125 32.222656 23.457031 32.222656 23.457031 C 32.261719 23.328125 32.507812 23.023438 32.734375 22.980469 C 32.816406 22.945312 32.898438 22.953125 32.992188 22.976562 C 32.992188 22.976562 33.1875 23.015625 33.191406 23.179688 C 33.199219 23.339844 33.128906 23.414062 33.019531 23.460938 C 32.898438 23.511719 32.746094 23.398438 32.746094 23.398438 C 32.695312 23.390625 32.679688 23.40625 32.644531 23.429688 C 32.632812 23.441406 32.570312 23.507812 32.53125 23.582031 C 32.53125 23.582031 32.425781 23.8125 32.371094 23.984375 C 32.332031 24.125 32.242188 24.539062 31.820312 24.601562 L 30.820312 24.601562 C 30.394531 24.539062 30.304688 24.125 30.265625 23.984375 C 30.214844 23.8125 30.105469 23.582031 30.105469 23.582031 C 30.070312 23.507812 30.007812 23.441406 29.992188 23.429688 C 29.960938 23.40625 29.941406 23.390625 29.890625 23.398438 C 29.890625 23.398438 29.738281 23.511719 29.617188 23.460938 C 29.507812 23.414062 29.441406 23.339844 29.445312 23.179688 C 29.453125 23.015625 29.648438 22.976562 29.648438 22.976562 C 29.738281 22.953125 29.820312 22.945312 29.90625 22.980469 C 30.128906 23.023438 30.375 23.328125 30.417969 23.457031 C 30.417969 23.457031 30.46875 23.578125 30.621094 23.929688 C 30.769531 24.28125 31.003906 24.097656 31.003906 24.097656 C 31.144531 24.003906 31.1875 23.882812 31.132812 23.734375 C 31.09375 23.605469 30.867188 23.664062 30.867188 23.664062 C 30.832031 23.429688 30.910156 23.328125 31.101562 23.363281 C 31.101562 23.027344 31.316406 22.949219 31.320312 22.949219 C 31.320312 22.949219 31.320312 22.953125 31.324219 22.953125 Z M 31.3125 22.953125 "/>
<path style="fill-rule:evenodd;fill:rgb(93.333334%,81.568629%,0%);fill-opacity:1;stroke-width:8.489;stroke-linecap:butt;stroke-linejoin:miter;stroke:rgb(0%,17.647059%,33.725491%);stroke-opacity:1;stroke-miterlimit:3.864;" d="M 1500.12 1591.875 L 1388.7 1591.875 L 1401.84 1157.298387 L 1487.52 1157.298387 Z M 1499.76 1833.75 L 1381.32 1833.75 L 1381.32 1636.330645 L 1499.76 1636.330645 Z M 1499.76 1833.75 " transform="matrix(0.0217014,0,0,0.0215278,0,0)"/>
<path style="fill-rule:nonzero;fill:rgb(93.333334%,81.568629%,0%);fill-opacity:1;stroke-width:8.489;stroke-linecap:butt;stroke-linejoin:miter;stroke:rgb(0%,17.647059%,33.725491%);stroke-opacity:1;stroke-miterlimit:3.864;" d="M 1379.52 1613.830645 L 1499.4 1613.830645 C 1507.68 1613.830645 1514.52 1618.91129 1514.52 1625.080645 C 1514.52 1631.431452 1507.68 1636.512097 1499.4 1636.512097 L 1379.52 1636.512097 C 1371.06 1636.512097 1364.4 1631.431452 1364.4 1625.080645 C 1364.4 1618.91129 1371.06 1613.830645 1379.52 1613.830645 Z M 1379.52 1613.830645 " transform="matrix(0.0217014,0,0,0.0215278,0,0)"/>
<path style="fill-rule:evenodd;fill:rgb(93.333334%,81.568629%,0%);fill-opacity:1;stroke-width:8.489;stroke-linecap:butt;stroke-linejoin:miter;stroke:rgb(0%,17.647059%,33.725491%);stroke-opacity:1;stroke-miterlimit:3.864;" d="M 1388.34 1592.419355 L 1493.1 1592.419355 C 1500.48 1592.419355 1506.42 1597.137097 1506.42 1603.125 C 1506.42 1608.931452 1500.48 1613.830645 1493.1 1613.830645 L 1388.34 1613.830645 C 1380.96 1613.830645 1374.84 1608.931452 1374.84 1603.125 C 1374.84 1597.137097 1380.96 1592.419355 1388.34 1592.419355 Z M 1388.34 1592.419355 " transform="matrix(0.0217014,0,0,0.0215278,0,0)"/>
<path style="fill:none;stroke-width:8.489;stroke-linecap:butt;stroke-linejoin:miter;stroke:rgb(0%,17.647059%,33.725491%);stroke-opacity:1;stroke-miterlimit:3.864;" d="M 1408.14 1673.346774 L 1471.32 1673.346774 L 1471.32 1803.447581 L 1408.14 1803.447581 Z M 1408.14 1673.346774 " transform="matrix(0.0217014,0,0,0.0215278,0,0)"/>
<path style="fill-rule:nonzero;fill:rgb(93.333334%,81.568629%,0%);fill-opacity:1;stroke-width:4.9;stroke-linecap:butt;stroke-linejoin:miter;stroke:rgb(0%,17.647059%,33.725491%);stroke-opacity:1;stroke-miterlimit:3.864;" d="M 1406.7 1142.056452 L 1479.42 1142.056452 C 1485.36 1142.056452 1490.22 1145.685484 1490.22 1150.040323 C 1490.22 1154.395161 1485.36 1157.842742 1479.42 1157.842742 L 1406.7 1157.842742 C 1400.76 1157.842742 1395.9 1154.395161 1395.9 1150.040323 C 1395.9 1145.685484 1400.76 1142.056452 1406.7 1142.056452 Z M 1406.7 1142.056452 " transform="matrix(0.0217014,0,0,0.0215278,0,0)"/>
<path style="fill-rule:evenodd;fill:rgb(93.333334%,81.568629%,0%);fill-opacity:1;stroke-width:10;stroke-linecap:butt;stroke-linejoin:miter;stroke:rgb(0%,17.647059%,33.725491%);stroke-opacity:1;stroke-miterlimit:3.864;" d="M 847.8 1857.33871 L 2053.44 1857.33871 L 2053.44 1897.983871 L 847.8 1897.983871 Z M 847.8 1857.33871 " transform="matrix(0.0217014,0,0,0.0215278,0,0)"/>
<path style="fill-rule:nonzero;fill:rgb(93.333334%,81.568629%,0%);fill-opacity:1;stroke-width:6;stroke-linecap:butt;stroke-linejoin:miter;stroke:rgb(0%,17.647059%,33.725491%);stroke-opacity:1;stroke-miterlimit:3.864;" d="M 796.32 1897.620968 L 2105.64 1897.620968 L 2105.64 1940.625 L 796.32 1940.625 Z M 796.32 1897.620968 " transform="matrix(0.0217014,0,0,0.0215278,0,0)"/>
<path style="fill-rule:evenodd;fill:rgb(93.333334%,81.568629%,0%);fill-opacity:1;stroke-width:9.55;stroke-linecap:butt;stroke-linejoin:miter;stroke:rgb(0%,17.647059%,33.725491%);stroke-opacity:1;stroke-miterlimit:3.864;" d="M 883.44 974.395161 L 2009.16 974.395161 L 2009.16 999.435484 L 883.44 999.435484 Z M 883.44 974.395161 " transform="matrix(0.0217014,0,0,0.0215278,0,0)"/>
<path style="fill-rule:evenodd;fill:rgb(93.333334%,81.568629%,0%);fill-opacity:1;stroke-width:4.8999;stroke-linecap:butt;stroke-linejoin:round;stroke:rgb(0%,17.647059%,33.725491%);stroke-opacity:1;stroke-miterlimit:3.8637;" d="M 1797.12 973.669355 C 1738.8 833.951613 1603.44 736.330645 1445.76 736.330645 C 1288.08 736.330645 1152.9 834.133065 1094.4 973.669355 L 954.54 973.669355 C 1019.16 759.012097 1214.82 601.512097 1445.76 601.512097 C 1676.7 601.512097 1872.54 758.649194 1937.16 973.669355 Z M 1797.12 973.669355 " transform="matrix(0.0217014,0,0,0.0215278,0,0)"/>
<path style="fill-rule:evenodd;fill:rgb(93.333334%,81.568629%,0%);fill-opacity:1;stroke-width:6;stroke-linecap:butt;stroke-linejoin:miter;stroke:rgb(0%,17.647059%,33.725491%);stroke-opacity:1;stroke-miterlimit:3.864;" d="M 913.68 999.616935 C 913.68 999.616935 933.12 1011.41129 949.32 1046.068548 L 1950.84 1045.887097 C 1950.84 1045.887097 1967.22 1007.237903 1989.9 999.616935 Z M 913.68 999.616935 " transform="matrix(0.0217014,0,0,0.0215278,0,0)"/>
<path style="fill-rule:evenodd;fill:rgb(93.333334%,81.568629%,0%);fill-opacity:1;stroke-width:4.8999;stroke-linecap:butt;stroke-linejoin:round;stroke:rgb(0%,17.647059%,33.725491%);stroke-opacity:1;stroke-miterlimit:3.8637;" d="M 1162.08 1054.959677 C 1162.08 1054.959677 1254.96 1214.274194 1443.6 1212.096774 C 1629.9 1209.919355 1724.94 1060.403226 1724.94 1060.403226 L 1774.62 1134.072581 C 1774.62 1134.072581 1792.98 1158.931452 1757.34 1190.322581 C 1631.52 1301.370968 1531.62 1323.145161 1443.6 1322.419355 C 1313.46 1315.342742 1208.34 1271.25 1128.6 1190.322581 C 1114.2 1178.346774 1111.32 1162.741935 1115.64 1149.677419 Z M 1162.08 1054.959677 " transform="matrix(0.0217014,0,0,0.0215278,0,0)"/>
<path style="fill:none;stroke-width:6.367;stroke-linecap:butt;stroke-linejoin:miter;stroke:rgb(0%,17.647059%,33.725491%);stroke-opacity:1;stroke-miterlimit:3.864;" d="M 1113.66 1166.189516 C 1113.66 1166.189516 1108.08 1134.072581 1158.84 1160.020161 L 1162.62 1055.504032 M 1778.22 1144.415323 C 1762.02 1109.395161 1732.32 1152.217742 1732.32 1152.217742 L 1724.76 1060.947581 " transform="matrix(0.0217014,0,0,0.0215278,0,0)"/>
<path style="fill-rule:nonzero;fill:rgb(93.333334%,81.568629%,0%);fill-opacity:1;stroke-width:5;stroke-linecap:butt;stroke-linejoin:miter;stroke:rgb(0%,17.647059%,33.725491%);stroke-opacity:1;stroke-miterlimit:3.864;" d="M 943.92 1047.883065 L 1950.84 1047.883065 C 1954.44 1047.883065 1957.32 1050.967742 1957.32 1054.596774 L 1957.32 1056.955645 C 1957.32 1060.584677 1954.44 1063.669355 1950.84 1063.669355 L 943.92 1063.669355 C 940.32 1063.669355 937.44 1060.584677 937.44 1056.955645 L 937.44 1054.596774 C 937.44 1050.967742 940.32 1047.883065 943.92 1047.883065 Z M 943.92 1047.883065 " transform="matrix(0.0217014,0,0,0.0215278,0,0)"/>
<path style=" stroke:none;fill-rule:nonzero;fill:rgb(93.333334%,81.568629%,0%);fill-opacity:1;" d="M 22.414062 22.925781 C 22.417969 22.925781 22.421875 22.925781 22.421875 22.925781 C 22.421875 22.921875 22.636719 23 22.640625 23.335938 C 22.832031 23.300781 22.910156 23.402344 22.871094 23.636719 C 22.871094 23.636719 22.644531 23.578125 22.609375 23.707031 C 22.550781 23.855469 22.59375 23.976562 22.734375 24.070312 C 22.734375 24.070312 22.972656 24.253906 23.121094 23.902344 C 23.269531 23.550781 23.324219 23.429688 23.324219 23.429688 C 23.363281 23.300781 23.609375 22.996094 23.835938 22.953125 C 23.921875 22.917969 24 22.925781 24.09375 22.949219 C 24.09375 22.949219 24.289062 22.988281 24.292969 23.152344 C 24.300781 23.316406 24.234375 23.386719 24.121094 23.433594 C 24 23.484375 23.847656 23.371094 23.847656 23.371094 C 23.796875 23.363281 23.78125 23.382812 23.746094 23.402344 C 23.734375 23.414062 23.671875 23.480469 23.636719 23.558594 C 23.636719 23.558594 23.527344 23.785156 23.476562 23.960938 C 23.433594 24.097656 23.34375 24.511719 22.921875 24.574219 L 21.921875 24.574219 C 21.5 24.511719 21.410156 24.097656 21.367188 23.960938 C 21.316406 23.785156 21.207031 23.558594 21.207031 23.558594 C 21.171875 23.480469 21.109375 23.414062 21.09375 23.402344 C 21.0625 23.382812 21.046875 23.363281 20.992188 23.371094 C 20.992188 23.371094 20.84375 23.484375 20.71875 23.433594 C 20.609375 23.386719 20.542969 23.316406 20.546875 23.152344 C 20.554688 22.988281 20.75 22.949219 20.75 22.949219 C 20.839844 22.925781 20.921875 22.917969 21.007812 22.953125 C 21.230469 22.996094 21.476562 23.300781 21.519531 23.429688 C 21.519531 23.429688 21.574219 23.550781 21.722656 23.902344 C 21.871094 24.253906 22.105469 24.070312 22.105469 24.070312 C 22.246094 23.976562 22.289062 23.855469 22.234375 23.707031 C 22.199219 23.578125 21.96875 23.636719 21.96875 23.636719 C 21.933594 23.402344 22.011719 23.300781 22.203125 23.335938 C 22.203125 23 22.421875 22.921875 22.421875 22.925781 C 22.421875 22.925781 22.425781 22.925781 22.425781 22.925781 Z M 22.414062 22.925781 "/>
<path style="fill-rule:evenodd;fill:rgb(93.333334%,81.568629%,0%);fill-opacity:1;stroke-width:8.489;stroke-linecap:butt;stroke-linejoin:miter;stroke:rgb(0%,17.647059%,33.725491%);stroke-opacity:1;stroke-miterlimit:3.864;" d="M 1088.82 1591.875 L 977.4 1591.875 L 992.34 1157.298387 L 1074.6 1157.298387 Z M 1092.24 1833.75 L 973.98 1833.75 L 973.98 1636.330645 L 1092.24 1636.330645 Z M 1092.24 1833.75 " transform="matrix(0.0217014,0,0,0.0215278,0,0)"/>
<path style="fill-rule:evenodd;fill:rgb(93.333334%,81.568629%,0%);fill-opacity:1;stroke-width:8.489;stroke-linecap:butt;stroke-linejoin:miter;stroke:rgb(0%,17.647059%,33.725491%);stroke-opacity:1;stroke-miterlimit:3.864;" d="M 973.26 1613.830645 L 1093.14 1613.830645 C 1101.42 1613.830645 1108.26 1618.91129 1108.26 1625.080645 C 1108.26 1631.431452 1101.42 1636.512097 1093.14 1636.512097 L 973.26 1636.512097 C 964.8 1636.512097 958.14 1631.431452 958.14 1625.080645 C 958.14 1618.91129 964.8 1613.830645 973.26 1613.830645 Z M 980.82 1592.419355 L 1085.58 1592.419355 C 1092.96 1592.419355 1098.9 1597.137097 1098.9 1603.125 C 1098.9 1608.931452 1092.96 1613.830645 1085.58 1613.830645 L 980.82 1613.830645 C 973.44 1613.830645 967.32 1608.931452 967.32 1603.125 C 967.32 1597.137097 973.44 1592.419355 980.82 1592.419355 Z M 980.82 1592.419355 " transform="matrix(0.0217014,0,0,0.0215278,0,0)"/>
<path style="fill:none;stroke-width:8.489;stroke-linecap:butt;stroke-linejoin:miter;stroke:rgb(0%,17.647059%,33.725491%);stroke-opacity:1;stroke-miterlimit:3.864;" d="M 1001.52 1673.346774 L 1064.7 1673.346774 L 1064.7 1803.447581 L 1001.52 1803.447581 Z M 1001.52 1673.346774 " transform="matrix(0.0217014,0,0,0.0215278,0,0)"/>
<path style="fill-rule:nonzero;fill:rgb(93.333334%,81.568629%,0%);fill-opacity:1;stroke-width:4.9;stroke-linecap:butt;stroke-linejoin:miter;stroke:rgb(0%,17.647059%,33.725491%);stroke-opacity:1;stroke-miterlimit:3.864;" d="M 996.84 1143.870968 L 1069.38 1143.870968 C 1075.5 1143.870968 1080.36 1147.318548 1080.36 1151.673387 C 1080.36 1156.028226 1075.5 1159.475806 1069.38 1159.475806 L 996.84 1159.475806 C 990.9 1159.475806 986.04 1156.028226 986.04 1151.673387 C 986.04 1147.318548 990.9 1143.870968 996.84 1143.870968 Z M 996.84 1143.870968 " transform="matrix(0.0217014,0,0,0.0215278,0,0)"/>
<path style="fill-rule:evenodd;fill:rgb(93.333334%,81.568629%,0%);fill-opacity:1;stroke-width:4.083;stroke-linecap:butt;stroke-linejoin:miter;stroke:rgb(0%,17.647059%,33.725491%);stroke-opacity:1;stroke-miterlimit:3.864;" d="M 948.96 1834.112903 L 1117.44 1834.112903 L 1117.44 1856.975806 L 948.96 1856.975806 Z M 948.96 1834.112903 " transform="matrix(0.0217014,0,0,0.0215278,0,0)"/>
<path style=" stroke:none;fill-rule:nonzero;fill:rgb(93.333334%,81.568629%,0%);fill-opacity:1;" d="M 40.34375 22.953125 C 40.347656 22.953125 40.347656 22.949219 40.347656 22.949219 C 40.351562 22.949219 40.566406 23.027344 40.566406 23.363281 C 40.757812 23.328125 40.835938 23.429688 40.800781 23.664062 C 40.800781 23.664062 40.574219 23.605469 40.535156 23.734375 C 40.480469 23.882812 40.523438 24.003906 40.664062 24.097656 C 40.664062 24.097656 40.898438 24.28125 41.046875 23.929688 C 41.199219 23.578125 41.25 23.457031 41.25 23.457031 C 41.292969 23.328125 41.539062 23.023438 41.761719 22.980469 C 41.847656 22.945312 41.929688 22.953125 42.019531 22.976562 C 42.019531 22.976562 42.214844 23.015625 42.222656 23.179688 C 42.226562 23.339844 42.160156 23.414062 42.050781 23.460938 C 41.929688 23.511719 41.777344 23.398438 41.777344 23.398438 C 41.726562 23.390625 41.707031 23.40625 41.675781 23.429688 C 41.660156 23.441406 41.597656 23.507812 41.5625 23.582031 C 41.5625 23.582031 41.453125 23.8125 41.402344 23.984375 C 41.363281 24.125 41.273438 24.539062 40.847656 24.601562 L 39.851562 24.601562 C 39.425781 24.539062 39.335938 24.125 39.296875 23.984375 C 39.242188 23.8125 39.136719 23.582031 39.136719 23.582031 C 39.097656 23.507812 39.039062 23.441406 39.023438 23.429688 C 38.988281 23.40625 38.972656 23.390625 38.921875 23.398438 C 38.921875 23.398438 38.769531 23.511719 38.648438 23.460938 C 38.539062 23.414062 38.46875 23.339844 38.476562 23.179688 C 38.480469 23.015625 38.675781 22.976562 38.675781 22.976562 C 38.769531 22.953125 38.851562 22.945312 38.933594 22.980469 C 39.160156 23.023438 39.40625 23.328125 39.445312 23.457031 C 39.445312 23.457031 39.5 23.578125 39.648438 23.929688 C 39.796875 24.28125 40.035156 24.097656 40.035156 24.097656 C 40.175781 24.003906 40.21875 23.882812 40.164062 23.734375 C 40.125 23.605469 39.898438 23.664062 39.898438 23.664062 C 39.859375 23.429688 39.9375 23.328125 40.128906 23.363281 C 40.132812 23.027344 40.347656 22.949219 40.351562 22.949219 C 40.351562 22.949219 40.351562 22.953125 40.355469 22.953125 Z M 40.34375 22.953125 "/>
<path style="fill-rule:evenodd;fill:rgb(93.333334%,81.568629%,0%);fill-opacity:1;stroke-width:8.489;stroke-linecap:butt;stroke-linejoin:miter;stroke:rgb(0%,17.647059%,33.725491%);stroke-opacity:1;stroke-miterlimit:3.864;" d="M 1917.18 1591.875 L 1805.76 1591.875 L 1820.52 1157.298387 L 1902.78 1157.298387 Z M 1923.3 1833.75 L 1804.86 1833.75 L 1803.78 1636.330645 L 1923.3 1636.330645 Z M 1923.3 1833.75 " transform="matrix(0.0217014,0,0,0.0215278,0,0)"/>
<path style="fill-rule:nonzero;fill:rgb(93.333334%,81.568629%,0%);fill-opacity:1;stroke-width:8.489;stroke-linecap:butt;stroke-linejoin:miter;stroke:rgb(0%,17.647059%,33.725491%);stroke-opacity:1;stroke-miterlimit:3.864;" d="M 1803.78 1613.830645 L 1923.84 1613.830645 C 1932.12 1613.830645 1938.96 1618.91129 1938.96 1625.080645 C 1938.96 1631.431452 1932.12 1636.512097 1923.84 1636.512097 L 1803.78 1636.512097 C 1795.5 1636.512097 1788.66 1631.431452 1788.66 1625.080645 C 1788.66 1618.91129 1795.5 1613.830645 1803.78 1613.830645 Z M 1803.78 1613.830645 " transform="matrix(0.0217014,0,0,0.0215278,0,0)"/>
<path style="fill-rule:evenodd;fill:rgb(93.333334%,81.568629%,0%);fill-opacity:1;stroke-width:8.489;stroke-linecap:butt;stroke-linejoin:miter;stroke:rgb(0%,17.647059%,33.725491%);stroke-opacity:1;stroke-miterlimit:3.864;" d="M 1809.9 1592.419355 L 1914.66 1592.419355 C 1922.04 1592.419355 1928.16 1597.137097 1928.16 1603.125 C 1928.16 1608.931452 1922.04 1613.830645 1914.66 1613.830645 L 1809.9 1613.830645 C 1802.52 1613.830645 1796.4 1608.931452 1796.4 1603.125 C 1796.4 1597.137097 1802.52 1592.419355 1809.9 1592.419355 Z M 1809.9 1592.419355 " transform="matrix(0.0217014,0,0,0.0215278,0,0)"/>
<path style="fill:none;stroke-width:8.489;stroke-linecap:butt;stroke-linejoin:miter;stroke:rgb(0%,17.647059%,33.725491%);stroke-opacity:1;stroke-miterlimit:3.864;" d="M 1831.32 1673.346774 L 1894.68 1673.346774 L 1894.68 1803.447581 L 1831.32 1803.447581 Z M 1831.32 1673.346774 " transform="matrix(0.0217014,0,0,0.0215278,0,0)"/>
<path style="fill-rule:nonzero;fill:rgb(93.333334%,81.568629%,0%);fill-opacity:1;stroke-width:4.9;stroke-linecap:butt;stroke-linejoin:miter;stroke:rgb(0%,17.647059%,33.725491%);stroke-opacity:1;stroke-miterlimit:3.864;" d="M 1824.48 1142.056452 L 1897.2 1142.056452 C 1903.14 1142.056452 1908 1145.685484 1908 1150.040323 C 1908 1154.395161 1903.14 1157.842742 1897.2 1157.842742 L 1824.48 1157.842742 C 1818.54 1157.842742 1813.68 1154.395161 1813.68 1150.040323 C 1813.68 1145.685484 1818.54 1142.056452 1824.48 1142.056452 Z M 1824.48 1142.056452 " transform="matrix(0.0217014,0,0,0.0215278,0,0)"/>
<path style="fill-rule:evenodd;fill:rgb(93.333334%,81.568629%,0%);fill-opacity:1;stroke-width:4.083;stroke-linecap:butt;stroke-linejoin:miter;stroke:rgb(0%,17.647059%,33.725491%);stroke-opacity:1;stroke-miterlimit:3.864;" d="M 1353.42 1834.112903 L 1522.08 1834.112903 L 1522.08 1856.975806 L 1353.42 1856.975806 Z M 1353.42 1834.112903 " transform="matrix(0.0217014,0,0,0.0215278,0,0)"/>
<path style="fill-rule:evenodd;fill:rgb(93.333334%,81.568629%,0%);fill-opacity:1;stroke-width:7.428;stroke-linecap:butt;stroke-linejoin:miter;stroke:rgb(0%,17.647059%,33.725491%);stroke-opacity:1;stroke-miterlimit:3.864;" d="M 727.74 1526.008065 C 699.12 1505.322581 668.88 1510.766129 668.88 1510.766129 C 668.88 1510.766129 690.84 1481.733871 725.58 1496.25 C 747.72 1505.322581 766.62 1539.435484 822.78 1503.689516 C 879.12 1467.943548 900.9 1449.979839 950.4 1433.28629 C 1001.16 1416.41129 1041.12 1412.782258 1053 1408.427419 C 1064.88 1404.072581 1083.42 1397.358871 1092.96 1340.201613 C 1095.12 1327.318548 1146.96 1448.528226 1146.96 1448.528226 C 1146.96 1448.528226 1139.4 1488.629032 1089.72 1511.310484 C 1040.04 1534.173387 954 1547.782258 906.12 1586.068548 C 889.92 1599.133065 858.78 1621.633065 839.88 1649.21371 C 795.6 1714.173387 749.34 1721.431452 749.34 1721.431452 C 749.34 1721.431452 791.28 1684.778226 802.8 1635.423387 C 804.96 1626.169355 801.54 1584.798387 817.92 1568.28629 C 800.46 1585.705645 756.18 1551.229839 761.76 1555.766129 C 761.76 1555.766129 756.36 1546.512097 727.74 1526.008065 Z M 1800.18 1341.290323 C 1800.18 1341.290323 1808.82 1390.46371 1905.48 1415.504032 C 2002.14 1440.362903 2017.26 1471.754032 2032.92 1479.375 C 2048.58 1486.995968 2089.26 1516.209677 2132.82 1501.512097 C 2150.1 1495.887097 2197.98 1482.641129 2201.94 1485.544355 C 2203.38 1488.084677 2188.26 1513.487903 2186.28 1515.665323 C 2154.24 1553.58871 2142 1559.576613 2130.12 1565.383065 C 2104.2 1578.447581 2102.22 1580.080645 2083.68 1581.169355 C 2083.68 1581.169355 2100.96 1602.762097 2103.66 1637.96371 C 2106.36 1673.165323 2153.34 1708.91129 2153.34 1708.91129 C 2153.34 1708.91129 2090.7 1692.762097 2063.16 1655.383065 C 2035.62 1618.004032 1990.26 1586.068548 1973.52 1577.903226 C 1956.78 1569.737903 1871.46 1540.524194 1853.64 1533.447581 C 1835.82 1526.552419 1780.2 1497.157258 1772.46 1450.16129 C 1764.9 1402.983871 1800.18 1341.290323 1800.18 1341.290323 Z M 1800.18 1341.290323 " transform="matrix(0.0217014,0,0,0.0215278,0,0)"/>
<path style="fill-rule:nonzero;fill:rgb(93.333334%,81.568629%,0%);fill-opacity:1;stroke-width:7.428;stroke-linecap:butt;stroke-linejoin:miter;stroke:rgb(0%,17.647059%,33.725491%);stroke-opacity:1;stroke-miterlimit:3.864;" d="M 883.26 1379.21371 C 817.74 1353.447581 837.9 1336.028226 837.9 1336.028226 C 854.1 1307.177419 875.16 1270.887097 955.26 1240.221774 C 1062.18 1199.032258 1171.26 1217.358871 1142.1 1265.080645 C 1124.46 1294.112903 1093.86 1344.737903 1093.86 1344.737903 C 1093.86 1344.737903 1081.08 1310.625 1022.76 1332.217742 C 964.44 1353.810484 946.44 1363.064516 942.84 1374.495968 C 937.44 1392.459677 939.6 1403.709677 981.9 1397.177419 C 954.36 1406.431452 923.58 1396.814516 889.2 1381.572581 Z M 883.26 1379.21371 " transform="matrix(0.0217014,0,0,0.0215278,0,0)"/>
<path style="fill-rule:nonzero;fill:rgb(93.333334%,81.568629%,0%);fill-opacity:1;stroke-width:6.367;stroke-linecap:butt;stroke-linejoin:round;stroke:rgb(0%,17.647059%,33.725491%);stroke-opacity:1;stroke-miterlimit:3.864;" d="M 1883.52 1330.584677 C 1895.76 1333.669355 1916.46 1343.830645 1928.52 1352.540323 C 1988.1 1395.181452 1977.12 1432.560484 1960.56 1433.467742 C 1942.2 1434.556452 2077.2 1430.745968 2093.4 1422.03629 C 2109.6 1413.508065 2115 1403.709677 2105.28 1383.205645 C 2095.56 1362.520161 2022.12 1236.955645 1902.24 1213.185484 C 1782.18 1189.233871 1734.66 1239.858871 1744.92 1256.915323 C 1754.64 1273.245968 1799.1 1327.318548 1800.72 1349.637097 C 1812.96 1326.41129 1840.68 1319.697581 1883.52 1330.584677 Z M 1883.52 1330.584677 " transform="matrix(0.0217014,0,0,0.0215278,0,0)"/>
<path style=" stroke:none;fill-rule:evenodd;fill:rgb(0%,17.647059%,33.725491%);fill-opacity:1;" d="M 39.628906 28.144531 L 39.125 27.429688 L 39.257812 28.207031 L 39.054688 28.238281 L 38.828125 26.882812 L 39.042969 26.847656 L 39.695312 27.753906 L 40.023438 26.683594 L 40.214844 26.652344 L 40.445312 28.007812 L 40.175781 28.054688 L 40.046875 27.273438 L 39.78125 28.117188 Z M 41.703125 27.625 C 41.660156 27.835938 41.578125 27.988281 41.457031 28.082031 C 41.339844 28.171875 41.199219 28.203125 41.042969 28.171875 C 40.882812 28.140625 40.769531 28.058594 40.695312 27.925781 C 40.621094 27.796875 40.605469 27.625 40.648438 27.414062 L 40.664062 27.339844 C 40.703125 27.144531 40.78125 26.992188 40.894531 26.890625 C 41.011719 26.785156 41.15625 26.75 41.332031 26.785156 C 41.503906 26.820312 41.621094 26.910156 41.683594 27.050781 C 41.746094 27.195312 41.757812 27.359375 41.71875 27.550781 Z M 41.414062 27.546875 L 41.421875 27.511719 C 41.457031 27.34375 41.46875 27.21875 41.457031 27.132812 C 41.445312 27.046875 41.390625 26.996094 41.285156 26.972656 C 41.191406 26.953125 41.121094 26.976562 41.074219 27.042969 C 41.03125 27.109375 40.988281 27.230469 40.949219 27.414062 L 40.945312 27.449219 C 40.90625 27.632812 40.894531 27.765625 40.90625 27.839844 C 40.921875 27.914062 40.980469 27.960938 41.078125 27.980469 C 41.164062 27.996094 41.230469 27.972656 41.28125 27.90625 C 41.335938 27.839844 41.378906 27.71875 41.414062 27.546875 Z M 42.8125 28.21875 C 42.707031 28.414062 42.589844 28.539062 42.464844 28.59375 C 42.335938 28.648438 42.203125 28.636719 42.054688 28.558594 L 41.632812 28.332031 L 42.292969 27.125 L 42.671875 27.328125 C 42.84375 27.421875 42.941406 27.542969 42.957031 27.6875 C 42.976562 27.828125 42.9375 27.992188 42.839844 28.171875 Z M 42.554688 28.070312 L 42.574219 28.039062 C 42.644531 27.90625 42.679688 27.792969 42.671875 27.699219 C 42.667969 27.605469 42.628906 27.539062 42.550781 27.496094 L 42.453125 27.445312 L 41.992188 28.292969 L 42.109375 28.355469 C 42.183594 28.394531 42.257812 28.398438 42.324219 28.363281 C 42.390625 28.324219 42.46875 28.226562 42.554688 28.070312 Z M 43.566406 28.277344 L 43.304688 28.539062 L 43.585938 28.8125 L 43.4375 28.960938 L 43.160156 28.6875 L 42.886719 28.964844 L 43.269531 29.339844 L 43.125 29.484375 L 42.53125 28.902344 L 43.5 27.921875 L 44.070312 28.480469 L 43.925781 28.625 Z M 43.703125 30.449219 L 43.554688 30.199219 C 43.746094 30.082031 43.871094 29.984375 43.933594 29.90625 C 44 29.824219 44.007812 29.75 43.96875 29.679688 L 43.933594 29.617188 L 43.398438 29.933594 L 43.246094 29.679688 L 44.4375 28.980469 L 44.699219 29.421875 C 44.765625 29.53125 44.785156 29.621094 44.761719 29.695312 C 44.738281 29.769531 44.691406 29.828125 44.621094 29.871094 L 44.554688 29.910156 C 44.488281 29.949219 44.421875 29.960938 44.355469 29.945312 C 44.292969 29.929688 44.234375 29.886719 44.179688 29.8125 C 44.203125 29.917969 44.179688 30.019531 44.109375 30.121094 C 44.042969 30.21875 43.90625 30.328125 43.703125 30.449219 Z M 44.382812 29.671875 L 44.414062 29.65625 C 44.464844 29.625 44.496094 29.589844 44.503906 29.550781 C 44.507812 29.511719 44.496094 29.46875 44.46875 29.417969 L 44.417969 29.332031 L 44.105469 29.519531 L 44.144531 29.585938 C 44.179688 29.648438 44.21875 29.683594 44.253906 29.695312 C 44.292969 29.707031 44.335938 29.699219 44.382812 29.671875 Z M 39.964844 32.144531 L 39.71875 31.96875 L 39.835938 31.644531 L 39.488281 31.390625 L 39.210938 31.601562 L 39.015625 31.460938 L 40.1875 30.605469 L 40.410156 30.765625 Z M 39.902344 31.445312 L 40.070312 30.945312 L 39.652344 31.265625 Z M 41.503906 31.574219 L 41.246094 31.449219 L 40.730469 32.5 L 40.464844 32.371094 L 40.980469 31.320312 L 40.71875 31.191406 L 40.808594 31.007812 L 41.59375 31.390625 Z M 42.136719 31.601562 L 41.597656 32.867188 L 41.324219 32.75 L 41.867188 31.484375 Z M 43.183594 32.855469 C 43.097656 33.054688 42.984375 33.1875 42.847656 33.25 C 42.710938 33.3125 42.570312 33.3125 42.421875 33.246094 C 42.273438 33.183594 42.179688 33.078125 42.136719 32.933594 C 42.089844 32.789062 42.113281 32.621094 42.199219 32.425781 L 42.230469 32.355469 C 42.3125 32.171875 42.421875 32.042969 42.558594 31.964844 C 42.695312 31.886719 42.84375 31.886719 43.007812 31.957031 C 43.167969 32.027344 43.261719 32.140625 43.289062 32.292969 C 43.320312 32.445312 43.296875 32.609375 43.214844 32.789062 Z M 42.921875 32.71875 L 42.9375 32.6875 C 43.003906 32.53125 43.042969 32.410156 43.050781 32.324219 C 43.058594 32.238281 43.015625 32.175781 42.921875 32.132812 C 42.832031 32.09375 42.757812 32.101562 42.699219 32.152344 C 42.640625 32.207031 42.574219 32.320312 42.496094 32.492188 L 42.484375 32.523438 C 42.40625 32.695312 42.367188 32.820312 42.363281 32.894531 C 42.359375 32.96875 42.40625 33.027344 42.5 33.070312 C 42.578125 33.105469 42.648438 33.09375 42.714844 33.042969 C 42.78125 32.988281 42.847656 32.878906 42.921875 32.71875 Z M 44.109375 33.4375 L 44.515625 32.730469 L 44.699219 32.835938 L 44.007812 34.027344 L 43.898438 33.964844 L 43.765625 32.890625 L 43.328125 33.636719 L 43.148438 33.53125 L 43.839844 32.339844 L 43.976562 32.421875 Z M 20.503906 28.882812 L 20.320312 28.992188 L 19.300781 28 L 19.554688 27.847656 L 20.203125 28.476562 L 19.972656 27.597656 L 20.152344 27.492188 L 20.828125 28.101562 L 20.5625 27.246094 L 20.765625 27.125 L 21.167969 28.488281 L 20.984375 28.597656 L 20.28125 27.972656 Z M 21.527344 26.9375 L 21.933594 28.253906 L 21.648438 28.339844 L 21.246094 27.023438 Z M 23.117188 27.640625 C 23.136719 27.785156 23.105469 27.898438 23.023438 27.980469 C 22.941406 28.0625 22.820312 28.113281 22.65625 28.136719 C 22.5625 28.148438 22.484375 28.15625 22.417969 28.152344 C 22.351562 28.148438 22.296875 28.140625 22.25 28.132812 L 22.21875 27.894531 C 22.253906 27.914062 22.308594 27.925781 22.378906 27.933594 C 22.453125 27.941406 22.523438 27.941406 22.589844 27.929688 C 22.6875 27.917969 22.75 27.894531 22.78125 27.863281 C 22.8125 27.832031 22.824219 27.785156 22.816406 27.722656 C 22.8125 27.683594 22.792969 27.652344 22.761719 27.625 C 22.734375 27.597656 22.652344 27.566406 22.527344 27.535156 C 22.421875 27.507812 22.339844 27.464844 22.28125 27.410156 C 22.21875 27.351562 22.179688 27.269531 22.164062 27.160156 C 22.148438 27.054688 22.179688 26.960938 22.253906 26.878906 C 22.328125 26.792969 22.441406 26.742188 22.59375 26.71875 C 22.664062 26.710938 22.730469 26.707031 22.792969 26.710938 C 22.851562 26.714844 22.894531 26.71875 22.917969 26.726562 L 22.949219 26.933594 C 22.898438 26.929688 22.847656 26.921875 22.796875 26.921875 C 22.746094 26.917969 22.695312 26.921875 22.640625 26.929688 C 22.5625 26.9375 22.507812 26.960938 22.476562 26.988281 C 22.445312 27.019531 22.433594 27.054688 22.4375 27.089844 C 22.445312 27.140625 22.460938 27.175781 22.492188 27.195312 C 22.519531 27.214844 22.601562 27.242188 22.734375 27.273438 C 22.859375 27.300781 22.949219 27.34375 23.007812 27.40625 C 23.066406 27.46875 23.105469 27.546875 23.117188 27.640625 Z M 27.394531 26.707031 C 27.351562 26.789062 27.289062 26.84375 27.207031 26.875 C 27.125 26.90625 27.03125 26.894531 26.925781 26.839844 C 26.863281 26.808594 26.8125 26.777344 26.78125 26.75 C 26.746094 26.722656 26.722656 26.695312 26.707031 26.667969 L 26.800781 26.480469 C 26.816406 26.5 26.839844 26.523438 26.867188 26.546875 C 26.898438 26.570312 26.929688 26.59375 26.964844 26.609375 C 26.996094 26.625 27.027344 26.628906 27.058594 26.625 C 27.09375 26.617188 27.121094 26.59375 27.140625 26.550781 L 27.613281 25.632812 L 27.875 25.765625 Z M 28.894531 27.253906 C 28.847656 27.375 28.777344 27.457031 28.679688 27.5 C 28.582031 27.539062 28.457031 27.53125 28.308594 27.476562 C 28.148438 27.414062 28.050781 27.332031 28.007812 27.234375 C 27.964844 27.132812 27.972656 27.011719 28.027344 26.867188 L 28.363281 26.003906 L 28.636719 26.109375 L 28.292969 27.007812 C 28.265625 27.078125 28.257812 27.136719 28.277344 27.183594 C 28.292969 27.230469 28.339844 27.265625 28.414062 27.292969 C 28.480469 27.320312 28.539062 27.324219 28.582031 27.304688 C 28.628906 27.289062 28.667969 27.238281 28.699219 27.15625 L 29.042969 26.265625 L 29.246094 26.34375 Z M 30.355469 27.550781 C 30.339844 27.695312 30.28125 27.796875 30.179688 27.855469 C 30.078125 27.914062 29.945312 27.929688 29.78125 27.910156 C 29.6875 27.898438 29.609375 27.882812 29.546875 27.867188 C 29.484375 27.847656 29.433594 27.824219 29.390625 27.800781 L 29.421875 27.566406 C 29.453125 27.59375 29.5 27.617188 29.570312 27.644531 C 29.636719 27.671875 29.703125 27.6875 29.773438 27.695312 C 29.867188 27.707031 29.9375 27.703125 29.972656 27.679688 C 30.015625 27.660156 30.039062 27.617188 30.046875 27.554688 C 30.050781 27.515625 30.042969 27.480469 30.019531 27.445312 C 29.996094 27.410156 29.929688 27.363281 29.8125 27.296875 C 29.722656 27.242188 29.652344 27.183594 29.609375 27.113281 C 29.5625 27.042969 29.546875 26.953125 29.5625 26.84375 C 29.574219 26.738281 29.628906 26.652344 29.722656 26.59375 C 29.816406 26.53125 29.9375 26.507812 30.089844 26.527344 C 30.164062 26.535156 30.226562 26.550781 30.285156 26.570312 C 30.339844 26.589844 30.382812 26.605469 30.402344 26.617188 L 30.378906 26.824219 C 30.332031 26.808594 30.28125 26.789062 30.234375 26.773438 C 30.1875 26.757812 30.136719 26.746094 30.082031 26.742188 C 30 26.730469 29.945312 26.738281 29.90625 26.757812 C 29.867188 26.777344 29.847656 26.808594 29.84375 26.847656 C 29.835938 26.894531 29.84375 26.933594 29.867188 26.960938 C 29.890625 26.988281 29.960938 27.035156 30.082031 27.097656 C 30.195312 27.15625 30.269531 27.222656 30.3125 27.296875 C 30.355469 27.371094 30.367188 27.457031 30.355469 27.550781 Z M 31.71875 26.867188 L 31.433594 26.863281 L 31.414062 28.03125 L 31.117188 28.027344 L 31.136719 26.859375 L 30.847656 26.855469 L 30.847656 26.648438 L 31.722656 26.664062 Z M 32.527344 26.585938 L 32.695312 27.953125 L 32.402344 27.988281 L 32.234375 26.625 Z M 34.179688 27.542969 C 34.164062 27.5625 34.132812 27.585938 34.085938 27.613281 C 34.039062 27.640625 33.980469 27.664062 33.914062 27.6875 C 33.746094 27.738281 33.589844 27.726562 33.449219 27.648438 C 33.308594 27.570312 33.207031 27.425781 33.140625 27.214844 L 33.125 27.160156 C 33.066406 26.964844 33.070312 26.789062 33.140625 26.636719 C 33.214844 26.484375 33.332031 26.382812 33.496094 26.332031 C 33.566406 26.3125 33.625 26.296875 33.675781 26.292969 C 33.726562 26.285156 33.765625 26.285156 33.796875 26.292969 L 33.859375 26.5 C 33.832031 26.496094 33.796875 26.492188 33.75 26.496094 C 33.707031 26.496094 33.660156 26.507812 33.601562 26.523438 C 33.5 26.554688 33.433594 26.621094 33.402344 26.71875 C 33.371094 26.820312 33.378906 26.945312 33.421875 27.089844 L 33.429688 27.109375 C 33.476562 27.265625 33.539062 27.375 33.613281 27.433594 C 33.691406 27.492188 33.777344 27.503906 33.867188 27.476562 C 33.929688 27.457031 33.984375 27.4375 34.023438 27.410156 C 34.0625 27.382812 34.09375 27.359375 34.117188 27.339844 Z M 34.589844 26.085938 L 34.757812 26.414062 L 35.105469 26.238281 L 35.199219 26.425781 L 34.851562 26.601562 L 35.03125 26.945312 L 35.507812 26.703125 L 35.601562 26.886719 L 34.859375 27.261719 L 34.230469 26.039062 L 34.945312 25.675781 L 35.039062 25.859375 Z M 20.019531 32.628906 C 20.128906 32.824219 20.171875 32.988281 20.152344 33.125 C 20.132812 33.261719 20.046875 33.367188 19.902344 33.445312 L 19.484375 33.679688 L 18.8125 32.476562 L 19.191406 32.269531 C 19.363281 32.175781 19.515625 32.15625 19.648438 32.21875 C 19.777344 32.28125 19.894531 32.402344 19.992188 32.582031 Z M 19.757812 32.765625 L 19.738281 32.734375 C 19.664062 32.601562 19.585938 32.511719 19.503906 32.464844 C 19.421875 32.421875 19.34375 32.417969 19.269531 32.460938 L 19.171875 32.511719 L 19.640625 33.355469 L 19.761719 33.292969 C 19.835938 33.25 19.875 33.191406 19.878906 33.117188 C 19.886719 33.039062 19.84375 32.921875 19.757812 32.765625 Z M 21.269531 32.113281 C 21.351562 32.3125 21.371094 32.484375 21.328125 32.628906 C 21.28125 32.769531 21.183594 32.871094 21.035156 32.9375 C 20.886719 33 20.746094 32.996094 20.609375 32.929688 C 20.472656 32.863281 20.363281 32.730469 20.277344 32.535156 L 20.25 32.464844 C 20.171875 32.28125 20.148438 32.113281 20.183594 31.960938 C 20.21875 31.808594 20.320312 31.699219 20.484375 31.628906 C 20.644531 31.5625 20.792969 31.570312 20.925781 31.652344 C 21.058594 31.734375 21.164062 31.863281 21.238281 32.046875 Z M 20.988281 32.210938 L 20.972656 32.175781 C 20.90625 32.023438 20.84375 31.910156 20.785156 31.847656 C 20.726562 31.78125 20.652344 31.769531 20.554688 31.8125 C 20.464844 31.847656 20.417969 31.90625 20.417969 31.988281 C 20.417969 32.066406 20.457031 32.191406 20.53125 32.363281 L 20.542969 32.394531 C 20.617188 32.570312 20.679688 32.683594 20.734375 32.738281 C 20.789062 32.789062 20.863281 32.796875 20.957031 32.757812 C 21.035156 32.722656 21.078125 32.664062 21.082031 32.582031 C 21.085938 32.496094 21.054688 32.375 20.988281 32.210938 Z M 22.355469 32.460938 L 21.730469 31.847656 L 22.003906 32.589844 L 21.8125 32.660156 L 21.339844 31.367188 L 21.542969 31.292969 L 22.351562 32.066406 L 22.476562 30.953125 L 22.660156 30.886719 L 23.132812 32.179688 L 22.878906 32.273438 L 22.609375 31.53125 L 22.5 32.410156 Z M 24.179688 18.859375 C 24.175781 18.886719 24.164062 18.933594 24.140625 18.992188 C 24.117188 19.050781 24.082031 19.113281 24.035156 19.179688 C 23.917969 19.347656 23.765625 19.449219 23.585938 19.484375 C 23.40625 19.515625 23.214844 19.460938 23.011719 19.320312 L 22.960938 19.285156 C 22.773438 19.15625 22.660156 18.996094 22.621094 18.808594 C 22.582031 18.621094 22.621094 18.445312 22.734375 18.28125 C 22.785156 18.210938 22.828125 18.15625 22.871094 18.113281 C 22.914062 18.074219 22.949219 18.042969 22.980469 18.027344 L 23.179688 18.167969 C 23.152344 18.183594 23.117188 18.207031 23.078125 18.238281 C 23.039062 18.273438 23 18.316406 22.960938 18.371094 C 22.890625 18.472656 22.875 18.582031 22.914062 18.691406 C 22.953125 18.804688 23.042969 18.910156 23.183594 19.007812 L 23.199219 19.019531 C 23.351562 19.125 23.480469 19.175781 23.589844 19.171875 C 23.699219 19.167969 23.785156 19.121094 23.851562 19.027344 C 23.894531 18.964844 23.925781 18.90625 23.945312 18.855469 C 23.964844 18.800781 23.976562 18.757812 23.984375 18.726562 Z M 24.929688 17.023438 C 25.101562 17.191406 25.195312 17.359375 25.207031 17.53125 C 25.21875 17.703125 25.160156 17.855469 25.027344 17.988281 C 24.898438 18.121094 24.746094 18.1875 24.574219 18.183594 C 24.402344 18.175781 24.230469 18.09375 24.058594 17.929688 L 23.992188 17.867188 C 23.832031 17.714844 23.742188 17.550781 23.714844 17.375 C 23.6875 17.203125 23.75 17.039062 23.894531 16.890625 C 24.035156 16.746094 24.195312 16.683594 24.371094 16.707031 C 24.546875 16.730469 24.710938 16.816406 24.871094 16.96875 Z M 24.671875 17.261719 L 24.640625 17.230469 C 24.503906 17.101562 24.394531 17.015625 24.304688 16.976562 C 24.214844 16.933594 24.128906 16.960938 24.042969 17.046875 C 23.964844 17.128906 23.941406 17.210938 23.972656 17.292969 C 24.007812 17.375 24.097656 17.488281 24.25 17.632812 L 24.277344 17.660156 C 24.429688 17.804688 24.546875 17.894531 24.625 17.921875 C 24.703125 17.953125 24.785156 17.925781 24.871094 17.839844 C 24.941406 17.769531 24.957031 17.6875 24.929688 17.597656 C 24.898438 17.507812 24.8125 17.394531 24.671875 17.261719 Z M 26.296875 16.085938 L 25.765625 15.359375 L 25.964844 15.214844 L 26.867188 16.449219 L 26.746094 16.535156 L 25.558594 16.207031 L 26.125 16.984375 L 25.925781 17.125 L 25.019531 15.894531 L 25.171875 15.785156 Z M 28.214844 15.316406 C 28.28125 15.460938 28.285156 15.59375 28.21875 15.707031 C 28.152344 15.824219 28.03125 15.921875 27.855469 16.003906 C 27.757812 16.050781 27.667969 16.082031 27.59375 16.101562 C 27.519531 16.125 27.457031 16.136719 27.402344 16.136719 L 27.292969 15.898438 C 27.335938 15.90625 27.402344 15.898438 27.484375 15.882812 C 27.566406 15.867188 27.644531 15.839844 27.71875 15.808594 C 27.820312 15.761719 27.886719 15.714844 27.910156 15.667969 C 27.9375 15.625 27.933594 15.570312 27.90625 15.507812 C 27.886719 15.46875 27.855469 15.4375 27.8125 15.421875 C 27.769531 15.402344 27.671875 15.398438 27.519531 15.40625 C 27.394531 15.414062 27.292969 15.398438 27.203125 15.359375 C 27.117188 15.320312 27.046875 15.246094 26.996094 15.132812 C 26.945312 15.027344 26.949219 14.917969 27.003906 14.800781 C 27.0625 14.6875 27.171875 14.589844 27.332031 14.515625 C 27.410156 14.480469 27.484375 14.453125 27.554688 14.4375 C 27.621094 14.421875 27.671875 14.414062 27.699219 14.410156 L 27.800781 14.621094 C 27.742188 14.632812 27.683594 14.644531 27.625 14.660156 C 27.570312 14.675781 27.511719 14.695312 27.453125 14.722656 C 27.367188 14.761719 27.3125 14.800781 27.289062 14.84375 C 27.265625 14.886719 27.261719 14.929688 27.277344 14.96875 C 27.300781 15.015625 27.332031 15.046875 27.371094 15.058594 C 27.410156 15.070312 27.511719 15.070312 27.667969 15.054688 C 27.816406 15.042969 27.929688 15.058594 28.015625 15.105469 C 28.101562 15.148438 28.167969 15.21875 28.214844 15.316406 Z M 29.542969 14.050781 L 29.222656 14.136719 L 29.558594 15.390625 L 29.226562 15.480469 L 28.886719 14.226562 L 28.554688 14.3125 L 28.496094 14.09375 L 29.484375 13.832031 Z M 30.441406 13.710938 L 30.789062 13.6875 L 30.894531 15.210938 L 30.550781 15.234375 Z M 32.640625 13.980469 L 32.304688 13.957031 L 32.214844 15.25 L 31.867188 15.226562 L 31.960938 13.933594 L 31.617188 13.910156 L 31.632812 13.683594 L 32.65625 13.753906 Z M 34.320312 15.285156 C 34.277344 15.421875 34.203125 15.515625 34.09375 15.570312 C 33.984375 15.621094 33.839844 15.621094 33.664062 15.566406 C 33.46875 15.507812 33.347656 15.425781 33.289062 15.316406 C 33.230469 15.207031 33.226562 15.070312 33.277344 14.90625 L 33.578125 13.925781 L 33.910156 14.027344 L 33.59375 15.046875 C 33.570312 15.125 33.570312 15.191406 33.59375 15.242188 C 33.617188 15.292969 33.675781 15.332031 33.761719 15.359375 C 33.847656 15.382812 33.914062 15.382812 33.964844 15.359375 C 34.015625 15.335938 34.054688 15.28125 34.082031 15.1875 L 34.394531 14.175781 L 34.640625 14.25 Z M 36.25 15.191406 L 35.953125 15.039062 L 35.359375 16.195312 L 35.050781 16.039062 L 35.644531 14.882812 L 35.339844 14.730469 L 35.445312 14.527344 L 36.355469 14.988281 Z M 37.101562 15.460938 L 37.382812 15.664062 L 36.476562 16.898438 L 36.199219 16.695312 Z M 38.449219 17.691406 C 38.277344 17.863281 38.105469 17.953125 37.933594 17.960938 C 37.761719 17.96875 37.609375 17.90625 37.476562 17.773438 C 37.34375 17.640625 37.28125 17.492188 37.289062 17.320312 C 37.296875 17.148438 37.386719 16.980469 37.554688 16.8125 L 37.617188 16.75 C 37.773438 16.59375 37.941406 16.503906 38.117188 16.480469 C 38.292969 16.460938 38.453125 16.523438 38.601562 16.667969 C 38.746094 16.8125 38.804688 16.96875 38.777344 17.144531 C 38.753906 17.316406 38.664062 17.480469 38.507812 17.632812 Z M 38.21875 17.433594 L 38.246094 17.40625 C 38.378906 17.269531 38.46875 17.160156 38.511719 17.074219 C 38.550781 16.988281 38.53125 16.898438 38.441406 16.8125 C 38.363281 16.734375 38.28125 16.710938 38.195312 16.742188 C 38.113281 16.773438 37.996094 16.863281 37.847656 17.007812 L 37.820312 17.035156 C 37.671875 17.183594 37.582031 17.296875 37.550781 17.375 C 37.515625 17.453125 37.542969 17.535156 37.628906 17.621094 C 37.699219 17.691406 37.78125 17.710938 37.871094 17.683594 C 37.964844 17.652344 38.078125 17.570312 38.21875 17.433594 Z M 39.402344 19.019531 L 40.140625 18.488281 L 40.285156 18.6875 L 39.039062 19.585938 L 38.953125 19.464844 L 39.28125 18.285156 L 38.5 18.847656 L 38.355469 18.648438 L 39.601562 17.753906 L 39.707031 17.902344 Z M 39.402344 19.019531 "/>
<path style="fill-rule:evenodd;fill:rgb(93.333334%,81.568629%,0%);fill-opacity:1;stroke-width:1.633;stroke-linecap:butt;stroke-linejoin:miter;stroke:rgb(93.333334%,81.568629%,0%);stroke-opacity:1;stroke-miterlimit:3.864;" d="M 1673.1 1398.991935 C 1673.1 1398.991935 1677.06 1394.637097 1678.32 1397.721774 C 1679.58 1400.987903 1679.76 1403.528226 1678.68 1404.798387 C 1677.6 1405.887097 1677.78 1406.612903 1676.16 1408.608871 C 1674.72 1410.604839 1675.44 1411.693548 1673.82 1412.600806 C 1672.38 1413.689516 1671.66 1413.145161 1670.04 1413.145161 L 1669.5 1418.044355 L 1668.42 1422.03629 L 1668.96 1426.028226 L 1671.84 1432.197581 L 1669.68 1427.479839 L 1672.56 1432.560484 C 1674.9 1438.548387 1696.32 1444.53629 1704.06 1447.983871 C 1720.08 1455.241935 1717.56 1489.53629 1719.36 1492.983871 C 1720.98 1496.25 1727.82 1541.794355 1727.82 1549.415323 C 1727.82 1557.03629 1719.36 1598.225806 1718.46 1606.754032 C 1718.1 1610.927419 1717.02 1621.08871 1715.94 1631.25 C 1715.76 1633.245968 1712.88 1630.705645 1711.98 1632.520161 C 1710.72 1634.879032 1710.9 1641.774194 1711.08 1644.133065 C 1710.72 1649.21371 1709.28 1653.024194 1708.92 1655.564516 C 1708.2 1665 1699.56 1665.725806 1699.56 1665.725806 C 1699.56 1665.725806 1699.2 1697.66129 1697.58 1705.46371 C 1695.78 1713.084677 1694.7 1714.53629 1697.22 1735.766129 C 1699.74 1756.995968 1693.8 1783.306452 1693.8 1783.306452 C 1693.8 1783.306452 1684.98 1821.955645 1683.36 1827.943548 C 1681.74 1833.75 1684.44 1839.375 1685.34 1843.548387 C 1686.24 1847.721774 1686.24 1854.616935 1686.24 1854.616935 L 1611.54 1854.616935 C 1609.56 1854.616935 1612.8 1847.903226 1615.32 1843.185484 C 1616.58 1840.826613 1620 1837.560484 1625.04 1836.653226 C 1630.26 1835.927419 1630.62 1830.302419 1633.68 1823.58871 C 1636.56 1816.875 1635.3 1802.358871 1632.78 1793.467742 C 1630.26 1784.576613 1626.84 1762.802419 1626.84 1755.181452 C 1626.84 1747.560484 1622.52 1730.141129 1618.38 1718.346774 C 1614.06 1706.370968 1611.9 1680.604839 1611.9 1678.064516 C 1611.9 1676.794355 1611.54 1675.524194 1610.64 1673.165323 C 1609.38 1670.262097 1609.2 1666.08871 1606.86 1659.375 C 1602.54 1647.399194 1603.08 1633.064516 1602.54 1620.725806 C 1602.18 1608.387097 1597.5 1594.778226 1595.34 1591.693548 L 1594.08 1586.431452 L 1580.94 1590.604839 L 1568.34 1600.403226 C 1565.46 1602.943548 1562.4 1603.306452 1557.36 1603.850806 C 1547.46 1604.758065 1537.56 1593.145161 1535.22 1576.270161 C 1532.7 1557.762097 1536.3 1549.778226 1557 1549.778226 L 1566.18 1549.778226 L 1574.1 1550.141129 L 1578.06 1550.141129 C 1578.06 1550.141129 1580.4 1554.677419 1576.8 1556.310484 C 1573.02 1557.762097 1572.12 1558.125 1572.12 1558.125 L 1576.62 1563.387097 C 1576.62 1563.387097 1579.14 1561.572581 1586.88 1557.399194 L 1589.76 1550.685484 C 1589.94 1546.512097 1590.3 1545.604839 1589.4 1540.887097 C 1588.5 1536.169355 1586.88 1509.314516 1586.88 1502.96371 C 1586.88 1496.612903 1587.06 1489.173387 1587.78 1481.733871 C 1588.32 1475.020161 1588.32 1460.141129 1591.56 1453.790323 C 1595.52 1445.987903 1617.3 1442.540323 1617.3 1442.540323 C 1617.3 1442.540323 1626.84 1441.451613 1628.1 1438.91129 C 1628.46 1438.004032 1630.98 1434.012097 1631.88 1432.379032 C 1625.76 1430.201613 1623.78 1422.762097 1622.88 1420.947581 C 1621.98 1419.133065 1620.36 1410.423387 1620.18 1409.516129 C 1619.82 1408.245968 1618.02 1400.443548 1616.94 1397.177419 C 1615.86 1394.092742 1616.76 1388.467742 1616.76 1388.467742 L 1609.92 1387.741935 L 1601.46 1387.016129 C 1601.46 1387.016129 1596.78 1386.290323 1595.7 1385.927419 C 1594.44 1385.383065 1590.3 1384.657258 1590.3 1384.657258 C 1590.3 1384.657258 1583.82 1378.850806 1590.3 1374.314516 C 1596.96 1369.778226 1604.7 1365.604839 1605.96 1364.879032 C 1607.22 1363.971774 1607.76 1362.883065 1607.76 1362.883065 L 1607.58 1361.068548 C 1605.96 1358.891129 1604.52 1355.625 1602.72 1348.91129 C 1600.74 1342.016129 1618.74 1339.112903 1618.74 1339.112903 C 1623.96 1338.75 1641.42 1340.927419 1639.62 1340.564516 C 1643.22 1341.471774 1645.56 1341.290323 1652.58 1341.290323 C 1659.6 1341.108871 1668.6 1343.649194 1673.64 1344.737903 C 1678.68 1345.826613 1683.9 1350.544355 1686.42 1355.443548 C 1689.12 1360.16129 1699.56 1366.330645 1702.8 1369.415323 C 1707.48 1373.951613 1713.06 1383.568548 1715.22 1387.016129 C 1719 1393.185484 1714.86 1391.733871 1713.6 1392.459677 C 1707.84 1395.907258 1674.9 1388.649194 1677.78 1389.012097 C 1680.12 1389.193548 1679.58 1388.467742 1677.06 1387.016129 L 1677.06 1389.375 L 1675.08 1396.633065 Z M 1673.1 1398.991935 " transform="matrix(0.0217014,0,0,0.0215278,0,0)"/>
<path style="fill:none;stroke-width:4.083;stroke-linecap:butt;stroke-linejoin:miter;stroke:rgb(0%,17.647059%,33.725491%);stroke-opacity:1;stroke-miterlimit:3.864;" d="M 1638.18 1490.806452 C 1639.26 1473.387097 1640.7 1459.052419 1643.4 1447.983871 C 1644.12 1444.354839 1643.4 1442.540323 1643.4 1442.540323 C 1638.9 1442.540323 1635.84 1442.177419 1631.16 1436.733871 " transform="matrix(0.0217014,0,0,0.0215278,0,0)"/>
<path style="fill:none;stroke-width:4.9;stroke-linecap:butt;stroke-linejoin:miter;stroke:rgb(0%,17.647059%,33.725491%);stroke-opacity:1;stroke-miterlimit:3.864;" d="M 1609.56 1680.423387 L 1610.64 1673.165323 C 1610.64 1673.165323 1612.8 1668.991935 1611.9 1661.008065 C 1611.18 1653.024194 1611.9 1630.524194 1614.06 1618.91129 C 1616.04 1608.205645 1633.14 1574.455645 1634.76 1565.564516 C 1636.38 1557.762097 1636.56 1531.995968 1636.56 1529.818548 C 1636.56 1529.092742 1635.66 1526.733871 1636.2 1517.116935 " transform="matrix(0.0217014,0,0,0.0215278,0,0)"/>
<path style="fill:none;stroke-width:5.421;stroke-linecap:butt;stroke-linejoin:round;stroke:rgb(0%,17.647059%,33.725491%);stroke-opacity:1;stroke-miterlimit:3.864;" d="M 1631.88 1432.379032 L 1628.1 1438.91129 C 1628.1 1438.91129 1595.52 1445.987903 1591.56 1453.790323 C 1588.32 1460.141129 1586.88 1496.612903 1586.88 1502.96371 C 1586.88 1509.314516 1588.5 1536.169355 1589.4 1540.887097 C 1590.3 1545.604839 1589.94 1546.512097 1589.76 1550.685484 " transform="matrix(0.0217014,0,0,0.0215278,0,0)"/>
<path style="fill:none;stroke-width:4.9;stroke-linecap:butt;stroke-linejoin:miter;stroke:rgb(0%,17.647059%,33.725491%);stroke-opacity:1;stroke-miterlimit:3.864;" d="M 1650.6 1538.709677 C 1650.96 1542.157258 1650.06 1563.931452 1659.06 1577.721774 C 1662.84 1583.709677 1679.58 1616.189516 1683.18 1620.181452 C 1685.52 1622.721774 1691.1 1623.629032 1692.54 1627.076613 C 1699.92 1644.495968 1692.18 1661.552419 1702.44 1664.092742 L 1705.5 1674.072581 " transform="matrix(0.0217014,0,0,0.0215278,0,0)"/>
<path style="fill:none;stroke-width:4.083;stroke-linecap:butt;stroke-linejoin:miter;stroke:rgb(0%,17.647059%,33.725491%);stroke-opacity:1;stroke-miterlimit:3.864;" d="M 1673.82 1432.016129 C 1672.02 1434.556452 1660.14 1441.633065 1653.12 1441.633065 C 1650.6 1441.633065 1652.04 1446.895161 1650.96 1453.064516 C 1649.88 1459.415323 1649.7 1496.25 1650.6 1500.967742 C 1650.96 1502.782258 1650.24 1503.870968 1650.06 1509.858871 " transform="matrix(0.0217014,0,0,0.0215278,0,0)"/>
<path style="fill:none;stroke-width:4.8999;stroke-linecap:round;stroke-linejoin:round;stroke:rgb(0%,17.647059%,33.725491%);stroke-opacity:1;stroke-miterlimit:3.8637;" d="M 1684.8 1477.560484 L 1689.12 1494.616935 L 1695.06 1526.008065 L 1697.22 1545.060484 L 1697.76 1562.116935 L 1697.22 1576.451613 L 1695.6 1586.794355 L 1693.44 1596.048387 L 1689.66 1626.532258 C 1701.9 1623.629032 1710 1626.532258 1715.94 1631.25 " transform="matrix(0.0217014,0,0,0.0215278,0,0)"/>
<path style="fill:none;stroke-width:4.9;stroke-linecap:butt;stroke-linejoin:miter;stroke:rgb(0%,17.647059%,33.725491%);stroke-opacity:1;stroke-miterlimit:3.864;" d="M 1603.62 1446.350806 L 1604.34 1449.254032 C 1603.26 1442.903226 1623.78 1533.629032 1693.8 1576.08871 L 1697.22 1578.266129 " transform="matrix(0.0217014,0,0,0.0215278,0,0)"/>
<path style="fill:none;stroke-width:4.9;stroke-linecap:butt;stroke-linejoin:miter;stroke:rgb(0%,17.647059%,33.725491%);stroke-opacity:1;stroke-miterlimit:3.864;" d="M 1617.3 1442.540323 C 1624.68 1465.947581 1646.64 1524.375 1697.04 1554.858871 L 1697.76 1559.21371 M 1627.92 1581.71371 C 1640.88 1584.435484 1649.16 1584.435484 1660.86 1581.169355 M 1648.08 1647.762097 C 1650.78 1665.362903 1653.84 1686.41129 1654.74 1689.858871 C 1656.54 1695.846774 1658.16 1725.604839 1658.16 1725.604839 L 1659.06 1754.455645 L 1659.96 1790.927419 L 1659.96 1833.387097 C 1652.94 1838.28629 1649.34 1845.544355 1648.98 1855.16129 " transform="matrix(0.0217014,0,0,0.0215278,0,0)"/>
<path style="fill:none;stroke-width:4.517;stroke-linecap:butt;stroke-linejoin:round;stroke:rgb(0%,17.647059%,33.725491%);stroke-opacity:1;stroke-miterlimit:3.864;" d="M 1578.24 1557.03629 C 1573.92 1563.387097 1552.68 1551.048387 1551.6 1569.556452 C 1550.7 1583.709677 1553.4 1599.858871 1567.08 1601.491935 L 1577.16 1594.959677 L 1579.86 1592.237903 " transform="matrix(0.0217014,0,0,0.0215278,0,0)"/>
<path style=" stroke:none;fill-rule:evenodd;fill:rgb(93.333334%,81.568629%,0%);fill-opacity:1;" d="M 33.976562 33.355469 C 33.847656 31.371094 33.90625 29.632812 34.238281 28.316406 C 33.347656 29.605469 33.714844 33.355469 33.714844 33.355469 Z M 33.976562 33.355469 "/>
<path style="fill:none;stroke-width:5.421;stroke-linecap:butt;stroke-linejoin:round;stroke:rgb(0%,17.647059%,33.725491%);stroke-opacity:1;stroke-miterlimit:3.864;" d="M 1589.94 1549.415323 L 1586.88 1557.399194 C 1579.14 1561.572581 1576.8 1561.935484 1576.98 1561.935484 " transform="matrix(0.0217014,0,0,0.0215278,0,0)"/>
<path style="fill:none;stroke-width:4.517;stroke-linecap:butt;stroke-linejoin:round;stroke:rgb(0%,17.647059%,33.725491%);stroke-opacity:1;stroke-miterlimit:3.864;" d="M 1575.9 1559.939516 C 1575.9 1559.939516 1583.46 1579.899194 1577.16 1594.778226 " transform="matrix(0.0217014,0,0,0.0215278,0,0)"/>
<path style="fill:none;stroke-width:3.488;stroke-linecap:butt;stroke-linejoin:round;stroke:rgb(0%,17.647059%,33.725491%);stroke-opacity:1;stroke-miterlimit:3.864;" d="M 1565.82 1549.959677 L 1574.1 1550.141129 L 1578.06 1550.141129 C 1578.06 1550.141129 1580.4 1554.677419 1576.8 1556.310484 C 1573.02 1557.762097 1570.68 1557.762097 1570.68 1557.762097 " transform="matrix(0.0217014,0,0,0.0215278,0,0)"/>
<path style="fill:none;stroke-width:3.488;stroke-linecap:butt;stroke-linejoin:miter;stroke:rgb(0%,17.647059%,33.725491%);stroke-opacity:1;stroke-miterlimit:3.864;" d="M 1568.34 1600.403226 C 1565.46 1602.943548 1562.4 1603.306452 1557.36 1603.850806 C 1547.46 1604.758065 1537.56 1593.145161 1535.22 1576.270161 C 1532.7 1557.762097 1535.04 1549.959677 1553.58 1549.415323 " transform="matrix(0.0217014,0,0,0.0215278,0,0)"/>
<path style="fill:none;stroke-width:3.488;stroke-linecap:butt;stroke-linejoin:miter;stroke:rgb(0%,17.647059%,33.725491%);stroke-opacity:1;stroke-miterlimit:3.864;" d="M 1571.4 1557.580645 L 1558.26 1557.580645 C 1558.26 1557.580645 1551.24 1559.395161 1550.88 1565.201613 C 1550.52 1574.274194 1550.34 1587.157258 1554.12 1592.237903 L 1558.08 1596.229839 " transform="matrix(0.0217014,0,0,0.0215278,0,0)"/>
<path style="fill:none;stroke-width:4.083;stroke-linecap:butt;stroke-linejoin:miter;stroke:rgb(0%,17.647059%,33.725491%);stroke-opacity:1;stroke-miterlimit:3.864;" d="M 1616.76 1380.120968 L 1618.02 1387.016129 L 1616.4 1389.919355 L 1609.2 1389.556452 L 1600.74 1389.193548 C 1600.74 1389.193548 1596.06 1388.830645 1594.8 1388.467742 C 1593.72 1387.923387 1589.58 1387.379032 1589.58 1387.379032 C 1589.58 1387.379032 1583.46 1379.395161 1589.94 1374.495968 C 1596.24 1369.596774 1602.9 1366.149194 1604.16 1365.423387 C 1605.24 1364.516129 1605.96 1364.879032 1605.96 1364.879032 " transform="matrix(0.0217014,0,0,0.0215278,0,0)"/>
<path style="fill:none;stroke-width:1.633;stroke-linecap:butt;stroke-linejoin:miter;stroke:rgb(0%,17.647059%,33.725491%);stroke-opacity:1;stroke-miterlimit:3.864;" d="M 1616.76 1381.754032 L 1616.76 1389.375 " transform="matrix(0.0217014,0,0,0.0215278,0,0)"/>
<path style="fill:none;stroke-width:3.267;stroke-linecap:butt;stroke-linejoin:miter;stroke:rgb(0%,17.647059%,33.725491%);stroke-opacity:1;stroke-miterlimit:3.864;" d="M 1617.84 1387.379032 C 1617.84 1387.379032 1615.86 1394.092742 1616.94 1397.177419 C 1618.02 1400.443548 1619.82 1408.245968 1620.18 1409.516129 C 1620.36 1410.423387 1621.98 1419.133065 1622.88 1420.947581 C 1623.96 1422.762097 1625.94 1430.745968 1632.6 1432.560484 C 1639.26 1434.375 1646.82 1433.104839 1650.96 1430.383065 " transform="matrix(0.0217014,0,0,0.0215278,0,0)"/>
<path style="fill:none;stroke-width:2.45;stroke-linecap:butt;stroke-linejoin:miter;stroke:rgb(0%,17.647059%,33.725491%);stroke-opacity:1;stroke-miterlimit:3.864;" d="M 1630.8 1417.137097 C 1630.8 1417.137097 1634.04 1415.866935 1635.12 1416.41129 C 1636.2 1416.774194 1639.26 1417.137097 1639.26 1417.137097 C 1639.26 1417.137097 1643.22 1416.41129 1644.48 1416.774194 C 1645.92 1417.137097 1647.9 1417.318548 1648.62 1417.137097 M 1633.5 1421.310484 C 1633.5 1421.310484 1641.24 1422.762097 1644.48 1421.491935 M 1644.3 1388.104839 C 1644.3 1388.104839 1651.32 1385.201613 1657.44 1389.737903 " transform="matrix(0.0217014,0,0,0.0215278,0,0)"/>
<path style="fill:none;stroke-width:1.96;stroke-linecap:butt;stroke-linejoin:miter;stroke:rgb(0%,17.647059%,33.725491%);stroke-opacity:1;stroke-miterlimit:3.864;" d="M 1635.48 1387.741935 C 1636.02 1389.193548 1634.94 1393.366935 1634.04 1395 C 1633.14 1396.814516 1632.78 1399.717742 1632.24 1401.169355 C 1631.7 1402.439516 1630.98 1404.616935 1630.98 1405.887097 C 1630.98 1407.157258 1630.98 1406.975806 1632.96 1408.064516 C 1634.76 1408.971774 1636.2 1408.064516 1637.64 1407.701613 C 1639.08 1407.33871 1640.34 1406.794355 1641.6 1407.157258 C 1643.04 1407.520161 1644.84 1406.612903 1644.84 1405.16129 C 1644.84 1403.891129 1644.3 1401.895161 1643.58 1401.169355 C 1642.68 1400.443548 1640.7 1399.173387 1640.7 1399.173387 " transform="matrix(0.0217014,0,0,0.0215278,0,0)"/>
<path style="fill:none;stroke-width:2.45;stroke-linecap:butt;stroke-linejoin:miter;stroke:rgb(0%,17.647059%,33.725491%);stroke-opacity:1;stroke-miterlimit:3.864;" d="M 1622.34 1388.467742 C 1623.42 1388.28629 1630.08 1384.657258 1635.66 1388.467742 " transform="matrix(0.0217014,0,0,0.0215278,0,0)"/>
<path style="fill-rule:nonzero;fill:rgb(0%,17.647059%,33.725491%);fill-opacity:1;stroke-width:1.633;stroke-linecap:butt;stroke-linejoin:miter;stroke:rgb(0%,17.647059%,33.725491%);stroke-opacity:1;stroke-miterlimit:3.864;" d="M -1647.735573 -1364.369699 C -1647.745102 -1364.91397 -1649.734328 -1365.423582 -1652.257118 -1365.560893 C -1654.776732 -1365.516781 -1656.926872 -1364.934699 -1656.917343 -1364.390428 C -1656.904638 -1363.664732 -1654.915412 -1363.155121 -1652.395799 -1363.199233 C -1649.876185 -1363.243345 -1647.722868 -1363.644003 -1647.735573 -1364.369699 Z M -1647.735573 -1364.369699 " transform="matrix(-0.0216981,-0.000376841,0.00037988,-0.0215245,0,0)"/>
<path style="fill:none;stroke-width:3.267;stroke-linecap:butt;stroke-linejoin:miter;stroke:rgb(0%,17.647059%,33.725491%);stroke-opacity:1;stroke-miterlimit:3.864;" d="M 1631.88 1432.379032 C 1632.24 1432.560484 1632.42 1432.560484 1632.6 1432.560484 C 1639.26 1434.375 1646.82 1433.104839 1650.96 1430.383065 " transform="matrix(0.0217014,0,0,0.0215278,0,0)"/>
<path style="fill:none;stroke-width:3.265;stroke-linecap:butt;stroke-linejoin:miter;stroke:rgb(0%,17.647059%,33.725491%);stroke-opacity:1;stroke-miterlimit:3.864;" d="M 1615.5 1339.112903 C 1615.5 1339.112903 1598.04 1344.375 1600.38 1351.08871 C 1602.54 1357.802419 1604.16 1360.887097 1605.78 1363.245968 C 1607.4 1365.423387 1610.46 1374.314516 1611.54 1376.673387 C 1612.44 1379.21371 1611.9 1383.568548 1616.04 1381.572581 C 1639.08 1370.322581 1688.58 1389.919355 1677.96 1389.012097 C 1675.08 1388.830645 1710 1396.08871 1715.76 1392.278226 C 1717.02 1391.552419 1719.36 1389.919355 1715.4 1383.931452 C 1713.06 1380.483871 1706.04 1371.592742 1701.18 1367.237903 C 1697.94 1364.334677 1688.58 1358.165323 1685.7 1353.447581 C 1682.82 1348.729839 1676.16 1344.737903 1670.94 1344.012097 C 1665.9 1343.104839 1656.72 1340.927419 1649.88 1341.290323 C 1642.86 1341.653226 1640.88 1340.927419 1637.1 1340.383065 C 1638.9 1340.745968 1620.72 1338.568548 1615.5 1339.112903 Z M 1615.5 1339.112903 " transform="matrix(0.0217014,0,0,0.0215278,0,0)"/>
<path style="fill:none;stroke-width:4.9;stroke-linecap:butt;stroke-linejoin:miter;stroke:rgb(0%,17.647059%,33.725491%);stroke-opacity:1;stroke-miterlimit:3.864;" d="M 1657.44 1705.826613 C 1657.44 1705.826613 1675.8 1717.076613 1697.58 1705.46371 C 1717.74 1694.576613 1701.36 1703.28629 1701.36 1703.28629 M 1614.24 1708.366935 C 1614.24 1708.366935 1634.4 1717.983871 1655.28 1707.096774 " transform="matrix(0.0217014,0,0,0.0215278,0,0)"/>
<path style="fill-rule:nonzero;fill:rgb(0%,17.647059%,33.725491%);fill-opacity:1;stroke-width:1.633;stroke-linecap:butt;stroke-linejoin:miter;stroke:rgb(0%,17.647059%,33.725491%);stroke-opacity:1;stroke-miterlimit:3.864;" d="M -1782.257658 -1213.421256 C -1782.314597 -1213.962625 -1784.557646 -1214.638975 -1787.082802 -1214.555845 C -1789.80595 -1214.634343 -1791.916143 -1214.047499 -1792.019238 -1213.306846 C -1791.962299 -1212.765478 -1789.73823 -1212.269584 -1787.194094 -1212.172258 C -1784.489925 -1212.274216 -1782.360753 -1212.680604 -1782.257658 -1213.421256 Z M -1782.257658 -1213.421256 " transform="matrix(-0.0215823,-0.00225176,0.00226992,-0.0214097,0,0)"/>
<path style="fill:none;stroke-width:4.9;stroke-linecap:butt;stroke-linejoin:miter;stroke:rgb(0%,17.647059%,33.725491%);stroke-opacity:1;stroke-miterlimit:3.864;" d="M 1623.78 1593.326613 C 1636.02 1597.862903 1655.1 1596.592742 1666.98 1592.96371 " transform="matrix(0.0217014,0,0,0.0215278,0,0)"/>
<path style="fill-rule:evenodd;fill:rgb(93.333334%,81.568629%,0%);fill-opacity:1;stroke-width:0.68;stroke-linecap:butt;stroke-linejoin:miter;stroke:rgb(0%,17.647059%,33.725491%);stroke-opacity:1;stroke-miterlimit:3.864;" d="M 1779.84 1834.112903 L 1948.32 1834.112903 L 1948.32 1856.975806 L 1779.84 1856.975806 Z M 1779.84 1834.112903 " transform="matrix(0.0217014,0,0,0.0215278,0,0)"/>
<path style=" stroke:none;fill-rule:nonzero;fill:rgb(70.980394%,0%,15.294118%);fill-opacity:1;" d="M 0 62 L 150 62 L 150 93 L 0 93 Z M 0 62 "/>
</g>
</svg>
