<?xml version="1.0" encoding="UTF-8"?>
<svg xmlns="http://www.w3.org/2000/svg" xmlns:xlink="http://www.w3.org/1999/xlink" width="150px" height="150px" viewBox="0 0 150 65" version="1.1">
<g id="surface1">
<path style="fill-rule:nonzero;fill:rgb(90.588236%,9.411765%,0%);fill-opacity:1;stroke-width:10;stroke-linecap:butt;stroke-linejoin:miter;stroke:rgb(95.294118%,68.235296%,29.019609%);stroke-opacity:1;stroke-miterlimit:4;" d="M 21.311299 519.096059 C 21.311299 519.096059 716.387501 542.899394 946.295264 518.090284 C 970.483755 515.508796 1017.890521 502.601353 1040.305859 493.113545 C 1057.903572 485.603761 1089.686513 463.510243 1104.306666 451.105688 C 1127.090017 431.794814 1165.196091 385.093341 1184.299312 362.094626 C 1197.213223 346.605696 1218.491066 311.805891 1233.311953 298.093829 C 1240.003099 291.891552 1264.091223 278.615325 1264.091223 278.615325 C 1264.091223 278.615325 1240.203833 265.707883 1233.613055 259.606183 C 1218.792167 245.994699 1197.514324 211.094316 1184.600413 195.605386 C 1165.497193 172.606671 1127.391119 125.905198 1104.607768 106.594324 C 1089.987615 94.189769 1058.204673 72.096251 1040.60696 64.586467 C 1018.191623 55.098659 970.784856 42.191217 946.596365 39.609728 C 716.688603 14.800619 21.6124 38.603953 21.6124 38.603953 C 21.6124 38.603953 37.704605 89.294999 39.009379 106.896056 C 42.087306 149.809111 22.515705 234.897651 20.809463 277.810706 C 19.002853 320.086769 36.399832 404.203061 34.994691 446.51265 C 34.492855 464.985379 21.311299 519.096059 21.311299 519.096059 Z M 21.311299 519.096059 " transform="matrix(0.116759,0,0,0.116515,0,0.00988593)"/>
<path style=" stroke:none;fill-rule:nonzero;fill:rgb(95.686275%,68.235296%,29.019609%);fill-opacity:1;" d="M 98.554688 49.074219 C 104.757812 49.0625 112.4375 49.539062 118.382812 47.734375 C 119.539062 46.871094 119.804688 44.703125 119.699219 43.480469 C 119.210938 39.894531 116.875 36.269531 112.71875 35.070312 C 110.324219 34.511719 107.441406 33.542969 109.929688 31.246094 C 123.15625 27.878906 122.957031 36.316406 123.34375 44.84375 C 122.316406 61.25 77.632812 48.292969 98.554688 49.074219 Z M 113.09375 33.238281 C 115.636719 33.484375 118.347656 34.695312 119.480469 36.757812 C 120.761719 34.335938 115.019531 31.386719 113.09375 33.238281 Z M 113.09375 33.238281 "/>
<path style=" stroke:none;fill-rule:nonzero;fill:rgb(95.686275%,68.235296%,29.019609%);fill-opacity:1;" d="M 120.109375 11.988281 C 128.9375 13.117188 124.804688 14.375 119.621094 16.753906 C 119.09375 18.523438 117.355469 18.839844 115.707031 19.492188 C 113.875 20.632812 110.59375 24.304688 109.273438 25.910156 C 107.921875 29.195312 107.371094 35.722656 108.046875 39.148438 C 108.152344 43.121094 107.945312 46.558594 103.273438 48.058594 C 101.882812 48.503906 99.058594 48.632812 97.867188 47.839844 C 97.003906 47.269531 95.148438 45.195312 95.917969 44.273438 C 98.964844 45.730469 101.5 46.382812 102.898438 42.933594 C 104.03125 38.355469 98.695312 30.046875 95.332031 26.515625 C 93.851562 24.546875 90.898438 22.671875 89.027344 21.003906 C 86.75 18.605469 83.179688 15.109375 85.082031 11.847656 C 86.542969 10.113281 88.164062 10.71875 88.550781 12.699219 C 88.992188 13.492188 90.230469 14.980469 90.898438 15.667969 C 92.730469 18.28125 96.3125 21.996094 97.433594 23.417969 C 98.160156 24.351562 100.75 27.730469 102.035156 29.722656 C 103.578125 32.574219 104.964844 35.804688 105.011719 38.996094 C 105.117188 39.007812 104.417969 42.128906 105.023438 41.394531 C 105.875 36.652344 104.054688 31.492188 105.714844 26.796875 C 107.335938 22.089844 114.085938 12.652344 120.109375 11.988281 Z M 120.109375 11.988281 "/>
<path style=" stroke:none;fill-rule:nonzero;fill:rgb(95.686275%,68.235296%,29.019609%);fill-opacity:1;" d="M 92.085938 37.667969 C 92.4375 35.722656 89.132812 35.046875 87.476562 35.023438 C 82.464844 34.964844 80.003906 39.390625 82.445312 43.285156 C 83.609375 45.207031 85.140625 45.953125 87.5 46.054688 C 86.0625 47.105469 84.195312 48.769531 82.234375 48.679688 C 81.347656 48.632812 79.898438 48.492188 79.558594 47.699219 C 78.894531 46.125 79.933594 36.421875 79.980469 34.554688 C 80.480469 28.964844 81.242188 17.660156 81.507812 12.046875 C 81.742188 10.414062 80.703125 10.460938 79.128906 10.777344 C 77.914062 11.5 77.269531 12.289062 77.339844 13.59375 C 77.386719 21.832031 76.898438 33.089844 76.746094 41.324219 C 76.886719 44.925781 75.824219 53.375 82.257812 52.382812 C 85.769531 51.847656 88.679688 49.238281 91.457031 47.339844 C 93.453125 45.964844 99.269531 43.445312 96.070312 40.835938 C 92.730469 40.207031 92.007812 44.796875 87.417969 43.457031 C 85.1875 42.539062 84.613281 39.414062 87.101562 38.484375 C 88.609375 37.808594 91.128906 39.171875 92.085938 37.667969 Z M 92.085938 37.667969 "/>
<path style=" stroke:none;fill-rule:nonzero;fill:rgb(95.686275%,68.235296%,29.019609%);fill-opacity:1;" d="M 82.09375 32.726562 L 82.082031 34.347656 L 89.925781 34.054688 L 89.914062 33.054688 Z M 82.09375 32.726562 "/>
<path style=" stroke:none;fill-rule:nonzero;fill:rgb(95.686275%,68.235296%,29.019609%);fill-opacity:1;" d="M 87.003906 29.226562 C 86.398438 29.226562 85.902344 29.628906 85.902344 30.132812 C 85.898438 30.632812 86.390625 31.042969 86.996094 31.046875 C 87.601562 31.046875 88.09375 30.644531 88.097656 30.140625 C 88.097656 29.640625 87.609375 29.230469 87.003906 29.226562 Z M 87.003906 29.226562 "/>
<path style=" stroke:none;fill-rule:nonzero;fill:rgb(95.686275%,68.235296%,29.019609%);fill-opacity:1;" d="M 75.25 10.972656 C 73.628906 21.167969 76.171875 38.273438 73.652344 48.269531 C 73.183594 50.097656 70.824219 51.136719 68.664062 51.03125 C 65.476562 50.648438 64.613281 48.027344 64.976562 45.613281 C 50.429688 46.3125 33.160156 50.601562 18.949219 46.777344 C 15.714844 45.355469 13.789062 41.957031 15.585938 39.03125 C 16.03125 41.746094 20.398438 43.085938 23.023438 43.84375 C 33.882812 44.726562 46.644531 43.84375 57.527344 43.820312 C 57.527344 43.820312 66.550781 43.621094 66.550781 43.621094 C 66.484375 44.53125 66.34375 46.011719 66.691406 46.882812 C 67.242188 48.234375 70.230469 48.457031 70.488281 46.964844 C 72.191406 37.363281 69.660156 23.753906 70.824219 13.503906 C 71.234375 12.09375 73.488281 10.007812 75.25 10.972656 Z M 75.25 10.972656 "/>
<path style=" stroke:none;fill-rule:nonzero;fill:rgb(95.686275%,68.235296%,29.019609%);fill-opacity:1;" d="M 62.605469 47.40625 C 61.78125 47.402344 61.109375 47.949219 61.105469 48.632812 C 61.101562 49.316406 61.769531 49.871094 62.59375 49.875 C 63.421875 49.878906 64.09375 49.328125 64.09375 48.644531 C 64.097656 47.964844 63.433594 47.40625 62.605469 47.40625 Z M 62.605469 47.40625 "/>
<path style=" stroke:none;fill-rule:nonzero;fill:rgb(95.686275%,68.235296%,29.019609%);fill-opacity:1;" d="M 66.097656 10.648438 C 65.023438 10.71875 62.875 11.160156 62.222656 12.082031 C 61.285156 15.390625 61.390625 20.398438 61.648438 23.8125 C 61.988281 28.382812 61.113281 33.867188 61.53125 38.425781 C 61.648438 39.660156 61.472656 41 60.421875 41.921875 C 59.96875 42.210938 58.648438 43.261719 58.074219 43.386719 C 62.523438 43.972656 63.9375 41.347656 64.078125 38.039062 C 64.378906 30.957031 66.492188 17.523438 66.097656 10.648438 Z M 66.097656 10.648438 "/>
<path style=" stroke:none;fill-rule:nonzero;fill:rgb(95.686275%,68.235296%,29.019609%);fill-opacity:1;" d="M 68.992188 34.207031 C 70.417969 34.160156 69.75 35.558594 69.003906 36 C 68.746094 36.246094 67.066406 36.769531 67.441406 37.203125 C 68 37.714844 71.292969 38.085938 69.414062 39.007812 C 68.839844 39.285156 66.015625 40.71875 65.804688 39.847656 C 65.429688 39.125 66.878906 38.808594 67.394531 38.554688 C 68.246094 38.203125 65.757812 38.074219 65.421875 37.75 C 62.992188 37.109375 68.234375 34.648438 68.992188 34.207031 Z M 68.992188 34.207031 "/>
<path style=" stroke:none;fill-rule:nonzero;fill:rgb(95.686275%,68.235296%,29.019609%);fill-opacity:1;" d="M 68.117188 40.289062 C 68.640625 40.171875 69.648438 41.128906 69.601562 41.371094 C 69.601562 41.371094 69.320312 41.675781 69.203125 41.746094 C 67.40625 42.839844 63.363281 44.15625 63.527344 42.117188 C 63.25 41.523438 67.800781 40.476562 68.117188 40.289062 Z M 68.117188 40.289062 "/>
<path style=" stroke:none;fill-rule:nonzero;fill:rgb(95.686275%,68.235296%,29.019609%);fill-opacity:1;" d="M 68.839844 12.21875 C 69.714844 11.394531 71.386719 10.800781 72.671875 10.71875 C 73.746094 10.578125 67.847656 16.53125 68.035156 16.613281 C 63.738281 22.019531 57.433594 29.800781 53.148438 35.117188 C 51.792969 36.933594 48.023438 40.347656 53.777344 39.113281 C 55.167969 38.578125 56.03125 37.121094 55.972656 35.875 C 53.347656 29.8125 49.539062 20.9375 48.269531 14.574219 C 48.222656 14.015625 47.917969 12.359375 48.40625 11.859375 C 49.167969 11.347656 50.777344 10.519531 51.6875 11.136719 C 52.144531 12.070312 51.957031 13.734375 52.714844 14.527344 C 52.402344 15.402344 52.738281 16.53125 53.765625 16.929688 C 52.648438 23.289062 57.75 31.421875 58.765625 37.738281 C 58.484375 41.839844 52.648438 42.609375 48.886719 41.652344 C 47.53125 41.324219 46.972656 39.835938 47.777344 38.820312 C 48.582031 38.554688 67.636719 13.734375 68.839844 12.21875 Z M 68.839844 12.21875 "/>
<path style=" stroke:none;fill-rule:nonzero;fill:rgb(95.686275%,68.235296%,29.019609%);fill-opacity:1;" d="M 44.941406 11.148438 L 45.535156 16.265625 C 44.472656 17.476562 44.113281 22.125 43.9375 23.605469 C 44.078125 28.066406 43.960938 35.324219 43.292969 39.707031 C 42.875 41.300781 41.273438 43.074219 39.582031 43.703125 C 39.113281 43.878906 38.074219 43.984375 37.574219 43.996094 C 38.167969 43.785156 39.042969 43.097656 39.535156 42.699219 C 44.03125 39.078125 35.773438 7.746094 44.941406 11.148438 Z M 44.941406 11.148438 "/>
<path style=" stroke:none;fill-rule:nonzero;fill:rgb(95.686275%,68.235296%,29.019609%);fill-opacity:1;" d="M 37.992188 19.140625 C 37.46875 20.773438 37.933594 23.148438 38.015625 24.769531 C 37.363281 26.214844 37.140625 30.375 37.234375 31.980469 C 36.824219 34.578125 37.863281 39.03125 35.914062 41.164062 C 34.792969 42.386719 32.867188 43.203125 30.917969 42.210938 C 30.089844 41.792969 29.339844 40.953125 29.050781 40.230469 C 28.617188 41.921875 26.445312 43.226562 24.484375 43.214844 C 21.191406 42.957031 20.78125 39.730469 20.5625 37.480469 C 20.1875 38.132812 19.054688 38.691406 18.238281 38.785156 C 16.824219 39.171875 15.027344 39.007812 14.339844 37.703125 C 13.4375 35.023438 16.519531 33.25 19.160156 32.726562 C 19.753906 32.949219 19.617188 33.507812 19.136719 33.753906 C 18.203125 33.878906 16.882812 34.511719 16.648438 35.277344 C 16.429688 36.023438 17.339844 36.851562 18.332031 36.457031 C 20.09375 35.699219 20.058594 33.660156 19.5 32.261719 C 19.101562 30.140625 19.371094 26.808594 22.511719 26.539062 C 24.390625 26.226562 22.882812 27.449219 22.894531 28.277344 C 22.90625 28.753906 23.105469 29.476562 23.386719 29.894531 C 23.058594 30.757812 22.917969 33.238281 22.863281 34.160156 C 22.976562 35.964844 22.476562 38.75 24.015625 40.195312 C 25.324219 40.941406 26.691406 39.894531 27.191406 38.867188 C 27.53125 33.4375 24.835938 26.5625 26.5625 21.671875 C 26.867188 20.820312 29.691406 20.167969 30.289062 21.238281 C 29.574219 23.976562 29.984375 27.683594 29.878906 30.511719 C 30.160156 32.867188 28.6875 38.472656 31.292969 39.71875 C 33.066406 40.570312 34.304688 38.597656 34.128906 36.921875 C 33.894531 34.589844 33.953125 29.710938 33.882812 27.34375 C 33.441406 24.476562 32.960938 18.792969 37.992188 19.140625 Z M 37.992188 19.140625 "/>
<path style=" stroke:none;fill-rule:nonzero;fill:rgb(95.686275%,68.235296%,29.019609%);fill-opacity:1;" d="M 12.75 11.089844 C 14.523438 13.070312 16.078125 16.332031 17.582031 18.476562 C 18.621094 19.957031 20.339844 22.324219 20.339844 24.082031 C 19.859375 25.804688 17.480469 26.714844 15.597656 26.796875 C 14.488281 26.085938 6.246094 25.480469 8.382812 22.953125 C 9.550781 21.785156 12.375 20.972656 13.964844 20.328125 C 15.285156 20.179688 16.953125 21.015625 16.554688 22.042969 C 16.125 23.171875 14.222656 29.105469 13.871094 30.234375 C 10.554688 37.132812 10.15625 47.546875 20.597656 48.992188 C 30.625 50.378906 48.59375 48.898438 58.730469 48.09375 C 60.152344 49.238281 59.242188 49.9375 57.632812 50.285156 C 36.054688 52.207031 -4.34375 60.214844 11.722656 28.789062 C 11.828125 27.878906 16.042969 21.820312 13.730469 22.253906 C 7.167969 23.894531 18.425781 26.503906 18.355469 22.90625 C 18.296875 20.167969 13.496094 18.652344 11.617188 16.601562 C 10.730469 15.632812 9.585938 13.492188 10.753906 12.382812 C 11.195312 11.8125 12.226562 11.589844 12.75 11.089844 Z M 12.75 11.089844 "/>
<path style=" stroke:none;fill-rule:nonzero;fill:rgb(95.686275%,68.235296%,29.019609%);fill-opacity:1;" d="M 32.15625 12.175781 C 36.6875 12.769531 31.417969 21.097656 28.945312 16.613281 C 27.613281 17.835938 26.128906 19.492188 24.390625 17.917969 C 24.027344 16.949219 23.527344 15.554688 23.375 14.515625 C 21.878906 14.667969 19.101562 17.917969 18.179688 15.832031 C 29.375 10.449219 21.273438 16.683594 26.703125 17.007812 C 27.019531 16.183594 28.910156 15.039062 27.777344 14.269531 C 28.394531 14.050781 29.191406 14.074219 29.550781 14.773438 C 29.738281 17.625 33.335938 17.066406 32.15625 12.175781 Z M 32.15625 12.175781 "/>
</g>
</svg>
