<?xml version="1.0" encoding="UTF-8"?>
<svg xmlns="http://www.w3.org/2000/svg" xmlns:xlink="http://www.w3.org/1999/xlink" width="150px" height="150px" viewBox="0 0 150 80" version="1.1">
<g id="surface1">
<rect x="0" y="0" width="150" height="80" style="fill:rgb(77.64706%,12.941177%,22.352941%);fill-opacity:1;stroke:none;"/>
<path style=" stroke:none;fill-rule:evenodd;fill:rgb(0%,16.078432%,48.235294%);fill-opacity:1;" d="M 3.660156 3.636719 L 146.339844 3.636719 L 146.339844 76.363281 L 3.660156 76.363281 Z M 3.660156 3.636719 "/>
<path style=" stroke:none;fill-rule:evenodd;fill:rgb(57.254905%,85.882354%,98.823529%);fill-opacity:1;" d="M 75.039062 19.664062 C 75.039062 19.664062 62.511719 29.574219 62.511719 39.867188 C 62.511719 50.164062 75.039062 60.335938 75.039062 60.335938 C 75.039062 60.335938 87.488281 50.902344 87.488281 39.867188 C 87.488281 28.832031 75.039062 19.664062 75.039062 19.664062 Z M 75.039062 19.664062 "/>
<path style=" stroke:none;fill-rule:evenodd;fill:rgb(0%,54.901963%,90.588236%);fill-opacity:1;" d="M 63.898438 46.152344 C 67.15625 53.933594 75.039062 60.335938 75.039062 60.335938 C 75.039062 60.335938 83.0625 54.257812 86.226562 46.152344 "/>
<path style=" stroke:none;fill-rule:evenodd;fill:rgb(61.176473%,51.764709%,19.215687%);fill-opacity:1;" d="M 86.269531 43.90625 C 84.339844 45.277344 73.46875 44.617188 73.46875 44.617188 L 72.863281 46.15625 L 85.804688 46.195312 C 85.859375 45.984375 85.988281 45.734375 86.03125 45.523438 Z M 86.269531 43.90625 "/>
<path style=" stroke:none;fill-rule:evenodd;fill:rgb(100%,87.058824%,32.156864%);fill-opacity:1;" d="M 66.824219 50.269531 C 67.375 50.289062 67.921875 50.402344 68.414062 50.664062 C 69.292969 51.125 69.804688 51.121094 70.753906 51.136719 C 71.746094 51.152344 72.523438 51.878906 73.597656 51.90625 C 75.574219 51.960938 76.40625 52.9375 74.867188 52.9375 C 74.140625 52.9375 72.585938 52.453125 71.832031 52.554688 C 70.691406 52.667969 70.03125 52.757812 69.183594 53.425781 C 68.375 52.460938 67.570312 51.40625 66.824219 50.269531 Z M 70.734375 55.167969 C 71.222656 54.835938 71.5625 54.574219 72.035156 54.558594 C 72.960938 54.53125 73.277344 53.964844 74.34375 53.964844 C 75.558594 54.1875 77.203125 53.820312 78.167969 53.605469 C 79.875 53.214844 79.066406 52.027344 78.03125 51.59375 C 77.195312 51.238281 75.625 51.578125 74.652344 51.222656 C 73.917969 50.9375 74.523438 50.480469 74.921875 50.386719 C 75.320312 50.3125 75.75 50.445312 76.246094 50.523438 C 77.132812 50.601562 78.25 50.519531 79.027344 50.398438 C 80.640625 50.152344 80.574219 49.683594 81.351562 49.671875 C 81.917969 49.648438 82.351562 49.480469 82.738281 49.203125 C 83.191406 48.902344 83.667969 48.285156 84.21875 48.308594 L 84.539062 48.320312 C 81.140625 54.855469 75.039062 59.148438 75.039062 59.148438 C 75.039062 59.148438 73.066406 57.644531 70.734375 55.167969 Z M 70.734375 55.167969 "/>
<path style=" stroke:none;fill-rule:evenodd;fill:rgb(54.901963%,25.882354%,0%);fill-opacity:1;" d="M 78.546875 50.382812 C 78.757812 51.191406 78.980469 51.46875 79.839844 51.675781 C 80.683594 51.882812 81.976562 51.066406 81.175781 50.273438 C 80.414062 49.535156 79.609375 49.347656 78.925781 48.679688 C 77.867188 47.636719 76.414062 45.476562 75.722656 43.4375 C 74.964844 41.203125 75.097656 34.921875 75.132812 31.738281 C 75.132812 31.699219 75.222656 31.679688 75.234375 31.664062 C 75.28125 31.59375 75.332031 31.6875 75.253906 31.21875 C 75.234375 31.097656 75.136719 30.976562 75.136719 30.855469 C 75.140625 30.640625 74.390625 31.089844 74.191406 31.476562 C 74.148438 31.5625 74.335938 31.8125 74.335938 31.863281 C 74.359375 34.917969 74.03125 40.945312 74.847656 43.675781 C 75.351562 45.367188 76.273438 46.671875 77.105469 47.878906 C 77.605469 48.652344 78.328125 49.488281 78.546875 50.382812 Z M 78.546875 50.382812 "/>
<path style=" stroke:none;fill-rule:nonzero;fill:rgb(100%,100%,100%);fill-opacity:1;" d="M 69.199219 41.441406 C 69.1875 41.4375 69.148438 41.433594 69.113281 41.429688 C 68.851562 41.398438 68.574219 41.289062 68.371094 41.136719 C 68.078125 40.921875 67.886719 40.578125 67.824219 40.15625 C 67.804688 40.035156 67.804688 39.734375 67.824219 39.617188 C 67.875 39.289062 67.996094 39.003906 68.167969 38.792969 C 68.21875 38.730469 68.316406 38.636719 68.378906 38.589844 C 68.519531 38.484375 68.703125 38.398438 68.894531 38.351562 C 69.035156 38.320312 69.117188 38.308594 69.285156 38.304688 C 69.515625 38.296875 69.679688 38.320312 69.859375 38.378906 C 70.09375 38.457031 70.277344 38.578125 70.402344 38.746094 C 70.488281 38.863281 70.601562 39.117188 70.617188 39.230469 C 70.625 39.296875 70.601562 39.34375 70.542969 39.367188 C 70.527344 39.375 70.4375 39.402344 70.34375 39.425781 C 70.15625 39.476562 70.132812 39.476562 70.089844 39.445312 C 70.0625 39.421875 70.050781 39.402344 70.027344 39.328125 C 70.015625 39.296875 69.988281 39.230469 69.96875 39.183594 C 69.933594 39.113281 69.917969 39.09375 69.871094 39.046875 C 69.820312 38.996094 69.800781 38.984375 69.730469 38.949219 C 69.574219 38.871094 69.394531 38.847656 69.191406 38.871094 C 69.042969 38.890625 68.878906 38.949219 68.777344 39.027344 C 68.550781 39.195312 68.425781 39.527344 68.441406 39.921875 C 68.457031 40.460938 68.6875 40.757812 69.160156 40.851562 C 69.25 40.871094 69.445312 40.871094 69.542969 40.851562 C 69.683594 40.824219 69.890625 40.746094 70.007812 40.671875 L 70.050781 40.644531 L 70.050781 40.300781 L 69.679688 40.300781 L 69.304688 40.296875 L 69.28125 40.28125 C 69.269531 40.269531 69.25 40.253906 69.242188 40.238281 C 69.226562 40.214844 69.226562 40.214844 69.226562 40.011719 C 69.226562 39.808594 69.226562 39.808594 69.242188 39.785156 C 69.253906 39.769531 69.269531 39.753906 69.285156 39.746094 L 69.308594 39.726562 L 69.945312 39.730469 L 70.585938 39.730469 L 70.605469 39.746094 C 70.621094 39.753906 70.636719 39.777344 70.648438 39.789062 L 70.664062 39.816406 L 70.667969 40.34375 C 70.667969 40.902344 70.667969 40.925781 70.632812 40.964844 C 70.621094 40.976562 70.578125 41.015625 70.535156 41.046875 C 70.234375 41.265625 69.914062 41.398438 69.582031 41.433594 C 69.496094 41.445312 69.25 41.449219 69.199219 41.441406 Z M 72.535156 41.46875 C 72.203125 41.441406 71.949219 41.34375 71.765625 41.167969 C 71.585938 40.992188 71.496094 40.777344 71.453125 40.414062 C 71.441406 40.3125 71.441406 40.207031 71.441406 39.386719 C 71.445312 38.5 71.445312 38.46875 71.460938 38.441406 C 71.464844 38.425781 71.484375 38.40625 71.5 38.394531 L 71.523438 38.375 L 71.742188 38.371094 C 71.957031 38.371094 71.964844 38.371094 71.996094 38.386719 C 72.015625 38.394531 72.035156 38.414062 72.042969 38.429688 L 72.0625 38.457031 L 72.0625 39.402344 C 72.066406 40.238281 72.066406 40.363281 72.078125 40.425781 C 72.105469 40.597656 72.132812 40.664062 72.214844 40.742188 C 72.316406 40.84375 72.421875 40.882812 72.621094 40.886719 C 72.804688 40.894531 72.933594 40.871094 73.042969 40.820312 C 73.167969 40.757812 73.222656 40.664062 73.265625 40.445312 C 73.28125 40.363281 73.28125 40.351562 73.289062 39.414062 C 73.292969 38.351562 73.289062 38.441406 73.347656 38.398438 L 73.375 38.378906 L 73.601562 38.378906 C 73.855469 38.378906 73.847656 38.378906 73.890625 38.429688 L 73.910156 38.457031 L 73.910156 39.308594 C 73.914062 40.164062 73.90625 40.339844 73.886719 40.5 C 73.835938 40.84375 73.722656 41.058594 73.503906 41.230469 C 73.429688 41.285156 73.398438 41.304688 73.324219 41.339844 C 73.214844 41.398438 73.085938 41.433594 72.9375 41.457031 C 72.863281 41.464844 72.613281 41.472656 72.535156 41.46875 Z M 75.523438 41.421875 C 75.515625 41.421875 75.492188 41.40625 75.476562 41.386719 C 75.441406 41.351562 75.429688 41.320312 75.441406 41.277344 C 75.453125 41.222656 76.535156 38.449219 76.554688 38.425781 C 76.585938 38.382812 76.597656 38.378906 76.851562 38.382812 C 77.101562 38.382812 77.113281 38.382812 77.148438 38.425781 C 77.15625 38.441406 77.425781 39.085938 77.742188 39.863281 C 78.25 41.097656 78.320312 41.28125 78.320312 41.3125 C 78.320312 41.355469 78.304688 41.382812 78.265625 41.414062 C 78.242188 41.429688 78.242188 41.429688 77.988281 41.429688 L 77.734375 41.429688 L 77.707031 41.40625 C 77.671875 41.378906 77.671875 41.382812 77.507812 40.957031 C 77.433594 40.761719 77.371094 40.597656 77.367188 40.589844 C 77.359375 40.578125 77.328125 40.578125 76.855469 40.578125 C 76.386719 40.574219 76.355469 40.578125 76.351562 40.589844 C 76.347656 40.59375 76.285156 40.769531 76.207031 40.972656 C 76.132812 41.175781 76.066406 41.355469 76.058594 41.367188 C 76.050781 41.382812 76.03125 41.398438 76.019531 41.40625 C 75.996094 41.425781 75.992188 41.425781 75.769531 41.425781 C 75.644531 41.425781 75.535156 41.425781 75.523438 41.421875 Z M 77.144531 40.003906 C 77.132812 39.972656 76.863281 39.257812 76.859375 39.242188 C 76.855469 39.234375 76.851562 39.238281 76.847656 39.253906 C 76.832031 39.289062 76.558594 40.015625 76.554688 40.023438 C 76.554688 40.027344 76.6875 40.027344 76.851562 40.03125 L 77.15625 40.03125 Z M 79.433594 41.417969 C 79.402344 41.410156 79.371094 41.375 79.359375 41.339844 C 79.355469 41.320312 79.355469 40.851562 79.355469 39.882812 L 79.363281 38.453125 L 79.382812 38.425781 C 79.421875 38.378906 79.417969 38.378906 79.761719 38.378906 C 80.050781 38.378906 80.074219 38.378906 80.101562 38.394531 C 80.113281 38.398438 80.132812 38.417969 80.140625 38.429688 C 80.148438 38.441406 80.308594 38.910156 80.5 39.472656 C 80.6875 40.035156 80.84375 40.496094 80.84375 40.496094 C 80.847656 40.496094 81.007812 40.039062 81.203125 39.480469 C 81.421875 38.847656 81.5625 38.457031 81.574219 38.4375 C 81.613281 38.382812 81.609375 38.382812 81.925781 38.382812 C 82.195312 38.382812 82.207031 38.382812 82.234375 38.398438 C 82.25 38.40625 82.269531 38.425781 82.277344 38.441406 L 82.296875 38.46875 L 82.296875 39.90625 C 82.292969 41.257812 82.292969 41.34375 82.277344 41.363281 C 82.273438 41.378906 82.253906 41.398438 82.238281 41.40625 L 82.210938 41.429688 L 81.992188 41.429688 C 81.773438 41.429688 81.769531 41.429688 81.746094 41.410156 C 81.734375 41.402344 81.714844 41.382812 81.707031 41.371094 L 81.691406 41.347656 L 81.6875 40.523438 L 81.6875 39.699219 L 81.648438 39.808594 C 81.625 39.867188 81.496094 40.242188 81.355469 40.640625 C 81.113281 41.332031 81.101562 41.363281 81.074219 41.390625 C 81.054688 41.410156 81.035156 41.421875 81.019531 41.425781 C 81.003906 41.429688 80.914062 41.429688 80.8125 41.429688 C 80.640625 41.429688 80.632812 41.429688 80.601562 41.414062 C 80.582031 41.402344 80.5625 41.386719 80.554688 41.375 C 80.542969 41.359375 80.410156 40.972656 80.253906 40.515625 C 80.097656 40.054688 79.964844 39.675781 79.964844 39.675781 C 79.960938 39.675781 79.957031 40.050781 79.957031 40.507812 C 79.953125 41.433594 79.957031 41.367188 79.902344 41.40625 L 79.871094 41.425781 L 79.664062 41.425781 C 79.550781 41.425781 79.449219 41.421875 79.4375 41.417969 Z M 79.433594 41.417969 "/>
<path style=" stroke:none;fill-rule:nonzero;fill:rgb(74.117649%,2.745098%,15.686275%);fill-opacity:1;" d="M 69.179688 41.3125 C 68.804688 41.269531 68.464844 41.105469 68.261719 40.863281 C 68.089844 40.664062 67.980469 40.398438 67.945312 40.097656 C 67.933594 39.996094 67.933594 39.765625 67.945312 39.667969 C 67.988281 39.34375 68.117188 39.039062 68.304688 38.828125 C 68.621094 38.472656 69.28125 38.328125 69.816406 38.5 C 70.152344 38.605469 70.355469 38.8125 70.46875 39.164062 C 70.484375 39.210938 70.496094 39.253906 70.492188 39.253906 C 70.488281 39.257812 70.203125 39.335938 70.179688 39.339844 C 70.167969 39.339844 70.160156 39.328125 70.144531 39.273438 C 70.089844 39.117188 70.007812 38.988281 69.917969 38.917969 C 69.722656 38.761719 69.445312 38.707031 69.121094 38.753906 C 68.914062 38.785156 68.707031 38.890625 68.589844 39.027344 C 68.414062 39.230469 68.324219 39.484375 68.3125 39.8125 C 68.304688 40.140625 68.363281 40.390625 68.5 40.597656 C 68.722656 40.929688 69.242188 41.082031 69.707031 40.945312 C 69.855469 40.898438 70.015625 40.824219 70.128906 40.742188 L 70.179688 40.707031 L 70.183594 40.441406 L 70.183594 40.175781 L 69.347656 40.175781 L 69.347656 39.851562 L 70.542969 39.851562 L 70.539062 40.367188 L 70.539062 40.886719 L 70.472656 40.933594 C 70.203125 41.128906 69.933594 41.25 69.648438 41.300781 C 69.539062 41.320312 69.285156 41.324219 69.179688 41.3125 Z M 72.488281 41.339844 C 72.21875 41.308594 72.007812 41.222656 71.855469 41.078125 C 71.71875 40.945312 71.640625 40.785156 71.601562 40.546875 C 71.574219 40.375 71.570312 40.289062 71.570312 39.382812 L 71.574219 38.492188 L 71.9375 38.492188 L 71.941406 39.441406 C 71.941406 40.449219 71.941406 40.433594 71.980469 40.585938 C 72.027344 40.777344 72.175781 40.921875 72.382812 40.980469 C 72.546875 41.03125 72.769531 41.03125 72.960938 40.984375 C 73.183594 40.929688 73.304688 40.808594 73.367188 40.582031 C 73.414062 40.410156 73.410156 40.425781 73.417969 39.421875 L 73.421875 38.496094 L 73.785156 38.496094 L 73.785156 39.355469 C 73.785156 39.847656 73.78125 40.257812 73.773438 40.324219 C 73.742188 40.757812 73.628906 40.996094 73.367188 41.171875 C 73.261719 41.242188 73.121094 41.296875 72.964844 41.324219 C 72.894531 41.339844 72.566406 41.347656 72.488281 41.339844 Z M 75.582031 41.261719 C 75.589844 41.238281 75.835938 40.609375 76.125 39.863281 L 76.652344 38.507812 L 76.847656 38.503906 L 77.046875 38.503906 L 77.617188 39.890625 C 77.929688 40.652344 78.1875 41.285156 78.1875 41.292969 C 78.195312 41.304688 78.179688 41.304688 77.988281 41.304688 L 77.78125 41.304688 L 77.742188 41.210938 C 77.722656 41.160156 77.652344 40.972656 77.582031 40.789062 L 77.453125 40.460938 L 76.859375 40.460938 L 76.261719 40.457031 L 76.109375 40.878906 L 75.953125 41.304688 L 75.757812 41.300781 L 75.566406 41.300781 Z M 77.332031 40.144531 C 77.332031 40.136719 77.25 39.917969 77.152344 39.664062 C 77.054688 39.40625 76.945312 39.105469 76.910156 39 C 76.875 38.890625 76.84375 38.800781 76.84375 38.796875 C 76.839844 38.796875 76.828125 38.84375 76.8125 38.902344 C 76.765625 39.101562 76.71875 39.238281 76.546875 39.683594 C 76.457031 39.929688 76.378906 40.132812 76.375 40.140625 C 76.371094 40.15625 76.394531 40.15625 76.851562 40.15625 C 77.308594 40.15625 77.335938 40.15625 77.332031 40.144531 Z M 79.484375 39.898438 L 79.488281 38.5 L 79.765625 38.5 L 80.039062 38.503906 L 80.414062 39.621094 C 80.617188 40.234375 80.796875 40.777344 80.8125 40.824219 C 80.828125 40.871094 80.839844 40.90625 80.839844 40.90625 C 80.84375 40.902344 80.890625 40.769531 80.945312 40.609375 C 81 40.449219 81.1875 39.910156 81.359375 39.414062 L 81.675781 38.507812 L 81.921875 38.507812 L 82.171875 38.503906 L 82.167969 39.90625 L 82.164062 41.304688 L 81.816406 41.304688 L 81.816406 40.128906 C 81.820312 39.480469 81.816406 38.957031 81.8125 38.960938 C 81.808594 38.964844 81.636719 39.453125 81.425781 40.046875 C 81.21875 40.640625 81.035156 41.164062 81.015625 41.214844 L 80.984375 41.304688 L 80.65625 41.304688 L 80.253906 40.117188 C 80.03125 39.464844 79.847656 38.925781 79.84375 38.917969 C 79.839844 38.914062 79.835938 39.445312 79.835938 40.105469 L 79.832031 41.300781 L 79.484375 41.300781 Z M 79.484375 39.898438 "/>
<path style=" stroke:none;fill-rule:evenodd;fill:rgb(6.27451%,58.039218%,12.941177%);fill-opacity:1;" d="M 67.253906 30.835938 C 67.304688 30.90625 67.296875 31.222656 67.296875 31.222656 C 67.34375 31.246094 68.046875 30.625 68.046875 30.652344 C 68.050781 30.785156 68.066406 31.054688 68.066406 31.054688 C 68.066406 31.054688 68.796875 30.363281 68.828125 30.4375 C 68.859375 30.515625 68.824219 30.917969 68.824219 30.917969 C 68.824219 30.917969 69.3125 30.386719 69.398438 30.289062 C 69.464844 30.21875 69.453125 30.375 69.460938 30.625 C 69.460938 30.671875 70.257812 30.042969 70.304688 30.03125 C 70.410156 30.007812 70.441406 30.355469 70.4375 30.445312 C 70.433594 30.507812 71.171875 30.027344 71.136719 30.089844 L 71.191406 30.460938 C 71.398438 30.433594 71.890625 30.25 72.183594 30.296875 C 72.28125 30.3125 72.273438 30.359375 72.191406 30.394531 C 70.769531 30.96875 69.671875 31.832031 69.035156 33.035156 C 68.820312 33.441406 68.753906 33.800781 68.808594 33.890625 C 68.808594 33.890625 69.066406 33.34375 69.355469 33.257812 C 69.390625 33.246094 69.417969 33.609375 69.457031 33.585938 C 69.457031 33.585938 69.675781 33.039062 69.832031 32.835938 C 69.875 32.78125 69.945312 33.125 69.992188 33.074219 C 69.992188 33.074219 70.105469 32.707031 70.328125 32.453125 C 70.359375 32.414062 70.414062 32.796875 70.449219 32.765625 C 70.679688 32.554688 70.898438 32.027344 70.984375 31.988281 C 71.042969 31.941406 71.054688 32.425781 71.113281 32.382812 C 71.113281 32.382812 71.441406 31.730469 71.636719 31.609375 C 71.761719 31.53125 71.757812 31.96875 71.757812 31.96875 C 72.007812 31.722656 72.285156 31.316406 72.414062 31.140625 C 72.476562 31.058594 72.441406 31.675781 72.503906 31.699219 C 72.589844 31.730469 73.128906 31.226562 73.1875 31.214844 C 73.226562 31.210938 73.273438 31.359375 73.171875 31.480469 C 73.160156 31.492188 72.503906 32.246094 72.503906 32.246094 C 72.632812 32.269531 72.679688 32.234375 72.773438 32.257812 C 73.046875 32.328125 72.261719 32.777344 72.273438 32.859375 C 72.273438 32.859375 72.652344 32.851562 72.527344 32.925781 C 72.433594 32.980469 71.933594 33.617188 71.933594 33.597656 C 71.933594 33.585938 72.1875 33.601562 72.183594 33.671875 C 72.183594 33.804688 71.769531 34.488281 71.765625 34.484375 C 71.742188 34.460938 71.988281 34.457031 72.019531 34.523438 C 72.082031 34.648438 71.597656 35.199219 71.691406 35.292969 C 71.703125 35.308594 71.96875 35.300781 72.085938 35.324219 C 72.140625 35.335938 72.300781 36.328125 72.261719 36.289062 C 72.253906 36.28125 72.429688 35.359375 72.539062 35.078125 C 72.605469 34.910156 72.816406 35.335938 72.835938 35.296875 C 72.828125 35.296875 72.792969 34.691406 72.824219 34.417969 C 72.832031 34.339844 72.984375 34.496094 72.980469 34.421875 C 72.976562 34.257812 72.960938 34.078125 72.996094 33.914062 C 73.023438 33.792969 73.152344 34.136719 73.203125 34.042969 C 73.203125 34.042969 73.046875 33.445312 73.113281 33.277344 C 73.15625 33.164062 73.261719 33.546875 73.328125 33.558594 C 73.328125 33.558594 73.289062 33.09375 73.363281 32.972656 L 73.582031 33.207031 C 73.628906 33.132812 73.621094 32.40625 73.664062 32.339844 C 73.703125 32.28125 73.929688 32.613281 73.964844 32.558594 C 73.992188 32.511719 73.867188 31.972656 73.894531 31.933594 C 73.9375 31.871094 74.183594 32.082031 74.191406 32.078125 C 74.292969 31.976562 74.289062 31.722656 74.332031 31.628906 C 74.445312 31.375 75.105469 31.339844 75.179688 31.519531 C 75.21875 31.609375 75.191406 31.722656 75.179688 31.859375 C 75.183594 31.863281 75.507812 31.886719 75.511719 31.863281 C 75.511719 31.863281 75.472656 32.164062 75.496094 32.496094 C 75.5 32.539062 75.824219 32.484375 75.828125 32.527344 C 75.855469 32.839844 75.785156 32.867188 75.785156 32.867188 C 75.789062 32.890625 76.003906 32.835938 76.007812 32.859375 C 76.03125 33.011719 75.980469 33.195312 75.886719 33.375 C 75.871094 33.398438 76.195312 33.347656 76.199219 33.378906 C 76.238281 33.613281 76.246094 33.796875 76.207031 34.128906 C 76.203125 34.152344 76.523438 33.894531 76.527344 33.921875 C 76.578125 34.199219 76.519531 34.5 76.550781 34.785156 C 76.554688 34.851562 76.761719 34.585938 76.78125 34.664062 C 76.800781 34.738281 76.734375 35.289062 76.765625 35.320312 C 76.765625 35.320312 77.109375 35.304688 77.140625 35.332031 C 77.414062 35.585938 77.359375 36.03125 77.359375 36.03125 C 77.433594 35.976562 77.40625 35.441406 77.332031 34.953125 C 77.324219 34.898438 77.597656 34.917969 77.585938 34.871094 C 77.585938 34.871094 77.289062 34.691406 77.191406 34.195312 C 77.167969 34.089844 77.480469 34.109375 77.480469 34.109375 C 77.394531 33.914062 77.242188 33.878906 77.113281 33.691406 C 77.074219 33.628906 77.433594 33.597656 77.433594 33.582031 C 77.4375 33.394531 77.128906 33.304688 76.972656 33.109375 C 76.902344 33.027344 77.300781 33.023438 77.300781 33.023438 C 77.183594 32.859375 76.800781 32.789062 76.605469 32.578125 C 76.496094 32.460938 76.996094 32.347656 76.988281 32.328125 C 76.933594 32.15625 76.464844 32.101562 76.238281 31.910156 C 76.191406 31.867188 76.535156 31.734375 76.535156 31.734375 C 76.5 31.660156 75.753906 31.171875 76.132812 31.21875 C 76.292969 31.234375 76.617188 31.464844 76.644531 31.429688 C 76.644531 31.429688 76.628906 31.144531 76.664062 31.109375 C 76.789062 30.980469 77.21875 31.65625 77.367188 31.628906 C 77.367188 31.628906 77.421875 31.144531 77.488281 31.132812 C 77.644531 31.101562 77.835938 31.839844 77.992188 31.839844 C 78.011719 31.839844 78.023438 31.414062 78.105469 31.390625 C 78.195312 31.363281 78.296875 31.867188 78.414062 31.976562 C 78.519531 32.082031 78.519531 31.585938 78.582031 31.679688 C 78.6875 31.832031 78.714844 32.148438 78.859375 32.285156 C 78.953125 32.378906 78.96875 31.851562 79.074219 31.921875 C 79.195312 32.003906 79.167969 32.277344 79.304688 32.410156 C 79.367188 32.476562 79.410156 32.0625 79.484375 32.121094 C 79.550781 32.175781 79.59375 32.679688 79.664062 32.761719 C 79.753906 32.863281 79.859375 32.492188 79.953125 32.550781 C 80.019531 32.59375 80.003906 33.03125 80.066406 33.125 C 80.191406 33.320312 80.257812 32.890625 80.34375 32.957031 C 80.402344 33 80.53125 33.503906 80.582031 33.542969 C 80.703125 33.632812 80.765625 33.3125 80.855469 33.359375 C 80.921875 33.390625 81.050781 34.035156 81.105469 34.019531 C 81.140625 34.007812 81.230469 32.546875 80.664062 31.933594 C 79.742188 30.925781 78.089844 30.347656 76.746094 30.332031 C 76.746094 30.332031 77.421875 30.199219 77.441406 30.085938 C 77.476562 29.867188 77.8125 29.890625 78.046875 29.941406 C 78.085938 29.953125 78.066406 29.550781 78.070312 29.546875 C 78.28125 29.542969 78.46875 29.667969 78.667969 29.785156 C 78.730469 29.824219 78.542969 29.386719 78.609375 29.421875 C 78.863281 29.570312 79.152344 29.613281 79.324219 29.792969 C 79.371094 29.839844 79.273438 29.453125 79.273438 29.453125 C 79.402344 29.421875 79.65625 29.609375 79.753906 29.78125 C 79.800781 29.867188 79.75 29.328125 79.789062 29.425781 C 79.789062 29.425781 80.238281 29.574219 80.285156 29.761719 C 80.285156 29.761719 80.324219 29.425781 80.382812 29.441406 C 80.5625 29.488281 80.71875 29.789062 80.859375 29.832031 C 80.859375 29.832031 80.800781 29.53125 80.847656 29.542969 C 81.183594 29.628906 81.550781 29.835938 81.550781 29.832031 C 81.359375 29.359375 80.640625 28.867188 79.371094 28.734375 C 79.136719 28.707031 78.191406 28.671875 77.390625 28.855469 C 76.734375 29.007812 76.214844 29.09375 76.324219 28.988281 C 76.757812 28.566406 77.457031 28.515625 77.652344 28.417969 C 77.789062 28.347656 77.1875 28.113281 77.304688 28.082031 C 77.425781 28.054688 77.964844 28.007812 77.964844 28.007812 C 78.082031 27.917969 77.574219 27.742188 77.648438 27.609375 C 77.800781 27.34375 78.699219 27.585938 78.777344 27.484375 C 78.800781 27.453125 78.390625 27.210938 78.40625 27.171875 C 78.472656 27.039062 79.273438 27.273438 79.292969 27.15625 C 79.292969 27.15625 79.050781 26.976562 78.875 26.828125 C 78.855469 26.808594 79.589844 26.613281 79.589844 26.613281 C 79.578125 26.601562 79.464844 26.523438 79.296875 26.457031 C 79.144531 26.394531 79.941406 26.191406 79.941406 26.191406 C 78.929688 25.730469 76.296875 27.039062 75.777344 28.398438 C 75.640625 28.722656 75.636719 28.371094 75.664062 28.09375 C 75.691406 27.800781 75.730469 27.539062 75.699219 27.269531 C 75.6875 27.1875 75.484375 27.484375 75.46875 27.40625 C 75.417969 27.117188 75.570312 26.800781 75.5 26.480469 C 75.476562 26.371094 75.203125 26.796875 75.167969 26.6875 C 75.070312 26.394531 75.242188 25.976562 75.171875 25.570312 C 75.144531 25.410156 74.886719 25.910156 74.800781 25.765625 C 74.699219 25.601562 74.746094 24.988281 74.695312 24.894531 C 74.65625 24.820312 74.429688 25.1875 74.410156 25.121094 C 74.097656 23.996094 74.511719 23.855469 73.914062 24.488281 C 73.894531 24.511719 73.761719 23.824219 73.738281 23.847656 C 73.492188 24.367188 73.09375 23.476562 72.957031 23.558594 C 72.851562 23.621094 73.234375 23.96875 73.238281 24.121094 C 73.242188 24.199219 72.886719 24.203125 72.886719 24.203125 C 72.894531 24.332031 73.558594 24.691406 73.582031 24.832031 C 73.597656 24.949219 73.109375 24.917969 73.109375 24.917969 C 73.125 25.078125 73.679688 25.226562 73.710938 25.394531 C 73.726562 25.484375 73.449219 25.503906 73.460938 25.597656 C 73.472656 25.742188 73.996094 26.027344 74.011719 26.171875 C 74.023438 26.273438 73.679688 26.316406 73.671875 26.410156 C 73.660156 26.527344 74.363281 26.910156 74.363281 27.019531 C 74.363281 27.171875 74.085938 27.09375 73.957031 27.171875 C 73.777344 27.277344 74.53125 27.714844 74.5625 27.839844 C 74.589844 27.949219 74.261719 27.851562 74.25 27.953125 C 74.238281 28.082031 74.621094 28.28125 74.707031 28.503906 C 74.796875 28.726562 74.707031 28.78125 74.578125 28.695312 C 74.328125 28.515625 73.308594 27.441406 73.039062 27.15625 C 72.648438 26.738281 71.84375 26.273438 71.039062 26.246094 C 70.957031 26.269531 71.472656 26.632812 71.476562 26.765625 C 71.476562 26.796875 71.242188 26.847656 71.253906 26.859375 C 71.398438 27 71.839844 27.167969 71.839844 27.167969 L 71.710938 27.394531 C 71.742188 27.460938 71.953125 27.480469 72.289062 27.589844 C 72.289062 27.589844 72.035156 27.746094 72.054688 27.761719 C 72.234375 27.902344 72.578125 28.003906 72.578125 28.003906 L 72.238281 28.121094 C 72.21875 28.183594 73.003906 28.496094 73.003906 28.496094 C 73.003906 28.496094 72.757812 28.707031 72.769531 28.71875 C 72.832031 28.777344 73.40625 28.910156 73.40625 28.910156 C 73.417969 28.921875 73 29.050781 73.003906 29.050781 C 73.15625 29.203125 73.570312 29.25 73.667969 29.5 C 73.667969 29.5 73.726562 29.640625 73.5625 29.613281 C 72.910156 29.382812 71.90625 28.894531 69.953125 29.085938 C 67.957031 29.34375 66.4375 31.070312 66.464844 31.242188 C 66.464844 31.242188 67.175781 30.730469 67.253906 30.835938 Z M 67.253906 30.835938 "/>
<path style=" stroke:none;fill-rule:evenodd;fill:rgb(54.901963%,25.882354%,0%);fill-opacity:1;" d="M 74.828125 30.734375 C 74.695312 30.527344 74.429688 30.460938 74.230469 30.585938 C 74.035156 30.710938 73.984375 30.980469 74.121094 31.1875 C 74.253906 31.394531 74.519531 31.457031 74.714844 31.332031 C 74.914062 31.207031 74.960938 30.9375 74.828125 30.734375 Z M 74.828125 30.734375 "/>
<path style=" stroke:none;fill-rule:evenodd;fill:rgb(54.901963%,25.882354%,0%);fill-opacity:1;" d="M 74.773438 31.101562 C 74.925781 30.867188 75.230469 30.789062 75.453125 30.933594 C 75.675781 31.078125 75.734375 31.382812 75.582031 31.621094 C 75.429688 31.855469 75.125 31.929688 74.898438 31.789062 C 74.675781 31.644531 74.617188 31.335938 74.773438 31.101562 Z M 74.773438 31.101562 "/>
<path style=" stroke:none;fill-rule:evenodd;fill:rgb(54.901963%,25.882354%,0%);fill-opacity:1;" d="M 74.171875 31.480469 C 74.335938 31.230469 74.664062 31.148438 74.902344 31.300781 C 75.140625 31.453125 75.203125 31.78125 75.039062 32.035156 C 74.875 32.285156 74.550781 32.367188 74.3125 32.214844 C 74.070312 32.058594 74.011719 31.734375 74.171875 31.480469 Z M 74.171875 31.480469 "/>
<path style=" stroke:none;fill-rule:evenodd;fill:rgb(0%,0%,0%);fill-opacity:1;" d="M 70.660156 47.902344 L 71.292969 47.902344 L 71.292969 48.375 L 70.660156 48.375 Z M 70.660156 47.902344 "/>
<path style=" stroke:none;fill-rule:evenodd;fill:rgb(54.901963%,25.882354%,0%);fill-opacity:1;" d="M 67.480469 48.203125 C 67.480469 48.203125 71.65625 48.519531 74.214844 47.976562 C 74.214844 47.976562 74.429688 48.121094 74.121094 48.480469 C 73.8125 48.835938 73.027344 48.914062 72.601562 48.992188 C 72.601562 48.992188 72.496094 49.21875 72.503906 49.339844 C 72.515625 49.460938 72.777344 49.449219 72.90625 49.421875 L 73.035156 49.394531 C 73.035156 49.394531 72.972656 49.84375 71.394531 49.902344 C 70.875 49.921875 69.164062 49.960938 68.804688 49.457031 C 68.804688 49.457031 69.117188 49.480469 69.199219 49.457031 C 69.28125 49.429688 69.21875 49.105469 69.191406 49.058594 C 69.160156 49.011719 68.082031 49.058594 67.515625 48.539062 C 67.375 48.390625 67.308594 48.230469 67.308594 48.175781 C 67.308594 48.171875 67.480469 48.203125 67.480469 48.203125 Z M 69.65625 49.074219 C 69.65625 49.074219 70.796875 49.21875 72.113281 49.074219 C 72.113281 49.074219 72.148438 49.324219 72.085938 49.417969 C 72.027344 49.511719 70.511719 49.582031 69.746094 49.453125 C 69.621094 49.414062 69.617188 49.261719 69.65625 49.074219 Z M 69.65625 49.074219 "/>
<path style=" stroke:none;fill-rule:evenodd;fill:rgb(99.215686%,97.647059%,100%);fill-opacity:1;" d="M 68.0625 48.003906 C 68.0625 48.003906 69.609375 46.367188 69.136719 42.949219 C 69.136719 42.949219 70.75 43.363281 72.394531 45.722656 C 72.394531 45.722656 72.875 46.203125 73.4375 47.910156 Z M 68.0625 48.003906 "/>
<path style=" stroke:none;fill-rule:evenodd;fill:rgb(77.64706%,12.941177%,22.352941%);fill-opacity:1;" d="M 75.042969 18.476562 C 75.042969 18.476562 61.78125 28.289062 61.78125 39.859375 C 61.78125 51.433594 75.042969 61.523438 75.042969 61.523438 C 75.042969 61.523438 88.21875 52.265625 88.21875 39.859375 C 88.21875 27.457031 75.042969 18.476562 75.042969 18.476562 Z M 75.039062 20.851562 C 75.039062 20.851562 63.238281 29.582031 63.238281 39.875 C 63.238281 50.171875 75.039062 59.148438 75.039062 59.148438 C 75.039062 59.148438 86.761719 50.910156 86.761719 39.875 C 86.761719 28.839844 75.039062 20.851562 75.039062 20.851562 Z M 75.039062 20.851562 "/>
</g>
</svg>
