<?xml version="1.0" encoding="UTF-8"?>
<svg xmlns="http://www.w3.org/2000/svg" xmlns:xlink="http://www.w3.org/1999/xlink" width="150px" height="150px" viewBox="0 0 150 100" version="1.1">
<g id="surface1">
<rect x="0" y="0" width="150" height="100" style="fill:rgb(0%,5.882353%,36.470589%);fill-opacity:1;stroke:none;"/>
<path style=" stroke:none;fill-rule:nonzero;fill:rgb(83.529413%,62.352943%,5.882353%);fill-opacity:1;" d="M 89.988281 13.886719 L 93.179688 13.882812 L 94.230469 10.765625 L 95.207031 13.894531 L 98.421875 13.890625 L 95.929688 15.914062 L 96.832031 18.875 L 94.199219 17.097656 L 91.589844 18.890625 L 92.480469 15.890625 Z M 89.988281 13.886719 "/>
<path style=" stroke:none;fill-rule:nonzero;fill:rgb(83.529413%,62.352943%,5.882353%);fill-opacity:1;" d="M 104.011719 26.410156 L 107.203125 26.40625 L 108.253906 23.289062 L 109.226562 26.414062 L 112.441406 26.414062 L 109.949219 28.4375 L 110.851562 31.398438 L 108.21875 29.621094 L 105.613281 31.414062 L 106.5 28.414062 Z M 104.011719 26.410156 "/>
<path style=" stroke:none;fill-rule:nonzero;fill:rgb(83.529413%,62.352943%,5.882353%);fill-opacity:1;" d="M 111.453125 44.4375 L 114.644531 44.433594 L 115.695312 41.316406 L 116.667969 44.445312 L 119.882812 44.441406 L 117.394531 46.46875 L 118.296875 49.425781 L 115.664062 47.648438 L 113.054688 49.441406 L 113.941406 46.441406 Z M 111.453125 44.4375 "/>
<path style=" stroke:none;fill-rule:nonzero;fill:rgb(83.529413%,62.352943%,5.882353%);fill-opacity:1;" d="M 96.277344 49.109375 L 99.46875 49.109375 L 100.519531 45.992188 L 101.496094 49.117188 L 104.707031 49.117188 L 102.21875 51.140625 L 103.121094 54.101562 L 100.488281 52.324219 L 97.878906 54.117188 L 98.769531 51.117188 Z M 96.277344 49.109375 "/>
<path style=" stroke:none;fill-rule:nonzero;fill:rgb(83.529413%,62.352943%,5.882353%);fill-opacity:1;" d="M 108.5625 64.382812 L 111.753906 64.382812 L 112.804688 61.265625 L 113.78125 64.390625 L 116.992188 64.390625 L 114.503906 66.414062 L 115.40625 69.375 L 112.773438 67.59375 L 110.164062 69.386719 L 111.050781 66.386719 Z M 108.5625 64.382812 "/>
<path style=" stroke:none;fill-rule:nonzero;fill:rgb(83.529413%,62.352943%,5.882353%);fill-opacity:1;" d="M 97.320312 79.804688 L 100.511719 79.804688 L 101.5625 76.6875 L 102.539062 79.8125 L 105.753906 79.8125 L 103.261719 81.835938 L 104.164062 84.796875 L 101.53125 83.019531 L 98.921875 84.8125 L 99.8125 81.808594 Z M 97.320312 79.804688 "/>
<path style=" stroke:none;fill-rule:nonzero;fill:rgb(83.529413%,62.352943%,5.882353%);fill-opacity:1;" d="M 88.734375 66.976562 L 91.925781 66.976562 L 92.976562 63.859375 L 93.953125 66.984375 L 97.164062 66.984375 L 94.675781 69.007812 L 95.578125 71.96875 L 92.945312 70.1875 L 90.335938 71.984375 L 91.226562 68.980469 Z M 88.734375 66.976562 "/>
<path style=" stroke:none;fill-rule:nonzero;fill:rgb(83.529413%,62.352943%,5.882353%);fill-opacity:1;" d="M 80.585938 89.382812 L 83.777344 89.378906 L 84.828125 86.261719 L 85.800781 89.390625 L 89.015625 89.390625 L 86.527344 91.414062 L 87.429688 94.375 L 84.796875 92.59375 L 82.1875 94.386719 L 83.074219 91.386719 Z M 80.585938 89.382812 "/>
<path style=" stroke:none;fill-rule:nonzero;fill:rgb(83.529413%,62.352943%,5.882353%);fill-opacity:1;" d="M 60.402344 89.382812 L 63.59375 89.378906 L 64.644531 86.261719 L 65.617188 89.390625 L 68.832031 89.390625 L 66.339844 91.414062 L 67.246094 94.375 L 64.613281 92.59375 L 62.003906 94.386719 L 62.890625 91.386719 Z M 60.402344 89.382812 "/>
<path style=" stroke:none;fill-rule:nonzero;fill:rgb(83.529413%,62.352943%,5.882353%);fill-opacity:1;" d="M 53.203125 66.976562 L 56.394531 66.976562 L 57.445312 63.859375 L 58.417969 66.984375 L 61.632812 66.984375 L 59.140625 69.007812 L 60.042969 71.96875 L 57.414062 70.1875 L 54.804688 71.984375 L 55.691406 68.980469 Z M 53.203125 66.976562 "/>
<path style=" stroke:none;fill-rule:nonzero;fill:rgb(83.529413%,62.352943%,5.882353%);fill-opacity:1;" d="M 43.632812 79.804688 L 46.824219 79.804688 L 47.875 76.6875 L 48.847656 79.8125 L 52.0625 79.8125 L 49.570312 81.835938 L 50.472656 84.796875 L 47.84375 83.019531 L 45.234375 84.8125 L 46.121094 81.808594 Z M 43.632812 79.804688 "/>
<path style=" stroke:none;fill-rule:nonzero;fill:rgb(83.529413%,62.352943%,5.882353%);fill-opacity:1;" d="M 32.601562 64.382812 L 35.792969 64.382812 L 36.84375 61.265625 L 37.820312 64.390625 L 41.03125 64.390625 L 38.542969 66.414062 L 39.445312 69.375 L 36.8125 67.59375 L 34.203125 69.386719 L 35.09375 66.386719 Z M 32.601562 64.382812 "/>
<path style=" stroke:none;fill-rule:nonzero;fill:rgb(83.529413%,62.352943%,5.882353%);fill-opacity:1;" d="M 30.117188 44.4375 L 33.308594 44.433594 L 34.359375 41.316406 L 35.332031 44.445312 L 38.546875 44.441406 L 36.054688 46.46875 L 36.957031 49.425781 L 34.328125 47.648438 L 31.71875 49.441406 L 32.605469 46.441406 Z M 30.117188 44.4375 "/>
<path style=" stroke:none;fill-rule:nonzero;fill:rgb(83.529413%,62.352943%,5.882353%);fill-opacity:1;" d="M 45.578125 49.109375 L 48.769531 49.109375 L 49.820312 45.992188 L 50.796875 49.117188 L 54.011719 49.117188 L 51.519531 51.140625 L 52.421875 54.101562 L 49.789062 52.324219 L 47.179688 54.117188 L 48.070312 51.117188 Z M 45.578125 49.109375 "/>
<path style=" stroke:none;fill-rule:nonzero;fill:rgb(83.529413%,62.352943%,5.882353%);fill-opacity:1;" d="M 37.722656 26.410156 L 40.914062 26.40625 L 41.964844 23.289062 L 42.9375 26.414062 L 46.152344 26.414062 L 43.664062 28.4375 L 44.566406 31.398438 L 41.933594 29.621094 L 39.324219 31.414062 L 40.210938 28.414062 Z M 37.722656 26.410156 "/>
<path style=" stroke:none;fill-rule:nonzero;fill:rgb(83.529413%,62.352943%,5.882353%);fill-opacity:1;" d="M 51.828125 13.886719 L 55.019531 13.882812 L 56.070312 10.765625 L 57.046875 13.894531 L 60.261719 13.890625 L 57.769531 15.914062 L 58.671875 18.875 L 56.039062 17.097656 L 53.429688 18.890625 L 54.320312 15.890625 Z M 51.828125 13.886719 "/>
<path style=" stroke:none;fill-rule:nonzero;fill:rgb(83.529413%,62.352943%,5.882353%);fill-opacity:1;" d="M 70.945312 8.652344 L 74.132812 8.652344 L 75.1875 5.535156 L 76.160156 8.660156 L 79.375 8.660156 L 76.882812 10.683594 L 77.785156 13.644531 L 75.152344 11.863281 L 72.542969 13.660156 L 73.433594 10.65625 Z M 70.945312 8.652344 "/>
<path style=" stroke:none;fill-rule:nonzero;fill:rgb(83.529413%,62.352943%,5.882353%);fill-opacity:1;" d="M 91.691406 19.730469 L 82.261719 33.164062 L 81.679688 32.75 L 91.109375 19.320312 Z M 91.691406 19.730469 "/>
<path style=" stroke:none;fill-rule:nonzero;fill:rgb(83.529413%,62.352943%,5.882353%);fill-opacity:1;" d="M 105.1875 29.136719 L 83.273438 37.5625 L 83.015625 36.894531 L 104.925781 28.46875 Z M 105.1875 29.136719 "/>
<path style=" stroke:none;fill-rule:nonzero;fill:rgb(83.529413%,62.352943%,5.882353%);fill-opacity:1;" d="M 110.214844 45.304688 L 83.570312 42.113281 L 83.652344 41.398438 L 110.304688 44.597656 Z M 110.214844 45.304688 "/>
<path style=" stroke:none;fill-rule:nonzero;fill:rgb(83.529413%,62.352943%,5.882353%);fill-opacity:1;" d="M 70.988281 74.402344 L 74.179688 74.398438 L 75.230469 71.28125 L 76.207031 74.40625 L 79.421875 74.40625 L 76.929688 76.429688 L 77.832031 79.390625 L 75.199219 77.613281 L 72.589844 79.40625 L 73.480469 76.40625 Z M 70.988281 74.402344 "/>
<path style=" stroke:none;fill-rule:nonzero;fill:rgb(83.529413%,62.352943%,5.882353%);fill-opacity:1;" d="M 69.269531 22.929688 L 73.769531 22.941406 L 75.253906 18.542969 L 76.625 22.941406 L 81.148438 22.945312 L 77.640625 25.792969 L 78.910156 29.964844 L 75.210938 27.464844 L 71.527344 29.988281 L 72.78125 25.753906 Z M 69.503906 44.539062 C 65.855469 39.71875 69.546875 37.957031 69.621094 34.570312 C 72.019531 39.023438 68.503906 40.410156 72.683594 44.542969 Z M 69.503906 44.539062 "/>
<path style=" stroke:none;fill-rule:nonzero;fill:rgb(83.529413%,62.352943%,5.882353%);fill-opacity:1;" d="M 73.511719 44.542969 C 72.234375 42.746094 71.339844 39.878906 71.722656 38.007812 C 72.101562 36.132812 73.398438 34.289062 73.21875 32.871094 C 73.894531 34.46875 74.53125 35.082031 74.335938 36.257812 C 75.351562 33.230469 77.683594 31.664062 80.847656 31.507812 C 75.15625 35.832031 82.585938 39.15625 77.671875 44.546875 Z M 73.511719 44.542969 "/>
<path style=" stroke:none;fill-rule:nonzero;fill:rgb(83.529413%,62.352943%,5.882353%);fill-opacity:1;" d="M 78.726562 44.550781 C 83.246094 39.097656 77.496094 36.304688 82.738281 33.859375 C 82.929688 35.472656 81.644531 35.472656 82.210938 37.445312 C 82.308594 38.296875 82.191406 38.996094 81.914062 39.589844 C 82.449219 38.9375 83.484375 37.703125 84.144531 37.222656 C 82.585938 39.574219 84.257812 41.625 80.5 44.550781 L 78.652344 44.550781 M 77.964844 56.316406 C 78.164062 51.203125 79.257812 49.648438 81.332031 47.507812 C 77.308594 47.5 72.8125 47.5 69.152344 47.496094 C 71.21875 49.636719 72.308594 51.195312 72.5 56.308594 C 74.320312 56.308594 76.144531 56.3125 77.964844 56.316406 Z M 75.214844 68.796875 L 76.804688 73.792969 L 77.6875 58.976562 C 76.046875 58.96875 74.40625 58.96875 72.765625 58.964844 L 73.609375 73.789062 Z M 75.191406 91.191406 C 75.894531 90.539062 76.09375 88.417969 76.09375 88.417969 L 76.53125 79.757812 L 75.203125 78.824219 L 73.871094 79.753906 L 74.296875 88.417969 C 74.296875 88.417969 74.484375 90.53125 75.1875 91.191406 Z M 82.308594 46.589844 L 68.160156 46.578125 L 68.160156 45.234375 L 82.3125 45.246094 Z M 78.863281 58.527344 L 71.398438 58.519531 L 71.402344 56.851562 L 78.867188 56.859375 Z M 78.863281 58.527344 "/>
<path style=" stroke:none;fill-rule:nonzero;fill:rgb(83.529413%,62.352943%,5.882353%);fill-opacity:1;" d="M 40.117188 45.304688 L 66.761719 42.113281 L 66.679688 41.398438 L 40.027344 44.597656 Z M 40.117188 45.304688 "/>
<path style=" stroke:none;fill-rule:nonzero;fill:rgb(83.529413%,62.352943%,5.882353%);fill-opacity:1;" d="M 45.179688 29.136719 L 67.09375 37.5625 L 67.351562 36.894531 L 45.441406 28.46875 Z M 45.179688 29.136719 "/>
<path style=" stroke:none;fill-rule:nonzero;fill:rgb(83.529413%,62.352943%,5.882353%);fill-opacity:1;" d="M 58.75 19.730469 L 68.179688 33.164062 L 68.761719 32.75 L 59.332031 19.320312 Z M 58.75 19.730469 "/>
<path style=" stroke:none;fill-rule:nonzero;fill:rgb(83.529413%,62.352943%,5.882353%);fill-opacity:1;" d="M 74.777344 28.542969 L 74.769531 33.433594 L 75.488281 33.433594 L 75.492188 28.542969 Z M 67.375 23 L 64.277344 21.410156 L 64.492188 20.992188 L 67.589844 22.578125 L 67.375 23 M 67.902344 21.855469 L 65.398438 19.4375 L 65.757812 19.066406 L 68.707031 19.652344 C 68.769531 19.664062 68.828125 19.679688 68.882812 19.695312 C 68.9375 19.707031 68.984375 19.722656 69.027344 19.742188 L 67 17.78125 L 67.3125 17.457031 L 69.8125 19.875 L 69.457031 20.246094 L 66.460938 19.65625 C 66.414062 19.648438 66.367188 19.636719 66.324219 19.625 C 66.277344 19.609375 66.230469 19.589844 66.183594 19.570312 L 68.210938 21.53125 L 67.902344 21.855469 M 70.542969 16.117188 L 69.785156 16.414062 L 70.75 18.882812 L 71.503906 18.589844 C 71.832031 18.460938 72.035156 18.261719 72.117188 17.988281 C 72.203125 17.710938 72.164062 17.367188 72.003906 16.957031 C 71.847656 16.5625 71.644531 16.292969 71.394531 16.148438 C 71.144531 16.003906 70.859375 15.992188 70.542969 16.117188 M 70.464844 19.453125 L 69.199219 16.210938 L 70.433594 15.730469 C 70.886719 15.554688 71.285156 15.554688 71.628906 15.730469 C 71.972656 15.90625 72.246094 16.25 72.445312 16.757812 C 72.648438 17.285156 72.683594 17.742188 72.550781 18.132812 C 72.417969 18.523438 72.125 18.804688 71.679688 18.976562 L 70.464844 19.453125 M 73.734375 18.464844 L 73.460938 14.996094 L 73.929688 14.960938 L 74.207031 18.429688 L 73.734375 18.464844 M 75.863281 17.042969 L 76.929688 17.246094 L 76.6875 15.636719 L 75.863281 17.042969 M 74.601562 18.273438 L 76.527344 15.097656 L 77.039062 15.195312 L 77.660156 18.859375 L 77.15625 18.761719 L 76.988281 17.671875 L 75.644531 17.414062 L 75.082031 18.363281 L 74.601562 18.273438 M 78.003906 19.042969 L 79.972656 16.171875 L 80.398438 16.464844 L 80.308594 19.46875 C 80.308594 19.535156 80.304688 19.597656 80.300781 19.652344 C 80.296875 19.703125 80.289062 19.75 80.277344 19.800781 L 81.871094 17.472656 L 82.242188 17.730469 L 80.273438 20.597656 L 79.851562 20.308594 L 79.929688 17.257812 C 79.933594 17.210938 79.9375 17.164062 79.941406 17.113281 C 79.949219 17.070312 79.957031 17.019531 79.96875 16.96875 L 78.375 19.296875 L 78.003906 19.042969 M 82.332031 20.9375 L 82.910156 21.855469 L 83.921875 20.582031 L 82.332031 20.9375 M 80.570312 20.855469 L 84.203125 20.09375 L 84.484375 20.539062 L 82.230469 23.488281 L 81.957031 23.054688 L 82.640625 22.1875 L 81.910156 21.03125 L 80.832031 21.269531 L 80.570312 20.855469 "/>
</g>
</svg>
