<?xml version="1.0" encoding="UTF-8"?>
<svg xmlns="http://www.w3.org/2000/svg" xmlns:xlink="http://www.w3.org/1999/xlink" width="150px" height="150px" viewBox="0 0 150 96" version="1.1">
<g id="surface1">
<path style=" stroke:none;fill-rule:evenodd;fill:rgb(100%,100%,100%);fill-opacity:1;" d="M 8.691406 36.101562 C 8.066406 36.359375 8.113281 35.234375 8.113281 49.089844 L 8.113281 61.574219 L 8.652344 62.035156 L 138.492188 62.035156 L 138.773438 61.753906 L 139.050781 61.472656 L 139.050781 49.191406 C 139.050781 36.070312 139.066406 36.410156 138.566406 36.152344 C 138.261719 35.992188 9.078125 35.945312 8.691406 36.101562 M 66.125 40.816406 C 66.929688 41.207031 66.898438 41.949219 66.042969 42.730469 C 64.601562 44.042969 60.402344 48.335938 60.402344 48.5 C 60.402344 48.925781 60.773438 48.976562 63.832031 48.976562 C 67.113281 48.976562 66.898438 49.023438 67.871094 48.03125 C 69.300781 46.574219 71.578125 46.832031 72.410156 48.546875 C 72.859375 49.480469 72.953125 53.382812 72.546875 54.207031 C 72.136719 55.035156 72.949219 54.972656 62.082031 55.003906 C 56.800781 55.015625 52.265625 55.066406 52 55.113281 C 51.691406 55.171875 51.261719 55.164062 50.800781 55.097656 C 49.652344 54.933594 49.492188 54.996094 48.472656 56.027344 C 47.558594 56.949219 46.519531 57.523438 45.757812 57.523438 C 45.179688 57.523438 45.335938 56.722656 46.050781 56.042969 C 47.101562 55.039062 47.175781 53.789062 46.265625 52.386719 C 45.683594 51.480469 45.75 50.859375 46.492188 50.292969 C 47.261719 49.703125 47.574219 49.734375 48.105469 50.457031 C 49.375 52.171875 52.152344 52.097656 52.386719 50.335938 C 52.613281 48.625 54.335938 48.386719 54.539062 50.039062 C 54.628906 50.765625 54.832031 51.210938 55.171875 51.433594 C 55.464844 51.628906 69.921875 51.644531 70.34375 51.453125 C 70.835938 51.230469 71.089844 49.710938 70.722656 49.1875 C 70.417969 48.753906 69.566406 49.003906 69.246094 49.625 C 68.6875 50.714844 68.746094 50.703125 62.804688 50.703125 C 57.164062 50.703125 57.386719 50.730469 56.945312 50.007812 C 56.496094 49.273438 56.613281 49.128906 61.023438 44.808594 C 65.558594 40.363281 65.417969 40.472656 66.125 40.816406 M 75.925781 41.164062 C 76.582031 41.472656 76.574219 41.429688 76.546875 46.148438 C 76.511719 51.476562 76.53125 51.550781 77.855469 51.703125 C 78.738281 51.800781 78.960938 52.050781 79.28125 53.304688 C 79.644531 54.710938 79.28125 54.976562 77 54.976562 C 74.285156 54.976562 74.472656 55.507812 74.472656 47.871094 C 74.472656 44.597656 74.503906 41.796875 74.546875 41.652344 C 74.695312 41.121094 75.347656 40.886719 75.925781 41.164062 M 101.097656 41.335938 C 101.578125 41.742188 101.601562 41.976562 101.601562 46.515625 C 101.601562 51.601562 101.59375 51.566406 102.808594 51.726562 C 103.742188 51.847656 104.175781 52.402344 104.269531 53.605469 C 104.367188 54.851562 104.179688 54.960938 102.003906 54.9375 C 99.324219 54.914062 99.535156 55.515625 99.535156 47.921875 C 99.535156 44.671875 99.570312 41.894531 99.609375 41.753906 C 99.792969 41.101562 100.5625 40.886719 101.097656 41.335938 M 97.0625 41.992188 C 97.3125 42.453125 97.324219 53.71875 97.070312 54.273438 C 96.765625 54.949219 97.023438 54.917969 91.371094 54.933594 C 84.847656 54.953125 85.226562 55.082031 85.226562 52.867188 C 85.226562 51.109375 85.726562 50.191406 86.832031 49.933594 C 87.828125 49.699219 88.015625 49.527344 88.636719 48.273438 C 89.117188 47.292969 89.367188 47.101562 89.957031 47.261719 C 90.5 47.410156 90.59375 47.683594 90.652344 49.261719 C 90.703125 50.761719 90.804688 51.097656 91.238281 51.234375 C 91.785156 51.410156 91.894531 50.847656 91.898438 47.855469 L 91.902344 45.4375 L 92.152344 45.136719 C 92.453125 44.78125 93.085938 44.4375 93.367188 44.480469 C 93.890625 44.558594 93.960938 44.941406 94.015625 48.015625 C 94.066406 50.988281 94.109375 51.28125 94.5 51.28125 C 95.03125 51.28125 95.070312 50.980469 95.070312 46.976562 C 95.070312 42.71875 95.082031 42.621094 95.730469 42.046875 C 96.457031 41.40625 96.734375 41.394531 97.0625 41.992188 M 52.132812 56.039062 C 52.507812 56.355469 52.574219 56.582031 52.390625 56.933594 C 51.945312 57.796875 51.121094 57.824219 50.609375 56.996094 C 50.097656 56.167969 51.351562 55.378906 52.132812 56.039062 "/>
<path style=" stroke:none;fill-rule:evenodd;fill:rgb(82.352942%,18.431373%,15.294118%);fill-opacity:1;" d="M 8.953125 9.691406 C 8.582031 9.734375 8.378906 9.824219 8.1875 10.015625 L 7.921875 10.28125 L 7.875 22.976562 C 7.832031 34.683594 7.839844 35.722656 7.988281 36.300781 C 8.078125 36.644531 8.152344 36.835938 8.15625 36.722656 C 8.160156 36.613281 8.273438 36.421875 8.410156 36.292969 L 8.660156 36.058594 L 73.476562 36.035156 C 131.320312 36.015625 138.324219 36.027344 138.574219 36.15625 C 138.730469 36.238281 138.882812 36.410156 138.917969 36.542969 C 139.007812 36.902344 139.089844 36.832031 139.222656 36.277344 C 139.320312 35.882812 139.34375 33.003906 139.339844 23.152344 C 139.335938 9.0625 139.386719 10.144531 138.695312 9.789062 C 138.414062 9.644531 10.125 9.546875 8.953125 9.691406 "/>
<path style=" stroke:none;fill-rule:evenodd;fill:rgb(17.647059%,60.392159%,39.215687%);fill-opacity:1;" d="M 7.523438 36.082031 C 7.355469 36.515625 7.347656 37.144531 7.347656 49.070312 C 7.347656 63.144531 7.289062 62.011719 8.046875 62.59375 L 8.386719 62.851562 L 73.449219 62.875 L 138.511719 62.902344 L 138.917969 62.703125 C 139.140625 62.59375 139.449219 62.347656 139.597656 62.152344 L 139.867188 61.796875 L 139.894531 49.1875 L 139.917969 36.582031 L 139.710938 36.097656 C 139.46875 35.539062 139.402344 35.570312 139.203125 36.34375 C 139.070312 36.847656 139.050781 38.410156 139.050781 49.195312 L 139.050781 61.472656 L 138.773438 61.753906 L 138.492188 62.035156 L 8.652344 62.035156 L 8.113281 61.574219 L 8.0625 48.910156 C 8.003906 35.277344 7.988281 34.878906 7.523438 36.082031 M 65.214844 40.820312 C 65.035156 40.929688 63.148438 42.722656 61.023438 44.808594 C 56.613281 49.128906 56.496094 49.273438 56.945312 50.007812 C 57.386719 50.730469 57.164062 50.703125 62.804688 50.703125 C 68.746094 50.703125 68.6875 50.714844 69.246094 49.625 C 69.566406 49.003906 70.417969 48.753906 70.722656 49.1875 C 71.089844 49.710938 70.835938 51.230469 70.34375 51.453125 C 69.921875 51.644531 55.464844 51.628906 55.171875 51.433594 C 54.832031 51.210938 54.628906 50.765625 54.539062 50.039062 C 54.335938 48.386719 52.613281 48.625 52.386719 50.335938 C 52.152344 52.097656 49.375 52.171875 48.105469 50.457031 C 47.574219 49.734375 47.261719 49.703125 46.492188 50.292969 C 45.75 50.859375 45.683594 51.480469 46.265625 52.386719 C 47.175781 53.789062 47.101562 55.039062 46.050781 56.042969 C 45.335938 56.722656 45.179688 57.523438 45.757812 57.523438 C 46.519531 57.523438 47.558594 56.949219 48.472656 56.027344 C 49.492188 54.996094 49.652344 54.933594 50.800781 55.097656 C 51.261719 55.164062 51.691406 55.171875 52 55.113281 C 52.265625 55.066406 56.800781 55.015625 62.082031 55.003906 C 72.949219 54.972656 72.136719 55.035156 72.546875 54.207031 C 72.953125 53.382812 72.859375 49.480469 72.410156 48.546875 C 71.578125 46.832031 69.300781 46.574219 67.871094 48.03125 C 66.898438 49.023438 67.113281 48.976562 63.832031 48.976562 C 60.773438 48.976562 60.402344 48.925781 60.402344 48.5 C 60.402344 48.335938 64.601562 44.042969 66.042969 42.730469 C 66.898438 41.949219 66.929688 41.207031 66.125 40.816406 C 65.628906 40.574219 65.617188 40.574219 65.214844 40.820312 M 74.929688 41.195312 C 74.46875 41.476562 74.472656 41.449219 74.472656 47.871094 C 74.472656 55.507812 74.285156 54.976562 77 54.976562 C 79.28125 54.976562 79.644531 54.710938 79.28125 53.304688 C 78.960938 52.050781 78.738281 51.800781 77.855469 51.703125 C 76.53125 51.550781 76.511719 51.476562 76.546875 46.148438 C 76.574219 41.429688 76.582031 41.472656 75.925781 41.164062 C 75.496094 40.957031 75.308594 40.964844 74.929688 41.195312 M 99.890625 41.296875 C 99.546875 41.617188 99.535156 41.796875 99.535156 47.921875 C 99.535156 55.515625 99.324219 54.914062 102.003906 54.9375 C 104.179688 54.960938 104.367188 54.851562 104.269531 53.605469 C 104.175781 52.402344 103.742188 51.847656 102.808594 51.726562 C 101.59375 51.566406 101.601562 51.601562 101.601562 46.515625 C 101.601562 41.976562 101.578125 41.742188 101.097656 41.335938 C 100.742188 41.039062 100.1875 41.019531 99.890625 41.296875 M 96.367188 41.582031 C 95.171875 42.039062 95.070312 42.46875 95.070312 46.976562 C 95.070312 50.980469 95.03125 51.28125 94.5 51.28125 C 94.109375 51.28125 94.066406 50.988281 94.015625 48.015625 C 93.960938 44.941406 93.890625 44.558594 93.367188 44.480469 C 93.085938 44.4375 92.453125 44.78125 92.152344 45.136719 L 91.902344 45.4375 L 91.898438 47.855469 C 91.894531 50.847656 91.785156 51.410156 91.238281 51.234375 C 90.804688 51.097656 90.703125 50.761719 90.652344 49.261719 C 90.59375 47.683594 90.5 47.410156 89.957031 47.261719 C 89.367188 47.101562 89.117188 47.292969 88.636719 48.273438 C 88.015625 49.527344 87.828125 49.699219 86.832031 49.933594 C 85.726562 50.191406 85.226562 51.109375 85.226562 52.867188 C 85.226562 55.082031 84.847656 54.953125 91.371094 54.933594 C 97.023438 54.917969 96.765625 54.949219 97.070312 54.273438 C 97.324219 53.71875 97.3125 42.453125 97.0625 41.992188 C 96.859375 41.621094 96.625 41.484375 96.367188 41.582031 M 50.757812 56.117188 C 50.363281 56.492188 50.347656 56.574219 50.609375 56.996094 C 51.121094 57.824219 51.945312 57.796875 52.390625 56.933594 C 52.839844 56.066406 51.515625 55.402344 50.757812 56.117188 "/>
<path style=" stroke:none;fill-rule:evenodd;fill:rgb(0%,0%,0%);fill-opacity:1;" d="M 5.1875 3.46875 C 5.058594 3.519531 4.820312 3.660156 4.660156 3.785156 C 4.5 3.90625 4.199219 4.035156 3.992188 4.074219 C 3.023438 4.253906 2.605469 4.597656 2.265625 5.507812 L 2.015625 6.167969 L 2.015625 49.082031 C 2.015625 81.058594 2.042969 92.109375 2.128906 92.453125 C 2.320312 93.257812 2.488281 93.539062 2.875 93.710938 C 3.246094 93.878906 3.554688 94.132812 3.554688 94.273438 C 3.554688 94.398438 4.125 94.671875 4.609375 94.777344 C 5.265625 94.921875 141.914062 94.914062 142.640625 94.769531 C 143.074219 94.679688 143.246094 94.589844 143.488281 94.3125 C 143.65625 94.121094 143.96875 93.875 144.183594 93.765625 C 144.496094 93.605469 144.609375 93.472656 144.753906 93.09375 C 144.855469 92.835938 145.054688 92.363281 145.199219 92.046875 C 145.34375 91.726562 145.511719 91.238281 145.570312 90.960938 C 145.730469 90.210938 145.710938 7.664062 145.550781 7.234375 C 145.488281 7.066406 145.339844 6.816406 145.222656 6.679688 C 145.105469 6.542969 145.007812 6.351562 145.007812 6.253906 C 145.007812 6.050781 144.679688 4.996094 144.53125 4.71875 C 144.394531 4.460938 143.714844 4.152344 143.113281 4.074219 C 142.804688 4.035156 142.550781 3.9375 142.445312 3.820312 C 142.351562 3.71875 142.125 3.570312 141.949219 3.496094 C 141.546875 3.328125 5.609375 3.300781 5.1875 3.46875 M 138.691406 9.785156 C 139.339844 10.117188 139.289062 9.074219 139.339844 22.953125 L 139.386719 35.484375 L 139.917969 36.5625 L 139.894531 49.179688 L 139.867188 61.796875 L 139.597656 62.152344 C 139.449219 62.347656 139.140625 62.59375 138.917969 62.703125 L 138.511719 62.902344 L 73.449219 62.875 L 8.386719 62.851562 L 8.046875 62.59375 C 7.289062 62.011719 7.347656 63.148438 7.347656 49.023438 L 7.347656 36.445312 L 7.585938 35.964844 L 7.828125 35.484375 L 7.921875 10.28125 L 8.1875 10.015625 C 8.378906 9.824219 8.582031 9.734375 8.953125 9.691406 C 10.113281 9.550781 138.414062 9.644531 138.691406 9.785156 "/>
</g>
</svg>
