<?xml version="1.0" encoding="UTF-8"?>
<svg xmlns="http://www.w3.org/2000/svg" xmlns:xlink="http://www.w3.org/1999/xlink" width="150px" height="150px" viewBox="0 0 150 90" version="1.1">
<g id="surface1">
<path style=" stroke:none;fill-rule:evenodd;fill:rgb(86.274511%,6.666667%,7.058824%);fill-opacity:1;" d="M 3.34375 64.859375 C 3.195312 64.945312 3.1875 65.582031 3.1875 76.175781 L 3.1875 87.398438 L 147.527344 87.398438 L 147.527344 76.175781 C 147.527344 65.167969 147.523438 64.949219 147.355469 64.855469 C 147.113281 64.726562 3.566406 64.730469 3.34375 64.859375 "/>
<path style=" stroke:none;fill-rule:evenodd;fill:rgb(13.725491%,62.352943%,25.098041%);fill-opacity:1;" d="M 3.210938 2.394531 C 3.121094 2.429688 3.101562 5.125 3.117188 15.523438 C 3.128906 22.722656 3.152344 27.9375 3.164062 27.113281 C 3.1875 25.964844 3.21875 25.605469 3.3125 25.570312 C 3.40625 25.535156 146.929688 25.464844 147.414062 25.503906 C 147.496094 25.507812 147.53125 25.914062 147.550781 27.058594 C 147.566406 27.910156 147.585938 22.722656 147.597656 15.527344 C 147.617188 3.667969 147.605469 2.4375 147.476562 2.390625 C 147.308594 2.324219 3.371094 2.328125 3.210938 2.394531 M 3.054688 45 C 3.054688 54.019531 3.0625 57.707031 3.074219 53.199219 C 3.089844 48.691406 3.089844 41.3125 3.074219 36.804688 C 3.0625 32.296875 3.054688 35.984375 3.054688 45 M 147.664062 44.914062 C 147.664062 53.828125 147.671875 57.476562 147.6875 53.019531 C 147.699219 48.558594 147.699219 41.265625 147.6875 36.804688 C 147.671875 32.347656 147.664062 35.996094 147.664062 44.914062 "/>
<path style=" stroke:none;fill-rule:evenodd;fill:rgb(1.568628%,1.568628%,1.568628%);fill-opacity:1;" d="M 0.5 44.914062 L 0.5 89.824219 L 149.5 89.824219 L 149.5 0 L 0.5 0 L 0.5 44.914062 M 147.523438 2.417969 C 147.664062 2.511719 147.726562 87.148438 147.585938 87.378906 C 147.488281 87.539062 3.230469 87.539062 3.132812 87.378906 C 2.988281 87.148438 3.050781 2.511719 3.191406 2.417969 C 3.367188 2.308594 147.351562 2.308594 147.523438 2.417969 "/>
<path style=" stroke:none;fill-rule:evenodd;fill:rgb(48.235294%,77.254903%,54.901963%);fill-opacity:1;" d="M 68.445312 25.511719 C 32.609375 25.535156 3.257812 25.589844 3.21875 25.628906 C 3.175781 25.671875 3.140625 33.734375 3.140625 43.550781 L 3.136719 61.394531 L 3.164062 45.035156 L 3.1875 28.675781 L 3.390625 28.621094 C 3.652344 28.550781 147.0625 28.550781 147.328125 28.621094 L 147.527344 28.675781 L 147.582031 61.394531 L 147.578125 43.492188 C 147.574219 27.683594 147.558594 25.582031 147.4375 25.507812 C 147.355469 25.457031 144.652344 25.429688 140.449219 25.445312 C 136.679688 25.457031 104.277344 25.484375 68.445312 25.511719 "/>
<path style=" stroke:none;fill-rule:evenodd;fill:rgb(100%,100%,100%);fill-opacity:1;" d="M 3.34375 28.625 C 3.195312 28.664062 3.1875 29.5 3.210938 45.03125 L 3.234375 61.394531 L 147.484375 61.394531 L 147.53125 28.675781 L 147.328125 28.621094 C 147.09375 28.558594 3.582031 28.5625 3.34375 28.625 M 78.089844 33.621094 C 78.085938 34.035156 78.042969 34.234375 77.910156 34.402344 C 77.816406 34.527344 77.734375 34.691406 77.734375 34.773438 C 77.730469 35.089844 77.289062 35.25 76.34375 35.273438 C 75.851562 35.285156 75.433594 35.296875 75.414062 35.296875 C 75.320312 35.308594 75.832031 35.644531 75.984375 35.671875 C 76.085938 35.691406 76.175781 35.792969 76.191406 35.898438 C 76.207031 36 76.316406 36.179688 76.4375 36.292969 C 76.703125 36.542969 76.71875 37.402344 76.5625 44.6875 C 76.449219 50.105469 76.472656 53.066406 76.628906 52.71875 C 76.6875 52.585938 76.898438 52.40625 77.121094 52.300781 C 77.558594 52.089844 77.96875 51.691406 78.015625 51.425781 C 78.035156 51.328125 78.121094 51.234375 78.210938 51.214844 C 78.429688 51.171875 78.980469 50.566406 78.984375 50.367188 C 78.988281 50.164062 79.34375 49.671875 79.488281 49.671875 C 79.613281 49.671875 79.882812 49.285156 79.882812 49.097656 C 79.882812 49.027344 79.980469 48.773438 80.097656 48.535156 C 80.214844 48.296875 80.335938 47.945312 80.371094 47.753906 C 80.414062 47.519531 80.488281 47.394531 80.605469 47.363281 C 80.703125 47.335938 80.796875 47.230469 80.820312 47.125 C 80.882812 46.808594 80.949219 46.425781 81.046875 45.765625 C 81.101562 45.417969 81.183594 44.964844 81.230469 44.753906 C 81.339844 44.261719 81.34375 42.625 81.230469 42.269531 C 81.183594 42.117188 81.101562 41.589844 81.050781 41.09375 C 80.859375 39.3125 80.859375 39.324219 80.683594 39.277344 C 80.527344 39.238281 80.390625 38.894531 80.1875 38.039062 C 80.152344 37.890625 80.070312 37.691406 80.003906 37.59375 C 79.9375 37.496094 79.882812 37.332031 79.882812 37.226562 C 79.882812 36.949219 79.621094 36.46875 79.472656 36.46875 C 79.34375 36.46875 79.167969 36.128906 79.167969 35.878906 C 79.167969 35.691406 79.605469 35.714844 79.675781 35.90625 C 79.707031 35.992188 79.90625 36.253906 80.121094 36.488281 C 80.335938 36.71875 80.511719 36.992188 80.511719 37.09375 C 80.511719 37.210938 80.570312 37.277344 80.675781 37.277344 C 80.851562 37.277344 81.40625 37.980469 81.40625 38.207031 C 81.40625 38.4375 81.710938 38.894531 81.867188 38.894531 C 82.023438 38.894531 82.121094 39.070312 82.121094 39.335938 C 82.121094 39.425781 82.222656 39.6875 82.347656 39.917969 C 82.46875 40.152344 82.570312 40.472656 82.570312 40.632812 C 82.570312 40.792969 82.628906 41.003906 82.703125 41.101562 C 82.773438 41.195312 82.835938 41.464844 82.835938 41.699219 C 82.839844 42.066406 82.867188 42.128906 83.015625 42.128906 C 83.128906 42.128906 83.210938 42.203125 83.238281 42.328125 C 83.390625 43.0625 83.449219 45.46875 83.339844 46.527344 C 83.246094 47.417969 83.214844 47.515625 83.015625 47.515625 C 82.867188 47.515625 82.839844 47.578125 82.839844 47.902344 C 82.839844 48.113281 82.785156 48.363281 82.71875 48.460938 C 82.652344 48.558594 82.566406 48.800781 82.53125 49 C 82.496094 49.195312 82.367188 49.554688 82.25 49.792969 C 82.128906 50.03125 82.035156 50.304688 82.035156 50.398438 C 82.035156 50.496094 81.972656 50.570312 81.890625 50.570312 C 81.738281 50.570312 81.414062 50.910156 81.410156 51.078125 C 81.40625 51.132812 81.34375 51.226562 81.273438 51.289062 C 81.199219 51.351562 81.136719 51.476562 81.136719 51.570312 C 81.136719 51.757812 80.796875 52.1875 80.648438 52.1875 C 80.507812 52.1875 80.242188 52.519531 80.242188 52.695312 C 80.242188 52.855469 79.660156 53.445312 79.496094 53.449219 C 79.332031 53.453125 78.988281 53.773438 78.988281 53.921875 C 78.988281 54.070312 78.496094 54.523438 78.335938 54.523438 C 78.148438 54.523438 77.644531 54.929688 77.644531 55.082031 C 77.644531 55.285156 78.125 55.425781 79.03125 55.484375 C 79.425781 55.511719 79.828125 55.578125 79.929688 55.632812 C 80.027344 55.6875 80.683594 55.753906 81.382812 55.777344 C 82.625 55.824219 82.976562 55.925781 82.40625 56.070312 C 82.261719 56.109375 82.125 56.214844 82.097656 56.308594 C 82.039062 56.542969 80.554688 56.636719 78.207031 56.558594 L 76.484375 56.5 L 76.285156 56.769531 C 76.175781 56.917969 76.027344 57.039062 75.953125 57.039062 C 75.765625 57.039062 75.492188 57.304688 75.492188 57.488281 C 75.492188 57.734375 75.179688 57.964844 74.984375 57.859375 C 74.894531 57.808594 74.75 57.75 74.664062 57.722656 C 74.578125 57.695312 74.507812 57.601562 74.503906 57.511719 C 74.503906 57.425781 74.324219 57.167969 74.109375 56.9375 L 73.714844 56.523438 L 71.175781 56.535156 C 68.480469 56.546875 68.195312 56.515625 68.121094 56.230469 C 68.089844 56.109375 68 56.050781 67.847656 56.050781 C 67.546875 56.050781 67.328125 55.960938 67.390625 55.859375 C 67.417969 55.816406 67.929688 55.777344 68.53125 55.777344 C 69.132812 55.773438 69.804688 55.730469 70.027344 55.679688 C 70.25 55.625 70.734375 55.554688 71.101562 55.515625 C 71.914062 55.4375 73.023438 54.972656 72.40625 54.972656 C 72.332031 54.972656 72.054688 54.792969 71.789062 54.578125 C 71.523438 54.359375 71.230469 54.167969 71.136719 54.148438 C 71.046875 54.132812 70.957031 54.042969 70.9375 53.953125 C 70.898438 53.75 70.261719 53.15625 69.972656 53.054688 C 69.847656 53.011719 69.757812 52.910156 69.757812 52.808594 C 69.757812 52.710938 69.628906 52.488281 69.46875 52.3125 C 69.308594 52.136719 69.144531 51.933594 69.105469 51.867188 C 69.066406 51.796875 68.953125 51.738281 68.859375 51.738281 C 68.753906 51.738281 68.683594 51.675781 68.683594 51.589844 C 68.683594 51.511719 68.5625 51.246094 68.414062 51.007812 C 68.265625 50.765625 68.144531 50.507812 68.144531 50.4375 C 68.144531 50.195312 67.78125 49.601562 67.605469 49.554688 C 67.484375 49.523438 67.429688 49.433594 67.429688 49.273438 C 67.429688 49.140625 67.375 48.925781 67.304688 48.792969 C 67.238281 48.660156 67.113281 48.167969 67.03125 47.695312 C 66.945312 47.226562 66.839844 46.671875 66.796875 46.464844 C 66.683594 45.960938 66.695312 43.53125 66.808594 43.027344 C 66.859375 42.804688 66.9375 42.378906 66.984375 42.082031 C 67.058594 41.570312 67.234375 40.78125 67.40625 40.195312 C 67.457031 40.019531 67.554688 39.917969 67.679688 39.898438 C 67.832031 39.875 67.878906 39.808594 67.878906 39.613281 C 67.878906 39.472656 67.9375 39.296875 68.011719 39.222656 C 68.085938 39.148438 68.148438 39.03125 68.148438 38.96875 C 68.148438 38.902344 68.210938 38.769531 68.28125 38.675781 C 68.355469 38.578125 68.414062 38.425781 68.414062 38.335938 C 68.414062 38.105469 68.675781 37.726562 68.835938 37.726562 C 69.003906 37.726562 69.304688 37.371094 69.308594 37.164062 C 69.3125 36.949219 69.835938 36.378906 70.027344 36.378906 C 70.210938 36.378906 70.445312 36.128906 70.488281 35.890625 C 70.503906 35.796875 70.570312 35.703125 70.632812 35.683594 C 70.820312 35.617188 70.761719 36.074219 70.519531 36.503906 C 70.398438 36.726562 70.296875 37.015625 70.296875 37.144531 C 70.296875 37.308594 70.238281 37.398438 70.117188 37.429688 C 69.90625 37.484375 69.578125 38.164062 69.578125 38.539062 C 69.578125 38.679688 69.539062 38.820312 69.488281 38.847656 C 69.441406 38.878906 69.398438 39.039062 69.398438 39.203125 C 69.398438 39.367188 69.339844 39.644531 69.265625 39.824219 C 69.191406 40 69.132812 40.296875 69.128906 40.484375 C 69.128906 40.980469 69.046875 41.207031 68.855469 41.257812 C 68.535156 41.339844 68.59375 45.808594 68.910156 45.808594 C 68.984375 45.808594 69.058594 45.949219 69.089844 46.148438 C 69.125 46.332031 69.191406 46.644531 69.238281 46.84375 C 69.285156 47.039062 69.347656 47.3125 69.371094 47.449219 C 69.398438 47.585938 69.457031 47.722656 69.5 47.746094 C 69.542969 47.773438 69.578125 47.886719 69.578125 47.996094 C 69.578125 48.292969 69.914062 48.894531 70.117188 48.972656 C 70.214844 49.007812 70.296875 49.121094 70.296875 49.222656 C 70.296875 49.320312 70.417969 49.570312 70.566406 49.777344 C 70.714844 49.980469 70.835938 50.214844 70.835938 50.292969 C 70.839844 50.492188 71.050781 50.75 71.210938 50.75 C 71.363281 50.75 71.910156 51.324219 71.910156 51.484375 C 71.910156 51.632812 72.273438 52.007812 72.417969 52.007812 C 72.597656 52.007812 73.164062 52.550781 73.164062 52.726562 C 73.164062 52.902344 73.550781 53.136719 73.691406 53.046875 C 73.925781 52.902344 73.804688 48.234375 73.566406 48.234375 C 73.425781 48.234375 73.316406 43.375 73.359375 39.078125 L 73.386719 36.253906 L 73.679688 36.179688 C 73.855469 36.132812 73.96875 36.046875 73.96875 35.957031 C 73.96875 35.765625 74.546875 35.210938 74.75 35.210938 C 74.839844 35.210938 74.972656 35.167969 75.042969 35.121094 C 75.144531 35.054688 75.097656 35.035156 74.859375 35.03125 C 74.6875 35.03125 74.496094 35.078125 74.441406 35.132812 C 74.269531 35.308594 73.058594 35.34375 72.707031 35.1875 C 72.539062 35.113281 72.332031 35.027344 72.246094 35 C 72.160156 34.96875 72.089844 34.882812 72.089844 34.800781 C 72.089844 34.71875 72 34.53125 71.894531 34.378906 C 71.667969 34.0625 71.554688 33.207031 71.726562 33.101562 C 71.839844 33.03125 72.265625 33.378906 72.265625 33.546875 C 72.265625 33.714844 73.191406 33.980469 73.554688 33.917969 C 73.734375 33.890625 74.019531 33.839844 74.1875 33.808594 C 74.414062 33.769531 74.503906 33.703125 74.523438 33.5625 C 74.566406 33.257812 75.191406 33.230469 75.304688 33.53125 C 75.445312 33.894531 77.316406 33.957031 77.441406 33.601562 C 77.515625 33.386719 77.929688 32.964844 78.015625 33.019531 C 78.058594 33.042969 78.089844 33.316406 78.089844 33.621094 M 69.488281 35.5625 C 69.488281 35.609375 69.410156 35.671875 69.316406 35.703125 C 69.21875 35.734375 69.128906 35.847656 69.113281 35.957031 C 69.097656 36.066406 69.007812 36.167969 68.90625 36.1875 C 68.675781 36.230469 68 36.910156 67.953125 37.140625 C 67.933594 37.246094 67.835938 37.332031 67.722656 37.351562 C 67.5 37.382812 66.980469 37.988281 66.980469 38.214844 C 66.980469 38.429688 66.714844 38.804688 66.558594 38.804688 C 66.390625 38.804688 66.09375 39.160156 66.089844 39.371094 C 66.085938 39.460938 65.984375 39.714844 65.859375 39.933594 C 65.738281 40.15625 65.636719 40.414062 65.636719 40.507812 C 65.636719 40.796875 65.535156 40.960938 65.355469 40.960938 C 65.238281 40.960938 65.167969 41.042969 65.128906 41.230469 C 65.101562 41.378906 65.042969 41.523438 65 41.550781 C 64.957031 41.578125 64.921875 41.714844 64.921875 41.859375 C 64.921875 42 64.875 42.230469 64.816406 42.367188 C 64.40625 43.375 64.417969 47.292969 64.835938 48.863281 C 64.894531 49.085938 64.988281 49.445312 65.042969 49.660156 C 65.113281 49.929688 65.207031 50.078125 65.347656 50.128906 C 65.457031 50.171875 65.546875 50.277344 65.546875 50.367188 C 65.546875 50.453125 65.648438 50.726562 65.773438 50.96875 C 65.894531 51.210938 65.996094 51.449219 65.996094 51.496094 C 65.996094 51.738281 66.398438 52.359375 66.570312 52.386719 C 66.691406 52.402344 66.769531 52.488281 66.789062 52.632812 C 66.804688 52.753906 66.914062 52.976562 67.035156 53.132812 C 67.378906 53.585938 67.15625 54.011719 66.800781 53.582031 C 66.742188 53.507812 66.585938 53.445312 66.453125 53.445312 C 66.175781 53.441406 65.546875 52.925781 65.546875 52.699219 C 65.546875 52.609375 65.476562 52.546875 65.378906 52.546875 C 65.15625 52.546875 64.503906 51.792969 64.4375 51.457031 C 64.402344 51.285156 64.308594 51.167969 64.152344 51.105469 C 64.023438 51.058594 63.898438 50.9375 63.871094 50.839844 C 63.84375 50.742188 63.789062 50.660156 63.746094 50.660156 C 63.703125 50.660156 63.664062 50.566406 63.664062 50.449219 C 63.664062 50.332031 63.566406 50.046875 63.441406 49.816406 C 63.320312 49.585938 63.21875 49.320312 63.21875 49.226562 C 63.21875 48.964844 63.121094 48.773438 62.988281 48.773438 C 62.816406 48.773438 62.679688 48.484375 62.679688 48.125 C 62.679688 47.957031 62.644531 47.785156 62.601562 47.738281 C 61.972656 47.054688 62.28125 41.25 62.957031 41.074219 C 63.050781 41.046875 63.152344 40.921875 63.179688 40.792969 C 63.246094 40.480469 63.394531 40.167969 63.628906 39.835938 C 63.734375 39.6875 63.847656 39.453125 63.882812 39.316406 C 63.914062 39.179688 64.007812 39.042969 64.09375 39.011719 C 64.328125 38.929688 64.832031 38.425781 64.832031 38.277344 C 64.832031 38.105469 65.09375 37.816406 65.25 37.816406 C 65.457031 37.816406 66.160156 37.246094 66.191406 37.050781 C 66.210938 36.9375 66.300781 36.863281 66.441406 36.84375 C 66.566406 36.824219 66.726562 36.757812 66.800781 36.695312 C 67.054688 36.472656 67.5625 36.226562 67.898438 36.164062 C 68.148438 36.117188 68.234375 36.054688 68.234375 35.929688 C 68.234375 35.804688 68.347656 35.726562 68.660156 35.628906 C 69.167969 35.472656 69.488281 35.449219 69.488281 35.5625 M 81.207031 35.5625 C 81.292969 35.609375 81.433594 35.667969 81.519531 35.695312 C 81.605469 35.722656 81.675781 35.828125 81.675781 35.925781 C 81.675781 36.0625 81.734375 36.109375 81.898438 36.109375 C 82.101562 36.109375 82.394531 36.234375 83.378906 36.738281 C 83.550781 36.824219 83.707031 36.96875 83.722656 37.058594 C 83.765625 37.269531 84.09375 37.539062 84.3125 37.542969 C 84.539062 37.546875 85.167969 38.160156 85.167969 38.375 C 85.167969 38.472656 85.234375 38.535156 85.34375 38.535156 C 85.4375 38.535156 85.609375 38.667969 85.71875 38.828125 C 85.832031 38.988281 85.976562 39.171875 86.039062 39.238281 C 86.101562 39.300781 86.15625 39.410156 86.15625 39.476562 C 86.15625 39.703125 86.46875 40.148438 86.625 40.152344 C 86.71875 40.152344 86.800781 40.246094 86.832031 40.398438 C 86.886719 40.652344 87.003906 40.964844 87.15625 41.261719 C 87.507812 41.941406 87.710938 45.113281 87.496094 46.617188 C 87.308594 47.953125 87.261719 48.199219 87.160156 48.386719 C 87.097656 48.496094 87.050781 48.667969 87.050781 48.769531 C 87.050781 48.871094 87.011719 48.953125 86.960938 48.953125 C 86.910156 48.953125 86.871094 49.050781 86.871094 49.171875 C 86.871094 49.503906 86.777344 49.679688 86.550781 49.765625 C 86.410156 49.820312 86.324219 49.945312 86.285156 50.160156 C 86.253906 50.332031 86.101562 50.667969 85.953125 50.90625 C 85.804688 51.140625 85.652344 51.4375 85.621094 51.558594 C 85.585938 51.683594 85.488281 51.796875 85.402344 51.8125 C 85.203125 51.851562 84.613281 52.496094 84.511719 52.78125 C 84.460938 52.929688 84.367188 52.996094 84.222656 52.996094 C 84.101562 52.996094 84.003906 53.027344 84.003906 53.066406 C 84.003906 53.210938 83.109375 53.714844 82.84375 53.714844 C 82.445312 53.714844 82.59375 53.214844 83.042969 53.058594 C 83.128906 53.027344 83.199219 52.925781 83.199219 52.828125 C 83.199219 52.734375 83.355469 52.421875 83.546875 52.128906 C 83.742188 51.839844 83.914062 51.484375 83.929688 51.335938 C 83.949219 51.148438 84.015625 51.054688 84.140625 51.039062 C 84.335938 51.007812 84.628906 50.464844 84.632812 50.113281 C 84.636719 49.996094 84.695312 49.820312 84.769531 49.722656 C 84.839844 49.628906 84.898438 49.417969 84.898438 49.257812 C 84.898438 49.097656 84.933594 48.941406 84.976562 48.917969 C 85.019531 48.890625 85.082031 48.625 85.117188 48.328125 C 85.167969 47.886719 85.207031 47.785156 85.339844 47.785156 C 85.742188 47.785156 85.746094 43.371094 85.34375 43.269531 C 85.21875 43.234375 85.167969 43.097656 85.117188 42.675781 C 85.082031 42.371094 85.019531 42.101562 84.976562 42.074219 C 84.933594 42.046875 84.898438 41.917969 84.898438 41.785156 C 84.894531 41.652344 84.835938 41.441406 84.765625 41.320312 C 84.695312 41.195312 84.636719 40.996094 84.632812 40.875 C 84.628906 40.527344 84.335938 39.984375 84.140625 39.953125 C 84.019531 39.9375 83.949219 39.84375 83.929688 39.675781 C 83.914062 39.535156 83.742188 39.195312 83.550781 38.917969 C 83.355469 38.640625 83.199219 38.339844 83.199219 38.25 C 83.199219 38.144531 83.132812 38.085938 83.019531 38.085938 C 82.921875 38.085938 82.839844 38.050781 82.839844 38.011719 C 82.839844 37.972656 82.699219 37.773438 82.527344 37.570312 C 82.355469 37.367188 82.210938 37.15625 82.210938 37.097656 C 82.210938 36.960938 81.984375 36.738281 81.839844 36.734375 C 81.65625 36.730469 80.957031 36.058594 80.957031 35.894531 C 80.957031 35.800781 80.855469 35.726562 80.691406 35.691406 C 80.542969 35.660156 80.421875 35.601562 80.421875 35.558594 C 80.421875 35.453125 81.007812 35.457031 81.207031 35.5625 "/>
<path style=" stroke:none;fill-rule:evenodd;fill:rgb(91.37255%,40.000001%,40.392157%);fill-opacity:1;" d="M 77.714844 33.214844 C 77.589844 33.351562 77.46875 33.523438 77.441406 33.601562 C 77.316406 33.957031 75.445312 33.894531 75.304688 33.53125 C 75.191406 33.230469 74.566406 33.257812 74.523438 33.5625 C 74.503906 33.703125 74.414062 33.769531 74.1875 33.808594 C 74.019531 33.839844 73.734375 33.890625 73.554688 33.917969 C 73.191406 33.980469 72.265625 33.714844 72.265625 33.546875 C 72.265625 33.378906 71.839844 33.03125 71.726562 33.101562 C 71.554688 33.207031 71.667969 34.0625 71.894531 34.378906 C 72 34.53125 72.089844 34.71875 72.089844 34.800781 C 72.089844 34.882812 72.160156 34.96875 72.246094 35 C 72.332031 35.027344 72.539062 35.113281 72.707031 35.1875 C 73.058594 35.34375 74.269531 35.308594 74.441406 35.132812 C 74.496094 35.078125 74.6875 35.03125 74.859375 35.03125 C 75.097656 35.035156 75.144531 35.054688 75.042969 35.121094 C 74.972656 35.167969 74.839844 35.210938 74.75 35.210938 C 74.546875 35.210938 73.96875 35.765625 73.96875 35.957031 C 73.96875 36.046875 73.855469 36.132812 73.679688 36.179688 L 73.386719 36.253906 L 73.359375 39.078125 C 73.316406 43.375 73.425781 48.234375 73.566406 48.234375 C 73.804688 48.234375 73.925781 52.902344 73.691406 53.046875 C 73.550781 53.136719 73.164062 52.902344 73.164062 52.726562 C 73.164062 52.550781 72.597656 52.007812 72.417969 52.007812 C 72.273438 52.007812 71.910156 51.632812 71.910156 51.484375 C 71.910156 51.324219 71.363281 50.75 71.210938 50.75 C 71.050781 50.75 70.839844 50.492188 70.835938 50.292969 C 70.835938 50.214844 70.714844 49.980469 70.566406 49.777344 C 70.417969 49.570312 70.296875 49.320312 70.296875 49.222656 C 70.296875 49.121094 70.214844 49.007812 70.117188 48.972656 C 69.914062 48.894531 69.578125 48.292969 69.578125 47.996094 C 69.578125 47.886719 69.542969 47.773438 69.5 47.746094 C 69.457031 47.722656 69.398438 47.585938 69.371094 47.449219 C 69.347656 47.3125 69.285156 47.039062 69.238281 46.84375 C 69.191406 46.644531 69.125 46.332031 69.089844 46.148438 C 69.058594 45.949219 68.984375 45.808594 68.910156 45.808594 C 68.59375 45.808594 68.535156 41.339844 68.855469 41.257812 C 69.046875 41.207031 69.128906 40.980469 69.128906 40.484375 C 69.132812 40.296875 69.191406 40 69.265625 39.824219 C 69.339844 39.644531 69.398438 39.367188 69.398438 39.203125 C 69.398438 39.039062 69.441406 38.878906 69.488281 38.847656 C 69.539062 38.820312 69.578125 38.679688 69.578125 38.539062 C 69.578125 38.164062 69.90625 37.484375 70.117188 37.429688 C 70.238281 37.398438 70.296875 37.308594 70.296875 37.144531 C 70.296875 37.015625 70.398438 36.726562 70.519531 36.503906 C 70.761719 36.074219 70.820312 35.617188 70.632812 35.683594 C 70.570312 35.703125 70.503906 35.796875 70.488281 35.890625 C 70.445312 36.128906 70.210938 36.378906 70.027344 36.378906 C 69.835938 36.378906 69.3125 36.949219 69.308594 37.164062 C 69.304688 37.371094 69.003906 37.726562 68.835938 37.726562 C 68.675781 37.726562 68.414062 38.105469 68.414062 38.335938 C 68.414062 38.425781 68.355469 38.578125 68.28125 38.675781 C 68.210938 38.769531 68.148438 38.902344 68.148438 38.96875 C 68.148438 39.03125 68.085938 39.148438 68.011719 39.222656 C 67.9375 39.296875 67.878906 39.472656 67.878906 39.613281 C 67.878906 39.808594 67.832031 39.875 67.679688 39.898438 C 67.554688 39.917969 67.457031 40.019531 67.40625 40.195312 C 67.234375 40.78125 67.058594 41.570312 66.984375 42.082031 C 66.9375 42.378906 66.859375 42.804688 66.808594 43.027344 C 66.695312 43.53125 66.683594 45.960938 66.796875 46.464844 C 66.839844 46.671875 66.945312 47.226562 67.03125 47.695312 C 67.113281 48.167969 67.238281 48.660156 67.304688 48.792969 C 67.375 48.925781 67.429688 49.140625 67.429688 49.273438 C 67.429688 49.433594 67.484375 49.523438 67.605469 49.554688 C 67.78125 49.601562 68.144531 50.195312 68.144531 50.4375 C 68.144531 50.507812 68.265625 50.765625 68.414062 51.007812 C 68.5625 51.246094 68.683594 51.511719 68.683594 51.589844 C 68.683594 51.675781 68.753906 51.738281 68.859375 51.738281 C 68.953125 51.738281 69.066406 51.796875 69.105469 51.867188 C 69.144531 51.933594 69.308594 52.136719 69.46875 52.3125 C 69.628906 52.488281 69.757812 52.710938 69.757812 52.808594 C 69.757812 52.910156 69.847656 53.011719 69.972656 53.054688 C 70.261719 53.15625 70.898438 53.75 70.9375 53.953125 C 70.957031 54.042969 71.046875 54.132812 71.136719 54.148438 C 71.230469 54.167969 71.523438 54.359375 71.789062 54.578125 C 72.054688 54.792969 72.332031 54.972656 72.40625 54.972656 C 73.023438 54.972656 71.914062 55.4375 71.101562 55.515625 C 70.734375 55.554688 70.25 55.625 70.027344 55.679688 C 69.804688 55.730469 69.132812 55.773438 68.53125 55.777344 C 67.929688 55.777344 67.417969 55.816406 67.390625 55.859375 C 67.328125 55.960938 67.546875 56.050781 67.847656 56.050781 C 68 56.050781 68.089844 56.109375 68.121094 56.230469 C 68.195312 56.515625 68.480469 56.546875 71.175781 56.535156 L 73.714844 56.523438 L 74.109375 56.9375 C 74.324219 57.167969 74.503906 57.425781 74.503906 57.511719 C 74.507812 57.601562 74.578125 57.695312 74.664062 57.722656 C 74.75 57.75 74.894531 57.808594 74.984375 57.859375 C 75.179688 57.964844 75.492188 57.734375 75.492188 57.488281 C 75.492188 57.304688 75.765625 57.039062 75.953125 57.039062 C 76.027344 57.039062 76.175781 56.917969 76.285156 56.769531 L 76.484375 56.5 L 78.207031 56.558594 C 80.554688 56.636719 82.039062 56.542969 82.097656 56.308594 C 82.125 56.214844 82.261719 56.109375 82.40625 56.070312 C 82.976562 55.925781 82.625 55.824219 81.382812 55.777344 C 80.683594 55.753906 80.027344 55.6875 79.929688 55.632812 C 79.828125 55.578125 79.425781 55.511719 79.03125 55.484375 C 78.125 55.425781 77.644531 55.285156 77.644531 55.082031 C 77.644531 54.929688 78.148438 54.523438 78.335938 54.523438 C 78.496094 54.523438 78.988281 54.070312 78.988281 53.921875 C 78.988281 53.773438 79.332031 53.453125 79.496094 53.449219 C 79.660156 53.445312 80.242188 52.855469 80.242188 52.695312 C 80.242188 52.519531 80.507812 52.1875 80.648438 52.1875 C 80.796875 52.1875 81.136719 51.757812 81.136719 51.570312 C 81.136719 51.476562 81.199219 51.351562 81.273438 51.289062 C 81.34375 51.226562 81.40625 51.132812 81.410156 51.078125 C 81.414062 50.910156 81.738281 50.570312 81.890625 50.570312 C 81.972656 50.570312 82.035156 50.496094 82.035156 50.398438 C 82.035156 50.304688 82.128906 50.03125 82.25 49.792969 C 82.367188 49.554688 82.496094 49.195312 82.53125 49 C 82.566406 48.800781 82.652344 48.558594 82.71875 48.460938 C 82.785156 48.363281 82.839844 48.113281 82.839844 47.902344 C 82.839844 47.578125 82.867188 47.515625 83.015625 47.515625 C 83.214844 47.515625 83.246094 47.417969 83.339844 46.527344 C 83.449219 45.46875 83.390625 43.0625 83.238281 42.328125 C 83.210938 42.203125 83.128906 42.128906 83.015625 42.128906 C 82.867188 42.128906 82.839844 42.066406 82.835938 41.699219 C 82.835938 41.464844 82.773438 41.195312 82.703125 41.101562 C 82.628906 41.003906 82.570312 40.792969 82.570312 40.632812 C 82.570312 40.472656 82.46875 40.152344 82.347656 39.917969 C 82.222656 39.6875 82.121094 39.425781 82.121094 39.335938 C 82.121094 39.070312 82.023438 38.894531 81.867188 38.894531 C 81.710938 38.894531 81.40625 38.4375 81.40625 38.207031 C 81.40625 37.980469 80.851562 37.277344 80.675781 37.277344 C 80.570312 37.277344 80.511719 37.210938 80.511719 37.09375 C 80.511719 36.992188 80.335938 36.71875 80.121094 36.488281 C 79.90625 36.253906 79.707031 35.992188 79.675781 35.90625 C 79.605469 35.714844 79.167969 35.691406 79.167969 35.878906 C 79.167969 36.128906 79.34375 36.46875 79.472656 36.46875 C 79.621094 36.46875 79.882812 36.949219 79.882812 37.226562 C 79.882812 37.332031 79.9375 37.496094 80.003906 37.59375 C 80.070312 37.691406 80.152344 37.890625 80.1875 38.039062 C 80.390625 38.894531 80.527344 39.238281 80.683594 39.277344 C 80.859375 39.324219 80.859375 39.3125 81.050781 41.09375 C 81.101562 41.589844 81.183594 42.117188 81.230469 42.269531 C 81.34375 42.625 81.339844 44.261719 81.230469 44.753906 C 81.183594 44.964844 81.101562 45.417969 81.046875 45.765625 C 80.949219 46.425781 80.882812 46.808594 80.820312 47.125 C 80.796875 47.230469 80.703125 47.335938 80.605469 47.363281 C 80.488281 47.394531 80.414062 47.519531 80.371094 47.753906 C 80.335938 47.945312 80.214844 48.296875 80.097656 48.535156 C 79.980469 48.773438 79.882812 49.027344 79.882812 49.097656 C 79.882812 49.285156 79.613281 49.671875 79.488281 49.671875 C 79.34375 49.671875 78.988281 50.164062 78.984375 50.367188 C 78.980469 50.566406 78.429688 51.171875 78.210938 51.214844 C 78.121094 51.234375 78.035156 51.328125 78.015625 51.425781 C 77.96875 51.691406 77.558594 52.089844 77.121094 52.300781 C 76.898438 52.40625 76.6875 52.585938 76.628906 52.71875 C 76.472656 53.066406 76.449219 50.105469 76.5625 44.6875 C 76.71875 37.402344 76.703125 36.542969 76.4375 36.292969 C 76.316406 36.179688 76.207031 36 76.191406 35.898438 C 76.175781 35.792969 76.085938 35.691406 75.984375 35.671875 C 75.832031 35.644531 75.320312 35.308594 75.414062 35.296875 C 75.433594 35.296875 75.851562 35.285156 76.34375 35.273438 C 77.289062 35.25 77.730469 35.089844 77.734375 34.773438 C 77.734375 34.691406 77.816406 34.527344 77.910156 34.402344 C 78.042969 34.234375 78.085938 34.035156 78.089844 33.621094 C 78.089844 32.964844 78.019531 32.886719 77.714844 33.214844 M 77.855469 34.136719 C 77.769531 34.332031 77.664062 34.492188 77.625 34.492188 C 77.585938 34.492188 77.554688 34.566406 77.554688 34.652344 C 77.554688 34.988281 77.238281 35.121094 76.445312 35.121094 C 75.664062 35.121094 75.132812 34.957031 75.132812 34.710938 C 75.132812 34.628906 75.039062 34.582031 74.867188 34.582031 C 74.691406 34.582031 74.597656 34.628906 74.597656 34.710938 C 74.597656 35.027344 72.9375 35.316406 72.761719 35.03125 C 72.730469 34.980469 72.605469 34.941406 72.484375 34.941406 C 72.328125 34.941406 72.265625 34.890625 72.265625 34.765625 C 72.265625 34.671875 72.226562 34.566406 72.175781 34.535156 C 72.035156 34.449219 71.820312 33.871094 71.820312 33.585938 C 71.820312 33.28125 72.0625 33.3125 72.105469 33.621094 C 72.125 33.75 72.21875 33.828125 72.402344 33.867188 C 72.550781 33.898438 72.757812 33.96875 72.867188 34.027344 C 73.132812 34.171875 73.800781 34.160156 74.015625 34.011719 C 74.289062 33.824219 75.101562 33.78125 75.710938 33.925781 C 76.238281 34.050781 76.5 34.046875 77.238281 33.890625 C 77.476562 33.839844 77.605469 33.761719 77.628906 33.652344 C 77.644531 33.5625 77.726562 33.421875 77.808594 33.335938 C 78.03125 33.113281 78.0625 33.664062 77.855469 34.136719 M 75.449219 35.585938 C 75.621094 35.742188 75.761719 35.921875 75.761719 35.988281 C 75.761719 36.054688 75.835938 36.109375 75.925781 36.109375 C 76.4375 36.109375 76.417969 35.695312 76.378906 44.722656 C 76.359375 49.265625 76.375 53.011719 76.410156 53.046875 C 76.527344 53.167969 76.925781 52.921875 76.925781 52.730469 C 76.925781 52.617188 76.984375 52.546875 77.082031 52.546875 C 77.3125 52.546875 78.089844 51.789062 78.089844 51.566406 C 78.089844 51.441406 78.148438 51.378906 78.257812 51.378906 C 78.476562 51.378906 79.078125 50.714844 79.078125 50.476562 C 79.078125 50.273438 79.304688 50 79.550781 49.914062 C 79.636719 49.882812 79.734375 49.785156 79.769531 49.695312 C 79.800781 49.609375 79.882812 49.484375 79.945312 49.417969 C 80.007812 49.355469 80.0625 49.1875 80.0625 49.046875 C 80.0625 48.90625 80.09375 48.777344 80.128906 48.757812 C 80.265625 48.699219 80.511719 48.125 80.511719 47.871094 C 80.511719 47.667969 80.550781 47.605469 80.6875 47.605469 C 80.796875 47.605469 80.882812 47.53125 80.910156 47.40625 C 80.9375 47.292969 81 47.019531 81.054688 46.796875 C 81.441406 45.175781 81.449219 40.714844 81.0625 40 C 81.003906 39.890625 80.957031 39.65625 80.957031 39.476562 C 80.957031 39.089844 80.824219 38.804688 80.640625 38.804688 C 80.554688 38.804688 80.511719 38.710938 80.511719 38.527344 C 80.511719 38.371094 80.445312 38.121094 80.363281 37.964844 C 80.089844 37.4375 80.0625 37.371094 80.0625 37.210938 C 80.0625 37.125 80 36.933594 79.925781 36.792969 C 79.851562 36.648438 79.808594 36.511719 79.835938 36.488281 C 79.898438 36.421875 80.277344 36.914062 80.335938 37.136719 C 80.363281 37.238281 80.492188 37.375 80.628906 37.441406 C 80.90625 37.574219 81.316406 38.171875 81.316406 38.441406 C 81.316406 38.542969 81.351562 38.625 81.398438 38.625 C 81.441406 38.625 81.5 38.726562 81.53125 38.847656 C 81.566406 38.988281 81.652344 39.074219 81.757812 39.074219 C 81.933594 39.074219 82.035156 39.238281 82.035156 39.523438 C 82.035156 39.617188 82.132812 39.882812 82.257812 40.113281 C 82.378906 40.347656 82.480469 40.664062 82.480469 40.820312 C 82.480469 40.976562 82.523438 41.144531 82.570312 41.191406 C 82.621094 41.242188 82.6875 41.539062 82.71875 41.851562 C 82.765625 42.296875 82.8125 42.429688 82.941406 42.464844 C 83.164062 42.523438 83.183594 42.640625 83.203125 43.925781 C 83.242188 46.453125 83.210938 47.070312 83.042969 47.132812 C 82.816406 47.214844 82.765625 47.324219 82.699219 47.855469 C 82.667969 48.113281 82.605469 48.351562 82.5625 48.375 C 82.515625 48.402344 82.480469 48.515625 82.480469 48.628906 C 82.480469 48.738281 82.449219 48.867188 82.410156 48.914062 C 82.371094 48.960938 82.265625 49.230469 82.171875 49.511719 C 82.050781 49.890625 81.960938 50.03125 81.820312 50.050781 C 81.695312 50.070312 81.617188 50.164062 81.582031 50.351562 C 81.550781 50.503906 81.417969 50.785156 81.285156 50.980469 C 81.15625 51.171875 81.046875 51.40625 81.046875 51.496094 C 81.046875 51.695312 80.84375 51.917969 80.660156 51.917969 C 80.511719 51.917969 80.0625 52.476562 80.0625 52.664062 C 80.0625 52.816406 79.632812 53.265625 79.484375 53.265625 C 79.320312 53.265625 78.808594 53.726562 78.808594 53.871094 C 78.808594 54.03125 78.453125 54.335938 78.265625 54.339844 C 78.015625 54.347656 77.554688 54.832031 77.554688 55.089844 C 77.554688 55.410156 77.945312 55.574219 78.863281 55.628906 C 79.265625 55.652344 79.675781 55.71875 79.777344 55.773438 C 79.882812 55.828125 80.511719 55.875 81.242188 55.886719 C 82.125 55.894531 82.359375 55.917969 81.988281 55.953125 C 81.542969 55.996094 81.4375 56.039062 81.363281 56.207031 C 81.25 56.460938 76.925781 56.535156 76.925781 56.285156 C 76.925781 56.167969 76.746094 56.050781 76.5625 56.050781 C 76.515625 56.050781 76.476562 56.121094 76.476562 56.207031 C 76.472656 56.394531 76.082031 56.859375 75.929688 56.859375 C 75.761719 56.859375 75.402344 57.230469 75.402344 57.402344 C 75.402344 57.628906 75.152344 57.8125 75.023438 57.679688 C 74.964844 57.625 74.847656 57.578125 74.757812 57.578125 C 74.667969 57.578125 74.597656 57.511719 74.597656 57.433594 C 74.597656 57.355469 74.421875 57.082031 74.207031 56.828125 C 73.992188 56.574219 73.792969 56.292969 73.761719 56.207031 C 73.675781 55.960938 73.074219 56.027344 73.074219 56.285156 C 73.074219 56.386719 72.703125 56.410156 70.921875 56.410156 C 69.109375 56.410156 68.773438 56.390625 68.773438 56.28125 C 68.773438 56.117188 68.636719 56.03125 68.238281 55.953125 C 68.046875 55.914062 68.363281 55.886719 69.058594 55.882812 C 69.703125 55.875 70.304688 55.824219 70.445312 55.765625 C 70.585938 55.707031 71 55.628906 71.371094 55.59375 C 72.476562 55.488281 72.671875 55.414062 72.671875 55.105469 C 72.671875 54.886719 72.628906 54.832031 72.445312 54.808594 C 72.324219 54.789062 72.035156 54.621094 71.804688 54.425781 C 71.574219 54.230469 71.320312 54.074219 71.242188 54.074219 C 71.164062 54.074219 71.101562 54.007812 71.101562 53.925781 C 71.101562 53.75 70.277344 52.933594 70.054688 52.890625 C 69.964844 52.875 69.878906 52.78125 69.863281 52.683594 C 69.84375 52.589844 69.671875 52.324219 69.480469 52.097656 C 69.289062 51.867188 69.132812 51.59375 69.132812 51.484375 C 69.132812 51.351562 69.078125 51.289062 68.960938 51.289062 C 68.855469 51.289062 68.703125 51.152344 68.582031 50.953125 C 68.46875 50.765625 68.34375 50.601562 68.304688 50.585938 C 68.265625 50.570312 68.234375 50.460938 68.234375 50.339844 C 68.234375 50.03125 67.898438 49.429688 67.695312 49.375 C 67.570312 49.34375 67.519531 49.253906 67.519531 49.0625 C 67.519531 48.914062 67.457031 48.679688 67.386719 48.539062 C 67.3125 48.394531 67.25 48.136719 67.25 47.960938 C 67.25 47.785156 67.214844 47.605469 67.171875 47.558594 C 67.125 47.511719 67.070312 47.230469 67.042969 46.933594 C 67.015625 46.636719 66.949219 46.089844 66.890625 45.71875 C 66.753906 44.84375 66.957031 42.300781 67.183594 42.074219 C 67.21875 42.039062 67.25 41.84375 67.253906 41.640625 C 67.253906 41.4375 67.3125 41.171875 67.382812 41.050781 C 67.453125 40.925781 67.515625 40.675781 67.515625 40.496094 C 67.519531 40.222656 67.554688 40.160156 67.714844 40.136719 C 67.863281 40.113281 67.9375 40.011719 68.007812 39.730469 C 68.058594 39.523438 68.132812 39.324219 68.167969 39.289062 C 68.207031 39.253906 68.234375 39.148438 68.234375 39.058594 C 68.234375 38.96875 68.265625 38.894531 68.304688 38.894531 C 68.390625 38.894531 68.664062 38.371094 68.703125 38.128906 C 68.71875 38.03125 68.808594 37.9375 68.90625 37.925781 C 69.097656 37.894531 69.578125 37.289062 69.578125 37.074219 C 69.578125 36.867188 69.972656 36.46875 70.179688 36.46875 C 70.410156 36.46875 70.269531 36.878906 70.019531 36.945312 C 69.9375 36.96875 69.832031 37.15625 69.773438 37.394531 C 69.714844 37.621094 69.628906 37.832031 69.578125 37.859375 C 69.53125 37.890625 69.488281 38.074219 69.488281 38.265625 C 69.488281 38.457031 69.453125 38.636719 69.410156 38.664062 C 69.363281 38.691406 69.300781 38.917969 69.265625 39.164062 C 69.230469 39.410156 69.167969 39.632812 69.125 39.664062 C 69.078125 39.691406 69.042969 39.871094 69.042969 40.066406 C 69.042969 40.359375 69.011719 40.421875 68.863281 40.421875 C 68.765625 40.421875 68.683594 40.429688 68.679688 40.441406 C 68.679688 40.457031 68.632812 40.949219 68.574219 41.542969 C 68.453125 42.808594 68.4375 44.132812 68.535156 45.136719 C 68.632812 46.144531 68.65625 46.230469 68.863281 46.285156 C 69.007812 46.324219 69.042969 46.40625 69.042969 46.738281 C 69.042969 46.964844 69.074219 47.167969 69.117188 47.195312 C 69.160156 47.21875 69.265625 47.515625 69.355469 47.851562 C 69.445312 48.1875 69.59375 48.601562 69.683594 48.773438 C 69.773438 48.945312 69.847656 49.15625 69.847656 49.246094 C 69.847656 49.34375 69.914062 49.402344 70.027344 49.402344 C 70.125 49.402344 70.207031 49.445312 70.207031 49.5 C 70.207031 49.550781 70.308594 49.726562 70.429688 49.890625 C 70.554688 50.050781 70.65625 50.246094 70.65625 50.320312 C 70.65625 50.492188 71.027344 50.929688 71.175781 50.929688 C 71.328125 50.929688 71.722656 51.386719 71.726562 51.566406 C 71.730469 51.738281 72.1875 52.1875 72.363281 52.1875 C 72.539062 52.1875 72.984375 52.582031 72.984375 52.742188 C 72.984375 52.917969 73.492188 53.285156 73.683594 53.246094 C 73.988281 53.1875 73.863281 39.074219 73.558594 39.074219 C 73.457031 39.074219 73.433594 38.828125 73.433594 37.769531 C 73.433594 36.929688 73.464844 36.46875 73.523438 36.46875 C 73.683594 36.46875 74.148438 36.082031 74.148438 35.953125 C 74.148438 35.398438 74.988281 35.160156 75.449219 35.585938 M 68.660156 35.628906 C 68.347656 35.726562 68.234375 35.804688 68.234375 35.929688 C 68.234375 36.054688 68.148438 36.117188 67.898438 36.164062 C 67.5625 36.226562 67.054688 36.472656 66.800781 36.695312 C 66.726562 36.757812 66.566406 36.824219 66.441406 36.84375 C 66.300781 36.863281 66.210938 36.9375 66.191406 37.050781 C 66.160156 37.246094 65.457031 37.816406 65.25 37.816406 C 65.09375 37.816406 64.832031 38.105469 64.832031 38.277344 C 64.832031 38.425781 64.328125 38.929688 64.09375 39.011719 C 64.007812 39.042969 63.914062 39.179688 63.882812 39.316406 C 63.847656 39.453125 63.734375 39.6875 63.628906 39.835938 C 63.394531 40.167969 63.246094 40.480469 63.179688 40.792969 C 63.152344 40.921875 63.050781 41.046875 62.957031 41.074219 C 62.28125 41.25 61.972656 47.054688 62.601562 47.738281 C 62.644531 47.785156 62.679688 47.957031 62.679688 48.125 C 62.679688 48.484375 62.816406 48.773438 62.988281 48.773438 C 63.121094 48.773438 63.21875 48.964844 63.21875 49.226562 C 63.21875 49.320312 63.320312 49.585938 63.441406 49.816406 C 63.566406 50.046875 63.664062 50.332031 63.664062 50.449219 C 63.664062 50.566406 63.703125 50.660156 63.746094 50.660156 C 63.789062 50.660156 63.84375 50.742188 63.871094 50.839844 C 63.898438 50.9375 64.023438 51.058594 64.152344 51.105469 C 64.308594 51.167969 64.402344 51.285156 64.4375 51.457031 C 64.503906 51.792969 65.15625 52.546875 65.378906 52.546875 C 65.476562 52.546875 65.546875 52.609375 65.546875 52.699219 C 65.546875 52.925781 66.175781 53.441406 66.453125 53.445312 C 66.585938 53.445312 66.742188 53.507812 66.800781 53.582031 C 67.15625 54.011719 67.378906 53.585938 67.035156 53.132812 C 66.914062 52.976562 66.804688 52.753906 66.789062 52.632812 C 66.769531 52.488281 66.691406 52.402344 66.570312 52.386719 C 66.398438 52.359375 65.996094 51.738281 65.996094 51.496094 C 65.996094 51.449219 65.894531 51.210938 65.773438 50.96875 C 65.648438 50.726562 65.546875 50.453125 65.546875 50.367188 C 65.546875 50.277344 65.457031 50.171875 65.347656 50.128906 C 65.207031 50.078125 65.113281 49.929688 65.042969 49.660156 C 64.988281 49.445312 64.894531 49.085938 64.835938 48.863281 C 64.417969 47.292969 64.40625 43.375 64.816406 42.367188 C 64.875 42.230469 64.921875 42 64.921875 41.859375 C 64.921875 41.714844 64.957031 41.578125 65 41.550781 C 65.042969 41.523438 65.101562 41.378906 65.128906 41.230469 C 65.167969 41.042969 65.238281 40.960938 65.355469 40.960938 C 65.535156 40.960938 65.636719 40.796875 65.636719 40.507812 C 65.636719 40.414062 65.738281 40.15625 65.859375 39.933594 C 65.984375 39.714844 66.085938 39.460938 66.089844 39.371094 C 66.09375 39.160156 66.390625 38.804688 66.558594 38.804688 C 66.714844 38.804688 66.980469 38.429688 66.980469 38.214844 C 66.980469 37.988281 67.5 37.382812 67.722656 37.351562 C 67.835938 37.332031 67.933594 37.246094 67.953125 37.140625 C 68 36.910156 68.675781 36.230469 68.90625 36.1875 C 69.007812 36.167969 69.097656 36.066406 69.113281 35.957031 C 69.128906 35.847656 69.21875 35.734375 69.316406 35.703125 C 69.410156 35.671875 69.488281 35.609375 69.488281 35.5625 C 69.488281 35.449219 69.167969 35.472656 68.660156 35.628906 M 80.421875 35.558594 C 80.421875 35.601562 80.542969 35.660156 80.691406 35.691406 C 80.855469 35.726562 80.957031 35.800781 80.957031 35.894531 C 80.957031 36.058594 81.65625 36.730469 81.839844 36.734375 C 81.984375 36.738281 82.210938 36.960938 82.210938 37.097656 C 82.210938 37.15625 82.355469 37.367188 82.527344 37.570312 C 82.699219 37.773438 82.839844 37.972656 82.839844 38.011719 C 82.839844 38.050781 82.921875 38.085938 83.019531 38.085938 C 83.132812 38.085938 83.199219 38.144531 83.199219 38.25 C 83.199219 38.339844 83.355469 38.640625 83.550781 38.917969 C 83.742188 39.195312 83.914062 39.535156 83.929688 39.675781 C 83.949219 39.84375 84.019531 39.9375 84.140625 39.953125 C 84.335938 39.984375 84.628906 40.527344 84.632812 40.875 C 84.636719 40.996094 84.695312 41.195312 84.765625 41.320312 C 84.835938 41.441406 84.894531 41.652344 84.898438 41.785156 C 84.898438 41.917969 84.933594 42.046875 84.976562 42.074219 C 85.019531 42.101562 85.082031 42.371094 85.117188 42.675781 C 85.167969 43.097656 85.21875 43.234375 85.34375 43.269531 C 85.746094 43.371094 85.742188 47.785156 85.339844 47.785156 C 85.207031 47.785156 85.167969 47.886719 85.117188 48.328125 C 85.082031 48.625 85.019531 48.890625 84.976562 48.917969 C 84.933594 48.941406 84.898438 49.097656 84.898438 49.257812 C 84.898438 49.417969 84.839844 49.628906 84.769531 49.722656 C 84.695312 49.820312 84.636719 49.996094 84.632812 50.113281 C 84.628906 50.464844 84.335938 51.007812 84.140625 51.039062 C 84.015625 51.054688 83.949219 51.148438 83.929688 51.335938 C 83.914062 51.484375 83.742188 51.839844 83.546875 52.128906 C 83.355469 52.421875 83.199219 52.734375 83.199219 52.828125 C 83.199219 52.925781 83.128906 53.027344 83.042969 53.058594 C 82.59375 53.214844 82.445312 53.714844 82.84375 53.714844 C 83.109375 53.714844 84.003906 53.210938 84.003906 53.066406 C 84.003906 53.027344 84.101562 52.996094 84.222656 52.996094 C 84.367188 52.996094 84.460938 52.929688 84.511719 52.78125 C 84.613281 52.496094 85.203125 51.851562 85.402344 51.8125 C 85.488281 51.796875 85.585938 51.683594 85.621094 51.558594 C 85.652344 51.4375 85.804688 51.140625 85.953125 50.90625 C 86.101562 50.667969 86.253906 50.332031 86.285156 50.160156 C 86.324219 49.945312 86.410156 49.820312 86.550781 49.765625 C 86.777344 49.679688 86.871094 49.503906 86.871094 49.171875 C 86.871094 49.050781 86.910156 48.953125 86.960938 48.953125 C 87.011719 48.953125 87.050781 48.871094 87.050781 48.769531 C 87.050781 48.667969 87.097656 48.496094 87.160156 48.386719 C 87.261719 48.199219 87.308594 47.953125 87.496094 46.617188 C 87.710938 45.113281 87.507812 41.941406 87.15625 41.261719 C 87.003906 40.964844 86.886719 40.652344 86.832031 40.398438 C 86.800781 40.246094 86.71875 40.152344 86.625 40.152344 C 86.46875 40.148438 86.15625 39.703125 86.15625 39.476562 C 86.15625 39.410156 86.101562 39.300781 86.039062 39.238281 C 85.976562 39.171875 85.832031 38.988281 85.71875 38.828125 C 85.609375 38.667969 85.4375 38.535156 85.34375 38.535156 C 85.234375 38.535156 85.167969 38.472656 85.167969 38.375 C 85.167969 38.160156 84.539062 37.546875 84.3125 37.542969 C 84.09375 37.539062 83.765625 37.269531 83.722656 37.058594 C 83.707031 36.96875 83.550781 36.824219 83.378906 36.738281 C 82.394531 36.234375 82.101562 36.109375 81.898438 36.109375 C 81.734375 36.109375 81.675781 36.0625 81.675781 35.925781 C 81.675781 35.828125 81.605469 35.722656 81.519531 35.695312 C 81.433594 35.667969 81.292969 35.609375 81.207031 35.5625 C 81.007812 35.457031 80.421875 35.453125 80.421875 35.558594 M 69.035156 35.898438 C 69.09375 35.949219 69.015625 35.988281 68.75 36.054688 C 68.542969 36.101562 68.503906 36.085938 68.503906 35.929688 C 68.503906 35.761719 68.855469 35.742188 69.035156 35.898438 M 81.40625 35.972656 C 81.46875 36.140625 81.558594 36.199219 81.746094 36.199219 C 81.886719 36.199219 82.078125 36.257812 82.171875 36.332031 C 82.269531 36.402344 82.417969 36.464844 82.503906 36.464844 C 82.589844 36.46875 82.660156 36.507812 82.660156 36.550781 C 82.660156 36.597656 82.75 36.664062 82.863281 36.695312 C 83.292969 36.820312 83.644531 37.023438 83.644531 37.144531 C 83.644531 37.324219 83.96875 37.636719 84.15625 37.636719 C 84.320312 37.636719 84.898438 38.152344 84.898438 38.300781 C 84.898438 38.429688 85.273438 38.804688 85.40625 38.804688 C 85.550781 38.804688 85.976562 39.359375 85.976562 39.546875 C 85.976562 39.628906 86.019531 39.71875 86.070312 39.75 C 86.125 39.78125 86.203125 39.90625 86.246094 40.023438 C 86.296875 40.15625 86.402344 40.242188 86.511719 40.242188 C 86.652344 40.242188 86.691406 40.300781 86.691406 40.503906 C 86.691406 40.648438 86.746094 40.820312 86.8125 40.886719 C 86.933594 41.007812 86.988281 41.191406 87.148438 41.992188 C 87.195312 42.238281 87.277344 42.527344 87.328125 42.628906 C 87.550781 43.074219 87.289062 47.9375 87.027344 48.199219 C 86.992188 48.234375 86.960938 48.394531 86.960938 48.554688 C 86.960938 48.730469 86.90625 48.867188 86.828125 48.898438 C 86.742188 48.929688 86.691406 49.066406 86.691406 49.257812 C 86.691406 49.511719 86.65625 49.574219 86.492188 49.597656 C 86.359375 49.617188 86.277344 49.699219 86.261719 49.832031 C 86.246094 49.941406 86.199219 50.03125 86.160156 50.03125 C 86.121094 50.03125 86.0625 50.195312 86.03125 50.390625 C 86 50.589844 85.933594 50.75 85.886719 50.75 C 85.835938 50.75 85.796875 50.792969 85.796875 50.847656 C 85.796875 50.898438 85.734375 51.003906 85.660156 51.078125 C 85.589844 51.152344 85.527344 51.3125 85.527344 51.429688 C 85.527344 51.574219 85.476562 51.648438 85.378906 51.648438 C 85.175781 51.648438 84.363281 52.515625 84.363281 52.730469 C 84.363281 52.855469 84.300781 52.90625 84.144531 52.90625 C 84.027344 52.90625 83.917969 52.941406 83.898438 52.984375 C 83.863281 53.074219 83.050781 53.535156 82.925781 53.535156 C 82.746094 53.535156 82.847656 53.277344 83.039062 53.25 C 83.183594 53.230469 83.289062 53.097656 83.417969 52.773438 C 83.519531 52.523438 83.652344 52.269531 83.714844 52.203125 C 83.773438 52.140625 83.824219 52.027344 83.824219 51.957031 C 83.824219 51.886719 83.867188 51.828125 83.914062 51.828125 C 83.964844 51.828125 84.003906 51.703125 84.003906 51.550781 C 84.003906 51.351562 84.054688 51.261719 84.179688 51.226562 C 84.382812 51.171875 84.722656 50.644531 84.722656 50.382812 C 84.722656 50.285156 84.773438 50.09375 84.839844 49.960938 C 84.90625 49.828125 85.03125 49.40625 85.121094 49.023438 C 85.21875 48.582031 85.324219 48.324219 85.398438 48.324219 C 85.753906 48.324219 85.925781 45.976562 85.722656 43.894531 C 85.613281 42.765625 85.585938 42.667969 85.398438 42.667969 C 85.324219 42.667969 85.222656 42.410156 85.121094 41.96875 C 85.035156 41.585938 84.910156 41.183594 84.84375 41.074219 C 84.777344 40.964844 84.722656 40.777344 84.722656 40.65625 C 84.722656 40.355469 84.453125 39.910156 84.207031 39.796875 C 84.089844 39.746094 84.003906 39.625 84.003906 39.519531 C 84.003906 39.417969 83.871094 39.125 83.707031 38.867188 C 83.539062 38.605469 83.367188 38.277344 83.316406 38.128906 C 83.269531 37.980469 83.15625 37.847656 83.070312 37.832031 C 82.878906 37.792969 82.398438 37.28125 82.394531 37.109375 C 82.390625 36.949219 82.023438 36.5625 81.871094 36.558594 C 81.695312 36.558594 81.113281 35.953125 81.179688 35.84375 C 81.265625 35.703125 81.3125 35.726562 81.40625 35.972656 M 68.402344 36.355469 C 68.335938 36.441406 68.164062 36.613281 68.023438 36.738281 C 67.765625 36.960938 67.453125 37.285156 66.964844 37.832031 C 66.828125 37.988281 66.710938 38.210938 66.710938 38.328125 C 66.710938 38.464844 66.640625 38.566406 66.511719 38.617188 C 66.238281 38.726562 66 39.027344 65.9375 39.351562 C 65.90625 39.496094 65.847656 39.636719 65.804688 39.664062 C 65.761719 39.691406 65.726562 39.792969 65.726562 39.886719 C 65.726562 39.984375 65.6875 40.0625 65.636719 40.0625 C 65.589844 40.0625 65.523438 40.222656 65.492188 40.421875 C 65.449219 40.6875 65.394531 40.78125 65.273438 40.78125 C 65.183594 40.78125 65.085938 40.867188 65.054688 40.980469 C 65.023438 41.09375 64.964844 41.265625 64.925781 41.363281 C 64.796875 41.6875 64.636719 42.34375 64.566406 42.847656 C 64.527344 43.117188 64.449219 43.480469 64.394531 43.652344 C 64.335938 43.835938 64.292969 44.621094 64.292969 45.539062 C 64.292969 46.460938 64.335938 47.246094 64.394531 47.429688 C 64.449219 47.601562 64.527344 47.964844 64.566406 48.234375 C 64.660156 48.898438 64.820312 49.59375 64.917969 49.773438 C 64.960938 49.855469 65.023438 50.066406 65.058594 50.246094 C 65.101562 50.46875 65.167969 50.570312 65.273438 50.570312 C 65.410156 50.570312 65.816406 51.308594 65.816406 51.5625 C 65.816406 51.648438 65.996094 52.007812 66.085938 52.097656 C 66.109375 52.121094 66.175781 52.222656 66.230469 52.324219 C 66.28125 52.421875 66.414062 52.515625 66.519531 52.53125 C 66.640625 52.550781 66.710938 52.625 66.710938 52.734375 C 66.710938 52.832031 66.777344 53.011719 66.855469 53.132812 C 66.9375 53.257812 66.964844 53.359375 66.925781 53.367188 C 66.496094 53.421875 65.90625 53.078125 65.703125 52.648438 C 65.640625 52.519531 65.515625 52.398438 65.425781 52.382812 C 65.195312 52.335938 64.75 51.832031 64.683594 51.535156 C 64.652344 51.402344 64.597656 51.289062 64.5625 51.289062 C 64.523438 51.289062 64.472656 51.207031 64.445312 51.109375 C 64.421875 51.011719 64.324219 50.929688 64.234375 50.929688 C 64.058594 50.929688 63.753906 50.480469 63.753906 50.21875 C 63.753906 50.128906 63.65625 49.867188 63.53125 49.636719 C 63.410156 49.402344 63.308594 49.117188 63.308594 49 C 63.308594 48.675781 63.214844 48.503906 63.039062 48.503906 C 62.875 48.503906 62.773438 48.269531 62.769531 47.871094 C 62.769531 47.746094 62.734375 47.605469 62.6875 47.558594 C 62.644531 47.511719 62.589844 47.230469 62.566406 46.933594 C 62.546875 46.636719 62.472656 45.957031 62.40625 45.421875 C 62.296875 44.550781 62.300781 44.375 62.4375 43.703125 C 62.523438 43.292969 62.589844 42.769531 62.589844 42.542969 C 62.589844 42.3125 62.632812 42.128906 62.679688 42.128906 C 62.730469 42.128906 62.769531 42.007812 62.769531 41.867188 C 62.769531 41.488281 62.855469 41.320312 63.042969 41.320312 C 63.164062 41.320312 63.242188 41.1875 63.351562 40.800781 C 63.433594 40.519531 63.59375 40.140625 63.707031 39.964844 C 63.820312 39.789062 63.929688 39.566406 63.949219 39.472656 C 63.96875 39.375 64.070312 39.285156 64.183594 39.269531 C 64.292969 39.253906 64.382812 39.203125 64.382812 39.160156 C 64.382812 39.117188 64.503906 38.941406 64.652344 38.773438 C 64.800781 38.605469 64.921875 38.410156 64.921875 38.339844 C 64.921875 38.183594 65.238281 37.90625 65.417969 37.90625 C 65.492188 37.90625 65.605469 37.867188 65.664062 37.816406 C 65.722656 37.769531 65.902344 37.625 66.0625 37.496094 C 66.222656 37.367188 66.355469 37.183594 66.355469 37.089844 C 66.355469 36.976562 66.417969 36.917969 66.535156 36.917969 C 66.632812 36.917969 66.875 36.816406 67.070312 36.691406 C 67.265625 36.570312 67.515625 36.46875 67.628906 36.464844 C 67.742188 36.464844 67.910156 36.402344 68.007812 36.332031 C 68.269531 36.132812 68.566406 36.148438 68.402344 36.355469 M 3.207031 63.054688 L 3.234375 64.71875 L 147.484375 64.71875 L 147.507812 63.054688 L 147.53125 61.394531 L 3.183594 61.394531 L 3.207031 63.054688 "/>
<path style=" stroke:none;fill-rule:evenodd;fill:rgb(74.509805%,9.803922%,19.215687%);fill-opacity:1;" d="M 77.808594 33.335938 C 77.726562 33.421875 77.644531 33.5625 77.628906 33.652344 C 77.605469 33.761719 77.476562 33.839844 77.238281 33.890625 C 76.5 34.046875 76.238281 34.050781 75.710938 33.925781 C 75.101562 33.78125 74.289062 33.824219 74.015625 34.011719 C 73.800781 34.160156 73.132812 34.171875 72.867188 34.027344 C 72.757812 33.96875 72.550781 33.898438 72.402344 33.867188 C 72.21875 33.828125 72.125 33.75 72.105469 33.621094 C 72.0625 33.3125 71.820312 33.28125 71.820312 33.585938 C 71.820312 33.871094 72.035156 34.449219 72.175781 34.535156 C 72.226562 34.566406 72.265625 34.671875 72.265625 34.765625 C 72.265625 34.890625 72.328125 34.941406 72.484375 34.941406 C 72.605469 34.941406 72.730469 34.980469 72.761719 35.03125 C 72.9375 35.316406 74.597656 35.027344 74.597656 34.710938 C 74.597656 34.628906 74.691406 34.582031 74.867188 34.582031 C 75.039062 34.582031 75.132812 34.628906 75.132812 34.710938 C 75.132812 34.957031 75.664062 35.121094 76.445312 35.121094 C 77.238281 35.121094 77.554688 34.988281 77.554688 34.652344 C 77.554688 34.566406 77.585938 34.492188 77.625 34.492188 C 77.761719 34.492188 78.011719 33.78125 77.984375 33.484375 C 77.957031 33.207031 77.945312 33.199219 77.808594 33.335938 M 74.394531 35.574219 C 74.261719 35.71875 74.148438 35.886719 74.148438 35.953125 C 74.148438 36.082031 73.683594 36.46875 73.523438 36.46875 C 73.464844 36.46875 73.433594 36.929688 73.433594 37.769531 C 73.433594 38.828125 73.457031 39.074219 73.558594 39.074219 C 73.863281 39.074219 73.988281 53.1875 73.683594 53.246094 C 73.492188 53.285156 72.984375 52.917969 72.984375 52.742188 C 72.984375 52.582031 72.539062 52.1875 72.363281 52.1875 C 72.1875 52.1875 71.730469 51.738281 71.726562 51.566406 C 71.722656 51.386719 71.328125 50.929688 71.175781 50.929688 C 71.027344 50.929688 70.65625 50.492188 70.65625 50.320312 C 70.65625 50.246094 70.554688 50.050781 70.429688 49.890625 C 70.308594 49.726562 70.207031 49.550781 70.207031 49.5 C 70.207031 49.445312 70.125 49.402344 70.027344 49.402344 C 69.914062 49.402344 69.847656 49.34375 69.847656 49.246094 C 69.847656 49.15625 69.773438 48.945312 69.683594 48.773438 C 69.59375 48.601562 69.445312 48.1875 69.355469 47.851562 C 69.265625 47.515625 69.160156 47.21875 69.117188 47.195312 C 69.074219 47.167969 69.042969 46.964844 69.042969 46.738281 C 69.042969 46.40625 69.007812 46.324219 68.863281 46.285156 C 68.65625 46.230469 68.632812 46.144531 68.535156 45.136719 C 68.4375 44.132812 68.453125 42.808594 68.574219 41.542969 C 68.632812 40.949219 68.679688 40.457031 68.679688 40.441406 C 68.683594 40.429688 68.765625 40.421875 68.863281 40.421875 C 69.011719 40.421875 69.042969 40.359375 69.042969 40.066406 C 69.042969 39.871094 69.078125 39.691406 69.125 39.664062 C 69.167969 39.632812 69.230469 39.410156 69.265625 39.164062 C 69.300781 38.917969 69.363281 38.691406 69.410156 38.664062 C 69.453125 38.636719 69.488281 38.457031 69.488281 38.265625 C 69.488281 38.074219 69.53125 37.890625 69.578125 37.859375 C 69.628906 37.832031 69.714844 37.621094 69.773438 37.394531 C 69.832031 37.15625 69.9375 36.96875 70.019531 36.945312 C 70.269531 36.878906 70.410156 36.46875 70.179688 36.46875 C 69.972656 36.46875 69.578125 36.867188 69.578125 37.074219 C 69.578125 37.289062 69.097656 37.894531 68.90625 37.925781 C 68.808594 37.9375 68.71875 38.03125 68.703125 38.128906 C 68.664062 38.371094 68.390625 38.894531 68.304688 38.894531 C 68.265625 38.894531 68.234375 38.96875 68.234375 39.058594 C 68.234375 39.148438 68.207031 39.253906 68.167969 39.289062 C 68.132812 39.324219 68.058594 39.523438 68.007812 39.730469 C 67.9375 40.011719 67.863281 40.113281 67.714844 40.136719 C 67.554688 40.160156 67.519531 40.222656 67.515625 40.496094 C 67.515625 40.675781 67.453125 40.925781 67.382812 41.050781 C 67.3125 41.171875 67.253906 41.4375 67.253906 41.640625 C 67.25 41.84375 67.21875 42.039062 67.183594 42.074219 C 66.957031 42.300781 66.753906 44.84375 66.890625 45.71875 C 66.949219 46.089844 67.015625 46.636719 67.042969 46.933594 C 67.070312 47.230469 67.125 47.511719 67.171875 47.558594 C 67.214844 47.605469 67.25 47.785156 67.25 47.960938 C 67.25 48.136719 67.3125 48.394531 67.386719 48.539062 C 67.457031 48.679688 67.519531 48.914062 67.519531 49.0625 C 67.519531 49.253906 67.570312 49.34375 67.695312 49.375 C 67.898438 49.429688 68.234375 50.03125 68.234375 50.339844 C 68.234375 50.460938 68.265625 50.570312 68.304688 50.585938 C 68.34375 50.601562 68.46875 50.765625 68.582031 50.953125 C 68.703125 51.152344 68.855469 51.289062 68.960938 51.289062 C 69.078125 51.289062 69.132812 51.351562 69.132812 51.484375 C 69.132812 51.59375 69.289062 51.867188 69.480469 52.097656 C 69.671875 52.324219 69.84375 52.589844 69.863281 52.683594 C 69.878906 52.78125 69.964844 52.875 70.054688 52.890625 C 70.277344 52.933594 71.101562 53.75 71.101562 53.925781 C 71.101562 54.007812 71.164062 54.074219 71.242188 54.074219 C 71.320312 54.074219 71.574219 54.230469 71.804688 54.425781 C 72.035156 54.621094 72.324219 54.789062 72.445312 54.808594 C 72.628906 54.832031 72.671875 54.886719 72.671875 55.105469 C 72.671875 55.414062 72.476562 55.488281 71.371094 55.59375 C 71 55.628906 70.585938 55.707031 70.445312 55.765625 C 70.304688 55.824219 69.703125 55.875 69.058594 55.882812 C 68.363281 55.886719 68.046875 55.914062 68.238281 55.953125 C 68.636719 56.03125 68.773438 56.117188 68.773438 56.28125 C 68.773438 56.390625 69.109375 56.410156 70.921875 56.410156 C 72.703125 56.410156 73.074219 56.386719 73.074219 56.285156 C 73.074219 56.027344 73.675781 55.960938 73.761719 56.207031 C 73.792969 56.292969 73.992188 56.574219 74.207031 56.828125 C 74.421875 57.082031 74.597656 57.355469 74.597656 57.433594 C 74.597656 57.511719 74.667969 57.578125 74.757812 57.578125 C 74.847656 57.578125 74.964844 57.625 75.023438 57.679688 C 75.152344 57.8125 75.402344 57.628906 75.402344 57.402344 C 75.402344 57.230469 75.761719 56.859375 75.929688 56.859375 C 76.082031 56.859375 76.472656 56.394531 76.476562 56.207031 C 76.476562 56.121094 76.515625 56.050781 76.5625 56.050781 C 76.746094 56.050781 76.925781 56.167969 76.925781 56.285156 C 76.925781 56.535156 81.25 56.460938 81.363281 56.207031 C 81.4375 56.039062 81.542969 55.996094 81.988281 55.953125 C 82.359375 55.917969 82.125 55.894531 81.242188 55.886719 C 80.511719 55.875 79.882812 55.828125 79.777344 55.773438 C 79.675781 55.71875 79.265625 55.652344 78.863281 55.628906 C 77.945312 55.574219 77.554688 55.410156 77.554688 55.089844 C 77.554688 54.832031 78.015625 54.347656 78.265625 54.339844 C 78.453125 54.335938 78.808594 54.03125 78.808594 53.871094 C 78.808594 53.726562 79.320312 53.265625 79.484375 53.265625 C 79.632812 53.265625 80.0625 52.816406 80.0625 52.664062 C 80.0625 52.476562 80.511719 51.917969 80.660156 51.917969 C 80.84375 51.917969 81.046875 51.695312 81.046875 51.496094 C 81.046875 51.40625 81.15625 51.171875 81.285156 50.980469 C 81.417969 50.785156 81.550781 50.503906 81.582031 50.351562 C 81.617188 50.164062 81.695312 50.070312 81.820312 50.050781 C 81.960938 50.03125 82.050781 49.890625 82.171875 49.511719 C 82.265625 49.230469 82.371094 48.960938 82.410156 48.914062 C 82.449219 48.867188 82.480469 48.738281 82.480469 48.628906 C 82.480469 48.515625 82.515625 48.402344 82.5625 48.375 C 82.605469 48.351562 82.667969 48.113281 82.699219 47.855469 C 82.765625 47.324219 82.816406 47.214844 83.042969 47.132812 C 83.210938 47.070312 83.242188 46.453125 83.203125 43.925781 C 83.183594 42.640625 83.164062 42.523438 82.941406 42.464844 C 82.8125 42.429688 82.765625 42.296875 82.71875 41.851562 C 82.6875 41.539062 82.621094 41.242188 82.570312 41.191406 C 82.523438 41.144531 82.480469 40.976562 82.480469 40.820312 C 82.480469 40.664062 82.378906 40.347656 82.257812 40.113281 C 82.132812 39.882812 82.035156 39.617188 82.035156 39.523438 C 82.035156 39.238281 81.933594 39.074219 81.757812 39.074219 C 81.652344 39.074219 81.566406 38.988281 81.53125 38.847656 C 81.5 38.726562 81.441406 38.625 81.398438 38.625 C 81.351562 38.625 81.316406 38.542969 81.316406 38.441406 C 81.316406 38.171875 80.90625 37.574219 80.628906 37.441406 C 80.492188 37.375 80.363281 37.238281 80.335938 37.136719 C 80.277344 36.914062 79.898438 36.421875 79.835938 36.488281 C 79.808594 36.511719 79.851562 36.648438 79.925781 36.792969 C 80 36.933594 80.0625 37.125 80.0625 37.210938 C 80.0625 37.371094 80.089844 37.4375 80.363281 37.964844 C 80.445312 38.121094 80.511719 38.371094 80.511719 38.527344 C 80.511719 38.710938 80.554688 38.804688 80.640625 38.804688 C 80.824219 38.804688 80.957031 39.089844 80.957031 39.476562 C 80.957031 39.65625 81.003906 39.890625 81.0625 40 C 81.449219 40.714844 81.441406 45.175781 81.054688 46.796875 C 81 47.019531 80.9375 47.292969 80.910156 47.40625 C 80.882812 47.53125 80.796875 47.605469 80.6875 47.605469 C 80.550781 47.605469 80.511719 47.667969 80.511719 47.871094 C 80.511719 48.125 80.265625 48.699219 80.128906 48.757812 C 80.09375 48.777344 80.0625 48.90625 80.0625 49.046875 C 80.0625 49.1875 80.007812 49.355469 79.945312 49.417969 C 79.882812 49.484375 79.800781 49.609375 79.769531 49.695312 C 79.734375 49.785156 79.636719 49.882812 79.550781 49.914062 C 79.304688 50 79.078125 50.273438 79.078125 50.476562 C 79.078125 50.714844 78.476562 51.378906 78.257812 51.378906 C 78.148438 51.378906 78.089844 51.441406 78.089844 51.566406 C 78.089844 51.789062 77.3125 52.546875 77.082031 52.546875 C 76.984375 52.546875 76.925781 52.617188 76.925781 52.730469 C 76.925781 52.921875 76.527344 53.167969 76.410156 53.046875 C 76.375 53.011719 76.359375 49.265625 76.378906 44.722656 C 76.417969 35.695312 76.4375 36.109375 75.925781 36.109375 C 75.835938 36.109375 75.761719 36.054688 75.761719 35.988281 C 75.761719 35.453125 74.792969 35.160156 74.394531 35.574219 M 68.503906 35.929688 C 68.503906 36.097656 68.855469 36.117188 69.035156 35.960938 C 69.09375 35.910156 69.015625 35.871094 68.75 35.804688 C 68.542969 35.753906 68.503906 35.777344 68.503906 35.929688 M 81.179688 35.84375 C 81.113281 35.953125 81.695312 36.558594 81.871094 36.558594 C 82.023438 36.5625 82.390625 36.949219 82.394531 37.109375 C 82.398438 37.28125 82.878906 37.792969 83.070312 37.832031 C 83.15625 37.847656 83.269531 37.980469 83.316406 38.128906 C 83.367188 38.277344 83.539062 38.605469 83.707031 38.867188 C 83.871094 39.125 84.003906 39.417969 84.003906 39.519531 C 84.003906 39.625 84.089844 39.746094 84.207031 39.796875 C 84.453125 39.910156 84.722656 40.355469 84.722656 40.65625 C 84.722656 40.777344 84.777344 40.964844 84.84375 41.074219 C 84.910156 41.183594 85.035156 41.585938 85.121094 41.96875 C 85.222656 42.410156 85.324219 42.667969 85.398438 42.667969 C 85.585938 42.667969 85.613281 42.765625 85.722656 43.894531 C 85.925781 45.976562 85.753906 48.324219 85.398438 48.324219 C 85.324219 48.324219 85.21875 48.582031 85.121094 49.023438 C 85.03125 49.40625 84.90625 49.828125 84.839844 49.960938 C 84.773438 50.09375 84.722656 50.285156 84.722656 50.382812 C 84.722656 50.644531 84.382812 51.171875 84.179688 51.226562 C 84.054688 51.261719 84.003906 51.351562 84.003906 51.550781 C 84.003906 51.703125 83.964844 51.828125 83.914062 51.828125 C 83.867188 51.828125 83.824219 51.886719 83.824219 51.957031 C 83.824219 52.027344 83.773438 52.140625 83.714844 52.203125 C 83.652344 52.269531 83.519531 52.523438 83.417969 52.773438 C 83.289062 53.097656 83.183594 53.230469 83.039062 53.25 C 82.847656 53.277344 82.746094 53.535156 82.925781 53.535156 C 83.050781 53.535156 83.863281 53.074219 83.898438 52.984375 C 83.917969 52.941406 84.027344 52.90625 84.144531 52.90625 C 84.300781 52.90625 84.363281 52.855469 84.363281 52.730469 C 84.363281 52.515625 85.175781 51.648438 85.378906 51.648438 C 85.476562 51.648438 85.527344 51.574219 85.527344 51.429688 C 85.527344 51.3125 85.589844 51.152344 85.660156 51.078125 C 85.734375 51.003906 85.796875 50.898438 85.796875 50.847656 C 85.796875 50.792969 85.835938 50.75 85.886719 50.75 C 85.933594 50.75 86 50.589844 86.03125 50.390625 C 86.0625 50.195312 86.121094 50.03125 86.160156 50.03125 C 86.199219 50.03125 86.246094 49.941406 86.261719 49.832031 C 86.277344 49.699219 86.359375 49.617188 86.492188 49.597656 C 86.65625 49.574219 86.691406 49.511719 86.691406 49.257812 C 86.691406 49.066406 86.742188 48.929688 86.828125 48.898438 C 86.90625 48.867188 86.960938 48.730469 86.960938 48.554688 C 86.960938 48.394531 86.992188 48.234375 87.027344 48.199219 C 87.289062 47.9375 87.550781 43.074219 87.328125 42.628906 C 87.277344 42.527344 87.195312 42.238281 87.148438 41.992188 C 86.988281 41.191406 86.933594 41.007812 86.8125 40.886719 C 86.746094 40.820312 86.691406 40.648438 86.691406 40.503906 C 86.691406 40.300781 86.652344 40.242188 86.511719 40.242188 C 86.402344 40.242188 86.296875 40.15625 86.246094 40.023438 C 86.203125 39.90625 86.125 39.78125 86.070312 39.75 C 86.019531 39.71875 85.976562 39.628906 85.976562 39.546875 C 85.976562 39.359375 85.550781 38.804688 85.40625 38.804688 C 85.273438 38.804688 84.898438 38.429688 84.898438 38.300781 C 84.898438 38.152344 84.320312 37.636719 84.15625 37.636719 C 83.96875 37.636719 83.644531 37.324219 83.644531 37.144531 C 83.644531 37.023438 83.292969 36.820312 82.863281 36.695312 C 82.75 36.664062 82.660156 36.597656 82.660156 36.550781 C 82.660156 36.507812 82.589844 36.46875 82.503906 36.464844 C 82.417969 36.464844 82.269531 36.402344 82.171875 36.332031 C 82.078125 36.257812 81.886719 36.199219 81.746094 36.199219 C 81.558594 36.199219 81.46875 36.140625 81.40625 35.972656 C 81.3125 35.726562 81.265625 35.703125 81.179688 35.84375 M 68.007812 36.332031 C 67.910156 36.402344 67.742188 36.464844 67.628906 36.464844 C 67.515625 36.46875 67.265625 36.570312 67.070312 36.691406 C 66.875 36.816406 66.632812 36.917969 66.535156 36.917969 C 66.417969 36.917969 66.355469 36.976562 66.355469 37.089844 C 66.355469 37.183594 66.222656 37.367188 66.0625 37.496094 C 65.902344 37.625 65.722656 37.769531 65.664062 37.816406 C 65.605469 37.867188 65.492188 37.90625 65.417969 37.90625 C 65.238281 37.90625 64.921875 38.183594 64.921875 38.339844 C 64.921875 38.410156 64.800781 38.605469 64.652344 38.773438 C 64.503906 38.941406 64.382812 39.117188 64.382812 39.160156 C 64.382812 39.203125 64.292969 39.253906 64.183594 39.269531 C 64.070312 39.285156 63.96875 39.375 63.949219 39.472656 C 63.929688 39.566406 63.820312 39.789062 63.707031 39.964844 C 63.59375 40.140625 63.433594 40.519531 63.351562 40.800781 C 63.242188 41.1875 63.164062 41.320312 63.042969 41.320312 C 62.855469 41.320312 62.769531 41.488281 62.769531 41.867188 C 62.769531 42.007812 62.730469 42.128906 62.679688 42.128906 C 62.632812 42.128906 62.589844 42.3125 62.589844 42.542969 C 62.589844 42.769531 62.523438 43.292969 62.4375 43.703125 C 62.300781 44.375 62.296875 44.550781 62.40625 45.421875 C 62.472656 45.957031 62.546875 46.636719 62.566406 46.933594 C 62.589844 47.230469 62.644531 47.511719 62.6875 47.558594 C 62.734375 47.605469 62.769531 47.746094 62.769531 47.871094 C 62.773438 48.269531 62.875 48.503906 63.039062 48.503906 C 63.214844 48.503906 63.308594 48.675781 63.308594 49 C 63.308594 49.117188 63.410156 49.402344 63.53125 49.636719 C 63.65625 49.867188 63.753906 50.128906 63.753906 50.21875 C 63.753906 50.480469 64.058594 50.929688 64.234375 50.929688 C 64.324219 50.929688 64.421875 51.011719 64.445312 51.109375 C 64.472656 51.207031 64.523438 51.289062 64.5625 51.289062 C 64.597656 51.289062 64.652344 51.402344 64.683594 51.535156 C 64.75 51.832031 65.195312 52.335938 65.425781 52.382812 C 65.515625 52.398438 65.640625 52.519531 65.703125 52.648438 C 65.90625 53.078125 66.496094 53.421875 66.925781 53.367188 C 66.964844 53.359375 66.9375 53.257812 66.855469 53.132812 C 66.777344 53.011719 66.710938 52.832031 66.710938 52.734375 C 66.710938 52.625 66.640625 52.550781 66.519531 52.53125 C 66.414062 52.515625 66.28125 52.421875 66.230469 52.324219 C 66.175781 52.222656 66.109375 52.121094 66.085938 52.097656 C 65.996094 52.007812 65.816406 51.648438 65.816406 51.5625 C 65.816406 51.308594 65.410156 50.570312 65.273438 50.570312 C 65.167969 50.570312 65.101562 50.46875 65.058594 50.246094 C 65.023438 50.066406 64.960938 49.855469 64.917969 49.773438 C 64.820312 49.59375 64.660156 48.898438 64.566406 48.234375 C 64.527344 47.964844 64.449219 47.601562 64.394531 47.429688 C 64.335938 47.246094 64.292969 46.460938 64.292969 45.539062 C 64.292969 44.621094 64.335938 43.835938 64.394531 43.652344 C 64.449219 43.480469 64.527344 43.117188 64.566406 42.847656 C 64.636719 42.34375 64.796875 41.6875 64.925781 41.363281 C 64.964844 41.265625 65.023438 41.09375 65.054688 40.980469 C 65.085938 40.867188 65.183594 40.78125 65.273438 40.78125 C 65.394531 40.78125 65.449219 40.6875 65.492188 40.421875 C 65.523438 40.222656 65.589844 40.0625 65.636719 40.0625 C 65.6875 40.0625 65.726562 39.984375 65.726562 39.886719 C 65.726562 39.792969 65.761719 39.691406 65.804688 39.664062 C 65.847656 39.636719 65.90625 39.496094 65.9375 39.351562 C 66 39.027344 66.238281 38.726562 66.511719 38.617188 C 66.640625 38.566406 66.710938 38.464844 66.710938 38.328125 C 66.710938 38.210938 66.828125 37.988281 66.964844 37.832031 C 67.453125 37.285156 67.765625 36.960938 68.023438 36.738281 C 68.566406 36.261719 68.554688 35.917969 68.007812 36.332031 M 3.140625 74.417969 L 3.144531 87.445312 L 147.574219 87.445312 L 147.574219 74.417969 C 147.578125 67.253906 147.566406 62.121094 147.550781 63.011719 C 147.53125 64.332031 147.5 64.648438 147.390625 64.730469 C 147.269531 64.820312 147.269531 64.835938 147.390625 64.882812 C 147.515625 64.929688 147.527344 66.171875 147.527344 76.167969 L 147.527344 87.398438 L 3.1875 87.398438 L 3.1875 76.167969 C 3.1875 66.171875 3.203125 64.929688 3.324219 64.882812 C 3.445312 64.835938 3.449219 64.820312 3.324219 64.730469 C 3.214844 64.648438 3.183594 64.332031 3.164062 63.011719 C 3.148438 62.121094 3.140625 67.253906 3.140625 74.417969 "/>
</g>
</svg>
