<svg xmlns="http://www.w3.org/2000/svg" viewBox="0 0 72 72"><rect width="62" height="38" x="5" y="17" fill="#5c9e31" rx="3.2" ry="3.2"/><path d="M29.481 39.995 12.135 50.627C9.013 52.54 5 50.294 5 46.63V25.37c0-3.663 4.013-5.91 7.135-3.996l17.346 10.631c2.983 1.829 2.983 6.163 0 7.991ZM42.12 39.75l18.182 11.145C63.233 52.69 67 50.581 67 47.144V24.856c0-3.438-3.767-5.547-6.698-3.75L42.12 32.248c-2.8 1.717-2.8 5.785 0 7.502Z"/><path fill="#fcea2b" d="M5 21.692v-2.418A2.274 2.274 0 0 1 7.274 17h4.113c.401 0 .796.106 1.143.308l53.34 31.034c.7.407 1.13 1.156 1.13 1.966v2.418A2.274 2.274 0 0 1 64.726 55h-4.112c-.402 0-.797-.106-1.144-.308L6.13 23.658A2.274 2.274 0 0 1 5 21.692Z"/><path fill="#fcea2b" d="M67 21.318v-1.393A2.925 2.925 0 0 0 64.075 17H60.79c-.517 0-1.024.137-1.47.397L6.453 48.154A2.925 2.925 0 0 0 5 50.682v1.393A2.925 2.925 0 0 0 7.925 55h3.286c.517 0 1.024-.137 1.47-.397l52.865-30.757A2.925 2.925 0 0 0 67 21.318Z"/><path fill="none" stroke="#000" stroke-linecap="round" stroke-linejoin="round" stroke-width="2" d="M5 17h62v38H5z"/></svg>