<?xml version="1.0" encoding="UTF-8"?>
<svg xmlns="http://www.w3.org/2000/svg" xmlns:xlink="http://www.w3.org/1999/xlink" width="150px" height="150px" viewBox="0 0 150 100" version="1.1">
<g id="surface1">
<rect x="0" y="0" width="150" height="100" style="fill:rgb(100%,100%,100%);fill-opacity:1;stroke:none;"/>
<path style=" stroke:none;fill-rule:nonzero;fill:rgb(92.941177%,12.54902%,14.117648%);fill-opacity:1;" d="M 0 0 L 150 0 L 150 33.332031 L 0 33.332031 Z M 0 0 "/>
<path style=" stroke:none;fill-rule:nonzero;fill:rgb(15.294118%,55.686277%,26.274511%);fill-opacity:1;" d="M 0 66.667969 L 150 66.667969 L 150 100 L 0 100 Z M 0 66.667969 "/>
<path style=" stroke:none;fill-rule:nonzero;fill:rgb(99.607843%,74.117649%,6.666667%);fill-opacity:1;" d="M 75 25 L 76.875 37.710938 L 82.410156 26.117188 L 80.453125 38.816406 L 89.164062 29.367188 L 83.550781 40.925781 L 94.65625 34.464844 L 85.886719 43.855469 L 98.402344 40.957031 L 87.253906 47.34375 L 100.070312 48.261719 L 87.535156 51.078125 L 99.511719 55.734375 L 86.703125 54.734375 L 96.773438 62.710938 L 84.828125 57.976562 L 92.101562 68.570312 L 82.082031 60.527344 L 85.90625 72.792969 L 78.707031 62.152344 L 78.746094 75 L 75 62.710938 L 71.253906 75 L 71.292969 62.152344 L 64.09375 72.792969 L 67.917969 60.527344 L 57.898438 68.570312 L 65.171875 57.976562 L 53.226562 62.710938 L 63.296875 54.734375 L 50.488281 55.734375 L 62.464844 51.078125 L 49.929688 48.261719 L 62.746094 47.34375 L 51.597656 40.957031 L 64.113281 43.855469 L 55.34375 34.464844 L 66.449219 40.925781 L 60.835938 29.367188 L 69.546875 38.816406 L 67.589844 26.117188 L 73.125 37.710938 Z M 75 25 "/>
</g>
</svg>
