<?xml version="1.0" encoding="UTF-8"?>
<svg xmlns="http://www.w3.org/2000/svg" xmlns:xlink="http://www.w3.org/1999/xlink" width="150px" height="150px" viewBox="0 0 150 150" version="1.1">
<g id="surface1">
<path style=" stroke:none;fill-rule:evenodd;fill:rgb(3.921569%,1.960784%,3.921569%);fill-opacity:1;" d="M 0 74.933594 L 0 129.367188 L 150 129.367188 L 150 20.5 L 0 20.5 L 0 74.933594 M 143.78125 26.191406 C 143.972656 26.296875 144.21875 26.539062 144.324219 26.734375 C 144.621094 27.28125 144.621094 122.582031 144.324219 123.132812 C 144.21875 123.324219 143.972656 123.570312 143.78125 123.675781 C 143.445312 123.859375 140.214844 123.867188 75 123.867188 C 9.785156 123.867188 6.554688 123.859375 6.21875 123.675781 C 6.027344 123.570312 5.78125 123.324219 5.675781 123.132812 C 5.378906 122.585938 5.378906 27.28125 5.675781 26.734375 C 5.878906 26.359375 6.15625 26.171875 6.679688 26.042969 C 7.507812 25.84375 143.410156 25.988281 143.78125 26.191406 M 75.261719 43.59375 C 74.957031 44.023438 75.082031 44.273438 75.632812 44.320312 C 76.390625 44.386719 76.648438 44.058594 76.242188 43.539062 C 75.933594 43.148438 75.5625 43.167969 75.261719 43.59375 M 79.566406 43.792969 C 79.523438 43.859375 79.25 44.03125 78.957031 44.183594 C 78.398438 44.464844 78.324219 44.585938 78.5625 44.824219 C 79.148438 45.414062 80.152344 44.851562 80.03125 44 C 79.996094 43.730469 79.6875 43.59375 79.566406 43.792969 M 98.972656 49.480469 C 98.757812 49.695312 98.816406 50.089844 99.070312 50.171875 C 99.386719 50.269531 99.761719 49.898438 99.660156 49.578125 C 99.578125 49.324219 99.183594 49.265625 98.972656 49.480469 M 94.132812 50.773438 C 93.527344 51.25 93.957031 52.417969 94.609375 52.070312 C 94.929688 51.898438 95.09375 51.136719 94.882812 50.808594 C 94.671875 50.488281 94.503906 50.480469 94.132812 50.773438 M 100.144531 51.300781 C 100.144531 51.457031 100.214844 51.527344 100.371094 51.527344 C 100.527344 51.527344 100.585938 51.46875 100.558594 51.335938 C 100.503906 51.054688 100.144531 51.023438 100.144531 51.300781 M 69.757812 53.230469 C 69.503906 53.335938 69.621094 53.488281 69.957031 53.488281 C 70.179688 53.488281 70.277344 53.441406 70.246094 53.351562 C 70.199219 53.199219 69.96875 53.144531 69.757812 53.230469 M 74.671875 54.796875 C 74.609375 54.898438 75.230469 55.230469 75.484375 55.230469 C 75.664062 55.230469 75.613281 54.824219 75.425781 54.75 C 75.160156 54.648438 74.75 54.671875 74.671875 54.796875 M 76.105469 64.554688 C 75.964844 64.695312 76.03125 65.25 76.195312 65.3125 C 76.386719 65.386719 76.683594 65.175781 76.683594 64.964844 C 76.683594 64.6875 76.269531 64.390625 76.105469 64.554688 M 97.097656 66.238281 C 97 66.417969 97.003906 66.488281 97.121094 66.5625 C 97.332031 66.695312 97.398438 66.683594 97.472656 66.488281 C 97.65625 66.007812 97.332031 65.796875 97.097656 66.238281 M 73.988281 66.230469 C 74.011719 66.296875 74.074219 66.347656 74.132812 66.347656 C 74.1875 66.347656 74.25 66.296875 74.273438 66.230469 C 74.292969 66.167969 74.230469 66.113281 74.132812 66.113281 C 74.03125 66.113281 73.96875 66.167969 73.988281 66.230469 M 95.691406 66.972656 C 95.203125 67.109375 95.328125 67.75 95.847656 67.75 C 96.148438 67.75 96.34375 67.550781 96.34375 67.25 C 96.34375 67.0625 96.097656 66.820312 95.980469 66.886719 C 95.972656 66.894531 95.839844 66.933594 95.691406 66.972656 M 93.847656 67.632812 C 93.695312 67.921875 93.707031 68.132812 93.886719 68.28125 C 94.058594 68.425781 94.386719 68.179688 94.386719 67.914062 C 94.386719 67.433594 94.050781 67.257812 93.847656 67.632812 M 80.328125 68.316406 C 79.894531 68.9375 80.1875 70.0625 80.773438 70.015625 C 81.28125 69.96875 81.402344 69.765625 81.304688 69.113281 C 81.183594 68.28125 80.652344 67.851562 80.328125 68.316406 M 70.605469 69.644531 C 70.425781 69.867188 70.539062 70.144531 70.808594 70.144531 C 71.058594 70.144531 71.386719 69.84375 71.332031 69.667969 C 71.269531 69.476562 70.761719 69.460938 70.605469 69.644531 M 67.996094 70.742188 C 67.894531 70.863281 67.886719 70.949219 67.964844 71.027344 C 68.144531 71.207031 68.484375 71.089844 68.484375 70.851562 C 68.484375 70.582031 68.183594 70.515625 67.996094 70.742188 M 70.390625 74.109375 C 70.28125 74.242188 70.273438 74.320312 70.363281 74.410156 C 70.453125 74.503906 70.503906 74.488281 70.554688 74.355469 C 70.664062 74.066406 70.558594 73.90625 70.390625 74.109375 M 80.136719 87.753906 C 79.636719 88.324219 79.667969 88.667969 80.230469 88.808594 C 80.765625 88.941406 80.964844 88.5 80.644531 87.882812 C 80.453125 87.511719 80.363281 87.488281 80.136719 87.753906 "/>
<path style=" stroke:none;fill-rule:evenodd;fill:rgb(51.372552%,1.568628%,49.019608%);fill-opacity:1;" d="M 6.679688 26.042969 C 6.15625 26.171875 5.878906 26.359375 5.675781 26.734375 C 5.378906 27.28125 5.378906 122.585938 5.675781 123.132812 C 5.78125 123.324219 6.027344 123.570312 6.21875 123.675781 C 6.554688 123.859375 9.785156 123.867188 75 123.867188 C 140.214844 123.867188 143.445312 123.859375 143.78125 123.675781 C 143.972656 123.570312 144.21875 123.324219 144.324219 123.132812 C 144.621094 122.582031 144.621094 27.28125 144.324219 26.734375 C 144.21875 26.539062 143.972656 26.296875 143.78125 26.191406 C 143.410156 25.988281 7.507812 25.84375 6.679688 26.042969 M 143.308594 26.699219 C 143.96875 26.953125 143.917969 22.914062 143.917969 74.933594 C 143.917969 126.953125 143.96875 122.914062 143.308594 123.164062 C 142.933594 123.308594 7.066406 123.308594 6.691406 123.164062 C 6.03125 122.914062 6.082031 126.953125 6.082031 74.933594 C 6.082031 23.160156 6.039062 26.957031 6.660156 26.707031 C 6.992188 26.570312 142.953125 26.566406 143.308594 26.699219 M 79.453125 41.542969 C 78.917969 41.847656 78.90625 42.027344 79.398438 42.355469 C 80.203125 42.886719 80.203125 42.890625 79.957031 43.304688 C 79.78125 43.605469 79.769531 43.683594 79.894531 43.730469 C 80.324219 43.894531 79.992188 44.789062 79.421875 45.007812 C 78.75 45.261719 78.105469 44.625 78.714844 44.304688 C 78.984375 44.160156 78.929688 44.148438 77.910156 44.105469 C 77.214844 44.078125 76.753906 44.011719 76.640625 43.917969 C 76.492188 43.792969 76.464844 43.796875 76.464844 43.945312 C 76.464844 44.351562 75.398438 44.503906 75.140625 44.136719 C 75.011719 43.953125 74.96875 43.945312 74.785156 44.082031 C 74.441406 44.332031 72.386719 44.285156 71.585938 44.007812 C 70.765625 43.726562 70.660156 43.777344 69.964844 44.808594 C 69.128906 46.046875 68.476562 46.703125 67.546875 47.242188 C 66.078125 48.089844 65.746094 48.578125 65.9375 49.613281 C 66.066406 50.292969 66.160156 50.445312 66.816406 51.007812 C 67.425781 51.539062 67.460938 51.773438 66.957031 51.964844 C 66.105469 52.289062 65.320312 52.003906 64.519531 51.082031 C 63.429688 49.824219 62.507812 50.660156 63.039062 52.429688 C 63.445312 53.78125 64.34375 54.273438 66.457031 54.292969 C 67.953125 54.304688 68.050781 54.375 67.941406 55.363281 C 67.859375 56.144531 67.96875 56.351562 68.640625 56.695312 C 70.144531 57.460938 68.5625 58.851562 67.015625 58.125 C 65.746094 57.527344 64.734375 58.429688 64.734375 60.167969 C 64.734375 61.488281 63.183594 60.988281 60.121094 58.683594 C 57.324219 56.578125 56.988281 56.128906 56.8125 54.21875 C 56.730469 53.289062 56.574219 52.886719 56.003906 52.101562 C 55.570312 51.503906 55.34375 51.453125 54.464844 51.746094 C 53.628906 52.027344 53.230469 51.992188 52.3125 51.574219 C 50.347656 50.671875 49.449219 51.171875 48.984375 53.433594 C 48.839844 54.148438 48.714844 54.429688 48.226562 55.15625 C 47.726562 55.902344 47.707031 56.195312 48.113281 56.910156 C 48.828125 58.160156 49.332031 58.53125 50.566406 58.703125 C 51.816406 58.882812 51.976562 59.121094 51.773438 60.519531 C 51.582031 61.851562 51.898438 62.074219 54.050781 62.136719 C 55.664062 62.179688 55.828125 62.273438 55.828125 63.128906 C 55.828125 63.804688 56 64.09375 56.652344 64.527344 C 56.964844 64.738281 57.375 65.128906 57.5625 65.402344 C 57.746094 65.671875 58.113281 66.015625 58.375 66.171875 C 58.660156 66.339844 58.894531 66.574219 58.96875 66.773438 C 59.035156 66.949219 59.140625 67.238281 59.207031 67.414062 C 59.367188 67.847656 59.800781 68.019531 61.125 68.175781 C 63.488281 68.449219 63.484375 68.886719 61.097656 70.417969 C 55.230469 74.1875 55.242188 74.183594 52.820312 73.695312 C 49.4375 73.015625 49.152344 73.097656 48.835938 74.878906 C 48.730469 75.476562 48.570312 76.1875 48.476562 76.457031 C 47.886719 78.1875 47.671875 78.773438 47.523438 79.0625 C 47.144531 79.796875 48.011719 80.476562 50.101562 81.074219 C 50.605469 81.21875 50.859375 81.382812 51.386719 81.90625 C 52.160156 82.664062 52.230469 82.675781 53.617188 82.273438 C 54.996094 81.875 55.425781 81.589844 56 80.691406 C 56.820312 79.40625 57.523438 79.203125 58.808594 79.886719 C 59.570312 80.289062 59.917969 80.351562 60.195312 80.132812 C 60.542969 79.851562 61.625 78.480469 61.953125 77.898438 C 62.589844 76.765625 63.605469 76.523438 65.304688 77.097656 C 66.226562 77.410156 66.371094 77.363281 67.183594 76.5 C 68.167969 75.453125 68.441406 75.484375 71.796875 77.003906 C 72.960938 77.53125 74.300781 78.117188 74.773438 78.304688 C 79.675781 80.253906 80.238281 81.339844 76.628906 81.898438 C 75.792969 82.027344 74.472656 82.324219 73.695312 82.558594 C 71.808594 83.125 69.664062 83.640625 69.191406 83.644531 C 68.386719 83.644531 68.039062 83.832031 67.429688 84.582031 C 67.113281 84.976562 66.757812 85.417969 66.640625 85.5625 C 66.203125 86.105469 66.320312 87.789062 66.910156 89.359375 C 67.679688 91.417969 66.902344 93.6875 65.15625 94.472656 C 63.730469 95.113281 62.746094 94.972656 62.027344 94.023438 C 61.507812 93.335938 61.082031 93.039062 60.332031 92.847656 C 59.976562 92.757812 59.503906 92.601562 59.285156 92.503906 C 58.742188 92.261719 58.640625 92.324219 58.242188 93.128906 C 57.792969 94.039062 57.359375 94.550781 56.578125 95.082031 C 55.894531 95.546875 55.113281 96.441406 55 96.886719 C 54.871094 97.402344 55.746094 98.929688 56.703125 99.863281 C 57.554688 100.691406 57.675781 100.917969 57.835938 101.945312 C 57.941406 102.625 58.863281 102.957031 60.644531 102.964844 L 61.382812 102.964844 L 61.835938 102.46875 C 62.085938 102.195312 62.421875 101.816406 62.582031 101.625 C 63.0625 101.046875 63.773438 101.222656 64.464844 102.085938 C 65.421875 103.277344 65.316406 103.253906 66.449219 102.527344 C 67.582031 101.796875 67.761719 101.625 68.101562 100.953125 C 68.597656 99.972656 68.847656 99.824219 69.871094 99.910156 C 70.789062 99.984375 70.988281 99.925781 71.523438 99.421875 C 71.902344 99.0625 73.078125 98.542969 74.4375 98.136719 C 76.066406 97.644531 76.207031 97.347656 75.429688 96.054688 C 74.808594 95.019531 74.714844 94.707031 74.652344 93.441406 C 74.558594 91.652344 74.820312 91.199219 76.113281 90.929688 C 76.425781 90.867188 77.332031 90.59375 78.125 90.324219 C 80.1875 89.628906 80.203125 89.632812 81.121094 91.421875 C 81.550781 92.253906 81.679688 92.617188 81.679688 93 C 81.683594 93.273438 81.753906 93.761719 81.839844 94.085938 C 81.960938 94.546875 81.96875 94.773438 81.875 95.125 C 81.589844 96.1875 82.070312 96.566406 83.523438 96.433594 C 84.03125 96.386719 84.667969 96.355469 84.9375 96.367188 C 85.207031 96.378906 85.777344 96.332031 86.203125 96.261719 C 87.984375 95.972656 89.675781 97.695312 89.386719 99.503906 C 89.023438 101.804688 88.285156 103.0625 86.878906 103.796875 C 84.902344 104.828125 83.703125 106.566406 84.597656 107.101562 C 85.617188 107.710938 86.199219 108.644531 87.011719 110.960938 C 87.394531 112.050781 87.703125 112.171875 88.582031 111.578125 C 88.882812 111.375 89.507812 111.105469 89.980469 110.976562 C 90.535156 110.824219 91.054688 110.589844 91.460938 110.300781 C 91.988281 109.933594 92.199219 109.851562 92.777344 109.800781 C 93.617188 109.726562 93.792969 109.644531 94.023438 109.195312 C 94.121094 109.003906 94.421875 108.554688 94.695312 108.203125 C 95.484375 107.171875 95.636719 106.453125 95.300781 105.371094 C 95.058594 104.59375 95.1875 104.332031 96.101562 103.746094 C 97.46875 102.867188 97.636719 102.488281 97.09375 101.53125 C 96.652344 100.761719 96.65625 100.382812 97.109375 99.414062 C 97.496094 98.582031 97.523438 98.339844 97.433594 96.542969 C 97.417969 96.242188 97.492188 95.707031 97.59375 95.351562 C 97.738281 94.851562 97.769531 94.496094 97.714844 93.816406 C 97.660156 93.085938 97.6875 92.8125 97.863281 92.296875 C 98.480469 90.496094 97.960938 89.9375 96.042969 90.339844 C 92.796875 91.019531 90.265625 88.746094 90.261719 85.148438 C 90.261719 83.667969 90.433594 83.585938 92.242188 84.171875 C 98.355469 86.15625 102.316406 84.527344 102.316406 80.035156 C 102.316406 79.273438 102.359375 79.109375 102.757812 78.289062 C 103.257812 77.265625 103.273438 76.949219 102.929688 75 C 102.632812 73.320312 102.507812 73.199219 101.605469 73.691406 C 100.753906 74.152344 100.679688 74.089844 99.617188 71.992188 C 98.558594 69.90625 98.46875 69.546875 98.699219 68.347656 C 99.304688 65.152344 98.101562 63.511719 96.394531 65.199219 C 95.535156 66.050781 95.035156 65.707031 94.429688 63.859375 C 93.289062 60.375 94.507812 57.714844 97.636719 56.863281 C 101.039062 55.9375 102.875 52.832031 101.417969 50.460938 C 101.207031 50.121094 100.976562 49.621094 100.90625 49.351562 C 100.683594 48.515625 100.5 48.273438 99.878906 47.976562 C 98.84375 47.488281 97.671875 45.074219 97.546875 43.167969 C 97.457031 41.851562 97.34375 41.667969 96.636719 41.683594 C 94.511719 41.730469 92.925781 45.105469 93.679688 47.984375 C 94.023438 49.292969 94 49.40625 93.257812 50.148438 C 92.234375 51.179688 91.875 52.742188 92.160156 54.941406 C 92.332031 56.238281 92.308594 56.53125 91.898438 58.441406 C 91.230469 61.542969 91.355469 63.464844 92.386719 65.960938 C 92.644531 66.585938 92.777344 67.125 92.847656 67.832031 C 92.972656 69.074219 93.226562 69.535156 94.332031 70.535156 C 94.777344 70.933594 95.171875 71.347656 95.203125 71.449219 C 95.414062 72.117188 94.324219 72.410156 92.976562 72.046875 C 91.714844 71.707031 91.515625 71.90625 91.617188 73.390625 C 91.742188 75.15625 91.910156 75.492188 92.964844 76.019531 C 93.84375 76.460938 94.324219 76.578125 95.691406 76.683594 C 98.089844 76.871094 98.738281 77.273438 99.648438 79.132812 C 100.863281 81.625 98.203125 83.472656 94.480469 82.722656 C 92.707031 82.363281 92.109375 81.96875 90.78125 80.277344 C 90.234375 79.582031 88.832031 77.847656 87.664062 76.421875 C 84.410156 72.449219 82.75 70.148438 82.40625 69.121094 C 81.25 65.699219 81.578125 63.144531 83.199219 62.894531 C 84.355469 62.71875 84.582031 62.332031 84.136719 61.332031 C 83.507812 59.929688 83.339844 58.640625 83.371094 55.445312 L 83.398438 52.5625 L 83.734375 51.855469 C 84.390625 50.472656 84.160156 49.894531 82.960938 49.894531 C 81.738281 49.894531 81.5625 49.566406 81.921875 47.945312 C 82.179688 46.78125 81.378906 44.074219 80.480469 43.089844 C 80.308594 42.898438 80.300781 42.808594 80.402344 42.355469 C 80.625 41.382812 80.273438 41.078125 79.453125 41.542969 M 99.660156 49.578125 C 99.761719 49.898438 99.386719 50.269531 99.070312 50.171875 C 98.816406 50.089844 98.757812 49.695312 98.972656 49.480469 C 99.183594 49.265625 99.578125 49.324219 99.660156 49.578125 M 94.882812 50.808594 C 95.09375 51.136719 94.929688 51.898438 94.609375 52.070312 C 93.957031 52.417969 93.527344 51.25 94.132812 50.773438 C 94.503906 50.480469 94.671875 50.488281 94.882812 50.808594 M 70.875 51.144531 C 71.101562 51.503906 70.898438 51.855469 70.464844 51.855469 C 70.0625 51.855469 69.839844 51.691406 69.839844 51.402344 C 69.839844 50.898438 70.601562 50.710938 70.875 51.144531 M 100.558594 51.335938 C 100.585938 51.46875 100.527344 51.527344 100.371094 51.527344 C 100.214844 51.527344 100.144531 51.457031 100.144531 51.300781 C 100.144531 51.023438 100.503906 51.054688 100.558594 51.335938 M 70.246094 53.351562 C 70.277344 53.441406 70.179688 53.488281 69.957031 53.488281 C 69.621094 53.488281 69.503906 53.335938 69.757812 53.230469 C 69.96875 53.144531 70.199219 53.199219 70.246094 53.351562 M 75.425781 54.75 C 75.613281 54.824219 75.664062 55.230469 75.484375 55.230469 C 75.230469 55.230469 74.609375 54.898438 74.671875 54.796875 C 74.75 54.671875 75.160156 54.648438 75.425781 54.75 M 76.511719 64.652344 C 76.726562 64.867188 76.730469 65.070312 76.523438 65.242188 C 76.277344 65.445312 76.03125 65.292969 76.03125 64.9375 C 76.03125 64.460938 76.210938 64.351562 76.511719 64.652344 M 97.539062 66.160156 C 97.539062 66.371094 97.421875 66.660156 97.335938 66.65625 C 97.089844 66.652344 96.980469 66.457031 97.097656 66.238281 C 97.234375 65.976562 97.539062 65.925781 97.539062 66.160156 M 74.273438 66.230469 C 74.25 66.296875 74.1875 66.347656 74.132812 66.347656 C 74.074219 66.347656 74.011719 66.296875 73.988281 66.230469 C 73.96875 66.167969 74.03125 66.113281 74.132812 66.113281 C 74.230469 66.113281 74.292969 66.167969 74.273438 66.230469 M 96.171875 66.945312 C 96.5625 67.09375 96.296875 67.75 95.847656 67.75 C 95.328125 67.75 95.203125 67.109375 95.691406 66.972656 C 95.839844 66.933594 95.972656 66.894531 95.980469 66.886719 C 95.992188 66.882812 96.078125 66.90625 96.171875 66.945312 M 94.320312 67.59375 C 94.429688 67.871094 94.398438 68.046875 94.214844 68.234375 C 93.882812 68.566406 93.601562 68.097656 93.847656 67.632812 C 93.984375 67.378906 94.230469 67.359375 94.320312 67.59375 M 80.96875 68.332031 C 81.261719 68.625 81.449219 69.53125 81.277344 69.808594 C 81.078125 70.125 80.394531 70.09375 80.269531 69.761719 C 79.886719 68.753906 80.382812 67.746094 80.96875 68.332031 M 71.332031 69.667969 C 71.386719 69.84375 71.058594 70.144531 70.808594 70.144531 C 70.539062 70.144531 70.425781 69.867188 70.605469 69.644531 C 70.761719 69.460938 71.269531 69.476562 71.332031 69.667969 M 68.484375 70.851562 C 68.484375 71.089844 68.144531 71.207031 67.964844 71.027344 C 67.886719 70.949219 67.894531 70.863281 67.996094 70.742188 C 68.183594 70.515625 68.484375 70.582031 68.484375 70.851562 M 70.554688 74.355469 C 70.503906 74.488281 70.453125 74.503906 70.363281 74.410156 C 70.273438 74.320312 70.28125 74.242188 70.390625 74.109375 C 70.558594 73.90625 70.664062 74.066406 70.554688 74.355469 M 80.644531 87.882812 C 80.964844 88.5 80.765625 88.941406 80.230469 88.808594 C 79.667969 88.667969 79.636719 88.324219 80.136719 87.753906 C 80.363281 87.488281 80.453125 87.511719 80.644531 87.882812 "/>
<path style=" stroke:none;fill-rule:evenodd;fill:rgb(98.431373%,98.431373%,98.431373%);fill-opacity:1;" d="M 6.667969 26.753906 C 6.046875 27.023438 6.082031 24.046875 6.082031 74.953125 C 6.082031 126.925781 6.027344 122.898438 6.738281 123.144531 C 7.320312 123.347656 142.824219 123.320312 143.308594 123.117188 C 143.957031 122.847656 143.917969 126.039062 143.917969 74.933594 C 143.917969 23.828125 143.957031 27.019531 143.308594 26.746094 C 142.773438 26.523438 7.179688 26.527344 6.667969 26.753906 M 76 37.972656 C 76.285156 38.171875 76.640625 39.085938 76.785156 39.996094 C 77.070312 41.777344 78.996094 41.964844 80.050781 40.3125 C 80.921875 38.957031 82.882812 38.292969 83.558594 39.128906 C 83.964844 39.632812 83.738281 40.019531 82.402344 41.109375 C 81.242188 42.058594 80.894531 43.753906 81.558594 45.238281 C 82.050781 46.339844 82.136719 46.976562 81.921875 47.945312 C 81.5625 49.566406 81.738281 49.894531 82.960938 49.894531 C 84.160156 49.894531 84.390625 50.472656 83.734375 51.855469 L 83.398438 52.5625 L 83.371094 55.445312 C 83.339844 58.640625 83.507812 59.929688 84.136719 61.332031 C 84.582031 62.332031 84.355469 62.71875 83.199219 62.894531 C 81.578125 63.144531 81.25 65.699219 82.40625 69.121094 C 82.75 70.148438 84.410156 72.449219 87.664062 76.421875 C 88.832031 77.847656 90.234375 79.582031 90.78125 80.277344 C 92.109375 81.96875 92.707031 82.363281 94.480469 82.722656 C 98.203125 83.472656 100.863281 81.625 99.648438 79.132812 C 98.738281 77.273438 98.089844 76.871094 95.691406 76.683594 C 94.324219 76.578125 93.84375 76.460938 92.964844 76.019531 C 91.910156 75.492188 91.742188 75.15625 91.617188 73.390625 C 91.515625 71.90625 91.714844 71.707031 92.976562 72.046875 C 94.324219 72.410156 95.414062 72.117188 95.203125 71.449219 C 95.171875 71.347656 94.777344 70.933594 94.332031 70.535156 C 93.226562 69.535156 92.972656 69.074219 92.847656 67.832031 C 92.777344 67.125 92.644531 66.585938 92.386719 65.960938 C 91.355469 63.464844 91.230469 61.542969 91.898438 58.441406 C 92.308594 56.53125 92.332031 56.238281 92.160156 54.941406 C 91.875 52.742188 92.234375 51.179688 93.257812 50.148438 C 94 49.40625 94.023438 49.292969 93.679688 47.984375 C 92.925781 45.105469 94.511719 41.730469 96.636719 41.683594 C 97.34375 41.667969 97.457031 41.851562 97.546875 43.167969 C 97.671875 45.074219 98.84375 47.488281 99.878906 47.976562 C 100.5 48.273438 100.683594 48.515625 100.90625 49.351562 C 100.976562 49.621094 101.207031 50.121094 101.417969 50.460938 C 102.875 52.832031 101.039062 55.9375 97.636719 56.863281 C 94.507812 57.714844 93.289062 60.375 94.429688 63.859375 C 95.03125 65.703125 95.519531 66.039062 96.378906 65.199219 C 98.109375 63.519531 99.304688 65.144531 98.699219 68.347656 C 98.46875 69.546875 98.558594 69.90625 99.617188 71.992188 C 100.679688 74.089844 100.753906 74.152344 101.605469 73.691406 C 102.507812 73.199219 102.632812 73.320312 102.929688 75 C 103.273438 76.949219 103.257812 77.265625 102.757812 78.289062 C 102.359375 79.109375 102.316406 79.273438 102.316406 80.035156 C 102.316406 84.527344 98.355469 86.15625 92.242188 84.171875 C 90.433594 83.585938 90.261719 83.667969 90.261719 85.148438 C 90.265625 88.746094 92.796875 91.019531 96.042969 90.339844 C 97.957031 89.9375 98.480469 90.496094 97.871094 92.28125 C 97.699219 92.78125 97.667969 93.070312 97.722656 93.800781 C 97.769531 94.484375 97.738281 94.855469 97.59375 95.347656 C 97.492188 95.707031 97.417969 96.242188 97.433594 96.542969 C 97.523438 98.339844 97.496094 98.582031 97.109375 99.414062 C 96.652344 100.394531 96.648438 100.796875 97.09375 101.511719 C 97.660156 102.429688 97.46875 102.867188 96.101562 103.746094 C 95.171875 104.339844 95.0625 104.582031 95.320312 105.4375 C 95.539062 106.164062 95.480469 107.011719 95.179688 107.484375 C 93.757812 109.738281 93.691406 109.800781 92.792969 109.828125 C 92.175781 109.847656 92.03125 109.902344 91.46875 110.296875 C 91.050781 110.589844 90.542969 110.824219 89.976562 110.976562 C 89.453125 111.121094 88.925781 111.355469 88.617188 111.578125 C 87.777344 112.195312 87.351562 112.082031 87.070312 111.175781 C 86.417969 109.042969 85.589844 107.652344 84.703125 107.203125 C 83.589844 106.636719 84.757812 104.875 87.015625 103.726562 C 88.265625 103.085938 89.035156 101.722656 89.386719 99.503906 C 89.675781 97.695312 87.984375 95.972656 86.203125 96.261719 C 85.777344 96.332031 85.207031 96.378906 84.9375 96.367188 C 84.667969 96.355469 84.03125 96.386719 83.523438 96.433594 C 82.070312 96.566406 81.589844 96.1875 81.875 95.125 C 81.96875 94.773438 81.960938 94.546875 81.839844 94.085938 C 81.753906 93.761719 81.683594 93.273438 81.679688 93 C 81.679688 92.617188 81.550781 92.253906 81.121094 91.421875 C 80.203125 89.632812 80.1875 89.628906 78.125 90.324219 C 77.332031 90.59375 76.425781 90.867188 76.113281 90.929688 C 74.820312 91.199219 74.558594 91.652344 74.652344 93.441406 C 74.714844 94.707031 74.808594 95.019531 75.429688 96.054688 C 76.207031 97.347656 76.066406 97.644531 74.4375 98.136719 C 73.078125 98.542969 71.902344 99.0625 71.523438 99.421875 C 70.988281 99.925781 70.789062 99.984375 69.871094 99.910156 C 68.847656 99.824219 68.597656 99.972656 68.105469 100.949219 C 67.757812 101.636719 67.546875 101.835938 66.324219 102.621094 C 65.378906 103.226562 65.167969 103.222656 64.851562 102.597656 C 64.199219 101.316406 63.019531 100.929688 62.417969 101.800781 C 61.632812 102.933594 61.105469 103.15625 59.757812 102.929688 C 59.359375 102.863281 58.859375 102.78125 58.644531 102.75 C 58.039062 102.660156 57.902344 102.492188 57.777344 101.726562 C 57.628906 100.808594 57.570312 100.703125 56.652344 99.808594 C 55.832031 99.007812 54.960938 97.558594 54.960938 97 C 54.960938 96.613281 55.804688 95.617188 56.613281 95.054688 C 57.378906 94.519531 58.023438 93.730469 58.289062 93.003906 C 58.589844 92.1875 58.660156 92.15625 59.382812 92.484375 C 59.730469 92.644531 60.25 92.832031 60.542969 92.90625 C 61.078125 93.042969 61.414062 93.3125 62.328125 94.339844 C 63.453125 95.605469 66.414062 94.417969 66.980469 92.476562 C 67.246094 91.5625 67.214844 90.171875 66.910156 89.359375 C 66.320312 87.789062 66.203125 86.105469 66.640625 85.5625 C 66.757812 85.417969 67.113281 84.976562 67.429688 84.582031 C 68.039062 83.832031 68.386719 83.644531 69.191406 83.644531 C 69.664062 83.640625 71.808594 83.125 73.695312 82.558594 C 74.472656 82.324219 75.792969 82.027344 76.628906 81.898438 C 80.238281 81.339844 79.675781 80.253906 74.773438 78.304688 C 74.300781 78.117188 72.960938 77.53125 71.796875 77.003906 C 68.4375 75.480469 68.167969 75.453125 67.183594 76.503906 C 66.40625 77.335938 66.191406 77.410156 65.359375 77.121094 C 64.511719 76.828125 63.585938 76.734375 63.03125 76.882812 C 62.550781 77.015625 62.34375 77.226562 61.769531 78.164062 C 61.21875 79.0625 60.191406 80.257812 59.90625 80.332031 C 59.714844 80.378906 59.460938 80.285156 58.980469 79.988281 C 57.660156 79.171875 56.847656 79.363281 56 80.691406 C 55.425781 81.589844 54.996094 81.875 53.617188 82.273438 C 52.214844 82.679688 52.132812 82.667969 51.382812 81.90625 C 50.859375 81.375 50.632812 81.226562 50.109375 81.082031 C 49.761719 80.984375 49.132812 80.742188 48.714844 80.542969 C 48.296875 80.34375 47.820312 80.125 47.652344 80.0625 C 47.210938 79.886719 47.175781 79.648438 47.5 79.023438 C 47.753906 78.535156 47.925781 78.082031 48.496094 76.402344 C 48.578125 76.164062 48.730469 75.484375 48.835938 74.898438 C 49.152344 73.09375 49.429688 73.007812 52.820312 73.695312 C 55.242188 74.183594 55.230469 74.1875 61.097656 70.417969 C 63.484375 68.886719 63.488281 68.449219 61.125 68.175781 C 59.800781 68.019531 59.367188 67.847656 59.207031 67.414062 C 59.140625 67.238281 59.035156 66.949219 58.96875 66.773438 C 58.894531 66.574219 58.660156 66.339844 58.375 66.171875 C 58.113281 66.015625 57.746094 65.671875 57.5625 65.402344 C 57.375 65.128906 56.964844 64.738281 56.652344 64.527344 C 56 64.09375 55.828125 63.804688 55.828125 63.128906 C 55.828125 62.277344 55.660156 62.179688 54.074219 62.136719 C 51.851562 62.074219 51.472656 61.804688 51.75 60.480469 C 52.019531 59.1875 51.816406 58.882812 50.566406 58.703125 C 49.375 58.535156 48.953125 58.246094 48.1875 57.066406 C 47.683594 56.289062 47.679688 55.957031 48.179688 55.214844 C 48.746094 54.375 48.773438 54.308594 49.042969 53.210938 C 49.359375 51.9375 49.660156 51.335938 50.03125 51.242188 C 50.527344 51.117188 51.699219 51.292969 52.335938 51.582031 C 53.203125 51.980469 53.695312 52.019531 54.460938 51.753906 C 55.40625 51.421875 55.535156 51.445312 55.972656 52.058594 C 56.589844 52.921875 56.726562 53.273438 56.8125 54.21875 C 56.988281 56.128906 57.324219 56.578125 60.121094 58.683594 C 63.183594 60.988281 64.734375 61.488281 64.734375 60.167969 C 64.734375 58.429688 65.746094 57.527344 67.015625 58.125 C 68.5625 58.851562 70.144531 57.460938 68.640625 56.695312 C 67.96875 56.351562 67.859375 56.144531 67.941406 55.363281 C 68.050781 54.375 67.953125 54.304688 66.457031 54.292969 C 64.34375 54.273438 63.445312 53.78125 63.039062 52.429688 C 62.507812 50.660156 63.429688 49.824219 64.519531 51.082031 C 65.320312 52.003906 66.105469 52.289062 66.957031 51.964844 C 67.46875 51.769531 67.425781 51.542969 66.769531 50.96875 C 65.511719 49.859375 65.570312 48.488281 66.917969 47.640625 C 68.390625 46.71875 68.609375 46.542969 69.203125 45.835938 C 70.59375 44.167969 70.542969 42.585938 69.070312 41.457031 C 67.871094 40.542969 67.765625 39.414062 68.855469 39.117188 C 69.613281 38.914062 70.441406 39.320312 71.394531 40.375 C 72.519531 41.617188 73.96875 41.558594 73.96875 40.273438 C 73.96875 38.636719 75.109375 37.347656 76 37.972656 M 70.015625 51.039062 C 69.636719 51.417969 69.878906 51.855469 70.464844 51.855469 C 70.738281 51.855469 70.847656 51.792969 70.921875 51.609375 C 71.121094 51.089844 70.414062 50.640625 70.015625 51.039062 "/>
<path style=" stroke:none;fill-rule:evenodd;fill:rgb(83.137256%,78.823531%,5.882353%);fill-opacity:1;" d="M 74.667969 38.289062 C 74.191406 38.789062 73.96875 39.421875 73.96875 40.273438 C 73.96875 41.558594 72.519531 41.617188 71.394531 40.375 C 70.441406 39.320312 69.613281 38.914062 68.855469 39.117188 C 67.773438 39.410156 67.871094 40.542969 69.050781 41.445312 C 69.917969 42.109375 70.347656 43.132812 70.167969 44.113281 L 70.089844 44.539062 L 70.441406 44.167969 C 70.851562 43.730469 70.816406 43.738281 71.605469 44.015625 C 72.082031 44.183594 72.503906 44.234375 73.441406 44.234375 L 74.660156 44.234375 L 75.113281 43.742188 C 75.660156 43.15625 75.871094 43.136719 76.335938 43.628906 C 76.917969 44.242188 78.972656 44.351562 79.566406 43.796875 C 80.285156 43.121094 80.265625 42.929688 79.398438 42.355469 C 78.90625 42.027344 78.917969 41.847656 79.453125 41.542969 C 80.273438 41.078125 80.625 41.382812 80.402344 42.355469 C 80.296875 42.808594 80.308594 42.898438 80.484375 43.089844 C 80.59375 43.210938 80.804688 43.578125 80.953125 43.90625 L 81.21875 44.503906 L 81.226562 43.875 C 81.234375 42.636719 81.609375 41.757812 82.402344 41.109375 C 83.738281 40.019531 83.964844 39.632812 83.558594 39.128906 C 82.882812 38.292969 80.921875 38.957031 80.050781 40.3125 C 78.996094 41.964844 77.070312 41.777344 76.785156 39.996094 C 76.449219 37.902344 75.652344 37.257812 74.667969 38.289062 "/>
</g>
</svg>
