<?xml version="1.0" encoding="UTF-8"?>
<svg xmlns="http://www.w3.org/2000/svg" xmlns:xlink="http://www.w3.org/1999/xlink" width="150px" height="150px" viewBox="0 0 150 100" version="1.1">
<g id="surface1">
<path style=" stroke:none;fill-rule:nonzero;fill:rgb(0%,0%,0%);fill-opacity:1;" d="M 0 0 L 75 0 L 75 50 L 0 50 Z M 0 0 "/>
<path style=" stroke:none;fill-rule:nonzero;fill:rgb(91.764706%,67.058825%,0%);fill-opacity:1;" d="M 0 50 L 0 8.332031 L 12.5 16.667969 L 12.5 50 L 25 50 L 25 0 L 37.5 0 L 37.5 50 L 50 50 L 50 0 L 62.5 0 L 62.5 50 L 75 50 L 75 41.667969 L 12.5 0 L 12.5 16.667969 L 62.5 50 Z M 0 50 "/>
<path style=" stroke:none;fill-rule:nonzero;fill:rgb(100%,100%,100%);fill-opacity:1;" d="M 75 0 L 150 0 L 150 50 L 75 50 Z M 75 0 "/>
<path style=" stroke:none;fill-rule:nonzero;fill:rgb(59.607846%,11.764706%,19.607843%);fill-opacity:1;" d="M 112.5 0 L 150 0 L 150 25 L 75 25 L 75 50 L 112.5 50 Z M 112.5 0 "/>
<path style=" stroke:none;fill-rule:nonzero;fill:rgb(59.607846%,11.764706%,19.607843%);fill-opacity:1;" d="M 112.5 46.5 C 114.265625 46.5 115.699219 45.066406 115.699219 43.300781 L 115.699219 41.699219 L 118.800781 41.699219 C 120.566406 41.699219 122 40.265625 122 38.5 C 122 36.734375 120.566406 35.300781 118.800781 35.300781 L 115.699219 35.300781 L 115.699219 28.199219 L 135.601562 28.199219 L 135.601562 31.300781 C 135.601562 33.066406 137.03125 34.5 138.800781 34.5 C 140.566406 34.5 142 33.066406 142 31.300781 L 142 28.199219 L 144.800781 28.199219 C 146.566406 28.199219 148 26.765625 148 25 L 112.5 25 Z M 112.5 46.5 "/>
<path style=" stroke:none;fill-rule:nonzero;fill:rgb(100%,100%,100%);fill-opacity:1;" d="M 112.5 46.5 C 110.734375 46.5 109.300781 45.066406 109.300781 43.300781 L 109.300781 41.699219 L 106.199219 41.699219 C 104.433594 41.699219 103 40.265625 103 38.5 C 103 36.734375 104.433594 35.300781 106.199219 35.300781 L 109.300781 35.300781 L 109.300781 28.199219 L 89.398438 28.199219 L 89.398438 31.300781 C 89.398438 33.066406 87.96875 34.5 86.199219 34.5 C 84.433594 34.5 83 33.066406 83 31.300781 L 83 28.199219 L 80.199219 28.199219 C 78.433594 28.199219 77 26.765625 77 25 L 112.5 25 Z M 112.5 46.5 "/>
<path style=" stroke:none;fill-rule:nonzero;fill:rgb(100%,100%,100%);fill-opacity:1;" d="M 112.5 3.5 C 114.265625 3.5 115.699219 4.933594 115.699219 6.699219 L 115.699219 8.300781 L 118.800781 8.300781 C 120.566406 8.300781 122 9.734375 122 11.5 C 122 13.265625 120.566406 14.699219 118.800781 14.699219 L 115.699219 14.699219 L 115.699219 21.800781 L 135.601562 21.800781 L 135.601562 18.699219 C 135.601562 16.933594 137.03125 15.5 138.800781 15.5 C 140.566406 15.5 142 16.933594 142 18.699219 L 142 21.800781 L 144.800781 21.800781 C 146.566406 21.800781 148 23.234375 148 25 L 112.5 25 Z M 112.5 3.5 "/>
<path style=" stroke:none;fill-rule:nonzero;fill:rgb(59.607846%,11.764706%,19.607843%);fill-opacity:1;" d="M 112.5 3.5 C 110.734375 3.5 109.300781 4.933594 109.300781 6.699219 L 109.300781 8.300781 L 106.199219 8.300781 C 104.433594 8.300781 103 9.734375 103 11.5 C 103 13.265625 104.433594 14.699219 106.199219 14.699219 L 109.300781 14.699219 L 109.300781 21.800781 L 89.398438 21.800781 L 89.398438 18.699219 C 89.398438 16.933594 87.96875 15.5 86.199219 15.5 C 84.433594 15.5 83 16.933594 83 18.699219 L 83 21.800781 L 80.199219 21.800781 C 78.433594 21.800781 77 23.234375 77 25 L 112.5 25 Z M 112.5 3.5 "/>
<path style=" stroke:none;fill-rule:nonzero;fill:rgb(100%,100%,100%);fill-opacity:1;" d="M 0 50 L 75 50 L 75 100 L 0 100 Z M 0 50 "/>
<path style=" stroke:none;fill-rule:nonzero;fill:rgb(59.607846%,11.764706%,19.607843%);fill-opacity:1;" d="M 37.5 50 L 75 50 L 75 75 L 0 75 L 0 100 L 37.5 100 Z M 37.5 50 "/>
<path style=" stroke:none;fill-rule:nonzero;fill:rgb(59.607846%,11.764706%,19.607843%);fill-opacity:1;" d="M 37.5 96.5 C 39.265625 96.5 40.699219 95.066406 40.699219 93.300781 L 40.699219 91.699219 L 43.800781 91.699219 C 45.566406 91.699219 47 90.265625 47 88.5 C 47 86.734375 45.566406 85.300781 43.800781 85.300781 L 40.699219 85.300781 L 40.699219 78.199219 L 60.601562 78.199219 L 60.601562 81.300781 C 60.601562 83.066406 62.03125 84.5 63.800781 84.5 C 65.566406 84.5 67 83.066406 67 81.300781 L 67 78.199219 L 69.800781 78.199219 C 71.566406 78.199219 73 76.765625 73 75 L 37.5 75 Z M 37.5 96.5 "/>
<path style=" stroke:none;fill-rule:nonzero;fill:rgb(100%,100%,100%);fill-opacity:1;" d="M 37.5 96.5 C 35.734375 96.5 34.300781 95.066406 34.300781 93.300781 L 34.300781 91.699219 L 31.199219 91.699219 C 29.433594 91.699219 28 90.265625 28 88.5 C 28 86.734375 29.433594 85.300781 31.199219 85.300781 L 34.300781 85.300781 L 34.300781 78.199219 L 14.398438 78.199219 L 14.398438 81.300781 C 14.398438 83.066406 12.96875 84.5 11.199219 84.5 C 9.433594 84.5 8 83.066406 8 81.300781 L 8 78.199219 L 5.199219 78.199219 C 3.433594 78.199219 2 76.765625 2 75 L 37.5 75 Z M 37.5 96.5 "/>
<path style=" stroke:none;fill-rule:nonzero;fill:rgb(100%,100%,100%);fill-opacity:1;" d="M 37.5 53.5 C 39.265625 53.5 40.699219 54.933594 40.699219 56.699219 L 40.699219 58.300781 L 43.800781 58.300781 C 45.566406 58.300781 47 59.734375 47 61.5 C 47 63.265625 45.566406 64.699219 43.800781 64.699219 L 40.699219 64.699219 L 40.699219 71.800781 L 60.601562 71.800781 L 60.601562 68.699219 C 60.601562 66.933594 62.03125 65.5 63.800781 65.5 C 65.566406 65.5 67 66.933594 67 68.699219 L 67 71.800781 L 69.800781 71.800781 C 71.566406 71.800781 73 73.234375 73 75 L 37.5 75 Z M 37.5 53.5 "/>
<path style=" stroke:none;fill-rule:nonzero;fill:rgb(59.607846%,11.764706%,19.607843%);fill-opacity:1;" d="M 37.5 53.5 C 35.734375 53.5 34.300781 54.933594 34.300781 56.699219 L 34.300781 58.300781 L 31.199219 58.300781 C 29.433594 58.300781 28 59.734375 28 61.5 C 28 63.265625 29.433594 64.699219 31.199219 64.699219 L 34.300781 64.699219 L 34.300781 71.800781 L 14.398438 71.800781 L 14.398438 68.699219 C 14.398438 66.933594 12.96875 65.5 11.199219 65.5 C 9.433594 65.5 8 66.933594 8 68.699219 L 8 71.800781 L 5.199219 71.800781 C 3.433594 71.800781 2 73.234375 2 75 L 37.5 75 Z M 37.5 53.5 "/>
<path style=" stroke:none;fill-rule:nonzero;fill:rgb(0%,0%,0%);fill-opacity:1;" d="M 75 50 L 150 50 L 150 100 L 75 100 Z M 75 50 "/>
<path style=" stroke:none;fill-rule:nonzero;fill:rgb(91.764706%,67.058825%,0%);fill-opacity:1;" d="M 75 100 L 75 58.332031 L 87.5 66.667969 L 87.5 100 L 100 100 L 100 50 L 112.5 50 L 112.5 100 L 125 100 L 125 50 L 137.5 50 L 137.5 100 L 150 100 L 150 91.667969 L 87.5 50 L 87.5 66.667969 L 137.5 100 Z M 75 100 "/>
</g>
</svg>
