<?xml version="1.0" encoding="UTF-8"?>
<svg xmlns="http://www.w3.org/2000/svg" xmlns:xlink="http://www.w3.org/1999/xlink" width="150px" height="150px" viewBox="0 0 150 107" version="1.1">
<g id="surface1">
<path style=" stroke:none;fill-rule:evenodd;fill:rgb(92.54902%,7.843138%,10.980392%);fill-opacity:1;" d="M 3.3125 2.945312 C 3.160156 3.027344 2.980469 3.230469 2.910156 3.394531 C 2.820312 3.617188 2.792969 16.257812 2.816406 53.71875 L 2.84375 103.746094 L 3.132812 103.996094 C 3.34375 104.175781 3.613281 104.265625 4.097656 104.3125 C 5.644531 104.464844 146.710938 104.324219 147.015625 104.167969 C 147.175781 104.085938 147.382812 103.863281 147.472656 103.667969 C 147.625 103.355469 147.636719 98.320312 147.613281 53.363281 L 147.585938 3.40625 L 147.234375 3.09375 L 146.886719 2.78125 L 75.238281 2.789062 C 13.566406 2.792969 3.554688 2.8125 3.3125 2.945312 M 146.589844 3 C 146.808594 3.0625 147.085938 3.238281 147.207031 3.390625 L 147.425781 3.667969 L 147.425781 53.488281 C 147.425781 97.589844 147.40625 103.347656 147.261719 103.621094 C 147.15625 103.832031 146.972656 103.96875 146.699219 104.042969 C 146.007812 104.234375 4.0625 104.195312 3.601562 104.003906 C 3.398438 103.921875 3.171875 103.742188 3.09375 103.601562 C 2.945312 103.339844 2.804688 5.355469 2.953125 4.097656 C 3.03125 3.425781 3.257812 3.117188 3.757812 3 C 4.328125 2.867188 146.105469 2.867188 146.589844 3 M 74.550781 25.664062 C 74.398438 25.828125 73.914062 26.585938 73.476562 27.351562 C 72.660156 28.765625 62.195312 46.863281 52.304688 63.960938 C 45.207031 76.226562 45.089844 76.433594 45.007812 76.773438 C 44.953125 76.996094 45 77.125 45.210938 77.335938 L 45.484375 77.609375 L 75.128906 77.605469 C 98.734375 77.605469 104.828125 77.578125 105.042969 77.46875 C 105.613281 77.183594 105.496094 76.808594 104.042969 74.289062 C 103.308594 73.023438 102.085938 70.90625 101.320312 69.578125 C 100.554688 68.253906 98.101562 64.015625 95.871094 60.160156 C 93.640625 56.304688 91.175781 52.039062 90.390625 50.6875 C 89.609375 49.332031 88.636719 47.644531 88.226562 46.941406 C 86.054688 43.203125 77.242188 27.949219 76.726562 27.046875 C 75.734375 25.300781 75.207031 24.964844 74.550781 25.664062 M 65.28125 30.554688 C 64.898438 30.71875 64.464844 31.214844 63.992188 32.027344 C 63.175781 33.425781 62.691406 34.285156 62.070312 35.433594 C 61.703125 36.109375 61.207031 36.988281 60.960938 37.382812 C 60.71875 37.78125 60.34375 38.453125 60.128906 38.882812 C 59.914062 39.308594 59.511719 40.046875 59.230469 40.515625 C 58.386719 41.9375 57.714844 43.128906 57.027344 44.425781 C 56.667969 45.101562 56.25 45.847656 56.097656 46.082031 C 55.71875 46.675781 54.476562 48.855469 53.753906 50.203125 C 53.109375 51.394531 52.546875 52.390625 51.714844 53.789062 C 51.4375 54.261719 51.027344 55.007812 50.804688 55.449219 C 50.585938 55.890625 50.175781 56.636719 49.894531 57.109375 C 49.613281 57.582031 49.09375 58.496094 48.738281 59.144531 C 47.925781 60.628906 47.316406 61.691406 46.664062 62.789062 C 45.136719 65.335938 44.96875 66.515625 46.046875 67.074219 C 46.9375 67.53125 47.796875 67.019531 48.597656 65.554688 C 49.355469 64.164062 50.355469 62.398438 51.003906 61.304688 C 51.292969 60.824219 51.695312 60.089844 51.902344 59.679688 C 52.109375 59.265625 52.53125 58.496094 52.839844 57.964844 C 54.4375 55.234375 55.050781 54.15625 55.355469 53.546875 C 55.542969 53.175781 55.882812 52.5625 56.117188 52.183594 C 56.351562 51.804688 56.714844 51.144531 56.933594 50.714844 C 57.148438 50.285156 57.550781 49.550781 57.832031 49.082031 C 58.671875 47.664062 59.226562 46.683594 59.921875 45.386719 C 60.285156 44.710938 60.824219 43.746094 61.121094 43.246094 C 62.039062 41.691406 62.683594 40.5625 63.308594 39.394531 C 63.957031 38.1875 64.527344 37.179688 65.355469 35.792969 C 66.363281 34.097656 67.167969 32.339844 67.167969 31.824219 C 67.167969 30.707031 66.289062 30.117188 65.28125 30.554688 M 83.914062 30.53125 C 82.765625 31.148438 83.054688 32.480469 85.101562 35.945312 C 86.25 37.894531 86.414062 38.183594 87.0625 39.394531 C 87.746094 40.667969 88.382812 41.785156 89.308594 43.355469 C 89.605469 43.855469 90.117188 44.769531 90.449219 45.386719 C 91.105469 46.609375 91.808594 47.851562 92.601562 49.1875 C 92.878906 49.660156 93.289062 50.40625 93.511719 50.847656 C 93.730469 51.289062 94.074219 51.902344 94.273438 52.210938 C 94.46875 52.519531 94.808594 53.121094 95.023438 53.550781 C 95.394531 54.289062 96.335938 55.945312 97.464844 57.839844 C 97.75 58.320312 98.179688 59.101562 98.417969 59.570312 C 98.652344 60.042969 99.074219 60.8125 99.355469 61.285156 C 100.210938 62.726562 100.753906 63.691406 101.472656 65.03125 C 102.625 67.191406 103.691406 67.796875 104.652344 66.835938 C 105.476562 66.011719 105.269531 65.441406 102.246094 60.265625 C 101.851562 59.589844 101.375 58.734375 101.1875 58.363281 C 101.003906 57.992188 100.660156 57.378906 100.429688 57 C 100.195312 56.621094 99.828125 55.960938 99.613281 55.53125 C 99.402344 55.105469 98.996094 54.367188 98.71875 53.898438 C 97.914062 52.546875 97.21875 51.316406 96.550781 50.070312 C 96.210938 49.4375 95.769531 48.640625 95.566406 48.304688 C 94.921875 47.234375 93.863281 45.375 93.234375 44.210938 C 92.597656 43.023438 92.035156 42.027344 91.199219 40.625 C 90.921875 40.152344 90.511719 39.40625 90.289062 38.96875 C 90.070312 38.527344 89.671875 37.8125 89.40625 37.378906 C 89.144531 36.945312 88.625 36.027344 88.253906 35.34375 C 85.707031 30.636719 85.0625 29.917969 83.914062 30.53125 M 66.710938 30.988281 C 67.335938 31.714844 66.808594 33.023438 63.945312 37.839844 C 63.664062 38.3125 63.253906 39.058594 63.035156 39.496094 C 62.816406 39.9375 62.453125 40.585938 62.234375 40.941406 C 61.644531 41.898438 60.449219 44 59.769531 45.28125 C 59.441406 45.898438 58.996094 46.695312 58.785156 47.046875 C 58.105469 48.179688 57.496094 49.261719 56.734375 50.679688 C 56.328125 51.441406 55.90625 52.1875 55.800781 52.339844 C 55.695312 52.488281 55.296875 53.191406 54.917969 53.898438 C 54.164062 55.292969 53.472656 56.523438 52.679688 57.859375 C 52.398438 58.328125 52.011719 59.027344 51.824219 59.410156 C 51.632812 59.792969 51.214844 60.550781 50.898438 61.097656 C 50.582031 61.640625 50.0625 62.53125 49.746094 63.078125 C 49.425781 63.621094 48.9375 64.5 48.65625 65.03125 C 47.660156 66.902344 46.894531 67.429688 46.042969 66.835938 C 45.050781 66.144531 45.246094 65.589844 48.289062 60.375 C 48.6875 59.695312 49.160156 58.839844 49.347656 58.46875 C 49.53125 58.101562 49.875 57.488281 50.109375 57.105469 C 50.339844 56.726562 50.707031 56.066406 50.921875 55.640625 C 51.136719 55.210938 51.539062 54.476562 51.820312 54.003906 C 52.613281 52.667969 53.316406 51.425781 53.972656 50.203125 C 54.300781 49.585938 54.816406 48.671875 55.113281 48.171875 C 56.125 46.460938 56.582031 45.65625 57.242188 44.425781 C 57.929688 43.144531 58.472656 42.183594 59.335938 40.730469 C 59.617188 40.261719 60.019531 39.527344 60.234375 39.101562 C 60.449219 38.675781 60.910156 37.84375 61.265625 37.253906 C 61.617188 36.664062 62.058594 35.882812 62.242188 35.511719 C 62.425781 35.144531 62.804688 34.457031 63.085938 33.988281 C 63.363281 33.515625 63.777344 32.800781 64 32.394531 C 64.929688 30.703125 65.992188 30.152344 66.710938 30.988281 M 85.167969 30.828125 C 85.652344 31.125 86.4375 32.371094 88.21875 35.695312 C 88.628906 36.457031 89.050781 37.203125 89.160156 37.351562 C 89.265625 37.503906 89.664062 38.203125 90.042969 38.910156 C 90.78125 40.289062 91.464844 41.5 92.277344 42.871094 C 92.558594 43.34375 92.945312 44.042969 93.132812 44.425781 C 93.324219 44.808594 93.734375 45.554688 94.042969 46.082031 C 95.660156 48.847656 96.253906 49.894531 96.570312 50.527344 C 96.761719 50.910156 97.078125 51.472656 97.277344 51.78125 C 97.472656 52.089844 97.78125 52.632812 97.960938 52.988281 C 98.140625 53.34375 98.449219 53.886719 98.648438 54.195312 C 98.84375 54.5 99.210938 55.164062 99.464844 55.664062 C 99.714844 56.164062 100.082031 56.824219 100.28125 57.132812 C 100.476562 57.441406 100.789062 57.996094 100.972656 58.363281 C 101.316406 59.046875 102.617188 61.335938 103.554688 62.898438 C 104.949219 65.230469 105.164062 66.398438 104.28125 66.855469 C 103.339844 67.34375 102.703125 66.878906 101.660156 64.953125 C 100.933594 63.609375 100.222656 62.355469 99.460938 61.070312 C 99.179688 60.597656 98.792969 59.898438 98.605469 59.515625 C 98.414062 59.136719 97.996094 58.375 97.679688 57.832031 C 97.363281 57.285156 96.84375 56.394531 96.527344 55.851562 C 96.207031 55.308594 95.636719 54.28125 95.253906 53.574219 C 94.875 52.867188 94.4375 52.09375 94.289062 51.855469 C 94.136719 51.617188 93.835938 51.066406 93.613281 50.628906 C 93.394531 50.1875 92.984375 49.445312 92.707031 48.972656 C 91.882812 47.589844 91.320312 46.597656 90.554688 45.171875 C 90.15625 44.4375 89.589844 43.425781 89.292969 42.925781 C 89 42.425781 88.601562 41.75 88.40625 41.425781 C 88.214844 41.101562 87.738281 40.234375 87.339844 39.5 C 86.605469 38.125 86.121094 37.277344 85.128906 35.59375 C 84.074219 33.796875 83.421875 32.339844 83.421875 31.761719 C 83.421875 30.808594 84.332031 30.320312 85.167969 30.828125 M 54.695312 79.472656 C 53.257812 79.984375 52.863281 81.335938 53.9375 82.0625 C 54.234375 82.261719 94.800781 82.460938 95.894531 82.265625 C 97.472656 81.984375 97.308594 79.964844 95.664062 79.480469 C 94.90625 79.253906 55.328125 79.25 54.695312 79.472656 M 95.632812 79.664062 C 96.933594 80.054688 97.210938 81.570312 96.066406 82.003906 C 95.570312 82.191406 54.554688 82.132812 54.1875 81.945312 C 53.195312 81.433594 53.390625 80.261719 54.554688 79.734375 C 55.105469 79.488281 94.8125 79.417969 95.632812 79.664062 "/>
<path style=" stroke:none;fill-rule:evenodd;fill:rgb(1.568628%,1.568628%,1.568628%);fill-opacity:1;" d="M 0 53.523438 L 0 107.046875 L 150 107.046875 L 150 0 L 0 0 L 0 53.523438 M 147.234375 3.09375 L 147.585938 3.40625 L 147.613281 53.363281 C 147.636719 98.320312 147.625 103.355469 147.472656 103.667969 C 147.382812 103.863281 147.175781 104.085938 147.015625 104.167969 C 146.710938 104.324219 5.644531 104.464844 4.097656 104.3125 C 3.613281 104.265625 3.34375 104.175781 3.132812 103.996094 L 2.84375 103.746094 L 2.816406 53.71875 C 2.792969 16.257812 2.820312 3.617188 2.910156 3.394531 C 2.980469 3.230469 3.160156 3.027344 3.3125 2.945312 C 3.554688 2.8125 13.566406 2.792969 75.238281 2.789062 L 146.886719 2.78125 L 147.234375 3.09375 M 65.394531 30.710938 C 65.046875 30.859375 64.4375 31.59375 64 32.394531 C 63.777344 32.800781 63.363281 33.515625 63.085938 33.988281 C 62.804688 34.457031 62.425781 35.144531 62.242188 35.511719 C 62.058594 35.882812 61.617188 36.664062 61.265625 37.253906 C 60.910156 37.84375 60.449219 38.675781 60.234375 39.101562 C 60.019531 39.527344 59.617188 40.261719 59.335938 40.730469 C 58.472656 42.183594 57.929688 43.144531 57.242188 44.425781 C 56.582031 45.65625 56.125 46.460938 55.113281 48.171875 C 54.816406 48.671875 54.300781 49.585938 53.972656 50.203125 C 53.316406 51.425781 52.613281 52.667969 51.820312 54.003906 C 51.539062 54.476562 51.136719 55.210938 50.921875 55.640625 C 50.707031 56.066406 50.339844 56.726562 50.109375 57.105469 C 49.875 57.488281 49.53125 58.101562 49.347656 58.46875 C 49.160156 58.839844 48.6875 59.695312 48.289062 60.375 C 45.246094 65.589844 45.050781 66.144531 46.042969 66.835938 C 46.894531 67.429688 47.660156 66.902344 48.65625 65.03125 C 48.9375 64.5 49.425781 63.621094 49.746094 63.078125 C 50.0625 62.53125 50.582031 61.640625 50.898438 61.097656 C 51.214844 60.550781 51.632812 59.792969 51.824219 59.410156 C 52.011719 59.027344 52.398438 58.328125 52.679688 57.859375 C 53.472656 56.523438 54.164062 55.292969 54.917969 53.898438 C 55.296875 53.191406 55.695312 52.488281 55.800781 52.339844 C 55.90625 52.1875 56.328125 51.441406 56.734375 50.679688 C 57.496094 49.261719 58.105469 48.179688 58.785156 47.046875 C 58.996094 46.695312 59.441406 45.898438 59.769531 45.28125 C 60.449219 44 61.644531 41.898438 62.234375 40.941406 C 62.453125 40.585938 62.816406 39.9375 63.035156 39.496094 C 63.253906 39.058594 63.664062 38.3125 63.945312 37.839844 C 66.808594 33.023438 67.335938 31.714844 66.710938 30.988281 C 66.449219 30.683594 65.785156 30.542969 65.394531 30.710938 M 83.773438 30.925781 C 83.089844 31.535156 83.429688 32.707031 85.128906 35.59375 C 86.121094 37.277344 86.605469 38.125 87.339844 39.5 C 87.738281 40.234375 88.214844 41.101562 88.40625 41.425781 C 88.601562 41.75 89 42.425781 89.292969 42.925781 C 89.589844 43.425781 90.15625 44.4375 90.554688 45.171875 C 91.320312 46.597656 91.882812 47.589844 92.707031 48.972656 C 92.984375 49.445312 93.394531 50.1875 93.613281 50.628906 C 93.835938 51.066406 94.136719 51.617188 94.289062 51.855469 C 94.4375 52.09375 94.875 52.867188 95.253906 53.574219 C 95.636719 54.28125 96.207031 55.308594 96.527344 55.851562 C 96.84375 56.394531 97.363281 57.285156 97.679688 57.832031 C 97.996094 58.375 98.414062 59.136719 98.605469 59.515625 C 98.792969 59.898438 99.179688 60.597656 99.460938 61.070312 C 100.222656 62.355469 100.933594 63.609375 101.660156 64.953125 C 102.703125 66.878906 103.339844 67.34375 104.28125 66.855469 C 105.164062 66.398438 104.949219 65.230469 103.554688 62.898438 C 102.617188 61.335938 101.316406 59.046875 100.972656 58.363281 C 100.789062 57.996094 100.476562 57.441406 100.28125 57.132812 C 100.082031 56.824219 99.714844 56.164062 99.464844 55.664062 C 99.210938 55.164062 98.84375 54.5 98.648438 54.195312 C 98.449219 53.886719 98.140625 53.34375 97.960938 52.988281 C 97.78125 52.632812 97.472656 52.089844 97.277344 51.78125 C 97.078125 51.472656 96.761719 50.910156 96.570312 50.527344 C 96.253906 49.894531 95.660156 48.847656 94.042969 46.082031 C 93.734375 45.554688 93.324219 44.808594 93.132812 44.425781 C 92.945312 44.042969 92.558594 43.34375 92.277344 42.871094 C 91.464844 41.5 90.78125 40.289062 90.042969 38.910156 C 89.664062 38.203125 89.265625 37.503906 89.160156 37.351562 C 89.050781 37.203125 88.628906 36.457031 88.21875 35.695312 C 85.507812 30.640625 84.867188 29.953125 83.773438 30.925781 M 54.554688 79.734375 C 53.390625 80.261719 53.195312 81.433594 54.1875 81.945312 C 54.554688 82.132812 95.570312 82.191406 96.066406 82.003906 C 97.210938 81.570312 96.933594 80.054688 95.632812 79.664062 C 94.8125 79.417969 55.105469 79.488281 54.554688 79.734375 "/>
<path style=" stroke:none;fill-rule:evenodd;fill:rgb(98.823529%,98.431373%,98.431373%);fill-opacity:1;" d="M 3.757812 3 C 3.257812 3.117188 3.03125 3.425781 2.953125 4.097656 C 2.804688 5.355469 2.945312 103.339844 3.09375 103.601562 C 3.171875 103.742188 3.398438 103.921875 3.601562 104.003906 C 4.0625 104.195312 146.007812 104.234375 146.699219 104.042969 C 146.972656 103.96875 147.15625 103.832031 147.261719 103.621094 C 147.40625 103.347656 147.425781 97.589844 147.425781 53.488281 L 147.425781 3.667969 L 147.207031 3.390625 C 147.085938 3.238281 146.808594 3.0625 146.589844 3 C 146.105469 2.867188 4.328125 2.867188 3.757812 3 M 75.84375 25.679688 C 76 25.851562 76.394531 26.464844 76.726562 27.046875 C 77.242188 27.949219 86.054688 43.203125 88.226562 46.941406 C 88.636719 47.644531 89.609375 49.332031 90.390625 50.6875 C 91.175781 52.039062 93.640625 56.304688 95.871094 60.160156 C 98.101562 64.015625 100.554688 68.253906 101.320312 69.578125 C 102.085938 70.90625 103.308594 73.023438 104.042969 74.289062 C 105.496094 76.808594 105.613281 77.183594 105.042969 77.46875 C 104.828125 77.578125 98.734375 77.605469 75.128906 77.605469 L 45.484375 77.609375 L 45.210938 77.335938 C 45 77.125 44.953125 76.996094 45.007812 76.773438 C 45.089844 76.433594 45.207031 76.226562 52.304688 63.960938 C 62.195312 46.863281 72.660156 28.765625 73.476562 27.351562 C 74.679688 25.257812 75.148438 24.925781 75.84375 25.679688 M 66.527344 30.5625 C 67.605469 31.117188 67.28125 32.554688 65.355469 35.792969 C 64.527344 37.179688 63.957031 38.1875 63.308594 39.394531 C 62.683594 40.5625 62.039062 41.691406 61.121094 43.246094 C 60.824219 43.746094 60.285156 44.710938 59.921875 45.386719 C 59.226562 46.683594 58.671875 47.664062 57.832031 49.082031 C 57.550781 49.550781 57.148438 50.285156 56.933594 50.714844 C 56.714844 51.144531 56.351562 51.804688 56.117188 52.183594 C 55.882812 52.5625 55.542969 53.175781 55.355469 53.546875 C 55.050781 54.15625 54.4375 55.234375 52.839844 57.964844 C 52.53125 58.496094 52.109375 59.265625 51.902344 59.679688 C 51.695312 60.089844 51.292969 60.824219 51.003906 61.304688 C 50.355469 62.398438 49.355469 64.164062 48.597656 65.554688 C 47.796875 67.019531 46.9375 67.53125 46.046875 67.074219 C 44.96875 66.515625 45.136719 65.335938 46.664062 62.789062 C 47.316406 61.691406 47.925781 60.628906 48.738281 59.144531 C 49.09375 58.496094 49.613281 57.582031 49.894531 57.109375 C 50.175781 56.636719 50.585938 55.890625 50.804688 55.449219 C 51.027344 55.007812 51.4375 54.261719 51.714844 53.789062 C 52.546875 52.390625 53.109375 51.394531 53.753906 50.203125 C 54.476562 48.855469 55.71875 46.675781 56.097656 46.082031 C 56.25 45.847656 56.667969 45.101562 57.027344 44.425781 C 57.714844 43.128906 58.386719 41.9375 59.230469 40.515625 C 59.511719 40.046875 59.914062 39.308594 60.128906 38.882812 C 60.34375 38.453125 60.71875 37.78125 60.960938 37.382812 C 61.207031 36.988281 61.703125 36.109375 62.070312 35.433594 C 62.691406 34.285156 63.175781 33.425781 63.992188 32.027344 C 64.84375 30.566406 65.640625 30.105469 66.527344 30.5625 M 85.371094 30.695312 C 85.796875 31 86.636719 32.355469 88.253906 35.34375 C 88.625 36.027344 89.144531 36.945312 89.40625 37.378906 C 89.671875 37.8125 90.070312 38.527344 90.289062 38.96875 C 90.511719 39.40625 90.921875 40.152344 91.199219 40.625 C 92.035156 42.027344 92.597656 43.023438 93.234375 44.210938 C 93.863281 45.375 94.921875 47.234375 95.566406 48.304688 C 95.769531 48.640625 96.210938 49.4375 96.550781 50.070312 C 97.21875 51.316406 97.914062 52.546875 98.71875 53.898438 C 98.996094 54.367188 99.402344 55.105469 99.613281 55.53125 C 99.828125 55.960938 100.195312 56.621094 100.429688 57 C 100.660156 57.378906 101.003906 57.992188 101.1875 58.363281 C 101.375 58.734375 101.851562 59.589844 102.246094 60.265625 C 105.269531 65.441406 105.476562 66.011719 104.652344 66.835938 C 103.691406 67.796875 102.625 67.191406 101.472656 65.03125 C 100.753906 63.691406 100.210938 62.726562 99.355469 61.285156 C 99.074219 60.8125 98.652344 60.042969 98.417969 59.570312 C 98.179688 59.101562 97.75 58.320312 97.464844 57.839844 C 96.335938 55.945312 95.394531 54.289062 95.023438 53.550781 C 94.808594 53.121094 94.46875 52.519531 94.273438 52.210938 C 94.074219 51.902344 93.730469 51.289062 93.511719 50.847656 C 93.289062 50.40625 92.878906 49.660156 92.601562 49.1875 C 91.808594 47.851562 91.105469 46.609375 90.449219 45.386719 C 90.117188 44.769531 89.605469 43.855469 89.308594 43.355469 C 88.382812 41.785156 87.746094 40.667969 87.0625 39.394531 C 86.414062 38.183594 86.25 37.894531 85.101562 35.945312 C 83.996094 34.074219 83.222656 32.375 83.214844 31.796875 C 83.199219 30.625 84.40625 30.007812 85.371094 30.695312 M 95.664062 79.480469 C 97.308594 79.964844 97.472656 81.984375 95.894531 82.265625 C 94.800781 82.460938 54.234375 82.261719 53.9375 82.0625 C 52.863281 81.335938 53.257812 79.984375 54.695312 79.472656 C 55.328125 79.25 94.90625 79.253906 95.664062 79.480469 "/>
</g>
</svg>
