<?xml version="1.0" encoding="UTF-8"?>
<svg xmlns="http://www.w3.org/2000/svg" xmlns:xlink="http://www.w3.org/1999/xlink" width="150px" height="150px" viewBox="0 0 150 90" version="1.1">
<g id="surface1">
<rect x="0" y="0" width="150" height="90" style="fill:rgb(72.941178%,4.705882%,18.431373%);fill-opacity:1;stroke:none;"/>
<path style=" stroke:none;fill-rule:nonzero;fill:rgb(83.92157%,60.392159%,17.647059%);fill-opacity:1;" d="M 31.25 0 L 118.75 0 L 118.75 90 L 31.25 90 Z M 31.25 0 "/>
<path style=" stroke:none;fill-rule:nonzero;fill:rgb(1.568628%,11.764706%,25.882354%);fill-opacity:1;" d="M 37.5 0 L 112.5 0 L 112.5 90 L 37.5 90 Z M 37.5 0 "/>
<path style=" stroke:none;fill-rule:nonzero;fill:rgb(83.92157%,60.392159%,17.647059%);fill-opacity:1;" d="M 71.398438 16.972656 L 73.863281 16.972656 L 74.625 18.019531 L 73.394531 18.421875 L 71.398438 16.972656 M 78.480469 16.972656 L 76.019531 16.972656 L 75.253906 18.019531 L 76.484375 18.421875 L 78.480469 16.972656 M 74.941406 14.402344 L 75.691406 16.734375 L 74.9375 17.777344 L 74.191406 16.738281 L 74.941406 14.402344 M 77.109375 21.121094 L 75.136719 19.695312 L 75.136719 18.40625 L 76.355469 18.808594 L 77.109375 21.121094 M 72.773438 21.121094 L 74.75 19.695312 L 74.75 18.40625 L 73.527344 18.808594 L 72.773438 21.121094 "/>
<path style=" stroke:none;fill-rule:nonzero;fill:rgb(100%,100%,100%);fill-opacity:1;" d="M 50.160156 28.019531 L 51.859375 28.585938 L 52.925781 27.148438 L 52.914062 28.929688 L 54.605469 29.5 L 52.898438 30.046875 L 52.878906 31.828125 L 51.839844 30.371094 L 50.140625 30.917969 L 51.199219 29.472656 L 50.160156 28.019531 M 46.757812 34 L 48.539062 34.167969 L 49.253906 32.535156 L 49.644531 34.273438 L 51.425781 34.457031 L 49.878906 35.359375 L 50.28125 37.097656 L 48.929688 35.921875 L 47.378906 36.824219 L 48.105469 35.1875 L 46.757812 34 M 46.835938 38.59375 L 47.617188 40.207031 L 49.390625 39.964844 L 48.105469 41.203125 L 48.890625 42.804688 L 47.3125 41.960938 L 46.015625 43.199219 L 46.328125 41.449219 L 44.75 40.601562 L 46.515625 40.355469 L 46.835938 38.59375 M 44.289062 47.386719 L 45.964844 46.746094 L 45.875 44.957031 L 47.003906 46.355469 L 48.671875 45.714844 L 47.695312 47.210938 L 48.828125 48.605469 L 47.089844 48.144531 L 46.109375 49.636719 L 46.019531 47.851562 L 44.289062 47.386719 M 45.324219 54.195312 L 46.816406 53.199219 L 46.316406 51.476562 L 47.734375 52.582031 L 49.226562 51.585938 L 48.609375 53.261719 L 50.019531 54.359375 L 48.226562 54.304688 L 47.617188 55.972656 L 47.117188 54.265625 L 45.324219 54.195312 M 48.25 57.742188 L 49.871094 58.511719 L 51.113281 57.222656 L 50.871094 58.988281 L 52.484375 59.765625 L 50.722656 60.089844 L 50.472656 61.859375 L 49.636719 60.289062 L 47.867188 60.605469 L 49.101562 59.3125 L 48.25 57.742188 M 51.539062 63.386719 L 53.273438 63.800781 L 54.207031 62.273438 L 54.355469 64.050781 L 56.097656 64.460938 L 54.449219 65.152344 L 54.597656 66.9375 L 53.421875 65.574219 L 51.777344 66.269531 L 52.707031 64.75 L 51.539062 63.386719 M 66.820312 16.539062 L 67.804688 18.027344 L 69.539062 17.5625 L 68.414062 18.964844 L 69.402344 20.445312 L 67.714844 19.8125 L 66.601562 21.214844 L 66.675781 19.429688 L 64.996094 18.796875 L 66.730469 18.332031 L 66.820312 16.539062 M 60.425781 19.058594 L 61.71875 20.300781 L 63.292969 19.460938 L 62.511719 21.070312 L 63.808594 22.308594 L 62.035156 22.0625 L 61.253906 23.679688 L 60.933594 21.921875 L 59.160156 21.675781 L 60.746094 20.832031 L 60.425781 19.058594 M 57.722656 22.742188 L 57.285156 24.484375 L 58.808594 25.425781 L 57.027344 25.5625 L 56.59375 27.296875 L 55.921875 25.640625 L 54.132812 25.777344 L 55.503906 24.617188 L 54.832031 22.957031 L 56.347656 23.902344 L 57.722656 22.742188 M 99.839844 28.019531 L 98.140625 28.585938 L 97.074219 27.148438 L 97.085938 28.929688 L 95.394531 29.5 L 97.101562 30.046875 L 97.121094 31.828125 L 98.160156 30.371094 L 99.859375 30.917969 L 98.800781 29.472656 L 99.839844 28.019531 M 103.242188 34 L 101.460938 34.167969 L 100.746094 32.535156 L 100.355469 34.273438 L 98.574219 34.457031 L 100.121094 35.359375 L 99.71875 37.097656 L 101.070312 35.921875 L 102.621094 36.824219 L 101.894531 35.1875 L 103.242188 34 M 103.164062 38.59375 L 102.382812 40.207031 L 100.609375 39.964844 L 101.894531 41.203125 L 101.109375 42.804688 L 102.6875 41.960938 L 103.984375 43.199219 L 103.671875 41.449219 L 105.25 40.601562 L 103.484375 40.355469 L 103.164062 38.59375 M 105.710938 47.386719 L 104.035156 46.746094 L 104.125 44.957031 L 102.996094 46.355469 L 101.328125 45.714844 L 102.304688 47.210938 L 101.171875 48.605469 L 102.910156 48.144531 L 103.890625 49.636719 L 103.980469 47.851562 L 105.710938 47.386719 M 104.675781 54.195312 L 103.183594 53.199219 L 103.683594 51.476562 L 102.265625 52.582031 L 100.773438 51.585938 L 101.390625 53.261719 L 99.980469 54.359375 L 101.773438 54.304688 L 102.382812 55.972656 L 102.882812 54.265625 L 104.675781 54.195312 M 101.75 57.742188 L 100.128906 58.511719 L 98.886719 57.222656 L 99.128906 58.988281 L 97.515625 59.765625 L 99.277344 60.089844 L 99.527344 61.859375 L 100.363281 60.289062 L 102.132812 60.605469 L 100.898438 59.3125 L 101.75 57.742188 M 98.460938 63.386719 L 96.726562 63.800781 L 95.792969 62.273438 L 95.644531 64.050781 L 93.902344 64.460938 L 95.550781 65.152344 L 95.402344 66.9375 L 96.578125 65.574219 L 98.222656 66.269531 L 97.292969 64.75 L 98.460938 63.386719 M 83.179688 16.539062 L 82.195312 18.027344 L 80.460938 17.5625 L 81.585938 18.964844 L 80.597656 20.445312 L 82.285156 19.8125 L 83.398438 21.214844 L 83.324219 19.429688 L 85.003906 18.796875 L 83.269531 18.332031 L 83.179688 16.539062 M 89.574219 19.058594 L 88.28125 20.300781 L 86.707031 19.460938 L 87.488281 21.070312 L 86.191406 22.308594 L 87.964844 22.0625 L 88.746094 23.679688 L 89.066406 21.921875 L 90.839844 21.675781 L 89.253906 20.832031 L 89.574219 19.058594 M 92.277344 22.742188 L 92.714844 24.484375 L 91.191406 25.425781 L 92.972656 25.5625 L 93.40625 27.296875 L 94.078125 25.640625 L 95.867188 25.777344 L 94.496094 24.617188 L 95.167969 22.957031 L 93.652344 23.902344 L 92.277344 22.742188 M 56.480469 69.042969 C 56.492188 69.027344 56.503906 69.011719 56.515625 68.996094 C 56.621094 69.011719 56.726562 68.984375 56.824219 68.910156 C 56.925781 68.847656 57.082031 68.671875 57.300781 68.398438 C 57.332031 68.355469 57.367188 68.3125 57.398438 68.269531 C 57.636719 67.96875 57.875 67.667969 58.113281 67.363281 C 58.1875 67.269531 58.226562 67.203125 58.234375 67.15625 C 58.242188 67.117188 58.230469 67.066406 58.203125 67.015625 C 58.214844 67 58.226562 66.984375 58.238281 66.972656 C 58.34375 67.0625 58.421875 67.128906 58.472656 67.171875 C 58.527344 67.214844 58.574219 67.257812 58.621094 67.292969 C 58.664062 67.328125 58.714844 67.367188 58.773438 67.40625 C 58.828125 67.445312 58.910156 67.503906 59.019531 67.585938 C 59.007812 67.597656 58.996094 67.617188 58.984375 67.632812 C 58.929688 67.617188 58.882812 67.617188 58.84375 67.632812 C 58.800781 67.652344 58.746094 67.710938 58.671875 67.804688 C 58.398438 68.148438 58.128906 68.492188 57.855469 68.835938 C 57.640625 69.113281 57.511719 69.304688 57.46875 69.414062 C 57.421875 69.535156 57.421875 69.640625 57.457031 69.738281 C 57.445312 69.753906 57.433594 69.769531 57.421875 69.78125 C 57.355469 69.722656 57.28125 69.660156 57.207031 69.597656 C 57.132812 69.535156 57.050781 69.472656 56.960938 69.402344 C 56.871094 69.332031 56.792969 69.265625 56.710938 69.207031 C 56.632812 69.152344 56.554688 69.09375 56.480469 69.042969 M 59.28125 68.511719 C 59.128906 68.75 58.972656 68.988281 58.816406 69.226562 C 58.566406 69.605469 58.429688 69.871094 58.398438 70.023438 C 58.363281 70.175781 58.390625 70.316406 58.480469 70.449219 C 58.46875 70.464844 58.457031 70.484375 58.449219 70.496094 C 58.394531 70.453125 58.332031 70.410156 58.269531 70.367188 C 58.207031 70.320312 58.136719 70.277344 58.0625 70.226562 C 57.988281 70.175781 57.914062 70.128906 57.847656 70.089844 C 57.78125 70.050781 57.71875 70.011719 57.652344 69.976562 C 57.664062 69.960938 57.675781 69.945312 57.683594 69.929688 C 57.835938 69.964844 57.976562 69.9375 58.105469 69.847656 C 58.226562 69.753906 58.417969 69.519531 58.671875 69.132812 C 58.828125 68.890625 58.988281 68.644531 59.148438 68.402344 C 59.246094 68.253906 59.289062 68.140625 59.296875 68.058594 C 59.296875 67.976562 59.257812 67.890625 59.1875 67.800781 C 59.195312 67.785156 59.203125 67.769531 59.214844 67.757812 C 59.246094 67.78125 59.3125 67.824219 59.421875 67.902344 C 59.527344 67.976562 59.605469 68.03125 59.667969 68.070312 C 59.703125 68.09375 59.753906 68.121094 59.816406 68.164062 C 59.882812 68.203125 59.933594 68.234375 59.960938 68.253906 C 60.019531 68.90625 60.09375 69.558594 60.148438 70.214844 C 60.199219 70.136719 60.253906 70.058594 60.300781 69.980469 C 60.550781 69.597656 60.691406 69.332031 60.722656 69.183594 C 60.753906 69.035156 60.722656 68.894531 60.636719 68.765625 C 60.648438 68.75 60.660156 68.734375 60.671875 68.714844 C 60.714844 68.75 60.765625 68.785156 60.820312 68.820312 C 60.875 68.859375 60.957031 68.914062 61.066406 68.984375 C 61.175781 69.058594 61.257812 69.109375 61.3125 69.144531 C 61.367188 69.179688 61.417969 69.210938 61.46875 69.238281 L 61.433594 69.289062 C 61.28125 69.25 61.140625 69.277344 61.011719 69.371094 C 60.882812 69.464844 60.695312 69.703125 60.449219 70.082031 C 60.167969 70.507812 59.890625 70.933594 59.613281 71.355469 C 59.585938 71.339844 59.5625 71.324219 59.539062 71.308594 C 59.464844 70.378906 59.359375 69.445312 59.28125 68.511719 M 64.664062 72.179688 C 64.660156 72.191406 64.65625 72.207031 64.648438 72.21875 C 64.558594 72.21875 64.476562 72.253906 64.410156 72.332031 C 64.34375 72.410156 64.246094 72.59375 64.128906 72.890625 C 64.113281 72.921875 64.097656 72.960938 64.082031 72.996094 C 64.066406 73.035156 64.050781 73.078125 64.03125 73.125 C 63.832031 73.171875 63.632812 73.183594 63.4375 73.171875 C 63.242188 73.15625 63.054688 73.109375 62.867188 73.035156 C 62.683594 72.960938 62.535156 72.867188 62.417969 72.742188 C 62.296875 72.625 62.207031 72.484375 62.148438 72.316406 C 62.089844 72.144531 62.054688 71.964844 62.066406 71.78125 C 62.074219 71.597656 62.105469 71.421875 62.179688 71.246094 C 62.246094 71.082031 62.335938 70.933594 62.453125 70.804688 C 62.5625 70.675781 62.699219 70.574219 62.851562 70.484375 C 63.023438 70.390625 63.214844 70.339844 63.414062 70.332031 C 63.617188 70.316406 63.8125 70.355469 64 70.433594 C 64.164062 70.5 64.308594 70.585938 64.441406 70.699219 C 64.574219 70.808594 64.710938 70.953125 64.84375 71.132812 C 64.691406 71.332031 64.535156 71.527344 64.386719 71.726562 C 64.367188 71.714844 64.355469 71.703125 64.335938 71.691406 C 64.402344 71.402344 64.410156 71.171875 64.363281 70.992188 C 64.316406 70.816406 64.210938 70.695312 64.046875 70.628906 C 63.84375 70.546875 63.632812 70.582031 63.421875 70.75 C 63.214844 70.917969 63.035156 71.183594 62.882812 71.550781 C 62.742188 71.902344 62.675781 72.199219 62.691406 72.4375 C 62.707031 72.675781 62.800781 72.832031 62.972656 72.898438 C 63.085938 72.945312 63.195312 72.941406 63.289062 72.875 C 63.386719 72.8125 63.472656 72.699219 63.539062 72.53125 C 63.640625 72.28125 63.691406 72.105469 63.683594 72.007812 C 63.679688 71.910156 63.628906 71.832031 63.535156 71.761719 C 63.542969 71.75 63.546875 71.734375 63.550781 71.726562 C 63.644531 71.765625 63.730469 71.804688 63.824219 71.84375 C 63.910156 71.878906 64 71.921875 64.09375 71.957031 C 64.183594 71.996094 64.277344 72.03125 64.371094 72.070312 C 64.46875 72.105469 64.566406 72.140625 64.664062 72.179688 M 65.863281 74.136719 C 66.054688 74.203125 66.234375 74.148438 66.394531 73.980469 C 66.554688 73.8125 66.707031 73.519531 66.84375 73.109375 C 66.984375 72.703125 67.039062 72.382812 67.015625 72.148438 C 66.988281 71.917969 66.882812 71.769531 66.691406 71.707031 C 66.503906 71.640625 66.324219 71.691406 66.167969 71.855469 C 66.011719 72.023438 65.863281 72.3125 65.722656 72.730469 C 65.582031 73.144531 65.523438 73.464844 65.542969 73.695312 C 65.566406 73.925781 65.675781 74.074219 65.863281 74.136719 Z M 65.003906 72.480469 C 65.070312 72.28125 65.164062 72.109375 65.285156 71.964844 C 65.410156 71.816406 65.5625 71.710938 65.734375 71.625 C 65.886719 71.550781 66.050781 71.511719 66.222656 71.503906 C 66.390625 71.492188 66.5625 71.519531 66.734375 71.578125 C 66.910156 71.640625 67.0625 71.722656 67.191406 71.832031 C 67.316406 71.941406 67.421875 72.070312 67.503906 72.226562 C 67.589844 72.40625 67.644531 72.589844 67.652344 72.769531 C 67.660156 72.957031 67.636719 73.144531 67.566406 73.347656 C 67.515625 73.496094 67.453125 73.625 67.375 73.738281 C 67.296875 73.851562 67.199219 73.953125 67.089844 74.042969 C 66.90625 74.1875 66.699219 74.277344 66.480469 74.320312 C 66.261719 74.363281 66.042969 74.34375 65.828125 74.269531 C 65.65625 74.210938 65.503906 74.125 65.371094 74.007812 C 65.238281 73.890625 65.128906 73.753906 65.058594 73.597656 C 64.972656 73.433594 64.921875 73.253906 64.914062 73.058594 C 64.90625 72.867188 64.933594 72.675781 65.003906 72.480469 M 69.082031 72.394531 C 68.957031 72.984375 68.832031 73.570312 68.707031 74.15625 C 68.652344 74.414062 68.640625 74.578125 68.664062 74.65625 C 68.683594 74.734375 68.746094 74.78125 68.851562 74.804688 C 69.0625 74.847656 69.242188 74.78125 69.394531 74.597656 C 69.546875 74.417969 69.664062 74.128906 69.75 73.734375 C 69.832031 73.332031 69.839844 73.023438 69.777344 72.8125 C 69.714844 72.601562 69.5625 72.476562 69.335938 72.425781 C 69.300781 72.421875 69.265625 72.410156 69.226562 72.40625 C 69.183594 72.402344 69.136719 72.398438 69.082031 72.394531 Z M 67.613281 74.683594 C 67.617188 74.667969 67.621094 74.648438 67.625 74.628906 C 67.726562 74.59375 67.8125 74.519531 67.875 74.410156 C 67.9375 74.296875 68.003906 74.0625 68.078125 73.703125 C 68.089844 73.664062 68.097656 73.625 68.105469 73.589844 C 68.183594 73.214844 68.261719 72.839844 68.34375 72.460938 C 68.367188 72.351562 68.371094 72.269531 68.359375 72.226562 C 68.347656 72.183594 68.316406 72.140625 68.265625 72.109375 C 68.269531 72.089844 68.273438 72.070312 68.277344 72.050781 C 68.378906 72.078125 68.480469 72.105469 68.578125 72.128906 C 68.675781 72.152344 68.769531 72.171875 68.859375 72.191406 C 68.949219 72.210938 69.058594 72.230469 69.183594 72.253906 C 69.308594 72.277344 69.386719 72.296875 69.417969 72.300781 C 69.859375 72.394531 70.175781 72.570312 70.355469 72.839844 C 70.539062 73.101562 70.59375 73.4375 70.507812 73.84375 C 70.414062 74.285156 70.222656 74.605469 69.949219 74.800781 C 69.671875 75 69.324219 75.050781 68.914062 74.964844 C 68.859375 74.953125 68.761719 74.929688 68.628906 74.890625 C 68.488281 74.851562 68.382812 74.828125 68.300781 74.808594 C 68.25 74.800781 68.183594 74.789062 68.09375 74.773438 C 68.007812 74.753906 67.847656 74.726562 67.613281 74.683594 M 75.820312 72.886719 C 75.820312 72.90625 75.820312 72.925781 75.820312 72.945312 C 75.710938 72.972656 75.605469 73.050781 75.503906 73.183594 C 75.402344 73.316406 75.292969 73.507812 75.1875 73.765625 C 74.921875 74.398438 74.648438 75.03125 74.386719 75.664062 C 74.375 75.664062 74.363281 75.664062 74.355469 75.664062 C 74.171875 75.046875 73.980469 74.4375 73.800781 73.824219 C 73.566406 74.414062 73.316406 74.996094 73.082031 75.589844 C 73.070312 75.589844 73.0625 75.585938 73.046875 75.585938 C 72.824219 74.816406 72.585938 74.050781 72.363281 73.28125 C 72.296875 73.066406 72.242188 72.925781 72.1875 72.847656 C 72.136719 72.777344 72.070312 72.734375 71.988281 72.71875 C 71.988281 72.699219 71.988281 72.675781 71.992188 72.660156 C 72.015625 72.660156 72.046875 72.664062 72.101562 72.671875 C 72.3125 72.691406 72.460938 72.707031 72.539062 72.710938 C 72.632812 72.714844 72.816406 72.722656 73.085938 72.726562 C 73.15625 72.730469 73.207031 72.734375 73.242188 72.734375 C 73.238281 72.75 73.238281 72.773438 73.238281 72.792969 C 73.171875 72.800781 73.117188 72.820312 73.085938 72.855469 C 73.050781 72.886719 73.035156 72.9375 73.03125 73 C 73.03125 73.03125 73.035156 73.074219 73.042969 73.125 C 73.050781 73.171875 73.0625 73.222656 73.078125 73.28125 C 73.175781 73.636719 73.285156 73.988281 73.382812 74.347656 C 73.613281 73.78125 73.855469 73.21875 74.085938 72.652344 C 74.097656 72.652344 74.105469 72.65625 74.117188 72.65625 C 74.308594 73.261719 74.511719 73.859375 74.703125 74.460938 C 74.765625 74.28125 74.832031 74.105469 74.890625 73.925781 C 74.945312 73.761719 74.996094 73.617188 75.027344 73.492188 C 75.0625 73.363281 75.078125 73.273438 75.082031 73.21875 C 75.089844 73.125 75.074219 73.050781 75.039062 72.992188 C 75 72.9375 74.945312 72.902344 74.875 72.886719 C 74.875 72.867188 74.878906 72.847656 74.878906 72.832031 C 74.96875 72.839844 75.050781 72.847656 75.128906 72.855469 C 75.207031 72.859375 75.285156 72.867188 75.359375 72.871094 C 75.417969 72.875 75.488281 72.875 75.566406 72.878906 C 75.640625 72.882812 75.730469 72.886719 75.820312 72.886719 M 76.222656 75.570312 C 76.222656 75.554688 76.21875 75.535156 76.21875 75.515625 C 76.304688 75.453125 76.363281 75.363281 76.386719 75.246094 C 76.417969 75.132812 76.417969 74.949219 76.398438 74.691406 L 76.28125 73.230469 C 76.269531 73.113281 76.253906 73.035156 76.230469 72.996094 C 76.210938 72.960938 76.167969 72.933594 76.113281 72.914062 C 76.109375 72.894531 76.109375 72.875 76.109375 72.859375 C 76.277344 72.851562 76.4375 72.839844 76.585938 72.832031 C 76.738281 72.820312 76.867188 72.8125 76.980469 72.804688 C 77.332031 72.777344 77.679688 72.75 78.027344 72.722656 C 78.097656 72.953125 78.171875 73.191406 78.246094 73.425781 C 78.222656 73.429688 78.203125 73.429688 78.183594 73.433594 C 77.992188 73.230469 77.808594 73.09375 77.636719 73.007812 C 77.464844 72.921875 77.28125 72.890625 77.089844 72.90625 C 77.054688 72.910156 77.03125 72.910156 77.015625 72.914062 C 77 72.914062 76.988281 72.917969 76.972656 72.921875 C 77 73.273438 77.027344 73.628906 77.054688 73.980469 C 77.09375 73.980469 77.125 73.980469 77.148438 73.980469 C 77.167969 73.980469 77.183594 73.980469 77.199219 73.980469 C 77.386719 73.964844 77.527344 73.914062 77.628906 73.835938 C 77.730469 73.757812 77.796875 73.640625 77.828125 73.488281 C 77.851562 73.488281 77.871094 73.484375 77.890625 73.484375 C 77.917969 73.820312 77.945312 74.160156 77.972656 74.5 C 77.953125 74.503906 77.933594 74.503906 77.910156 74.507812 C 77.855469 74.355469 77.769531 74.253906 77.65625 74.191406 C 77.542969 74.128906 77.394531 74.105469 77.210938 74.121094 C 77.195312 74.121094 77.179688 74.125 77.160156 74.128906 C 77.136719 74.132812 77.105469 74.132812 77.070312 74.144531 C 77.085938 74.351562 77.101562 74.558594 77.121094 74.769531 C 77.136719 74.96875 77.175781 75.105469 77.238281 75.183594 C 77.304688 75.265625 77.40625 75.300781 77.539062 75.289062 C 77.695312 75.277344 77.855469 75.199219 78.015625 75.054688 C 78.171875 74.910156 78.335938 74.707031 78.488281 74.445312 C 78.507812 74.449219 78.527344 74.453125 78.546875 74.457031 C 78.5 74.765625 78.449219 75.074219 78.402344 75.382812 C 78 75.414062 77.601562 75.445312 77.199219 75.476562 C 77.117188 75.484375 76.992188 75.496094 76.816406 75.511719 C 76.640625 75.527344 76.441406 75.546875 76.222656 75.570312 M 80.980469 74.957031 C 80.976562 74.941406 80.972656 74.921875 80.96875 74.902344 C 81.046875 74.828125 81.089844 74.734375 81.101562 74.609375 C 81.109375 74.488281 81.074219 74.257812 81 73.917969 C 80.988281 73.863281 80.972656 73.8125 80.964844 73.757812 C 80.871094 73.359375 80.785156 72.964844 80.695312 72.5625 C 80.683594 72.515625 80.671875 72.480469 80.65625 72.46875 C 80.644531 72.457031 80.625 72.449219 80.597656 72.457031 C 80.515625 72.476562 80.417969 72.550781 80.3125 72.683594 C 80.214844 72.816406 80.109375 72.988281 80.019531 73.199219 C 80 73.199219 79.980469 73.203125 79.957031 73.203125 C 79.953125 72.941406 79.949219 72.683594 79.949219 72.425781 C 80.632812 72.269531 81.320312 72.117188 82.007812 71.960938 C 82.113281 72.195312 82.222656 72.433594 82.324219 72.671875 C 82.304688 72.679688 82.285156 72.6875 82.265625 72.691406 C 82.09375 72.542969 81.933594 72.429688 81.78125 72.355469 C 81.628906 72.277344 81.515625 72.25 81.429688 72.269531 C 81.402344 72.277344 81.382812 72.289062 81.378906 72.304688 C 81.371094 72.324219 81.375 72.359375 81.386719 72.40625 C 81.394531 72.445312 81.402344 72.480469 81.410156 72.515625 C 81.503906 72.933594 81.597656 73.347656 81.691406 73.761719 C 81.769531 74.101562 81.835938 74.324219 81.898438 74.429688 C 81.957031 74.535156 82.039062 74.605469 82.144531 74.636719 C 82.148438 74.65625 82.152344 74.675781 82.15625 74.695312 C 82.0625 74.707031 81.972656 74.726562 81.875 74.746094 C 81.78125 74.765625 81.671875 74.789062 81.5625 74.8125 C 81.453125 74.835938 81.347656 74.859375 81.253906 74.886719 C 81.160156 74.910156 81.066406 74.933594 80.980469 74.957031 M 83.296875 74.371094 C 83.292969 74.355469 83.285156 74.335938 83.28125 74.316406 C 83.351562 74.234375 83.382812 74.132812 83.378906 74.007812 C 83.375 73.890625 83.3125 73.664062 83.199219 73.335938 C 83.179688 73.285156 83.160156 73.234375 83.144531 73.183594 C 83.019531 72.820312 82.890625 72.457031 82.765625 72.09375 C 82.726562 71.980469 82.691406 71.90625 82.660156 71.875 C 82.628906 71.847656 82.582031 71.832031 82.523438 71.828125 C 82.515625 71.808594 82.507812 71.789062 82.503906 71.773438 C 82.597656 71.746094 82.691406 71.714844 82.792969 71.683594 C 82.890625 71.648438 83.03125 71.601562 83.199219 71.542969 C 83.304688 71.507812 83.40625 71.472656 83.511719 71.4375 C 83.921875 71.292969 84.234375 71.234375 84.445312 71.269531 C 84.65625 71.308594 84.796875 71.433594 84.871094 71.648438 C 84.929688 71.8125 84.910156 71.96875 84.820312 72.113281 C 84.722656 72.261719 84.554688 72.398438 84.308594 72.527344 C 84.484375 72.492188 84.640625 72.496094 84.773438 72.542969 C 84.90625 72.589844 85.027344 72.671875 85.136719 72.796875 C 85.179688 72.847656 85.238281 72.917969 85.308594 73.007812 C 85.546875 73.304688 85.738281 73.4375 85.871094 73.414062 C 85.878906 73.429688 85.882812 73.445312 85.886719 73.460938 C 85.738281 73.511719 85.625 73.546875 85.539062 73.574219 C 85.453125 73.605469 85.378906 73.632812 85.304688 73.65625 C 85.207031 73.691406 85.136719 73.714844 85.082031 73.734375 C 85.03125 73.753906 84.984375 73.769531 84.945312 73.785156 C 84.910156 73.734375 84.859375 73.664062 84.800781 73.570312 C 84.382812 72.949219 84.058594 72.679688 83.839844 72.753906 C 83.828125 72.761719 83.800781 72.769531 83.773438 72.785156 C 83.769531 72.785156 83.765625 72.789062 83.761719 72.792969 C 83.796875 72.886719 83.832031 72.988281 83.867188 73.085938 C 83.984375 73.421875 84.078125 73.636719 84.152344 73.738281 C 84.226562 73.839844 84.3125 73.898438 84.417969 73.921875 C 84.425781 73.9375 84.433594 73.957031 84.4375 73.972656 C 84.347656 74 84.257812 74.027344 84.164062 74.058594 C 84.070312 74.085938 83.96875 74.121094 83.863281 74.160156 C 83.757812 74.195312 83.65625 74.230469 83.566406 74.265625 C 83.472656 74.300781 83.382812 74.335938 83.296875 74.371094 Z M 83.707031 72.632812 C 83.730469 72.628906 83.753906 72.625 83.773438 72.617188 C 83.796875 72.609375 83.828125 72.601562 83.875 72.585938 C 84.035156 72.527344 84.144531 72.449219 84.1875 72.34375 C 84.234375 72.242188 84.230469 72.101562 84.167969 71.929688 C 84.109375 71.765625 84.035156 71.65625 83.933594 71.597656 C 83.832031 71.542969 83.707031 71.542969 83.5625 71.59375 C 83.511719 71.609375 83.476562 71.621094 83.449219 71.636719 C 83.421875 71.648438 83.398438 71.660156 83.371094 71.667969 L 83.707031 72.632812 M 85.070312 71.058594 C 85.0625 71.039062 85.058594 71.019531 85.050781 71.003906 C 85.203125 70.941406 85.320312 70.890625 85.394531 70.859375 C 85.472656 70.824219 85.542969 70.796875 85.605469 70.765625 C 85.726562 70.710938 85.898438 70.625 86.132812 70.503906 C 86.136719 70.503906 86.140625 70.503906 86.144531 70.5 C 86.152344 70.515625 86.160156 70.53125 86.171875 70.550781 C 86.109375 70.640625 86.085938 70.746094 86.101562 70.863281 C 86.117188 70.984375 86.199219 71.203125 86.34375 71.519531 C 86.367188 71.570312 86.390625 71.621094 86.414062 71.671875 C 86.480469 71.816406 86.550781 71.964844 86.617188 72.113281 C 86.75 72.398438 86.886719 72.585938 87.03125 72.675781 C 87.175781 72.769531 87.335938 72.773438 87.527344 72.683594 C 87.613281 72.644531 87.683594 72.582031 87.742188 72.496094 C 87.796875 72.410156 87.828125 72.316406 87.839844 72.207031 C 87.847656 72.136719 87.839844 72.054688 87.816406 71.964844 C 87.792969 71.878906 87.746094 71.753906 87.671875 71.589844 C 87.621094 71.480469 87.570312 71.375 87.523438 71.265625 C 87.332031 70.851562 87.175781 70.59375 87.066406 70.484375 C 86.957031 70.375 86.820312 70.328125 86.667969 70.332031 C 86.660156 70.3125 86.652344 70.296875 86.644531 70.28125 C 86.695312 70.257812 86.753906 70.234375 86.8125 70.207031 C 86.871094 70.183594 86.960938 70.140625 87.082031 70.085938 C 87.203125 70.03125 87.289062 69.992188 87.34375 69.964844 C 87.402344 69.933594 87.460938 69.902344 87.507812 69.882812 C 87.511719 69.898438 87.523438 69.917969 87.53125 69.933594 C 87.425781 70.046875 87.375 70.179688 87.386719 70.339844 C 87.394531 70.496094 87.496094 70.78125 87.6875 71.195312 C 87.738281 71.300781 87.785156 71.410156 87.835938 71.515625 C 88.003906 71.882812 88.046875 72.1875 87.976562 72.417969 C 87.90625 72.652344 87.695312 72.847656 87.367188 73 C 87.046875 73.144531 86.777344 73.179688 86.558594 73.09375 C 86.339844 73.007812 86.15625 72.804688 86.003906 72.476562 C 85.921875 72.296875 85.839844 72.117188 85.753906 71.9375 C 85.582031 71.5625 85.453125 71.320312 85.363281 71.21875 C 85.277344 71.117188 85.179688 71.066406 85.070312 71.058594 M 89.097656 71.945312 C 89.007812 71.703125 88.921875 71.457031 88.832031 71.210938 C 88.851562 71.203125 88.871094 71.195312 88.894531 71.183594 C 89.074219 71.371094 89.265625 71.484375 89.464844 71.535156 C 89.660156 71.582031 89.832031 71.550781 89.976562 71.449219 C 90.097656 71.363281 90.171875 71.25 90.195312 71.113281 C 90.214844 70.980469 90.183594 70.851562 90.09375 70.726562 C 90.015625 70.621094 89.929688 70.558594 89.832031 70.535156 C 89.726562 70.515625 89.605469 70.535156 89.457031 70.59375 C 89.429688 70.609375 89.382812 70.625 89.328125 70.644531 C 89.054688 70.757812 88.855469 70.8125 88.730469 70.796875 C 88.636719 70.789062 88.550781 70.761719 88.472656 70.707031 C 88.390625 70.652344 88.3125 70.578125 88.238281 70.476562 C 88.089844 70.269531 88.054688 70.039062 88.117188 69.796875 C 88.183594 69.554688 88.347656 69.335938 88.609375 69.148438 C 88.730469 69.066406 88.859375 68.992188 89 68.941406 C 89.144531 68.882812 89.304688 68.839844 89.480469 68.816406 C 89.554688 69.027344 89.625 69.246094 89.699219 69.457031 C 89.683594 69.46875 89.664062 69.480469 89.648438 69.492188 C 89.507812 69.328125 89.351562 69.226562 89.191406 69.183594 C 89.027344 69.140625 88.878906 69.171875 88.75 69.265625 C 88.648438 69.335938 88.589844 69.429688 88.574219 69.542969 C 88.5625 69.652344 88.589844 69.765625 88.667969 69.871094 C 88.738281 69.972656 88.820312 70.027344 88.910156 70.042969 C 88.996094 70.058594 89.152344 70.023438 89.375 69.929688 C 89.660156 69.8125 89.886719 69.765625 90.058594 69.796875 C 90.226562 69.832031 90.378906 69.941406 90.511719 70.125 C 90.675781 70.355469 90.71875 70.601562 90.648438 70.863281 C 90.578125 71.128906 90.398438 71.359375 90.113281 71.5625 C 89.957031 71.675781 89.792969 71.765625 89.617188 71.832031 C 89.4375 71.898438 89.265625 71.9375 89.097656 71.945312 M 92.027344 70.160156 C 92.019531 70.144531 92.007812 70.128906 91.996094 70.113281 C 92.035156 70.015625 92.035156 69.910156 91.996094 69.789062 C 91.957031 69.679688 91.832031 69.480469 91.621094 69.199219 C 91.589844 69.15625 91.558594 69.113281 91.523438 69.070312 C 91.28125 68.742188 91.039062 68.417969 90.792969 68.089844 C 90.761719 68.046875 90.738281 68.023438 90.722656 68.015625 C 90.703125 68.007812 90.6875 68.011719 90.664062 68.027344 C 90.59375 68.082031 90.535156 68.1875 90.496094 68.351562 C 90.453125 68.519531 90.429688 68.714844 90.433594 68.945312 C 90.414062 68.953125 90.398438 68.964844 90.375 68.976562 C 90.265625 68.738281 90.160156 68.503906 90.050781 68.269531 C 90.617188 67.847656 91.183594 67.425781 91.753906 67 C 91.949219 67.171875 92.140625 67.34375 92.335938 67.519531 C 92.320312 67.535156 92.304688 67.546875 92.289062 67.5625 C 92.070312 67.496094 91.875 67.460938 91.707031 67.453125 C 91.535156 67.441406 91.417969 67.46875 91.351562 67.519531 C 91.324219 67.535156 91.316406 67.554688 91.316406 67.570312 C 91.316406 67.589844 91.335938 67.621094 91.367188 67.660156 L 91.433594 67.75 C 91.6875 68.09375 91.941406 68.433594 92.195312 68.773438 C 92.402344 69.054688 92.554688 69.230469 92.65625 69.300781 C 92.753906 69.375 92.859375 69.40625 92.960938 69.394531 C 92.972656 69.410156 92.984375 69.425781 92.996094 69.441406 C 92.921875 69.488281 92.839844 69.546875 92.761719 69.601562 C 92.679688 69.660156 92.59375 69.722656 92.503906 69.789062 C 92.410156 69.855469 92.324219 69.921875 92.25 69.980469 C 92.171875 70.042969 92.097656 70.101562 92.027344 70.160156 M 89.742188 53.03125 C 89.726562 53.023438 90.246094 52.972656 90.246094 52.972656 C 90.246094 52.972656 90.664062 52.972656 91.089844 52.957031 C 91.449219 52.914062 91.816406 52.871094 91.917969 52.855469 C 92.027344 52.804688 92.144531 52.753906 92.246094 52.695312 L 92.480469 52.570312 L 92.6875 52.414062 C 92.972656 52.222656 93.222656 51.964844 93.425781 51.6875 C 93.84375 51.136719 93.984375 50.4375 93.792969 49.777344 C 93.601562 49.117188 93.15625 48.523438 92.628906 48.050781 C 92.253906 47.707031 91.824219 47.421875 91.375 47.199219 C 91.332031 47.183594 91.28125 47.164062 91.214844 47.140625 C 91.054688 47.082031 90.847656 47 90.621094 46.957031 C 90.503906 46.929688 90.394531 46.898438 90.292969 46.871094 C 90.1875 46.855469 90.085938 46.855469 90 46.847656 C 89.835938 46.832031 89.726562 46.824219 89.726562 46.824219 C 89.617188 46.804688 89.507812 46.816406 89.398438 46.804688 L 88.980469 46.796875 L 88.378906 46.839844 C 88.175781 46.863281 87.96875 46.898438 87.765625 46.921875 C 86.964844 47.066406 86.167969 47.308594 85.367188 47.566406 C 84.285156 47.90625 83.179688 48.316406 82.027344 48.550781 C 81.792969 48.617188 81.550781 48.667969 81.308594 48.71875 C 81.222656 48.800781 81.148438 48.890625 81.074219 48.976562 C 80.621094 49.5 80.144531 50.019531 79.632812 50.503906 C 79.523438 50.609375 79.40625 50.71875 79.289062 50.820312 L 79.398438 50.929688 C 79.902344 51.34375 80.46875 51.6875 81.074219 51.953125 C 81.375 52.089844 81.683594 52.179688 82 52.28125 C 82.320312 52.347656 82.628906 52.421875 82.972656 52.4375 L 83.96875 52.546875 L 84.988281 52.605469 L 86.488281 52.6875 C 86.488281 52.6875 87.199219 52.773438 87.699219 52.871094 C 88.546875 53.015625 88.203125 53.097656 87.675781 53.132812 C 87.726562 53.140625 86.402344 53.148438 86.402344 53.148438 L 84.855469 53.0625 C 84.519531 53.046875 84.183594 53.03125 83.851562 53.003906 L 82.839844 52.898438 C 82.511719 52.878906 82.160156 52.796875 81.824219 52.722656 C 81.5 52.613281 81.164062 52.515625 80.855469 52.363281 C 80.511719 52.214844 80.175781 52.039062 79.867188 51.839844 C 80.050781 52.136719 80.246094 52.421875 80.46875 52.671875 C 81.207031 53.515625 82.269531 54.046875 83.367188 54.332031 C 84.445312 54.582031 85.609375 54.5 86.738281 54.316406 C 87.039062 54.242188 87.339844 54.15625 87.648438 54.074219 C 87.976562 53.972656 88.320312 53.875 88.652344 53.773438 C 89.003906 53.664062 89.355469 53.574219 89.707031 53.5 C 89.835938 53.464844 89.960938 53.441406 90.085938 53.414062 C 89.984375 53.382812 89.835938 53.339844 89.707031 53.289062 C 89.375 53.148438 89.542969 53.0625 89.742188 53.03125 M 63.203125 53.242188 C 63.230469 53.25 62.585938 53.332031 62.585938 53.332031 L 61.941406 53.332031 C 61.980469 53.347656 62.023438 53.367188 62.066406 53.375 C 62.292969 53.457031 62.515625 53.539062 62.691406 53.597656 C 62.859375 53.664062 62.976562 53.699219 62.976562 53.699219 L 63.277344 53.816406 C 63.386719 53.859375 63.4375 53.867188 63.707031 53.949219 C 63.921875 54.007812 64.140625 54.042969 64.367188 54.082031 C 64.585938 54.089844 64.800781 54.132812 65.027344 54.109375 C 65.921875 54.074219 66.835938 53.839844 67.679688 53.464844 C 68.566406 53.074219 69.398438 52.53125 70.140625 51.890625 C 69.09375 52.421875 67.957031 52.730469 66.828125 52.957031 C 66.683594 52.980469 66.542969 53.007812 66.390625 53.03125 C 66.390625 53.03125 65.671875 53.097656 65.160156 53.082031 C 64.300781 53.066406 64.632812 52.921875 65.144531 52.824219 C 65.121094 52.816406 65.429688 52.765625 65.746094 52.699219 C 66.058594 52.632812 66.375 52.558594 66.375 52.558594 L 66.601562 52.523438 L 66.851562 52.472656 C 67.070312 52.429688 67.277344 52.382812 67.496094 52.332031 C 67.921875 52.230469 68.34375 52.113281 68.753906 51.972656 C 69.253906 51.796875 69.738281 51.582031 70.199219 51.332031 C 70.132812 51.265625 70.066406 51.195312 70.007812 51.128906 C 69.757812 50.847656 69.53125 50.554688 69.320312 50.261719 C 69.210938 50.289062 69.105469 50.320312 68.996094 50.339844 L 68.59375 50.371094 C 68.324219 50.40625 68.066406 50.378906 67.808594 50.378906 C 67.65625 50.378906 67.515625 50.363281 67.363281 50.347656 C 67.363281 50.347656 66.636719 50.238281 66.148438 50.078125 C 65.320312 49.820312 65.6875 49.789062 66.207031 49.820312 C 66.183594 49.8125 66.5 49.855469 66.820312 49.863281 C 67.136719 49.886719 67.464844 49.886719 67.464844 49.886719 C 67.582031 49.894531 67.707031 49.914062 67.824219 49.914062 C 68.066406 49.902344 68.316406 49.9375 68.558594 49.902344 L 68.929688 49.871094 L 69.027344 49.847656 C 68.9375 49.703125 68.835938 49.5625 68.742188 49.421875 L 68.460938 48.96875 L 68.285156 48.660156 C 68.285156 48.660156 68.257812 48.601562 68.207031 48.496094 C 68.15625 48.394531 68.097656 48.261719 68.015625 48.101562 C 68.007812 48.09375 68.007812 48.085938 68 48.078125 C 67.171875 47.96875 66.332031 47.820312 65.511719 47.609375 C 65.261719 47.550781 65.011719 47.453125 64.761719 47.367188 C 64.507812 47.277344 64.257812 47.21875 64.015625 47.101562 C 63.699219 46.941406 63.378906 46.808594 63.0625 46.652344 C 63.011719 46.644531 62.953125 46.632812 62.902344 46.632812 C 62.265625 46.59375 61.621094 46.46875 60.96875 46.550781 C 60.316406 46.601562 59.648438 46.742188 58.996094 46.953125 C 58.339844 47.160156 57.695312 47.453125 57.136719 47.859375 C 56.585938 48.261719 56.125 48.820312 56.074219 49.46875 C 56.015625 50.128906 56.367188 50.78125 56.816406 51.332031 C 57.261719 51.878906 57.882812 52.246094 58.585938 52.429688 C 59.171875 52.597656 59.796875 52.683594 60.433594 52.839844 C 60.433594 52.832031 60.441406 52.824219 60.441406 52.824219 C 60.449219 52.824219 60.59375 52.832031 60.792969 52.839844 C 60.996094 52.855469 61.261719 52.875 61.53125 52.863281 L 62.609375 52.863281 C 62.609375 52.863281 62.953125 52.90625 63.203125 52.980469 C 63.621094 53.082031 63.464844 53.183594 63.203125 53.242188 M 79.902344 53.089844 L 79.609375 52.730469 L 79.347656 52.339844 L 78.878906 51.597656 C 78.8125 51.496094 78.753906 51.414062 78.6875 51.3125 C 77.925781 51.914062 77.074219 52.414062 76.121094 52.714844 C 76.144531 52.839844 76.167969 52.980469 76.195312 53.128906 C 76.238281 53.472656 76.246094 53.832031 76.246094 53.832031 C 76.246094 53.832031 76.226562 53.882812 76.195312 53.964844 C 76.167969 54.046875 76.136719 54.140625 76.078125 54.214844 C 75.902344 54.464844 75.84375 54.28125 75.816406 54.148438 C 75.828125 54.164062 75.769531 53.804688 75.769531 53.804688 C 75.769531 53.804688 75.769531 53.503906 75.726562 53.1875 C 75.710938 53.0625 75.683594 52.9375 75.667969 52.839844 C 75.441406 52.890625 75.214844 52.929688 74.988281 52.964844 C 75 53.207031 74.988281 53.449219 74.980469 53.6875 C 74.957031 54.046875 74.921875 54.40625 74.847656 54.765625 C 74.8125 54.914062 74.789062 55.058594 74.746094 55.207031 C 74.746094 55.207031 74.730469 55.25 74.707031 55.324219 C 74.671875 55.390625 74.640625 55.5 74.578125 55.605469 C 74.480469 55.839844 74.328125 56.125 74.171875 56.324219 C 73.960938 56.589844 73.84375 56.691406 73.792969 56.699219 C 73.777344 56.699219 73.769531 56.691406 73.769531 56.675781 C 73.75 56.625 73.800781 56.515625 73.867188 56.367188 L 74.503906 53.707031 C 74.503906 53.6875 74.511719 53.671875 74.511719 53.664062 C 74.523438 53.4375 74.523438 53.222656 74.511719 52.996094 C 74.320312 53.003906 74.128906 53.003906 73.9375 52.996094 C 73.925781 53.023438 73.917969 53.054688 73.902344 53.082031 C 73.851562 53.214844 73.769531 53.390625 73.691406 53.554688 C 73.601562 53.722656 73.515625 53.890625 73.441406 54.015625 C 73.367188 54.132812 73.308594 54.214844 73.308594 54.214844 C 73.308594 54.214844 73.265625 54.246094 73.199219 54.316406 C 73.132812 54.371094 73.039062 54.429688 72.949219 54.472656 C 72.671875 54.605469 72.699219 54.429688 72.765625 54.28125 C 72.757812 54.28125 72.816406 54.214844 72.847656 54.113281 C 72.890625 54.023438 72.933594 53.929688 72.933594 53.929688 C 72.933594 53.929688 72.980469 53.863281 73.050781 53.753906 C 73.117188 53.648438 73.191406 53.496094 73.273438 53.339844 C 73.332031 53.207031 73.402344 53.070312 73.441406 52.964844 C 72.855469 52.898438 72.253906 52.730469 71.71875 52.464844 C 71.476562 52.339844 71.25 52.195312 71.023438 52.039062 C 70.105469 52.914062 69.035156 53.640625 67.863281 54.148438 C 67.5625 54.273438 67.257812 54.382812 66.957031 54.472656 C 66.898438 54.824219 66.917969 55.183594 67.050781 55.53125 C 67.160156 55.855469 67.335938 56.164062 67.542969 56.464844 L 68.179688 56.792969 C 69.074219 57.234375 69.96875 57.667969 70.898438 58.015625 C 71.03125 58.066406 71.167969 58.125 71.308594 58.167969 C 71.308594 58.167969 71.460938 58.234375 71.683594 58.324219 C 71.792969 58.375 71.910156 58.433594 72.046875 58.492188 C 72.160156 58.535156 72.289062 58.582031 72.421875 58.625 C 73.214844 58.925781 72.882812 58.949219 72.339844 58.875 C 72.371094 58.882812 72.046875 58.851562 71.726562 58.757812 C 71.410156 58.675781 71.089844 58.582031 71.089844 58.582031 C 70.964844 58.550781 70.847656 58.5 70.730469 58.449219 C 69.929688 58.148438 69.160156 57.792969 68.390625 57.417969 C 69.359375 58.332031 70.539062 59.066406 71.792969 59.585938 C 72.464844 59.859375 73.148438 60.066406 73.851562 60.027344 C 74.5625 60.007812 75.28125 59.882812 75.976562 59.71875 C 77.289062 59.402344 78.554688 58.910156 79.617188 58.191406 C 78.496094 58.542969 77.339844 58.757812 76.195312 58.910156 L 75.75 58.957031 C 75.75 58.957031 75.582031 58.96875 75.332031 58.976562 C 75.082031 58.976562 74.773438 58.96875 74.523438 58.957031 C 73.660156 58.902344 74.003906 58.785156 74.523438 58.691406 C 74.496094 58.691406 74.804688 58.640625 75.125 58.601562 C 75.441406 58.542969 75.757812 58.492188 75.757812 58.492188 L 76.128906 58.441406 C 77.425781 58.277344 78.714844 58.035156 79.925781 57.601562 L 80.628906 57.316406 C 80.8125 57.109375 80.972656 56.890625 81.089844 56.65625 C 81.375 56.117188 81.390625 55.492188 81.324219 54.890625 C 81.28125 54.640625 81.222656 54.398438 81.15625 54.15625 C 80.6875 53.863281 80.261719 53.503906 79.902344 53.089844 M 66.621094 39.496094 C 66.070312 39.246094 65.484375 39.027344 64.882812 38.851562 C 64.253906 38.671875 63.601562 38.527344 62.949219 38.46875 C 62.289062 38.402344 61.609375 38.417969 61 38.636719 C 60.699219 38.738281 60.433594 38.910156 60.230469 39.136719 C 60.011719 39.363281 59.90625 39.65625 59.804688 39.972656 C 59.621094 40.605469 59.652344 41.289062 59.835938 41.941406 C 59.953125 42.332031 60.113281 42.71875 60.3125 43.074219 C 60.339844 43.109375 60.363281 43.152344 60.398438 43.210938 C 60.449219 43.277344 60.507812 43.359375 60.566406 43.453125 C 60.632812 43.535156 60.707031 43.617188 60.773438 43.710938 C 60.847656 43.800781 60.925781 43.894531 60.992188 43.976562 C 61.066406 44.058594 61.140625 44.136719 61.203125 44.203125 C 61.328125 44.328125 61.402344 44.410156 61.402344 44.410156 C 61.476562 44.496094 61.550781 44.570312 61.628906 44.652344 C 61.710938 44.734375 61.738281 44.769531 61.953125 44.976562 C 62.3125 45.296875 62.691406 45.613281 63.101562 45.855469 C 63.292969 45.988281 63.519531 46.089844 63.734375 46.1875 L 64.398438 46.503906 L 65.089844 46.738281 C 65.324219 46.8125 65.550781 46.898438 65.792969 46.949219 C 66.394531 47.097656 67.015625 47.214844 67.632812 47.304688 C 67.585938 47.199219 67.542969 47.089844 67.507812 46.980469 C 67.46875 46.855469 67.441406 46.746094 67.425781 46.648438 C 67.074219 46.539062 66.714844 46.414062 66.371094 46.28125 C 65.625 45.996094 64.898438 45.679688 64.1875 45.320312 C 63.835938 45.144531 63.484375 44.96875 63.140625 44.777344 L 62.699219 44.535156 C 62.699219 44.535156 62.097656 44.144531 61.703125 43.816406 C 61.027344 43.285156 61.375 43.375 61.855469 43.601562 C 61.828125 43.585938 62.113281 43.726562 62.398438 43.875 C 62.691406 44.019531 62.984375 44.160156 62.984375 44.160156 L 63.484375 44.4375 C 63.820312 44.609375 64.164062 44.785156 64.503906 44.953125 C 65.191406 45.296875 65.894531 45.605469 66.605469 45.871094 C 66.890625 45.980469 67.183594 46.078125 67.46875 46.171875 C 67.484375 46.164062 67.492188 46.164062 67.507812 46.179688 C 67.574219 46.238281 67.667969 46.523438 67.878906 46.839844 C 67.859375 46.796875 68.085938 47.179688 68.378906 47.574219 C 68.519531 47.765625 68.664062 47.964844 68.773438 48.140625 C 68.871094 48.289062 68.9375 48.390625 68.9375 48.390625 L 69.105469 48.675781 L 69.191406 48.816406 L 69.324219 49.015625 C 69.40625 49.160156 69.5 49.300781 69.589844 49.433594 C 69.976562 49.984375 70.351562 50.519531 70.820312 50.960938 C 71.28125 51.402344 71.808594 51.761719 72.394531 51.988281 C 72.972656 52.222656 73.617188 52.3125 74.25 52.304688 C 74.894531 52.304688 75.53125 52.1875 76.132812 51.972656 C 76.953125 51.6875 77.707031 51.210938 78.402344 50.652344 L 78.390625 50.660156 L 78.484375 50.585938 C 78.492188 50.578125 78.5 50.578125 78.507812 50.570312 L 78.710938 50.394531 L 78.71875 50.386719 C 78.742188 50.367188 78.769531 50.34375 78.785156 50.328125 L 78.820312 50.300781 C 78.996094 50.136719 79.179688 49.976562 79.347656 49.808594 C 79.824219 49.34375 80.257812 48.859375 80.710938 48.324219 C 80.828125 48.199219 80.9375 48.082031 81.027344 47.964844 C 81.070312 47.90625 81.109375 47.847656 81.144531 47.789062 C 81.160156 47.765625 81.179688 47.742188 81.1875 47.714844 L 81.195312 47.699219 L 81.121094 47.65625 C 81.003906 47.589844 80.867188 47.53125 80.71875 47.488281 C 80.574219 47.441406 80.417969 47.398438 80.25 47.355469 L 80 47.296875 C 79.921875 47.273438 79.847656 47.257812 79.773438 47.238281 C 79.464844 47.179688 79.152344 47.148438 78.835938 47.148438 C 78.199219 47.140625 77.554688 47.257812 76.921875 47.421875 C 76.601562 47.507812 76.285156 47.605469 75.964844 47.714844 C 75.808594 47.765625 75.65625 47.824219 75.464844 47.875 C 75.289062 47.921875 75.113281 47.964844 74.945312 48 C 74.601562 48.066406 74.261719 48.117188 73.925781 48.175781 L 73.421875 48.25 C 73.199219 48.28125 72.980469 48.257812 72.789062 48.214844 C 72.402344 48.132812 72.066406 47.972656 71.757812 47.796875 C 71.441406 47.625 71.148438 47.40625 70.878906 47.214844 C 70.328125 46.8125 69.792969 46.4375 69.222656 46.238281 C 68.890625 46.128906 68.5625 46.089844 68.238281 46.136719 C 68.21875 46.136719 68.210938 46.144531 68.195312 46.128906 C 68.121094 46.089844 68.019531 46.03125 67.960938 45.921875 C 67.902344 45.820312 67.886719 45.671875 68.070312 45.480469 C 68.078125 45.480469 68.101562 45.445312 68.128906 45.445312 C 68.152344 45.4375 68.179688 45.4375 68.210938 45.4375 C 67.828125 45.046875 67.484375 44.609375 67.207031 44.136719 C 67.066406 43.875 66.898438 43.625 66.796875 43.335938 L 66.628906 42.917969 L 66.511719 42.476562 C 66.421875 42.191406 66.414062 41.882812 66.378906 41.574219 C 66.363281 41.273438 66.386719 40.972656 66.40625 40.679688 C 66.453125 40.28125 66.53125 39.878906 66.621094 39.496094 M 79.078125 38.242188 C 78.929688 37.691406 78.675781 37.183594 78.367188 36.714844 L 78.140625 36.414062 C 78.074219 36.324219 78 36.246094 77.921875 36.164062 C 77.921875 36.164062 77.882812 36.121094 77.816406 36.039062 C 77.75 35.957031 77.664062 35.832031 77.539062 35.707031 C 77.414062 35.574219 77.261719 35.421875 77.113281 35.265625 C 76.746094 34.972656 76.359375 34.6875 75.949219 34.398438 C 75.253906 33.820312 74.746094 33.144531 74.117188 32.585938 C 73.808594 32.3125 73.472656 32.070312 73.113281 31.953125 C 72.777344 31.851562 72.410156 31.96875 72.050781 32.171875 C 71.347656 32.585938 70.738281 33.21875 70.175781 33.871094 C 69.625 34.53125 69.105469 35.230469 68.652344 35.957031 C 68.46875 36.273438 68.300781 36.597656 68.144531 36.933594 C 68.074219 37.089844 67.976562 37.355469 67.882812 37.632812 C 67.808594 37.859375 67.734375 38.082031 67.691406 38.257812 C 67.640625 38.433594 67.609375 38.550781 67.609375 38.550781 C 67.574219 38.648438 67.53125 38.757812 67.507812 38.867188 L 67.375 39.339844 C 67.296875 39.601562 67.253906 39.867188 67.199219 40.125 C 67.15625 40.382812 67.113281 40.652344 67.089844 40.917969 C 67.003906 41.960938 67.296875 42.96875 67.859375 43.871094 C 68.269531 44.503906 68.785156 45.0625 69.371094 45.554688 C 69.398438 45.5625 69.421875 45.5625 69.449219 45.570312 C 70.085938 45.796875 70.621094 46.164062 71.121094 46.515625 C 71.164062 46.378906 71.265625 46.253906 71.421875 46.238281 C 71.617188 46.253906 71.707031 46.421875 71.765625 46.546875 L 71.765625 46.5625 C 71.765625 46.605469 71.742188 46.65625 71.699219 46.671875 C 71.671875 46.679688 71.648438 46.679688 71.617188 46.664062 C 71.625 46.707031 71.632812 46.746094 71.632812 46.78125 C 71.632812 46.773438 71.632812 46.8125 71.625 46.871094 C 71.671875 46.914062 71.722656 46.949219 71.78125 46.980469 C 71.773438 46.921875 71.78125 46.855469 71.800781 46.804688 C 71.839844 46.664062 71.949219 46.53125 72.117188 46.515625 C 72.308594 46.523438 72.402344 46.695312 72.453125 46.8125 C 72.453125 46.824219 72.460938 46.824219 72.453125 46.832031 C 72.453125 46.878906 72.433594 46.921875 72.394531 46.9375 L 72.386719 46.9375 C 72.367188 46.949219 72.335938 46.949219 72.300781 46.9375 C 72.316406 46.972656 72.328125 47.015625 72.328125 47.054688 C 72.328125 47.046875 72.328125 47.089844 72.300781 47.164062 C 72.300781 47.1875 72.277344 47.230469 72.242188 47.253906 C 72.308594 47.296875 72.375 47.332031 72.445312 47.355469 C 72.453125 47.324219 72.453125 47.28125 72.46875 47.246094 C 72.511719 47.105469 72.609375 46.972656 72.777344 46.957031 C 72.972656 46.964844 73.0625 47.128906 73.121094 47.253906 L 73.121094 47.273438 C 73.121094 47.316406 73.097656 47.363281 73.054688 47.382812 C 73.027344 47.390625 73.003906 47.390625 72.972656 47.371094 C 72.980469 47.414062 72.988281 47.457031 72.988281 47.496094 C 72.988281 47.488281 72.996094 47.507812 72.988281 47.539062 L 72.996094 47.539062 C 73.144531 47.566406 73.246094 47.574219 73.390625 47.546875 L 73.898438 47.464844 C 73.949219 47.457031 73.992188 47.449219 74.035156 47.441406 C 74.042969 47.414062 74.042969 47.390625 74.050781 47.371094 C 74.023438 47.382812 73.984375 47.398438 73.941406 47.382812 C 73.917969 47.363281 73.890625 47.339844 73.882812 47.28125 C 73.882812 47.273438 73.875 47.265625 73.882812 47.253906 C 73.933594 47.128906 74.023438 46.964844 74.21875 46.957031 C 74.382812 46.972656 74.492188 47.105469 74.535156 47.246094 C 74.542969 47.28125 74.542969 47.316406 74.550781 47.355469 C 74.609375 47.339844 74.675781 47.332031 74.734375 47.316406 C 74.6875 47.253906 74.660156 47.171875 74.667969 47.105469 C 74.660156 47.054688 74.675781 47.023438 74.695312 46.996094 C 74.667969 47.003906 74.628906 47.023438 74.585938 47.003906 C 74.558594 46.996094 74.535156 46.964844 74.519531 46.90625 L 74.519531 46.878906 C 74.578125 46.765625 74.667969 46.589844 74.863281 46.582031 C 75.027344 46.597656 75.128906 46.730469 75.171875 46.871094 C 75.203125 46.964844 75.203125 47.0625 75.171875 47.164062 C 75.179688 47.164062 75.164062 47.1875 75.136719 47.230469 C 75.222656 47.214844 75.296875 47.1875 75.371094 47.164062 L 75.4375 47.148438 L 75.503906 47.03125 C 75.496094 47.03125 75.496094 47.03125 75.488281 47.023438 C 75.414062 46.957031 75.390625 46.863281 75.398438 46.789062 C 75.398438 46.738281 75.414062 46.707031 75.429688 46.671875 C 75.40625 46.6875 75.355469 46.707031 75.3125 46.6875 C 75.289062 46.671875 75.261719 46.648438 75.253906 46.589844 L 75.253906 46.5625 C 75.304688 46.4375 75.398438 46.273438 75.589844 46.253906 C 75.722656 46.273438 75.808594 46.355469 75.867188 46.457031 C 75.949219 46.289062 76.023438 46.113281 76.117188 45.953125 C 76.25 45.695312 76.375 45.4375 76.46875 45.164062 C 76.558594 44.894531 76.667969 44.628906 76.761719 44.355469 L 76.953125 43.519531 C 77.078125 42.960938 77.144531 42.378906 77.1875 41.808594 C 77.203125 41.519531 77.203125 41.234375 77.1875 40.953125 C 77.179688 40.757812 77.164062 40.652344 77.144531 40.492188 C 77.144531 40.492188 77.09375 39.816406 76.910156 39.359375 C 76.835938 39.167969 76.777344 39.050781 76.753906 38.964844 C 76.71875 38.890625 76.726562 38.859375 76.761719 38.867188 C 76.820312 38.875 76.996094 39.015625 77.152344 39.25 C 77.144531 39.226562 77.320312 39.507812 77.4375 39.832031 C 77.554688 40.152344 77.613281 40.492188 77.613281 40.492188 L 77.648438 40.726562 L 77.664062 41.035156 C 77.671875 41.335938 77.671875 41.625 77.648438 41.925781 C 77.605469 42.519531 77.539062 43.09375 77.40625 43.671875 L 77.195312 44.539062 L 76.894531 45.363281 C 76.804688 45.648438 76.660156 45.90625 76.535156 46.171875 C 76.402344 46.421875 76.292969 46.6875 76.132812 46.921875 C 76.375 46.847656 76.628906 46.773438 76.878906 46.707031 C 76.988281 46.679688 77.105469 46.65625 77.222656 46.628906 C 78.148438 45.070312 78.894531 43.402344 79.222656 41.644531 C 79.429688 40.5 79.40625 39.339844 79.078125 38.242188 M 70.175781 36.003906 C 70.191406 35.980469 70.035156 36.246094 69.875 36.53125 C 69.722656 36.808594 69.582031 37.097656 69.582031 37.097656 L 69.398438 37.414062 C 69.171875 37.839844 68.972656 38.265625 68.8125 38.707031 C 68.730469 38.949219 68.652344 39.191406 68.59375 39.433594 C 68.59375 39.441406 68.585938 39.441406 68.578125 39.457031 C 68.484375 39.535156 68.285156 39.652344 68.144531 39.359375 C 68.144531 39.359375 68.132812 39.332031 68.132812 39.316406 C 68.203125 39.058594 68.277344 38.800781 68.367188 38.550781 C 68.542969 38.082031 68.753906 37.632812 68.988281 37.199219 L 69.207031 36.816406 C 69.207031 36.816406 69.617188 36.207031 69.96875 35.839844 C 70.5625 35.207031 70.433594 35.546875 70.175781 36.003906 M 74.851562 44.679688 C 75.019531 44.695312 75.121094 44.835938 75.164062 44.980469 C 75.195312 45.0625 75.195312 45.171875 75.164062 45.269531 C 75.164062 45.261719 75.121094 45.414062 74.988281 45.472656 C 74.929688 45.496094 74.820312 45.511719 74.746094 45.445312 C 74.667969 45.378906 74.652344 45.289062 74.652344 45.214844 C 74.652344 45.164062 74.667969 45.128906 74.6875 45.105469 C 74.660156 45.113281 74.621094 45.128906 74.578125 45.113281 L 74.570312 45.113281 L 74.578125 45.113281 C 74.542969 45.097656 74.527344 45.070312 74.511719 45.011719 L 74.511719 44.988281 C 74.570312 44.863281 74.660156 44.695312 74.851562 44.679688 M 73.882812 44.429688 C 73.933594 44.304688 74.023438 44.128906 74.21875 44.121094 C 74.382812 44.136719 74.492188 44.277344 74.535156 44.410156 C 74.558594 44.503906 74.570312 44.613281 74.535156 44.710938 C 74.535156 44.703125 74.484375 44.847656 74.351562 44.902344 C 74.292969 44.9375 74.191406 44.953125 74.117188 44.886719 C 74.042969 44.820312 74.015625 44.730469 74.023438 44.652344 C 74.023438 44.605469 74.035156 44.570312 74.050781 44.539062 C 74.023438 44.554688 73.984375 44.570312 73.941406 44.554688 C 73.917969 44.539062 73.890625 44.511719 73.882812 44.445312 C 73.882812 44.445312 73.875 44.429688 73.882812 44.429688 M 73.882812 45.371094 C 73.933594 45.246094 74.023438 45.078125 74.21875 45.0625 C 74.382812 45.078125 74.492188 45.222656 74.535156 45.363281 C 74.558594 45.445312 74.570312 45.554688 74.535156 45.65625 C 74.535156 45.648438 74.484375 45.789062 74.351562 45.847656 C 74.292969 45.878906 74.191406 45.898438 74.117188 45.828125 C 74.042969 45.761719 74.015625 45.671875 74.023438 45.597656 C 74.023438 45.546875 74.035156 45.511719 74.050781 45.480469 C 74.023438 45.496094 73.984375 45.511719 73.941406 45.496094 C 73.917969 45.480469 73.890625 45.453125 73.882812 45.386719 C 73.882812 45.386719 73.875 45.371094 73.882812 45.371094 M 73.203125 44.113281 C 73.246094 43.96875 73.355469 43.835938 73.515625 43.820312 C 73.714844 43.828125 73.808594 44.003906 73.859375 44.121094 L 73.859375 44.144531 C 73.859375 44.1875 73.839844 44.230469 73.800781 44.246094 L 73.800781 44.253906 L 73.789062 44.246094 C 73.773438 44.253906 73.742188 44.253906 73.707031 44.246094 C 73.722656 44.277344 73.730469 44.320312 73.730469 44.363281 C 73.730469 44.355469 73.730469 44.394531 73.707031 44.46875 C 73.691406 44.539062 73.597656 44.652344 73.480469 44.636719 C 73.378906 44.621094 73.296875 44.5625 73.253906 44.496094 C 73.203125 44.429688 73.1875 44.363281 73.1875 44.363281 C 73.171875 44.277344 73.179688 44.1875 73.203125 44.113281 M 73.203125 45.054688 C 73.246094 44.914062 73.355469 44.777344 73.515625 44.761719 C 73.714844 44.769531 73.808594 44.945312 73.859375 45.0625 L 73.859375 45.089844 C 73.859375 45.128906 73.839844 45.171875 73.800781 45.1875 L 73.800781 45.195312 L 73.789062 45.195312 C 73.773438 45.203125 73.742188 45.203125 73.707031 45.1875 C 73.722656 45.222656 73.730469 45.261719 73.730469 45.304688 C 73.730469 45.296875 73.730469 45.347656 73.707031 45.414062 C 73.691406 45.488281 73.597656 45.597656 73.480469 45.578125 C 73.378906 45.5625 73.296875 45.511719 73.253906 45.4375 C 73.203125 45.371094 73.1875 45.304688 73.1875 45.304688 C 73.171875 45.222656 73.179688 45.136719 73.203125 45.054688 M 72.46875 44.410156 C 72.511719 44.269531 72.609375 44.136719 72.777344 44.121094 C 72.972656 44.128906 73.0625 44.304688 73.121094 44.429688 L 73.121094 44.445312 C 73.121094 44.488281 73.097656 44.527344 73.054688 44.546875 L 73.054688 44.554688 C 73.027344 44.5625 73.003906 44.5625 72.972656 44.546875 C 72.980469 44.578125 72.996094 44.621094 72.988281 44.664062 C 72.988281 44.652344 72.996094 44.703125 72.972656 44.769531 C 72.953125 44.847656 72.851562 44.953125 72.746094 44.9375 C 72.644531 44.921875 72.5625 44.871094 72.511719 44.796875 C 72.46875 44.730469 72.453125 44.671875 72.453125 44.671875 C 72.433594 44.578125 72.445312 44.496094 72.46875 44.410156 M 71.816406 44.953125 C 71.859375 44.8125 71.957031 44.679688 72.125 44.664062 C 72.316406 44.671875 72.417969 44.835938 72.46875 44.960938 L 72.46875 44.980469 C 72.46875 45.019531 72.445312 45.070312 72.402344 45.089844 L 72.410156 45.089844 L 72.402344 45.089844 C 72.375 45.097656 72.351562 45.097656 72.316406 45.078125 C 72.335938 45.121094 72.34375 45.164062 72.335938 45.195312 C 72.335938 45.1875 72.34375 45.238281 72.316406 45.3125 C 72.300781 45.378906 72.210938 45.496094 72.09375 45.472656 C 71.992188 45.464844 71.90625 45.40625 71.867188 45.339844 C 71.816406 45.261719 71.800781 45.203125 71.800781 45.203125 C 71.78125 45.121094 71.789062 45.027344 71.816406 44.953125 M 71.824219 45.753906 C 71.800781 45.761719 71.773438 45.761719 71.734375 45.746094 C 71.75 45.78125 71.757812 45.820312 71.757812 45.863281 C 71.757812 45.855469 71.765625 45.90625 71.742188 45.972656 C 71.722656 46.046875 71.625 46.15625 71.515625 46.136719 C 71.414062 46.121094 71.332031 46.070312 71.28125 45.996094 C 71.230469 45.929688 71.222656 45.871094 71.222656 45.871094 C 71.207031 45.78125 71.207031 45.695312 71.238281 45.613281 C 71.28125 45.472656 71.378906 45.339844 71.546875 45.320312 C 71.742188 45.328125 71.832031 45.503906 71.890625 45.628906 L 71.890625 45.648438 C 71.890625 45.6875 71.867188 45.730469 71.824219 45.753906 Z M 72.367188 46.039062 C 72.386719 46.070312 72.394531 46.113281 72.394531 46.15625 C 72.394531 46.148438 72.394531 46.195312 72.367188 46.273438 C 72.351562 46.339844 72.257812 46.445312 72.140625 46.429688 C 72.042969 46.414062 71.957031 46.363281 71.917969 46.289062 C 71.867188 46.222656 71.847656 46.164062 71.847656 46.164062 C 71.832031 46.070312 71.839844 45.988281 71.867188 45.90625 C 71.90625 45.773438 72.015625 45.628906 72.175781 45.613281 C 72.375 45.621094 72.46875 45.796875 72.519531 45.921875 L 72.519531 45.9375 C 72.519531 45.980469 72.503906 46.023438 72.460938 46.046875 L 72.453125 46.046875 C 72.433594 46.054688 72.402344 46.054688 72.367188 46.039062 M 73.070312 46.464844 L 73.0625 46.464844 C 73.039062 46.472656 73.011719 46.472656 72.980469 46.457031 C 72.996094 46.488281 73.003906 46.53125 73.003906 46.570312 C 73.003906 46.5625 73.003906 46.613281 72.980469 46.6875 C 72.960938 46.753906 72.871094 46.863281 72.753906 46.847656 C 72.652344 46.832031 72.578125 46.78125 72.527344 46.707031 C 72.476562 46.640625 72.460938 46.582031 72.460938 46.582031 C 72.445312 46.488281 72.453125 46.40625 72.476562 46.332031 C 72.519531 46.1875 72.628906 46.046875 72.785156 46.03125 C 72.988281 46.046875 73.078125 46.214844 73.128906 46.339844 L 73.128906 46.355469 C 73.128906 46.398438 73.113281 46.445312 73.070312 46.464844 M 73.097656 45.519531 L 73.105469 45.519531 L 73.097656 45.519531 C 73.070312 45.53125 73.046875 45.53125 73.011719 45.511719 C 73.027344 45.546875 73.039062 45.589844 73.027344 45.628906 C 73.027344 45.621094 73.039062 45.671875 73.011719 45.746094 C 72.996094 45.8125 72.902344 45.921875 72.785156 45.90625 C 72.6875 45.886719 72.601562 45.839844 72.5625 45.761719 C 72.511719 45.695312 72.492188 45.636719 72.492188 45.636719 C 72.476562 45.546875 72.484375 45.464844 72.511719 45.386719 C 72.550781 45.246094 72.652344 45.105469 72.820312 45.089844 C 73.019531 45.105469 73.113281 45.269531 73.164062 45.394531 L 73.164062 45.414062 C 73.164062 45.453125 73.136719 45.503906 73.097656 45.519531 M 73.203125 46.003906 C 73.246094 45.863281 73.355469 45.722656 73.515625 45.703125 C 73.714844 45.722656 73.808594 45.886719 73.859375 46.011719 L 73.859375 46.03125 C 73.859375 46.070312 73.839844 46.121094 73.800781 46.136719 L 73.789062 46.136719 C 73.773438 46.148438 73.742188 46.148438 73.707031 46.128906 C 73.722656 46.164062 73.730469 46.207031 73.730469 46.246094 C 73.730469 46.238281 73.730469 46.289062 73.707031 46.363281 C 73.691406 46.429688 73.597656 46.539062 73.480469 46.523438 C 73.378906 46.503906 73.296875 46.457031 73.253906 46.378906 C 73.203125 46.3125 73.1875 46.253906 73.1875 46.253906 C 73.171875 46.164062 73.179688 46.078125 73.203125 46.003906 M 73.800781 47.082031 L 73.789062 47.082031 C 73.773438 47.089844 73.742188 47.089844 73.707031 47.074219 C 73.722656 47.113281 73.730469 47.15625 73.730469 47.1875 C 73.730469 47.179688 73.730469 47.230469 73.707031 47.304688 C 73.691406 47.371094 73.597656 47.488281 73.480469 47.464844 C 73.378906 47.449219 73.296875 47.398438 73.253906 47.324219 C 73.203125 47.253906 73.1875 47.199219 73.1875 47.199219 C 73.171875 47.105469 73.179688 47.023438 73.203125 46.949219 C 73.246094 46.804688 73.355469 46.664062 73.515625 46.648438 C 73.714844 46.664062 73.808594 46.832031 73.859375 46.957031 L 73.859375 46.972656 C 73.859375 47.015625 73.839844 47.0625 73.800781 47.082031 M 74.511719 46.621094 C 74.511719 46.621094 74.460938 46.765625 74.328125 46.824219 C 74.265625 46.847656 74.167969 46.871094 74.082031 46.796875 C 74.015625 46.738281 73.992188 46.640625 74 46.5625 C 74 46.523438 74.007812 46.480469 74.023438 46.457031 C 74 46.472656 73.957031 46.488281 73.917969 46.464844 L 73.917969 46.472656 L 73.917969 46.464844 C 73.890625 46.457031 73.867188 46.429688 73.859375 46.363281 C 73.847656 46.363281 73.847656 46.347656 73.859375 46.339844 C 73.90625 46.222656 74 46.046875 74.191406 46.039062 C 74.359375 46.054688 74.46875 46.1875 74.511719 46.332031 C 74.535156 46.421875 74.535156 46.53125 74.511719 46.621094 M 75.144531 46.246094 C 75.144531 46.246094 75.097656 46.390625 74.960938 46.445312 C 74.902344 46.472656 74.804688 46.496094 74.726562 46.429688 C 74.652344 46.363281 74.628906 46.265625 74.636719 46.1875 C 74.636719 46.148438 74.644531 46.113281 74.660156 46.078125 C 74.636719 46.097656 74.59375 46.113281 74.550781 46.089844 C 74.527344 46.078125 74.5 46.054688 74.492188 45.988281 C 74.492188 45.988281 74.484375 45.972656 74.492188 45.964844 C 74.542969 45.847656 74.636719 45.671875 74.828125 45.664062 C 74.996094 45.679688 75.105469 45.8125 75.144531 45.953125 C 75.171875 46.046875 75.179688 46.15625 75.144531 46.246094 M 75.773438 45.921875 C 75.78125 45.914062 75.730469 46.0625 75.597656 46.121094 C 75.539062 46.148438 75.429688 46.171875 75.355469 46.097656 C 75.28125 46.03125 75.261719 45.9375 75.261719 45.863281 C 75.261719 45.8125 75.28125 45.78125 75.296875 45.753906 C 75.273438 45.761719 75.230469 45.78125 75.1875 45.761719 C 75.164062 45.746094 75.136719 45.722656 75.121094 45.664062 L 75.121094 45.636719 C 75.179688 45.511719 75.273438 45.347656 75.464844 45.339844 C 75.632812 45.347656 75.730469 45.488281 75.773438 45.628906 C 75.808594 45.714844 75.808594 45.820312 75.773438 45.921875 M 89.691406 40.703125 C 89.683594 40.335938 89.652344 39.992188 89.550781 39.660156 C 89.46875 39.332031 89.308594 39.035156 89.082031 38.808594 C 88.980469 38.699219 88.855469 38.617188 88.722656 38.550781 C 88.699219 38.589844 88.671875 38.632812 88.648438 38.675781 C 88.222656 39.425781 88.261719 39.066406 88.414062 38.558594 C 88.398438 38.582031 88.496094 38.289062 88.589844 37.980469 C 88.671875 37.679688 88.730469 37.371094 88.730469 37.371094 C 88.746094 37.296875 88.765625 37.230469 88.78125 37.164062 L 88.796875 37.054688 L 88.796875 37.03125 L 88.816406 36.898438 C 88.832031 36.78125 88.832031 36.664062 88.824219 36.554688 C 88.796875 36.113281 88.539062 35.785156 88.113281 35.628906 C 87.695312 35.46875 87.191406 35.4375 86.707031 35.417969 C 85.734375 35.402344 84.765625 35.613281 83.894531 36.035156 C 83.027344 36.464844 82.246094 37.082031 81.578125 37.796875 C 80.992188 38.441406 80.492188 39.148438 80.046875 39.902344 C 80.070312 40.578125 80.015625 41.246094 79.886719 41.886719 C 79.578125 43.464844 78.976562 44.933594 78.214844 46.3125 C 78.355469 46.226562 78.5 46.128906 78.632812 46.027344 C 78.824219 45.875 79.007812 45.710938 79.195312 45.550781 L 81.152344 43.648438 C 81.425781 43.355469 81.695312 43.0625 81.953125 42.78125 L 82.246094 42.453125 C 82.246094 42.453125 82.757812 41.953125 83.140625 41.621094 C 83.386719 41.402344 83.511719 41.3125 83.5625 41.3125 C 83.636719 41.304688 83.519531 41.535156 83.328125 41.804688 C 83.351562 41.789062 83.160156 42.046875 82.957031 42.296875 L 82.558594 42.8125 L 81.789062 43.65625 C 81.484375 43.980469 81.183594 44.300781 80.875 44.609375 C 80.308594 45.183594 79.722656 45.75 79.085938 46.269531 L 79.246094 46.210938 C 79.46875 46.136719 79.695312 46.019531 79.921875 45.925781 C 80.054688 45.867188 80.179688 45.800781 80.308594 45.734375 C 80.308594 45.734375 80.816406 45.527344 81.4375 45.277344 C 81.730469 45.140625 81.878906 45.101562 81.929688 45.117188 C 82.003906 45.132812 81.8125 45.308594 81.542969 45.507812 C 81.570312 45.492188 81.308594 45.675781 81.035156 45.84375 C 80.757812 46.019531 80.464844 46.183594 80.464844 46.183594 C 80.347656 46.234375 80.238281 46.292969 80.121094 46.34375 C 79.980469 46.402344 79.847656 46.46875 79.710938 46.527344 C 79.847656 46.550781 79.980469 46.570312 80.113281 46.601562 C 80.449219 46.695312 80.785156 46.761719 81.152344 46.902344 C 81.242188 46.9375 81.335938 46.976562 81.425781 47.027344 C 81.476562 47.054688 81.519531 47.078125 81.5625 47.113281 C 81.601562 47.136719 81.6875 47.203125 81.746094 47.261719 C 81.863281 47.378906 81.921875 47.546875 81.90625 47.722656 C 81.90625 47.761719 81.894531 47.8125 81.878906 47.863281 C 82.859375 47.585938 83.796875 47.128906 84.605469 46.511719 C 85.394531 45.917969 86.078125 45.175781 86.632812 44.347656 L 87.023438 43.714844 C 87.117188 43.5 87.234375 43.296875 87.285156 43.0625 L 87.34375 42.871094 C 87.359375 42.820312 87.367188 42.773438 87.375 42.722656 L 87.433594 42.40625 C 87.433594 42.40625 87.453125 42.339844 87.46875 42.238281 C 87.484375 42.128906 87.507812 41.980469 87.542969 41.804688 C 87.601562 41.453125 87.660156 40.996094 87.761719 40.609375 C 87.917969 39.976562 88.070312 39.808594 88.113281 39.894531 C 88.136719 39.933594 88.144531 40.035156 88.152344 40.175781 C 88.144531 40.308594 88.144531 40.484375 88.144531 40.6875 C 88.152344 40.644531 88.144531 41.101562 88.152344 41.585938 C 88.152344 41.828125 88.144531 42.078125 88.136719 42.269531 C 88.136719 42.464844 88.113281 42.597656 88.113281 42.597656 L 88.054688 42.957031 C 88.019531 43.082031 88.003906 43.128906 87.902344 43.457031 C 87.859375 43.589844 87.792969 43.714844 87.734375 43.839844 C 87.675781 43.964844 87.617188 44.097656 87.550781 44.199219 C 87.410156 44.425781 87.285156 44.660156 87.125 44.867188 C 86.613281 45.609375 85.996094 46.277344 85.300781 46.851562 C 86.105469 46.59375 86.925781 46.351562 87.785156 46.21875 C 88.078125 46.167969 88.378906 46.144531 88.679688 46.128906 C 88.707031 46.078125 88.738281 46.035156 88.765625 45.984375 C 89.417969 44.714844 89.660156 43.238281 89.703125 41.796875 C 89.710938 41.429688 89.710938 41.070312 89.691406 40.703125 M 83.433594 44.300781 C 83.410156 44.324219 83.335938 44.398438 83.269531 44.457031 C 83.203125 44.523438 83.132812 44.582031 83.132812 44.582031 C 83.132812 44.582031 83.066406 44.640625 82.992188 44.699219 C 82.925781 44.765625 82.824219 44.816406 82.792969 44.839844 C 82.734375 44.875 82.675781 44.851562 82.589844 44.792969 C 82.597656 44.675781 82.597656 44.617188 82.640625 44.582031 C 82.664062 44.566406 82.742188 44.53125 82.808594 44.464844 C 82.875 44.40625 82.941406 44.359375 82.941406 44.359375 C 82.941406 44.359375 83 44.308594 83.066406 44.25 C 83.125 44.183594 83.203125 44.117188 83.226562 44.089844 C 83.269531 44.050781 83.328125 44.066406 83.433594 44.089844 C 83.46875 44.191406 83.476562 44.257812 83.433594 44.300781 "/>
<path style=" stroke:none;fill-rule:nonzero;fill:rgb(1.568628%,11.764706%,25.882354%);fill-opacity:1;" d="M 75.785156 47.15625 C 75.28125 47.285156 74.234375 47.4375 73.265625 47.558594 C 72.4375 47.449219 70.621094 46.933594 70.652344 46.230469 C 70.734375 45.15625 72.457031 43.269531 73.398438 43.167969 C 74.335938 43.0625 76.164062 45.28125 76.550781 45.921875 C 76.082031 46.703125 76.253906 46.703125 75.785156 47.15625 "/>
<path style=" stroke:none;fill-rule:nonzero;fill:rgb(83.92157%,60.392159%,17.647059%);fill-opacity:1;" d="M 75.515625 47.226562 C 75.0625 47.355469 74.144531 47.507812 73.28125 47.628906 C 72.546875 47.519531 70.960938 47.101562 70.984375 46.398438 C 71.015625 46.285156 72.546875 43.707031 73.386719 43.601562 C 74.222656 43.496094 75.832031 45.863281 76.164062 45.960938 C 75.75 46.742188 75.929688 46.773438 75.515625 47.226562 "/>
</g>
</svg>
