<?xml version="1.0" encoding="UTF-8"?>
<svg xmlns="http://www.w3.org/2000/svg" xmlns:xlink="http://www.w3.org/1999/xlink" width="150px" height="150px" viewBox="0 0 150 102" version="1.1">
<g id="surface1">
<path style=" stroke:none;fill-rule:evenodd;fill:rgb(96.078432%,96.470588%,95.686275%);fill-opacity:1;" d="M 55.707031 12.929688 C 55.554688 12.953125 55.375 13.089844 55.273438 13.261719 C 54.988281 13.742188 55.011719 87.347656 55.296875 87.816406 C 55.578125 88.28125 54.769531 88.261719 76.535156 88.265625 L 96.492188 88.265625 L 96.816406 87.929688 L 97.144531 87.59375 L 97.144531 13.453125 L 96.84375 13.15625 L 96.546875 12.855469 L 76.257812 12.871094 C 65.097656 12.882812 55.851562 12.90625 55.707031 12.929688 M 79.898438 39.03125 C 80.320312 39.128906 80.984375 39.375 81.378906 39.582031 C 81.769531 39.785156 82.296875 40.039062 82.542969 40.144531 C 83.957031 40.75 86.441406 43.960938 87.046875 45.96875 C 87.117188 46.195312 87.28125 46.597656 87.414062 46.863281 C 87.550781 47.132812 87.703125 47.683594 87.753906 48.089844 C 87.804688 48.496094 87.898438 49.074219 87.957031 49.375 C 88.179688 50.535156 88.09375 52.484375 87.808594 52.792969 C 87.550781 53.074219 87.105469 53.003906 86.886719 52.648438 C 86.667969 52.300781 84.566406 51.351562 83.238281 51.003906 C 82.777344 50.882812 82.238281 50.675781 82.039062 50.550781 C 80.613281 49.617188 79.953125 49.800781 80.132812 51.074219 C 80.203125 51.589844 81.164062 52.960938 81.449219 52.960938 C 81.507812 52.960938 81.777344 53.175781 82.042969 53.445312 C 82.96875 54.359375 83.394531 54.714844 83.992188 55.066406 C 84.558594 55.398438 85.101562 56.117188 85.101562 56.53125 C 85.101562 57.292969 80.902344 57.382812 80.660156 56.628906 C 80.472656 56.039062 80.214844 56.878906 80.355469 57.625 C 80.40625 57.90625 80.507812 58.007812 81 58.257812 C 81.570312 58.546875 81.574219 58.554688 81.296875 58.625 C 80.941406 58.714844 80.101562 58.628906 80.011719 58.496094 C 79.882812 58.292969 79.492188 58.253906 79.210938 58.410156 C 77.773438 59.203125 77.253906 59.269531 76.882812 58.703125 C 76.714844 58.445312 76.78125 58.296875 77.414062 57.523438 C 78.230469 56.519531 76.476562 54.675781 75.003906 54.988281 C 74.246094 55.152344 73.597656 55.125 72.960938 54.894531 C 71.957031 54.539062 70.742188 54.511719 70.089844 54.832031 C 68.761719 55.480469 67.800781 55.25 67.382812 54.179688 C 67.015625 53.238281 66.835938 52.910156 66.472656 52.511719 C 65.84375 51.828125 65.78125 51.613281 65.847656 50.421875 C 65.914062 49.28125 65.863281 49.070312 65.445312 48.71875 C 65.226562 48.535156 65.210938 48.46875 65.304688 48.222656 C 65.472656 47.777344 66.714844 47.949219 67.320312 48.5 C 67.449219 48.613281 67.550781 48.65625 67.550781 48.59375 C 67.550781 48.394531 68.785156 47.144531 69.25 46.871094 C 69.722656 46.597656 69.753906 46.5 69.585938 45.894531 C 69.472656 45.484375 69.554688 45.523438 67.917969 45.082031 C 67.175781 44.882812 67.035156 44.632812 66.96875 43.40625 C 66.902344 42.183594 67.019531 42.007812 67.96875 41.902344 C 68.65625 41.824219 68.773438 41.980469 68.773438 42.964844 C 68.773438 43.472656 68.804688 43.570312 68.953125 43.574219 C 69.050781 43.574219 69.226562 43.597656 69.339844 43.628906 C 69.5 43.671875 69.636719 43.554688 69.988281 43.054688 C 70.378906 42.5 70.523438 42.386719 71.210938 42.074219 C 71.640625 41.878906 72.085938 41.632812 72.199219 41.523438 C 72.316406 41.417969 72.726562 41.253906 73.117188 41.164062 C 74.628906 40.816406 74.851562 40.703125 74.804688 40.304688 C 74.71875 39.582031 74.742188 39.46875 75.023438 39.253906 C 75.679688 38.761719 78.242188 38.644531 79.898438 39.03125 M 72.355469 44.617188 C 72.054688 45.40625 72.25 46.558594 72.597656 46.058594 C 72.820312 45.730469 72.867188 45.449219 72.765625 45 C 72.636719 44.421875 72.484375 44.277344 72.355469 44.617188 M 70.96875 47.503906 C 69.289062 49.007812 69.078125 49.3125 69.289062 49.929688 C 69.484375 50.488281 69.800781 50.632812 70.964844 50.683594 C 72.21875 50.742188 72.15625 50.84375 72.023438 48.976562 C 71.875 46.878906 71.792969 46.765625 70.96875 47.503906 M 68.394531 52.359375 C 68.191406 52.5625 68.371094 52.742188 68.945312 52.90625 C 69.488281 53.066406 69.875 52.917969 69.894531 52.542969 C 69.910156 52.292969 68.617188 52.136719 68.394531 52.359375 M 73.285156 52.433594 C 73.179688 52.5 73.1875 52.546875 73.320312 52.65625 C 73.457031 52.769531 73.5 52.769531 73.574219 52.652344 C 73.726562 52.402344 73.546875 52.269531 73.285156 52.433594 M 63.90625 56.136719 C 64.144531 56.257812 64.851562 56.847656 65.476562 57.445312 C 66.101562 58.042969 66.816406 58.664062 67.058594 58.824219 C 67.300781 58.984375 67.613281 59.199219 67.753906 59.300781 C 67.894531 59.40625 68.332031 59.65625 68.722656 59.859375 C 69.117188 60.0625 69.621094 60.359375 69.847656 60.519531 C 70.070312 60.679688 70.667969 60.953125 71.171875 61.128906 C 71.679688 61.304688 72.207031 61.507812 72.347656 61.578125 C 72.980469 61.890625 73.933594 61.988281 76.222656 61.980469 C 78.765625 61.96875 78.75 61.972656 81.121094 61.128906 C 81.769531 60.902344 82.304688 60.714844 82.316406 60.714844 C 82.328125 60.714844 82.492188 60.585938 82.675781 60.425781 C 82.859375 60.269531 83.1875 60.039062 83.402344 59.914062 C 83.988281 59.578125 84.523438 59.128906 85.535156 58.125 C 87.976562 55.703125 89.511719 55.320312 90.578125 56.875 C 91.144531 57.699219 91.082031 58.289062 90.316406 59.390625 C 89.539062 60.503906 87.1875 62.769531 86.378906 63.1875 C 86.207031 63.273438 85.992188 63.433594 85.894531 63.542969 C 85.792969 63.652344 85.472656 63.847656 85.179688 63.980469 C 84.882812 64.117188 84.386719 64.375 84.078125 64.5625 C 83.765625 64.75 83.167969 65.011719 82.75 65.144531 C 82.332031 65.28125 81.714844 65.507812 81.378906 65.648438 C 79.167969 66.574219 73.078125 66.546875 70.714844 65.597656 C 70.292969 65.425781 69.652344 65.195312 69.285156 65.085938 C 68.921875 64.972656 68.457031 64.773438 68.257812 64.644531 C 68.054688 64.515625 67.574219 64.238281 67.1875 64.035156 C 65.582031 63.1875 61.9375 60.070312 61.9375 59.542969 C 61.9375 59.472656 61.816406 59.238281 61.664062 59.019531 C 61.171875 58.304688 61.171875 57.625 61.667969 56.886719 C 62.195312 56.097656 62.257812 56.058594 63.347656 55.933594 C 63.417969 55.925781 63.671875 56.015625 63.90625 56.136719 "/>
<path style=" stroke:none;fill-rule:evenodd;fill:rgb(79.607844%,7.843138%,17.254902%);fill-opacity:1;" d="M 97.617188 13.078125 C 97.535156 13.386719 97.53125 87.527344 97.613281 87.9375 C 97.671875 88.226562 97.691406 88.238281 97.996094 88.152344 C 98.179688 88.101562 106.8125 88.0625 118.425781 88.0625 L 138.535156 88.0625 L 138.757812 87.824219 L 138.980469 87.589844 L 138.980469 50.539062 C 138.980469 15.40625 138.96875 13.480469 138.800781 13.273438 L 138.621094 13.054688 L 118.367188 13.03125 C 107.226562 13.019531 98.015625 12.972656 97.898438 12.925781 C 97.722656 12.855469 97.667969 12.886719 97.617188 13.078125 "/>
<path style=" stroke:none;fill-rule:evenodd;fill:rgb(1.568628%,38.431373%,26.274511%);fill-opacity:1;" d="M 55.203125 11.90625 C 55.121094 11.9375 54.914062 12.023438 54.746094 12.097656 C 53.953125 12.441406 53.453125 12.449219 33.378906 12.449219 L 13.402344 12.449219 L 13.195312 12.679688 C 13.078125 12.804688 12.933594 13.007812 12.871094 13.132812 C 12.632812 13.589844 12.714844 87.582031 12.953125 88.046875 C 13.058594 88.257812 13.214844 88.484375 13.292969 88.550781 C 13.402344 88.640625 18.421875 88.675781 33.785156 88.699219 L 54.132812 88.726562 L 54.71875 88.953125 L 55.300781 89.183594 L 75.992188 89.160156 L 96.683594 89.132812 L 75.96875 89.082031 C 53.09375 89.023438 54.835938 89.078125 54.632812 88.4375 C 54.59375 88.316406 54.453125 88.078125 54.320312 87.910156 L 54.078125 87.601562 L 54.078125 50.515625 C 54.082031 14.296875 54.085938 13.429688 54.273438 13.222656 C 54.378906 13.105469 54.542969 12.863281 54.632812 12.679688 C 55.015625 11.925781 52.960938 11.996094 76.066406 11.9375 L 96.785156 11.886719 L 76.070312 11.871094 C 64.679688 11.859375 55.289062 11.878906 55.203125 11.90625 "/>
<path style=" stroke:none;fill-rule:evenodd;fill:rgb(1.568628%,1.568628%,1.568628%);fill-opacity:1;" d="M 10.058594 6.636719 C 9.707031 6.742188 9.59375 6.894531 9.59375 7.269531 L 9.589844 7.550781 L 8.773438 7.550781 C 8.09375 7.550781 7.925781 7.585938 7.753906 7.753906 C 7.480469 8.03125 7.425781 93.023438 7.703125 93.300781 C 7.796875 93.394531 8.171875 93.476562 8.71875 93.523438 L 9.582031 93.59375 L 9.613281 93.914062 C 9.632812 94.128906 9.722656 94.269531 9.898438 94.359375 C 10.101562 94.460938 23.265625 94.480469 76.1875 94.460938 L 142.222656 94.4375 L 142.617188 94.003906 C 142.984375 93.597656 143.054688 93.5625 143.671875 93.503906 C 144.484375 93.421875 144.488281 93.421875 144.488281 92.320312 L 144.488281 91.429688 L 144.789062 91.429688 C 144.984375 91.429688 145.144531 91.347656 145.25 91.203125 C 145.53125 90.796875 145.488281 10.078125 145.203125 9.796875 C 145.09375 9.683594 144.886719 9.589844 144.746094 9.589844 C 144.492188 9.589844 144.488281 9.578125 144.488281 8.769531 C 144.488281 7.644531 144.425781 7.550781 143.679688 7.550781 C 143.09375 7.550781 142.449219 7.175781 142.449219 6.832031 C 142.449219 6.785156 142.277344 6.695312 142.066406 6.636719 C 141.585938 6.503906 10.503906 6.503906 10.058594 6.636719 M 118.164062 12.015625 C 141.539062 12.101562 139.261719 12.007812 139.734375 12.910156 L 139.949219 13.316406 L 139.949219 87.804688 L 139.726562 88.222656 C 139.28125 89.054688 141.230469 88.980469 118.519531 89.03125 C 107.410156 89.054688 88.640625 89.101562 76.816406 89.132812 L 55.316406 89.1875 L 54.722656 88.957031 L 54.132812 88.726562 L 33.785156 88.699219 C 18.421875 88.675781 13.402344 88.640625 13.292969 88.550781 C 13.214844 88.484375 13.058594 88.257812 12.953125 88.046875 C 12.714844 87.582031 12.632812 13.589844 12.871094 13.132812 C 12.933594 13.007812 13.078125 12.804688 13.195312 12.679688 L 13.402344 12.449219 L 33.378906 12.449219 C 53.453125 12.449219 53.953125 12.441406 54.746094 12.097656 C 54.914062 12.023438 55.121094 11.9375 55.203125 11.90625 C 55.371094 11.84375 86.105469 11.898438 118.164062 12.015625 "/>
<path style=" stroke:none;fill-rule:evenodd;fill:rgb(62.7451%,48.235294%,23.529412%);fill-opacity:1;" d="M 96.800781 12.316406 C 96.664062 12.453125 96.742188 12.988281 96.9375 13.238281 C 97.140625 13.496094 97.144531 13.652344 97.144531 50.558594 L 97.144531 87.621094 L 96.933594 87.8125 C 96.457031 88.242188 96.804688 88.972656 97.285156 88.550781 L 97.554688 88.316406 L 97.578125 50.5625 C 97.601562 12.917969 97.601562 12.804688 97.398438 12.625 C 97.097656 12.359375 96.871094 12.242188 96.800781 12.316406 M 75.890625 38.914062 C 75.566406 38.984375 75.175781 39.140625 75.023438 39.253906 C 74.742188 39.46875 74.71875 39.582031 74.804688 40.304688 C 74.851562 40.703125 74.628906 40.816406 73.117188 41.164062 C 72.726562 41.253906 72.316406 41.417969 72.199219 41.523438 C 72.085938 41.632812 71.640625 41.875 71.21875 42.070312 C 70.113281 42.570312 69.34375 43.589844 69.339844 44.558594 C 69.335938 45.164062 69.460938 45.519531 69.570312 45.203125 C 69.597656 45.121094 69.785156 44.898438 69.984375 44.707031 C 70.375 44.335938 70.296875 44.34375 71.675781 44.582031 C 72.195312 44.675781 72.292969 44.664062 72.402344 44.519531 C 72.515625 44.363281 72.53125 44.367188 72.625 44.546875 C 72.90625 45.089844 72.863281 45.792969 72.527344 46.132812 C 71.78125 46.886719 71.816406 50.089844 72.582031 50.898438 C 72.703125 51.027344 72.902344 51.421875 73.019531 51.765625 C 73.164062 52.199219 73.285156 52.398438 73.398438 52.398438 C 73.492188 52.398438 73.570312 52.433594 73.570312 52.472656 C 73.570312 52.515625 73.570312 52.601562 73.570312 52.664062 C 73.570312 52.726562 73.496094 52.75 73.402344 52.710938 C 73.3125 52.675781 73.160156 52.71875 73.066406 52.804688 C 72.871094 52.976562 71.800781 53.367188 71.511719 53.367188 C 71.40625 53.367188 71.121094 53.164062 70.882812 52.917969 C 70.386719 52.40625 70.292969 52.417969 69.855469 53.050781 L 69.574219 53.453125 L 70.410156 54.5625 L 71.402344 54.628906 C 71.96875 54.664062 72.640625 54.78125 72.960938 54.894531 C 73.597656 55.121094 74.242188 55.152344 75.003906 54.988281 C 76.476562 54.675781 78.230469 56.519531 77.414062 57.523438 C 76.78125 58.296875 76.714844 58.445312 76.882812 58.703125 C 77.253906 59.269531 77.773438 59.203125 79.210938 58.410156 C 79.492188 58.253906 79.882812 58.292969 80.011719 58.496094 C 80.101562 58.628906 80.941406 58.714844 81.296875 58.625 C 81.574219 58.554688 81.570312 58.546875 81 58.257812 C 80.507812 58.007812 80.40625 57.90625 80.355469 57.625 C 80.214844 56.878906 80.472656 56.039062 80.660156 56.628906 C 80.902344 57.382812 85.101562 57.292969 85.101562 56.53125 C 85.101562 56.117188 84.558594 55.398438 83.992188 55.066406 C 83.394531 54.714844 82.96875 54.359375 82.042969 53.445312 C 81.777344 53.175781 81.507812 52.960938 81.449219 52.960938 C 81.164062 52.960938 80.203125 51.589844 80.132812 51.074219 C 79.953125 49.800781 80.613281 49.617188 82.039062 50.550781 C 82.238281 50.675781 82.777344 50.882812 83.238281 51.003906 C 84.566406 51.351562 86.667969 52.300781 86.886719 52.648438 C 87.699219 53.964844 88.417969 51.769531 87.957031 49.375 C 87.898438 49.074219 87.804688 48.496094 87.753906 48.089844 C 87.703125 47.683594 87.550781 47.132812 87.414062 46.863281 C 87.28125 46.597656 87.117188 46.195312 87.046875 45.96875 C 86.441406 43.960938 83.957031 40.75 82.542969 40.144531 C 82.296875 40.039062 81.769531 39.785156 81.378906 39.582031 C 80.070312 38.902344 77.386719 38.574219 75.890625 38.914062 "/>
<path style=" stroke:none;fill-rule:evenodd;fill:rgb(47.843137%,62.7451%,29.019609%);fill-opacity:1;" d="M 55.449219 12.390625 C 54.738281 12.699219 54.796875 9.253906 54.796875 50.566406 C 54.796875 90.585938 54.761719 88.140625 55.304688 88.621094 C 55.53125 88.824219 94.644531 89.019531 96.28125 88.828125 L 96.792969 88.765625 L 96.753906 88.40625 C 96.722656 88.148438 96.679688 88.074219 96.601562 88.15625 C 96.476562 88.277344 57.035156 88.316406 56.035156 88.199219 C 55.566406 88.140625 55.460938 88.085938 55.296875 87.816406 C 55.011719 87.347656 54.988281 13.742188 55.273438 13.261719 C 55.527344 12.832031 54.722656 12.84375 76.597656 12.878906 L 96.71875 12.910156 L 96.796875 12.246094 L 76.28125 12.25 C 59.304688 12.253906 55.710938 12.277344 55.449219 12.390625 M 67.804688 41.914062 C 67.042969 41.988281 66.90625 42.234375 66.96875 43.40625 C 67.035156 44.632812 67.175781 44.882812 67.917969 45.082031 C 69.554688 45.523438 69.472656 45.484375 69.585938 45.894531 C 69.753906 46.5 69.722656 46.597656 69.25 46.871094 C 68.785156 47.144531 67.550781 48.394531 67.550781 48.59375 C 67.550781 48.65625 67.449219 48.613281 67.320312 48.5 C 66.714844 47.949219 65.472656 47.777344 65.304688 48.222656 C 65.210938 48.46875 65.226562 48.535156 65.445312 48.71875 C 65.863281 49.070312 65.914062 49.28125 65.847656 50.421875 C 65.78125 51.613281 65.84375 51.828125 66.472656 52.511719 C 66.835938 52.910156 67.015625 53.238281 67.382812 54.179688 C 67.785156 55.210938 68.691406 55.464844 69.957031 54.902344 C 70.503906 54.664062 70.503906 54.6875 69.992188 54.007812 L 69.574219 53.453125 L 69.855469 53.050781 C 70.292969 52.417969 70.386719 52.40625 70.882812 52.917969 C 71.378906 53.429688 71.476562 53.445312 72.296875 53.164062 C 73.007812 52.917969 73.265625 52.710938 73.210938 52.421875 C 73.105469 51.878906 72.8125 51.148438 72.601562 50.917969 C 72.476562 50.777344 72.324219 50.570312 72.261719 50.460938 C 72.164062 50.285156 72.148438 50.28125 72.144531 50.433594 C 72.140625 50.675781 71.753906 50.75 70.816406 50.6875 C 69.039062 50.566406 68.691406 49.75 69.890625 48.515625 C 71.03125 47.339844 71.515625 46.996094 71.738281 47.199219 C 71.988281 47.421875 72.023438 47.386719 72.242188 46.714844 C 72.402344 46.226562 72.40625 46.140625 72.265625 45.851562 C 72.148438 45.597656 72.136719 45.4375 72.21875 45.117188 C 72.320312 44.71875 72.3125 44.703125 72.054688 44.65625 C 71.90625 44.628906 71.480469 44.550781 71.105469 44.480469 C 70.363281 44.34375 69.808594 44.578125 69.644531 45.101562 C 69.449219 45.707031 69.195312 44.832031 69.359375 44.125 C 69.464844 43.65625 69.40625 43.570312 68.972656 43.570312 C 68.800781 43.570312 68.773438 43.496094 68.773438 42.964844 C 68.773438 42.273438 68.617188 41.828125 68.375 41.855469 C 68.289062 41.863281 68.03125 41.890625 67.804688 41.914062 M 67.84375 42.4375 C 67.953125 42.507812 67.96875 42.664062 67.914062 43.105469 C 67.832031 43.757812 68.011719 44.183594 68.367188 44.183594 C 68.65625 44.183594 68.835938 44.558594 68.582031 44.640625 C 68.398438 44.699219 67.589844 44.5625 67.480469 44.453125 C 67.398438 44.371094 67.3125 42.6875 67.378906 42.507812 C 67.449219 42.328125 67.628906 42.304688 67.84375 42.4375 M 71.054688 45.105469 C 71.652344 45.371094 71.667969 45.402344 71.472656 45.980469 C 71.296875 46.492188 71.199219 46.613281 69.90625 47.886719 C 68.878906 48.902344 68.722656 49.25 68.9375 50.070312 C 69.167969 50.957031 69.441406 51.101562 70.960938 51.117188 C 71.949219 51.125 72.351562 52.058594 71.699219 52.820312 L 71.457031 53.101562 L 71.203125 52.695312 C 70.820312 52.097656 70.691406 52.027344 69.691406 51.878906 C 69.1875 51.800781 68.644531 51.671875 68.480469 51.585938 C 68.1875 51.433594 68.140625 51.34375 67.867188 50.34375 C 67.664062 49.585938 66.832031 49.699219 66.839844 50.484375 C 66.84375 50.925781 67.226562 51.890625 67.410156 51.921875 C 67.707031 51.976562 67.855469 52.242188 67.855469 52.710938 C 67.855469 53.066406 67.621094 53.519531 67.519531 53.355469 C 67.285156 52.980469 67.039062 52.425781 67.039062 52.265625 C 67.039062 52.117188 66.953125 52.039062 66.734375 51.988281 C 66.292969 51.890625 66.238281 51.714844 66.277344 50.40625 C 66.296875 49.761719 66.3125 49.0625 66.320312 48.851562 C 66.328125 48.386719 66.515625 48.351562 66.75 48.765625 C 67.167969 49.503906 67.632812 49.507812 67.933594 48.777344 C 68.117188 48.332031 68.347656 48.0625 68.648438 47.949219 C 68.777344 47.902344 68.921875 47.753906 68.972656 47.617188 C 69.027344 47.476562 69.257812 47.285156 69.535156 47.15625 C 70.0625 46.910156 70.203125 46.65625 70.203125 45.976562 C 70.203125 45.511719 70.375 44.898438 70.507812 44.898438 C 70.550781 44.898438 70.796875 44.992188 71.054688 45.105469 M 69.636719 52.363281 C 69.945312 52.503906 69.949219 52.53125 69.695312 52.835938 C 69.480469 53.09375 68.453125 52.925781 68.332031 52.609375 C 68.203125 52.269531 69.070312 52.105469 69.636719 52.363281 M 69.003906 53.992188 C 69.550781 54.566406 69.542969 54.597656 68.855469 54.8125 C 68.308594 54.980469 67.960938 54.738281 67.960938 54.191406 C 67.960938 53.296875 68.277344 53.238281 69.003906 53.992188 M 62.804688 56.011719 C 61.542969 56.199219 60.894531 57.90625 61.664062 59.019531 C 61.816406 59.238281 61.9375 59.472656 61.9375 59.542969 C 61.9375 60.070312 65.582031 63.1875 67.1875 64.035156 C 67.574219 64.238281 68.054688 64.515625 68.257812 64.644531 C 68.457031 64.773438 68.921875 64.972656 69.285156 65.085938 C 69.652344 65.195312 70.292969 65.425781 70.714844 65.597656 C 73.078125 66.546875 79.167969 66.574219 81.378906 65.648438 C 81.714844 65.507812 82.332031 65.28125 82.75 65.144531 C 83.167969 65.011719 83.765625 64.75 84.078125 64.5625 C 84.386719 64.375 84.882812 64.117188 85.179688 63.980469 C 85.472656 63.847656 85.792969 63.652344 85.894531 63.542969 C 85.992188 63.433594 86.207031 63.273438 86.378906 63.1875 C 88.03125 62.335938 90.917969 59.003906 90.917969 57.949219 C 90.917969 56.445312 89.378906 55.488281 88.066406 56.171875 C 87.347656 56.546875 86.351562 57.3125 85.535156 58.125 C 84.523438 59.128906 83.988281 59.578125 83.402344 59.914062 C 83.1875 60.039062 82.859375 60.269531 82.675781 60.425781 C 82.492188 60.585938 82.328125 60.714844 82.316406 60.714844 C 82.304688 60.714844 81.769531 60.902344 81.121094 61.128906 C 78.75 61.972656 78.765625 61.96875 76.222656 61.980469 C 73.933594 61.988281 72.980469 61.890625 72.347656 61.578125 C 72.207031 61.507812 71.679688 61.304688 71.171875 61.128906 C 70.667969 60.953125 70.070312 60.679688 69.847656 60.519531 C 69.621094 60.359375 69.117188 60.0625 68.722656 59.859375 C 68.332031 59.65625 67.894531 59.40625 67.753906 59.300781 C 67.613281 59.199219 67.300781 58.984375 67.058594 58.824219 C 66.816406 58.664062 66.101562 58.042969 65.476562 57.445312 C 64.417969 56.433594 63.660156 55.898438 63.347656 55.933594 C 63.273438 55.941406 63.03125 55.976562 62.804688 56.011719 "/>
<path style=" stroke:none;fill-rule:evenodd;fill:rgb(18.82353%,51.764709%,39.215687%);fill-opacity:1;" d="M 55.640625 12.136719 C 55.09375 12.226562 54.84375 12.457031 54.648438 13.050781 C 54.386719 13.832031 54.460938 87.746094 54.722656 88.269531 C 55.109375 89.046875 53.082031 88.980469 76.085938 88.976562 C 87.414062 88.976562 96.738281 88.941406 96.800781 88.902344 C 96.867188 88.859375 87.605469 88.828125 76.226562 88.828125 C 52.925781 88.828125 55.28125 88.90625 54.933594 88.089844 C 54.699219 87.539062 54.730469 13.535156 54.964844 12.949219 C 55.269531 12.1875 53.515625 12.246094 76.347656 12.238281 C 87.898438 12.234375 96.796875 12.191406 96.683594 12.144531 C 96.445312 12.039062 56.273438 12.035156 55.640625 12.136719 M 67.378906 42.507812 C 67.3125 42.6875 67.398438 44.371094 67.480469 44.453125 C 67.589844 44.5625 68.398438 44.699219 68.582031 44.640625 C 68.835938 44.558594 68.65625 44.183594 68.367188 44.183594 C 68.011719 44.183594 67.832031 43.757812 67.914062 43.105469 C 67.96875 42.664062 67.953125 42.507812 67.84375 42.4375 C 67.628906 42.304688 67.449219 42.328125 67.378906 42.507812 M 70.316406 45.21875 C 70.253906 45.394531 70.203125 45.738281 70.203125 45.976562 C 70.203125 46.65625 70.0625 46.910156 69.535156 47.15625 C 69.257812 47.285156 69.027344 47.476562 68.972656 47.617188 C 68.921875 47.753906 68.777344 47.902344 68.648438 47.949219 C 68.347656 48.0625 68.117188 48.332031 67.933594 48.777344 C 67.632812 49.507812 67.167969 49.503906 66.75 48.765625 C 66.515625 48.351562 66.328125 48.386719 66.320312 48.851562 C 66.3125 49.0625 66.296875 49.761719 66.277344 50.40625 C 66.238281 51.714844 66.292969 51.890625 66.734375 51.988281 C 66.953125 52.039062 67.039062 52.117188 67.039062 52.265625 C 67.039062 52.425781 67.285156 52.980469 67.519531 53.355469 C 67.621094 53.519531 67.855469 53.066406 67.855469 52.710938 C 67.855469 52.242188 67.707031 51.976562 67.410156 51.921875 C 67.226562 51.890625 66.84375 50.925781 66.839844 50.484375 C 66.832031 49.699219 67.664062 49.585938 67.867188 50.34375 C 68.140625 51.34375 68.1875 51.433594 68.480469 51.585938 C 68.644531 51.671875 69.1875 51.800781 69.691406 51.878906 C 70.691406 52.027344 70.820312 52.097656 71.203125 52.695312 L 71.457031 53.101562 L 71.699219 52.820312 C 72.351562 52.058594 71.949219 51.125 70.960938 51.117188 C 69.441406 51.101562 69.167969 50.957031 68.9375 50.070312 C 68.722656 49.25 68.878906 48.902344 69.90625 47.886719 C 71.199219 46.613281 71.296875 46.492188 71.472656 45.980469 C 71.667969 45.402344 71.652344 45.371094 71.054688 45.105469 C 70.453125 44.839844 70.449219 44.839844 70.316406 45.21875 M 68.632812 48.628906 C 68.597656 48.71875 68.570312 49.226562 68.570312 49.757812 C 68.570312 50.378906 68.535156 50.703125 68.46875 50.664062 C 68.28125 50.546875 68.339844 48.46875 68.53125 48.46875 C 68.640625 48.46875 68.675781 48.523438 68.632812 48.628906 M 71.613281 51.878906 C 71.660156 52.414062 71.550781 52.847656 71.421875 52.648438 C 71.371094 52.566406 71.328125 52.398438 71.328125 52.277344 C 71.324219 51.933594 70.863281 51.632812 70.316406 51.621094 C 70.058594 51.617188 69.730469 51.574219 69.589844 51.527344 C 69.433594 51.476562 69.757812 51.453125 70.460938 51.460938 L 71.582031 51.480469 L 71.613281 51.878906 M 68.019531 53.628906 C 67.722656 54.40625 68.164062 55.023438 68.855469 54.8125 C 69.542969 54.597656 69.550781 54.566406 69.003906 53.992188 C 68.492188 53.464844 68.136719 53.332031 68.019531 53.628906 M 68.675781 54.574219 C 68.398438 54.617188 68.34375 54.566406 68.429688 54.347656 C 68.488281 54.1875 68.507812 54.1875 68.699219 54.359375 C 68.902344 54.539062 68.902344 54.542969 68.675781 54.574219 "/>
<path style=" stroke:none;fill-rule:evenodd;fill:rgb(43.921569%,4.705882%,10.980392%);fill-opacity:1;" d="M 97.0625 12.371094 C 97.917969 13.117188 96.28125 13.066406 118.570312 13.058594 L 138.621094 13.054688 L 138.800781 13.273438 C 138.96875 13.480469 138.980469 15.410156 138.980469 50.554688 L 138.980469 87.617188 L 138.742188 87.839844 L 138.507812 88.0625 L 118.410156 88.0625 C 96.960938 88.0625 97.949219 88.035156 97.160156 88.636719 C 96.558594 89.097656 96.5 89.238281 96.964844 89.128906 C 97.148438 89.085938 106.617188 89.035156 118.011719 89.015625 C 141.289062 88.980469 139.28125 89.050781 139.726562 88.222656 L 139.949219 87.804688 L 139.949219 13.316406 L 139.738281 12.910156 C 139.59375 12.625 139.390625 12.429688 139.078125 12.273438 L 138.621094 12.046875 L 117.621094 12.019531 L 96.621094 11.988281 L 97.0625 12.371094 "/>
<path style=" stroke:none;fill-rule:evenodd;fill:rgb(14.117648%,48.627451%,36.078432%);fill-opacity:1;" d="M 55.308594 12.070312 C 55.097656 12.144531 54.867188 12.335938 54.730469 12.550781 C 54.605469 12.746094 54.40625 13.03125 54.289062 13.179688 L 54.082031 13.453125 L 54.082031 87.601562 L 54.308594 87.90625 C 54.4375 88.078125 54.59375 88.332031 54.65625 88.476562 C 54.941406 89.125 53.378906 89.085938 76.085938 89.054688 L 96.683594 89.03125 L 76.019531 88.980469 C 53.183594 88.921875 55.078125 88.988281 54.71875 88.265625 C 54.550781 87.925781 54.539062 85.898438 54.515625 50.695312 C 54.484375 9.339844 54.429688 12.832031 55.136719 12.304688 L 55.421875 12.09375 L 76.070312 12.09375 C 87.425781 12.09375 96.695312 12.058594 96.667969 12.015625 C 96.582031 11.878906 55.710938 11.933594 55.308594 12.070312 M 68.367188 49.535156 C 68.367188 50.136719 68.410156 50.628906 68.46875 50.664062 C 68.535156 50.703125 68.570312 50.378906 68.570312 49.757812 C 68.570312 49.226562 68.597656 48.71875 68.632812 48.628906 C 68.675781 48.523438 68.640625 48.46875 68.53125 48.46875 C 68.390625 48.46875 68.367188 48.625 68.367188 49.535156 M 69.589844 51.527344 C 69.730469 51.574219 70.058594 51.617188 70.316406 51.621094 C 70.863281 51.632812 71.324219 51.933594 71.328125 52.277344 C 71.328125 52.398438 71.371094 52.566406 71.421875 52.648438 C 71.550781 52.847656 71.660156 52.414062 71.613281 51.878906 L 71.582031 51.480469 L 70.460938 51.460938 C 69.757812 51.453125 69.433594 51.476562 69.589844 51.527344 M 68.429688 54.347656 C 68.34375 54.566406 68.398438 54.617188 68.675781 54.574219 C 68.902344 54.542969 68.902344 54.539062 68.699219 54.359375 C 68.507812 54.1875 68.488281 54.1875 68.429688 54.347656 "/>
</g>
</svg>
