<?xml version="1.0" encoding="UTF-8"?>
<svg xmlns="http://www.w3.org/2000/svg" xmlns:xlink="http://www.w3.org/1999/xlink" width="150px" height="150px" viewBox="0 0 150 100" version="1.1">
<g id="surface1">
<rect x="0" y="0" width="150" height="100" style="fill:rgb(100%,84.313726%,0%);fill-opacity:1;stroke:none;"/>
<path style="fill-rule:nonzero;fill:rgb(0%,0%,0%);fill-opacity:1;stroke-width:17;stroke-linecap:round;stroke-linejoin:miter;stroke:rgb(74.901962%,3.921569%,18.82353%);stroke-opacity:1;stroke-miterlimit:4;" d="M 157.34375 38.28125 L -157.34375 38.28125 M 191.375 12.75 L -191.375 12.75 M 191.375 -12.75 L -191.375 -12.75 M 157.34375 -38.28125 L -157.34375 -38.28125 " transform="matrix(0.125,0,0,0.125,75,50)"/>
<path style="fill-rule:nonzero;fill:rgb(0%,0%,0%);fill-opacity:1;stroke-width:17;stroke-linecap:round;stroke-linejoin:miter;stroke:rgb(74.901962%,3.921569%,18.82353%);stroke-opacity:1;stroke-miterlimit:4;" d="M 157.34375 38.28125 L -157.34375 38.28125 M 191.375 12.75 L -191.375 12.75 M 191.375 -12.75 L -191.375 -12.75 M 157.34375 -38.28125 L -157.34375 -38.28125 " transform="matrix(0.000000000000000008,0.125,-0.125,0.000000000000000008,75,50)"/>
<path style="fill-rule:nonzero;fill:rgb(100%,84.313726%,0%);fill-opacity:1;stroke-width:10.625;stroke-linecap:butt;stroke-linejoin:miter;stroke:rgb(74.901962%,3.921569%,18.82353%);stroke-opacity:1;stroke-miterlimit:4;" d="M 64.3125 0 C 64.3125 -35.53125 35.53125 -64.3125 0 -64.3125 C -35.53125 -64.3125 -64.3125 -35.53125 -64.3125 0 C -64.3125 35.53125 -35.53125 64.3125 0 64.3125 C 35.53125 64.3125 64.3125 35.53125 64.3125 0 Z M 64.3125 0 " transform="matrix(0.125,0,0,0.125,75,50)"/>
</g>
</svg>
