<?xml version="1.0" encoding="UTF-8"?>
<svg xmlns="http://www.w3.org/2000/svg" xmlns:xlink="http://www.w3.org/1999/xlink" width="150px" height="150px" viewBox="0 0 150 75" version="1.1">
<g id="surface1">
<rect x="0" y="0" width="150" height="75" style="fill:rgb(0%,44.313726%,73.725492%);fill-opacity:1;stroke:none;"/>
<path style="fill-rule:nonzero;fill:rgb(100%,100%,100%);fill-opacity:1;stroke-width:1.935;stroke-linecap:butt;stroke-linejoin:miter;stroke:rgb(0%,0%,0%);stroke-opacity:1;stroke-miterlimit:4;" d="M 557.8125 395.546875 C 557.8125 395.546875 575.442708 376.901042 592.395833 380.442708 C 597.5 360.78125 616.640625 359.270833 616.640625 359.270833 C 616.640625 359.270833 614.791667 337.552083 639.375 332.8125 C 640.052083 318.072917 654.973958 305.859375 654.973958 305.859375 C 654.973958 305.859375 651.901042 282.96875 667.5 277.708333 C 658.020833 259.583333 670.729167 246.354167 670.546875 246.015625 C 670.390625 245.677083 654.453125 217.369792 668.697917 209.21875 C 653.59375 196.510417 658.515625 182.109375 658.515625 182.109375 C 658.515625 182.109375 642.083333 177.864583 648.020833 158.203125 C 634.453125 155.807292 631.744792 133.958333 631.744792 133.958333 C 631.744792 133.958333 610.885417 138.177083 608.333333 120.052083 C 594.609375 122.239583 593.072917 108.697917 592.916667 108.697917 C 592.734375 108.697917 565.625 115.989583 560.182292 95.46875 C 549.6875 100.885417 545.104167 91.223958 545.104167 91.223958 C 545.104167 91.223958 530 98.697917 521.015625 84.270833 C 503.046875 95.46875 493.046875 83.776042 493.046875 83.776042 C 493.046875 83.776042 469.479167 99.375 461.692708 87.317708 C 447.786458 101.40625 435.416667 95.286458 435.416667 95.286458 C 435.416667 95.286458 424.895833 113.932292 407.942708 109.192708 C 404.036458 126.484375 384.557292 126.822917 384.557292 126.822917 C 384.557292 126.822917 386.588542 142.083333 363.177083 146.145833 C 360.130208 164.114583 347.942708 167.1875 347.942708 167.1875 C 347.942708 167.1875 349.114583 184.635417 338.098958 190.234375 C 342.005208 200.078125 331.822917 212.109375 331.822917 212.109375 C 331.822917 212.109375 342.682292 225.677083 327.916667 240.9375 C 342.161458 244.661458 331.822917 269.244792 331.822917 269.244792 C 331.822917 269.244792 351.484375 278.046875 339.114583 294.322917 C 353.177083 298.90625 348.776042 310.104167 348.958333 316.71875 C 357.942708 320.78125 365.911458 318.75 362.005208 336.875 C 389.635417 339.947917 376.588542 355.182292 376.588542 355.182292 C 376.588542 355.182292 389.479167 355.703125 384.375 365.885417 C 407.942708 365.364583 411.328125 383.515625 411.328125 383.515625 C 411.328125 383.515625 433.203125 377.734375 436.09375 386.223958 C 438.984375 394.6875 426.588542 451.822917 426.588542 451.822917 C 426.588542 451.822917 408.125 451.822917 394.375 437.083333 C 362.161458 436.223958 369.296875 415.052083 368.776042 415.052083 C 368.28125 415.052083 358.098958 418.932292 352.838542 401.302083 C 331.328125 405.703125 332.005208 387.578125 331.822917 387.395833 C 331.666667 387.239583 322.161458 382.994792 325.729167 374.010417 C 303.515625 376.041667 305.208333 354.348958 305.208333 354.348958 C 300.338542 352.369792 298.541667 347.838542 299.270833 343.333333 C 296.380208 342.317708 276.71875 341.979167 286.901042 316.041667 C 268.072917 304.661458 279.765625 291.614583 279.765625 291.614583 C 279.765625 291.614583 253.828125 278.229167 273.854167 262.786458 C 258.932292 240.755208 275.026042 229.739583 275.026042 229.739583 C 275.026042 229.739583 254.348958 208.723958 275.364583 193.802083 C 271.979167 161.927083 290.963542 154.296875 290.963542 154.296875 C 290.963542 154.296875 280.963542 128.359375 308.098958 117.5 C 309.791667 91.223958 328.776042 90.546875 328.776042 90.546875 C 328.776042 90.546875 329.270833 69.6875 359.114583 71.71875 C 364.895833 53.072917 385.234375 56.796875 385.234375 56.796875 C 385.234375 56.796875 391.510417 34.270833 419.140625 45.104167 C 433.203125 17.65625 454.0625 31.71875 454.0625 31.71875 C 454.0625 31.71875 467.291667 23.072917 473.90625 25.78125 C 482.291667 11.354167 500.15625 25.234375 511.71875 28.020833 C 515.911458 26.380208 530.859375 15.104167 542.395833 29.348958 C 557.65625 19.348958 570.703125 37.317708 570.703125 37.317708 C 570.703125 37.317708 591.71875 26.640625 601.5625 51.041667 C 646.145833 46.979167 639.713542 76.145833 639.713542 76.145833 C 639.713542 76.145833 674.791667 68.177083 667.161458 103.098958 C 699.036458 105.286458 695.807292 126.328125 695.807292 126.328125 C 695.807292 126.328125 715.989583 141.588542 707.1875 155.3125 C 725.15625 156.145833 718.541667 173.4375 718.541667 173.4375 C 718.541667 173.4375 732.265625 178.697917 720.911458 200.078125 C 747.1875 221.09375 725.989583 241.953125 725.833333 241.770833 C 725.651042 241.614583 739.895833 258.723958 727.005208 278.385417 C 730.911458 309.583333 715.15625 317.552083 715.15625 317.552083 C 715.15625 317.552083 719.21875 337.734375 701.588542 343.489583 C 701.25 367.239583 678.854167 370.104167 678.854167 370.104167 C 678.854167 370.104167 684.791667 380.416667 662.578125 391.276042 C 661.71875 407.161458 638.515625 408.4375 638.515625 408.4375 C 638.515625 408.4375 636.302083 437.578125 606.822917 429.791667 C 599.661458 453.177083 565.104167 446.223958 564.427083 445.885417 C 563.75 445.546875 557.8125 395.703125 557.8125 395.546875 Z M 557.8125 395.546875 " transform="matrix(0.15,0,0,0.15,0,0)"/>
<path style="fill:none;stroke-width:1.935;stroke-linecap:butt;stroke-linejoin:miter;stroke:rgb(0%,0%,0%);stroke-opacity:1;stroke-miterlimit:4;" d="M 599.010417 420.078125 C 599.010417 420.078125 596.40625 425.104167 606.848958 429.53125 M 619.947917 408.177083 C 619.947917 408.177083 631.614583 405.364583 639.453125 408.177083 M 654.765625 378.802083 C 654.765625 379.010417 653.151042 384.036458 662.395833 391.276042 M 661.40625 365.729167 C 661.40625 365.729167 668.255208 370.755208 679.713542 370.572917 M 592.369792 380.416667 C 592.369792 380.416667 592.760417 393.697917 585.9375 399.947917 M 615.3125 359.895833 C 615.3125 359.895833 626.588542 362.708333 635.833333 358.072917 M 687.552083 340.364583 C 687.552083 340.364583 689.973958 343.802083 702.447917 343.177083 M 638.854167 332.526042 C 639.270833 332.708333 653.541667 337.34375 662.604167 333.125 M 667.421875 277.760417 C 667.421875 277.760417 668.046875 276.953125 672.473958 292.473958 M 678.489583 234.088542 C 678.489583 234.088542 677.890625 242.34375 671.25 245.963542 M 720.963542 200.286458 C 720.963542 200.286458 711.302083 208.151042 713.125 211.354167 M 672.864583 194.661458 C 672.864583 194.661458 677.890625 203.098958 669.661458 208.932292 M 648.515625 158.4375 C 648.515625 158.4375 657.161458 158.020833 660.989583 165.46875 M 666.640625 103.697917 C 666.640625 103.880208 668.4375 105.494792 665.026042 108.932292 M 604.84375 104.479167 C 604.84375 104.479167 609.479167 111.744792 608.671875 120.598958 M 631.614583 79.947917 C 633.619792 79.739583 640.46875 76.71875 640.46875 76.71875 M 601.822917 51.145833 C 601.614583 51.145833 599.192708 60.208333 603.619792 63.4375 M 590.755208 92.421875 C 590.755208 102.083333 598.385417 99.661458 593.177083 108.90625 M 572.03125 84.375 C 571.848958 84.375 559.973958 93.619792 559.973958 95.234375 M 541.041667 79.322917 C 541.041667 79.322917 546.067708 84.375 544.869792 91.197917 M 499.583333 73.307292 C 499.375 73.697917 495.364583 82.34375 492.526042 83.958333 M 462.96875 73.489583 C 463.151042 73.489583 466.979167 81.536458 461.953125 87.395833 M 397.760417 106.901042 C 397.942708 107.317708 408.020833 108.932292 408.020833 108.932292 M 372.578125 130.260417 C 372.786458 130.052083 384.869792 126.432292 384.869792 126.432292 M 353.072917 145.338542 C 353.463542 145.338542 361.510417 146.770833 363.541667 145.755208 M 347.421875 152.786458 C 347.421875 152.786458 350.052083 154.192708 347.838542 167.682292 M 308.177083 117.369792 L 313.020833 124.609375 M 291.692708 154.609375 C 291.692708 154.401042 296.510417 161.848958 302.942708 163.255208 M 329.713542 192.447917 C 329.921875 192.447917 337.578125 190.833333 338.776042 190.026042 M 326.302083 219.817708 C 326.510417 219.817708 326.09375 214.765625 332.34375 211.354167 M 318.046875 232.291667 C 318.046875 232.5 323.880208 239.739583 327.916667 240.755208 M 314.635417 246.171875 C 315.234375 245.989583 321.484375 240.546875 328.723958 240.9375 M 312.604167 264.895833 C 312.604167 264.895833 312.8125 271.119792 331.328125 269.53125 M 314.427083 286.822917 C 314.427083 286.640625 319.869792 274.348958 330.9375 269.713542 M 329.322917 302.526042 C 329.322917 302.526042 330.9375 297.291667 340.182292 293.671875 M 339.583333 323.255208 C 339.583333 323.255208 346.223958 317.838542 348.645833 317.03125 M 347.838542 339.348958 C 347.838542 339.348958 351.875 343.59375 361.927083 336.328125 M 299.322917 342.786458 C 300.546875 342.578125 315.234375 339.166667 320.260417 346.796875 M 305.182292 354.869792 C 305.182292 354.869792 320.677083 352.838542 322.682292 354.453125 M 360.520833 358.072917 C 360.520833 358.072917 358.489583 362.317708 377.604167 355.260417 M 384.270833 365.729167 C 380.833333 371.5625 385.052083 376.197917 380.625 378.802083 M 326.09375 373.776042 C 326.692708 373.385417 333.151042 371.171875 332.135417 361.901042 M 331.927083 387.65625 C 332.734375 387.447917 343.411458 382.838542 345.625 385.234375 M 352.864583 401.145833 C 352.864583 401.145833 354.270833 391.692708 357.291667 390.677083 M 368.958333 415.442708 C 368.958333 415.442708 377.8125 415.234375 381.640625 412.421875 M 386.067708 383.4375 C 386.276042 383.645833 394.322917 387.864583 411.432292 383.645833 M 392.5 421.875 C 392.5 421.875 394.921875 434.166667 394.713542 436.979167 M 632.213542 133.880208 L 638.854167 133.880208 M 526.354167 75.3125 C 526.354167 75.3125 523.723958 82.96875 520.3125 84.973958 M 454.505208 31.848958 C 454.713542 32.03125 455.3125 38.072917 451.484375 43.307292 M 418.28125 45.520833 C 418.28125 45.729167 419.895833 52.369792 409.21875 54.583333 " transform="matrix(0.15,0,0,0.15,0,0)"/>
<path style="fill-rule:evenodd;fill:rgb(96.862745%,87.450981%,45.09804%);fill-opacity:1;stroke-width:2.419;stroke-linecap:butt;stroke-linejoin:round;stroke:rgb(0%,0%,0%);stroke-opacity:1;stroke-miterlimit:4;" d="M 561.71875 423.671875 C 561.71875 423.671875 662.239583 395.286458 692.604167 271.901042 C 674.973958 398.541667 564.973958 438.697917 564.973958 438.697917 Z M 561.71875 423.671875 " transform="matrix(0.15,0,0,0.15,0,0)"/>
<path style="fill-rule:evenodd;fill:rgb(96.862745%,87.450981%,45.09804%);fill-opacity:1;stroke-width:2.429;stroke-linecap:butt;stroke-linejoin:round;stroke:rgb(0%,0%,0%);stroke-opacity:1;stroke-miterlimit:4;" d="M 429.947917 421.015625 C 429.947917 421.015625 330.338542 392.109375 300.260417 266.510417 C 317.734375 395.416667 426.71875 436.302083 426.71875 436.302083 Z M 429.947917 421.015625 " transform="matrix(0.15,0,0,0.15,0,0)"/>
<path style=" stroke:none;fill-rule:nonzero;fill:rgb(54.901963%,9.411765%,0%);fill-opacity:1;" d="M 85.804688 64.707031 C 86.269531 64.707031 87.421875 63.429688 88.085938 63.28125 C 88.75 63.136719 88.820312 62.472656 88.0625 62.449219 C 87.300781 62.425781 86.636719 63.308594 86.636719 63.308594 C 86.636719 63.308594 85.976562 63.871094 85.289062 63.945312 C 84.601562 64.019531 85.042969 64.878906 85.804688 64.707031 Z M 89.015625 62.351562 C 89.015625 62.351562 88.550781 62.179688 89.753906 61.710938 C 90.957031 61.246094 90.882812 60.707031 91.273438 60.484375 C 91.667969 60.265625 92.5 59.675781 92.671875 60.019531 C 92.84375 60.363281 91.789062 61.050781 91.542969 61.125 C 91.300781 61.199219 90.097656 62.300781 89.753906 62.398438 C 89.410156 62.496094 89.164062 62.449219 89.015625 62.351562 Z M 62.960938 64.324219 C 62.5 64.324219 61.355469 63.027344 60.699219 62.878906 C 60.042969 62.726562 59.972656 62.054688 60.726562 62.027344 C 61.476562 62.003906 62.132812 62.902344 62.132812 62.902344 C 62.132812 62.902344 62.789062 63.476562 63.472656 63.550781 C 64.152344 63.625 63.714844 64.5 62.960938 64.324219 Z M 59.777344 61.929688 C 59.777344 61.929688 60.238281 61.753906 59.046875 61.28125 C 57.855469 60.804688 57.929688 60.253906 57.539062 60.03125 C 57.152344 59.804688 56.324219 59.207031 56.15625 59.554688 C 55.984375 59.90625 57.03125 60.605469 57.273438 60.679688 C 57.515625 60.753906 58.707031 61.878906 59.046875 61.980469 C 59.386719 62.078125 59.628906 62.027344 59.777344 61.929688 Z M 59.777344 61.929688 "/>
<path style="fill-rule:nonzero;fill:rgb(54.901963%,9.411765%,0%);fill-opacity:1;stroke-width:2.419;stroke-linecap:butt;stroke-linejoin:miter;stroke:rgb(54.901963%,9.411765%,0%);stroke-opacity:1;stroke-miterlimit:4;" d="M 629.921875 388.177083 C 629.921875 388.177083 619.453125 394.244792 620.9375 395.703125 C 622.395833 397.1875 631.71875 390 631.875 389.817708 C 632.057292 389.661458 635.807292 385.078125 629.921875 388.177083 Z M 629.921875 388.177083 " transform="matrix(0.15,0,0,0.15,0,0)"/>
<path style="fill-rule:nonzero;fill:rgb(54.901963%,9.411765%,0%);fill-opacity:1;stroke-width:2.429;stroke-linecap:butt;stroke-linejoin:miter;stroke:rgb(54.901963%,9.411765%,0%);stroke-opacity:1;stroke-miterlimit:4;" d="M 362.369792 384.895833 C 362.369792 384.895833 372.734375 391.041667 371.276042 392.552083 C 369.817708 394.036458 360.598958 386.71875 360.416667 386.5625 C 360.260417 386.380208 356.536458 381.71875 362.369792 384.895833 Z M 362.369792 384.895833 " transform="matrix(0.15,0,0,0.15,0,0)"/>
<path style="fill:none;stroke-width:3.144;stroke-linecap:round;stroke-linejoin:miter;stroke:rgb(54.901963%,9.411765%,0%);stroke-opacity:1;stroke-miterlimit:4;" d="M 645.46875 372.8125 C 638.59375 380.494792 638.59375 380.338542 638.59375 380.338542 " transform="matrix(0.15,0,0,0.15,0,0)"/>
<path style="fill:none;stroke-width:2.902;stroke-linecap:round;stroke-linejoin:miter;stroke:rgb(54.901963%,9.411765%,0%);stroke-opacity:1;stroke-miterlimit:4;" d="M 655.755208 360.234375 L 649.21875 368.255208 " transform="matrix(0.15,0,0,0.15,0,0)"/>
<path style="fill:none;stroke-width:2.66;stroke-linecap:round;stroke-linejoin:miter;stroke:rgb(54.901963%,9.411765%,0%);stroke-opacity:1;stroke-miterlimit:4;" d="M 666.067708 343.880208 L 658.697917 355.651042 " transform="matrix(0.15,0,0,0.15,0,0)"/>
<path style="fill:none;stroke-width:2.419;stroke-linecap:round;stroke-linejoin:miter;stroke:rgb(54.901963%,9.411765%,0%);stroke-opacity:1;stroke-miterlimit:4;" d="M 674.739583 327.1875 L 668.697917 339.296875 M 678.671875 318.359375 L 676.692708 322.604167 " transform="matrix(0.15,0,0,0.15,0,0)"/>
<path style="fill:none;stroke-width:1.451;stroke-linecap:round;stroke-linejoin:miter;stroke:rgb(54.901963%,9.411765%,0%);stroke-opacity:1;stroke-miterlimit:4;" d="M 683.072917 306.744792 L 681.432292 311.822917 " transform="matrix(0.15,0,0,0.15,0,0)"/>
<path style="fill:none;stroke-width:3.158;stroke-linecap:round;stroke-linejoin:miter;stroke:rgb(54.901963%,9.411765%,0%);stroke-opacity:1;stroke-miterlimit:4;" d="M 346.979167 369.244792 C 353.776042 377.057292 353.776042 376.901042 353.776042 376.901042 " transform="matrix(0.15,0,0,0.15,0,0)"/>
<path style="fill:none;stroke-width:2.915;stroke-linecap:round;stroke-linejoin:miter;stroke:rgb(54.901963%,9.411765%,0%);stroke-opacity:1;stroke-miterlimit:4;" d="M 336.770833 356.432292 L 343.255208 364.583333 " transform="matrix(0.15,0,0,0.15,0,0)"/>
<path style="fill:none;stroke-width:2.672;stroke-linecap:round;stroke-linejoin:miter;stroke:rgb(54.901963%,9.411765%,0%);stroke-opacity:1;stroke-miterlimit:4;" d="M 326.5625 339.765625 L 333.854167 351.744792 " transform="matrix(0.15,0,0,0.15,0,0)"/>
<path style="fill:none;stroke-width:2.429;stroke-linecap:round;stroke-linejoin:miter;stroke:rgb(54.901963%,9.411765%,0%);stroke-opacity:1;stroke-miterlimit:4;" d="M 317.96875 322.786458 L 323.958333 335.104167 M 314.088542 313.802083 L 316.015625 318.125 " transform="matrix(0.15,0,0,0.15,0,0)"/>
<path style="fill:none;stroke-width:1.457;stroke-linecap:round;stroke-linejoin:miter;stroke:rgb(54.901963%,9.411765%,0%);stroke-opacity:1;stroke-miterlimit:4;" d="M 309.713542 301.979167 L 311.328125 307.135417 " transform="matrix(0.15,0,0,0.15,0,0)"/>
<path style="fill-rule:nonzero;fill:rgb(12.941177%,47.450981%,0%);fill-opacity:1;stroke-width:1.935;stroke-linecap:butt;stroke-linejoin:round;stroke:rgb(0%,0%,0%);stroke-opacity:1;stroke-miterlimit:4;" d="M 343.567708 115.729167 C 343.645833 115.729167 351.041667 122.161458 349.661458 131.822917 C 348.28125 141.458333 342.708333 154.895833 343.828125 164.895833 C 344.505208 168.90625 344.244792 176.09375 344.244792 176.09375 C 344.244792 176.09375 337.552083 166.588542 337.447917 156.40625 C 337.369792 146.223958 344.713542 136.5625 344.713542 129.0625 C 344.713542 121.5625 343.385417 115.572917 343.567708 115.729167 Z M 339.895833 118.619792 C 339.895833 118.619792 330.208333 127.890625 328.958333 136.875 C 328.020833 141.510417 327.682292 163.125 327.552083 172.708333 C 327.34375 175.651042 326.119792 187.265625 325.859375 191.510417 C 325.598958 195.729167 332.994792 184.296875 333.411458 174.973958 C 333.203125 165.338542 333.203125 145.026042 334.166667 141.953125 C 335.052083 138.046875 334.84375 133.697917 336.197917 129.765625 C 337.994792 124.322917 339.973958 118.697917 339.895833 118.619792 Z M 339.895833 118.619792 " transform="matrix(0.15,0,0,0.15,0,0)"/>
<path style="fill:none;stroke-width:1.935;stroke-linecap:butt;stroke-linejoin:round;stroke:rgb(41.960785%,9.411765%,70.980394%);stroke-opacity:1;stroke-miterlimit:4;" d="M 276.40625 180.3125 C 276.40625 180.3125 282.994792 189.401042 284.166667 194.635417 C 285.338542 199.869792 287.526042 210.15625 290.390625 214.348958 C 293.255208 218.567708 309.609375 242.005208 310.46875 251.770833 C 310.625 258.177083 303.723958 269.140625 293.4375 269.322917 C 287.03125 269.140625 270.520833 264.921875 269.84375 250.78125 C 269.166667 236.614583 274.895833 236.276042 275.572917 227.682292 C 276.25 219.088542 276.40625 180.46875 276.40625 180.3125 Z M 276.40625 180.3125 " transform="matrix(0.15,0,0,0.15,0,0)"/>
<path style="fill:none;stroke-width:1;stroke-linecap:butt;stroke-linejoin:round;stroke:rgb(41.960785%,9.411765%,70.980394%);stroke-opacity:1;stroke-miterlimit:4;" d="M 389.348958 56.354167 C 389.348958 56.354167 382.552083 56.848958 377.291667 59.6875 C 373.255208 62.1875 366.354167 65.78125 361.5625 72.447917 C 349.348958 81.979167 330.9375 86.432292 325.15625 94.348958 C 321.666667 99.739583 321.901042 112.682292 330.598958 118.177083 C 336.145833 121.354167 352.447917 126.328125 360.390625 114.583333 C 368.307292 102.838542 363.59375 99.583333 367.473958 91.875 C 373.90625 74.244792 389.270833 56.510417 389.348958 56.354167 Z M 554.427083 39.166667 C 554.427083 39.166667 549.348958 34.609375 543.671875 32.838542 C 539.036458 31.640625 531.354167 32.161458 523.385417 31.380208 C 508.046875 29.21875 492.213542 18.125 482.5 19.479167 C 476.197917 20.729167 467.057292 29.895833 469.166667 39.947917 C 470.729167 46.171875 477.682292 58.723958 491.640625 56.25 C 505.598958 53.776042 505.46875 50.729167 513.723958 48.177083 C 533.802083 36.901042 554.270833 39.192708 554.427083 39.166667 Z M 718.177083 198.307292 C 719.322917 195.677083 717.213542 190.755208 715.703125 185 C 714.270833 180.442708 712.083333 173.385417 706.770833 167.135417 C 700.46875 152.96875 701.536458 133.567708 695.260417 126.041667 C 690.859375 121.380208 678.229167 118.463542 670.807292 125.598958 C 666.380208 130.234375 657.630208 144.869792 667.135417 155.390625 C 676.640625 165.911458 680.78125 161.927083 687.317708 167.552083 C 702.890625 178.020833 710.520833 196.380208 718.177083 198.307292 Z M 712.578125 321.927083 C 714.713542 318.984375 718.515625 313.307292 718.072917 308.59375 C 717.708333 304.84375 719.791667 293.489583 720.026042 288.541667 C 721.432292 273.098958 731.09375 260.572917 728.463542 247.161458 C 726.901042 240.9375 717.8125 232.083333 707.838542 234.661458 C 701.71875 236.536458 688.098958 244.0625 691.223958 257.864583 C 694.375 271.692708 698.854167 271.458333 701.796875 279.557292 C 710.286458 296.328125 704.84375 316.223958 712.578125 321.927083 Z M 712.578125 321.927083 " transform="matrix(0.15,0,0,0.15,0,0)"/>
<path style=" stroke:none;fill-rule:nonzero;fill:rgb(41.960785%,9.411765%,70.980394%);fill-opacity:1;" d="M 73.769531 4.042969 C 73.769531 3.71875 73.402344 3.453125 72.949219 3.453125 C 72.496094 3.453125 72.128906 3.71875 72.128906 4.042969 C 72.128906 4.371094 72.496094 4.636719 72.949219 4.636719 C 73.402344 4.636719 73.769531 4.371094 73.769531 4.042969 Z M 74.121094 5.421875 C 74.121094 5.105469 73.742188 4.851562 73.277344 4.851562 C 72.808594 4.851562 72.429688 5.105469 72.429688 5.421875 C 72.429688 5.734375 72.808594 5.988281 73.277344 5.988281 C 73.742188 5.988281 74.121094 5.734375 74.121094 5.421875 Z M 75.171875 3.789062 C 75.171875 3.789062 74.207031 4.515625 74.605469 4.804688 C 75.003906 5.09375 76.101562 4.175781 76.101562 4.175781 Z M 103.546875 20.371094 C 103.546875 20.164062 103.449219 19.972656 103.292969 19.871094 C 103.140625 19.769531 102.941406 19.769531 102.785156 19.871094 C 102.628906 19.972656 102.53125 20.164062 102.535156 20.371094 C 102.53125 20.574219 102.628906 20.765625 102.785156 20.871094 C 102.941406 20.972656 103.136719 20.972656 103.292969 20.871094 C 103.449219 20.765625 103.546875 20.574219 103.546875 20.371094 Z M 103.179688 18.988281 C 103.179688 18.644531 102.941406 18.367188 102.648438 18.367188 C 102.355469 18.367188 102.121094 18.644531 102.121094 18.988281 C 102.121094 19.332031 102.355469 19.609375 102.648438 19.609375 C 102.941406 19.609375 103.179688 19.332031 103.179688 18.988281 Z M 103.433594 21.796875 C 103.433594 21.621094 103.339844 21.476562 103.226562 21.476562 C 103.109375 21.476562 103.019531 21.621094 103.019531 21.796875 C 103.019531 21.976562 103.109375 22.121094 103.226562 22.121094 C 103.339844 22.121094 103.433594 21.976562 103.433594 21.796875 Z M 104.285156 19.289062 C 104.285156 19.085938 104.191406 18.921875 104.078125 18.921875 C 103.964844 18.921875 103.871094 19.085938 103.871094 19.289062 C 103.871094 19.492188 103.964844 19.65625 104.078125 19.65625 C 104.191406 19.65625 104.285156 19.492188 104.285156 19.289062 Z M 101.957031 19.542969 C 101.957031 19.375 101.867188 19.242188 101.75 19.242188 C 101.636719 19.242188 101.542969 19.375 101.542969 19.542969 C 101.542969 19.707031 101.636719 19.839844 101.75 19.839844 C 101.867188 19.839844 101.957031 19.707031 101.957031 19.542969 Z M 102.328125 21.523438 C 102.328125 21.253906 102.132812 21.039062 101.890625 21.039062 C 101.648438 21.039062 101.453125 21.253906 101.453125 21.523438 C 101.453125 21.789062 101.648438 22.003906 101.890625 22.003906 C 102.132812 22.003906 102.328125 21.789062 102.328125 21.523438 Z M 101.175781 20.644531 C 101.175781 20.417969 101.011719 20.230469 100.804688 20.230469 C 100.601562 20.230469 100.4375 20.417969 100.4375 20.644531 C 100.4375 20.875 100.601562 21.058594 100.804688 21.058594 C 101.011719 21.058594 101.175781 20.875 101.175781 20.644531 Z M 100.992188 19.472656 C 100.992188 19.347656 100.929688 19.234375 100.832031 19.171875 C 100.730469 19.113281 100.605469 19.113281 100.507812 19.171875 C 100.410156 19.234375 100.347656 19.347656 100.347656 19.472656 C 100.347656 19.597656 100.410156 19.710938 100.507812 19.773438 C 100.605469 19.835938 100.730469 19.835938 100.832031 19.773438 C 100.929688 19.710938 100.992188 19.597656 100.992188 19.472656 Z M 106.242188 25.441406 C 105.765625 24.816406 105.003906 24.550781 104.539062 24.851562 C 104.078125 25.152344 104.085938 25.90625 104.5625 26.535156 C 105.035156 27.164062 105.796875 27.425781 106.261719 27.125 C 106.726562 26.824219 106.714844 26.070312 106.242188 25.441406 Z M 107.59375 37.023438 C 107.683594 36.25 107.308594 35.574219 106.753906 35.507812 C 106.199219 35.441406 105.671875 36.011719 105.582031 36.78125 C 105.488281 37.550781 105.863281 38.230469 106.417969 38.296875 C 106.976562 38.363281 107.5 37.792969 107.59375 37.023438 Z M 107.878906 43.761719 C 108.035156 43.003906 107.71875 42.296875 107.171875 42.179688 C 106.625 42.066406 106.050781 42.589844 105.894531 43.347656 C 105.734375 44.109375 106.050781 44.816406 106.597656 44.929688 C 107.144531 45.042969 107.71875 44.523438 107.878906 43.761719 Z M 109.175781 37.453125 C 109.175781 37.148438 108.96875 36.902344 108.714844 36.902344 C 108.460938 36.902344 108.253906 37.148438 108.253906 37.453125 C 108.253906 37.757812 108.460938 38.007812 108.714844 38.007812 C 108.96875 38.007812 109.175781 37.757812 109.175781 37.453125 Z M 108.046875 38.71875 L 107.105469 39.789062 C 107.105469 39.789062 106.21875 39.8125 106.261719 40.101562 C 106.308594 40.390625 107.484375 41.253906 107.472656 41.597656 C 107.460938 41.941406 108.253906 41.515625 108.253906 41.515625 C 108.253906 41.515625 108.886719 39.59375 108.886719 39.582031 C 108.886719 39.570312 108.855469 38.246094 108.507812 38.269531 C 108.164062 38.292969 108.070312 38.695312 108.046875 38.71875 Z M 45.957031 38.296875 C 45.957031 38.046875 45.757812 37.847656 45.507812 37.847656 C 45.257812 37.847656 45.058594 38.046875 45.058594 38.296875 C 45.058594 38.542969 45.257812 38.746094 45.507812 38.746094 C 45.757812 38.746094 45.957031 38.542969 45.957031 38.296875 Z M 46.382812 36.925781 C 46.382812 36.660156 46.179688 36.449219 45.933594 36.449219 C 45.683594 36.449219 45.484375 36.660156 45.484375 36.925781 C 45.484375 37.1875 45.683594 37.398438 45.933594 37.398438 C 46.179688 37.398438 46.382812 37.1875 46.382812 36.925781 Z M 42.691406 30.394531 C 42.523438 30.015625 42.171875 29.804688 41.90625 29.925781 C 41.644531 30.042969 41.566406 30.445312 41.734375 30.820312 C 41.902344 31.199219 42.253906 31.410156 42.519531 31.292969 C 42.78125 31.175781 42.859375 30.773438 42.691406 30.394531 Z M 43.804688 34.460938 C 43.574219 33.972656 43.09375 33.699219 42.730469 33.851562 C 42.367188 34.007812 42.257812 34.527344 42.492188 35.015625 C 42.722656 35.503906 43.203125 35.777344 43.566406 35.625 C 43.929688 35.472656 44.039062 34.953125 43.804688 34.460938 Z M 45 37.445312 C 45.074219 36.832031 44.820312 36.273438 44.433594 36.191406 C 44.046875 36.109375 43.671875 36.539062 43.59375 37.148438 C 43.519531 37.761719 43.773438 38.324219 44.160156 38.402344 C 44.546875 38.484375 44.921875 38.054688 45 37.445312 Z M 43.085938 37.882812 C 43.324219 37.3125 43.234375 36.703125 42.882812 36.519531 C 42.535156 36.335938 42.054688 36.644531 41.816406 37.214844 C 41.574219 37.78125 41.664062 38.390625 42.015625 38.574219 C 42.367188 38.757812 42.84375 38.449219 43.085938 37.882812 Z M 43.085938 37.882812 "/>
<path style=" stroke:none;fill-rule:nonzero;fill:rgb(41.960785%,9.411765%,70.980394%);fill-opacity:1;" d="M 42.214844 36.597656 C 42.214844 36.308594 41.988281 36.074219 41.714844 36.074219 C 41.4375 36.074219 41.214844 36.308594 41.214844 36.597656 C 41.214844 36.886719 41.4375 37.121094 41.714844 37.121094 C 41.988281 37.121094 42.214844 36.886719 42.214844 36.597656 Z M 41.8125 35.300781 C 41.8125 35.039062 41.613281 34.828125 41.363281 34.828125 C 41.117188 34.828125 40.914062 35.039062 40.914062 35.300781 C 40.914062 35.5625 41.117188 35.773438 41.363281 35.773438 C 41.613281 35.773438 41.8125 35.5625 41.8125 35.300781 Z M 42.238281 32.804688 C 42.238281 32.363281 42.042969 32.007812 41.800781 32.007812 C 41.558594 32.007812 41.363281 32.363281 41.363281 32.804688 C 41.363281 33.246094 41.558594 33.605469 41.800781 33.605469 C 42.042969 33.605469 42.238281 33.246094 42.238281 32.804688 Z M 43.582031 32.613281 C 43.640625 32.175781 43.492188 31.796875 43.253906 31.765625 C 43.015625 31.730469 42.773438 32.0625 42.714844 32.496094 C 42.65625 32.933594 42.804688 33.316406 43.042969 33.347656 C 43.28125 33.378906 43.523438 33.050781 43.582031 32.613281 Z M 53.160156 13.507812 C 53.335938 12.886719 53.152344 12.265625 52.75 12.117188 C 52.34375 11.96875 51.871094 12.347656 51.695312 12.96875 C 51.515625 13.589844 51.699219 14.210938 52.105469 14.359375 C 52.507812 14.507812 52.980469 14.125 53.160156 13.507812 Z M 51.339844 16.261719 C 51.875 15.808594 52.101562 15.179688 51.847656 14.859375 C 51.597656 14.539062 50.960938 14.648438 50.425781 15.101562 C 49.894531 15.558594 49.664062 16.183594 49.917969 16.503906 C 50.167969 16.824219 50.808594 16.71875 51.339844 16.261719 Z M 50.277344 14.734375 C 50.804688 14.34375 51.03125 13.804688 50.78125 13.527344 C 50.53125 13.253906 49.902344 13.347656 49.375 13.738281 C 48.847656 14.125 48.621094 14.664062 48.871094 14.941406 C 49.121094 15.214844 49.75 15.121094 50.277344 14.734375 Z M 54.367188 12.042969 C 54.726562 11.769531 54.875 11.394531 54.707031 11.203125 C 54.539062 11.011719 54.117188 11.074219 53.757812 11.347656 C 53.402344 11.621094 53.25 11.996094 53.421875 12.1875 C 53.589844 12.378906 54.011719 12.3125 54.367188 12.042969 Z M 54.367188 12.042969 "/>
<path style=" stroke:none;fill-rule:nonzero;fill:rgb(41.960785%,9.411765%,70.980394%);fill-opacity:1;" d="M 52.238281 14.648438 C 52.480469 14.273438 52.496094 13.867188 52.273438 13.742188 C 52.050781 13.621094 51.671875 13.824219 51.429688 14.199219 C 51.1875 14.574219 51.171875 14.980469 51.394531 15.105469 C 51.617188 15.230469 51.996094 15.023438 52.238281 14.648438 Z M 55.3125 13.039062 C 55.695312 12.714844 55.84375 12.289062 55.648438 12.085938 C 55.449219 11.878906 54.976562 11.976562 54.59375 12.296875 C 54.210938 12.621094 54.0625 13.046875 54.261719 13.25 C 54.460938 13.457031 54.929688 13.359375 55.3125 13.039062 Z M 49.753906 16.796875 C 50.109375 16.777344 50.382812 16.597656 50.355469 16.398438 C 50.332031 16.195312 50.023438 16.046875 49.664062 16.0625 C 49.308594 16.082031 49.035156 16.261719 49.0625 16.460938 C 49.085938 16.664062 49.394531 16.8125 49.753906 16.796875 Z M 56.484375 11.039062 C 56.730469 10.664062 56.746094 10.257812 56.523438 10.136719 C 56.300781 10.011719 55.921875 10.214844 55.675781 10.59375 C 55.433594 10.96875 55.417969 11.375 55.640625 11.496094 C 55.863281 11.621094 56.242188 11.417969 56.484375 11.039062 Z M 56.484375 11.039062 "/>
<path style="fill-rule:nonzero;fill:rgb(100%,82.352942%,0%);fill-opacity:1;stroke-width:1.935;stroke-linecap:butt;stroke-linejoin:miter;stroke:rgb(93.725491%,54.11765%,6.27451%);stroke-opacity:1;stroke-miterlimit:4;" d="M 553.229167 88.385417 C 553.229167 88.385417 565.807292 82.578125 569.401042 71.770833 C 572.994792 60.963542 558.515625 60.859375 556.614583 64.296875 C 554.713542 67.734375 558.255208 76.276042 557.34375 78.541667 C 556.432292 80.807292 551.302083 86.25 553.229167 88.385417 Z M 553.229167 88.385417 " transform="matrix(0.15,0,0,0.15,0,0)"/>
<path style="fill-rule:nonzero;fill:rgb(100%,82.352942%,0%);fill-opacity:1;stroke-width:2.419;stroke-linecap:butt;stroke-linejoin:miter;stroke:rgb(93.725491%,54.11765%,6.27451%);stroke-opacity:1;stroke-miterlimit:4;" d="M 441.796875 92.317708 C 441.796875 92.317708 449.973958 81.119792 447.838542 69.947917 C 445.729167 58.75 433.020833 65.703125 433.020833 69.635417 C 433.020833 73.567708 440.286458 79.322917 440.598958 81.744792 C 440.885417 84.140625 439.088542 91.40625 441.796875 92.317708 Z M 419.739583 98.958333 C 419.739583 98.958333 427.890625 87.786458 425.78125 76.588542 C 423.671875 65.416667 410.963542 72.369792 410.963542 76.302083 C 410.963542 80.234375 418.229167 85.963542 418.515625 88.385417 C 418.828125 90.807292 417.005208 98.072917 419.739583 98.958333 Z M 395.234375 106.536458 C 395.234375 106.536458 403.411458 95.338542 401.276042 84.166667 C 399.166667 72.96875 386.484375 79.921875 386.484375 83.854167 C 386.484375 87.786458 393.723958 93.541667 394.036458 95.9375 C 394.322917 98.359375 392.526042 105.625 395.234375 106.536458 Z M 378.020833 123.75 C 378.020833 123.75 386.171875 112.578125 384.0625 101.380208 C 381.927083 90.208333 369.244792 97.161458 369.244792 101.09375 C 369.244792 105.026042 376.510417 110.755208 376.796875 113.177083 C 377.109375 115.598958 375.286458 122.864583 378.020833 123.75 Z M 359.869792 140.390625 C 359.869792 140.390625 368.020833 129.192708 365.911458 118.020833 C 363.802083 106.822917 351.09375 113.776042 351.09375 117.708333 C 351.09375 121.640625 358.359375 127.395833 358.671875 129.817708 C 358.958333 132.239583 357.161458 139.479167 359.869792 140.390625 Z M 359.869792 140.390625 " transform="matrix(0.15,0,0,0.15,0,0)"/>
<path style="fill-rule:nonzero;fill:rgb(100%,82.352942%,0%);fill-opacity:1;stroke-width:1.935;stroke-linecap:butt;stroke-linejoin:miter;stroke:rgb(93.725491%,54.11765%,6.27451%);stroke-opacity:1;stroke-miterlimit:4;" d="M 401.5625 43.515625 C 401.5625 43.515625 390.703125 52.109375 389.739583 63.4375 C 388.75 74.791667 402.864583 71.510417 403.90625 67.708333 C 404.973958 63.932292 399.53125 56.458333 399.895833 54.036458 C 400.260417 51.614583 403.958333 45.130208 401.5625 43.515625 Z M 437.838542 32.34375 C 437.838542 32.34375 426.979167 40.911458 426.015625 52.265625 C 425.052083 63.59375 439.140625 60.3125 440.208333 56.536458 C 441.25 52.734375 435.807292 45.260417 436.171875 42.838542 C 436.536458 40.442708 440.234375 33.932292 437.838542 32.34375 Z M 302.65625 130.260417 C 302.65625 130.260417 304.947917 143.932292 314.427083 150.234375 C 323.90625 156.536458 327.8125 142.604167 325 139.84375 C 322.1875 137.109375 313.020833 138.28125 311.067708 136.796875 C 309.140625 135.338542 305.208333 128.958333 302.65625 130.260417 Z M 284.53125 176.640625 C 284.53125 176.640625 284.661458 190.494792 293.020833 198.203125 C 301.380208 205.9375 307.447917 192.786458 305.104167 189.609375 C 302.760417 186.458333 293.515625 186.171875 291.822917 184.427083 C 290.130208 182.65625 287.265625 175.755208 284.53125 176.640625 Z M 326.328125 228.4375 C 326.328125 228.4375 321.40625 215.494792 310.859375 211.197917 C 300.3125 206.875 299.244792 221.328125 302.552083 223.463542 C 305.833333 225.598958 314.609375 222.630208 316.796875 223.697917 C 319.010417 224.765625 324.088542 230.234375 326.328125 228.4375 Z M 317.65625 206.041667 C 317.65625 206.041667 326.041667 195.026042 324.140625 183.802083 C 322.239583 172.578125 309.401042 179.270833 309.348958 183.203125 C 309.270833 187.135417 316.40625 193.020833 316.666667 195.442708 C 316.901042 197.864583 314.947917 205.078125 317.65625 206.041667 Z M 578.932292 99.557292 C 578.932292 99.557292 591.510417 93.75 595.104167 82.96875 C 598.697917 72.161458 584.21875 72.057292 582.317708 75.494792 C 580.390625 78.90625 583.932292 87.473958 583.020833 89.739583 C 582.109375 91.979167 577.005208 97.447917 578.932292 99.557292 Z M 616.979167 118.541667 C 616.979167 118.541667 624.375 106.822917 621.510417 95.807292 C 618.645833 84.791667 606.432292 92.578125 606.71875 96.484375 C 606.979167 100.416667 614.583333 105.651042 615.052083 108.046875 C 615.520833 110.442708 614.192708 117.8125 616.979167 118.541667 Z M 720.729167 226.276042 C 720.729167 226.276042 715.78125 213.333333 705.234375 209.036458 C 694.6875 204.739583 693.645833 219.192708 696.927083 221.328125 C 700.234375 223.463542 709.010417 220.46875 711.197917 221.536458 C 713.385417 222.604167 718.489583 228.072917 720.729167 226.276042 Z M 670 234.296875 C 670 234.296875 670.286458 220.442708 678.75 212.838542 C 687.213542 205.234375 693.098958 218.463542 690.729167 221.588542 C 688.333333 224.713542 679.088542 224.869792 677.369792 226.614583 C 675.677083 228.359375 672.708333 235.234375 670 234.296875 Z M 661.822917 87.473958 C 661.822917 87.473958 648.880208 82.578125 638.645833 87.552083 C 628.4375 92.552083 638.489583 102.96875 642.265625 101.927083 C 646.067708 100.885417 649.6875 92.369792 651.953125 91.432292 C 654.192708 90.520833 661.666667 90.338542 661.822917 87.473958 Z M 632.213542 62.682292 C 632.213542 62.682292 619.270833 57.786458 609.036458 62.760417 C 598.802083 67.760417 608.854167 78.177083 612.65625 77.135417 C 616.458333 76.09375 620.078125 67.578125 622.317708 66.666667 C 624.583333 65.729167 632.057292 65.546875 632.213542 62.682292 Z M 588.020833 39.0625 C 588.020833 39.0625 577.057292 47.5 575.9375 58.828125 C 574.817708 70.15625 588.958333 67.057292 590.078125 63.28125 C 591.171875 59.505208 585.833333 51.953125 586.197917 49.557292 C 586.588542 47.135417 590.364583 40.677083 588.020833 39.0625 Z M 559.270833 32.135417 C 559.270833 32.135417 554.270833 45.052083 559.192708 55.3125 C 564.114583 65.572917 574.609375 55.572917 573.59375 51.770833 C 572.578125 47.994792 564.088542 44.296875 563.177083 42.03125 C 562.239583 39.791667 562.135417 32.317708 559.270833 32.135417 Z M 477.65625 81.875 C 477.65625 81.875 486.614583 71.328125 485.3125 60 C 484.010417 48.697917 470.833333 54.713542 470.546875 58.645833 C 470.260417 62.552083 477.083333 68.802083 477.213542 71.25 C 477.34375 73.671875 475 80.78125 477.65625 81.875 Z M 477.65625 81.875 " transform="matrix(0.15,0,0,0.15,0,0)"/>
<path style="fill-rule:nonzero;fill:rgb(87.058824%,12.54902%,6.27451%);fill-opacity:1;stroke-width:2.383;stroke-linecap:butt;stroke-linejoin:miter;stroke:rgb(0%,0%,0%);stroke-opacity:1;stroke-miterlimit:4;" d="M 701.614583 233.098958 C 701.119792 229.0625 699.166667 225.494792 696.510417 223.776042 C 693.828125 222.057292 690.859375 222.421875 688.723958 224.739583 C 686.5625 227.083333 685.546875 231.015625 686.041667 235.052083 C 686.5625 239.114583 688.515625 242.65625 691.171875 244.375 C 693.828125 246.119792 696.796875 245.729167 698.958333 243.411458 C 701.119792 241.09375 702.135417 237.161458 701.614583 233.098958 Z M 701.614583 233.098958 " transform="matrix(0.15,0,0,0.15,0,0)"/>
<path style="fill-rule:nonzero;fill:rgb(87.058824%,12.54902%,6.27451%);fill-opacity:1;stroke-width:2.383;stroke-linecap:butt;stroke-linejoin:miter;stroke:rgb(0%,0%,0%);stroke-opacity:1;stroke-miterlimit:4;" d="M 699.947917 212.65625 C 699.453125 208.619792 697.5 205.052083 694.84375 203.333333 C 692.161458 201.614583 689.192708 201.979167 687.03125 204.296875 C 684.895833 206.640625 683.880208 210.546875 684.375 214.609375 C 684.869792 218.645833 686.822917 222.213542 689.505208 223.932292 C 692.161458 225.651042 695.130208 225.286458 697.291667 222.96875 C 699.453125 220.625 700.46875 216.71875 699.947917 212.65625 Z M 699.947917 212.65625 " transform="matrix(0.15,0,0,0.15,0,0)"/>
<path style="fill-rule:nonzero;fill:rgb(87.058824%,12.54902%,6.27451%);fill-opacity:1;stroke-width:2.383;stroke-linecap:butt;stroke-linejoin:miter;stroke:rgb(0%,0%,0%);stroke-opacity:1;stroke-miterlimit:4;" d="M 695.807292 190.807292 C 694.947917 186.822917 692.682292 183.463542 689.895833 181.979167 C 687.083333 180.494792 684.140625 181.119792 682.213542 183.619792 C 680.260417 186.145833 679.609375 190.130208 680.46875 194.114583 C 681.328125 198.125 683.567708 201.484375 686.380208 202.96875 C 689.192708 204.453125 692.109375 203.828125 694.0625 201.328125 C 695.989583 198.802083 696.666667 194.817708 695.807292 190.807292 Z M 695.807292 190.807292 " transform="matrix(0.15,0,0,0.15,0,0)"/>
<path style="fill-rule:nonzero;fill:rgb(87.058824%,12.54902%,6.27451%);fill-opacity:1;stroke-width:2.383;stroke-linecap:butt;stroke-linejoin:miter;stroke:rgb(0%,0%,0%);stroke-opacity:1;stroke-miterlimit:4;" d="M 688.229167 167.994792 C 686.380208 164.348958 683.333333 161.666667 680.260417 160.963542 C 677.161458 160.234375 674.505208 161.588542 673.255208 164.505208 C 672.005208 167.421875 672.395833 171.458333 674.244792 175.104167 C 676.09375 178.75 679.140625 181.432292 682.213542 182.161458 C 685.3125 182.864583 687.96875 181.510417 689.21875 178.59375 C 690.46875 175.677083 690.078125 171.640625 688.229167 167.994792 Z M 688.229167 167.994792 " transform="matrix(0.15,0,0,0.15,0,0)"/>
<path style="fill-rule:nonzero;fill:rgb(87.058824%,12.54902%,6.27451%);fill-opacity:1;stroke-width:2.383;stroke-linecap:butt;stroke-linejoin:miter;stroke:rgb(0%,0%,0%);stroke-opacity:1;stroke-miterlimit:4;" d="M 680.130208 149.6875 C 678.307292 146.041667 675.260417 143.359375 672.161458 142.65625 C 669.0625 141.927083 666.40625 143.28125 665.15625 146.197917 C 663.932292 149.114583 664.296875 153.151042 666.145833 156.796875 C 667.994792 160.442708 671.041667 163.125 674.140625 163.854167 C 677.213542 164.557292 679.895833 163.203125 681.119792 160.286458 C 682.369792 157.369792 681.979167 153.333333 680.130208 149.6875 Z M 680.130208 149.6875 " transform="matrix(0.15,0,0,0.15,0,0)"/>
<path style="fill-rule:nonzero;fill:rgb(87.058824%,12.54902%,6.27451%);fill-opacity:1;stroke-width:2.383;stroke-linecap:butt;stroke-linejoin:miter;stroke:rgb(0%,0%,0%);stroke-opacity:1;stroke-miterlimit:4;" d="M 668.645833 131.276042 C 666.484375 127.8125 663.229167 125.390625 660.104167 124.947917 C 656.953125 124.479167 654.401042 126.067708 653.411458 129.0625 C 652.421875 132.083333 653.151042 136.09375 655.3125 139.557292 C 657.447917 143.020833 660.703125 145.442708 663.854167 145.885417 C 666.979167 146.354167 669.53125 144.765625 670.520833 141.744792 C 671.510417 138.75 670.78125 134.739583 668.645833 131.276042 Z M 668.645833 131.276042 " transform="matrix(0.15,0,0,0.15,0,0)"/>
<path style="fill-rule:nonzero;fill:rgb(87.058824%,12.54902%,6.27451%);fill-opacity:1;stroke-width:2.383;stroke-linecap:butt;stroke-linejoin:miter;stroke:rgb(0%,0%,0%);stroke-opacity:1;stroke-miterlimit:4;" d="M 655.859375 113.541667 C 653.385417 110.286458 649.895833 108.203125 646.744792 108.046875 C 643.567708 107.890625 641.171875 109.713542 640.494792 112.8125 C 639.791667 115.911458 640.885417 119.817708 643.385417 123.046875 C 645.859375 126.302083 649.322917 128.385417 652.5 128.541667 C 655.651042 128.697917 658.046875 126.875 658.723958 123.776042 C 659.427083 120.677083 658.333333 116.770833 655.859375 113.541667 Z M 655.859375 113.541667 " transform="matrix(0.15,0,0,0.15,0,0)"/>
<path style="fill-rule:nonzero;fill:rgb(87.058824%,12.54902%,6.27451%);fill-opacity:1;stroke-width:2.383;stroke-linecap:butt;stroke-linejoin:miter;stroke:rgb(0%,0%,0%);stroke-opacity:1;stroke-miterlimit:4;" d="M 640.598958 97.005208 C 637.682292 94.140625 633.932292 92.578125 630.78125 92.890625 C 627.604167 93.203125 625.520833 95.338542 625.286458 98.515625 C 625.052083 101.666667 626.692708 105.364583 629.635417 108.229167 C 632.552083 111.067708 636.276042 112.630208 639.453125 112.34375 C 642.604167 112.03125 644.6875 109.869792 644.921875 106.71875 C 645.15625 103.541667 643.515625 99.84375 640.598958 97.005208 Z M 640.598958 97.005208 " transform="matrix(0.15,0,0,0.15,0,0)"/>
<path style="fill-rule:nonzero;fill:rgb(87.058824%,12.54902%,6.27451%);fill-opacity:1;stroke-width:2.383;stroke-linecap:butt;stroke-linejoin:miter;stroke:rgb(0%,0%,0%);stroke-opacity:1;stroke-miterlimit:4;" d="M 623.411458 81.770833 C 620.234375 79.192708 616.380208 77.994792 613.255208 78.59375 C 610.130208 79.192708 608.255208 81.510417 608.307292 84.6875 C 608.359375 87.864583 610.364583 91.40625 613.515625 93.958333 C 616.692708 96.536458 620.572917 97.760417 623.671875 97.161458 C 626.796875 96.5625 628.671875 94.21875 628.619792 91.041667 C 628.567708 87.890625 626.588542 84.348958 623.411458 81.770833 Z M 623.411458 81.770833 " transform="matrix(0.15,0,0,0.15,0,0)"/>
<path style="fill-rule:nonzero;fill:rgb(87.058824%,12.54902%,6.27451%);fill-opacity:1;stroke-width:2.383;stroke-linecap:butt;stroke-linejoin:miter;stroke:rgb(0%,0%,0%);stroke-opacity:1;stroke-miterlimit:4;" d="M 605.208333 69.635417 C 601.666667 67.604167 597.630208 67.057292 594.661458 68.177083 C 591.692708 69.270833 590.234375 71.875 590.807292 75 C 591.380208 78.125 593.932292 81.276042 597.473958 83.28125 C 601.041667 85.286458 605.052083 85.859375 608.020833 84.739583 C 610.989583 83.645833 612.473958 81.041667 611.901042 77.916667 C 611.302083 74.791667 608.75 71.640625 605.208333 69.635417 Z M 605.208333 69.635417 " transform="matrix(0.15,0,0,0.15,0,0)"/>
<path style="fill-rule:nonzero;fill:rgb(87.058824%,12.54902%,6.27451%);fill-opacity:1;stroke-width:2.383;stroke-linecap:butt;stroke-linejoin:miter;stroke:rgb(0%,0%,0%);stroke-opacity:1;stroke-miterlimit:4;" d="M 584.84375 58.854167 C 581.119792 57.161458 577.057292 56.979167 574.21875 58.359375 C 571.354167 59.713542 570.130208 62.447917 570.989583 65.520833 C 571.848958 68.567708 574.661458 71.484375 578.385417 73.151042 C 582.109375 74.817708 586.171875 75.026042 589.010417 73.645833 C 591.875 72.265625 593.098958 69.53125 592.239583 66.484375 C 591.380208 63.4375 588.567708 60.520833 584.84375 58.854167 Z M 584.84375 58.854167 " transform="matrix(0.15,0,0,0.15,0,0)"/>
<path style="fill-rule:nonzero;fill:rgb(87.058824%,12.54902%,6.27451%);fill-opacity:1;stroke-width:2.383;stroke-linecap:butt;stroke-linejoin:miter;stroke:rgb(0%,0%,0%);stroke-opacity:1;stroke-miterlimit:4;" d="M 564.869792 50.807292 C 561.041667 49.375 556.979167 49.453125 554.21875 51.015625 C 551.458333 52.578125 550.416667 55.390625 551.484375 58.385417 C 552.552083 61.354167 555.572917 64.088542 559.375 65.494792 C 563.203125 66.927083 567.265625 66.848958 570.026042 65.286458 C 572.786458 63.723958 573.828125 60.911458 572.760417 57.916667 C 571.692708 54.947917 568.697917 52.213542 564.869792 50.807292 Z M 564.869792 50.807292 " transform="matrix(0.15,0,0,0.15,0,0)"/>
<path style="fill-rule:nonzero;fill:rgb(87.058824%,12.54902%,6.27451%);fill-opacity:1;stroke-width:2.383;stroke-linecap:butt;stroke-linejoin:miter;stroke:rgb(0%,0%,0%);stroke-opacity:1;stroke-miterlimit:4;" d="M 544.557292 44.427083 C 540.651042 43.307292 536.588542 43.697917 533.958333 45.46875 C 531.328125 47.239583 530.520833 50.104167 531.796875 52.994792 C 533.098958 55.911458 536.302083 58.385417 540.234375 59.505208 C 544.140625 60.651042 548.177083 60.234375 550.807292 58.489583 C 553.4375 56.71875 554.270833 53.828125 552.994792 50.9375 C 551.692708 48.046875 548.489583 45.546875 544.557292 44.427083 Z M 544.557292 44.427083 " transform="matrix(0.15,0,0,0.15,0,0)"/>
<path style="fill-rule:nonzero;fill:rgb(87.058824%,12.54902%,6.27451%);fill-opacity:1;stroke-width:2.383;stroke-linecap:butt;stroke-linejoin:miter;stroke:rgb(0%,0%,0%);stroke-opacity:1;stroke-miterlimit:4;" d="M 522.213542 40.625 C 518.151042 40.104167 514.244792 41.119792 511.901042 43.28125 C 509.583333 45.416667 509.192708 48.385417 510.911458 51.067708 C 512.630208 53.723958 516.197917 55.677083 520.234375 56.197917 C 524.296875 56.692708 528.229167 55.703125 530.546875 53.541667 C 532.890625 51.380208 533.255208 48.411458 531.536458 45.755208 C 529.817708 43.072917 526.25 41.119792 522.213542 40.625 Z M 522.213542 40.625 " transform="matrix(0.15,0,0,0.15,0,0)"/>
<path style="fill-rule:nonzero;fill:rgb(87.058824%,12.54902%,6.27451%);fill-opacity:1;stroke-width:2.383;stroke-linecap:butt;stroke-linejoin:miter;stroke:rgb(0%,0%,0%);stroke-opacity:1;stroke-miterlimit:4;" d="M 500.15625 39.375 C 496.067708 39.21875 492.239583 40.546875 490.104167 42.890625 C 487.96875 45.234375 487.838542 48.229167 489.791667 50.729167 C 491.744792 53.255208 495.442708 54.895833 499.53125 55.052083 C 503.59375 55.208333 507.421875 53.880208 509.557292 51.536458 C 511.692708 49.192708 511.822917 46.197917 509.869792 43.697917 C 507.942708 41.171875 504.21875 39.53125 500.15625 39.375 Z M 500.15625 39.375 " transform="matrix(0.15,0,0,0.15,0,0)"/>
<path style="fill-rule:nonzero;fill:rgb(87.058824%,12.54902%,6.27451%);fill-opacity:1;stroke-width:2.383;stroke-linecap:butt;stroke-linejoin:miter;stroke:rgb(0%,0%,0%);stroke-opacity:1;stroke-miterlimit:4;" d="M 479.947917 40.078125 C 475.859375 39.921875 472.03125 41.276042 469.895833 43.619792 C 467.760417 45.963542 467.630208 48.932292 469.583333 51.458333 C 471.536458 53.958333 475.234375 55.598958 479.322917 55.755208 C 483.385417 55.9375 487.213542 54.583333 489.348958 52.239583 C 491.484375 49.895833 491.614583 46.901042 489.661458 44.401042 C 487.734375 41.901042 484.010417 40.260417 479.947917 40.078125 Z M 479.947917 40.078125 " transform="matrix(0.15,0,0,0.15,0,0)"/>
<path style="fill-rule:nonzero;fill:rgb(87.058824%,12.54902%,6.27451%);fill-opacity:1;stroke-width:2.383;stroke-linecap:butt;stroke-linejoin:miter;stroke:rgb(0%,0%,0%);stroke-opacity:1;stroke-miterlimit:4;" d="M 456.25 42.890625 C 452.265625 43.802083 448.932292 46.09375 447.473958 48.932292 C 446.041667 51.744792 446.692708 54.661458 449.21875 56.5625 C 451.770833 58.489583 455.78125 59.114583 459.739583 58.203125 C 463.723958 57.291667 467.057292 55 468.515625 52.161458 C 469.973958 49.348958 469.296875 46.432292 466.770833 44.505208 C 464.244792 42.604167 460.234375 41.979167 456.25 42.890625 Z M 456.25 42.890625 " transform="matrix(0.15,0,0,0.15,0,0)"/>
<path style="fill-rule:nonzero;fill:rgb(87.058824%,12.54902%,6.27451%);fill-opacity:1;stroke-width:2.383;stroke-linecap:butt;stroke-linejoin:miter;stroke:rgb(0%,0%,0%);stroke-opacity:1;stroke-miterlimit:4;" d="M 434.6875 48.307292 C 430.807292 49.53125 427.65625 52.083333 426.458333 55.026042 C 425.234375 57.96875 426.145833 60.807292 428.828125 62.5 C 431.510417 64.192708 435.546875 64.479167 439.453125 63.255208 C 443.333333 62.03125 446.484375 59.453125 447.682292 56.510417 C 448.90625 53.59375 447.994792 50.729167 445.3125 49.036458 C 442.630208 47.34375 438.59375 47.057292 434.6875 48.307292 Z M 434.6875 48.307292 " transform="matrix(0.15,0,0,0.15,0,0)"/>
<path style="fill-rule:nonzero;fill:rgb(87.058824%,12.54902%,6.27451%);fill-opacity:1;stroke-width:2.383;stroke-linecap:butt;stroke-linejoin:miter;stroke:rgb(0%,0%,0%);stroke-opacity:1;stroke-miterlimit:4;" d="M 415.052083 56.71875 C 411.328125 58.411458 408.515625 61.328125 407.65625 64.375 C 406.796875 67.421875 408.046875 70.15625 410.911458 71.536458 C 413.776042 72.890625 417.8125 72.682292 421.536458 70.989583 C 425.260417 69.322917 428.072917 66.380208 428.90625 63.333333 C 429.765625 60.286458 428.541667 57.552083 425.677083 56.197917 C 422.8125 54.817708 418.75 55.026042 415.052083 56.71875 Z M 415.052083 56.71875 " transform="matrix(0.15,0,0,0.15,0,0)"/>
<path style="fill-rule:nonzero;fill:rgb(87.058824%,12.54902%,6.27451%);fill-opacity:1;stroke-width:2.383;stroke-linecap:butt;stroke-linejoin:miter;stroke:rgb(0%,0%,0%);stroke-opacity:1;stroke-miterlimit:4;" d="M 395.442708 66.770833 C 391.875 68.75 389.322917 71.901042 388.723958 75.026042 C 388.125 78.151042 389.609375 80.755208 392.578125 81.875 C 395.546875 82.994792 399.557292 82.447917 403.125 80.442708 C 406.666667 78.4375 409.244792 75.286458 409.817708 72.1875 C 410.416667 69.0625 408.958333 66.458333 405.963542 65.338542 C 402.994792 64.21875 398.984375 64.765625 395.442708 66.770833 Z M 395.442708 66.770833 " transform="matrix(0.15,0,0,0.15,0,0)"/>
<path style="fill-rule:nonzero;fill:rgb(87.058824%,12.54902%,6.27451%);fill-opacity:1;stroke-width:2.383;stroke-linecap:butt;stroke-linejoin:miter;stroke:rgb(0%,0%,0%);stroke-opacity:1;stroke-miterlimit:4;" d="M 376.875 79.348958 C 373.567708 81.71875 371.354167 85.130208 371.119792 88.28125 C 370.859375 91.458333 372.604167 93.880208 375.677083 94.6875 C 378.75 95.46875 382.682292 94.479167 386.015625 92.109375 C 389.322917 89.739583 391.536458 86.328125 391.770833 83.177083 C 392.03125 80 390.286458 77.578125 387.213542 76.770833 C 384.140625 75.989583 380.208333 76.979167 376.875 79.348958 Z M 376.875 79.348958 " transform="matrix(0.15,0,0,0.15,0,0)"/>
<path style="fill-rule:nonzero;fill:rgb(87.058824%,12.54902%,6.27451%);fill-opacity:1;stroke-width:2.383;stroke-linecap:butt;stroke-linejoin:miter;stroke:rgb(0%,0%,0%);stroke-opacity:1;stroke-miterlimit:4;" d="M 359.713542 92.369792 C 356.614583 95 354.6875 98.59375 354.713542 101.770833 C 354.739583 104.921875 356.692708 107.213542 359.817708 107.734375 C 362.942708 108.255208 366.770833 106.953125 369.895833 104.296875 C 372.994792 101.666667 374.895833 98.072917 374.869792 94.895833 C 374.84375 91.71875 372.916667 89.453125 369.791667 88.932292 C 366.640625 88.411458 362.8125 89.713542 359.713542 92.369792 Z M 359.713542 92.369792 " transform="matrix(0.15,0,0,0.15,0,0)"/>
<path style="fill-rule:nonzero;fill:rgb(87.058824%,12.54902%,6.27451%);fill-opacity:1;stroke-width:2.383;stroke-linecap:butt;stroke-linejoin:miter;stroke:rgb(0%,0%,0%);stroke-opacity:1;stroke-miterlimit:4;" d="M 344.557292 108.177083 C 341.640625 111.041667 340 114.765625 340.260417 117.916667 C 340.520833 121.09375 342.604167 123.229167 345.755208 123.515625 C 348.932292 123.828125 352.65625 122.239583 355.572917 119.375 C 358.489583 116.510417 360.104167 112.8125 359.869792 109.635417 C 359.609375 106.484375 357.526042 104.348958 354.348958 104.036458 C 351.197917 103.75 347.473958 105.3125 344.557292 108.177083 Z M 344.557292 108.177083 " transform="matrix(0.15,0,0,0.15,0,0)"/>
<path style="fill-rule:nonzero;fill:rgb(87.058824%,12.54902%,6.27451%);fill-opacity:1;stroke-width:2.383;stroke-linecap:butt;stroke-linejoin:miter;stroke:rgb(0%,0%,0%);stroke-opacity:1;stroke-miterlimit:4;" d="M 331.510417 125.78125 C 328.854167 128.880208 327.526042 132.708333 328.046875 135.859375 C 328.541667 138.984375 330.833333 140.9375 333.984375 140.963542 C 337.161458 140.989583 340.755208 139.114583 343.411458 136.015625 C 346.067708 132.916667 347.395833 129.088542 346.875 125.963542 C 346.380208 122.8125 344.114583 120.859375 340.9375 120.833333 C 337.760417 120.807292 334.166667 122.682292 331.510417 125.78125 Z M 331.510417 125.78125 " transform="matrix(0.15,0,0,0.15,0,0)"/>
<path style="fill-rule:nonzero;fill:rgb(87.058824%,12.54902%,6.27451%);fill-opacity:1;stroke-width:2.383;stroke-linecap:butt;stroke-linejoin:miter;stroke:rgb(0%,0%,0%);stroke-opacity:1;stroke-miterlimit:4;" d="M 319.583333 143.802083 C 317.265625 147.161458 316.354167 151.119792 317.1875 154.192708 C 318.046875 157.239583 320.520833 158.932292 323.671875 158.645833 C 326.822917 158.333333 330.208333 156.067708 332.5 152.708333 C 334.817708 149.348958 335.729167 145.390625 334.895833 142.34375 C 334.036458 139.270833 331.588542 137.578125 328.411458 137.890625 C 325.260417 138.177083 321.901042 140.442708 319.583333 143.802083 Z M 319.583333 143.802083 " transform="matrix(0.15,0,0,0.15,0,0)"/>
<path style="fill-rule:nonzero;fill:rgb(87.058824%,12.54902%,6.27451%);fill-opacity:1;stroke-width:2.383;stroke-linecap:butt;stroke-linejoin:miter;stroke:rgb(0%,0%,0%);stroke-opacity:1;stroke-miterlimit:4;" d="M 309.635417 164.244792 C 307.942708 167.942708 307.734375 172.005208 309.088542 174.869792 C 310.442708 177.734375 313.151042 178.984375 316.223958 178.151042 C 319.270833 177.291667 322.213542 174.479167 323.90625 170.78125 C 325.598958 167.083333 325.807292 163.020833 324.453125 160.15625 C 323.098958 157.291667 320.390625 156.041667 317.317708 156.875 C 314.270833 157.734375 311.328125 160.520833 309.635417 164.244792 Z M 309.635417 164.244792 " transform="matrix(0.15,0,0,0.15,0,0)"/>
<path style="fill-rule:nonzero;fill:rgb(87.058824%,12.54902%,6.27451%);fill-opacity:1;stroke-width:2.383;stroke-linecap:butt;stroke-linejoin:miter;stroke:rgb(0%,0%,0%);stroke-opacity:1;stroke-miterlimit:4;" d="M 301.770833 185.598958 C 300.416667 189.427083 300.572917 193.489583 302.161458 196.223958 C 303.776042 198.958333 306.614583 199.947917 309.583333 198.828125 C 312.552083 197.708333 315.208333 194.661458 316.5625 190.807292 C 317.916667 186.953125 317.786458 182.916667 316.171875 180.182292 C 314.557292 177.447917 311.71875 176.458333 308.75 177.552083 C 305.78125 178.671875 303.125 181.744792 301.770833 185.598958 Z M 301.770833 185.598958 " transform="matrix(0.15,0,0,0.15,0,0)"/>
<path style="fill-rule:nonzero;fill:rgb(87.058824%,12.54902%,6.27451%);fill-opacity:1;stroke-width:2.133;stroke-linecap:butt;stroke-linejoin:miter;stroke:rgb(0%,0%,0%);stroke-opacity:1;stroke-miterlimit:4;" d="M 294.947917 226.015625 C 294.557292 229.270833 295.703125 232.395833 297.942708 234.192708 C 300.15625 236.015625 303.151042 236.223958 305.755208 234.791667 C 308.359375 233.333333 310.182292 230.416667 310.572917 227.161458 C 310.9375 223.90625 309.791667 220.78125 307.578125 218.984375 C 305.338542 217.1875 302.369792 216.953125 299.765625 218.411458 C 297.161458 219.84375 295.3125 222.760417 294.947917 226.015625 Z M 294.947917 226.015625 " transform="matrix(0.15,0,0,0.15,0,0)"/>
<path style="fill-rule:nonzero;fill:rgb(87.058824%,12.54902%,6.27451%);fill-opacity:1;stroke-width:2.383;stroke-linecap:butt;stroke-linejoin:miter;stroke:rgb(0%,0%,0%);stroke-opacity:1;stroke-miterlimit:4;" d="M 296.770833 207.135417 C 295.859375 211.119792 296.458333 215.130208 298.385417 217.65625 C 300.286458 220.182292 303.203125 220.859375 306.041667 219.401042 C 308.854167 217.942708 311.145833 214.609375 312.057292 210.625 C 312.96875 206.640625 312.34375 202.630208 310.442708 200.104167 C 308.515625 197.578125 305.598958 196.901042 302.786458 198.359375 C 299.947917 199.817708 297.65625 203.151042 296.770833 207.135417 Z M 296.770833 207.135417 " transform="matrix(0.15,0,0,0.15,0,0)"/>
<path style=" stroke:none;fill-rule:nonzero;fill:rgb(100%,89.019608%,0%);fill-opacity:1;" d="M 102.800781 29.621094 C 103.171875 29.222656 103.519531 29.109375 103.957031 29.253906 C 103.804688 28.203125 103.46875 27.84375 103.0625 27.972656 C 102.660156 28.097656 102.476562 28.640625 102.800781 29.621094 Z M 103.371094 32.800781 C 103.769531 32.429688 104.125 32.34375 104.550781 32.519531 C 104.476562 31.460938 104.171875 31.078125 103.757812 31.175781 C 103.34375 31.269531 103.121094 31.796875 103.371094 32.800781 Z M 102.019531 26.722656 C 102.28125 26.242188 102.585938 26.042969 103.046875 26.074219 C 102.632812 25.09375 102.21875 24.832031 101.859375 25.058594 C 101.496094 25.285156 101.457031 25.855469 102.019531 26.722656 Z M 100.605469 23.828125 C 100.867188 23.347656 101.171875 23.152344 101.632812 23.179688 C 101.21875 22.203125 100.804688 21.941406 100.445312 22.167969 C 100.082031 22.390625 100.042969 22.960938 100.605469 23.828125 Z M 97.214844 18.53125 C 97.394531 18.015625 97.664062 17.769531 98.125 17.726562 C 97.554688 16.828125 97.105469 16.636719 96.785156 16.914062 C 96.46875 17.195312 96.519531 17.765625 97.214844 18.53125 Z M 94.996094 16.222656 C 95.15625 15.699219 95.417969 15.445312 95.875 15.382812 C 95.273438 14.507812 94.816406 14.332031 94.507812 14.625 C 94.199219 14.917969 94.273438 15.484375 94.996094 16.222656 Z M 90.339844 12.289062 C 90.328125 11.746094 90.5 11.421875 90.917969 11.222656 C 90.074219 10.574219 89.585938 10.546875 89.382812 10.921875 C 89.179688 11.292969 89.421875 11.8125 90.339844 12.289062 Z M 92.761719 14.109375 C 92.847656 13.570312 93.070312 13.28125 93.515625 13.15625 C 92.796875 12.371094 92.324219 12.261719 92.058594 12.59375 C 91.792969 12.925781 91.945312 13.476562 92.761719 14.109375 Z M 87.570312 10.761719 C 87.503906 10.222656 87.640625 9.882812 88.035156 9.640625 C 87.128906 9.082031 86.640625 9.109375 86.476562 9.5 C 86.3125 9.890625 86.609375 10.382812 87.570312 10.761719 Z M 84.742188 9.527344 C 84.601562 9.003906 84.6875 8.648438 85.042969 8.351562 C 84.066406 7.929688 83.585938 8.023438 83.480469 8.433594 C 83.375 8.847656 83.738281 9.289062 84.742188 9.527344 Z M 81.699219 8.585938 C 81.511719 8.070312 81.566406 7.710938 81.894531 7.386719 C 80.886719 7.046875 80.417969 7.183594 80.347656 7.601562 C 80.277344 8.019531 80.675781 8.429688 81.699219 8.585938 Z M 78.703125 8.007812 C 78.480469 7.507812 78.511719 7.144531 78.816406 6.796875 C 77.785156 6.53125 77.328125 6.699219 77.285156 7.121094 C 77.246094 7.546875 77.675781 7.925781 78.703125 8.007812 Z M 75.535156 7.761719 C 75.261719 7.289062 75.253906 6.925781 75.519531 6.546875 C 74.46875 6.390625 74.027344 6.605469 74.03125 7.03125 C 74.035156 7.457031 74.5 7.789062 75.535156 7.761719 Z M 69.332031 8.230469 C 68.953125 7.839844 68.855469 7.484375 69.023438 7.054688 C 67.964844 7.15625 67.589844 7.472656 67.695312 7.882812 C 67.804688 8.292969 68.335938 8.503906 69.332031 8.230469 Z M 72.386719 7.828125 C 72.0625 7.386719 72.015625 7.027344 72.238281 6.621094 C 71.175781 6.578125 70.765625 6.839844 70.8125 7.261719 C 70.863281 7.683594 71.359375 7.964844 72.386719 7.828125 Z M 66.335938 8.878906 C 65.902344 8.542969 65.757812 8.210938 65.863281 7.757812 C 64.828125 8.011719 64.503906 8.375 64.667969 8.769531 C 64.832031 9.160156 65.386719 9.292969 66.335938 8.878906 Z M 60.597656 11.515625 C 60.109375 11.269531 59.902344 10.96875 59.917969 10.507812 C 58.953125 10.953125 58.703125 11.371094 58.9375 11.726562 C 59.175781 12.078125 59.746094 12.101562 60.597656 11.515625 Z M 63.363281 10.101562 C 62.910156 9.800781 62.742188 9.476562 62.8125 9.019531 C 61.800781 9.34375 61.5 9.730469 61.691406 10.109375 C 61.882812 10.488281 62.445312 10.582031 63.363281 10.101562 Z M 55.449219 15.097656 C 54.921875 14.960938 54.65625 14.707031 54.578125 14.253906 C 53.726562 14.890625 53.570312 15.351562 53.871094 15.648438 C 54.175781 15.945312 54.742188 15.851562 55.449219 15.097656 Z M 57.90625 13.089844 C 57.390625 12.910156 57.148438 12.636719 57.101562 12.179688 C 56.203125 12.746094 56.011719 13.195312 56.289062 13.515625 C 56.570312 13.835938 57.140625 13.785156 57.90625 13.089844 Z M 53.269531 17.25 C 52.730469 17.160156 52.445312 16.933594 52.324219 16.484375 C 51.53125 17.195312 51.417969 17.671875 51.75 17.941406 C 52.078125 18.207031 52.632812 18.0625 53.269531 17.25 Z M 51.3125 19.785156 C 50.769531 19.746094 50.464844 19.542969 50.300781 19.113281 C 49.578125 19.890625 49.507812 20.375 49.863281 20.613281 C 50.214844 20.847656 50.75 20.652344 51.3125 19.785156 Z M 49.679688 22.378906 C 49.132812 22.421875 48.800781 22.273438 48.574219 21.871094 C 47.980469 22.75 47.984375 23.238281 48.371094 23.417969 C 48.753906 23.597656 49.257812 23.324219 49.679688 22.378906 Z M 48.242188 25.152344 C 47.707031 25.265625 47.359375 25.15625 47.082031 24.785156 C 46.605469 25.738281 46.675781 26.222656 47.078125 26.351562 C 47.484375 26.480469 47.945312 26.140625 48.242188 25.152344 Z M 47.09375 27.992188 C 46.582031 28.191406 46.222656 28.140625 45.890625 27.816406 C 45.570312 28.832031 45.714844 29.300781 46.136719 29.363281 C 46.554688 29.425781 46.957031 29.019531 47.09375 27.992188 Z M 46.324219 31.164062 C 45.828125 31.394531 45.464844 31.367188 45.113281 31.066406 C 44.859375 32.101562 45.035156 32.558594 45.460938 32.59375 C 45.882812 32.628906 46.257812 32.195312 46.324219 31.164062 Z M 46.007812 33.800781 C 45.542969 34.046875 45.179688 34.074219 44.800781 33.890625 C 44.660156 34.730469 44.882812 35.066406 45.304688 35.035156 C 45.730469 35.003906 46.054688 34.617188 46.007812 33.800781 Z M 99.34375 21.253906 C 99.53125 20.738281 99.804688 20.5 100.265625 20.460938 C 99.710938 19.554688 99.265625 19.355469 98.941406 19.628906 C 98.617188 19.90625 98.660156 20.476562 99.34375 21.253906 Z M 103.71875 36.019531 C 104.121094 35.648438 104.472656 35.5625 104.902344 35.738281 C 104.824219 34.679688 104.519531 34.296875 104.105469 34.394531 C 103.691406 34.488281 103.46875 35.015625 103.71875 36.019531 Z M 103.71875 36.019531 "/>
<path style="fill-rule:nonzero;fill:rgb(100%,82.352942%,0%);fill-opacity:1;stroke-width:1.008;stroke-linecap:butt;stroke-linejoin:miter;stroke:rgb(93.725491%,54.11765%,6.27451%);stroke-opacity:1;stroke-miterlimit:4;" d="M 646.901042 149.661458 C 646.901042 149.661458 654.296875 137.942708 651.432292 126.927083 C 648.567708 115.911458 636.380208 123.697917 636.640625 127.630208 C 636.901042 131.536458 644.53125 136.796875 644.973958 139.192708 C 645.442708 141.588542 644.114583 148.932292 646.901042 149.661458 Z M 646.901042 149.661458 " transform="matrix(0.15,0,0,0.15,0,0)"/>
<path style="fill-rule:nonzero;fill:rgb(12.941177%,47.450981%,0%);fill-opacity:1;stroke-width:1.935;stroke-linecap:butt;stroke-linejoin:round;stroke:rgb(0%,0%,0%);stroke-opacity:1;stroke-miterlimit:4;" d="M 663.671875 124.921875 C 663.59375 124.921875 655.651042 132.864583 657.03125 142.526042 C 658.411458 152.1875 664.53125 164.088542 663.411458 174.088542 C 662.291667 184.088542 660.46875 190.729167 660.46875 190.729167 C 660.46875 190.729167 669.791667 180.130208 669.869792 169.947917 C 669.973958 159.765625 663.489583 146.40625 663.489583 138.880208 C 663.489583 131.380208 663.854167 124.739583 663.671875 124.921875 Z M 678.411458 157.34375 C 678.411458 157.34375 672.213542 161.927083 672.8125 172.447917 C 673.411458 182.96875 684.296875 202.291667 684.296875 202.291667 C 684.296875 202.291667 692.213542 218.59375 691.953125 222.8125 C 691.692708 227.03125 693.4375 218.776042 692.65625 209.453125 C 691.875 200.130208 679.895833 179.609375 679.895833 179.609375 C 679.895833 179.609375 677.291667 175.390625 677.552083 168.385417 C 677.8125 161.40625 678.515625 157.447917 678.411458 157.34375 Z M 678.411458 157.34375 " transform="matrix(0.15,0,0,0.15,0,0)"/>
<path style="fill-rule:nonzero;fill:rgb(12.941177%,47.450981%,0%);fill-opacity:1;stroke-width:2.419;stroke-linecap:butt;stroke-linejoin:round;stroke:rgb(0%,0%,0%);stroke-opacity:1;stroke-miterlimit:4;" d="M 505.651042 52.291667 C 505.651042 52.291667 532.291667 53.333333 532.473958 70.572917 C 532.395833 73.255208 532.473958 76.432292 531.536458 84.114583 C 536.796875 81.276042 540.3125 73.333333 539.635417 68.255208 C 539.713542 50.729167 515.833333 38.75 505.651042 52.291667 Z M 505.651042 52.291667 " transform="matrix(0.15,0,0,0.15,0,0)"/>
<path style="fill-rule:nonzero;fill:rgb(12.941177%,47.450981%,0%);fill-opacity:1;stroke-width:2.419;stroke-linecap:butt;stroke-linejoin:round;stroke:rgb(0%,0%,0%);stroke-opacity:1;stroke-miterlimit:4;" d="M 488.75 51.510417 C 488.75 51.510417 510.234375 47.03125 510.390625 64.270833 C 510.572917 81.536458 503.59375 84.296875 503.59375 84.296875 C 503.59375 84.296875 520.052083 80.755208 520.15625 63.255208 C 520.234375 45.729167 498.932292 37.96875 488.75 51.510417 Z M 697.369792 249.192708 C 697.864583 256.927083 705.442708 264.348958 702.473958 277.838542 C 698.697917 293.151042 685.364583 329.557292 687.65625 335.963542 C 683.723958 330.546875 684.375 325.442708 684.036458 317.864583 C 683.723958 310.286458 695.078125 282.135417 696.067708 272.578125 C 696.067708 264.010417 696.875 252.317708 697.369792 249.192708 Z M 697.369792 249.192708 " transform="matrix(0.15,0,0,0.15,0,0)"/>
<path style="fill-rule:nonzero;fill:rgb(12.941177%,47.450981%,0%);fill-opacity:1;stroke-width:2.419;stroke-linecap:butt;stroke-linejoin:round;stroke:rgb(0%,0%,0%);stroke-opacity:1;stroke-miterlimit:4;" d="M 697.369792 249.348958 C 697.369792 249.348958 709.739583 265 709.0625 277.34375 C 708.411458 289.713542 701.484375 304.192708 703.802083 310.625 C 699.84375 305.182292 698.854167 301.71875 698.541667 294.140625 C 698.203125 286.5625 704.635417 278.177083 703.307292 269.947917 C 701.979167 261.71875 697.213542 249.348958 697.369792 249.348958 Z M 292.8125 252.8125 C 292.317708 260.546875 286.5625 267.473958 289.53125 280.963542 C 293.307292 296.276042 306.822917 315.703125 304.6875 337.942708 C 308.619792 332.5 309.791667 326.40625 310.104167 318.828125 C 310.442708 311.276042 295.130208 285.729167 294.140625 276.197917 C 294.140625 267.630208 293.307292 255.9375 292.8125 252.8125 Z M 292.8125 252.8125 " transform="matrix(0.15,0,0,0.15,0,0)"/>
<path style="fill-rule:nonzero;fill:rgb(12.941177%,47.450981%,0%);fill-opacity:1;stroke-width:2.419;stroke-linecap:butt;stroke-linejoin:round;stroke:rgb(0%,0%,0%);stroke-opacity:1;stroke-miterlimit:4;" d="M 292.8125 252.96875 C 292.8125 252.96875 280.807292 268.125 281.458333 280.46875 C 281.614583 288.723958 296.770833 323.125 294.479167 329.557292 C 298.411458 324.114583 299.583333 324.765625 299.401042 316.536458 C 294.973958 295.46875 287.057292 281.953125 288.385417 273.723958 C 289.6875 265.494792 292.994792 252.96875 292.8125 252.96875 Z M 292.8125 252.96875 " transform="matrix(0.15,0,0,0.15,0,0)"/>
<path style="fill-rule:nonzero;fill:rgb(54.901963%,54.11765%,54.901963%);fill-opacity:1;stroke-width:1.935;stroke-linecap:butt;stroke-linejoin:miter;stroke:rgb(0%,0%,0%);stroke-opacity:1;stroke-miterlimit:4;" d="M 526.380208 104.557292 C 526.380208 104.557292 547.838542 105.911458 548.880208 118.203125 C 549.947917 130.520833 543.776042 138.020833 543.776042 138.020833 C 543.776042 138.020833 546.484375 164.583333 525.46875 172.395833 C 502.96875 175.078125 467.708333 172.994792 467.708333 172.994792 C 467.708333 172.994792 457.369792 175.546875 453.151042 154.088542 C 448.958333 132.630208 447.760417 117.473958 447.760417 117.473958 C 447.760417 117.473958 449.84375 105.46875 465 104.713542 C 480.15625 103.958333 526.223958 104.869792 526.380208 104.557292 Z M 526.380208 104.557292 " transform="matrix(0.15,0,0,0.15,0,0)"/>
<path style="fill:none;stroke-width:1.935;stroke-linecap:round;stroke-linejoin:miter;stroke:rgb(0%,0%,0%);stroke-opacity:1;stroke-miterlimit:4;" d="M 543.619792 137.864583 C 543.619792 137.864583 532.083333 152.265625 533.28125 158.125 " transform="matrix(0.15,0,0,0.15,0,0)"/>
<path style="fill-rule:nonzero;fill:rgb(54.901963%,54.11765%,54.901963%);fill-opacity:1;stroke-width:1.935;stroke-linecap:butt;stroke-linejoin:miter;stroke:rgb(0%,0%,0%);stroke-opacity:1;stroke-miterlimit:4;" d="M 528.177083 171.640625 C 531.041667 174.036458 533.723958 176.744792 534.322917 185.572917 L 535.520833 203.28125 L 550.546875 338.333333 L 563.75 436.015625 L 564.635417 451.171875 C 564.635417 451.171875 561.484375 462.291667 552.630208 463.177083 C 546.197917 476.692708 511.223958 480.598958 507.760417 480.442708 C 504.609375 480.286458 493.515625 475.625 486.770833 476.25 C 480 476.848958 468.307292 481.328125 463.046875 480.598958 C 457.8125 479.84375 445.963542 475.78125 443.854167 467.239583 C 429.140625 462.578125 426.744792 451.328125 426.744792 451.328125 L 442.65625 338.333333 L 458.098958 195.494792 C 458.098958 195.494792 459.895833 176.432292 467.552083 173.59375 C 475.520833 172.838542 516.614583 174.322917 528.177083 171.640625 Z M 528.177083 171.640625 " transform="matrix(0.15,0,0,0.15,0,0)"/>
<path style="fill:none;stroke-width:1.935;stroke-linecap:butt;stroke-linejoin:miter;stroke:rgb(0%,0%,0%);stroke-opacity:1;stroke-miterlimit:4;" d="M 447.161458 367.161458 L 444.010417 467.083333 M 544.21875 380.338542 L 553.072917 462.734375 " transform="matrix(0.15,0,0,0.15,0,0)"/>
<path style="fill-rule:nonzero;fill:rgb(100%,100%,100%);fill-opacity:1;stroke-width:2.016;stroke-linecap:butt;stroke-linejoin:round;stroke:rgb(0%,0%,0%);stroke-opacity:1;stroke-miterlimit:4;" d="M 498.177083 114.453125 L 528.125 206.536458 L 624.921875 206.536458 L 546.614583 263.463542 L 576.510417 355.572917 L 498.203125 298.645833 L 419.869792 355.572917 L 449.765625 263.463542 L 371.458333 206.536458 L 468.28125 206.536458 Z M 498.177083 114.453125 " transform="matrix(0.15,0,0,0.15,0,0)"/>
</g>
</svg>
