<?xml version="1.0" encoding="UTF-8"?>
<svg xmlns="http://www.w3.org/2000/svg" xmlns:xlink="http://www.w3.org/1999/xlink" width="150px" height="150px" viewBox="0 0 150 100" version="1.1">
<g id="surface1">
<path style=" stroke:none;fill-rule:evenodd;fill:rgb(74.901962%,3.921569%,18.82353%);fill-opacity:1;" d="M 0 0.0078125 L 150 0.0078125 L 150 50.023438 L 0 50.023438 Z M 0 0.0078125 "/>
<path style=" stroke:none;fill-rule:evenodd;fill:rgb(100%,100%,100%);fill-opacity:1;" d="M 0 50.035156 L 150 50.035156 L 150 100 L 0 100 Z M 0 50.035156 "/>
<path style=" stroke:none;fill-rule:evenodd;fill:rgb(0%,15.686275%,40.784314%);fill-opacity:1;" d="M 0 0 L 50.007812 0 L 50.007812 100 L 0 100 Z M 0 0 "/>
<path style="fill-rule:evenodd;fill:rgb(100%,79.215688%,0%);fill-opacity:1;stroke-width:1;stroke-linecap:butt;stroke-linejoin:miter;stroke:rgb(0%,15.686275%,40.784314%);stroke-opacity:1;stroke-miterlimit:4;" d="M 37.402344 117.304688 C 21.757812 126.035156 18.925781 129.6875 10.371094 136.367188 L 29.355469 136.777344 C 29.140625 138.535156 24.980469 160.566406 24.589844 162.109375 C 38.90625 152.617188 45.683594 148.261719 65.195312 142.753906 C 72.949219 140.605469 64.589844 132.734375 63.789062 130.625 C 58.476562 133.027344 54.394531 135.859375 50.488281 139.355469 " transform="matrix(0.2,0,0,0.2,0,0)"/>
<path style="fill-rule:evenodd;fill:rgb(100%,79.215688%,0%);fill-opacity:1;stroke-width:1;stroke-linecap:butt;stroke-linejoin:miter;stroke:rgb(0%,15.686275%,40.784314%);stroke-opacity:1;stroke-miterlimit:4;" d="M 50.742188 139.160156 C 79.882812 112.480469 176.308594 113.105469 203.164062 139.980469 C 204.023438 139.6875 221.40625 110.371094 220.527344 110.683594 C 167.8125 73.75 73.339844 80.078125 33.691406 109.21875 L 34.160156 110.957031 Z M 50.742188 139.160156 " transform="matrix(0.2,0,0,0.2,0,0)"/>
<path style="fill:none;stroke-width:3.124997;stroke-linecap:round;stroke-linejoin:round;stroke:rgb(0%,15.686275%,40.784314%);stroke-opacity:1;stroke-miterlimit:4;" d="M 55.761719 127.578125 C 55.605469 127.207031 47.285156 111.699219 47.285156 111.699219 L 60.917969 123.710938 L 57.734375 106.152344 L 66.679688 121.171875 M 105.195312 100.800781 C 105.253906 96.054688 109.0625 95.742188 111.660156 96.5625 C 113.203125 97.714844 114.003906 101.542969 112.167969 103.710938 L 108.476562 106.855469 C 107.207031 108.457031 105.78125 110.273438 105.878906 112.285156 L 114.21875 111.972656 M 120.332031 95.722656 C 118.808594 96.484375 118.300781 97.65625 117.949219 99.394531 C 117.714844 101.40625 117.8125 106.152344 118.222656 108.105469 C 118.59375 109.570312 118.964844 110.527344 120.058594 111.484375 C 121.328125 112.207031 122.734375 112.070312 123.515625 111.5625 C 124.570312 110.976562 125.292969 109.746094 125.664062 108.28125 C 126.25 106.425781 126.210938 100.9375 125.800781 98.945312 C 125.410156 97.597656 124.941406 96.542969 123.886719 95.742188 C 122.597656 95.195312 121.113281 95.3125 120.332031 95.722656 Z M 120.332031 95.722656 " transform="matrix(0.2,0,0,0.2,0,0)"/>
<path style="fill:none;stroke-width:3.124996;stroke-linecap:round;stroke-linejoin:round;stroke:rgb(0%,15.686275%,40.784314%);stroke-opacity:1;stroke-miterlimit:4;" d="M 160.175781 100.292969 C 161.757812 99.628906 162.96875 98.808594 164.296875 97.265625 L 161.953125 113.769531 " transform="matrix(0.2,0,0,0.2,0,0)"/>
<path style="fill:none;stroke-width:3.125001;stroke-linecap:round;stroke-linejoin:round;stroke:rgb(0%,15.686275%,40.784314%);stroke-opacity:1;stroke-miterlimit:4;" d="M 172.382812 99.433594 C 172.558594 99.511719 180.3125 101.757812 180.3125 101.757812 C 176.523438 106.484375 173.4375 110.664062 170.917969 115.996094 " transform="matrix(0.2,0,0,0.2,0,0)"/>
<path style="fill:none;stroke-width:3.125004;stroke-linecap:round;stroke-linejoin:round;stroke:rgb(0%,15.686275%,40.784314%);stroke-opacity:1;stroke-miterlimit:4;" d="M 187.070312 103.554688 L 194.746094 107.34375 C 190.175781 110.585938 186.445312 114.6875 183.125 119.472656 " transform="matrix(0.2,0,0,0.2,0,0)"/>
<path style="fill:none;stroke-width:3.124999;stroke-linecap:round;stroke-linejoin:round;stroke:rgb(0%,15.686275%,40.784314%);stroke-opacity:1;stroke-miterlimit:4;" d="M 206.523438 113.476562 L 201.484375 110.527344 L 197.050781 116.542969 C 200.234375 115.917969 202.382812 116.894531 203.300781 119.785156 C 203.867188 124.042969 201.308594 126.484375 198.554688 126.5625 C 195.644531 126.503906 194.140625 124.902344 193.730469 121.542969 " transform="matrix(0.2,0,0,0.2,0,0)"/>
<path style="fill:none;stroke-width:3.125001;stroke-linecap:round;stroke-linejoin:round;stroke:rgb(0%,15.686275%,40.784314%);stroke-opacity:1;stroke-miterlimit:4;" d="M 70.9375 119.023438 C 70.9375 119.023438 71.425781 101.09375 71.601562 101.113281 C 71.679688 100.390625 81.71875 115.976562 81.71875 115.976562 M 71.269531 112.636719 L 78.085938 110.625 " transform="matrix(0.2,0,0,0.2,0,0)"/>
<path style=" stroke:none;fill-rule:evenodd;fill:rgb(100%,79.215688%,0%);fill-opacity:1;" d="M 6.289062 57.628906 L 8.28125 57.65625 L 8.21875 49.015625 L 12.039062 57.699219 L 14.113281 57.699219 L 14.113281 44.996094 L 12.089844 45.023438 L 12.121094 53.054688 L 8.546875 45.058594 L 6.320312 45.085938 Z M 6.289062 57.628906 "/>
<path style=" stroke:none;fill-rule:evenodd;fill:rgb(100%,79.215688%,0%);fill-opacity:1;" d="M 42.726562 49.027344 L 44.847656 49.027344 L 44.824219 47.90625 C 44.765625 47.183594 44.492188 46.265625 43.777344 45.589844 C 43.300781 45.0625 42.738281 44.761719 42.011719 44.5625 C 41.390625 44.320312 39.875 44.390625 39.105469 44.824219 C 38.195312 45.332031 37.429688 46.238281 36.914062 47.695312 C 36.242188 50.15625 36.546875 53.234375 36.972656 54.679688 C 37.480469 56.21875 38.277344 57.035156 39.335938 57.554688 C 39.996094 57.773438 41.148438 57.945312 42.226562 57.652344 C 43.398438 57.207031 43.933594 56.4375 44.402344 55.617188 C 44.683594 55.058594 45.007812 53.992188 44.953125 52.8125 L 42.734375 52.839844 C 42.738281 53.269531 42.648438 53.769531 42.539062 54.203125 C 42.289062 54.808594 41.902344 55.210938 40.941406 55.210938 C 40.292969 55.210938 39.859375 54.945312 39.496094 54.46875 C 39.011719 54 38.882812 52.945312 38.851562 52.648438 C 38.703125 51.304688 38.699219 49.972656 39.085938 48.570312 C 39.234375 48.003906 39.527344 47.480469 39.910156 47.222656 C 40.53125 46.886719 41.175781 46.9375 41.539062 47.042969 C 42.019531 47.191406 42.457031 47.546875 42.597656 48.019531 C 42.703125 48.464844 42.71875 48.734375 42.726562 49.027344 Z M 42.726562 49.027344 "/>
<path style=" stroke:none;fill-rule:evenodd;fill:rgb(100%,100%,100%);fill-opacity:1;" d="M 30.398438 58.042969 L 25.640625 54.347656 L 20.753906 58.023438 L 22.691406 52.265625 L 17.738281 48.621094 L 23.695312 48.761719 L 25.519531 42.832031 L 27.261719 48.675781 L 33.34375 48.65625 L 28.464844 52.128906 L 30.398438 58.046875 Z M 30.398438 58.042969 "/>
<path style="fill:none;stroke-width:1;stroke-linecap:butt;stroke-linejoin:miter;stroke:rgb(0%,15.686275%,40.784314%);stroke-opacity:1;stroke-miterlimit:4;" d="M 50.839844 139.179688 C 51.875 140.253906 53.945312 139.980469 56.816406 139.453125 C 59.101562 139.160156 61.699219 139.0625 63.75 138.828125 C 67.128906 139.101562 69.082031 139.902344 67.675781 141.503906 " transform="matrix(0.2,0,0,0.2,0,0)"/>
<path style="fill-rule:evenodd;fill:rgb(100%,79.215688%,0%);fill-opacity:1;stroke-width:1;stroke-linecap:butt;stroke-linejoin:miter;stroke:rgb(0%,15.686275%,40.784314%);stroke-opacity:1;stroke-miterlimit:4;" d="M 216.640625 118.242188 C 232.265625 126.972656 235.117188 130.625 243.671875 137.304688 L 224.6875 137.714844 C 224.902344 139.472656 229.042969 161.503906 229.453125 163.066406 C 215.136719 153.554688 208.359375 149.199219 188.847656 143.710938 C 181.09375 141.542969 189.726562 133.535156 190.546875 131.445312 C 195.839844 133.828125 200.332031 136.679688 203.535156 140.292969 " transform="matrix(0.2,0,0,0.2,0,0)"/>
<path style="fill:none;stroke-width:1;stroke-linecap:butt;stroke-linejoin:miter;stroke:rgb(0%,15.686275%,40.784314%);stroke-opacity:1;stroke-miterlimit:4;" d="M 202.988281 140.117188 C 201.230469 140.9375 199.414062 140.566406 197.226562 140.390625 C 195.15625 140.078125 192.792969 139.726562 190.449219 139.648438 C 186.542969 139.6875 185.117188 141.308594 186.367188 142.441406 " transform="matrix(0.2,0,0,0.2,0,0)"/>
<path style="fill:none;stroke-width:2.249997;stroke-linecap:round;stroke-linejoin:round;stroke:rgb(0%,15.686275%,40.784314%);stroke-opacity:1;stroke-miterlimit:4;" d="M 129.375 101.875 C 132.402344 101.933594 135.332031 102.050781 135.332031 102.050781 " transform="matrix(0.2,0,0,0.2,0,0)"/>
<path style="fill:none;stroke-width:2.250005;stroke-linecap:round;stroke-linejoin:round;stroke:rgb(0%,15.686275%,40.784314%);stroke-opacity:1;stroke-miterlimit:4;" d="M 138.671875 97.910156 L 138.320312 112.34375 M 144.941406 112.988281 C 145.78125 102.636719 144.433594 102.265625 139.433594 102.285156 " transform="matrix(0.2,0,0,0.2,0,0)"/>
<path style="fill:none;stroke-width:2.25;stroke-linecap:round;stroke-linejoin:round;stroke:rgb(0%,15.686275%,40.784314%);stroke-opacity:1;stroke-miterlimit:4;" d="M 131.738281 97.382812 L 131.503906 109.375 C 131.484375 111.660156 132.1875 112.304688 134.160156 112.304688 " transform="matrix(0.2,0,0,0.2,0,0)"/>
<path style="fill:none;stroke-width:3.125003;stroke-linecap:round;stroke-linejoin:round;stroke:rgb(0%,15.686275%,40.784314%);stroke-opacity:1;stroke-miterlimit:4;" d="M 80.605469 98.964844 L 88.007812 106.484375 L 89.355469 114.648438 M 92.246094 96.367188 L 88.183594 106.835938 " transform="matrix(0.2,0,0,0.2,0,0)"/>
<path style="fill-rule:evenodd;fill:rgb(100%,79.215688%,0%);fill-opacity:1;stroke-width:1;stroke-linecap:butt;stroke-linejoin:miter;stroke:rgb(0%,15.686275%,40.784314%);stroke-opacity:1;stroke-miterlimit:4;" d="M 38.027344 387.441406 C 22.402344 378.90625 19.550781 375.351562 10.996094 368.808594 L 30 368.417969 C 29.765625 366.699219 25.625 345.15625 25.214844 343.632812 C 39.53125 352.929688 46.308594 357.1875 65.820312 362.558594 C 73.574219 364.667969 65.214844 372.363281 64.414062 374.414062 C 59.101562 372.070312 55.039062 369.296875 51.132812 365.898438 " transform="matrix(0.2,0,0,0.2,0,0)"/>
<path style="fill-rule:evenodd;fill:rgb(100%,79.215688%,0%);fill-opacity:1;stroke-width:1;stroke-linecap:butt;stroke-linejoin:miter;stroke:rgb(0%,15.686275%,40.784314%);stroke-opacity:1;stroke-miterlimit:4;" d="M 51.386719 366.074219 C 80.527344 392.1875 176.933594 391.5625 203.789062 365.273438 C 204.648438 365.566406 222.03125 394.238281 221.171875 393.925781 C 168.4375 430.058594 73.964844 423.867188 34.316406 395.351562 L 34.785156 393.652344 Z M 51.386719 366.074219 " transform="matrix(0.2,0,0,0.2,0,0)"/>
<path style="fill:none;stroke-width:1;stroke-linecap:butt;stroke-linejoin:miter;stroke:rgb(0%,15.686275%,40.784314%);stroke-opacity:1;stroke-miterlimit:4;" d="M 51.464844 366.054688 C 52.5 365.019531 54.589844 365.273438 57.441406 365.800781 C 59.726562 366.074219 62.324219 366.171875 64.375 366.40625 C 67.753906 366.132812 69.707031 365.351562 68.300781 363.789062 " transform="matrix(0.2,0,0,0.2,0,0)"/>
<path style="fill-rule:evenodd;fill:rgb(100%,79.215688%,0%);fill-opacity:1;stroke-width:1;stroke-linecap:butt;stroke-linejoin:miter;stroke:rgb(0%,15.686275%,40.784314%);stroke-opacity:1;stroke-miterlimit:4;" d="M 217.265625 386.523438 C 232.910156 377.988281 235.742188 374.433594 244.296875 367.890625 L 225.3125 367.5 C 225.527344 365.761719 229.6875 344.238281 230.078125 342.714844 C 215.78125 352.011719 208.984375 356.269531 189.472656 361.640625 C 181.71875 363.75 190.351562 371.582031 191.171875 373.632812 C 196.464844 371.289062 200.957031 368.515625 204.179688 364.980469 " transform="matrix(0.2,0,0,0.2,0,0)"/>
<path style="fill:none;stroke-width:1;stroke-linecap:butt;stroke-linejoin:miter;stroke:rgb(0%,15.686275%,40.784314%);stroke-opacity:1;stroke-miterlimit:4;" d="M 203.613281 365.136719 C 201.855469 364.355469 200.058594 364.707031 197.851562 364.882812 C 195.78125 365.175781 193.417969 365.527344 191.074219 365.605469 C 187.167969 365.566406 185.761719 363.984375 186.992188 362.871094 " transform="matrix(0.2,0,0,0.2,0,0)"/>
<path style="fill:none;stroke-width:3.125;stroke-linecap:round;stroke-linejoin:round;stroke:rgb(0%,15.686275%,40.784314%);stroke-opacity:1;stroke-miterlimit:4;" d="M 126.71875 400.3125 C 127.988281 395.996094 130.839844 396.523438 133.398438 397.128906 C 135.429688 398.515625 135.722656 402.363281 133.769531 404.589844 L 130.175781 407.324219 C 128.671875 408.320312 127.167969 410.195312 127.226562 412.285156 L 135.917969 412.109375 " transform="matrix(0.2,0,0,0.2,0,0)"/>
<path style="fill:none;stroke-width:3.124998;stroke-linecap:round;stroke-linejoin:round;stroke:rgb(0%,15.686275%,40.784314%);stroke-opacity:1;stroke-miterlimit:4;" d="M 117.949219 399.726562 C 119.511719 398.867188 119.902344 398.535156 121.113281 396.777344 L 120.429688 412.363281 " transform="matrix(0.2,0,0,0.2,0,0)"/>
<path style="fill:none;stroke-width:3.125001;stroke-linecap:round;stroke-linejoin:miter;stroke:rgb(0%,15.686275%,40.784314%);stroke-opacity:1;stroke-miterlimit:4;" d="M 98.769531 392.871094 C 98.769531 392.96875 96.113281 409.140625 96.015625 409.804688 L 104.433594 410.996094 " transform="matrix(0.2,0,0,0.2,0,0)"/>
<path style="fill:none;stroke-width:3.124999;stroke-linecap:round;stroke-linejoin:round;stroke:rgb(0%,15.686275%,40.784314%);stroke-opacity:1;stroke-miterlimit:4;" d="M 88.886719 408.945312 L 91.464844 391.308594 " transform="matrix(0.2,0,0,0.2,0,0)"/>
<path style="fill:none;stroke-width:3.124999;stroke-linecap:round;stroke-linejoin:miter;stroke:rgb(0%,15.686275%,40.784314%);stroke-opacity:1;stroke-miterlimit:4;" d="M 58.789062 399.6875 L 65.214844 383.378906 C 67.148438 384.335938 69.628906 384.726562 71.757812 386.640625 C 73.144531 388.945312 72.5 393.671875 68.535156 394.121094 C 66.328125 393.828125 64.511719 392.773438 62.578125 391.894531 " transform="matrix(0.2,0,0,0.2,0,0)"/>
<path style="fill:none;stroke-width:3.084307;stroke-linecap:round;stroke-linejoin:round;stroke:rgb(0%,15.686275%,40.784314%);stroke-opacity:1;stroke-miterlimit:4;" d="M 163.90625 396.386719 C 165.175781 395.15625 166.035156 393.90625 166.777344 391.875 L 170.058594 409.199219 " transform="matrix(0.2,0,0,0.2,0,0)"/>
<path style="fill:none;stroke-width:3.125003;stroke-linecap:round;stroke-linejoin:round;stroke:rgb(0%,15.686275%,40.784314%);stroke-opacity:1;stroke-miterlimit:4;" d="M 171.328125 391.40625 C 171.523438 391.347656 179.726562 388.476562 179.726562 388.476562 C 179.355469 394.765625 179.238281 400.800781 180.019531 406.367188 " transform="matrix(0.2,0,0,0.2,0,0)"/>
<path style="fill:none;stroke-width:3.124997;stroke-linecap:round;stroke-linejoin:round;stroke:rgb(0%,15.686275%,40.784314%);stroke-opacity:1;stroke-miterlimit:4;" d="M 184.042969 386.992188 L 192.460938 383.710938 C 192.089844 390.078125 191.699219 396.855469 192.871094 401.640625 " transform="matrix(0.2,0,0,0.2,0,0)"/>
<path style="fill:none;stroke-width:3.124996;stroke-linecap:round;stroke-linejoin:round;stroke:rgb(0%,15.686275%,40.784314%);stroke-opacity:1;stroke-miterlimit:4;" d="M 204.042969 380.410156 C 203.085938 378.808594 201.601562 378.222656 199.550781 378.769531 C 197.636719 380.449219 197.265625 381.777344 197.128906 383.828125 C 197.207031 386.347656 197.910156 388.847656 199.0625 391.074219 C 199.84375 393.164062 201.5625 394.648438 202.832031 394.980469 C 204.296875 395.507812 205.390625 395.371094 206.542969 394.375 C 207.441406 393.242188 207.851562 391.367188 207.753906 389.941406 C 207.480469 388.066406 206.640625 386.347656 204.707031 385.351562 C 203.222656 384.746094 202.617188 384.609375 201.269531 385.195312 C 199.238281 386.386719 198.867188 388.613281 199.160156 390.898438 " transform="matrix(0.2,0,0,0.2,0,0)"/>
<path style="fill:none;stroke-width:2.249999;stroke-linecap:round;stroke-linejoin:round;stroke:rgb(0%,15.686275%,40.784314%);stroke-opacity:1;stroke-miterlimit:4;" d="M 138.007812 401.699219 C 141.015625 401.5625 143.945312 401.503906 143.945312 401.503906 " transform="matrix(0.2,0,0,0.2,0,0)"/>
<path style="fill:none;stroke-width:2.250001;stroke-linecap:round;stroke-linejoin:round;stroke:rgb(0%,15.686275%,40.784314%);stroke-opacity:1;stroke-miterlimit:4;" d="M 140.058594 397.089844 L 140.625 409.0625 C 140.742188 411.347656 141.484375 411.933594 143.457031 411.816406 " transform="matrix(0.2,0,0,0.2,0,0)"/>
<path style="fill:none;stroke-width:2.250004;stroke-linecap:round;stroke-linejoin:round;stroke:rgb(0%,15.686275%,40.784314%);stroke-opacity:1;stroke-miterlimit:4;" d="M 145.9375 396.972656 L 147.597656 411.289062 M 154.257812 411.015625 C 153.632812 400.644531 152.246094 400.46875 147.304688 401.191406 " transform="matrix(0.2,0,0,0.2,0,0)"/>
<path style="fill:none;stroke-width:3.125001;stroke-linecap:round;stroke-linejoin:round;stroke:rgb(0%,15.686275%,40.784314%);stroke-opacity:1;stroke-miterlimit:4;" d="M 43.75 392.402344 C 43.75 392.402344 56.640625 378.886719 56.757812 379.023438 C 57.324219 378.515625 54.238281 397.578125 54.238281 397.578125 M 48.457031 387.695312 L 55.136719 390.898438 " transform="matrix(0.2,0,0,0.2,0,0)"/>
<path style="fill:none;stroke-width:3.124999;stroke-linecap:round;stroke-linejoin:miter;stroke:rgb(0%,15.686275%,40.784314%);stroke-opacity:1;stroke-miterlimit:4;" d="M 72.792969 405.546875 C 72.792969 405.449219 77.480469 388.046875 77.480469 388.046875 C 79.492188 388.515625 81.601562 388.828125 83.515625 389.492188 C 84.84375 389.941406 86.894531 391.601562 86.09375 394.277344 C 85.742188 395.898438 84.980469 397.34375 83.828125 398.242188 " transform="matrix(0.2,0,0,0.2,0,0)"/>
<path style="fill:none;stroke-width:3.124999;stroke-linecap:round;stroke-linejoin:round;stroke:rgb(0%,15.686275%,40.784314%);stroke-opacity:1;stroke-miterlimit:4;" d="M 75.429688 396.542969 L 81.835938 398.183594 C 83.554688 398.808594 83.984375 400.3125 83.984375 400.410156 C 84.296875 401.835938 83.222656 407.949219 83.222656 407.949219 " transform="matrix(0.2,0,0,0.2,0,0)"/>
</g>
</svg>
