<?xml version="1.0" encoding="UTF-8"?>
<svg xmlns="http://www.w3.org/2000/svg" xmlns:xlink="http://www.w3.org/1999/xlink" width="150px" height="150px" viewBox="0 0 150 89" version="1.1">
<g id="surface1">
<path style=" stroke:none;fill-rule:evenodd;fill:rgb(2.352941%,1.568628%,1.568628%);fill-opacity:1;" d="M 0 44.574219 L 0 89.144531 L 150 89.144531 L 150 0 L 0 0 L 0 44.574219 M 145.949219 4.492188 L 146.148438 4.695312 L 146.148438 44.605469 L 146.144531 84.519531 L 145.933594 84.683594 C 145.726562 84.847656 144.003906 84.851562 75.453125 84.851562 L 5.183594 84.851562 L 4.738281 84.375 L 4.742188 44.578125 L 4.742188 4.777344 L 4.984375 4.535156 L 5.222656 4.292969 L 145.75 4.292969 L 145.949219 4.492188 "/>
<path style=" stroke:none;fill-rule:evenodd;fill:rgb(80.000001%,3.137255%,3.137255%);fill-opacity:1;" d="M 4.984375 4.535156 L 4.742188 4.777344 L 4.742188 44.578125 L 4.738281 84.375 L 5.183594 84.851562 L 75.453125 84.851562 C 144.003906 84.851562 145.726562 84.847656 145.933594 84.683594 L 146.144531 84.519531 L 146.148438 44.605469 L 146.148438 4.695312 L 145.949219 4.492188 L 145.75 4.292969 L 5.222656 4.292969 L 4.984375 4.535156 M 62.839844 4.671875 L 63.027344 4.839844 L 63.027344 18.859375 C 63.027344 34.386719 63.070312 33.257812 62.429688 33.75 L 62.09375 34.007812 L 5.28125 34.054688 L 5.109375 33.867188 C 4.945312 33.683594 4.941406 33.308594 4.917969 19.273438 L 4.894531 4.871094 L 5.285156 4.457031 L 33.96875 4.480469 C 62.035156 4.5 62.65625 4.503906 62.839844 4.671875 M 145.890625 4.664062 L 146.085938 4.871094 L 146.0625 19.222656 C 146.039062 32.796875 146.03125 33.585938 145.878906 33.8125 L 145.722656 34.054688 L 116.796875 34.03125 L 87.875 34.007812 L 87.546875 33.695312 C 86.96875 33.148438 87.003906 34.121094 87.011719 18.808594 L 87.019531 4.769531 L 87.328125 4.613281 C 87.625 4.464844 89.210938 4.457031 116.667969 4.457031 L 145.695312 4.457031 L 145.890625 4.664062 M 75.289062 16.207031 C 76.34375 17.242188 76.355469 17.296875 75.699219 18.03125 C 75.535156 18.214844 75.402344 18.433594 75.402344 18.523438 C 75.402344 18.714844 75.816406 19.34375 75.941406 19.34375 C 75.992188 19.34375 76.128906 19.558594 76.246094 19.824219 C 76.515625 20.433594 76.441406 20.414062 78.5 20.417969 C 80.535156 20.425781 80.761719 20.476562 81.117188 21.003906 C 81.25 21.207031 81.503906 21.441406 81.679688 21.523438 C 82.296875 21.816406 82.34375 22 82.34375 24.121094 C 82.34375 26.25 82.34375 26.25 81.609375 26.433594 C 81.222656 26.53125 81.1875 26.574219 81 27.179688 C 80.90625 27.476562 80.800781 27.609375 80.5625 27.734375 C 80.023438 28.011719 80.03125 27.988281 80.03125 29.320312 C 80.03125 30.925781 79.933594 31.203125 79.332031 31.332031 C 79.0625 31.390625 79.003906 31.359375 78.640625 30.984375 C 77.933594 30.246094 76.75 30.144531 76.621094 30.8125 C 76.574219 31.074219 76.898438 31.429688 79.148438 33.5625 C 79.511719 33.90625 79.898438 34.304688 80.007812 34.453125 C 80.121094 34.597656 80.574219 35.046875 81.019531 35.453125 L 81.828125 36.191406 L 86.535156 36.191406 C 91.804688 36.191406 91.882812 36.203125 91.992188 36.75 C 92.074219 37.152344 92.035156 37.195312 88.96875 40.253906 C 86.082031 43.128906 86.117188 43.089844 86.0625 43.816406 C 86.035156 44.160156 86.324219 44.519531 87.710938 45.839844 C 88.542969 46.636719 89.390625 47.46875 89.59375 47.683594 C 89.792969 47.902344 90.09375 48.203125 90.265625 48.351562 C 90.4375 48.503906 90.675781 48.742188 90.800781 48.878906 C 90.921875 49.019531 91.234375 49.355469 91.488281 49.625 C 92.03125 50.199219 92.101562 50.367188 91.941406 50.699219 C 91.730469 51.136719 91.511719 51.15625 86.484375 51.164062 C 82.234375 51.171875 81.835938 51.183594 81.628906 51.328125 C 81.503906 51.410156 79.875 53.015625 78.007812 54.890625 C 75.214844 57.699219 74.574219 58.300781 74.375 58.300781 C 74.175781 58.300781 73.515625 57.683594 70.648438 54.820312 C 68.734375 52.90625 67.105469 51.304688 67.03125 51.257812 C 66.953125 51.207031 65.011719 51.167969 62.269531 51.164062 C 57.171875 51.15625 57.128906 51.152344 56.867188 50.640625 C 56.660156 50.234375 56.578125 50.332031 59.703125 47.191406 C 63.558594 43.316406 63.5625 44.054688 59.6875 40.15625 C 56.722656 37.167969 56.753906 37.203125 56.832031 36.792969 C 56.945312 36.171875 56.851562 36.183594 62.113281 36.191406 C 67.445312 36.195312 66.996094 36.257812 67.808594 35.390625 C 68.089844 35.089844 69.15625 34.007812 70.171875 32.980469 C 72.300781 30.832031 72.425781 30.585938 71.453125 30.429688 C 70.980469 30.351562 70.765625 30.4375 70.203125 30.929688 C 69.65625 31.410156 69.5 31.457031 69.1875 31.238281 C 68.796875 30.964844 68.722656 30.671875 68.722656 29.339844 L 68.722656 28.09375 L 68.480469 27.90625 C 68.34375 27.800781 68.140625 27.648438 68.023438 27.5625 C 67.722656 27.335938 67.640625 26.609375 67.90625 26.527344 C 68.246094 26.417969 68.886719 26.898438 69.039062 27.375 C 69.074219 27.492188 69.175781 27.546875 69.351562 27.546875 C 69.796875 27.546875 69.917969 27.234375 69.976562 25.917969 C 70.035156 24.660156 70.148438 24.363281 70.625 24.238281 C 71.171875 24.089844 71.328125 24.410156 71.375 25.769531 C 71.425781 27.140625 71.496094 27.316406 72.039062 27.460938 C 73.148438 27.761719 73.726562 27.226562 73.085938 26.5 C 72.890625 26.277344 72.730469 26.023438 72.730469 25.933594 C 72.730469 25.722656 72.914062 25.316406 73.011719 25.316406 C 73.246094 25.316406 73.621094 24.5625 73.621094 24.09375 C 73.621094 23.570312 73.539062 23.410156 72.953125 22.773438 C 72.773438 22.578125 72.574219 22.292969 72.507812 22.140625 C 72.34375 21.75 72.1875 21.722656 70.5 21.792969 C 69.679688 21.828125 68.703125 21.828125 68.332031 21.792969 L 67.65625 21.730469 L 67.65625 21.3125 C 67.65625 20.503906 67.765625 20.464844 70.089844 20.433594 C 72.554688 20.402344 72.417969 20.433594 72.550781 19.878906 C 72.625 19.566406 72.734375 19.378906 72.90625 19.257812 C 73.484375 18.84375 73.542969 18.378906 73.070312 17.945312 C 72.710938 17.621094 72.609375 17.308594 72.78125 17.042969 C 73.109375 16.523438 74.226562 15.546875 74.523438 15.515625 C 74.554688 15.515625 74.898438 15.824219 75.289062 16.207031 M 72.9375 20.503906 C 72.671875 20.613281 72.59375 20.910156 72.769531 21.175781 C 72.960938 21.472656 75.773438 21.5625 75.949219 21.28125 C 76.082031 21.074219 76.027344 20.691406 75.851562 20.597656 C 75.632812 20.476562 73.191406 20.398438 72.9375 20.503906 M 67.613281 21.953125 C 67.640625 22.0625 67.648438 23.09375 67.636719 24.246094 L 67.613281 26.34375 L 67.242188 26.371094 C 66.957031 26.390625 66.820312 26.347656 66.621094 26.175781 L 66.363281 25.957031 L 66.363281 24.140625 C 66.363281 21.894531 66.398438 21.808594 67.320312 21.765625 C 67.503906 21.753906 67.574219 21.800781 67.613281 21.953125 M 76.554688 21.859375 C 76.460938 21.894531 76.324219 22.070312 76.25 22.25 C 76.171875 22.429688 75.894531 22.792969 75.625 23.054688 C 74.851562 23.8125 74.851562 24.257812 75.625 25.074219 C 75.894531 25.355469 76.113281 25.621094 76.113281 25.667969 C 76.113281 25.710938 76.132812 25.804688 76.160156 25.875 C 76.1875 25.945312 76.050781 26.207031 75.851562 26.460938 C 75.339844 27.105469 75.484375 27.636719 76.167969 27.636719 C 77.023438 27.636719 77.359375 27.175781 77.359375 25.996094 C 77.359375 24.664062 77.453125 24.398438 77.980469 24.25 C 78.519531 24.09375 78.644531 24.351562 78.695312 25.734375 L 78.738281 26.9375 L 79.03125 27.195312 C 79.4375 27.5625 79.605469 27.53125 79.976562 27.007812 C 80.207031 26.691406 80.378906 26.542969 80.574219 26.503906 C 80.976562 26.425781 81.007812 26.234375 81.007812 23.9375 C 81.007812 21.957031 81 21.851562 80.835938 21.796875 C 80.605469 21.726562 76.773438 21.78125 76.554688 21.859375 M 73.304688 35.210938 C 73.203125 35.25 72.925781 35.5 72.691406 35.761719 C 72.457031 36.023438 71.898438 36.570312 71.449219 36.976562 C 70.226562 38.089844 70.3125 37.652344 70.355469 42.53125 C 70.394531 47.125 70.351562 46.785156 70.996094 47.519531 C 71.289062 47.855469 71.394531 48.6875 71.394531 50.734375 C 71.394531 52.078125 71.652344 52.238281 73.765625 52.238281 C 76.101562 52.238281 76.101562 52.238281 76.109375 49.625 L 76.113281 47.949219 L 77.507812 46.507812 C 78.277344 45.710938 79.183594 44.828125 79.523438 44.542969 C 80.648438 43.601562 81.007812 43.066406 81.007812 42.355469 C 81.007812 41.371094 79.617188 41.128906 78.703125 41.953125 C 78.171875 42.429688 77.808594 42.480469 77.5625 42.101562 C 77.421875 41.890625 77.398438 41.558594 77.359375 39.390625 C 77.304688 36.472656 77.300781 36.460938 76.40625 36.460938 C 75.847656 36.460938 75.566406 36.332031 75.132812 35.882812 C 74.472656 35.199219 73.871094 34.976562 73.304688 35.210938 M 62.417969 57.257812 C 63.070312 57.757812 63.027344 56.734375 63.027344 71.28125 L 63.027344 84.347656 L 62.828125 84.515625 C 62.515625 84.773438 5.277344 84.785156 5.042969 84.523438 C 4.796875 84.25 4.863281 57.425781 5.109375 57.152344 L 5.28125 56.964844 L 33.6875 56.984375 L 62.09375 57.007812 L 62.417969 57.257812 M 145.878906 57.207031 C 146.03125 57.433594 146.039062 58.191406 146.0625 70.859375 L 146.085938 84.273438 L 145.695312 84.6875 L 116.566406 84.6875 C 88.953125 84.6875 87.429688 84.679688 87.253906 84.53125 C 87.0625 84.367188 86.882812 58.878906 87.066406 58.054688 C 87.140625 57.730469 87.601562 57.179688 87.90625 57.050781 C 88.003906 57.007812 101.054688 56.972656 116.90625 56.96875 L 145.722656 56.964844 L 145.878906 57.207031 "/>
<path style=" stroke:none;fill-rule:evenodd;fill:rgb(98.431373%,98.431373%,98.431373%);fill-opacity:1;" d="M 5.09375 4.652344 C 4.910156 4.835938 4.941406 33.503906 5.125 33.765625 L 5.261719 33.964844 L 33.367188 33.964844 C 63.851562 33.960938 61.9375 33.988281 62.449219 33.558594 L 62.804688 33.257812 L 62.828125 19.015625 C 62.847656 5.6875 62.839844 4.761719 62.699219 4.65625 C 62.480469 4.5 5.25 4.492188 5.09375 4.652344 M 87.296875 4.710938 C 87.117188 4.910156 87.066406 32.640625 87.246094 33.125 C 87.300781 33.269531 87.488281 33.503906 87.664062 33.652344 L 87.984375 33.917969 L 116.792969 33.941406 C 141.628906 33.960938 145.625 33.949219 145.777344 33.839844 C 146.035156 33.648438 146.097656 4.867188 145.839844 4.671875 C 145.554688 4.457031 87.496094 4.492188 87.296875 4.710938 M 72.90625 30.34375 C 72.707031 30.417969 72.503906 30.597656 72.328125 30.855469 C 72.183594 31.074219 71.261719 32.058594 70.28125 33.042969 C 69.300781 34.027344 68.242188 35.117188 67.929688 35.460938 C 67.097656 36.375 67.539062 36.308594 62.292969 36.289062 C 57.242188 36.265625 57.144531 36.277344 56.980469 36.746094 C 56.847656 37.132812 56.757812 37.03125 59.898438 40.1875 C 63.476562 43.789062 63.441406 43.695312 61.753906 45.300781 C 61.253906 45.777344 60.816406 46.199219 60.777344 46.238281 C 60.742188 46.277344 59.851562 47.195312 58.796875 48.273438 C 57.746094 49.351562 56.882812 50.265625 56.882812 50.304688 C 56.882812 50.464844 57.152344 50.882812 57.289062 50.9375 C 57.367188 50.964844 59.53125 50.992188 62.09375 50.992188 C 67.378906 50.992188 66.957031 50.929688 67.835938 51.839844 C 68.203125 52.21875 68.738281 52.753906 69.027344 53.03125 C 69.679688 53.648438 70.230469 54.207031 71.660156 55.675781 C 73.183594 57.242188 74.128906 58.105469 74.359375 58.140625 C 74.515625 58.164062 75.28125 57.441406 77.980469 54.738281 C 79.863281 52.847656 81.503906 51.234375 81.628906 51.148438 C 81.835938 51.003906 82.238281 50.992188 86.667969 50.992188 C 91.816406 50.992188 91.648438 51.007812 91.84375 50.539062 C 91.972656 50.234375 90.417969 48.570312 86.777344 45.113281 C 85.445312 43.847656 85.519531 43.527344 87.644531 41.417969 C 88.492188 40.578125 89.230469 39.851562 89.285156 39.804688 C 90.066406 39.117188 91.871094 37.121094 91.871094 36.941406 C 91.871094 36.355469 92.023438 36.371094 86.726562 36.367188 C 83.144531 36.367188 81.894531 36.339844 81.753906 36.257812 C 81.542969 36.136719 80.234375 34.898438 79.800781 34.40625 C 79.652344 34.238281 78.828125 33.414062 77.972656 32.582031 C 77.113281 31.746094 76.339844 30.9375 76.25 30.785156 C 75.929688 30.246094 73.929688 29.980469 72.90625 30.34375 M 74.539062 35.210938 C 74.765625 35.355469 74.957031 35.507812 74.957031 35.546875 C 74.960938 35.789062 75.707031 36.210938 76.269531 36.292969 C 77.460938 36.457031 77.394531 36.285156 77.449219 39.367188 C 77.496094 42.042969 77.503906 42.09375 77.953125 42.207031 C 78.144531 42.253906 78.253906 42.203125 78.550781 41.910156 C 79.445312 41.035156 80.933594 41.183594 81.128906 42.160156 C 81.277344 42.902344 80.890625 43.535156 79.648438 44.605469 C 79.292969 44.90625 78.566406 45.609375 78.027344 46.167969 C 77.488281 46.726562 76.914062 47.308594 76.75 47.460938 C 76.261719 47.910156 76.25 47.96875 76.203125 49.953125 L 76.15625 51.808594 L 75.867188 52.070312 L 75.574219 52.328125 L 72.03125 52.328125 L 71.753906 52.09375 C 71.277344 51.691406 71.214844 51.417969 71.214844 49.617188 C 71.214844 47.882812 71.21875 47.886719 70.703125 47.335938 C 70.238281 46.84375 70.25 46.933594 70.21875 42.46875 C 70.1875 37.554688 70.082031 38.058594 71.402344 36.839844 C 71.921875 36.363281 72.503906 35.792969 72.695312 35.578125 C 73.300781 34.890625 73.859375 34.78125 74.539062 35.210938 M 5.152344 57.199219 C 4.933594 57.464844 4.929688 84.34375 5.148438 84.539062 C 5.375 84.746094 62.453125 84.730469 62.703125 84.523438 C 62.878906 84.375 62.933594 58.179688 62.757812 57.851562 C 62.582031 57.527344 62.1875 57.203125 61.875 57.132812 C 61.179688 56.96875 5.285156 57.039062 5.152344 57.199219 M 88.128906 57.117188 C 87.871094 57.164062 87.457031 57.53125 87.277344 57.875 C 87.070312 58.269531 87.089844 84.347656 87.296875 84.523438 C 87.546875 84.730469 145.601562 84.746094 145.832031 84.539062 C 146.09375 84.304688 146.042969 57.53125 145.78125 57.242188 L 145.609375 57.054688 L 116.980469 57.066406 C 101.234375 57.074219 88.253906 57.09375 88.128906 57.117188 "/>
<path style=" stroke:none;fill-rule:evenodd;fill:rgb(98.039216%,93.333334%,8.235294%);fill-opacity:1;" d="M 19.519531 4.523438 C 27.386719 4.535156 40.265625 4.535156 48.136719 4.523438 C 56.007812 4.511719 49.570312 4.5 33.828125 4.5 C 18.085938 4.5 11.648438 4.511719 19.519531 4.523438 M 116.609375 4.523438 C 139.671875 4.542969 145.695312 4.570312 145.808594 4.65625 C 145.933594 4.757812 145.9375 4.75 145.828125 4.613281 C 145.710938 4.464844 144.230469 4.457031 116.628906 4.480469 L 87.550781 4.5 L 116.609375 4.523438 M 62.699219 4.65625 C 62.839844 4.761719 62.847656 5.6875 62.828125 19.015625 L 62.804688 33.257812 L 62.449219 33.558594 C 61.9375 33.988281 63.851562 33.960938 33.367188 33.964844 L 5.261719 33.964844 L 5.125 33.765625 C 5.046875 33.65625 4.984375 33.609375 4.984375 33.664062 C 4.984375 34.078125 3.175781 34.054688 33.703125 34.03125 L 62.09375 34.007812 L 62.429688 33.75 C 63.070312 33.257812 63.027344 34.386719 63.027344 18.859375 C 63.027344 3.726562 63.050781 4.546875 62.625 4.546875 C 62.582031 4.546875 62.617188 4.597656 62.699219 4.65625 M 87.191406 4.671875 C 86.980469 4.820312 86.914062 32.832031 87.125 33.207031 C 87.179688 33.304688 87.371094 33.527344 87.550781 33.695312 L 87.875 34.007812 L 116.789062 34.03125 C 143.707031 34.054688 145.710938 34.042969 145.828125 33.90625 C 145.9375 33.769531 145.929688 33.765625 145.753906 33.863281 C 145.605469 33.941406 138.636719 33.960938 116.769531 33.941406 L 87.984375 33.917969 L 87.664062 33.652344 C 87.488281 33.503906 87.300781 33.269531 87.246094 33.125 C 87.066406 32.640625 87.117188 4.910156 87.296875 4.710938 C 87.472656 4.515625 87.433594 4.5 87.191406 4.671875 M 4.941406 19.167969 C 4.941406 27.085938 4.949219 30.324219 4.960938 26.363281 C 4.976562 22.40625 4.976562 15.925781 4.960938 11.96875 C 4.949219 8.007812 4.941406 11.25 4.941406 19.167969 M 146.039062 19.078125 C 146.039062 26.945312 146.046875 30.164062 146.0625 26.230469 C 146.074219 22.296875 146.074219 15.859375 146.0625 11.921875 C 146.046875 7.988281 146.039062 11.207031 146.039062 19.078125 M 74.285156 15.597656 C 74.058594 15.6875 72.984375 16.71875 72.78125 17.042969 C 72.609375 17.308594 72.710938 17.621094 73.070312 17.945312 C 73.542969 18.378906 73.484375 18.84375 72.90625 19.257812 C 72.734375 19.378906 72.625 19.566406 72.550781 19.878906 C 72.417969 20.433594 72.554688 20.402344 70.089844 20.433594 C 67.765625 20.464844 67.65625 20.503906 67.65625 21.3125 L 67.65625 21.730469 L 68.332031 21.792969 C 68.703125 21.828125 69.679688 21.828125 70.5 21.792969 C 72.1875 21.722656 72.34375 21.75 72.507812 22.140625 C 72.574219 22.292969 72.773438 22.578125 72.953125 22.773438 C 73.539062 23.410156 73.621094 23.570312 73.621094 24.09375 C 73.621094 24.5625 73.246094 25.316406 73.011719 25.316406 C 72.914062 25.316406 72.730469 25.722656 72.730469 25.933594 C 72.730469 26.023438 72.890625 26.277344 73.085938 26.5 C 73.726562 27.226562 73.148438 27.761719 72.039062 27.460938 C 71.496094 27.316406 71.425781 27.140625 71.375 25.769531 C 71.328125 24.410156 71.171875 24.089844 70.625 24.238281 C 70.148438 24.363281 70.035156 24.660156 69.976562 25.917969 C 69.917969 27.234375 69.796875 27.546875 69.351562 27.546875 C 69.175781 27.546875 69.074219 27.492188 69.039062 27.375 C 68.886719 26.898438 68.246094 26.417969 67.90625 26.527344 C 67.640625 26.609375 67.722656 27.335938 68.023438 27.5625 C 68.140625 27.648438 68.34375 27.800781 68.480469 27.90625 L 68.722656 28.09375 L 68.722656 29.339844 C 68.722656 30.671875 68.796875 30.964844 69.1875 31.238281 C 69.5 31.457031 69.65625 31.410156 70.203125 30.929688 C 70.765625 30.4375 70.980469 30.351562 71.453125 30.429688 C 72.425781 30.585938 72.300781 30.832031 70.171875 32.980469 C 69.15625 34.007812 68.089844 35.089844 67.808594 35.390625 C 66.996094 36.257812 67.445312 36.195312 62.113281 36.191406 C 56.851562 36.183594 56.945312 36.171875 56.832031 36.792969 C 56.753906 37.203125 56.722656 37.167969 59.6875 40.15625 C 63.5625 44.054688 63.558594 43.316406 59.703125 47.191406 C 56.578125 50.332031 56.660156 50.234375 56.867188 50.640625 C 57.128906 51.152344 57.171875 51.15625 62.269531 51.164062 C 65.011719 51.167969 66.953125 51.207031 67.03125 51.257812 C 67.105469 51.304688 68.734375 52.90625 70.648438 54.820312 C 73.515625 57.683594 74.175781 58.300781 74.375 58.300781 C 74.574219 58.300781 75.214844 57.699219 78.007812 54.890625 C 79.875 53.015625 81.503906 51.410156 81.628906 51.328125 C 81.835938 51.183594 82.234375 51.171875 86.484375 51.164062 C 91.511719 51.15625 91.730469 51.136719 91.941406 50.699219 C 92.101562 50.367188 92.03125 50.199219 91.488281 49.625 C 91.234375 49.355469 90.921875 49.019531 90.800781 48.878906 C 90.675781 48.742188 90.4375 48.503906 90.265625 48.351562 C 90.09375 48.203125 89.792969 47.902344 89.59375 47.683594 C 89.390625 47.46875 88.542969 46.636719 87.710938 45.839844 C 86.324219 44.519531 86.035156 44.160156 86.0625 43.816406 C 86.117188 43.089844 86.082031 43.128906 88.96875 40.253906 C 92.035156 37.195312 92.074219 37.152344 91.992188 36.75 C 91.882812 36.203125 91.804688 36.191406 86.535156 36.191406 L 81.828125 36.191406 L 81.019531 35.453125 C 80.574219 35.046875 80.121094 34.597656 80.007812 34.453125 C 79.898438 34.304688 79.511719 33.90625 79.148438 33.5625 C 76.898438 31.429688 76.574219 31.074219 76.621094 30.8125 C 76.75 30.144531 77.933594 30.246094 78.640625 30.984375 C 79.003906 31.359375 79.0625 31.390625 79.332031 31.332031 C 79.933594 31.203125 80.03125 30.925781 80.03125 29.320312 C 80.03125 27.988281 80.023438 28.011719 80.5625 27.734375 C 80.800781 27.609375 80.90625 27.476562 81 27.179688 C 81.1875 26.574219 81.222656 26.53125 81.609375 26.433594 C 82.34375 26.25 82.34375 26.25 82.34375 24.121094 C 82.34375 22 82.296875 21.816406 81.679688 21.523438 C 81.503906 21.441406 81.25 21.207031 81.117188 21.003906 C 80.761719 20.476562 80.535156 20.425781 78.5 20.417969 C 76.441406 20.414062 76.515625 20.433594 76.246094 19.824219 C 76.128906 19.558594 75.992188 19.34375 75.941406 19.34375 C 75.816406 19.34375 75.402344 18.714844 75.402344 18.523438 C 75.402344 18.433594 75.535156 18.214844 75.699219 18.03125 C 76.140625 17.535156 76.230469 17.332031 76.105469 17.101562 C 75.988281 16.886719 74.613281 15.507812 74.523438 15.515625 C 74.492188 15.519531 74.382812 15.554688 74.285156 15.597656 M 75.851562 20.597656 C 76.027344 20.691406 76.082031 21.074219 75.949219 21.28125 C 75.773438 21.5625 72.960938 21.472656 72.769531 21.175781 C 72.59375 20.910156 72.671875 20.613281 72.9375 20.503906 C 73.191406 20.398438 75.632812 20.476562 75.851562 20.597656 M 66.875 21.816406 C 66.421875 21.902344 66.363281 22.167969 66.363281 24.140625 L 66.363281 25.957031 L 66.621094 26.175781 C 66.820312 26.347656 66.957031 26.390625 67.242188 26.371094 L 67.613281 26.34375 L 67.636719 24.246094 C 67.667969 21.554688 67.699219 21.65625 66.875 21.816406 M 80.835938 21.796875 C 81 21.851562 81.007812 21.957031 81.007812 23.9375 C 81.007812 26.234375 80.976562 26.425781 80.574219 26.503906 C 80.378906 26.542969 80.207031 26.691406 79.976562 27.007812 C 79.605469 27.53125 79.4375 27.5625 79.03125 27.195312 L 78.738281 26.9375 L 78.695312 25.734375 C 78.644531 24.351562 78.519531 24.09375 77.980469 24.25 C 77.453125 24.398438 77.359375 24.664062 77.359375 25.996094 C 77.359375 27.175781 77.023438 27.636719 76.167969 27.636719 C 75.484375 27.636719 75.339844 27.105469 75.851562 26.460938 C 76.050781 26.207031 76.1875 25.945312 76.160156 25.875 C 76.132812 25.804688 76.113281 25.710938 76.113281 25.667969 C 76.113281 25.621094 75.894531 25.355469 75.625 25.074219 C 74.851562 24.257812 74.851562 23.8125 75.625 23.054688 C 75.894531 22.792969 76.171875 22.429688 76.25 22.25 C 76.324219 22.070312 76.460938 21.894531 76.554688 21.859375 C 76.773438 21.78125 80.605469 21.726562 80.835938 21.796875 M 75.785156 30.363281 C 75.949219 30.445312 76.160156 30.632812 76.25 30.785156 C 76.339844 30.9375 77.113281 31.746094 77.972656 32.582031 C 78.828125 33.414062 79.652344 34.238281 79.800781 34.40625 C 80.234375 34.898438 81.542969 36.136719 81.753906 36.257812 C 81.894531 36.339844 83.144531 36.367188 86.726562 36.367188 C 92.023438 36.371094 91.871094 36.355469 91.871094 36.941406 C 91.871094 37.121094 90.066406 39.117188 89.285156 39.804688 C 89.230469 39.851562 88.492188 40.578125 87.644531 41.417969 C 85.519531 43.527344 85.445312 43.847656 86.777344 45.113281 C 90.417969 48.570312 91.972656 50.234375 91.84375 50.539062 C 91.648438 51.007812 91.816406 50.992188 86.667969 50.992188 C 82.238281 50.992188 81.835938 51.003906 81.628906 51.148438 C 81.503906 51.234375 79.863281 52.847656 77.980469 54.738281 C 75.28125 57.441406 74.515625 58.164062 74.359375 58.140625 C 74.128906 58.105469 73.183594 57.242188 71.660156 55.675781 C 70.230469 54.207031 69.679688 53.648438 69.027344 53.03125 C 68.738281 52.753906 68.203125 52.21875 67.835938 51.839844 C 66.957031 50.929688 67.378906 50.992188 62.09375 50.992188 C 59.53125 50.992188 57.367188 50.964844 57.289062 50.9375 C 57.152344 50.882812 56.882812 50.464844 56.882812 50.304688 C 56.882812 50.265625 57.746094 49.351562 58.796875 48.273438 C 59.851562 47.195312 60.742188 46.277344 60.777344 46.238281 C 60.816406 46.199219 61.253906 45.777344 61.753906 45.300781 C 63.441406 43.695312 63.476562 43.789062 59.898438 40.1875 C 56.757812 37.03125 56.847656 37.132812 56.980469 36.746094 C 57.144531 36.277344 57.242188 36.265625 62.292969 36.289062 C 67.539062 36.308594 67.097656 36.375 67.929688 35.460938 C 68.242188 35.117188 69.300781 34.027344 70.28125 33.042969 C 71.261719 32.058594 72.183594 31.074219 72.328125 30.855469 C 72.6875 30.324219 72.964844 30.234375 74.351562 30.226562 C 75.21875 30.222656 75.554688 30.253906 75.785156 30.363281 M 73.308594 35.070312 C 73.160156 35.132812 72.886719 35.363281 72.695312 35.578125 C 72.503906 35.792969 71.921875 36.363281 71.402344 36.839844 C 70.082031 38.058594 70.1875 37.554688 70.21875 42.46875 C 70.25 46.933594 70.238281 46.84375 70.703125 47.335938 C 71.21875 47.886719 71.214844 47.882812 71.214844 49.617188 C 71.214844 51.417969 71.277344 51.691406 71.753906 52.09375 L 72.03125 52.328125 L 75.574219 52.328125 L 75.867188 52.070312 L 76.15625 51.808594 L 76.203125 49.953125 C 76.25 47.96875 76.261719 47.910156 76.75 47.460938 C 76.914062 47.308594 77.488281 46.726562 78.027344 46.167969 C 78.566406 45.609375 79.292969 44.90625 79.648438 44.605469 C 80.890625 43.535156 81.277344 42.902344 81.128906 42.160156 C 80.933594 41.183594 79.445312 41.035156 78.550781 41.910156 C 78.253906 42.203125 78.144531 42.253906 77.953125 42.207031 C 77.503906 42.09375 77.496094 42.042969 77.449219 39.367188 C 77.394531 36.285156 77.460938 36.457031 76.269531 36.292969 C 75.707031 36.210938 74.960938 35.789062 74.957031 35.546875 C 74.949219 35.1875 73.800781 34.855469 73.308594 35.070312 M 74.488281 35.34375 C 74.671875 35.460938 74.960938 35.707031 75.132812 35.882812 C 75.566406 36.332031 75.847656 36.460938 76.40625 36.460938 C 77.300781 36.460938 77.304688 36.472656 77.359375 39.390625 C 77.398438 41.558594 77.421875 41.890625 77.5625 42.101562 C 77.808594 42.480469 78.171875 42.429688 78.703125 41.953125 C 79.617188 41.128906 81.007812 41.371094 81.007812 42.355469 C 81.007812 43.066406 80.648438 43.601562 79.523438 44.542969 C 79.183594 44.828125 78.277344 45.710938 77.507812 46.507812 L 76.113281 47.949219 L 76.109375 49.625 C 76.101562 52.238281 76.101562 52.238281 73.765625 52.238281 C 71.652344 52.238281 71.394531 52.078125 71.394531 50.734375 C 71.394531 48.6875 71.289062 47.855469 70.996094 47.519531 C 70.351562 46.785156 70.394531 47.125 70.355469 42.53125 C 70.3125 37.652344 70.226562 38.089844 71.449219 36.976562 C 71.898438 36.570312 72.457031 36.023438 72.691406 35.761719 C 73.324219 35.054688 73.863281 34.929688 74.488281 35.34375 M 5.132812 57.125 C 5.050781 57.21875 4.984375 57.347656 4.988281 57.417969 C 4.988281 57.488281 5.039062 57.441406 5.101562 57.320312 L 5.210938 57.097656 L 33.207031 57.070312 C 48.605469 57.058594 61.410156 57.070312 61.660156 57.101562 C 62.128906 57.15625 62.53125 57.429688 62.753906 57.84375 C 62.902344 58.121094 62.886719 84.371094 62.738281 84.488281 C 62.675781 84.539062 62.546875 84.601562 62.449219 84.625 L 62.269531 84.667969 L 62.449219 84.675781 C 62.546875 84.679688 62.714844 84.609375 62.828125 84.515625 L 63.027344 84.347656 L 63.027344 71.28125 C 63.027344 56.734375 63.070312 57.757812 62.417969 57.257812 L 62.09375 57.007812 L 33.6875 56.984375 C 6.238281 56.964844 5.277344 56.96875 5.132812 57.125 M 87.90625 57.050781 C 87.601562 57.179688 87.140625 57.730469 87.066406 58.054688 C 86.929688 58.667969 87.058594 84.363281 87.203125 84.488281 C 87.285156 84.5625 87.296875 84.5625 87.238281 84.492188 C 87.183594 84.421875 87.152344 79.84375 87.152344 71.25 C 87.152344 56.867188 87.113281 57.910156 87.683594 57.367188 L 87.964844 57.097656 L 116.769531 57.074219 C 148.097656 57.050781 145.890625 57.019531 145.914062 57.492188 C 145.917969 57.585938 145.933594 57.597656 145.964844 57.519531 C 145.988281 57.457031 145.945312 57.304688 145.867188 57.183594 L 145.722656 56.964844 L 116.90625 56.96875 C 101.054688 56.972656 88.003906 57.007812 87.90625 57.050781 M 4.917969 70.96875 L 4.894531 84.394531 L 5.097656 84.5625 C 5.296875 84.734375 5.296875 84.734375 5.140625 84.546875 C 4.996094 84.375 4.984375 83.566406 4.960938 70.953125 L 4.941406 57.542969 L 4.917969 70.96875 M 146.039062 71.003906 C 146.039062 78.359375 146.046875 81.355469 146.0625 77.660156 C 146.074219 73.96875 146.074219 67.949219 146.0625 64.289062 C 146.046875 60.628906 146.039062 63.652344 146.039062 71.003906 "/>
</g>
</svg>
