<?xml version="1.0" encoding="UTF-8"?>
<svg xmlns="http://www.w3.org/2000/svg" xmlns:xlink="http://www.w3.org/1999/xlink" width="150px" height="150px" viewBox="0 0 150 150" version="1.1">
<g id="surface1">
<path style=" stroke:none;fill-rule:evenodd;fill:rgb(97.254902%,97.254902%,97.254902%);fill-opacity:1;" d="M 72.960938 33.214844 C 70.523438 33.355469 65.945312 34.042969 65.472656 34.335938 C 65.320312 34.429688 65.367188 34.539062 65.738281 34.980469 C 66.199219 35.53125 66.792969 36.808594 66.933594 37.554688 C 67.011719 37.976562 67.035156 41.554688 67.011719 50.445312 L 66.984375 62.753906 L 66.722656 63.410156 C 65.925781 65.417969 64.304688 66.84375 62.421875 67.199219 C 62.003906 67.277344 58.316406 67.296875 49.496094 67.277344 L 37.160156 67.25 L 36.390625 66.914062 C 35.96875 66.730469 35.339844 66.363281 34.996094 66.101562 C 34.222656 65.519531 34.234375 65.507812 33.941406 66.96875 C 32.746094 72.84375 32.722656 78.351562 33.867188 84.238281 C 34.1875 85.90625 34.140625 85.851562 34.839844 85.3125 C 35.457031 84.84375 36.054688 84.550781 36.867188 84.332031 C 37.890625 84.050781 61.457031 84.039062 62.46875 84.316406 C 64.414062 84.851562 65.878906 86.226562 66.523438 88.132812 L 66.789062 88.933594 L 66.789062 101.238281 C 66.789062 111.394531 66.765625 113.640625 66.65625 114.085938 C 66.460938 114.863281 66.046875 115.746094 65.570312 116.375 C 65.066406 117.046875 65.054688 117.03125 66.464844 117.347656 C 72.230469 118.636719 79.558594 118.5625 85.132812 117.15625 C 85.476562 117.070312 85.464844 117.003906 85.015625 116.398438 C 84.59375 115.832031 84.304688 115.285156 83.996094 114.476562 C 83.722656 113.757812 83.617188 90.070312 83.882812 88.789062 C 84.308594 86.726562 85.875 85.007812 87.878906 84.382812 L 88.648438 84.148438 L 113.226562 84.148438 L 114.015625 84.414062 C 114.777344 84.675781 115.816406 85.265625 116.082031 85.59375 C 116.214844 85.753906 116.582031 85.820312 116.582031 85.683594 C 116.582031 85.644531 116.6875 85.105469 116.816406 84.484375 C 118.039062 78.699219 118 72.089844 116.714844 66.394531 C 116.523438 65.558594 116.496094 65.546875 115.878906 66.039062 C 114.222656 67.363281 114.878906 67.3125 100.550781 67.277344 L 88.261719 67.25 L 87.6875 67.027344 C 85.914062 66.355469 84.734375 65.132812 84.003906 63.222656 L 83.792969 62.65625 L 83.765625 50.425781 C 83.738281 36.890625 83.710938 37.464844 84.363281 36.109375 C 84.546875 35.722656 84.863281 35.21875 85.058594 34.988281 C 85.550781 34.410156 85.496094 34.359375 84.066406 34.054688 C 80.535156 33.3125 76.496094 33.003906 72.960938 33.214844 M 63.4375 34.851562 C 62.039062 35.277344 62.082031 35.207031 62.507812 36.382812 L 62.753906 37.0625 L 62.757812 47.847656 C 62.757812 59.734375 62.785156 59.191406 62.148438 60.398438 C 61.460938 61.699219 59.921875 62.777344 58.4375 63.003906 C 57.988281 63.070312 54.21875 63.09375 47.3125 63.074219 C 36.066406 63.039062 36.699219 63.070312 35.628906 62.550781 C 35.152344 62.320312 35.152344 62.324219 34.722656 63.808594 L 34.363281 65.0625 L 34.828125 65.542969 C 35.371094 66.09375 36.339844 66.640625 37.164062 66.851562 C 38.042969 67.082031 61.710938 67.078125 62.601562 66.847656 C 64.503906 66.351562 66.058594 64.785156 66.550781 62.84375 C 66.8125 61.8125 66.851562 38.519531 66.59375 37.421875 C 66.332031 36.300781 65.171875 34.457031 64.75 34.484375 C 64.695312 34.488281 64.105469 34.652344 63.4375 34.851562 M 85.472656 34.980469 C 84.898438 35.59375 84.371094 36.648438 84.183594 37.554688 C 83.957031 38.617188 83.964844 61.492188 84.191406 62.589844 C 84.597656 64.613281 86.214844 66.339844 88.164062 66.851562 C 89.03125 67.078125 112.75 67.078125 113.613281 66.851562 C 114.433594 66.640625 115.402344 66.09375 115.9375 65.550781 L 116.402344 65.074219 L 116.089844 64.011719 C 115.917969 63.425781 115.757812 62.847656 115.730469 62.722656 C 115.660156 62.414062 115.492188 62.367188 115.121094 62.558594 C 114.15625 63.0625 114.695312 63.039062 103.464844 63.074219 C 96.558594 63.09375 92.789062 63.070312 92.34375 63.003906 C 90.832031 62.773438 89.234375 61.628906 88.601562 60.320312 C 87.988281 59.054688 88.011719 59.605469 88.039062 47.699219 L 88.066406 36.871094 L 88.292969 36.285156 C 88.714844 35.171875 88.8125 35.265625 86.664062 34.675781 L 85.9375 34.480469 L 85.472656 34.980469 M 60.09375 35.996094 C 59.347656 36.292969 58.683594 36.582031 58.613281 36.640625 C 58.511719 36.726562 58.484375 38.613281 58.464844 46.136719 L 58.4375 55.527344 L 58.136719 56.160156 C 57.542969 57.414062 56.304688 58.417969 55.007812 58.6875 C 54.648438 58.765625 51.714844 58.796875 45.515625 58.796875 L 36.53125 58.796875 L 36.398438 59.066406 C 36.164062 59.527344 35.363281 61.734375 35.363281 61.921875 C 35.363281 62.160156 36.308594 62.574219 37.160156 62.703125 C 37.625 62.777344 41.140625 62.800781 48.183594 62.78125 L 58.535156 62.753906 L 59.152344 62.53125 C 60.765625 61.945312 61.914062 60.710938 62.320312 59.121094 C 62.503906 58.421875 62.542969 37.664062 62.363281 36.851562 C 62.039062 35.351562 61.871094 35.289062 60.09375 35.996094 M 88.796875 35.839844 C 88.300781 36.820312 88.3125 36.578125 88.3125 47.867188 C 88.3125 54.5 88.347656 58.574219 88.40625 58.910156 C 88.703125 60.503906 89.96875 61.929688 91.621094 62.53125 L 92.242188 62.753906 L 102.589844 62.78125 C 116.546875 62.820312 115.871094 62.960938 114.816406 60.203125 L 114.296875 58.84375 L 105.019531 58.796875 C 98.667969 58.761719 95.648438 58.710938 95.449219 58.640625 C 93.96875 58.097656 92.898438 57.03125 92.488281 55.703125 C 92.300781 55.085938 92.292969 54.808594 92.292969 45.886719 L 92.292969 36.710938 L 91.683594 36.433594 C 90.964844 36.109375 89.234375 35.457031 89.09375 35.457031 C 89.039062 35.457031 88.90625 35.628906 88.796875 35.839844 M 69.667969 36.261719 C 70.371094 36.738281 70.371094 37.78125 69.664062 38.257812 C 68.601562 38.980469 67.316406 37.683594 68.03125 36.617188 C 68.4375 36.007812 69.085938 35.871094 69.667969 36.261719 M 82.28125 36.164062 C 82.886719 36.472656 83.125 37.289062 82.773438 37.867188 C 82.242188 38.746094 81.007812 38.628906 80.644531 37.660156 C 80.273438 36.683594 81.355469 35.691406 82.28125 36.164062 M 56.347656 37.679688 C 55.519531 38.097656 54.722656 38.523438 54.578125 38.617188 L 54.316406 38.792969 L 54.261719 51.628906 L 53.890625 52.375 C 53.472656 53.222656 52.9375 53.761719 52.085938 54.179688 L 51.539062 54.453125 L 45.105469 54.5 C 38.816406 54.546875 38.671875 54.554688 38.527344 54.742188 C 38.21875 55.15625 36.707031 58.296875 36.765625 58.398438 C 36.910156 58.632812 54.472656 58.539062 55.242188 58.296875 C 56.84375 57.804688 57.949219 56.527344 58.195312 54.890625 C 58.410156 53.503906 58.269531 36.972656 58.046875 36.941406 C 57.941406 36.929688 57.175781 37.261719 56.347656 37.679688 M 92.605469 46.164062 L 92.632812 55.433594 L 92.960938 56.097656 C 93.339844 56.875 94.09375 57.671875 94.761719 58.003906 C 95.785156 58.511719 95.582031 58.503906 105.089844 58.503906 L 113.957031 58.507812 L 113.957031 58.304688 C 113.957031 58.074219 112.375 54.878906 112.148438 54.648438 C 112.019531 54.519531 111.230469 54.5 105.792969 54.5 C 100.371094 54.5 99.527344 54.480469 99.121094 54.347656 C 98.035156 53.980469 97.179688 53.167969 96.742188 52.082031 L 96.519531 51.523438 L 96.472656 45.132812 L 96.421875 38.742188 L 94.769531 37.886719 C 93.859375 37.414062 93 37 92.847656 36.964844 L 92.582031 36.898438 L 92.605469 46.164062 M 53.433594 39.28125 C 48.335938 42.453125 44.214844 46.320312 40.820312 51.121094 C 39.667969 52.746094 38.914062 54.007812 39.027344 54.117188 C 39.25 54.347656 51.394531 54.179688 51.902344 53.945312 C 52.910156 53.476562 53.605469 52.652344 53.867188 51.613281 C 54.046875 50.90625 54.046875 39.160156 53.871094 39.101562 C 53.816406 39.085938 53.621094 39.167969 53.433594 39.28125 M 96.800781 39.296875 C 96.773438 39.367188 96.765625 42.148438 96.78125 45.476562 L 96.808594 51.523438 L 97.113281 52.15625 C 97.484375 52.9375 98.09375 53.566406 98.804688 53.902344 L 99.335938 54.15625 L 105.496094 54.183594 C 109.175781 54.207031 111.695312 54.175781 111.75 54.121094 C 112.019531 53.851562 108.839844 49.4375 106.535156 46.898438 C 103.453125 43.496094 97.09375 38.535156 96.800781 39.296875 M 76.941406 43.714844 C 81.242188 44.726562 83.277344 49.972656 80.808594 53.683594 C 77.324219 58.917969 69.222656 56.679688 68.910156 50.398438 C 68.6875 46.039062 72.691406 42.710938 76.941406 43.714844 M 73.835938 44.011719 C 69.246094 45.246094 67.636719 51.054688 70.949219 54.429688 C 74.734375 58.28125 81.238281 55.855469 81.570312 50.464844 C 81.828125 46.28125 77.820312 42.933594 73.835938 44.011719 M 76.738281 45.894531 C 80.804688 47.164062 80.753906 53.039062 76.667969 54.308594 C 73.886719 55.171875 71.015625 53.039062 71.015625 50.105469 C 71.015625 47.132812 73.90625 45.007812 76.738281 45.894531 M 74.027344 46.210938 C 69.570312 47.964844 71.015625 54.574219 75.773438 54.167969 C 79.863281 53.824219 80.871094 48.175781 77.160156 46.378906 C 76.28125 45.949219 74.882812 45.875 74.027344 46.210938 M 76.460938 48.054688 C 77.78125 48.730469 78.027344 50.691406 76.929688 51.734375 C 75.523438 53.082031 73.160156 52.058594 73.15625 50.105469 C 73.152344 48.367188 74.925781 47.269531 76.460938 48.054688 M 69.679688 61.910156 C 70.070312 62.132812 70.296875 62.777344 70.148438 63.230469 C 69.722656 64.523438 67.8125 64.253906 67.8125 62.898438 C 67.8125 61.910156 68.785156 61.394531 69.679688 61.910156 M 82.46875 61.910156 C 82.929688 62.210938 83.078125 62.882812 82.804688 63.449219 C 82.410156 64.300781 81.089844 64.289062 80.6875 63.433594 C 80.164062 62.324219 81.441406 61.234375 82.46875 61.910156 M 77.4375 65.105469 C 84.375 66.429688 88.144531 74.109375 85.003906 80.53125 C 81.140625 88.4375 69.863281 88.539062 65.839844 80.707031 C 61.714844 72.675781 68.597656 63.417969 77.4375 65.105469 M 74.222656 65.246094 C 67.023438 66.097656 62.804688 73.839844 66.003906 80.335938 C 69.890625 88.238281 81 88.195312 84.816406 80.261719 C 88.351562 72.910156 82.273438 64.300781 74.222656 65.246094 M 37.648438 68.230469 C 38.589844 68.679688 38.519531 70.101562 37.539062 70.425781 C 36.09375 70.90625 35.265625 68.828125 36.667969 68.214844 C 37.0625 68.042969 37.261719 68.046875 37.648438 68.230469 M 63.085938 68.210938 C 63.878906 68.546875 64.085938 69.460938 63.511719 70.085938 C 62.558594 71.121094 60.929688 70.023438 61.570312 68.769531 C 61.867188 68.1875 62.488281 67.960938 63.085938 68.210938 M 88.890625 68.355469 C 89.523438 68.820312 89.476562 69.84375 88.804688 70.296875 C 88.015625 70.832031 86.949219 70.257812 86.949219 69.296875 C 86.949219 68.324219 88.097656 67.765625 88.890625 68.355469 M 114.148438 68.21875 C 114.886719 68.605469 115.066406 69.464844 114.535156 70.070312 C 114.054688 70.625 113.347656 70.652344 112.804688 70.140625 C 111.84375 69.238281 112.984375 67.617188 114.148438 68.21875 M 51.175781 69.304688 C 56.230469 70.335938 58.117188 76.675781 54.460938 80.339844 C 50.382812 84.421875 43.445312 81.574219 43.386719 75.792969 C 43.347656 71.601562 47.101562 68.472656 51.175781 69.304688 M 77.136719 69.398438 C 82.925781 71.132812 83.566406 79.199219 78.109375 81.671875 C 72.96875 84.007812 67.425781 79.035156 69.199219 73.683594 C 70.285156 70.402344 73.925781 68.441406 77.136719 69.398438 M 102.167969 69.296875 C 106.707031 70.160156 108.914062 75.671875 106.230469 79.464844 C 102.550781 84.664062 94.417969 82.105469 94.402344 75.746094 C 94.394531 71.59375 98.089844 68.523438 102.167969 69.296875 M 48.574219 69.601562 C 45.402344 70.285156 43.1875 73.5625 43.753906 76.722656 C 44.84375 82.792969 52.898438 83.898438 55.511719 78.335938 C 57.664062 73.742188 53.53125 68.535156 48.574219 69.601562 M 74.175781 69.582031 C 69.238281 70.726562 67.492188 76.542969 71.015625 80.101562 C 75.078125 84.210938 81.972656 81.054688 81.570312 75.269531 C 81.3125 71.566406 77.679688 68.769531 74.175781 69.582031 M 99.628906 69.605469 C 96.222656 70.328125 93.972656 73.921875 94.851562 77.238281 C 96.230469 82.488281 103.082031 83.664062 106.074219 79.167969 C 109.121094 74.582031 105 68.464844 99.628906 69.605469 M 50.953125 71.449219 C 54.25 72.3125 55.398438 76.4375 53.003906 78.84375 C 49.730469 82.125 44.246094 78.703125 45.746094 74.3125 C 46.492188 72.125 48.765625 70.878906 50.953125 71.449219 M 101.941406 71.445312 C 105.324219 72.332031 106.4375 76.515625 103.929688 78.929688 C 101.371094 81.398438 97.097656 79.886719 96.566406 76.324219 C 96.113281 73.320312 99.023438 70.683594 101.941406 71.445312 M 49.0625 71.699219 C 45.980469 72.304688 44.738281 76.222656 46.894531 78.539062 C 49.207031 81.023438 53.347656 79.761719 53.933594 76.390625 C 54.414062 73.617188 51.859375 71.148438 49.0625 71.699219 M 100.082031 71.699219 C 98 72.109375 96.53125 74.253906 96.863281 76.371094 C 97.394531 79.703125 101.546875 81.015625 103.839844 78.582031 C 106.589844 75.660156 103.996094 70.921875 100.082031 71.699219 M 76.316406 72.519531 C 79.195312 73.378906 79.535156 77.34375 76.847656 78.722656 C 75.164062 79.585938 72.957031 78.699219 72.273438 76.886719 C 71.328125 74.359375 73.742188 71.746094 76.316406 72.519531 M 50.863281 73.683594 C 52.191406 74.304688 52.570312 76.039062 51.613281 77.160156 C 50.46875 78.503906 48.328125 78.128906 47.75 76.492188 C 47.082031 74.578125 49.027344 72.820312 50.863281 73.683594 M 101.617188 73.546875 C 102.066406 73.671875 102.648438 74.164062 102.878906 74.609375 C 104.09375 77.003906 101.070312 79.183594 99.21875 77.242188 C 97.636719 75.585938 99.367188 72.914062 101.617188 73.546875 M 37.875 81.21875 C 38.703125 81.917969 38.339844 83.167969 37.28125 83.289062 C 36.011719 83.429688 35.394531 81.816406 36.460938 81.164062 C 36.910156 80.886719 37.511719 80.910156 37.875 81.21875 M 63.320312 81.121094 C 64.023438 81.617188 63.96875 82.789062 63.226562 83.179688 C 61.992188 83.820312 60.796875 82.238281 61.808594 81.304688 C 62.222656 80.921875 62.917969 80.839844 63.320312 81.121094 M 88.804688 81.136719 C 89.734375 81.691406 89.390625 83.164062 88.300781 83.285156 C 87.503906 83.375 86.949219 82.882812 86.949219 82.09375 C 86.949219 81.207031 88 80.664062 88.804688 81.136719 M 114.5 81.304688 C 114.878906 81.679688 114.945312 82.21875 114.683594 82.730469 C 114.253906 83.570312 112.910156 83.460938 112.53125 82.5625 C 112.046875 81.394531 113.605469 80.398438 114.5 81.304688 M 37.496094 84.492188 C 36.441406 84.648438 34.996094 85.378906 34.515625 85.992188 L 34.3125 86.25 L 34.542969 87.105469 C 34.957031 88.613281 35.113281 89.03125 35.265625 89.007812 C 35.34375 88.996094 35.738281 88.867188 36.140625 88.714844 L 36.867188 88.441406 L 47.410156 88.414062 C 54.960938 88.394531 58.136719 88.417969 58.613281 88.5 C 60.398438 88.800781 61.910156 90.132812 62.515625 91.945312 L 62.761719 92.6875 L 62.734375 103.65625 L 62.710938 114.621094 L 62.488281 115.207031 C 62.148438 116.089844 62.132812 116.195312 62.335938 116.253906 C 62.4375 116.28125 62.996094 116.449219 63.578125 116.621094 L 64.632812 116.933594 L 65.003906 116.558594 C 65.511719 116.039062 66.03125 115.140625 66.285156 114.328125 L 66.496094 113.644531 L 66.496094 101.386719 C 66.496094 89.976562 66.484375 89.082031 66.328125 88.503906 C 65.765625 86.460938 64.078125 84.902344 62.03125 84.535156 C 61.152344 84.378906 38.535156 84.339844 37.496094 84.492188 M 88.550781 84.53125 C 86.339844 84.953125 84.648438 86.621094 84.183594 88.84375 C 83.957031 89.894531 83.964844 112.773438 84.191406 113.867188 C 84.507812 115.429688 85.578125 116.996094 86.242188 116.867188 C 86.746094 116.773438 88.441406 116.234375 88.535156 116.140625 C 88.582031 116.09375 88.496094 115.738281 88.34375 115.339844 L 88.066406 114.621094 L 88.039062 103.800781 C 88.007812 90.894531 87.945312 91.5 89.53125 89.898438 C 91.082031 88.335938 90.648438 88.382812 103.414062 88.414062 L 114.007812 88.441406 L 114.589844 88.671875 C 115.71875 89.121094 115.597656 89.222656 116.109375 87.382812 L 116.40625 86.3125 L 116.03125 85.945312 C 115.539062 85.457031 114.644531 84.921875 113.859375 84.652344 L 113.226562 84.4375 L 101.230469 84.421875 C 91.652344 84.40625 89.09375 84.429688 88.550781 84.53125 M 69.667969 87.542969 C 70.375 88.019531 70.371094 89.058594 69.652344 89.550781 C 68.609375 90.261719 67.3125 88.960938 68.023438 87.90625 C 68.441406 87.289062 69.082031 87.148438 69.667969 87.542969 M 82.28125 87.445312 C 83.390625 88.007812 82.984375 89.753906 81.742188 89.757812 C 81.316406 89.761719 80.8125 89.390625 80.644531 88.945312 C 80.273438 87.960938 81.355469 86.972656 82.28125 87.445312 M 36.890625 88.800781 C 35.207031 89.121094 35.144531 89.292969 35.960938 91.347656 L 36.480469 92.644531 L 45.804688 92.691406 L 55.132812 92.738281 L 55.660156 92.957031 C 56.957031 93.496094 57.921875 94.492188 58.285156 95.6875 C 58.480469 96.308594 58.484375 96.582031 58.488281 105.472656 C 58.488281 110.503906 58.519531 114.671875 58.558594 114.730469 C 58.640625 114.859375 59.5 115.234375 60.789062 115.703125 C 61.832031 116.082031 61.832031 116.082031 62.191406 115.183594 L 62.421875 114.621094 L 62.449219 103.777344 C 62.464844 96.492188 62.441406 92.777344 62.367188 92.457031 C 62 90.703125 60.488281 89.210938 58.703125 88.832031 C 57.933594 88.664062 37.726562 88.636719 36.890625 88.800781 M 92.027344 88.835938 C 90.484375 89.171875 89.214844 90.292969 88.589844 91.863281 L 88.359375 92.449219 L 88.328125 103.09375 C 88.289062 117.195312 88.136719 116.441406 90.753906 115.394531 C 91.519531 115.082031 92.167969 114.816406 92.195312 114.792969 C 92.222656 114.769531 92.265625 110.523438 92.292969 105.359375 L 92.34375 95.964844 L 92.652344 95.304688 C 93.019531 94.523438 93.78125 93.679688 94.46875 93.285156 C 95.550781 92.667969 95.128906 92.691406 105.082031 92.691406 L 114.148438 92.691406 L 114.292969 92.46875 C 114.480469 92.179688 115.414062 89.722656 115.414062 89.515625 C 115.414062 89.316406 114.5625 88.933594 113.808594 88.792969 C 112.902344 88.621094 92.8125 88.660156 92.027344 88.835938 M 36.765625 93.09375 C 36.707031 93.191406 38.214844 96.320312 38.53125 96.746094 C 38.671875 96.933594 38.816406 96.941406 45.105469 96.992188 L 51.539062 97.039062 L 52.148438 97.320312 C 52.921875 97.683594 53.714844 98.515625 54.03125 99.304688 L 54.261719 99.871094 L 54.289062 106.214844 C 54.308594 110.652344 54.347656 112.597656 54.421875 112.6875 C 54.542969 112.839844 56.59375 113.929688 57.496094 114.332031 C 58.011719 114.5625 58.125 114.585938 58.199219 114.464844 C 58.324219 114.269531 58.316406 97.304688 58.1875 96.503906 C 57.9375 94.882812 56.734375 93.550781 55.132812 93.117188 C 54.492188 92.949219 36.871094 92.921875 36.765625 93.09375 M 95.480469 93.171875 C 94.292969 93.558594 93.476562 94.273438 92.941406 95.410156 L 92.632812 96.0625 L 92.605469 105.238281 C 92.59375 110.335938 92.617188 114.449219 92.664062 114.496094 C 92.738281 114.574219 95.378906 113.304688 96.152344 112.820312 L 96.472656 112.621094 L 96.472656 106.589844 C 96.476562 100.0625 96.503906 99.652344 96.996094 98.804688 C 97.324219 98.238281 98.03125 97.609375 98.6875 97.296875 L 99.238281 97.039062 L 105.621094 96.992188 C 111.164062 96.945312 112.027344 96.917969 112.152344 96.792969 C 112.375 96.570312 113.957031 93.394531 113.957031 93.175781 C 113.957031 92.890625 96.371094 92.886719 95.480469 93.171875 M 76.898438 94.988281 C 81.882812 96.277344 83.570312 102.34375 79.957031 105.980469 C 75.980469 109.988281 69.21875 107.382812 68.914062 101.730469 C 68.675781 97.378906 72.769531 93.921875 76.898438 94.988281 M 73.835938 95.316406 C 67.460938 97.140625 67.746094 106.199219 74.21875 107.496094 C 79.25 108.503906 83.207031 103.238281 80.921875 98.574219 C 79.65625 95.992188 76.515625 94.546875 73.835938 95.316406 M 77.253906 97.398438 C 80.601562 98.996094 80.625 103.691406 77.292969 105.347656 C 74.410156 106.777344 71.015625 104.613281 71.015625 101.332031 C 71.015625 98.171875 74.398438 96.035156 77.253906 97.398438 M 38.957031 97.421875 C 38.957031 98.1875 43.113281 103.507812 45.769531 106.140625 C 48.308594 108.660156 53.355469 112.488281 53.875 112.289062 C 54.007812 112.238281 54.019531 111.5625 53.996094 106.050781 L 53.964844 99.871094 L 53.710938 99.320312 C 53.363281 98.578125 52.785156 97.964844 52.101562 97.621094 L 51.539062 97.332031 L 45.246094 97.304688 C 39.761719 97.28125 38.957031 97.296875 38.957031 97.421875 M 74.378906 97.386719 C 71.964844 97.988281 70.601562 100.878906 71.6875 103.097656 C 73.640625 107.078125 79.421875 105.796875 79.421875 101.386719 C 79.421875 98.652344 76.996094 96.730469 74.378906 97.386719 M 99.074219 97.457031 C 98.121094 97.804688 97.371094 98.554688 96.980469 99.554688 C 96.792969 100.019531 96.667969 111.941406 96.84375 112.214844 C 96.949219 112.378906 97.019531 112.34375 98.507812 111.371094 C 102.84375 108.542969 106.839844 104.683594 109.882812 100.40625 C 110.75 99.179688 111.820312 97.457031 111.765625 97.367188 C 111.652344 97.1875 99.578125 97.273438 99.074219 97.457031 M 76.0625 99.191406 C 78.429688 99.898438 77.945312 103.621094 75.484375 103.628906 C 72.464844 103.640625 72.378906 99.242188 75.398438 99.050781 C 75.480469 99.046875 75.777344 99.109375 76.0625 99.191406 M 82.578125 113.316406 C 83.273438 114.019531 82.941406 115.15625 81.96875 115.390625 C 81.535156 115.496094 80.898438 115.164062 80.691406 114.722656 C 80.128906 113.53125 81.65625 112.390625 82.578125 113.316406 M 69.738281 113.253906 C 70.429688 113.839844 70.320312 114.863281 69.523438 115.25 C 68.277344 115.859375 67.226562 114.296875 68.210938 113.304688 C 68.609375 112.90625 69.296875 112.882812 69.738281 113.253906 "/>
<path style=" stroke:none;fill-rule:evenodd;fill:rgb(7.843138%,7.843138%,7.843138%);fill-opacity:1;" d="M 0 75.011719 L 0 123.847656 L 150 123.847656 L 150 26.175781 L 0 26.175781 L 0 75.011719 M 79.082031 33.316406 C 81.453125 33.511719 85.273438 34.199219 85.367188 34.445312 C 85.394531 34.515625 85.25 34.757812 85.058594 34.988281 C 84.863281 35.21875 84.546875 35.722656 84.363281 36.109375 C 83.710938 37.464844 83.738281 36.890625 83.765625 50.425781 L 83.792969 62.65625 L 84.003906 63.222656 C 84.734375 65.132812 85.914062 66.355469 87.6875 67.027344 L 88.261719 67.25 L 100.550781 67.277344 C 114.878906 67.3125 114.222656 67.363281 115.878906 66.039062 C 116.496094 65.546875 116.523438 65.558594 116.714844 66.394531 C 118 72.089844 118.039062 78.699219 116.816406 84.484375 C 116.6875 85.105469 116.582031 85.644531 116.582031 85.683594 C 116.582031 85.820312 116.214844 85.753906 116.082031 85.59375 C 115.816406 85.265625 114.777344 84.675781 114.015625 84.414062 L 113.226562 84.148438 L 88.648438 84.148438 L 87.878906 84.382812 C 85.875 85.007812 84.308594 86.726562 83.882812 88.789062 C 83.617188 90.070312 83.722656 113.757812 83.996094 114.476562 C 84.304688 115.285156 84.59375 115.832031 85.015625 116.398438 C 85.464844 117.003906 85.476562 117.070312 85.132812 117.15625 C 79.558594 118.5625 72.230469 118.636719 66.464844 117.347656 C 65.054688 117.03125 65.066406 117.046875 65.570312 116.375 C 66.046875 115.746094 66.460938 114.863281 66.65625 114.085938 C 66.765625 113.640625 66.789062 111.394531 66.789062 101.238281 L 66.789062 88.933594 L 66.523438 88.132812 C 65.878906 86.226562 64.414062 84.851562 62.46875 84.316406 C 61.457031 84.039062 37.890625 84.050781 36.867188 84.332031 C 36.054688 84.550781 35.457031 84.84375 34.839844 85.3125 C 34.140625 85.851562 34.1875 85.90625 33.867188 84.238281 C 32.722656 78.351562 32.746094 72.84375 33.941406 66.96875 C 34.234375 65.507812 34.222656 65.519531 34.996094 66.101562 C 35.339844 66.363281 35.96875 66.730469 36.390625 66.914062 L 37.160156 67.25 L 49.496094 67.277344 C 58.316406 67.296875 62.003906 67.277344 62.421875 67.199219 C 64.304688 66.84375 65.925781 65.417969 66.722656 63.410156 L 66.984375 62.753906 L 67.011719 50.445312 C 67.035156 41.554688 67.011719 37.976562 66.933594 37.554688 C 66.792969 36.808594 66.199219 35.53125 65.738281 34.980469 C 65.183594 34.324219 65.128906 34.371094 66.953125 33.988281 C 70.703125 33.210938 74.964844 32.96875 79.082031 33.316406 M 65.328125 35 C 65.898438 35.609375 66.386719 36.539062 66.59375 37.421875 C 66.851562 38.519531 66.8125 61.8125 66.550781 62.84375 C 66.058594 64.785156 64.503906 66.351562 62.601562 66.847656 C 61.710938 67.078125 38.042969 67.082031 37.164062 66.851562 C 36.339844 66.640625 35.371094 66.09375 34.828125 65.542969 L 34.363281 65.0625 L 34.722656 63.808594 C 35.152344 62.324219 35.152344 62.320312 35.628906 62.550781 C 36.699219 63.070312 36.066406 63.039062 47.3125 63.074219 C 54.21875 63.09375 57.988281 63.070312 58.4375 63.003906 C 59.921875 62.777344 61.460938 61.699219 62.148438 60.398438 C 62.785156 59.191406 62.757812 59.734375 62.757812 47.847656 L 62.753906 37.0625 L 62.507812 36.382812 C 62.082031 35.207031 62.039062 35.277344 63.4375 34.851562 C 64.105469 34.652344 64.695312 34.488281 64.75 34.484375 C 64.800781 34.480469 65.058594 34.710938 65.328125 35 M 88.003906 35.078125 C 88.699219 35.304688 88.683594 35.253906 88.292969 36.285156 L 88.066406 36.871094 L 88.039062 47.699219 C 88.011719 59.605469 87.988281 59.054688 88.601562 60.320312 C 89.234375 61.628906 90.832031 62.773438 92.34375 63.003906 C 92.789062 63.070312 96.558594 63.09375 103.464844 63.074219 C 114.695312 63.039062 114.15625 63.0625 115.121094 62.558594 C 115.492188 62.367188 115.660156 62.414062 115.730469 62.722656 C 115.757812 62.847656 115.917969 63.425781 116.089844 64.011719 L 116.402344 65.074219 L 115.9375 65.550781 C 115.402344 66.09375 114.433594 66.640625 113.613281 66.851562 C 112.75 67.078125 89.03125 67.078125 88.164062 66.851562 C 86.214844 66.339844 84.597656 64.613281 84.191406 62.589844 C 83.964844 61.492188 83.957031 38.617188 84.183594 37.554688 C 84.371094 36.648438 84.898438 35.59375 85.472656 34.980469 L 85.9375 34.480469 L 86.664062 34.675781 C 87.0625 34.785156 87.664062 34.96875 88.003906 35.078125 M 62.050781 35.941406 C 62.464844 36.800781 62.46875 36.902344 62.46875 47.941406 C 62.46875 57.039062 62.449219 58.640625 62.320312 59.121094 C 61.914062 60.710938 60.765625 61.945312 59.152344 62.53125 L 58.535156 62.753906 L 48.183594 62.78125 C 41.140625 62.800781 37.625 62.777344 37.160156 62.703125 C 36.308594 62.574219 35.363281 62.160156 35.363281 61.921875 C 35.363281 61.734375 36.164062 59.527344 36.398438 59.066406 L 36.53125 58.796875 L 45.515625 58.796875 C 51.714844 58.796875 54.648438 58.765625 55.007812 58.6875 C 56.304688 58.417969 57.542969 57.414062 58.136719 56.160156 L 58.4375 55.527344 L 58.464844 46.136719 C 58.484375 38.613281 58.511719 36.726562 58.613281 36.640625 C 58.832031 36.453125 61.441406 35.460938 61.640625 35.484375 C 61.761719 35.496094 61.914062 35.664062 62.050781 35.941406 M 90.136719 35.808594 C 90.65625 36 91.351562 36.285156 91.683594 36.433594 L 92.292969 36.710938 L 92.292969 45.886719 C 92.292969 54.808594 92.300781 55.085938 92.488281 55.703125 C 92.898438 57.03125 93.96875 58.097656 95.449219 58.640625 C 95.648438 58.710938 98.667969 58.761719 105.019531 58.796875 L 114.296875 58.84375 L 114.816406 60.203125 C 115.5 61.996094 115.5 62.003906 114.832031 62.335938 C 113.898438 62.800781 113.625 62.8125 102.589844 62.78125 L 92.242188 62.753906 L 91.621094 62.53125 C 89.96875 61.929688 88.703125 60.503906 88.40625 58.910156 C 88.234375 57.972656 88.277344 37.472656 88.457031 36.789062 C 88.824219 35.371094 88.886719 35.335938 90.136719 35.808594 M 68.496094 36.164062 C 68.363281 36.234375 68.152344 36.433594 68.03125 36.617188 C 67.316406 37.683594 68.601562 38.980469 69.664062 38.257812 C 70.867188 37.445312 69.785156 35.507812 68.496094 36.164062 M 81.109375 36.261719 C 80.394531 36.746094 80.394531 37.773438 81.113281 38.257812 C 82.171875 38.980469 83.457031 37.683594 82.742188 36.617188 C 82.339844 36.007812 81.691406 35.871094 81.109375 36.261719 M 58.265625 45.613281 C 58.28125 50.960938 58.257812 54.496094 58.195312 54.890625 C 57.949219 56.527344 56.84375 57.804688 55.242188 58.296875 C 54.472656 58.539062 36.910156 58.632812 36.765625 58.398438 C 36.707031 58.296875 38.21875 55.15625 38.527344 54.742188 C 38.671875 54.554688 38.816406 54.546875 45.105469 54.5 L 51.539062 54.453125 L 52.085938 54.179688 C 52.9375 53.761719 53.472656 53.222656 53.890625 52.375 L 54.261719 51.628906 L 54.316406 38.792969 L 54.578125 38.617188 C 55.183594 38.214844 57.867188 36.917969 58.046875 36.941406 C 58.238281 36.96875 58.242188 37.050781 58.265625 45.613281 M 94.769531 37.886719 L 96.421875 38.742188 L 96.472656 45.132812 L 96.519531 51.523438 L 96.742188 52.082031 C 97.179688 53.167969 98.035156 53.980469 99.121094 54.347656 C 99.527344 54.480469 100.371094 54.5 105.792969 54.5 C 111.230469 54.5 112.019531 54.519531 112.148438 54.648438 C 112.375 54.878906 113.957031 58.074219 113.957031 58.304688 L 113.957031 58.507812 L 105.089844 58.503906 C 95.582031 58.503906 95.785156 58.511719 94.761719 58.003906 C 94.09375 57.671875 93.339844 56.875 92.960938 56.097656 L 92.632812 55.433594 L 92.605469 46.164062 L 92.582031 36.898438 L 92.847656 36.964844 C 93 37 93.859375 37.414062 94.769531 37.886719 M 53.992188 45.078125 C 54.019531 51.710938 54.015625 51.769531 53.371094 52.710938 C 52.980469 53.289062 52.566406 53.636719 51.902344 53.945312 C 51.394531 54.179688 39.25 54.347656 39.027344 54.117188 C 38.914062 54.007812 39.667969 52.746094 40.820312 51.121094 C 43.910156 46.757812 47.546875 43.207031 51.929688 40.277344 C 53.507812 39.214844 53.757812 39.066406 53.871094 39.101562 C 53.933594 39.121094 53.976562 41.222656 53.992188 45.078125 M 98.113281 39.804688 C 101.78125 42.113281 105.597656 45.546875 108.394531 49.058594 C 109.949219 51.007812 111.90625 53.964844 111.75 54.121094 C 111.695312 54.175781 109.175781 54.207031 105.496094 54.183594 L 99.335938 54.15625 L 98.804688 53.902344 C 98.09375 53.566406 97.484375 52.9375 97.113281 52.15625 L 96.808594 51.523438 L 96.78125 45.476562 C 96.765625 42.148438 96.773438 39.367188 96.800781 39.296875 C 96.886719 39.074219 97.066406 39.144531 98.113281 39.804688 M 73.671875 43.75 C 68.726562 45.167969 67.238281 51.519531 71.042969 54.9375 C 75.132812 58.605469 81.574219 55.902344 81.871094 50.398438 C 82.105469 46.015625 77.835938 42.550781 73.671875 43.75 M 76.898438 44.003906 C 80.808594 45.023438 82.789062 49.617188 80.820312 53.097656 C 78.433594 57.308594 72.484375 57.398438 70.058594 53.257812 C 67.28125 48.519531 71.632812 42.632812 76.898438 44.003906 M 74.074219 45.882812 C 70.988281 46.957031 70.007812 50.671875 72.179688 53.066406 C 74.875 56.03125 79.757812 54.109375 79.757812 50.085938 C 79.757812 47.109375 76.8125 44.933594 74.074219 45.882812 M 77.160156 46.378906 C 80.871094 48.175781 79.863281 53.824219 75.773438 54.167969 C 71.015625 54.574219 69.570312 47.964844 74.027344 46.210938 C 74.882812 45.875 76.28125 45.949219 77.160156 46.378906 M 74.730469 47.902344 C 73.054688 48.449219 72.59375 50.636719 73.917969 51.777344 C 75.679688 53.296875 78.183594 51.582031 77.511719 49.316406 C 77.183594 48.207031 75.855469 47.53125 74.730469 47.902344 M 68.738281 61.703125 C 68.207031 61.835938 67.8125 62.34375 67.8125 62.898438 C 67.8125 64.253906 69.722656 64.523438 70.148438 63.230469 C 70.414062 62.414062 69.578125 61.5 68.738281 61.703125 M 81.355469 61.765625 C 80.125 62.3125 80.425781 64.070312 81.753906 64.070312 C 83.226562 64.070312 83.394531 61.992188 81.945312 61.695312 C 81.78125 61.660156 81.523438 61.691406 81.355469 61.765625 M 74.128906 64.957031 C 66.65625 65.890625 62.390625 73.996094 65.839844 80.707031 C 69.863281 88.539062 81.140625 88.4375 85.003906 80.53125 C 88.757812 72.851562 82.511719 63.910156 74.128906 64.957031 M 76.472656 65.242188 C 83.652344 66.074219 87.933594 73.78125 84.816406 80.261719 C 81 88.195312 69.890625 88.238281 66.003906 80.335938 C 62.378906 72.972656 68.386719 64.316406 76.472656 65.242188 M 36.667969 68.214844 C 35.265625 68.828125 36.09375 70.90625 37.539062 70.425781 C 38.519531 70.101562 38.589844 68.679688 37.648438 68.230469 C 37.261719 68.046875 37.0625 68.042969 36.667969 68.214844 M 62.078125 68.253906 C 61.894531 68.355469 61.660156 68.585938 61.570312 68.769531 C 60.929688 70.023438 62.558594 71.121094 63.511719 70.085938 C 64.417969 69.101562 63.261719 67.628906 62.078125 68.253906 M 87.671875 68.210938 C 86.71875 68.640625 86.699219 69.886719 87.636719 70.375 C 88.257812 70.699219 89.011719 70.386719 89.269531 69.699219 C 89.636719 68.734375 88.613281 67.785156 87.671875 68.210938 M 113.085938 68.253906 C 112.363281 68.648438 112.222656 69.59375 112.804688 70.140625 C 113.347656 70.652344 114.054688 70.625 114.535156 70.070312 C 115.410156 69.070312 114.253906 67.625 113.085938 68.253906 M 48.542969 69.300781 C 44.859375 70.042969 42.46875 74.152344 43.664062 77.699219 C 45.238281 82.390625 51.003906 83.800781 54.460938 80.339844 C 59.011719 75.78125 54.859375 68.039062 48.542969 69.300781 M 74.464844 69.214844 C 68.285156 70.179688 66.824219 78.636719 72.347656 81.484375 C 77.585938 84.183594 83.382812 79.28125 81.5625 73.703125 C 80.597656 70.734375 77.453125 68.746094 74.464844 69.214844 M 99.53125 69.3125 C 94.421875 70.398438 92.628906 76.941406 96.464844 80.507812 C 100.632812 84.390625 107.425781 81.394531 107.386719 75.695312 C 107.359375 71.527344 103.574219 68.453125 99.53125 69.3125 M 51.082031 69.597656 C 55.019531 70.402344 57.210938 74.71875 55.511719 78.335938 C 53.460938 82.703125 47.539062 83.234375 44.789062 79.292969 C 41.601562 74.734375 45.65625 68.488281 51.082031 69.597656 M 77.316406 69.792969 C 82.5625 71.535156 83.101562 78.914062 78.15625 81.316406 C 74.007812 83.328125 69.175781 80.332031 69.175781 75.746094 C 69.175781 71.484375 73.3125 68.464844 77.316406 69.792969 M 102.140625 69.589844 C 106.417969 70.5 108.484375 75.539062 106.074219 79.167969 C 103.082031 83.664062 96.230469 82.488281 94.851562 77.238281 C 93.707031 72.902344 97.757812 68.65625 102.140625 69.589844 M 48.777344 71.457031 C 45.515625 72.335938 44.394531 76.425781 46.761719 78.820312 C 49.289062 81.375 53.585938 80.019531 54.21875 76.472656 C 54.769531 73.367188 51.804688 70.640625 48.777344 71.457031 M 99.992188 71.40625 C 97.847656 71.832031 96.238281 74.144531 96.566406 76.324219 C 97.097656 79.886719 101.371094 81.398438 103.929688 78.929688 C 107.105469 75.871094 104.3125 70.546875 99.992188 71.40625 M 50.625 71.691406 C 52.785156 72.097656 54.304688 74.257812 53.933594 76.390625 C 53.347656 79.761719 49.207031 81.023438 46.894531 78.539062 C 44.226562 75.671875 46.789062 70.972656 50.625 71.691406 M 101.675781 71.699219 C 104.832031 72.28125 106.070312 76.210938 103.839844 78.582031 C 101.949219 80.59375 98.59375 80.121094 97.3125 77.667969 C 95.707031 74.59375 98.28125 71.074219 101.675781 71.699219 M 74.425781 72.523438 C 72.132812 73.242188 71.320312 76.140625 72.90625 77.917969 C 75.273438 80.5625 79.488281 78.234375 78.554688 74.792969 C 78.074219 73.023438 76.171875 71.976562 74.425781 72.523438 M 48.882812 73.703125 C 46.75 74.773438 47.5 77.976562 49.886719 77.976562 C 50.601562 77.976562 51.132812 77.726562 51.613281 77.160156 C 53.191406 75.3125 51.058594 72.613281 48.882812 73.703125 M 99.886719 73.703125 C 97.894531 74.699219 98.378906 77.628906 100.589844 77.972656 C 101.632812 78.136719 102.742188 77.429688 103.039062 76.410156 C 103.609375 74.429688 101.707031 72.792969 99.886719 73.703125 M 36.460938 81.164062 C 36.082031 81.398438 35.945312 81.636719 35.945312 82.09375 C 35.945312 83.480469 37.851562 83.789062 38.28125 82.472656 C 38.617188 81.445312 37.414062 80.582031 36.460938 81.164062 M 61.808594 81.304688 C 61.054688 82 61.457031 83.171875 62.488281 83.289062 C 63.25 83.375 63.828125 82.878906 63.828125 82.140625 C 63.828125 81.0625 62.617188 80.558594 61.808594 81.304688 M 87.519531 81.117188 C 86.746094 81.539062 86.765625 82.769531 87.546875 83.179688 C 88.554688 83.699219 89.714844 82.640625 89.238281 81.632812 C 88.957031 81.03125 88.128906 80.785156 87.519531 81.117188 M 112.898438 81.222656 C 112.265625 81.761719 112.316406 82.695312 113.003906 83.117188 C 113.871094 83.648438 114.832031 83.082031 114.832031 82.039062 C 114.832031 81.109375 113.628906 80.605469 112.898438 81.222656 M 62.03125 84.535156 C 64.078125 84.902344 65.765625 86.460938 66.328125 88.503906 C 66.484375 89.082031 66.496094 89.976562 66.496094 101.386719 L 66.496094 113.644531 L 66.285156 114.328125 C 66.03125 115.140625 65.511719 116.039062 65.003906 116.558594 L 64.632812 116.933594 L 63.578125 116.621094 C 62.996094 116.449219 62.4375 116.28125 62.335938 116.253906 C 62.132812 116.195312 62.148438 116.089844 62.488281 115.207031 L 62.710938 114.621094 L 62.734375 103.65625 L 62.761719 92.6875 L 62.515625 91.945312 C 61.910156 90.132812 60.398438 88.800781 58.613281 88.5 C 58.136719 88.417969 54.960938 88.394531 47.410156 88.414062 L 36.867188 88.441406 L 36.140625 88.714844 C 35.738281 88.867188 35.34375 88.996094 35.265625 89.007812 C 35.113281 89.03125 34.957031 88.613281 34.542969 87.105469 L 34.3125 86.25 L 34.515625 85.992188 C 34.996094 85.378906 36.441406 84.648438 37.496094 84.492188 C 38.535156 84.339844 61.152344 84.378906 62.03125 84.535156 M 113.859375 84.652344 C 114.644531 84.921875 115.539062 85.457031 116.03125 85.945312 L 116.40625 86.3125 L 116.109375 87.382812 C 115.597656 89.222656 115.71875 89.121094 114.589844 88.671875 L 114.007812 88.441406 L 103.414062 88.414062 C 90.648438 88.382812 91.082031 88.335938 89.53125 89.898438 C 87.945312 91.5 88.007812 90.894531 88.039062 103.800781 L 88.066406 114.621094 L 88.34375 115.339844 C 88.496094 115.738281 88.582031 116.09375 88.535156 116.140625 C 88.441406 116.234375 86.746094 116.773438 86.242188 116.867188 C 85.578125 116.996094 84.507812 115.429688 84.191406 113.867188 C 83.964844 112.773438 83.957031 89.894531 84.183594 88.84375 C 84.554688 87.0625 85.746094 85.59375 87.410156 84.863281 C 88.460938 84.402344 88.484375 84.402344 101.230469 84.421875 L 113.226562 84.4375 L 113.859375 84.652344 M 68.496094 87.445312 C 68.066406 87.664062 67.789062 88.191406 67.839844 88.671875 C 67.976562 89.925781 69.679688 90.140625 70.128906 88.960938 C 70.5 87.972656 69.421875 86.96875 68.496094 87.445312 M 81.109375 87.542969 C 80.394531 88.027344 80.394531 89.054688 81.113281 89.542969 C 81.6875 89.929688 82.339844 89.789062 82.742188 89.183594 C 83.460938 88.109375 82.175781 86.820312 81.109375 87.542969 M 58.703125 88.832031 C 60.488281 89.210938 62 90.703125 62.367188 92.457031 C 62.441406 92.777344 62.464844 96.492188 62.449219 103.777344 L 62.421875 114.621094 L 62.191406 115.183594 C 61.832031 116.082031 61.832031 116.082031 60.789062 115.703125 C 59.5 115.234375 58.640625 114.859375 58.558594 114.730469 C 58.519531 114.671875 58.488281 110.503906 58.488281 105.472656 C 58.484375 96.582031 58.480469 96.308594 58.285156 95.6875 C 57.921875 94.492188 56.957031 93.496094 55.660156 92.957031 L 55.132812 92.738281 L 45.804688 92.691406 L 36.480469 92.644531 L 35.960938 91.347656 C 35.144531 89.292969 35.207031 89.121094 36.890625 88.800781 C 37.726562 88.636719 57.933594 88.664062 58.703125 88.832031 M 113.808594 88.792969 C 114.5625 88.933594 115.414062 89.316406 115.414062 89.515625 C 115.414062 89.722656 114.480469 92.179688 114.292969 92.46875 L 114.148438 92.691406 L 105.082031 92.691406 C 95.128906 92.691406 95.550781 92.667969 94.46875 93.285156 C 93.78125 93.679688 93.019531 94.523438 92.652344 95.304688 L 92.34375 95.964844 L 92.292969 105.359375 C 92.265625 110.523438 92.222656 114.769531 92.195312 114.792969 C 92.019531 114.945312 89.320312 115.945312 89.152344 115.921875 C 88.878906 115.882812 88.550781 115.210938 88.40625 114.375 C 88.328125 113.917969 88.304688 110.738281 88.328125 103.09375 L 88.359375 92.449219 L 88.589844 91.863281 C 89.214844 90.292969 90.484375 89.171875 92.027344 88.835938 C 92.8125 88.660156 112.902344 88.621094 113.808594 88.792969 M 55.132812 93.117188 C 56.734375 93.550781 57.9375 94.882812 58.1875 96.503906 C 58.316406 97.304688 58.324219 114.269531 58.199219 114.464844 C 58.125 114.585938 58.011719 114.5625 57.496094 114.332031 C 56.59375 113.929688 54.542969 112.839844 54.421875 112.6875 C 54.347656 112.597656 54.308594 110.652344 54.289062 106.214844 L 54.261719 99.871094 L 54.03125 99.304688 C 53.714844 98.515625 52.921875 97.683594 52.148438 97.320312 L 51.539062 97.039062 L 45.105469 96.992188 C 38.816406 96.941406 38.671875 96.933594 38.53125 96.746094 C 38.214844 96.320312 36.707031 93.191406 36.765625 93.09375 C 36.871094 92.921875 54.492188 92.949219 55.132812 93.117188 M 113.957031 93.175781 C 113.957031 93.394531 112.375 96.570312 112.152344 96.792969 C 112.027344 96.917969 111.164062 96.945312 105.621094 96.992188 L 99.238281 97.039062 L 98.6875 97.296875 C 98.03125 97.609375 97.324219 98.238281 96.996094 98.804688 C 96.503906 99.652344 96.476562 100.0625 96.472656 106.589844 L 96.472656 112.621094 L 96.152344 112.820312 C 95.378906 113.304688 92.738281 114.574219 92.664062 114.496094 C 92.617188 114.449219 92.59375 110.335938 92.605469 105.238281 L 92.632812 96.0625 L 92.941406 95.410156 C 93.476562 94.273438 94.292969 93.558594 95.480469 93.171875 C 96.371094 92.886719 113.957031 92.890625 113.957031 93.175781 M 73.835938 94.996094 C 68.910156 96.3125 67.226562 102.328125 70.773438 105.9375 C 75.394531 110.636719 83.234375 106.265625 81.703125 99.84375 C 80.871094 96.355469 77.207031 94.097656 73.835938 94.996094 M 77.421875 95.464844 C 81.746094 97 83.007812 102.546875 79.769531 105.78125 C 75.675781 109.871094 68.792969 106.675781 69.203125 100.875 C 69.492188 96.847656 73.636719 94.117188 77.421875 95.464844 M 74.070312 97.167969 C 69.160156 98.90625 70.566406 106.078125 75.75 105.753906 C 79.480469 105.519531 81.121094 100.894531 78.4375 98.195312 C 77.410156 97.160156 75.414062 96.691406 74.070312 97.167969 M 52.101562 97.621094 C 52.785156 97.964844 53.363281 98.578125 53.710938 99.320312 L 53.964844 99.871094 L 53.996094 106.050781 C 54.019531 111.5625 54.007812 112.238281 53.875 112.289062 C 53.355469 112.488281 48.308594 108.660156 45.769531 106.140625 C 43.113281 103.507812 38.957031 98.1875 38.957031 97.421875 C 38.957031 97.296875 39.761719 97.28125 45.246094 97.304688 L 51.539062 97.332031 L 52.101562 97.621094 M 76.988281 97.578125 C 78.972656 98.34375 80.078125 101.160156 79.144531 103.070312 C 77.210938 107.054688 71.359375 105.789062 71.359375 101.386719 C 71.359375 98.417969 74.199219 96.5 76.988281 97.578125 M 111.765625 97.367188 C 111.820312 97.457031 110.75 99.179688 109.882812 100.40625 C 106.839844 104.683594 102.84375 108.542969 98.507812 111.371094 C 97.019531 112.34375 96.949219 112.378906 96.84375 112.214844 C 96.667969 111.941406 96.792969 100.019531 96.980469 99.554688 C 97.371094 98.554688 98.121094 97.804688 99.074219 97.457031 C 99.578125 97.273438 111.652344 97.1875 111.765625 97.367188 M 74.871094 99.148438 C 72.253906 99.765625 72.785156 103.640625 75.484375 103.628906 C 77.394531 103.621094 78.355469 101.140625 76.976562 99.753906 C 76.394531 99.167969 75.671875 98.960938 74.871094 99.148438 M 81.4375 113.03125 C 80.765625 113.203125 80.382812 114.070312 80.691406 114.722656 C 81.132812 115.65625 82.550781 115.585938 82.871094 114.613281 C 83.1875 113.648438 82.402344 112.777344 81.4375 113.03125 M 68.210938 113.304688 C 67.226562 114.296875 68.277344 115.859375 69.523438 115.25 C 70.675781 114.691406 70.265625 113.007812 68.976562 113.007812 C 68.582031 113.007812 68.457031 113.058594 68.210938 113.304688 "/>
</g>
</svg>
