<svg xmlns="http://www.w3.org/2000/svg" viewBox="0 0 72 72"><path fill="#1e50a0" d="M5 17h62v38H5z"/><path fill="#fff" d="M9.887 18H6v2.332L32.113 36H36v-2.332L9.887 18z"/><path fill="#fff" d="M36 20.332V18h-3.887L6 33.668V36h3.887L36 20.332z"/><path fill="#fff" d="M6 24h30v6H6z"/><path fill="#fff" d="M18 18h6v18h-6z"/><path fill="#d22f27" d="M20 18h2v18h-2z"/><path fill="#d22f27" d="M6 26h30v2H6zM36 33.668 29.887 30H26l10 6v-2.332zM36 18h-3.887L24 22.868V24h2l10-6zM6 20.332 12.113 24H16L6 18v2.332zM6 36h3.887L18 31.132V30h-2L6 36z"/><g fill="none" stroke="#fff" stroke-linecap="round" stroke-linejoin="round"><path d="m52.594 27.262 1.723-1.325-2.093.052-.599-2.061-.694 2.093-2.092.051 1.663 1.242-.695 2.092 1.723-1.325 1.663 1.242-.599-2.061zM52.594 45.262l1.723-1.325-2.093.052-.599-2.061-.694 2.093-2.092.051 1.663 1.242-.695 2.092 1.723-1.325 1.663 1.242-.599-2.061zM60.594 32.262l1.723-1.325-2.093.052-.599-2.061-.694 2.093-2.092.051 1.663 1.242-.695 2.092 1.723-1.325 1.663 1.242-.599-2.061zM45.594 34.262l1.723-1.325-2.093.052-.599-2.061-.694 2.093-2.092.051 1.663 1.242-.695 2.092 1.723-1.325 1.663 1.242-.599-2.061z"/></g><g fill="#d22f27"><path d="m52.505 27.211 1.573-1.21-1.91.047-.547-1.881-.634 1.91-1.909.047 1.518 1.133-.634 1.91 1.572-1.209 1.518 1.133-.547-1.88zM52.505 45.211l1.573-1.21-1.91.047-.547-1.881-.634 1.91-1.909.047 1.518 1.133-.634 1.91 1.572-1.209 1.518 1.133-.547-1.88zM60.505 32.211l1.573-1.21-1.91.047-.547-1.881-.634 1.91-1.909.047 1.518 1.133-.634 1.91 1.572-1.209 1.518 1.133-.547-1.88zM45.505 34.211l1.573-1.21-1.91.047-.547-1.881-.634 1.91-1.909.047 1.518 1.133-.634 1.91 1.572-1.209 1.518 1.133-.547-1.88z"/></g><path fill="none" stroke="#000" stroke-linecap="round" stroke-linejoin="round" stroke-width="2" d="M5 17h62v38H5z"/></svg>