<?xml version="1.0" encoding="UTF-8"?>
<svg xmlns="http://www.w3.org/2000/svg" xmlns:xlink="http://www.w3.org/1999/xlink" width="60px" height="42px" viewBox="0 0 60 42" version="1.1">
<g id="surface1">
<path style=" stroke:none;fill-rule:evenodd;fill:rgb(92.156863%,89.803922%,83.529413%);fill-opacity:1;" d="M 20.347656 1.308594 C 20.347656 1.335938 20.382812 1.417969 20.429688 1.488281 C 20.675781 1.875 22.480469 4.625 22.589844 4.785156 C 23.011719 5.394531 28.417969 13.675781 28.433594 13.734375 C 28.457031 13.820312 32.59375 13.851562 32.59375 13.769531 C 32.59375 13.734375 30.96875 11.261719 26.015625 3.777344 C 25.152344 2.472656 24.4375 1.371094 24.425781 1.332031 C 24.398438 1.238281 20.347656 1.214844 20.347656 1.308594 M 36.71875 1.3125 C 36.71875 1.339844 35.960938 2.515625 35.03125 3.921875 C 34.101562 5.328125 33.34375 6.507812 33.34375 6.542969 C 33.34375 6.628906 35.292969 9.613281 35.351562 9.609375 C 35.394531 9.609375 40.742188 1.480469 40.800781 1.328125 C 40.824219 1.265625 40.65625 1.257812 38.773438 1.257812 C 37.15625 1.257812 36.71875 1.269531 36.71875 1.3125 "/>
<path style=" stroke:none;fill-rule:evenodd;fill:rgb(26.666668%,54.509807%,76.078433%);fill-opacity:1;" d="M 24.414062 1.308594 C 24.414062 1.335938 25.242188 2.605469 26.25 4.128906 C 27.257812 5.65625 29.097656 8.441406 30.339844 10.316406 C 31.582031 12.195312 32.59375 13.746094 32.59375 13.769531 C 32.59375 13.792969 33.398438 13.808594 34.695312 13.808594 C 36.894531 13.808594 36.914062 13.808594 36.914062 13.632812 C 36.914062 13.601562 36.949219 13.546875 36.996094 13.515625 C 37.042969 13.480469 37.078125 13.429688 37.078125 13.394531 C 37.078125 13.363281 37.113281 13.304688 37.152344 13.269531 C 37.652344 12.804688 37.179688 12.296875 36.246094 12.296875 L 35.804688 12.296875 L 35.5625 11.917969 C 35.429688 11.707031 35.300781 11.511719 35.277344 11.484375 C 35.253906 11.460938 35.207031 11.386719 35.171875 11.320312 C 35.140625 11.257812 35.097656 11.207031 35.078125 11.207031 C 35.0625 11.207031 35.046875 11.171875 35.046875 11.128906 C 35.046875 11 37.984375 10.9375 38.382812 11.058594 C 38.59375 11.125 38.699219 11.085938 38.699219 10.945312 C 38.699219 10.914062 38.734375 10.863281 38.78125 10.828125 C 38.828125 10.796875 38.863281 10.738281 38.863281 10.703125 C 38.863281 10.667969 38.902344 10.609375 38.949219 10.578125 C 38.992188 10.542969 39.03125 10.488281 39.03125 10.449219 C 39.03125 10.414062 39.070312 10.359375 39.113281 10.324219 C 39.160156 10.292969 39.195312 10.234375 39.195312 10.199219 C 39.195312 10.164062 39.234375 10.105469 39.28125 10.074219 C 39.324219 10.039062 39.363281 9.984375 39.363281 9.949219 C 39.363281 9.910156 39.402344 9.855469 39.445312 9.820312 C 39.492188 9.789062 39.53125 9.730469 39.53125 9.695312 C 39.53125 9.660156 39.566406 9.601562 39.613281 9.570312 C 39.65625 9.535156 39.695312 9.484375 39.695312 9.457031 C 39.695312 9.425781 39.710938 9.402344 39.730469 9.402344 C 39.75 9.402344 39.792969 9.351562 39.824219 9.285156 C 39.855469 9.222656 39.914062 9.132812 39.953125 9.089844 C 39.996094 9.042969 40.027344 8.984375 40.027344 8.953125 C 40.027344 8.921875 40.042969 8.898438 40.0625 8.898438 C 40.082031 8.898438 40.132812 8.824219 40.171875 8.730469 C 40.214844 8.636719 40.265625 8.5625 40.28125 8.5625 C 40.300781 8.5625 40.316406 8.527344 40.316406 8.488281 C 40.316406 8.445312 40.355469 8.386719 40.402344 8.351562 C 40.445312 8.320312 40.484375 8.261719 40.484375 8.226562 C 40.484375 8.191406 40.523438 8.132812 40.566406 8.101562 C 40.613281 8.066406 40.652344 8.011719 40.652344 7.976562 C 40.652344 7.9375 40.6875 7.882812 40.734375 7.847656 C 40.78125 7.816406 40.816406 7.765625 40.816406 7.734375 C 40.816406 7.707031 40.832031 7.679688 40.851562 7.679688 C 40.871094 7.679688 40.910156 7.628906 40.945312 7.566406 C 40.976562 7.503906 41.035156 7.417969 41.074219 7.382812 C 41.117188 7.34375 41.148438 7.289062 41.148438 7.253906 C 41.148438 7.222656 41.1875 7.167969 41.230469 7.136719 C 41.277344 7.101562 41.316406 7.046875 41.316406 7.007812 C 41.316406 6.972656 41.351562 6.917969 41.398438 6.882812 C 41.445312 6.851562 41.480469 6.792969 41.480469 6.757812 C 41.480469 6.722656 41.519531 6.664062 41.5625 6.632812 C 41.609375 6.597656 41.648438 6.546875 41.648438 6.515625 C 41.648438 6.484375 41.683594 6.417969 41.730469 6.371094 C 41.777344 6.320312 41.8125 6.253906 41.8125 6.226562 C 41.8125 6.195312 41.832031 6.167969 41.855469 6.167969 C 41.878906 6.167969 41.894531 6.144531 41.894531 6.113281 C 41.894531 6.082031 41.925781 6.03125 41.957031 6.003906 C 41.992188 5.972656 42.019531 5.917969 42.019531 5.878906 C 42.019531 5.84375 42.058594 5.785156 42.105469 5.75 C 42.148438 5.71875 42.1875 5.660156 42.1875 5.625 C 42.1875 5.589844 42.222656 5.53125 42.269531 5.5 C 42.316406 5.464844 42.351562 5.410156 42.351562 5.371094 C 42.351562 5.335938 42.390625 5.28125 42.4375 5.246094 C 42.480469 5.214844 42.519531 5.15625 42.519531 5.121094 C 42.519531 5.085938 42.554688 5.027344 42.601562 4.996094 C 42.648438 4.960938 42.683594 4.90625 42.683594 4.867188 C 42.683594 4.832031 42.722656 4.777344 42.769531 4.742188 C 42.8125 4.710938 42.851562 4.652344 42.851562 4.617188 C 42.851562 4.582031 42.886719 4.523438 42.933594 4.492188 C 42.980469 4.457031 43.015625 4.410156 43.015625 4.382812 C 43.015625 4.355469 43.054688 4.300781 43.101562 4.261719 C 43.144531 4.21875 43.183594 4.160156 43.183594 4.128906 C 43.183594 4.097656 43.199219 4.070312 43.21875 4.070312 C 43.238281 4.070312 43.277344 4.019531 43.3125 3.957031 C 43.34375 3.890625 43.402344 3.804688 43.441406 3.757812 C 43.484375 3.714844 43.515625 3.652344 43.515625 3.621094 C 43.515625 3.59375 43.53125 3.566406 43.550781 3.566406 C 43.570312 3.566406 43.621094 3.492188 43.660156 3.398438 C 43.703125 3.308594 43.75 3.230469 43.769531 3.230469 C 43.789062 3.230469 43.804688 3.199219 43.804688 3.15625 C 43.804688 3.117188 43.84375 3.054688 43.890625 3.023438 C 43.933594 2.988281 43.972656 2.933594 43.972656 2.894531 C 43.972656 2.859375 44.007812 2.804688 44.054688 2.769531 C 44.101562 2.738281 44.136719 2.6875 44.136719 2.664062 C 44.136719 2.636719 44.175781 2.582031 44.222656 2.539062 C 44.265625 2.496094 44.304688 2.441406 44.304688 2.417969 C 44.304688 2.390625 44.34375 2.339844 44.386719 2.308594 C 44.433594 2.273438 44.46875 2.21875 44.46875 2.183594 C 44.46875 2.148438 44.507812 2.089844 44.554688 2.054688 C 44.597656 2.023438 44.636719 1.964844 44.636719 1.929688 C 44.636719 1.894531 44.675781 1.839844 44.71875 1.804688 C 44.765625 1.773438 44.804688 1.714844 44.804688 1.679688 C 44.804688 1.644531 44.839844 1.585938 44.886719 1.554688 C 44.933594 1.515625 44.96875 1.445312 44.96875 1.375 L 44.96875 1.257812 L 42.898438 1.257812 C 41.019531 1.257812 40.824219 1.265625 40.800781 1.328125 C 40.742188 1.480469 35.394531 9.609375 35.351562 9.609375 C 35.324219 9.613281 34.859375 8.933594 34.316406 8.101562 C 33.777344 7.269531 33.316406 6.589844 33.296875 6.589844 C 33.277344 6.589844 33.128906 6.789062 32.96875 7.03125 C 32.808594 7.273438 32.660156 7.464844 32.636719 7.453125 C 32.617188 7.4375 32.441406 7.179688 32.242188 6.871094 C 32.042969 6.566406 31.867188 6.308594 31.851562 6.296875 C 31.839844 6.285156 31.800781 6.222656 31.769531 6.160156 C 31.734375 6.097656 31.695312 6.042969 31.675781 6.042969 C 31.65625 6.042969 31.640625 6.019531 31.640625 5.988281 C 31.640625 5.957031 31.605469 5.898438 31.566406 5.851562 C 31.445312 5.71875 30.625 4.4375 30.5625 4.292969 C 30.535156 4.214844 30.492188 4.15625 30.472656 4.15625 C 30.453125 4.15625 30.4375 4.121094 30.4375 4.082031 C 30.4375 4.039062 30.398438 3.980469 30.351562 3.945312 C 30.308594 3.910156 30.269531 3.855469 30.269531 3.820312 C 30.269531 3.785156 30.234375 3.726562 30.1875 3.695312 C 30.140625 3.660156 30.105469 3.609375 30.105469 3.578125 C 30.105469 3.546875 30.085938 3.5 30.0625 3.472656 C 30 3.398438 29.84375 3.144531 29.773438 3.011719 C 29.742188 2.949219 29.699219 2.894531 29.679688 2.894531 C 29.664062 2.894531 29.648438 2.867188 29.648438 2.832031 C 29.648438 2.796875 29.632812 2.769531 29.613281 2.769531 C 29.59375 2.769531 29.550781 2.71875 29.519531 2.65625 C 29.488281 2.589844 29.429688 2.507812 29.386719 2.472656 C 29.347656 2.433594 29.316406 2.375 29.316406 2.34375 C 29.316406 2.3125 29.277344 2.257812 29.230469 2.222656 C 29.1875 2.191406 29.148438 2.132812 29.148438 2.097656 C 29.148438 2.0625 29.113281 2.007812 29.066406 1.972656 C 29.019531 1.9375 28.984375 1.882812 28.984375 1.847656 C 28.984375 1.8125 28.945312 1.753906 28.898438 1.722656 C 28.855469 1.6875 28.816406 1.632812 28.816406 1.59375 C 28.816406 1.558594 28.78125 1.503906 28.734375 1.46875 C 28.6875 1.4375 28.652344 1.375 28.652344 1.332031 C 28.652344 1.261719 28.535156 1.257812 26.53125 1.257812 C 24.964844 1.257812 24.414062 1.273438 24.414062 1.308594 "/>
<path style=" stroke:none;fill-rule:evenodd;fill:rgb(90.588236%,31.37255%,32.549021%);fill-opacity:1;" d="M 16.195312 1.386719 C 16.195312 1.453125 16.210938 1.511719 16.230469 1.511719 C 16.25 1.511719 16.296875 1.585938 16.339844 1.679688 C 16.378906 1.769531 16.429688 1.847656 16.449219 1.847656 C 16.46875 1.847656 16.484375 1.871094 16.484375 1.902344 C 16.484375 1.933594 16.515625 1.992188 16.558594 2.039062 C 16.597656 2.082031 16.65625 2.171875 16.6875 2.234375 C 16.722656 2.296875 16.761719 2.351562 16.78125 2.351562 C 16.800781 2.351562 16.816406 2.375 16.816406 2.40625 C 16.816406 2.4375 16.855469 2.496094 16.898438 2.539062 C 16.945312 2.582031 16.984375 2.636719 16.984375 2.664062 C 16.984375 2.6875 17.019531 2.738281 17.066406 2.769531 C 17.113281 2.804688 17.148438 2.859375 17.148438 2.894531 C 17.148438 2.933594 17.1875 2.988281 17.230469 3.023438 C 17.277344 3.054688 17.316406 3.113281 17.316406 3.148438 C 17.316406 3.183594 17.351562 3.242188 17.398438 3.273438 C 17.445312 3.308594 17.480469 3.363281 17.480469 3.398438 C 17.480469 3.4375 17.519531 3.492188 17.5625 3.527344 C 17.609375 3.558594 17.648438 3.617188 17.648438 3.652344 C 17.648438 3.6875 17.683594 3.746094 17.730469 3.777344 C 17.777344 3.8125 17.8125 3.867188 17.8125 3.902344 C 17.8125 3.9375 17.851562 3.996094 17.894531 4.027344 C 17.941406 4.0625 17.980469 4.121094 17.980469 4.160156 C 17.980469 4.199219 18.007812 4.253906 18.042969 4.28125 C 18.074219 4.308594 18.105469 4.355469 18.105469 4.382812 C 18.105469 4.410156 18.140625 4.457031 18.1875 4.492188 C 18.234375 4.523438 18.269531 4.582031 18.269531 4.617188 C 18.269531 4.652344 18.308594 4.710938 18.351562 4.742188 C 18.398438 4.777344 18.4375 4.832031 18.4375 4.867188 C 18.4375 4.90625 18.472656 4.960938 18.519531 4.996094 C 18.566406 5.027344 18.601562 5.085938 18.601562 5.121094 C 18.601562 5.15625 18.640625 5.214844 18.683594 5.246094 C 18.730469 5.28125 18.769531 5.335938 18.769531 5.371094 C 18.769531 5.410156 18.804688 5.464844 18.851562 5.5 C 18.898438 5.53125 18.933594 5.589844 18.933594 5.625 C 18.933594 5.660156 18.972656 5.71875 19.015625 5.75 C 19.0625 5.785156 19.101562 5.839844 19.101562 5.875 C 19.101562 5.914062 19.136719 5.96875 19.183594 6.003906 C 19.230469 6.035156 19.265625 6.085938 19.265625 6.117188 C 19.265625 6.144531 19.285156 6.167969 19.308594 6.167969 C 19.332031 6.167969 19.347656 6.203125 19.347656 6.246094 C 19.347656 6.285156 19.386719 6.347656 19.433594 6.378906 C 19.476562 6.414062 19.515625 6.46875 19.515625 6.503906 C 19.515625 6.542969 19.554688 6.597656 19.597656 6.632812 C 19.644531 6.664062 19.683594 6.726562 19.683594 6.765625 C 19.683594 6.808594 19.699219 6.839844 19.71875 6.839844 C 19.734375 6.839844 19.785156 6.917969 19.828125 7.007812 C 19.867188 7.101562 19.917969 7.175781 19.9375 7.175781 C 19.957031 7.175781 19.972656 7.203125 19.972656 7.230469 C 19.972656 7.261719 20.003906 7.324219 20.046875 7.367188 C 20.085938 7.414062 20.144531 7.503906 20.175781 7.566406 C 20.207031 7.628906 20.25 7.679688 20.269531 7.679688 C 20.289062 7.679688 20.304688 7.707031 20.304688 7.734375 C 20.304688 7.765625 20.34375 7.816406 20.386719 7.847656 C 20.433594 7.882812 20.46875 7.9375 20.46875 7.976562 C 20.46875 8.011719 20.507812 8.066406 20.554688 8.101562 C 20.597656 8.132812 20.636719 8.191406 20.636719 8.226562 C 20.636719 8.261719 20.675781 8.320312 20.71875 8.351562 C 20.765625 8.386719 20.804688 8.441406 20.804688 8.476562 C 20.804688 8.515625 20.839844 8.570312 20.886719 8.605469 C 20.929688 8.636719 20.96875 8.695312 20.96875 8.730469 C 20.96875 8.765625 21.007812 8.824219 21.050781 8.855469 C 21.097656 8.890625 21.136719 8.945312 21.136719 8.980469 C 21.136719 9.019531 21.171875 9.074219 21.21875 9.109375 C 21.265625 9.140625 21.300781 9.195312 21.300781 9.226562 C 21.300781 9.261719 21.335938 9.316406 21.378906 9.355469 C 21.421875 9.390625 21.46875 9.464844 21.484375 9.515625 C 21.5 9.570312 21.53125 9.613281 21.554688 9.613281 C 21.574219 9.613281 21.589844 9.636719 21.589844 9.667969 C 21.589844 9.695312 21.628906 9.761719 21.675781 9.8125 C 21.71875 9.863281 21.757812 9.925781 21.757812 9.957031 C 21.757812 9.988281 21.796875 10.039062 21.839844 10.074219 C 21.886719 10.105469 21.925781 10.164062 21.925781 10.199219 C 21.925781 10.234375 21.960938 10.292969 22.007812 10.324219 C 22.050781 10.359375 22.089844 10.414062 22.089844 10.449219 C 22.089844 10.488281 22.128906 10.542969 22.171875 10.578125 C 22.21875 10.609375 22.257812 10.667969 22.257812 10.703125 C 22.257812 10.738281 22.292969 10.796875 22.339844 10.828125 C 22.386719 10.863281 22.421875 10.914062 22.421875 10.945312 C 22.421875 11.023438 22.527344 11.121094 22.601562 11.121094 C 22.699219 11.121094 23.710938 12.6875 23.710938 12.835938 C 23.710938 12.902344 23.746094 12.988281 23.792969 13.03125 C 23.839844 13.074219 23.875 13.128906 23.875 13.15625 C 23.875 13.179688 23.914062 13.230469 23.957031 13.261719 C 24.003906 13.296875 24.042969 13.351562 24.042969 13.390625 C 24.042969 13.425781 24.078125 13.480469 24.125 13.515625 C 24.171875 13.546875 24.207031 13.601562 24.207031 13.632812 C 24.207031 13.808594 24.230469 13.808594 26.382812 13.808594 C 27.800781 13.808594 28.441406 13.796875 28.441406 13.765625 C 28.441406 13.738281 28.164062 13.300781 27.828125 12.789062 C 27.488281 12.277344 26.859375 11.320312 26.425781 10.660156 C 25.996094 10.003906 25.277344 8.90625 24.828125 8.226562 C 22.464844 4.636719 20.347656 1.375 20.347656 1.320312 C 20.347656 1.265625 20.070312 1.257812 18.269531 1.257812 L 16.195312 1.257812 L 16.195312 1.386719 M 32.484375 1.332031 C 32.46875 1.371094 32.421875 1.4375 32.378906 1.472656 C 32.339844 1.511719 32.304688 1.570312 32.304688 1.601562 C 32.304688 1.632812 32.265625 1.6875 32.222656 1.722656 C 32.175781 1.753906 32.136719 1.816406 32.136719 1.855469 C 32.136719 1.898438 32.121094 1.929688 32.105469 1.929688 C 32.085938 1.929688 32.042969 1.984375 32.011719 2.046875 C 31.976562 2.109375 31.9375 2.179688 31.917969 2.203125 C 31.832031 2.320312 31.683594 2.566406 31.683594 2.597656 C 31.683594 2.617188 31.644531 2.664062 31.597656 2.707031 C 31.554688 2.75 31.515625 2.804688 31.515625 2.832031 C 31.515625 2.855469 31.476562 2.90625 31.433594 2.9375 C 31.386719 2.972656 31.347656 3.027344 31.347656 3.0625 C 31.347656 3.101562 31.3125 3.15625 31.265625 3.191406 C 31.21875 3.222656 31.183594 3.28125 31.183594 3.316406 C 31.183594 3.351562 31.144531 3.410156 31.101562 3.441406 C 31.054688 3.476562 31.015625 3.53125 31.015625 3.566406 C 31.015625 3.605469 30.980469 3.660156 30.933594 3.695312 C 30.886719 3.726562 30.851562 3.785156 30.851562 3.820312 C 30.851562 3.855469 30.8125 3.910156 30.769531 3.945312 C 30.722656 3.980469 30.683594 4.03125 30.683594 4.0625 C 30.683594 4.09375 30.65625 4.148438 30.621094 4.183594 C 30.582031 4.222656 30.566406 4.28125 30.585938 4.335938 C 30.617188 4.433594 31.453125 5.726562 31.566406 5.851562 C 31.605469 5.898438 31.640625 5.957031 31.640625 5.988281 C 31.640625 6.019531 31.65625 6.042969 31.675781 6.042969 C 31.695312 6.042969 31.734375 6.097656 31.769531 6.160156 C 31.800781 6.222656 31.839844 6.285156 31.851562 6.296875 C 31.867188 6.308594 32.042969 6.566406 32.242188 6.871094 C 32.441406 7.179688 32.617188 7.4375 32.636719 7.453125 C 32.671875 7.472656 33.195312 6.738281 33.339844 6.46875 C 33.371094 6.410156 34.136719 5.25 35.035156 3.890625 C 35.9375 2.53125 36.683594 1.382812 36.695312 1.339844 C 36.726562 1.21875 32.527344 1.210938 32.484375 1.332031 "/>
<path style=" stroke:none;fill-rule:evenodd;fill:rgb(98.431373%,76.47059%,2.745098%);fill-opacity:1;" d="M 36.414062 11.140625 C 36.414062 11.175781 36.429688 11.207031 36.449219 11.207031 C 36.46875 11.207031 36.511719 11.257812 36.542969 11.320312 C 36.574219 11.386719 36.636719 11.472656 36.675781 11.519531 C 36.714844 11.5625 36.746094 11.625 36.746094 11.65625 C 36.746094 11.683594 36.765625 11.710938 36.789062 11.710938 C 36.8125 11.710938 36.832031 11.738281 36.832031 11.773438 C 36.832031 11.808594 36.847656 11.835938 36.871094 11.835938 C 36.894531 11.835938 36.914062 11.863281 36.914062 11.898438 C 36.914062 11.933594 36.933594 11.960938 36.953125 11.960938 C 36.976562 11.960938 36.996094 11.992188 36.996094 12.023438 C 36.996094 12.058594 37.015625 12.089844 37.039062 12.089844 C 37.0625 12.089844 37.078125 12.117188 37.078125 12.152344 C 37.078125 12.1875 37.097656 12.214844 37.121094 12.214844 C 37.144531 12.214844 37.164062 12.234375 37.164062 12.257812 C 37.164062 12.28125 37.199219 12.34375 37.246094 12.390625 C 37.292969 12.441406 37.328125 12.507812 37.328125 12.535156 C 37.328125 12.566406 37.347656 12.589844 37.371094 12.589844 C 37.441406 12.589844 37.414062 12.859375 37.328125 13 C 37.285156 13.074219 37.265625 13.136719 37.289062 13.136719 C 37.34375 13.136719 37.34375 15.683594 37.289062 15.71875 C 37.265625 15.734375 37.246094 15.820312 37.246094 15.910156 C 37.246094 16 37.226562 16.074219 37.203125 16.074219 C 37.175781 16.074219 37.167969 16.089844 37.179688 16.113281 C 37.203125 16.152344 37.011719 16.335938 36.902344 16.378906 C 36.863281 16.394531 36.824219 16.390625 36.808594 16.371094 C 36.796875 16.347656 36.679688 16.28125 36.550781 16.214844 C 36.417969 16.152344 36.304688 16.085938 36.296875 16.066406 C 36.289062 16.046875 36.246094 16.035156 36.203125 16.035156 C 36.160156 16.035156 36.125 16.015625 36.125 15.992188 C 36.125 15.96875 36.101562 15.949219 36.070312 15.949219 C 35.996094 15.949219 35.792969 15.851562 35.792969 15.8125 C 35.792969 15.796875 35.734375 15.78125 35.667969 15.78125 C 35.597656 15.78125 35.542969 15.761719 35.542969 15.738281 C 35.542969 15.714844 35.507812 15.699219 35.460938 15.699219 C 35.417969 15.699219 35.371094 15.679688 35.355469 15.65625 C 35.34375 15.632812 35.285156 15.613281 35.230469 15.613281 C 35.171875 15.613281 35.128906 15.59375 35.128906 15.566406 C 35.128906 15.542969 35.101562 15.53125 35.070312 15.542969 C 35.035156 15.554688 34.988281 15.539062 34.960938 15.507812 C 34.933594 15.472656 34.867188 15.445312 34.8125 15.445312 C 34.761719 15.445312 34.707031 15.425781 34.691406 15.402344 C 34.679688 15.378906 34.621094 15.363281 34.566406 15.363281 C 34.507812 15.363281 34.464844 15.34375 34.464844 15.320312 C 34.464844 15.296875 34.398438 15.277344 34.316406 15.277344 C 34.238281 15.277344 34.171875 15.257812 34.171875 15.234375 C 34.171875 15.210938 34.117188 15.195312 34.046875 15.195312 C 33.980469 15.195312 33.925781 15.175781 33.925781 15.152344 C 33.925781 15.128906 33.847656 15.109375 33.757812 15.109375 C 33.667969 15.109375 33.589844 15.09375 33.589844 15.078125 C 33.589844 15.058594 33.523438 15.046875 33.4375 15.046875 C 33.351562 15.050781 33.253906 15.03125 33.226562 15.011719 C 33.195312 14.988281 33.09375 14.964844 32.996094 14.957031 C 32.902344 14.949219 32.71875 14.921875 32.59375 14.898438 C 32.46875 14.875 32.117188 14.84375 31.8125 14.832031 C 31.472656 14.816406 31.277344 14.792969 31.3125 14.769531 C 31.347656 14.75 31.046875 14.734375 30.589844 14.734375 C 30.164062 14.734375 29.8125 14.75 29.8125 14.769531 C 29.8125 14.789062 29.574219 14.816406 29.285156 14.832031 C 28.992188 14.84375 28.640625 14.875 28.503906 14.902344 C 28.367188 14.925781 28.1875 14.949219 28.101562 14.953125 C 28.015625 14.957031 27.945312 14.976562 27.945312 14.992188 C 27.945312 15.011719 27.863281 15.027344 27.765625 15.027344 C 27.667969 15.027344 27.570312 15.042969 27.546875 15.066406 C 27.527344 15.085938 27.449219 15.113281 27.375 15.125 C 27.304688 15.132812 27.21875 15.160156 27.1875 15.179688 C 27.160156 15.195312 27.089844 15.207031 27.035156 15.199219 C 26.972656 15.191406 26.949219 15.203125 26.964844 15.230469 C 26.984375 15.261719 26.9375 15.277344 26.828125 15.277344 C 26.738281 15.277344 26.65625 15.296875 26.652344 15.320312 C 26.644531 15.34375 26.585938 15.367188 26.527344 15.371094 C 26.464844 15.375 26.421875 15.394531 26.433594 15.414062 C 26.445312 15.429688 26.386719 15.445312 26.308594 15.445312 C 26.226562 15.445312 26.160156 15.464844 26.160156 15.488281 C 26.160156 15.511719 26.121094 15.53125 26.074219 15.53125 C 26.03125 15.53125 25.992188 15.546875 25.992188 15.570312 C 25.992188 15.59375 25.949219 15.613281 25.890625 15.613281 C 25.835938 15.613281 25.777344 15.632812 25.765625 15.65625 C 25.75 15.679688 25.703125 15.699219 25.660156 15.699219 C 25.613281 15.699219 25.578125 15.714844 25.578125 15.738281 C 25.578125 15.761719 25.550781 15.78125 25.515625 15.78125 C 25.480469 15.78125 25.40625 15.8125 25.351562 15.847656 C 25.292969 15.886719 25.230469 15.902344 25.207031 15.886719 C 25.183594 15.871094 25.164062 15.878906 25.164062 15.90625 C 25.164062 15.929688 25.125 15.949219 25.078125 15.949219 C 25.035156 15.949219 24.996094 15.96875 24.996094 15.992188 C 24.996094 16.015625 24.96875 16.035156 24.933594 16.035156 C 24.898438 16.035156 24.871094 16.050781 24.871094 16.074219 C 24.871094 16.097656 24.835938 16.117188 24.789062 16.117188 C 24.742188 16.117188 24.707031 16.136719 24.707031 16.160156 C 24.707031 16.183594 24.667969 16.203125 24.621094 16.203125 C 24.578125 16.203125 24.539062 16.21875 24.539062 16.242188 C 24.539062 16.265625 24.503906 16.285156 24.457031 16.285156 C 24.410156 16.285156 24.375 16.304688 24.375 16.328125 C 24.375 16.449219 24.054688 16.367188 23.894531 16.203125 C 23.808594 16.109375 23.75 16.035156 23.773438 16.035156 C 23.792969 16.035156 23.785156 16.011719 23.757812 15.984375 C 23.722656 15.945312 23.710938 15.53125 23.710938 14.378906 L 23.710938 12.828125 L 23.152344 11.976562 C 22.71875 11.320312 22.574219 11.128906 22.511719 11.132812 C 22.464844 11.136719 22.4375 11.152344 22.445312 11.167969 C 22.457031 11.1875 22.441406 11.226562 22.410156 11.257812 C 22.253906 11.429688 22.257812 11.414062 22.257812 14.652344 C 22.257812 18.011719 22.261719 17.921875 22.0625 17.921875 C 21.996094 17.921875 21.996094 17.929688 22.046875 17.964844 C 22.101562 18 22.101562 18.003906 22.039062 18.003906 C 21.964844 18.007812 21.675781 18.285156 21.675781 18.359375 C 21.675781 18.378906 21.664062 18.386719 21.648438 18.371094 C 21.621094 18.34375 21.488281 18.460938 21.488281 18.515625 C 21.488281 18.535156 21.46875 18.554688 21.445312 18.5625 C 21.375 18.582031 21.050781 18.949219 21.050781 19.011719 C 21.050781 19.070312 21.046875 19.070312 21.011719 19.011719 C 20.976562 18.964844 20.96875 18.972656 20.96875 19.054688 C 20.96875 19.136719 20.960938 19.148438 20.925781 19.097656 C 20.894531 19.042969 20.886719 19.046875 20.886719 19.109375 C 20.886719 19.152344 20.796875 19.277344 20.6875 19.382812 C 20.582031 19.492188 20.484375 19.609375 20.476562 19.640625 C 20.472656 19.675781 20.429688 19.730469 20.386719 19.769531 C 20.339844 19.808594 20.304688 19.863281 20.304688 19.890625 C 20.304688 19.917969 20.28125 19.929688 20.257812 19.910156 C 20.226562 19.894531 20.21875 19.898438 20.238281 19.929688 C 20.253906 19.953125 20.199219 20.039062 20.121094 20.117188 C 20.042969 20.199219 19.984375 20.273438 19.992188 20.28125 C 20.003906 20.289062 19.964844 20.351562 19.910156 20.414062 C 19.855469 20.480469 19.796875 20.570312 19.785156 20.613281 C 19.769531 20.65625 19.742188 20.691406 19.71875 20.691406 C 19.699219 20.691406 19.683594 20.730469 19.683594 20.777344 C 19.683594 20.824219 19.664062 20.859375 19.640625 20.859375 C 19.617188 20.859375 19.597656 20.894531 19.597656 20.933594 C 19.597656 20.976562 19.5625 21.035156 19.515625 21.070312 C 19.46875 21.101562 19.433594 21.164062 19.433594 21.207031 C 19.433594 21.246094 19.414062 21.28125 19.390625 21.28125 C 19.367188 21.28125 19.347656 21.316406 19.347656 21.363281 C 19.347656 21.410156 19.332031 21.449219 19.308594 21.449219 C 19.285156 21.449219 19.265625 21.480469 19.265625 21.523438 C 19.265625 21.5625 19.230469 21.625 19.183594 21.65625 C 19.136719 21.691406 19.101562 21.75 19.101562 21.792969 C 19.101562 21.832031 19.082031 21.867188 19.054688 21.867188 C 19.03125 21.867188 19.023438 21.886719 19.035156 21.90625 C 19.050781 21.925781 19.03125 21.972656 18.996094 22.007812 C 18.960938 22.042969 18.933594 22.097656 18.933594 22.128906 C 18.933594 22.207031 18.835938 22.414062 18.800781 22.414062 C 18.78125 22.414062 18.769531 22.449219 18.769531 22.496094 C 18.769531 22.542969 18.75 22.582031 18.726562 22.582031 C 18.703125 22.582031 18.683594 22.640625 18.683594 22.71875 C 18.683594 22.820312 18.675781 22.839844 18.644531 22.789062 C 18.613281 22.742188 18.601562 22.761719 18.601562 22.863281 C 18.601562 22.9375 18.582031 23 18.5625 23 C 18.539062 23 18.519531 23.058594 18.519531 23.125 C 18.519531 23.195312 18.503906 23.253906 18.480469 23.253906 C 18.460938 23.253906 18.449219 23.285156 18.457031 23.324219 C 18.464844 23.390625 18.371094 23.617188 18.308594 23.671875 C 18.296875 23.683594 18.285156 23.742188 18.285156 23.796875 C 18.285156 23.855469 18.261719 23.945312 18.234375 23.996094 C 18.207031 24.046875 18.1875 24.125 18.1875 24.171875 C 18.1875 24.222656 18.167969 24.261719 18.144531 24.261719 C 18.117188 24.261719 18.109375 24.277344 18.121094 24.296875 C 18.136719 24.320312 18.117188 24.421875 18.085938 24.523438 C 18.050781 24.625 18.03125 24.746094 18.039062 24.796875 C 18.050781 24.847656 18.039062 24.898438 18.019531 24.910156 C 17.996094 24.925781 17.980469 25.019531 17.980469 25.121094 C 17.980469 25.226562 17.960938 25.308594 17.9375 25.308594 C 17.914062 25.308594 17.894531 25.429688 17.894531 25.582031 C 17.894531 25.734375 17.878906 25.855469 17.855469 25.855469 C 17.832031 25.855469 17.8125 25.992188 17.8125 26.1875 C 17.8125 26.371094 17.792969 26.53125 17.773438 26.546875 C 17.714844 26.582031 17.714844 28.960938 17.773438 28.960938 C 17.796875 28.960938 17.8125 29.101562 17.8125 29.296875 C 17.8125 29.492188 17.832031 29.632812 17.855469 29.632812 C 17.878906 29.632812 17.898438 29.761719 17.898438 29.9375 C 17.898438 30.128906 17.910156 30.21875 17.933594 30.183594 C 17.960938 30.144531 17.980469 30.210938 17.992188 30.390625 C 18.027344 30.78125 18.023438 30.765625 18.109375 31.035156 C 18.152344 31.171875 18.1875 31.335938 18.1875 31.402344 C 18.1875 31.46875 18.207031 31.519531 18.226562 31.519531 C 18.25 31.519531 18.269531 31.578125 18.269531 31.644531 C 18.269531 31.710938 18.289062 31.773438 18.316406 31.78125 C 18.34375 31.789062 18.363281 31.847656 18.363281 31.910156 C 18.363281 31.972656 18.378906 32.023438 18.398438 32.023438 C 18.417969 32.023438 18.4375 32.070312 18.4375 32.128906 C 18.4375 32.183594 18.453125 32.242188 18.476562 32.253906 C 18.5 32.269531 18.519531 32.328125 18.519531 32.382812 C 18.519531 32.441406 18.539062 32.488281 18.5625 32.488281 C 18.582031 32.488281 18.601562 32.523438 18.601562 32.566406 C 18.601562 32.609375 18.621094 32.652344 18.644531 32.660156 C 18.664062 32.667969 18.6875 32.726562 18.695312 32.789062 C 18.699219 32.855469 18.71875 32.90625 18.734375 32.90625 C 18.753906 32.90625 18.769531 32.945312 18.769531 32.988281 C 18.769531 33.035156 18.785156 33.074219 18.808594 33.074219 C 18.832031 33.074219 18.851562 33.113281 18.851562 33.15625 C 18.851562 33.203125 18.871094 33.242188 18.894531 33.242188 C 18.914062 33.242188 18.933594 33.28125 18.933594 33.324219 C 18.933594 33.371094 18.949219 33.410156 18.964844 33.410156 C 19.003906 33.410156 19.101562 33.613281 19.101562 33.691406 C 19.101562 33.722656 19.113281 33.746094 19.132812 33.746094 C 19.148438 33.746094 19.207031 33.847656 19.265625 33.972656 C 19.320312 34.097656 19.382812 34.191406 19.398438 34.179688 C 19.417969 34.167969 19.433594 34.195312 19.433594 34.238281 C 19.433594 34.28125 19.46875 34.359375 19.515625 34.40625 C 19.5625 34.457031 19.597656 34.519531 19.597656 34.546875 C 19.597656 34.574219 19.640625 34.632812 19.6875 34.675781 C 19.738281 34.71875 19.765625 34.753906 19.746094 34.753906 C 19.710938 34.753906 19.851562 35.011719 19.910156 35.058594 C 19.9375 35.074219 19.9375 35.085938 19.910156 35.089844 C 19.890625 35.089844 19.914062 35.117188 19.964844 35.152344 C 20.015625 35.191406 20.054688 35.25 20.054688 35.292969 C 20.054688 35.332031 20.09375 35.390625 20.136719 35.425781 C 20.183594 35.457031 20.222656 35.507812 20.222656 35.535156 C 20.222656 35.5625 20.296875 35.652344 20.386719 35.734375 C 20.480469 35.816406 20.554688 35.894531 20.554688 35.90625 C 20.554688 35.9375 20.679688 36.085938 20.875 36.289062 C 20.972656 36.390625 21.050781 36.484375 21.054688 36.503906 C 21.054688 36.550781 21.425781 36.949219 21.429688 36.90625 C 21.429688 36.886719 21.449219 36.914062 21.46875 36.96875 C 21.488281 37.019531 21.542969 37.078125 21.589844 37.09375 C 21.632812 37.109375 21.671875 37.144531 21.675781 37.167969 C 21.679688 37.1875 21.699219 37.203125 21.71875 37.199219 C 21.742188 37.191406 21.753906 37.210938 21.746094 37.238281 C 21.742188 37.269531 21.761719 37.289062 21.789062 37.28125 C 21.816406 37.277344 21.835938 37.289062 21.832031 37.308594 C 21.824219 37.328125 21.835938 37.347656 21.855469 37.347656 C 21.875 37.347656 21.925781 37.390625 21.96875 37.441406 C 22.011719 37.492188 22.046875 37.523438 22.046875 37.503906 C 22.046875 37.488281 22.140625 37.570312 22.253906 37.6875 C 22.371094 37.804688 22.484375 37.902344 22.507812 37.902344 C 22.535156 37.902344 22.605469 37.957031 22.671875 38.027344 C 22.734375 38.097656 22.808594 38.152344 22.835938 38.152344 C 22.863281 38.152344 22.941406 38.210938 23.003906 38.277344 C 23.066406 38.347656 23.144531 38.40625 23.175781 38.40625 C 23.207031 38.40625 23.261719 38.441406 23.292969 38.488281 C 23.328125 38.535156 23.386719 38.574219 23.429688 38.574219 C 23.46875 38.574219 23.5 38.589844 23.5 38.605469 C 23.5 38.625 23.601562 38.707031 23.71875 38.785156 C 23.839844 38.859375 23.953125 38.945312 23.96875 38.96875 C 23.984375 38.992188 24 39 24 38.980469 C 24 38.949219 24.339844 39.125 24.445312 39.210938 C 24.472656 39.234375 24.515625 39.238281 24.542969 39.21875 C 24.574219 39.203125 24.582031 39.207031 24.566406 39.230469 C 24.542969 39.273438 24.707031 39.371094 24.808594 39.371094 C 24.839844 39.371094 24.871094 39.390625 24.878906 39.414062 C 24.886719 39.4375 24.933594 39.460938 24.984375 39.464844 C 25.035156 39.46875 25.066406 39.480469 25.058594 39.488281 C 25.03125 39.519531 25.246094 39.621094 25.332031 39.621094 C 25.375 39.621094 25.410156 39.640625 25.410156 39.664062 C 25.410156 39.6875 25.449219 39.707031 25.492188 39.707031 C 25.535156 39.707031 25.585938 39.722656 25.597656 39.746094 C 25.613281 39.769531 25.671875 39.789062 25.726562 39.789062 C 25.78125 39.789062 25.828125 39.808594 25.828125 39.832031 C 25.828125 39.855469 25.863281 39.875 25.910156 39.875 C 25.957031 39.875 25.992188 39.890625 25.992188 39.914062 C 25.992188 39.9375 26.050781 39.957031 26.117188 39.957031 C 26.1875 39.957031 26.242188 39.976562 26.242188 40 C 26.242188 40.023438 26.296875 40.042969 26.367188 40.042969 C 26.433594 40.042969 26.492188 40.058594 26.492188 40.082031 C 26.492188 40.105469 26.546875 40.125 26.617188 40.125 C 26.683594 40.125 26.742188 40.144531 26.742188 40.167969 C 26.742188 40.191406 26.785156 40.210938 26.84375 40.210938 C 26.898438 40.210938 26.953125 40.226562 26.96875 40.25 C 26.984375 40.273438 27.058594 40.292969 27.136719 40.292969 C 27.214844 40.292969 27.28125 40.3125 27.28125 40.335938 C 27.28125 40.359375 27.355469 40.378906 27.445312 40.378906 C 27.535156 40.378906 27.617188 40.394531 27.632812 40.417969 C 27.648438 40.441406 27.742188 40.460938 27.839844 40.460938 C 27.941406 40.460938 28.035156 40.480469 28.046875 40.503906 C 28.0625 40.527344 28.167969 40.546875 28.28125 40.546875 C 28.394531 40.546875 28.480469 40.558594 28.46875 40.578125 C 28.457031 40.59375 28.582031 40.617188 28.746094 40.621094 C 28.90625 40.628906 29.074219 40.652344 29.113281 40.675781 C 29.207031 40.722656 31.972656 40.722656 32.03125 40.671875 C 32.054688 40.652344 32.207031 40.625 32.367188 40.613281 C 32.914062 40.570312 33.136719 40.539062 33.136719 40.503906 C 33.136719 40.472656 33.238281 40.449219 33.664062 40.394531 C 33.761719 40.378906 33.839844 40.351562 33.839844 40.332031 C 33.839844 40.308594 33.886719 40.292969 33.941406 40.292969 C 33.996094 40.292969 34.054688 40.273438 34.070312 40.246094 C 34.089844 40.214844 34.109375 40.21875 34.136719 40.257812 C 34.164062 40.300781 34.171875 40.300781 34.171875 40.261719 C 34.171875 40.234375 34.21875 40.210938 34.273438 40.210938 C 34.328125 40.210938 34.386719 40.191406 34.402344 40.167969 C 34.414062 40.144531 34.484375 40.125 34.550781 40.125 C 34.625 40.125 34.664062 40.109375 34.652344 40.082031 C 34.636719 40.058594 34.6875 40.042969 34.773438 40.042969 C 34.863281 40.042969 34.914062 40.023438 34.898438 40 C 34.882812 39.976562 34.925781 39.957031 35.003906 39.957031 C 35.078125 39.957031 35.121094 39.941406 35.105469 39.914062 C 35.09375 39.890625 35.128906 39.875 35.1875 39.875 C 35.246094 39.875 35.292969 39.855469 35.292969 39.832031 C 35.292969 39.808594 35.351562 39.789062 35.417969 39.789062 C 35.488281 39.789062 35.542969 39.769531 35.542969 39.746094 C 35.542969 39.722656 35.582031 39.707031 35.625 39.707031 C 35.671875 39.707031 35.710938 39.6875 35.710938 39.664062 C 35.710938 39.640625 35.746094 39.621094 35.792969 39.621094 C 35.882812 39.621094 36.011719 39.558594 36.140625 39.453125 C 36.183594 39.417969 36.21875 39.394531 36.222656 39.398438 C 36.238281 39.425781 36.414062 39.355469 36.414062 39.320312 C 36.414062 39.296875 36.433594 39.292969 36.453125 39.304688 C 36.472656 39.316406 36.519531 39.300781 36.558594 39.261719 C 36.59375 39.226562 36.640625 39.207031 36.660156 39.21875 C 36.679688 39.234375 36.71875 39.214844 36.746094 39.183594 C 36.800781 39.117188 37.121094 38.9375 37.121094 38.976562 C 37.121094 38.988281 37.152344 38.96875 37.1875 38.933594 C 37.222656 38.894531 37.265625 38.875 37.28125 38.882812 C 37.300781 38.894531 37.339844 38.867188 37.371094 38.820312 C 37.402344 38.777344 37.464844 38.742188 37.507812 38.742188 C 37.546875 38.742188 37.570312 38.722656 37.558594 38.699219 C 37.542969 38.675781 37.550781 38.65625 37.578125 38.65625 C 37.605469 38.65625 37.652344 38.628906 37.6875 38.59375 C 37.722656 38.558594 37.769531 38.542969 37.796875 38.558594 C 37.820312 38.574219 37.828125 38.566406 37.808594 38.535156 C 37.792969 38.511719 37.800781 38.488281 37.828125 38.488281 C 37.851562 38.488281 37.902344 38.460938 37.9375 38.425781 C 37.972656 38.390625 38.019531 38.375 38.042969 38.390625 C 38.070312 38.40625 38.078125 38.398438 38.058594 38.367188 C 38.042969 38.34375 38.050781 38.320312 38.074219 38.320312 C 38.101562 38.320312 38.167969 38.273438 38.222656 38.21875 C 38.277344 38.164062 38.363281 38.105469 38.410156 38.089844 C 38.457031 38.074219 38.488281 38.050781 38.476562 38.039062 C 38.449219 38.011719 38.554688 37.902344 38.613281 37.902344 C 38.636719 37.902344 38.675781 37.863281 38.699219 37.816406 C 38.722656 37.769531 38.761719 37.734375 38.78125 37.734375 C 38.816406 37.734375 38.976562 37.601562 39.203125 37.386719 C 39.246094 37.347656 39.28125 37.324219 39.28125 37.335938 C 39.28125 37.347656 39.339844 37.300781 39.414062 37.230469 C 39.488281 37.160156 39.5625 37.105469 39.582031 37.105469 C 39.597656 37.101562 39.613281 37.074219 39.613281 37.039062 C 39.613281 37.003906 39.625 36.980469 39.644531 36.992188 C 39.660156 37 39.71875 36.964844 39.769531 36.910156 C 39.820312 36.855469 39.855469 36.808594 39.839844 36.808594 C 39.828125 36.808594 39.882812 36.746094 39.964844 36.667969 C 40.046875 36.585938 40.109375 36.507812 40.113281 36.488281 C 40.113281 36.46875 40.214844 36.339844 40.339844 36.203125 C 40.464844 36.066406 40.566406 35.9375 40.566406 35.917969 C 40.566406 35.859375 40.679688 35.761719 40.707031 35.789062 C 40.722656 35.804688 40.734375 35.785156 40.734375 35.742188 C 40.734375 35.703125 40.75 35.683594 40.769531 35.695312 C 40.792969 35.707031 40.828125 35.660156 40.851562 35.59375 C 40.875 35.523438 40.910156 35.464844 40.933594 35.464844 C 40.953125 35.464844 40.996094 35.414062 41.027344 35.351562 C 41.058594 35.289062 41.121094 35.199219 41.160156 35.15625 C 41.199219 35.109375 41.230469 35.042969 41.234375 35.007812 C 41.234375 34.949219 41.238281 34.949219 41.277344 35.003906 C 41.3125 35.054688 41.316406 35.050781 41.300781 34.972656 C 41.289062 34.910156 41.300781 34.878906 41.339844 34.878906 C 41.371094 34.878906 41.398438 34.851562 41.398438 34.8125 C 41.398438 34.777344 41.433594 34.707031 41.480469 34.660156 C 41.527344 34.609375 41.5625 34.542969 41.5625 34.515625 C 41.5625 34.484375 41.582031 34.460938 41.609375 34.460938 C 41.632812 34.460938 41.640625 34.441406 41.628906 34.421875 C 41.617188 34.402344 41.636719 34.371094 41.671875 34.359375 C 41.707031 34.34375 41.722656 34.316406 41.710938 34.292969 C 41.695312 34.269531 41.710938 34.238281 41.746094 34.222656 C 41.785156 34.210938 41.804688 34.183594 41.792969 34.164062 C 41.78125 34.144531 41.796875 34.105469 41.828125 34.074219 C 41.886719 34.011719 41.960938 33.832031 41.945312 33.777344 C 41.941406 33.761719 41.957031 33.746094 41.980469 33.746094 C 42.003906 33.746094 42.019531 33.707031 42.019531 33.660156 C 42.019531 33.617188 42.039062 33.578125 42.0625 33.578125 C 42.085938 33.578125 42.105469 33.539062 42.105469 33.492188 C 42.105469 33.449219 42.121094 33.410156 42.144531 33.410156 C 42.167969 33.410156 42.1875 33.371094 42.1875 33.324219 C 42.1875 33.28125 42.207031 33.242188 42.226562 33.242188 C 42.25 33.242188 42.269531 33.207031 42.269531 33.160156 C 42.269531 33.117188 42.289062 33.066406 42.3125 33.054688 C 42.335938 33.039062 42.351562 32.988281 42.351562 32.941406 C 42.351562 32.898438 42.371094 32.871094 42.394531 32.886719 C 42.417969 32.902344 42.4375 32.859375 42.4375 32.78125 C 42.4375 32.710938 42.453125 32.65625 42.476562 32.65625 C 42.5 32.65625 42.519531 32.617188 42.519531 32.570312 C 42.519531 32.523438 42.539062 32.488281 42.5625 32.488281 C 42.582031 32.488281 42.601562 32.441406 42.601562 32.382812 C 42.601562 32.328125 42.621094 32.269531 42.644531 32.253906 C 42.667969 32.242188 42.683594 32.183594 42.683594 32.128906 C 42.683594 32.070312 42.703125 32.023438 42.726562 32.023438 C 42.75 32.023438 42.769531 31.96875 42.769531 31.898438 C 42.769531 31.828125 42.785156 31.773438 42.808594 31.773438 C 42.832031 31.773438 42.851562 31.71875 42.851562 31.648438 C 42.851562 31.582031 42.871094 31.515625 42.894531 31.5 C 42.914062 31.484375 42.933594 31.429688 42.933594 31.371094 C 42.933594 31.316406 42.957031 31.269531 42.984375 31.269531 C 43.019531 31.269531 43.015625 31.253906 42.976562 31.226562 C 42.933594 31.199219 42.929688 31.1875 42.964844 31.1875 C 42.996094 31.1875 43.015625 31.132812 43.015625 31.058594 C 43.015625 30.992188 43.035156 30.933594 43.058594 30.933594 C 43.082031 30.933594 43.101562 30.859375 43.101562 30.765625 C 43.101562 30.671875 43.117188 30.597656 43.132812 30.597656 C 43.152344 30.597656 43.171875 30.519531 43.175781 30.421875 C 43.183594 30.324219 43.203125 30.222656 43.21875 30.199219 C 43.238281 30.175781 43.257812 30.042969 43.261719 29.90625 C 43.269531 29.765625 43.289062 29.644531 43.304688 29.632812 C 43.335938 29.609375 43.335938 29.582031 43.347656 29.117188 C 43.347656 28.953125 43.363281 28.878906 43.386719 28.914062 C 43.40625 28.945312 43.421875 28.453125 43.425781 27.761719 C 43.429688 27.070312 43.414062 26.539062 43.390625 26.527344 C 43.371094 26.515625 43.347656 26.347656 43.34375 26.15625 C 43.335938 25.964844 43.316406 25.796875 43.300781 25.785156 C 43.28125 25.773438 43.265625 25.664062 43.265625 25.539062 C 43.265625 25.410156 43.246094 25.308594 43.226562 25.308594 C 43.203125 25.308594 43.183594 25.214844 43.183594 25.097656 C 43.183594 24.984375 43.164062 24.890625 43.140625 24.890625 C 43.117188 24.890625 43.101562 24.816406 43.101562 24.726562 C 43.101562 24.632812 43.082031 24.554688 43.0625 24.546875 C 43.039062 24.539062 43.015625 24.460938 43.011719 24.375 C 43.003906 24.289062 42.984375 24.21875 42.96875 24.21875 C 42.949219 24.21875 42.933594 24.160156 42.933594 24.09375 C 42.933594 24.023438 42.914062 23.964844 42.894531 23.964844 C 42.871094 23.964844 42.851562 23.898438 42.851562 23.820312 C 42.851562 23.738281 42.832031 23.671875 42.808594 23.671875 C 42.785156 23.671875 42.769531 23.613281 42.769531 23.542969 C 42.769531 23.46875 42.75 23.425781 42.726562 23.441406 C 42.703125 23.457031 42.683594 23.429688 42.683594 23.382812 C 42.683594 23.335938 42.667969 23.289062 42.644531 23.273438 C 42.621094 23.257812 42.601562 23.195312 42.601562 23.128906 C 42.601562 23.0625 42.582031 23 42.558594 22.992188 C 42.535156 22.984375 42.511719 22.929688 42.507812 22.875 C 42.503906 22.816406 42.492188 22.761719 42.480469 22.75 C 42.429688 22.703125 42.351562 22.535156 42.351562 22.472656 C 42.351562 22.4375 42.335938 22.417969 42.3125 22.433594 C 42.289062 22.449219 42.269531 22.414062 42.269531 22.351562 C 42.269531 22.292969 42.25 22.246094 42.226562 22.246094 C 42.207031 22.246094 42.1875 22.195312 42.1875 22.136719 C 42.1875 22.078125 42.167969 22.042969 42.144531 22.054688 C 42.121094 22.070312 42.105469 22.035156 42.105469 21.976562 C 42.105469 21.914062 42.085938 21.867188 42.0625 21.867188 C 42.039062 21.867188 42.019531 21.832031 42.019531 21.785156 C 42.019531 21.742188 41.984375 21.679688 41.945312 21.648438 C 41.902344 21.621094 41.871094 21.5625 41.878906 21.519531 C 41.882812 21.480469 41.871094 21.449219 41.851562 21.449219 C 41.832031 21.449219 41.8125 21.410156 41.8125 21.363281 C 41.8125 21.316406 41.792969 21.28125 41.773438 21.28125 C 41.75 21.28125 41.730469 21.242188 41.730469 21.195312 C 41.730469 21.144531 41.710938 21.117188 41.6875 21.132812 C 41.664062 21.148438 41.648438 21.132812 41.648438 21.097656 C 41.648438 21.0625 41.617188 21.023438 41.578125 21.011719 C 41.542969 20.996094 41.523438 20.972656 41.535156 20.957031 C 41.550781 20.941406 41.519531 20.871094 41.460938 20.796875 C 41.40625 20.722656 41.371094 20.648438 41.386719 20.632812 C 41.398438 20.621094 41.390625 20.609375 41.363281 20.609375 C 41.335938 20.609375 41.316406 20.582031 41.316406 20.554688 C 41.316406 20.523438 41.277344 20.457031 41.230469 20.410156 C 41.1875 20.359375 41.148438 20.304688 41.148438 20.292969 C 41.148438 20.277344 41.09375 20.210938 41.023438 20.148438 C 40.957031 20.082031 40.898438 20.007812 40.898438 19.980469 C 40.898438 19.949219 40.84375 19.875 40.773438 19.8125 C 40.707031 19.746094 40.652344 19.671875 40.652344 19.644531 C 40.652344 19.617188 40.582031 19.523438 40.496094 19.441406 C 40.410156 19.355469 40.273438 19.203125 40.191406 19.097656 C 40 18.847656 39.082031 17.921875 39.027344 17.921875 C 38.863281 17.921875 38.863281 17.933594 38.863281 14.609375 C 38.863281 12.507812 38.851562 11.417969 38.824219 11.417969 C 38.800781 11.417969 38.78125 11.398438 38.78125 11.371094 C 38.78125 11.296875 38.597656 11.144531 38.492188 11.128906 C 38.054688 11.070312 36.414062 11.082031 36.414062 11.140625 M 31.53125 15.976562 C 31.820312 16.015625 31.761719 16.0625 31.378906 16.089844 C 31.191406 16.105469 30.925781 16.136719 30.789062 16.160156 C 30.652344 16.183594 30.441406 16.214844 30.320312 16.226562 C 30.199219 16.242188 30.09375 16.269531 30.078125 16.289062 C 30.066406 16.3125 29.984375 16.328125 29.894531 16.328125 C 29.808594 16.328125 29.722656 16.347656 29.710938 16.367188 C 29.695312 16.390625 29.621094 16.410156 29.542969 16.410156 C 29.464844 16.410156 29.390625 16.429688 29.378906 16.453125 C 29.363281 16.476562 29.296875 16.496094 29.230469 16.496094 C 29.164062 16.496094 29.101562 16.515625 29.085938 16.535156 C 29.074219 16.558594 29.007812 16.578125 28.941406 16.578125 C 28.875 16.578125 28.808594 16.597656 28.796875 16.621094 C 28.78125 16.644531 28.726562 16.664062 28.671875 16.664062 C 28.617188 16.664062 28.5625 16.683594 28.546875 16.703125 C 28.53125 16.726562 28.484375 16.746094 28.441406 16.746094 C 28.394531 16.746094 28.328125 16.761719 28.285156 16.785156 C 28.246094 16.804688 28.167969 16.839844 28.109375 16.863281 C 27.703125 17.023438 27.652344 17.046875 27.03125 17.34375 C 26.722656 17.492188 26.34375 17.691406 26.1875 17.789062 C 26.03125 17.886719 25.894531 17.964844 25.882812 17.964844 C 25.859375 17.964844 25.105469 18.472656 25.078125 18.507812 C 25.066406 18.523438 24.992188 18.582031 24.914062 18.636719 C 24.832031 18.691406 24.757812 18.746094 24.746094 18.761719 C 24.734375 18.777344 24.6875 18.816406 24.636719 18.851562 C 24.316406 19.070312 23.03125 20.324219 22.722656 20.714844 C 22.128906 21.472656 21.589844 22.234375 21.589844 22.328125 C 21.589844 22.351562 21.578125 22.371094 21.5625 22.371094 C 21.542969 22.371094 21.507812 22.414062 21.484375 22.464844 C 21.390625 22.65625 21.238281 22.9375 21.214844 22.957031 C 21.113281 23.050781 20.503906 24.488281 20.367188 24.953125 C 20.324219 25.089844 20.277344 25.222656 20.261719 25.246094 C 20.246094 25.269531 20.222656 25.335938 20.210938 25.394531 C 20.195312 25.449219 20.164062 25.574219 20.136719 25.664062 C 19.507812 27.910156 19.507812 30.492188 20.136719 32.757812 C 20.273438 33.246094 20.292969 33.367188 20.226562 33.367188 C 20.207031 33.367188 20.136719 33.25 20.066406 33.105469 C 19.945312 32.859375 19.898438 32.746094 19.742188 32.371094 C 19.703125 32.285156 19.65625 32.179688 19.636719 32.140625 C 19.617188 32.101562 19.597656 32.03125 19.597656 31.984375 C 19.597656 31.941406 19.578125 31.890625 19.558594 31.878906 C 19.535156 31.863281 19.515625 31.808594 19.515625 31.753906 C 19.515625 31.695312 19.496094 31.640625 19.472656 31.625 C 19.453125 31.613281 19.433594 31.554688 19.433594 31.5 C 19.433594 31.445312 19.414062 31.390625 19.394531 31.378906 C 19.375 31.363281 19.347656 31.292969 19.339844 31.21875 C 19.328125 31.140625 19.289062 30.976562 19.257812 30.847656 C 19.222656 30.722656 19.171875 30.503906 19.144531 30.367188 C 19.117188 30.226562 19.078125 30.03125 19.058594 29.925781 C 18.863281 28.929688 18.863281 27.027344 19.058594 25.980469 C 19.167969 25.386719 19.234375 25.105469 19.433594 24.394531 C 19.460938 24.308594 19.488281 24.195312 19.503906 24.144531 C 19.515625 24.089844 19.542969 24.039062 19.5625 24.027344 C 19.582031 24.011719 19.597656 23.964844 19.597656 23.921875 C 19.597656 23.875 19.613281 23.804688 19.636719 23.765625 C 19.671875 23.691406 19.738281 23.535156 19.800781 23.367188 C 20.054688 22.691406 20.910156 21.203125 21.410156 20.570312 C 22.023438 19.796875 22.929688 18.875 23.390625 18.554688 C 23.441406 18.523438 23.492188 18.484375 23.5 18.46875 C 23.609375 18.347656 24.382812 17.816406 24.847656 17.546875 C 25.308594 17.277344 26.316406 16.789062 26.410156 16.789062 C 26.433594 16.789062 26.484375 16.773438 26.523438 16.75 C 26.652344 16.6875 26.800781 16.628906 26.96875 16.574219 C 27.058594 16.546875 27.171875 16.511719 27.21875 16.492188 C 27.265625 16.476562 27.386719 16.4375 27.488281 16.410156 C 27.589844 16.382812 27.722656 16.34375 27.777344 16.328125 C 27.835938 16.308594 27.996094 16.273438 28.132812 16.246094 C 28.269531 16.21875 28.445312 16.179688 28.527344 16.160156 C 29.121094 16.007812 30.957031 15.898438 31.53125 15.976562 M 30.71875 18.605469 C 30.773438 18.773438 30.890625 19.152344 30.984375 19.453125 C 31.074219 19.753906 31.167969 20.03125 31.1875 20.074219 C 31.207031 20.113281 31.226562 20.175781 31.226562 20.210938 C 31.226562 20.246094 31.242188 20.304688 31.261719 20.347656 C 31.28125 20.386719 31.339844 20.5625 31.390625 20.734375 C 31.441406 20.90625 31.5 21.082031 31.519531 21.121094 C 31.539062 21.160156 31.558594 21.222656 31.558594 21.257812 C 31.558594 21.292969 31.574219 21.355469 31.59375 21.394531 C 31.613281 21.4375 31.671875 21.609375 31.722656 21.785156 C 31.773438 21.957031 31.832031 22.136719 31.851562 22.183594 C 31.867188 22.226562 31.90625 22.339844 31.933594 22.433594 C 31.960938 22.527344 31.996094 22.640625 32.015625 22.6875 C 32.03125 22.730469 32.144531 23.082031 32.261719 23.460938 C 32.382812 23.84375 32.523438 24.292969 32.578125 24.464844 C 32.632812 24.636719 32.664062 24.792969 32.652344 24.8125 C 32.640625 24.832031 34.132812 24.847656 36.007812 24.847656 C 39.761719 24.847656 39.648438 24.839844 39.226562 25.109375 C 39.128906 25.171875 39.003906 25.257812 38.949219 25.304688 C 38.660156 25.53125 38.445312 25.6875 38.410156 25.6875 C 38.390625 25.6875 38.367188 25.699219 38.359375 25.71875 C 38.34375 25.753906 37.914062 26.078125 37.164062 26.621094 C 37.015625 26.730469 36.875 26.832031 36.851562 26.851562 C 36.828125 26.871094 36.746094 26.929688 36.664062 26.988281 C 36.585938 27.042969 36.507812 27.101562 36.5 27.113281 C 36.488281 27.128906 36.410156 27.183594 36.332031 27.238281 C 36.253906 27.296875 36.175781 27.351562 36.167969 27.367188 C 36.15625 27.378906 36.050781 27.457031 35.9375 27.535156 C 35.824219 27.613281 35.703125 27.699219 35.667969 27.730469 C 35.613281 27.777344 35.214844 28.066406 34.503906 28.582031 C 34.359375 28.6875 34.191406 28.820312 34.128906 28.875 L 34.011719 28.980469 L 34.242188 29.695312 C 34.367188 30.085938 34.488281 30.441406 34.511719 30.480469 C 34.53125 30.523438 34.546875 30.582031 34.546875 30.617188 C 34.546875 30.652344 34.5625 30.714844 34.585938 30.753906 C 34.605469 30.796875 34.683594 31.027344 34.757812 31.269531 C 34.832031 31.511719 34.910156 31.726562 34.929688 31.75 C 34.945312 31.773438 34.960938 31.832031 34.960938 31.882812 C 34.960938 31.933594 34.980469 31.988281 35.003906 32.003906 C 35.027344 32.019531 35.046875 32.074219 35.046875 32.128906 C 35.046875 32.183594 35.0625 32.242188 35.085938 32.253906 C 35.109375 32.269531 35.128906 32.328125 35.128906 32.382812 C 35.128906 32.4375 35.148438 32.492188 35.167969 32.507812 C 35.191406 32.523438 35.210938 32.570312 35.210938 32.617188 C 35.210938 32.660156 35.226562 32.730469 35.25 32.769531 C 35.316406 32.898438 36.085938 35.316406 36.082031 35.394531 C 36.082031 35.496094 36.070312 35.492188 35.714844 35.226562 C 35.542969 35.097656 35.304688 34.921875 35.191406 34.835938 C 35.074219 34.753906 34.84375 34.578125 34.671875 34.453125 C 34.5 34.324219 34.183594 34.09375 33.964844 33.933594 C 33.582031 33.65625 33.363281 33.496094 32.574219 32.90625 C 32.367188 32.753906 31.921875 32.421875 31.578125 32.171875 C 31.234375 31.921875 30.886719 31.664062 30.800781 31.597656 C 30.597656 31.4375 30.527344 31.464844 29.957031 31.929688 C 29.9375 31.949219 29.824219 32.03125 29.710938 32.109375 C 29.597656 32.1875 29.476562 32.273438 29.441406 32.304688 C 29.324219 32.398438 29.011719 32.632812 28.546875 32.96875 C 28 33.363281 27.289062 33.894531 27.1875 33.976562 C 27.144531 34.011719 27.09375 34.039062 27.070312 34.039062 C 27.050781 34.039062 27.03125 34.054688 27.03125 34.074219 C 27.03125 34.089844 26.980469 34.136719 26.917969 34.175781 C 26.855469 34.210938 26.757812 34.28125 26.699219 34.328125 C 26.640625 34.375 26.296875 34.632812 25.929688 34.898438 C 25.566406 35.167969 25.234375 35.414062 25.191406 35.449219 C 25.054688 35.5625 24.984375 35.476562 25.078125 35.308594 C 25.121094 35.234375 25.207031 34.972656 25.578125 33.789062 C 25.695312 33.40625 25.808594 33.058594 25.828125 33.011719 C 25.84375 32.964844 25.9375 32.671875 26.035156 32.359375 C 26.128906 32.050781 26.242188 31.691406 26.285156 31.5625 C 26.324219 31.4375 26.484375 30.9375 26.636719 30.449219 C 26.789062 29.964844 26.949219 29.457031 26.992188 29.320312 C 27.035156 29.183594 27.074219 29.050781 27.074219 29.027344 C 27.074219 29 27.148438 28.945312 27.242188 28.90625 C 27.335938 28.863281 27.40625 28.820312 27.394531 28.808594 C 27.378906 28.796875 27.3125 28.816406 27.242188 28.855469 C 27.171875 28.890625 27.089844 28.90625 27.0625 28.890625 C 27.03125 28.875 26.683594 28.613281 26.285156 28.316406 C 25.273438 27.558594 25.058594 27.402344 24.375 26.886719 C 24.042969 26.640625 23.742188 26.414062 23.710938 26.386719 C 23.675781 26.359375 23.582031 26.289062 23.5 26.234375 C 23.378906 26.148438 22.65625 25.609375 21.894531 25.042969 C 21.796875 24.96875 21.71875 24.894531 21.71875 24.878906 C 21.71875 24.863281 23.238281 24.847656 25.097656 24.847656 L 28.480469 24.847656 L 28.660156 25.082031 C 29.019531 25.558594 29.375 26.003906 29.414062 26.03125 C 29.507812 26.09375 29.273438 26.105469 27.652344 26.117188 L 25.972656 26.128906 L 26.117188 26.21875 C 26.199219 26.269531 26.320312 26.359375 26.390625 26.417969 C 26.457031 26.476562 26.53125 26.527344 26.554688 26.527344 C 26.578125 26.527344 26.625 26.5625 26.65625 26.609375 C 26.691406 26.65625 26.738281 26.695312 26.761719 26.695312 C 26.785156 26.695312 26.859375 26.742188 26.925781 26.804688 C 26.996094 26.863281 27.101562 26.941406 27.167969 26.980469 C 27.230469 27.015625 27.28125 27.0625 27.28125 27.082031 C 27.28125 27.097656 27.304688 27.113281 27.335938 27.113281 C 27.363281 27.113281 27.425781 27.148438 27.46875 27.1875 C 27.515625 27.230469 27.738281 27.394531 27.964844 27.554688 C 28.195312 27.714844 28.402344 27.867188 28.429688 27.894531 C 28.460938 27.921875 28.546875 27.988281 28.628906 28.035156 C 28.8125 28.152344 28.8125 28.152344 28.585938 28.253906 C 28.480469 28.300781 28.402344 28.347656 28.414062 28.359375 C 28.425781 28.371094 28.472656 28.359375 28.519531 28.335938 C 28.566406 28.308594 28.621094 28.289062 28.640625 28.289062 C 28.660156 28.289062 28.429688 29.046875 28.125 29.976562 C 27.820312 30.902344 27.582031 31.671875 27.589844 31.683594 C 27.617188 31.707031 28.027344 31.425781 29.199219 30.570312 C 29.457031 30.378906 29.863281 30.085938 30.097656 29.914062 L 30.53125 29.601562 L 30.847656 29.828125 C 31.019531 29.957031 31.273438 30.136719 31.40625 30.234375 C 31.542969 30.328125 31.730469 30.464844 31.824219 30.535156 C 31.917969 30.605469 32.085938 30.726562 32.199219 30.804688 C 32.316406 30.886719 32.417969 30.960938 32.429688 30.972656 C 32.503906 31.0625 33.476562 31.734375 33.5 31.710938 C 33.515625 31.699219 33.269531 30.910156 32.957031 29.964844 C 32.644531 29.019531 32.402344 28.21875 32.414062 28.1875 C 32.425781 28.15625 32.605469 28.011719 32.816406 27.867188 C 33.027344 27.722656 33.207031 27.589844 33.21875 27.574219 C 33.230469 27.558594 33.359375 27.464844 33.507812 27.367188 C 33.65625 27.265625 33.789062 27.171875 33.800781 27.15625 C 33.8125 27.140625 34.132812 26.90625 34.519531 26.628906 L 35.21875 26.128906 L 33.449219 26.117188 C 32.320312 26.109375 31.683594 26.089844 31.683594 26.0625 C 31.683594 26.042969 31.699219 26.023438 31.722656 26.023438 C 31.75 26.023438 31.75 25.996094 31.722656 25.949219 C 31.695312 25.910156 31.429688 25.132812 31.128906 24.21875 C 30.628906 22.707031 30.476562 22.339844 30.476562 22.636719 C 30.476562 22.695312 30.457031 22.753906 30.4375 22.769531 C 30.414062 22.785156 30.394531 22.839844 30.394531 22.894531 C 30.394531 22.949219 30.375 23.007812 30.351562 23.023438 C 30.332031 23.035156 30.3125 23.09375 30.3125 23.148438 C 30.3125 23.203125 30.292969 23.257812 30.269531 23.273438 C 30.246094 23.289062 30.226562 23.34375 30.226562 23.398438 C 30.226562 23.453125 30.210938 23.511719 30.1875 23.527344 C 30.164062 23.539062 30.144531 23.597656 30.144531 23.652344 C 30.144531 23.707031 30.125 23.761719 30.105469 23.777344 C 30.082031 23.792969 30.0625 23.847656 30.0625 23.902344 C 30.0625 23.957031 30.042969 24.015625 30.019531 24.027344 C 29.996094 24.042969 29.980469 24.101562 29.980469 24.15625 C 29.980469 24.210938 29.960938 24.265625 29.9375 24.28125 C 29.914062 24.296875 29.894531 24.351562 29.894531 24.40625 C 29.894531 24.460938 29.878906 24.519531 29.855469 24.53125 C 29.832031 24.546875 29.8125 24.601562 29.8125 24.652344 C 29.8125 24.707031 29.800781 24.761719 29.785156 24.777344 C 29.773438 24.789062 29.683594 25.042969 29.589844 25.335938 C 29.492188 25.628906 29.398438 25.875 29.375 25.882812 C 29.335938 25.890625 28.5 24.816406 28.511719 24.769531 C 28.53125 24.6875 28.953125 23.34375 28.980469 23.273438 C 29 23.226562 29.050781 23.066406 29.097656 22.917969 C 29.292969 22.285156 29.78125 20.746094 29.8125 20.648438 C 29.832031 20.59375 29.972656 20.148438 30.125 19.664062 C 30.417969 18.734375 30.511719 18.4375 30.539062 18.351562 C 30.578125 18.242188 30.628906 18.308594 30.71875 18.605469 M 40.0625 20.839844 C 40.476562 21.398438 40.9375 22.207031 41.234375 22.894531 C 41.28125 23.011719 41.347656 23.164062 41.378906 23.230469 C 41.40625 23.300781 41.457031 23.433594 41.484375 23.527344 C 41.515625 23.617188 41.550781 23.710938 41.566406 23.734375 C 41.578125 23.757812 41.617188 23.863281 41.644531 23.964844 C 41.675781 24.070312 41.722656 24.230469 41.753906 24.324219 C 41.835938 24.59375 41.992188 25.269531 42.058594 25.664062 C 42.871094 30.417969 40.625 35.316406 36.46875 37.84375 C 35.84375 38.222656 34.75 38.78125 34.632812 38.78125 C 34.605469 38.78125 34.554688 38.800781 34.515625 38.824219 C 34.226562 38.984375 33.195312 39.269531 32.386719 39.410156 C 31.605469 39.546875 31.601562 39.496094 32.367188 39.234375 C 33.085938 38.988281 34.457031 38.355469 34.796875 38.109375 C 34.859375 38.066406 34.925781 38.027344 34.9375 38.027344 C 35.085938 38.027344 36.558594 36.90625 37.210938 36.296875 C 38.449219 35.136719 39.789062 33.179688 40.324219 31.742188 C 40.386719 31.578125 40.453125 31.417969 40.488281 31.34375 C 40.507812 31.304688 40.527344 31.234375 40.527344 31.195312 C 40.527344 31.152344 40.542969 31.101562 40.558594 31.078125 C 40.578125 31.054688 40.617188 30.953125 40.648438 30.847656 C 40.675781 30.746094 40.714844 30.621094 40.734375 30.578125 C 40.75 30.53125 40.789062 30.40625 40.816406 30.304688 C 40.839844 30.199219 40.878906 30.058594 40.898438 29.988281 C 41.023438 29.53125 41.125 28.953125 41.230469 28.140625 C 41.285156 27.710938 41.285156 25.773438 41.230469 25.378906 C 41.109375 24.527344 41.066406 24.285156 40.941406 23.714844 C 40.769531 22.941406 40.402344 21.921875 39.984375 21.050781 C 39.847656 20.765625 39.738281 20.523438 39.738281 20.507812 C 39.738281 20.429688 39.828125 20.523438 40.0625 20.839844 M 27.570312 28.710938 C 27.492188 28.753906 27.445312 28.789062 27.472656 28.792969 C 27.523438 28.792969 27.777344 28.671875 27.777344 28.644531 C 27.777344 28.609375 27.714844 28.628906 27.570312 28.710938 "/>
<path style=" stroke:none;fill-rule:evenodd;fill:rgb(98.431373%,84.313726%,38.431373%);fill-opacity:1;" d="M 39.738281 20.507812 C 39.738281 20.523438 39.847656 20.765625 39.984375 21.050781 C 40.402344 21.921875 40.769531 22.941406 40.941406 23.714844 C 41.066406 24.285156 41.109375 24.527344 41.230469 25.378906 C 41.285156 25.773438 41.285156 27.710938 41.230469 28.140625 C 41.125 28.953125 41.023438 29.53125 40.898438 29.988281 C 40.878906 30.058594 40.839844 30.199219 40.816406 30.304688 C 40.789062 30.40625 40.75 30.53125 40.734375 30.578125 C 40.714844 30.621094 40.675781 30.746094 40.648438 30.847656 C 40.617188 30.953125 40.578125 31.054688 40.558594 31.078125 C 40.542969 31.101562 40.527344 31.152344 40.527344 31.195312 C 40.527344 31.234375 40.507812 31.304688 40.488281 31.34375 C 40.453125 31.417969 40.386719 31.578125 40.324219 31.742188 C 39.789062 33.179688 38.449219 35.136719 37.210938 36.296875 C 36.558594 36.90625 35.085938 38.027344 34.9375 38.027344 C 34.925781 38.027344 34.859375 38.066406 34.796875 38.109375 C 34.457031 38.355469 33.085938 38.988281 32.367188 39.234375 C 31.601562 39.496094 31.605469 39.546875 32.386719 39.410156 C 33.195312 39.269531 34.226562 38.984375 34.515625 38.824219 C 34.554688 38.800781 34.605469 38.78125 34.632812 38.78125 C 34.75 38.78125 35.84375 38.222656 36.46875 37.84375 C 39.242188 36.15625 41.257812 33.335938 41.933594 30.199219 C 42.148438 29.203125 42.203125 28.691406 42.203125 27.617188 C 42.203125 26.746094 42.171875 26.328125 42.058594 25.664062 C 41.992188 25.269531 41.835938 24.59375 41.753906 24.324219 C 41.722656 24.230469 41.675781 24.070312 41.644531 23.964844 C 41.617188 23.863281 41.578125 23.757812 41.566406 23.734375 C 41.550781 23.710938 41.515625 23.617188 41.484375 23.527344 C 41.457031 23.433594 41.40625 23.300781 41.378906 23.230469 C 41.347656 23.164062 41.28125 23.011719 41.234375 22.894531 C 40.816406 21.929688 39.738281 20.207031 39.738281 20.507812 M 21.71875 24.878906 C 21.71875 24.894531 21.796875 24.96875 21.894531 25.042969 C 22.65625 25.609375 23.378906 26.148438 23.5 26.234375 C 23.582031 26.289062 23.675781 26.359375 23.710938 26.386719 C 23.742188 26.414062 24.042969 26.640625 24.375 26.886719 C 25.058594 27.402344 25.273438 27.558594 26.285156 28.316406 C 26.683594 28.613281 27.03125 28.871094 27.058594 28.890625 C 27.097656 28.914062 27.519531 28.746094 28.046875 28.5 C 28.09375 28.476562 28.277344 28.394531 28.453125 28.3125 C 28.828125 28.144531 28.816406 28.15625 28.628906 28.035156 C 28.546875 27.988281 28.460938 27.921875 28.429688 27.894531 C 28.402344 27.867188 28.195312 27.714844 27.964844 27.554688 C 27.738281 27.394531 27.515625 27.230469 27.46875 27.1875 C 27.425781 27.148438 27.363281 27.113281 27.335938 27.113281 C 27.304688 27.113281 27.28125 27.097656 27.28125 27.082031 C 27.28125 27.0625 27.230469 27.015625 27.167969 26.980469 C 27.101562 26.941406 26.996094 26.863281 26.925781 26.804688 C 26.859375 26.742188 26.785156 26.695312 26.761719 26.695312 C 26.738281 26.695312 26.691406 26.65625 26.65625 26.609375 C 26.625 26.5625 26.578125 26.527344 26.554688 26.527344 C 26.53125 26.527344 26.457031 26.476562 26.390625 26.417969 C 26.320312 26.359375 26.199219 26.269531 26.117188 26.21875 L 25.972656 26.128906 L 27.652344 26.117188 C 29.273438 26.105469 29.507812 26.09375 29.414062 26.03125 C 29.375 26.003906 29.019531 25.558594 28.660156 25.082031 L 28.480469 24.847656 L 25.097656 24.847656 C 23.238281 24.847656 21.71875 24.863281 21.71875 24.878906 M 32.410156 25.125 C 32.171875 25.441406 31.832031 25.882812 31.742188 25.992188 C 31.707031 26.03125 31.683594 26.074219 31.683594 26.085938 C 31.683594 26.148438 35.320312 26.078125 35.523438 26.011719 C 35.917969 25.878906 39.234375 24.929688 39.296875 24.929688 C 39.332031 24.929688 39.371094 24.914062 39.382812 24.890625 C 39.402344 24.863281 38.265625 24.847656 36.011719 24.847656 L 32.617188 24.851562 L 32.410156 25.125 "/>
<path style=" stroke:none;fill-rule:evenodd;fill:rgb(88.235295%,54.901963%,1.960784%);fill-opacity:1;" d="M 35.65625 11.027344 C 35.078125 11.039062 35.046875 11.046875 35.046875 11.125 C 35.046875 11.167969 35.0625 11.207031 35.078125 11.207031 C 35.097656 11.207031 35.140625 11.257812 35.171875 11.320312 C 35.207031 11.386719 35.253906 11.460938 35.277344 11.484375 C 35.300781 11.511719 35.429688 11.707031 35.5625 11.917969 L 35.804688 12.296875 L 36.246094 12.296875 C 36.917969 12.296875 37.246094 12.449219 37.328125 12.800781 L 37.363281 12.949219 L 37.367188 12.804688 C 37.371094 12.6875 37.273438 12.515625 36.851562 11.871094 C 36.566406 11.433594 36.332031 11.066406 36.332031 11.054688 C 36.332031 11.042969 36.789062 11.039062 37.347656 11.046875 C 37.90625 11.054688 38.332031 11.046875 38.292969 11.03125 C 38.222656 11.003906 36.90625 11.003906 35.65625 11.027344 M 23.191406 11.984375 C 23.378906 12.292969 23.710938 12.777344 23.710938 12.742188 C 23.710938 12.703125 23.226562 11.96875 23.15625 11.898438 C 23.132812 11.875 23.148438 11.914062 23.191406 11.984375 M 30.332031 16.015625 C 30.285156 16.023438 29.996094 16.050781 29.6875 16.074219 C 29.378906 16.097656 29.023438 16.136719 28.898438 16.15625 C 28.453125 16.234375 27.96875 16.335938 27.738281 16.40625 C 27.65625 16.429688 27.527344 16.464844 27.445312 16.488281 C 26.707031 16.6875 25.707031 17.121094 24.796875 17.636719 C 23.664062 18.277344 22.21875 19.574219 21.40625 20.675781 C 21.253906 20.882812 21.105469 21.078125 21.082031 21.113281 C 21.054688 21.148438 21.003906 21.226562 20.972656 21.289062 C 20.941406 21.355469 20.898438 21.40625 20.878906 21.40625 C 20.859375 21.40625 20.84375 21.425781 20.84375 21.445312 C 20.84375 21.46875 20.769531 21.605469 20.679688 21.746094 C 20.371094 22.226562 19.875 23.265625 19.683594 23.839844 C 19.652344 23.921875 19.617188 24.023438 19.597656 24.070312 C 19.582031 24.117188 19.523438 24.296875 19.472656 24.46875 C 19.421875 24.644531 19.367188 24.832031 19.347656 24.890625 C 19.332031 24.945312 19.292969 25.109375 19.269531 25.246094 C 19.242188 25.386719 19.203125 25.5625 19.183594 25.644531 C 19.152344 25.785156 19.109375 26.074219 19.019531 26.789062 C 18.964844 27.214844 18.964844 28.671875 19.019531 29.128906 C 19.113281 29.917969 19.15625 30.164062 19.316406 30.847656 C 19.460938 31.464844 19.820312 32.5 20.015625 32.859375 L 20.097656 33.011719 L 20.082031 32.863281 C 20.070312 32.785156 20.042969 32.640625 20.019531 32.550781 C 19.539062 30.535156 19.472656 28.804688 19.8125 26.839844 C 19.863281 26.53125 20.089844 25.570312 20.136719 25.457031 C 20.15625 25.410156 20.21875 25.222656 20.273438 25.035156 C 21.375 21.492188 24.394531 18.246094 27.820312 16.917969 C 28.015625 16.84375 28.210938 16.765625 28.257812 16.746094 C 28.664062 16.566406 29.734375 16.285156 30.476562 16.160156 C 31.355469 16.011719 31.382812 16 30.871094 16.003906 C 30.621094 16.003906 30.378906 16.007812 30.332031 16.015625 M 30.5625 20.414062 L 30.5625 22.359375 L 30.851562 23.257812 C 31.011719 23.75 31.160156 24.1875 31.183594 24.226562 C 31.207031 24.269531 31.226562 24.335938 31.226562 24.382812 C 31.226562 24.429688 31.242188 24.476562 31.265625 24.492188 C 31.289062 24.503906 31.308594 24.5625 31.308594 24.617188 C 31.308594 24.671875 31.328125 24.726562 31.347656 24.742188 C 31.371094 24.757812 31.390625 24.8125 31.390625 24.867188 C 31.390625 24.921875 31.410156 24.980469 31.433594 24.996094 C 31.457031 25.007812 31.472656 25.066406 31.472656 25.121094 C 31.472656 25.175781 31.492188 25.230469 31.515625 25.246094 C 31.539062 25.261719 31.558594 25.316406 31.558594 25.371094 C 31.558594 25.425781 31.574219 25.484375 31.597656 25.5 C 31.621094 25.511719 31.640625 25.570312 31.640625 25.625 C 31.640625 25.679688 31.660156 25.734375 31.683594 25.75 C 31.703125 25.765625 31.722656 25.816406 31.722656 25.867188 C 31.726562 25.957031 31.726562 25.957031 31.8125 25.855469 C 31.859375 25.796875 31.9375 25.703125 31.988281 25.644531 C 32.035156 25.585938 32.125 25.472656 32.179688 25.394531 C 32.234375 25.3125 32.289062 25.238281 32.304688 25.226562 C 32.570312 24.988281 32.625 24.796875 32.515625 24.472656 C 32.472656 24.34375 32.378906 24.039062 32.304688 23.796875 C 32.230469 23.554688 32.15625 23.324219 32.136719 23.285156 C 32.113281 23.246094 32.097656 23.183594 32.097656 23.148438 C 32.097656 23.113281 32.082031 23.050781 32.058594 23.011719 C 32.039062 22.96875 31.96875 22.757812 31.898438 22.539062 C 31.828125 22.320312 31.648438 21.742188 31.496094 21.257812 C 31.34375 20.773438 31.109375 20.027344 30.972656 19.601562 C 30.839844 19.175781 30.707031 18.746094 30.675781 18.644531 C 30.574219 18.296875 30.5625 18.488281 30.5625 20.414062 M 39.09375 24.972656 C 39.046875 24.992188 38.9375 25.027344 38.84375 25.054688 C 36.546875 25.699219 35.308594 26.082031 35.175781 26.1875 C 35.089844 26.253906 34.945312 26.359375 34.851562 26.425781 C 34.695312 26.535156 34.148438 26.933594 32.890625 27.84375 C 32.65625 28.015625 32.453125 28.167969 32.441406 28.179688 C 32.417969 28.203125 32.757812 29.300781 32.808594 29.355469 C 32.828125 29.378906 32.84375 29.441406 32.84375 29.492188 C 32.84375 29.542969 32.863281 29.597656 32.886719 29.613281 C 32.910156 29.625 32.925781 29.683594 32.925781 29.738281 C 32.925781 29.792969 32.945312 29.847656 32.96875 29.863281 C 32.992188 29.878906 33.011719 29.933594 33.011719 29.988281 C 33.011719 30.042969 33.027344 30.101562 33.050781 30.113281 C 33.074219 30.128906 33.09375 30.1875 33.09375 30.242188 C 33.09375 30.296875 33.113281 30.351562 33.136719 30.367188 C 33.15625 30.382812 33.175781 30.4375 33.175781 30.492188 C 33.175781 30.546875 33.195312 30.605469 33.21875 30.617188 C 33.242188 30.632812 33.257812 30.691406 33.257812 30.746094 C 33.257812 30.800781 33.277344 30.855469 33.300781 30.871094 C 33.324219 30.886719 33.34375 30.941406 33.34375 30.996094 C 33.34375 31.050781 33.359375 31.109375 33.382812 31.121094 C 33.40625 31.136719 33.425781 31.191406 33.425781 31.242188 C 33.425781 31.292969 33.441406 31.355469 33.460938 31.375 C 33.480469 31.398438 33.519531 31.5 33.550781 31.605469 C 33.597656 31.753906 34.183594 32.671875 34.710938 33.421875 C 34.746094 33.472656 35.039062 33.902344 35.359375 34.382812 C 35.683594 34.863281 35.957031 35.246094 35.96875 35.234375 C 35.988281 35.210938 35.855469 34.75 35.789062 34.617188 C 35.765625 34.578125 35.75 34.507812 35.75 34.460938 C 35.75 34.417969 35.730469 34.367188 35.710938 34.355469 C 35.6875 34.339844 35.667969 34.285156 35.667969 34.226562 C 35.667969 34.171875 35.648438 34.117188 35.625 34.101562 C 35.601562 34.089844 35.585938 34.03125 35.585938 33.976562 C 35.585938 33.921875 35.566406 33.863281 35.542969 33.851562 C 35.519531 33.835938 35.5 33.78125 35.5 33.726562 C 35.5 33.667969 35.484375 33.613281 35.460938 33.597656 C 35.4375 33.585938 35.417969 33.53125 35.417969 33.480469 C 35.417969 33.425781 35.402344 33.367188 35.382812 33.34375 C 35.367188 33.324219 35.324219 33.21875 35.292969 33.117188 C 35.265625 33.011719 34.953125 32.050781 34.601562 30.980469 C 34.25 29.910156 33.964844 29.007812 33.964844 28.976562 C 33.964844 28.925781 34.082031 28.835938 34.835938 28.289062 C 35.054688 28.132812 37.238281 26.523438 37.453125 26.359375 C 37.652344 26.207031 38.109375 25.875 38.710938 25.433594 C 39.042969 25.191406 39.316406 24.980469 39.320312 24.964844 C 39.324219 24.921875 39.199219 24.925781 39.09375 24.972656 M 30.269531 29.84375 C 30.144531 29.9375 29.910156 30.105469 29.75 30.21875 C 29.191406 30.625 28.902344 30.832031 28.503906 31.121094 C 28.28125 31.285156 27.96875 31.503906 27.8125 31.613281 C 27.5 31.828125 27.457031 31.882812 25.917969 34.1875 C 25.609375 34.648438 25.3125 35.085938 25.261719 35.160156 C 25.039062 35.460938 25.183594 35.394531 25.910156 34.847656 C 26.011719 34.769531 26.125 34.679688 26.164062 34.652344 C 26.199219 34.621094 26.339844 34.519531 26.472656 34.425781 C 26.71875 34.253906 28.03125 33.285156 28.152344 33.1875 C 28.1875 33.160156 28.410156 32.996094 28.652344 32.824219 C 28.890625 32.648438 29.113281 32.484375 29.148438 32.457031 C 29.210938 32.40625 29.417969 32.253906 30.160156 31.710938 L 30.5625 31.417969 L 30.5625 30.546875 C 30.5625 30.066406 30.546875 29.675781 30.53125 29.675781 C 30.511719 29.675781 30.394531 29.753906 30.269531 29.84375 "/>
<path style=" stroke:none;fill-rule:evenodd;fill:rgb(94.901961%,69.803923%,0%);fill-opacity:1;" d="M 36.332031 11.078125 C 36.332031 11.101562 36.351562 11.128906 36.375 11.144531 C 36.398438 11.15625 36.414062 11.148438 36.414062 11.125 C 36.414062 11.097656 36.734375 11.078125 37.339844 11.070312 L 38.261719 11.058594 L 37.296875 11.046875 C 36.714844 11.042969 36.332031 11.054688 36.332031 11.078125 M 22.84375 11.511719 C 23.078125 11.871094 23.234375 12.078125 23.148438 11.921875 C 23.070312 11.777344 22.625 11.121094 22.605469 11.121094 C 22.59375 11.121094 22.699219 11.296875 22.84375 11.511719 M 36.480469 11.3125 C 36.519531 11.371094 36.558594 11.410156 36.570312 11.402344 C 36.59375 11.375 36.484375 11.207031 36.445312 11.207031 C 36.429688 11.207031 36.445312 11.253906 36.480469 11.3125 M 36.648438 11.566406 C 36.6875 11.625 36.726562 11.664062 36.734375 11.652344 C 36.757812 11.628906 36.652344 11.457031 36.613281 11.457031 C 36.59375 11.457031 36.609375 11.507812 36.648438 11.566406 M 37.261719 12.5 C 37.316406 12.589844 37.371094 12.71875 37.382812 12.785156 C 37.398438 12.890625 37.398438 12.886719 37.40625 12.75 C 37.410156 12.664062 37.398438 12.589844 37.378906 12.589844 C 37.363281 12.589844 37.324219 12.535156 37.292969 12.464844 C 37.261719 12.398438 37.222656 12.339844 37.199219 12.339844 C 37.179688 12.339844 37.207031 12.414062 37.261719 12.5 M 29.542969 16.011719 C 28.925781 16.082031 28.699219 16.113281 28.527344 16.160156 C 28.445312 16.179688 28.269531 16.21875 28.132812 16.246094 C 27.996094 16.273438 27.835938 16.308594 27.777344 16.328125 C 27.722656 16.34375 27.589844 16.382812 27.488281 16.410156 C 27.386719 16.4375 27.265625 16.476562 27.21875 16.492188 C 27.171875 16.511719 27.058594 16.546875 26.96875 16.574219 C 26.800781 16.628906 26.652344 16.6875 26.523438 16.75 C 26.484375 16.773438 26.433594 16.789062 26.410156 16.789062 C 26.316406 16.789062 25.308594 17.277344 24.847656 17.546875 C 24.382812 17.816406 23.609375 18.347656 23.5 18.46875 C 23.492188 18.484375 23.441406 18.523438 23.390625 18.554688 C 22.929688 18.875 22.023438 19.796875 21.410156 20.570312 C 20.910156 21.203125 20.054688 22.691406 19.800781 23.367188 C 19.738281 23.535156 19.671875 23.691406 19.636719 23.765625 C 19.613281 23.804688 19.597656 23.875 19.597656 23.921875 C 19.597656 23.964844 19.582031 24.011719 19.5625 24.027344 C 19.542969 24.039062 19.515625 24.089844 19.503906 24.144531 C 19.488281 24.195312 19.460938 24.308594 19.433594 24.394531 C 19.234375 25.105469 19.167969 25.386719 19.058594 25.980469 C 18.863281 27.027344 18.863281 28.929688 19.058594 29.925781 C 19.078125 30.03125 19.117188 30.226562 19.144531 30.367188 C 19.171875 30.503906 19.222656 30.722656 19.257812 30.847656 C 19.289062 30.976562 19.328125 31.140625 19.339844 31.21875 C 19.347656 31.292969 19.375 31.363281 19.394531 31.378906 C 19.414062 31.390625 19.433594 31.445312 19.433594 31.5 C 19.433594 31.554688 19.453125 31.613281 19.472656 31.625 C 19.496094 31.640625 19.515625 31.695312 19.515625 31.753906 C 19.515625 31.808594 19.535156 31.863281 19.558594 31.878906 C 19.578125 31.890625 19.597656 31.941406 19.597656 31.984375 C 19.597656 32.03125 19.617188 32.101562 19.636719 32.140625 C 19.65625 32.179688 19.703125 32.285156 19.742188 32.371094 C 19.898438 32.746094 19.945312 32.859375 20.066406 33.105469 C 20.136719 33.25 20.207031 33.367188 20.226562 33.367188 C 20.292969 33.367188 20.273438 33.246094 20.136719 32.757812 C 19.507812 30.492188 19.507812 27.910156 20.136719 25.664062 C 20.164062 25.574219 20.195312 25.449219 20.210938 25.394531 C 20.222656 25.335938 20.246094 25.269531 20.261719 25.246094 C 20.277344 25.222656 20.324219 25.089844 20.367188 24.953125 C 20.503906 24.488281 21.113281 23.050781 21.214844 22.957031 C 21.238281 22.9375 21.390625 22.65625 21.484375 22.464844 C 21.507812 22.414062 21.542969 22.371094 21.5625 22.371094 C 21.578125 22.371094 21.589844 22.351562 21.589844 22.328125 C 21.589844 22.234375 22.128906 21.472656 22.722656 20.714844 C 23.03125 20.324219 24.316406 19.070312 24.636719 18.851562 C 24.6875 18.816406 24.734375 18.777344 24.746094 18.761719 C 24.757812 18.746094 24.832031 18.691406 24.914062 18.636719 C 24.992188 18.582031 25.066406 18.523438 25.078125 18.507812 C 25.105469 18.472656 25.859375 17.964844 25.882812 17.964844 C 25.894531 17.964844 26.03125 17.886719 26.1875 17.789062 C 26.34375 17.691406 26.722656 17.492188 27.03125 17.34375 C 27.652344 17.046875 27.703125 17.023438 28.109375 16.863281 C 28.167969 16.839844 28.246094 16.804688 28.285156 16.785156 C 28.328125 16.761719 28.394531 16.746094 28.441406 16.746094 C 28.484375 16.746094 28.53125 16.726562 28.546875 16.703125 C 28.5625 16.683594 28.617188 16.664062 28.671875 16.664062 C 28.726562 16.664062 28.78125 16.644531 28.796875 16.621094 C 28.808594 16.597656 28.875 16.578125 28.941406 16.578125 C 29.007812 16.578125 29.074219 16.558594 29.085938 16.535156 C 29.101562 16.515625 29.164062 16.496094 29.230469 16.496094 C 29.296875 16.496094 29.363281 16.476562 29.378906 16.453125 C 29.390625 16.429688 29.464844 16.410156 29.542969 16.410156 C 29.621094 16.410156 29.695312 16.390625 29.710938 16.367188 C 29.722656 16.347656 29.808594 16.328125 29.894531 16.328125 C 29.984375 16.328125 30.066406 16.3125 30.078125 16.289062 C 30.09375 16.269531 30.199219 16.242188 30.320312 16.226562 C 30.441406 16.214844 30.652344 16.183594 30.789062 16.160156 C 30.925781 16.136719 31.191406 16.105469 31.378906 16.089844 C 31.570312 16.078125 31.722656 16.050781 31.722656 16.035156 C 31.722656 15.9375 30.320312 15.925781 29.542969 16.011719 M 31.164062 16.035156 C 31.070312 16.054688 30.761719 16.109375 30.476562 16.160156 C 29.734375 16.285156 28.664062 16.566406 28.257812 16.746094 C 28.210938 16.765625 28.015625 16.84375 27.820312 16.917969 C 24.394531 18.246094 21.375 21.492188 20.273438 25.035156 C 20.21875 25.222656 20.15625 25.410156 20.136719 25.457031 C 20.089844 25.570312 19.863281 26.53125 19.8125 26.839844 C 19.628906 27.898438 19.585938 28.492188 19.613281 29.484375 C 19.648438 30.6875 19.738281 31.378906 20.019531 32.550781 C 20.042969 32.640625 20.070312 32.785156 20.082031 32.863281 L 20.097656 33.011719 L 20.015625 32.859375 C 19.820312 32.5 19.460938 31.464844 19.316406 30.847656 C 19.15625 30.164062 19.113281 29.917969 19.019531 29.128906 C 18.964844 28.671875 18.964844 27.214844 19.019531 26.789062 C 19.109375 26.074219 19.152344 25.785156 19.183594 25.644531 C 19.203125 25.5625 19.242188 25.386719 19.269531 25.246094 C 19.292969 25.109375 19.332031 24.945312 19.347656 24.890625 C 19.367188 24.832031 19.421875 24.644531 19.472656 24.46875 C 19.523438 24.296875 19.582031 24.117188 19.597656 24.070312 C 19.617188 24.023438 19.652344 23.921875 19.683594 23.839844 C 19.875 23.265625 20.371094 22.226562 20.679688 21.746094 C 20.769531 21.605469 20.84375 21.46875 20.84375 21.445312 C 20.84375 21.425781 20.859375 21.40625 20.878906 21.40625 C 20.898438 21.40625 20.941406 21.355469 20.972656 21.289062 C 21.003906 21.226562 21.054688 21.148438 21.082031 21.113281 C 21.105469 21.078125 21.253906 20.882812 21.40625 20.675781 C 22.21875 19.574219 23.664062 18.277344 24.796875 17.636719 C 25.707031 17.121094 26.707031 16.6875 27.445312 16.488281 C 27.527344 16.464844 27.65625 16.429688 27.738281 16.40625 C 27.96875 16.335938 28.453125 16.234375 28.898438 16.15625 C 29.023438 16.136719 29.378906 16.097656 29.6875 16.074219 C 29.996094 16.050781 30.285156 16.023438 30.332031 16.015625 C 30.535156 15.984375 31.328125 16 31.164062 16.035156 M 30.539062 18.351562 C 30.511719 18.4375 30.417969 18.734375 30.125 19.664062 C 29.972656 20.148438 29.832031 20.59375 29.8125 20.648438 C 29.78125 20.746094 29.292969 22.285156 29.097656 22.917969 C 29.050781 23.066406 29 23.226562 28.980469 23.273438 C 28.953125 23.34375 28.53125 24.6875 28.511719 24.769531 C 28.5 24.816406 29.335938 25.890625 29.375 25.882812 C 29.398438 25.875 29.492188 25.628906 29.589844 25.335938 C 29.683594 25.042969 29.773438 24.789062 29.785156 24.777344 C 29.800781 24.761719 29.8125 24.707031 29.8125 24.652344 C 29.8125 24.601562 29.832031 24.546875 29.855469 24.53125 C 29.878906 24.519531 29.894531 24.460938 29.894531 24.40625 C 29.894531 24.351562 29.914062 24.296875 29.9375 24.28125 C 29.960938 24.265625 29.980469 24.210938 29.980469 24.15625 C 29.980469 24.101562 29.996094 24.042969 30.019531 24.027344 C 30.042969 24.015625 30.0625 23.957031 30.0625 23.902344 C 30.0625 23.847656 30.082031 23.792969 30.105469 23.777344 C 30.125 23.761719 30.144531 23.707031 30.144531 23.652344 C 30.144531 23.597656 30.164062 23.539062 30.1875 23.527344 C 30.210938 23.511719 30.226562 23.453125 30.226562 23.398438 C 30.226562 23.34375 30.246094 23.289062 30.269531 23.273438 C 30.292969 23.257812 30.3125 23.203125 30.3125 23.148438 C 30.3125 23.09375 30.332031 23.035156 30.351562 23.023438 C 30.375 23.007812 30.394531 22.949219 30.394531 22.894531 C 30.394531 22.839844 30.414062 22.785156 30.4375 22.769531 C 30.457031 22.753906 30.476562 22.695312 30.476562 22.636719 C 30.476562 22.417969 30.585938 22.578125 30.722656 23 C 30.800781 23.238281 30.875 23.417969 30.878906 23.394531 C 30.886719 23.371094 30.820312 23.132812 30.726562 22.863281 L 30.5625 22.371094 L 30.5625 20.417969 C 30.5625 18.488281 30.574219 18.296875 30.675781 18.644531 C 30.707031 18.746094 30.839844 19.175781 30.972656 19.601562 C 31.109375 20.027344 31.34375 20.773438 31.496094 21.257812 C 31.648438 21.742188 31.828125 22.320312 31.898438 22.539062 C 31.96875 22.757812 32.039062 22.96875 32.058594 23.011719 C 32.082031 23.050781 32.097656 23.113281 32.097656 23.148438 C 32.097656 23.183594 32.113281 23.246094 32.136719 23.285156 C 32.15625 23.324219 32.230469 23.554688 32.304688 23.796875 C 32.378906 24.039062 32.472656 24.34375 32.515625 24.472656 C 32.558594 24.601562 32.59375 24.742188 32.59375 24.785156 C 32.59375 24.835938 32.609375 24.851562 32.636719 24.824219 C 32.664062 24.792969 32.644531 24.675781 32.578125 24.46875 C 32.523438 24.296875 32.382812 23.84375 32.261719 23.460938 C 32.144531 23.082031 32.03125 22.730469 32.015625 22.6875 C 31.996094 22.640625 31.960938 22.527344 31.933594 22.433594 C 31.90625 22.339844 31.867188 22.226562 31.851562 22.183594 C 31.832031 22.136719 31.773438 21.957031 31.722656 21.785156 C 31.671875 21.609375 31.613281 21.4375 31.59375 21.394531 C 31.574219 21.355469 31.558594 21.292969 31.558594 21.257812 C 31.558594 21.222656 31.539062 21.160156 31.519531 21.121094 C 31.5 21.082031 31.441406 20.90625 31.390625 20.734375 C 31.339844 20.5625 31.28125 20.386719 31.261719 20.347656 C 31.242188 20.304688 31.226562 20.246094 31.226562 20.210938 C 31.226562 20.175781 31.207031 20.113281 31.1875 20.074219 C 31.167969 20.03125 31.074219 19.753906 30.984375 19.453125 C 30.609375 18.238281 30.59375 18.199219 30.539062 18.351562 M 31.144531 24.246094 C 31.152344 24.355469 31.21875 24.449219 31.222656 24.355469 C 31.222656 24.304688 31.207031 24.253906 31.183594 24.238281 C 31.160156 24.222656 31.144531 24.226562 31.144531 24.246094 M 31.226562 24.5 C 31.238281 24.609375 31.300781 24.699219 31.304688 24.609375 C 31.308594 24.558594 31.289062 24.503906 31.265625 24.492188 C 31.242188 24.476562 31.226562 24.480469 31.226562 24.5 M 31.3125 24.75 C 31.320312 24.859375 31.386719 24.953125 31.386719 24.859375 C 31.390625 24.808594 31.371094 24.757812 31.347656 24.742188 C 31.328125 24.726562 31.308594 24.730469 31.3125 24.75 M 39.316406 24.964844 C 39.308594 24.984375 39.097656 25.144531 38.851562 25.328125 C 38.605469 25.507812 38.414062 25.664062 38.421875 25.675781 C 38.441406 25.691406 38.644531 25.546875 38.949219 25.304688 C 39.003906 25.257812 39.132812 25.171875 39.226562 25.109375 C 39.394531 25 39.449219 24.929688 39.367188 24.929688 C 39.347656 24.929688 39.324219 24.945312 39.316406 24.964844 M 31.390625 24.992188 C 31.390625 25.042969 31.691406 25.921875 31.71875 25.949219 C 31.738281 25.96875 31.777344 25.949219 31.808594 25.910156 C 31.863281 25.839844 31.863281 25.839844 31.796875 25.890625 C 31.730469 25.941406 31.722656 25.9375 31.722656 25.863281 C 31.722656 25.816406 31.703125 25.765625 31.683594 25.75 C 31.660156 25.734375 31.640625 25.679688 31.640625 25.625 C 31.640625 25.570312 31.621094 25.511719 31.597656 25.5 C 31.574219 25.484375 31.558594 25.425781 31.558594 25.371094 C 31.558594 25.316406 31.539062 25.261719 31.515625 25.246094 C 31.492188 25.230469 31.472656 25.175781 31.472656 25.121094 C 31.472656 25.066406 31.457031 25.007812 31.433594 24.996094 C 31.410156 24.980469 31.390625 24.980469 31.390625 24.992188 M 38.257812 25.765625 C 38.210938 25.800781 38.023438 25.9375 37.847656 26.066406 C 37.671875 26.191406 37.503906 26.316406 37.480469 26.339844 C 37.453125 26.363281 37.304688 26.472656 37.152344 26.582031 C 37 26.691406 36.871094 26.792969 36.871094 26.804688 C 36.871094 26.832031 36.933594 26.792969 37.203125 26.59375 C 37.328125 26.503906 37.53125 26.355469 37.652344 26.265625 C 37.769531 26.179688 37.976562 26.027344 38.105469 25.929688 C 38.238281 25.832031 38.355469 25.746094 38.363281 25.742188 C 38.371094 25.734375 38.371094 25.722656 38.363281 25.710938 C 38.355469 25.703125 38.304688 25.726562 38.257812 25.765625 M 35.128906 26.195312 C 34.984375 26.324219 34.984375 26.324219 35.117188 26.234375 C 35.191406 26.183594 35.261719 26.125 35.273438 26.105469 C 35.316406 26.039062 35.28125 26.058594 35.128906 26.195312 M 34.445312 26.675781 C 34.121094 26.921875 34.046875 27.003906 34.339844 26.800781 C 34.558594 26.644531 34.753906 26.480469 34.710938 26.488281 C 34.699219 26.488281 34.582031 26.574219 34.445312 26.675781 M 35.9375 27.476562 C 35.457031 27.832031 34.960938 28.199219 34.828125 28.292969 C 34.699219 28.382812 34.578125 28.480469 34.5625 28.503906 C 34.523438 28.570312 35.355469 27.984375 35.667969 27.730469 C 35.703125 27.699219 35.824219 27.613281 35.9375 27.535156 C 36.050781 27.457031 36.15625 27.378906 36.167969 27.367188 C 36.175781 27.351562 36.253906 27.296875 36.332031 27.238281 C 36.410156 27.183594 36.5 27.113281 36.53125 27.085938 C 36.558594 27.058594 36.640625 27 36.707031 26.960938 C 36.773438 26.917969 36.832031 26.871094 36.832031 26.851562 C 36.832031 26.804688 36.890625 26.765625 35.9375 27.476562 M 33.925781 27.054688 C 33.84375 27.109375 33.800781 27.15625 33.820312 27.15625 C 33.84375 27.15625 33.917969 27.109375 33.984375 27.050781 C 34.144531 26.917969 34.109375 26.921875 33.925781 27.054688 M 32.679688 27.957031 C 32.410156 28.15625 32.363281 28.203125 32.53125 28.105469 C 32.660156 28.027344 32.964844 27.789062 32.925781 27.789062 C 32.914062 27.789062 32.804688 27.863281 32.679688 27.957031 M 32.410156 28.300781 C 32.507812 28.632812 32.566406 28.792969 32.582031 28.777344 C 32.605469 28.753906 32.433594 28.207031 32.402344 28.207031 C 32.390625 28.207031 32.394531 28.246094 32.410156 28.300781 M 28.484375 28.34375 C 28.425781 28.367188 28.277344 28.433594 28.152344 28.492188 C 28.027344 28.546875 27.832031 28.632812 27.714844 28.6875 C 27.601562 28.738281 27.410156 28.828125 27.292969 28.882812 C 27.171875 28.9375 27.074219 29.003906 27.074219 29.027344 C 27.074219 29.050781 27.035156 29.183594 26.992188 29.320312 C 26.949219 29.457031 26.789062 29.964844 26.636719 30.449219 C 26.484375 30.9375 26.324219 31.4375 26.285156 31.5625 C 26.242188 31.691406 26.128906 32.050781 26.035156 32.359375 C 25.9375 32.671875 25.84375 32.964844 25.828125 33.011719 C 25.808594 33.058594 25.695312 33.40625 25.578125 33.789062 C 25.207031 34.972656 25.121094 35.234375 25.078125 35.308594 C 24.984375 35.476562 25.054688 35.5625 25.191406 35.449219 C 25.234375 35.414062 25.566406 35.167969 25.929688 34.898438 C 26.296875 34.632812 26.640625 34.375 26.699219 34.328125 C 26.757812 34.28125 26.855469 34.210938 26.917969 34.175781 C 26.980469 34.136719 27.03125 34.089844 27.03125 34.074219 C 27.03125 34.054688 27.050781 34.039062 27.070312 34.039062 C 27.09375 34.039062 27.144531 34.011719 27.1875 33.976562 C 27.289062 33.894531 28 33.363281 28.546875 32.96875 C 29.011719 32.632812 29.324219 32.398438 29.441406 32.304688 C 29.476562 32.273438 29.597656 32.1875 29.710938 32.109375 C 29.824219 32.03125 29.9375 31.949219 29.957031 31.929688 C 30.527344 31.464844 30.597656 31.4375 30.800781 31.597656 C 30.886719 31.664062 31.234375 31.921875 31.578125 32.171875 C 31.921875 32.421875 32.367188 32.753906 32.574219 32.90625 C 33.363281 33.496094 33.582031 33.65625 33.964844 33.933594 C 34.183594 34.09375 34.5 34.324219 34.671875 34.453125 C 34.84375 34.578125 35.074219 34.753906 35.191406 34.835938 C 35.304688 34.921875 35.542969 35.097656 35.714844 35.226562 C 36.070312 35.492188 36.082031 35.496094 36.082031 35.394531 C 36.085938 35.316406 35.316406 32.898438 35.25 32.769531 C 35.226562 32.730469 35.210938 32.660156 35.210938 32.617188 C 35.210938 32.570312 35.191406 32.523438 35.167969 32.507812 C 35.148438 32.492188 35.128906 32.4375 35.128906 32.382812 C 35.128906 32.328125 35.109375 32.269531 35.085938 32.253906 C 35.0625 32.242188 35.046875 32.183594 35.046875 32.128906 C 35.046875 32.074219 35.027344 32.019531 35.003906 32.003906 C 34.980469 31.988281 34.960938 31.933594 34.960938 31.882812 C 34.960938 31.832031 34.945312 31.773438 34.929688 31.75 C 34.910156 31.726562 34.832031 31.511719 34.757812 31.269531 C 34.683594 31.027344 34.605469 30.796875 34.585938 30.753906 C 34.5625 30.714844 34.546875 30.652344 34.546875 30.617188 C 34.546875 30.582031 34.53125 30.523438 34.511719 30.480469 C 34.488281 30.441406 34.367188 30.085938 34.242188 29.695312 L 34.007812 28.980469 L 34.160156 28.855469 C 34.484375 28.582031 34.515625 28.542969 34.261719 28.714844 C 33.90625 28.957031 33.878906 28.769531 34.597656 30.964844 C 34.949219 32.042969 35.265625 33.011719 35.292969 33.117188 C 35.324219 33.21875 35.367188 33.324219 35.382812 33.34375 C 35.402344 33.367188 35.417969 33.425781 35.417969 33.480469 C 35.417969 33.53125 35.4375 33.585938 35.460938 33.597656 C 35.484375 33.613281 35.5 33.667969 35.5 33.726562 C 35.5 33.78125 35.519531 33.835938 35.542969 33.851562 C 35.566406 33.863281 35.585938 33.921875 35.585938 33.976562 C 35.585938 34.03125 35.601562 34.089844 35.625 34.101562 C 35.648438 34.117188 35.667969 34.171875 35.667969 34.226562 C 35.667969 34.285156 35.6875 34.339844 35.710938 34.355469 C 35.730469 34.367188 35.75 34.417969 35.75 34.460938 C 35.75 34.507812 35.765625 34.578125 35.789062 34.617188 C 35.855469 34.75 35.988281 35.210938 35.96875 35.234375 C 35.957031 35.246094 35.683594 34.863281 35.359375 34.382812 C 35.039062 33.902344 34.746094 33.472656 34.710938 33.421875 C 34.183594 32.671875 33.597656 31.753906 33.550781 31.605469 C 33.519531 31.5 33.480469 31.398438 33.460938 31.375 C 33.441406 31.355469 33.425781 31.292969 33.425781 31.242188 C 33.425781 31.191406 33.40625 31.136719 33.378906 31.121094 C 33.332031 31.089844 33.335938 31.105469 33.457031 31.492188 C 33.492188 31.601562 33.507812 31.703125 33.496094 31.714844 C 33.476562 31.734375 32.496094 31.054688 32.429688 30.972656 C 32.417969 30.960938 32.316406 30.886719 32.199219 30.804688 C 32.085938 30.726562 31.917969 30.605469 31.824219 30.535156 C 31.730469 30.464844 31.542969 30.328125 31.40625 30.234375 C 31.273438 30.136719 31.019531 29.957031 30.847656 29.828125 L 30.53125 29.601562 L 30.097656 29.914062 C 29.863281 30.085938 29.457031 30.378906 29.199219 30.570312 C 28.027344 31.425781 27.617188 31.707031 27.589844 31.683594 C 27.582031 31.671875 27.820312 30.902344 28.125 29.976562 C 28.429688 29.046875 28.65625 28.289062 28.632812 28.292969 C 28.609375 28.292969 28.542969 28.316406 28.484375 28.34375 M 32.597656 28.875 C 32.597656 28.910156 32.613281 28.96875 32.636719 29.003906 C 32.671875 29.058594 32.675781 29.058594 32.675781 29.003906 C 32.675781 28.96875 32.660156 28.910156 32.636719 28.875 C 32.601562 28.820312 32.597656 28.820312 32.597656 28.875 M 32.765625 29.367188 C 32.773438 29.476562 32.839844 29.570312 32.839844 29.476562 C 32.84375 29.425781 32.824219 29.375 32.804688 29.359375 C 32.78125 29.34375 32.761719 29.347656 32.765625 29.367188 M 32.847656 29.621094 C 32.855469 29.726562 32.921875 29.820312 32.925781 29.730469 C 32.925781 29.679688 32.910156 29.625 32.886719 29.613281 C 32.863281 29.597656 32.84375 29.601562 32.847656 29.621094 M 30.5625 30.546875 L 30.5625 31.417969 L 30.160156 31.710938 C 29.417969 32.253906 29.210938 32.40625 29.148438 32.457031 C 29.113281 32.484375 28.890625 32.648438 28.652344 32.824219 C 28.410156 32.996094 28.1875 33.160156 28.152344 33.1875 C 28.03125 33.285156 26.71875 34.253906 26.472656 34.425781 C 26.339844 34.519531 26.199219 34.621094 26.164062 34.652344 C 26.125 34.679688 26.011719 34.769531 25.910156 34.847656 C 25.183594 35.394531 25.039062 35.460938 25.261719 35.160156 C 25.3125 35.085938 25.609375 34.648438 25.917969 34.1875 C 27.457031 31.882812 27.5 31.828125 27.8125 31.613281 C 27.96875 31.503906 28.28125 31.285156 28.503906 31.121094 C 28.902344 30.832031 29.191406 30.625 29.75 30.21875 C 29.910156 30.105469 30.144531 29.9375 30.269531 29.84375 C 30.394531 29.753906 30.511719 29.675781 30.53125 29.675781 C 30.546875 29.675781 30.5625 30.066406 30.5625 30.546875 M 32.929688 29.871094 C 32.941406 29.980469 33.003906 30.074219 33.007812 29.980469 C 33.007812 29.929688 32.992188 29.878906 32.96875 29.863281 C 32.945312 29.847656 32.929688 29.851562 32.929688 29.871094 M 33.011719 30.125 C 33.023438 30.230469 33.085938 30.324219 33.089844 30.234375 C 33.09375 30.183594 33.074219 30.128906 33.050781 30.113281 C 33.027344 30.101562 33.011719 30.105469 33.011719 30.125 M 33.097656 30.375 C 33.105469 30.484375 33.171875 30.578125 33.171875 30.484375 C 33.175781 30.433594 33.15625 30.382812 33.136719 30.367188 C 33.113281 30.351562 33.09375 30.355469 33.097656 30.375 M 33.179688 30.625 C 33.1875 30.734375 33.253906 30.828125 33.257812 30.738281 C 33.257812 30.6875 33.242188 30.632812 33.21875 30.617188 C 33.195312 30.605469 33.179688 30.609375 33.179688 30.625 M 33.261719 30.878906 C 33.273438 30.988281 33.335938 31.078125 33.339844 30.988281 C 33.339844 30.9375 33.324219 30.886719 33.300781 30.871094 C 33.277344 30.855469 33.261719 30.859375 33.261719 30.878906 "/>
</g>
</svg>
