<?xml version="1.0" encoding="UTF-8"?>
<svg xmlns="http://www.w3.org/2000/svg" xmlns:xlink="http://www.w3.org/1999/xlink" width="150px" height="150px" viewBox="0 0 150 100" version="1.1">
<g id="surface1">
<path style=" stroke:none;fill-rule:evenodd;fill:rgb(1.568628%,7.843138%,12.941177%);fill-opacity:1;" d="M 0 49.9375 L 0 99.875 L 150 99.875 L 150 0 L 0 0 L 0 49.9375 M 98.046875 2.296875 C 140.394531 2.296875 147.289062 2.316406 147.457031 2.4375 C 147.648438 2.578125 147.652344 3.148438 147.726562 42.863281 C 147.765625 65.019531 147.8125 86.324219 147.824219 90.210938 L 147.851562 97.273438 L 147.621094 97.5 L 147.394531 97.726562 L 132.222656 97.703125 C 123.878906 97.691406 91.289062 97.644531 59.800781 97.601562 C 28.3125 97.5625 2.539062 97.515625 2.523438 97.503906 C 2.507812 97.488281 2.457031 97.375 2.410156 97.253906 C 2.195312 96.691406 2.234375 2.492188 2.449219 2.328125 C 2.628906 2.191406 5.0625 2.179688 25.742188 2.234375 C 38.441406 2.269531 70.980469 2.296875 98.046875 2.296875 "/>
<path style=" stroke:none;fill-rule:evenodd;fill:rgb(98.431373%,98.431373%,98.431373%);fill-opacity:1;" d="M 2.554688 2.617188 C 2.316406 2.960938 2.320312 16.429688 2.5625 16.9375 C 2.726562 17.289062 2.699219 17.269531 7.800781 20.859375 C 8.980469 21.691406 10.738281 22.925781 11.699219 23.605469 C 15.082031 25.988281 21.289062 30.355469 24.851562 32.855469 C 30.398438 36.753906 31.101562 37.25 31.800781 37.753906 C 32.15625 38.011719 32.742188 38.421875 33.101562 38.667969 C 33.695312 39.078125 37.523438 41.769531 41.601562 44.644531 C 42.507812 45.285156 45.253906 47.21875 47.699219 48.941406 C 50.148438 50.660156 52.894531 52.59375 53.800781 53.234375 C 54.707031 53.875 57.226562 55.648438 59.398438 57.179688 C 61.574219 58.707031 64.316406 60.640625 65.5 61.472656 C 66.683594 62.308594 68.257812 63.414062 69 63.9375 C 69.742188 64.457031 70.597656 65.058594 70.898438 65.269531 C 71.203125 65.484375 72.417969 66.335938 73.601562 67.167969 C 74.78125 68 77.300781 69.773438 79.199219 71.109375 C 81.097656 72.449219 83.628906 74.234375 84.824219 75.074219 C 86.019531 75.914062 87.980469 77.292969 89.175781 78.132812 C 90.371094 78.976562 92.363281 80.378906 93.601562 81.25 C 94.835938 82.121094 96.59375 83.355469 97.5 83.996094 C 99.808594 85.617188 100.007812 85.757812 102.25 87.339844 C 103.351562 88.117188 105.710938 89.777344 107.5 91.03125 C 109.289062 92.285156 110.886719 93.410156 111.050781 93.53125 C 111.214844 93.652344 111.574219 93.90625 111.851562 94.101562 C 112.125 94.292969 113.183594 95.035156 114.199219 95.75 C 115.21875 96.464844 116.238281 97.148438 116.472656 97.265625 L 116.890625 97.476562 L 132.089844 97.476562 C 145.769531 97.476562 147.300781 97.460938 147.441406 97.320312 C 147.582031 97.179688 147.601562 96.382812 147.601562 90.039062 L 147.601562 82.910156 L 147.34375 82.605469 C 147.199219 82.4375 146.738281 82.058594 146.316406 81.765625 C 145.894531 81.472656 144.546875 80.53125 143.324219 79.667969 C 140.175781 77.453125 137.050781 75.253906 134.523438 73.476562 C 133.328125 72.636719 131.335938 71.234375 130.101562 70.363281 C 128.863281 69.492188 126.882812 68.097656 125.699219 67.265625 C 124.519531 66.433594 122.3125 64.882812 120.800781 63.820312 C 119.289062 62.757812 117.238281 61.316406 116.25 60.621094 C 115.261719 59.925781 113.503906 58.691406 112.351562 57.878906 C 109.316406 55.742188 106.128906 53.5 102.460938 50.929688 C 100.695312 49.6875 98.484375 48.136719 97.550781 47.476562 C 96.613281 46.816406 93.847656 44.867188 91.398438 43.144531 C 87.265625 40.234375 85.007812 38.648438 79.335938 34.664062 C 75.988281 32.308594 72.78125 30.054688 70.449219 28.414062 C 65.925781 25.226562 64.652344 24.332031 62.050781 22.507812 C 60.566406 21.464844 59.101562 20.4375 58.800781 20.222656 C 58.496094 20.011719 57.28125 19.15625 56.101562 18.324219 C 53.824219 16.726562 52.242188 15.613281 47.800781 12.484375 C 46.289062 11.417969 44.308594 10.027344 43.398438 9.386719 C 42.492188 8.75 41.503906 8.054688 41.199219 7.84375 C 40.898438 7.628906 39.433594 6.601562 37.949219 5.554688 C 36.464844 4.507812 34.851562 3.378906 34.367188 3.050781 L 33.480469 2.445312 L 18.097656 2.421875 L 2.710938 2.394531 L 2.554688 2.617188 M 75.300781 37.652344 C 75.390625 37.824219 75.738281 38.863281 77.464844 44.167969 C 77.660156 44.757812 77.898438 45.34375 78 45.46875 L 78.183594 45.691406 L 82.484375 45.742188 C 87 45.796875 87.132812 45.808594 86.910156 46.222656 C 86.851562 46.335938 85.335938 47.492188 83.546875 48.792969 C 80.300781 51.152344 80 51.40625 80 51.773438 C 80 51.9375 81.453125 56.523438 82.257812 58.894531 C 82.84375 60.621094 82.714844 60.582031 79.027344 57.898438 C 75.394531 55.253906 75.363281 55.230469 75.050781 55.230469 C 74.652344 55.230469 74.199219 55.53125 70.351562 58.375 C 68.035156 60.085938 67.804688 60.21875 67.597656 59.972656 C 67.464844 59.8125 67.597656 59.351562 69.171875 54.582031 C 70.054688 51.914062 70.097656 51.710938 69.835938 51.359375 C 69.660156 51.121094 67.179688 49.261719 64.738281 47.539062 C 62.226562 45.765625 62.226562 45.765625 67.707031 45.753906 L 71.765625 45.742188 L 71.972656 45.519531 C 72.164062 45.3125 72.472656 44.425781 74.003906 39.699219 C 74.75 37.398438 74.976562 37.046875 75.300781 37.652344 "/>
<path style=" stroke:none;fill-rule:evenodd;fill:rgb(92.54902%,14.117648%,20.392157%);fill-opacity:1;" d="M 18.117188 2.394531 L 33.480469 2.445312 L 34.367188 3.050781 C 34.851562 3.378906 36.464844 4.507812 37.949219 5.554688 C 39.433594 6.601562 40.898438 7.628906 41.199219 7.84375 C 41.503906 8.054688 42.492188 8.75 43.398438 9.386719 C 44.308594 10.027344 46.289062 11.417969 47.800781 12.484375 C 52.242188 15.613281 53.824219 16.726562 56.101562 18.324219 C 57.28125 19.15625 58.496094 20.011719 58.800781 20.222656 C 59.101562 20.4375 60.566406 21.464844 62.050781 22.507812 C 64.652344 24.332031 65.925781 25.226562 70.449219 28.414062 C 72.78125 30.054688 75.988281 32.308594 79.335938 34.664062 C 85.007812 38.648438 87.265625 40.234375 91.398438 43.144531 C 93.847656 44.867188 96.613281 46.816406 97.550781 47.476562 C 98.484375 48.136719 100.695312 49.6875 102.460938 50.929688 C 106.128906 53.5 109.316406 55.742188 112.351562 57.878906 C 113.503906 58.691406 115.261719 59.925781 116.25 60.621094 C 117.238281 61.316406 119.289062 62.757812 120.800781 63.820312 C 122.3125 64.882812 124.519531 66.433594 125.699219 67.265625 C 126.882812 68.097656 128.863281 69.492188 130.101562 70.363281 C 131.335938 71.234375 133.328125 72.636719 134.523438 73.476562 C 137.050781 75.253906 140.175781 77.453125 143.324219 79.667969 C 144.546875 80.53125 145.894531 81.472656 146.316406 81.765625 C 146.738281 82.058594 147.199219 82.4375 147.34375 82.605469 L 147.601562 82.910156 L 147.601562 90.039062 C 147.601562 96.382812 147.582031 97.179688 147.441406 97.320312 C 147.300781 97.460938 145.769531 97.476562 132.089844 97.476562 L 116.890625 97.476562 L 116.472656 97.265625 C 116.238281 97.148438 115.21875 96.464844 114.199219 95.75 C 113.183594 95.035156 112.125 94.292969 111.851562 94.101562 C 111.574219 93.90625 111.214844 93.652344 111.050781 93.53125 C 110.886719 93.410156 109.289062 92.285156 107.5 91.03125 C 105.710938 89.777344 103.351562 88.117188 102.25 87.339844 C 101.148438 86.5625 100.023438 85.769531 99.75 85.578125 C 99.128906 85.140625 95.328125 82.464844 93.050781 80.863281 C 91.082031 79.476562 87.933594 77.257812 84.824219 75.074219 C 83.628906 74.234375 81.097656 72.449219 79.199219 71.109375 C 77.300781 69.773438 74.78125 68 73.601562 67.167969 C 72.417969 66.335938 71.203125 65.484375 70.898438 65.269531 C 70.597656 65.058594 69.742188 64.457031 69 63.9375 C 68.257812 63.414062 66.683594 62.308594 65.5 61.472656 C 64.316406 60.640625 61.574219 58.707031 59.398438 57.179688 C 57.226562 55.648438 54.707031 53.875 53.800781 53.234375 C 52.894531 52.59375 50.148438 50.660156 47.699219 48.941406 C 45.253906 47.21875 42.507812 45.285156 41.601562 44.644531 C 37.523438 41.769531 33.695312 39.078125 33.101562 38.667969 C 32.742188 38.421875 32.15625 38.011719 31.800781 37.753906 C 31.101562 37.25 30.398438 36.753906 24.851562 32.855469 C 21.289062 30.355469 15.082031 25.988281 11.699219 23.605469 C 10.738281 22.925781 8.980469 21.691406 7.800781 20.859375 C 2.699219 17.269531 2.726562 17.289062 2.5625 16.9375 C 2.320312 16.425781 2.316406 2.972656 2.558594 2.59375 L 2.714844 2.347656 L 2.507812 2.582031 L 2.300781 2.820312 L 2.324219 50.042969 C 2.34375 88.632812 2.375 97.292969 2.480469 97.398438 C 2.625 97.542969 101.261719 97.679688 132.03125 97.578125 C 147.113281 97.527344 147.417969 97.523438 147.558594 97.335938 C 147.824219 96.972656 147.765625 2.761719 147.5 2.496094 C 147.300781 2.296875 147.183594 2.296875 75.023438 2.320312 C 35.273438 2.335938 9.664062 2.367188 18.117188 2.394531 "/>
<path style=" stroke:none;fill-rule:evenodd;fill:rgb(0%,44.705883%,81.176472%);fill-opacity:1;" d="M 2.398438 2.398438 C 2.203125 2.59375 2.199219 2.714844 2.222656 9.761719 L 2.246094 16.929688 L 2.296875 9.816406 C 2.347656 3.160156 2.363281 2.691406 2.527344 2.527344 C 2.699219 2.355469 3.496094 2.34375 18.078125 2.296875 L 33.449219 2.246094 L 18.023438 2.222656 C 2.71875 2.199219 2.597656 2.199219 2.398438 2.398438 M 74.671875 37.777344 C 74.589844 37.957031 74.289062 38.820312 74.003906 39.699219 C 72.472656 44.425781 72.164062 45.3125 71.972656 45.519531 L 71.765625 45.742188 L 67.707031 45.753906 C 62.226562 45.765625 62.226562 45.765625 64.738281 47.539062 C 67.179688 49.261719 69.660156 51.121094 69.835938 51.359375 C 70.097656 51.710938 70.054688 51.914062 69.171875 54.582031 C 67.597656 59.351562 67.464844 59.8125 67.597656 59.972656 C 67.804688 60.21875 68.035156 60.085938 70.351562 58.375 C 74.199219 55.53125 74.652344 55.230469 75.050781 55.230469 C 75.363281 55.230469 75.394531 55.253906 79.027344 57.898438 C 82.714844 60.582031 82.84375 60.621094 82.257812 58.894531 C 81.453125 56.523438 80 51.9375 80 51.773438 C 80 51.40625 80.300781 51.152344 83.546875 48.792969 C 85.335938 47.492188 86.851562 46.335938 86.910156 46.222656 C 87.132812 45.808594 87 45.796875 82.484375 45.742188 L 78.183594 45.691406 L 78 45.46875 C 77.898438 45.34375 77.660156 44.757812 77.464844 44.167969 C 75.738281 38.863281 75.390625 37.824219 75.300781 37.652344 C 75.136719 37.347656 74.84375 37.40625 74.671875 37.777344 M 147.710938 89.914062 C 147.699219 97.039062 147.695312 97.183594 147.5 97.378906 C 147.300781 97.578125 147.164062 97.578125 132.023438 97.585938 C 122.316406 97.589844 116.835938 97.625 116.984375 97.683594 C 117.132812 97.742188 122.992188 97.769531 132.308594 97.753906 L 147.394531 97.726562 L 147.621094 97.5 L 147.851562 97.273438 L 147.878906 90.355469 C 147.894531 86.355469 147.867188 83.269531 147.8125 83.042969 C 147.753906 82.785156 147.714844 85.21875 147.710938 89.914062 "/>
</g>
</svg>
