<?xml version="1.0" encoding="UTF-8"?>
<svg xmlns="http://www.w3.org/2000/svg" xmlns:xlink="http://www.w3.org/1999/xlink" width="150px" height="150px" viewBox="0 0 150 150" version="1.1">
<g id="surface1">
<path style=" stroke:none;fill-rule:evenodd;fill:rgb(83.137256%,1.568628%,10.980392%);fill-opacity:1;" d="M 5.03125 27.753906 C 5.003906 27.796875 8.488281 27.816406 12.777344 27.804688 L 20.570312 27.777344 L 20.570312 122.511719 L 12.84375 122.539062 C 8.59375 122.554688 36.773438 122.566406 75.464844 122.566406 C 114.15625 122.566406 142.464844 122.542969 138.371094 122.515625 L 130.925781 122.460938 L 130.925781 27.832031 L 138.4375 27.832031 C 142.570312 27.832031 145.925781 27.796875 145.902344 27.753906 C 145.835938 27.652344 5.09375 27.652344 5.03125 27.753906 M 52.101562 75.144531 L 52.101562 122.515625 L 36.390625 122.515625 L 36.390625 27.777344 L 52.101562 27.777344 L 52.101562 75.144531 M 83.582031 75.144531 L 83.582031 122.460938 L 75.78125 122.488281 C 69.613281 122.507812 67.964844 122.488281 67.902344 122.382812 C 67.804688 122.234375 67.78125 28.191406 67.878906 27.941406 C 67.933594 27.792969 68.699219 27.78125 75.761719 27.804688 L 83.582031 27.832031 L 83.582031 75.144531 M 115.109375 75.144531 L 115.109375 122.460938 L 99.398438 122.460938 L 99.371094 75.25 C 99.355469 49.285156 99.367188 27.980469 99.394531 27.90625 C 99.433594 27.804688 101.0625 27.78125 107.277344 27.804688 L 115.109375 27.832031 L 115.109375 75.144531 "/>
<path style=" stroke:none;fill-rule:evenodd;fill:rgb(1.568628%,1.568628%,1.568628%);fill-opacity:1;" d="M 0 74.9375 L 0 126.875 L 150 126.875 L 150 23 L 0 23 L 0 74.9375 M 145.941406 75.121094 C 145.957031 101.1875 145.933594 122.519531 145.890625 122.527344 C 145.679688 122.566406 5.203125 122.574219 5.089844 122.535156 C 4.949219 122.488281 4.890625 27.882812 5.03125 27.742188 C 5.070312 27.707031 36.785156 27.6875 75.507812 27.699219 L 145.917969 27.726562 L 145.941406 75.121094 "/>
<path style=" stroke:none;fill-rule:evenodd;fill:rgb(98.823529%,86.274511%,1.568628%);fill-opacity:1;" d="M 5.011719 27.90625 C 4.984375 27.980469 4.972656 49.285156 4.988281 75.25 L 5.015625 122.460938 L 20.570312 122.515625 L 20.570312 27.777344 L 12.816406 27.777344 C 6.707031 27.777344 5.046875 27.804688 5.011719 27.90625 M 36.390625 75.144531 L 36.390625 122.515625 L 52.101562 122.515625 L 52.101562 27.777344 L 36.390625 27.777344 L 36.390625 75.144531 M 67.878906 27.941406 C 67.78125 28.191406 67.804688 122.234375 67.902344 122.382812 C 67.964844 122.488281 69.613281 122.507812 75.78125 122.488281 L 83.582031 122.460938 L 83.582031 27.832031 L 75.761719 27.804688 C 68.699219 27.78125 67.933594 27.792969 67.878906 27.941406 M 99.394531 27.90625 C 99.367188 27.980469 99.355469 49.285156 99.371094 75.25 L 99.398438 122.460938 L 115.109375 122.460938 L 115.109375 27.832031 L 107.277344 27.804688 C 101.0625 27.78125 99.433594 27.804688 99.394531 27.90625 M 130.921875 27.90625 C 130.894531 27.980469 130.886719 49.285156 130.902344 75.25 L 130.925781 122.460938 L 145.917969 122.460938 L 145.917969 27.832031 L 138.445312 27.804688 C 132.523438 27.78125 130.960938 27.804688 130.921875 27.90625 "/>
</g>
</svg>
