<?xml version="1.0" encoding="UTF-8"?>
<svg xmlns="http://www.w3.org/2000/svg" xmlns:xlink="http://www.w3.org/1999/xlink" width="150px" height="150px" viewBox="0 0 150 100" version="1.1">
<g id="surface1">
<rect x="0" y="0" width="150" height="100" style="fill:rgb(100%,100%,100%);fill-opacity:1;stroke:none;"/>
<path style=" stroke:none;fill-rule:nonzero;fill:rgb(0%,23.921569%,64.705884%);fill-opacity:1;" d="M 62.5 0 L 62.5 37.5 L 0 37.5 L 0 0 Z M 36.078125 25.34375 L 36.078125 23.328125 L 34.28125 23.328125 C 34.28125 22.296875 34.78125 21.296875 35.3125 20.984375 C 35.625 20.71875 36.328125 20.59375 36.9375 20.90625 C 37.734375 21.359375 37.78125 22.671875 37.375 23.265625 C 41.171875 22.5625 40.796875 18.890625 39.5 17.5625 C 38.453125 16.484375 37.3125 16.328125 36.4375 16.65625 C 34.4375 17.375 33.09375 19.765625 33.03125 23.328125 L 31.984375 23.328125 C 31.984375 20.09375 32.546875 19.0625 34.015625 14.984375 C 34.765625 13.0625 34.3125 10.6875 33 8.5 C 32.515625 7.71875 31.921875 7.015625 31.25 6.25 C 30.578125 7.015625 29.984375 7.71875 29.5 8.5 C 28.1875 10.6875 27.734375 13.0625 28.484375 14.984375 C 29.953125 19.0625 30.515625 20.09375 30.515625 23.328125 L 29.46875 23.328125 C 29.40625 19.765625 28.0625 17.375 26.0625 16.65625 C 25.1875 16.328125 24.046875 16.484375 23 17.5625 C 21.703125 18.890625 21.328125 22.5625 25.125 23.265625 C 24.71875 22.671875 24.765625 21.359375 25.5625 20.90625 C 26.171875 20.59375 26.875 20.71875 27.1875 20.984375 C 27.71875 21.296875 28.21875 22.296875 28.21875 23.328125 L 26.421875 23.328125 L 26.421875 25.34375 L 30.15625 25.34375 C 30.109375 26.390625 29.546875 27.203125 28.5 27.65625 C 28.625 28.09375 29.265625 28.984375 30.140625 28.921875 C 30.3125 29.859375 30.46875 30.390625 31.25 31.25 C 32.03125 30.390625 32.1875 29.859375 32.359375 28.921875 C 33.234375 28.984375 33.875 28.09375 34 27.65625 C 32.953125 27.203125 32.390625 26.390625 32.34375 25.34375 Z M 36.078125 25.34375 "/>
<path style=" stroke:none;fill-rule:nonzero;fill:rgb(0%,23.921569%,64.705884%);fill-opacity:1;" d="M 150 0 L 150 37.5 L 87.5 37.5 L 87.5 0 Z M 123.578125 25.34375 L 123.578125 23.328125 L 121.78125 23.328125 C 121.78125 22.296875 122.28125 21.296875 122.8125 20.984375 C 123.125 20.71875 123.828125 20.59375 124.4375 20.90625 C 125.234375 21.359375 125.28125 22.671875 124.875 23.265625 C 128.671875 22.5625 128.296875 18.890625 127 17.5625 C 125.953125 16.484375 124.8125 16.328125 123.9375 16.65625 C 121.9375 17.375 120.59375 19.765625 120.53125 23.328125 L 119.484375 23.328125 C 119.484375 20.09375 120.046875 19.0625 121.515625 14.984375 C 122.265625 13.0625 121.8125 10.6875 120.5 8.5 C 120.015625 7.71875 119.421875 7.015625 118.75 6.25 C 118.078125 7.015625 117.484375 7.71875 117 8.5 C 115.6875 10.6875 115.234375 13.0625 115.984375 14.984375 C 117.453125 19.0625 118.015625 20.09375 118.015625 23.328125 L 116.96875 23.328125 C 116.90625 19.765625 115.5625 17.375 113.5625 16.65625 C 112.6875 16.328125 111.546875 16.484375 110.5 17.5625 C 109.203125 18.890625 108.828125 22.5625 112.625 23.265625 C 112.21875 22.671875 112.265625 21.359375 113.0625 20.90625 C 113.671875 20.59375 114.375 20.71875 114.6875 20.984375 C 115.21875 21.296875 115.71875 22.296875 115.71875 23.328125 L 113.921875 23.328125 L 113.921875 25.34375 L 117.65625 25.34375 C 117.609375 26.390625 117.046875 27.203125 116 27.65625 C 116.125 28.09375 116.765625 28.984375 117.640625 28.921875 C 117.8125 29.859375 117.96875 30.390625 118.75 31.25 C 119.53125 30.390625 119.6875 29.859375 119.859375 28.921875 C 120.734375 28.984375 121.375 28.09375 121.5 27.65625 C 120.453125 27.203125 119.890625 26.390625 119.84375 25.34375 Z M 123.578125 25.34375 "/>
<path style=" stroke:none;fill-rule:nonzero;fill:rgb(0%,23.921569%,64.705884%);fill-opacity:1;" d="M 62.5 62.5 L 62.5 100 L 0 100 L 0 62.5 Z M 36.078125 87.84375 L 36.078125 85.828125 L 34.28125 85.828125 C 34.28125 84.796875 34.78125 83.796875 35.3125 83.484375 C 35.625 83.21875 36.328125 83.09375 36.9375 83.40625 C 37.734375 83.859375 37.78125 85.171875 37.375 85.765625 C 41.171875 85.0625 40.796875 81.390625 39.5 80.0625 C 38.453125 78.984375 37.3125 78.828125 36.4375 79.15625 C 34.4375 79.875 33.09375 82.265625 33.03125 85.828125 L 31.984375 85.828125 C 31.984375 82.59375 32.546875 81.5625 34.015625 77.484375 C 34.765625 75.5625 34.3125 73.1875 33 71 C 32.515625 70.21875 31.921875 69.515625 31.25 68.75 C 30.578125 69.515625 29.984375 70.21875 29.5 71 C 28.1875 73.1875 27.734375 75.5625 28.484375 77.484375 C 29.953125 81.5625 30.515625 82.59375 30.515625 85.828125 L 29.46875 85.828125 C 29.40625 82.265625 28.0625 79.875 26.0625 79.15625 C 25.1875 78.828125 24.046875 78.984375 23 80.0625 C 21.703125 81.390625 21.328125 85.0625 25.125 85.765625 C 24.71875 85.171875 24.765625 83.859375 25.5625 83.40625 C 26.171875 83.09375 26.875 83.21875 27.1875 83.484375 C 27.71875 83.796875 28.21875 84.796875 28.21875 85.828125 L 26.421875 85.828125 L 26.421875 87.84375 L 30.15625 87.84375 C 30.109375 88.890625 29.546875 89.703125 28.5 90.15625 C 28.625 90.59375 29.265625 91.484375 30.140625 91.421875 C 30.3125 92.359375 30.46875 92.890625 31.25 93.75 C 32.03125 92.890625 32.1875 92.359375 32.359375 91.421875 C 33.234375 91.484375 33.875 90.59375 34 90.15625 C 32.953125 89.703125 32.390625 88.890625 32.34375 87.84375 Z M 36.078125 87.84375 "/>
<path style=" stroke:none;fill-rule:nonzero;fill:rgb(0%,23.921569%,64.705884%);fill-opacity:1;" d="M 150 62.5 L 150 100 L 87.5 100 L 87.5 62.5 Z M 123.578125 87.84375 L 123.578125 85.828125 L 121.78125 85.828125 C 121.78125 84.796875 122.28125 83.796875 122.8125 83.484375 C 123.125 83.21875 123.828125 83.09375 124.4375 83.40625 C 125.234375 83.859375 125.28125 85.171875 124.875 85.765625 C 128.671875 85.0625 128.296875 81.390625 127 80.0625 C 125.953125 78.984375 124.8125 78.828125 123.9375 79.15625 C 121.9375 79.875 120.59375 82.265625 120.53125 85.828125 L 119.484375 85.828125 C 119.484375 82.59375 120.046875 81.5625 121.515625 77.484375 C 122.265625 75.5625 121.8125 73.1875 120.5 71 C 120.015625 70.21875 119.421875 69.515625 118.75 68.75 C 118.078125 69.515625 117.484375 70.21875 117 71 C 115.6875 73.1875 115.234375 75.5625 115.984375 77.484375 C 117.453125 81.5625 118.015625 82.59375 118.015625 85.828125 L 116.96875 85.828125 C 116.90625 82.265625 115.5625 79.875 113.5625 79.15625 C 112.6875 78.828125 111.546875 78.984375 110.5 80.0625 C 109.203125 81.390625 108.828125 85.0625 112.625 85.765625 C 112.21875 85.171875 112.265625 83.859375 113.0625 83.40625 C 113.671875 83.09375 114.375 83.21875 114.6875 83.484375 C 115.21875 83.796875 115.71875 84.796875 115.71875 85.828125 L 113.921875 85.828125 L 113.921875 87.84375 L 117.65625 87.84375 C 117.609375 88.890625 117.046875 89.703125 116 90.15625 C 116.125 90.59375 116.765625 91.484375 117.640625 91.421875 C 117.8125 92.359375 117.96875 92.890625 118.75 93.75 C 119.53125 92.890625 119.6875 92.359375 119.859375 91.421875 C 120.734375 91.484375 121.375 90.59375 121.5 90.15625 C 120.453125 89.703125 119.890625 88.890625 119.84375 87.84375 Z M 123.578125 87.84375 "/>
</g>
</svg>
