<?xml version="1.0" encoding="UTF-8"?>
<svg xmlns="http://www.w3.org/2000/svg" xmlns:xlink="http://www.w3.org/1999/xlink" width="150px" height="150px" viewBox="0 0 150 137" version="1.1">
<g id="surface1">
<rect x="0" y="0" width="150" height="137" style="fill:rgb(99.607843%,77.254903%,0%);fill-opacity:1;stroke:none;"/>
<path style="fill:none;stroke-width:4;stroke-linecap:butt;stroke-linejoin:miter;stroke:rgb(87.450981%,67.843139%,0%);stroke-opacity:1;stroke-miterlimit:4;" d="M 651.374349 520.712819 L 686.213021 520.712819 M 651.374349 532.478615 L 686.213021 532.478615 M 651.374349 544.226448 L 686.213021 544.226448 M 651.374349 555.974281 L 686.213021 555.974281 M 651.374349 567.722115 L 686.213021 567.722115 M 651.374349 579.487911 L 686.213021 579.487911 M 651.374349 591.253707 L 686.213021 591.253707 M 651.374349 603.00154 L 686.213021 603.00154 M 651.374349 438.424099 L 686.213021 438.424099 M 651.374349 450.171932 L 686.213021 450.171932 M 651.374349 461.937728 L 686.213021 461.937728 M 651.374349 473.685561 L 686.213021 473.685561 M 651.374349 485.451357 L 686.213021 485.451357 M 651.374349 497.19919 L 686.213021 497.19919 M 651.374349 508.964986 L 686.213021 508.964986 M 651.374349 520.712819 L 686.213021 520.712819 M 651.374349 356.135379 L 686.213021 356.135379 M 651.374349 367.901175 L 686.213021 367.901175 M 651.374349 379.649008 L 686.213021 379.649008 M 651.374349 391.414804 L 686.213021 391.414804 M 651.374349 403.162637 L 686.213021 403.162637 M 651.374349 414.928433 L 686.213021 414.928433 M 651.374349 426.676266 L 686.213021 426.676266 M 651.374349 438.424099 L 686.213021 438.424099 M 651.374349 273.864621 L 686.213021 273.864621 M 651.374349 285.612454 L 686.213021 285.612454 M 651.374349 297.37825 L 686.213021 297.37825 M 651.374349 309.126083 L 686.213021 309.126083 M 651.374349 320.873917 L 686.213021 320.873917 M 651.374349 332.62175 L 686.213021 332.62175 M 651.374349 344.387546 L 686.213021 344.387546 M 651.374349 356.135379 L 686.213021 356.135379 M 651.374349 191.575901 L 686.213021 191.575901 M 651.374349 203.323734 L 686.213021 203.323734 M 651.374349 215.071567 L 686.213021 215.071567 M 651.374349 226.837363 L 686.213021 226.837363 M 651.374349 238.585196 L 686.213021 238.585196 M 651.374349 250.350992 L 686.213021 250.350992 M 651.374349 262.098825 L 686.213021 262.098825 M 651.374349 273.864621 L 686.213021 273.864621 M 651.374349 109.287181 L 686.213021 109.287181 M 651.374349 121.035014 L 686.213021 121.035014 M 651.374349 132.80081 L 686.213021 132.80081 M 651.374349 144.548643 L 686.213021 144.548643 M 651.374349 156.314439 L 686.213021 156.314439 M 651.374349 168.062272 L 686.213021 168.062272 M 651.374349 179.828068 L 686.213021 179.828068 M 651.374349 191.575901 L 686.213021 191.575901 M 651.374349 26.99846 L 686.213021 26.99846 M 651.374349 38.746293 L 686.213021 38.746293 M 651.374349 50.512089 L 686.213021 50.512089 M 651.374349 62.277885 L 686.213021 62.277885 M 651.374349 74.025719 L 686.213021 74.025719 M 651.374349 85.773552 L 686.213021 85.773552 M 651.374349 97.521385 L 686.213021 97.521385 M 651.374349 109.287181 L 686.213021 109.287181 M 493.396224 713.34854 L 493.396224 -3.215385 M 505.151823 713.34854 L 505.151823 -3.215385 M 516.92526 713.34854 L 516.92526 -3.215385 M 528.680859 713.34854 L 528.680859 -3.215385 M 540.436458 713.34854 L 540.436458 -3.215385 M 552.192057 713.34854 L 552.192057 -3.215385 M 563.947656 713.34854 L 563.947656 -3.215385 M 575.703255 713.34854 L 575.703255 -3.215385 M 411.107031 713.34854 L 411.107031 -3.215385 M 422.86263 713.34854 L 422.86263 -3.215385 M 434.618229 713.34854 L 434.618229 -3.215385 M 446.373828 713.34854 L 446.373828 -3.215385 M 458.147266 713.34854 L 458.147266 -3.215385 M 469.902865 713.34854 L 469.902865 -3.215385 M 481.658464 713.34854 L 481.658464 -3.215385 M 493.396224 713.34854 L 493.396224 -3.215385 M 328.817839 713.34854 L 328.817839 -3.215385 M 340.573437 713.34854 L 340.573437 -3.215385 M 352.329036 713.34854 L 352.329036 -3.215385 M 364.084635 713.34854 L 364.084635 -3.215385 M 375.840234 713.34854 L 375.840234 -3.215385 M 387.595833 713.34854 L 387.595833 -3.215385 M 399.351432 713.34854 L 399.351432 -3.215385 M 411.107031 713.34854 L 411.107031 -3.215385 M 246.528646 713.34854 L 246.528646 -3.215385 M 258.284245 713.34854 L 258.284245 -3.215385 M 270.039844 713.34854 L 270.039844 -3.215385 M 281.795443 713.34854 L 281.795443 -3.215385 M 293.551042 713.34854 L 293.551042 -3.215385 M 305.306641 713.34854 L 305.306641 -3.215385 M 317.06224 713.34854 L 317.06224 -3.215385 M 328.817839 713.34854 L 328.817839 -3.215385 M 164.221615 713.34854 L 164.221615 -3.215385 M 175.995052 713.34854 L 175.995052 -3.215385 M 187.732812 713.34854 L 187.732812 -3.215385 M 199.50625 713.34854 L 199.50625 -3.215385 M 211.24401 713.34854 L 211.24401 -3.215385 M 223.017448 713.34854 L 223.017448 -3.215385 M 234.773047 713.34854 L 234.773047 -3.215385 M 246.528646 713.34854 L 246.528646 -3.215385 M 81.932422 713.34854 L 81.932422 -3.215385 M 93.705859 713.34854 L 93.705859 -3.215385 M 105.44362 713.34854 L 105.44362 -3.215385 M 117.199219 713.34854 L 117.199219 -3.215385 M 128.954818 713.34854 L 128.954818 -3.215385 M 140.728255 713.34854 L 140.728255 -3.215385 M 152.466016 713.34854 L 152.466016 -3.215385 M 164.221615 713.34854 L 164.221615 -3.215385 M 11.398828 713.34854 L 11.398828 -3.215385 M 23.154427 713.34854 L 23.154427 -3.215385 M 34.910026 713.34854 L 34.910026 -3.215385 M 46.665625 713.34854 L 46.665625 -3.215385 M 58.421224 713.34854 L 58.421224 -3.215385 M 70.176823 713.34854 L 70.176823 -3.215385 M 81.932422 713.34854 L 81.932422 -3.215385 M 575.703255 713.34854 L 575.703255 -3.215385 M 587.458854 713.34854 L 587.458854 -3.215385 M 599.214453 713.34854 L 599.214453 -3.215385 M 610.970052 713.34854 L 610.970052 -3.215385 M 622.725651 713.34854 L 622.725651 -3.215385 M 634.48125 713.34854 L 634.48125 -3.215385 M 646.236849 713.34854 L 646.236849 -3.215385 M 657.992448 713.34854 L 657.992448 -3.215385 M 493.396224 713.34854 L 493.396224 -3.215385 M 505.151823 713.34854 L 505.151823 -3.215385 M 516.92526 713.34854 L 516.92526 -3.215385 M 528.680859 713.34854 L 528.680859 -3.215385 M 540.436458 713.34854 L 540.436458 -3.215385 M 552.192057 713.34854 L 552.192057 -3.215385 M 563.947656 713.34854 L 563.947656 -3.215385 M 575.703255 713.34854 L 575.703255 -3.215385 M 411.107031 713.34854 L 411.107031 -3.215385 M 422.86263 713.34854 L 422.86263 -3.215385 M 434.618229 713.34854 L 434.618229 -3.215385 M 446.373828 713.34854 L 446.373828 -3.215385 M 458.147266 713.34854 L 458.147266 -3.215385 M 469.902865 713.34854 L 469.902865 -3.215385 M 481.658464 713.34854 L 481.658464 -3.215385 M 493.396224 713.34854 L 493.396224 -3.215385 M 328.817839 713.34854 L 328.817839 -3.215385 M 340.573437 713.34854 L 340.573437 -3.215385 M 352.329036 713.34854 L 352.329036 -3.215385 M 364.084635 713.34854 L 364.084635 -3.215385 M 375.840234 713.34854 L 375.840234 -3.215385 M 387.595833 713.34854 L 387.595833 -3.215385 M 399.351432 713.34854 L 399.351432 -3.215385 M 411.107031 713.34854 L 411.107031 -3.215385 M 246.528646 713.34854 L 246.528646 -3.215385 M 258.284245 713.34854 L 258.284245 -3.215385 M 270.039844 713.34854 L 270.039844 -3.215385 M 281.795443 713.34854 L 281.795443 -3.215385 M 293.551042 713.34854 L 293.551042 -3.215385 M 305.306641 713.34854 L 305.306641 -3.215385 M 317.06224 713.34854 L 317.06224 -3.215385 M 328.817839 713.34854 L 328.817839 -3.215385 M 164.221615 713.34854 L 164.221615 -3.215385 M 175.995052 713.34854 L 175.995052 -3.215385 M 187.732812 713.34854 L 187.732812 -3.215385 M 199.50625 713.34854 L 199.50625 -3.215385 M 211.24401 713.34854 L 211.24401 -3.215385 M 223.017448 713.34854 L 223.017448 -3.215385 M 234.773047 713.34854 L 234.773047 -3.215385 M 246.528646 713.34854 L 246.528646 -3.215385 M 81.932422 713.34854 L 81.932422 -3.215385 M 93.705859 713.34854 L 93.705859 -3.215385 M 105.44362 713.34854 L 105.44362 -3.215385 M 117.199219 713.34854 L 117.199219 -3.215385 M 128.954818 713.34854 L 128.954818 -3.215385 M 140.728255 713.34854 L 140.728255 -3.215385 M 152.466016 713.34854 L 152.466016 -3.215385 M 164.221615 713.34854 L 164.221615 -3.215385 M 652.837109 598.618556 L 685 630 " transform="matrix(0.218978,0,0,0.21746,0,0)"/>
<path style="fill:none;stroke-width:4.02;stroke-linecap:butt;stroke-linejoin:miter;stroke:rgb(87.450981%,67.843139%,0%);stroke-opacity:1;stroke-miterlimit:4;" d="M 652.837109 31.381444 L 685 0 " transform="matrix(0.218978,0,0,0.21746,0,0)"/>
<path style=" stroke:none;fill-rule:nonzero;fill:rgb(100%,100%,100%);fill-opacity:1;" d="M 0 5.4375 L 144.527344 5.4375 L 144.527344 131.5625 L 0 131.5625 Z M 0 5.4375 "/>
<path style="fill-rule:nonzero;fill:rgb(99.607843%,77.254903%,0%);fill-opacity:1;stroke-width:1.5;stroke-linecap:butt;stroke-linejoin:miter;stroke:rgb(99.607843%,77.254903%,0%);stroke-opacity:1;stroke-miterlimit:4;" d="M 325.785286 210.526916 C 325.785286 210.526916 324.714974 328.741731 324.714974 337.346031 C 324.714974 345.932368 324.714974 357.752053 315.22487 355.61445 C 305.734766 353.458885 294.121875 353.458885 277.246615 341.639199 C 260.371354 329.819514 260.371354 327.663948 260.371354 327.663948 L 276.194141 322.292997 C 276.194141 322.292997 260.371354 319.077612 249.828776 311.551095 C 239.286198 304.024578 230.848568 297.575844 230.848568 297.575844 C 230.848568 297.575844 229.796094 313.706661 235.058464 325.526346 C 240.338672 337.346031 250.88125 348.087933 250.88125 348.087933 L 250.88125 334.112682 C 250.88125 334.112682 265.651563 348.087933 270.931771 351.321282 C 276.194141 354.536667 297.297135 363.140967 305.734766 368.511918 C 314.172396 373.88287 331.047656 388.935903 331.047656 388.935903 C 331.047656 388.935903 345.817969 371.727304 356.378385 367.434135 C 366.920964 363.123004 380.638802 356.692233 386.953646 352.381102 C 393.286328 348.087933 410.161589 331.97508 410.161589 331.97508 L 410.161589 350.243499 C 410.161589 350.243499 421.756641 336.268248 424.931901 326.586166 C 428.107161 316.922046 429.141797 299.713447 429.141797 299.713447 C 429.141797 299.713447 420.704167 306.162181 413.336849 309.395529 C 405.933854 312.628878 384.848698 321.215214 384.848698 321.215214 L 401.723958 325.526346 C 401.723958 325.526346 374.30612 347.028114 364.816016 351.321282 C 355.308073 355.61445 335.275391 357.752053 335.275391 347.028114 C 335.275391 336.286211 336.327865 210.526916 336.327865 210.526916 Z M 326.83776 170.756729 L 334.205078 170.756729 L 334.205078 202.982436 L 326.83776 202.982436 Z M 326.83776 170.756729 " transform="matrix(0.218978,0,0,0.21746,0,0)"/>
<path style="fill-rule:nonzero;fill:rgb(99.607843%,77.254903%,0%);fill-opacity:1;stroke-width:1.5;stroke-linecap:butt;stroke-linejoin:miter;stroke:rgb(100%,100%,100%);stroke-opacity:1;stroke-miterlimit:4;" d="M 274.107031 203.000399 C 274.107031 203.000399 303.629818 196.551665 331.047656 196.551665 C 358.465495 196.551665 386.953646 202.982436 386.953646 202.982436 L 386.953646 214.820084 C 386.953646 214.820084 348.975391 220.191036 326.83776 220.191036 C 304.682292 220.191036 273.036719 213.742302 273.036719 213.742302 Z M 274.107031 203.000399 " transform="matrix(0.218978,0,0,0.21746,0,0)"/>
<path style="fill-rule:evenodd;fill:rgb(99.607843%,77.254903%,0%);fill-opacity:1;stroke-width:1.5;stroke-linecap:butt;stroke-linejoin:miter;stroke:rgb(100%,100%,100%);stroke-opacity:1;stroke-miterlimit:4;" d="M 341.608073 197.611485 C 341.608073 204.742815 336.63112 210.526916 330.5125 210.526916 C 324.411719 210.526916 319.452604 204.742815 319.452604 197.611485 C 319.452604 190.498118 324.411719 184.714017 330.5125 184.714017 C 336.63112 184.714017 341.608073 190.498118 341.608073 197.611485 Z M 346.870443 197.072594 C 346.870443 206.880417 339.32474 214.820084 329.995182 214.820084 C 320.683464 214.820084 313.119922 206.880417 313.119922 197.072594 C 313.119922 187.282733 320.683464 179.343066 329.995182 179.343066 C 339.32474 179.343066 346.870443 187.282733 346.870443 197.072594 Z M 346.870443 197.072594 " transform="matrix(0.218978,0,0,0.21746,0,0)"/>
<path style="fill-rule:nonzero;fill:rgb(0%,19.607843%,44.313726%);fill-opacity:1;stroke-width:1;stroke-linecap:butt;stroke-linejoin:round;stroke:rgb(100%,100%,100%);stroke-opacity:1;stroke-miterlimit:4;" d="M 427.625521 403.378193 C 427.625521 403.378193 413.622266 416.167883 399.904427 417.982151 C 386.204427 419.814382 364.601953 426.263116 364.601953 426.263116 C 364.601953 426.263116 364.03112 445.986542 364.708984 447.693031 C 365.386849 449.399521 365.814974 449.848597 367.777214 449.920449 C 374.163411 450.153969 389.736458 450.171932 406.665234 446.238025 C 428.785026 441.08263 450.494531 427.754049 450.494531 427.754049 C 445.446224 425.688298 433.191146 423.856068 425.30651 421.898095 Z M 386.596875 433.825559 C 388.095312 437.813355 364.423568 441.513743 364.708984 447.693031 M 232.364844 403.378193 C 232.364844 403.378193 246.385937 416.167883 260.085938 417.982151 C 273.803776 419.814382 295.388411 426.263116 295.388411 426.263116 C 295.388411 426.263116 295.959245 445.986542 295.28138 447.693031 C 294.621354 449.399521 294.193229 449.848597 292.213151 449.920449 C 285.826953 450.153969 270.271745 450.171932 253.342969 446.238025 C 231.205339 441.08263 209.495833 427.754049 209.495833 427.754049 C 214.561979 425.688298 226.799219 423.856068 234.701693 421.898095 Z M 273.39349 433.825559 C 271.895052 437.813355 295.584635 441.513743 295.28138 447.693031 " transform="matrix(0.218978,0,0,0.21746,0,0)"/>
<path style="fill-rule:nonzero;fill:rgb(0%,19.607843%,44.313726%);fill-opacity:1;stroke-width:1;stroke-linecap:butt;stroke-linejoin:round;stroke:rgb(100%,100%,100%);stroke-opacity:1;stroke-miterlimit:4;" d="M 277.264453 432.981296 C 274.820573 432.226848 273.39349 433.825559 273.39349 433.825559 L 273.39349 399.659843 C 273.39349 399.659843 274.874089 398.312614 277.460677 399.444286 C 286.558333 403.41412 310.016016 411.461565 329.995182 411.461565 C 349.974349 411.461565 373.432031 403.41412 382.547526 399.444286 C 385.116276 398.312614 386.596875 399.64188 386.596875 399.64188 L 386.596875 433.825559 C 386.596875 433.825559 385.18763 432.226848 382.74375 432.981296 C 373.039583 435.999088 347.673177 443.489678 329.995182 443.489678 C 312.317187 443.489678 286.96862 435.999088 277.264453 432.999259 Z M 277.264453 432.981296 " transform="matrix(0.218978,0,0,0.21746,0,0)"/>
<path style=" stroke:none;fill-rule:nonzero;fill:rgb(99.607843%,77.254903%,0%);fill-opacity:1;" d="M 72.261719 15.222656 L 74.578125 20.753906 L 80.59375 21.234375 L 76.011719 25.128906 L 77.414062 30.957031 L 72.261719 27.835938 L 67.113281 30.957031 L 68.515625 25.128906 L 63.933594 21.234375 L 69.945312 20.753906 Z M 72.261719 15.222656 "/>
<path style=" stroke:none;fill-rule:nonzero;fill:rgb(99.607843%,77.254903%,0%);fill-opacity:1;" d="M 97.203125 21.328125 L 96.664062 27.296875 L 101.761719 30.496094 L 95.882812 31.832031 L 94.394531 37.636719 L 91.296875 32.496094 L 85.277344 32.882812 L 89.246094 28.371094 L 87.011719 22.804688 L 92.5625 25.15625 Z M 97.203125 21.328125 "/>
<path style=" stroke:none;fill-rule:nonzero;fill:rgb(99.607843%,77.254903%,0%);fill-opacity:1;" d="M 116.414062 38.230469 L 113.144531 43.269531 L 116.164062 48.453125 L 110.332031 46.921875 L 106.300781 51.378906 L 105.960938 45.398438 L 100.449219 42.964844 L 106.074219 40.796875 L 106.699219 34.839844 L 110.511719 39.480469 Z M 116.414062 38.230469 "/>
<path style=" stroke:none;fill-rule:nonzero;fill:rgb(99.607843%,77.254903%,0%);fill-opacity:1;" d="M 125.523438 62.082031 L 120.269531 65.03125 L 120.515625 71.015625 L 116.070312 66.96875 L 110.414062 69.054688 L 112.914062 63.601562 L 109.171875 58.902344 L 115.167969 59.582031 L 118.507812 54.59375 L 119.710938 60.464844 Z M 125.523438 62.082031 "/>
<path style=" stroke:none;fill-rule:nonzero;fill:rgb(99.607843%,77.254903%,0%);fill-opacity:1;" d="M 122.425781 87.394531 L 116.394531 87.582031 L 113.8125 92.996094 L 111.769531 87.359375 L 105.785156 86.59375 L 110.550781 82.921875 L 109.4375 77.03125 L 114.425781 80.402344 L 119.71875 77.527344 L 118.039062 83.28125 Z M 122.425781 87.394531 "/>
<path style=" stroke:none;fill-rule:nonzero;fill:rgb(99.607843%,77.254903%,0%);fill-opacity:1;" d="M 107.839844 108.378906 L 102.410156 105.761719 L 97.589844 109.363281 L 98.417969 103.429688 L 93.476562 99.992188 L 99.417969 98.9375 L 101.1875 93.210938 L 104.027344 98.496094 L 110.0625 98.394531 L 105.878906 102.710938 Z M 107.839844 108.378906 "/>
<path style=" stroke:none;fill-rule:nonzero;fill:rgb(99.607843%,77.254903%,0%);fill-opacity:1;" d="M 85.105469 120.230469 L 81.523438 115.40625 L 75.570312 116.375 L 79.078125 111.5 L 76.3125 106.175781 L 82.066406 107.984375 L 86.3125 103.726562 L 86.355469 109.71875 L 91.746094 112.414062 L 86.019531 114.308594 Z M 85.105469 120.230469 "/>
<path style=" stroke:none;fill-rule:nonzero;fill:rgb(99.607843%,77.254903%,0%);fill-opacity:1;" d="M 47.324219 21.328125 L 47.863281 27.296875 L 42.761719 30.496094 L 48.640625 31.832031 L 50.128906 37.636719 L 53.226562 32.496094 L 59.246094 32.882812 L 55.277344 28.371094 L 57.511719 22.804688 L 51.964844 25.15625 Z M 47.324219 21.328125 "/>
<path style=" stroke:none;fill-rule:nonzero;fill:rgb(99.607843%,77.254903%,0%);fill-opacity:1;" d="M 28.113281 38.230469 L 31.378906 43.269531 L 28.359375 48.453125 L 34.191406 46.921875 L 38.226562 51.378906 L 38.5625 45.398438 L 44.078125 42.964844 L 38.453125 40.796875 L 37.824219 34.839844 L 34.011719 39.480469 Z M 28.113281 38.230469 "/>
<path style=" stroke:none;fill-rule:nonzero;fill:rgb(99.607843%,77.254903%,0%);fill-opacity:1;" d="M 19.003906 62.082031 L 24.253906 65.03125 L 24.007812 71.015625 L 28.457031 66.96875 L 34.113281 69.054688 L 31.613281 63.601562 L 35.355469 58.902344 L 29.359375 59.582031 L 26.015625 54.59375 L 24.8125 60.464844 Z M 19.003906 62.082031 "/>
<path style=" stroke:none;fill-rule:nonzero;fill:rgb(99.607843%,77.254903%,0%);fill-opacity:1;" d="M 22.101562 87.394531 L 28.128906 87.582031 L 30.714844 92.996094 L 32.757812 87.359375 L 38.742188 86.59375 L 33.976562 82.921875 L 35.089844 77.03125 L 30.097656 80.402344 L 24.804688 77.527344 L 26.488281 83.28125 Z M 22.101562 87.394531 "/>
<path style=" stroke:none;fill-rule:nonzero;fill:rgb(99.607843%,77.254903%,0%);fill-opacity:1;" d="M 36.683594 108.378906 L 42.113281 105.761719 L 46.933594 109.363281 L 46.105469 103.429688 L 51.046875 99.992188 L 45.109375 98.9375 L 43.339844 93.210938 L 40.496094 98.496094 L 34.464844 98.394531 L 38.644531 102.710938 Z M 36.683594 108.378906 "/>
<path style=" stroke:none;fill-rule:nonzero;fill:rgb(99.607843%,77.254903%,0%);fill-opacity:1;" d="M 59.421875 120.230469 L 63.003906 115.40625 L 68.957031 116.375 L 65.449219 111.5 L 68.214844 106.175781 L 62.460938 107.984375 L 58.214844 103.726562 L 58.171875 109.71875 L 52.78125 112.414062 L 58.503906 114.308594 Z M 59.421875 120.230469 "/>
<path style=" stroke:none;fill-rule:nonzero;fill:rgb(99.607843%,77.254903%,0%);fill-opacity:1;" d="M 79.335938 92.132812 L 79.335938 89.683594 L 81.113281 89.207031 L 82.894531 88.726562 L 82.894531 89.710938 L 80.574219 90.335938 L 80.574219 91.316406 L 82.324219 90.847656 L 82.324219 91.828125 L 81.4375 92.066406 L 80.546875 92.308594 L 80.546875 93.273438 L 81.71875 92.957031 L 82.894531 92.640625 L 82.894531 93.625 L 81.113281 94.105469 L 79.332031 94.582031 L 79.332031 92.132812 Z M 75.898438 92.242188 C 76.316406 92.109375 76.523438 91.878906 76.449219 91.617188 C 76.378906 91.371094 75.996094 91.265625 75.320312 91.304688 L 75.03125 91.324219 L 75.03125 92.378906 L 75.402344 92.328125 C 75.601562 92.304688 75.824219 92.265625 75.894531 92.242188 Z M 73.847656 92.910156 L 73.847656 90.460938 L 74.652344 90.390625 C 75.644531 90.304688 75.980469 90.308594 76.421875 90.394531 C 77.1875 90.550781 77.613281 90.960938 77.65625 91.585938 C 77.691406 91.984375 77.527344 92.371094 77.210938 92.617188 C 76.835938 92.941406 76.308594 93.144531 75.464844 93.277344 L 75.058594 93.34375 L 75.058594 95.242188 L 74.453125 95.300781 L 73.847656 95.363281 Z M 69.84375 94.410156 C 69.996094 94.328125 70.152344 94.085938 70.222656 93.816406 C 70.359375 93.28125 70.324219 92.382812 70.144531 91.945312 C 69.972656 91.519531 69.597656 91.371094 69.265625 91.601562 C 68.980469 91.796875 68.863281 92.238281 68.886719 93.015625 C 68.914062 93.859375 69.066406 94.300781 69.382812 94.4375 C 69.53125 94.5 69.703125 94.488281 69.84375 94.410156 Z M 69.242188 95.414062 C 68.671875 95.3125 68.183594 94.949219 67.925781 94.433594 C 67.703125 93.992188 67.632812 93.617188 67.632812 92.917969 C 67.632812 92.214844 67.707031 91.828125 67.921875 91.40625 C 68.246094 90.773438 68.933594 90.449219 69.816406 90.527344 C 70.769531 90.613281 71.324219 91.152344 71.5 92.171875 C 71.550781 92.476562 71.558594 93.171875 71.511719 93.527344 C 71.390625 94.488281 70.992188 95.089844 70.324219 95.324219 C 70.003906 95.4375 69.589844 95.472656 69.242188 95.414062 Z M 61.6875 91.175781 L 61.6875 88.726562 L 62.898438 89.023438 L 62.898438 90.988281 L 63.636719 91.171875 L 64.367188 91.347656 L 64.367188 89.382812 L 64.988281 89.535156 L 65.609375 89.683594 L 65.609375 94.582031 L 64.988281 94.429688 L 64.367188 94.28125 L 64.367188 92.3125 L 63.636719 92.132812 L 62.898438 91.953125 L 62.898438 93.921875 L 61.6875 93.625 Z M 61.6875 91.175781 "/>
</g>
</svg>
