<?xml version="1.0" encoding="UTF-8"?>
<svg xmlns="http://www.w3.org/2000/svg" xmlns:xlink="http://www.w3.org/1999/xlink" width="150px" height="85px" viewBox="0 0 149 85" version="1.1">
<g id="surface1">
<path style=" stroke:none;fill-rule:evenodd;fill:rgb(97.647059%,98.039216%,98.039216%);fill-opacity:1;" d="M 52.355469 20.21875 C 52.308594 20.277344 52.246094 20.425781 52.214844 20.550781 C 52.132812 20.882812 52.046875 20.898438 51.84375 20.613281 C 51.460938 20.070312 50.933594 20.226562 50.933594 20.882812 C 50.933594 21.992188 52.796875 22.023438 52.972656 20.917969 C 53.066406 20.335938 52.652344 19.863281 52.355469 20.21875 M 44.46875 20.492188 C 44.386719 20.671875 44.402344 20.730469 44.585938 20.925781 C 44.855469 21.214844 45.011719 21.53125 45.183594 22.128906 C 45.335938 22.644531 45.394531 22.71875 45.59375 22.640625 C 45.765625 22.574219 45.769531 21.878906 45.605469 21.3125 C 45.355469 20.472656 44.695312 19.992188 44.46875 20.492188 M 74.226562 20.566406 C 73.832031 20.929688 73.828125 22.003906 74.207031 24.144531 C 74.449219 25.511719 74.460938 25.832031 74.289062 26.082031 C 74.132812 26.300781 73.828125 26.320312 73.65625 26.121094 C 73.339844 25.757812 73.304688 25.582031 73.332031 24.394531 C 73.394531 21.371094 72.769531 19.769531 71.882812 20.660156 C 71.628906 20.914062 71.640625 21.277344 71.9375 22.648438 C 72.417969 24.855469 71.910156 26.226562 70.464844 26.652344 C 68.824219 27.128906 68.269531 26.203125 68.578125 23.511719 C 68.847656 21.160156 67.632812 21.738281 66.207031 24.640625 C 65.164062 26.757812 64.53125 26.359375 64.433594 23.523438 C 64.378906 21.949219 64.230469 21.671875 63.800781 22.339844 C 63.226562 23.21875 63.3125 25.992188 63.9375 26.9375 C 64.835938 28.300781 66.382812 27.617188 67.144531 25.523438 L 67.367188 24.90625 L 67.429688 25.648438 C 67.605469 27.804688 68.445312 28.589844 70.183594 28.230469 C 71.027344 28.054688 71.578125 27.789062 72.097656 27.300781 L 72.488281 26.933594 L 72.71875 27.175781 C 73.1875 27.667969 73.859375 27.8125 74.480469 27.550781 C 75.46875 27.136719 75.808594 26.011719 75.527344 24.113281 C 75.441406 23.535156 75.371094 23.027344 75.367188 22.980469 C 75.367188 22.9375 75.515625 22.878906 75.699219 22.859375 C 76.152344 22.800781 76.148438 22.421875 75.691406 21.5 C 75.175781 20.453125 74.683594 20.140625 74.226562 20.566406 M 55.730469 20.554688 C 55.132812 20.855469 55.125 21.417969 55.652344 26.75 C 56.066406 30.914062 56.070312 30.589844 55.597656 30.824219 C 55.386719 30.925781 55.203125 31 55.191406 30.988281 C 55.179688 30.972656 55.074219 30.769531 54.960938 30.535156 C 53.871094 28.359375 51.511719 29.007812 51.511719 31.484375 C 51.515625 32.78125 52.125 33.179688 53.632812 32.867188 C 54.375 32.714844 54.328125 32.6875 54.234375 33.203125 C 53.820312 35.441406 49.621094 37.800781 48.414062 36.476562 C 47.945312 35.964844 47.863281 34.941406 48.214844 34.019531 C 48.414062 33.484375 47.992188 33.316406 47.570312 33.765625 C 46.527344 34.871094 46.734375 37.339844 47.945312 38.191406 C 49.136719 39.027344 52.117188 38.035156 54.054688 36.148438 C 55.0625 35.171875 55.425781 34.421875 55.53125 33.117188 C 55.585938 32.433594 55.816406 32.058594 56.042969 32.285156 C 56.144531 32.390625 56.082031 34.574219 55.957031 35.128906 C 55.414062 37.574219 52.785156 39.296875 49.503906 39.363281 C 48.222656 39.386719 48.125 39.425781 48.125 39.902344 C 48.125 41.316406 52.265625 40.871094 54.792969 39.183594 C 56.644531 37.945312 57.402344 36.355469 57.453125 33.601562 C 57.484375 31.824219 57.539062 31.628906 57.882812 32.046875 C 58.265625 32.507812 59.042969 32.542969 59.726562 32.128906 L 60.199219 31.84375 L 60.5 32.046875 C 61.449219 32.695312 62.59375 31.742188 62.59375 30.304688 C 62.59375 29.3125 61.816406 29.328125 61.460938 30.332031 C 61.28125 30.84375 61.296875 30.84375 60.910156 30.378906 C 60.4375 29.808594 60.222656 29.867188 59.476562 30.78125 C 59.234375 31.082031 59.070312 30.996094 58.832031 30.457031 C 58.488281 29.671875 58.054688 29.574219 57.53125 30.15625 L 57.242188 30.480469 L 57.144531 29.433594 C 57.09375 28.855469 57.011719 27.710938 56.96875 26.890625 C 56.921875 26.066406 56.855469 25.164062 56.820312 24.882812 L 56.753906 24.371094 L 57.066406 24.320312 C 57.855469 24.191406 57.816406 23.621094 56.863281 21.597656 C 56.339844 20.480469 56.175781 20.328125 55.730469 20.554688 M 65.742188 20.550781 C 65.234375 20.816406 65.113281 21.339844 65.582031 21.246094 C 65.894531 21.183594 65.910156 21.503906 65.613281 21.984375 C 65.34375 22.425781 65.335938 22.773438 65.597656 22.773438 C 66.179688 22.773438 66.835938 21.171875 66.457031 20.675781 C 66.3125 20.484375 65.980469 20.425781 65.742188 20.550781 M 69.503906 20.703125 C 69.191406 21.078125 69.175781 21.238281 69.367188 22.359375 C 69.460938 22.917969 69.539062 23.542969 69.539062 23.742188 C 69.539062 24.136719 69.691406 24.285156 69.941406 24.132812 C 70.503906 23.789062 70.613281 21.539062 70.109375 20.707031 C 69.914062 20.378906 69.773438 20.378906 69.503906 20.703125 M 76.238281 20.570312 C 75.882812 21 76.359375 22.242188 77.28125 23.289062 C 78.582031 24.765625 78.824219 25.082031 79.132812 25.726562 C 79.71875 26.941406 80.140625 29.027344 80.289062 31.441406 C 80.40625 33.398438 80.390625 36.667969 80.257812 37.285156 C 80.089844 38.070312 80.269531 38.34375 80.722656 37.988281 C 81.574219 37.3125 81.835938 34.007812 81.394531 29.546875 L 81.34375 29.050781 L 81.777344 29.757812 C 82.746094 31.339844 83.90625 33.855469 84.050781 34.703125 C 84.269531 35.957031 84.878906 35.5625 84.871094 34.171875 C 84.859375 32.773438 84.347656 31.539062 82.515625 28.511719 C 79.917969 24.210938 80.046875 24.453125 80.382812 24.421875 C 80.8125 24.378906 80.847656 24.210938 80.585938 23.382812 C 80.1875 22.117188 79.144531 20.695312 78.609375 20.695312 C 78.296875 20.695312 77.890625 21.0625 77.890625 21.34375 C 77.890625 21.433594 77.742188 21.335938 77.457031 21.054688 C 76.828125 20.441406 76.464844 20.296875 76.238281 20.570312 M 94.621094 20.535156 C 93.933594 20.789062 93.550781 22.109375 93.941406 22.882812 C 94.074219 23.140625 94.128906 23.4375 94.15625 24.019531 L 94.195312 24.8125 L 93.890625 24.519531 C 93.363281 24.019531 93.054688 23.515625 93.21875 23.425781 C 93.550781 23.234375 91.464844 20.78125 90.972656 20.78125 C 90.183594 20.78125 90.089844 22.210938 90.8125 23.214844 C 91.4375 24.082031 92.058594 24.875 92.644531 25.550781 C 94.023438 27.140625 94.195312 27.421875 94.265625 28.242188 C 94.566406 31.59375 94.578125 35.179688 94.289062 35.824219 C 93.800781 36.921875 92.722656 36.722656 91.609375 35.332031 C 90.378906 33.789062 89.519531 34.074219 88.425781 36.386719 C 88.171875 36.925781 87.851562 37.597656 87.714844 37.890625 C 87.453125 38.4375 87.402344 38.464844 86.972656 38.28125 C 86.335938 38.011719 86.363281 39.503906 87 39.894531 C 87.789062 40.378906 88.140625 40.054688 89.089844 37.980469 C 89.964844 36.074219 90.242188 35.808594 90.714844 36.425781 C 92.105469 38.25 93.804688 38.617188 95.023438 37.347656 C 95.847656 36.488281 96.011719 35.582031 95.980469 32.136719 C 95.96875 30.691406 95.976562 29.507812 96 29.511719 C 96.019531 29.511719 96.136719 29.652344 96.257812 29.820312 C 96.378906 29.992188 96.886719 30.664062 97.386719 31.316406 C 98.175781 32.34375 98.304688 32.558594 98.347656 32.898438 C 98.402344 33.316406 98.5625 36.523438 98.5625 37.160156 C 98.5625 37.675781 98.699219 37.855469 99.003906 37.742188 C 99.433594 37.574219 99.574219 37.0625 99.621094 35.472656 C 99.640625 34.707031 99.683594 34.078125 99.710938 34.078125 C 99.796875 34.078125 100.984375 35.324219 101.398438 35.84375 C 101.753906 36.289062 102.367188 37.425781 102.367188 37.644531 C 102.367188 37.992188 101.007812 38.945312 99.753906 39.480469 C 98.578125 39.980469 98.394531 40.09375 98.394531 40.339844 C 98.394531 41.367188 101.992188 40.421875 103.40625 39.023438 C 105.074219 37.371094 105.332031 34.640625 104.734375 24.996094 C 104.679688 24.140625 104.648438 23.4375 104.660156 23.4375 C 104.671875 23.4375 104.757812 23.484375 104.847656 23.542969 C 105.550781 23.984375 105.460938 22.871094 104.6875 21.582031 C 103.980469 20.40625 103.683594 20.226562 103.226562 20.703125 C 102.921875 21.023438 102.921875 20.828125 103.265625 26.929688 C 103.703125 34.75 103.703125 35 103.210938 36.4375 L 102.988281 37.097656 L 102.882812 36.570312 C 102.679688 35.546875 102.21875 34.796875 100.410156 32.527344 L 99.472656 31.347656 L 99.472656 30.730469 C 99.472656 29.957031 99.175781 26.171875 99.015625 24.871094 C 98.949219 24.335938 98.894531 23.863281 98.894531 23.820312 C 98.894531 23.777344 98.976562 23.824219 99.082031 23.921875 C 99.785156 24.585938 99.726562 22.589844 99 21.050781 C 98.566406 20.128906 97.496094 20.46875 97.359375 21.570312 C 97.273438 22.273438 97.367188 23.664062 97.648438 25.742188 C 97.996094 28.304688 98.160156 29.691406 98.117188 29.730469 C 98.070312 29.78125 97.4375 29.015625 96.554688 27.828125 L 95.769531 26.769531 L 95.714844 26.039062 C 95.683594 25.636719 95.621094 25 95.578125 24.621094 C 95.488281 23.855469 95.515625 23.730469 95.75 23.855469 C 96.574219 24.296875 96.621094 23.757812 95.886719 22.324219 C 95.628906 21.828125 95.417969 21.339844 95.417969 21.246094 C 95.417969 20.792969 94.980469 20.402344 94.621094 20.535156 M 81.828125 20.703125 C 81.523438 20.945312 81.535156 21.382812 81.871094 22.050781 C 82.0625 22.429688 82.132812 22.699219 82.148438 23.066406 C 82.175781 23.714844 82.167969 23.6875 82.339844 23.6875 C 82.769531 23.6875 82.976562 23.234375 82.957031 22.347656 C 82.921875 20.90625 82.445312 20.214844 81.828125 20.703125 M 84.863281 20.691406 C 84.25 21.066406 84.246094 21.667969 84.824219 26.679688 C 85.65625 33.894531 85.671875 35.097656 84.964844 36.597656 C 84.433594 37.71875 83.246094 38.699219 81.671875 39.324219 C 80.890625 39.632812 80.765625 39.894531 81.214844 40.273438 C 82.078125 41.003906 84.351562 39.949219 85.546875 38.269531 C 87.027344 36.183594 87.136719 34.304688 86.246094 26.515625 C 85.953125 23.945312 85.953125 23.992188 86.144531 24.097656 C 86.867188 24.488281 86.972656 23.984375 86.480469 22.460938 C 85.871094 20.570312 85.578125 20.253906 84.863281 20.691406 M 61.558594 20.941406 C 60.953125 21.195312 60.699219 22.011719 61.023438 22.648438 C 61.316406 23.230469 61.117188 23.503906 59.417969 24.867188 C 58.652344 25.480469 58.542969 25.621094 58.675781 25.828125 C 59.128906 26.527344 62.230469 23.960938 62.734375 22.472656 C 63.082031 21.441406 62.425781 20.582031 61.558594 20.941406 M 48.347656 21.257812 C 48.054688 21.585938 48.035156 21.820312 48.207031 22.882812 C 48.4375 24.28125 48.597656 27.214844 48.449219 27.390625 C 47.902344 28.054688 47.324219 26.695312 47.578125 25.335938 C 47.792969 24.179688 47.726562 23.492188 47.359375 23.167969 C 46.808594 22.683594 46.265625 23.472656 45.945312 25.226562 C 45.613281 27.019531 44.988281 27.296875 44.648438 25.804688 C 44.59375 25.578125 44.523438 24.667969 44.484375 23.78125 C 44.410156 21.957031 44.339844 21.738281 43.953125 22.101562 C 43.234375 22.78125 43.378906 27.292969 44.148438 28.234375 C 44.894531 29.148438 46.1875 28.707031 46.4375 27.445312 C 46.503906 27.121094 46.632812 27.097656 46.636719 27.40625 C 46.640625 28.304688 47.652344 29.203125 48.503906 29.066406 L 48.765625 29.023438 L 48.816406 29.492188 C 48.933594 30.527344 49.113281 32.992188 49.113281 33.554688 C 49.117188 34.59375 49.347656 34.859375 49.824219 34.378906 L 50.109375 34.09375 L 50.109375 32.996094 C 50.109375 32.390625 50.066406 31.164062 50.015625 30.265625 C 49.925781 28.734375 49.929688 28.632812 50.070312 28.554688 C 50.386719 28.371094 50.835938 27.914062 50.933594 27.675781 C 51.066406 27.359375 51.09375 27.367188 51.371094 27.769531 C 52.007812 28.691406 53.679688 28.601562 54.363281 27.609375 C 54.691406 27.136719 54.761719 25.859375 54.527344 24.574219 C 54.386719 23.808594 54.386719 23.75 54.515625 23.675781 C 55.050781 23.375 54.09375 21.777344 53.378906 21.777344 C 52.679688 21.777344 52.597656 22.390625 53.089844 24.023438 C 53.695312 26.039062 53.644531 26.929688 52.917969 26.929688 C 52.054688 26.929688 51.667969 26.035156 51.46875 23.5625 C 51.347656 22.050781 50.914062 21.453125 50.347656 22.019531 C 50.035156 22.335938 50.03125 22.753906 50.320312 24.675781 C 50.554688 26.234375 50.53125 26.425781 50.0625 26.734375 C 49.765625 26.929688 49.773438 26.976562 49.527344 23.5625 C 49.417969 22.09375 49.328125 21.609375 49.101562 21.324219 C 48.90625 21.074219 48.542969 21.042969 48.347656 21.257812 M 62.097656 21.996094 C 62.097656 22.109375 61.875 22.359375 61.769531 22.359375 C 61.578125 22.359375 61.558594 21.917969 61.738281 21.730469 C 61.886719 21.582031 62.097656 21.738281 62.097656 21.996094 M 100.242188 22.160156 C 100.105469 22.371094 100.113281 22.40625 100.449219 23.390625 C 100.707031 24.144531 100.792969 24.535156 100.792969 24.910156 C 100.792969 25.664062 101.238281 25.859375 101.503906 25.222656 C 102.089844 23.808594 100.960938 21.0625 100.242188 22.160156 M 79.132812 23.277344 C 79.179688 23.367188 79.1875 23.4375 79.148438 23.4375 C 79.105469 23.4375 79.03125 23.34375 78.976562 23.226562 C 78.867188 22.984375 79 23.027344 79.132812 23.277344 M 82.886719 24.726562 C 82.738281 25.082031 82.683594 25.089844 82.449219 24.769531 C 82.101562 24.296875 81.601562 24.578125 81.734375 25.175781 C 81.980469 26.304688 83.59375 26.074219 83.59375 24.910156 C 83.59375 24.425781 83.070312 24.289062 82.886719 24.726562 M 90.894531 25.351562 C 90.621094 25.464844 90.3125 25.996094 90.160156 26.613281 L 90.023438 27.167969 L 89.691406 26.664062 C 89.164062 25.875 88.839844 25.71875 88.46875 26.09375 C 88.078125 26.484375 88.128906 26.78125 88.671875 27.296875 C 89.023438 27.628906 89.167969 27.851562 89.347656 28.328125 C 89.816406 29.5625 90.3125 29.246094 90.710938 27.457031 C 90.902344 26.617188 90.902344 26.613281 91.085938 26.738281 C 91.257812 26.847656 91.289062 26.84375 91.445312 26.6875 C 91.726562 26.402344 91.621094 25.53125 91.28125 25.347656 C 91.109375 25.257812 91.132812 25.253906 90.894531 25.351562 M 60.992188 25.671875 C 60.761719 25.925781 60.527344 26.648438 60.527344 27.089844 C 60.527344 27.867188 61.394531 28.230469 61.9375 27.683594 C 62.308594 27.3125 62.273438 27.011719 61.855469 27.011719 C 61.4375 27.011719 61.394531 26.9375 61.394531 26.183594 C 61.394531 25.507812 61.277344 25.355469 60.992188 25.671875 M 74.726562 28.296875 C 73.589844 28.703125 73.015625 29.972656 73.46875 31.058594 C 73.617188 31.425781 73.691406 31.359375 72.800781 31.675781 C 70.847656 32.367188 69.953125 33.070312 69.953125 33.914062 C 69.953125 34.691406 70.480469 35.09375 71.695312 35.25 C 73.296875 35.453125 73.292969 35.453125 72.515625 36.039062 C 71.863281 36.535156 71.605469 36.984375 71.605469 37.628906 C 71.605469 38.144531 71.570312 38.15625 70.960938 37.855469 C 69.804688 37.273438 69.199219 36.019531 68.800781 33.371094 C 68.269531 29.863281 66.988281 27.699219 66.269531 29.097656 C 66.085938 29.453125 66.171875 29.921875 66.644531 31.167969 C 67.84375 34.339844 67.902344 34.765625 67.261719 35.714844 C 65.726562 37.988281 63.308594 39.464844 62.421875 38.667969 C 61.832031 38.140625 61.992188 37.761719 63.171875 36.863281 C 65.742188 34.898438 66.339844 33.507812 65.519531 31.390625 C 65.371094 31.011719 65.371094 30.988281 65.507812 30.910156 C 66.09375 30.582031 64.585938 28.953125 63.964844 29.238281 C 63.40625 29.496094 63.316406 30.117188 63.730469 30.835938 C 64.648438 32.445312 64.730469 32.859375 64.320312 33.746094 C 63.796875 34.875 60.910156 37.0625 58.011719 38.539062 C 56.769531 39.167969 56.558594 39.332031 56.558594 39.660156 C 56.558594 40.523438 57.636719 40.355469 60.105469 39.109375 L 60.820312 38.75 L 60.960938 39.238281 C 61.601562 41.421875 64.5625 40.800781 67.523438 37.863281 L 68.363281 37.027344 L 68.636719 37.570312 C 69.199219 38.675781 70.257812 39.464844 71.648438 39.808594 C 74.03125 40.398438 74.820312 40.347656 74.960938 39.597656 C 75.066406 39.042969 74.796875 38.78125 73.777344 38.445312 C 72.28125 37.957031 73.109375 36.890625 75.492188 36.242188 C 78.378906 35.449219 79.234375 34.820312 78.558594 33.984375 L 78.398438 33.789062 L 75.3125 33.789062 C 71.378906 33.789062 71.308594 33.660156 74.761719 32.746094 C 77.058594 32.136719 77.886719 31.46875 77.917969 30.191406 C 77.949219 28.820312 76.183594 27.773438 74.726562 28.296875 M 92.160156 29.332031 C 92.035156 29.464844 91.535156 29.820312 91.050781 30.117188 C 89.363281 31.160156 88.820312 31.71875 89.089844 32.132812 C 89.523438 32.796875 92.773438 30.605469 92.773438 29.648438 C 92.773438 29.089844 92.519531 28.957031 92.160156 29.332031 M 71.691406 29.585938 C 71.644531 29.671875 71.605469 29.832031 71.605469 29.941406 C 71.605469 30.441406 71.257812 30.628906 71.0625 30.234375 C 70.8125 29.742188 70.695312 29.648438 70.519531 29.808594 C 70.199219 30.101562 70.371094 31.074219 70.796875 31.371094 C 71.625 31.957031 72.886719 30.210938 72.097656 29.570312 C 71.867188 29.382812 71.796875 29.386719 71.691406 29.585938 M 75.953125 29.832031 C 76.476562 30.152344 76.519531 30.679688 76.035156 30.882812 C 75.175781 31.242188 74.445312 30.847656 74.71875 30.171875 C 74.929688 29.652344 75.433594 29.511719 75.953125 29.832031 M 46.8125 30.433594 C 45.480469 31.125 43.824219 32.613281 43.824219 33.117188 C 43.824219 33.75 44.234375 33.675781 45.386719 32.84375 C 45.730469 32.597656 46.417969 32.167969 46.90625 31.898438 C 48.046875 31.265625 48.324219 30.867188 47.957031 30.398438 C 47.722656 30.097656 47.445312 30.105469 46.8125 30.433594 M 53.535156 30.78125 C 53.640625 30.890625 53.789062 31.09375 53.863281 31.238281 L 53.996094 31.496094 L 53.683594 31.582031 C 52.992188 31.773438 52.554688 31.585938 52.570312 31.09375 C 52.585938 30.566406 53.140625 30.386719 53.535156 30.78125 M 91.460938 31.777344 C 91.222656 32.066406 91.648438 33.875 92 34.0625 C 92.195312 34.164062 92.488281 34.054688 92.601562 33.839844 C 92.964844 33.160156 91.90625 31.242188 91.460938 31.777344 M 59.863281 33.617188 C 59.355469 33.894531 59.324219 34.453125 59.800781 34.6875 C 60.160156 34.863281 60.191406 35.027344 59.949219 35.425781 C 59.625 35.960938 59.835938 36.367188 60.242188 35.984375 C 61.304688 34.980469 60.984375 33.003906 59.863281 33.617188 M 44.945312 35.085938 C 44.105469 35.75 43.808594 38.054688 44.410156 39.246094 C 44.980469 40.375 46.5 39.925781 46.269531 38.695312 C 46.195312 38.300781 46.042969 38.195312 45.710938 38.308594 C 45.554688 38.363281 45.414062 38.371094 45.371094 38.328125 C 45.222656 38.179688 45.207031 36.964844 45.34375 36.234375 C 45.566406 35.042969 45.445312 34.691406 44.945312 35.085938 M 76.265625 37.785156 C 75.660156 37.996094 75.519531 38.734375 76.082031 38.734375 C 76.238281 38.734375 76.277344 38.828125 76.363281 39.398438 C 76.476562 40.171875 76.835938 40.328125 77.730469 39.984375 C 79.175781 39.433594 79.171875 38.429688 77.726562 38.941406 C 77.53125 39.007812 77.359375 39.066406 77.34375 39.066406 C 77.324219 39.066406 77.3125 38.871094 77.308594 38.628906 C 77.308594 37.832031 76.957031 37.546875 76.265625 37.785156 M 93.785156 38.730469 C 93.339844 39.007812 93.457031 39.316406 94.011719 39.316406 C 94.5 39.316406 94.382812 39.628906 93.824219 39.8125 C 93.414062 39.945312 93.261719 40.238281 93.476562 40.476562 C 93.753906 40.789062 94.429688 40.601562 94.796875 40.113281 C 95.484375 39.203125 94.71875 38.160156 93.785156 38.730469 M 90.003906 55.371094 C 89.707031 55.605469 89.550781 56 89.550781 56.507812 C 89.550781 56.730469 89.527344 57.03125 89.496094 57.175781 L 89.445312 57.433594 L 71.535156 57.433594 C 60.660156 57.433594 53.230469 57.398438 52.628906 57.351562 C 50.363281 57.164062 50.117188 57.15625 49.984375 57.265625 C 49.507812 57.667969 50.609375 58.648438 52.027344 59.085938 C 53.503906 59.539062 52.902344 59.527344 71.894531 59.539062 L 89.425781 59.554688 L 89.398438 60.125 C 89.328125 61.53125 90.9375 62.839844 91.410156 61.765625 C 91.480469 61.605469 91.535156 61.585938 91.78125 61.632812 C 92.34375 61.734375 96.929688 61.777344 97.246094 61.679688 C 98.617188 61.269531 98.890625 58.8125 97.667969 57.875 C 97.125 57.460938 96.921875 57.4375 94.074219 57.433594 L 91.449219 57.433594 L 91.449219 56.648438 C 91.449219 55.347656 90.78125 54.757812 90.003906 55.371094 M 96.304688 59.558594 C 96.578125 59.738281 96.5625 60.128906 96.269531 60.320312 C 96.074219 60.453125 95.78125 60.472656 93.789062 60.496094 C 91.210938 60.53125 91.285156 60.546875 91.285156 59.890625 L 91.285156 59.457031 L 93.703125 59.445312 C 95.71875 59.4375 96.148438 59.457031 96.304688 59.558594 "/>
<path style=" stroke:none;fill-rule:evenodd;fill:rgb(1.568628%,35.686275%,16.862746%);fill-opacity:1;" d="M 2.480469 42.140625 L 2.480469 82.203125 L 146.1875 82.203125 L 146.1875 2.078125 L 2.480469 2.078125 L 2.480469 42.140625 M 52.917969 20.367188 C 53.265625 21.203125 52.421875 21.992188 51.542969 21.652344 C 50.917969 21.410156 50.726562 20.816406 51.140625 20.398438 C 51.367188 20.167969 51.585938 20.214844 51.78125 20.535156 C 51.839844 20.625 51.933594 20.695312 51.992188 20.695312 C 52.054688 20.695312 52.078125 20.738281 52.042969 20.792969 C 52.007812 20.847656 52.019531 20.867188 52.070312 20.835938 C 52.117188 20.804688 52.183594 20.679688 52.214844 20.550781 C 52.339844 20.046875 52.742188 19.9375 52.917969 20.367188 M 45.226562 20.59375 C 45.671875 21.136719 45.921875 22.515625 45.59375 22.640625 C 45.390625 22.71875 45.339844 22.652344 45.152344 22.027344 C 45.054688 21.707031 44.9375 21.445312 44.890625 21.445312 C 44.84375 21.445312 44.828125 21.410156 44.855469 21.367188 C 44.878906 21.324219 44.785156 21.152344 44.640625 20.988281 C 44.410156 20.726562 44.390625 20.664062 44.472656 20.484375 C 44.613281 20.175781 44.917969 20.21875 45.226562 20.59375 M 75.097656 20.605469 C 75.816406 21.238281 76.277344 22.792969 75.761719 22.84375 C 75.613281 22.855469 75.492188 22.90625 75.492188 22.949219 C 75.492188 22.996094 75.449219 23.007812 75.402344 22.976562 C 75.339844 22.941406 75.324219 22.976562 75.355469 23.074219 C 75.703125 24.257812 75.691406 26.042969 75.332031 26.753906 C 74.875 27.652344 73.699219 27.964844 72.964844 27.378906 C 72.796875 27.246094 72.613281 27.101562 72.554688 27.058594 C 72.476562 27.003906 72.339844 27.078125 72.074219 27.324219 C 70.160156 29.101562 67.476562 28.367188 67.472656 26.070312 C 67.472656 25.925781 67.429688 25.660156 67.378906 25.480469 L 67.289062 25.152344 L 67.0625 25.742188 C 66.179688 28.023438 64.257812 28.296875 63.617188 26.230469 C 63.289062 25.171875 63.390625 22.96875 63.800781 22.339844 C 64.238281 21.65625 64.441406 22.019531 64.457031 23.523438 C 64.464844 24.605469 64.582031 25.351562 64.742188 25.351562 C 64.785156 25.351562 64.800781 25.402344 64.777344 25.464844 C 64.726562 25.601562 65.082031 26.015625 65.25 26.015625 C 65.453125 26.011719 65.703125 25.65625 66.203125 24.640625 C 67.640625 21.730469 68.839844 21.160156 68.578125 23.511719 C 68.457031 24.597656 68.484375 25.925781 68.628906 26.019531 C 68.699219 26.0625 68.71875 26.097656 68.675781 26.097656 C 68.632812 26.097656 68.703125 26.210938 68.832031 26.34375 C 68.960938 26.480469 69.097656 26.574219 69.132812 26.554688 C 69.164062 26.53125 69.207031 26.554688 69.222656 26.605469 C 69.277344 26.765625 69.980469 26.792969 70.464844 26.652344 C 71.910156 26.226562 72.417969 24.855469 71.9375 22.648438 C 71.582031 21.011719 71.667969 20.445312 72.269531 20.445312 C 72.675781 20.445312 73.175781 21.136719 73.175781 21.699219 C 73.175781 21.820312 73.203125 21.941406 73.234375 21.972656 C 73.300781 22.039062 73.320312 22.4375 73.328125 23.898438 C 73.332031 24.445312 73.3125 24.976562 73.289062 25.078125 C 73.234375 25.300781 73.402344 25.851562 73.527344 25.851562 C 73.578125 25.851562 73.59375 25.875 73.5625 25.90625 C 73.46875 26 73.769531 26.265625 73.96875 26.265625 C 74.457031 26.265625 74.503906 25.824219 74.207031 24.144531 C 73.664062 21.085938 74.023438 19.65625 75.097656 20.605469 M 56.277344 20.566406 C 56.464844 20.699219 57.402344 22.6875 57.5625 23.292969 C 57.726562 23.914062 57.46875 24.332031 56.902344 24.375 C 56.773438 24.386719 56.765625 24.441406 56.820312 24.890625 C 56.855469 25.167969 56.921875 26.085938 56.96875 26.929688 C 57.054688 28.488281 57.210938 30.269531 57.265625 30.328125 C 57.28125 30.347656 57.445312 30.226562 57.628906 30.058594 C 58.144531 29.589844 58.558594 29.730469 58.835938 30.46875 C 59.03125 30.980469 59.234375 31.082031 59.472656 30.785156 C 60.226562 29.867188 60.410156 29.816406 60.933594 30.394531 L 61.285156 30.78125 L 61.484375 30.289062 C 62.058594 28.863281 62.96875 29.734375 62.425781 31.191406 C 62.070312 32.148438 61.207031 32.53125 60.5 32.046875 L 60.199219 31.84375 L 59.726562 32.128906 C 59.042969 32.542969 58.265625 32.507812 57.882812 32.046875 C 57.527344 31.617188 57.460938 31.832031 57.46875 33.394531 C 57.484375 36.730469 56.28125 38.675781 53.417969 39.941406 C 52.222656 40.46875 49.398438 40.984375 49.074219 40.730469 C 49.027344 40.695312 48.894531 40.644531 48.777344 40.617188 C 48.371094 40.519531 48.125 40.246094 48.125 39.902344 C 48.125 39.417969 48.257812 39.355469 49.203125 39.386719 C 50 39.410156 51.175781 39.25 51.660156 39.050781 C 51.785156 39 51.953125 38.945312 52.039062 38.925781 C 53.765625 38.59375 55.597656 36.816406 55.949219 35.128906 C 56.085938 34.480469 56.136719 32.25 56.015625 32.25 C 55.679688 32.25 55.585938 32.417969 55.53125 33.117188 C 55.425781 34.421875 55.0625 35.171875 54.054688 36.148438 C 52.117188 38.035156 49.136719 39.027344 47.945312 38.191406 C 46.734375 37.339844 46.527344 34.871094 47.570312 33.765625 C 47.992188 33.316406 48.414062 33.484375 48.214844 34.019531 C 47.863281 34.941406 47.945312 35.964844 48.414062 36.476562 C 49.503906 37.671875 53.542969 35.632812 54.140625 33.578125 C 54.402344 32.695312 54.421875 32.714844 53.425781 32.910156 C 52.121094 33.167969 51.515625 32.714844 51.511719 31.484375 C 51.511719 29.066406 53.867188 28.355469 54.917969 30.453125 C 55.191406 31 55.210938 31.011719 55.53125 30.859375 C 55.6875 30.785156 55.8125 30.691406 55.8125 30.652344 C 55.8125 30.609375 55.851562 30.601562 55.902344 30.632812 C 55.964844 30.671875 55.980469 30.519531 55.949219 30.121094 C 55.921875 29.804688 55.898438 29.472656 55.890625 29.382812 C 55.855469 28.765625 55.542969 25.617188 55.507812 25.519531 C 55.484375 25.449219 55.457031 25.222656 55.445312 25.019531 C 55.351562 23.390625 55.292969 22.488281 55.242188 22.015625 C 55.164062 21.246094 55.359375 20.695312 55.769531 20.527344 C 56.011719 20.425781 56.085938 20.433594 56.277344 20.566406 M 66.457031 20.675781 C 66.835938 21.171875 66.179688 22.773438 65.597656 22.773438 C 65.339844 22.773438 65.335938 22.445312 65.589844 22.039062 C 65.867188 21.585938 65.855469 21.191406 65.566406 21.25 C 65.261719 21.3125 65.183594 21.144531 65.382812 20.875 C 65.699219 20.445312 66.210938 20.351562 66.457031 20.675781 M 70.109375 20.707031 C 70.613281 21.539062 70.503906 23.789062 69.941406 24.132812 C 69.691406 24.285156 69.539062 24.136719 69.539062 23.742188 C 69.539062 23.542969 69.460938 22.917969 69.367188 22.359375 C 69.175781 21.238281 69.191406 21.078125 69.503906 20.703125 C 69.773438 20.378906 69.914062 20.378906 70.109375 20.707031 M 76.839844 20.539062 C 76.941406 20.589844 77.222656 20.824219 77.46875 21.058594 C 77.710938 21.292969 77.890625 21.445312 77.863281 21.394531 C 77.757812 21.203125 78.296875 20.695312 78.609375 20.695312 C 79.128906 20.695312 80.128906 22.019531 80.539062 23.25 C 80.875 24.253906 80.847656 24.414062 80.339844 24.453125 C 80.222656 24.464844 80.121094 24.480469 80.121094 24.488281 C 80.121094 24.511719 81.503906 26.832031 82.515625 28.511719 C 84.347656 31.539062 84.859375 32.773438 84.871094 34.171875 C 84.878906 35.5625 84.269531 35.957031 84.050781 34.703125 C 83.878906 33.703125 81.894531 29.582031 81.515625 29.4375 C 81.476562 29.421875 81.464844 29.375 81.492188 29.332031 C 81.515625 29.292969 81.5 29.257812 81.449219 29.257812 C 81.359375 29.257812 81.328125 29.691406 81.410156 29.777344 C 81.621094 29.988281 81.621094 35.652344 81.410156 36.449219 C 80.949219 38.199219 79.910156 38.949219 80.253906 37.285156 C 80.351562 36.796875 80.355469 33.8125 80.257812 31.128906 C 80.203125 29.667969 79.640625 26.535156 79.394531 26.351562 C 79.363281 26.328125 79.324219 26.230469 79.308594 26.140625 C 79.222656 25.621094 78.742188 24.949219 77.28125 23.289062 C 75.980469 21.8125 75.683594 19.945312 76.839844 20.539062 M 95.261719 20.8125 C 95.347656 20.953125 95.417969 21.148438 95.417969 21.246094 C 95.417969 21.339844 95.628906 21.828125 95.886719 22.324219 C 96.621094 23.757812 96.574219 24.296875 95.75 23.855469 C 95.515625 23.726562 95.488281 23.859375 95.585938 24.621094 C 95.6875 25.410156 95.75 26.109375 95.746094 26.480469 C 95.746094 26.84375 97.820312 29.648438 98.003906 29.535156 C 98.054688 29.503906 98.066406 29.519531 98.035156 29.570312 C 98.003906 29.621094 98.019531 29.683594 98.0625 29.714844 C 98.109375 29.742188 98.148438 29.734375 98.148438 29.699219 C 98.144531 29.546875 97.636719 25.554688 97.363281 23.523438 C 97.203125 22.335938 97.347656 21.152344 97.695312 20.800781 C 98.273438 20.222656 98.898438 20.539062 99.191406 21.566406 C 99.273438 21.863281 99.371094 22.109375 99.40625 22.109375 C 99.4375 22.109375 99.449219 22.15625 99.425781 22.214844 C 99.402344 22.273438 99.441406 22.507812 99.511719 22.734375 C 99.796875 23.691406 99.558594 24.371094 99.089844 23.929688 L 98.902344 23.75 L 98.9375 24.113281 C 98.957031 24.316406 99.011719 24.816406 99.058594 25.226562 C 99.234375 26.710938 99.480469 29.980469 99.46875 30.648438 L 99.460938 31.332031 L 100.402344 32.519531 C 102.09375 34.640625 102.695312 35.582031 102.832031 36.320312 C 102.9375 36.878906 103.078125 36.875 103.265625 36.300781 C 103.660156 35.082031 103.679688 34.078125 103.398438 29.382812 C 103.335938 28.332031 103.261719 26.871094 103.234375 26.140625 C 103.207031 25.410156 103.167969 24.753906 103.144531 24.679688 C 103.101562 24.535156 102.996094 22.359375 102.988281 21.511719 C 102.984375 20.613281 103.546875 20.164062 104.050781 20.667969 C 105.125 21.75 105.777344 24.125 104.835938 23.539062 C 104.742188 23.476562 104.644531 23.449219 104.617188 23.476562 C 104.589844 23.5 104.605469 23.523438 104.644531 23.523438 C 104.6875 23.523438 104.730469 23.925781 104.738281 24.417969 C 104.75 24.90625 104.796875 26 104.839844 26.847656 C 105.28125 35.113281 105.007812 37.4375 103.40625 39.023438 C 101.992188 40.421875 98.394531 41.367188 98.394531 40.339844 C 98.394531 40.09375 98.578125 39.980469 99.753906 39.480469 C 101.007812 38.945312 102.367188 37.992188 102.367188 37.644531 C 102.367188 37.425781 101.753906 36.289062 101.398438 35.84375 C 100.984375 35.324219 99.796875 34.078125 99.710938 34.078125 C 99.683594 34.078125 99.640625 34.707031 99.621094 35.472656 C 99.574219 37.0625 99.433594 37.574219 99.003906 37.742188 C 98.699219 37.855469 98.5625 37.675781 98.5625 37.160156 C 98.5625 36.523438 98.402344 33.3125 98.347656 32.898438 C 98.300781 32.515625 97.851562 31.859375 96.339844 29.949219 C 96.011719 29.53125 96 29.621094 96 32.289062 C 96 36.085938 95.695312 37.136719 94.386719 37.847656 C 93.878906 38.125 92.722656 38.101562 92.152344 37.804688 C 91.808594 37.621094 90.527344 36.40625 90.683594 36.40625 C 90.710938 36.40625 90.664062 36.332031 90.582031 36.238281 C 90.230469 35.851562 89.878906 36.265625 89.089844 37.980469 C 88.140625 40.054688 87.789062 40.378906 87 39.894531 C 86.363281 39.503906 86.332031 38.023438 86.972656 38.277344 C 87.40625 38.449219 87.460938 38.421875 87.71875 37.882812 C 87.851562 37.597656 88.171875 36.925781 88.425781 36.386719 C 89.519531 34.074219 90.378906 33.789062 91.609375 35.332031 C 92.050781 35.882812 92.347656 36.171875 92.605469 36.300781 C 92.988281 36.496094 93.683594 36.558594 93.683594 36.402344 C 93.683594 36.351562 93.722656 36.335938 93.769531 36.367188 C 94.472656 36.804688 94.707031 32.960938 94.269531 28.242188 C 94.195312 27.425781 94.019531 27.136719 92.644531 25.550781 C 92.058594 24.875 91.4375 24.082031 90.8125 23.214844 C 90.28125 22.480469 90.140625 21.417969 90.523438 21.035156 C 91.007812 20.546875 91.203125 20.652344 92.339844 22.007812 C 93.320312 23.175781 93.40625 23.316406 93.21875 23.425781 C 93.058594 23.511719 93.359375 24.011719 93.867188 24.503906 L 94.152344 24.777344 L 94.171875 24.234375 C 94.191406 23.554688 94.113281 23.089844 93.984375 23.164062 C 93.933594 23.191406 93.917969 23.1875 93.949219 23.152344 C 93.980469 23.113281 93.953125 22.957031 93.886719 22.796875 C 93.378906 21.578125 94.632812 19.773438 95.261719 20.8125 M 82.488281 20.675781 C 83.214844 21.40625 83.105469 23.6875 82.339844 23.6875 C 82.167969 23.6875 82.175781 23.714844 82.148438 23.066406 C 82.132812 22.699219 82.0625 22.429688 81.871094 22.050781 C 81.378906 21.074219 81.847656 20.03125 82.488281 20.675781 M 85.722656 20.71875 C 86.226562 21.273438 86.945312 23.632812 86.730469 24.03125 C 86.636719 24.210938 86.183594 24.230469 86.050781 24.066406 C 86.015625 24.019531 86.007812 24.222656 86.035156 24.519531 C 86.195312 26.273438 86.347656 27.492188 86.421875 27.648438 C 86.46875 27.75 86.488281 27.863281 86.460938 27.90625 C 86.433594 27.949219 86.488281 28.75 86.578125 29.683594 C 87.066406 34.65625 86.851562 36.429688 85.546875 38.269531 C 84.351562 39.949219 82.078125 41.003906 81.214844 40.273438 C 80.765625 39.894531 80.890625 39.632812 81.671875 39.324219 C 82.84375 38.859375 83.773438 38.222656 84.421875 37.4375 C 85.683594 35.910156 85.746094 34.28125 84.835938 26.804688 C 84.703125 25.707031 84.578125 24.625 84.554688 24.394531 C 84.273438 21.316406 84.296875 21.039062 84.863281 20.691406 C 85.210938 20.480469 85.511719 20.488281 85.722656 20.71875 M 62.515625 21.09375 C 62.839844 21.386719 62.921875 21.914062 62.734375 22.472656 C 62.179688 24.105469 58.625 26.882812 58.625 25.6875 C 58.625 25.5625 59.492188 24.667969 59.570312 24.710938 C 59.628906 24.742188 60.9375 23.578125 61.0625 23.386719 C 61.226562 23.136719 61.222656 23.039062 61.023438 22.648438 C 60.46875 21.554688 61.65625 20.320312 62.515625 21.09375 M 49.105469 21.324219 C 49.363281 21.65625 49.535156 22.855469 49.644531 25.101562 C 49.699219 26.15625 49.789062 26.847656 49.875 26.847656 C 49.917969 26.847656 49.925781 26.804688 49.894531 26.75 C 49.855469 26.691406 49.871094 26.679688 49.933594 26.71875 C 50.0625 26.796875 50.3125 26.574219 50.433594 26.277344 C 50.507812 26.09375 50.484375 25.765625 50.316406 24.660156 C 50.03125 22.757812 50.035156 22.335938 50.347656 22.019531 C 50.945312 21.421875 51.535156 22.402344 51.519531 23.980469 C 51.503906 25.640625 52.132812 26.945312 52.933594 26.914062 C 53.644531 26.886719 53.691406 26.03125 53.089844 24.023438 C 52.597656 22.390625 52.679688 21.777344 53.378906 21.777344 C 54.054688 21.777344 55.09375 23.441406 54.550781 23.652344 C 54.402344 23.710938 54.394531 23.957031 54.53125 24.597656 C 54.652344 25.183594 54.707031 26.777344 54.613281 27.054688 C 54.484375 27.441406 54.414062 27.570312 54.207031 27.820312 C 54.019531 28.046875 53.835938 28.140625 53.085938 28.40625 C 52.519531 28.605469 50.847656 27.792969 51.164062 27.476562 C 51.191406 27.449219 51.167969 27.429688 51.121094 27.429688 C 51.070312 27.429688 51.003906 27.503906 50.976562 27.597656 C 50.90625 27.816406 50.339844 28.460938 50.1875 28.496094 C 50.121094 28.511719 50.039062 28.566406 50.003906 28.621094 C 49.9375 28.722656 50 30.746094 50.09375 31.460938 C 50.125 31.6875 50.128906 32.394531 50.109375 33.027344 L 50.066406 34.175781 L 49.792969 34.417969 C 49.328125 34.835938 49.066406 34.515625 49.101562 33.5625 C 49.121094 33.125 48.933594 30.472656 48.8125 29.453125 C 48.761719 29.023438 48.761719 29.023438 48.503906 29.066406 C 47.652344 29.203125 46.640625 28.304688 46.636719 27.40625 C 46.636719 27.28125 46.59375 27.179688 46.542969 27.179688 C 46.492188 27.179688 46.46875 27.253906 46.492188 27.34375 C 46.515625 27.429688 46.511719 27.515625 46.480469 27.527344 C 46.453125 27.542969 46.332031 27.742188 46.214844 27.96875 C 46.0625 28.265625 45.90625 28.433594 45.675781 28.550781 C 45.5 28.644531 45.34375 28.742188 45.328125 28.769531 C 45.292969 28.851562 44.785156 28.71875 44.511719 28.554688 C 44.199219 28.367188 43.957031 27.996094 43.777344 27.429688 C 43.699219 27.175781 43.605469 26.914062 43.574219 26.84375 C 43.476562 26.636719 43.542969 23.199219 43.652344 22.722656 C 43.707031 22.476562 43.835938 22.214844 43.949219 22.109375 C 44.363281 21.71875 44.457031 22.101562 44.519531 24.394531 C 44.5625 25.878906 44.820312 26.792969 45.175781 26.726562 C 45.273438 26.707031 45.378906 26.691406 45.40625 26.6875 C 45.535156 26.671875 45.832031 25.84375 45.972656 25.109375 C 46.226562 23.796875 46.523438 23.160156 46.929688 23.054688 C 47.457031 22.921875 47.777344 23.601562 47.671875 24.628906 C 47.636719 24.957031 47.601562 25.324219 47.589844 25.441406 C 47.582031 25.558594 47.542969 25.703125 47.507812 25.757812 C 47.433594 25.878906 47.519531 26.691406 47.640625 27.007812 C 47.808594 27.453125 48.234375 27.652344 48.453125 27.386719 C 48.597656 27.214844 48.433594 24.257812 48.207031 22.882812 C 48.035156 21.820312 48.054688 21.585938 48.347656 21.257812 C 48.542969 21.042969 48.90625 21.074219 49.105469 21.324219 M 61.746094 21.789062 C 61.585938 21.960938 61.550781 22.191406 61.6875 22.191406 C 61.738281 22.191406 61.753906 22.230469 61.726562 22.277344 C 61.640625 22.414062 61.757812 22.367188 61.933594 22.191406 C 62.125 22 62.132812 21.9375 61.992188 21.761719 C 61.902344 21.648438 61.875 21.648438 61.746094 21.789062 M 101.121094 22.164062 C 101.742188 22.960938 101.808594 25.367188 101.210938 25.558594 C 100.914062 25.652344 100.792969 25.46875 100.792969 24.910156 C 100.792969 24.535156 100.707031 24.144531 100.449219 23.390625 C 100.113281 22.40625 100.105469 22.371094 100.242188 22.160156 C 100.441406 21.855469 100.878906 21.859375 101.121094 22.164062 M 78.976562 23.226562 C 79.03125 23.34375 79.105469 23.4375 79.148438 23.4375 C 79.230469 23.4375 79.085938 23.140625 78.964844 23.066406 C 78.917969 23.035156 78.921875 23.105469 78.976562 23.226562 M 83.445312 24.574219 C 83.628906 24.742188 83.636719 25.027344 83.472656 25.347656 C 83.027344 26.210938 81.9375 26.105469 81.734375 25.175781 C 81.601562 24.582031 82.089844 24.304688 82.453125 24.765625 C 82.664062 25.035156 82.761719 25.015625 82.914062 24.664062 C 83.027344 24.40625 83.222656 24.371094 83.445312 24.574219 M 91.28125 25.347656 C 91.621094 25.53125 91.726562 26.402344 91.445312 26.6875 C 91.289062 26.84375 91.257812 26.847656 91.085938 26.734375 C 90.957031 26.652344 90.898438 26.640625 90.890625 26.710938 C 90.867188 27.007812 90.496094 28.347656 90.363281 28.609375 C 90.019531 29.296875 89.679688 29.203125 89.347656 28.328125 C 89.167969 27.851562 89.023438 27.628906 88.671875 27.296875 C 88.1875 26.835938 88.105469 26.554688 88.355469 26.203125 C 88.695312 25.710938 89.09375 25.824219 89.613281 26.550781 C 89.976562 27.0625 90.046875 27.054688 90.195312 26.472656 C 90.324219 25.972656 90.648438 25.453125 90.894531 25.351562 C 91.132812 25.253906 91.109375 25.257812 91.28125 25.347656 M 61.394531 26.183594 C 61.394531 26.9375 61.4375 27.011719 61.855469 27.011719 C 62.273438 27.011719 62.308594 27.3125 61.9375 27.683594 C 61.101562 28.523438 60.214844 27.507812 60.6875 26.257812 C 61.050781 25.296875 61.394531 25.261719 61.394531 26.183594 M 76.367188 28.300781 C 77.316406 28.585938 77.9375 29.34375 77.917969 30.191406 C 77.886719 31.46875 77.058594 32.136719 74.761719 32.746094 C 71.308594 33.660156 71.378906 33.789062 75.3125 33.789062 L 78.398438 33.789062 L 78.558594 33.984375 C 79.234375 34.820312 78.378906 35.449219 75.492188 36.242188 C 73.109375 36.890625 72.28125 37.957031 73.777344 38.445312 C 74.796875 38.78125 75.066406 39.042969 74.960938 39.597656 C 74.820312 40.347656 74.03125 40.398438 71.648438 39.808594 C 70.292969 39.476562 69.203125 38.679688 68.667969 37.632812 C 68.53125 37.371094 68.390625 37.15625 68.355469 37.15625 C 68.320312 37.152344 68.304688 37.125 68.328125 37.09375 C 68.347656 37.058594 67.988281 37.402344 67.527344 37.863281 C 64.558594 40.804688 61.601562 41.421875 60.960938 39.238281 L 60.820312 38.75 L 60.105469 39.109375 C 57.636719 40.355469 56.558594 40.523438 56.558594 39.660156 C 56.558594 39.332031 56.769531 39.167969 58.011719 38.539062 C 59.871094 37.589844 62.953125 35.488281 63.710938 34.644531 C 64.59375 33.664062 64.761719 32.722656 64.230469 31.75 C 63.949219 31.226562 63.539062 30.433594 63.414062 30.164062 C 63.242188 29.796875 63.976562 29.0625 64.34375 29.230469 C 64.449219 29.277344 64.566406 29.320312 64.601562 29.324219 C 65.082031 29.371094 65.851562 30.71875 65.507812 30.910156 C 65.371094 30.988281 65.371094 31.011719 65.519531 31.390625 C 65.9375 32.464844 65.984375 33.429688 65.65625 34.191406 C 65.566406 34.40625 65.5 34.589844 65.511719 34.605469 C 65.570312 34.679688 63.832031 36.355469 63.171875 36.859375 C 62.210938 37.597656 62.140625 37.675781 62.140625 38.074219 C 62.140625 38.394531 62.453125 38.863281 62.605469 38.765625 C 62.644531 38.742188 62.675781 38.765625 62.675781 38.8125 C 62.675781 39.136719 64.902344 38.394531 65.046875 38.019531 C 65.070312 37.957031 65.125 37.925781 65.167969 37.949219 C 65.4375 38.117188 67.722656 35.296875 67.71875 34.796875 C 67.71875 34.316406 67.300781 32.90625 66.644531 31.167969 C 66.171875 29.921875 66.085938 29.453125 66.269531 29.097656 C 66.988281 27.699219 68.269531 29.863281 68.800781 33.371094 C 69.199219 36.019531 69.804688 37.273438 70.960938 37.855469 C 71.566406 38.15625 71.605469 38.144531 71.609375 37.632812 C 71.609375 37.035156 71.835938 36.582031 72.320312 36.195312 C 72.542969 36.019531 72.765625 35.824219 72.816406 35.761719 C 72.871094 35.699219 72.945312 35.648438 72.984375 35.652344 C 73.023438 35.65625 73.054688 35.609375 73.054688 35.554688 C 73.054688 35.445312 72.820312 35.390625 71.695312 35.25 C 68.855469 34.890625 69.445312 32.851562 72.722656 31.707031 C 73.59375 31.402344 73.605469 31.390625 73.460938 31.042969 C 72.75 29.332031 74.457031 27.722656 76.367188 28.300781 M 92.6875 29.253906 C 92.996094 29.828125 92.6875 30.304688 91.441406 31.191406 C 89.824219 32.335938 89.347656 32.527344 89.089844 32.132812 C 88.820312 31.71875 89.363281 31.160156 91.050781 30.117188 C 91.535156 29.820312 92.035156 29.464844 92.160156 29.332031 C 92.429688 29.050781 92.570312 29.03125 92.6875 29.253906 M 72.097656 29.570312 C 72.886719 30.210938 71.625 31.957031 70.796875 31.371094 C 70.371094 31.074219 70.199219 30.101562 70.519531 29.808594 C 70.695312 29.648438 70.8125 29.742188 71.0625 30.234375 C 71.261719 30.636719 71.515625 30.519531 71.574219 30 C 71.636719 29.464844 71.800781 29.328125 72.097656 29.570312 M 74.972656 29.777344 C 74.566406 30.085938 74.554688 30.769531 74.957031 30.921875 C 75.421875 31.097656 76.257812 30.925781 76.371094 30.632812 C 76.582031 30.074219 75.472656 29.398438 74.972656 29.777344 M 47.957031 30.398438 C 48.324219 30.867188 48.046875 31.265625 46.90625 31.898438 C 46.417969 32.167969 45.730469 32.597656 45.386719 32.84375 C 44.234375 33.675781 43.824219 33.75 43.824219 33.117188 C 43.824219 32.734375 44.308594 32.207031 45.457031 31.339844 C 46.949219 30.210938 47.617188 29.960938 47.957031 30.398438 M 52.675781 30.707031 C 52.210938 31.269531 52.839844 31.816406 53.683594 31.582031 L 53.996094 31.496094 L 53.863281 31.238281 C 53.558594 30.648438 52.949219 30.375 52.675781 30.707031 M 92.078125 31.960938 C 92.535156 32.449219 92.8125 33.535156 92.570312 33.882812 C 92.140625 34.5 91.464844 33.695312 91.445312 32.546875 C 91.441406 32.359375 91.410156 32.132812 91.375 32.042969 C 91.332031 31.929688 91.351562 31.84375 91.441406 31.773438 C 91.65625 31.613281 91.785156 31.648438 92.078125 31.960938 M 60.613281 33.667969 C 61.121094 34.179688 60.9375 35.328125 60.242188 35.984375 C 59.835938 36.367188 59.625 35.960938 59.949219 35.425781 C 60.191406 35.027344 60.160156 34.863281 59.800781 34.6875 C 59.59375 34.585938 59.484375 34.46875 59.464844 34.335938 C 59.378906 33.738281 60.203125 33.257812 60.613281 33.667969 M 45.476562 35.300781 C 45.476562 35.421875 45.417969 35.839844 45.34375 36.234375 C 45.207031 36.964844 45.222656 38.179688 45.371094 38.328125 C 45.414062 38.371094 45.558594 38.363281 45.71875 38.308594 C 45.933594 38.230469 46.011719 38.238281 46.101562 38.328125 C 46.238281 38.46875 46.398438 39.148438 46.296875 39.148438 C 46.253906 39.148438 46.222656 39.207031 46.222656 39.28125 C 46.222656 39.789062 45.246094 40.089844 44.785156 39.722656 C 43.980469 39.085938 43.84375 37.011719 44.515625 35.675781 C 44.890625 34.933594 45.476562 34.707031 45.476562 35.300781 M 77.207031 37.988281 C 77.261719 38.101562 77.308594 38.390625 77.308594 38.628906 C 77.3125 38.871094 77.324219 39.066406 77.34375 39.066406 C 77.359375 39.066406 77.53125 39.007812 77.726562 38.941406 C 78.488281 38.671875 79.042969 38.851562 78.761719 39.277344 C 78.613281 39.507812 77.929688 39.980469 77.75 39.980469 C 77.691406 39.980469 77.640625 40.007812 77.640625 40.042969 C 77.640625 40.078125 77.421875 40.117188 77.152344 40.132812 C 76.566406 40.160156 76.445312 40.039062 76.355469 39.335938 C 76.324219 39.097656 76.261719 38.898438 76.222656 38.898438 C 76.179688 38.898438 76.171875 38.855469 76.203125 38.804688 C 76.234375 38.75 76.226562 38.730469 76.179688 38.757812 C 76.046875 38.84375 75.742188 38.574219 75.742188 38.371094 C 75.742188 37.761719 76.933594 37.449219 77.207031 37.988281 M 94.679688 38.652344 C 95.59375 39.144531 94.574219 41.019531 93.621094 40.597656 C 93.542969 40.5625 93.457031 40.539062 93.429688 40.542969 C 93.351562 40.554688 93.359375 40.207031 93.4375 40.058594 C 93.480469 39.976562 93.65625 39.863281 93.824219 39.808594 C 94.140625 39.703125 94.4375 39.480469 94.261719 39.480469 C 94.210938 39.480469 94.191406 39.445312 94.21875 39.398438 C 94.25 39.351562 94.167969 39.316406 94.023438 39.316406 C 93.457031 39.316406 93.332031 39.011719 93.785156 38.730469 C 94.082031 38.550781 94.433594 38.519531 94.679688 38.652344 M 91.023438 55.308594 C 91.355469 55.480469 91.449219 55.769531 91.449219 56.601562 L 91.449219 57.34375 L 94.074219 57.371094 C 97.289062 57.410156 97.695312 57.523438 98.207031 58.515625 C 98.394531 58.886719 98.582031 59.949219 98.476562 60.074219 C 98.449219 60.109375 98.378906 60.296875 98.324219 60.496094 C 98.199219 60.925781 97.71875 61.488281 97.328125 61.652344 C 96.992188 61.792969 93.074219 61.808594 92.21875 61.671875 C 91.601562 61.574219 91.523438 61.585938 91.410156 61.792969 C 90.875 62.800781 89.328125 61.519531 89.398438 60.125 L 89.425781 59.554688 L 71.894531 59.539062 C 52.902344 59.527344 53.503906 59.539062 52.027344 59.085938 C 50.648438 58.660156 49.507812 57.667969 49.964844 57.285156 C 50.082031 57.1875 51.027344 57.128906 51.160156 57.214844 C 51.210938 57.246094 51.375 57.269531 51.527344 57.269531 C 51.679688 57.269531 52.101562 57.292969 52.464844 57.324219 C 53.164062 57.382812 89.402344 57.359375 89.457031 57.304688 C 89.476562 57.285156 89.519531 56.960938 89.546875 56.582031 C 89.640625 55.394531 90.222656 54.890625 91.023438 55.308594 M 91.292969 59.886719 C 91.269531 60.546875 91.195312 60.53125 93.789062 60.496094 C 96.308594 60.464844 96.496094 60.425781 96.496094 59.9375 C 96.496094 59.699219 96.320312 59.464844 96.21875 59.570312 C 96.1875 59.597656 96.164062 59.582031 96.164062 59.527344 C 96.164062 59.460938 95.503906 59.4375 93.738281 59.445312 L 91.3125 59.457031 L 91.292969 59.886719 "/>
<path style=" stroke:none;fill-rule:evenodd;fill:rgb(1.568628%,1.568628%,1.568628%);fill-opacity:1;" d="M 0 42.554688 L 0 85.113281 L 149 85.113281 L 149 0 L 0 0 L 0 42.554688 M 146.1875 42.140625 L 146.1875 82.203125 L 2.480469 82.203125 L 2.480469 2.078125 L 146.1875 2.078125 L 146.1875 42.140625 M 64.433594 22.941406 C 64.433594 23.148438 64.449219 23.230469 64.472656 23.128906 C 64.492188 23.023438 64.492188 22.855469 64.472656 22.753906 C 64.449219 22.652344 64.433594 22.734375 64.433594 22.941406 M 80.308594 33.871094 C 80.308594 34.054688 80.328125 34.117188 80.347656 34.015625 C 80.367188 33.910156 80.367188 33.761719 80.34375 33.683594 C 80.324219 33.601562 80.308594 33.6875 80.308594 33.871094 M 80.3125 34.660156 C 80.3125 34.910156 80.328125 35.015625 80.347656 34.890625 C 80.367188 34.761719 80.367188 34.558594 80.347656 34.433594 C 80.328125 34.304688 80.3125 34.410156 80.3125 34.660156 M 55.507812 57.414062 C 55.816406 57.429688 56.300781 57.429688 56.582031 57.414062 C 56.863281 57.398438 56.609375 57.382812 56.019531 57.382812 C 55.429688 57.382812 55.199219 57.398438 55.507812 57.414062 M 68.773438 57.410156 C 68.878906 57.429688 69.027344 57.429688 69.105469 57.410156 C 69.183594 57.386719 69.101562 57.371094 68.917969 57.371094 C 68.738281 57.375 68.671875 57.390625 68.773438 57.410156 M 69.433594 57.410156 C 69.539062 57.429688 69.707031 57.429688 69.808594 57.410156 C 69.910156 57.390625 69.828125 57.375 69.621094 57.375 C 69.417969 57.375 69.332031 57.390625 69.433594 57.410156 M 71.296875 57.410156 C 71.375 57.429688 71.503906 57.429688 71.585938 57.410156 C 71.664062 57.386719 71.601562 57.371094 71.441406 57.371094 C 71.28125 57.371094 71.214844 57.386719 71.296875 57.410156 M 76.636719 57.414062 C 79.015625 57.425781 82.886719 57.425781 85.234375 57.414062 C 87.585938 57.402344 85.636719 57.390625 80.90625 57.390625 C 76.179688 57.390625 74.253906 57.402344 76.636719 57.414062 M 92.714844 57.414062 C 93.4375 57.429688 94.589844 57.429688 95.28125 57.414062 C 95.96875 57.398438 95.382812 57.390625 93.972656 57.390625 C 92.5625 57.390625 91.996094 57.398438 92.714844 57.414062 "/>
</g>
</svg>
