<?xml version="1.0" encoding="UTF-8"?>
<svg xmlns="http://www.w3.org/2000/svg" xmlns:xlink="http://www.w3.org/1999/xlink" width="150px" height="150px" viewBox="0 0 150 150" version="1.1">
<g id="surface1">
<path style=" stroke:none;fill-rule:evenodd;fill:rgb(83.137256%,67.843139%,24.313726%);fill-opacity:1;" d="M 71.972656 33.964844 C 71.972656 34.007812 71.773438 34.023438 71.527344 34 C 71.253906 33.972656 71.058594 33.996094 71.019531 34.058594 C 70.984375 34.117188 70.78125 34.164062 70.570312 34.160156 C 70.015625 34.160156 68.105469 34.433594 67.910156 34.539062 C 67.820312 34.589844 67.664062 34.605469 67.5625 34.574219 C 67.464844 34.542969 67.332031 34.554688 67.269531 34.605469 C 67.175781 34.679688 66.4375 34.847656 65.746094 34.945312 C 65.621094 34.964844 65.4375 35.019531 65.332031 35.070312 C 65.230469 35.117188 64.75 35.25 64.273438 35.359375 C 63.792969 35.472656 63.359375 35.597656 63.308594 35.640625 C 63.257812 35.683594 62.9375 35.789062 62.597656 35.871094 C 62.257812 35.957031 61.980469 36.066406 61.980469 36.117188 C 61.980469 36.164062 61.9375 36.175781 61.882812 36.140625 C 61.832031 36.109375 61.738281 36.121094 61.679688 36.171875 C 61.617188 36.21875 61.445312 36.285156 61.300781 36.324219 C 61.152344 36.359375 60.863281 36.46875 60.65625 36.574219 C 60.453125 36.675781 60.046875 36.835938 59.753906 36.933594 C 59.460938 37.027344 59.132812 37.171875 59.019531 37.25 C 58.910156 37.328125 58.652344 37.4375 58.453125 37.492188 C 58.253906 37.546875 57.992188 37.671875 57.867188 37.765625 C 57.746094 37.863281 57.574219 37.941406 57.488281 37.941406 C 57.402344 37.941406 57.171875 38.050781 56.976562 38.183594 C 56.78125 38.316406 56.460938 38.480469 56.269531 38.550781 C 56.074219 38.621094 55.800781 38.757812 55.65625 38.863281 C 55.511719 38.964844 55.371094 39.046875 55.34375 39.046875 C 55.253906 39.046875 54.292969 39.6875 54.234375 39.785156 C 54.199219 39.839844 54.136719 39.859375 54.089844 39.828125 C 54.042969 39.800781 54.003906 39.820312 54.003906 39.871094 C 54.003906 39.925781 53.953125 39.96875 53.886719 39.96875 C 53.824219 39.96875 53.558594 40.117188 53.296875 40.292969 C 53.035156 40.46875 52.777344 40.617188 52.726562 40.617188 C 52.671875 40.617188 52.578125 40.699219 52.515625 40.800781 C 52.453125 40.902344 52.351562 40.984375 52.292969 40.984375 C 52.234375 40.984375 51.976562 41.152344 51.722656 41.351562 C 51.46875 41.554688 51.21875 41.722656 51.167969 41.722656 C 51.121094 41.722656 51.042969 41.789062 50.996094 41.867188 C 50.953125 41.949219 50.886719 42.011719 50.851562 42.003906 C 50.746094 41.984375 50.359375 42.289062 49.496094 43.058594 C 49.042969 43.464844 48.625 43.816406 48.566406 43.84375 C 48.304688 43.953125 44.808594 47.347656 44.878906 47.421875 C 44.902344 47.445312 44.746094 47.632812 44.53125 47.839844 C 44.316406 48.050781 44.074219 48.324219 43.992188 48.453125 C 43.910156 48.578125 43.589844 48.972656 43.277344 49.328125 C 42.96875 49.683594 42.664062 50.078125 42.605469 50.203125 C 42.550781 50.328125 42.410156 50.523438 42.292969 50.636719 C 42.179688 50.75 42.085938 50.871094 42.085938 50.914062 C 42.082031 50.953125 41.851562 51.277344 41.570312 51.632812 C 41.289062 51.988281 41.003906 52.414062 40.933594 52.582031 C 40.863281 52.75 40.679688 53.039062 40.527344 53.226562 C 40.375 53.410156 40.25 53.617188 40.25 53.679688 C 40.25 53.746094 40.210938 53.796875 40.160156 53.796875 C 40.109375 53.796875 40.066406 53.84375 40.066406 53.898438 C 40.066406 53.953125 39.945312 54.175781 39.792969 54.398438 C 39.640625 54.617188 39.515625 54.863281 39.515625 54.9375 C 39.515625 55.015625 39.476562 55.105469 39.421875 55.136719 C 39.371094 55.167969 39.183594 55.492188 39.007812 55.855469 C 38.832031 56.21875 38.648438 56.582031 38.601562 56.65625 C 38.441406 56.90625 37.773438 58.378906 37.773438 58.476562 C 37.773438 58.527344 37.714844 58.621094 37.640625 58.683594 C 37.566406 58.746094 37.511719 58.863281 37.523438 58.945312 C 37.53125 59.03125 37.441406 59.308594 37.324219 59.558594 C 36.9375 60.371094 36.785156 60.75 36.664062 61.171875 C 36.597656 61.402344 36.519531 61.609375 36.484375 61.632812 C 36.453125 61.660156 36.332031 62.054688 36.214844 62.511719 C 36.097656 62.96875 35.972656 63.382812 35.933594 63.433594 C 35.898438 63.484375 35.800781 63.816406 35.714844 64.167969 C 35.632812 64.523438 35.519531 64.90625 35.464844 65.015625 C 35.414062 65.121094 35.398438 65.257812 35.429688 65.3125 C 35.464844 65.367188 35.457031 65.414062 35.414062 65.414062 C 35.367188 65.414062 35.257812 65.882812 35.167969 66.453125 C 35.078125 67.023438 34.972656 67.53125 34.933594 67.582031 C 34.847656 67.6875 34.816406 67.917969 34.613281 69.886719 C 34.527344 70.695312 34.410156 71.460938 34.351562 71.582031 C 34.203125 71.886719 34.199219 78.417969 34.347656 78.605469 C 34.402344 78.675781 34.472656 79.167969 34.503906 79.699219 C 34.570312 80.824219 34.820312 82.722656 34.933594 82.941406 C 34.976562 83.023438 35.039062 83.253906 35.070312 83.449219 C 35.265625 84.660156 35.429688 85.417969 35.496094 85.417969 C 35.539062 85.417969 35.574219 85.484375 35.574219 85.566406 C 35.574219 85.78125 35.855469 87 35.953125 87.214844 C 36 87.316406 36.117188 87.683594 36.214844 88.03125 C 36.3125 88.378906 36.429688 88.710938 36.476562 88.769531 C 36.523438 88.828125 36.636719 89.136719 36.722656 89.453125 C 36.8125 89.769531 36.921875 90.027344 36.96875 90.027344 C 37.015625 90.027344 37.027344 90.070312 36.996094 90.121094 C 36.964844 90.171875 37.003906 90.304688 37.082031 90.417969 C 37.160156 90.53125 37.226562 90.675781 37.226562 90.738281 C 37.226562 90.800781 37.367188 91.160156 37.539062 91.53125 C 37.714844 91.902344 37.882812 92.316406 37.917969 92.453125 C 37.949219 92.589844 38.015625 92.703125 38.058594 92.703125 C 38.105469 92.703125 38.140625 92.773438 38.140625 92.863281 C 38.144531 92.953125 38.226562 93.148438 38.324219 93.300781 C 38.425781 93.453125 38.507812 93.644531 38.507812 93.726562 C 38.507812 93.808594 38.570312 93.925781 38.640625 93.988281 C 38.714844 94.050781 38.84375 94.292969 38.933594 94.53125 C 39.019531 94.765625 39.25 95.183594 39.441406 95.460938 C 39.636719 95.734375 39.792969 95.996094 39.792969 96.039062 C 39.792969 96.085938 39.9375 96.347656 40.113281 96.625 C 40.289062 96.902344 40.433594 97.152344 40.433594 97.183594 C 40.433594 97.210938 40.675781 97.574219 40.96875 97.988281 C 41.261719 98.402344 41.53125 98.8125 41.5625 98.902344 C 41.59375 98.992188 41.664062 99.0625 41.714844 99.0625 C 41.765625 99.0625 41.808594 99.105469 41.808594 99.15625 C 41.808594 99.207031 42.097656 99.621094 42.449219 100.078125 C 42.804688 100.53125 43.09375 100.9375 43.09375 100.972656 C 43.09375 101.011719 43.226562 101.191406 43.390625 101.367188 C 43.554688 101.546875 43.976562 102.023438 44.332031 102.429688 C 45.820312 104.136719 49.472656 107.636719 49.761719 107.636719 C 49.828125 107.636719 49.878906 107.699219 49.878906 107.777344 C 49.878906 107.855469 49.96875 107.953125 50.082031 107.996094 C 50.199219 108.039062 50.660156 108.375 51.117188 108.738281 C 51.570312 109.105469 52.003906 109.425781 52.078125 109.457031 C 52.152344 109.488281 52.433594 109.648438 52.699219 109.820312 C 52.964844 109.988281 53.222656 110.125 53.269531 110.125 C 53.316406 110.125 53.398438 110.207031 53.453125 110.308594 C 53.507812 110.410156 53.601562 110.496094 53.664062 110.496094 C 53.722656 110.496094 53.914062 110.589844 54.085938 110.703125 C 54.558594 111.015625 55.179688 111.378906 55.792969 111.691406 C 56.09375 111.847656 56.464844 112.054688 56.617188 112.148438 C 56.769531 112.246094 56.964844 112.328125 57.054688 112.332031 C 57.144531 112.335938 57.242188 112.398438 57.269531 112.476562 C 57.300781 112.550781 57.390625 112.613281 57.476562 112.617188 C 57.558594 112.617188 57.914062 112.761719 58.265625 112.9375 C 58.621094 113.113281 58.96875 113.261719 59.039062 113.261719 C 59.109375 113.261719 59.335938 113.355469 59.542969 113.472656 C 59.75 113.589844 60.101562 113.746094 60.328125 113.816406 C 60.558594 113.886719 60.765625 113.976562 60.796875 114.019531 C 60.824219 114.058594 61.125 114.171875 61.46875 114.273438 C 61.808594 114.371094 62.136719 114.492188 62.195312 114.539062 C 62.253906 114.589844 62.675781 114.71875 63.128906 114.828125 C 63.582031 114.9375 64.082031 115.085938 64.242188 115.15625 C 64.398438 115.230469 64.605469 115.289062 64.699219 115.292969 C 64.914062 115.296875 65.660156 115.5 65.800781 115.589844 C 65.859375 115.625 65.972656 115.632812 66.050781 115.601562 C 66.132812 115.570312 66.199219 115.582031 66.199219 115.628906 C 66.199219 115.707031 66.976562 115.867188 67.941406 115.984375 C 68.21875 116.019531 68.492188 116.085938 68.554688 116.136719 C 68.613281 116.183594 68.757812 116.214844 68.875 116.203125 C 68.992188 116.191406 69.148438 116.207031 69.222656 116.238281 C 70.339844 116.683594 81.511719 116.671875 81.671875 116.222656 C 81.683594 116.1875 81.839844 116.171875 82.015625 116.191406 C 82.191406 116.214844 82.386719 116.1875 82.449219 116.136719 C 82.511719 116.085938 82.996094 115.976562 83.527344 115.890625 C 84.054688 115.804688 84.566406 115.691406 84.65625 115.640625 C 84.75 115.59375 85.242188 115.472656 85.746094 115.375 C 86.25 115.28125 86.710938 115.160156 86.769531 115.113281 C 86.828125 115.066406 87.160156 114.960938 87.503906 114.878906 C 87.851562 114.796875 88.265625 114.671875 88.421875 114.601562 C 88.578125 114.527344 88.992188 114.382812 89.34375 114.277344 C 89.691406 114.171875 90.019531 114.054688 90.074219 114.015625 C 90.128906 113.976562 90.402344 113.867188 90.679688 113.777344 C 91.144531 113.621094 91.402344 113.511719 92.648438 112.921875 C 92.902344 112.804688 93.253906 112.644531 93.429688 112.570312 C 93.605469 112.492188 93.964844 112.3125 94.226562 112.167969 C 94.492188 112.019531 94.722656 111.917969 94.742188 111.9375 C 94.761719 111.957031 94.832031 111.910156 94.894531 111.832031 C 94.957031 111.757812 95.046875 111.691406 95.089844 111.691406 C 95.132812 111.691406 95.394531 111.546875 95.667969 111.371094 C 95.945312 111.191406 96.210938 111.046875 96.257812 111.046875 C 96.308594 111.046875 96.679688 110.820312 97.082031 110.539062 C 97.484375 110.261719 97.832031 110.03125 97.859375 110.03125 C 97.882812 110.03125 98.117188 109.886719 98.378906 109.710938 C 98.644531 109.53125 98.914062 109.386719 98.984375 109.386719 C 99.054688 109.386719 99.113281 109.324219 99.113281 109.246094 C 99.113281 109.171875 99.207031 109.070312 99.320312 109.027344 C 99.433594 108.984375 99.894531 108.648438 100.34375 108.277344 C 100.792969 107.910156 101.246094 107.5625 101.355469 107.507812 C 101.570312 107.394531 101.667969 107.308594 103.488281 105.601562 C 104.203125 104.933594 105.269531 103.859375 105.851562 103.222656 C 106.4375 102.582031 107.035156 101.929688 107.183594 101.773438 C 107.335938 101.613281 107.457031 101.457031 107.457031 101.421875 C 107.457031 101.386719 107.777344 100.957031 108.167969 100.464844 C 108.835938 99.621094 110.023438 97.898438 110.023438 97.769531 C 110.023438 97.738281 110.191406 97.472656 110.390625 97.183594 C 110.59375 96.894531 110.757812 96.617188 110.757812 96.570312 C 110.757812 96.519531 110.789062 96.480469 110.828125 96.480469 C 110.867188 96.480469 110.953125 96.347656 111.023438 96.183594 C 111.09375 96.015625 111.230469 95.773438 111.320312 95.640625 C 111.601562 95.234375 113.183594 92.039062 113.324219 91.597656 C 113.394531 91.367188 113.480469 91.160156 113.515625 91.132812 C 113.546875 91.109375 113.664062 90.839844 113.773438 90.535156 C 113.882812 90.230469 114.03125 89.855469 114.105469 89.703125 C 114.175781 89.546875 114.285156 89.226562 114.347656 88.988281 C 114.410156 88.75 114.496094 88.554688 114.53125 88.554688 C 114.570312 88.554688 114.625 88.398438 114.65625 88.207031 C 114.738281 87.695312 114.894531 87.070312 115.023438 86.753906 C 115.191406 86.339844 115.328125 85.8125 115.441406 85.144531 C 115.496094 84.8125 115.574219 84.5 115.613281 84.449219 C 115.6875 84.351562 115.9375 83.015625 116.035156 82.191406 C 116.070312 81.914062 116.128906 81.664062 116.167969 81.640625 C 116.523438 81.398438 116.515625 69.292969 116.15625 68.859375 C 116.101562 68.792969 116.078125 68.671875 116.109375 68.59375 C 116.140625 68.511719 116.128906 68.378906 116.082031 68.292969 C 116.039062 68.203125 115.9375 67.679688 115.855469 67.128906 C 115.773438 66.574219 115.671875 66.074219 115.628906 66.019531 C 115.585938 65.964844 115.503906 65.652344 115.445312 65.324219 C 115.28125 64.425781 115.128906 63.808594 115.050781 63.75 C 115.011719 63.726562 114.902344 63.351562 114.800781 62.921875 C 114.703125 62.492188 114.554688 62.015625 114.476562 61.863281 C 114.398438 61.710938 114.335938 61.535156 114.335938 61.472656 C 114.332031 61.359375 114.292969 61.253906 114.074219 60.832031 C 114.015625 60.71875 113.878906 60.363281 113.769531 60.046875 C 113.660156 59.726562 113.519531 59.386719 113.457031 59.285156 C 113.390625 59.183594 113.292969 58.914062 113.230469 58.683594 C 113.171875 58.457031 113.070312 58.207031 113.007812 58.132812 C 112.867188 57.96875 112.464844 57.101562 112.484375 57.003906 C 112.492188 56.96875 112.394531 56.785156 112.269531 56.601562 C 112.144531 56.414062 112.042969 56.183594 112.042969 56.089844 C 112.042969 55.996094 112 55.917969 111.953125 55.917969 C 111.902344 55.917969 111.777344 55.714844 111.667969 55.464844 C 111.5625 55.214844 111.394531 54.9375 111.300781 54.851562 C 111.203125 54.761719 111.125 54.625 111.125 54.542969 C 111.125 54.464844 110.980469 54.191406 110.804688 53.941406 C 110.628906 53.695312 110.484375 53.433594 110.484375 53.363281 C 110.484375 53.296875 110.421875 53.214844 110.34375 53.1875 C 110.269531 53.15625 110.132812 52.960938 110.039062 52.75 C 109.945312 52.542969 109.800781 52.3125 109.71875 52.242188 C 109.632812 52.171875 109.566406 52.0625 109.566406 52 C 109.566406 51.878906 109.335938 51.5625 108.488281 50.523438 C 108.222656 50.199219 108.007812 49.890625 108.007812 49.839844 C 108.007812 49.789062 107.902344 49.679688 107.777344 49.59375 C 107.652344 49.511719 107.550781 49.40625 107.550781 49.363281 C 107.550781 48.894531 101.234375 42.550781 100.765625 42.550781 C 100.714844 42.550781 100.671875 42.511719 100.671875 42.460938 C 100.671875 42.410156 100.628906 42.367188 100.574219 42.367188 C 100.519531 42.367188 100.238281 42.179688 99.949219 41.953125 C 99.660156 41.722656 99.378906 41.539062 99.324219 41.539062 C 99.269531 41.539062 99.203125 41.476562 99.171875 41.398438 C 99.144531 41.324219 99.070312 41.261719 99.011719 41.261719 C 98.953125 41.261719 98.734375 41.125 98.527344 40.960938 C 98.011719 40.546875 97.425781 40.15625 97.320312 40.152344 C 97.273438 40.152344 97.050781 40.007812 96.828125 39.828125 C 96.605469 39.652344 96.328125 39.480469 96.210938 39.449219 C 96.09375 39.421875 95.996094 39.359375 95.996094 39.3125 C 95.996094 39.265625 95.886719 39.1875 95.753906 39.136719 C 95.621094 39.085938 95.40625 38.96875 95.273438 38.875 C 95.140625 38.78125 94.882812 38.65625 94.695312 38.59375 C 94.511719 38.535156 94.3125 38.429688 94.253906 38.355469 C 94.195312 38.285156 93.996094 38.179688 93.8125 38.117188 C 93.625 38.058594 93.371094 37.9375 93.246094 37.847656 C 93.121094 37.761719 92.914062 37.660156 92.789062 37.625 C 92.460938 37.535156 91.832031 37.265625 91.777344 37.195312 C 91.753906 37.160156 91.523438 37.070312 91.273438 36.996094 C 91.019531 36.917969 90.652344 36.773438 90.457031 36.667969 C 90.265625 36.5625 89.90625 36.425781 89.660156 36.363281 C 89.414062 36.300781 89.210938 36.210938 89.210938 36.164062 C 89.210938 36.117188 89.15625 36.097656 89.09375 36.125 C 89.027344 36.148438 88.894531 36.113281 88.800781 36.042969 C 88.703125 35.972656 88.550781 35.914062 88.457031 35.914062 C 88.363281 35.914062 88.121094 35.835938 87.917969 35.738281 C 87.71875 35.636719 87.421875 35.53125 87.257812 35.5 C 86.621094 35.375 85.761719 35.164062 85.589844 35.089844 C 85.292969 34.964844 84.707031 34.828125 84.167969 34.757812 C 83.890625 34.722656 83.613281 34.65625 83.554688 34.605469 C 83.492188 34.554688 83.402344 34.542969 83.351562 34.574219 C 83.300781 34.605469 83.183594 34.589844 83.09375 34.542969 C 82.910156 34.441406 80.914062 34.164062 80.390625 34.164062 C 80.207031 34.164062 80.027344 34.117188 79.992188 34.0625 C 79.960938 34.011719 79.730469 33.976562 79.484375 33.988281 C 79.238281 34.003906 79.011719 33.984375 78.976562 33.949219 C 78.882812 33.855469 71.972656 33.871094 71.972656 33.964844 M 87 60.460938 C 87.179688 60.753906 88.132812 61.726562 88.242188 61.726562 C 88.269531 61.726562 88.292969 61.585938 88.292969 61.414062 C 88.292969 61.03125 88.515625 60.800781 88.703125 60.996094 C 88.796875 61.097656 88.808594 61.257812 88.746094 61.691406 C 88.703125 62.003906 88.699219 62.4375 88.738281 62.660156 L 88.808594 63.0625 L 88.96875 62.757812 C 89.089844 62.53125 89.183594 62.460938 89.332031 62.480469 C 89.605469 62.519531 89.632812 62.824219 89.40625 63.273438 C 89.179688 63.714844 88.976562 64.773438 89.066406 65.011719 C 89.128906 65.167969 89.148438 65.160156 89.265625 64.9375 C 89.398438 64.679688 89.691406 64.53125 89.851562 64.628906 C 89.988281 64.714844 89.964844 65.066406 89.808594 65.292969 C 89.640625 65.535156 89.691406 65.578125 90.519531 65.90625 C 90.867188 66.046875 91.320312 66.152344 91.554688 66.152344 C 93.023438 66.152344 92.402344 67.347656 90.867188 67.484375 C 89.8125 67.574219 89.6875 67.796875 90.027344 69.007812 L 90.191406 69.605469 L 92.933594 69.578125 C 95.882812 69.546875 97.027344 69.625 98.738281 69.972656 L 99.789062 70.1875 L 100.625 69.390625 L 100.417969 69.171875 C 100.167969 68.902344 100.136719 68.238281 100.363281 67.914062 C 100.53125 67.671875 100.585938 67.707031 100.882812 68.273438 C 101.097656 68.6875 101.101562 68.6875 101.6875 68.738281 C 102.285156 68.792969 102.777344 68.996094 103.46875 69.46875 C 105.070312 70.570312 106.609375 70.21875 107.175781 68.621094 C 107.292969 68.304688 107.484375 67.859375 107.605469 67.636719 C 107.890625 67.109375 107.890625 67.097656 107.4375 67.007812 C 107.136719 66.949219 107.039062 66.882812 107 66.710938 C 106.960938 66.542969 106.804688 66.429688 106.378906 66.25 C 106.0625 66.121094 105.660156 65.878906 105.476562 65.714844 C 105.199219 65.460938 105.078125 65.414062 104.695312 65.414062 C 104.332031 65.414062 104.195312 65.367188 104.007812 65.179688 C 103.691406 64.863281 103.769531 64.71875 104.234375 64.746094 C 104.664062 64.777344 104.679688 64.753906 104.449219 64.414062 C 103.71875 63.339844 103.335938 61.988281 103.742188 61.929688 C 103.890625 61.910156 103.960938 62 104.09375 62.371094 C 104.277344 62.898438 104.382812 62.90625 104.464844 62.398438 C 104.636719 61.371094 104.988281 61.699219 104.917969 62.820312 C 104.832031 64.144531 105.5 65.226562 106.027344 64.617188 C 106.351562 64.234375 106.546875 64.371094 106.480469 64.925781 L 106.429688 65.371094 L 106.980469 65.808594 C 107.386719 66.128906 107.644531 66.261719 107.949219 66.300781 L 108.363281 66.359375 L 108.710938 65.816406 C 109.378906 64.777344 109.210938 63.125 108.3125 61.941406 C 107.78125 61.242188 107.652344 60.90625 107.859375 60.753906 C 108.113281 60.570312 108.316406 60.722656 108.511719 61.238281 C 108.6875 61.695312 109.199219 62.542969 109.308594 62.550781 C 109.339844 62.554688 109.414062 62.414062 109.472656 62.242188 C 109.585938 61.898438 109.761719 61.777344 109.921875 61.9375 C 110.070312 62.085938 110.050781 62.222656 109.828125 62.65625 C 109.71875 62.867188 109.609375 63.25 109.585938 63.511719 L 109.542969 63.984375 L 109.828125 63.71875 C 110.378906 63.195312 110.585938 63.714844 110.074219 64.34375 C 109.59375 64.933594 109.117188 66.058594 109.347656 66.058594 C 109.378906 66.058594 109.546875 65.972656 109.714844 65.867188 C 110.203125 65.5625 110.398438 65.882812 110.019531 66.367188 C 109.914062 66.503906 109.847656 66.644531 109.875 66.683594 C 109.996094 66.878906 110.976562 67.464844 111.496094 67.652344 C 112.777344 68.113281 112.226562 68.886719 110.6875 68.792969 C 109.417969 68.714844 109.382812 68.742188 109.382812 69.832031 C 109.378906 71.132812 109.042969 72.230469 108.371094 73.125 L 108.015625 73.597656 L 108.632812 73.90625 C 109.402344 74.296875 109.511719 74.53125 109.21875 75.140625 C 108.949219 75.695312 108.351562 76.335938 107.734375 76.730469 C 107.457031 76.90625 106.910156 77.359375 106.519531 77.738281 C 106.066406 78.183594 105.769531 78.402344 105.695312 78.359375 C 105.398438 78.1875 105.257812 77.996094 105.257812 77.753906 C 105.257812 77.558594 105.210938 77.492188 105.085938 77.492188 C 104.863281 77.492188 104.746094 77.335938 104.671875 76.945312 C 104.5625 76.367188 104.972656 76.011719 105.808594 75.964844 C 107.347656 75.875 108.171875 75.242188 107.449219 74.703125 C 107.070312 74.421875 105.980469 74.046875 105.578125 74.0625 C 105.375 74.070312 104.746094 73.984375 104.175781 73.875 L 103.136719 73.679688 L 102.527344 73.992188 C 101.800781 74.367188 100.480469 74.476562 99.585938 74.234375 C 99.003906 74.078125 98.335938 74.207031 97.722656 74.597656 C 97.523438 74.722656 97.269531 74.859375 97.15625 74.902344 C 97.042969 74.945312 96.535156 75.277344 96.027344 75.636719 C 95.035156 76.339844 94.953125 76.371094 94.695312 76.140625 C 94.140625 75.632812 94.6875 74.71875 95.652344 74.539062 C 95.917969 74.488281 96.246094 74.402344 96.386719 74.34375 C 96.667969 74.230469 96.734375 74.035156 96.464844 74.125 C 96.367188 74.152344 96.066406 74.214844 95.792969 74.261719 C 95.519531 74.304688 95.035156 74.449219 94.714844 74.578125 C 94 74.871094 93.910156 74.875 93.785156 74.601562 C 93.578125 74.144531 94.546875 73.105469 94.96875 73.332031 C 95.363281 73.542969 95.753906 73.449219 96.628906 72.929688 C 97.292969 72.535156 97.566406 72.421875 97.863281 72.421875 C 98.457031 72.417969 98.765625 72.167969 99.160156 71.367188 C 99.347656 70.980469 99.488281 70.648438 99.46875 70.628906 C 99.144531 70.316406 96.019531 70 93.199219 69.992188 C 90.140625 69.988281 90.320312 69.921875 90.125 71.109375 C 90.035156 71.640625 89.882812 72.1875 89.773438 72.375 C 89.558594 72.742188 89.535156 72.722656 90.332031 72.882812 C 91.539062 73.121094 91.402344 74.339844 89.992188 75.929688 C 89.703125 76.257812 89.28125 76.84375 89.054688 77.238281 C 88.5625 78.097656 88.214844 78.148438 87.839844 77.414062 C 87.777344 77.296875 87.707031 77.222656 87.679688 77.25 C 87.464844 77.464844 86.964844 76.652344 87.066406 76.246094 C 87.136719 75.964844 87.628906 75.648438 87.996094 75.648438 C 88.148438 75.648438 88.320312 75.585938 88.382812 75.511719 C 88.441406 75.441406 88.632812 75.335938 88.800781 75.277344 C 89.132812 75.167969 89.792969 74.5 89.738281 74.332031 C 89.574219 73.835938 88.167969 73.609375 86.761719 73.851562 C 86.1875 73.949219 85.636719 73.992188 85.351562 73.957031 C 84.890625 73.902344 84.878906 73.90625 84.402344 74.359375 C 83.730469 75 83.007812 75.28125 81.8125 75.371094 C 80.5 75.46875 79.886719 75.894531 78.039062 77.984375 C 77.476562 78.621094 77.195312 78.648438 76.960938 78.082031 C 76.714844 77.484375 76.96875 77.011719 77.746094 76.617188 C 78.078125 76.449219 78.425781 76.222656 78.523438 76.117188 C 78.792969 75.816406 77.371094 76.488281 76.761719 76.953125 C 76.492188 77.152344 76.210938 77.304688 76.128906 77.289062 C 75.445312 77.152344 76.101562 75.609375 76.824219 75.652344 C 77.414062 75.6875 77.472656 75.65625 78.289062 74.863281 C 78.871094 74.300781 79.183594 74.066406 79.410156 74.023438 C 79.898438 73.929688 80.109375 73.664062 80.367188 72.8125 C 80.5 72.382812 80.578125 72.007812 80.550781 71.976562 C 80.3125 71.738281 76.941406 72.5 74.195312 73.410156 L 72.335938 74.023438 L 72.363281 75.042969 C 72.375 75.605469 72.351562 76.300781 72.3125 76.59375 L 72.234375 77.121094 L 72.828125 77.121094 C 73.597656 77.121094 73.898438 77.332031 73.898438 77.867188 C 73.898438 78.464844 73.546875 79.621094 73.21875 80.117188 C 72.808594 80.734375 72.667969 81.027344 72.433594 81.757812 C 72.167969 82.585938 71.925781 82.671875 71.394531 82.136719 C 71.257812 82 71.09375 81.917969 71.019531 81.945312 C 70.820312 82.023438 70.324219 81.414062 70.324219 81.09375 C 70.324219 80.804688 70.847656 80.257812 71.121094 80.257812 C 71.539062 80.257812 72.703125 78.890625 72.527344 78.605469 C 72.3125 78.253906 70.785156 78.300781 69.820312 78.6875 C 69.464844 78.832031 68.867188 78.992188 68.492188 79.050781 C 67.753906 79.160156 67.773438 79.144531 67.042969 80.058594 C 66.644531 80.554688 65.609375 81.070312 64.726562 81.210938 C 63.863281 81.347656 63.421875 81.777344 62.214844 83.667969 C 61.292969 85.113281 61.21875 85.175781 60.820312 84.832031 C 60.292969 84.375 60.550781 83.457031 61.328125 83.015625 C 61.519531 82.910156 61.75 82.695312 61.839844 82.539062 C 61.957031 82.34375 61.96875 82.28125 61.878906 82.332031 C 61.527344 82.542969 61.050781 82.929688 60.5 83.457031 C 59.671875 84.242188 59.339844 84.203125 59.4375 83.332031 C 59.503906 82.742188 59.75 82.441406 60.238281 82.355469 C 60.730469 82.273438 60.851562 82.160156 61.5 81.195312 C 61.925781 80.566406 62.101562 80.382812 62.417969 80.246094 C 62.902344 80.035156 63.046875 79.738281 63.132812 78.75 C 63.210938 77.90625 63.253906 77.925781 61.964844 78.273438 C 59.355469 78.976562 56.902344 79.132812 55.21875 78.703125 C 54.417969 78.496094 54.351562 78.492188 54.058594 78.632812 C 53.886719 78.714844 53.601562 78.78125 53.421875 78.78125 C 53.15625 78.78125 53.074219 78.828125 52.976562 79.035156 C 52.875 79.246094 52.792969 79.289062 52.488281 79.292969 C 51.488281 79.3125 51.4375 79.390625 51.851562 80.285156 C 52.230469 81.113281 52.152344 81.101562 53.285156 80.515625 C 54.367188 79.960938 55.039062 79.957031 55.46875 80.507812 C 56.09375 81.304688 55.109375 82.574219 54.414062 81.875 C 54.132812 81.59375 54.128906 81.425781 54.386719 81.183594 L 54.589844 80.992188 L 54.347656 80.992188 C 53.964844 80.992188 53.777344 81.34375 53.550781 82.484375 C 53.242188 84.035156 52.886719 84.605469 52.007812 84.953125 C 51.84375 85.019531 51.710938 85.105469 51.710938 85.144531 C 51.710938 85.21875 52.515625 86.714844 52.613281 86.820312 C 52.6875 86.902344 54.667969 86.34375 55.105469 86.117188 C 56.339844 85.476562 56.511719 84.347656 55.414062 84.046875 C 54.78125 83.871094 54.261719 84.347656 54.652344 84.742188 C 54.886719 84.980469 54.710938 85.371094 54.359375 85.402344 C 53.4375 85.476562 53.273438 84 54.140625 83.429688 C 55.582031 82.480469 57.566406 84.101562 56.855469 85.648438 C 56.417969 86.601562 55.945312 86.773438 51.34375 87.679688 C 50.714844 87.804688 49.640625 88.03125 48.960938 88.183594 C 48.28125 88.332031 46.84375 88.625 45.765625 88.828125 C 44.691406 89.03125 43.496094 89.28125 43.109375 89.378906 C 42.015625 89.660156 41.128906 89.671875 41.09375 89.40625 C 41.054688 89.136719 41.207031 89.082031 42.933594 88.738281 C 44.386719 88.453125 44.433594 88.425781 44.515625 87.910156 C 44.542969 87.730469 44.609375 87.347656 44.660156 87.054688 C 44.761719 86.464844 44.726562 86.339844 44.460938 86.339844 C 43.253906 86.339844 41.300781 84.222656 40.566406 82.121094 C 39.949219 80.359375 39.507812 79.609375 39.082031 79.609375 C 38.832031 79.609375 38.324219 79.148438 38.324219 78.921875 C 38.324219 78.839844 38.5 78.613281 38.710938 78.417969 L 39.097656 78.058594 L 38.976562 77.34375 C 38.914062 76.953125 38.839844 76.578125 38.8125 76.515625 C 38.785156 76.4375 38.882812 76.375 39.097656 76.335938 C 39.421875 76.273438 39.511719 76.171875 39.332031 76.0625 C 39.1875 75.972656 39.226562 75.554688 39.386719 75.492188 C 39.464844 75.460938 39.597656 75.503906 39.679688 75.585938 C 39.8125 75.722656 39.839844 75.710938 39.996094 75.453125 C 40.238281 75.054688 40.390625 75.15625 40.367188 75.703125 L 40.347656 76.152344 L 40.523438 75.832031 C 40.621094 75.652344 40.769531 75.3125 40.851562 75.070312 C 41.027344 74.546875 41.015625 74.550781 42.222656 74.910156 C 43.425781 75.269531 43.988281 75.199219 43.734375 74.726562 C 43.539062 74.359375 44.007812 74.140625 44.332031 74.449219 L 44.527344 74.636719 L 44.695312 74.449219 C 44.898438 74.226562 45.070312 74.210938 45.144531 74.410156 C 45.246094 74.667969 45.207031 74.9375 45.042969 75.117188 C 44.90625 75.269531 44.902344 75.304688 45.019531 75.375 C 46.191406 76.0625 46.21875 76.125 45.898438 77.167969 C 45.574219 78.210938 45.632812 78.503906 46.164062 78.503906 C 46.183594 78.503906 46.222656 78.265625 46.25 77.976562 C 46.28125 77.683594 46.347656 77.183594 46.398438 76.867188 C 46.472656 76.394531 46.464844 76.242188 46.34375 76.011719 C 46.175781 75.683594 46.234375 75.402344 46.488281 75.324219 C 46.71875 75.25 46.71875 75.078125 46.492188 74.933594 C 46.371094 74.859375 46.304688 74.699219 46.285156 74.4375 L 46.257812 74.050781 L 45.695312 73.933594 C 45.085938 73.808594 44.660156 73.621094 44.472656 73.394531 C 44.398438 73.304688 44.277344 73.273438 44.136719 73.308594 C 43.621094 73.4375 43.308594 73.160156 43.472656 72.714844 C 43.648438 72.234375 44.191406 72.257812 44.378906 72.75 C 44.476562 73.003906 45.007812 72.929688 45.84375 72.550781 C 46.6875 72.171875 48.707031 72.558594 48.824219 73.121094 C 48.847656 73.242188 48.886719 73.4375 48.910156 73.550781 C 48.9375 73.675781 49.128906 73.871094 49.371094 74.027344 C 49.835938 74.324219 49.824219 74.300781 49.683594 74.558594 C 49.578125 74.761719 49.53125 74.707031 50.453125 75.507812 C 50.753906 75.769531 50.976562 76.203125 50.976562 76.527344 C 50.976562 76.582031 50.832031 76.867188 50.65625 77.164062 C 50.476562 77.460938 50.359375 77.726562 50.386719 77.757812 C 50.550781 77.921875 51.59375 77.792969 52.066406 77.546875 C 52.378906 77.386719 52.609375 77.320312 52.707031 77.363281 C 52.789062 77.402344 53.164062 77.480469 53.539062 77.53125 C 54.15625 77.621094 54.234375 77.65625 54.371094 77.90625 C 54.695312 78.503906 56.574219 78.742188 59.089844 78.5 C 60.4375 78.371094 63.125 77.703125 63.285156 77.453125 C 63.460938 77.179688 63.644531 76.433594 63.542969 76.402344 C 63.121094 76.261719 62.730469 75.496094 62.859375 75.070312 C 62.929688 74.847656 63.066406 74.867188 63.316406 75.136719 C 63.617188 75.464844 63.949219 75.519531 64.511719 75.324219 C 64.949219 75.175781 65.128906 75.167969 66.335938 75.257812 C 68.191406 75.390625 68.597656 75.226562 69.140625 74.113281 C 69.378906 73.628906 69.484375 71.3125 69.269531 71.3125 C 69.21875 71.3125 69.042969 71.351562 68.878906 71.398438 C 68.636719 71.46875 68.5625 71.457031 68.46875 71.320312 C 68.378906 71.191406 68.164062 71.140625 67.480469 71.089844 C 66.203125 70.992188 65.917969 71 65.492188 71.136719 C 65.144531 71.246094 65.089844 71.242188 64.917969 71.085938 C 64.632812 70.828125 64.6875 70.679688 65.097656 70.613281 C 65.578125 70.535156 65.574219 70.53125 64.703125 69.886719 C 63.964844 69.335938 63.316406 68.621094 63.382812 68.421875 C 63.460938 68.179688 63.800781 68.265625 64.042969 68.589844 C 64.335938 68.972656 64.476562 68.945312 64.359375 68.523438 C 64.085938 67.574219 64.46875 67.570312 64.867188 68.523438 C 65.390625 69.777344 66.371094 70.484375 66.664062 69.816406 C 66.855469 69.375 67.082031 69.378906 67.203125 69.824219 C 67.332031 70.3125 67.996094 70.625 68.730469 70.550781 C 69.484375 70.472656 69.566406 70.394531 69.640625 69.691406 C 69.785156 68.332031 69.125 67.269531 67.496094 66.246094 C 66.867188 65.847656 66.667969 65.617188 66.792969 65.414062 C 66.914062 65.21875 67.242188 65.339844 67.691406 65.746094 C 67.949219 65.976562 68.3125 66.246094 68.503906 66.34375 L 68.847656 66.519531 L 68.875 66.128906 C 68.941406 65.203125 69.40625 65.667969 69.40625 66.65625 C 69.40625 67.402344 69.695312 67.902344 69.804688 67.347656 C 69.871094 67.019531 70.097656 66.898438 70.292969 67.09375 C 70.414062 67.214844 70.414062 67.3125 70.285156 67.933594 C 70.0625 69.015625 70.140625 70.015625 70.414062 69.554688 C 70.828125 68.847656 71.1875 68.875 71.089844 69.605469 C 71.027344 70.0625 71.011719 70.050781 71.988281 70.214844 C 72.515625 70.304688 72.769531 70.304688 73.082031 70.226562 C 73.453125 70.128906 73.5 70.136719 73.648438 70.3125 C 74.054688 70.804688 73.644531 71.308594 72.554688 71.648438 C 71.589844 71.953125 71.515625 72.066406 71.78125 72.832031 C 72.101562 73.742188 72.101562 73.742188 73.183594 73.332031 C 75.417969 72.480469 78.085938 71.761719 79.675781 71.585938 C 80.726562 71.46875 80.808594 71.425781 81.132812 70.832031 L 81.347656 70.429688 L 81.058594 70.136719 C 80.792969 69.871094 80.769531 69.796875 80.792969 69.359375 C 80.828125 68.78125 81.003906 68.683594 81.277344 69.09375 C 81.546875 69.503906 81.800781 69.585938 82.414062 69.464844 C 82.882812 69.371094 83.003906 69.386719 83.710938 69.609375 C 85.230469 70.089844 85.394531 70.125 85.847656 70.0625 C 86.84375 69.929688 87.433594 69.140625 87.675781 67.625 C 87.753906 67.144531 87.847656 66.671875 87.886719 66.578125 C 87.949219 66.421875 87.921875 66.414062 87.585938 66.46875 C 87.226562 66.53125 86.992188 66.421875 86.902344 66.152344 C 86.886719 66.097656 86.609375 66.015625 86.289062 65.960938 C 85.96875 65.910156 85.546875 65.785156 85.351562 65.6875 C 85.058594 65.535156 84.890625 65.515625 84.371094 65.5625 C 83.847656 65.613281 83.71875 65.59375 83.585938 65.460938 C 83.347656 65.21875 83.433594 64.992188 83.746094 65.027344 C 84.332031 65.089844 84.308594 64.976562 83.550781 64.183594 C 83.027344 63.632812 82.78125 63.296875 82.671875 62.976562 C 82.410156 62.210938 82.699219 62.136719 83.140625 62.855469 L 83.433594 63.339844 L 83.433594 62.710938 C 83.433594 61.679688 83.789062 61.828125 83.992188 62.945312 C 84.078125 63.417969 84.210938 63.839844 84.308594 63.960938 C 85.050781 64.851562 85.265625 64.949219 85.5 64.492188 C 85.707031 64.085938 86.003906 64.113281 86.003906 64.542969 C 86.003906 65.121094 86.445312 65.476562 87.378906 65.640625 C 88.957031 65.914062 88.972656 63.070312 87.402344 61.621094 C 86.625 60.898438 86.371094 60.609375 86.371094 60.445312 C 86.371094 60.050781 86.75 60.058594 87 60.460938 M 44.800781 74.59375 C 44.710938 74.824219 44.734375 74.910156 44.878906 74.910156 C 44.964844 74.910156 45.019531 74.824219 45.019531 74.679688 C 45.019531 74.421875 44.882812 74.371094 44.800781 74.59375 M 43.917969 74.628906 C 43.917969 74.738281 44.28125 74.945312 44.351562 74.875 C 44.425781 74.796875 44.191406 74.539062 44.042969 74.539062 C 43.976562 74.539062 43.917969 74.582031 43.917969 74.628906 M 49.921875 85.519531 C 49.417969 85.605469 48.242188 85.8125 47.308594 85.972656 C 46.378906 86.132812 45.582031 86.296875 45.539062 86.335938 C 45.429688 86.441406 45.1875 88.207031 45.269531 88.289062 C 45.332031 88.355469 51.691406 87.128906 51.785156 87.035156 C 51.835938 86.984375 51.09375 85.59375 50.949219 85.457031 C 50.871094 85.382812 50.589844 85.398438 49.921875 85.519531 "/>
<path style=" stroke:none;fill-rule:evenodd;fill:rgb(2.352941%,1.960784%,1.568628%);fill-opacity:1;" d="M 0 75.09375 L 0 121.1875 L 150 121.1875 L 150 29 L 0 29 L 0 75.09375 M 146.972656 75 L 146.972656 118.515625 L 2.566406 118.515625 L 2.566406 31.488281 L 146.972656 31.488281 L 146.972656 75 M 86.429688 60.222656 C 86.265625 60.386719 86.429688 60.65625 87.046875 61.238281 C 88.4375 62.542969 88.832031 63.65625 88.402344 65.042969 C 88.066406 66.113281 86.003906 65.699219 86.003906 64.5625 C 86.003906 64.085938 85.6875 64.066406 85.492188 64.539062 C 85.191406 65.269531 84.171875 64.207031 83.976562 62.957031 C 83.796875 61.828125 83.460938 61.683594 83.417969 62.710938 L 83.390625 63.339844 L 83.121094 62.855469 C 82.71875 62.125 82.410156 62.207031 82.671875 62.976562 C 82.78125 63.296875 83.023438 63.632812 83.542969 64.171875 C 84.375 65.046875 84.386719 65.070312 83.871094 65.03125 C 83.429688 64.996094 83.308594 65.179688 83.585938 65.460938 C 83.71875 65.59375 83.84375 65.609375 84.363281 65.558594 C 84.886719 65.507812 85.039062 65.527344 85.355469 65.6875 C 85.558594 65.792969 85.921875 65.902344 86.164062 65.929688 C 86.90625 66.015625 87.011719 66.054688 87.011719 66.234375 C 87.011719 66.460938 87.175781 66.519531 87.652344 66.453125 L 88.039062 66.402344 L 87.898438 66.675781 C 87.820312 66.828125 87.695312 67.355469 87.625 67.847656 C 87.316406 69.945312 86.289062 70.464844 83.953125 69.707031 C 82.898438 69.367188 82.847656 69.359375 82.371094 69.472656 C 81.777344 69.617188 81.515625 69.527344 81.269531 69.105469 C 81.015625 68.675781 80.828125 68.777344 80.792969 69.359375 C 80.769531 69.808594 80.789062 69.871094 81.0625 70.128906 L 81.359375 70.40625 L 81.148438 70.796875 C 80.769531 71.496094 80.796875 71.480469 79.714844 71.589844 C 78.0625 71.753906 74.527344 72.734375 72.597656 73.566406 C 72.140625 73.761719 72.183594 73.789062 71.878906 73.101562 C 71.421875 72.082031 71.460938 71.996094 72.589844 71.640625 C 73.640625 71.304688 74.054688 70.792969 73.648438 70.316406 C 73.5 70.144531 73.445312 70.136719 73.015625 70.230469 C 72.636719 70.3125 72.394531 70.304688 71.789062 70.183594 C 70.894531 70.007812 70.957031 70.054688 71.050781 69.632812 C 71.207031 68.945312 70.777344 68.820312 70.507812 69.472656 C 70.171875 70.289062 70.019531 69.230469 70.285156 67.9375 C 70.394531 67.402344 70.402344 67.214844 70.316406 67.113281 C 70.089844 66.835938 69.773438 67.078125 69.773438 67.527344 C 69.773438 67.632812 69.734375 67.71875 69.6875 67.71875 C 69.558594 67.71875 69.425781 67.191406 69.355469 66.398438 C 69.296875 65.734375 69.277344 65.683594 69.097656 65.710938 C 68.929688 65.734375 68.90625 65.792969 68.921875 66.128906 C 68.929688 66.34375 68.917969 66.519531 68.894531 66.519531 C 68.714844 66.519531 67.917969 66.007812 67.625 65.699219 C 67.246094 65.304688 66.878906 65.203125 66.78125 65.464844 C 66.703125 65.664062 67.015625 65.96875 67.695312 66.371094 C 69.160156 67.230469 69.90625 68.628906 69.617188 69.976562 C 69.441406 70.792969 67.210938 70.71875 67.207031 69.902344 C 67.203125 69.386719 66.8125 69.34375 66.644531 69.839844 C 66.410156 70.511719 65.378906 69.746094 64.867188 68.523438 C 64.414062 67.441406 64.148438 67.554688 64.425781 68.710938 C 64.5 69.023438 64.261719 68.964844 64.042969 68.617188 C 63.847656 68.304688 63.582031 68.191406 63.421875 68.351562 C 63.207031 68.566406 64.261719 69.667969 65.328125 70.347656 L 65.601562 70.523438 L 65.199219 70.59375 C 64.71875 70.675781 64.660156 70.722656 64.785156 70.921875 C 64.984375 71.238281 65.160156 71.269531 65.691406 71.089844 C 66.132812 70.9375 66.265625 70.929688 66.664062 71.023438 C 66.921875 71.082031 67.40625 71.128906 67.742188 71.128906 C 68.25 71.128906 68.375 71.160156 68.464844 71.308594 C 68.558594 71.460938 68.625 71.472656 68.875 71.402344 C 69.042969 71.351562 69.21875 71.3125 69.269531 71.3125 C 69.460938 71.3125 69.375 73.621094 69.167969 74.082031 C 68.648438 75.21875 68.113281 75.441406 66.304688 75.269531 C 65.136719 75.15625 65.042969 75.160156 64.550781 75.332031 C 63.9375 75.550781 63.554688 75.488281 63.28125 75.140625 C 63.070312 74.871094 62.929688 74.847656 62.859375 75.070312 C 62.746094 75.453125 63.109375 76.289062 63.394531 76.292969 C 63.65625 76.296875 63.746094 76.445312 63.617188 76.671875 C 63.550781 76.792969 63.453125 77.03125 63.402344 77.207031 C 63.328125 77.457031 63.234375 77.542969 62.941406 77.648438 C 59.660156 78.789062 54.828125 78.929688 54.335938 77.890625 C 54.222656 77.648438 54.132812 77.578125 53.933594 77.578125 C 53.25 77.570312 52.78125 77.496094 52.710938 77.386719 C 52.652344 77.285156 52.515625 77.324219 52.050781 77.558594 C 51.460938 77.863281 50.515625 77.984375 50.386719 77.773438 C 50.359375 77.730469 50.480469 77.441406 50.664062 77.136719 C 51.074219 76.445312 51.039062 76.039062 50.535156 75.605469 C 49.613281 74.804688 49.554688 74.730469 49.671875 74.539062 C 49.828125 74.289062 49.828125 74.289062 49.421875 74.082031 C 49.027344 73.878906 48.871094 73.660156 48.871094 73.316406 C 48.871094 73.035156 48.636719 72.828125 48.226562 72.742188 C 48.050781 72.703125 47.746094 72.59375 47.550781 72.492188 C 47.089844 72.257812 46.359375 72.308594 45.613281 72.628906 C 44.667969 73.035156 44.523438 73.035156 44.300781 72.65625 C 44.085938 72.292969 43.964844 72.257812 43.664062 72.472656 C 43.167969 72.820312 43.515625 73.46875 44.113281 73.3125 C 44.234375 73.28125 44.429688 73.355469 44.667969 73.527344 C 44.871094 73.675781 45.261719 73.839844 45.550781 73.898438 C 46.292969 74.046875 46.351562 74.089844 46.316406 74.476562 C 46.296875 74.730469 46.332031 74.835938 46.480469 74.925781 C 46.71875 75.078125 46.722656 75.25 46.488281 75.324219 C 46.230469 75.40625 46.167969 75.707031 46.351562 75.988281 C 46.488281 76.199219 46.496094 76.308594 46.410156 76.835938 C 46.355469 77.171875 46.285156 77.683594 46.253906 77.976562 C 46.195312 78.535156 46.113281 78.601562 45.78125 78.367188 C 45.5625 78.214844 45.574219 78.097656 45.941406 77.007812 C 46.210938 76.207031 46.195312 76.160156 45.523438 75.71875 C 44.925781 75.324219 44.808594 75.160156 45.0625 75.0625 C 45.140625 75.03125 45.203125 74.90625 45.203125 74.78125 C 45.203125 74.242188 44.945312 74.097656 44.691406 74.496094 L 44.539062 74.722656 L 44.359375 74.496094 C 44.0625 74.117188 43.523438 74.328125 43.742188 74.738281 C 44 75.222656 43.421875 75.285156 42.160156 74.910156 C 40.972656 74.554688 41.074219 74.523438 40.753906 75.339844 C 40.503906 75.984375 40.117188 76.476562 40.304688 75.910156 C 40.515625 75.285156 40.246094 74.964844 39.972656 75.515625 C 39.835938 75.792969 39.828125 75.792969 39.691406 75.613281 C 39.601562 75.5 39.492188 75.453125 39.394531 75.488281 C 39.203125 75.5625 39.195312 75.863281 39.378906 76.015625 C 39.59375 76.195312 39.546875 76.265625 39.148438 76.328125 C 38.828125 76.378906 38.785156 76.414062 38.828125 76.59375 C 38.851562 76.707031 38.933594 77.070312 39.007812 77.398438 L 39.144531 77.996094 L 38.734375 78.386719 C 38.507812 78.601562 38.324219 78.84375 38.324219 78.925781 C 38.324219 79.148438 38.832031 79.609375 39.082031 79.609375 C 39.507812 79.609375 39.914062 80.289062 40.535156 82.039062 C 41.335938 84.28125 42.976562 86.074219 44.46875 86.339844 C 44.679688 86.375 44.78125 86.441406 44.765625 86.527344 C 44.730469 86.75 44.550781 87.746094 44.480469 88.089844 C 44.410156 88.453125 44.390625 88.460938 43.230469 88.695312 C 41.238281 89.097656 41.121094 89.132812 41.121094 89.382812 C 41.121094 89.769531 41.320312 89.75 44.285156 89.113281 C 45.015625 88.953125 46.171875 88.726562 46.855469 88.605469 C 47.535156 88.484375 48.261719 88.34375 48.464844 88.285156 C 48.671875 88.230469 49.042969 88.144531 49.289062 88.09375 C 49.539062 88.046875 50.542969 87.835938 51.527344 87.628906 C 52.511719 87.421875 53.726562 87.175781 54.234375 87.082031 C 56.308594 86.691406 57.316406 85.738281 56.953125 84.507812 C 56.550781 83.15625 54.5 82.703125 53.78125 83.808594 C 53.316406 84.519531 53.65625 85.460938 54.359375 85.402344 C 54.710938 85.371094 54.886719 84.980469 54.652344 84.742188 C 54.285156 84.375 54.683594 83.902344 55.273438 84 C 56.390625 84.179688 56.476562 85.242188 55.433594 85.929688 C 55.023438 86.199219 52.679688 86.984375 52.585938 86.878906 C 52.570312 86.863281 52.40625 86.535156 52.214844 86.15625 C 52.027344 85.777344 51.816406 85.398438 51.746094 85.316406 C 51.59375 85.144531 51.691406 85.027344 52.078125 84.910156 C 52.832031 84.679688 53.261719 83.964844 53.554688 82.4375 C 53.789062 81.21875 54.125 80.746094 54.617188 80.945312 C 54.773438 81.007812 54.769531 81.015625 54.597656 81.085938 C 54.101562 81.277344 54.101562 81.796875 54.601562 82.027344 C 55.28125 82.335938 55.980469 81.226562 55.519531 80.566406 C 55.097656 79.960938 54.460938 79.953125 53.277344 80.53125 C 52.761719 80.785156 52.304688 80.992188 52.257812 80.992188 C 52.195312 80.992188 51.527344 79.683594 51.527344 79.554688 C 51.527344 79.4375 52.144531 79.242188 52.457031 79.265625 C 52.796875 79.285156 52.855469 79.257812 52.992188 79.011719 C 53.125 78.773438 53.207031 78.730469 53.597656 78.707031 C 53.84375 78.691406 54.113281 78.617188 54.195312 78.542969 C 54.3125 78.4375 54.402344 78.429688 54.59375 78.503906 C 56.464844 79.21875 59.558594 79.027344 63.027344 77.984375 C 63.609375 77.808594 62.984375 80.011719 62.371094 80.304688 C 62.070312 80.445312 61.867188 80.65625 61.488281 81.226562 C 60.878906 82.140625 60.730469 82.273438 60.238281 82.355469 C 59.75 82.441406 59.503906 82.742188 59.4375 83.332031 C 59.335938 84.222656 59.675781 84.242188 60.546875 83.40625 C 61.304688 82.679688 61.914062 82.191406 62.066406 82.191406 C 62.253906 82.191406 61.671875 82.839844 61.238281 83.109375 C 60.433594 83.609375 60.296875 84.59375 60.980469 84.960938 C 61.269531 85.121094 61.34375 85.050781 61.976562 84.023438 C 63.308594 81.859375 63.808594 81.332031 64.640625 81.226562 C 65.746094 81.082031 66.898438 80.414062 67.339844 79.660156 C 67.59375 79.21875 67.769531 79.136719 68.71875 79.007812 C 68.972656 78.972656 69.464844 78.820312 69.820312 78.671875 C 70.605469 78.335938 72.222656 78.253906 72.5 78.535156 C 72.777344 78.8125 71.632812 80.257812 71.132812 80.257812 C 70.847656 80.257812 70.324219 80.796875 70.324219 81.09375 C 70.324219 81.488281 70.828125 82.039062 71.074219 81.90625 C 71.222656 81.828125 71.261719 81.84375 71.300781 81.992188 C 71.359375 82.214844 71.898438 82.519531 72.09375 82.441406 C 72.175781 82.410156 72.324219 82.105469 72.429688 81.757812 C 72.53125 81.414062 72.738281 80.925781 72.886719 80.671875 C 74.246094 78.347656 74.257812 77.214844 72.921875 77.214844 C 72.132812 77.214844 72.160156 77.25 72.308594 76.5 C 72.394531 76.078125 72.414062 75.574219 72.375 74.9375 L 72.320312 74 L 72.71875 73.890625 C 72.941406 73.832031 73.367188 73.6875 73.671875 73.570312 C 74.226562 73.355469 75.75 72.878906 77.015625 72.527344 C 77.601562 72.363281 78.957031 72.113281 80.242188 71.929688 C 80.738281 71.859375 80.738281 71.855469 80.167969 73.414062 C 80.019531 73.824219 79.6875 74.078125 79.300781 74.078125 C 79.175781 74.078125 78.808594 74.371094 78.285156 74.882812 L 77.472656 75.683594 L 76.960938 75.691406 C 76.359375 75.695312 76.085938 75.933594 75.910156 76.589844 C 75.714844 77.316406 76.078125 77.496094 76.703125 76.984375 C 77.050781 76.699219 78.644531 75.832031 78.824219 75.832031 C 79.007812 75.832031 78.398438 76.296875 77.8125 76.605469 C 77.070312 76.992188 76.925781 77.183594 76.925781 77.773438 C 76.925781 78.328125 77.5 78.765625 77.722656 78.378906 C 77.761719 78.308594 77.980469 78.042969 78.207031 77.789062 C 78.4375 77.535156 78.734375 77.179688 78.875 76.996094 C 79.625 76.023438 80.65625 75.457031 81.832031 75.371094 C 83.003906 75.285156 83.75 74.988281 84.402344 74.347656 L 84.867188 73.890625 L 85.367188 73.949219 C 85.675781 73.984375 86.195312 73.945312 86.734375 73.851562 C 89.230469 73.410156 90.765625 74.402344 88.882812 75.238281 C 88.621094 75.355469 88.375 75.496094 88.34375 75.550781 C 88.3125 75.601562 88.15625 75.648438 88.003906 75.648438 C 87.050781 75.648438 86.660156 77.089844 87.582031 77.199219 C 87.761719 77.21875 87.851562 77.292969 87.890625 77.445312 C 87.949219 77.679688 88.289062 77.953125 88.519531 77.953125 C 88.59375 77.953125 88.820312 77.652344 89.027344 77.273438 C 89.230469 76.898438 89.664062 76.292969 89.988281 75.921875 C 91.480469 74.214844 91.542969 73.136719 90.164062 72.859375 C 89.867188 72.800781 89.613281 72.746094 89.597656 72.734375 C 89.582031 72.726562 89.65625 72.554688 89.757812 72.355469 C 89.957031 71.972656 90.214844 70.902344 90.21875 70.460938 C 90.222656 70.019531 90.460938 69.980469 93.199219 69.988281 C 95.878906 69.996094 97.179688 70.097656 98.609375 70.410156 C 99.679688 70.640625 99.640625 70.621094 99.464844 70.828125 C 99.390625 70.917969 99.214844 71.230469 99.078125 71.519531 C 98.753906 72.203125 98.476562 72.421875 97.9375 72.421875 C 97.59375 72.421875 97.367188 72.511719 96.671875 72.929688 C 95.796875 73.453125 95.378906 73.550781 94.972656 73.332031 C 94.546875 73.105469 93.582031 74.152344 93.792969 74.613281 C 93.910156 74.875 94.019531 74.863281 94.851562 74.503906 C 95.152344 74.375 95.53125 74.269531 95.6875 74.265625 C 95.84375 74.265625 96.121094 74.203125 96.304688 74.125 C 96.667969 73.972656 96.820312 73.953125 96.820312 74.058594 C 96.820312 74.191406 96.09375 74.539062 95.820312 74.539062 C 95.089844 74.539062 94.527344 75.03125 94.527344 75.671875 C 94.527344 76.105469 95.027344 76.507812 95.207031 76.21875 C 95.269531 76.113281 97.054688 74.910156 97.144531 74.910156 C 97.183594 74.910156 97.40625 74.789062 97.640625 74.644531 C 98.296875 74.226562 98.960938 74.039062 99.324219 74.171875 C 100.230469 74.5 101.914062 74.375 102.617188 73.929688 C 103.03125 73.667969 103.089844 73.667969 104.496094 73.929688 C 104.910156 74.007812 105.394531 74.046875 105.574219 74.015625 C 105.753906 73.988281 105.949219 74.007812 106.019531 74.066406 C 106.085938 74.121094 106.402344 74.25 106.71875 74.347656 C 107.265625 74.519531 107.824219 74.917969 107.824219 75.136719 C 107.824219 75.351562 107.066406 75.832031 106.726562 75.832031 C 106.546875 75.832031 106.308594 75.894531 106.199219 75.96875 C 106.042969 76.082031 105.957031 76.089844 105.773438 76.003906 C 105.339844 75.804688 104.757812 76.238281 104.722656 76.785156 C 104.695312 77.265625 104.808594 77.492188 105.085938 77.492188 C 105.195312 77.492188 105.257812 77.554688 105.257812 77.679688 C 105.257812 78.53125 105.671875 78.511719 106.632812 77.621094 C 107.101562 77.191406 107.636719 76.757812 107.824219 76.660156 C 108.285156 76.425781 109.050781 75.546875 109.246094 75.03125 C 109.46875 74.441406 109.351562 74.230469 108.601562 73.886719 C 107.917969 73.578125 107.933594 73.597656 108.242188 73.269531 C 108.886719 72.585938 109.296875 71.382812 109.320312 70.105469 C 109.34375 68.730469 109.367188 68.703125 110.675781 68.789062 L 111.660156 68.851562 L 111.902344 68.589844 C 112.308594 68.144531 112.199219 67.921875 111.441406 67.636719 C 110.890625 67.433594 109.839844 66.78125 109.839844 66.648438 C 109.839844 66.625 109.925781 66.488281 110.035156 66.34375 C 110.398438 65.847656 110.136719 65.53125 109.683594 65.914062 C 109 66.492188 109.371094 65.109375 110.132812 64.230469 C 110.28125 64.058594 110.386719 63.851562 110.371094 63.769531 C 110.324219 63.511719 110.015625 63.53125 109.777344 63.816406 L 109.554688 64.078125 L 109.589844 63.566406 C 109.609375 63.28125 109.71875 62.855469 109.839844 62.609375 C 109.996094 62.28125 110.027344 62.121094 109.960938 62.015625 C 109.8125 61.78125 109.71875 61.835938 109.523438 62.257812 C 109.339844 62.648438 109.199219 62.761719 109.199219 62.515625 C 109.199219 62.445312 109.097656 62.265625 108.976562 62.117188 C 108.851562 61.96875 108.664062 61.625 108.558594 61.351562 C 108.351562 60.816406 108.160156 60.601562 107.953125 60.683594 C 107.683594 60.789062 107.867188 61.488281 108.261719 61.84375 C 108.695312 62.242188 109.058594 63.285156 109.09375 64.242188 L 109.125 65.140625 L 108.773438 65.738281 C 108.296875 66.539062 107.816406 66.546875 106.898438 65.765625 C 106.429688 65.371094 106.429688 65.367188 106.480469 64.925781 C 106.546875 64.371094 106.351562 64.234375 106.027344 64.617188 C 105.476562 65.253906 104.820312 64.171875 104.917969 62.792969 C 104.992188 61.714844 104.636719 61.382812 104.472656 62.371094 C 104.351562 63.082031 104.234375 63.082031 104.0625 62.367188 C 103.96875 61.972656 103.921875 61.90625 103.757812 61.929688 C 103.339844 61.988281 103.78125 63.484375 104.507812 64.472656 C 104.777344 64.832031 104.742188 64.894531 104.351562 64.761719 C 103.808594 64.570312 103.628906 64.800781 104.015625 65.1875 C 104.199219 65.371094 104.332031 65.414062 104.730469 65.414062 C 105.144531 65.414062 105.257812 65.453125 105.429688 65.652344 C 105.625 65.878906 106.652344 66.429688 106.878906 66.429688 C 106.9375 66.429688 107 66.542969 107.015625 66.679688 C 107.042969 66.90625 107.097656 66.945312 107.480469 67.015625 C 107.9375 67.097656 108 67.164062 107.78125 67.347656 C 107.707031 67.40625 107.496094 67.847656 107.3125 68.328125 C 106.566406 70.261719 105.1875 70.671875 103.4375 69.480469 C 102.621094 68.925781 102.320312 68.800781 101.773438 68.785156 C 101.148438 68.769531 101.0625 68.71875 100.84375 68.21875 C 100.621094 67.714844 100.539062 67.664062 100.359375 67.921875 C 100.140625 68.234375 100.171875 68.90625 100.414062 69.167969 L 100.617188 69.382812 L 100.207031 69.800781 C 99.871094 70.144531 99.761719 70.207031 99.570312 70.15625 C 97.679688 69.667969 92.445312 69.355469 90.75 69.632812 L 90.226562 69.71875 L 90.074219 69.203125 C 89.664062 67.816406 89.777344 67.578125 90.875 67.480469 C 92.417969 67.347656 93.015625 66.152344 91.539062 66.152344 C 91.128906 66.152344 89.664062 65.65625 89.671875 65.519531 C 89.675781 65.484375 89.738281 65.378906 89.808594 65.28125 C 89.964844 65.074219 89.988281 64.714844 89.851562 64.628906 C 89.679688 64.523438 89.414062 64.683594 89.273438 64.976562 C 89.148438 65.238281 89.121094 65.253906 89.0625 65.097656 C 88.96875 64.851562 89.179688 63.695312 89.40625 63.226562 C 89.628906 62.761719 89.605469 62.519531 89.328125 62.480469 C 89.171875 62.457031 89.09375 62.527344 88.972656 62.804688 L 88.820312 63.15625 L 88.742188 62.832031 C 88.699219 62.65625 88.691406 62.175781 88.722656 61.761719 C 88.78125 60.972656 88.699219 60.765625 88.421875 61 C 88.328125 61.074219 88.292969 61.222656 88.3125 61.421875 C 88.335938 61.601562 88.308594 61.726562 88.25 61.726562 C 88.125 61.726562 87.066406 60.640625 86.925781 60.367188 C 86.824219 60.167969 86.558594 60.089844 86.429688 60.222656 M 44.277344 74.648438 C 44.378906 74.757812 44.4375 74.882812 44.410156 74.929688 C 44.339844 75.042969 43.972656 74.785156 43.933594 74.597656 C 43.894531 74.386719 44.058594 74.410156 44.277344 74.648438 M 45 74.695312 C 44.964844 75.011719 44.742188 75.097656 44.742188 74.792969 C 44.742188 74.5625 44.808594 74.449219 44.949219 74.449219 C 44.992188 74.449219 45.019531 74.558594 45 74.695312 M 51.382812 86.121094 C 51.613281 86.558594 51.804688 86.941406 51.804688 86.976562 C 51.804688 87.074219 51.195312 87.214844 48.824219 87.675781 C 47.613281 87.910156 46.324219 88.171875 45.960938 88.253906 C 45.136719 88.4375 45.152344 88.457031 45.289062 87.425781 C 45.464844 86.144531 45.214844 86.300781 47.769531 85.875 C 48.449219 85.761719 49.417969 85.597656 49.921875 85.507812 C 50.429688 85.417969 50.867188 85.339844 50.902344 85.335938 C 50.933594 85.332031 51.152344 85.683594 51.382812 86.121094 "/>
<path style=" stroke:none;fill-rule:evenodd;fill:rgb(2.352941%,2.352941%,28.235295%);fill-opacity:1;" d="M 2.566406 75 L 2.566406 118.515625 L 146.972656 118.515625 L 146.972656 31.488281 L 2.566406 31.488281 L 2.566406 75 M 78.976562 33.949219 C 79.011719 33.984375 79.238281 34.003906 79.484375 33.988281 C 79.730469 33.976562 79.960938 34.011719 79.992188 34.0625 C 80.027344 34.117188 80.207031 34.164062 80.390625 34.164062 C 80.914062 34.164062 82.910156 34.441406 83.09375 34.542969 C 83.183594 34.589844 83.300781 34.605469 83.351562 34.574219 C 83.402344 34.542969 83.492188 34.554688 83.554688 34.605469 C 83.613281 34.65625 83.890625 34.722656 84.167969 34.757812 C 84.707031 34.828125 85.292969 34.964844 85.589844 35.089844 C 85.761719 35.164062 86.621094 35.375 87.257812 35.5 C 87.421875 35.53125 87.71875 35.636719 87.917969 35.738281 C 88.121094 35.835938 88.363281 35.914062 88.457031 35.914062 C 88.550781 35.914062 88.703125 35.972656 88.800781 36.042969 C 88.894531 36.113281 89.027344 36.148438 89.09375 36.125 C 89.15625 36.097656 89.210938 36.117188 89.210938 36.164062 C 89.210938 36.210938 89.414062 36.300781 89.660156 36.363281 C 89.90625 36.425781 90.265625 36.5625 90.457031 36.667969 C 90.652344 36.773438 91.019531 36.917969 91.273438 36.996094 C 91.523438 37.070312 91.753906 37.160156 91.777344 37.195312 C 91.832031 37.265625 92.460938 37.535156 92.789062 37.625 C 92.914062 37.660156 93.121094 37.761719 93.246094 37.847656 C 93.371094 37.9375 93.625 38.058594 93.8125 38.117188 C 93.996094 38.179688 94.195312 38.285156 94.253906 38.355469 C 94.3125 38.429688 94.511719 38.535156 94.695312 38.59375 C 94.882812 38.65625 95.140625 38.78125 95.273438 38.875 C 95.40625 38.96875 95.621094 39.085938 95.753906 39.136719 C 95.886719 39.1875 95.996094 39.265625 95.996094 39.3125 C 95.996094 39.359375 96.09375 39.421875 96.210938 39.449219 C 96.328125 39.480469 96.605469 39.652344 96.828125 39.828125 C 97.050781 40.007812 97.273438 40.152344 97.320312 40.152344 C 97.425781 40.15625 98.011719 40.546875 98.527344 40.960938 C 98.734375 41.125 98.953125 41.261719 99.011719 41.261719 C 99.070312 41.261719 99.144531 41.324219 99.171875 41.398438 C 99.203125 41.476562 99.269531 41.539062 99.324219 41.539062 C 99.378906 41.539062 99.660156 41.722656 99.949219 41.953125 C 100.238281 42.179688 100.519531 42.367188 100.574219 42.367188 C 100.628906 42.367188 100.671875 42.410156 100.671875 42.460938 C 100.671875 42.511719 100.714844 42.550781 100.765625 42.550781 C 101.234375 42.550781 107.550781 48.894531 107.550781 49.363281 C 107.550781 49.40625 107.652344 49.511719 107.777344 49.59375 C 107.902344 49.679688 108.007812 49.789062 108.007812 49.839844 C 108.007812 49.890625 108.222656 50.199219 108.488281 50.523438 C 109.335938 51.5625 109.566406 51.878906 109.566406 52 C 109.566406 52.0625 109.632812 52.171875 109.71875 52.242188 C 109.800781 52.3125 109.945312 52.542969 110.039062 52.75 C 110.132812 52.960938 110.269531 53.15625 110.34375 53.1875 C 110.421875 53.214844 110.484375 53.296875 110.484375 53.363281 C 110.484375 53.433594 110.628906 53.695312 110.804688 53.941406 C 110.980469 54.191406 111.125 54.464844 111.125 54.542969 C 111.125 54.625 111.203125 54.761719 111.300781 54.851562 C 111.394531 54.9375 111.5625 55.214844 111.667969 55.464844 C 111.777344 55.714844 111.902344 55.917969 111.953125 55.917969 C 112 55.917969 112.042969 55.996094 112.042969 56.089844 C 112.042969 56.183594 112.144531 56.414062 112.269531 56.601562 C 112.394531 56.785156 112.492188 56.96875 112.484375 57.003906 C 112.464844 57.101562 112.867188 57.96875 113.007812 58.132812 C 113.070312 58.207031 113.171875 58.457031 113.230469 58.683594 C 113.292969 58.914062 113.390625 59.183594 113.457031 59.285156 C 113.519531 59.386719 113.660156 59.726562 113.769531 60.046875 C 113.878906 60.363281 114.015625 60.71875 114.074219 60.832031 C 114.292969 61.253906 114.332031 61.359375 114.335938 61.472656 C 114.335938 61.535156 114.398438 61.710938 114.476562 61.863281 C 114.554688 62.015625 114.703125 62.492188 114.800781 62.921875 C 114.902344 63.351562 115.011719 63.726562 115.050781 63.75 C 115.128906 63.808594 115.28125 64.425781 115.445312 65.324219 C 115.503906 65.652344 115.585938 65.964844 115.628906 66.019531 C 115.671875 66.074219 115.773438 66.574219 115.855469 67.128906 C 115.9375 67.679688 116.039062 68.203125 116.082031 68.292969 C 116.128906 68.378906 116.140625 68.511719 116.109375 68.59375 C 116.078125 68.671875 116.101562 68.792969 116.15625 68.859375 C 116.515625 69.292969 116.523438 81.398438 116.167969 81.640625 C 116.128906 81.664062 116.070312 81.914062 116.035156 82.191406 C 115.9375 83.015625 115.6875 84.351562 115.613281 84.449219 C 115.574219 84.5 115.496094 84.8125 115.441406 85.144531 C 115.328125 85.8125 115.191406 86.339844 115.023438 86.753906 C 114.894531 87.070312 114.738281 87.695312 114.65625 88.207031 C 114.625 88.398438 114.570312 88.554688 114.53125 88.554688 C 114.496094 88.554688 114.410156 88.75 114.347656 88.988281 C 114.285156 89.226562 114.175781 89.546875 114.105469 89.703125 C 114.03125 89.855469 113.882812 90.230469 113.773438 90.535156 C 113.664062 90.839844 113.546875 91.109375 113.515625 91.132812 C 113.480469 91.160156 113.394531 91.367188 113.324219 91.597656 C 113.183594 92.039062 111.601562 95.234375 111.320312 95.640625 C 111.230469 95.773438 111.09375 96.015625 111.023438 96.183594 C 110.953125 96.347656 110.867188 96.480469 110.828125 96.480469 C 110.789062 96.480469 110.757812 96.519531 110.757812 96.570312 C 110.757812 96.617188 110.59375 96.894531 110.390625 97.183594 C 110.191406 97.472656 110.023438 97.738281 110.023438 97.769531 C 110.023438 97.898438 108.835938 99.621094 108.167969 100.464844 C 107.777344 100.957031 107.457031 101.386719 107.457031 101.421875 C 107.457031 101.457031 107.335938 101.613281 107.183594 101.773438 C 107.035156 101.929688 106.4375 102.582031 105.851562 103.222656 C 105.269531 103.859375 104.203125 104.933594 103.488281 105.601562 C 101.667969 107.308594 101.570312 107.394531 101.355469 107.507812 C 101.246094 107.5625 100.792969 107.910156 100.34375 108.277344 C 99.894531 108.648438 99.433594 108.984375 99.320312 109.027344 C 99.207031 109.070312 99.113281 109.171875 99.113281 109.246094 C 99.113281 109.324219 99.054688 109.386719 98.984375 109.386719 C 98.914062 109.386719 98.644531 109.53125 98.378906 109.710938 C 98.117188 109.886719 97.882812 110.03125 97.859375 110.03125 C 97.832031 110.03125 97.484375 110.261719 97.082031 110.539062 C 96.679688 110.820312 96.308594 111.046875 96.257812 111.046875 C 96.210938 111.046875 95.945312 111.191406 95.667969 111.371094 C 95.394531 111.546875 95.132812 111.691406 95.089844 111.691406 C 95.046875 111.691406 94.957031 111.757812 94.894531 111.832031 C 94.832031 111.910156 94.761719 111.957031 94.742188 111.9375 C 94.722656 111.917969 94.492188 112.019531 94.226562 112.167969 C 93.964844 112.3125 93.605469 112.492188 93.429688 112.570312 C 93.253906 112.644531 92.902344 112.804688 92.648438 112.921875 C 91.402344 113.511719 91.144531 113.621094 90.679688 113.777344 C 90.402344 113.867188 90.128906 113.976562 90.074219 114.015625 C 90.019531 114.054688 89.691406 114.171875 89.34375 114.277344 C 88.992188 114.382812 88.578125 114.527344 88.421875 114.601562 C 88.265625 114.671875 87.851562 114.796875 87.503906 114.878906 C 87.160156 114.960938 86.828125 115.066406 86.769531 115.113281 C 86.710938 115.160156 86.25 115.28125 85.746094 115.375 C 85.242188 115.472656 84.75 115.59375 84.65625 115.640625 C 84.566406 115.691406 84.054688 115.804688 83.527344 115.890625 C 82.996094 115.976562 82.511719 116.085938 82.449219 116.136719 C 82.386719 116.1875 82.191406 116.214844 82.015625 116.191406 C 81.839844 116.171875 81.683594 116.1875 81.671875 116.222656 C 81.511719 116.671875 70.339844 116.683594 69.222656 116.238281 C 69.148438 116.207031 68.992188 116.191406 68.875 116.203125 C 68.757812 116.214844 68.613281 116.183594 68.554688 116.136719 C 68.492188 116.085938 68.21875 116.019531 67.941406 115.984375 C 66.976562 115.867188 66.199219 115.707031 66.199219 115.628906 C 66.199219 115.582031 66.132812 115.570312 66.050781 115.601562 C 65.972656 115.632812 65.859375 115.625 65.800781 115.589844 C 65.660156 115.5 64.914062 115.296875 64.699219 115.292969 C 64.605469 115.289062 64.398438 115.230469 64.242188 115.15625 C 64.082031 115.085938 63.582031 114.9375 63.128906 114.828125 C 62.675781 114.71875 62.253906 114.589844 62.195312 114.539062 C 62.136719 114.492188 61.808594 114.371094 61.46875 114.273438 C 61.125 114.171875 60.824219 114.058594 60.796875 114.019531 C 60.765625 113.976562 60.558594 113.886719 60.328125 113.816406 C 60.101562 113.746094 59.75 113.589844 59.542969 113.472656 C 59.335938 113.355469 59.109375 113.261719 59.039062 113.261719 C 58.96875 113.261719 58.621094 113.113281 58.265625 112.9375 C 57.914062 112.761719 57.558594 112.617188 57.476562 112.617188 C 57.390625 112.613281 57.300781 112.550781 57.269531 112.476562 C 57.242188 112.398438 57.144531 112.335938 57.054688 112.332031 C 56.964844 112.328125 56.769531 112.246094 56.617188 112.148438 C 56.464844 112.054688 56.09375 111.847656 55.792969 111.691406 C 55.179688 111.378906 54.558594 111.015625 54.085938 110.703125 C 53.914062 110.589844 53.722656 110.496094 53.664062 110.496094 C 53.601562 110.496094 53.507812 110.410156 53.453125 110.308594 C 53.398438 110.207031 53.316406 110.125 53.269531 110.125 C 53.222656 110.125 52.964844 109.988281 52.699219 109.820312 C 52.433594 109.648438 52.152344 109.488281 52.078125 109.457031 C 52.003906 109.425781 51.570312 109.105469 51.117188 108.738281 C 50.660156 108.375 50.199219 108.039062 50.082031 107.996094 C 49.96875 107.953125 49.878906 107.855469 49.878906 107.777344 C 49.878906 107.699219 49.828125 107.636719 49.761719 107.636719 C 49.472656 107.636719 45.820312 104.136719 44.332031 102.429688 C 43.976562 102.023438 43.554688 101.546875 43.390625 101.367188 C 43.226562 101.191406 43.09375 101.011719 43.09375 100.972656 C 43.09375 100.9375 42.804688 100.53125 42.449219 100.078125 C 42.097656 99.621094 41.808594 99.207031 41.808594 99.15625 C 41.808594 99.105469 41.765625 99.0625 41.714844 99.0625 C 41.664062 99.0625 41.59375 98.992188 41.5625 98.902344 C 41.53125 98.8125 41.261719 98.402344 40.96875 97.988281 C 40.675781 97.574219 40.433594 97.210938 40.433594 97.183594 C 40.433594 97.152344 40.289062 96.902344 40.113281 96.625 C 39.9375 96.347656 39.792969 96.085938 39.792969 96.039062 C 39.792969 95.996094 39.636719 95.734375 39.441406 95.460938 C 39.25 95.183594 39.019531 94.765625 38.933594 94.53125 C 38.84375 94.292969 38.714844 94.050781 38.640625 93.988281 C 38.570312 93.925781 38.507812 93.808594 38.507812 93.726562 C 38.507812 93.644531 38.425781 93.453125 38.324219 93.300781 C 38.226562 93.148438 38.144531 92.953125 38.140625 92.863281 C 38.140625 92.773438 38.105469 92.703125 38.058594 92.703125 C 38.015625 92.703125 37.949219 92.589844 37.917969 92.453125 C 37.882812 92.316406 37.714844 91.902344 37.539062 91.53125 C 37.367188 91.160156 37.226562 90.800781 37.226562 90.738281 C 37.226562 90.675781 37.160156 90.53125 37.082031 90.417969 C 37.003906 90.304688 36.964844 90.171875 36.996094 90.121094 C 37.027344 90.070312 37.015625 90.027344 36.96875 90.027344 C 36.921875 90.027344 36.8125 89.769531 36.722656 89.453125 C 36.636719 89.136719 36.523438 88.828125 36.476562 88.769531 C 36.429688 88.710938 36.3125 88.378906 36.214844 88.03125 C 36.117188 87.683594 36 87.316406 35.953125 87.214844 C 35.855469 87 35.574219 85.78125 35.574219 85.566406 C 35.574219 85.484375 35.539062 85.417969 35.496094 85.417969 C 35.429688 85.417969 35.265625 84.660156 35.070312 83.449219 C 35.039062 83.253906 34.976562 83.023438 34.933594 82.941406 C 34.820312 82.722656 34.570312 80.824219 34.503906 79.699219 C 34.472656 79.167969 34.402344 78.675781 34.347656 78.605469 C 34.199219 78.417969 34.203125 71.886719 34.351562 71.582031 C 34.410156 71.460938 34.527344 70.695312 34.613281 69.886719 C 34.816406 67.917969 34.847656 67.6875 34.933594 67.582031 C 34.972656 67.53125 35.078125 67.023438 35.167969 66.453125 C 35.257812 65.882812 35.367188 65.414062 35.414062 65.414062 C 35.457031 65.414062 35.464844 65.367188 35.429688 65.3125 C 35.398438 65.257812 35.414062 65.121094 35.464844 65.015625 C 35.519531 64.90625 35.632812 64.523438 35.714844 64.167969 C 35.800781 63.816406 35.898438 63.484375 35.933594 63.433594 C 35.972656 63.382812 36.097656 62.96875 36.214844 62.511719 C 36.332031 62.054688 36.453125 61.660156 36.484375 61.632812 C 36.519531 61.609375 36.597656 61.402344 36.664062 61.171875 C 36.785156 60.75 36.9375 60.371094 37.324219 59.558594 C 37.441406 59.308594 37.53125 59.03125 37.523438 58.945312 C 37.511719 58.863281 37.566406 58.746094 37.640625 58.683594 C 37.714844 58.621094 37.773438 58.527344 37.773438 58.476562 C 37.773438 58.378906 38.441406 56.90625 38.601562 56.65625 C 38.648438 56.582031 38.832031 56.21875 39.007812 55.855469 C 39.183594 55.492188 39.371094 55.167969 39.421875 55.136719 C 39.476562 55.105469 39.515625 55.015625 39.515625 54.9375 C 39.515625 54.863281 39.640625 54.617188 39.792969 54.398438 C 39.945312 54.175781 40.066406 53.953125 40.066406 53.898438 C 40.066406 53.84375 40.109375 53.796875 40.160156 53.796875 C 40.210938 53.796875 40.25 53.746094 40.25 53.679688 C 40.25 53.617188 40.375 53.410156 40.527344 53.226562 C 40.679688 53.039062 40.863281 52.75 40.933594 52.582031 C 41.003906 52.414062 41.289062 51.988281 41.570312 51.632812 C 41.851562 51.277344 42.082031 50.953125 42.085938 50.914062 C 42.085938 50.871094 42.179688 50.75 42.292969 50.636719 C 42.410156 50.523438 42.550781 50.328125 42.605469 50.203125 C 42.664062 50.078125 42.96875 49.683594 43.277344 49.328125 C 43.589844 48.972656 43.910156 48.578125 43.992188 48.453125 C 44.074219 48.324219 44.316406 48.050781 44.53125 47.839844 C 44.746094 47.632812 44.902344 47.445312 44.878906 47.421875 C 44.808594 47.347656 48.304688 43.953125 48.566406 43.84375 C 48.625 43.816406 49.042969 43.464844 49.496094 43.058594 C 50.359375 42.289062 50.746094 41.984375 50.851562 42.003906 C 50.886719 42.011719 50.953125 41.949219 50.996094 41.867188 C 51.042969 41.789062 51.121094 41.722656 51.167969 41.722656 C 51.21875 41.722656 51.46875 41.554688 51.722656 41.351562 C 51.976562 41.152344 52.234375 40.984375 52.292969 40.984375 C 52.351562 40.984375 52.453125 40.902344 52.515625 40.800781 C 52.578125 40.699219 52.671875 40.617188 52.726562 40.617188 C 52.777344 40.617188 53.035156 40.46875 53.296875 40.292969 C 53.558594 40.117188 53.824219 39.96875 53.886719 39.96875 C 53.953125 39.96875 54.003906 39.925781 54.003906 39.871094 C 54.003906 39.820312 54.042969 39.800781 54.089844 39.828125 C 54.136719 39.859375 54.199219 39.839844 54.234375 39.785156 C 54.292969 39.6875 55.253906 39.046875 55.34375 39.046875 C 55.371094 39.046875 55.511719 38.964844 55.65625 38.863281 C 55.800781 38.757812 56.074219 38.621094 56.269531 38.550781 C 56.460938 38.480469 56.78125 38.316406 56.976562 38.183594 C 57.171875 38.050781 57.402344 37.941406 57.488281 37.941406 C 57.574219 37.941406 57.746094 37.863281 57.867188 37.765625 C 57.992188 37.671875 58.253906 37.546875 58.453125 37.492188 C 58.652344 37.4375 58.910156 37.328125 59.019531 37.25 C 59.132812 37.171875 59.460938 37.027344 59.753906 36.933594 C 60.046875 36.835938 60.453125 36.675781 60.65625 36.574219 C 60.863281 36.46875 61.152344 36.359375 61.300781 36.324219 C 61.445312 36.285156 61.617188 36.21875 61.679688 36.171875 C 61.738281 36.121094 61.832031 36.109375 61.882812 36.140625 C 61.9375 36.175781 61.980469 36.164062 61.980469 36.117188 C 61.980469 36.066406 62.257812 35.957031 62.597656 35.871094 C 62.9375 35.789062 63.257812 35.683594 63.308594 35.640625 C 63.359375 35.597656 63.792969 35.472656 64.273438 35.359375 C 64.75 35.25 65.230469 35.117188 65.332031 35.070312 C 65.4375 35.019531 65.621094 34.964844 65.746094 34.945312 C 66.4375 34.847656 67.175781 34.679688 67.269531 34.605469 C 67.332031 34.554688 67.464844 34.542969 67.5625 34.574219 C 67.664062 34.605469 67.820312 34.589844 67.910156 34.539062 C 68.105469 34.433594 70.015625 34.160156 70.570312 34.160156 C 70.78125 34.164062 70.984375 34.117188 71.019531 34.058594 C 71.058594 33.996094 71.253906 33.972656 71.527344 34 C 71.773438 34.023438 71.972656 34.007812 71.972656 33.964844 C 71.972656 33.871094 78.882812 33.855469 78.976562 33.949219 M 109.320312 69.792969 C 109.320312 70.097656 109.335938 70.210938 109.359375 70.046875 C 109.378906 69.878906 109.378906 69.628906 109.355469 69.492188 C 109.335938 69.351562 109.320312 69.488281 109.320312 69.792969 M 78.667969 75.929688 C 78.667969 75.984375 78.617188 75.996094 78.554688 75.960938 C 78.488281 75.925781 78.46875 75.929688 78.507812 75.96875 C 78.542969 76.011719 78.523438 76.109375 78.464844 76.191406 C 78.402344 76.273438 78.464844 76.238281 78.601562 76.113281 C 78.875 75.871094 78.894531 75.832031 78.757812 75.832031 C 78.707031 75.832031 78.667969 75.875 78.667969 75.929688 M 79.074219 76.777344 L 78.714844 77.167969 L 79.101562 76.804688 C 79.316406 76.605469 79.492188 76.425781 79.492188 76.410156 C 79.492188 76.34375 79.414062 76.410156 79.074219 76.777344 M 72.238281 77.148438 C 72.28125 77.191406 72.578125 77.210938 72.898438 77.195312 L 73.488281 77.167969 L 72.828125 77.121094 C 72.464844 77.097656 72.199219 77.109375 72.238281 77.148438 M 53.339844 78.753906 C 53.453125 78.777344 53.617188 78.777344 53.707031 78.753906 C 53.792969 78.730469 53.699219 78.710938 53.5 78.710938 C 53.296875 78.714844 53.226562 78.730469 53.339844 78.753906 M 54.417969 80.992188 C 54.667969 81.101562 54.757812 81.101562 54.691406 80.992188 C 54.660156 80.945312 54.542969 80.90625 54.433594 80.910156 C 54.238281 80.914062 54.238281 80.917969 54.417969 80.992188 M 61.847656 82.277344 C 61.753906 82.429688 61.953125 82.472656 62.074219 82.328125 C 62.164062 82.21875 62.160156 82.191406 62.042969 82.191406 C 61.964844 82.191406 61.875 82.230469 61.847656 82.277344 "/>
</g>
</svg>
