<?xml version="1.0" encoding="UTF-8"?>
<svg xmlns="http://www.w3.org/2000/svg" xmlns:xlink="http://www.w3.org/1999/xlink" width="150px" height="150px" viewBox="0 0 150 99" version="1.1">
<g id="surface1">
<path style=" stroke:none;fill-rule:evenodd;fill:rgb(0%,0%,0%);fill-opacity:1;" d="M 0 49.515625 L 0 99.027344 L 150 99.027344 L 150 0 L 0 0 L 0 49.515625 M 148.414062 1.960938 C 148.691406 2.300781 148.761719 74.492188 148.488281 75.609375 C 148.207031 76.742188 148.226562 83.664062 148.515625 84.773438 C 148.792969 85.832031 148.765625 90.160156 148.480469 90.894531 C 148.335938 91.265625 148.308594 91.726562 148.308594 94.03125 C 148.308594 96.359375 148.289062 96.757812 148.152344 96.890625 C 147.90625 97.136719 1.683594 97.128906 1.476562 96.882812 C 1.371094 96.757812 1.328125 96.035156 1.285156 93.589844 C 1.25 91.570312 1.191406 90.339844 1.113281 90.117188 C 0.925781 89.570312 0.949219 84.917969 1.144531 84.371094 C 1.34375 83.808594 1.363281 75.871094 1.167969 75.164062 C 1.070312 74.808594 1.050781 67.167969 1.074219 38.4375 L 1.105469 2.15625 L 1.34375 1.917969 L 1.582031 1.683594 L 74.90625 1.707031 L 148.226562 1.734375 L 148.414062 1.960938 "/>
<path style=" stroke:none;fill-rule:evenodd;fill:rgb(45.490196%,77.64706%,93.725491%);fill-opacity:1;" d="M 1.609375 2.203125 C 1.40625 2.449219 1.425781 74.839844 1.628906 75.042969 C 1.761719 75.179688 1.964844 75.207031 2.632812 75.195312 C 5.039062 75.148438 7.664062 74.011719 10.78125 71.667969 C 15.984375 67.753906 18.40625 67.402344 23.410156 69.820312 C 24.175781 70.191406 25.339844 70.847656 25.992188 71.273438 C 28.796875 73.101562 31.855469 74.460938 34.082031 74.863281 C 34.429688 74.925781 34.824219 75.019531 34.960938 75.070312 C 35.777344 75.378906 40.765625 75.351562 41.96875 75.03125 C 42.257812 74.953125 42.742188 74.835938 43.042969 74.769531 C 45.277344 74.265625 48.429688 72.757812 50.199219 71.34375 C 52.246094 69.710938 54.976562 68.644531 56.578125 68.851562 C 59.597656 69.246094 62.476562 70.527344 64.855469 72.539062 C 66.585938 74 69.8125 75.558594 71.109375 75.558594 C 71.28125 75.558594 71.773438 75.625 72.199219 75.707031 C 73.191406 75.894531 74.273438 75.894531 75.347656 75.707031 C 75.8125 75.625 76.351562 75.558594 76.546875 75.558594 C 76.742188 75.558594 77.101562 75.496094 77.34375 75.421875 C 77.585938 75.347656 78.164062 75.183594 78.628906 75.058594 C 80.582031 74.535156 83.65625 73.109375 85.382812 71.921875 C 87.109375 70.738281 87.566406 70.449219 88.332031 70.058594 C 91.863281 68.261719 95.007812 68.832031 101.550781 72.453125 C 105.007812 74.363281 108.050781 75.203125 111.53125 75.203125 C 113.253906 75.203125 113.484375 75.175781 115.804688 74.707031 C 117.9375 74.277344 120.703125 73.070312 123.160156 71.507812 C 125.550781 69.984375 127.949219 68.925781 129.472656 68.71875 C 130.976562 68.511719 131.257812 68.503906 132.089844 68.621094 C 134.160156 68.914062 135.359375 69.46875 139.066406 71.847656 C 143.929688 74.972656 147.78125 76.371094 148.179688 75.160156 C 148.347656 74.65625 148.214844 2.394531 148.046875 2.226562 C 147.839844 2.023438 1.78125 2 1.609375 2.203125 M 69.964844 22.355469 C 70.015625 22.449219 70.089844 22.859375 70.128906 23.265625 C 70.257812 24.574219 70.671875 25.546875 71.671875 26.886719 C 73.261719 29.023438 73.3125 30.164062 71.890625 31.855469 C 70.734375 33.226562 70.738281 34.4375 71.894531 35.929688 C 72.570312 36.800781 72.90625 36.84375 73.0625 36.078125 C 73.105469 35.871094 73.238281 35.277344 73.351562 34.757812 C 73.46875 34.242188 73.632812 33.507812 73.71875 33.125 C 73.804688 32.742188 73.914062 32.210938 73.964844 31.9375 C 74.015625 31.664062 74.121094 31.195312 74.199219 30.898438 C 74.277344 30.597656 74.390625 30.105469 74.453125 29.808594 C 74.515625 29.507812 74.703125 28.640625 74.867188 27.875 C 75.03125 27.113281 75.226562 26.222656 75.292969 25.894531 C 75.363281 25.570312 75.46875 25.101562 75.527344 24.855469 C 75.585938 24.609375 75.734375 23.964844 75.851562 23.421875 C 76.179688 21.9375 76.492188 21.769531 76.640625 22.992188 C 76.683594 23.335938 76.765625 23.863281 76.824219 24.164062 C 76.882812 24.460938 76.976562 25.109375 77.035156 25.597656 C 77.339844 28.167969 77.4375 28.910156 77.53125 29.34375 C 77.589844 29.605469 77.632812 30.003906 77.632812 30.234375 C 77.632812 30.460938 77.699219 30.960938 77.78125 31.34375 C 77.863281 31.722656 77.929688 32.304688 77.929688 32.636719 C 77.933594 32.96875 77.996094 33.457031 78.070312 33.726562 C 78.148438 33.996094 78.242188 34.636719 78.28125 35.15625 C 78.386719 36.648438 78.742188 37.121094 79.296875 36.515625 C 79.90625 35.851562 80.167969 34.847656 80.167969 33.167969 L 80.167969 31.820312 L 79.722656 30.9375 C 78.851562 29.21875 79.011719 28.269531 80.417969 26.789062 C 81.464844 25.683594 82.015625 24.539062 82.148438 23.1875 C 82.265625 22.003906 82.566406 21.808594 83.0625 22.59375 C 83.878906 23.886719 84.046875 25.75 83.417969 26.53125 C 82.441406 27.742188 82.390625 28.816406 83.246094 30.105469 C 83.804688 30.949219 84.140625 31.621094 84.339844 32.304688 C 84.6875 33.492188 84.796875 33.40625 86.421875 30.703125 C 89.355469 25.820312 90.882812 23.308594 91.027344 23.148438 C 91.449219 22.675781 91.660156 23.207031 91.417969 24.125 C 91.328125 24.464844 91.253906 24.957031 91.253906 25.21875 C 91.253906 25.480469 91.1875 26.078125 91.109375 26.539062 C 91.03125 27.003906 90.914062 27.78125 90.851562 28.273438 C 90.589844 30.265625 90.464844 31.171875 90.363281 31.738281 C 90.308594 32.066406 90.257812 32.5625 90.257812 32.839844 C 90.257812 33.121094 90.191406 33.535156 90.109375 33.769531 C 90.027344 34 89.957031 34.441406 89.953125 34.746094 C 89.949219 35.054688 89.90625 35.527344 89.855469 35.796875 C 89.808594 36.070312 89.71875 36.671875 89.664062 37.136719 C 89.605469 37.597656 89.492188 38.402344 89.40625 38.917969 C 89.160156 40.417969 89.453125 40.769531 90.367188 40.070312 C 91.515625 39.1875 92.210938 36.398438 91.699219 34.71875 C 91.128906 32.84375 91.652344 31.753906 93.558594 30.851562 C 94.09375 30.597656 94.46875 30.332031 94.871094 29.910156 C 95.402344 29.351562 95.515625 29.15625 96.332031 27.351562 C 97.003906 25.863281 97.847656 29.160156 97.21875 30.820312 C 96.890625 31.695312 96.441406 32.277344 95.632812 32.886719 C 94.347656 33.851562 94.214844 34.886719 94.996094 37.929688 C 95.519531 39.957031 95.507812 39.957031 98.214844 37.828125 C 99.148438 37.09375 100.175781 36.292969 100.492188 36.046875 C 100.808594 35.800781 101.976562 34.882812 103.09375 34.007812 C 107.199219 30.78125 107.257812 30.421875 102.289062 39.015625 C 97.269531 47.695312 97.5625 47.101562 98.332031 47.078125 C 99.621094 47.039062 100.996094 45.660156 102.113281 43.28125 C 102.710938 42.015625 103.210938 41.328125 103.910156 40.8125 C 104.816406 40.144531 106.492188 39.417969 107.132812 39.410156 C 107.609375 39.40625 108.21875 39.058594 108.503906 38.628906 C 108.945312 37.964844 109.292969 38.175781 109.289062 39.105469 C 109.277344 40.605469 107.9375 42.382812 106.816406 42.382812 C 106.144531 42.382812 105.128906 43.136719 104.75 43.917969 C 104.335938 44.769531 104.015625 48.761719 104.339844 49.03125 C 104.515625 49.175781 104.84375 49.078125 107.503906 48.050781 C 117.515625 44.191406 117.25 44.199219 112.871094 47.878906 C 112.222656 48.425781 111.339844 49.183594 110.910156 49.5625 C 110.476562 49.945312 109.820312 50.503906 109.445312 50.800781 C 109.074219 51.101562 108.417969 51.65625 107.984375 52.039062 C 107.550781 52.421875 106.5625 53.265625 105.785156 53.921875 C 104.054688 55.375 104.03125 55.4375 104.695312 56.546875 C 105.308594 57.570312 105.425781 57.519531 107.691406 55.230469 C 109.53125 53.367188 109.625 53.292969 110.5625 52.828125 L 111.53125 52.351562 L 113.097656 52.34375 L 114.660156 52.335938 L 115.527344 51.957031 C 116.855469 51.378906 117.140625 51.554688 116.617188 52.617188 C 115.917969 54.03125 114.515625 54.824219 113.128906 54.585938 C 111.457031 54.300781 110.378906 55.203125 110.140625 57.085938 C 110.039062 57.878906 109.824219 58.417969 109.125 59.644531 C 108.605469 60.554688 108.300781 60.507812 114.328125 60.507812 C 121.214844 60.507812 121.222656 60.511719 117.195312 62.125 C 116.457031 62.421875 115.238281 62.914062 114.488281 63.21875 C 113.738281 63.523438 112.507812 64.023438 111.753906 64.328125 C 111.003906 64.636719 109.789062 65.128906 109.058594 65.421875 C 106.949219 66.277344 106.828125 66.390625 107.429688 66.992188 C 108.714844 68.273438 109.84375 68.214844 111.777344 66.773438 C 113.625 65.394531 114.824219 65.347656 116.46875 66.585938 C 117.324219 67.230469 117.878906 67.457031 118.386719 67.378906 C 118.792969 67.3125 119.027344 67.1875 120.78125 66.074219 C 123.109375 64.601562 125.570312 63.582031 128.378906 62.929688 C 129.382812 62.699219 132.699219 62.699219 133.769531 62.9375 C 136.5625 63.546875 138.335938 64.386719 142.347656 66.984375 C 144.496094 68.378906 146.304688 69.335938 147.152344 69.523438 C 148.078125 69.730469 148.058594 69.664062 148.089844 72.484375 C 148.125 75.285156 148.140625 75.226562 147.308594 75.191406 C 146.644531 75.164062 145.136719 74.71875 143.835938 74.167969 C 142.714844 73.695312 141.710938 73.121094 139.265625 71.550781 C 135.535156 69.160156 134.515625 68.683594 132.304688 68.285156 C 129.734375 67.820312 126.769531 68.78125 122.632812 71.421875 C 118.433594 74.101562 113.226562 75.371094 109.152344 74.710938 C 106.160156 74.226562 104.15625 73.527344 101.582031 72.070312 C 94.269531 67.929688 90.875 67.699219 86.082031 71.03125 C 83.8125 72.609375 81.605469 73.726562 79.324219 74.457031 C 77.480469 75.046875 77.066406 75.148438 76.089844 75.257812 C 75.597656 75.3125 74.875 75.40625 74.476562 75.464844 C 73.96875 75.539062 73.546875 75.539062 73.035156 75.464844 C 72.640625 75.40625 71.953125 75.3125 71.511719 75.261719 C 69.496094 75.019531 66.988281 73.859375 65.160156 72.328125 C 62.160156 69.816406 57.710938 68.082031 55.464844 68.554688 C 55.054688 68.640625 54.542969 68.742188 54.328125 68.777344 C 53.261719 68.953125 51.078125 70.097656 50.035156 71.03125 C 48.59375 72.316406 44.941406 73.996094 42.316406 74.585938 C 40.53125 74.984375 36.628906 75.050781 35.039062 74.707031 C 31.445312 73.929688 29.433594 73.085938 26.203125 70.984375 C 22.800781 68.773438 19.550781 67.714844 17.125 68.027344 C 15.246094 68.269531 13.980469 68.902344 10.882812 71.160156 C 7.285156 73.78125 4.8125 74.871094 2.480469 74.867188 C 1.546875 74.863281 1.589844 74.996094 1.589844 72.136719 C 1.589844 69.226562 1.53125 69.382812 2.671875 69.28125 C 3.964844 69.167969 5.191406 68.515625 7.988281 66.457031 C 15.261719 61.105469 20.804688 61.097656 29.304688 66.425781 C 32.78125 68.605469 35.441406 69.519531 38.3125 69.519531 C 39.792969 69.519531 40.105469 69.296875 39.339844 68.792969 C 39.105469 68.640625 38.613281 68.257812 38.242188 67.9375 C 37.085938 66.945312 36.144531 66.722656 34.695312 67.097656 C 34.039062 67.265625 33.996094 67.265625 33.53125 67.097656 C 31.683594 66.410156 30.480469 64.675781 32.160156 65.117188 C 33.28125 65.414062 34.476562 65.132812 35.566406 64.316406 C 37.367188 62.96875 38.652344 63.328125 39.949219 65.539062 C 40.398438 66.304688 40.570312 66.433594 41.578125 66.746094 C 42.804688 67.128906 43.871094 66.949219 44.40625 66.261719 C 44.804688 65.75 44.960938 65.84375 37.796875 62.289062 C 31.265625 59.046875 30.671875 58.726562 30.871094 58.535156 C 30.976562 58.429688 34.675781 58.554688 36.480469 58.722656 C 37.109375 58.78125 38.472656 58.875 39.511719 58.929688 C 40.550781 58.980469 41.703125 59.050781 42.070312 59.085938 C 43.382812 59.199219 43.460938 59.074219 42.785156 57.910156 C 42.535156 57.476562 42.152344 56.675781 41.9375 56.128906 C 41.117188 54.074219 40.472656 53.507812 38.8125 53.378906 C 37.015625 53.246094 35.558594 51.902344 35.285156 50.121094 C 35.097656 48.9375 35.277344 48.8125 36.292969 49.414062 C 37.734375 50.265625 38.933594 50.539062 40.152344 50.292969 C 41.871094 49.945312 43.144531 51.042969 44.085938 53.699219 C 44.652344 55.289062 46.847656 55.960938 48.019531 54.90625 C 48.445312 54.523438 47.628906 53.679688 41.648438 48.324219 C 40.886719 47.644531 39.625 46.492188 38.84375 45.769531 C 36.113281 43.230469 36.230469 43.214844 41.898438 45.457031 C 42.882812 45.847656 43.800781 46.199219 43.9375 46.242188 C 44.074219 46.285156 44.988281 46.632812 45.972656 47.015625 C 48.769531 48.101562 48.710938 48.117188 47.972656 46.394531 C 47.671875 45.691406 47.625 44.679688 47.863281 43.910156 C 48.265625 42.585938 47.9375 41.933594 46.773438 41.738281 C 44.898438 41.429688 43.835938 40.175781 43.835938 38.277344 C 43.835938 36.941406 43.894531 36.910156 44.855469 37.722656 C 45.953125 38.652344 46.460938 38.863281 47.632812 38.886719 C 49.359375 38.917969 49.945312 39.464844 50.488281 41.535156 C 50.601562 41.96875 50.695312 42.480469 50.695312 42.675781 C 50.695312 45.207031 52.25 46.859375 53.96875 46.152344 C 54.636719 45.875 54.898438 46.539062 51.023438 38.621094 C 48.050781 32.550781 47.628906 31.640625 47.75 31.523438 C 47.894531 31.378906 48.34375 31.652344 49.179688 32.402344 C 51.925781 34.863281 52.8125 35.667969 53.578125 36.394531 C 54.945312 37.695312 56.953125 39.414062 57.105469 39.414062 C 57.316406 39.414062 57.457031 39.089844 57.453125 38.601562 C 57.453125 38.367188 57.519531 37.863281 57.597656 37.480469 C 58.253906 34.332031 58.070312 33.164062 56.585938 31.128906 C 55.496094 29.628906 55.253906 27.851562 55.984375 26.722656 C 56.5 25.925781 57.15625 25.882812 57.15625 26.648438 C 57.15625 27.21875 57.710938 28.1875 58.507812 29.015625 C 59.738281 30.289062 60.15625 31.011719 60.804688 32.976562 L 61.148438 34.015625 L 61.082031 36.058594 C 61.007812 38.304688 61.023438 38.394531 61.617188 38.957031 C 62.039062 39.359375 62.265625 39.253906 62.1875 38.695312 C 62.15625 38.464844 62.082031 37.8125 62.023438 37.25 C 61.96875 36.6875 61.855469 35.976562 61.777344 35.667969 C 61.695312 35.363281 61.628906 34.933594 61.628906 34.714844 C 61.628906 34.492188 61.5625 33.957031 61.484375 33.519531 C 61.402344 33.085938 61.335938 32.460938 61.332031 32.132812 C 61.328125 31.808594 61.261719 31.273438 61.179688 30.945312 C 61.101562 30.621094 61.035156 30.054688 61.035156 29.691406 C 61.035156 29.324219 60.984375 28.902344 60.925781 28.75 C 60.867188 28.597656 60.757812 27.914062 60.675781 27.234375 C 60.597656 26.550781 60.496094 25.75 60.449219 25.453125 C 60.34375 24.75 60.417969 24.0625 60.601562 24.0625 C 60.832031 24.0625 61.070312 24.480469 65.207031 32.085938 C 66.953125 35.289062 66.984375 35.320312 67.746094 34.523438 C 68.683594 33.550781 69.070312 31.539062 68.648438 29.832031 C 68.570312 29.519531 68.429688 28.90625 68.339844 28.46875 C 68.25 28.035156 68.109375 27.402344 68.035156 27.0625 C 67.777344 25.941406 67.84375 24.414062 68.179688 23.71875 C 68.679688 22.683594 69.71875 21.890625 69.964844 22.355469 M 72.820312 38.199219 C 72.691406 38.332031 72.785156 38.539062 73.25 39.144531 C 75.226562 41.710938 76.660156 44.660156 75.933594 44.660156 C 75.875 44.660156 75.96875 44.828125 76.148438 45.027344 C 77.203125 46.226562 77.53125 48.199219 77.535156 53.375 C 77.535156 55.472656 77.5625 57.484375 77.597656 57.84375 L 77.660156 58.5 L 78.257812 58.042969 C 79.757812 56.890625 79.988281 56.601562 81.167969 54.425781 C 82.132812 52.644531 82.714844 52.347656 83.316406 53.328125 C 83.417969 53.492188 83.5 53.566406 83.5 53.5 C 83.5 52.960938 84.582031 53.648438 88.003906 56.371094 C 90.757812 58.5625 92.710938 59.8125 93.375 59.8125 C 93.503906 59.8125 93.773438 59.921875 93.972656 60.058594 C 94.679688 60.535156 94.984375 60.753906 95.183594 60.921875 C 95.328125 61.046875 95.546875 61.089844 95.976562 61.085938 C 97.21875 61.066406 98.738281 61.253906 99.175781 61.480469 C 100.007812 61.910156 100.113281 61.75 100.039062 60.148438 C 99.992188 59.066406 99.886719 58.316406 99.597656 56.992188 C 97.957031 49.390625 92.636719 43.191406 85.039062 40.023438 C 83.425781 39.351562 80.535156 38.523438 79.796875 38.523438 C 79.613281 38.523438 79.226562 38.453125 78.945312 38.371094 C 78.425781 38.214844 72.957031 38.0625 72.820312 38.199219 M 67.097656 39.410156 C 59.058594 42.015625 52.964844 48.476562 51 56.480469 C 50.355469 59.113281 50.507812 59.683594 51.679688 58.980469 C 52.230469 58.644531 53.992188 57.679688 54.679688 57.332031 C 54.871094 57.234375 55.386719 56.78125 55.820312 56.328125 C 57.964844 54.089844 58.019531 54.042969 58.335938 54.089844 C 58.585938 54.125 58.636719 54.09375 58.683594 53.878906 C 58.804688 53.296875 59.796875 52.90625 61.375 52.816406 C 62.367188 52.761719 62.492188 52.734375 62.363281 52.609375 C 62.207031 52.453125 62.25 50.523438 62.441406 49.21875 C 62.6875 47.53125 62.824219 46.714844 63.023438 45.800781 C 63.140625 45.257812 63.277344 44.613281 63.328125 44.375 C 63.527344 43.429688 64.464844 42.445312 65.785156 41.792969 C 66.148438 41.613281 66.375 41.441406 66.347656 41.367188 C 66.273438 41.167969 66.644531 40.660156 67.160156 40.253906 C 68.332031 39.335938 68.304688 39.019531 67.097656 39.410156 M 88.730469 44.707031 C 89.273438 45.085938 89.230469 45.722656 88.640625 46.039062 C 88.308594 46.214844 87.667969 45.867188 87.683594 45.519531 C 87.71875 44.757812 88.230469 44.359375 88.730469 44.707031 M 83.699219 45.28125 C 84.210938 46.121094 83.472656 46.8125 82.628906 46.28125 C 82.21875 46.027344 82.347656 45.316406 82.84375 45.101562 C 83.316406 44.894531 83.484375 44.929688 83.699219 45.28125 M 83.394531 49.207031 C 83.847656 49.84375 83.363281 50.574219 82.609375 50.382812 C 82.113281 50.257812 82.0625 50.167969 82.175781 49.597656 C 82.316406 48.90625 83.015625 48.679688 83.394531 49.207031 M 87.234375 49.667969 L 87.40625 50.117188 L 87.125 50.410156 C 86.5 51.058594 85.460938 50.203125 85.960938 49.453125 C 86.257812 49.011719 87.03125 49.140625 87.234375 49.667969 M 16.203125 77.53125 C 13.519531 77.792969 11.207031 78.898438 7.15625 81.851562 C 4.808594 83.5625 3.605469 84.171875 2.261719 84.320312 C 1.378906 84.421875 1.390625 84.378906 1.390625 87.257812 C 1.390625 90.585938 1.351562 90.519531 3.113281 90.265625 C 5.890625 89.871094 7.460938 89.078125 11.976562 85.804688 C 13.867188 84.433594 14.820312 83.976562 16.683594 83.53125 C 18.910156 83 22.3125 84.148438 26.394531 86.804688 C 28.175781 87.964844 30.609375 89.101562 32.410156 89.617188 C 35.070312 90.378906 35.539062 90.4375 38.46875 90.390625 C 40.898438 90.355469 41.28125 90.3125 42.84375 89.902344 C 45.402344 89.226562 48.460938 87.765625 49.949219 86.503906 C 54.238281 82.871094 59.164062 83.289062 64.746094 87.765625 C 70.402344 92.308594 78.472656 91.875 85.785156 86.640625 C 88.726562 84.535156 91.777344 83.738281 94.226562 84.429688 C 96.179688 84.984375 98.625 86.070312 101.183594 87.515625 C 103.019531 88.554688 105.117188 89.410156 106.710938 89.773438 C 107.039062 89.847656 107.484375 89.953125 107.703125 90.003906 C 109.507812 90.441406 111.570312 90.460938 114.613281 90.074219 C 116.867188 89.785156 120.132812 88.429688 123.0625 86.5625 C 129.253906 82.617188 132.164062 82.679688 138.71875 86.894531 C 142.492188 89.324219 143.757812 89.933594 146.199219 90.511719 C 148.289062 91.007812 148.308594 90.980469 148.308594 87.738281 C 148.308594 85.171875 148.246094 84.820312 147.746094 84.71875 C 146.328125 84.4375 144.710938 83.625 141.75 81.703125 C 139.703125 80.378906 139.175781 80.066406 137.886719 79.425781 C 132.195312 76.59375 126.640625 77.210938 119.980469 81.40625 C 116.960938 83.3125 114.960938 84.058594 112.324219 84.265625 C 109.335938 84.5 107.015625 83.902344 103.726562 82.042969 C 94.816406 77.011719 88.957031 76.914062 82.359375 81.6875 C 80.3125 83.171875 77.675781 84.304688 75.097656 84.808594 C 72.660156 85.289062 70.121094 84.554688 68.179688 82.8125 C 66.78125 81.558594 63.511719 79.710938 61.429688 78.996094 C 56.019531 77.140625 51.351562 77.929688 46.570312 81.511719 C 43.136719 84.085938 38.539062 85.117188 34.988281 84.109375 C 32.875 83.507812 31.046875 82.6875 29.460938 81.625 C 26.546875 79.671875 23.867188 78.480469 20.675781 77.707031 C 19.929688 77.523438 17.324219 77.421875 16.203125 77.53125 M 20.234375 77.976562 C 20.503906 78.050781 20.90625 78.144531 21.125 78.179688 C 22.945312 78.472656 26.1875 79.953125 29.125 81.828125 C 35.351562 85.804688 41.433594 85.820312 46.675781 81.875 C 51.9375 77.917969 56.945312 77.328125 62.867188 79.976562 C 64.691406 80.792969 66.894531 82.144531 68.089844 83.175781 C 71.738281 86.328125 77.207031 85.835938 82.753906 81.851562 C 89.128906 77.273438 94.8125 77.425781 103.660156 82.414062 C 109.429688 85.667969 114.304688 85.472656 120.078125 81.757812 C 124.425781 78.960938 128.308594 77.800781 132.238281 78.132812 C 135.34375 78.390625 137.226562 79.21875 142.84375 82.800781 C 144.976562 84.160156 145.949219 84.621094 147.578125 85.054688 C 148.113281 85.199219 148.109375 85.171875 148.109375 87.855469 C 148.113281 90.660156 148.144531 90.605469 146.640625 90.257812 C 143.816406 89.605469 142.628906 89.019531 137.824219 85.898438 C 132.238281 82.269531 128.613281 82.453125 122.214844 86.699219 C 119.070312 88.789062 113.792969 90.28125 110.621094 89.976562 C 110.21875 89.9375 109.488281 89.875 108.996094 89.832031 C 106.804688 89.640625 103.804688 88.609375 101.347656 87.203125 C 94.054688 83.035156 90.464844 82.839844 85.585938 86.347656 C 78.433594 91.488281 70.539062 91.917969 64.941406 87.472656 C 59.5 83.148438 54.507812 82.539062 50.445312 85.699219 C 48.054688 87.5625 45.847656 88.667969 42.609375 89.617188 C 42.234375 89.730469 41.800781 89.820312 41.644531 89.820312 C 41.488281 89.820312 41.105469 89.886719 40.789062 89.96875 C 40.121094 90.140625 36.398438 90.175781 35.734375 90.015625 C 35.515625 89.960938 35.03125 89.875 34.65625 89.820312 C 34.007812 89.722656 33.785156 89.664062 32.316406 89.214844 C 30.519531 88.660156 28.292969 87.621094 26.738281 86.605469 C 23.875 84.734375 21.417969 83.585938 19.632812 83.292969 C 19.304688 83.238281 18.777344 83.136719 18.464844 83.070312 C 16.914062 82.734375 14.273438 83.695312 11.78125 85.507812 C 7.578125 88.554688 5.648438 89.582031 3.628906 89.832031 C 1.375 90.113281 1.589844 90.382812 1.589844 87.289062 C 1.589844 84.53125 1.519531 84.734375 2.535156 84.640625 C 3.710938 84.535156 5.023438 83.839844 7.671875 81.914062 C 10.867188 79.59375 12.417969 78.773438 14.8125 78.132812 C 16.058594 77.800781 19.285156 77.707031 20.234375 77.976562 "/>
<path style=" stroke:none;fill-rule:evenodd;fill:rgb(100%,100%,100%);fill-opacity:1;" d="M 70.121094 36.542969 C 69.789062 36.753906 69.394531 37.273438 68.898438 38.144531 C 68.722656 38.457031 68.457031 38.8125 68.3125 38.9375 C 68.164062 39.0625 67.996094 39.289062 67.941406 39.4375 C 67.886719 39.585938 67.578125 39.921875 67.253906 40.179688 C 66.230469 40.992188 66.042969 41.589844 66.875 41.367188 C 67.257812 41.265625 67.320312 41.273438 67.503906 41.457031 C 67.714844 41.667969 68.191406 43.410156 68.191406 43.964844 C 68.191406 44.117188 68.28125 44.347656 68.390625 44.476562 L 68.585938 44.710938 L 68.820312 44.453125 C 68.957031 44.300781 69.125 43.894531 69.226562 43.460938 C 69.953125 40.453125 70.941406 40.269531 71.820312 42.976562 C 72.34375 44.59375 72.71875 44.691406 73.414062 43.390625 C 73.917969 42.453125 74.359375 42.484375 75.007812 43.5 C 75.777344 44.707031 76.042969 44.90625 76.042969 44.28125 C 76.042969 43.363281 74.949219 41.351562 73.246094 39.136719 C 72.976562 38.785156 72.765625 38.433594 72.785156 38.351562 C 72.824219 38.160156 71.296875 36.582031 70.941406 36.449219 C 70.5625 36.304688 70.476562 36.316406 70.121094 36.542969 M 88.074219 44.6875 C 87.835938 44.808594 87.703125 45.089844 87.683594 45.519531 C 87.667969 45.867188 88.308594 46.214844 88.640625 46.039062 C 89.535156 45.558594 88.980469 44.234375 88.074219 44.6875 M 82.84375 45.101562 C 82.347656 45.316406 82.21875 46.027344 82.628906 46.28125 C 83.472656 46.8125 84.210938 46.121094 83.699219 45.28125 C 83.484375 44.929688 83.316406 44.894531 82.84375 45.101562 M 74.488281 47.085938 C 73.792969 47.570312 73.054688 53.789062 73.597656 54.609375 C 74.046875 55.296875 74.355469 54.5 74.355469 52.632812 C 74.355469 51.15625 74.484375 50.703125 74.914062 50.703125 C 75.148438 50.703125 75.542969 51.203125 75.65625 51.644531 C 75.792969 52.179688 76.15625 52.636719 76.375 52.554688 C 76.652344 52.449219 76.597656 51.375 76.285156 50.703125 C 76.132812 50.378906 75.949219 49.683594 75.835938 48.976562 C 75.558594 47.285156 75.105469 46.652344 74.488281 47.085938 M 82.507812 49.046875 C 82.261719 49.171875 82.03125 49.863281 82.140625 50.152344 C 82.265625 50.472656 83.015625 50.507812 83.316406 50.207031 C 83.957031 49.566406 83.3125 48.640625 82.507812 49.046875 M 86.183594 49.289062 C 85.765625 49.449219 85.757812 50.203125 86.171875 50.496094 C 86.566406 50.777344 86.789062 50.753906 87.125 50.410156 L 87.40625 50.117188 L 87.234375 49.667969 C 87.058594 49.207031 86.71875 49.085938 86.183594 49.289062 M 60.472656 52.886719 C 58.585938 53.132812 57.953125 54.367188 59.714844 54.367188 C 60.089844 54.367188 60.640625 54.429688 60.9375 54.503906 C 61.238281 54.578125 61.753906 54.664062 62.089844 54.699219 C 62.507812 54.738281 62.957031 54.882812 63.523438 55.15625 C 64.3125 55.535156 64.402344 55.554688 65.304688 55.558594 C 66.960938 55.566406 67.292969 55.691406 67.292969 56.316406 C 67.296875 56.820312 67.570312 56.941406 68.714844 56.941406 C 70.15625 56.941406 70.398438 57.105469 70.355469 58.066406 C 70.304688 59.199219 71.226562 59.109375 71.808594 57.925781 C 72.054688 57.421875 72.199219 57.25 72.492188 57.113281 C 72.695312 57.019531 73.03125 56.863281 73.234375 56.769531 C 73.761719 56.523438 73.78125 56.164062 73.308594 55.269531 C 72.578125 53.886719 72.074219 53.839844 72.070312 55.164062 C 72.066406 55.964844 71.753906 56.046875 71.027344 55.449219 C 70.507812 55.023438 70.574219 55.03125 69.648438 55.222656 C 69.40625 55.273438 69.300781 55.210938 68.855469 54.75 C 68.289062 54.167969 68.183594 54.121094 65.65625 53.417969 C 64.945312 53.222656 64.164062 52.996094 63.921875 52.921875 C 63.441406 52.769531 61.527344 52.75 60.472656 52.886719 M 82.15625 52.964844 C 81.945312 53.09375 81.65625 53.523438 81.171875 54.425781 C 80.050781 56.519531 79.703125 56.953125 78.296875 58.003906 C 77.453125 58.636719 77.640625 58.945312 79.066406 59.261719 C 79.453125 59.347656 79.90625 59.507812 80.070312 59.617188 C 80.949219 60.191406 81.519531 59.410156 81.71875 57.351562 C 81.867188 55.800781 81.847656 55.851562 82.289062 55.851562 C 82.945312 55.851562 83.234375 55.34375 83.367188 53.945312 C 83.457031 53.050781 82.835938 52.550781 82.15625 52.964844 M 77.558594 60.425781 C 77.066406 60.671875 77.242188 61.625 77.804688 61.75 C 77.957031 61.78125 78.28125 61.875 78.523438 61.949219 C 78.765625 62.027344 79.167969 62.089844 79.417969 62.09375 C 79.667969 62.09375 80.058594 62.160156 80.289062 62.238281 C 80.675781 62.375 80.746094 62.367188 81.261719 62.171875 C 81.757812 61.984375 81.871094 61.972656 82.351562 62.082031 C 83.335938 62.300781 85.570312 61.9375 85.726562 61.535156 C 85.902344 61.078125 85.410156 60.839844 84.648438 61.007812 C 84.242188 61.097656 84.003906 61.101562 83.664062 61.015625 C 83.410156 60.953125 82.445312 60.902344 81.480469 60.902344 C 79.816406 60.902344 79.722656 60.890625 79.171875 60.640625 C 78.519531 60.34375 77.886719 60.257812 77.558594 60.425781 M 90.691406 60.816406 C 90.480469 60.917969 90.15625 61.113281 89.96875 61.25 C 89.714844 61.4375 89.507812 61.496094 89.125 61.5 C 88.480469 61.5 87.402344 61.835938 87.078125 62.132812 C 86.941406 62.261719 86.582031 62.441406 86.28125 62.539062 C 85.980469 62.636719 85.410156 62.886719 85.011719 63.097656 C 84.609375 63.304688 84.179688 63.476562 84.054688 63.476562 C 83.226562 63.476562 83.121094 64.1875 83.886719 64.613281 C 84.871094 65.164062 84.847656 65.238281 83.382812 66.230469 C 82.84375 66.59375 82.191406 67.042969 81.933594 67.222656 C 81.136719 67.777344 78.75 68.894531 77.589844 69.257812 C 75.492188 69.910156 75.476562 69.914062 73.832031 69.914062 C 71.484375 69.914062 70.464844 69.53125 68.390625 67.878906 C 66.011719 65.984375 61.027344 63.476562 59.640625 63.476562 C 59.472656 63.476562 59.171875 63.40625 58.96875 63.316406 C 58.496094 63.113281 54.757812 63.011719 54.070312 63.183594 C 53.828125 63.242188 53.382812 63.347656 53.082031 63.417969 C 51.011719 63.894531 49.015625 64.894531 46.867188 66.515625 C 44.71875 68.148438 41.269531 69.539062 40.167969 69.222656 C 39.890625 69.144531 39.808594 69.15625 39.703125 69.296875 C 39.429688 69.675781 36.597656 69.527344 34.890625 69.050781 C 33.03125 68.53125 31.5625 67.839844 29.304688 66.425781 C 20.804688 61.097656 15.261719 61.105469 7.988281 66.457031 C 5.191406 68.515625 3.964844 69.167969 2.671875 69.28125 C 1.53125 69.382812 1.589844 69.226562 1.589844 72.136719 C 1.589844 74.996094 1.546875 74.863281 2.480469 74.867188 C 4.8125 74.871094 7.285156 73.78125 10.882812 71.160156 C 13.980469 68.902344 15.246094 68.269531 17.125 68.027344 C 19.550781 67.714844 22.800781 68.773438 26.203125 70.984375 C 29.433594 73.085938 31.445312 73.929688 35.039062 74.707031 C 36.628906 75.050781 40.53125 74.984375 42.316406 74.585938 C 44.941406 73.996094 48.59375 72.316406 50.035156 71.03125 C 51.078125 70.097656 53.261719 68.953125 54.328125 68.777344 C 54.542969 68.742188 55.054688 68.640625 55.464844 68.554688 C 57.710938 68.082031 62.160156 69.816406 65.160156 72.328125 C 66.988281 73.859375 69.496094 75.019531 71.511719 75.261719 C 71.953125 75.3125 72.640625 75.40625 73.035156 75.464844 C 73.546875 75.539062 73.96875 75.539062 74.476562 75.464844 C 74.875 75.40625 75.597656 75.3125 76.089844 75.257812 C 77.066406 75.148438 77.480469 75.046875 79.324219 74.457031 C 81.605469 73.726562 83.8125 72.609375 86.082031 71.03125 C 90.875 67.699219 94.269531 67.929688 101.582031 72.070312 C 108.5 75.988281 115.835938 75.761719 122.632812 71.421875 C 126.769531 68.78125 129.734375 67.820312 132.304688 68.285156 C 134.515625 68.683594 135.535156 69.160156 139.265625 71.550781 C 142.332031 73.515625 143.65625 74.214844 145.226562 74.691406 C 148.242188 75.605469 148.128906 75.691406 148.089844 72.484375 C 148.058594 69.664062 148.078125 69.730469 147.152344 69.523438 C 146.304688 69.335938 144.496094 68.378906 142.347656 66.984375 C 138.335938 64.386719 136.5625 63.546875 133.769531 62.9375 C 132.699219 62.699219 129.382812 62.699219 128.378906 62.929688 C 125.570312 63.582031 123.121094 64.597656 120.78125 66.074219 C 120.257812 66.40625 119.625 66.804688 119.371094 66.964844 C 119.117188 67.125 118.71875 67.300781 118.488281 67.351562 C 118.246094 67.40625 117.984375 67.546875 117.878906 67.679688 C 117.550781 68.097656 116.277344 68.550781 115.207031 68.632812 C 114.476562 68.6875 114.128906 68.769531 113.667969 68.988281 C 113.082031 69.265625 113.046875 69.269531 111.332031 69.261719 C 108.621094 69.25 106.71875 68.699219 104.027344 67.148438 C 100.640625 65.195312 96.328125 63.480469 94.789062 63.476562 C 94.566406 63.476562 94.09375 63.402344 93.738281 63.316406 C 92.96875 63.125 91.65625 63.101562 91.101562 63.269531 C 90.882812 63.335938 90.347656 63.429688 89.910156 63.476562 C 89.472656 63.527344 88.800781 63.65625 88.417969 63.769531 C 87.078125 64.167969 86.539062 64.160156 86.597656 63.75 C 86.625 63.574219 86.734375 63.507812 87.132812 63.417969 C 87.410156 63.359375 87.992188 63.128906 88.425781 62.90625 C 88.871094 62.683594 89.429688 62.480469 89.707031 62.445312 C 90.007812 62.410156 90.355469 62.277344 90.589844 62.113281 C 91.398438 61.550781 91.507812 61.496094 91.855469 61.496094 C 92.050781 61.496094 92.425781 61.570312 92.683594 61.65625 C 93.265625 61.855469 93.671875 61.730469 93.621094 61.375 C 93.578125 61.082031 93.199219 60.90625 92.59375 60.902344 C 92.320312 60.902344 91.867188 60.839844 91.585938 60.765625 C 91.117188 60.640625 91.039062 60.644531 90.691406 60.816406 M 14.8125 78.132812 C 12.417969 78.773438 10.867188 79.59375 7.671875 81.914062 C 5.023438 83.839844 3.710938 84.535156 2.535156 84.640625 C 1.519531 84.734375 1.589844 84.53125 1.589844 87.289062 C 1.589844 90.382812 1.375 90.113281 3.628906 89.832031 C 5.648438 89.582031 7.578125 88.554688 11.78125 85.507812 C 14.273438 83.695312 16.914062 82.734375 18.464844 83.070312 C 18.777344 83.136719 19.304688 83.238281 19.632812 83.292969 C 21.417969 83.585938 23.875 84.734375 26.738281 86.605469 C 28.292969 87.621094 30.519531 88.660156 32.316406 89.214844 C 33.785156 89.664062 34.007812 89.722656 34.65625 89.820312 C 35.03125 89.875 35.515625 89.960938 35.734375 90.015625 C 36.398438 90.175781 40.121094 90.140625 40.789062 89.96875 C 41.105469 89.886719 41.488281 89.820312 41.644531 89.820312 C 43.347656 89.820312 47.886719 87.695312 50.445312 85.699219 C 54.507812 82.539062 59.5 83.148438 64.941406 87.472656 C 70.539062 91.917969 78.433594 91.488281 85.585938 86.347656 C 90.464844 82.839844 94.054688 83.035156 101.347656 87.203125 C 103.804688 88.609375 106.804688 89.640625 108.996094 89.832031 C 109.488281 89.875 110.21875 89.9375 110.621094 89.976562 C 113.792969 90.28125 119.070312 88.789062 122.214844 86.699219 C 128.613281 82.453125 132.238281 82.269531 137.824219 85.898438 C 142.628906 89.019531 143.816406 89.605469 146.640625 90.257812 C 148.144531 90.605469 148.113281 90.660156 148.109375 87.855469 C 148.109375 85.171875 148.113281 85.199219 147.578125 85.054688 C 145.949219 84.621094 144.976562 84.160156 142.84375 82.800781 C 137.226562 79.21875 135.34375 78.390625 132.238281 78.132812 C 128.308594 77.800781 124.425781 78.960938 120.078125 81.757812 C 114.304688 85.472656 109.429688 85.667969 103.660156 82.414062 C 94.8125 77.425781 89.128906 77.273438 82.753906 81.851562 C 77.207031 85.835938 71.738281 86.328125 68.089844 83.175781 C 66.894531 82.144531 64.691406 80.792969 62.867188 79.976562 C 56.945312 77.328125 51.9375 77.917969 46.675781 81.875 C 41.433594 85.820312 35.351562 85.804688 29.125 81.828125 C 26.1875 79.953125 22.945312 78.472656 21.125 78.179688 C 20.90625 78.144531 20.503906 78.050781 20.234375 77.976562 C 19.285156 77.707031 16.058594 77.800781 14.8125 78.132812 "/>
<path style=" stroke:none;fill-rule:evenodd;fill:rgb(14.117648%,6.666667%,45.490196%);fill-opacity:1;" d="M 1.34375 1.917969 L 1.105469 2.15625 L 1.074219 38.4375 C 1.050781 67.167969 1.070312 74.808594 1.167969 75.164062 C 1.363281 75.871094 1.34375 83.808594 1.144531 84.371094 C 0.949219 84.917969 0.925781 89.570312 1.113281 90.117188 C 1.191406 90.339844 1.25 91.570312 1.285156 93.589844 C 1.328125 96.035156 1.371094 96.757812 1.476562 96.882812 C 1.683594 97.128906 147.90625 97.136719 148.152344 96.890625 C 148.289062 96.757812 148.308594 96.359375 148.308594 94.03125 C 148.308594 91.726562 148.335938 91.265625 148.480469 90.894531 C 148.765625 90.160156 148.792969 85.832031 148.515625 84.773438 C 148.226562 83.664062 148.207031 76.742188 148.488281 75.609375 C 148.761719 74.492188 148.691406 2.300781 148.414062 1.960938 L 148.226562 1.734375 L 74.90625 1.707031 L 1.582031 1.683594 L 1.34375 1.917969 M 148.011719 2.175781 C 148.144531 2.257812 148.167969 6.175781 148.234375 35.96875 C 148.273438 54.503906 148.332031 70.914062 148.359375 72.4375 C 148.433594 75.980469 148.433594 75.980469 145.769531 75.21875 C 143.640625 74.613281 142.394531 73.988281 139.066406 71.847656 C 135.359375 69.46875 134.160156 68.914062 132.089844 68.621094 C 131.257812 68.503906 130.976562 68.511719 129.472656 68.71875 C 127.949219 68.925781 125.550781 69.984375 123.160156 71.507812 C 120.703125 73.070312 117.9375 74.277344 115.804688 74.707031 C 113.484375 75.175781 113.253906 75.203125 111.53125 75.203125 C 108.050781 75.203125 105.007812 74.363281 101.550781 72.453125 C 95.007812 68.832031 91.863281 68.261719 88.332031 70.058594 C 87.566406 70.449219 87.109375 70.738281 85.382812 71.921875 C 83.65625 73.109375 80.582031 74.535156 78.628906 75.058594 C 78.164062 75.183594 77.585938 75.347656 77.34375 75.421875 C 77.101562 75.496094 76.742188 75.558594 76.546875 75.558594 C 76.351562 75.558594 75.8125 75.625 75.347656 75.707031 C 74.273438 75.894531 73.191406 75.894531 72.199219 75.707031 C 71.773438 75.625 71.28125 75.558594 71.109375 75.558594 C 69.8125 75.558594 66.585938 74 64.855469 72.539062 C 62.476562 70.527344 59.597656 69.246094 56.578125 68.851562 C 54.976562 68.644531 52.246094 69.710938 50.199219 71.34375 C 48.429688 72.757812 45.277344 74.265625 43.042969 74.769531 C 42.742188 74.835938 42.257812 74.953125 41.96875 75.03125 C 40.765625 75.351562 35.777344 75.378906 34.960938 75.070312 C 34.824219 75.019531 34.429688 74.925781 34.082031 74.863281 C 31.855469 74.460938 28.796875 73.101562 25.992188 71.273438 C 21.425781 68.289062 17.78125 67.613281 14.613281 69.152344 C 13.902344 69.496094 12.035156 70.722656 10.78125 71.667969 C 7.699219 73.984375 5.082031 75.128906 2.71875 75.191406 C 1.636719 75.21875 1.425781 75.144531 1.289062 74.691406 C 1.152344 74.226562 1.21875 69.683594 1.371094 68.972656 C 1.449219 68.625 1.480469 58.710938 1.484375 35.398438 C 1.488281 9.808594 1.519531 2.289062 1.609375 2.199219 C 1.761719 2.046875 147.773438 2.027344 148.011719 2.175781 M 56.515625 55.605469 C 55.121094 57.078125 54.964844 57.417969 56.28125 56.117188 C 56.976562 55.425781 57.941406 54.269531 57.816406 54.269531 C 57.796875 54.269531 57.210938 54.871094 56.515625 55.605469 M 54.574219 57.378906 C 54.4375 57.453125 53.988281 57.699219 53.578125 57.917969 C 53.167969 58.140625 52.867188 58.324219 52.910156 58.324219 C 53.023438 58.328125 54.488281 57.578125 54.722656 57.398438 C 54.96875 57.207031 54.898438 57.195312 54.574219 57.378906 M 93.703125 60.117188 C 94.023438 60.285156 94.417969 60.523438 94.582031 60.648438 C 94.972656 60.941406 95.371094 61.148438 95.289062 61.015625 C 95.253906 60.960938 95.035156 60.785156 94.804688 60.628906 C 94.574219 60.46875 94.210938 60.222656 93.996094 60.078125 C 93.785156 59.933594 93.5 59.8125 93.367188 59.8125 C 93.179688 59.8125 93.257812 59.886719 93.703125 60.117188 M 95.726562 61.101562 C 95.554688 61.15625 95.707031 61.179688 96.222656 61.179688 C 96.738281 61.179688 96.890625 61.15625 96.71875 61.101562 C 96.582031 61.058594 96.359375 61.019531 96.222656 61.019531 C 96.085938 61.019531 95.863281 61.058594 95.726562 61.101562 M 20.675781 77.707031 C 23.867188 78.480469 26.546875 79.671875 29.460938 81.625 C 31.046875 82.6875 32.875 83.507812 34.988281 84.109375 C 38.539062 85.117188 43.136719 84.085938 46.570312 81.511719 C 51.351562 77.929688 56.019531 77.140625 61.429688 78.996094 C 63.511719 79.710938 66.78125 81.558594 68.179688 82.8125 C 70.121094 84.554688 72.660156 85.289062 75.097656 84.808594 C 77.675781 84.304688 80.3125 83.171875 82.359375 81.6875 C 88.957031 76.914062 94.816406 77.011719 103.726562 82.042969 C 107.015625 83.902344 109.335938 84.5 112.324219 84.265625 C 114.960938 84.058594 116.960938 83.3125 119.980469 81.40625 C 128.109375 76.285156 133.714844 76.398438 141.996094 81.859375 C 144.550781 83.539062 146.296875 84.425781 147.558594 84.671875 C 148.441406 84.847656 148.410156 84.730469 148.410156 87.722656 C 148.410156 90.773438 148.425781 90.710938 147.558594 90.710938 C 145.488281 90.710938 142.929688 89.605469 138.71875 86.894531 C 132.164062 82.679688 129.253906 82.617188 123.0625 86.5625 C 120.257812 88.347656 118.503906 89.117188 115.507812 89.878906 C 114.773438 90.0625 114.882812 90.046875 112.835938 90.273438 C 111.28125 90.449219 109.046875 90.332031 107.703125 90.003906 C 107.484375 89.953125 107.039062 89.847656 106.710938 89.773438 C 105.117188 89.410156 103.019531 88.554688 101.183594 87.515625 C 98.625 86.070312 96.179688 84.984375 94.226562 84.429688 C 91.777344 83.738281 88.726562 84.535156 85.785156 86.640625 C 78.472656 91.875 70.402344 92.308594 64.746094 87.765625 C 59.164062 83.289062 54.238281 82.871094 49.949219 86.503906 C 48.460938 87.765625 45.402344 89.226562 42.84375 89.902344 C 41.28125 90.3125 40.898438 90.355469 38.46875 90.390625 C 35.539062 90.4375 35.070312 90.378906 32.410156 89.617188 C 30.609375 89.101562 28.175781 87.964844 26.394531 86.804688 C 22.3125 84.148438 18.910156 83 16.683594 83.53125 C 14.820312 83.976562 13.867188 84.433594 11.976562 85.804688 C 7.472656 89.070312 6.042969 89.800781 3.335938 90.21875 C 1.167969 90.550781 1.191406 90.585938 1.191406 87.335938 C 1.191406 84.4375 1.195312 84.433594 2.230469 84.324219 C 3.589844 84.179688 4.785156 83.578125 7.15625 81.851562 C 11.207031 78.898438 13.519531 77.792969 16.203125 77.53125 C 17.324219 77.421875 19.929688 77.523438 20.675781 77.707031 "/>
<path style=" stroke:none;fill-rule:evenodd;fill:rgb(66.666669%,36.862746%,20.392157%);fill-opacity:1;" d="M 76.164062 22.300781 C 76.097656 22.367188 76.042969 22.464844 76.042969 22.519531 C 76.042969 22.570312 76.109375 22.53125 76.191406 22.425781 C 76.320312 22.257812 76.351562 22.25 76.445312 22.378906 C 76.535156 22.5 76.546875 22.503906 76.515625 22.386719 C 76.464844 22.191406 76.308594 22.15625 76.164062 22.300781 M 76.566406 22.976562 C 76.566406 23.21875 76.585938 23.320312 76.609375 23.199219 C 76.632812 23.074219 76.632812 22.875 76.609375 22.75 C 76.585938 22.628906 76.566406 22.730469 76.566406 22.976562 M 91.476562 23.519531 C 91.476562 23.738281 91.496094 23.816406 91.523438 23.691406 C 91.546875 23.566406 91.542969 23.390625 91.519531 23.296875 C 91.496094 23.199219 91.476562 23.300781 91.476562 23.519531 M 60.4375 24.167969 C 60.4375 24.226562 60.484375 24.246094 60.542969 24.210938 C 60.597656 24.175781 60.722656 24.207031 60.816406 24.277344 C 60.96875 24.398438 60.96875 24.394531 60.847656 24.238281 C 60.699219 24.046875 60.4375 24.003906 60.4375 24.167969 M 83.722656 24.609375 C 83.722656 24.828125 83.746094 24.902344 83.769531 24.78125 C 83.792969 24.65625 83.792969 24.480469 83.765625 24.382812 C 83.742188 24.289062 83.722656 24.390625 83.722656 24.609375 M 91.179688 25.550781 C 91.179688 25.792969 91.199219 25.894531 91.222656 25.773438 C 91.246094 25.648438 91.246094 25.449219 91.222656 25.328125 C 91.199219 25.203125 91.179688 25.304688 91.179688 25.550781 M 61.878906 26.144531 C 61.964844 26.308594 62.054688 26.441406 62.082031 26.441406 C 62.109375 26.441406 62.0625 26.308594 61.976562 26.144531 C 61.894531 25.980469 61.800781 25.847656 61.773438 25.847656 C 61.746094 25.847656 61.792969 25.980469 61.878906 26.144531 M 80.164062 27.058594 L 79.773438 27.480469 L 80.195312 27.089844 C 80.425781 26.875 80.617188 26.683594 80.617188 26.667969 C 80.617188 26.59375 80.53125 26.667969 80.164062 27.058594 M 90.882812 27.726562 C 90.882812 27.972656 90.902344 28.074219 90.925781 27.949219 C 90.949219 27.828125 90.949219 27.628906 90.925781 27.503906 C 90.902344 27.382812 90.882812 27.484375 90.882812 27.726562 M 77.257812 27.828125 C 77.257812 28.019531 77.28125 28.09375 77.304688 28 C 77.332031 27.90625 77.332031 27.75 77.304688 27.652344 C 77.28125 27.558594 77.257812 27.636719 77.257812 27.828125 M 77.5625 30.003906 C 77.5625 30.25 77.582031 30.351562 77.605469 30.230469 C 77.628906 30.105469 77.628906 29.90625 77.605469 29.78125 C 77.582031 29.660156 77.5625 29.761719 77.5625 30.003906 M 94.777344 30.03125 L 94.382812 30.453125 L 94.804688 30.058594 C 95.039062 29.84375 95.230469 29.65625 95.230469 29.640625 C 95.230469 29.5625 95.140625 29.640625 94.777344 30.03125 M 68.820312 31.539062 C 68.820312 31.921875 68.839844 32.066406 68.859375 31.859375 C 68.882812 31.65625 68.882812 31.34375 68.859375 31.167969 C 68.835938 30.992188 68.820312 31.160156 68.820312 31.539062 M 47.714844 31.664062 C 47.714844 31.769531 47.746094 31.796875 47.789062 31.730469 C 47.832031 31.667969 47.929688 31.59375 48.011719 31.5625 C 48.113281 31.523438 48.085938 31.503906 47.9375 31.5 C 47.785156 31.492188 47.714844 31.546875 47.714844 31.664062 M 77.859375 32.234375 C 77.859375 32.453125 77.878906 32.527344 77.902344 32.40625 C 77.925781 32.28125 77.925781 32.105469 77.902344 32.011719 C 77.875 31.914062 77.855469 32.015625 77.859375 32.234375 M 105.925781 31.960938 C 105.984375 32.003906 106.058594 32.101562 106.089844 32.183594 C 106.128906 32.285156 106.148438 32.257812 106.15625 32.109375 C 106.160156 31.960938 106.105469 31.886719 105.988281 31.890625 C 105.882812 31.890625 105.855469 31.917969 105.925781 31.960938 M 61.359375 32.433594 C 61.359375 32.703125 61.378906 32.804688 61.402344 32.652344 C 61.425781 32.503906 61.425781 32.28125 61.402344 32.15625 C 61.378906 32.035156 61.359375 32.160156 61.359375 32.433594 M 50.050781 33.273438 C 50.484375 33.710938 50.863281 34.066406 50.890625 34.066406 C 50.917969 34.066406 50.582031 33.710938 50.148438 33.273438 C 49.714844 32.835938 49.335938 32.480469 49.308594 32.480469 C 49.28125 32.480469 49.613281 32.835938 50.050781 33.273438 M 61.070312 35.007812 C 61.070312 35.660156 61.085938 35.914062 61.105469 35.570312 C 61.125 35.230469 61.125 34.695312 61.105469 34.382812 C 61.085938 34.074219 61.070312 34.351562 61.070312 35.007812 M 50.992188 34.097656 C 50.992188 34.113281 51.140625 34.257812 51.316406 34.417969 L 51.640625 34.710938 L 51.347656 34.386719 C 51.074219 34.085938 50.992188 34.019531 50.992188 34.097656 M 61.65625 34.859375 C 61.65625 35.101562 61.675781 35.203125 61.699219 35.082031 C 61.722656 34.957031 61.722656 34.757812 61.699219 34.636719 C 61.675781 34.511719 61.65625 34.613281 61.65625 34.859375 M 51.789062 34.789062 C 51.789062 34.808594 51.933594 34.953125 52.113281 35.113281 L 52.433594 35.402344 L 52.144531 35.082031 C 51.871094 34.78125 51.789062 34.714844 51.789062 34.789062 M 89.882812 35.15625 C 89.882812 35.34375 89.90625 35.421875 89.929688 35.328125 C 89.953125 35.234375 89.953125 35.078125 89.929688 34.980469 C 89.90625 34.886719 89.882812 34.964844 89.882812 35.15625 M 78.253906 35.550781 C 78.253906 35.742188 78.273438 35.820312 78.300781 35.722656 C 78.324219 35.628906 78.324219 35.472656 78.300781 35.378906 C 78.273438 35.28125 78.253906 35.359375 78.253906 35.550781 M 91.871094 35.847656 C 91.871094 36.039062 91.890625 36.117188 91.917969 36.019531 C 91.941406 35.925781 91.941406 35.769531 91.917969 35.675781 C 91.890625 35.578125 91.871094 35.65625 91.871094 35.847656 M 53.175781 36.070312 C 53.421875 36.328125 53.632812 36.542969 53.648438 36.542969 C 53.722656 36.542969 53.644531 36.453125 53.207031 36.042969 L 52.734375 35.601562 L 53.175781 36.070312 M 89.585938 37.234375 C 89.585938 37.425781 89.605469 37.503906 89.632812 37.40625 C 89.65625 37.3125 89.65625 37.15625 89.632812 37.0625 C 89.605469 36.964844 89.585938 37.042969 89.585938 37.234375 M 74.335938 38.019531 C 72.300781 38.109375 72.789062 38.175781 75.703125 38.195312 C 77.820312 38.210938 78.542969 38.25 78.945312 38.371094 C 79.226562 38.453125 79.613281 38.523438 79.796875 38.523438 C 80.535156 38.523438 83.425781 39.351562 85.039062 40.023438 C 91.667969 42.785156 96.6875 47.976562 98.855469 54.316406 C 99.945312 57.492188 100.457031 61.695312 99.757812 61.695312 C 99.683594 61.695312 99.382812 61.582031 99.089844 61.449219 C 98.601562 61.222656 98.445312 61.203125 97.097656 61.199219 C 95.476562 61.199219 95.367188 61.171875 94.441406 60.5625 C 94.082031 60.328125 93.441406 59.976562 93.019531 59.78125 C 91.820312 59.234375 90.328125 58.222656 88.003906 56.371094 C 85.132812 54.085938 84.117188 53.375 83.734375 53.375 C 83.496094 53.375 83.476562 53.417969 83.359375 54.167969 C 83.152344 55.472656 82.910156 55.851562 82.289062 55.851562 C 81.847656 55.851562 81.867188 55.800781 81.71875 57.351562 C 81.519531 59.414062 80.96875 60.167969 80.074219 59.617188 C 79.898438 59.511719 79.449219 59.351562 79.078125 59.265625 C 77.488281 58.898438 77.601562 59.296875 77.519531 53.625 C 77.453125 48.78125 77.417969 48.324219 77.007812 46.820312 C 76.765625 45.945312 76.515625 45.460938 75.933594 44.757812 C 75.636719 44.402344 75.222656 43.835938 75.007812 43.5 C 74.359375 42.484375 73.917969 42.453125 73.414062 43.390625 C 72.71875 44.691406 72.34375 44.59375 71.820312 42.976562 C 70.941406 40.269531 69.953125 40.453125 69.226562 43.460938 C 69.125 43.894531 68.957031 44.300781 68.820312 44.453125 L 68.585938 44.710938 L 68.390625 44.476562 C 68.28125 44.347656 68.191406 44.117188 68.191406 43.964844 C 68.191406 43.410156 67.714844 41.667969 67.503906 41.457031 C 66.757812 40.710938 63.640625 42.886719 63.328125 44.375 C 63.277344 44.613281 63.140625 45.257812 63.023438 45.800781 C 62.824219 46.714844 62.6875 47.53125 62.441406 49.21875 C 62.386719 49.570312 62.316406 50.445312 62.285156 51.164062 C 62.210938 52.695312 62.25 52.78125 63.011719 52.78125 C 63.269531 52.78125 63.679688 52.84375 63.921875 52.921875 C 64.164062 52.996094 64.945312 53.222656 65.65625 53.417969 C 68.183594 54.121094 68.289062 54.167969 68.855469 54.75 C 69.300781 55.210938 69.40625 55.273438 69.648438 55.222656 C 70.574219 55.03125 70.507812 55.023438 71.027344 55.449219 C 71.753906 56.046875 72.066406 55.964844 72.070312 55.164062 C 72.074219 53.839844 72.578125 53.886719 73.308594 55.269531 C 73.78125 56.164062 73.761719 56.523438 73.234375 56.769531 C 73.03125 56.863281 72.695312 57.019531 72.492188 57.113281 C 72.199219 57.25 72.054688 57.421875 71.808594 57.925781 C 71.226562 59.109375 70.304688 59.199219 70.355469 58.066406 C 70.398438 57.105469 70.15625 56.941406 68.714844 56.941406 C 67.570312 56.941406 67.296875 56.820312 67.292969 56.316406 C 67.292969 55.691406 66.960938 55.566406 65.304688 55.558594 C 64.402344 55.554688 64.3125 55.535156 63.523438 55.15625 C 62.957031 54.882812 62.507812 54.738281 62.089844 54.699219 C 61.753906 54.664062 61.238281 54.578125 60.9375 54.503906 C 60.640625 54.429688 60.09375 54.367188 59.722656 54.367188 C 59.308594 54.367188 58.921875 54.304688 58.710938 54.203125 C 58.230469 53.976562 57.957031 54.085938 57.5625 54.660156 C 56.613281 56.058594 55.167969 57.230469 53.132812 58.257812 C 52.367188 58.644531 51.53125 59.066406 51.273438 59.199219 C 50.625 59.53125 50.554688 59.453125 50.636719 58.492188 C 51.308594 50.472656 58.214844 42.4375 66.996094 39.453125 C 67.515625 39.273438 67.835938 39.128906 67.707031 39.125 C 66.738281 39.09375 62.835938 40.914062 60.550781 42.460938 C 55.96875 45.570312 52.375 50.582031 51.019531 55.753906 C 50.617188 57.292969 50.570312 57.503906 50.476562 58.230469 C 50.363281 59.140625 50.257812 63.703125 50.34375 64.042969 C 50.414062 64.324219 50.351562 64.332031 51.589844 63.878906 C 52.054688 63.707031 52.703125 63.507812 53.03125 63.429688 C 53.359375 63.355469 53.828125 63.242188 54.070312 63.179688 C 54.757812 63.011719 58.496094 63.113281 58.96875 63.316406 C 59.171875 63.40625 59.472656 63.476562 59.640625 63.476562 C 61.027344 63.476562 66.011719 65.984375 68.390625 67.878906 C 70.464844 69.53125 71.484375 69.914062 73.832031 69.914062 C 75.476562 69.914062 75.492188 69.910156 77.589844 69.257812 C 78.75 68.894531 81.136719 67.777344 81.933594 67.222656 C 82.191406 67.042969 82.84375 66.59375 83.382812 66.230469 C 84.847656 65.238281 84.871094 65.164062 83.886719 64.613281 C 83.121094 64.1875 83.226562 63.476562 84.054688 63.476562 C 84.179688 63.476562 84.609375 63.304688 85.011719 63.097656 C 85.410156 62.886719 85.980469 62.636719 86.28125 62.539062 C 86.582031 62.441406 86.941406 62.261719 87.078125 62.132812 C 87.402344 61.835938 88.480469 61.5 89.125 61.5 C 89.507812 61.496094 89.714844 61.4375 89.96875 61.25 C 90.710938 60.707031 91.019531 60.613281 91.585938 60.765625 C 91.867188 60.839844 92.320312 60.902344 92.59375 60.902344 C 93.199219 60.90625 93.578125 61.082031 93.621094 61.375 C 93.671875 61.730469 93.265625 61.855469 92.683594 61.65625 C 92.425781 61.570312 92.050781 61.496094 91.855469 61.496094 C 91.507812 61.496094 91.398438 61.550781 90.589844 62.113281 C 90.355469 62.277344 90.007812 62.410156 89.707031 62.445312 C 89.429688 62.480469 88.871094 62.683594 88.425781 62.90625 C 87.992188 63.128906 87.410156 63.359375 87.132812 63.417969 C 86.734375 63.507812 86.625 63.574219 86.597656 63.75 C 86.539062 64.160156 87.078125 64.167969 88.417969 63.769531 C 88.800781 63.65625 89.472656 63.527344 89.910156 63.476562 C 90.347656 63.429688 90.882812 63.335938 91.101562 63.269531 C 91.65625 63.101562 92.96875 63.125 93.738281 63.316406 C 94.09375 63.402344 94.570312 63.476562 94.796875 63.476562 C 95.460938 63.476562 97.640625 64.097656 99.277344 64.75 C 99.921875 65.007812 99.945312 64.980469 100.039062 63.726562 C 100.078125 63.234375 100.140625 62.523438 100.179688 62.140625 C 100.324219 60.722656 100.03125 57.699219 99.589844 56.117188 C 97.855469 49.851562 94.222656 45.058594 88.617188 41.632812 C 86.105469 40.097656 82.359375 38.6875 79.96875 38.378906 C 79.695312 38.34375 79.183594 38.25 78.828125 38.175781 C 78.050781 38.011719 76.066406 37.941406 74.335938 38.019531 M 108.699219 38.324219 C 108.664062 38.382812 108.707031 38.394531 108.804688 38.355469 C 108.914062 38.316406 109.023438 38.359375 109.109375 38.476562 C 109.183594 38.578125 109.246094 38.613281 109.246094 38.5625 C 109.246094 38.304688 108.824219 38.121094 108.699219 38.324219 M 56.363281 38.96875 C 56.546875 39.160156 56.722656 39.3125 56.75 39.3125 C 56.777344 39.3125 56.648438 39.160156 56.460938 38.96875 C 56.277344 38.777344 56.101562 38.621094 56.074219 38.621094 C 56.046875 38.621094 56.175781 38.777344 56.363281 38.96875 M 109.265625 39.117188 C 109.265625 39.308594 109.289062 39.386719 109.3125 39.289062 C 109.339844 39.195312 109.339844 39.039062 109.3125 38.941406 C 109.289062 38.847656 109.265625 38.925781 109.265625 39.117188 M 103.375 41.269531 L 103.03125 41.640625 L 103.40625 41.300781 C 103.609375 41.113281 103.777344 40.945312 103.777344 40.929688 C 103.777344 40.851562 103.691406 40.925781 103.375 41.269531 M 37.121094 43.878906 C 37.085938 43.9375 37.105469 44.039062 37.171875 44.101562 C 37.261719 44.1875 37.273438 44.175781 37.226562 44.050781 C 37.183594 43.941406 37.222656 43.871094 37.34375 43.839844 C 37.5 43.800781 37.5 43.792969 37.355469 43.78125 C 37.265625 43.777344 37.160156 43.820312 37.121094 43.878906 M 115.441406 45.128906 C 115.5625 45.160156 115.601562 45.230469 115.558594 45.339844 C 115.511719 45.464844 115.523438 45.476562 115.613281 45.386719 C 115.757812 45.242188 115.648438 45.054688 115.425781 45.070312 C 115.28125 45.078125 115.285156 45.085938 115.441406 45.128906 M 38.570312 45.503906 C 38.753906 45.695312 38.929688 45.851562 38.957031 45.851562 C 38.984375 45.851562 38.851562 45.695312 38.667969 45.503906 C 38.484375 45.3125 38.308594 45.15625 38.28125 45.15625 C 38.253906 45.15625 38.382812 45.3125 38.570312 45.503906 M 104.210938 47.089844 C 104.210938 47.6875 104.230469 47.917969 104.25 47.605469 C 104.269531 47.289062 104.269531 46.800781 104.25 46.515625 C 104.226562 46.230469 104.210938 46.488281 104.210938 47.089844 M 114.066406 46.804688 L 113.570312 47.257812 L 114.089844 46.839844 C 114.542969 46.480469 114.683594 46.339844 114.585938 46.347656 C 114.574219 46.347656 114.339844 46.554688 114.066406 46.804688 M 40.359375 47.1875 C 40.65625 47.488281 40.921875 47.730469 40.949219 47.730469 C 40.976562 47.730469 40.753906 47.488281 40.457031 47.1875 C 40.160156 46.886719 39.894531 46.640625 39.867188 46.640625 C 39.839844 46.640625 40.0625 46.886719 40.359375 47.1875 M 75.046875 47.039062 C 75.414062 47.234375 75.636719 47.78125 75.835938 48.976562 C 75.949219 49.683594 76.132812 50.378906 76.285156 50.703125 C 76.597656 51.375 76.652344 52.449219 76.375 52.554688 C 76.15625 52.636719 75.792969 52.179688 75.65625 51.644531 C 75.542969 51.203125 75.148438 50.703125 74.914062 50.703125 C 74.484375 50.703125 74.355469 51.15625 74.355469 52.632812 C 74.355469 54.101562 74.257812 54.601562 73.949219 54.765625 C 73.265625 55.132812 73.230469 52.449219 73.871094 48.871094 C 74.175781 47.160156 74.457031 46.722656 75.046875 47.039062 M 113.117188 47.609375 L 112.773438 47.980469 L 113.144531 47.636719 C 113.351562 47.449219 113.519531 47.28125 113.519531 47.265625 C 113.519531 47.191406 113.433594 47.261719 113.117188 47.609375 M 110.132812 50.183594 L 109.792969 50.554688 L 110.164062 50.210938 C 110.367188 50.023438 110.535156 49.859375 110.535156 49.839844 C 110.535156 49.765625 110.453125 49.835938 110.132812 50.183594 M 43.9375 50.453125 C 44.121094 50.644531 44.296875 50.800781 44.324219 50.800781 C 44.351562 50.800781 44.222656 50.644531 44.035156 50.453125 C 43.851562 50.265625 43.675781 50.109375 43.648438 50.109375 C 43.621094 50.109375 43.75 50.265625 43.9375 50.453125 M 40.433594 50.277344 C 40.558594 50.300781 40.734375 50.300781 40.832031 50.277344 C 40.925781 50.25 40.824219 50.230469 40.605469 50.230469 C 40.386719 50.234375 40.308594 50.253906 40.433594 50.277344 M 39.089844 50.472656 C 39.1875 50.5 39.34375 50.5 39.4375 50.472656 C 39.535156 50.449219 39.457031 50.429688 39.265625 50.429688 C 39.074219 50.429688 38.996094 50.449219 39.089844 50.472656 M 108.195312 51.816406 L 107.902344 52.136719 L 108.226562 51.847656 C 108.527344 51.578125 108.59375 51.496094 108.515625 51.496094 C 108.5 51.496094 108.355469 51.640625 108.195312 51.816406 M 112.402344 52.355469 C 112.523438 52.378906 112.726562 52.378906 112.847656 52.355469 C 112.972656 52.332031 112.871094 52.3125 112.625 52.3125 C 112.378906 52.3125 112.277344 52.332031 112.402344 52.355469 M 38.195312 53.34375 C 38.292969 53.371094 38.449219 53.371094 38.542969 53.34375 C 38.640625 53.320312 38.5625 53.300781 38.371094 53.300781 C 38.179688 53.300781 38.101562 53.320312 38.195312 53.34375 M 47.609375 53.796875 C 48.023438 54.234375 48.113281 54.3125 48.113281 54.238281 C 48.113281 54.222656 47.898438 54.011719 47.640625 53.769531 L 47.167969 53.328125 L 47.609375 53.796875 M 108.449219 54.414062 C 108.042969 54.824219 107.730469 55.160156 107.757812 55.160156 C 107.785156 55.160156 108.140625 54.824219 108.546875 54.414062 C 108.957031 54.007812 109.265625 53.671875 109.238281 53.671875 C 109.210938 53.671875 108.855469 54.007812 108.449219 54.414062 M 106.554688 56.421875 L 106.210938 56.792969 L 106.585938 56.453125 C 106.933594 56.132812 107.003906 56.050781 106.929688 56.050781 C 106.910156 56.050781 106.742188 56.21875 106.554688 56.421875 M 30.859375 58.535156 C 30.820312 58.59375 30.863281 58.707031 30.953125 58.785156 C 31.039062 58.859375 31.066406 58.867188 31.011719 58.804688 C 30.839844 58.597656 30.902344 58.539062 31.335938 58.5 L 31.757812 58.460938 L 31.34375 58.445312 C 31.113281 58.433594 30.894531 58.476562 30.859375 58.535156 M 32.878906 58.597656 C 33.21875 58.617188 33.777344 58.617188 34.121094 58.597656 C 34.460938 58.578125 34.183594 58.5625 33.5 58.5625 C 32.816406 58.5625 32.535156 58.578125 32.878906 58.597656 M 37.898438 58.890625 C 37.992188 58.917969 38.148438 58.917969 38.246094 58.890625 C 38.339844 58.867188 38.261719 58.847656 38.070312 58.847656 C 37.878906 58.847656 37.800781 58.867188 37.898438 58.890625 M 42.46875 59.1875 C 42.566406 59.214844 42.722656 59.214844 42.816406 59.1875 C 42.914062 59.164062 42.835938 59.144531 42.644531 59.144531 C 42.453125 59.144531 42.375 59.164062 42.46875 59.1875 M 79.171875 60.640625 C 79.722656 60.890625 79.816406 60.902344 81.480469 60.902344 C 82.445312 60.902344 83.410156 60.953125 83.664062 61.015625 C 84.003906 61.101562 84.242188 61.097656 84.648438 61.007812 C 85.410156 60.839844 85.902344 61.078125 85.726562 61.535156 C 85.570312 61.9375 83.335938 62.300781 82.351562 62.082031 C 81.871094 61.972656 81.757812 61.984375 81.261719 62.171875 C 80.746094 62.367188 80.675781 62.375 80.289062 62.238281 C 80.058594 62.160156 79.667969 62.09375 79.417969 62.09375 C 79.167969 62.089844 78.765625 62.027344 78.523438 61.949219 C 78.28125 61.875 77.957031 61.78125 77.804688 61.75 C 77.472656 61.675781 77.179688 61.144531 77.269531 60.78125 C 77.402344 60.253906 78.195312 60.195312 79.171875 60.640625 M 116.871094 60.578125 C 117.046875 60.597656 117.359375 60.601562 117.566406 60.578125 C 117.773438 60.558594 117.628906 60.539062 117.246094 60.539062 C 116.863281 60.539062 116.695312 60.554688 116.871094 60.578125 M 118.914062 60.578125 C 119.0625 60.601562 119.289062 60.597656 119.410156 60.574219 C 119.53125 60.550781 119.410156 60.535156 119.136719 60.535156 C 118.863281 60.535156 118.761719 60.554688 118.914062 60.578125 M 114.191406 65.726562 C 114.316406 65.75 114.492188 65.75 114.589844 65.722656 C 114.683594 65.699219 114.582031 65.679688 114.363281 65.679688 C 114.144531 65.683594 114.066406 65.703125 114.191406 65.726562 M 35.710938 66.914062 C 35.804688 66.9375 35.960938 66.9375 36.058594 66.914062 C 36.15625 66.886719 36.074219 66.867188 35.886719 66.867188 C 35.691406 66.867188 35.613281 66.886719 35.710938 66.914062 M 42.621094 67.011719 C 42.742188 67.035156 42.921875 67.035156 43.019531 67.011719 C 43.113281 66.988281 43.011719 66.96875 42.792969 66.96875 C 42.574219 66.96875 42.496094 66.988281 42.621094 67.011719 M 33.921875 67.210938 C 34.015625 67.234375 34.171875 67.234375 34.269531 67.210938 C 34.363281 67.183594 34.285156 67.164062 34.09375 67.164062 C 33.902344 67.164062 33.824219 67.183594 33.921875 67.210938 M 1.269531 69.519531 C 0.988281 70.464844 1.226562 74.980469 1.5625 75.105469 C 1.695312 75.160156 1.699219 75.144531 1.578125 75 C 1.472656 74.871094 1.429688 74.226562 1.390625 72.054688 C 1.363281 70.523438 1.308594 69.382812 1.269531 69.519531 M 148.308594 72.4375 C 148.28125 73.910156 148.21875 75.203125 148.171875 75.3125 C 148.089844 75.492188 148.097656 75.496094 148.246094 75.355469 C 148.394531 75.21875 148.410156 74.910156 148.386719 72.484375 L 148.359375 69.765625 L 148.308594 72.4375 M 1.523438 84.449219 C 1.027344 84.765625 1.039062 90.058594 1.539062 90.25 C 1.644531 90.289062 1.644531 90.25 1.53125 90.035156 C 1.316406 89.625 1.328125 84.902344 1.546875 84.59375 C 1.710938 84.355469 1.707031 84.332031 1.523438 84.449219 M 148.160156 85.09375 C 148.28125 85.382812 148.308594 85.917969 148.308594 87.738281 C 148.308594 89.558594 148.28125 90.097656 148.160156 90.382812 C 148.007812 90.742188 148.007812 90.746094 148.207031 90.5625 C 148.402344 90.390625 148.410156 90.265625 148.410156 87.738281 C 148.410156 85.210938 148.402344 85.089844 148.207031 84.914062 C 148.007812 84.734375 148.007812 84.734375 148.160156 85.09375 "/>
<path style=" stroke:none;fill-rule:evenodd;fill:rgb(95.686275%,94.509804%,0.392157%);fill-opacity:1;" d="M 82.324219 22.355469 C 82.273438 22.449219 82.207031 22.839844 82.175781 23.222656 C 82.066406 24.574219 81.527344 25.636719 80.234375 27.066406 C 79.023438 28.40625 78.914062 29.257812 79.75 30.910156 L 80.21875 31.835938 L 80.21875 33.128906 C 80.21875 34.574219 80.046875 35.398438 79.582031 36.1875 C 78.890625 37.363281 78.238281 36.8125 78.234375 35.050781 C 78.230469 34.691406 78.167969 34.179688 78.089844 33.910156 C 78.015625 33.640625 77.921875 33.089844 77.890625 32.679688 C 77.855469 32.269531 77.761719 31.511719 77.6875 30.996094 C 77.609375 30.480469 77.476562 29.476562 77.386719 28.769531 C 77.300781 28.058594 77.164062 27.058594 77.085938 26.539062 C 77.007812 26.023438 76.921875 25.277344 76.898438 24.886719 C 76.871094 24.492188 76.800781 24.082031 76.742188 23.96875 C 76.683594 23.859375 76.605469 23.480469 76.574219 23.132812 C 76.457031 21.875 76.25 21.992188 75.886719 23.523438 C 75.742188 24.121094 75.566406 24.855469 75.496094 25.152344 C 75.421875 25.453125 75.3125 25.941406 75.25 26.242188 C 75.183594 26.542969 74.996094 27.410156 74.832031 28.171875 C 74.664062 28.9375 74.46875 29.851562 74.394531 30.203125 C 74.324219 30.558594 74.21875 31.027344 74.164062 31.242188 C 74.105469 31.460938 73.996094 31.953125 73.917969 32.332031 C 73.640625 33.671875 73.347656 35.011719 73.214844 35.550781 C 73.140625 35.851562 73.054688 36.21875 73.019531 36.367188 C 72.917969 36.816406 72.5625 36.726562 72.011719 36.121094 C 70.699219 34.675781 70.648438 33.179688 71.867188 31.835938 C 73.09375 30.488281 73.179688 29.164062 72.136719 27.628906 C 71.933594 27.328125 71.527344 26.734375 71.230469 26.308594 C 70.605469 25.402344 70.078125 23.972656 70.078125 23.171875 C 70.078125 22.148438 69.683594 22.003906 68.914062 22.75 C 67.957031 23.683594 67.644531 25.140625 68.035156 26.867188 C 68.121094 27.257812 68.257812 27.890625 68.335938 28.273438 C 68.414062 28.652344 68.550781 29.277344 68.632812 29.660156 C 69.105469 31.792969 68.832031 33.375 67.800781 34.492188 C 66.972656 35.390625 66.960938 35.378906 65.117188 31.988281 C 64.332031 30.542969 63.257812 28.582031 62.726562 27.628906 C 62.195312 26.675781 61.574219 25.554688 61.347656 25.140625 C 60.523438 23.636719 60.160156 24.09375 60.585938 26.09375 C 60.664062 26.476562 60.734375 27.0625 60.734375 27.398438 C 60.734375 27.738281 60.785156 28.136719 60.84375 28.289062 C 60.902344 28.445312 60.992188 29.039062 61.042969 29.609375 C 61.089844 30.179688 61.179688 30.851562 61.234375 31.09375 C 61.292969 31.339844 61.378906 31.964844 61.425781 32.480469 C 61.546875 33.757812 61.714844 35.050781 61.886719 35.972656 C 61.964844 36.398438 62.027344 36.976562 62.027344 37.261719 C 62.03125 37.546875 62.097656 38.023438 62.175781 38.324219 C 62.445312 39.328125 61.988281 39.558594 61.359375 38.738281 L 61.035156 38.308594 L 61.03125 36.015625 L 61.03125 33.71875 L 60.648438 32.613281 C 60.128906 31.097656 59.566406 30.15625 58.515625 29.042969 C 57.605469 28.078125 57.433594 27.789062 57.164062 26.789062 C 56.960938 26.035156 56.65625 25.933594 56.210938 26.460938 C 55.589844 27.195312 55.402344 28.164062 55.703125 29.121094 C 55.78125 29.363281 55.890625 29.742188 55.953125 29.96875 C 56.011719 30.191406 56.308594 30.703125 56.609375 31.105469 C 58.097656 33.089844 58.261719 34.089844 57.644531 37.417969 C 57.539062 37.980469 57.457031 38.589844 57.457031 38.773438 C 57.457031 39.9375 57.261719 39.824219 53.734375 36.589844 C 53.019531 35.933594 52.078125 35.089844 51.640625 34.714844 C 51.203125 34.335938 50.464844 33.664062 50 33.222656 C 47.523438 30.859375 47.332031 30.9375 48.691406 33.769531 C 49.554688 35.570312 50.035156 36.550781 52.609375 41.789062 C 54.796875 46.234375 54.785156 46.167969 53.351562 46.3125 C 51.757812 46.476562 50.601562 44.753906 50.597656 42.199219 C 50.59375 40.449219 49.253906 38.84375 47.886719 38.953125 C 46.769531 39.039062 45.851562 38.667969 44.730469 37.671875 C 43.890625 36.925781 43.804688 37.003906 43.855469 38.417969 C 43.921875 40.28125 44.910156 41.371094 46.839844 41.710938 C 47.910156 41.898438 48.214844 42.449219 47.925781 43.675781 C 47.664062 44.800781 47.71875 45.78125 48.09375 46.636719 C 48.703125 48.03125 48.5625 48.066406 46.140625 47.132812 C 43.539062 46.125 42.214844 45.613281 40.605469 44.988281 C 36.300781 43.316406 36.289062 43.332031 39.667969 46.445312 C 40.9375 47.617188 42.746094 49.285156 43.683594 50.15625 C 44.625 51.03125 46.003906 52.292969 46.753906 52.964844 C 48.421875 54.46875 48.554688 54.769531 47.691406 55.160156 C 46.367188 55.761719 44.445312 55.117188 44.136719 53.972656 C 43.390625 51.210938 41.867188 49.960938 39.789062 50.398438 C 38.898438 50.585938 37.667969 50.230469 36.027344 49.308594 C 35.390625 48.953125 35.25 49.070312 35.308594 49.898438 C 35.441406 51.710938 36.921875 53.179688 38.765625 53.328125 C 40.507812 53.472656 41.144531 54.046875 42.039062 56.296875 C 42.214844 56.734375 42.578125 57.476562 42.847656 57.945312 C 43.535156 59.140625 43.402344 59.3125 41.949219 59.121094 C 41.539062 59.066406 40.207031 58.980469 38.988281 58.925781 C 37.769531 58.871094 36.734375 58.804688 36.6875 58.777344 C 36.574219 58.707031 31 58.507812 30.9375 58.570312 C 30.78125 58.726562 31.761719 59.25 37.71875 62.203125 C 44.714844 65.667969 44.769531 65.703125 44.53125 66.125 C 43.710938 67.582031 40.757812 67.148438 39.84375 65.4375 C 38.753906 63.402344 37.371094 63.074219 35.496094 64.40625 C 34.382812 65.199219 33.328125 65.433594 32.136719 65.164062 C 31.21875 64.957031 31.152344 65.316406 31.964844 66.101562 C 32.886719 66.992188 33.757812 67.25 35.027344 67 C 36.410156 66.722656 37.304688 66.996094 38.417969 68.035156 C 39.121094 68.691406 39.734375 69.105469 40.160156 69.222656 C 41.300781 69.527344 44.703125 68.15625 46.867188 66.515625 C 47.917969 65.722656 49.261719 64.867188 50 64.519531 L 50.347656 64.355469 L 50.347656 61.8125 C 50.351562 58.597656 50.410156 58.070312 51.019531 55.753906 C 52.363281 50.644531 55.898438 45.671875 60.386719 42.570312 C 62.71875 40.960938 66.351562 39.25 67.632812 39.160156 C 68.210938 39.121094 68.464844 38.914062 68.910156 38.128906 C 70.085938 36.050781 70.585938 35.910156 71.917969 37.285156 L 72.714844 38.105469 L 74.402344 38.027344 C 76.050781 37.949219 78.585938 38.027344 78.800781 38.160156 C 78.859375 38.195312 79.253906 38.273438 79.683594 38.332031 C 88.972656 39.617188 97.007812 46.796875 99.589844 56.117188 C 100.03125 57.699219 100.324219 60.722656 100.179688 62.140625 C 100.140625 62.523438 100.078125 63.234375 100.039062 63.726562 C 100.003906 64.214844 99.933594 64.691406 99.886719 64.785156 C 99.8125 64.929688 100.042969 65.078125 101.464844 65.796875 C 102.382812 66.257812 103.535156 66.867188 104.027344 67.152344 C 106.734375 68.707031 108.625 69.25 111.332031 69.261719 C 113.046875 69.269531 113.082031 69.265625 113.667969 68.988281 C 114.128906 68.769531 114.476562 68.6875 115.207031 68.632812 C 116.558594 68.53125 118.183594 67.824219 117.945312 67.445312 C 117.910156 67.386719 117.8125 67.339844 117.734375 67.339844 C 117.503906 67.339844 117.015625 67.0625 116.339844 66.546875 C 114.882812 65.433594 113.519531 65.5 111.832031 66.773438 C 110.449219 67.816406 109.238281 68.191406 108.488281 67.804688 C 107.988281 67.546875 107.175781 66.867188 107.105469 66.644531 C 106.976562 66.230469 106.929688 66.253906 110.386719 64.847656 C 119.242188 61.253906 119.917969 60.960938 119.855469 60.773438 C 119.792969 60.585938 118.882812 60.550781 113.867188 60.523438 C 108.164062 60.492188 108.492188 60.570312 109.191406 59.421875 C 109.765625 58.480469 110.023438 57.832031 110.097656 57.148438 C 110.296875 55.238281 111.40625 54.273438 113.074219 54.550781 C 114.511719 54.792969 115.855469 54.050781 116.585938 52.613281 C 117.089844 51.625 116.832031 51.449219 115.640625 51.953125 C 114.765625 52.324219 114.753906 52.328125 113.0625 52.382812 L 111.363281 52.4375 L 110.578125 52.824219 C 109.871094 53.171875 109.597656 53.402344 107.929688 55.074219 C 105.433594 57.570312 105.261719 57.644531 104.625 56.511719 C 103.964844 55.332031 103.914062 55.410156 107.0625 52.78125 C 107.484375 52.429688 108.160156 51.855469 108.5625 51.507812 C 108.964844 51.164062 109.832031 50.421875 110.488281 49.859375 C 111.144531 49.296875 111.96875 48.589844 112.324219 48.28125 C 112.679688 47.976562 113.472656 47.308594 114.082031 46.792969 C 116.609375 44.660156 116.445312 44.652344 111.132812 46.691406 C 105.878906 48.710938 104.726562 49.125 104.480469 49.097656 L 104.222656 49.070312 L 104.195312 47.683594 C 104.132812 44.433594 105.097656 42.398438 106.710938 42.382812 C 107.425781 42.378906 108.476562 41.492188 108.921875 40.527344 C 109.515625 39.234375 109.171875 37.59375 108.535156 38.675781 C 108.273438 39.117188 107.933594 39.289062 106.980469 39.472656 C 104.804688 39.886719 103.21875 41.097656 102.269531 43.070312 C 100.992188 45.722656 99.667969 47.070312 98.316406 47.082031 C 97.609375 47.089844 97.652344 46.988281 99.832031 43.199219 C 100.953125 41.253906 102.792969 38.058594 103.921875 36.097656 C 106.632812 31.386719 106.652344 31.253906 104.445312 32.988281 C 102.722656 34.34375 99.449219 36.90625 98.902344 37.332031 C 98.585938 37.578125 97.867188 38.140625 97.300781 38.578125 C 96.132812 39.488281 95.898438 39.632812 95.699219 39.558594 C 95.011719 39.292969 94.199219 34.699219 94.675781 33.777344 C 94.820312 33.503906 95.464844 32.878906 95.609375 32.878906 C 95.839844 32.878906 96.6875 31.855469 97.007812 31.195312 C 97.605469 29.953125 97.480469 27.390625 96.796875 26.972656 C 96.628906 26.867188 96.355469 27.253906 96.078125 27.996094 C 95.515625 29.5 94.855469 30.238281 93.449219 30.941406 C 91.632812 31.851562 91.199219 32.769531 91.714844 34.613281 C 92.210938 36.382812 91.613281 39.015625 90.496094 39.996094 C 89.398438 40.957031 89.117188 40.605469 89.40625 38.640625 C 89.617188 37.21875 89.765625 36.128906 89.914062 34.90625 C 89.984375 34.308594 90.09375 33.640625 90.148438 33.421875 C 90.207031 33.203125 90.253906 32.78125 90.257812 32.480469 C 90.261719 32.183594 90.328125 31.667969 90.40625 31.34375 C 90.484375 31.015625 90.550781 30.550781 90.554688 30.308594 C 90.554688 30.066406 90.621094 29.464844 90.699219 28.972656 C 90.914062 27.617188 91.050781 26.597656 91.160156 25.5 C 91.214844 24.957031 91.300781 24.378906 91.355469 24.222656 C 91.40625 24.066406 91.453125 23.742188 91.453125 23.503906 C 91.453125 22.566406 91.105469 22.964844 89.296875 25.996094 C 87.695312 28.679688 85.339844 32.5625 85.164062 32.808594 C 84.835938 33.273438 84.582031 33.140625 84.335938 32.382812 C 84.085938 31.617188 83.707031 30.847656 83.203125 30.105469 C 82.386719 28.894531 82.417969 27.71875 83.296875 26.628906 C 83.746094 26.070312 83.820312 25.792969 83.75 24.957031 C 83.609375 23.316406 82.691406 21.644531 82.324219 22.355469 "/>
</g>
</svg>
