<?xml version="1.0" encoding="UTF-8"?>
<svg xmlns="http://www.w3.org/2000/svg" xmlns:xlink="http://www.w3.org/1999/xlink" width="150px" height="150px" viewBox="0 0 150 100" version="1.1">
<g id="surface1">
<path style=" stroke:none;fill-rule:evenodd;fill:rgb(98.431373%,98.431373%,98.431373%);fill-opacity:1;" d="M 25.917969 4.160156 C 25.699219 4.230469 25.332031 4.292969 25.105469 4.296875 C 24.867188 4.304688 24.636719 4.371094 24.566406 4.457031 C 24.496094 4.539062 24.316406 4.605469 24.164062 4.605469 C 23.839844 4.605469 23.328125 4.8125 21.507812 5.675781 C 21.066406 5.882812 20.636719 6.109375 20.554688 6.175781 C 20.472656 6.238281 19.863281 6.699219 19.199219 7.191406 C 17.316406 8.601562 15.976562 10.238281 14.824219 12.539062 C 14.613281 12.960938 14.4375 13.371094 14.4375 13.453125 C 14.4375 13.53125 14.371094 13.652344 14.289062 13.71875 C 14.207031 13.789062 14.136719 13.953125 14.136719 14.089844 C 14.136719 14.222656 14.085938 14.429688 14.023438 14.546875 C 13.6875 15.175781 13.292969 17.746094 13.296875 19.277344 C 13.300781 21.023438 13.445312 21.949219 14.011719 23.933594 C 14.402344 25.308594 15.660156 27.683594 16.527344 28.691406 C 17.457031 29.769531 19.394531 31.636719 19.6875 31.734375 C 19.75 31.757812 19.960938 31.894531 20.152344 32.039062 C 20.347656 32.183594 20.753906 32.429688 21.054688 32.582031 C 21.660156 32.886719 21.867188 32.996094 22.132812 33.148438 C 22.230469 33.203125 22.378906 33.273438 22.460938 33.304688 C 22.542969 33.335938 22.746094 33.417969 22.910156 33.488281 C 23.394531 33.695312 23.878906 33.855469 24.414062 33.988281 C 24.691406 34.054688 25.015625 34.164062 25.136719 34.230469 C 25.257812 34.296875 25.621094 34.347656 25.949219 34.347656 C 26.277344 34.347656 26.707031 34.417969 26.90625 34.5 C 27.355469 34.6875 29.820312 34.710938 30.25 34.53125 C 30.402344 34.464844 30.871094 34.382812 31.285156 34.34375 C 31.695312 34.304688 32.261719 34.195312 32.535156 34.105469 C 32.8125 34.011719 33.285156 33.859375 33.589844 33.769531 C 33.894531 33.679688 34.230469 33.546875 34.339844 33.476562 C 34.449219 33.40625 34.628906 33.347656 34.746094 33.347656 C 34.859375 33.347656 35 33.300781 35.058594 33.242188 C 35.117188 33.183594 35.410156 33.011719 35.707031 32.863281 C 37.988281 31.726562 40.425781 29.425781 41.820312 27.089844 C 42.269531 26.34375 42.914062 25.007812 42.917969 24.824219 C 42.917969 24.746094 42.988281 24.597656 43.066406 24.492188 C 43.148438 24.382812 43.21875 24.179688 43.21875 24.039062 C 43.21875 23.898438 43.285156 23.671875 43.367188 23.535156 C 43.445312 23.394531 43.511719 23.136719 43.511719 22.953125 C 43.515625 22.773438 43.589844 22.457031 43.679688 22.253906 C 43.917969 21.703125 43.917969 16.882812 43.679688 16.234375 C 43.589844 15.996094 43.515625 15.671875 43.515625 15.519531 C 43.515625 15.367188 43.449219 15.117188 43.367188 14.957031 C 43.285156 14.800781 43.214844 14.59375 43.214844 14.5 C 43.214844 14.40625 43.144531 14.15625 43.054688 13.949219 C 42.800781 13.359375 42.492188 12.683594 42.398438 12.519531 C 42.351562 12.433594 42.289062 12.3125 42.261719 12.242188 C 42.132812 11.917969 42.097656 11.851562 41.9375 11.601562 C 41.839844 11.457031 41.617188 11.089844 41.4375 10.789062 C 41.257812 10.488281 41.007812 10.136719 40.882812 10.003906 C 40.753906 9.871094 40.359375 9.414062 40.003906 8.984375 C 39.648438 8.554688 39.089844 7.996094 38.769531 7.742188 C 38.449219 7.492188 38.109375 7.207031 38.019531 7.113281 C 37.625 6.707031 35.238281 5.308594 34.941406 5.308594 C 34.875 5.308594 34.765625 5.242188 34.699219 5.164062 C 34.632812 5.085938 34.40625 4.992188 34.191406 4.957031 C 33.976562 4.921875 33.75 4.828125 33.683594 4.75 C 33.617188 4.671875 33.421875 4.605469 33.246094 4.605469 C 33.070312 4.605469 32.839844 4.539062 32.730469 4.460938 C 32.625 4.378906 32.375 4.3125 32.175781 4.308594 C 31.976562 4.308594 31.59375 4.238281 31.324219 4.15625 C 30.667969 3.957031 26.523438 3.960938 25.917969 4.160156 M 24.867188 7.90625 C 24.867188 8.003906 24.933594 8.144531 25.015625 8.210938 C 25.203125 8.367188 25.207031 8.609375 25.027344 8.960938 C 24.667969 9.652344 25.339844 10.335938 26.070312 10.023438 C 26.339844 9.910156 26.671875 9.8125 26.816406 9.8125 C 26.957031 9.8125 27.238281 9.726562 27.4375 9.617188 C 27.75 9.453125 27.925781 9.429688 28.589844 9.480469 C 29.457031 9.550781 29.59375 9.492188 29.832031 8.972656 C 30.265625 8.003906 30.628906 8.132812 30.824219 9.324219 C 30.867188 9.578125 30.960938 9.71875 31.136719 9.796875 C 31.375 9.90625 31.386719 9.945312 31.324219 10.410156 C 31.253906 10.949219 31.632812 11.363281 32.09375 11.242188 C 32.199219 11.214844 32.351562 11.246094 32.433594 11.316406 C 32.515625 11.382812 32.789062 11.449219 33.046875 11.464844 C 33.300781 11.480469 33.652344 11.566406 33.824219 11.652344 C 34 11.738281 34.332031 11.882812 34.5625 11.980469 C 34.859375 12.101562 35.015625 12.238281 35.085938 12.4375 C 35.167969 12.679688 35.226562 12.714844 35.4375 12.660156 C 35.691406 12.597656 36.566406 12.757812 36.964844 12.941406 C 37.085938 13 37.332031 13.019531 37.515625 12.996094 C 38.015625 12.921875 38.554688 13.15625 39.414062 13.820312 C 39.851562 14.15625 40.292969 14.421875 40.425781 14.421875 C 40.957031 14.425781 41.121094 14.542969 41.367188 15.097656 C 41.648438 15.734375 41.695312 16.53125 41.460938 16.722656 C 41.378906 16.792969 41.308594 16.910156 41.308594 16.980469 C 41.308594 17.21875 40.734375 17.972656 40.222656 18.402344 C 39.945312 18.636719 39.6875 18.929688 39.648438 19.050781 C 39.550781 19.363281 39.105469 19.929688 38.960938 19.929688 C 38.601562 19.929688 38.417969 20.371094 38.347656 21.378906 C 38.308594 21.945312 38.21875 22.480469 38.140625 22.605469 C 38.0625 22.726562 38 22.898438 38 22.988281 C 38 23.078125 37.9375 23.273438 37.855469 23.417969 C 37.777344 23.5625 37.6875 23.839844 37.65625 24.035156 C 37.621094 24.253906 37.414062 24.597656 37.097656 24.96875 C 36.824219 25.289062 36.597656 25.59375 36.597656 25.644531 C 36.597656 25.695312 36.4375 25.914062 36.238281 26.132812 L 35.878906 26.53125 L 35.09375 26.507812 C 34.46875 26.492188 34.273438 26.523438 34.117188 26.664062 C 34.011719 26.757812 33.816406 26.839844 33.679688 26.839844 C 33.4375 26.839844 32.4375 27.4375 32.011719 27.835938 C 31.8125 28.019531 31.785156 28.148438 31.785156 28.828125 L 31.785156 29.609375 L 31.371094 29.9375 C 31.144531 30.121094 30.898438 30.421875 30.820312 30.609375 C 30.699219 30.898438 30.640625 30.9375 30.429688 30.882812 C 30.164062 30.816406 30.050781 31.082031 30.304688 31.171875 C 30.375 31.195312 30.394531 31.253906 30.355469 31.300781 C 30.3125 31.34375 30.222656 31.328125 30.160156 31.261719 C 29.964844 31.070312 29.855469 31.128906 29.917969 31.386719 C 29.964844 31.574219 29.933594 31.644531 29.785156 31.691406 C 29.679688 31.726562 29.5625 31.882812 29.527344 32.050781 C 29.445312 32.425781 29.269531 32.535156 29.132812 32.292969 C 28.9375 31.949219 28.046875 31.042969 27.902344 31.042969 C 27.730469 31.042969 26.976562 30.433594 26.972656 30.292969 C 26.96875 30.105469 28.164062 28.933594 28.460938 28.832031 C 28.84375 28.699219 28.945312 28.257812 28.699219 27.808594 C 28.605469 27.632812 28.503906 27.289062 28.476562 27.042969 C 28.433594 26.679688 28.382812 26.585938 28.195312 26.542969 C 28.046875 26.507812 27.878906 26.324219 27.734375 26.035156 C 27.511719 25.589844 27.503906 25.585938 26.914062 25.535156 L 26.320312 25.484375 L 26.292969 24.445312 C 26.273438 23.816406 26.304688 23.359375 26.367188 23.296875 C 26.554688 23.109375 26.476562 22.746094 26.167969 22.398438 C 26.003906 22.210938 25.867188 21.984375 25.867188 21.894531 C 25.867188 21.738281 25.691406 21.667969 25.171875 21.609375 C 24.914062 21.578125 24.847656 21.429688 24.714844 20.609375 C 24.640625 20.128906 24.433594 19.929688 24.019531 19.929688 C 23.835938 19.929688 23.632812 19.859375 23.5625 19.777344 C 23.492188 19.695312 23.359375 19.628906 23.261719 19.628906 C 23.164062 19.628906 23.03125 19.558594 22.960938 19.476562 C 22.894531 19.394531 22.722656 19.328125 22.585938 19.328125 C 22.445312 19.328125 22.183594 19.234375 22 19.121094 C 21.664062 18.914062 21.601562 18.761719 21.535156 17.976562 C 21.496094 17.5625 21.078125 17.511719 20.570312 17.863281 C 20.015625 18.246094 19.5 18.429688 19.167969 18.363281 C 19.007812 18.332031 18.785156 18.355469 18.671875 18.414062 C 18.453125 18.53125 18.347656 18.402344 18.347656 18.023438 C 18.347656 17.765625 18.195312 17.695312 17.957031 17.84375 C 17.714844 17.996094 17.019531 17.660156 16.960938 17.359375 C 16.9375 17.265625 16.816406 17.015625 16.683594 16.804688 C 16.410156 16.375 16.371094 15.90625 16.59375 15.722656 C 16.675781 15.652344 16.746094 15.539062 16.746094 15.472656 C 16.746094 14.871094 17.464844 14.121094 18.042969 14.121094 C 18.527344 14.121094 18.648438 14.027344 18.648438 13.65625 C 18.648438 13.464844 18.71875 13.152344 18.800781 12.953125 C 19.003906 12.464844 18.988281 12.097656 18.746094 11.632812 C 18.585938 11.320312 18.5625 11.191406 18.648438 10.972656 C 18.703125 10.824219 18.75 10.597656 18.75 10.46875 C 18.75 10.203125 18.917969 10.113281 19.402344 10.113281 C 19.589844 10.113281 19.769531 10.070312 19.800781 10.015625 C 19.917969 9.828125 20.238281 9.910156 20.308594 10.140625 C 20.429688 10.527344 20.75 10.765625 20.96875 10.632812 C 21.070312 10.566406 21.242188 10.515625 21.351562 10.515625 C 21.902344 10.515625 22.542969 9.804688 22.28125 9.488281 C 22.222656 9.417969 22.175781 9.25 22.175781 9.113281 C 22.175781 8.976562 22.144531 8.726562 22.105469 8.5625 C 22.046875 8.316406 22.058594 8.285156 22.167969 8.386719 C 22.542969 8.738281 23.832031 8.433594 24.410156 7.855469 C 24.683594 7.585938 24.867188 7.605469 24.867188 7.90625 M 57.65625 8.003906 C 57.535156 8.234375 57.515625 15.003906 57.636719 15.195312 C 57.699219 15.296875 66.773438 15.316406 102.679688 15.296875 L 147.644531 15.273438 L 147.671875 11.765625 C 147.6875 9.839844 147.675781 8.160156 147.644531 8.035156 L 147.589844 7.8125 L 102.675781 7.8125 C 58.371094 7.8125 57.757812 7.8125 57.65625 8.003906 M 30.832031 10.914062 C 30.722656 11.089844 30.882812 11.238281 31.039062 11.109375 C 31.117188 11.046875 31.15625 10.953125 31.125 10.902344 C 31.054688 10.785156 30.910156 10.792969 30.832031 10.914062 M 30.429688 11.617188 C 30.394531 11.671875 30.480469 11.714844 30.625 11.714844 C 30.765625 11.714844 30.882812 11.671875 30.882812 11.617188 C 30.882812 11.5625 30.792969 11.515625 30.6875 11.515625 C 30.582031 11.515625 30.464844 11.5625 30.429688 11.617188 M 32.144531 11.78125 C 32.058594 12 32.171875 12.101562 32.289062 11.914062 C 32.410156 11.726562 32.410156 11.617188 32.296875 11.617188 C 32.246094 11.617188 32.179688 11.691406 32.144531 11.78125 M 57.675781 23.351562 C 57.585938 23.441406 57.554688 24.386719 57.554688 26.988281 C 57.554688 29.589844 57.585938 30.535156 57.675781 30.625 C 57.882812 30.832031 147.554688 30.792969 147.632812 30.585938 C 147.710938 30.378906 147.710938 23.597656 147.632812 23.390625 C 147.554688 23.183594 57.882812 23.144531 57.675781 23.351562 M 2.179688 38.664062 C 1.957031 38.792969 1.90625 45.824219 2.125 46.046875 C 2.300781 46.21875 147.398438 46.21875 147.574219 46.046875 C 147.664062 45.957031 147.695312 45 147.695312 42.359375 C 147.695312 39.722656 147.664062 38.765625 147.574219 38.675781 C 147.414062 38.515625 2.453125 38.503906 2.179688 38.664062 M 2.054688 54.203125 C 2.023438 54.324219 2.011719 56.003906 2.027344 57.933594 L 2.054688 61.4375 L 147.644531 61.4375 L 147.671875 57.933594 C 147.6875 56.003906 147.675781 54.324219 147.644531 54.203125 L 147.589844 53.976562 L 2.109375 53.976562 L 2.054688 54.203125 M 2.066406 69.558594 C 1.988281 69.761719 1.988281 76.542969 2.066406 76.75 C 2.160156 76.996094 147.539062 76.996094 147.632812 76.75 C 147.710938 76.542969 147.710938 69.761719 147.632812 69.558594 C 147.539062 69.3125 2.160156 69.3125 2.066406 69.558594 M 2.070312 84.886719 C 1.878906 85.078125 2.003906 92.121094 2.199219 92.226562 C 2.460938 92.367188 147.070312 92.371094 147.4375 92.234375 L 147.695312 92.136719 L 147.671875 88.503906 L 147.644531 84.871094 L 74.890625 84.84375 C 34.878906 84.832031 2.109375 84.851562 2.070312 84.886719 "/>
<path style=" stroke:none;fill-rule:evenodd;fill:rgb(9.411765%,9.411765%,12.156863%);fill-opacity:1;" d="M 0 50.070312 L 0 100.140625 L 150 100.140625 L 150 0 L 0 0 L 0 50.070312 M 57.359375 2.40625 C 57.542969 2.503906 57.554688 2.640625 57.554688 4.984375 L 57.554688 7.460938 L 102.578125 7.460938 C 142.488281 7.460938 147.613281 7.476562 147.695312 7.609375 C 147.753906 7.699219 147.78125 9.292969 147.769531 11.617188 L 147.742188 15.472656 L 102.648438 15.496094 L 57.554688 15.523438 L 57.554688 22.882812 L 102.398438 22.859375 C 138.421875 22.839844 147.292969 22.859375 147.492188 22.960938 L 147.742188 23.089844 L 147.769531 26.878906 C 147.789062 29.59375 147.765625 30.710938 147.683594 30.808594 C 147.585938 30.921875 140.5 30.945312 102.5625 30.945312 L 57.554688 30.945312 L 57.554688 38.253906 L 102.570312 38.253906 C 147.152344 38.253906 147.585938 38.257812 147.691406 38.449219 C 147.761719 38.578125 147.789062 39.9375 147.769531 42.429688 L 147.742188 46.214844 L 1.957031 46.214844 L 1.992188 24.335938 C 2.011719 12.300781 2.046875 2.417969 2.074219 2.378906 C 2.144531 2.257812 57.132812 2.285156 57.359375 2.40625 M 147.683594 53.8125 C 147.765625 53.910156 147.789062 55.039062 147.769531 57.792969 L 147.742188 61.636719 L 1.957031 61.636719 L 1.929688 57.792969 C 1.910156 55.039062 1.933594 53.910156 2.015625 53.8125 C 2.1875 53.609375 147.511719 53.609375 147.683594 53.8125 M 147.675781 69.21875 C 147.847656 69.390625 147.847656 76.816406 147.675781 76.988281 C 147.5 77.164062 2.199219 77.164062 2.023438 76.988281 C 1.851562 76.816406 1.851562 69.390625 2.023438 69.21875 C 2.199219 69.042969 147.5 69.042969 147.675781 69.21875 M 147.769531 88.476562 C 147.792969 91.964844 147.78125 92.292969 147.625 92.40625 C 147.402344 92.570312 2.40625 92.59375 2.097656 92.425781 C 1.902344 92.324219 1.78125 84.878906 1.972656 84.6875 C 2.007812 84.648438 34.824219 84.632812 74.890625 84.644531 L 147.742188 84.671875 L 147.769531 88.476562 "/>
<path style=" stroke:none;fill-rule:evenodd;fill:rgb(76.862746%,2.352941%,1.960784%);fill-opacity:1;" d="M 2.070312 2.371094 C 2.035156 2.40625 2.007812 10.621094 2.011719 20.621094 C 2.015625 30.621094 2.042969 38.75 2.070312 38.679688 C 2.113281 38.582031 7.78125 38.554688 29.941406 38.554688 C 57.414062 38.554688 57.757812 38.550781 57.65625 38.359375 C 57.511719 38.085938 57.515625 30.980469 57.664062 30.886719 C 57.742188 30.839844 57.742188 30.789062 57.664062 30.710938 C 57.589844 30.636719 57.554688 29.453125 57.554688 26.964844 L 57.554688 23.328125 L 57.777344 23.234375 C 57.933594 23.171875 57.953125 23.144531 57.839844 23.140625 C 57.566406 23.128906 57.554688 22.949219 57.554688 19.175781 C 57.554688 15.8125 57.566406 15.523438 57.730469 15.429688 C 57.894531 15.332031 57.894531 15.328125 57.730469 15.324219 C 57.472656 15.320312 57.457031 7.976562 57.710938 7.832031 C 57.851562 7.753906 57.851562 7.734375 57.710938 7.617188 C 57.574219 7.503906 57.554688 7.132812 57.554688 5 C 57.554688 2.640625 57.542969 2.503906 57.359375 2.40625 C 57.140625 2.289062 2.1875 2.253906 2.070312 2.371094 M 7.644531 2.628906 C 7.726562 2.753906 7.816406 2.988281 7.847656 3.15625 C 7.914062 3.523438 8.199219 4.355469 8.382812 4.738281 C 8.460938 4.894531 8.523438 5.121094 8.523438 5.242188 C 8.523438 5.867188 8.660156 5.910156 10.726562 5.910156 C 12.949219 5.910156 12.960938 5.914062 11.953125 6.644531 C 10.023438 8.050781 9.792969 8.210938 9.722656 8.210938 C 9.566406 8.210938 9.546875 8.496094 9.683594 8.761719 C 9.761719 8.914062 9.824219 9.15625 9.824219 9.304688 C 9.824219 9.453125 9.890625 9.664062 9.972656 9.769531 C 10.054688 9.875 10.121094 10.054688 10.125 10.164062 C 10.125 10.273438 10.199219 10.5 10.285156 10.664062 C 10.371094 10.832031 10.480469 11.144531 10.523438 11.367188 C 10.566406 11.585938 10.621094 11.828125 10.640625 11.90625 C 10.71875 12.191406 10.4375 12.105469 9.875 11.667969 C 9.554688 11.421875 9.261719 11.214844 9.226562 11.214844 C 9.191406 11.214844 8.992188 11.066406 8.789062 10.886719 C 8.585938 10.703125 8.175781 10.425781 7.878906 10.265625 L 7.339844 9.972656 L 6.792969 10.394531 C 6.492188 10.625 6.210938 10.816406 6.167969 10.816406 C 6.125 10.816406 5.925781 10.953125 5.726562 11.121094 C 5.289062 11.492188 4.429688 12.117188 4.359375 12.117188 C 4.25 12.117188 4.320312 11.417969 4.460938 11.152344 C 4.542969 10.996094 4.613281 10.773438 4.613281 10.664062 C 4.617188 10.554688 4.683594 10.351562 4.761719 10.214844 C 4.839844 10.078125 4.90625 9.824219 4.910156 9.652344 C 4.910156 9.480469 4.980469 9.28125 5.0625 9.214844 C 5.429688 8.910156 5.0625 7.835938 4.585938 7.8125 C 4.425781 7.808594 2.21875 6.070312 2.265625 5.992188 C 2.292969 5.945312 3.175781 5.910156 4.21875 5.910156 C 5.945312 5.910156 6.128906 5.890625 6.175781 5.734375 C 6.203125 5.636719 6.292969 5.429688 6.371094 5.273438 C 6.453125 5.117188 6.515625 4.890625 6.515625 4.773438 C 6.515625 4.652344 6.609375 4.386719 6.71875 4.179688 C 6.828125 3.972656 6.917969 3.71875 6.917969 3.609375 C 6.917969 3.5 6.984375 3.261719 7.0625 3.082031 C 7.140625 2.902344 7.230469 2.675781 7.257812 2.578125 C 7.332031 2.339844 7.46875 2.359375 7.644531 2.628906 M 50.140625 2.933594 C 50.175781 3.144531 50.257812 3.367188 50.320312 3.429688 C 50.382812 3.492188 50.433594 3.683594 50.433594 3.851562 C 50.433594 4.023438 50.496094 4.25 50.570312 4.359375 C 50.644531 4.46875 50.734375 4.714844 50.773438 4.90625 C 50.808594 5.101562 50.925781 5.402344 51.035156 5.582031 L 51.234375 5.910156 L 53.085938 5.910156 C 55.4375 5.910156 55.417969 5.875 53.738281 7.058594 C 53.347656 7.335938 52.800781 7.734375 52.523438 7.949219 L 52.015625 8.335938 L 52.082031 8.839844 C 52.121094 9.117188 52.214844 9.4375 52.292969 9.550781 C 52.375 9.664062 52.441406 9.875 52.441406 10.015625 C 52.441406 10.15625 52.5 10.359375 52.578125 10.46875 C 52.652344 10.578125 52.738281 10.800781 52.765625 10.964844 C 52.792969 11.128906 52.878906 11.410156 52.949219 11.589844 C 53.167969 12.113281 52.960938 12.179688 52.382812 11.769531 C 51.648438 11.25 51.457031 11.113281 50.738281 10.574219 C 49.804688 9.875 49.820312 9.871094 48.078125 11.171875 C 46.632812 12.25 46.289062 12.363281 46.664062 11.632812 C 46.753906 11.464844 46.824219 11.246094 46.824219 11.144531 C 46.824219 11.046875 46.886719 10.847656 46.960938 10.707031 C 47.035156 10.5625 47.128906 10.273438 47.167969 10.066406 C 47.207031 9.855469 47.300781 9.589844 47.371094 9.472656 C 47.445312 9.359375 47.527344 9.054688 47.550781 8.796875 L 47.601562 8.332031 L 47.007812 7.894531 C 46.683594 7.65625 46.226562 7.308594 45.996094 7.125 C 45.765625 6.941406 45.363281 6.648438 45.097656 6.476562 C 44.292969 5.949219 44.394531 5.910156 46.464844 5.910156 C 48.601562 5.910156 48.832031 5.804688 48.832031 4.863281 C 48.832031 4.734375 48.898438 4.574219 48.980469 4.507812 C 49.0625 4.4375 49.132812 4.238281 49.132812 4.0625 C 49.132812 3.886719 49.199219 3.65625 49.277344 3.550781 C 49.359375 3.441406 49.425781 3.277344 49.429688 3.1875 C 49.441406 2.449219 50.03125 2.242188 50.140625 2.933594 M 31.238281 4.046875 C 31.511719 4.121094 31.921875 4.210938 32.148438 4.246094 C 32.375 4.277344 32.691406 4.371094 32.847656 4.453125 C 33.007812 4.539062 33.25 4.605469 33.390625 4.609375 C 33.527344 4.609375 33.726562 4.679688 33.835938 4.761719 C 33.941406 4.839844 34.105469 4.90625 34.203125 4.90625 C 34.355469 4.90625 35.582031 5.460938 35.996094 5.714844 C 36.078125 5.765625 36.238281 5.851562 36.347656 5.902344 C 37.195312 6.308594 39.300781 8.015625 40.007812 8.875 C 40.308594 9.246094 40.726562 9.738281 40.933594 9.96875 C 41.140625 10.199219 41.308594 10.417969 41.308594 10.457031 C 41.308594 10.496094 41.441406 10.71875 41.601562 10.949219 C 42.003906 11.535156 42.613281 12.679688 42.613281 12.851562 C 42.613281 12.929688 42.679688 13.050781 42.765625 13.117188 C 42.847656 13.1875 42.914062 13.308594 42.914062 13.390625 C 42.914062 13.472656 42.976562 13.679688 43.054688 13.855469 C 43.269531 14.351562 43.617188 15.464844 43.617188 15.679688 C 43.617188 15.785156 43.691406 16.074219 43.78125 16.324219 C 44.015625 16.984375 44.015625 21.472656 43.78125 22.132812 C 43.691406 22.378906 43.621094 22.671875 43.621094 22.78125 C 43.621094 23.003906 43.265625 24.199219 43.050781 24.710938 C 42.453125 26.132812 42.222656 26.59375 41.886719 27.074219 C 41.734375 27.292969 41.609375 27.519531 41.609375 27.585938 C 41.609375 27.648438 41.476562 27.832031 41.308594 27.988281 C 41.144531 28.148438 41.007812 28.332031 41.007812 28.398438 C 41.007812 28.613281 38.449219 31.253906 38.015625 31.484375 C 37.925781 31.53125 37.625 31.742188 37.347656 31.953125 C 37.074219 32.160156 36.734375 32.382812 36.597656 32.441406 C 36.460938 32.5 36.210938 32.636719 36.046875 32.738281 C 35.40625 33.144531 34.070312 33.746094 33.804688 33.746094 C 33.707031 33.746094 33.539062 33.8125 33.433594 33.894531 C 33.328125 33.976562 33.089844 34.042969 32.910156 34.046875 C 32.726562 34.046875 32.480469 34.109375 32.359375 34.1875 C 32.234375 34.261719 31.804688 34.355469 31.398438 34.390625 C 30.992188 34.421875 30.566406 34.507812 30.445312 34.574219 C 30.148438 34.746094 27.105469 34.746094 26.804688 34.574219 C 26.6875 34.507812 26.257812 34.421875 25.855469 34.390625 C 25.449219 34.355469 25.015625 34.261719 24.894531 34.1875 C 24.773438 34.109375 24.546875 34.046875 24.394531 34.046875 C 24.238281 34.042969 24 33.976562 23.863281 33.898438 C 23.726562 33.820312 23.53125 33.753906 23.429688 33.75 C 23.273438 33.75 21.378906 32.855469 20.804688 32.515625 C 20.007812 32.039062 19.316406 31.554688 18.808594 31.113281 C 17.941406 30.355469 16.042969 28.347656 16.042969 28.1875 C 16.042969 28.144531 15.816406 27.777344 15.542969 27.371094 C 15.265625 26.964844 15.039062 26.570312 15.039062 26.496094 C 15.039062 26.421875 14.972656 26.304688 14.890625 26.238281 C 14.808594 26.167969 14.738281 26.054688 14.738281 25.984375 C 14.738281 25.914062 14.609375 25.59375 14.453125 25.269531 C 14.191406 24.730469 14.023438 24.234375 13.59375 22.722656 C 13.507812 22.414062 13.433594 21.941406 13.433594 21.671875 C 13.433594 21.402344 13.367188 20.957031 13.285156 20.6875 C 13.09375 20.054688 13.09375 18.542969 13.285156 17.824219 C 13.367188 17.523438 13.433594 17.035156 13.433594 16.746094 C 13.433594 16.453125 13.503906 16.054688 13.585938 15.855469 C 13.667969 15.660156 13.738281 15.378906 13.738281 15.234375 C 13.742188 15.089844 13.808594 14.859375 13.886719 14.722656 C 13.964844 14.582031 14.03125 14.386719 14.035156 14.28125 C 14.035156 14.175781 14.125 13.90625 14.230469 13.679688 C 14.335938 13.453125 14.589844 12.910156 14.796875 12.46875 C 15 12.027344 15.296875 11.472656 15.457031 11.234375 C 15.613281 11 15.742188 10.773438 15.742188 10.734375 C 15.742188 10.691406 15.867188 10.523438 16.019531 10.355469 C 16.167969 10.1875 16.40625 9.886719 16.546875 9.6875 C 17.433594 8.425781 19.738281 6.503906 21.355469 5.675781 C 21.660156 5.523438 21.976562 5.359375 22.058594 5.316406 C 22.707031 4.988281 22.898438 4.90625 23.050781 4.90625 C 23.144531 4.90625 23.3125 4.839844 23.417969 4.761719 C 23.523438 4.679688 23.726562 4.609375 23.863281 4.609375 C 24 4.605469 24.246094 4.535156 24.410156 4.449219 C 24.574219 4.367188 24.910156 4.269531 25.164062 4.238281 C 25.414062 4.210938 25.800781 4.125 26.019531 4.050781 C 26.597656 3.855469 30.5625 3.851562 31.238281 4.046875 M 7.820312 26.171875 C 7.878906 26.398438 7.992188 26.734375 8.074219 26.917969 C 8.15625 27.097656 8.222656 27.351562 8.222656 27.480469 C 8.222656 27.609375 8.289062 27.769531 8.371094 27.839844 C 8.457031 27.910156 8.523438 28.117188 8.523438 28.304688 C 8.523438 28.925781 8.699219 28.984375 10.699219 29.042969 C 12.714844 29.097656 12.785156 29.132812 11.976562 29.699219 C 11.667969 29.914062 11.25 30.230469 11.046875 30.398438 C 10.84375 30.570312 10.519531 30.804688 10.324219 30.917969 C 9.675781 31.3125 9.476562 31.59375 9.664062 31.859375 C 9.753906 31.988281 9.828125 32.203125 9.828125 32.34375 C 9.832031 32.480469 9.898438 32.710938 9.976562 32.847656 C 10.054688 32.984375 10.121094 33.1875 10.125 33.300781 C 10.125 33.410156 10.21875 33.667969 10.328125 33.875 C 10.4375 34.078125 10.527344 34.335938 10.527344 34.445312 C 10.527344 34.550781 10.582031 34.753906 10.644531 34.894531 C 10.707031 35.035156 10.738281 35.175781 10.707031 35.203125 C 10.652344 35.261719 9.621094 34.664062 9.507812 34.507812 C 9.472656 34.457031 9.15625 34.222656 8.808594 33.980469 C 8.457031 33.742188 8.007812 33.429688 7.808594 33.292969 L 7.445312 33.039062 L 6.855469 33.445312 C 5.921875 34.085938 5.28125 34.546875 5.046875 34.75 C 4.824219 34.941406 4.46875 35.148438 4.367188 35.148438 C 4.253906 35.148438 4.324219 34.492188 4.460938 34.25 C 4.539062 34.109375 4.609375 33.886719 4.613281 33.746094 C 4.617188 33.609375 4.683594 33.410156 4.765625 33.304688 C 4.847656 33.195312 4.914062 32.972656 4.917969 32.800781 C 4.917969 32.632812 4.984375 32.410156 5.066406 32.300781 C 5.34375 31.9375 5.253906 31.5 4.824219 31.128906 C 4.484375 30.835938 2.90625 29.683594 2.515625 29.445312 C 2.023438 29.148438 2.484375 29.042969 4.289062 29.042969 L 6.078125 29.042969 L 6.292969 28.515625 C 6.410156 28.226562 6.554688 27.800781 6.613281 27.570312 C 6.675781 27.335938 6.765625 27.121094 6.820312 27.085938 C 6.875 27.054688 6.917969 26.882812 6.921875 26.707031 C 6.921875 26.53125 6.992188 26.300781 7.070312 26.191406 C 7.152344 26.085938 7.21875 25.878906 7.21875 25.734375 C 7.21875 25.117188 7.632812 25.421875 7.820312 26.171875 M 50.074219 25.695312 C 50.105469 25.78125 50.136719 25.949219 50.136719 26.070312 C 50.136719 26.191406 50.207031 26.375 50.289062 26.480469 C 50.367188 26.589844 50.433594 26.820312 50.433594 26.996094 C 50.433594 27.171875 50.496094 27.367188 50.570312 27.429688 C 50.648438 27.492188 50.730469 27.710938 50.761719 27.917969 C 50.789062 28.121094 50.910156 28.460938 51.035156 28.664062 L 51.257812 29.042969 L 52.976562 29.042969 C 54.765625 29.042969 55.171875 29.121094 54.796875 29.386719 C 54.6875 29.464844 54.4375 29.648438 54.246094 29.792969 C 54.050781 29.9375 53.554688 30.296875 53.140625 30.589844 C 52.007812 31.402344 52.003906 31.402344 52.070312 31.886719 C 52.105469 32.117188 52.199219 32.4375 52.285156 32.601562 C 52.367188 32.761719 52.441406 33.007812 52.441406 33.148438 C 52.445312 33.285156 52.511719 33.484375 52.59375 33.589844 C 52.675781 33.699219 52.742188 33.902344 52.742188 34.046875 C 52.742188 34.191406 52.808594 34.398438 52.886719 34.503906 C 53.242188 34.972656 53.03125 35.34375 52.597656 35.011719 C 52.273438 34.765625 51.789062 34.421875 50.785156 33.726562 C 50.453125 33.496094 50.125 33.25 50.050781 33.175781 C 49.855469 32.984375 49.761719 33.011719 49.296875 33.378906 C 49.070312 33.5625 48.710938 33.816406 48.503906 33.941406 C 48.296875 34.0625 48.128906 34.195312 48.128906 34.234375 C 48.128906 34.273438 47.980469 34.390625 47.800781 34.492188 C 47.625 34.597656 47.304688 34.816406 47.09375 34.980469 C 46.601562 35.363281 46.417969 35.238281 46.644531 34.675781 C 46.875 34.109375 47.035156 33.636719 47.128906 33.246094 C 47.175781 33.054688 47.28125 32.761719 47.359375 32.597656 C 47.613281 32.070312 47.652344 31.46875 47.453125 31.292969 C 47.152344 31.03125 45.933594 30.144531 45.871094 30.144531 C 45.785156 30.144531 44.773438 29.332031 44.734375 29.230469 C 44.6875 29.101562 44.617188 29.109375 46.570312 29.046875 L 48.371094 28.992188 L 48.601562 28.652344 C 48.726562 28.464844 48.832031 28.191406 48.832031 28.050781 C 48.835938 27.90625 48.902344 27.703125 48.984375 27.59375 C 49.066406 27.488281 49.132812 27.285156 49.132812 27.144531 C 49.136719 27.003906 49.203125 26.777344 49.28125 26.636719 C 49.359375 26.5 49.425781 26.3125 49.429688 26.21875 C 49.441406 25.671875 49.914062 25.285156 50.074219 25.695312 "/>
<path style=" stroke:none;fill-rule:evenodd;fill:rgb(14.117648%,25.098041%,57.647061%);fill-opacity:1;" d="M 57.703125 7.511719 C 57.582031 7.707031 58.332031 7.710938 102.703125 7.738281 C 142.394531 7.757812 147.511719 7.777344 147.597656 7.910156 C 147.75 8.152344 147.722656 15.191406 147.570312 15.289062 C 147.5 15.335938 127.230469 15.394531 102.523438 15.421875 L 57.605469 15.472656 L 147.742188 15.472656 L 147.769531 11.617188 C 147.78125 9.292969 147.753906 7.699219 147.695312 7.609375 C 147.578125 7.425781 57.816406 7.328125 57.703125 7.511719 M 24.410156 7.855469 C 23.832031 8.433594 22.542969 8.738281 22.167969 8.386719 C 22.058594 8.285156 22.046875 8.316406 22.105469 8.5625 C 22.144531 8.726562 22.175781 8.976562 22.175781 9.113281 C 22.175781 9.25 22.222656 9.417969 22.28125 9.488281 C 22.542969 9.804688 21.902344 10.515625 21.351562 10.515625 C 21.242188 10.515625 21.070312 10.566406 20.96875 10.632812 C 20.75 10.765625 20.429688 10.527344 20.308594 10.140625 C 20.238281 9.910156 19.917969 9.828125 19.800781 10.015625 C 19.769531 10.070312 19.589844 10.113281 19.402344 10.113281 C 18.917969 10.113281 18.75 10.203125 18.75 10.46875 C 18.75 10.597656 18.703125 10.824219 18.648438 10.972656 C 18.5625 11.191406 18.585938 11.320312 18.746094 11.632812 C 18.988281 12.097656 19.003906 12.464844 18.800781 12.953125 C 18.71875 13.152344 18.648438 13.464844 18.648438 13.65625 C 18.648438 14.027344 18.527344 14.121094 18.042969 14.121094 C 17.464844 14.121094 16.746094 14.871094 16.746094 15.472656 C 16.746094 15.539062 16.675781 15.652344 16.59375 15.722656 C 16.371094 15.90625 16.410156 16.375 16.683594 16.804688 C 16.816406 17.015625 16.9375 17.265625 16.960938 17.359375 C 17.019531 17.660156 17.714844 17.996094 17.957031 17.84375 C 18.195312 17.695312 18.347656 17.765625 18.347656 18.023438 C 18.347656 18.402344 18.453125 18.53125 18.671875 18.414062 C 18.785156 18.355469 19.007812 18.332031 19.167969 18.363281 C 19.5 18.429688 20.015625 18.246094 20.570312 17.863281 C 21.078125 17.511719 21.496094 17.5625 21.535156 17.976562 C 21.601562 18.761719 21.664062 18.914062 22 19.121094 C 22.183594 19.234375 22.445312 19.328125 22.585938 19.328125 C 22.722656 19.328125 22.894531 19.394531 22.960938 19.476562 C 23.03125 19.558594 23.164062 19.628906 23.261719 19.628906 C 23.359375 19.628906 23.492188 19.695312 23.5625 19.777344 C 23.632812 19.859375 23.835938 19.929688 24.019531 19.929688 C 24.433594 19.929688 24.640625 20.128906 24.714844 20.609375 C 24.847656 21.429688 24.914062 21.578125 25.171875 21.609375 C 25.691406 21.667969 25.867188 21.738281 25.867188 21.894531 C 25.867188 21.984375 26.003906 22.210938 26.167969 22.398438 C 26.476562 22.746094 26.554688 23.109375 26.367188 23.296875 C 26.304688 23.359375 26.273438 23.816406 26.292969 24.445312 L 26.320312 25.484375 L 26.914062 25.535156 C 27.503906 25.585938 27.511719 25.589844 27.734375 26.035156 C 27.878906 26.324219 28.046875 26.507812 28.195312 26.542969 C 28.382812 26.585938 28.433594 26.679688 28.476562 27.042969 C 28.503906 27.289062 28.605469 27.632812 28.699219 27.808594 C 28.945312 28.257812 28.84375 28.699219 28.460938 28.832031 C 28.164062 28.933594 26.96875 30.105469 26.972656 30.292969 C 26.976562 30.433594 27.730469 31.042969 27.902344 31.042969 C 28.046875 31.042969 28.9375 31.949219 29.132812 32.292969 C 29.269531 32.535156 29.445312 32.425781 29.527344 32.050781 C 29.5625 31.882812 29.679688 31.726562 29.785156 31.691406 C 29.933594 31.644531 29.964844 31.574219 29.917969 31.386719 C 29.855469 31.128906 29.964844 31.070312 30.160156 31.261719 C 30.222656 31.328125 30.3125 31.34375 30.355469 31.300781 C 30.394531 31.253906 30.375 31.195312 30.304688 31.171875 C 30.050781 31.082031 30.164062 30.816406 30.429688 30.882812 C 30.640625 30.9375 30.699219 30.898438 30.820312 30.609375 C 30.898438 30.421875 31.144531 30.121094 31.371094 29.9375 L 31.785156 29.609375 L 31.785156 28.828125 C 31.785156 28.148438 31.8125 28.019531 32.011719 27.835938 C 32.4375 27.4375 33.4375 26.839844 33.679688 26.839844 C 33.816406 26.839844 34.011719 26.757812 34.117188 26.664062 C 34.273438 26.523438 34.46875 26.492188 35.09375 26.507812 L 35.878906 26.53125 L 36.238281 26.132812 C 36.4375 25.914062 36.597656 25.695312 36.597656 25.644531 C 36.597656 25.59375 36.824219 25.289062 37.097656 24.96875 C 37.414062 24.597656 37.621094 24.253906 37.65625 24.035156 C 37.6875 23.839844 37.777344 23.5625 37.855469 23.417969 C 37.9375 23.273438 38 23.078125 38 22.988281 C 38 22.898438 38.0625 22.726562 38.140625 22.605469 C 38.21875 22.480469 38.308594 21.945312 38.347656 21.378906 C 38.417969 20.371094 38.601562 19.929688 38.960938 19.929688 C 39.105469 19.929688 39.550781 19.363281 39.648438 19.050781 C 39.6875 18.929688 39.945312 18.636719 40.222656 18.402344 C 40.734375 17.972656 41.308594 17.21875 41.308594 16.980469 C 41.308594 16.910156 41.378906 16.792969 41.460938 16.722656 C 41.695312 16.53125 41.648438 15.734375 41.367188 15.097656 C 41.121094 14.542969 40.957031 14.425781 40.425781 14.421875 C 40.292969 14.421875 39.851562 14.15625 39.414062 13.820312 C 38.554688 13.15625 38.015625 12.921875 37.515625 12.996094 C 37.332031 13.019531 37.085938 13 36.964844 12.941406 C 36.566406 12.757812 35.691406 12.597656 35.4375 12.660156 C 35.226562 12.714844 35.167969 12.679688 35.085938 12.4375 C 35.015625 12.238281 34.859375 12.101562 34.5625 11.980469 C 34.332031 11.882812 34 11.738281 33.824219 11.652344 C 33.652344 11.566406 33.300781 11.480469 33.046875 11.464844 C 32.789062 11.449219 32.515625 11.382812 32.433594 11.316406 C 32.351562 11.246094 32.199219 11.214844 32.09375 11.242188 C 31.632812 11.363281 31.253906 10.949219 31.324219 10.410156 C 31.386719 9.945312 31.375 9.90625 31.136719 9.796875 C 30.960938 9.71875 30.867188 9.578125 30.824219 9.324219 C 30.628906 8.132812 30.265625 8.003906 29.832031 8.972656 C 29.59375 9.492188 29.457031 9.550781 28.589844 9.480469 C 27.925781 9.429688 27.75 9.453125 27.4375 9.617188 C 27.238281 9.726562 26.957031 9.8125 26.816406 9.8125 C 26.671875 9.8125 26.339844 9.910156 26.070312 10.023438 C 25.339844 10.335938 24.667969 9.652344 25.027344 8.960938 C 25.207031 8.609375 25.203125 8.367188 25.015625 8.210938 C 24.933594 8.144531 24.867188 8.003906 24.867188 7.90625 C 24.867188 7.605469 24.683594 7.585938 24.410156 7.855469 M 31.125 10.902344 C 31.15625 10.953125 31.117188 11.046875 31.039062 11.109375 C 30.882812 11.238281 30.722656 11.089844 30.832031 10.914062 C 30.910156 10.792969 31.054688 10.785156 31.125 10.902344 M 30.882812 11.617188 C 30.882812 11.671875 30.765625 11.714844 30.625 11.714844 C 30.480469 11.714844 30.394531 11.671875 30.429688 11.617188 C 30.464844 11.5625 30.582031 11.515625 30.6875 11.515625 C 30.792969 11.515625 30.882812 11.5625 30.882812 11.617188 M 32.386719 11.691406 C 32.382812 11.828125 32.199219 12.0625 32.136719 12.003906 C 32.058594 11.925781 32.183594 11.617188 32.296875 11.617188 C 32.347656 11.617188 32.386719 11.648438 32.386719 11.691406 M 57.699219 22.9375 C 57.664062 23 57.664062 23.078125 57.703125 23.113281 C 57.738281 23.152344 77.992188 23.207031 102.707031 23.234375 L 147.644531 23.28125 L 147.644531 30.695312 L 102.730469 30.71875 C 72.984375 30.734375 57.78125 30.777344 57.714844 30.84375 C 57.648438 30.910156 72.640625 30.945312 102.589844 30.945312 C 140.507812 30.945312 147.585938 30.921875 147.683594 30.808594 C 147.765625 30.710938 147.789062 29.59375 147.769531 26.878906 L 147.742188 23.089844 L 147.492188 22.960938 C 147.160156 22.792969 57.804688 22.769531 57.699219 22.9375 M 57.679688 38.378906 C 57.710938 38.480469 66.796875 38.507812 102.570312 38.53125 C 135.527344 38.546875 147.460938 38.585938 147.558594 38.667969 C 147.746094 38.820312 147.757812 45.859375 147.574219 46.046875 C 147.386719 46.234375 2.273438 46.21875 2.117188 46.03125 C 2.042969 45.941406 2 44.710938 1.980469 42.152344 L 1.953125 38.40625 L 1.953125 42.308594 L 1.957031 46.214844 L 147.742188 46.214844 L 147.769531 42.429688 C 147.789062 39.9375 147.761719 38.578125 147.691406 38.449219 C 147.558594 38.203125 57.597656 38.132812 57.679688 38.378906 M 2.015625 53.8125 C 1.933594 53.910156 1.910156 55.039062 1.929688 57.792969 L 1.957031 61.636719 L 147.742188 61.636719 L 147.769531 57.792969 C 147.789062 55.039062 147.765625 53.910156 147.683594 53.8125 C 147.511719 53.609375 2.1875 53.609375 2.015625 53.8125 M 147.644531 54.203125 C 147.675781 54.324219 147.6875 56.003906 147.671875 57.933594 L 147.644531 61.4375 L 2.054688 61.4375 L 2.027344 57.933594 C 2.011719 56.003906 2.023438 54.324219 2.054688 54.203125 L 2.109375 53.976562 L 147.589844 53.976562 L 147.644531 54.203125 M 2.023438 69.21875 C 1.851562 69.390625 1.851562 76.816406 2.023438 76.988281 C 2.199219 77.164062 147.5 77.164062 147.675781 76.988281 C 147.847656 76.816406 147.847656 69.390625 147.675781 69.21875 C 147.5 69.042969 2.199219 69.042969 2.023438 69.21875 M 147.644531 73.152344 L 147.644531 76.859375 L 2.054688 76.859375 L 2.027344 73.253906 C 2.015625 71.273438 2.023438 69.59375 2.050781 69.523438 C 2.089844 69.421875 16.558594 69.402344 74.871094 69.421875 L 147.644531 69.449219 L 147.644531 73.152344 M 1.972656 84.6875 C 1.78125 84.878906 1.902344 92.324219 2.097656 92.425781 C 2.40625 92.59375 147.402344 92.570312 147.625 92.40625 C 147.78125 92.292969 147.792969 91.964844 147.769531 88.476562 L 147.742188 84.671875 L 74.890625 84.644531 C 34.824219 84.632812 2.007812 84.648438 1.972656 84.6875 M 147.671875 88.476562 C 147.695312 91.777344 147.683594 92.089844 147.527344 92.207031 C 147.28125 92.386719 2.304688 92.390625 2.125 92.210938 C 1.996094 92.082031 1.941406 85.015625 2.070312 84.886719 C 2.109375 84.851562 34.878906 84.832031 74.890625 84.84375 L 147.644531 84.871094 L 147.671875 88.476562 "/>
<path style=" stroke:none;fill-rule:evenodd;fill:rgb(98.431373%,90.980393%,1.568628%);fill-opacity:1;" d="M 7.257812 2.578125 C 7.230469 2.675781 7.140625 2.902344 7.0625 3.082031 C 6.984375 3.261719 6.917969 3.5 6.917969 3.609375 C 6.917969 3.71875 6.828125 3.972656 6.71875 4.179688 C 6.609375 4.386719 6.515625 4.652344 6.515625 4.773438 C 6.515625 4.890625 6.453125 5.117188 6.371094 5.273438 C 6.292969 5.429688 6.203125 5.636719 6.175781 5.734375 C 6.128906 5.890625 5.945312 5.910156 4.21875 5.910156 C 3.175781 5.910156 2.292969 5.945312 2.265625 5.992188 C 2.21875 6.070312 4.425781 7.808594 4.585938 7.8125 C 5.0625 7.835938 5.429688 8.910156 5.0625 9.214844 C 4.980469 9.28125 4.910156 9.480469 4.910156 9.652344 C 4.90625 9.824219 4.839844 10.078125 4.761719 10.214844 C 4.683594 10.351562 4.617188 10.554688 4.613281 10.664062 C 4.613281 10.773438 4.542969 10.996094 4.460938 11.152344 C 4.320312 11.417969 4.25 12.117188 4.359375 12.117188 C 4.429688 12.117188 5.289062 11.492188 5.726562 11.121094 C 5.925781 10.953125 6.125 10.816406 6.167969 10.816406 C 6.210938 10.816406 6.492188 10.625 6.792969 10.394531 L 7.339844 9.972656 L 7.878906 10.265625 C 8.175781 10.425781 8.585938 10.703125 8.789062 10.886719 C 8.992188 11.066406 9.191406 11.214844 9.226562 11.214844 C 9.261719 11.214844 9.554688 11.421875 9.875 11.667969 C 10.4375 12.105469 10.71875 12.191406 10.640625 11.90625 C 10.621094 11.828125 10.566406 11.585938 10.523438 11.367188 C 10.480469 11.144531 10.371094 10.832031 10.285156 10.664062 C 10.199219 10.5 10.125 10.273438 10.125 10.164062 C 10.121094 10.054688 10.054688 9.875 9.972656 9.769531 C 9.890625 9.664062 9.824219 9.453125 9.824219 9.304688 C 9.824219 9.15625 9.761719 8.914062 9.683594 8.761719 C 9.546875 8.496094 9.566406 8.210938 9.722656 8.210938 C 9.792969 8.210938 10.023438 8.050781 11.953125 6.644531 C 12.960938 5.914062 12.949219 5.910156 10.726562 5.910156 C 8.660156 5.910156 8.523438 5.867188 8.523438 5.242188 C 8.523438 5.121094 8.460938 4.894531 8.382812 4.738281 C 8.199219 4.355469 7.914062 3.523438 7.847656 3.15625 C 7.738281 2.570312 7.371094 2.210938 7.257812 2.578125 M 49.53125 2.753906 C 49.476562 2.898438 49.429688 3.09375 49.429688 3.1875 C 49.425781 3.277344 49.359375 3.441406 49.277344 3.550781 C 49.199219 3.65625 49.132812 3.886719 49.132812 4.0625 C 49.132812 4.238281 49.0625 4.4375 48.980469 4.507812 C 48.898438 4.574219 48.832031 4.734375 48.832031 4.863281 C 48.832031 5.804688 48.601562 5.910156 46.464844 5.910156 C 44.394531 5.910156 44.292969 5.949219 45.097656 6.476562 C 45.363281 6.648438 45.765625 6.941406 45.996094 7.125 C 46.226562 7.308594 46.683594 7.65625 47.007812 7.894531 L 47.601562 8.332031 L 47.550781 8.796875 C 47.527344 9.054688 47.445312 9.359375 47.371094 9.472656 C 47.300781 9.589844 47.207031 9.855469 47.167969 10.066406 C 47.128906 10.273438 47.035156 10.5625 46.960938 10.707031 C 46.886719 10.847656 46.824219 11.046875 46.824219 11.144531 C 46.824219 11.246094 46.753906 11.464844 46.664062 11.632812 C 46.289062 12.363281 46.632812 12.25 48.078125 11.171875 C 49.820312 9.871094 49.804688 9.875 50.738281 10.574219 C 52.941406 12.222656 53.273438 12.378906 52.949219 11.589844 C 52.878906 11.410156 52.792969 11.128906 52.765625 10.964844 C 52.738281 10.800781 52.652344 10.578125 52.578125 10.46875 C 52.5 10.359375 52.441406 10.15625 52.441406 10.015625 C 52.441406 9.875 52.375 9.664062 52.292969 9.550781 C 52.214844 9.4375 52.121094 9.117188 52.082031 8.839844 L 52.015625 8.335938 L 52.523438 7.949219 C 52.800781 7.734375 53.347656 7.335938 53.738281 7.058594 C 55.417969 5.875 55.4375 5.910156 53.085938 5.910156 L 51.234375 5.910156 L 51.035156 5.582031 C 50.925781 5.402344 50.808594 5.101562 50.773438 4.90625 C 50.734375 4.714844 50.644531 4.46875 50.570312 4.359375 C 50.496094 4.25 50.433594 4.023438 50.433594 3.851562 C 50.433594 3.683594 50.382812 3.492188 50.320312 3.429688 C 50.257812 3.367188 50.175781 3.144531 50.140625 2.933594 C 50.0625 2.445312 49.691406 2.335938 49.53125 2.753906 M 27.503906 3.980469 C 28.15625 3.996094 29.191406 3.996094 29.808594 3.980469 C 30.425781 3.960938 29.894531 3.949219 28.625 3.949219 C 27.359375 3.949219 26.851562 3.964844 27.503906 3.980469 M 31.132812 4.105469 C 31.242188 4.152344 31.402344 4.191406 31.484375 4.191406 C 31.578125 4.191406 31.558594 4.160156 31.433594 4.105469 C 31.324219 4.058594 31.164062 4.019531 31.082031 4.019531 C 30.988281 4.019531 31.007812 4.050781 31.132812 4.105469 M 25.09375 4.273438 C 25.1875 4.300781 25.347656 4.300781 25.441406 4.273438 C 25.539062 4.25 25.460938 4.230469 25.265625 4.230469 C 25.074219 4.230469 24.996094 4.25 25.09375 4.273438 M 31.808594 4.273438 C 31.90625 4.300781 32.0625 4.300781 32.160156 4.273438 C 32.257812 4.25 32.179688 4.230469 31.984375 4.230469 C 31.792969 4.230469 31.714844 4.25 31.808594 4.273438 M 22.617188 5.058594 C 22.507812 5.140625 22.34375 5.207031 22.253906 5.207031 C 22.160156 5.207031 22.023438 5.28125 21.945312 5.375 C 21.824219 5.523438 21.828125 5.527344 22.007812 5.4375 C 22.117188 5.378906 22.414062 5.238281 22.660156 5.121094 C 22.910156 5.003906 23.042969 4.910156 22.960938 4.910156 C 22.878906 4.914062 22.722656 4.980469 22.617188 5.058594 M 36.398438 6.011719 C 36.746094 6.25 36.941406 6.316406 36.699219 6.117188 C 36.558594 6.003906 36.402344 5.914062 36.347656 5.910156 C 36.292969 5.910156 36.3125 5.957031 36.398438 6.011719 M 19.96875 6.507812 C 19.738281 6.675781 19.550781 6.835938 19.550781 6.867188 C 19.550781 6.914062 20.117188 6.527344 20.398438 6.289062 C 20.636719 6.089844 20.34375 6.238281 19.96875 6.507812 M 37.042969 6.398438 C 37.074219 6.449219 37.257812 6.582031 37.457031 6.699219 C 37.652344 6.816406 37.789062 6.871094 37.757812 6.820312 C 37.726562 6.769531 37.539062 6.636719 37.34375 6.519531 C 37.148438 6.402344 37.011719 6.347656 37.042969 6.398438 M 38.703125 7.640625 C 38.703125 7.664062 38.914062 7.859375 39.175781 8.074219 C 39.433594 8.285156 39.613281 8.40625 39.574219 8.34375 C 39.488281 8.207031 38.703125 7.574219 38.703125 7.640625 M 80.195312 7.785156 C 92.511719 7.800781 112.636719 7.800781 124.917969 7.785156 C 137.195312 7.773438 127.117188 7.761719 102.523438 7.761719 C 77.925781 7.761719 67.882812 7.773438 80.195312 7.785156 M 40.054688 9.039062 C 40.324219 9.355469 40.5625 9.613281 40.585938 9.613281 C 40.652344 9.613281 40.039062 8.871094 39.796875 8.664062 C 39.667969 8.550781 39.785156 8.722656 40.054688 9.039062 M 16.769531 9.386719 C 16.460938 9.785156 16.238281 10.140625 16.410156 9.964844 C 16.613281 9.757812 17.160156 9.011719 17.113281 9.011719 C 17.085938 9.011719 16.929688 9.183594 16.769531 9.386719 M 15.386719 11.324219 C 15.148438 11.699219 14.941406 12.136719 15.054688 12.015625 C 15.167969 11.902344 15.738281 10.914062 15.691406 10.914062 C 15.664062 10.914062 15.527344 11.097656 15.386719 11.324219 M 43.539062 15.621094 C 43.539062 15.816406 43.558594 15.894531 43.585938 15.796875 C 43.609375 15.699219 43.609375 15.542969 43.585938 15.445312 C 43.558594 15.351562 43.539062 15.429688 43.539062 15.621094 M 80.1875 15.398438 C 92.5 15.410156 112.648438 15.410156 124.957031 15.398438 C 137.269531 15.382812 127.195312 15.371094 102.574219 15.371094 C 77.949219 15.371094 67.878906 15.382812 80.1875 15.398438 M 13.460938 16.472656 C 13.460938 16.695312 13.484375 16.773438 13.507812 16.648438 C 13.53125 16.523438 13.53125 16.34375 13.503906 16.246094 C 13.480469 16.152344 13.460938 16.253906 13.460938 16.472656 M 43.851562 17.425781 C 43.851562 17.894531 43.867188 18.085938 43.890625 17.851562 C 43.910156 17.617188 43.910156 17.234375 43.890625 17 C 43.867188 16.765625 43.851562 16.957031 43.851562 17.425781 M 13.171875 19.277344 C 13.171875 19.882812 13.1875 20.117188 13.210938 19.800781 C 13.230469 19.480469 13.230469 18.984375 13.210938 18.699219 C 13.1875 18.410156 13.171875 18.671875 13.171875 19.277344 M 43.949219 19.226562 C 43.949219 19.640625 43.96875 19.808594 43.988281 19.601562 C 44.011719 19.394531 44.011719 19.058594 43.988281 18.851562 C 43.96875 18.644531 43.949219 18.8125 43.949219 19.226562 M 43.851562 21.03125 C 43.851562 21.5 43.867188 21.691406 43.890625 21.457031 C 43.910156 21.222656 43.910156 20.839844 43.890625 20.605469 C 43.867188 20.371094 43.851562 20.5625 43.851562 21.03125 M 13.25 20.527344 C 13.25 20.613281 13.289062 20.769531 13.335938 20.878906 C 13.390625 21.007812 13.421875 21.023438 13.421875 20.929688 C 13.421875 20.847656 13.382812 20.691406 13.335938 20.578125 C 13.28125 20.453125 13.25 20.433594 13.25 20.527344 M 13.460938 22.03125 C 13.460938 22.222656 13.480469 22.304688 13.503906 22.207031 C 13.53125 22.109375 13.53125 21.953125 13.503906 21.855469 C 13.480469 21.757812 13.460938 21.839844 13.460938 22.03125 M 43.539062 22.832031 C 43.539062 23.023438 43.558594 23.105469 43.585938 23.007812 C 43.609375 22.910156 43.609375 22.753906 43.585938 22.65625 C 43.558594 22.5625 43.539062 22.640625 43.539062 22.832031 M 43.332031 23.585938 C 43.269531 23.726562 43.21875 23.898438 43.21875 23.964844 C 43.222656 24.03125 43.289062 23.929688 43.371094 23.742188 C 43.542969 23.347656 43.507812 23.207031 43.332031 23.585938 M 7.292969 25.394531 C 7.253906 25.4375 7.21875 25.589844 7.21875 25.734375 C 7.21875 25.878906 7.152344 26.085938 7.070312 26.191406 C 6.992188 26.300781 6.921875 26.53125 6.921875 26.707031 C 6.917969 26.882812 6.875 27.054688 6.820312 27.085938 C 6.765625 27.121094 6.675781 27.335938 6.613281 27.570312 C 6.554688 27.800781 6.410156 28.226562 6.292969 28.515625 L 6.078125 29.042969 L 4.289062 29.042969 C 2.484375 29.042969 2.023438 29.148438 2.515625 29.445312 C 2.90625 29.683594 4.484375 30.835938 4.824219 31.128906 C 5.253906 31.5 5.34375 31.9375 5.066406 32.300781 C 4.984375 32.410156 4.917969 32.632812 4.917969 32.800781 C 4.914062 32.972656 4.847656 33.195312 4.765625 33.304688 C 4.683594 33.410156 4.617188 33.609375 4.613281 33.746094 C 4.609375 33.886719 4.539062 34.109375 4.460938 34.25 C 4.324219 34.492188 4.253906 35.148438 4.367188 35.148438 C 4.46875 35.148438 4.824219 34.941406 5.046875 34.75 C 5.28125 34.546875 5.921875 34.085938 6.855469 33.445312 L 7.445312 33.039062 L 7.808594 33.292969 C 8.007812 33.429688 8.457031 33.742188 8.808594 33.980469 C 9.15625 34.222656 9.472656 34.457031 9.507812 34.507812 C 9.621094 34.664062 10.652344 35.261719 10.707031 35.203125 C 10.738281 35.175781 10.707031 35.035156 10.644531 34.894531 C 10.582031 34.753906 10.527344 34.550781 10.527344 34.445312 C 10.527344 34.335938 10.4375 34.078125 10.328125 33.875 C 10.21875 33.667969 10.125 33.410156 10.125 33.300781 C 10.121094 33.1875 10.054688 32.984375 9.976562 32.847656 C 9.898438 32.710938 9.832031 32.480469 9.828125 32.34375 C 9.828125 32.203125 9.753906 31.988281 9.664062 31.859375 C 9.476562 31.59375 9.675781 31.3125 10.324219 30.917969 C 10.519531 30.804688 10.84375 30.570312 11.046875 30.398438 C 11.25 30.230469 11.667969 29.914062 11.976562 29.699219 C 12.785156 29.132812 12.714844 29.097656 10.699219 29.042969 C 8.699219 28.984375 8.523438 28.925781 8.523438 28.304688 C 8.523438 28.117188 8.457031 27.910156 8.371094 27.839844 C 8.289062 27.769531 8.222656 27.609375 8.222656 27.480469 C 8.222656 27.351562 8.15625 27.097656 8.074219 26.917969 C 7.992188 26.734375 7.878906 26.398438 7.820312 26.171875 C 7.707031 25.714844 7.410156 25.277344 7.292969 25.394531 M 49.53125 25.792969 C 49.476562 25.933594 49.429688 26.125 49.429688 26.21875 C 49.425781 26.3125 49.359375 26.5 49.28125 26.636719 C 49.203125 26.777344 49.136719 27.003906 49.132812 27.144531 C 49.132812 27.285156 49.066406 27.488281 48.984375 27.59375 C 48.902344 27.703125 48.835938 27.90625 48.832031 28.050781 C 48.832031 28.191406 48.726562 28.464844 48.601562 28.652344 L 48.371094 28.992188 L 46.570312 29.046875 C 44.617188 29.109375 44.6875 29.101562 44.734375 29.230469 C 44.773438 29.332031 45.785156 30.144531 45.871094 30.144531 C 45.933594 30.144531 47.152344 31.03125 47.453125 31.292969 C 47.652344 31.46875 47.613281 32.070312 47.359375 32.597656 C 47.28125 32.761719 47.175781 33.054688 47.128906 33.246094 C 47.035156 33.636719 46.875 34.109375 46.644531 34.675781 C 46.417969 35.238281 46.601562 35.363281 47.09375 34.980469 C 47.304688 34.816406 47.625 34.597656 47.800781 34.492188 C 47.980469 34.390625 48.128906 34.273438 48.128906 34.234375 C 48.128906 34.195312 48.296875 34.0625 48.503906 33.941406 C 48.710938 33.816406 49.070312 33.5625 49.296875 33.378906 C 49.761719 33.011719 49.855469 32.984375 50.050781 33.175781 C 50.125 33.25 50.453125 33.496094 50.785156 33.726562 C 51.789062 34.421875 52.273438 34.765625 52.597656 35.011719 C 53.03125 35.34375 53.242188 34.972656 52.886719 34.503906 C 52.808594 34.398438 52.742188 34.191406 52.742188 34.046875 C 52.742188 33.902344 52.675781 33.699219 52.59375 33.589844 C 52.511719 33.484375 52.445312 33.285156 52.441406 33.148438 C 52.441406 33.007812 52.367188 32.761719 52.285156 32.601562 C 52.199219 32.4375 52.105469 32.117188 52.070312 31.886719 C 52.003906 31.402344 52.007812 31.402344 53.140625 30.589844 C 53.554688 30.296875 54.050781 29.9375 54.246094 29.792969 C 54.4375 29.648438 54.6875 29.464844 54.796875 29.386719 C 55.171875 29.121094 54.765625 29.042969 52.976562 29.042969 L 51.257812 29.042969 L 51.035156 28.664062 C 50.910156 28.460938 50.789062 28.121094 50.761719 27.917969 C 50.730469 27.710938 50.648438 27.492188 50.570312 27.429688 C 50.496094 27.367188 50.433594 27.171875 50.433594 26.996094 C 50.433594 26.820312 50.367188 26.589844 50.289062 26.480469 C 50.207031 26.375 50.136719 26.191406 50.136719 26.070312 C 50.128906 25.507812 49.710938 25.316406 49.53125 25.792969 M 42.417969 25.957031 C 42.339844 26.140625 42.261719 26.332031 42.238281 26.386719 C 42.214844 26.441406 42.296875 26.34375 42.414062 26.164062 C 42.535156 25.984375 42.617188 25.792969 42.597656 25.734375 C 42.578125 25.675781 42.496094 25.777344 42.417969 25.957031 M 15.046875 26.523438 C 15.042969 26.597656 15.128906 26.769531 15.242188 26.910156 C 15.351562 27.050781 15.441406 27.117188 15.441406 27.058594 C 15.441406 27 15.394531 26.921875 15.332031 26.882812 C 15.273438 26.847656 15.1875 26.722656 15.140625 26.601562 C 15.09375 26.484375 15.050781 26.449219 15.046875 26.523438 M 16.042969 28.203125 C 16.042969 28.257812 16.210938 28.457031 16.417969 28.644531 L 16.792969 28.992188 L 16.445312 28.589844 C 16.25 28.371094 16.082031 28.171875 16.066406 28.148438 C 16.054688 28.125 16.042969 28.148438 16.042969 28.203125 M 17.40625 29.761719 C 17.785156 30.160156 18.257812 30.621094 18.449219 30.785156 C 18.640625 30.949219 18.351562 30.625 17.800781 30.0625 C 17.25 29.5 16.777344 29.042969 16.753906 29.042969 C 16.730469 29.042969 17.023438 29.367188 17.40625 29.761719 M 38.398438 31.117188 L 38.050781 31.496094 L 38.425781 31.148438 C 38.632812 30.960938 38.804688 30.789062 38.804688 30.773438 C 38.804688 30.699219 38.71875 30.769531 38.398438 31.117188 M 36.960938 32.105469 C 36.695312 32.292969 36.519531 32.445312 36.570312 32.445312 C 36.679688 32.445312 37.5 31.871094 37.5 31.792969 C 37.5 31.726562 37.519531 31.71875 36.960938 32.105469 M 22.558594 33.417969 C 22.644531 33.449219 22.800781 33.515625 22.910156 33.566406 C 23.109375 33.65625 23.109375 33.65625 22.917969 33.503906 C 22.808594 33.417969 22.652344 33.351562 22.566406 33.355469 C 22.429688 33.363281 22.429688 33.371094 22.558594 33.417969 M 34.335938 33.503906 C 34.226562 33.589844 34.199219 33.632812 34.273438 33.59375 C 34.347656 33.558594 34.527344 33.488281 34.675781 33.445312 C 34.890625 33.378906 34.902344 33.363281 34.738281 33.355469 C 34.625 33.351562 34.441406 33.417969 34.335938 33.503906 M 33.039062 33.949219 L 32.738281 34.023438 L 33.007812 34.035156 C 33.15625 34.042969 33.304688 34.003906 33.339844 33.949219 C 33.375 33.894531 33.386719 33.855469 33.371094 33.859375 C 33.351562 33.867188 33.203125 33.90625 33.039062 33.949219 M 26.371094 34.453125 C 26.5625 34.496094 26.832031 34.5625 26.972656 34.597656 C 27.132812 34.636719 27.101562 34.605469 26.886719 34.503906 C 26.699219 34.417969 26.429688 34.355469 26.285156 34.359375 C 26.054688 34.371094 26.070312 34.382812 26.371094 34.453125 M 30.332031 34.511719 C 30.082031 34.632812 30.074219 34.648438 30.28125 34.59375 C 30.417969 34.558594 30.6875 34.496094 30.882812 34.453125 C 31.226562 34.375 31.226562 34.371094 30.933594 34.367188 C 30.765625 34.367188 30.496094 34.429688 30.332031 34.511719 M 28.054688 34.722656 C 28.402344 34.742188 28.941406 34.742188 29.257812 34.722656 C 29.570312 34.703125 29.289062 34.6875 28.625 34.6875 C 27.964844 34.6875 27.707031 34.703125 28.054688 34.722656 "/>
</g>
</svg>
