<?xml version="1.0" encoding="UTF-8"?>
<svg xmlns="http://www.w3.org/2000/svg" xmlns:xlink="http://www.w3.org/1999/xlink" width="150px" height="150px" viewBox="0 0 150 100" version="1.1">
<g id="surface1">
<rect x="0" y="0" width="150" height="100" style="fill:rgb(0%,20%,40.000001%);fill-opacity:1;stroke:none;"/>
<path style=" stroke:none;fill-rule:evenodd;fill:rgb(100%,100%,100%);fill-opacity:1;" d="M 8.304688 18.667969 C 4.074219 32.769531 21.082031 44.164062 32.664062 33.941406 C 44.8125 21.183594 31.257812 3.953125 17.175781 9.453125 C 27.453125 7.6875 33.578125 19.558594 26.667969 26.96875 C 19.996094 33.785156 7.824219 29.304688 8.304688 18.667969 Z M 82.511719 16.921875 C 81.972656 17.171875 81.574219 17.902344 81.347656 18.476562 C 80.808594 20.082031 80.253906 21.683594 79.710938 23.289062 C 79.429688 24.011719 79.15625 24.742188 78.871094 25.460938 C 78.347656 25.386719 79.074219 24.496094 79.035156 24.113281 C 79.207031 23.328125 79.59375 22.558594 79.625 21.757812 C 79.496094 21.15625 79.640625 20.378906 79.339844 19.890625 C 78.898438 20.917969 78.332031 21.898438 77.949219 22.949219 C 77.664062 24.207031 77.277344 25.445312 77.117188 26.730469 C 77.019531 27.394531 76.902344 28.050781 76.6875 28.6875 C 76.152344 28.636719 76.292969 27.699219 75.980469 27.3125 C 75.695312 26.40625 75.125 25.625 74.710938 24.777344 C 74.5 24.566406 74.015625 23.089844 74.023438 23.914062 C 73.976562 24.507812 73.933594 25.105469 73.878906 25.699219 C 72.695312 23.488281 71.511719 21.277344 70.324219 19.066406 C 70.421875 19.785156 70.320312 20.558594 70.582031 21.238281 C 71.15625 22.476562 71.683594 23.738281 72.230469 24.988281 C 71.941406 25.261719 71.882812 24.808594 71.738281 24.625 L 68.457031 18.828125 C 68.015625 19.136719 68.320312 19.710938 68.265625 20.160156 C 68.445312 20.785156 68.863281 21.347656 69.144531 21.945312 C 69.664062 22.914062 70.195312 23.878906 70.726562 24.835938 C 70.347656 25.257812 70.140625 24.066406 69.867188 23.796875 C 68.875 22.082031 67.894531 20.359375 66.878906 18.65625 C 66.429688 18.8125 66.292969 19.140625 66.367188 19.570312 C 66.292969 20.003906 66.472656 20.375 66.722656 20.722656 C 67.488281 22.046875 68.261719 23.371094 69.035156 24.691406 C 68.773438 24.996094 68.695312 24.550781 68.542969 24.375 L 64.8125 18.476562 C 64.511719 18.339844 64.082031 17.976562 64.179688 18.578125 C 64.035156 19.332031 64.855469 19.859375 65.125 20.511719 C 66.230469 22.222656 67.367188 23.941406 68.46875 25.636719 C 68.238281 25.945312 68.132812 25.550781 67.984375 25.378906 L 65.890625 22.40625 C 65.628906 22.339844 65.292969 22.171875 65.390625 22.59375 C 65.375 22.863281 65.304688 23.144531 65.53125 23.347656 C 66.648438 25.023438 67.785156 26.691406 68.890625 28.375 C 69.25 29.105469 69.574219 29.863281 69.953125 30.582031 L 71.867188 32.550781 C 71.410156 32.917969 70.945312 31.75 70.488281 31.539062 C 70.003906 30.992188 69.355469 30.558594 69.082031 29.863281 C 68.753906 29.34375 68.5625 28.726562 68.050781 28.347656 C 67.484375 27.921875 67.050781 27.148438 66.394531 26.957031 C 66.179688 27.425781 66.355469 28.476562 66.988281 28.839844 C 67.054688 29.015625 67.945312 29.613281 67.453125 29.492188 C 66.496094 29.386719 65.59375 29.050781 64.695312 28.71875 C 64.152344 29.238281 65.992188 29.65625 64.957031 29.871094 C 64.210938 29.878906 63.632812 29.203125 62.949219 28.953125 C 61.25 28.019531 59.503906 27.164062 57.761719 26.308594 L 56.679688 25.980469 C 56.578125 26.613281 57.5625 26.789062 57.890625 27.234375 C 59.210938 27.949219 60.5625 28.625 61.886719 29.339844 C 61.84375 29.738281 61.484375 29.4375 61.246094 29.398438 L 53.816406 27.007812 C 53.398438 26.90625 53.472656 27.125 53.640625 27.40625 C 53.679688 27.730469 54.003906 27.746094 54.253906 27.839844 C 56.199219 28.492188 58.144531 29.152344 60.089844 29.800781 C 60.164062 30.105469 60.230469 30.417969 60.296875 30.726562 C 59.855469 30.363281 59.417969 29.945312 58.8125 29.90625 C 57.546875 29.59375 56.242188 29.859375 54.957031 29.871094 C 54.273438 29.707031 54.183594 30.261719 54.867188 30.378906 C 55.414062 30.804688 56.121094 30.566406 56.757812 30.601562 C 57.796875 30.570312 58.832031 30.535156 59.867188 30.5 C 60.050781 31.089844 58.855469 30.695312 58.8125 31.175781 C 58.691406 31.742188 59.765625 31.742188 60.152344 31.628906 C 60.746094 31.636719 61.15625 30.757812 61.660156 30.90625 C 61.53125 31.472656 60.539062 31.597656 60.425781 32.179688 C 60.351562 32.765625 61.546875 32.59375 61.886719 32.34375 C 62.285156 32.011719 62.972656 31.511719 63.007812 32.398438 C 63.125 33.199219 64.179688 32.890625 64.757812 33.160156 C 65.78125 33.316406 66.832031 33.382812 67.847656 33.550781 C 68.820312 33.992188 69.796875 34.429688 70.765625 34.871094 C 70.566406 35.421875 69.710938 34.585938 69.269531 34.621094 C 68.535156 34.414062 67.859375 34 67.078125 33.992188 C 66.402344 33.867188 65.726562 33.882812 65.050781 33.960938 C 63 34.132812 60.945312 34.269531 58.898438 34.460938 C 56.996094 34.785156 55.085938 35.09375 53.179688 35.40625 C 52.695312 35.558594 51.644531 35.839844 52.652344 36.035156 C 54.8125 35.933594 56.972656 35.753906 59.132812 35.589844 C 59.289062 35.96875 58.824219 35.839844 58.59375 35.898438 L 53.203125 36.445312 C 52.652344 36.855469 51.914062 37.078125 51.613281 37.746094 C 51.699219 38.699219 52.890625 37.828125 53.480469 37.890625 C 55.035156 37.628906 56.582031 37.382812 58.082031 36.902344 C 58.527344 36.941406 59.644531 36.144531 59.710938 36.714844 C 58.015625 37.238281 56.320312 37.769531 54.609375 38.242188 L 53.519531 38.496094 C 53.414062 39.371094 54.734375 38.859375 55.273438 39 C 56.460938 38.722656 57.589844 38.242188 58.761719 37.910156 C 59.386719 37.859375 60.332031 37.128906 60.785156 37.429688 C 60.382812 37.839844 59.449219 38.054688 58.863281 38.394531 C 57.660156 38.921875 56.4375 39.40625 55.261719 40.007812 C 54.488281 40.789062 56.085938 40.71875 56.476562 40.3125 C 57.730469 39.738281 58.972656 39.128906 60.207031 38.507812 C 60.511719 38.757812 60.066406 38.878906 59.90625 39.050781 C 59.207031 39.601562 58.523438 40.167969 57.742188 40.597656 C 57.441406 40.839844 56.945312 40.925781 56.886719 41.371094 C 57.570312 41.761719 58.226562 41.289062 58.84375 40.980469 C 60.449219 39.941406 62.074219 38.921875 63.710938 37.929688 C 64.417969 37.613281 65.144531 37.339844 65.863281 37.050781 C 66.140625 37.328125 65.6875 37.410156 65.515625 37.574219 C 64.726562 38.101562 63.933594 38.625 63.144531 39.15625 C 62.285156 40.046875 61.503906 41.027344 60.488281 41.75 C 60.015625 42.148438 59.53125 42.503906 59.15625 42.941406 C 58.410156 43.6875 57.640625 44.410156 56.90625 45.164062 C 56.675781 45.929688 56.183594 46.644531 56.238281 47.460938 C 56.25 48.34375 56.148438 49.234375 56.230469 50.109375 C 56.320312 50.472656 56.53125 51.300781 56.601562 50.472656 C 56.640625 50.09375 56.902344 48.785156 57.183594 49.703125 C 57.339844 50.046875 57.488281 51.078125 57.671875 50.902344 C 57.941406 50.371094 57.988281 49.625 58.421875 49.222656 C 58.804688 49.449219 59.109375 50 59.472656 49.363281 C 59.9375 48.824219 59.867188 48.011719 60.097656 47.355469 C 60.296875 46.5 60.5 45.648438 60.699219 44.792969 C 61.0625 44.6875 60.976562 45.128906 61.066406 45.355469 L 61.414062 46.933594 C 62.210938 46.589844 61.886719 45.515625 62.140625 44.835938 C 62.191406 44.328125 62.355469 42.988281 62.902344 44.011719 C 63.222656 44.78125 64.109375 43.894531 64.082031 43.335938 C 64.265625 42.449219 64.4375 41.558594 64.625 40.671875 C 64.863281 41.097656 65.109375 41.515625 65.355469 41.9375 C 66.183594 41.898438 66.46875 41.066406 67.007812 40.574219 C 67.488281 40.074219 67.921875 39.492188 68.457031 39.054688 C 69.066406 38.742188 69.640625 38.320312 70.269531 38.050781 C 70.882812 38.617188 69.957031 39.382812 69.609375 39.867188 C 68.832031 40.828125 67.871094 41.621094 67.054688 42.550781 C 66.734375 42.921875 66.234375 43.230469 66.367188 43.785156 C 66.777344 43.964844 67.203125 44.132812 67.613281 44.316406 C 66.992188 44.628906 66.324219 44.894531 65.75 45.273438 C 65.195312 45.753906 64.597656 46.179688 64.015625 46.625 C 63.855469 47.046875 63.753906 47.523438 64.378906 47.347656 C 64.828125 47.273438 66.027344 47.464844 65.085938 47.902344 C 64.195312 48.484375 63.167969 48.84375 62.289062 49.417969 C 62.046875 49.742188 61.394531 50.253906 62.191406 50.230469 C 62.722656 50.152344 63.515625 49.34375 63.910156 49.753906 C 63.351562 50.371094 62.628906 50.96875 62.019531 51.582031 C 61.707031 51.824219 61.015625 52.496094 61.425781 52.683594 C 62.394531 52.21875 63.074219 51.347656 63.898438 50.6875 C 64.1875 50.226562 64.964844 49.816406 64.71875 50.714844 C 63.761719 51.90625 62.835938 53.132812 61.851562 54.296875 C 61.949219 55.460938 62.699219 53.960938 63.070312 53.648438 C 63.644531 52.96875 64.179688 52.238281 64.933594 51.742188 C 65.195312 51.683594 65.882812 50.703125 65.921875 51.105469 C 65.902344 51.4375 66.007812 51.8125 65.722656 52.070312 C 65.125 52.875 64.730469 53.792969 64.242188 54.660156 C 64.160156 55.035156 64.078125 56.113281 64.617188 55.605469 C 65.261719 54.402344 66.050781 53.277344 66.558594 52.003906 C 67.078125 50.910156 67.429688 49.738281 67.863281 48.621094 C 68.230469 48.070312 68.410156 48.257812 68.359375 48.832031 C 68.417969 49.363281 68.398438 50.503906 68.765625 50.582031 C 69.433594 49.054688 70.273438 47.613281 70.984375 46.109375 C 71.230469 45.375 71.523438 44.652344 71.828125 43.9375 C 72.210938 43.898438 72.035156 44.316406 72.074219 44.558594 C 72.046875 45.042969 72.125 45.546875 72.035156 46.019531 C 71.621094 47.210938 71.3125 48.4375 70.734375 49.5625 C 70.382812 50.285156 69.890625 50.9375 69.550781 51.664062 C 69.210938 52.105469 69.335938 52.109375 69.71875 51.851562 C 70.394531 51.539062 70.851562 50.960938 71.320312 50.410156 C 72.054688 49.816406 71.507812 51.160156 71.339844 51.445312 C 70.9375 52.582031 70.679688 53.777344 70.222656 54.898438 C 70.21875 55.238281 70.101562 56.023438 70.535156 55.421875 C 71.347656 54.785156 71.644531 53.769531 72.132812 52.898438 C 72.425781 53.328125 72.980469 53.578125 73.25 53.046875 C 73.207031 52.375 72.894531 51.679688 73.199219 51.027344 C 73.496094 49.953125 73.742188 48.855469 73.910156 47.753906 C 73.992188 47.085938 74.035156 46.40625 74.121094 45.738281 C 74.492188 45.546875 74.335938 46.136719 74.363281 46.363281 L 74.363281 47.894531 C 74.730469 47.9375 75.402344 47.289062 75.589844 47.714844 C 75.222656 48.03125 74.660156 48.226562 74.324219 48.570312 L 74.28125 49.851562 L 75.648438 49.023438 C 75.972656 49.25 75.542969 49.40625 75.398438 49.59375 L 74.277344 50.640625 L 74.257812 51.546875 C 74.574219 51.445312 74.894531 51.355469 75.207031 51.25 C 75.46875 51.546875 75.019531 51.613281 74.835938 51.765625 C 74.625 51.960938 74.152344 51.996094 74.21875 52.359375 C 74.195312 53.28125 74.164062 54.203125 74.125 55.125 C 74.292969 54.796875 74.878906 54.003906 74.792969 53.957031 C 74.601562 54.335938 73.902344 54.359375 74.378906 53.96875 C 74.574219 53.726562 75.65625 52.957031 75.273438 53.726562 C 74.902344 54.261719 74.578125 54.976562 74.1875 55.417969 C 74.078125 55.40625 73.945312 56.195312 74.28125 56.039062 C 74.558594 56.230469 75.421875 56.316406 74.828125 56.648438 C 74.574219 56.902344 74.253906 57.128906 74.039062 57.402344 C 74.054688 58.175781 73.859375 59.460938 74.011719 59.90625 C 74.238281 59.589844 74.988281 59.011719 74.832031 58.859375 C 74.515625 59.011719 73.550781 58.9375 74.226562 58.695312 C 74.636719 58.539062 75.78125 58.492188 75.050781 59.140625 C 74.660156 59.835938 73.730469 60.054688 73.90625 60.816406 C 73.910156 61.378906 73.679688 61.71875 74.367188 61.617188 C 75.152344 61.546875 75.207031 62.316406 74.5 62.523438 C 74.011719 62.808594 73.585938 62.789062 73.878906 63.4375 C 74.03125 63.863281 75.082031 64.148438 74.816406 64.589844 C 74.777344 64.09375 74.667969 64.78125 74.394531 64.28125 C 74.0625 64.015625 73.632812 63.382812 73.773438 64.222656 C 73.710938 65.824219 73.648438 67.429688 73.585938 69.03125 C 73.914062 68.929688 74.5 69.394531 74.507812 69.609375 C 74.167969 69.921875 73.351562 68.542969 73.5625 69.636719 C 73.574219 70.128906 73.445312 71.039062 73.546875 71.269531 C 73.710938 71.128906 73.972656 71.523438 74.171875 71.59375 L 74.863281 72.070312 C 74.734375 72.460938 74.464844 72.058594 74.25 71.953125 L 73.488281 71.429688 C 73.550781 72.078125 73.261719 73.277344 73.527344 73.617188 C 73.824219 73.835938 74.605469 74.46875 74.585938 74.824219 C 74.199219 74.925781 73.640625 73.773438 73.398438 73.839844 C 73.359375 74.8125 73.324219 75.785156 73.289062 76.757812 C 73.695312 76.894531 74.515625 77.421875 74.730469 77.753906 C 74.363281 78.066406 73.589844 76.910156 73.273438 77.058594 C 73.214844 77.84375 73.261719 78.648438 73.148438 79.421875 C 73 79.988281 74.554688 79.847656 74.21875 80.425781 C 73.644531 80.238281 72.851562 79.414062 72.84375 80.476562 C 72.722656 81.320312 71.953125 82.183594 72.550781 82.988281 C 72.78125 83.636719 73.523438 83.914062 74.074219 84.246094 C 74.726562 84.140625 75.355469 83.820312 76.035156 83.792969 C 77.039062 83.636719 78.058594 83.582031 79.058594 83.421875 C 79.480469 83.113281 80.003906 82.820312 79.367188 82.425781 C 78.859375 81.804688 78.980469 80.917969 78.6875 80.210938 C 78.6875 79.636719 78.566406 79.386719 78.0625 79.800781 C 77.664062 79.878906 77.050781 80.726562 76.824219 80.199219 C 77.417969 79.914062 77.953125 79.539062 78.554688 79.261719 C 78.484375 78.507812 78.339844 77.761719 78.355469 77.003906 C 77.878906 77.308594 77.179688 77.945312 76.722656 77.855469 C 76.910156 77.433594 77.816406 77.246094 78.203125 76.800781 C 78.484375 76.796875 78.300781 76.398438 78.347656 76.164062 L 78.328125 74.195312 C 77.890625 74.691406 77.363281 75.046875 76.699219 75.152344 C 76.203125 74.722656 77.453125 74.875 77.613281 74.507812 C 77.914062 74.171875 78.464844 73.960938 78.320312 73.433594 L 78.304688 71.691406 C 77.917969 71.949219 77.207031 72.871094 76.835938 72.488281 C 77.238281 72.128906 78.113281 71.785156 78.296875 71.246094 L 78.273438 68.988281 C 77.855469 69.542969 77.285156 69.925781 76.613281 70.101562 C 76.285156 70.464844 75.609375 70.140625 76.28125 69.957031 C 76.9375 69.742188 77.597656 69.503906 78.003906 68.90625 C 78.375 68.710938 78.25 68.355469 78.265625 67.992188 L 78.246094 66.382812 C 77.464844 67.074219 76.757812 67.84375 75.980469 68.546875 C 75.574219 68.113281 76.742188 67.742188 76.90625 67.3125 C 77.292969 66.851562 77.949219 66.402344 78.246094 66.003906 L 78.226562 64.25 C 77.929688 64.523438 77.445312 64.875 78.058594 64.542969 C 78.332031 64.851562 77.851562 64.882812 77.648438 65.019531 C 77.371094 65.148438 77.09375 65.277344 76.820312 65.40625 C 76.527344 64.863281 77.753906 64.597656 78 64.121094 C 78.328125 64.199219 78.207031 63.890625 78.222656 63.566406 L 78.210938 62.34375 C 77.800781 63.085938 76.984375 62.65625 76.335938 62.519531 C 75.855469 62.480469 76.308594 62.335938 76.507812 62.214844 L 78.050781 61.386719 C 78.34375 61.679688 77.863281 61.734375 77.667969 61.878906 L 76.753906 62.363281 C 77.328125 62.679688 78.027344 62.476562 78.203125 61.921875 C 78.203125 60.941406 78.175781 59.976562 78.128906 58.996094 C 77.675781 59.449219 77.417969 59.945312 76.855469 60.148438 C 77.117188 60.027344 78.199219 60.183594 77.472656 60.375 C 77.054688 60.457031 75.664062 60.511719 76.636719 59.976562 C 77.136719 59.78125 77.457031 59.417969 77.773438 59 C 78.152344 58.785156 78.148438 58.636719 78.097656 58.195312 L 78.019531 56.382812 C 77.792969 56.664062 76.820312 57.433594 77.066406 57.433594 C 77.359375 57.25 78.5 57.195312 77.820312 57.527344 C 77.386719 57.5 76.445312 58.105469 76.289062 57.574219 C 76.898438 57.226562 77.34375 56.679688 77.847656 56.203125 C 78.144531 56.238281 77.949219 55.804688 77.988281 55.535156 L 77.769531 50.097656 C 77.484375 50.351562 76.289062 51.316406 76.726562 50.359375 C 77.019531 50.023438 77.316406 49.4375 77.640625 49.324219 C 77.855469 49.214844 77.660156 48.816406 77.710938 48.59375 C 77.757812 48.039062 77.421875 47.566406 77.253906 47.058594 C 77.242188 46.851562 76.855469 46.488281 77.183594 46.425781 C 77.546875 46.730469 77.71875 47.5625 78.011719 48.054688 C 78.453125 49.085938 78.960938 50.09375 79.355469 51.144531 C 79.570312 52.015625 79.800781 52.886719 79.832031 53.792969 C 80.054688 53.710938 80.46875 53.84375 80.453125 53.5 C 80.503906 53.15625 80.75 52.804688 80.535156 52.480469 C 79.5625 49.828125 78.453125 47.230469 77.421875 44.597656 C 77.667969 44.34375 77.746094 44.691406 77.84375 44.898438 C 78.441406 46.09375 78.835938 47.378906 79.332031 48.617188 C 79.839844 49.960938 80.375 51.296875 80.984375 52.597656 C 81.921875 52.050781 81.144531 51.070312 81.011719 50.277344 C 80.574219 48.824219 79.980469 47.421875 79.472656 45.992188 C 79.324219 45.738281 78.992188 45.617188 78.773438 45.414062 C 78.449219 45.179688 78.117188 44.9375 77.800781 44.699219 C 78.066406 44.199219 78.652344 45.078125 79.058594 45.121094 C 79.757812 45.859375 79.929688 44.726562 80.550781 44.597656 C 80.722656 45.234375 79.546875 45.75 80.171875 46.488281 C 80.625 48.03125 81.03125 49.589844 81.628906 51.082031 C 81.730469 51.351562 81.828125 51.621094 81.925781 51.890625 C 81.726562 52.183594 82.011719 53.429688 82.425781 53.109375 C 82.566406 52.433594 83 51.769531 82.632812 51.089844 C 82.097656 49.039062 81.359375 47.046875 80.738281 45.019531 C 80.75 44.28125 81.210938 45.335938 81.261719 45.652344 C 81.972656 47.589844 82.746094 49.507812 83.375 51.46875 C 83.242188 52.046875 83.246094 53.265625 83.996094 52.578125 C 84.03125 51.808594 84.089844 51.019531 83.769531 50.292969 C 83.121094 48.558594 82.601562 46.773438 82.023438 45.015625 C 81.691406 45.375 81.066406 45.03125 80.972656 44.632812 C 81.082031 43.757812 80.359375 43.78125 79.707031 43.839844 C 79.421875 43.808594 80.207031 43.402344 80.296875 43.253906 C 80.648438 43.058594 81.402344 42.464844 80.675781 42.308594 C 80.445312 42.203125 80.214844 42.09375 79.984375 41.988281 C 80.328125 41.394531 80.6875 40.808594 81.144531 40.292969 C 81.425781 39.777344 81.210938 38.855469 80.664062 38.542969 C 80.269531 38.324219 80.3125 37.820312 80.15625 37.449219 C 79.949219 37.230469 80.15625 36.804688 80.320312 37.125 L 80.632812 38.1875 C 81.230469 38.507812 81.507812 39.035156 81.492188 39.699219 C 81.765625 40.316406 81.046875 40.691406 80.78125 41.160156 C 80.625 41.390625 80.492188 41.636719 80.34375 41.875 C 80.675781 42.03125 81.015625 42.175781 81.34375 42.339844 C 81.410156 42.964844 80.332031 43.378906 80.410156 43.59375 C 81.457031 43.3125 80.824219 44.769531 81.613281 44.890625 C 81.882812 44.886719 82.117188 44.621094 82.371094 44.511719 C 82.824219 44.597656 82.179688 44.808594 82.285156 45.011719 C 83.132812 47.308594 84 49.609375 84.804688 51.917969 C 84.726562 52.75 85.523438 52.859375 86.015625 53.207031 C 86.085938 53.652344 86.296875 54.496094 86.769531 54.316406 C 86.789062 53.125 86.863281 51.925781 86.867188 50.738281 C 86.933594 50.332031 86.242188 49.347656 86.808594 49.300781 C 87.128906 50.230469 87.546875 51.136719 87.765625 52.097656 C 87.921875 52.71875 87.613281 53.730469 88.507812 53.824219 C 88.902344 53.984375 88.597656 52.554688 89.019531 52.941406 L 89.71875 53.496094 C 90.660156 53.519531 89.960938 52.484375 89.976562 51.953125 C 89.675781 51.214844 89.394531 50.46875 89.101562 49.726562 C 89.539062 49.546875 88.863281 49.792969 88.992188 49.320312 C 88.890625 48.589844 88.417969 48.039062 87.992188 47.46875 C 87.8125 47.082031 87.824219 46.621094 87.488281 47.171875 C 87.089844 47.503906 87.265625 48.050781 87.546875 48.398438 C 88 49.101562 87.957031 50.035156 88.527344 50.671875 C 88.777344 51.085938 89.113281 51.5 89.023438 52.007812 C 89.046875 52.242188 89.066406 52.710938 88.773438 52.484375 C 88.734375 52.085938 88.878906 51.65625 88.632812 51.339844 C 88.332031 50.746094 87.898438 50.375 87.777344 49.707031 C 87.648438 49.039062 87.273438 48.464844 86.992188 47.859375 C 87.054688 47.710938 86.050781 47.9375 86.128906 47.625 C 86.40625 47.585938 86.359375 47.464844 86.828125 47.570312 C 87.183594 47.269531 87.179688 46.699219 86.941406 46.324219 C 86.46875 45.265625 85.742188 44.335938 85.210938 43.308594 C 85.078125 42.640625 85.34375 41.8125 84.703125 41.347656 C 84.039062 40.699219 83.703125 39.828125 83.332031 39 C 82.902344 38.40625 82.210938 38.054688 81.714844 37.515625 C 81.445312 37.601562 80.425781 37.632812 80.929688 37.328125 C 81.628906 37.046875 82.105469 37.445312 82.550781 37.917969 C 83.054688 38.308594 83.59375 38.714844 83.761719 39.363281 C 84.078125 40.117188 84.488281 40.8125 85.070312 41.390625 C 85.585938 41.875 85.320312 42.644531 85.457031 43.265625 C 86.089844 44.414062 86.9375 45.460938 87.363281 46.714844 C 87.273438 47.261719 87.515625 46.539062 87.773438 46.601562 C 87.75 45.984375 87.964844 45.144531 87.566406 44.566406 C 87.148438 43.789062 86.660156 43.039062 86.28125 42.246094 C 86.019531 41.679688 85.695312 40.96875 85.402344 40.351562 C 85.09375 39.636719 84.648438 38.996094 84.222656 38.34375 C 84.644531 37.902344 84.867188 39.175781 85.191406 39.394531 C 85.929688 40.699219 86.394531 42.140625 87.199219 43.40625 C 87.433594 43.960938 87.933594 44.449219 88.039062 45.042969 C 88.117188 45.394531 87.898438 46.542969 88.183594 46.445312 C 88.328125 46.171875 88.472656 45.894531 88.617188 45.617188 C 88.84375 45.511719 89.300781 45.578125 89.355469 45.328125 C 89.433594 44.554688 88.65625 43.992188 88.578125 43.234375 C 88.359375 42.199219 87.945312 41.21875 87.429688 40.300781 C 86.875 39.089844 86.066406 38.011719 85.628906 36.746094 C 85.511719 36.007812 86.113281 36.949219 86.125 37.292969 C 86.550781 38.261719 87.171875 39.128906 87.609375 40.09375 C 88.027344 40.878906 88.425781 41.667969 88.65625 42.53125 C 88.8125 43.34375 89.148438 44.09375 89.570312 44.808594 C 89.644531 45.132812 89.5625 45.382812 89.839844 45.414062 C 89.96875 45.710938 89.347656 45.5625 89.589844 46.019531 C 89.664062 46.304688 89.515625 47.382812 89.304688 46.769531 C 89.320312 46.261719 89.5625 45.4375 88.835938 45.828125 C 88.644531 45.992188 88.570312 46.3125 88.421875 46.535156 C 88.300781 46.839844 87.84375 46.820312 88.152344 47.25 C 88.558594 47.855469 89.101562 48.394531 89.207031 49.148438 C 89.292969 49.820312 89.851562 50.273438 90.1875 50.855469 C 90.554688 51.230469 90.984375 52.382812 91.351562 52.175781 C 91.515625 51.460938 90.886719 50.984375 90.65625 50.363281 C 90.164062 49.3125 89.71875 48.238281 89.25 47.179688 C 89.632812 47.453125 90.117188 47.613281 90.335938 48.066406 C 91.207031 49.226562 92.066406 50.402344 92.964844 51.546875 C 93.902344 51.996094 93.328125 50.824219 93.039062 50.457031 C 92.324219 49.011719 91.339844 47.71875 90.496094 46.34375 C 90.308594 46.15625 89.722656 45.246094 90.269531 45.527344 L 93.171875 49.105469 C 93.496094 49.328125 94.085938 49.511719 93.890625 48.957031 C 93.0625 47.445312 92.007812 46.070312 91.085938 44.613281 C 90.117188 43.238281 89.300781 41.773438 88.433594 40.332031 C 88.890625 39.964844 89.488281 40.890625 89.996094 41.011719 C 90.808594 41.457031 91.53125 42.023438 92.195312 42.664062 C 93.316406 43.636719 94.394531 44.667969 95.558594 45.589844 C 96.140625 45.90625 96.59375 46.460938 97.21875 46.667969 C 97.226562 46.460938 96.578125 45.671875 96.851562 45.675781 C 97.503906 45.863281 98.125 46.132812 98.726562 46.433594 C 99.132812 46.636719 100.398438 47.113281 99.765625 46.285156 C 99.5625 45.871094 98.601562 45.648438 98.757812 45.199219 C 98.9375 45.105469 99.226562 45.40625 99.449219 45.464844 C 99.957031 45.769531 100.527344 45.90625 101.113281 45.988281 C 101.964844 45.953125 101.429688 45.0625 100.851562 45.058594 C 99.53125 44.351562 98.21875 43.628906 96.902344 42.914062 C 97.175781 42.359375 98.066406 43.238281 98.582031 43.207031 C 98.882812 43.113281 99.988281 43.339844 99.601562 42.820312 C 99.4375 42.621094 99.097656 42.613281 98.863281 42.492188 C 97.0625 41.835938 95.253906 41.191406 93.453125 40.535156 C 92.6875 40.015625 91.90625 39.515625 91.132812 39.003906 C 91.25 38.53125 92.023438 39.140625 92.410156 39.09375 C 93.085938 39.269531 93.761719 39.414062 94.464844 39.40625 C 94.914062 39.417969 95.855469 39.535156 96.019531 39.460938 C 95.722656 39.296875 94.40625 38.917969 95.160156 38.710938 C 95.535156 38.6875 96.71875 38.664062 95.710938 38.628906 C 94.992188 38.554688 94.246094 38.578125 93.554688 38.390625 C 93.644531 38.132812 94 38.230469 94.46875 38.28125 C 94.976562 38.453125 96.011719 38.15625 96.210938 38.582031 C 96.714844 38.746094 97.605469 38.535156 98.253906 38.574219 C 99.15625 38.496094 100.148438 38.621094 100.992188 38.398438 C 101.285156 37.941406 102.167969 37.789062 102.152344 37.195312 C 102.09375 36.644531 102.085938 36.074219 101.996094 35.53125 C 101.808594 35.328125 101.769531 34.910156 101.449219 34.894531 C 100.597656 34.753906 99.785156 34.519531 98.980469 34.230469 C 97.300781 34.1875 95.613281 34.203125 93.9375 34.105469 C 93.394531 34.070312 92.75 34.558594 92.125 34.527344 C 91.164062 34.621094 90.179688 34.542969 89.246094 34.839844 C 88.886719 35.121094 88.386719 34.71875 88.960938 34.644531 C 89.683594 34.453125 90.414062 34.324219 91.164062 34.335938 C 91.921875 34.3125 92.6875 34.253906 93.394531 33.941406 C 93.828125 33.648438 93.921875 34.148438 94.007812 33.601562 C 94.40625 33.453125 95.671875 33.558594 95.375 33.140625 C 93.808594 33.195312 92.246094 33.214844 90.679688 33.242188 C 90.117188 33.1875 89.398438 33.535156 88.84375 33.800781 C 88.191406 34.066406 88.726562 33.40625 89.132812 33.386719 C 89.824219 32.976562 90.6875 33.078125 91.359375 32.632812 C 92.410156 32.140625 93.398438 31.523438 94.421875 30.984375 C 94.6875 30.746094 95.429688 30.378906 94.644531 30.304688 C 94.03125 30.164062 93.375 30.515625 92.738281 30.523438 C 91.898438 30.671875 92.738281 29.941406 93.054688 29.800781 C 94.035156 29.296875 94.996094 28.742188 95.933594 28.160156 C 96.230469 27.929688 97.109375 27.777344 96.828125 27.398438 C 96.03125 27.664062 95.242188 28.042969 94.429688 28.265625 C 94.152344 28.332031 92.90625 28.484375 93.523438 28 C 94.722656 27.207031 95.902344 26.386719 97.089844 25.578125 C 97.488281 25.046875 97.199219 25.03125 96.726562 25.25 C 96.175781 25.417969 95.761719 25.867188 95.25 26.128906 C 95.074219 26.4375 94.089844 26.699219 94.613281 26.164062 C 95.144531 25.703125 95.660156 25.226562 96.214844 24.792969 C 96.496094 24.402344 96.785156 23.472656 96.023438 23.910156 C 95.53125 24.167969 94.902344 24.207031 94.558594 24.683594 C 93.957031 25.3125 93.339844 25.9375 92.742188 26.566406 C 92.308594 26.15625 93.4375 25.707031 93.574219 25.273438 C 94.066406 24.710938 94.582031 24.164062 95.019531 23.566406 C 95.113281 23.074219 95.136719 22.726562 94.636719 23.070312 L 93.90625 23.382812 C 93.980469 23.890625 92.902344 24.421875 92.5625 24.925781 C 91.980469 25.417969 91.195312 25.625 90.6875 26.214844 C 90.277344 25.78125 91.398438 25.449219 91.6875 25.195312 C 92.5 24.800781 93.050781 24.054688 93.707031 23.453125 C 92.988281 23.597656 92.164062 23.566406 91.742188 24.28125 C 90.65625 25.316406 89.601562 26.382812 88.488281 27.382812 C 87.136719 28.324219 85.757812 29.246094 84.367188 30.121094 C 83.734375 30.378906 82.828125 30.167969 82.527344 30.933594 C 81.996094 31.679688 81.367188 32.347656 80.777344 33.046875 C 81.414062 32.90625 82.015625 33.050781 82.589844 33.335938 C 83.144531 33.527344 83.613281 33.910156 84.140625 34.148438 C 84.023438 34.675781 83.296875 35.074219 82.726562 34.976562 C 82.367188 34.964844 82.046875 34.722656 81.699219 34.621094 C 81.734375 34.207031 82.085938 34.539062 82.320312 34.597656 C 82.78125 34.847656 83.402344 34.75 83.742188 34.34375 C 83.566406 33.980469 82.628906 33.613281 82.082031 33.410156 C 81.589844 33.113281 81.023438 33.316406 80.488281 33.324219 C 79.851562 33.46875 80.664062 32.90625 80.757812 32.6875 C 81.460938 31.898438 82.128906 31.085938 82.738281 30.222656 C 82.695312 29.585938 83.402344 29.136719 83.636719 28.546875 C 84.328125 27.527344 84.6875 26.324219 85.21875 25.21875 C 85.441406 24.753906 85.328125 24.214844 85.386719 23.714844 C 85.367188 23.441406 85.464844 23.148438 85.371094 22.890625 C 84.875 23.796875 84.371094 24.703125 83.898438 25.617188 C 83.3125 25.648438 83.835938 24.726562 84.003906 24.488281 C 84.453125 23.582031 84.957031 22.691406 85.375 21.777344 L 85.414062 20.632812 C 85.035156 20.304688 84.847656 21.425781 84.546875 21.6875 C 83.890625 22.777344 83.285156 23.90625 82.601562 24.976562 C 82.535156 25.339844 81.808594 25.605469 82.101562 25.089844 C 83.078125 23.292969 84.082031 21.503906 85.082031 19.722656 C 85.484375 19.011719 85.355469 18.175781 85.414062 17.394531 C 85.027344 16.78125 84.757812 17.722656 84.449219 17.964844 C 84.050781 18.457031 83.90625 19.101562 83.601562 19.652344 C 83.109375 20.722656 82.597656 21.789062 82.097656 22.855469 C 81.535156 22.625 82.421875 21.785156 82.429688 21.316406 C 82.910156 20.074219 83.386719 18.832031 83.867188 17.589844 C 83.625 17.089844 83.085938 18.40625 82.832031 18.707031 C 82.378906 19.726562 81.847656 20.714844 81.34375 21.710938 C 80.800781 21.472656 81.671875 20.644531 81.648438 20.195312 C 81.910156 19.4375 82.253906 18.691406 82.507812 17.945312 C 82.46875 17.664062 82.867188 16.933594 82.511719 16.921875 Z M 85.972656 30.460938 C 86.097656 30.957031 85.347656 31.183594 85.042969 31.570312 C 84.65625 31.714844 83.273438 32.050781 83.867188 32.363281 C 84.261719 32.15625 84.65625 31.949219 85.046875 31.738281 C 85.550781 32.214844 86.3125 32.726562 86.25 33.453125 C 85.773438 33.574219 85.976562 32.519531 85.410156 32.421875 C 85.148438 31.96875 84.816406 32.082031 84.464844 32.332031 C 84.183594 32.484375 83.894531 32.625 83.621094 32.78125 C 83.152344 32.140625 83.671875 31.625 84.347656 31.546875 C 85.015625 31.441406 85.40625 30.867188 85.910156 30.480469 L 85.925781 30.46875 Z M 89.535156 31.84375 C 89.582031 32.40625 88.59375 32.160156 88.328125 32.632812 C 87.898438 32.84375 87.464844 33.480469 87.082031 33.476562 C 86.65625 33.394531 87.589844 32.984375 87.738281 32.753906 C 88.277344 32.320312 88.824219 31.925781 89.535156 31.84375 Z M 94.101562 34.035156 C 93.992188 34.140625 94.070312 34.117188 94.101562 34.035156 Z M 81.199219 34.582031 C 81.78125 34.800781 82.402344 34.941406 82.898438 35.34375 C 83.535156 35.570312 83.566406 36.300781 83.753906 36.851562 C 83.769531 37.207031 83.464844 38.339844 83.140625 38.097656 C 83.269531 37.578125 83.734375 36.933594 83.34375 36.339844 C 83.292969 35.683594 82.609375 35.5 82.152344 35.183594 L 81.109375 34.816406 Z M 97.644531 34.644531 C 98.832031 34.695312 100.027344 34.746094 101.207031 34.859375 C 101.335938 35 100.96875 35.007812 101.023438 35.078125 C 99.496094 35.011719 97.96875 34.824219 96.441406 34.949219 C 95.722656 34.859375 95.097656 35.40625 94.375 35.25 C 93.988281 35.328125 93.097656 35.121094 93.707031 34.960938 C 94.402344 35.039062 95.105469 35.046875 95.753906 34.75 C 96.371094 34.636719 97.019531 34.710938 97.644531 34.644531 Z M 95.820312 35.640625 C 97.046875 35.8125 98.277344 35.921875 99.515625 35.90625 C 100.296875 35.953125 101.207031 35.875 101.910156 35.996094 C 101.792969 36.519531 100.703125 36.015625 100.238281 36.171875 C 98.863281 36.15625 97.484375 36.15625 96.121094 35.929688 C 95.859375 35.9375 95.777344 35.894531 95.820312 35.640625 Z M 97.148438 37.011719 C 97.652344 37.535156 98.375 37.632812 99.097656 37.511719 C 99.953125 37.457031 100.828125 37.6875 101.65625 37.371094 C 102.375 37.304688 101.605469 37.777344 101.226562 37.730469 C 100.390625 37.90625 99.535156 37.671875 98.6875 37.777344 C 98.015625 38.019531 97.460938 37.449219 96.976562 37.320312 C 96.613281 37.535156 96.214844 37.582031 95.804688 37.550781 L 94.039062 37.550781 C 93.921875 37.160156 94.371094 37.339844 94.609375 37.300781 C 95.195312 37.296875 95.785156 37.308594 96.375 37.292969 C 96.628906 37.195312 96.875 37.0625 97.148438 37.011719 Z M 73.09375 37.808594 C 73.707031 38.0625 72.59375 38.671875 72.777344 39.070312 C 72.804688 39.488281 72.851562 39.785156 73.050781 39.207031 C 73.140625 38.9375 73.222656 38.664062 73.320312 38.394531 C 73.566406 38.804688 73.894531 39.03125 74.363281 39.039062 C 74.566406 39.382812 74.664062 40.164062 74.875 39.441406 C 75.066406 39.070312 75.21875 38.636719 75.496094 38.332031 C 75.953125 38.59375 75.433594 39.515625 75.566406 39.988281 C 75.527344 40.730469 75.6875 41.476562 75.582031 42.222656 C 75.648438 42.667969 75.207031 43.800781 76 43.261719 C 76.269531 43.128906 76.308594 42.746094 76.472656 42.503906 C 76.777344 41.917969 76.664062 41.203125 76.863281 40.585938 C 77.449219 40.433594 76.917969 42.214844 77.480469 41.648438 C 77.648438 41.046875 77.199219 40.539062 77.152344 39.875 L 77.152344 38.691406 C 77.542969 38.570312 77.367188 39.023438 77.402344 39.257812 C 77.375 39.734375 77.425781 40.203125 77.628906 40.640625 C 78.277344 40.992188 78.171875 39.789062 78.6875 39.546875 C 79.246094 39.324219 78.933594 38.15625 79.5 38.28125 C 79.445312 39.003906 79.046875 39.597656 78.546875 40.089844 C 78.34375 40.429688 78.25 41.257812 77.667969 40.925781 C 78.089844 41.359375 77.609375 42.269531 77.089844 42.113281 C 76.972656 41.730469 76.964844 41.277344 76.902344 41.9375 C 76.882812 42.484375 76.5 42.921875 76.300781 43.417969 C 75.828125 43.675781 74.972656 43.964844 75.285156 43.078125 C 75.34375 42.132812 75.410156 41.183594 75.296875 40.238281 C 75.285156 39.929688 75.453125 38.953125 75.300781 39.144531 C 75.082031 39.585938 74.871094 40.035156 74.652344 40.476562 C 74.382812 40.074219 74.492188 39.117188 73.851562 39.214844 C 73.496094 39.144531 73.371094 38.71875 73.28125 39.296875 C 73.125 39.464844 72.929688 40.414062 72.648438 39.988281 C 72.578125 39.464844 72.621094 38.652344 72.023438 39.289062 C 71.914062 38.863281 71.808594 38.4375 71.703125 38.011719 C 72.054688 37.796875 71.992188 38.28125 72.085938 38.5 C 72.066406 39.222656 72.839844 38.519531 72.929688 38.144531 C 72.984375 38.03125 73.039062 37.921875 73.09375 37.808594 Z M 82.960938 41 C 83.628906 42.359375 84.339844 43.703125 85.0625 45.039062 C 85.449219 45.988281 85.917969 46.914062 86.082031 47.9375 C 85.929688 48.421875 87.074219 49.078125 86.515625 49.203125 C 85.898438 48.722656 85.835938 47.957031 85.664062 47.253906 C 85.261719 46 84.683594 44.800781 84.039062 43.652344 C 83.574219 42.824219 83.179688 41.964844 82.746094 41.125 Z M 81.585938 42.484375 C 82.230469 42.558594 81.003906 43.226562 81.800781 43.300781 C 82.214844 43.367188 82.109375 43.953125 82.484375 44.050781 C 83.425781 44.105469 82.382812 45.445312 83.347656 45.246094 C 83.8125 45.613281 83.324219 46.558594 84.054688 46.800781 C 84.660156 47.09375 84.488281 47.808594 84.769531 48.308594 C 84.839844 48.6875 85.054688 48.632812 85.320312 48.445312 C 85.515625 48.3125 85.90625 48.113281 85.832031 48.46875 C 85.492188 48.640625 85.152344 48.808594 84.808594 48.980469 C 84.539062 48.453125 84.296875 47.910156 84.238281 47.3125 C 83.703125 46.910156 83.21875 46.464844 83.304688 45.730469 C 83.429688 45.167969 82.359375 45.742188 82.644531 45.035156 C 83.011719 44.316406 82.183594 44.40625 82.011719 43.925781 C 81.964844 43.441406 81.238281 43.519531 81.199219 43.09375 C 81.316406 42.886719 81.46875 42.695312 81.585938 42.484375 Z M 77.742188 49.425781 C 77.636719 49.738281 76.632812 50.679688 77.375 50.085938 C 77.761719 49.851562 77.816406 50.003906 77.746094 49.484375 L 77.746094 49.441406 Z M 77.59375 51.660156 C 78.320312 51.78125 76.6875 52.484375 77.039062 52.5 C 77.25 52.34375 77.707031 52.367188 77.472656 52.636719 L 76.410156 52.960938 C 76.144531 52.394531 77.304688 52.113281 77.578125 51.671875 Z M 77.667969 54.070312 C 78.265625 54.085938 77.339844 54.691406 77.171875 54.949219 C 76.519531 55.480469 77.945312 54.425781 77.832031 54.949219 C 77.558594 55.140625 76.566406 55.761719 76.226562 55.417969 C 76.652344 54.929688 77.269531 54.613281 77.667969 54.070312 Z M 74.082031 56.226562 C 74.046875 56.6875 73.960938 57.265625 74.402344 56.691406 C 74.894531 56.390625 74.351562 56.40625 74.082031 56.226562 Z M 73.867188 61.796875 C 73.855469 62.226562 73.695312 62.914062 74.265625 62.375 C 74.6875 62.191406 75.003906 61.859375 74.324219 61.863281 C 74.171875 61.839844 74.019531 61.820312 73.867188 61.796875 Z M 73.761719 66.515625 C 74.140625 66.746094 75.109375 66.804688 75.085938 67.234375 C 74.8125 67.195312 73.808594 66.960938 73.761719 66.636719 Z M 72.03125 82.414062 C 70.542969 82.453125 69.054688 82.40625 67.570312 82.457031 C 66.929688 82.867188 66.1875 83.136719 65.6875 83.726562 C 65.304688 84.261719 66.324219 84.71875 66.84375 84.597656 C 67.109375 84.773438 68.050781 84.429688 67.890625 84.925781 C 67.644531 85.636719 66.839844 85.765625 66.3125 86.195312 C 65.984375 86.875 66.761719 87.71875 67.34375 87.070312 C 67.6875 86.742188 67.988281 86.703125 68.230469 87.109375 C 68.636719 87.425781 67.949219 88.28125 68.835938 88.234375 C 69.414062 87.941406 69.929688 87.433594 70.472656 87.046875 C 70.832031 86.585938 71.417969 86.074219 71.644531 86.945312 C 72.175781 87.398438 72.839844 87.285156 73.472656 87.242188 C 74.25 87.214844 75.105469 87.113281 75.554688 86.378906 C 76.28125 86.03125 76.972656 86.742188 77.339844 87.308594 C 77.832031 87.632812 78.648438 87.675781 78.398438 86.859375 C 78.207031 86.324219 78.375 85.757812 79.015625 86.105469 C 79.71875 86.238281 80.265625 86.769531 80.941406 86.957031 C 80.898438 86.445312 80.890625 85.476562 81.605469 86.132812 C 82.203125 86.570312 82.832031 86.992188 83.558594 87.183594 C 83.582031 86.878906 83.503906 86.546875 83.601562 86.265625 C 84.066406 85.785156 85 87.191406 84.796875 86.121094 C 84.894531 85.75 84.390625 84.9375 84.902344 84.992188 C 85.613281 85.292969 86.359375 85.5 87.117188 85.636719 C 86.617188 84.800781 85.722656 84.34375 84.960938 83.785156 C 84.222656 83.480469 83.449219 83.238281 82.644531 83.25 C 81.773438 83.171875 80.882812 83.207031 80.027344 83.082031 C 79.660156 82.816406 79.722656 83.054688 79.789062 83.132812 C 79.277344 83.867188 78.359375 83.722656 77.585938 83.863281 C 76.503906 83.964844 75.410156 84.074219 74.382812 84.457031 C 73.675781 84.550781 73.046875 83.925781 72.535156 83.488281 C 72.308594 83.175781 72.203125 82.765625 72.03125 82.414062 Z M 72.03125 82.414062 "/>
</g>
</svg>
