<?xml version="1.0" encoding="UTF-8"?>
<svg xmlns="http://www.w3.org/2000/svg" xmlns:xlink="http://www.w3.org/1999/xlink" width="150px" height="150px" viewBox="0 0 150 100" version="1.1">
<g id="surface1">
<path style=" stroke:none;fill-rule:evenodd;fill:rgb(1.568628%,1.568628%,1.568628%);fill-opacity:1;" d="M 0 50.003906 L 0 100.007812 L 150 100.007812 L 150 0 L 0 0 L 0 50.003906 M 146.59375 49.855469 L 146.59375 96.410156 L 74.773438 96.382812 L 2.953125 96.359375 L 2.929688 49.828125 L 2.902344 3.300781 L 146.59375 3.300781 L 146.59375 49.855469 "/>
<path style=" stroke:none;fill-rule:evenodd;fill:rgb(86.274511%,7.843138%,7.843138%);fill-opacity:1;" d="M 2.902344 6.667969 C 2.902344 8.519531 2.929688 10.007812 2.964844 9.972656 C 3.011719 9.925781 13.027344 16.515625 13.359375 16.816406 C 13.515625 16.953125 13.472656 16.960938 10.71875 17.394531 C 9.261719 17.621094 8.058594 17.820312 8.042969 17.835938 C 8.027344 17.851562 9.917969 19.128906 12.242188 20.675781 L 16.472656 23.488281 L 17.121094 23.390625 C 17.480469 23.335938 18.738281 23.136719 19.921875 22.949219 L 22.070312 22.605469 L 25.910156 25.167969 C 28.023438 26.574219 29.71875 27.761719 29.671875 27.800781 C 29.625 27.839844 29.183594 27.929688 28.6875 28 C 27.519531 28.160156 24.851562 28.585938 24.542969 28.65625 C 24.339844 28.703125 24.953125 29.148438 28.269531 31.359375 C 32.476562 34.160156 32.34375 34.09375 33.304688 33.910156 C 33.574219 33.859375 34.730469 33.675781 35.875 33.507812 L 37.953125 33.195312 L 41.820312 35.773438 L 45.691406 38.351562 L 43.648438 38.679688 C 42.523438 38.859375 41.300781 39.054688 40.929688 39.113281 C 40.558594 39.171875 40.253906 39.25 40.257812 39.289062 C 40.257812 39.324219 42.042969 40.535156 44.21875 41.984375 L 48.179688 44.613281 L 48.949219 44.5 C 49.371094 44.441406 50.523438 44.257812 51.511719 44.097656 C 52.5 43.933594 53.433594 43.804688 53.589844 43.804688 C 54.019531 43.804688 63.140625 49.894531 62.960938 50.0625 C 62.4375 50.558594 53.742188 56.203125 53.5 56.203125 C 53.347656 56.203125 52.636719 56.109375 51.917969 55.996094 C 48.445312 55.441406 48.382812 55.4375 48.199219 55.539062 C 48.015625 55.640625 41.328125 60.039062 40.4375 60.640625 L 39.972656 60.953125 L 41.289062 61.171875 C 42.015625 61.292969 43.148438 61.46875 43.808594 61.5625 C 44.46875 61.660156 45.070312 61.769531 45.144531 61.804688 C 45.230469 61.851562 43.898438 62.792969 41.441406 64.429688 L 37.601562 66.988281 L 36.75 66.839844 C 36.28125 66.757812 35.0625 66.566406 34.046875 66.414062 L 32.191406 66.132812 L 28.6875 68.492188 C 26.761719 69.789062 24.945312 71.003906 24.65625 71.191406 C 23.980469 71.636719 23.984375 71.644531 24.957031 71.78125 C 27.011719 72.074219 29.238281 72.449219 29.238281 72.5 C 29.238281 72.53125 27.523438 73.703125 25.429688 75.101562 L 21.617188 77.644531 L 20.347656 77.464844 C 19.648438 77.367188 18.425781 77.175781 17.636719 77.042969 L 16.195312 76.796875 L 14.882812 77.679688 C 9.261719 81.445312 8.109375 82.242188 8.179688 82.308594 C 8.25 82.375 12.769531 83.105469 13.097656 83.105469 C 13.40625 83.105469 12.882812 83.476562 8.066406 86.65625 L 2.917969 90.058594 L 2.9375 93.207031 L 2.953125 96.359375 L 10.152344 96.382812 C 16.195312 96.40625 17.367188 96.386719 17.460938 96.269531 C 17.589844 96.109375 22.925781 92.542969 23.1875 92.441406 C 23.332031 92.386719 23.351562 92.417969 23.304688 92.617188 C 23.269531 92.75 23.125 93.421875 22.976562 94.109375 C 22.832031 94.796875 22.65625 95.59375 22.585938 95.882812 L 22.460938 96.410156 L 23.398438 96.410156 C 23.910156 96.410156 24.332031 96.371094 24.332031 96.324219 C 24.332031 96.277344 25.839844 95.238281 27.679688 94.015625 L 31.023438 91.789062 L 31.175781 91.121094 C 31.257812 90.757812 31.511719 89.558594 31.742188 88.457031 C 31.972656 87.355469 32.191406 86.429688 32.226562 86.394531 C 32.402344 86.222656 39.992188 81.214844 40.027344 81.246094 C 40.070312 81.292969 39.902344 82.179688 39.402344 84.546875 C 39.207031 85.476562 39.058594 86.277344 39.074219 86.324219 C 39.117188 86.457031 47.039062 81.140625 47.097656 80.9375 C 47.128906 80.835938 47.34375 79.855469 47.574219 78.757812 C 47.804688 77.65625 48.042969 76.523438 48.105469 76.238281 L 48.214844 75.71875 L 52.050781 73.160156 C 54.164062 71.757812 55.914062 70.605469 55.945312 70.605469 C 56.027344 70.605469 55.917969 71.21875 55.417969 73.546875 C 55.171875 74.699219 54.980469 75.675781 54.996094 75.722656 C 55.019531 75.792969 62.960938 70.566406 63.210938 70.320312 C 63.304688 70.226562 63.484375 69.460938 64.046875 66.757812 C 64.238281 65.824219 64.453125 64.996094 64.515625 64.917969 C 64.582031 64.839844 66.964844 63.222656 69.816406 61.324219 L 75 57.871094 L 80.171875 61.3125 C 86.269531 65.371094 85.535156 64.75 85.808594 66.074219 C 86.335938 68.621094 86.707031 70.238281 86.785156 70.3125 C 87.039062 70.5625 94.980469 75.789062 95.003906 75.722656 C 95.019531 75.675781 94.828125 74.699219 94.582031 73.546875 C 94.078125 71.195312 93.972656 70.605469 94.058594 70.605469 C 94.089844 70.605469 95.84375 71.753906 97.949219 73.15625 L 101.785156 75.710938 L 101.894531 76.234375 C 102.625 79.699219 102.855469 80.785156 102.898438 80.933594 C 102.957031 81.132812 110.882812 86.453125 110.925781 86.324219 C 110.941406 86.277344 110.792969 85.476562 110.59375 84.546875 C 110.082031 82.125 109.925781 81.296875 109.972656 81.246094 C 110.011719 81.210938 117.605469 86.214844 117.773438 86.390625 C 117.808594 86.425781 118.027344 87.355469 118.257812 88.457031 C 118.488281 89.558594 118.742188 90.757812 118.824219 91.121094 L 118.976562 91.789062 L 122.320312 94.015625 C 124.160156 95.238281 125.667969 96.277344 125.667969 96.324219 C 125.667969 96.371094 126.089844 96.410156 126.601562 96.410156 L 127.539062 96.410156 L 127.414062 95.882812 C 127.125 94.671875 126.652344 92.390625 126.683594 92.363281 C 126.722656 92.324219 132.320312 96.03125 132.585938 96.265625 C 132.71875 96.386719 133.859375 96.410156 139.667969 96.410156 L 146.59375 96.410156 L 146.59375 93.082031 L 146.589844 89.757812 L 141.691406 86.507812 C 138.996094 84.71875 136.789062 83.230469 136.785156 83.199219 C 136.785156 83.164062 137.175781 83.082031 137.660156 83.011719 C 138.941406 82.828125 141.5 82.417969 141.773438 82.351562 C 142 82.300781 141.996094 82.292969 141.671875 82.074219 C 141.488281 81.949219 139.648438 80.714844 137.582031 79.332031 L 133.828125 76.8125 L 132.074219 77.101562 C 131.113281 77.257812 129.890625 77.445312 129.355469 77.515625 L 128.390625 77.636719 L 124.65625 75.148438 C 122.605469 73.777344 120.878906 72.625 120.820312 72.585938 C 120.636719 72.464844 120.773438 72.433594 123.339844 72.042969 C 124.730469 71.835938 125.867188 71.636719 125.867188 71.601562 C 125.867188 71.570312 124.054688 70.328125 121.835938 68.839844 L 117.808594 66.132812 L 116.253906 66.371094 C 115.402344 66.5 114.1875 66.691406 113.554688 66.796875 L 112.410156 66.988281 L 108.5625 64.425781 C 105.609375 62.453125 104.761719 61.84375 104.90625 61.792969 C 105.007812 61.753906 105.902344 61.601562 106.894531 61.453125 C 107.882812 61.308594 109 61.136719 109.371094 61.070312 L 110.046875 60.953125 L 108.972656 60.238281 C 106.15625 58.367188 101.964844 55.625 101.785156 55.535156 C 101.640625 55.464844 100.953125 55.539062 99.28125 55.816406 C 98.015625 56.023438 96.808594 56.195312 96.601562 56.199219 C 96.183594 56.207031 86.800781 50.070312 86.980469 49.90625 C 87.613281 49.324219 96.183594 43.804688 96.453125 43.804688 C 96.632812 43.804688 97.433594 43.914062 98.230469 44.042969 C 99.03125 44.175781 100.164062 44.359375 100.753906 44.449219 L 101.828125 44.613281 L 105.761719 41.996094 C 107.925781 40.554688 109.714844 39.359375 109.738281 39.339844 C 109.84375 39.246094 109.5625 39.179688 108.035156 38.941406 C 107.128906 38.796875 105.925781 38.609375 105.351562 38.515625 L 104.3125 38.351562 L 108.1875 35.773438 L 112.0625 33.191406 L 114.484375 33.566406 C 115.816406 33.769531 117.089844 33.957031 117.320312 33.980469 C 117.761719 34.023438 125.90625 28.773438 125.5625 28.664062 C 125.367188 28.605469 122.429688 28.140625 121.3125 27.992188 C 120.816406 27.925781 120.375 27.84375 120.332031 27.804688 C 120.289062 27.765625 121.980469 26.582031 124.09375 25.171875 L 127.933594 22.609375 L 128.828125 22.75 C 129.320312 22.828125 130.578125 23.023438 131.625 23.191406 L 133.527344 23.488281 L 137.757812 20.679688 C 140.085938 19.132812 141.976562 17.855469 141.964844 17.84375 C 141.9375 17.816406 138.035156 17.183594 137.054688 17.046875 C 136.789062 17.007812 136.585938 16.941406 136.601562 16.898438 C 136.617188 16.855469 138.875 15.324219 141.613281 13.5 L 146.59375 10.179688 L 146.59375 3.300781 L 133.207031 3.300781 L 129.882812 5.511719 C 128.054688 6.726562 126.539062 7.703125 126.519531 7.683594 C 126.5 7.664062 126.679688 6.726562 126.925781 5.597656 C 127.460938 3.101562 127.457031 3.300781 126.96875 3.300781 C 126.515625 3.300781 118.828125 8.308594 118.722656 8.671875 C 118.691406 8.769531 118.484375 9.726562 118.261719 10.800781 C 118.039062 11.875 117.796875 12.964844 117.730469 13.222656 L 117.605469 13.695312 L 113.777344 16.25 C 111.671875 17.652344 109.90625 18.800781 109.859375 18.800781 C 109.808594 18.800781 109.921875 18.070312 110.109375 17.175781 C 110.296875 16.28125 110.527344 15.203125 110.613281 14.773438 C 110.703125 14.347656 110.753906 13.972656 110.726562 13.945312 C 110.632812 13.851562 102.824219 19.121094 102.734375 19.339844 C 102.6875 19.457031 102.425781 20.625 102.152344 21.933594 C 101.878906 23.246094 101.636719 24.332031 101.621094 24.347656 C 101.339844 24.582031 93.996094 29.402344 93.914062 29.402344 C 93.855469 29.402344 93.832031 29.332031 93.863281 29.242188 C 93.898438 29.15625 94.082031 28.335938 94.269531 27.417969 C 94.460938 26.5 94.679688 25.472656 94.761719 25.128906 C 94.84375 24.785156 94.875 24.503906 94.832031 24.503906 C 94.789062 24.503906 92.910156 25.730469 90.660156 27.234375 L 86.566406 29.96875 L 86.351562 30.910156 C 86.230469 31.429688 85.988281 32.554688 85.8125 33.417969 C 85.632812 34.277344 85.460938 35.023438 85.425781 35.078125 C 85.335938 35.21875 75.121094 42.003906 75 42.003906 C 74.878906 42.003906 64.664062 35.21875 64.574219 35.078125 C 64.539062 35.023438 64.367188 34.277344 64.1875 33.417969 C 64.011719 32.554688 63.765625 31.425781 63.648438 30.90625 L 63.429688 29.957031 L 59.34375 27.230469 C 57.09375 25.730469 55.21875 24.503906 55.171875 24.503906 C 55.128906 24.503906 55.15625 24.785156 55.238281 25.128906 C 55.320312 25.472656 55.539062 26.5 55.730469 27.417969 C 55.917969 28.335938 56.101562 29.160156 56.140625 29.253906 C 56.261719 29.574219 55.910156 29.363281 52.132812 26.851562 C 48.648438 24.539062 48.359375 24.324219 48.277344 24 C 48.230469 23.808594 48 22.730469 47.769531 21.601562 C 47.539062 20.472656 47.3125 19.453125 47.261719 19.335938 C 47.171875 19.109375 39.378906 13.84375 39.277344 13.941406 C 39.25 13.972656 39.296875 14.347656 39.386719 14.773438 C 39.472656 15.203125 39.703125 16.28125 39.890625 17.175781 C 40.078125 18.070312 40.195312 18.800781 40.15625 18.800781 C 40.117188 18.800781 38.351562 17.652344 36.238281 16.25 L 32.394531 13.695312 L 32.269531 13.222656 C 32.203125 12.964844 31.960938 11.875 31.738281 10.800781 C 31.515625 9.726562 31.308594 8.769531 31.277344 8.671875 C 31.171875 8.304688 23.484375 3.300781 23.03125 3.300781 C 22.542969 3.300781 22.539062 3.101562 23.074219 5.597656 C 23.320312 6.726562 23.5 7.664062 23.480469 7.683594 C 23.460938 7.703125 21.957031 6.726562 20.132812 5.507812 L 16.820312 3.300781 L 2.902344 3.300781 L 2.902344 6.667969 "/>
<path style=" stroke:none;fill-rule:evenodd;fill:rgb(98.823529%,98.431373%,98.431373%);fill-opacity:1;" d="M 16.976562 3.390625 C 17.179688 3.578125 23.449219 7.71875 23.480469 7.683594 C 23.5 7.664062 23.308594 6.671875 23.054688 5.476562 L 22.589844 3.300781 L 19.734375 3.300781 C 18.078125 3.300781 16.921875 3.335938 16.976562 3.390625 M 23.585938 3.386719 C 23.640625 3.4375 25.378906 4.605469 27.453125 5.984375 C 29.527344 7.363281 31.25 8.570312 31.277344 8.671875 C 31.308594 8.769531 31.515625 9.726562 31.738281 10.800781 C 31.960938 11.875 32.203125 12.964844 32.269531 13.222656 L 32.394531 13.695312 L 36.238281 16.25 C 38.351562 17.652344 40.117188 18.800781 40.15625 18.800781 C 40.195312 18.800781 40.078125 18.070312 39.890625 17.175781 C 39.703125 16.28125 39.472656 15.203125 39.386719 14.773438 C 39.296875 14.347656 39.25 13.972656 39.277344 13.941406 C 39.378906 13.84375 47.171875 19.109375 47.261719 19.335938 C 47.3125 19.453125 47.539062 20.472656 47.769531 21.601562 C 48 22.730469 48.230469 23.808594 48.277344 24 C 48.359375 24.324219 48.648438 24.539062 52.132812 26.851562 C 55.910156 29.363281 56.261719 29.574219 56.140625 29.253906 C 56.101562 29.160156 55.917969 28.335938 55.730469 27.417969 C 55.539062 26.5 55.320312 25.472656 55.238281 25.128906 C 55.15625 24.785156 55.128906 24.503906 55.171875 24.503906 C 55.21875 24.503906 57.09375 25.730469 59.34375 27.230469 L 63.429688 29.957031 L 63.648438 30.90625 C 63.765625 31.425781 64.011719 32.554688 64.1875 33.417969 C 64.367188 34.277344 64.539062 35.023438 64.574219 35.078125 C 64.664062 35.21875 74.878906 42.003906 75 42.003906 C 75.121094 42.003906 85.335938 35.21875 85.425781 35.078125 C 85.460938 35.023438 85.632812 34.277344 85.8125 33.417969 C 85.988281 32.554688 86.230469 31.429688 86.351562 30.910156 L 86.566406 29.96875 L 90.660156 27.234375 C 92.910156 25.730469 94.789062 24.503906 94.832031 24.503906 C 94.875 24.503906 94.84375 24.785156 94.761719 25.128906 C 94.679688 25.472656 94.460938 26.5 94.269531 27.417969 C 94.082031 28.335938 93.898438 29.15625 93.863281 29.242188 C 93.832031 29.332031 93.855469 29.402344 93.914062 29.402344 C 93.996094 29.402344 101.339844 24.582031 101.621094 24.347656 C 101.636719 24.332031 101.878906 23.246094 102.152344 21.933594 C 102.425781 20.625 102.6875 19.457031 102.734375 19.339844 C 102.824219 19.121094 110.632812 13.851562 110.726562 13.945312 C 110.753906 13.972656 110.703125 14.347656 110.613281 14.773438 C 110.527344 15.203125 110.296875 16.28125 110.109375 17.175781 C 109.921875 18.070312 109.808594 18.800781 109.859375 18.800781 C 109.90625 18.800781 111.671875 17.652344 113.777344 16.25 L 117.605469 13.695312 L 117.730469 13.222656 C 117.796875 12.964844 118.039062 11.875 118.261719 10.800781 C 118.484375 9.726562 118.691406 8.769531 118.722656 8.671875 C 118.75 8.574219 120.472656 7.367188 122.546875 5.984375 C 124.621094 4.605469 126.359375 3.4375 126.414062 3.386719 C 126.46875 3.335938 104.488281 3.300781 75 3.300781 C 45.410156 3.300781 23.53125 3.335938 23.585938 3.386719 M 126.945312 5.476562 C 126.691406 6.671875 126.5 7.664062 126.519531 7.683594 C 126.539062 7.707031 128.054688 6.726562 129.882812 5.511719 L 133.207031 3.300781 L 127.410156 3.300781 L 126.945312 5.476562 M 2.964844 9.972656 C 2.820312 10.121094 2.898438 90.03125 3.042969 89.976562 C 3.15625 89.933594 13.0625 83.371094 13.210938 83.242188 C 13.304688 83.160156 13.066406 83.117188 10.714844 82.757812 C 9.363281 82.554688 8.222656 82.351562 8.179688 82.308594 C 8.109375 82.246094 9.261719 81.445312 14.882812 77.679688 L 16.195312 76.796875 L 17.636719 77.042969 C 18.425781 77.175781 19.648438 77.367188 20.347656 77.464844 L 21.617188 77.644531 L 25.429688 75.101562 C 27.523438 73.703125 29.238281 72.53125 29.238281 72.5 C 29.238281 72.449219 27.011719 72.074219 24.957031 71.78125 C 23.984375 71.644531 23.980469 71.636719 24.65625 71.191406 C 24.945312 71.003906 26.761719 69.789062 28.6875 68.492188 L 32.191406 66.132812 L 34.046875 66.414062 C 35.0625 66.566406 36.28125 66.757812 36.75 66.839844 L 37.601562 66.988281 L 41.441406 64.429688 C 43.898438 62.792969 45.230469 61.851562 45.144531 61.804688 C 45.070312 61.769531 44.46875 61.660156 43.808594 61.5625 C 43.148438 61.46875 42.015625 61.292969 41.289062 61.171875 L 39.972656 60.953125 L 40.4375 60.640625 C 41.328125 60.039062 48.015625 55.640625 48.199219 55.539062 C 48.382812 55.4375 48.445312 55.441406 51.917969 55.996094 C 52.636719 56.109375 53.347656 56.203125 53.5 56.203125 C 53.742188 56.203125 62.4375 50.558594 62.960938 50.0625 C 63.140625 49.894531 54.019531 43.804688 53.589844 43.804688 C 53.433594 43.804688 52.5 43.933594 51.511719 44.097656 C 50.523438 44.257812 49.371094 44.441406 48.949219 44.5 L 48.179688 44.613281 L 44.21875 41.984375 C 42.042969 40.535156 40.257812 39.324219 40.257812 39.289062 C 40.253906 39.25 40.558594 39.171875 40.929688 39.113281 C 41.300781 39.054688 42.523438 38.859375 43.648438 38.679688 L 45.691406 38.351562 L 41.820312 35.773438 L 37.953125 33.195312 L 35.875 33.507812 C 34.730469 33.675781 33.574219 33.859375 33.304688 33.910156 C 32.34375 34.09375 32.476562 34.160156 28.269531 31.359375 C 24.953125 29.148438 24.339844 28.703125 24.542969 28.65625 C 24.851562 28.585938 27.519531 28.160156 28.6875 28 C 29.183594 27.929688 29.625 27.839844 29.671875 27.800781 C 29.71875 27.761719 28.023438 26.574219 25.910156 25.167969 L 22.070312 22.605469 L 19.921875 22.949219 C 18.738281 23.136719 17.480469 23.335938 17.121094 23.390625 L 16.472656 23.488281 L 12.242188 20.675781 C 9.917969 19.128906 8.027344 17.851562 8.042969 17.835938 C 8.058594 17.820312 9.261719 17.621094 10.71875 17.394531 C 13.472656 16.960938 13.515625 16.953125 13.359375 16.816406 C 13.027344 16.515625 3.011719 9.925781 2.964844 9.972656 M 141.589844 13.515625 C 138.863281 15.332031 136.617188 16.855469 136.601562 16.898438 C 136.585938 16.941406 136.789062 17.007812 137.054688 17.046875 C 138.035156 17.183594 141.9375 17.816406 141.964844 17.84375 C 141.976562 17.855469 140.085938 19.132812 137.757812 20.679688 L 133.527344 23.488281 L 131.625 23.191406 C 130.578125 23.023438 129.320312 22.828125 128.828125 22.75 L 127.933594 22.609375 L 124.09375 25.171875 C 121.980469 26.582031 120.289062 27.765625 120.332031 27.804688 C 120.375 27.84375 120.816406 27.925781 121.3125 27.992188 C 122.429688 28.140625 125.367188 28.605469 125.5625 28.664062 C 125.90625 28.773438 117.761719 34.023438 117.320312 33.980469 C 117.089844 33.957031 115.816406 33.769531 114.484375 33.566406 L 112.0625 33.191406 L 108.1875 35.773438 L 104.3125 38.351562 L 105.351562 38.515625 C 105.925781 38.609375 107.128906 38.796875 108.035156 38.941406 C 109.5625 39.179688 109.84375 39.246094 109.738281 39.339844 C 109.714844 39.359375 107.925781 40.554688 105.761719 41.996094 L 101.828125 44.613281 L 100.753906 44.449219 C 100.164062 44.359375 99.03125 44.175781 98.230469 44.042969 C 97.433594 43.914062 96.632812 43.804688 96.453125 43.804688 C 96.183594 43.804688 87.613281 49.324219 86.980469 49.90625 C 86.800781 50.070312 96.183594 56.207031 96.601562 56.199219 C 96.808594 56.195312 98.015625 56.023438 99.28125 55.816406 C 100.953125 55.539062 101.640625 55.464844 101.785156 55.535156 C 101.964844 55.625 106.15625 58.367188 108.972656 60.238281 L 110.046875 60.953125 L 109.371094 61.070312 C 109 61.136719 107.882812 61.308594 106.894531 61.453125 C 105.902344 61.601562 105.007812 61.753906 104.90625 61.792969 C 104.761719 61.84375 105.609375 62.453125 108.5625 64.425781 L 112.410156 66.988281 L 113.554688 66.796875 C 114.1875 66.691406 115.402344 66.5 116.253906 66.371094 L 117.808594 66.132812 L 121.835938 68.839844 C 124.054688 70.328125 125.867188 71.570312 125.867188 71.601562 C 125.867188 71.636719 124.730469 71.835938 123.339844 72.042969 C 120.773438 72.433594 120.636719 72.464844 120.820312 72.585938 C 120.878906 72.625 122.605469 73.777344 124.65625 75.148438 L 128.390625 77.636719 L 129.355469 77.515625 C 129.890625 77.445312 131.113281 77.257812 132.074219 77.101562 L 133.828125 76.8125 L 137.582031 79.332031 C 139.648438 80.714844 141.488281 81.949219 141.671875 82.074219 C 141.996094 82.292969 142 82.300781 141.773438 82.351562 C 141.5 82.417969 138.941406 82.828125 137.660156 83.011719 C 137.175781 83.082031 136.785156 83.164062 136.785156 83.199219 C 136.792969 83.28125 146.507812 89.726562 146.554688 89.679688 C 146.578125 89.660156 146.585938 71.769531 146.570312 49.925781 L 146.546875 10.210938 L 141.589844 13.515625 M 69.847656 61.304688 C 67.039062 63.175781 64.664062 64.785156 64.570312 64.878906 C 64.457031 64.992188 64.273438 65.660156 64.042969 66.753906 C 63.488281 69.4375 63.304688 70.226562 63.210938 70.320312 C 62.960938 70.566406 55.019531 75.792969 54.996094 75.722656 C 54.980469 75.675781 55.171875 74.699219 55.417969 73.546875 C 55.917969 71.21875 56.027344 70.605469 55.945312 70.605469 C 55.914062 70.605469 54.164062 71.757812 52.050781 73.160156 L 48.214844 75.71875 L 48.105469 76.238281 C 48.042969 76.523438 47.804688 77.65625 47.574219 78.757812 C 47.34375 79.855469 47.128906 80.835938 47.097656 80.9375 C 47.039062 81.140625 39.117188 86.457031 39.074219 86.324219 C 39.058594 86.277344 39.207031 85.476562 39.402344 84.546875 C 39.902344 82.179688 40.070312 81.292969 40.027344 81.246094 C 39.992188 81.214844 32.402344 86.222656 32.226562 86.394531 C 32.191406 86.429688 31.972656 87.355469 31.742188 88.457031 C 31.511719 89.558594 31.257812 90.757812 31.175781 91.121094 L 31.023438 91.789062 L 27.679688 94.015625 C 25.839844 95.238281 24.332031 96.277344 24.332031 96.324219 C 24.332031 96.371094 47.132812 96.410156 75 96.410156 C 102.867188 96.410156 125.667969 96.371094 125.667969 96.324219 C 125.667969 96.277344 124.160156 95.238281 122.320312 94.015625 L 118.976562 91.789062 L 118.824219 91.121094 C 118.742188 90.757812 118.488281 89.558594 118.257812 88.457031 C 118.027344 87.355469 117.808594 86.425781 117.773438 86.390625 C 117.605469 86.214844 110.011719 81.210938 109.972656 81.246094 C 109.925781 81.296875 110.082031 82.125 110.59375 84.546875 C 110.792969 85.476562 110.941406 86.277344 110.925781 86.324219 C 110.882812 86.453125 102.957031 81.132812 102.898438 80.933594 C 102.855469 80.785156 102.625 79.699219 101.894531 76.234375 L 101.785156 75.710938 L 97.949219 73.15625 C 95.84375 71.753906 94.089844 70.605469 94.058594 70.605469 C 93.972656 70.605469 94.078125 71.195312 94.582031 73.546875 C 94.828125 74.699219 95.019531 75.675781 95.003906 75.722656 C 94.980469 75.789062 87.039062 70.5625 86.785156 70.3125 C 86.707031 70.238281 86.335938 68.613281 85.8125 66.09375 C 85.691406 65.511719 85.566406 64.992188 85.527344 64.9375 C 85.460938 64.832031 75.269531 58.027344 75.066406 57.945312 C 75 57.921875 72.652344 59.433594 69.847656 61.304688 M 126.667969 92.382812 C 126.664062 92.457031 127.1875 94.90625 127.40625 95.859375 L 127.519531 96.359375 L 130.105469 96.386719 C 131.664062 96.402344 132.667969 96.375 132.632812 96.320312 C 132.601562 96.269531 131.371094 95.425781 129.898438 94.441406 C 126.695312 92.308594 126.667969 92.289062 126.667969 92.382812 M 20.320312 94.308594 C 18.753906 95.355469 17.457031 96.253906 17.4375 96.308594 C 17.417969 96.378906 18.265625 96.402344 19.941406 96.386719 L 22.480469 96.359375 L 22.59375 95.859375 C 22.65625 95.582031 22.828125 94.796875 22.976562 94.109375 C 23.125 93.421875 23.269531 92.757812 23.300781 92.632812 C 23.386719 92.269531 23.304688 92.316406 20.320312 94.308594 "/>
</g>
</svg>
