<svg xmlns="http://www.w3.org/2000/svg" viewBox="0 0 72 72"><path fill="#d22f27" d="M5.49 17H67v38H5V17.49c0-.27.22-.49.49-.49Z"/><path fill="#f1b31c" d="M38 36 6.652 54.049A1.102 1.102 0 0 1 5 53.093V18.896c0-.843.912-1.37 1.643-.95L38 36Z"/><path d="M26 36 6.073 54.03A.642.642 0 0 1 5 53.552V18.617c0-.622.738-.95 1.2-.532L26 36Z"/><path fill="#fff" stroke="#fff" stroke-linecap="round" stroke-linejoin="round" d="m15.35 34.05-4.63 2.44 5.04.67-3.53-3.53.67 5.04 2.45-4.62z"/><path fill="none" stroke="#000" stroke-linecap="round" stroke-linejoin="round" stroke-width="2" d="M5 17h62v38H5z"/></svg>