<?xml version="1.0" encoding="UTF-8"?>
<svg id="layer" xmlns="http://www.w3.org/2000/svg" version="1.1" viewBox="0 0 72 72">
  <!-- Generator: Adobe Illustrator 29.4.0, SVG Export Plug-In . SVG Version: 2.1.0 Build 152)  -->
  <defs>
    <style>
      .st0 {
        fill: #b4b4c7;
      }

      .st0, .st1, .st2, .st3, .st4, .st5, .st6, .st7, .st8, .st9, .st10, .st11, .st12, .st13, .st14, .st15, .st16, .st17, .st18, .st19, .st20, .st21, .st22, .st23, .st24, .st25, .st26, .st27, .st28, .st29, .st30, .st31, .st32, .st33, .st34, .st35, .st36, .st37, .st38, .st39, .st40, .st41, .st42, .st43, .st44 {
        fill-rule: evenodd;
      }

      .st1 {
        fill: #f6f6f9;
      }

      .st2 {
        fill: #de6272;
      }

      .st3 {
        fill: #3c3b6e;
      }

      .st4 {
        fill: #f7f7f9;
      }

      .st5 {
        fill: #01247d;
      }

      .st6 {
        fill: #8e8dab;
      }

      .st7 {
        fill: #cf162c;
      }

      .st8 {
        fill: #f4f3f6;
      }

      .st9 {
        fill: #afafc3;
      }

      .st10 {
        fill: #8d8caa;
      }

      .st11 {
        fill: #f7f6f9;
      }

      .st12 {
        fill: #fefefe;
      }

      .st45 {
        fill: #d22f27;
      }

      .st13 {
        fill: #9897b3;
      }

      .st14 {
        fill: #8b8aa8;
      }

      .st15 {
        fill: #cf152b;
      }

      .st16 {
        fill: #afafc4;
      }

      .st46 {
        fill: none;
        stroke: #000;
        stroke-linecap: round;
        stroke-linejoin: round;
        stroke-width: 2px;
      }

      .st17 {
        fill: #f5f5f8;
      }

      .st18 {
        fill: #f5f4f7;
      }

      .st19 {
        fill: #aeaec3;
      }

      .st20 {
        fill: #acacc1;
      }

      .st21 {
        fill: #6f6e94;
      }

      .st22 {
        fill: #b12234;
      }

      .st23 {
        fill: #b22335;
      }

      .st24 {
        fill: #556da8;
      }

      .st25 {
        fill: #8786a6;
      }

      .st26 {
        fill: #acabc1;
      }

      .st27 {
        fill: #f6f6f8;
      }

      .st28 {
        fill: #f4f4f7;
      }

      .st29 {
        fill: #cf142b;
      }

      .st30 {
        fill: #afaec3;
      }

      .st31 {
        fill: #717096;
      }

      .st32 {
        fill: #adadc2;
      }

      .st33 {
        fill: #f6f5f8;
      }

      .st34 {
        fill: #df6272;
      }

      .st35 {
        fill: #9594b0;
      }

      .st36 {
        fill: #8c8ba9;
      }

      .st37 {
        fill: #9796b2;
      }

      .st38 {
        fill: #9897b2;
      }

      .st39 {
        fill: #8a89a8;
      }

      .st40 {
        fill: #9695b1;
      }

      .st41 {
        fill: #b0b0c4;
      }

      .st42 {
        fill: #706f95;
      }

      .st43 {
        fill: #b22234;
      }

      .st44 {
        fill: #f5f5f7;
      }
    </style>
  </defs>
  <circle id="_日本のイースターエッグ" data-name="日本のイースターエッグ" class="st45" cx="36" cy="36.2" r="9"/>
  <g id="surface1">
    <path class="st3" d="M5.3,17.4h23.5v20.2H5.3v-20.2Z"/>
    <path class="st22" d="M28.8,17.4h38.2c-1.5,1-3.1,1.9-4.7,2.9-11.2,0-22.4,0-33.6,0v-2.9Z"/>
    <path class="st12" d="M67,17.4h0v4.2c-4.5,2.7-9,5.4-13.5,8.2,0,0,0,0-.1,0,4.6,0,9.1,0,13.7,0v2.5c-8.3,0-16.5,0-24.8,0-1.3.8-2.5,1.5-3.8,2.3h-9.8v-2.9c4.8,0,9.7,0,14.5,0,1.6-1,3.1-1.9,4.7-2.8-6.4,0-12.8,0-19.2,0v-2.9c8,0,16.1,0,24.1,0,1.6-.9,3.1-1.9,4.7-2.8-9.6,0-19.2,0-28.7,0v-2.9c11.2,0,22.4,0,33.6,0,1.6-.9,3.1-1.9,4.7-2.9Z"/>
    <path class="st33" d="M7.5,19c.2,0,.4.2.6.2-.2.1-.3.3-.4.4,0,.3.1.5.2.8-.2-.2-.3-.3-.5-.5-.2,0-.4.2-.5.4,0-.2,0-.5.1-.7-.1-.2-.3-.3-.5-.4.2,0,.4,0,.6-.1.1-.9.2-1,.4,0Z"/>
    <path class="st11" d="M11.5,19c.2,0,.4,0,.6.1-.2.1-.3.3-.4.5,0,.2.1.5.1.7-.1-.2-.3-.3-.5-.4-.2.1-.4.2-.5.4,0-.3,0-.5,0-.8-.1-.1-.3-.2-.4-.3.2,0,.4,0,.6-.1,0-.3.1-.5.2-.7,0,.3.1.5.2.7Z"/>
    <path class="st4" d="M23.1,19c.2,0,.4,0,.6.1-.1.1-.3.2-.4.3,0,.3,0,.5,0,.8-.2-.2-.3-.3-.5-.4-.2,0-.4.2-.5.4,0-.3,0-.5,0-.8-.1-.1-.3-.2-.4-.3.2,0,.4,0,.6-.1,0-.2.1-.5.2-.7.1.2.2.4.2.7Z"/>
    <path class="st27" d="M27,19c.2,0,.4,0,.6.1-.2.1-.3.3-.5.4,0,.2.2.5.2.7-.2-.2-.3-.3-.5-.4-.2.1-.4.3-.5.5,0-.3,0-.5.2-.8-.1-.2-.3-.3-.4-.4.2,0,.4,0,.6-.2.1-.9.3-.9.4,0Z"/>
    <path class="st27" d="M15.3,19c.2,0,.4,0,.6.1-.1.1-.3.2-.4.3,0,.3,0,.5,0,.8-.1-.2-.3-.3-.5-.4-.2.1-.3.2-.5.4,0-.3,0-.5,0-.8-.1-.1-.3-.2-.4-.3.2,0,.4,0,.6-.1,0-.2.2-.5.2-.7,0,.3.2.5.2.7Z"/>
    <path class="st4" d="M19.2,19c.2,0,.4,0,.6.1-.1.1-.3.2-.4.3,0,.3,0,.5,0,.8-.2-.2-.3-.3-.5-.4-.2.1-.3.2-.5.4,0-.3,0-.5,0-.8-.1-.1-.3-.2-.4-.3.2,0,.4,0,.6-.1,0-.2.1-.5.2-.7,0,.2.2.4.2.7Z"/>
    <path class="st19" d="M7.1,19c-.2,0-.4,0-.6.1,0,0,0,0,0,0,.2,0,.4,0,.7,0Z"/>
    <path class="st0" d="M7.5,19c.2,0,.5,0,.7,0,0,0,0,0,0,0-.2,0-.4,0-.6-.2Z"/>
    <path class="st20" d="M11,19c-.2,0-.4,0-.6.1,0,0,0,0,0,0,.2,0,.5,0,.7,0Z"/>
    <path class="st41" d="M11.5,19c.2,0,.4,0,.7,0,0,0,0,0,0,0-.2,0-.4,0-.6-.1Z"/>
    <path class="st26" d="M14.9,19c-.2,0-.4,0-.6.1,0,0,0,0,0,0,.2,0,.4,0,.7,0Z"/>
    <path class="st19" d="M15.3,19c.2,0,.4,0,.7,0,0,0,0,0,0,0-.2,0-.4,0-.6-.1Z"/>
    <path class="st32" d="M18.8,19c-.2,0-.4,0-.6.1,0,0,0,0,0,0,.2,0,.4,0,.7,0Z"/>
    <path class="st30" d="M19.2,19c.2,0,.5,0,.7,0,0,0,0,0,0,0-.2,0-.4,0-.6-.1Z"/>
    <path class="st16" d="M22.7,19c-.2,0-.4,0-.6.1,0,0,0,0,0,0,.2,0,.4,0,.7,0Z"/>
    <path class="st32" d="M23.1,19c.2,0,.5,0,.7,0,0,0,0,0,0,0-.2,0-.4,0-.6-.1Z"/>
    <path class="st0" d="M26.6,19c-.2,0-.4.2-.6.2,0,0,0,0,0,0,.2,0,.5,0,.7,0Z"/>
    <path class="st9" d="M27,19c.2,0,.4,0,.7,0,0,0,0,0,0,0-.2,0-.4,0-.6-.1Z"/>
    <path class="st8" d="M8.5,21.2c.2,0,.4,0,.6-.1,0-.3.1-.5.2-.7,0,.2.1.5.2.7.2,0,.5,0,.7,0-.2.2-.4.3-.5.5,0,.2.1.5.1.7-.1-.2-.3-.3-.5-.4-.2.1-.3.3-.5.4,0-.2,0-.5.1-.7-.2-.2-.3-.3-.5-.4Z"/>
    <path class="st8" d="M12.4,21.2c.2,0,.4,0,.6-.1,0-.3.1-.5.2-.7,0,.2.1.5.2.7.2,0,.5,0,.7,0-.2.2-.4.3-.5.5,0,.2.1.5.1.7-.2-.1-.3-.3-.5-.4-.2.1-.4.2-.5.4,0-.3,0-.5,0-.8-.1-.1-.3-.2-.4-.3Z"/>
    <path class="st28" d="M25,21c.2,0,.4,0,.6.1-.2.1-.3.3-.5.4,0,.2.2.5.2.7-.2-.2-.3-.3-.5-.4-.2.1-.4.3-.5.5,0-.2,0-.5.2-.7-.2-.2-.3-.4-.5-.5.2,0,.5,0,.7,0,0-.3,0-.5.2-.7.1.2.2.5.2.7Z"/>
    <path class="st1" d="M17.3,21c.2,0,.4,0,.6.1-.2.1-.3.3-.4.5,0,.2.1.5.1.7-.1-.1-.3-.3-.5-.4-.2.1-.4.2-.5.4,0-.3,0-.5,0-.8-.1-.1-.3-.2-.4-.3.2,0,.4,0,.6-.1,0-.2.2-.5.2-.7,0,.2.2.5.2.7Z"/>
    <path class="st1" d="M21.1,21c.2,0,.4,0,.6.1-.1.1-.3.2-.4.3,0,.3,0,.5,0,.8-.2-.2-.3-.3-.5-.4-.2.1-.3.3-.5.4,0-.2,0-.5.1-.7-.1-.2-.3-.3-.4-.5.2,0,.4,0,.6-.1,0-.2.1-.5.2-.7,0,.2.2.4.2.7Z"/>
    <path class="st35" d="M9.1,21c-.2,0-.4,0-.6.1,0,0,0,0,0,0,.2,0,.5,0,.7,0Z"/>
    <path class="st37" d="M13,21c-.2,0-.4,0-.6.1,0,0,0,0,0,0,.2,0,.5,0,.7,0Z"/>
    <path class="st40" d="M16.8,21c-.2,0-.4,0-.6.1,0,0,0,0,0,0,.2,0,.4,0,.7,0Z"/>
    <path class="st37" d="M17.3,21c.2,0,.4,0,.7,0,0,0,0,0,0,0-.2,0-.4,0-.6-.1Z"/>
    <path class="st13" d="M20.7,21c-.2,0-.4,0-.6.1,0,0,0,0,0,0,.2,0,.4,0,.7,0Z"/>
    <path class="st38" d="M21.1,21c.2,0,.5,0,.7,0,0,0,0,0,0,0-.2,0-.4,0-.6-.1Z"/>
    <path class="st40" d="M25,21c.2,0,.5,0,.7,0,0,0,0,0,0,0-.2,0-.4,0-.6-.1Z"/>
    <path class="st5" d="M67.1,21.6v8.2c-4.5,0-9,0-13.5,0,4.5-2.7,9-5.5,13.5-8.2Z"/>
    <path class="st4" d="M7.6,23.1c.2,0,.4,0,.6.1-.2.1-.3.3-.5.5,0,.2.1.5.2.7-.2-.2-.3-.3-.5-.5-.2.1-.3.3-.5.4,0-.2,0-.5.1-.7-.2-.2-.3-.3-.5-.4.2,0,.4,0,.6-.1,0-.3.1-.5.2-.7,0,.3.1.5.2.7Z"/>
    <path class="st27" d="M10.4,23.2c.2,0,.4,0,.6-.1,0-.3.1-.5.2-.7,0,.3.1.5.2.8.2,0,.4,0,.6,0-.2.2-.3.3-.5.5,0,.2.1.5.1.7-.2-.2-.3-.3-.5-.4-.2.1-.3.3-.5.4,0-.2,0-.5.1-.7-.2-.2-.3-.3-.5-.4Z"/>
    <path class="st4" d="M23.1,23.1c.2,0,.4,0,.6.1-.2.1-.3.3-.5.4,0,.2.2.5.2.7-.2-.1-.3-.3-.5-.4-.2.1-.3.3-.5.4,0-.2,0-.5.1-.7-.1-.2-.3-.4-.5-.5.2,0,.4,0,.6,0,0-.2.1-.5.2-.7.1.2.2.4.2.7Z"/>
    <path class="st4" d="M27,23.1c.2,0,.4,0,.6.1-.2.1-.3.3-.5.4.1.2.2.5.1.7-.2-.1-.3-.3-.5-.4-.2.1-.4.3-.5.5,0-.2,0-.5.2-.7-.1-.2-.3-.3-.5-.5.2,0,.4,0,.6-.1,0-.2.1-.5.2-.7,0,.2.2.5.2.7Z"/>
    <path class="st11" d="M14.3,23.2c.2,0,.4,0,.6-.1,0-.2,0-.5.2-.7,0,.2.2.5.2.7.2,0,.4,0,.6,0-.2.1-.3.3-.5.5,0,.2.1.5.1.7-.2-.2-.3-.3-.5-.4-.2.1-.3.3-.5.4,0,0,0,0,0,0,0-.2.1-.4.1-.6-.1-.2-.3-.3-.4-.5Z"/>
    <path class="st4" d="M19,22.4c.1.2.2.5.2.7.2,0,.4,0,.7,0-.2.1-.3.3-.5.5,0,.2,0,.5.1.7-.2-.2-.3-.3-.5-.4-.2.1-.3.2-.5.4,0-.2,0-.5.1-.7-.1-.2-.3-.4-.5-.5.2,0,.4,0,.6,0,0-.2.1-.5.2-.7Z"/>
    <path class="st39" d="M7.1,23.1c-.2,0-.4,0-.6.1,0,0,0,0,0,0,.2,0,.5,0,.7,0Z"/>
    <path class="st25" d="M7.6,23.1c.2,0,.4,0,.7,0,0,0,0,0,0,0-.2,0-.4,0-.6-.1Z"/>
    <path class="st36" d="M11,23.1c-.2,0-.4,0-.6.1,0,0,0,0,0,0,.2,0,.5,0,.7,0Z"/>
    <path class="st6" d="M14.9,23.1c-.2,0-.4,0-.6.1,0,0,0,0,0,0,.2,0,.5,0,.7,0Z"/>
    <path class="st10" d="M23.1,23.1c.2,0,.5,0,.7,0,0,0,0,0,0,0-.2,0-.4,0-.6-.1Z"/>
    <path class="st25" d="M26.6,23.1c-.2,0-.4,0-.6.1,0,0,0,0,0,0,.2,0,.4,0,.7,0Z"/>
    <path class="st14" d="M27,23.1c.2,0,.5,0,.7,0,0,0,0,0,0,0-.2,0-.4,0-.6-.1Z"/>
    <path class="st22" d="M28.8,23.2c9.6,0,19.2,0,28.7,0-1.6.9-3.1,1.9-4.7,2.8-8,0-16.1,0-24.1,0v-2.9Z"/>
    <path class="st27" d="M9.5,25.1c.2,0,.4,0,.6.1-.2.1-.3.3-.5.5,0,.2.1.5.2.7-.2-.2-.3-.3-.5-.5-.2.1-.4.3-.5.5,0-.3,0-.5.2-.8-.2-.2-.3-.3-.5-.5.2,0,.4,0,.7,0,0-.3.1-.5.2-.8,0,.3.1.5.2.7Z"/>
    <path class="st27" d="M24,25.2c.2,0,.4,0,.6-.1,0-.2.1-.5.2-.7,0,.3.2.5.2.8.2,0,.4,0,.7,0-.2.1-.4.3-.5.5.1.2.2.5.1.7-.2-.1-.3-.3-.5-.4-.2.1-.4.3-.5.5,0-.2,0-.5.2-.7-.1-.2-.3-.4-.5-.5Z"/>
    <path class="st4" d="M13.1,24.4s0,0,0,0c0,.2.1.4.2.6.2,0,.4,0,.6,0-.2.1-.3.3-.5.4,0,.2,0,.5,0,.7-.2-.2-.3-.3-.5-.4-.2.1-.3.3-.5.4h0c0-.3.1-.6,0-.8-.1-.1-.3-.2-.4-.4.2,0,.4,0,.7,0,0-.3,0-.5.1-.7Z"/>
    <path class="st27" d="M17.2,25.1c.2,0,.4,0,.7.1-.2.1-.3.3-.5.5,0,.2.1.5.1.7-.2-.1-.3-.3-.5-.4-.2.1-.3.3-.5.4h0c0-.3,0-.5.1-.7-.1-.2-.3-.4-.5-.5.2,0,.4,0,.7-.1.1-.9.3-.9.4,0Z"/>
    <path class="st1" d="M21.1,25.1c.2,0,.4,0,.7.1-.2,0-.4.3-.5.5,0,.2,0,.4.1.6,0,0,0,0,0,0-.2-.1-.3-.3-.5-.4-.2.1-.3.3-.5.4,0-.2,0-.5.1-.7-.1-.2-.3-.3-.5-.5.2,0,.4,0,.6,0,0-.2.2-.5.2-.7,0,.2.2.5.2.7Z"/>
    <path class="st42" d="M9.5,25.1c.2,0,.4,0,.7,0,0,0,0,0,0,0-.2,0-.4,0-.6-.1Z"/>
    <path class="st31" d="M16.9,25.1c-.2,0-.4,0-.7.1,0,0,0,0,0,0,.2,0,.5,0,.7,0Z"/>
    <path class="st31" d="M17.2,25.1c.2,0,.5,0,.7,0,0,0,0,0,0,0-.2,0-.4,0-.7-.1Z"/>
    <path class="st21" d="M21.1,25.1c.2,0,.5,0,.7,0,0,0,0,0,0,0-.2,0-.4,0-.7-.1Z"/>
    <path class="st21" d="M24.6,25.1c-.2,0-.4,0-.6.1,0,0,0,0,0,0,.2,0,.4,0,.7,0Z"/>
    <path class="st1" d="M7.3,26.4c.1.2.2.5.2.7h.6c-.2.2-.3.4-.5.6,0,.2.1.5.2.7-.2-.2-.3-.3-.5-.5-.2.1-.3.3-.5.4,0,0,0,0,0,0,0-.2.2-.5.2-.7-.2-.2-.3-.3-.5-.5.2,0,.4,0,.7,0,0-.3.1-.5.2-.7Z"/>
    <path class="st11" d="M26.8,26.4c.1.2.2.5.2.7.2,0,.4,0,.7,0-.2.1-.4.3-.5.5.1.2.2.5.1.7-.2-.1-.3-.3-.5-.4-.2.1-.4.3-.5.5,0-.2,0-.5.2-.7-.1-.2-.3-.4-.5-.5h.6c0-.3.1-.5.2-.8Z"/>
    <path class="st27" d="M11.2,26.4c0,0,0,0,.1.1,0,.2,0,.4.2.6h.6c-.2.2-.3.4-.5.6,0,.2.1.5.2.7-.2-.2-.4-.3-.5-.5-.2.2-.3.3-.5.5,0-.2,0-.5.2-.7-.2-.2-.3-.4-.5-.5.2,0,.4,0,.7,0,0-.2.1-.5.1-.7Z"/>
    <path class="st27" d="M15.1,26.4c.1.2.2.5.2.7.2,0,.4,0,.7,0-.2.1-.3.3-.5.4,0,.2,0,.4.1.7,0,0,0,0,0,0-.2-.1-.3-.3-.5-.4-.2.1-.4.3-.5.5,0,0,0,0,0,0,.1-.3.2-.5.1-.8-.1-.1-.3-.2-.4-.4.2,0,.4,0,.7,0,0-.3,0-.5.1-.7Z"/>
    <path class="st27" d="M19,26.4c.1.2.2.5.2.7.2,0,.4,0,.7,0-.2.1-.3.3-.5.4,0,.2,0,.4.1.7,0,0,0,0,0,0-.2-.1-.3-.3-.5-.4-.2.1-.3.3-.5.4h0c0-.3.1-.5.1-.7-.1-.1-.3-.3-.5-.4.2,0,.4,0,.7,0,0-.3,0-.5.1-.7Z"/>
    <path class="st4" d="M22.9,26.4c.1.2.2.5.2.7.2,0,.4,0,.7,0-.2.2-.4.3-.5.5.1.2.2.5.1.7-.2-.1-.3-.3-.5-.4-.2.1-.4.3-.5.5,0-.2,0-.5.2-.7-.1-.2-.3-.4-.5-.5h.6c0-.3.1-.5.2-.8Z"/>
    <path class="st1" d="M9.3,28.4c0,.2.2.5.2.7h.6c-.2.2-.3.4-.5.6,0,.2.1.5.2.7-.2-.2-.4-.3-.5-.5-.2.2-.4.3-.6.4,0-.2.2-.5.2-.7-.2-.2-.3-.3-.5-.5.2,0,.4,0,.7,0,0-.3.1-.5.2-.7Z"/>
    <path class="st27" d="M13.1,28.4c.1.2.2.5.2.7.2,0,.4,0,.7,0-.2.1-.3.3-.5.4,0,.2,0,.4.1.6,0,0,0,0,0,.1-.2-.1-.3-.3-.5-.4-.2.2-.3.3-.5.5,0,0,0,0,0,0,.1-.2.2-.5.2-.8-.2-.1-.3-.3-.5-.4.2,0,.4,0,.7,0,0-.3,0-.5.1-.7Z"/>
    <path class="st11" d="M17,28.4c.1.2.2.5.2.7.2,0,.4,0,.7,0-.2.1-.3.3-.5.4,0,.2,0,.4.1.7,0,0,0,0,0,0-.2-.1-.3-.3-.5-.4-.2.2-.3.3-.5.5,0,0,0,0,0,0,.1-.2.2-.5.2-.8-.1-.1-.3-.3-.5-.4.2,0,.4,0,.7,0,0-.3,0-.5.1-.7Z"/>
    <path class="st27" d="M20.9,28.4s0,0,0,0c0,.2.1.4.1.7.2,0,.4,0,.7,0-.1.1-.3.3-.5.4,0,.2,0,.4.1.7,0,0,0,0,0,0-.2-.1-.3-.3-.5-.4-.2.1-.3.3-.5.4,0,0,0,0,0-.1,0-.2.1-.4.1-.6-.1-.1-.3-.3-.5-.4.2,0,.4,0,.7,0,0-.3,0-.5.1-.7Z"/>
    <path class="st4" d="M24.8,28.4c.1.2.2.5.2.7.2,0,.4,0,.7,0-.2.2-.4.3-.5.5.1.2.2.5.1.7-.2-.1-.3-.3-.5-.4-.2.1-.4.3-.5.5,0-.2,0-.5.2-.7-.1-.2-.3-.4-.5-.5h.6c0-.3.1-.5.2-.8Z"/>
    <path class="st22" d="M28.8,28.9c6.4,0,12.8,0,19.2,0-1.6.9-3.1,1.9-4.7,2.8-4.8,0-9.7,0-14.5,0v-2.9Z"/>
    <path class="st24" d="M53.6,29.8c4.5,0,9,0,13.5,0h0c-4.6,0-9.1,0-13.7,0,0,0,0,0,.1,0Z"/>
    <path class="st4" d="M7.3,30.4c0,.2.2.5.2.7.2,0,.4,0,.7,0-.2.1-.3.3-.5.4,0,.3,0,.5.2.7,0,0,0,0,0,0-.2-.2-.3-.3-.5-.5-.2.1-.3.3-.5.5,0-.3,0-.5.2-.7-.2-.2-.3-.3-.5-.5.2,0,.4,0,.7,0,0-.3.1-.5.2-.7Z"/>
    <path class="st4" d="M11.2,30.4s0,0,0,0c0,.2.1.4.2.6.2,0,.4,0,.7,0-.2.1-.3.3-.5.4,0,.2,0,.4.1.6,0,0,0,0,0,.1-.2-.1-.3-.3-.5-.4-.2.1-.3.3-.5.5,0-.3,0-.5.2-.7-.2-.2-.3-.3-.5-.5.2,0,.4,0,.7,0,0-.2.1-.5.1-.7Z"/>
    <path class="st27" d="M15.1,30.4c.1.2.2.5.2.7.2,0,.5,0,.7,0-.2.1-.3.3-.5.4,0,.3,0,.5.2.8h0c-.2-.1-.3-.3-.5-.4-.2.1-.3.3-.5.4,0,0,0,0,0,0,.1-.2.2-.5.2-.8-.1-.1-.3-.3-.5-.4.2,0,.4,0,.7,0,0-.3,0-.5.1-.7Z"/>
    <path class="st27" d="M19,30.4c.1.2.2.5.2.7.2,0,.4,0,.7,0-.2.1-.3.3-.5.4,0,.2,0,.4.1.7,0,0,0,0,0,0-.2-.1-.3-.3-.5-.4-.2.2-.3.3-.5.5,0,0,0,0,0,0,.1-.2.2-.5.2-.8-.1-.1-.3-.3-.5-.4.2,0,.4,0,.7,0,0-.3,0-.5.1-.7Z"/>
    <path class="st27" d="M22.9,30.4c.1.2.2.5.2.7.2,0,.4,0,.7,0-.2.2-.3.3-.5.5,0,.2.2.5.2.7-.2,0-.4-.2-.6-.4-.2.1-.3.3-.5.4,0,0,0,0,0,0,0-.2.1-.5.2-.7-.2-.2-.3-.3-.5-.4h.7c0-.3.1-.5.2-.8Z"/>
    <path class="st4" d="M26.8,30.4c.1.2.2.5.2.7.2,0,.4,0,.7,0-.2.2-.3.3-.5.5,0,.2.1.5.2.7-.2-.2-.3-.3-.5-.5-.2.1-.3.3-.5.4,0,0,0,0,0,0,0-.2.1-.5.2-.7-.2-.2-.3-.3-.5-.4h.7c0-.3.1-.5.2-.8Z"/>
    <path class="st29" d="M67.1,32.4v7.5h-27.8v15h-6.2v-15c-1,0-2.1,0-3.1,0,1.2-.8,2.5-1.5,3.7-2.2,1.6-.9,3.2-1.9,4.8-2.9,1.2-.8,2.5-1.5,3.8-2.3,8.3,0,16.5,0,24.8,0Z"/>
    <path class="st44" d="M9.3,32.5c0,.2.2.5.2.7.2,0,.4,0,.7,0-.2.1-.3.3-.5.4,0,.3,0,.5.2.7,0,0,0,0,0,0-.2-.2-.3-.3-.5-.5-.2.1-.3.3-.5.5,0-.3,0-.5.2-.7-.2-.2-.3-.3-.5-.5.2,0,.4,0,.7,0,0-.3.1-.5.2-.7Z"/>
    <path class="st17" d="M13.1,32.5c.1.2.2.5.2.7.2,0,.5,0,.7,0-.2.1-.3.3-.5.4,0,.3,0,.5.2.8h0c-.2-.1-.3-.3-.5-.4-.2.1-.3.3-.5.5,0-.3,0-.5.2-.7-.2-.2-.4-.3-.5-.5.2,0,.4,0,.7,0,0-.2.1-.5.1-.7Z"/>
    <path class="st44" d="M17,32.5c.1.2.2.5.2.7.2,0,.4,0,.7,0-.2.1-.3.3-.5.4,0,.3,0,.5.2.8h0c-.2-.1-.3-.3-.5-.4-.2.2-.4.3-.6.4.1-.2.2-.5.2-.8-.1-.1-.3-.3-.5-.4.2,0,.4,0,.7,0,0-.3,0-.5.1-.7Z"/>
    <path class="st27" d="M20.9,32.5c.1.2.2.4.2.7.2,0,.4,0,.7,0-.1.1-.3.3-.5.4v.8c0-.2-.2-.3-.4-.5-.2.1-.3.3-.5.4,0,0,0,0,0,0,.1-.2.2-.5.2-.8-.2-.2-.3-.3-.5-.4.2,0,.5,0,.7,0,0-.2,0-.5.1-.7Z"/>
    <path class="st44" d="M24.8,32.5c.1.2.2.5.2.7.2,0,.4,0,.7,0-.2.2-.3.3-.5.5.1.2.2.5.2.7-.2-.2-.3-.3-.5-.5-.2.1-.3.3-.5.4,0,0,0,0,0,0,0-.2.1-.5.2-.7-.2-.2-.3-.3-.5-.4h.7c0-.3.1-.5.2-.8Z"/>
    <path class="st18" d="M7.3,34.5c0,.2.2.5.2.7.2,0,.4,0,.7,0-.2.1-.3.3-.5.4,0,.3,0,.5.2.7,0,0,0,0,0,0-.2-.1-.3-.3-.5-.5-.2.2-.3.3-.5.5,0-.2,0-.5.2-.7-.2-.2-.3-.3-.5-.5.2,0,.4,0,.7,0,0-.3.1-.5.2-.7Z"/>
    <path class="st17" d="M11.2,34.5c0,.2.2.5.2.7.2,0,.5,0,.7,0-.2.1-.3.3-.5.4,0,.3,0,.5.2.8,0,0,0,0,0,0-.2-.2-.3-.3-.5-.5-.2.1-.3.3-.5.5,0-.3,0-.5.2-.7-.2-.2-.4-.3-.5-.5.2,0,.4,0,.7,0,0-.3.1-.5.2-.7Z"/>
    <path class="st28" d="M15.1,34.5c.1.2.2.5.2.7.2,0,.5,0,.7,0-.2.1-.3.3-.5.4,0,.3,0,.5.2.8-.2,0-.4-.2-.6-.4-.2.1-.3.3-.5.5,0-.3,0-.5,0-.8-.1-.1-.3-.3-.5-.4.2,0,.4,0,.7,0,0-.2.1-.5.1-.7Z"/>
    <path class="st28" d="M19,34.5c.1.2.2.5.2.7.2,0,.4,0,.7,0-.1.2-.3.3-.5.4,0,.3,0,.5,0,.8-.2-.2-.3-.3-.5-.5-.2.2-.4.3-.6.4.1-.2.2-.5.2-.8-.2-.2-.3-.3-.5-.4.2,0,.5,0,.7,0,0-.3,0-.5.1-.7Z"/>
    <path class="st44" d="M22.9,34.5c.1.2.2.5.2.7.2,0,.4,0,.7,0-.1.1-.3.3-.5.4,0,.3,0,.5,0,.8-.2-.2-.3-.3-.5-.5-.2.2-.4.3-.6.4,0-.2.1-.5.2-.7-.1-.2-.3-.4-.5-.5.2,0,.5,0,.7,0,0-.3,0-.5.1-.7Z"/>
    <path class="st28" d="M26.8,34.5c.1.2.2.5.2.7.2,0,.4,0,.7,0-.2.2-.3.3-.5.5,0,.2.2.5.2.7-.2-.2-.3-.3-.5-.4-.2,0-.3.2-.5.4,0,0,0,0,0,0,0-.2.1-.5.2-.7-.2-.2-.3-.3-.5-.4.2,0,.4,0,.7,0,0-.2.2-.5.2-.7Z"/>
    <path class="st43" d="M28.8,34.7h9.8c-1.6,1-3.2,2-4.8,2.9-1.6,0-3.3,0-4.9,0v-2.9Z"/>
    <path class="st12" d="M5.3,37.6h23.5c1.7,0,3.3,0,4.9,0-1.2.7-2.5,1.5-3.7,2.2,1,0,2.1,0,3.1,0v15h-2c0-3.8,0-7.6,0-11.4,0,0,0,0,0,0-6.3,3.8-12.5,7.5-18.7,11.3h-2.3c6.8-4.1,13.6-8.3,20.4-12.4,0,0,0,0,.1,0-1.5,0-3,0-4.5,0,1-.6,2-1.2,3-1.8-7.9,0-15.8,0-23.7,0v-2.9Z"/>
    <path class="st12" d="M67.1,39.9v2.5c-4.6,0-9.1,0-13.7,0,0,0,0,0,.1,0,4.5,2.7,9,5.5,13.5,8.2v1.4c-5.3-3.2-10.6-6.4-16-9.6-1.5,0-3.1,0-4.6,0,0,0,0,0,.1,0,6.8,4.1,13.6,8.2,20.4,12.4h-6.9c-6.2-3.8-12.5-7.6-18.7-11.3,0,0,0,0,0,0,0,3.8,0,7.6,0,11.4h-2v-15h27.8Z"/>
    <path class="st43" d="M5.3,40.5c7.9,0,15.8,0,23.7,0-1,.6-2,1.2-3,1.8,0,0-.1,0-.1.1-.5.3-1,.7-1.6,1-6.3,0-12.6,0-19,0v-2.9Z"/>
    <path class="st2" d="M26,42.3c1.5,0,3,0,4.5,0,0,0,0,0-.1,0-1.5,0-3,0-4.5,0,0,0,0,0,.1-.1Z"/>
    <path class="st34" d="M51.1,42.4c-1.5,0-3,0-4.5,0,0,0,0,0-.1,0,1.5,0,3.1,0,4.6,0Z"/>
    <path class="st24" d="M67.1,42.4h0c-4.5,0-9,0-13.5.1,0,0,0,0-.1,0,4.6,0,9.1,0,13.7,0Z"/>
    <path class="st15" d="M25.9,42.4c1.5,0,3,0,4.5,0-6.8,4.1-13.6,8.2-20.4,12.4h-4.6c1.6-1,3.1-1.9,4.7-2.9,1.6-1,3.1-1.9,4.7-2.8,1.6-1,3.2-1.9,4.8-2.9,1.6-1,3.1-1.9,4.7-2.8.5-.3,1.1-.6,1.6-1Z"/>
    <path class="st7" d="M46.7,42.5c1.5,0,3,0,4.5,0,5.3,3.2,10.6,6.4,16,9.6v2.8h0c-6.8-4.1-13.6-8.3-20.4-12.4Z"/>
    <path class="st5" d="M53.6,42.5c4.5,0,9,0,13.5,0v8.2c-4.5-2.7-9-5.4-13.5-8.2Z"/>
    <path class="st12" d="M5.3,43.3c6.3,0,12.6,0,19,0-1.6.9-3.1,1.9-4.7,2.8H5.3v-2.9Z"/>
    <path class="st5" d="M31,43.5c0,3.8,0,7.6,0,11.3H12.3c6.2-3.8,12.5-7.6,18.7-11.3Z"/>
    <path class="st24" d="M31,43.5s0,0,0,0c0,3.8,0,7.6,0,11.4h0c0-3.8,0-7.6,0-11.3Z"/>
    <path class="st24" d="M41.4,43.5c0,3.8,0,7.6,0,11.3h0c0-3.8,0-7.6,0-11.4,0,0,0,0,0,0Z"/>
    <path class="st5" d="M41.4,43.5c6.3,3.8,12.5,7.5,18.7,11.3h-18.8c0-3.8,0-7.6,0-11.3Z"/>
    <path class="st43" d="M5.3,46.2h14.3c-1.6,1-3.2,2-4.8,2.9-3.1,0-6.3,0-9.5,0v-2.9Z"/>
    <path class="st12" d="M5.3,49.1c3.2,0,6.3,0,9.5,0-1.6.9-3.1,1.9-4.7,2.8h-4.8v-2.9Z"/>
    <path class="st23" d="M5.3,52h4.8c-1.6,1-3.1,1.9-4.7,2.9h0v-2.9Z"/>
  </g>
  <path id="path" class="st46" d="M5,17h62v38H5V17Z"/>
</svg>