<?xml version="1.0" encoding="UTF-8"?>
<svg xmlns="http://www.w3.org/2000/svg" xmlns:xlink="http://www.w3.org/1999/xlink" width="150px" height="150px" viewBox="0 0 150 100" version="1.1">
<g id="surface1">
<rect x="0" y="0" width="150" height="100" style="fill:rgb(100%,100%,100%);fill-opacity:1;stroke:none;"/>
<path style="fill-rule:nonzero;fill:rgb(21.176471%,58.039218%,26.274511%);fill-opacity:1;stroke-width:3;stroke-linecap:butt;stroke-linejoin:miter;stroke:rgb(0.392157%,0%,0.784314%);stroke-opacity:1;stroke-miterlimit:10;" d="M 1885.929199 1567.635742 C 1885.929199 1567.635742 1884.899902 1560.629883 1898.181152 1555.516602 C 1911.462402 1550.370117 1912.491699 1531.27832 1909.835449 1518.52832 C 1909.835449 1518.52832 1902.895996 1530.647461 1894.495605 1534.698242 C 1894.495605 1534.698242 1880.782715 1541.836914 1880.151855 1555.483398 C 1880.151855 1555.483398 1880.052246 1560.463867 1878.989746 1564.348633 C 1878.425293 1566.473633 1872.382324 1547.282227 1883.870605 1532.97168 C 1895.757324 1518.229492 1899.077637 1506.276367 1889.614746 1482.967773 C 1889.614746 1482.967773 1888.751465 1497.112305 1879.45459 1505.180664 C 1870.157715 1513.249023 1868.962402 1513.879883 1869.128418 1533.137695 C 1869.128418 1533.137695 1869.26123 1539.811523 1865.741699 1542.00293 C 1865.741699 1542.00293 1858.503418 1531.444336 1856.577637 1524.438477 C 1854.651855 1517.46582 1853.788574 1514.510742 1862.056152 1506.40918 C 1862.056152 1506.40918 1888.48584 1489.30957 1869.427246 1451.889648 C 1869.427246 1451.889648 1868.82959 1464.805664 1859.665527 1472.40918 C 1850.534668 1480.012695 1851.265137 1485.125977 1850.833496 1498.34082 C 1850.401855 1511.555664 1849.505371 1510.625977 1848.476074 1512.485352 C 1848.476074 1512.485352 1831.64209 1481.573242 1844.624512 1465.104492 C 1857.606934 1448.635742 1864.845215 1445.21582 1850.534668 1414.602539 C 1850.534668 1414.602539 1851.165527 1430.307617 1839.710449 1438.077148 C 1828.255371 1445.84668 1830.911621 1464.008789 1830.911621 1464.008789 C 1830.911621 1464.008789 1831.64209 1470.848633 1829.284668 1475.829102 C 1829.284668 1475.829102 1813.081543 1444.219727 1828.554199 1427.186523 C 1841.702637 1412.743164 1842.565918 1402.649414 1835.493652 1382.163086 C 1835.493652 1382.163086 1834.597168 1391.625977 1827.39209 1396.739258 C 1820.153809 1401.885742 1814.409668 1406.999023 1815.737793 1426.72168 C 1815.737793 1426.72168 1816.302246 1440.567383 1814.54248 1444.452148 C 1814.54248 1444.452148 1807.769043 1431.868164 1805.843262 1423.633789 C 1803.91748 1415.399414 1803.187012 1410.584961 1808.200684 1402.350586 C 1813.214355 1394.116211 1833.13623 1370.508789 1809.395996 1336.475586 C 1809.395996 1336.475586 1808.665527 1347.499023 1802.589355 1357.459961 C 1796.546387 1367.387695 1799.368652 1379.208008 1800.696777 1388.206055 C 1802.024902 1397.204102 1797.575684 1405.90332 1797.575684 1405.90332 C 1797.575684 1405.90332 1787.249512 1386.977539 1789.474121 1365.229492 C 1791.69873 1343.481445 1782.833496 1325.618164 1762.778809 1312.735352 C 1762.778809 1312.735352 1748.169434 1346.569336 1768.091309 1363.834961 C 1768.091309 1363.834961 1785.058105 1380.602539 1789.341309 1400.956055 C 1789.341309 1400.956055 1776.491699 1399.694336 1764.837402 1377.016602 C 1753.183105 1354.338867 1729.01123 1357.924805 1727.384277 1357.758789 C 1727.384277 1357.758789 1731.368652 1392.887695 1768.522949 1402.81543 C 1768.522949 1402.81543 1792.263184 1406.866211 1796.712402 1424.264648 C 1796.712402 1424.264648 1800.696777 1436.217773 1802.290527 1442.592773 C 1802.290527 1442.592773 1794.786621 1439.637695 1787.847168 1429.37793 C 1780.907715 1419.118164 1781.804199 1417.889648 1758.362793 1415.56543 C 1758.362793 1415.56543 1748.899902 1414.469727 1743.88623 1407.795898 C 1743.88623 1407.795898 1753.780762 1444.916992 1779.147949 1444.584961 C 1779.147949 1444.584961 1802.290527 1442.12793 1815.272949 1472.541992 C 1815.272949 1472.541992 1812.782715 1471.014648 1809.395996 1468.69043 C 1806.009277 1466.333008 1797.442871 1461.983398 1780.476074 1464.008789 C 1763.509277 1466.03418 1758.794434 1463.245117 1754.51123 1461.850586 C 1754.51123 1461.850586 1771.61084 1493.227539 1795.815918 1483.897461 C 1820.020996 1474.567383 1831.675293 1508.567383 1831.940918 1509.231445 C 1831.940918 1509.231445 1828.720215 1506.741211 1824.437012 1502.524414 C 1820.153809 1498.34082 1811.288574 1493.161133 1794.487793 1498.506836 C 1794.487793 1498.506836 1782.401855 1503.155273 1770.149902 1499.436523 C 1770.149902 1499.436523 1781.937012 1522.24707 1809.528809 1518.395508 C 1837.120605 1514.510742 1844.060059 1538.71582 1844.060059 1538.71582 C 1844.060059 1538.71582 1840.374512 1536.557617 1837.851074 1534.532227 C 1835.327637 1532.506836 1826.063965 1527.227539 1806.14209 1533.137695 C 1786.220215 1539.047852 1779.015137 1532.208008 1779.015137 1532.208008 C 1779.015137 1532.208008 1790.071777 1552.395508 1811.288574 1554.719727 C 1811.288574 1554.719727 1823.108887 1554.586914 1828.122559 1552.694336 C 1833.13623 1550.834961 1846.41748 1547.879883 1855.54834 1561.094727 C 1855.54834 1561.094727 1853.058105 1561.55957 1849.206543 1559.866211 C 1849.206543 1559.866211 1835.062012 1554.719727 1824.270996 1563.750977 C 1824.270996 1563.750977 1814.708496 1573.512695 1801.128418 1571.65332 C 1801.128418 1571.65332 1818.659668 1588.75293 1846.550293 1574.30957 C 1846.550293 1574.30957 1855.97998 1567.469727 1862.919434 1572.749023 C 1869.858887 1578.02832 1885.929199 1567.635742 1885.929199 1567.635742 Z M 1885.929199 1567.635742 " transform="matrix(0.117647,0,0,0.117647,-175.081055,-116.720703)"/>
<path style="fill-rule:nonzero;fill:rgb(95.686275%,77.254903%,23.921569%);fill-opacity:1;stroke-width:3;stroke-linecap:butt;stroke-linejoin:miter;stroke:rgb(0.392157%,0%,0.784314%);stroke-opacity:1;stroke-miterlimit:10;" d="M 2041.087402 1146.65332 C 2041.087402 1146.65332 2037.866699 1117.766602 2060.976074 1114.977539 C 2085.04834 1112.088867 2096.968262 1117.168945 2096.968262 1117.168945 L 2107.759277 1138.385742 L 2104.040527 1152.663086 L 2089.099121 1159.50293 C 2089.099121 1159.50293 2091.655762 1137.555664 2071.501465 1137.09082 C 2066.421387 1136.991211 2063.433105 1139.016602 2055.364746 1137.72168 C 2047.22998 1136.426758 2042.913574 1145.358398 2041.087402 1146.65332 Z M 2041.087402 1146.65332 " transform="matrix(0.117647,0,0,0.117647,-175.081055,-116.720703)"/>
<path style="fill-rule:nonzero;fill:rgb(95.686275%,77.254903%,23.921569%);fill-opacity:1;stroke-width:3;stroke-linecap:butt;stroke-linejoin:miter;stroke:rgb(0.392157%,0%,0.784314%);stroke-opacity:1;stroke-miterlimit:10;" d="M 2203.649902 1218.239258 C 2200.196777 1222.688477 2186.41748 1224.21582 2186.41748 1224.21582 C 2186.41748 1224.21582 2200.595215 1235.106445 2206.671387 1250.645508 C 2212.780762 1266.18457 2042.581543 1250.745117 2042.581543 1250.745117 C 2042.581543 1250.745117 2049.952637 1245.46582 2054.966309 1235.504883 C 2054.966309 1235.504883 2047.429199 1238.327148 2039.925293 1230.856445 C 2039.925293 1230.856445 2045.536621 1232.71582 2052.907715 1221.526367 C 2052.907715 1221.526367 2063.79834 1207.547852 2071.468262 1203.829102 C 2071.468262 1203.829102 2067.94873 1206.020508 2059.382324 1201.338867 C 2059.382324 1201.338867 2074.124512 1199.479492 2079.437012 1174.311523 C 2079.437012 1174.311523 2080.333496 1168.733398 2085.944824 1160.665039 C 2091.556152 1152.563477 2090.36084 1162.192383 2100.687012 1149.774414 C 2100.687012 1149.774414 2105.401855 1140.975586 2101.284668 1135.59668 C 2097.134277 1130.217773 2092.718262 1132.176758 2084.085449 1126.99707 C 2075.419434 1121.817383 2071.567871 1118.928711 2074.522949 1110.926758 C 2077.478027 1102.958008 2085.147949 1104.219727 2086.243652 1104.219727 C 2087.306152 1104.219727 2087.903809 1097.280273 2097.333496 1092.499023 C 2106.796387 1087.750977 2131.864746 1089.80957 2135.583496 1091.901367 C 2139.335449 1093.959961 2154.476074 1098.40918 2163.308105 1120.788086 C 2172.17334 1143.133789 2160.950684 1151.53418 2185.056152 1185.301758 C 2185.056152 1185.301758 2175.427246 1187.360352 2169.218262 1185.500977 C 2169.218262 1185.500977 2181.702637 1207.647461 2203.649902 1218.239258 Z M 2203.649902 1218.239258 " transform="matrix(0.117647,0,0,0.117647,-175.081055,-116.720703)"/>
<path style="fill:none;stroke-width:3;stroke-linecap:butt;stroke-linejoin:miter;stroke:rgb(0.392157%,0%,0.784314%);stroke-opacity:1;stroke-miterlimit:10;" d="M 2098.32959 1123.842773 C 2078.706543 1122.913086 2086.243652 1104.219727 2086.243652 1104.219727 " transform="matrix(0.117647,0,0,0.117647,-175.081055,-116.720703)"/>
<path style="fill-rule:nonzero;fill:rgb(95.686275%,77.254903%,23.921569%);fill-opacity:1;stroke-width:3;stroke-linecap:butt;stroke-linejoin:miter;stroke:rgb(0.392157%,0%,0.784314%);stroke-opacity:1;stroke-miterlimit:10;" d="M 2132.395996 1126.399414 C 2132.395996 1126.399414 2128.942871 1124.772461 2125.987793 1120.887695 C 2121.870605 1115.442383 2112.706543 1112.819336 2107.759277 1117.932617 C 2107.759277 1117.932617 2102.745605 1123.510742 2098.32959 1123.842773 C 2098.32959 1123.842773 2103.343262 1125.40332 2106.796387 1128.557617 C 2110.282715 1131.745117 2113.901855 1134.102539 2119.04834 1133.405273 C 2124.228027 1132.674805 2125.024902 1129.985352 2127.44873 1128.325195 C 2129.905762 1126.698242 2132.395996 1126.399414 2132.395996 1126.399414 Z M 2132.395996 1126.399414 " transform="matrix(0.117647,0,0,0.117647,-175.081055,-116.720703)"/>
<path style="fill-rule:nonzero;fill:rgb(95.686275%,77.254903%,23.921569%);fill-opacity:1;stroke-width:3;stroke-linecap:butt;stroke-linejoin:miter;stroke:rgb(0.392157%,0%,0.784314%);stroke-opacity:1;stroke-miterlimit:4;" d="M 2259.995605 1405.770508 C 2259.995605 1405.770508 2278.257324 1420.678711 2293.597168 1405.770508 C 2293.597168 1405.770508 2299.806152 1413.208008 2312.190918 1411.049805 C 2324.575684 1408.858398 2326.634277 1402.350586 2327.82959 1398.631836 C 2327.82959 1398.631836 2338.554199 1404.874023 2347.585449 1399.926758 C 2356.649902 1394.979492 2356.649902 1387.541992 2356.649902 1387.541992 C 2356.649902 1387.541992 2372.388184 1390.629883 2380.42334 1379.97168 C 2388.491699 1369.313477 2383.577637 1358.754883 2379.26123 1357.493164 C 2379.26123 1357.493164 2396.26123 1361.975586 2400.876465 1347.366211 C 2404.827637 1334.948242 2395.962402 1328.506836 2395.962402 1328.506836 C 2395.962402 1328.506836 2431.821777 1328.34082 2446.497559 1317.118164 C 2446.497559 1317.118164 2458.716309 1309.448242 2451.444824 1301.379883 C 2451.444824 1301.379883 2483.685059 1296.200195 2491.753418 1283.350586 C 2491.753418 1283.350586 2495.272949 1279.831055 2494.11084 1273.62207 C 2494.11084 1273.62207 2493.911621 1270.102539 2490.358887 1269.90332 C 2490.358887 1269.90332 2527.147949 1264.225586 2537.772949 1252.073242 C 2537.772949 1252.073242 2542.88623 1246.495117 2540.32959 1239.024414 C 2540.32959 1239.024414 2539.765137 1237.06543 2538.901855 1235.737305 C 2538.901855 1235.737305 2572.370605 1228.698242 2588.905762 1213.756836 C 2588.905762 1213.756836 2598.435059 1205.290039 2593.520996 1193.901367 C 2593.520996 1193.901367 2649.468262 1178.561523 2636.48584 1153.924805 C 2636.48584 1153.924805 2662.649902 1145.424805 2654.382324 1121.817383 C 2654.382324 1121.817383 2676.030762 1110.827148 2666.567871 1093.428711 C 2657.536621 1076.793945 2629.812012 1096.350586 2596.940918 1105.415039 C 2596.940918 1105.415039 2508.056152 1133.405273 2464.294434 1140.875977 L 2339.915527 1326.016602 L 2267.366699 1353.973633 Z M 2259.995605 1405.770508 " transform="matrix(0.117647,0,0,0.117647,-175.081055,-116.720703)"/>
<path style="fill-rule:nonzero;fill:rgb(95.686275%,77.254903%,23.921569%);fill-opacity:1;stroke-width:3;stroke-linecap:butt;stroke-linejoin:miter;stroke:rgb(0.392157%,0%,0.784314%);stroke-opacity:1;stroke-miterlimit:4;" d="M 2259.099121 1269.37207 C 2259.099121 1269.37207 2270.753418 1260.639648 2291.538574 1270.932617 C 2291.538574 1270.932617 2298.544434 1275.74707 2304.056152 1270.467773 C 2308.638184 1266.051758 2309.069824 1257.916992 2302.76123 1253.235352 C 2287.255371 1241.74707 2281.51123 1207.249023 2305.118652 1192.97168 C 2305.118652 1192.97168 2339.351074 1172.651367 2464.825684 1140.743164 C 2464.825684 1140.743164 2475.317871 1137.821289 2480.929199 1139.21582 C 2487.10498 1140.743164 2491.35498 1146.055664 2492.218262 1150.571289 C 2492.218262 1150.571289 2497.82959 1166.541992 2478.970215 1175.672852 C 2478.970215 1175.672852 2470.437012 1179.557617 2461.671387 1182.081055 C 2461.671387 1182.081055 2471.300293 1179.989258 2475.41748 1189.551758 C 2479.368652 1198.649414 2473.657715 1207.979492 2455.960449 1213.989258 C 2455.960449 1213.989258 2451.179199 1215.848633 2444.339355 1217.508789 C 2444.339355 1217.508789 2459.47998 1221.858398 2452.208496 1234.077148 C 2452.208496 1234.077148 2445.733887 1246.926758 2422.82373 1249.18457 C 2422.82373 1249.18457 2439.92334 1251.043945 2427.837402 1267.313477 C 2427.837402 1267.313477 2422.524902 1276.211914 2405.790527 1279.532227 C 2405.790527 1279.532227 2418.474121 1279.930664 2412.099121 1291.352539 C 2405.690918 1302.741211 2390.649902 1309.149414 2375.874512 1310.178711 C 2375.874512 1310.178711 2367.839355 1310.610352 2362.26123 1309.348633 C 2362.26123 1309.348633 2376.306152 1316.387695 2368.038574 1328.208008 C 2368.038574 1328.208008 2361.962402 1336.575195 2346.722168 1336.176758 C 2346.722168 1336.176758 2350.67334 1349.358398 2339.483887 1354.338867 C 2330.784668 1358.223633 2323.546387 1352.014648 2323.546387 1352.014648 C 2323.546387 1352.014648 2326.501465 1366.15918 2313.817871 1371.139648 C 2313.817871 1371.139648 2307.476074 1374.393555 2298.046387 1371.139648 C 2298.046387 1371.139648 2290.808105 1387.276367 2265.14209 1375.954102 C 2239.476074 1364.598633 2259.099121 1269.37207 2259.099121 1269.37207 Z M 2259.099121 1269.37207 " transform="matrix(0.117647,0,0,0.117647,-175.081055,-116.720703)"/>
<path style="fill:none;stroke-width:3;stroke-linecap:butt;stroke-linejoin:miter;stroke:rgb(0.392157%,0%,0.784314%);stroke-opacity:1;stroke-miterlimit:4;" d="M 2654.382324 1121.817383 C 2654.382324 1121.817383 2614.07373 1145.15918 2488.499512 1168.500977 " transform="matrix(0.117647,0,0,0.117647,-175.081055,-116.720703)"/>
<path style="fill-rule:nonzero;fill:rgb(95.686275%,77.254903%,23.921569%);fill-opacity:1;stroke-width:3;stroke-linecap:butt;stroke-linejoin:miter;stroke:rgb(0.392157%,0%,0.784314%);stroke-opacity:1;stroke-miterlimit:4;" d="M 1934.372559 1534.598633 C 1934.372559 1534.598633 1919.431152 1560.264648 1901.335449 1560.696289 C 1901.335449 1560.696289 1870.224121 1556.911133 1861.425293 1565.045898 C 1855.282715 1570.723633 1849.040527 1575.405273 1846.483887 1589.881836 C 1843.927246 1604.391602 1851.397949 1607.479492 1853.157715 1608.110352 C 1853.157715 1608.110352 1854.552246 1618.469727 1864.778809 1615.780273 C 1864.778809 1615.780273 1865.343262 1626.538086 1883.438965 1621.358398 C 1901.534668 1616.178711 1909.005371 1617.838867 1912.558105 1599.842773 C 1916.11084 1581.813477 1919.364746 1582.112305 1922.585449 1579.954102 C 1926.901855 1577.032227 1935.036621 1574.30957 1941.07959 1570.823242 C 1946.491699 1567.702148 1967.210449 1557.176758 1974.315918 1556.34668 C 1981.388184 1555.516602 1979.827637 1531.676758 1979.827637 1531.676758 L 1961.532715 1531.676758 L 1952.66748 1518.62793 Z M 1934.372559 1534.598633 " transform="matrix(0.117647,0,0,0.117647,-175.081055,-116.720703)"/>
<path style="fill:none;stroke-width:3;stroke-linecap:butt;stroke-linejoin:miter;stroke:rgb(0.392157%,0%,0.784314%);stroke-opacity:1;stroke-miterlimit:4;" d="M 2636.48584 1153.924805 C 2636.48584 1153.924805 2527.380371 1189.518555 2476.546387 1193.901367 M 2593.520996 1193.901367 C 2593.520996 1193.901367 2529.505371 1213.989258 2454.532715 1226.672852 M 2538.901855 1235.737305 C 2538.901855 1235.737305 2466.585449 1253.135742 2432.054199 1256.024414 " transform="matrix(0.117647,0,0,0.117647,-175.081055,-116.720703)"/>
<path style="fill:none;stroke-width:3;stroke-linecap:butt;stroke-linejoin:miter;stroke:rgb(0.392157%,0%,0.784314%);stroke-opacity:1;stroke-miterlimit:10;" d="M 2490.358887 1269.90332 C 2490.358887 1269.90332 2429.19873 1282.65332 2413.692871 1284.180664 " transform="matrix(0.117647,0,0,0.117647,-175.081055,-116.720703)"/>
<path style="fill-rule:nonzero;fill:rgb(0%,50.588238%,77.64706%);fill-opacity:1;stroke-width:3;stroke-linecap:butt;stroke-linejoin:miter;stroke:rgb(0.392157%,0%,0.784314%);stroke-opacity:1;stroke-miterlimit:10;" d="M 2421.495605 1362.938477 L 2424.583496 1459.991211 L 2407.450684 1450.063477 L 2378.895996 1573.24707 L 2367.14209 1564.780273 L 2394.899902 1446.776367 L 2375.54248 1447.141602 Z M 2421.495605 1362.938477 " transform="matrix(0.117647,0,0,0.117647,-175.081055,-116.720703)"/>
<path style="fill:none;stroke-width:3;stroke-linecap:butt;stroke-linejoin:miter;stroke:rgb(0.392157%,0%,0.784314%);stroke-opacity:1;stroke-miterlimit:10;" d="M 2451.444824 1301.379883 C 2451.444824 1301.379883 2406.786621 1308.15332 2389.022949 1307.788086 M 2395.962402 1328.506836 C 2395.962402 1328.506836 2377.933105 1327.676758 2369.233887 1326.21582 M 2379.26123 1357.493164 C 2379.26123 1357.493164 2363.921387 1353.375977 2354.856934 1347.56543 M 2356.649902 1387.541992 C 2356.649902 1387.541992 2344.82959 1382.993164 2339.151855 1370.541992 M 2327.82959 1398.631836 C 2327.82959 1398.631836 2318.69873 1390.430664 2318.101074 1381.333008 " transform="matrix(0.117647,0,0,0.117647,-175.081055,-116.720703)"/>
<path style="fill-rule:nonzero;fill:rgb(0%,50.588238%,77.64706%);fill-opacity:1;stroke-width:3;stroke-linecap:butt;stroke-linejoin:miter;stroke:rgb(0.392157%,0%,0.784314%);stroke-opacity:1;stroke-miterlimit:10;" d="M 2532.36084 1406.102539 L 2491.819824 1493.327148 L 2481.095215 1476.061523 L 2395.464355 1577.264648 L 2386.200684 1566.87207 L 2471.499512 1466.963867 L 2454.233887 1457.700195 Z M 2532.36084 1406.102539 " transform="matrix(0.117647,0,0,0.117647,-175.081055,-116.720703)"/>
<path style="fill:none;stroke-width:3;stroke-linecap:butt;stroke-linejoin:miter;stroke:rgb(0.392157%,0%,0.784314%);stroke-opacity:1;stroke-miterlimit:10;" d="M 2293.597168 1405.770508 C 2293.597168 1405.770508 2297.050293 1402.81543 2294.692871 1389.96582 " transform="matrix(0.117647,0,0,0.117647,-175.081055,-116.720703)"/>
<path style="fill-rule:nonzero;fill:rgb(0%,50.588238%,77.64706%);fill-opacity:1;stroke-width:3;stroke-linecap:butt;stroke-linejoin:miter;stroke:rgb(0.392157%,0%,0.784314%);stroke-opacity:1;stroke-miterlimit:10;" d="M 2495.372559 1342.086914 L 2474.487793 1436.682617 L 2460.376465 1422.405273 L 2383.710449 1569.793945 L 2371.890137 1562.887695 L 2449.054199 1415.797852 L 2430.26123 1410.850586 Z M 2495.372559 1342.086914 " transform="matrix(0.117647,0,0,0.117647,-175.081055,-116.720703)"/>
<path style="fill:none;stroke-width:3;stroke-linecap:butt;stroke-linejoin:miter;stroke:rgb(0.392157%,0%,0.784314%);stroke-opacity:1;stroke-miterlimit:10;" d="M 2298.046387 1371.139648 C 2298.046387 1371.139648 2299.806152 1367.454102 2299.208496 1361.643555 " transform="matrix(0.117647,0,0,0.117647,-175.081055,-116.720703)"/>
<path style="fill-rule:nonzero;fill:rgb(95.686275%,77.254903%,23.921569%);fill-opacity:1;stroke-width:3;stroke-linecap:butt;stroke-linejoin:miter;stroke:rgb(0.392157%,0%,0.784314%);stroke-opacity:1;stroke-miterlimit:4;" d="M 1991.97998 1405.770508 C 1991.97998 1405.770508 1973.685059 1420.678711 1958.345215 1405.770508 C 1958.345215 1405.770508 1952.169434 1413.208008 1939.784668 1411.049805 C 1927.399902 1408.858398 1925.308105 1402.350586 1924.145996 1398.631836 C 1924.145996 1398.631836 1913.421387 1404.874023 1904.390137 1399.926758 C 1895.325684 1394.979492 1895.325684 1387.541992 1895.325684 1387.541992 C 1895.325684 1387.541992 1879.587402 1390.629883 1871.519043 1379.97168 C 1863.483887 1369.313477 1868.397949 1358.754883 1872.714355 1357.493164 C 1872.714355 1357.493164 1855.714355 1361.975586 1851.065918 1347.366211 C 1847.147949 1334.948242 1855.97998 1328.506836 1855.97998 1328.506836 C 1855.97998 1328.506836 1820.153809 1328.34082 1805.444824 1317.118164 C 1805.444824 1317.118164 1793.259277 1309.448242 1800.530762 1301.379883 C 1800.530762 1301.379883 1768.290527 1296.200195 1760.222168 1283.350586 C 1760.222168 1283.350586 1756.669434 1279.831055 1757.864746 1273.62207 C 1757.864746 1273.62207 1758.063965 1270.102539 1761.583496 1269.90332 C 1761.583496 1269.90332 1724.827637 1264.225586 1714.202637 1252.073242 C 1714.202637 1252.073242 1709.089355 1246.495117 1711.645996 1239.024414 C 1711.645996 1239.024414 1712.177246 1237.06543 1713.07373 1235.737305 C 1713.07373 1235.737305 1679.60498 1228.698242 1663.069824 1213.756836 C 1663.069824 1213.756836 1653.540527 1205.290039 1658.45459 1193.901367 C 1658.45459 1193.901367 1602.507324 1178.561523 1615.489746 1153.924805 C 1615.489746 1153.924805 1589.325684 1145.424805 1597.593262 1121.817383 C 1597.593262 1121.817383 1575.944824 1110.827148 1585.374512 1093.428711 C 1594.438965 1076.793945 1622.163574 1096.350586 1655.001465 1105.415039 C 1655.001465 1105.415039 1743.88623 1133.405273 1787.681152 1140.875977 L 1912.026855 1326.016602 L 1984.608887 1353.973633 Z M 1991.97998 1405.770508 " transform="matrix(0.117647,0,0,0.117647,-175.081055,-116.720703)"/>
<path style="fill:none;stroke-width:3;stroke-linecap:butt;stroke-linejoin:miter;stroke:rgb(0.392157%,0%,0.784314%);stroke-opacity:1;stroke-miterlimit:10;" d="M 2362.526855 1187.260742 C 2362.526855 1187.260742 2341.874512 1195.561523 2335.001465 1206.950195 C 2328.128418 1218.338867 2332.644043 1229.395508 2335.001465 1235.737305 C 2336.196777 1238.958008 2350.739746 1267.014648 2333.640137 1287.301758 " transform="matrix(0.117647,0,0,0.117647,-175.081055,-116.720703)"/>
<path style="fill-rule:nonzero;fill:rgb(95.686275%,77.254903%,23.921569%);fill-opacity:1;stroke-width:3;stroke-linecap:butt;stroke-linejoin:miter;stroke:rgb(0.392157%,0%,0.784314%);stroke-opacity:1;stroke-miterlimit:4;" d="M 1992.876465 1269.37207 C 1992.876465 1269.37207 1981.222168 1260.639648 1960.437012 1270.932617 C 1960.437012 1270.932617 1953.431152 1275.74707 1947.919434 1270.467773 C 1943.304199 1266.051758 1942.872559 1257.916992 1949.214355 1253.235352 C 1964.687012 1241.74707 1970.464355 1207.249023 1946.856934 1192.97168 C 1946.856934 1192.97168 1912.624512 1172.651367 1787.149902 1140.743164 C 1787.149902 1140.743164 1776.657715 1137.821289 1771.046387 1139.21582 C 1764.870605 1140.743164 1760.620605 1146.055664 1759.757324 1150.571289 C 1759.757324 1150.571289 1754.112793 1166.541992 1773.005371 1175.672852 C 1773.005371 1175.672852 1781.538574 1179.557617 1790.304199 1182.081055 C 1790.304199 1182.081055 1780.675293 1179.989258 1776.558105 1189.551758 C 1772.606934 1198.649414 1778.317871 1207.979492 1796.015137 1213.989258 C 1796.015137 1213.989258 1800.796387 1215.848633 1807.603027 1217.508789 C 1807.603027 1217.508789 1792.462402 1221.858398 1799.76709 1234.077148 C 1799.76709 1234.077148 1806.241699 1246.926758 1829.151855 1249.18457 C 1829.151855 1249.18457 1812.052246 1251.043945 1824.138184 1267.313477 C 1824.138184 1267.313477 1829.450684 1276.211914 1846.151855 1279.532227 C 1846.151855 1279.532227 1833.468262 1279.930664 1839.876465 1291.352539 C 1846.251465 1302.741211 1861.29248 1309.149414 1876.101074 1310.178711 C 1876.101074 1310.178711 1884.13623 1310.610352 1889.714355 1309.348633 C 1889.714355 1309.348633 1875.669434 1316.387695 1883.937012 1328.208008 C 1883.937012 1328.208008 1890.013184 1336.575195 1905.253418 1336.176758 C 1905.253418 1336.176758 1901.302246 1349.358398 1912.491699 1354.338867 C 1921.190918 1358.223633 1928.429199 1352.014648 1928.429199 1352.014648 C 1928.429199 1352.014648 1925.474121 1366.15918 1938.157715 1371.139648 C 1938.157715 1371.139648 1944.499512 1374.393555 1953.929199 1371.139648 C 1953.929199 1371.139648 1961.16748 1387.276367 1986.833496 1375.954102 C 2012.499512 1364.598633 1992.876465 1269.37207 1992.876465 1269.37207 Z M 1992.876465 1269.37207 " transform="matrix(0.117647,0,0,0.117647,-175.081055,-116.720703)"/>
<path style="fill:none;stroke-width:3;stroke-linecap:butt;stroke-linejoin:miter;stroke:rgb(0.392157%,0%,0.784314%);stroke-opacity:1;stroke-miterlimit:10;" d="M 2362.26123 1309.348633 C 2362.26123 1309.348633 2362.161621 1309.249023 2354.856934 1306.958008 M 2405.790527 1279.532227 C 2405.790527 1279.532227 2393.505371 1282.022461 2381.419434 1282.12207 M 2422.82373 1249.18457 C 2422.82373 1249.18457 2408.347168 1250.645508 2394.800293 1250.446289 M 2444.339355 1217.508789 C 2444.339355 1217.508789 2423.487793 1221.65918 2412.29834 1221.858398 M 2461.671387 1182.081055 C 2461.671387 1182.081055 2435.938965 1189.418945 2416.813965 1192.041992 M 2374.347168 1207.149414 C 2374.347168 1207.149414 2392.841309 1224.348633 2370.595215 1240.286133 C 2370.595215 1240.286133 2379.858887 1254.795898 2361.364746 1269.90332 " transform="matrix(0.117647,0,0,0.117647,-175.081055,-116.720703)"/>
<path style="fill-rule:nonzero;fill:rgb(95.686275%,77.254903%,23.921569%);fill-opacity:1;stroke-width:3;stroke-linecap:butt;stroke-linejoin:miter;stroke:rgb(0.392157%,0%,0.784314%);stroke-opacity:1;stroke-miterlimit:4;" d="M 1994.403809 1416.196289 C 1994.403809 1416.196289 1990.618652 1436.416992 1960.769043 1461.850586 C 1960.769043 1461.850586 1937.726074 1482.204102 1938.32373 1505.579102 C 1938.921387 1529.418945 1934.17334 1532.108398 1925.14209 1540.176758 C 1925.14209 1540.176758 1943.835449 1541.637695 1952.866699 1529.219727 C 1952.866699 1529.219727 1952.468262 1549.905273 1949.712402 1551.764648 C 1949.712402 1551.764648 1955.589355 1552.163086 1964.089355 1542.866211 C 1964.089355 1542.866211 1969.202637 1537.487305 1973.91748 1535.428711 C 1973.91748 1535.428711 1968.405762 1549.706055 1972.722168 1562.954102 C 1972.722168 1562.954102 1974.116699 1557.774414 1981.388184 1555.516602 C 1981.388184 1555.516602 1994.569824 1552.827148 1999.683105 1533.768555 C 1999.683105 1533.768555 2003.003418 1521.118164 2023.655762 1509.928711 C 2023.655762 1509.928711 2047.063965 1501.129883 2046.466309 1489.575195 C 2045.901855 1478.053711 1994.403809 1416.196289 1994.403809 1416.196289 Z M 1994.403809 1416.196289 " transform="matrix(0.117647,0,0,0.117647,-175.081055,-116.720703)"/>
<path style="fill:none;stroke-width:3;stroke-linecap:butt;stroke-linejoin:miter;stroke:rgb(0.392157%,0%,0.784314%);stroke-opacity:1;stroke-miterlimit:10;" d="M 2366.278809 1277.041992 C 2366.278809 1277.041992 2369.034668 1304.700195 2335.200684 1304.700195 C 2335.200684 1304.700195 2341.708496 1329.336914 2309.036621 1328.506836 C 2309.036621 1328.506836 2305.317871 1348.196289 2281.710449 1344.245117 " transform="matrix(0.117647,0,0,0.117647,-175.081055,-116.720703)"/>
<path style="fill-rule:nonzero;fill:rgb(95.686275%,77.254903%,23.921569%);fill-opacity:1;stroke-width:3;stroke-linecap:butt;stroke-linejoin:miter;stroke:rgb(0.392157%,0%,0.784314%);stroke-opacity:1;stroke-miterlimit:4;" d="M 2317.603027 1534.598633 C 2317.603027 1534.598633 2332.577637 1560.264648 2350.67334 1560.696289 C 2350.67334 1560.696289 2381.784668 1556.911133 2390.583496 1565.045898 C 2396.726074 1570.723633 2402.968262 1575.405273 2405.524902 1589.881836 C 2408.081543 1604.391602 2400.61084 1607.479492 2398.851074 1608.110352 C 2398.851074 1608.110352 2397.456543 1618.469727 2387.22998 1615.780273 C 2387.22998 1615.780273 2386.632324 1626.538086 2368.536621 1621.358398 C 2350.474121 1616.178711 2342.970215 1617.838867 2339.450684 1599.842773 C 2335.897949 1581.813477 2332.644043 1582.112305 2329.42334 1579.954102 C 2325.07373 1577.032227 2316.972168 1574.30957 2310.929199 1570.823242 C 2305.51709 1567.702148 2284.765137 1557.176758 2277.692871 1556.34668 C 2270.620605 1555.516602 2272.181152 1531.676758 2272.181152 1531.676758 L 2290.476074 1531.676758 L 2299.341309 1518.62793 Z M 2317.603027 1534.598633 " transform="matrix(0.117647,0,0,0.117647,-175.081055,-116.720703)"/>
<path style="fill-rule:nonzero;fill:rgb(95.686275%,77.254903%,23.921569%);fill-opacity:1;stroke-width:3;stroke-linecap:butt;stroke-linejoin:miter;stroke:rgb(0.392157%,0%,0.784314%);stroke-opacity:1;stroke-miterlimit:4;" d="M 2257.60498 1416.196289 C 2257.60498 1416.196289 2261.390137 1436.416992 2291.239746 1461.850586 C 2291.239746 1461.850586 2314.282715 1482.204102 2313.685059 1505.579102 C 2313.087402 1529.418945 2317.802246 1532.108398 2326.866699 1540.176758 C 2326.866699 1540.176758 2308.17334 1541.637695 2299.14209 1529.219727 C 2299.14209 1529.219727 2299.540527 1549.905273 2302.263184 1551.764648 C 2302.263184 1551.764648 2296.419434 1552.163086 2287.919434 1542.866211 C 2287.919434 1542.866211 2282.806152 1537.487305 2278.091309 1535.428711 C 2278.091309 1535.428711 2283.603027 1549.706055 2279.253418 1562.954102 C 2279.253418 1562.954102 2277.89209 1557.774414 2270.620605 1555.516602 C 2270.620605 1555.516602 2257.438965 1552.827148 2252.325684 1533.768555 C 2252.325684 1533.768555 2248.972168 1521.118164 2228.319824 1509.928711 C 2228.319824 1509.928711 2204.944824 1501.129883 2205.509277 1489.575195 C 2206.106934 1478.053711 2257.60498 1416.196289 2257.60498 1416.196289 Z M 2257.60498 1416.196289 " transform="matrix(0.117647,0,0,0.117647,-175.081055,-116.720703)"/>
<path style="fill:none;stroke-width:3;stroke-linecap:butt;stroke-linejoin:miter;stroke:rgb(0.392157%,0%,0.784314%);stroke-opacity:1;stroke-miterlimit:4;" d="M 2333.706543 1560.696289 C 2333.706543 1560.696289 2339.052246 1561.891602 2350.67334 1560.696289 " transform="matrix(0.117647,0,0,0.117647,-175.081055,-116.720703)"/>
<path style="fill:none;stroke-width:3;stroke-linecap:butt;stroke-linejoin:miter;stroke:rgb(0.392157%,0%,0.784314%);stroke-opacity:1;stroke-miterlimit:10;" d="M 2383.312012 1575.172852 C 2383.312012 1575.172852 2399.614746 1572.682617 2398.851074 1608.110352 M 2373.483887 1583.274414 C 2373.483887 1583.274414 2388.226074 1581.381836 2387.22998 1615.780273 " transform="matrix(0.117647,0,0,0.117647,-175.081055,-116.720703)"/>
<path style="fill:none;stroke-width:3;stroke-linecap:butt;stroke-linejoin:miter;stroke:rgb(0.392157%,0%,0.784314%);stroke-opacity:1;stroke-miterlimit:4;" d="M 2231.075684 1500.399414 C 2231.075684 1500.399414 2238.181152 1501.860352 2243.095215 1507.47168 C 2248.009277 1513.049805 2257.438965 1512.020508 2257.438965 1512.020508 C 2257.438965 1512.020508 2252.325684 1507.870117 2250.565918 1497.510742 C 2248.772949 1487.151367 2243.095215 1484.063477 2243.095215 1484.063477 M 2259.962402 1474.235352 C 2259.962402 1474.235352 2267.067871 1475.696289 2271.981934 1481.274414 C 2276.895996 1486.885742 2286.325684 1485.856445 2286.325684 1485.856445 C 2286.325684 1485.856445 2281.212402 1481.706055 2279.452637 1471.34668 C 2277.659668 1460.987305 2271.981934 1457.899414 2271.981934 1457.899414 M 2264.843262 1514.444336 C 2264.843262 1514.444336 2271.019043 1515.706055 2275.302246 1520.586914 C 2279.618652 1525.467773 2287.853027 1524.571289 2287.853027 1524.571289 C 2287.853027 1524.571289 2283.370605 1520.952148 2281.843262 1511.920898 C 2280.282715 1502.889648 2275.302246 1500.166992 2275.302246 1500.166992 " transform="matrix(0.117647,0,0,0.117647,-175.081055,-116.720703)"/>
<path style="fill-rule:nonzero;fill:rgb(95.686275%,77.254903%,23.921569%);fill-opacity:1;stroke-width:3;stroke-linecap:butt;stroke-linejoin:miter;stroke:rgb(0.392157%,0%,0.784314%);stroke-opacity:1;stroke-miterlimit:10;" d="M 2149.130371 1676.874023 C 2149.130371 1676.874023 2154.509277 1700.547852 2173.13623 1698.62207 C 2173.13623 1698.62207 2186.317871 1697.393555 2185.321777 1675.413086 C 2185.321777 1675.413086 2204.778809 1685.772461 2207.933105 1660.106445 C 2207.933105 1660.106445 2225.630371 1664.256836 2225.431152 1640.217773 C 2225.431152 1640.217773 2241.966309 1643.106445 2240.007324 1621.790039 C 2240.007324 1621.790039 2257.903809 1626.538086 2257.903809 1606.450195 C 2257.903809 1606.450195 2299.772949 1599.510742 2212.44873 1519.889648 L 2134.587402 1566.274414 Z M 2149.130371 1676.874023 " transform="matrix(0.117647,0,0,0.117647,-175.081055,-116.720703)"/>
<path style="fill-rule:nonzero;fill:rgb(95.686275%,77.254903%,23.921569%);fill-opacity:1;stroke-width:3;stroke-linecap:butt;stroke-linejoin:miter;stroke:rgb(0.392157%,0%,0.784314%);stroke-opacity:1;stroke-miterlimit:4;" d="M 2140.497559 1570.723633 C 2140.497559 1570.723633 2153.446777 1582.211914 2162.710449 1565.045898 C 2162.710449 1565.045898 2175.294434 1564.415039 2177.253418 1554.885742 C 2177.253418 1554.885742 2187.47998 1553.856445 2189.438965 1544.12793 C 2189.438965 1544.12793 2203.41748 1542.666992 2203.019043 1530.84668 C 2203.019043 1530.84668 2228.419434 1528.887695 2203.019043 1500.166992 C 2177.651855 1471.413086 2134.587402 1547.84668 2134.587402 1547.84668 Z M 2140.497559 1570.723633 " transform="matrix(0.117647,0,0,0.117647,-175.081055,-116.720703)"/>
<path style="fill:none;stroke-width:3;stroke-linecap:butt;stroke-linejoin:miter;stroke:rgb(0.392157%,0%,0.784314%);stroke-opacity:1;stroke-miterlimit:10;" d="M 2185.321777 1675.413086 C 2185.321777 1675.413086 2183.362793 1633.80957 2147.270996 1574.143555 M 2207.933105 1660.106445 C 2207.933105 1660.106445 2213.544434 1636.067383 2162.710449 1565.045898 C 2162.710449 1565.045898 2168.620605 1548.045898 2150.524902 1537.188477 M 2225.431152 1640.217773 C 2225.431152 1640.217773 2227.024902 1614.219727 2177.253418 1554.885742 C 2177.253418 1554.885742 2181.669434 1539.545898 2163.640137 1527.327148 M 2240.007324 1621.790039 C 2240.007324 1621.790039 2238.114746 1595.493164 2189.438965 1544.12793 C 2189.438965 1544.12793 2191.895996 1528.389648 2174.431152 1518.62793 M 2257.903809 1606.450195 C 2257.903809 1606.450195 2254.351074 1576.43457 2203.019043 1530.84668 C 2203.019043 1530.84668 2204.778809 1519.05957 2187.679199 1507.040039 " transform="matrix(0.117647,0,0,0.117647,-175.081055,-116.720703)"/>
<path style="fill-rule:nonzero;fill:rgb(95.686275%,77.254903%,23.921569%);fill-opacity:1;stroke-width:3;stroke-linecap:butt;stroke-linejoin:miter;stroke:rgb(0.392157%,0%,0.784314%);stroke-opacity:1;stroke-miterlimit:10;" d="M 2102.878418 1676.874023 C 2102.878418 1676.874023 2097.499512 1700.547852 2078.872559 1698.62207 C 2078.872559 1698.62207 2065.690918 1697.393555 2066.687012 1675.413086 C 2066.687012 1675.413086 2047.196777 1685.772461 2044.075684 1660.106445 C 2044.075684 1660.106445 2026.378418 1664.256836 2026.544434 1640.217773 C 2026.544434 1640.217773 2010.04248 1643.106445 2012.001465 1621.790039 C 2012.001465 1621.790039 1994.10498 1626.538086 1994.10498 1606.450195 C 1994.10498 1606.450195 1952.23584 1599.510742 2039.526855 1519.889648 L 2117.421387 1566.274414 Z M 2102.878418 1676.874023 " transform="matrix(0.117647,0,0,0.117647,-175.081055,-116.720703)"/>
<path style="fill-rule:nonzero;fill:rgb(95.686275%,77.254903%,23.921569%);fill-opacity:1;stroke-width:3;stroke-linecap:butt;stroke-linejoin:miter;stroke:rgb(0.392157%,0%,0.784314%);stroke-opacity:1;stroke-miterlimit:4;" d="M 2111.51123 1570.723633 C 2111.51123 1570.723633 2098.528809 1582.211914 2089.29834 1565.045898 C 2089.29834 1565.045898 2076.714355 1564.415039 2074.755371 1554.885742 C 2074.755371 1554.885742 2064.528809 1553.856445 2062.536621 1544.12793 C 2062.536621 1544.12793 2048.591309 1542.666992 2048.989746 1530.84668 C 2048.989746 1530.84668 2023.589355 1528.887695 2048.956543 1500.166992 C 2074.356934 1471.413086 2117.421387 1547.84668 2117.421387 1547.84668 Z M 2111.51123 1570.723633 " transform="matrix(0.117647,0,0,0.117647,-175.081055,-116.720703)"/>
<path style="fill:none;stroke-width:3;stroke-linecap:butt;stroke-linejoin:miter;stroke:rgb(0.392157%,0%,0.784314%);stroke-opacity:1;stroke-miterlimit:10;" d="M 2066.687012 1675.413086 C 2066.687012 1675.413086 2068.645996 1633.80957 2104.737793 1574.143555 M 2044.075684 1660.106445 C 2044.075684 1660.106445 2038.464355 1636.067383 2089.29834 1565.045898 C 2089.29834 1565.045898 2083.388184 1548.045898 2101.483887 1537.188477 " transform="matrix(0.117647,0,0,0.117647,-175.081055,-116.720703)"/>
<path style="fill-rule:nonzero;fill:rgb(95.686275%,77.254903%,23.921569%);fill-opacity:1;stroke-width:3;stroke-linecap:butt;stroke-linejoin:miter;stroke:rgb(0.392157%,0%,0.784314%);stroke-opacity:1;stroke-miterlimit:4;" d="M 2125.987793 1563.584961 C 2138.571777 1563.584961 2152.849121 1642.176758 2149.130371 1689.524414 C 2147.802246 1706.723633 2138.571777 1720.768555 2125.987793 1720.768555 C 2113.403809 1720.768555 2104.206543 1706.723633 2102.878418 1689.524414 C 2099.159668 1642.176758 2113.403809 1563.584961 2125.987793 1563.584961 " transform="matrix(0.117647,0,0,0.117647,-175.081055,-116.720703)"/>
<path style="fill:none;stroke-width:3;stroke-linecap:butt;stroke-linejoin:miter;stroke:rgb(0.392157%,0%,0.784314%);stroke-opacity:1;stroke-miterlimit:10;" d="M 2026.544434 1640.217773 C 2026.544434 1640.217773 2024.983887 1614.219727 2074.755371 1554.885742 C 2074.755371 1554.885742 2070.339355 1539.545898 2088.368652 1527.327148 M 2012.001465 1621.790039 C 2012.001465 1621.790039 2013.86084 1595.493164 2062.536621 1544.12793 C 2062.536621 1544.12793 2060.112793 1528.389648 2077.544434 1518.62793 " transform="matrix(0.117647,0,0,0.117647,-175.081055,-116.720703)"/>
<path style="fill-rule:nonzero;fill:rgb(95.686275%,77.254903%,23.921569%);fill-opacity:1;stroke-width:3;stroke-linecap:butt;stroke-linejoin:miter;stroke:rgb(0.392157%,0%,0.784314%);stroke-opacity:1;stroke-miterlimit:4;" d="M 2143.419434 1562.954102 C 2143.419434 1548.709961 2135.616699 1537.188477 2125.987793 1537.188477 C 2116.39209 1537.188477 2108.589355 1548.709961 2108.589355 1562.954102 C 2108.589355 1577.198242 2116.39209 1588.75293 2125.987793 1588.75293 C 2135.616699 1588.75293 2143.419434 1577.198242 2143.419434 1562.954102 Z M 2143.419434 1562.954102 " transform="matrix(0.117647,0,0,0.117647,-175.081055,-116.720703)"/>
<path style="fill:none;stroke-width:3;stroke-linecap:butt;stroke-linejoin:miter;stroke:rgb(0.392157%,0%,0.784314%);stroke-opacity:1;stroke-miterlimit:10;" d="M 1994.10498 1606.450195 C 1994.10498 1606.450195 1997.657715 1576.43457 2048.989746 1530.84668 C 2048.989746 1530.84668 2047.196777 1519.05957 2064.32959 1507.040039 " transform="matrix(0.117647,0,0,0.117647,-175.081055,-116.720703)"/>
<path style="fill-rule:nonzero;fill:rgb(100%,100%,100%);fill-opacity:1;stroke-width:3;stroke-linecap:butt;stroke-linejoin:miter;stroke:rgb(0.392157%,0%,0.784314%);stroke-opacity:1;stroke-miterlimit:4;" d="M 2125.987793 1557.342773 C 2125.987793 1557.342773 2273.675293 1491.899414 2274.040527 1340.526367 L 1977.968262 1340.526367 C 1978.333496 1491.899414 2125.987793 1557.342773 2125.987793 1557.342773 Z M 2125.987793 1557.342773 " transform="matrix(0.117647,0,0,0.117647,-175.081055,-116.720703)"/>
<path style="fill:none;stroke-width:3;stroke-linecap:butt;stroke-linejoin:miter;stroke:rgb(0.392157%,0%,0.784314%);stroke-opacity:1;stroke-miterlimit:10;" d="M 2046.300293 1340.526367 L 2069.077637 1340.526367 M 2000.745605 1340.526367 L 2023.522949 1340.526367 M 2091.85498 1340.526367 L 2114.599121 1340.526367 " transform="matrix(0.117647,0,0,0.117647,-175.081055,-116.720703)"/>
<path style="fill-rule:nonzero;fill:rgb(65.098041%,0%,19.607843%);fill-opacity:1;stroke-width:3;stroke-linecap:butt;stroke-linejoin:miter;stroke:rgb(0.392157%,0%,0.784314%);stroke-opacity:1;stroke-miterlimit:4;" d="M 2000.745605 1340.526367 L 2000.745605 1437.24707 C 2000.745605 1437.24707 2012.067871 1459.692383 2023.522949 1473.737305 L 2023.522949 1340.526367 Z M 2046.300293 1340.526367 L 2046.300293 1499.967773 C 2046.300293 1499.967773 2060.544434 1513.913086 2069.077637 1520.65332 L 2069.077637 1340.526367 Z M 2091.85498 1340.526367 L 2091.85498 1537.586914 C 2091.85498 1537.586914 2108.091309 1548.079102 2114.599121 1551.532227 L 2114.599121 1340.526367 Z M 2091.85498 1340.526367 " transform="matrix(0.117647,0,0,0.117647,-175.081055,-116.720703)"/>
<path style="fill:none;stroke-width:3;stroke-linecap:butt;stroke-linejoin:miter;stroke:rgb(0.392157%,0%,0.784314%);stroke-opacity:1;stroke-miterlimit:4;" d="M 2000.745605 1340.526367 L 2023.522949 1340.526367 M 2046.300293 1340.526367 L 2069.077637 1340.526367 M 2091.85498 1340.526367 L 2114.599121 1340.526367 " transform="matrix(0.117647,0,0,0.117647,-175.081055,-116.720703)"/>
<path style="fill-rule:nonzero;fill:rgb(65.098041%,0%,19.607843%);fill-opacity:1;stroke-width:3;stroke-linecap:butt;stroke-linejoin:miter;stroke:rgb(0.392157%,0%,0.784314%);stroke-opacity:1;stroke-miterlimit:4;" d="M 2251.263184 1340.526367 L 2251.263184 1437.24707 C 2251.263184 1437.24707 2239.940918 1459.692383 2228.48584 1473.737305 L 2228.48584 1340.526367 Z M 2205.708496 1340.526367 L 2205.708496 1499.967773 C 2205.708496 1499.967773 2191.464355 1513.913086 2182.931152 1520.65332 L 2182.931152 1340.526367 Z M 2160.153809 1340.526367 L 2160.153809 1537.586914 C 2160.153809 1537.586914 2143.91748 1548.079102 2137.376465 1551.532227 L 2137.376465 1340.526367 Z M 2160.153809 1340.526367 " transform="matrix(0.117647,0,0,0.117647,-175.081055,-116.720703)"/>
<path style="fill-rule:nonzero;fill:rgb(0%,50.588238%,77.64706%);fill-opacity:1;stroke-width:3;stroke-linecap:butt;stroke-linejoin:miter;stroke:rgb(0.392157%,0%,0.784314%);stroke-opacity:1;stroke-miterlimit:10;" d="M 2364.718262 1614.717773 L 2358.974121 1638.192383 L 2374.712402 1653.864258 L 2352.499512 1747.696289 L 2332.710449 1721.166992 L 2303.458496 1734.813477 L 2325.671387 1640.981445 L 2346.257324 1635.237305 L 2351.603027 1611.795898 C 2351.603027 1611.795898 2357.845215 1609.37207 2364.718262 1614.717773 Z M 2364.718262 1614.717773 " transform="matrix(0.117647,0,0,0.117647,-175.081055,-116.720703)"/>
<path style="fill-rule:nonzero;fill:rgb(0%,50.588238%,77.64706%);fill-opacity:1;stroke-width:3;stroke-linecap:butt;stroke-linejoin:miter;stroke:rgb(0.392157%,0%,0.784314%);stroke-opacity:1;stroke-miterlimit:10;" d="M 2369.997559 1599.245117 L 2358.675293 1620.362305 L 2369.997559 1639.75293 L 2325.472168 1724.354492 L 2312.921387 1693.342773 L 2281.278809 1698.555664 L 2325.804199 1613.954102 L 2347.120605 1614.020508 L 2358.044434 1592.870117 C 2358.044434 1592.870117 2365.97998 1592.836914 2369.997559 1599.245117 Z M 2369.997559 1599.245117 " transform="matrix(0.117647,0,0,0.117647,-175.081055,-116.720703)"/>
<path style="fill-rule:nonzero;fill:rgb(0%,50.588238%,77.64706%);fill-opacity:1;stroke-width:3;stroke-linecap:butt;stroke-linejoin:miter;stroke:rgb(0.392157%,0%,0.784314%);stroke-opacity:1;stroke-miterlimit:10;" d="M 2371.890137 1605.387695 L 2341.808105 1643.637695 L 2348.714355 1665.219727 L 2287.255371 1737.104492 L 2281.644043 1703.901367 L 2249.702637 1701.477539 L 2311.128418 1629.592773 L 2331.880371 1634.706055 L 2363.821777 1594.131836 C 2363.821777 1594.131836 2372.388184 1598.381836 2371.890137 1605.387695 Z M 2371.890137 1605.387695 " transform="matrix(0.117647,0,0,0.117647,-175.081055,-116.720703)"/>
<path style="fill:none;stroke-width:3;stroke-linecap:butt;stroke-linejoin:miter;stroke:rgb(0.392157%,0%,0.784314%);stroke-opacity:1;stroke-miterlimit:4;" d="M 1597.593262 1121.817383 C 1597.593262 1121.817383 1637.901855 1145.15918 1763.442871 1168.500977 M 1615.489746 1153.924805 C 1615.489746 1153.924805 1724.595215 1189.518555 1775.395996 1193.901367 M 1658.45459 1193.901367 C 1658.45459 1193.901367 1722.470215 1213.989258 1797.409668 1226.672852 M 1713.07373 1235.737305 C 1713.07373 1235.737305 1785.390137 1253.135742 1819.921387 1256.024414 " transform="matrix(0.117647,0,0,0.117647,-175.081055,-116.720703)"/>
<path style="fill:none;stroke-width:3;stroke-linecap:butt;stroke-linejoin:miter;stroke:rgb(0.392157%,0%,0.784314%);stroke-opacity:1;stroke-miterlimit:10;" d="M 1761.583496 1269.90332 C 1761.583496 1269.90332 1822.776855 1282.65332 1838.282715 1284.180664 M 1800.530762 1301.379883 C 1800.530762 1301.379883 1845.188965 1308.15332 1862.952637 1307.788086 M 1855.97998 1328.506836 C 1855.97998 1328.506836 1874.04248 1327.676758 1882.708496 1326.21582 M 1872.714355 1357.493164 C 1872.714355 1357.493164 1888.054199 1353.375977 1897.085449 1347.56543 M 1895.325684 1387.541992 C 1895.325684 1387.541992 1907.112793 1382.993164 1912.82373 1370.541992 M 1924.145996 1398.631836 C 1924.145996 1398.631836 1933.276855 1390.430664 1933.874512 1381.333008 M 1958.345215 1405.770508 C 1958.345215 1405.770508 1954.925293 1402.81543 1957.282715 1389.96582 M 1953.929199 1371.139648 C 1953.929199 1371.139648 1952.169434 1367.454102 1952.76709 1361.643555 M 1889.415527 1187.260742 C 1889.415527 1187.260742 1910.067871 1195.561523 1916.974121 1206.950195 C 1923.847168 1218.338867 1919.29834 1229.395508 1916.974121 1235.737305 C 1915.778809 1238.958008 1901.23584 1267.014648 1918.335449 1287.301758 M 1889.714355 1309.348633 C 1889.714355 1309.348633 1889.813965 1309.249023 1897.085449 1306.958008 M 1846.151855 1279.532227 C 1846.151855 1279.532227 1858.470215 1282.022461 1870.556152 1282.12207 M 1829.151855 1249.18457 C 1829.151855 1249.18457 1843.595215 1250.645508 1857.175293 1250.446289 " transform="matrix(0.117647,0,0,0.117647,-175.081055,-116.720703)"/>
<path style="fill-rule:nonzero;fill:rgb(21.176471%,58.039218%,26.274511%);fill-opacity:1;stroke-width:3;stroke-linecap:butt;stroke-linejoin:miter;stroke:rgb(0.392157%,0%,0.784314%);stroke-opacity:1;stroke-miterlimit:10;" d="M 1882.874512 1610.500977 C 1882.874512 1610.500977 1882.442871 1597.916992 1898.347168 1596.987305 L 1945.263184 1662.231445 C 1945.263184 1662.231445 1943.503418 1666.415039 1922.253418 1665.950195 C 1922.253418 1665.950195 1919.995605 1665.950195 1918.833496 1668.44043 C 1917.007324 1672.258789 1882.874512 1610.500977 1882.874512 1610.500977 Z M 1882.874512 1610.500977 " transform="matrix(0.117647,0,0,0.117647,-175.081055,-116.720703)"/>
<path style="fill:none;stroke-width:3;stroke-linecap:butt;stroke-linejoin:miter;stroke:rgb(0.392157%,0%,0.784314%);stroke-opacity:1;stroke-miterlimit:10;" d="M 1807.603027 1217.508789 C 1807.603027 1217.508789 1828.45459 1221.65918 1839.677246 1221.858398 M 1790.304199 1182.081055 C 1790.304199 1182.081055 1816.036621 1189.418945 1835.161621 1192.041992 M 1877.628418 1207.149414 C 1877.628418 1207.149414 1859.134277 1224.348633 1881.380371 1240.286133 C 1881.380371 1240.286133 1872.116699 1254.795898 1890.61084 1269.90332 M 1885.696777 1277.041992 C 1885.696777 1277.041992 1882.940918 1304.700195 1916.774902 1304.700195 C 1916.774902 1304.700195 1910.26709 1329.336914 1942.905762 1328.506836 C 1942.905762 1328.506836 1946.657715 1348.196289 1970.265137 1344.245117 " transform="matrix(0.117647,0,0,0.117647,-175.081055,-116.720703)"/>
<path style="fill:none;stroke-width:3;stroke-linecap:butt;stroke-linejoin:miter;stroke:rgb(0.392157%,0%,0.784314%);stroke-opacity:1;stroke-miterlimit:4;" d="M 1918.269043 1560.696289 C 1918.269043 1560.696289 1912.890137 1561.891602 1901.302246 1560.696289 " transform="matrix(0.117647,0,0,0.117647,-175.081055,-116.720703)"/>
<path style="fill:none;stroke-width:3;stroke-linecap:butt;stroke-linejoin:miter;stroke:rgb(0.392157%,0%,0.784314%);stroke-opacity:1;stroke-miterlimit:10;" d="M 1868.663574 1575.172852 C 1868.663574 1575.172852 1852.327637 1572.682617 1853.124512 1608.110352 M 1878.491699 1583.274414 C 1878.491699 1583.274414 1863.749512 1581.381836 1864.712402 1615.780273 " transform="matrix(0.117647,0,0,0.117647,-175.081055,-116.720703)"/>
<path style="fill:none;stroke-width:3;stroke-linecap:butt;stroke-linejoin:miter;stroke:rgb(0.392157%,0%,0.784314%);stroke-opacity:1;stroke-miterlimit:4;" d="M 2020.899902 1500.399414 C 2020.899902 1500.399414 2013.827637 1501.860352 2008.913574 1507.47168 C 2003.999512 1513.049805 1994.569824 1512.020508 1994.569824 1512.020508 C 1994.569824 1512.020508 1999.683105 1507.870117 2001.442871 1497.510742 C 2003.202637 1487.151367 2008.913574 1484.063477 2008.913574 1484.063477 M 1992.013184 1474.235352 C 1992.013184 1474.235352 1984.940918 1475.696289 1980.026855 1481.274414 C 1975.112793 1486.885742 1965.683105 1485.856445 1965.683105 1485.856445 C 1965.683105 1485.856445 1970.796387 1481.706055 1972.556152 1471.34668 C 1974.315918 1460.987305 1980.026855 1457.899414 1980.026855 1457.899414 M 1987.165527 1514.444336 C 1987.165527 1514.444336 1980.989746 1515.706055 1976.67334 1520.586914 C 1972.390137 1525.467773 1964.155762 1524.571289 1964.155762 1524.571289 C 1964.155762 1524.571289 1968.60498 1520.952148 1970.165527 1511.920898 C 1971.692871 1502.856445 1976.67334 1500.166992 1976.67334 1500.166992 " transform="matrix(0.117647,0,0,0.117647,-175.081055,-116.720703)"/>
<path style="fill-rule:nonzero;fill:rgb(8.627451%,14.901961%,40.392157%);fill-opacity:1;stroke-width:3;stroke-linecap:butt;stroke-linejoin:miter;stroke:rgb(0.392157%,0%,0.784314%);stroke-opacity:1;stroke-miterlimit:10;" d="M 2274.040527 1230.557617 C 2274.040527 1230.557617 2201.558105 1268.442383 2125.987793 1227.436523 C 2050.41748 1268.442383 1977.968262 1230.557617 1977.968262 1230.557617 L 1977.968262 1340.526367 L 2274.040527 1340.526367 Z M 2274.040527 1230.557617 " transform="matrix(0.117647,0,0,0.117647,-175.081055,-116.720703)"/>
<path style="fill-rule:nonzero;fill:rgb(0%,50.588238%,77.64706%);fill-opacity:1;stroke-width:3;stroke-linecap:butt;stroke-linejoin:miter;stroke:rgb(0.392157%,0%,0.784314%);stroke-opacity:1;stroke-miterlimit:10;" d="M 1609.313965 1515.739258 C 1616.48584 1512.817383 1621.632324 1509.995117 1621.632324 1502.325195 C 1621.632324 1500.499023 1620.603027 1496.481445 1618.577637 1490.206055 L 1570.399902 1342.983398 C 1567.544434 1334.250977 1565.38623 1329.038086 1564.390137 1327.112305 C 1562.231934 1322.961914 1557.981934 1321.268555 1552.237793 1318.911133 L 1613.464355 1318.911133 C 1606.82373 1322.032227 1600.747559 1324.522461 1600.813965 1331.594727 C 1600.847168 1334.28418 1601.577637 1338.069336 1603.171387 1342.983398 L 1640.060059 1458.530273 L 1676.94873 1342.983398 C 1678.509277 1338.069336 1679.306152 1334.28418 1679.272949 1331.594727 C 1679.206543 1324.356445 1672.897949 1321.733398 1666.688965 1318.911133 L 1726.022949 1318.911133 C 1720.61084 1321.069336 1716.194824 1322.762695 1713.903809 1327.112305 C 1712.907715 1329.038086 1710.749512 1334.250977 1707.894043 1342.983398 L 1659.716309 1490.206055 C 1657.690918 1496.481445 1656.960449 1500.56543 1656.661621 1502.491211 C 1656.661621 1502.491211 1654.437012 1511.788086 1668.97998 1515.739258 Z M 2635.987793 1500.598633 L 2635.987793 1333.885742 C 2635.987793 1330.99707 2635.522949 1328.805664 2634.560059 1327.27832 C 2633.597168 1325.717773 2629.47998 1321.301758 2623.569824 1318.911133 L 2678.753418 1318.911133 C 2672.843262 1320.836914 2668.692871 1325.618164 2667.72998 1327.178711 C 2666.800293 1328.772461 2666.335449 1330.99707 2666.335449 1333.885742 L 2666.335449 1500.598633 C 2666.335449 1503.586914 2666.800293 1505.87793 2667.796387 1507.438477 C 2668.79248 1509.032227 2672.843262 1512.916992 2678.753418 1515.739258 L 2623.569824 1515.739258 C 2629.47998 1513.049805 2633.597168 1508.932617 2634.560059 1507.37207 C 2635.522949 1505.844727 2635.987793 1503.586914 2635.987793 1500.598633 Z M 2635.987793 1500.598633 " transform="matrix(0.117647,0,0,0.117647,-175.081055,-116.720703)"/>
</g>
</svg>
