<?xml version="1.0" encoding="UTF-8"?>
<svg xmlns="http://www.w3.org/2000/svg" xmlns:xlink="http://www.w3.org/1999/xlink" width="150px" height="150px" viewBox="0 0 150 75" version="1.1">
<g id="surface1">
<rect x="0" y="0" width="150" height="75" style="fill:rgb(80.000001%,0%,0%);fill-opacity:1;stroke:none;"/>
<path style=" stroke:none;fill-rule:nonzero;fill:rgb(100%,84.313726%,0%);fill-opacity:1;" d="M 25 4.6875 L 23.949219 7.925781 L 20.542969 7.925781 L 23.296875 9.929688 L 22.246094 13.167969 L 25 11.164062 L 27.753906 13.167969 L 26.703125 9.929688 L 29.457031 7.925781 L 26.050781 7.925781 Z M 25 6.375 L 25.671875 8.449219 L 27.851562 8.449219 L 26.089844 9.730469 L 26.761719 11.800781 L 25 10.519531 L 23.238281 11.800781 L 23.910156 9.730469 L 22.148438 8.449219 L 24.328125 8.449219 Z M 25 6.375 "/>
<path style=" stroke:none;fill-rule:nonzero;fill:rgb(100%,84.313726%,0%);fill-opacity:1;" d="M 17.476562 21.648438 L 19.808594 23.992188 L 22.007812 21.8125 C 25.355469 25.390625 28.863281 28.839844 32.183594 32.433594 C 32.683594 32.9375 33.492188 32.9375 33.996094 32.441406 C 34.5 31.945312 34.5 31.132812 34.003906 30.632812 C 30.4375 27.277344 26.863281 23.898438 23.300781 20.53125 L 26.261719 17.597656 L 22.140625 17.027344 Z M 17.476562 21.648438 "/>
<path style=" stroke:none;fill-rule:nonzero;fill:rgb(100%,84.313726%,0%);fill-opacity:1;" d="M 25 14.0625 C 26.917969 15.140625 28.375 16.6875 29.234375 18.304688 C 30.105469 19.945312 30.488281 21.65625 30.496094 23.023438 C 30.511719 25.828125 28.21875 28.101562 25.40625 28.101562 C 23.902344 28.101562 22.554688 27.453125 21.621094 26.425781 L 21.105469 26.859375 C 21.019531 26.824219 20.925781 26.808594 20.832031 26.808594 C 20.605469 26.808594 20.390625 26.90625 20.246094 27.078125 C 19.875 27.125 19.570312 27.378906 19.453125 27.730469 C 19.066406 28.507812 18.382812 29.113281 17.5625 29.394531 C 17.554688 29.394531 17.546875 29.398438 17.539062 29.402344 C 17.160156 29.542969 16.777344 29.792969 16.453125 30.117188 C 15.8125 30.765625 15.496094 31.589844 15.671875 32.171875 C 15.65625 32.222656 15.648438 32.273438 15.648438 32.328125 C 15.648438 32.59375 15.863281 32.8125 16.132812 32.8125 C 16.199219 32.8125 16.265625 32.796875 16.328125 32.769531 C 16.910156 32.902344 17.695312 32.582031 18.3125 31.960938 C 18.664062 31.609375 18.925781 31.195312 19.054688 30.785156 C 19.339844 29.96875 19.957031 29.304688 20.738281 28.929688 C 20.757812 28.921875 20.773438 28.910156 20.785156 28.902344 C 21.046875 28.777344 21.238281 28.539062 21.308594 28.257812 C 22.507812 29.671875 24.308594 30.570312 26.320312 30.621094 C 30.007812 30.707031 32.765625 27.996094 32.894531 24.101562 C 32.957031 22.140625 32.195312 19.613281 30.464844 17.542969 C 29.140625 15.957031 27.199219 14.640625 25 14.0625 Z M 25 14.0625 "/>
</g>
</svg>
