<?xml version="1.0" encoding="UTF-8"?>
<svg xmlns="http://www.w3.org/2000/svg" xmlns:xlink="http://www.w3.org/1999/xlink" width="150px" height="150px" viewBox="0 0 150 90" version="1.1">
<g id="surface1">
<rect x="0" y="0" width="150" height="90" style="fill:rgb(100%,100%,100%);fill-opacity:1;stroke:none;"/>
<path style=" stroke:none;fill-rule:nonzero;fill:rgb(2.745098%,11.372549%,28.627452%);fill-opacity:1;" d="M 150 0 L 150 36.339844 L 135 27.679688 L 127.5 32.011719 L 105 19.019531 L 97.503906 23.351562 L 75 10.359375 L 52.496094 23.351562 L 45 19.019531 L 22.5 32.011719 L 15 27.679688 L 0 36.339844 L 0 0 Z M 150 0 "/>
<path style=" stroke:none;fill-rule:nonzero;fill:rgb(2.745098%,11.372549%,28.627452%);fill-opacity:1;" d="M 100.980469 60 L 100.980469 30 L 75.003906 15 L 49.019531 30 L 49.019531 60 L 75.003906 75 Z M 100.980469 60 "/>
<path style=" stroke:none;fill-rule:nonzero;fill:rgb(100%,72.156864%,11.372549%);fill-opacity:1;" d="M 75 17.71875 L 51.375 31.363281 L 51.375 58.640625 L 75 72.285156 L 98.625 58.640625 L 98.625 31.363281 Z M 97.5 57.992188 L 75 70.984375 L 52.5 57.992188 L 52.5 32.011719 L 75 19.019531 L 97.5 32.011719 Z M 97.5 57.992188 "/>
<path style=" stroke:none;fill-rule:nonzero;fill:rgb(100%,72.156864%,11.372549%);fill-opacity:1;" d="M 83.136719 31.484375 L 66.875 31.484375 C 66.5625 31.484375 66.402344 31.101562 66.628906 30.882812 C 68.996094 28.617188 71.863281 27.140625 74.996094 27.140625 C 78.128906 27.140625 81.023438 28.617188 83.378906 30.882812 C 83.480469 30.984375 83.511719 31.132812 83.457031 31.265625 C 83.402344 31.398438 83.273438 31.484375 83.132812 31.484375 Z M 86.859375 37.300781 L 63.140625 37.300781 C 62.925781 37.300781 62.722656 37.1875 62.609375 37 C 62.496094 36.816406 62.488281 36.585938 62.585938 36.390625 C 63.046875 35.5 63.566406 34.640625 64.136719 33.820312 C 64.515625 33.277344 65.136719 32.957031 65.796875 32.957031 L 84.210938 32.957031 C 84.875 32.957031 85.496094 33.285156 85.871094 33.824219 C 86.441406 34.644531 86.957031 35.503906 87.414062 36.390625 C 87.511719 36.585938 87.503906 36.816406 87.390625 37 C 87.277344 37.1875 87.074219 37.300781 86.859375 37.300781 Z M 89.003906 43.113281 L 60.996094 43.113281 C 60.804688 43.113281 60.621094 43.023438 60.503906 42.875 C 60.386719 42.722656 60.34375 42.523438 60.390625 42.335938 C 60.609375 41.480469 60.851562 40.632812 61.125 39.792969 C 61.328125 39.179688 61.898438 38.769531 62.542969 38.769531 L 87.464844 38.769531 C 88.105469 38.769531 88.675781 39.183594 88.878906 39.792969 C 89.132812 40.554688 89.378906 41.421875 89.613281 42.335938 C 89.660156 42.523438 89.617188 42.722656 89.5 42.871094 C 89.382812 43.023438 89.199219 43.113281 89.007812 43.113281 Z M 90.265625 48.929688 L 59.738281 48.929688 C 59.550781 48.929688 59.375 48.847656 59.257812 48.703125 C 59.140625 48.5625 59.089844 48.375 59.125 48.191406 C 59.273438 47.402344 59.433594 46.585938 59.605469 45.769531 C 59.75 45.082031 60.359375 44.589844 61.0625 44.585938 L 88.941406 44.585938 C 89.652344 44.585938 90.257812 45.082031 90.398438 45.769531 C 90.570312 46.585938 90.730469 47.398438 90.878906 48.191406 C 90.914062 48.375 90.867188 48.5625 90.746094 48.703125 C 90.628906 48.847656 90.453125 48.929688 90.265625 48.929688 Z M 77.902344 54.742188 C 77.558594 54.742188 77.28125 54.464844 77.28125 54.121094 C 77.28125 53.492188 77.023438 52.925781 76.613281 52.511719 C 76.199219 52.101562 75.628906 51.84375 75 51.84375 C 73.742188 51.84375 72.722656 52.859375 72.71875 54.117188 C 72.71875 54.460938 72.441406 54.738281 72.097656 54.738281 L 58.75 54.738281 C 58.570312 54.738281 58.394531 54.660156 58.277344 54.523438 C 58.160156 54.386719 58.105469 54.203125 58.132812 54.023438 C 58.214844 53.480469 58.34375 52.648438 58.511719 51.640625 C 58.632812 50.925781 59.253906 50.398438 59.984375 50.398438 L 90.019531 50.398438 C 90.75 50.398438 91.371094 50.925781 91.492188 51.640625 C 91.660156 52.648438 91.789062 53.480469 91.871094 54.023438 C 91.898438 54.203125 91.84375 54.386719 91.726562 54.523438 C 91.609375 54.660156 91.4375 54.738281 91.253906 54.738281 L 77.90625 54.738281 Z M 77.902344 54.742188 "/>
<path style=" stroke:none;fill-rule:nonzero;fill:rgb(66.666669%,0.784314%,0%);fill-opacity:1;" d="M 150 62.320312 L 150 90 L 0 90 L 0 62.320312 L 45 62.320312 L 75 79.640625 L 105 62.320312 Z M 150 62.320312 "/>
<path style=" stroke:none;fill-rule:nonzero;fill:rgb(100%,100%,100%);fill-opacity:1;" d="M 75 58.570312 L 75.929688 61.4375 L 78.941406 61.4375 L 76.503906 63.207031 L 77.4375 66.070312 L 75 64.300781 L 72.5625 66.070312 L 73.492188 63.207031 L 71.058594 61.4375 L 74.066406 61.4375 Z M 75 58.570312 "/>
</g>
</svg>
