<?xml version="1.0" encoding="UTF-8"?>
<svg xmlns="http://www.w3.org/2000/svg" xmlns:xlink="http://www.w3.org/1999/xlink" width="150px" height="150px" viewBox="0 0 150 150" version="1.1">
<g id="surface1">
<path style=" stroke:none;fill-rule:evenodd;fill:rgb(1.568628%,1.568628%,1.568628%);fill-opacity:1;" d="M 0 74.953125 L 0 127.40625 L 150 127.40625 L 150 22.5 L 0 22.5 L 0 74.953125 M 40.386719 27.648438 C 40.613281 27.910156 40.621094 27.910156 40.773438 27.710938 C 40.867188 27.589844 41.136719 27.476562 41.449219 27.421875 C 42.226562 27.296875 144.847656 27.300781 145.085938 27.429688 C 145.480469 27.640625 145.480469 27.507812 145.464844 75.027344 L 145.453125 121.839844 L 144.976562 122.316406 L 103.457031 122.347656 C 80.617188 122.367188 57.253906 122.351562 51.539062 122.308594 L 41.144531 122.238281 L 40.859375 121.953125 C 40.601562 121.695312 40.570312 121.6875 40.523438 121.859375 C 40.417969 122.265625 40.339844 122.265625 22.457031 122.238281 L 5 122.210938 L 4.800781 121.964844 C 4.550781 121.65625 4.527344 27.878906 4.777344 27.628906 C 5.042969 27.363281 6.167969 27.347656 22.925781 27.363281 L 40.15625 27.378906 L 40.386719 27.648438 "/>
<path style=" stroke:none;fill-rule:evenodd;fill:rgb(1.568628%,45.490196%,73.725492%);fill-opacity:1;" d="M 5.300781 27.425781 C 5.082031 27.46875 4.847656 27.5625 4.777344 27.628906 C 4.527344 27.878906 4.550781 121.65625 4.800781 121.964844 L 5 122.210938 L 22.617188 122.210938 C 39.390625 122.210938 40.246094 122.203125 40.421875 122.023438 C 40.601562 121.84375 40.609375 119.800781 40.636719 74.902344 L 40.664062 27.96875 L 40.410156 27.671875 L 40.15625 27.378906 L 22.925781 27.363281 C 13.449219 27.355469 5.519531 27.382812 5.300781 27.425781 M 22.507812 62.714844 C 22.59375 62.851562 23.269531 64.808594 24.007812 67.066406 C 24.742188 69.324219 25.417969 71.269531 25.507812 71.390625 C 25.785156 71.757812 26.34375 71.800781 30.789062 71.800781 C 36.667969 71.804688 36.621094 71.519531 31.386719 75.335938 C 29.535156 76.6875 27.96875 77.882812 27.910156 77.992188 C 27.703125 78.378906 27.816406 78.839844 29.113281 82.828125 C 30.976562 88.578125 31.03125 88.46875 27.503906 85.886719 C 23.070312 82.636719 22.570312 82.296875 22.25 82.296875 C 21.820312 82.296875 21.9375 82.21875 18.226562 84.925781 C 14.082031 87.949219 14.007812 87.988281 14.007812 87.1875 C 14.007812 86.90625 16.027344 80.382812 16.511719 79.109375 C 16.871094 78.160156 16.832031 78.113281 13.941406 76.007812 C 9.03125 72.429688 8.824219 72.253906 9.140625 71.929688 C 9.183594 71.890625 11.300781 71.832031 13.851562 71.804688 L 18.484375 71.753906 L 18.757812 71.496094 C 18.976562 71.289062 19.304688 70.394531 20.382812 67.089844 C 21.945312 62.296875 22.070312 62.046875 22.507812 62.714844 "/>
<path style=" stroke:none;fill-rule:evenodd;fill:rgb(98.431373%,86.274511%,1.568628%);fill-opacity:1;" d="M 51.558594 27.558594 C 51.15625 27.753906 51.117188 28.226562 51.117188 32.625 C 51.121094 36.882812 51.167969 37.546875 51.496094 37.785156 C 51.84375 38.042969 144.820312 37.976562 145.078125 37.71875 C 145.378906 37.417969 145.421875 36.640625 145.378906 32.097656 C 145.339844 27.839844 145.324219 27.6875 144.910156 27.527344 C 144.527344 27.382812 51.863281 27.414062 51.558594 27.558594 M 51.4375 48.71875 C 51.132812 49.023438 51.097656 49.65625 51.132812 54.320312 L 51.167969 58.605469 L 51.753906 59.113281 L 144.761719 59.113281 L 145.347656 58.605469 L 145.382812 54.425781 C 145.421875 49.792969 145.378906 49.019531 145.078125 48.71875 C 144.761719 48.402344 51.753906 48.402344 51.4375 48.71875 M 51.496094 69.839844 C 51.167969 70.082031 51.121094 70.746094 51.121094 74.953125 C 51.121094 79.160156 51.167969 79.824219 51.496094 80.0625 C 51.769531 80.265625 144.75 80.261719 145.023438 80.058594 C 145.339844 79.828125 145.390625 79.132812 145.390625 74.953125 C 145.390625 70.769531 145.339844 70.078125 145.023438 69.84375 C 144.75 69.644531 51.769531 69.640625 51.496094 69.839844 M 51.460938 91.046875 L 51.167969 91.296875 L 51.132812 95.582031 C 51.097656 100.25 51.132812 100.878906 51.4375 101.1875 C 51.753906 101.503906 144.761719 101.503906 145.078125 101.1875 C 145.378906 100.886719 145.421875 100.113281 145.382812 95.476562 L 145.347656 91.296875 L 145.054688 91.046875 L 144.761719 90.792969 L 51.753906 90.792969 L 51.460938 91.046875 M 51.4375 112.183594 C 51.132812 112.488281 51.097656 113.125 51.132812 117.632812 L 51.167969 121.757812 L 51.414062 121.957031 C 51.65625 122.15625 52.542969 122.160156 98.304688 122.160156 L 144.949219 122.160156 L 145.148438 121.9375 C 145.558594 121.484375 145.496094 112.601562 145.078125 112.183594 C 144.761719 111.867188 51.753906 111.867188 51.4375 112.183594 "/>
<path style=" stroke:none;fill-rule:evenodd;fill:rgb(86.274511%,1.960784%,4.313726%);fill-opacity:1;" d="M 41.429688 27.421875 C 41.191406 27.460938 40.917969 27.558594 40.828125 27.632812 C 40.675781 27.757812 40.664062 31.953125 40.6875 74.824219 L 40.714844 121.875 L 41.007812 122.09375 L 41.304688 122.316406 L 144.976562 122.316406 L 145.453125 121.839844 L 145.464844 75.027344 C 145.480469 27.507812 145.480469 27.640625 145.085938 27.429688 C 144.863281 27.3125 42.152344 27.304688 41.429688 27.421875 M 144.910156 27.527344 C 145.324219 27.6875 145.339844 27.839844 145.378906 32.097656 C 145.421875 36.640625 145.378906 37.417969 145.078125 37.71875 C 144.820312 37.976562 51.84375 38.042969 51.496094 37.785156 C 51.167969 37.546875 51.121094 36.882812 51.117188 32.625 C 51.117188 28.226562 51.15625 27.753906 51.558594 27.558594 C 51.863281 27.414062 144.527344 27.382812 144.910156 27.527344 M 145.078125 48.71875 C 145.378906 49.019531 145.421875 49.792969 145.382812 54.425781 L 145.347656 58.605469 L 144.761719 59.113281 L 51.753906 59.113281 L 51.167969 58.605469 L 51.132812 54.320312 C 51.097656 49.65625 51.132812 49.023438 51.4375 48.71875 C 51.753906 48.402344 144.761719 48.402344 145.078125 48.71875 M 145.023438 69.84375 C 145.339844 70.078125 145.390625 70.769531 145.390625 74.953125 C 145.390625 79.132812 145.339844 79.828125 145.023438 80.058594 C 144.75 80.261719 51.769531 80.265625 51.496094 80.0625 C 51.167969 79.824219 51.121094 79.160156 51.121094 74.953125 C 51.121094 70.746094 51.167969 70.082031 51.496094 69.839844 C 51.769531 69.640625 144.75 69.644531 145.023438 69.84375 M 145.054688 91.046875 L 145.347656 91.296875 L 145.382812 95.476562 C 145.421875 100.113281 145.378906 100.886719 145.078125 101.1875 C 144.761719 101.503906 51.753906 101.503906 51.4375 101.1875 C 51.132812 100.878906 51.097656 100.25 51.132812 95.582031 L 51.167969 91.296875 L 51.460938 91.046875 L 51.753906 90.792969 L 144.761719 90.792969 L 145.054688 91.046875 M 145.078125 112.183594 C 145.496094 112.601562 145.558594 121.484375 145.148438 121.9375 L 144.949219 122.160156 L 98.304688 122.160156 C 52.542969 122.160156 51.65625 122.15625 51.414062 121.957031 L 51.167969 121.757812 L 51.132812 117.632812 C 51.097656 113.125 51.132812 112.488281 51.4375 112.183594 C 51.753906 111.867188 144.761719 111.867188 145.078125 112.183594 "/>
<path style=" stroke:none;fill-rule:evenodd;fill:rgb(95.686275%,96.862745%,98.039216%);fill-opacity:1;" d="M 21.902344 62.703125 C 21.8125 62.835938 21.128906 64.808594 20.382812 67.089844 C 19.304688 70.394531 18.976562 71.289062 18.757812 71.496094 L 18.484375 71.753906 L 13.851562 71.804688 C 11.300781 71.832031 9.183594 71.890625 9.140625 71.929688 C 8.824219 72.253906 9.03125 72.429688 13.941406 76.007812 C 16.832031 78.113281 16.871094 78.160156 16.511719 79.109375 C 16.027344 80.382812 14.007812 86.90625 14.007812 87.1875 C 14.007812 87.988281 14.082031 87.949219 18.226562 84.925781 C 21.9375 82.21875 21.820312 82.296875 22.25 82.296875 C 22.570312 82.296875 23.070312 82.636719 27.503906 85.886719 C 31.03125 88.46875 30.976562 88.578125 29.113281 82.828125 C 27.816406 78.839844 27.703125 78.378906 27.910156 77.992188 C 27.96875 77.882812 29.535156 76.6875 31.386719 75.335938 C 36.621094 71.519531 36.667969 71.804688 30.789062 71.800781 C 26.34375 71.800781 25.785156 71.757812 25.507812 71.390625 C 25.417969 71.269531 24.742188 69.324219 24.007812 67.066406 C 22.441406 62.273438 22.34375 62.070312 21.902344 62.703125 "/>
</g>
</svg>
