<?xml version="1.0" encoding="UTF-8"?>
<svg xmlns="http://www.w3.org/2000/svg" xmlns:xlink="http://www.w3.org/1999/xlink" width="150px" height="150px" viewBox="0 0 150 75" version="1.1">
<g id="surface1">
<path style=" stroke:none;fill-rule:evenodd;fill:rgb(76.862746%,20.392157%,23.529412%);fill-opacity:1;" d="M 1.707031 2.308594 C 1.5 2.53125 1.515625 72.410156 1.71875 72.59375 C 1.929688 72.785156 147.894531 72.785156 148.050781 72.59375 C 148.214844 72.398438 148.21875 2.492188 148.054688 2.304688 C 147.878906 2.09375 1.894531 2.097656 1.707031 2.308594 M 147.746094 2.472656 C 147.964844 2.589844 147.972656 5.296875 147.753906 5.492188 C 147.628906 5.605469 145.386719 5.617188 117.652344 5.636719 C 93.1875 5.652344 87.671875 5.671875 87.589844 5.75 C 87.40625 5.933594 87.453125 11.140625 87.640625 11.277344 C 87.765625 11.367188 91.980469 11.382812 117.6875 11.382812 C 147.492188 11.382812 147.59375 11.382812 147.742188 11.53125 C 147.941406 11.730469 147.980469 16.777344 147.785156 17.042969 C 147.679688 17.183594 147.277344 17.1875 117.699219 17.203125 L 87.71875 17.222656 L 87.585938 17.382812 C 87.375 17.636719 87.386719 22.515625 87.601562 22.777344 L 87.742188 22.953125 L 117.746094 22.992188 C 144.304688 23.023438 147.753906 23.042969 147.820312 23.140625 C 147.980469 23.394531 147.910156 28.441406 147.742188 28.609375 C 147.59375 28.757812 147.492188 28.757812 117.6875 28.757812 C 91.980469 28.757812 87.765625 28.773438 87.640625 28.863281 C 87.453125 29 87.40625 34.207031 87.589844 34.390625 C 87.671875 34.46875 93.1875 34.488281 117.652344 34.503906 C 145.386719 34.523438 147.628906 34.535156 147.753906 34.648438 C 147.941406 34.816406 147.96875 39.933594 147.785156 40.183594 C 147.679688 40.324219 147.277344 40.328125 117.699219 40.34375 L 87.71875 40.363281 L 87.585938 40.523438 C 87.371094 40.785156 87.386719 45.691406 87.605469 45.90625 C 87.757812 46.054688 87.859375 46.058594 117.675781 46.058594 C 147.492188 46.058594 147.59375 46.058594 147.742188 46.207031 C 147.886719 46.351562 147.890625 46.457031 147.890625 49.011719 L 147.890625 51.664062 L 147.726562 51.78125 C 147.574219 51.886719 144.597656 51.898438 117.65625 51.898438 C 87.859375 51.898438 87.757812 51.898438 87.605469 52.046875 C 87.378906 52.273438 87.371094 57.171875 87.601562 57.449219 L 87.742188 57.628906 L 117.679688 57.644531 C 145.378906 57.664062 147.628906 57.675781 147.753906 57.789062 C 147.957031 57.96875 147.96875 63.074219 147.769531 63.292969 C 147.648438 63.425781 146.613281 63.429688 117.714844 63.429688 C 91.996094 63.429688 87.765625 63.445312 87.640625 63.539062 C 87.40625 63.707031 87.371094 68.8125 87.605469 69.042969 L 87.757812 69.199219 L 117.675781 69.199219 C 147.492188 69.199219 147.59375 69.199219 147.742188 69.347656 C 147.96875 69.574219 147.976562 72.292969 147.746094 72.414062 C 147.464844 72.566406 2.074219 72.519531 1.949219 72.367188 C 1.792969 72.183594 1.792969 2.707031 1.949219 2.519531 C 2.074219 2.371094 147.464844 2.324219 147.746094 2.472656 M 5.851562 6.222656 C 5.660156 6.332031 5.644531 68.363281 5.839844 68.554688 C 6.019531 68.734375 80.835938 68.734375 81.015625 68.554688 C 81.222656 68.351562 81.195312 6.328125 80.988281 6.21875 C 80.785156 6.109375 6.039062 6.113281 5.851562 6.222656 M 48.164062 17.664062 C 48.308594 17.707031 48.714844 17.78125 49.070312 17.824219 C 49.707031 17.902344 50.847656 18.140625 51.933594 18.425781 C 56.691406 19.664062 58.871094 19.941406 63.898438 19.953125 C 69.996094 19.964844 73.449219 19.617188 76.226562 18.710938 C 77.371094 18.339844 77.40625 18.632812 76.335938 19.671875 C 75.3125 20.667969 74.109375 21.390625 72.5 21.976562 C 70.675781 22.640625 71.851562 22.75 73.792969 22.09375 C 75.082031 21.660156 75.195312 21.683594 74.605469 22.257812 C 73.773438 23.0625 72.113281 23.910156 70.675781 24.261719 C 69.722656 24.496094 69.359375 24.652344 69.414062 24.8125 C 69.488281 25.042969 70.628906 24.910156 71.898438 24.519531 C 72.792969 24.246094 73.023438 24.3125 72.574219 24.726562 C 72.140625 25.121094 70.457031 25.910156 70.035156 25.914062 C 69.667969 25.917969 68.375 26.382812 68.375 26.511719 C 68.375 26.703125 68.960938 26.6875 69.679688 26.476562 C 71.863281 25.839844 70.820312 26.914062 68.167969 28.039062 C 66.535156 28.730469 63.867188 29.027344 62.730469 28.640625 C 62.027344 28.402344 61.890625 28.695312 62.554688 29.011719 C 63.011719 29.230469 63.023438 29.535156 62.582031 29.785156 C 62.171875 30.015625 61.894531 30 61.492188 29.726562 C 60.371094 28.96875 59.054688 28.558594 58.695312 28.851562 C 58.628906 28.902344 58.433594 29.148438 58.261719 29.402344 C 57.746094 30.148438 57.46875 30.171875 57 29.507812 C 56.558594 28.882812 56.355469 28.988281 56.300781 29.867188 C 56.25 30.640625 56.160156 30.816406 55.601562 31.191406 C 54.839844 31.699219 54.714844 31.589844 54.714844 30.394531 C 54.714844 29.425781 54.652344 29.261719 54.105469 28.832031 C 53.492188 28.351562 53.347656 28.503906 53.765625 29.183594 C 54.273438 30.007812 54.371094 30.546875 54.144531 31.308594 C 53.773438 32.550781 53.507812 32.597656 52.871094 31.53125 C 52.558594 31.015625 51.945312 30.328125 51.792969 30.328125 C 51.589844 30.328125 51.632812 30.566406 51.914062 30.980469 C 53.003906 32.582031 53.128906 34.074219 52.25 34.992188 C 51.851562 35.410156 51.621094 35.25 51.105469 34.199219 C 50.496094 32.964844 50.34375 33.210938 50.804688 34.691406 C 50.96875 35.226562 51.105469 35.777344 51.105469 35.914062 C 51.105469 37.007812 49.472656 37.800781 49.222656 36.828125 C 49.074219 36.25 48.671875 35.121094 48.589844 35.054688 C 48.53125 35.003906 48.515625 35.378906 48.53125 36.347656 C 48.554688 37.914062 48.523438 38.023438 47.910156 38.382812 C 47.144531 38.828125 46.730469 38.703125 46.589844 37.980469 C 46.445312 37.25 46.4375 37.21875 46.324219 37.21875 C 46.257812 37.21875 46.171875 37.378906 46.097656 37.648438 C 45.785156 38.78125 45.433594 39.269531 44.671875 39.625 C 43.960938 39.960938 43.710938 39.824219 43.859375 39.1875 C 44.019531 38.496094 43.757812 38.546875 43.359375 39.285156 C 42.667969 40.558594 43.230469 40.8125 44.855469 39.953125 C 45.890625 39.410156 45.980469 39.378906 46.761719 39.3125 C 47.5 39.25 47.5625 39.230469 48.507812 38.761719 C 49.046875 38.492188 49.675781 38.222656 49.90625 38.15625 C 50.519531 37.984375 50.941406 37.6875 51.449219 37.0625 C 52.339844 35.972656 52.589844 35.902344 55.695312 35.921875 L 57.839844 35.9375 L 58.730469 36.207031 C 60.640625 36.785156 61.6875 37.53125 61.941406 38.496094 C 61.988281 38.679688 62.175781 39.300781 62.355469 39.878906 C 62.535156 40.453125 62.789062 41.3125 62.921875 41.78125 C 63.644531 44.363281 64.507812 45.707031 66.507812 47.375 C 67.558594 48.25 67.589844 48.308594 67.660156 49.457031 C 67.703125 50.152344 67.753906 50.457031 67.890625 50.765625 C 68.097656 51.246094 68.046875 51.382812 67.617188 51.472656 C 66.980469 51.605469 66.949219 51.625 66.921875 51.882812 C 66.902344 52.09375 66.949219 52.175781 67.246094 52.449219 C 67.746094 52.902344 67.683594 53.011719 66.839844 53.171875 C 66.097656 53.308594 66.015625 53.625 66.582031 54.183594 C 67.050781 54.640625 66.949219 54.757812 65.929688 54.933594 C 64.976562 55.09375 64.824219 55.191406 64.613281 55.773438 C 64.140625 57.078125 63.433594 57.628906 62.105469 57.738281 C 61.664062 57.773438 61.203125 57.839844 61.082031 57.886719 C 60.960938 57.933594 60.523438 57.960938 60.101562 57.953125 C 59.6875 57.945312 59.203125 57.945312 59.03125 57.957031 C 58.386719 58.007812 57.671875 57.445312 57.761719 56.960938 C 57.914062 56.160156 58.554688 55.484375 59.574219 55.058594 C 62.265625 53.929688 62.582031 53.484375 62.632812 50.773438 L 62.65625 49.539062 L 62.421875 49.042969 C 62.023438 48.210938 61.371094 47.671875 60.074219 47.113281 C 58.480469 46.421875 57.820312 46.101562 57.511719 45.875 C 56.871094 45.402344 55.246094 43.671875 54.539062 42.707031 C 54.046875 42.03125 53.867188 42.285156 54.230469 43.144531 C 54.546875 43.890625 54.488281 43.9375 53.210938 44.03125 C 52.734375 44.066406 52.292969 44.113281 52.234375 44.136719 C 52.171875 44.160156 51.773438 44.214844 51.347656 44.257812 C 50.507812 44.339844 49.476562 44.566406 48.882812 44.800781 C 48.675781 44.878906 48.246094 45.027344 47.929688 45.128906 C 47.125 45.382812 44.875 46.34375 43.535156 47.011719 C 41.203125 48.171875 40.207031 48.332031 40.285156 47.535156 C 40.304688 47.324219 40.273438 46.976562 40.214844 46.746094 C 40.125 46.417969 40.121094 46.238281 40.191406 45.839844 C 40.320312 45.074219 40.101562 44.371094 39.554688 43.78125 C 39.121094 43.316406 39.058594 43.621094 39.402344 44.53125 C 39.753906 45.464844 39.917969 47.164062 39.707031 47.667969 C 39.640625 47.824219 39.464844 48.375 39.316406 48.894531 L 39.042969 49.839844 L 39.082031 51.011719 C 39.121094 52.167969 39.121094 52.191406 38.941406 52.433594 C 38.710938 52.742188 38.714844 52.894531 38.949219 53.203125 C 39.210938 53.542969 39.191406 53.726562 38.871094 53.921875 C 38.421875 54.199219 38.378906 54.382812 38.582031 55.214844 C 38.902344 56.527344 38.207031 57.601562 36.652344 58.195312 C 36.183594 58.371094 33.296875 58.382812 32.878906 58.207031 C 31.875 57.785156 32.480469 56.226562 33.929688 55.5 C 34.546875 55.1875 34.660156 55.019531 34.777344 54.238281 C 35.015625 52.648438 34.863281 50.679688 34.433594 49.726562 C 34.296875 49.417969 34.09375 48.890625 33.984375 48.554688 C 33.863281 48.183594 33.617188 47.679688 33.34375 47.261719 C 33.101562 46.882812 32.816406 46.332031 32.714844 46.035156 C 32.609375 45.738281 32.425781 45.207031 32.300781 44.859375 C 32.148438 44.421875 32.039062 44.214844 31.945312 44.195312 C 31.632812 44.132812 31.851562 45.042969 32.742188 47.535156 C 33.128906 48.609375 33.019531 48.710938 31.347656 48.800781 C 30.578125 48.839844 30.394531 48.875 30.101562 49.035156 C 29.628906 49.292969 29.417969 49.230469 29.117188 48.75 C 28.859375 48.332031 28.714844 48.226562 28.386719 48.226562 C 27.910156 48.226562 27.464844 47.621094 27.171875 46.574219 C 26.988281 45.90625 26.945312 45.859375 26.644531 45.980469 C 26.332031 46.109375 26.214844 46.050781 25.378906 45.316406 C 24.617188 44.648438 24.332031 44.5 23.710938 44.4375 C 22.792969 44.34375 22.675781 44.675781 23.558594 44.867188 C 24.332031 45.035156 24.289062 44.839844 24.617188 49.726562 C 24.660156 50.40625 24.726562 51.113281 24.761719 51.300781 C 24.835938 51.691406 25.023438 54.75 25.023438 55.554688 C 25.023438 56.523438 24.613281 56.601562 22.472656 56.027344 C 21.097656 55.660156 18.851562 55.839844 18.851562 56.316406 C 18.851562 56.527344 19.242188 56.558594 20.507812 56.433594 C 20.980469 56.386719 21.308594 56.410156 22.015625 56.527344 C 23.289062 56.746094 25.300781 56.816406 25.46875 56.652344 C 25.628906 56.492188 25.628906 55.3125 25.472656 53.65625 C 25.410156 53 25.324219 51.785156 25.289062 50.960938 C 25.25 50.136719 25.164062 49.042969 25.101562 48.527344 C 24.902344 46.898438 24.976562 45.976562 25.285156 46.167969 C 25.507812 46.304688 25.589844 46.746094 25.632812 47.984375 C 25.65625 48.675781 25.738281 49.644531 25.816406 50.136719 C 25.894531 50.632812 25.996094 51.625 26.035156 52.347656 C 26.078125 53.066406 26.164062 53.84375 26.226562 54.070312 C 26.410156 54.730469 26.390625 57.289062 26.203125 57.519531 C 26.011719 57.757812 25.003906 57.789062 21.601562 57.667969 L 19.003906 57.574219 L 18.515625 57.808594 C 17.714844 58.1875 16.675781 58.15625 15.757812 57.722656 L 15.089844 57.410156 L 11.613281 57.367188 L 8.132812 57.328125 L 7.960938 57.15625 C 7.703125 56.902344 7.765625 56.308594 8.316406 53.734375 C 8.414062 53.28125 8.515625 52.640625 8.542969 52.308594 C 8.570312 51.980469 8.65625 51.425781 8.730469 51.074219 C 8.808594 50.722656 8.925781 50.066406 8.992188 49.613281 C 9.539062 45.980469 9.921875 45.152344 9.769531 47.914062 C 9.738281 48.5625 9.675781 49.746094 9.636719 50.550781 C 9.59375 51.351562 9.511719 52.433594 9.449219 52.945312 C 9.3125 54.09375 9.285156 55.941406 9.402344 56.160156 C 9.503906 56.347656 10.1875 56.378906 10.574219 56.214844 L 10.800781 56.117188 L 10.484375 55.917969 C 10.027344 55.632812 9.933594 55.40625 9.933594 54.570312 C 9.933594 53.554688 10.074219 50.90625 10.164062 50.25 C 10.207031 49.941406 10.273438 49 10.3125 48.152344 C 10.386719 46.679688 10.574219 44.515625 10.660156 44.238281 C 10.734375 43.992188 11.027344 43.882812 11.824219 43.8125 C 12.253906 43.773438 12.792969 43.703125 13.015625 43.65625 C 13.277344 43.597656 13.855469 43.578125 14.613281 43.601562 C 16.179688 43.644531 16.414062 43.472656 15.257812 43.128906 C 14.597656 42.933594 14.300781 42.667969 14.300781 42.277344 C 14.300781 41.34375 15.015625 41.089844 17.722656 41.066406 C 19.511719 41.054688 19.535156 41.050781 19.902344 40.859375 C 20.390625 40.601562 20.933594 40.601562 21.765625 40.855469 C 22.109375 40.960938 22.644531 41.125 22.957031 41.222656 C 23.265625 41.316406 23.628906 41.417969 23.761719 41.449219 C 24.175781 41.535156 24.535156 42.167969 24.535156 42.808594 C 24.535156 43.015625 24.957031 43.359375 25.207031 43.359375 C 25.722656 43.359375 25.796875 42.683594 25.292969 42.574219 C 24.925781 42.496094 24.886719 42.335938 24.851562 40.734375 C 24.824219 39.511719 24.839844 39.195312 24.945312 38.832031 C 25.132812 38.191406 24.839844 38.109375 24.636719 38.75 C 24.167969 40.195312 23.257812 37.492188 23.257812 34.65625 C 23.253906 31.660156 23.410156 31.21875 24.308594 31.683594 C 25.011719 32.046875 25.101562 31.847656 24.589844 31.070312 C 23.804688 29.882812 23.53125 28.652344 23.738281 27.234375 C 23.972656 25.625 24.128906 25.316406 24.902344 24.910156 C 25.59375 24.550781 25.617188 24.1875 24.953125 24.1875 C 24.546875 24.1875 24.238281 23.988281 24.074219 23.625 L 23.921875 23.28125 L 24.085938 22.742188 C 24.261719 22.160156 24.707031 21.617188 25.066406 21.539062 C 26.445312 21.238281 26.753906 21.046875 26.152344 20.867188 C 25.503906 20.675781 25.425781 20.519531 25.824219 20.1875 C 26.347656 19.75 26.984375 19.570312 27.5625 19.691406 C 28.027344 19.792969 28.171875 19.71875 28.285156 19.332031 C 28.496094 18.636719 29.605469 18.445312 30.261719 18.992188 C 30.648438 19.3125 30.8125 19.3125 31.226562 18.984375 C 31.929688 18.429688 32.542969 18.480469 33.273438 19.152344 L 33.71875 19.5625 L 34.417969 19.617188 C 35.167969 19.671875 35.515625 19.8125 35.679688 20.121094 C 35.792969 20.332031 35.605469 20.59375 35.339844 20.59375 C 34.621094 20.59375 34.933594 20.925781 35.722656 21.003906 C 36.597656 21.089844 36.855469 21.328125 37.027344 22.210938 C 37.160156 22.867188 37.042969 23.222656 36.542969 23.722656 L 36.148438 24.113281 L 35.609375 24.113281 C 34.917969 24.113281 34.9375 24.058594 34.972656 25.941406 C 35.003906 27.707031 34.980469 27.785156 34.429688 27.785156 C 34.007812 27.785156 33.910156 27.964844 33.964844 28.652344 C 34.0625 29.921875 33.566406 30.609375 32.953125 30.054688 C 32.878906 29.988281 32.507812 29.777344 32.128906 29.589844 C 31.265625 29.15625 31.160156 28.996094 31.160156 28.113281 C 31.160156 27.550781 31.175781 27.484375 31.386719 27.21875 C 31.550781 27.015625 31.589844 26.910156 31.535156 26.851562 C 31.417969 26.738281 30.191406 26.707031 29.921875 26.808594 L 29.699219 26.894531 L 30.035156 27.179688 L 30.367188 27.46875 L 30.363281 28.019531 C 30.355469 28.675781 30.234375 28.949219 29.828125 29.21875 C 27.949219 30.46875 27.757812 30.449219 27.742188 29.015625 C 27.730469 27.921875 27.722656 27.902344 27.210938 27.96875 C 26.910156 28.003906 26.796875 27.988281 26.726562 27.90625 C 26.601562 27.757812 26.4375 26.5 26.476562 26.003906 C 26.507812 25.597656 26.414062 25.484375 26.269531 25.757812 C 26.097656 26.074219 26.269531 27.90625 26.527344 28.542969 C 26.578125 28.664062 26.875 28.832031 27.050781 28.832031 C 27.320312 28.832031 27.433594 29.128906 27.414062 29.792969 C 27.394531 30.589844 27.441406 30.832031 27.632812 30.933594 C 27.792969 31.019531 27.835938 31 28.679688 30.421875 C 29.296875 30 29.757812 29.875 30.757812 29.863281 L 31.574219 29.851562 L 32.605469 30.394531 C 34.148438 31.207031 34.316406 31.140625 34.320312 29.730469 C 34.320312 28.78125 34.398438 28.609375 34.839844 28.609375 C 35.382812 28.609375 35.398438 28.542969 35.359375 26.660156 C 35.320312 24.789062 35.300781 24.855469 35.933594 24.714844 C 36.519531 24.582031 36.695312 24.4375 37.046875 23.78125 C 37.421875 23.078125 37.617188 22.996094 37.898438 23.417969 C 38.152344 23.792969 38.683594 25.734375 38.6875 26.292969 C 38.6875 26.433594 38.738281 26.851562 38.800781 27.222656 C 38.863281 27.59375 38.960938 28.382812 39.019531 28.980469 C 39.132812 30.128906 39.296875 30.664062 39.878906 31.8125 C 40.292969 32.625 40.222656 32.953125 39.609375 33.023438 C 38.996094 33.09375 39.074219 33.34375 39.890625 33.9375 C 40.535156 34.40625 40.527344 34.382812 40.554688 35.863281 C 40.578125 37.070312 40.566406 37.226562 40.375 38.011719 C 40 39.570312 40.476562 39.367188 41.003906 37.742188 C 41.46875 36.320312 41.394531 32.195312 40.871094 30.382812 C 40.792969 30.105469 40.671875 29.5 40.601562 29.035156 C 40.289062 26.90625 39.375 24.007812 38.480469 22.304688 C 38.140625 21.65625 38.144531 21.414062 38.507812 20.742188 C 39.359375 19.167969 40.523438 18.328125 42.597656 17.789062 L 43.613281 17.523438 L 45.761719 17.550781 C 47.078125 17.566406 48.003906 17.609375 48.164062 17.664062 M 45.757812 20.082031 C 45.625 20.214844 45.429688 20.453125 45.324219 20.617188 C 44.941406 21.191406 44.550781 21.121094 44.175781 20.40625 C 43.761719 19.613281 43.578125 19.9375 43.835938 21.007812 C 44.199219 22.5 43.917969 22.953125 43.238281 21.972656 C 42.945312 21.550781 42.597656 21.300781 42.402344 21.375 C 42.222656 21.441406 42.285156 21.675781 42.609375 22.097656 C 43.355469 23.082031 43.3125 23.679688 42.507812 23.496094 C 41.859375 23.351562 41.75 23.773438 42.167969 24.800781 C 42.273438 25.0625 42.410156 25.425781 42.472656 25.613281 C 42.535156 25.796875 42.675781 26.183594 42.785156 26.472656 C 42.898438 26.761719 43.019531 27.183594 43.058594 27.410156 C 43.160156 27.976562 43.480469 29.425781 43.65625 30.105469 C 44.121094 31.90625 44.1875 32.476562 43.988281 33.03125 C 43.8125 33.53125 44.082031 33.785156 44.363281 33.382812 C 44.546875 33.125 44.53125 31.097656 44.339844 30.546875 C 44.265625 30.324219 44.175781 29.972656 44.148438 29.769531 C 44.066406 29.1875 43.910156 28.605469 43.46875 27.222656 C 42.539062 24.316406 42.53125 24.265625 43.042969 24.265625 C 43.4375 24.265625 43.648438 24.132812 43.808594 23.796875 C 43.890625 23.621094 44.058594 23.324219 44.179688 23.140625 C 44.300781 22.957031 44.4375 22.625 44.480469 22.40625 C 44.574219 21.90625 44.5625 21.925781 45.042969 21.570312 C 45.308594 21.371094 45.558594 21.089844 45.789062 20.722656 C 46.277344 19.945312 46.257812 19.585938 45.757812 20.082031 M 27.925781 23.984375 C 27.308594 24.296875 27.324219 24.570312 27.96875 24.816406 C 28.824219 25.140625 29.457031 24.980469 29.457031 24.441406 C 29.457031 23.847656 28.660156 23.609375 27.925781 23.984375 M 32.292969 24.007812 C 31.734375 24.476562 32.125 25.078125 32.914062 24.972656 C 34.027344 24.824219 34.230469 24.421875 33.402344 24.007812 C 32.898438 23.757812 32.589844 23.757812 32.292969 24.007812 M 73.257812 28.792969 C 73.355469 28.894531 73.472656 29.113281 73.523438 29.277344 C 73.628906 29.628906 73.808594 29.777344 74.832031 30.363281 C 75.746094 30.886719 76.054688 31.019531 76.769531 31.191406 C 77.296875 31.316406 77.363281 31.355469 77.789062 31.792969 C 78.132812 32.148438 78.324219 32.285156 78.578125 32.351562 C 79.289062 32.539062 79.417969 32.792969 79.035156 33.253906 C 78.914062 33.398438 78.773438 33.664062 78.71875 33.84375 C 78.59375 34.261719 78.402344 34.34375 77.367188 34.410156 C 76.855469 34.445312 76.464844 34.515625 76.277344 34.601562 C 75.910156 34.769531 75.777344 34.707031 75.503906 34.246094 C 74.164062 31.96875 72.390625 30.558594 70.871094 30.554688 C 69.601562 30.554688 69.277344 30.882812 69.28125 32.164062 L 69.285156 32.988281 L 70.128906 34.671875 C 71.484375 37.390625 71.625 38.160156 71.003906 39.421875 C 70.378906 40.699219 69.371094 41.121094 66.945312 41.121094 C 63.941406 41.121094 63.214844 40.746094 62.621094 38.886719 C 62.257812 37.738281 62.378906 37.660156 63.582031 38.257812 C 66.234375 39.578125 68.617188 39.738281 69.449219 38.652344 C 69.875 38.097656 69.730469 37.417969 68.785156 35.554688 C 66.609375 31.265625 67.359375 29.28125 71.347656 28.757812 C 72.816406 28.5625 73.050781 28.566406 73.257812 28.792969 M 36.117188 29.261719 C 36.109375 29.292969 36.101562 29.839844 36.097656 30.480469 C 36.085938 31.808594 35.992188 32.164062 35.566406 32.421875 C 35.230469 32.632812 35.148438 32.859375 35.148438 33.609375 C 35.144531 33.96875 35.097656 34.597656 35.035156 35.011719 C 34.976562 35.421875 34.925781 35.902344 34.925781 36.074219 C 34.921875 36.246094 34.855469 36.65625 34.777344 36.988281 C 34.628906 37.609375 34.640625 37.894531 34.816406 37.894531 C 34.949219 37.894531 35.042969 37.707031 35.109375 37.300781 C 35.140625 37.121094 35.265625 36.683594 35.390625 36.328125 C 35.570312 35.820312 35.625 35.496094 35.671875 34.769531 C 35.734375 33.730469 35.796875 33.589844 36.171875 33.660156 C 36.636719 33.746094 36.652344 33.683594 36.652344 31.671875 C 36.652344 30.226562 36.628906 29.824219 36.539062 29.601562 C 36.402344 29.277344 36.152344 29.078125 36.117188 29.261719 M 32.40625 33.554688 C 32.25 33.691406 32.082031 33.949219 31.992188 34.191406 C 31.90625 34.414062 31.75 34.730469 31.640625 34.894531 C 31.320312 35.378906 31.53125 35.457031 32.0625 35.042969 C 32.328125 34.835938 32.96875 33.714844 32.964844 33.457031 C 32.964844 33.253906 32.699219 33.296875 32.40625 33.554688 M 18.78125 43.460938 C 18.476562 43.683594 18.6875 43.804688 19.359375 43.796875 C 19.910156 43.789062 20.054688 43.820312 20.621094 44.050781 C 21.839844 44.550781 22.421875 44.609375 21.902344 44.175781 C 21.195312 43.585938 19.230469 43.136719 18.78125 43.460938 M 17.027344 44.390625 C 16.953125 44.5625 16.964844 55.015625 17.035156 55.644531 C 17.109375 56.265625 17.191406 56.414062 17.355469 56.203125 C 17.480469 56.046875 17.46875 44.835938 17.34375 44.429688 C 17.28125 44.226562 17.101562 44.207031 17.027344 44.390625 M 54.660156 44.550781 C 54.960938 44.664062 56.578125 46.207031 56.703125 46.5 C 56.765625 46.648438 56.867188 46.957031 56.933594 47.1875 C 56.996094 47.421875 57.164062 47.773438 57.308594 47.976562 C 58.0625 49.042969 58.066406 49.070312 57.578125 49.714844 C 57.242188 50.160156 57.171875 50.597656 57.394531 50.910156 C 57.617188 51.226562 57.507812 51.523438 57.125 51.667969 C 56.675781 51.832031 56.65625 52.074219 57.070312 52.339844 C 57.480469 52.605469 57.410156 52.800781 56.8125 53.046875 C 56.335938 53.242188 56.285156 53.53125 56.667969 53.875 C 57.007812 54.183594 56.84375 54.429688 56.035156 54.839844 C 55.546875 55.085938 55.296875 55.355469 55.0625 55.882812 C 54.636719 56.835938 54.003906 57.246094 52.757812 57.363281 C 52.324219 57.40625 51.636719 57.496094 51.230469 57.558594 C 49.28125 57.875 48.347656 57.085938 49.070312 55.734375 C 49.421875 55.074219 49.757812 54.796875 50.394531 54.636719 C 51.210938 54.429688 51.332031 54.367188 51.785156 53.917969 C 53.269531 52.4375 53.449219 50.609375 52.253906 49.128906 C 51.449219 48.128906 50.351562 46.089844 50.351562 45.589844 C 50.351562 45.136719 51.078125 44.867188 52.835938 44.667969 C 53.433594 44.597656 53.941406 44.53125 53.957031 44.515625 C 54.015625 44.457031 54.480469 44.484375 54.660156 44.550781 M 12.210938 55.917969 C 11.53125 56.15625 11.898438 56.222656 14.132812 56.265625 C 15.359375 56.285156 15.578125 56.273438 15.542969 56.183594 C 15.523438 56.125 15.503906 56.066406 15.503906 56.050781 C 15.503906 55.78125 12.894531 55.675781 12.210938 55.917969 "/>
<path style=" stroke:none;fill-rule:evenodd;fill:rgb(1.568628%,1.568628%,1.568628%);fill-opacity:1;" d="M 0 37.445312 L 0 74.890625 L 150 74.890625 L 150 0 L 0 0 L 0 37.445312 M 148.054688 2.304688 C 148.21875 2.492188 148.214844 72.398438 148.050781 72.59375 C 147.894531 72.785156 1.929688 72.785156 1.71875 72.59375 C 1.515625 72.410156 1.5 2.53125 1.707031 2.308594 C 1.894531 2.097656 147.878906 2.09375 148.054688 2.304688 "/>
<path style=" stroke:none;fill-rule:evenodd;fill:rgb(98.431373%,96.862745%,14.117648%);fill-opacity:1;" d="M 1.949219 2.519531 C 1.792969 2.707031 1.792969 72.183594 1.949219 72.367188 C 2.074219 72.519531 147.464844 72.566406 147.746094 72.414062 C 147.976562 72.292969 147.96875 69.574219 147.742188 69.347656 C 147.59375 69.199219 147.492188 69.199219 117.675781 69.199219 L 87.757812 69.199219 L 87.605469 69.042969 C 87.371094 68.8125 87.40625 63.707031 87.640625 63.539062 C 87.765625 63.445312 91.996094 63.429688 117.714844 63.429688 C 146.613281 63.429688 147.648438 63.425781 147.769531 63.292969 C 147.96875 63.074219 147.957031 57.96875 147.753906 57.789062 C 147.628906 57.675781 145.378906 57.664062 117.679688 57.644531 L 87.742188 57.628906 L 87.601562 57.449219 C 87.371094 57.171875 87.378906 52.273438 87.605469 52.046875 C 87.757812 51.898438 87.859375 51.898438 117.65625 51.898438 C 144.597656 51.898438 147.574219 51.886719 147.726562 51.78125 L 147.890625 51.664062 L 147.890625 49.011719 C 147.890625 46.457031 147.886719 46.351562 147.742188 46.207031 C 147.59375 46.058594 147.492188 46.058594 117.675781 46.058594 C 87.859375 46.058594 87.757812 46.054688 87.605469 45.90625 C 87.386719 45.691406 87.371094 40.785156 87.585938 40.523438 L 87.71875 40.363281 L 117.699219 40.34375 C 147.277344 40.328125 147.679688 40.324219 147.785156 40.183594 C 147.96875 39.933594 147.941406 34.816406 147.753906 34.648438 C 147.628906 34.535156 145.386719 34.523438 117.652344 34.503906 C 93.1875 34.488281 87.671875 34.46875 87.589844 34.390625 C 87.40625 34.207031 87.453125 29 87.640625 28.863281 C 87.765625 28.773438 91.980469 28.757812 117.6875 28.757812 C 147.492188 28.757812 147.59375 28.757812 147.742188 28.609375 C 147.910156 28.441406 147.980469 23.394531 147.820312 23.140625 C 147.753906 23.042969 144.304688 23.023438 117.746094 22.992188 L 87.742188 22.953125 L 87.601562 22.777344 C 87.386719 22.515625 87.375 17.636719 87.585938 17.382812 L 87.71875 17.222656 L 117.699219 17.203125 C 147.277344 17.1875 147.679688 17.183594 147.785156 17.042969 C 147.980469 16.777344 147.941406 11.730469 147.742188 11.53125 C 147.59375 11.382812 147.492188 11.382812 117.6875 11.382812 C 91.980469 11.382812 87.765625 11.367188 87.640625 11.277344 C 87.453125 11.140625 87.40625 5.933594 87.589844 5.75 C 87.671875 5.671875 93.1875 5.652344 117.652344 5.636719 C 145.386719 5.617188 147.628906 5.605469 147.753906 5.492188 C 147.972656 5.296875 147.964844 2.589844 147.746094 2.472656 C 147.464844 2.324219 2.074219 2.371094 1.949219 2.519531 M 80.988281 6.21875 C 81.195312 6.328125 81.222656 68.351562 81.015625 68.554688 C 80.835938 68.734375 6.019531 68.734375 5.839844 68.554688 C 5.644531 68.363281 5.660156 6.332031 5.851562 6.222656 C 6.039062 6.113281 80.785156 6.109375 80.988281 6.21875 M 42.597656 17.789062 C 40.523438 18.328125 39.359375 19.167969 38.507812 20.742188 C 38.144531 21.414062 38.140625 21.65625 38.480469 22.304688 C 39.375 24.007812 40.289062 26.90625 40.601562 29.035156 C 40.671875 29.5 40.792969 30.105469 40.871094 30.382812 C 41.394531 32.195312 41.46875 36.320312 41.003906 37.742188 C 40.476562 39.367188 40 39.570312 40.375 38.011719 C 40.566406 37.226562 40.578125 37.070312 40.554688 35.863281 C 40.527344 34.382812 40.535156 34.40625 39.890625 33.9375 C 39.074219 33.34375 38.996094 33.09375 39.609375 33.023438 C 40.222656 32.953125 40.292969 32.625 39.878906 31.8125 C 39.296875 30.664062 39.132812 30.128906 39.019531 28.980469 C 38.960938 28.382812 38.863281 27.59375 38.800781 27.222656 C 38.738281 26.851562 38.6875 26.433594 38.6875 26.292969 C 38.683594 25.734375 38.152344 23.792969 37.898438 23.417969 C 37.617188 22.996094 37.421875 23.078125 37.046875 23.78125 C 36.695312 24.4375 36.519531 24.582031 35.933594 24.714844 C 35.300781 24.855469 35.320312 24.789062 35.359375 26.660156 C 35.398438 28.542969 35.382812 28.609375 34.839844 28.609375 C 34.398438 28.609375 34.320312 28.78125 34.320312 29.730469 C 34.316406 31.140625 34.148438 31.207031 32.605469 30.394531 L 31.574219 29.851562 L 30.757812 29.863281 C 29.757812 29.875 29.296875 30 28.679688 30.421875 C 27.835938 31 27.792969 31.019531 27.632812 30.933594 C 27.441406 30.832031 27.394531 30.589844 27.414062 29.792969 C 27.433594 29.128906 27.320312 28.832031 27.050781 28.832031 C 26.875 28.832031 26.578125 28.664062 26.527344 28.542969 C 26.269531 27.90625 26.097656 26.074219 26.269531 25.757812 C 26.414062 25.484375 26.507812 25.597656 26.476562 26.003906 C 26.4375 26.5 26.601562 27.757812 26.726562 27.90625 C 26.796875 27.988281 26.910156 28.003906 27.210938 27.96875 C 27.722656 27.902344 27.730469 27.921875 27.742188 29.015625 C 27.757812 30.449219 27.949219 30.46875 29.828125 29.21875 C 30.234375 28.949219 30.355469 28.675781 30.363281 28.019531 L 30.367188 27.46875 L 30.035156 27.179688 L 29.699219 26.894531 L 29.921875 26.808594 C 30.191406 26.707031 31.417969 26.738281 31.535156 26.851562 C 31.589844 26.910156 31.550781 27.015625 31.386719 27.21875 C 31.175781 27.484375 31.160156 27.550781 31.160156 28.113281 C 31.160156 28.996094 31.265625 29.15625 32.128906 29.589844 C 32.507812 29.777344 32.878906 29.988281 32.953125 30.054688 C 33.566406 30.609375 34.0625 29.921875 33.964844 28.652344 C 33.910156 27.964844 34.007812 27.785156 34.429688 27.785156 C 34.980469 27.785156 35.003906 27.707031 34.972656 25.941406 C 34.9375 24.058594 34.917969 24.113281 35.609375 24.113281 L 36.148438 24.113281 L 36.542969 23.722656 C 37.042969 23.222656 37.160156 22.867188 37.027344 22.210938 C 36.855469 21.328125 36.597656 21.089844 35.722656 21.003906 C 34.933594 20.925781 34.621094 20.59375 35.339844 20.59375 C 35.605469 20.59375 35.792969 20.332031 35.679688 20.121094 C 35.515625 19.8125 35.167969 19.671875 34.417969 19.617188 L 33.71875 19.5625 L 33.273438 19.152344 C 32.542969 18.480469 31.929688 18.429688 31.226562 18.984375 C 30.8125 19.3125 30.648438 19.3125 30.261719 18.992188 C 29.605469 18.445312 28.496094 18.636719 28.285156 19.332031 C 28.171875 19.71875 28.027344 19.792969 27.5625 19.691406 C 26.984375 19.570312 26.347656 19.75 25.824219 20.1875 C 25.425781 20.519531 25.503906 20.675781 26.152344 20.867188 C 26.753906 21.046875 26.445312 21.238281 25.066406 21.539062 C 24.707031 21.617188 24.261719 22.160156 24.085938 22.742188 L 23.921875 23.28125 L 24.074219 23.625 C 24.238281 23.988281 24.546875 24.1875 24.953125 24.1875 C 25.617188 24.1875 25.59375 24.550781 24.902344 24.910156 C 24.128906 25.316406 23.972656 25.625 23.738281 27.234375 C 23.53125 28.652344 23.804688 29.882812 24.589844 31.070312 C 25.101562 31.847656 25.011719 32.046875 24.308594 31.683594 C 23.410156 31.21875 23.253906 31.660156 23.257812 34.65625 C 23.257812 37.492188 24.167969 40.195312 24.636719 38.75 C 24.839844 38.109375 25.132812 38.191406 24.945312 38.832031 C 24.839844 39.195312 24.824219 39.511719 24.851562 40.734375 C 24.886719 42.335938 24.925781 42.496094 25.292969 42.574219 C 25.796875 42.683594 25.722656 43.359375 25.207031 43.359375 C 24.957031 43.359375 24.535156 43.015625 24.535156 42.808594 C 24.535156 42.167969 24.175781 41.535156 23.761719 41.449219 C 23.628906 41.417969 23.265625 41.316406 22.957031 41.222656 C 22.644531 41.125 22.109375 40.960938 21.765625 40.855469 C 20.933594 40.601562 20.390625 40.601562 19.902344 40.859375 C 19.535156 41.050781 19.511719 41.054688 17.722656 41.066406 C 15.015625 41.089844 14.300781 41.34375 14.300781 42.277344 C 14.300781 42.667969 14.597656 42.933594 15.257812 43.128906 C 16.414062 43.472656 16.179688 43.644531 14.613281 43.601562 C 13.855469 43.578125 13.277344 43.597656 13.015625 43.65625 C 12.792969 43.703125 12.253906 43.773438 11.824219 43.8125 C 11.027344 43.882812 10.734375 43.992188 10.660156 44.238281 C 10.574219 44.515625 10.386719 46.679688 10.3125 48.152344 C 10.273438 49 10.207031 49.941406 10.164062 50.25 C 10.074219 50.90625 9.933594 53.554688 9.933594 54.570312 C 9.933594 55.40625 10.027344 55.632812 10.484375 55.917969 L 10.800781 56.117188 L 10.574219 56.214844 C 10.1875 56.378906 9.503906 56.347656 9.402344 56.160156 C 9.285156 55.941406 9.3125 54.09375 9.449219 52.945312 C 9.511719 52.433594 9.59375 51.351562 9.636719 50.550781 C 9.675781 49.746094 9.738281 48.5625 9.769531 47.914062 C 9.921875 45.152344 9.539062 45.980469 8.992188 49.613281 C 8.925781 50.066406 8.808594 50.722656 8.730469 51.074219 C 8.65625 51.425781 8.570312 51.980469 8.542969 52.308594 C 8.515625 52.640625 8.414062 53.28125 8.316406 53.734375 C 7.765625 56.308594 7.703125 56.902344 7.960938 57.15625 L 8.132812 57.328125 L 11.613281 57.367188 L 15.089844 57.410156 L 15.757812 57.722656 C 16.675781 58.15625 17.714844 58.1875 18.515625 57.808594 L 19.003906 57.574219 L 21.601562 57.667969 C 25.003906 57.789062 26.011719 57.757812 26.203125 57.519531 C 26.390625 57.289062 26.410156 54.730469 26.226562 54.070312 C 26.164062 53.84375 26.078125 53.066406 26.035156 52.347656 C 25.996094 51.625 25.894531 50.632812 25.816406 50.136719 C 25.738281 49.644531 25.65625 48.675781 25.632812 47.984375 C 25.589844 46.746094 25.507812 46.304688 25.285156 46.167969 C 24.976562 45.976562 24.902344 46.898438 25.101562 48.527344 C 25.164062 49.042969 25.25 50.136719 25.289062 50.960938 C 25.324219 51.785156 25.410156 53 25.472656 53.65625 C 25.628906 55.3125 25.628906 56.492188 25.46875 56.652344 C 25.300781 56.816406 23.289062 56.746094 22.015625 56.527344 C 21.308594 56.410156 20.980469 56.386719 20.507812 56.433594 C 19.242188 56.558594 18.851562 56.527344 18.851562 56.316406 C 18.851562 55.839844 21.097656 55.660156 22.472656 56.027344 C 24.613281 56.601562 25.023438 56.523438 25.023438 55.554688 C 25.023438 54.75 24.835938 51.691406 24.761719 51.300781 C 24.726562 51.113281 24.660156 50.40625 24.617188 49.726562 C 24.289062 44.839844 24.332031 45.035156 23.558594 44.867188 C 22.675781 44.675781 22.792969 44.34375 23.710938 44.4375 C 24.332031 44.5 24.617188 44.648438 25.378906 45.316406 C 26.214844 46.050781 26.332031 46.109375 26.644531 45.980469 C 26.945312 45.859375 26.988281 45.90625 27.171875 46.574219 C 27.464844 47.621094 27.910156 48.226562 28.386719 48.226562 C 28.714844 48.226562 28.859375 48.332031 29.117188 48.75 C 29.417969 49.230469 29.628906 49.292969 30.101562 49.035156 C 30.394531 48.875 30.578125 48.839844 31.347656 48.800781 C 33.019531 48.710938 33.128906 48.609375 32.742188 47.535156 C 31.851562 45.042969 31.632812 44.132812 31.945312 44.195312 C 32.039062 44.214844 32.148438 44.421875 32.300781 44.859375 C 32.425781 45.207031 32.609375 45.738281 32.714844 46.035156 C 32.816406 46.332031 33.101562 46.882812 33.34375 47.261719 C 33.617188 47.679688 33.863281 48.183594 33.984375 48.554688 C 34.09375 48.890625 34.296875 49.417969 34.433594 49.726562 C 34.863281 50.679688 35.015625 52.648438 34.777344 54.238281 C 34.660156 55.019531 34.546875 55.1875 33.929688 55.5 C 32.480469 56.226562 31.875 57.785156 32.878906 58.207031 C 33.296875 58.382812 36.183594 58.371094 36.652344 58.195312 C 38.207031 57.601562 38.902344 56.527344 38.582031 55.214844 C 38.378906 54.382812 38.421875 54.199219 38.871094 53.921875 C 39.191406 53.726562 39.210938 53.542969 38.949219 53.203125 C 38.714844 52.894531 38.710938 52.742188 38.941406 52.433594 C 39.121094 52.191406 39.121094 52.167969 39.082031 51.011719 L 39.042969 49.839844 L 39.316406 48.894531 C 39.464844 48.375 39.640625 47.824219 39.707031 47.667969 C 39.917969 47.164062 39.753906 45.464844 39.402344 44.53125 C 39.058594 43.621094 39.121094 43.316406 39.554688 43.78125 C 40.101562 44.371094 40.320312 45.074219 40.191406 45.839844 C 40.121094 46.238281 40.125 46.417969 40.214844 46.746094 C 40.273438 46.976562 40.304688 47.324219 40.285156 47.535156 C 40.207031 48.332031 41.203125 48.171875 43.535156 47.011719 C 44.875 46.34375 47.125 45.382812 47.929688 45.128906 C 48.246094 45.027344 48.675781 44.878906 48.882812 44.800781 C 49.476562 44.566406 50.507812 44.339844 51.347656 44.257812 C 51.773438 44.214844 52.171875 44.160156 52.234375 44.136719 C 52.292969 44.113281 52.734375 44.066406 53.210938 44.03125 C 54.488281 43.9375 54.546875 43.890625 54.230469 43.144531 C 53.867188 42.285156 54.046875 42.03125 54.539062 42.707031 C 55.246094 43.671875 56.871094 45.402344 57.511719 45.875 C 57.820312 46.101562 58.480469 46.421875 60.074219 47.113281 C 61.371094 47.671875 62.023438 48.210938 62.421875 49.042969 L 62.65625 49.539062 L 62.632812 50.773438 C 62.582031 53.484375 62.265625 53.929688 59.574219 55.058594 C 58.554688 55.484375 57.914062 56.160156 57.761719 56.960938 C 57.671875 57.445312 58.386719 58.007812 59.03125 57.957031 C 59.203125 57.945312 59.6875 57.945312 60.101562 57.953125 C 60.523438 57.960938 60.960938 57.933594 61.082031 57.886719 C 61.203125 57.839844 61.664062 57.773438 62.105469 57.738281 C 63.433594 57.628906 64.140625 57.078125 64.613281 55.773438 C 64.824219 55.191406 64.976562 55.09375 65.929688 54.933594 C 66.949219 54.757812 67.050781 54.640625 66.582031 54.183594 C 66.015625 53.625 66.097656 53.308594 66.839844 53.171875 C 67.683594 53.011719 67.746094 52.902344 67.246094 52.449219 C 66.949219 52.175781 66.902344 52.09375 66.921875 51.882812 C 66.949219 51.625 66.980469 51.605469 67.617188 51.472656 C 68.046875 51.382812 68.097656 51.246094 67.890625 50.765625 C 67.753906 50.457031 67.703125 50.152344 67.660156 49.457031 C 67.589844 48.308594 67.558594 48.25 66.507812 47.375 C 64.507812 45.707031 63.644531 44.363281 62.921875 41.78125 C 62.789062 41.3125 62.535156 40.453125 62.355469 39.878906 C 62.175781 39.300781 61.988281 38.679688 61.941406 38.496094 C 61.6875 37.53125 60.640625 36.785156 58.730469 36.207031 L 57.839844 35.9375 L 55.695312 35.921875 C 52.589844 35.902344 52.339844 35.972656 51.449219 37.0625 C 50.941406 37.6875 50.519531 37.984375 49.90625 38.15625 C 49.675781 38.222656 49.046875 38.492188 48.507812 38.761719 C 47.5625 39.230469 47.5 39.25 46.761719 39.3125 C 45.980469 39.378906 45.890625 39.410156 44.855469 39.953125 C 43.230469 40.8125 42.667969 40.558594 43.359375 39.285156 C 43.757812 38.546875 44.019531 38.496094 43.859375 39.1875 C 43.710938 39.824219 43.960938 39.960938 44.671875 39.625 C 45.433594 39.269531 45.785156 38.78125 46.097656 37.648438 C 46.171875 37.378906 46.257812 37.21875 46.324219 37.21875 C 46.4375 37.21875 46.445312 37.25 46.589844 37.980469 C 46.730469 38.703125 47.144531 38.828125 47.910156 38.382812 C 48.523438 38.023438 48.554688 37.914062 48.53125 36.347656 C 48.515625 35.378906 48.53125 35.003906 48.589844 35.054688 C 48.671875 35.121094 49.074219 36.25 49.222656 36.828125 C 49.472656 37.800781 51.105469 37.007812 51.105469 35.914062 C 51.105469 35.777344 50.96875 35.226562 50.804688 34.691406 C 50.34375 33.210938 50.496094 32.964844 51.105469 34.199219 C 51.621094 35.25 51.851562 35.410156 52.25 34.992188 C 53.128906 34.074219 53.003906 32.582031 51.914062 30.980469 C 51.632812 30.566406 51.589844 30.328125 51.792969 30.328125 C 51.945312 30.328125 52.558594 31.015625 52.871094 31.53125 C 53.507812 32.597656 53.773438 32.550781 54.144531 31.308594 C 54.371094 30.546875 54.273438 30.007812 53.765625 29.183594 C 53.347656 28.503906 53.492188 28.351562 54.105469 28.832031 C 54.652344 29.261719 54.714844 29.425781 54.714844 30.394531 C 54.714844 31.589844 54.839844 31.699219 55.601562 31.191406 C 56.160156 30.816406 56.25 30.640625 56.300781 29.867188 C 56.355469 28.988281 56.558594 28.882812 57 29.507812 C 57.46875 30.171875 57.746094 30.148438 58.261719 29.402344 C 58.433594 29.148438 58.628906 28.902344 58.695312 28.851562 C 59.054688 28.558594 60.371094 28.96875 61.492188 29.726562 C 61.894531 30 62.171875 30.015625 62.582031 29.785156 C 63.023438 29.535156 63.011719 29.230469 62.554688 29.011719 C 61.890625 28.695312 62.027344 28.402344 62.730469 28.640625 C 63.867188 29.027344 66.535156 28.730469 68.167969 28.039062 C 70.820312 26.914062 71.863281 25.839844 69.679688 26.476562 C 68.960938 26.6875 68.375 26.703125 68.375 26.511719 C 68.375 26.382812 69.667969 25.917969 70.035156 25.914062 C 70.457031 25.910156 72.140625 25.121094 72.574219 24.726562 C 73.023438 24.3125 72.792969 24.246094 71.898438 24.519531 C 70.628906 24.910156 69.488281 25.042969 69.414062 24.8125 C 69.359375 24.652344 69.722656 24.496094 70.675781 24.261719 C 72.113281 23.910156 73.773438 23.0625 74.605469 22.257812 C 75.195312 21.683594 75.082031 21.660156 73.792969 22.09375 C 71.851562 22.75 70.675781 22.640625 72.5 21.976562 C 74.109375 21.390625 75.3125 20.667969 76.335938 19.671875 C 77.40625 18.632812 77.371094 18.339844 76.226562 18.710938 C 73.449219 19.617188 69.996094 19.964844 63.898438 19.953125 C 58.871094 19.941406 56.691406 19.664062 51.933594 18.425781 C 50.847656 18.140625 49.707031 17.902344 49.070312 17.824219 C 48.714844 17.78125 48.308594 17.707031 48.164062 17.664062 C 48.003906 17.609375 47.078125 17.566406 45.761719 17.550781 L 43.613281 17.523438 L 42.597656 17.789062 M 46.136719 20.007812 C 46.136719 20.304688 45.472656 21.253906 45.042969 21.570312 C 44.5625 21.925781 44.574219 21.90625 44.480469 22.40625 C 44.4375 22.625 44.300781 22.957031 44.179688 23.140625 C 44.058594 23.324219 43.890625 23.621094 43.808594 23.796875 C 43.648438 24.132812 43.4375 24.265625 43.042969 24.265625 C 42.53125 24.265625 42.539062 24.316406 43.46875 27.222656 C 43.910156 28.605469 44.066406 29.1875 44.148438 29.769531 C 44.175781 29.972656 44.265625 30.324219 44.339844 30.546875 C 44.53125 31.097656 44.546875 33.125 44.363281 33.382812 C 44.082031 33.785156 43.8125 33.53125 43.988281 33.03125 C 44.1875 32.476562 44.121094 31.90625 43.65625 30.105469 C 43.480469 29.425781 43.160156 27.976562 43.058594 27.410156 C 43.019531 27.183594 42.898438 26.761719 42.785156 26.472656 C 42.675781 26.183594 42.535156 25.796875 42.472656 25.613281 C 42.410156 25.425781 42.273438 25.0625 42.167969 24.800781 C 41.75 23.773438 41.859375 23.351562 42.507812 23.496094 C 43.3125 23.679688 43.355469 23.082031 42.609375 22.097656 C 42.285156 21.675781 42.222656 21.441406 42.402344 21.375 C 42.597656 21.300781 42.945312 21.550781 43.238281 21.972656 C 43.917969 22.953125 44.199219 22.5 43.835938 21.007812 C 43.578125 19.9375 43.761719 19.613281 44.175781 20.40625 C 44.550781 21.121094 44.941406 21.191406 45.324219 20.617188 C 45.734375 20 46.136719 19.699219 46.136719 20.007812 M 29.25 23.992188 C 29.5 24.203125 29.539062 24.636719 29.328125 24.84375 C 29.058594 25.109375 27.734375 24.890625 27.515625 24.542969 C 27.199219 24.042969 28.738281 23.554688 29.25 23.992188 M 33.402344 24.007812 C 34.230469 24.421875 34.027344 24.824219 32.914062 24.972656 C 32.125 25.078125 31.734375 24.476562 32.292969 24.007812 C 32.589844 23.757812 32.898438 23.757812 33.402344 24.007812 M 71.347656 28.757812 C 67.359375 29.28125 66.609375 31.265625 68.785156 35.554688 C 69.730469 37.417969 69.875 38.097656 69.449219 38.652344 C 68.617188 39.738281 66.234375 39.578125 63.582031 38.257812 C 62.378906 37.660156 62.257812 37.738281 62.621094 38.886719 C 63.214844 40.746094 63.941406 41.121094 66.945312 41.121094 C 69.371094 41.121094 70.378906 40.699219 71.003906 39.421875 C 71.625 38.160156 71.484375 37.390625 70.128906 34.671875 L 69.285156 32.988281 L 69.28125 32.164062 C 69.277344 30.882812 69.601562 30.554688 70.871094 30.554688 C 72.390625 30.558594 74.164062 31.96875 75.503906 34.246094 C 75.777344 34.707031 75.910156 34.769531 76.277344 34.601562 C 76.464844 34.515625 76.855469 34.445312 77.367188 34.410156 C 78.402344 34.34375 78.59375 34.261719 78.71875 33.84375 C 78.773438 33.664062 78.914062 33.398438 79.035156 33.253906 C 79.417969 32.792969 79.289062 32.539062 78.578125 32.351562 C 78.324219 32.285156 78.132812 32.148438 77.789062 31.792969 C 77.363281 31.355469 77.296875 31.316406 76.769531 31.191406 C 76.054688 31.019531 75.746094 30.886719 74.832031 30.363281 C 73.808594 29.777344 73.628906 29.628906 73.523438 29.277344 C 73.304688 28.5625 73.136719 28.519531 71.347656 28.757812 M 36.332031 29.265625 C 36.597656 29.4375 36.652344 29.84375 36.652344 31.671875 C 36.652344 33.683594 36.636719 33.746094 36.171875 33.660156 C 35.796875 33.589844 35.734375 33.730469 35.671875 34.769531 C 35.625 35.496094 35.570312 35.820312 35.390625 36.328125 C 35.265625 36.683594 35.140625 37.121094 35.109375 37.300781 C 35.042969 37.707031 34.949219 37.894531 34.816406 37.894531 C 34.640625 37.894531 34.628906 37.609375 34.777344 36.988281 C 34.855469 36.65625 34.921875 36.246094 34.925781 36.074219 C 34.925781 35.902344 34.976562 35.421875 35.035156 35.011719 C 35.097656 34.597656 35.144531 33.96875 35.148438 33.609375 C 35.148438 32.859375 35.230469 32.632812 35.566406 32.421875 C 35.992188 32.164062 36.085938 31.808594 36.097656 30.480469 C 36.105469 29.050781 36.09375 29.117188 36.332031 29.265625 M 32.964844 33.457031 C 32.96875 33.714844 32.328125 34.835938 32.0625 35.042969 C 31.53125 35.457031 31.320312 35.378906 31.640625 34.894531 C 31.75 34.730469 31.90625 34.414062 31.992188 34.191406 C 32.21875 33.585938 32.964844 33.023438 32.964844 33.457031 M 20.863281 43.660156 C 21.621094 43.949219 22.222656 44.335938 22.105469 44.453125 C 22.023438 44.535156 21.371094 44.359375 20.621094 44.050781 C 20.054688 43.820312 19.910156 43.789062 19.359375 43.796875 C 18.847656 43.804688 18.726562 43.78125 18.6875 43.683594 C 18.519531 43.246094 19.75 43.230469 20.863281 43.660156 M 17.34375 44.429688 C 17.46875 44.835938 17.480469 56.046875 17.355469 56.203125 C 17.191406 56.414062 17.109375 56.265625 17.035156 55.644531 C 16.964844 55.015625 16.953125 44.5625 17.027344 44.390625 C 17.101562 44.207031 17.28125 44.226562 17.34375 44.429688 M 53.957031 44.515625 C 53.941406 44.53125 53.433594 44.597656 52.835938 44.667969 C 51.078125 44.867188 50.351562 45.136719 50.351562 45.589844 C 50.351562 46.089844 51.449219 48.128906 52.253906 49.128906 C 53.449219 50.609375 53.269531 52.4375 51.785156 53.917969 C 51.332031 54.367188 51.210938 54.429688 50.394531 54.636719 C 49.757812 54.796875 49.421875 55.074219 49.070312 55.734375 C 48.347656 57.085938 49.28125 57.875 51.230469 57.558594 C 51.636719 57.496094 52.324219 57.40625 52.757812 57.363281 C 54.003906 57.246094 54.636719 56.835938 55.0625 55.882812 C 55.296875 55.355469 55.546875 55.085938 56.035156 54.839844 C 56.84375 54.429688 57.007812 54.183594 56.667969 53.875 C 56.285156 53.53125 56.335938 53.242188 56.8125 53.046875 C 57.410156 52.800781 57.480469 52.605469 57.070312 52.339844 C 56.65625 52.074219 56.675781 51.832031 57.125 51.667969 C 57.507812 51.523438 57.617188 51.226562 57.394531 50.910156 C 57.171875 50.597656 57.242188 50.160156 57.578125 49.714844 C 58.066406 49.070312 58.0625 49.042969 57.308594 47.976562 C 57.164062 47.773438 56.996094 47.421875 56.933594 47.1875 C 56.867188 46.957031 56.765625 46.648438 56.703125 46.5 C 56.578125 46.207031 54.960938 44.664062 54.660156 44.550781 C 54.480469 44.484375 54.015625 44.457031 53.957031 44.515625 M 15.28125 55.90625 C 15.402344 55.96875 15.503906 56.035156 15.503906 56.050781 C 15.503906 56.066406 15.523438 56.125 15.542969 56.183594 C 15.578125 56.273438 15.359375 56.285156 14.132812 56.265625 C 11.898438 56.222656 11.53125 56.15625 12.210938 55.917969 C 12.675781 55.753906 14.96875 55.746094 15.28125 55.90625 "/>
</g>
</svg>
