<?xml version="1.0" encoding="UTF-8"?>
<svg xmlns="http://www.w3.org/2000/svg" xmlns:xlink="http://www.w3.org/1999/xlink" width="150px" height="150px" viewBox="0 0 150 150" version="1.1">
<g id="surface1">
<path style=" stroke:none;fill-rule:nonzero;fill:rgb(0%,69.411767%,25.098041%);fill-opacity:1;" d="M 0 30 L 150 30 L 150 120 L 0 120 Z M 0 30 "/>
<path style=" stroke:none;fill-rule:nonzero;fill:rgb(100%,100%,100%);fill-opacity:1;" d="M 0 30 L 150 30 L 150 75 L 0 75 Z M 0 30 "/>
<path style="fill-rule:nonzero;fill:rgb(78.431374%,6.27451%,18.039216%);fill-opacity:1;stroke-width:1.15651;stroke-linecap:butt;stroke-linejoin:miter;stroke:rgb(0%,0%,0%);stroke-opacity:1;stroke-miterlimit:4;" d="M 246.666667 113.8125 C 220.6875 117.75 154.833333 123.9375 129.145833 119.729167 L 134.166667 131.8125 C 176.6875 127.875 217.4375 141.666667 255.229167 127.3125 Z M 246.666667 113.8125 " transform="matrix(0.1875,0,0,0.1875,0,30)"/>
<path style="fill-rule:nonzero;fill:rgb(78.431374%,6.27451%,18.039216%);fill-opacity:1;stroke-width:1.15651;stroke-linecap:butt;stroke-linejoin:miter;stroke:rgb(0%,0%,0%);stroke-opacity:1;stroke-miterlimit:4;" d="M 145.979167 143.333333 C 129.75 138.5625 102.875 110.729167 98.458333 93.854167 C 111.145833 102.5625 141.5625 113.8125 152.479167 112.6875 C 148.9375 115.229167 140.083333 121.979167 133.291667 122.8125 C 136.541667 129 142.729167 136.875 145.979167 143.333333 Z M 145.979167 143.333333 " transform="matrix(0.1875,0,0,0.1875,0,30)"/>
<path style="fill-rule:nonzero;fill:rgb(78.431374%,6.27451%,18.039216%);fill-opacity:1;stroke-width:1.15651;stroke-linecap:butt;stroke-linejoin:miter;stroke:rgb(0%,0%,0%);stroke-opacity:1;stroke-miterlimit:4;" d="M 198.25 134.916667 C 202.958333 141.375 227.770833 138.708333 240.3125 130.833333 L 236.916667 125.354167 L 234.416667 129.979167 L 230.416667 125.625 L 229.395833 132.520833 L 222.458333 127.458333 L 221.270833 133.5 L 216.833333 128.166667 L 215.229167 134.770833 L 208.729167 129.708333 L 206.208333 136.604167 C 204.25 134.270833 203.166667 131.333333 203.104167 128.291667 C 200.604167 129.291667 198.541667 132.520833 198.25 134.916667 Z M 198.25 134.916667 " transform="matrix(0.1875,0,0,0.1875,0,30)"/>
<path style="fill-rule:nonzero;fill:rgb(78.431374%,6.27451%,18.039216%);fill-opacity:1;stroke-width:1.15651;stroke-linecap:butt;stroke-linejoin:miter;stroke:rgb(0%,0%,0%);stroke-opacity:1;stroke-miterlimit:4;" d="M 200.3125 113.958333 C 200.3125 115.645833 202.375 120.5625 206.208333 121.979167 C 206.354167 119.854167 203.708333 114.9375 205.333333 112.833333 L 208.729167 115.916667 L 209.75 110.020833 L 214.333333 113.25 L 214.770833 106.375 L 219.5 109.458333 L 219.5 101.875 C 211.833333 102.5625 202.375 111.416667 200.3125 113.958333 Z M 200.3125 113.958333 " transform="matrix(0.1875,0,0,0.1875,0,30)"/>
<path style="fill-rule:nonzero;fill:rgb(78.431374%,6.27451%,18.039216%);fill-opacity:1;stroke-width:1.15651;stroke-linecap:butt;stroke-linejoin:miter;stroke:rgb(0%,0%,0%);stroke-opacity:1;stroke-miterlimit:4;" d="M 679.416667 190.583333 C 677.4375 186.083333 671.229167 180.604167 665.770833 177.229167 C 667.895833 172.229167 671.229167 164.333333 674.541667 156.145833 C 666.270833 157.854167 649.083333 159.083333 639.041667 157.958333 C 657.9375 139.979167 697.5 102.854167 710.5 85.979167 C 705.770833 109.041667 709.3125 160.770833 718.770833 178.770833 C 708.729167 174.833333 697.125 166.6875 690.625 157.6875 C 686.791667 170.604167 682.104167 184.6875 679.5 190.4375 " transform="matrix(0.1875,0,0,0.1875,0,30)"/>
<path style="fill-rule:nonzero;fill:rgb(78.431374%,6.27451%,18.039216%);fill-opacity:1;stroke-width:1.15651;stroke-linecap:butt;stroke-linejoin:miter;stroke:rgb(0%,0%,0%);stroke-opacity:1;stroke-miterlimit:4;" d="M 310.729167 91.875 C 311.916667 97.791667 312.208333 102.291667 316.645833 103.979167 C 321.0625 105.666667 330.8125 109.041667 337 119.166667 C 329.625 117.1875 319.291667 114.375 318.416667 121.125 C 317.5625 127.5625 320.520833 127.354167 325.5 128.4375 C 331.979167 129.854167 338.1875 137.4375 338.479167 147.5625 C 333.166667 144.479167 325.791667 141.9375 321.0625 141.9375 C 316.333333 141.9375 315.020833 142.770833 313.833333 148.395833 C 311.875 157.6875 315.458333 158.25 319.875 158.8125 C 324.3125 159.375 333.770833 163.583333 334.354167 179.0625 C 329.333333 174.833333 319.270833 172.479167 313.083333 171.458333 C 309.6875 170.895833 309.104167 172.583333 308.666667 178.5 C 308.229167 184.395833 308.958333 186.375 314.854167 188.0625 C 320.770833 189.75 327.5625 193.958333 329.333333 202.958333 C 323.729167 200.4375 314.854167 201.270833 312.208333 202.395833 C 309.541667 203.520833 308.104167 209.8125 313.729167 221.895833 C 325.791667 218 338.25 215.416667 350.875 214.208333 C 378.791667 211.416667 372.145833 192.833333 372.145833 163.583333 C 372.145833 134.354167 433.5625 101.729167 526.854167 49.979167 C 504.416667 104.541667 535.125 99.479167 552.25 93.291667 C 569.375 87.104167 609.520833 71.354167 640.8125 58.416667 C 597.708333 85.979167 575.854167 115.229167 613.645833 128.166667 C 565.229167 142.770833 542.791667 182.708333 569.375 208.020833 C 551.25 201.916667 526.125 213.4375 515.625 229.5 C 534.520833 227.8125 571.145833 232.208333 593.583333 238.395833 C 614.9375 244.291667 650.208333 237.395833 653.541667 219.229167 C 653.708333 218.3125 653.8125 217.395833 653.8125 216.458333 C 653.8125 210.125 652.1875 205.354167 649.6875 201.875 C 644.1875 194.208333 634.583333 192.5625 629.3125 192.5625 C 621.625 192.5625 613.645833 195.645833 613.645833 201 C 613.645833 206.333333 618.375 208.583333 627.833333 208.583333 C 633 208.583333 640.958333 209.4375 649.6875 201.875 C 652.1875 205.354167 653.8125 210.125 653.8125 216.458333 C 653.791667 217.375 653.708333 218.291667 653.520833 219.1875 C 645.270833 223.666667 636.041667 226 626.645833 226.020833 C 607.75 226.020833 590.041667 218.708333 590.041667 199.020833 C 590.041667 179.333333 611.291667 168.083333 628.416667 168.083333 C 652.041667 168.083333 685.104167 177.083333 685.104167 213.083333 C 685.104167 258.645833 622.395833 279.9375 585.1875 279.9375 C 591.416667 284.9375 598.458333 289.583333 605.979167 292.375 C 632.333333 302.229167 655.583333 314.3125 663.854167 332.875 C 653.8125 332.875 637.270833 325 629.604167 317.125 C 650.854167 341.875 625.0625 387.395833 627.833333 402.625 C 630.770833 418.9375 650.854167 408.8125 650.854167 421.458333 C 650.854167 432.708333 639.041667 430.75 634.625 425.6875 C 630.1875 420.625 616 416.375 608.625 421.458333 C 602.145833 425.958333 592.104167 428.208333 587.666667 423.708333 C 583.25 419.208333 567 420.895833 560.208333 427.083333 C 553.416667 433.270833 543.9375 433.75 541.020833 429.0625 C 537.895833 424.020833 538.708333 417.895833 551.333333 415.791667 C 545.729167 410.166667 528.625 419.770833 525.666667 409.083333 C 523.541667 401.416667 528.041667 397.833333 542.791667 398.958333 C 541.3125 395.3125 530.395833 393.625 531.875 386.020833 C 533.354167 378.4375 541.875 373.729167 551.958333 384.895833 C 578.8125 414.708333 591.208333 398.125 600.375 385.1875 C 597.416667 378.4375 600.666667 373.9375 606.270833 369.729167 C 603.3125 364.9375 605.083333 358.1875 607.166667 353.6875 C 602.729167 351.166667 600.083333 339.916667 604.791667 335.979167 C 600.958333 335.979167 595.0625 331.75 595.0625 324.4375 C 589.791667 327.645833 583.041667 326.958333 578.520833 322.75 C 572.916667 325.854167 558.145833 326.416667 551.645833 319.666667 C 542.791667 323.041667 527.145833 322.1875 523.020833 315.729167 C 515.229167 317.6875 500.875 311.229167 497.916667 304.1875 C 493.375 303.875 488.9375 302.520833 484.979167 300.270833 C 473.166667 308.708333 457.166667 325 473.125 337.375 C 489.0625 349.75 522.125 339.625 522.729167 370.5625 C 515.041667 364.375 500.875 366.0625 496.145833 359.875 C 480.208333 382.375 457.166667 402.895833 423.229167 411.333333 C 428.229167 414.4375 437.395833 414.708333 440.9375 414.4375 C 448.291667 413.854167 454.520833 419.770833 448.916667 426.8125 C 443.291667 433.833333 431.791667 427.9375 425 422.020833 C 415.229167 413.520833 408.75 418.375 406.104167 420.333333 C 403.4375 422.3125 399.895833 423.4375 395.166667 418.9375 C 390.458333 414.4375 386.020833 417.520833 383.666667 420.333333 C 379.8125 424.916667 370.958333 414.4375 356.791667 426.8125 C 349.979167 432.75 333.770833 425.125 340.25 416.395833 C 333.458333 418.083333 321.458333 408.6875 331.395833 399.520833 C 340.5625 391.083333 357.979167 410.5 372.145833 404.875 C 368.958333 401 362.3125 393.854167 348.520833 392.208333 C 341.4375 391.375 340.1875 383.520833 343.5 377.875 C 347.645833 370.854167 360.333333 375.625 368.895833 386.583333 C 375.645833 395.229167 384.541667 395.3125 393.6875 393.625 C 400.125 389.541667 410.083333 389.395833 414.520833 390.8125 C 414.520833 386.583333 421.458333 382.9375 426.770833 382.9375 C 426.458333 377.3125 428.229167 372.25 436.8125 370.854167 C 437.520833 370.729167 438.25 370.604167 439.020833 370.541667 C 433.041667 370.8125 427.270833 368.4375 423.208333 364.0625 C 411.375 366.958333 398.291667 361.395833 396.354167 350.75 C 377.666667 349.458333 375.8125 330.583333 380.416667 324.4375 C 380.791667 323.9375 381.208333 323.458333 381.666667 323.041667 C 376.104167 327.229167 369 329.145833 360.208333 326.104167 C 351.9375 337.354167 337.5625 342.25 324.145833 338.395833 C 320.4375 344.020833 314.770833 348.0625 308.25 349.770833 C 308.791667 356.583333 307.333333 364.291667 298.333333 373.375 C 300.6875 361 284.166667 357.0625 287.708333 336.8125 C 286.520833 351.4375 241.9375 375.625 234.854167 407.6875 C 241.354167 410.5 248.4375 412.458333 252.854167 411.625 C 264 409.5 267.625 420.625 264.375 425.125 C 261.125 429.625 251.979167 431.875 248.145833 427.9375 C 244.291667 424 236.333333 429.333333 232.5 422.020833 C 228.645833 414.708333 218.020833 417.25 213.604167 422.020833 C 209.166667 426.8125 194.395833 415.833333 183.770833 426.8125 C 179.791667 430.916667 166.354167 435.25 158.375 433 C 150.416667 430.75 145.6875 422.875 148.354167 418.645833 C 143.041667 413.875 142.958333 408.020833 148.0625 402.895833 C 146.125 395.729167 152.395833 381.5625 162.958333 387.145833 C 169.604167 390.666667 193.145833 407.270833 213.666667 388.270833 C 231.458333 371.625 221.104167 358.270833 232.5 356.5 C 231.104167 349.729167 235.4375 341.3125 240.166667 339.625 C 238.791667 336.833333 238.541667 333.604167 239.479167 330.625 C 236.791667 330.416667 234.145833 329.833333 231.625 328.895833 C 222.770833 331.395833 213.645833 332.75 204.4375 332.875 C 204.4375 339.625 196.1875 355.9375 189.083333 363.8125 C 186.729167 301.958333 127.6875 295.75 119.708333 246.541667 C 119.416667 253.854167 111.4375 261.166667 110.5625 267.354167 C 109.666667 273.541667 105.833333 278.333333 98.75 275.520833 C 91.666667 272.708333 89.895833 260.895833 96.979167 259.208333 C 104.0625 257.520833 102.729167 246.270833 107.166667 244.854167 C 111.583333 243.458333 112.333333 238.958333 110.5625 233.333333 C 108.791667 227.708333 111.4375 220.958333 113.208333 216.75 C 114.979167 212.520833 112.333333 205.5 106.125 202.958333 C 99.916667 200.4375 97.854167 194.25 100.229167 188.895833 C 93.729167 184.395833 95.583333 174.6875 104.354167 172.875 C 115.270833 170.625 114.979167 187.770833 121.1875 189.75 C 120.291667 186.375 121.479167 179.895833 124.145833 175.6875 C 120.583333 168.375 125.020833 162.458333 132.104167 162.458333 C 144.5 162.458333 140.375 182.145833 137.416667 188.333333 C 141.5625 182.708333 148.0625 176.25 153.0625 180.75 C 158.083333 185.25 157.270833 194.645833 151.895833 198.75 C 147.458333 202.125 138.3125 207.458333 140.958333 213.375 C 146.270833 222.375 149.520833 233.041667 150.125 246.833333 C 157.5 252.166667 162.229167 258.354167 162.229167 263.416667 C 167.083333 263.708333 176.416667 267.541667 177.729167 272.979167 C 183.625 272.416667 192.4375 273.541667 195 278.75 C 196.916667 277.770833 202.041667 277.4375 205.145833 277.708333 C 205.145833 273.3125 206.666667 269.0625 209.458333 265.666667 C 199.416667 254.979167 199.708333 238.104167 210.0625 231.354167 C 207.104167 224.354167 208.291667 211.395833 218.020833 204.645833 C 217.8125 197.625 219.791667 188.333333 229.541667 182.4375 C 228.0625 174.833333 233.083333 164.4375 239.291667 163.875 C 237.8125 156.5625 238.916667 147.541667 247.479167 143.3125 C 245.458333 141.208333 244.416667 138.354167 244.583333 135.4375 C 229.5625 138.520833 223.708333 147.270833 218.916667 155.4375 C 218.3125 152.0625 217.4375 147.5625 215.375 144.1875 C 215.375 152.895833 208.583333 156 208.291667 168.083333 C 203.270833 163.020833 201.5 154.875 201.791667 149.25 C 202.020833 144.75 194.104167 140.541667 196.479167 132.666667 C 208.291667 143.0625 232.1875 120.291667 252.854167 127.604167 C 232.5 86.8125 217.729167 106.5 207.395833 113.541667 C 197.0625 120.5625 189.6875 110.166667 190.854167 103.416667 C 176.979167 100.3125 160.458333 100.875 142.4375 104.25 C 155.729167 87.666667 187.020833 80.354167 210.0625 82.041667 C 220.083333 64.333333 232.1875 66.854167 244 68.541667 C 251.729167 69.645833 260.75 69.666667 269.6875 69.25 C 275.3125 54.333333 308.083333 52.791667 311.3125 40.979167 C 314.270833 43.229167 312.479167 51.6875 309.520833 59 C 318.0625 56.5625 325.395833 53.979167 327.854167 48.854167 C 329.333333 53.645833 326.979167 66.5625 323.729167 70.5 C 327.083333 69.604167 330.583333 69.229167 334.0625 69.395833 C 323.729167 75 310.729167 83.4375 308.666667 84.854167 C 306.604167 86.25 305.416667 89.0625 310.729167 91.875 C 304.833333 93 288.291667 98.625 281.5 94.125 " transform="matrix(0.1875,0,0,0.1875,0,30)"/>
<path style="fill-rule:nonzero;fill:rgb(78.431374%,6.27451%,18.039216%);fill-opacity:1;stroke-width:1.15651;stroke-linecap:butt;stroke-linejoin:miter;stroke:rgb(0%,0%,0%);stroke-opacity:1;stroke-miterlimit:4;" d="M 86.354167 167.958333 C 94.166667 162.604167 104.875 166.5625 107.166667 174.416667 C 108.645833 179.479167 99.666667 183.229167 98.895833 178.5 C 97.854167 172.166667 93.583333 168.229167 86.354167 167.958333 Z M 86.354167 167.958333 " transform="matrix(0.1875,0,0,0.1875,0,30)"/>
<path style="fill-rule:nonzero;fill:rgb(78.431374%,6.27451%,18.039216%);fill-opacity:1;stroke-width:1.15651;stroke-linecap:butt;stroke-linejoin:miter;stroke:rgb(0%,0%,0%);stroke-opacity:1;stroke-miterlimit:4;" d="M 117.020833 151.604167 C 126.125 148.625 135.1875 155.3125 135.020833 163.479167 C 134.916667 168.729167 125.1875 169.875 125.875 165.125 C 126.791667 158.791667 123.875 153.854167 117.020833 151.604167 Z M 117.020833 151.604167 " transform="matrix(0.1875,0,0,0.1875,0,30)"/>
<path style="fill-rule:nonzero;fill:rgb(78.431374%,6.27451%,18.039216%);fill-opacity:1;stroke-width:1.15651;stroke-linecap:butt;stroke-linejoin:miter;stroke:rgb(0%,0%,0%);stroke-opacity:1;stroke-miterlimit:4;" d="M 150.895833 166 C 159.5625 169.958333 161.083333 180.791667 154.958333 186.479167 C 151.020833 190.166667 143.229167 184.479167 147.229167 181.541667 C 152.541667 177.645833 154.104167 172.166667 150.895833 166 Z M 150.895833 166 " transform="matrix(0.1875,0,0,0.1875,0,30)"/>
<path style="fill-rule:nonzero;fill:rgb(78.431374%,6.27451%,18.039216%);fill-opacity:1;stroke-width:1.15651;stroke-linecap:butt;stroke-linejoin:miter;stroke:rgb(0%,0%,0%);stroke-opacity:1;stroke-miterlimit:4;" d="M 81.729167 279.666667 C 89.3125 285.3125 100.166667 281.791667 102.8125 274.041667 C 104.520833 269.041667 95.729167 264.916667 94.75 269.625 C 93.416667 275.916667 88.979167 279.666667 81.729167 279.666667 Z M 81.729167 279.666667 " transform="matrix(0.1875,0,0,0.1875,0,30)"/>
<path style="fill-rule:nonzero;fill:rgb(78.431374%,6.27451%,18.039216%);fill-opacity:1;stroke-width:1.15651;stroke-linecap:butt;stroke-linejoin:miter;stroke:rgb(0%,0%,0%);stroke-opacity:1;stroke-miterlimit:4;" d="M 135.0625 393.375 C 138.229167 384.729167 149.375 382.083333 156 387.270833 C 160.25 390.604167 155.1875 398.583333 151.6875 395.125 C 147.020833 390.520833 141.145833 389.645833 135.0625 393.375 Z M 135.0625 393.375 " transform="matrix(0.1875,0,0,0.1875,0,30)"/>
<path style="fill-rule:nonzero;fill:rgb(78.431374%,6.27451%,18.039216%);fill-opacity:1;stroke-width:1.15651;stroke-linecap:butt;stroke-linejoin:miter;stroke:rgb(0%,0%,0%);stroke-opacity:1;stroke-miterlimit:4;" d="M 125.104167 416.666667 C 125.625 407.5 138.5 401.75 146.375 404.979167 C 151.4375 407.041667 148.916667 416.0625 144.541667 413.666667 C 138.708333 410.479167 129.854167 411.458333 125.104167 416.666667 Z M 125.104167 416.666667 " transform="matrix(0.1875,0,0,0.1875,0,30)"/>
<path style="fill-rule:nonzero;fill:rgb(78.431374%,6.27451%,18.039216%);fill-opacity:1;stroke-width:1.15651;stroke-linecap:butt;stroke-linejoin:miter;stroke:rgb(0%,0%,0%);stroke-opacity:1;stroke-miterlimit:4;" d="M 139.104167 438.270833 C 135.791667 429.645833 142.666667 420.895833 151.229167 420.895833 C 156.75 420.916667 158.125 430.145833 153.125 429.583333 C 146.458333 428.833333 141.333333 431.708333 139.104167 438.270833 Z M 139.104167 438.270833 " transform="matrix(0.1875,0,0,0.1875,0,30)"/>
<path style="fill-rule:nonzero;fill:rgb(78.431374%,6.27451%,18.039216%);fill-opacity:1;stroke-width:1.15651;stroke-linecap:butt;stroke-linejoin:miter;stroke:rgb(0%,0%,0%);stroke-opacity:1;stroke-miterlimit:4;" d="M 277.958333 430.583333 C 279.104167 421.479167 270.3125 414.458333 261.979167 416.333333 C 256.604167 417.541667 257.479167 426.833333 262.208333 425.1875 C 268.520833 423 274.208333 424.6875 277.958333 430.583333 Z M 277.958333 430.583333 " transform="matrix(0.1875,0,0,0.1875,0,30)"/>
<path style="fill-rule:nonzero;fill:rgb(78.431374%,6.27451%,18.039216%);fill-opacity:1;stroke-width:1.15651;stroke-linecap:butt;stroke-linejoin:miter;stroke:rgb(0%,0%,0%);stroke-opacity:1;stroke-miterlimit:4;" d="M 331.229167 433.479167 C 329.25 424.5 337.354167 416.770833 345.833333 417.958333 C 351.291667 418.708333 351.291667 428.041667 346.416667 426.791667 C 339.916667 425.145833 334.416667 427.291667 331.229167 433.479167 Z M 331.229167 433.479167 " transform="matrix(0.1875,0,0,0.1875,0,30)"/>
<path style="fill-rule:nonzero;fill:rgb(78.431374%,6.27451%,18.039216%);fill-opacity:1;stroke-width:1.15651;stroke-linecap:butt;stroke-linejoin:miter;stroke:rgb(0%,0%,0%);stroke-opacity:1;stroke-miterlimit:4;" d="M 464.0625 431.291667 C 464.791667 422.145833 455.708333 415.479167 447.458333 417.6875 C 442.145833 419.125 443.416667 428.375 448.083333 426.541667 C 454.291667 424.104167 460.041667 425.541667 464.0625 431.291667 Z M 464.0625 431.291667 " transform="matrix(0.1875,0,0,0.1875,0,30)"/>
<path style="fill-rule:nonzero;fill:rgb(78.431374%,6.27451%,18.039216%);fill-opacity:1;stroke-width:1.15651;stroke-linecap:butt;stroke-linejoin:miter;stroke:rgb(0%,0%,0%);stroke-opacity:1;stroke-miterlimit:4;" d="M 315.458333 414.4375 C 314.041667 405.375 323.5 397.5625 331.875 399.208333 C 337.291667 400.291667 335.833333 410.145833 331.041667 408.625 C 324.666667 406.625 319.020833 408.4375 315.458333 414.4375 Z M 315.458333 414.4375 " transform="matrix(0.1875,0,0,0.1875,0,30)"/>
<path style="fill-rule:nonzero;fill:rgb(78.431374%,6.27451%,18.039216%);fill-opacity:1;stroke-width:1.15651;stroke-linecap:butt;stroke-linejoin:miter;stroke:rgb(0%,0%,0%);stroke-opacity:1;stroke-miterlimit:4;" d="M 327.833333 388.354167 C 328.354167 379.1875 339.25 373.354167 347.125 376.583333 C 352.1875 378.645833 348.6875 388.041667 344.3125 385.645833 C 338.479167 382.4375 332.583333 383.166667 327.833333 388.354167 Z M 327.833333 388.354167 " transform="matrix(0.1875,0,0,0.1875,0,30)"/>
<path style="fill-rule:nonzero;fill:rgb(78.431374%,6.27451%,18.039216%);fill-opacity:1;stroke-width:1.15651;stroke-linecap:butt;stroke-linejoin:miter;stroke:rgb(0%,0%,0%);stroke-opacity:1;stroke-miterlimit:4;" d="M 531.104167 438.270833 C 529.125 429.291667 537.25 421.5625 545.708333 422.729167 C 551.1875 423.479167 551.166667 432.8125 546.291667 431.583333 C 539.8125 429.9375 534.291667 432.083333 531.104167 438.270833 Z M 531.104167 438.270833 " transform="matrix(0.1875,0,0,0.1875,0,30)"/>
<path style="fill-rule:nonzero;fill:rgb(78.431374%,6.27451%,18.039216%);fill-opacity:1;stroke-width:1.15651;stroke-linecap:butt;stroke-linejoin:miter;stroke:rgb(0%,0%,0%);stroke-opacity:1;stroke-miterlimit:4;" d="M 663.041667 433.979167 C 665.083333 425 657.020833 417.229167 648.541667 418.333333 C 643.083333 419.0625 643.020833 428.395833 647.895833 427.1875 C 654.395833 425.583333 659.895833 427.75 663.041667 433.979167 Z M 663.041667 433.979167 " transform="matrix(0.1875,0,0,0.1875,0,30)"/>
<path style="fill-rule:nonzero;fill:rgb(78.431374%,6.27451%,18.039216%);fill-opacity:1;stroke-width:1.15651;stroke-linecap:butt;stroke-linejoin:miter;stroke:rgb(0%,0%,0%);stroke-opacity:1;stroke-miterlimit:4;" d="M 514.125 417.458333 C 512.729167 408.395833 521.3125 401.145833 529.708333 402.833333 C 535.104167 403.895833 534.5 413.208333 529.708333 411.6875 C 523.333333 409.666667 517.708333 411.479167 514.125 417.458333 Z M 514.125 417.458333 " transform="matrix(0.1875,0,0,0.1875,0,30)"/>
<path style="fill-rule:nonzero;fill:rgb(78.431374%,6.27451%,18.039216%);fill-opacity:1;stroke-width:1.15651;stroke-linecap:butt;stroke-linejoin:miter;stroke:rgb(0%,0%,0%);stroke-opacity:1;stroke-miterlimit:4;" d="M 519.020833 392.708333 C 519.208333 383.541667 528.916667 377.729167 536.916667 380.666667 C 542.0625 382.583333 539.854167 391.666667 535.395833 389.416667 C 529.458333 386.4375 523.583333 387.354167 519.020833 392.708333 Z M 519.020833 392.708333 " transform="matrix(0.1875,0,0,0.1875,0,30)"/>
<path style="fill:none;stroke-width:1.15651;stroke-linecap:butt;stroke-linejoin:miter;stroke:rgb(0%,0%,0%);stroke-opacity:1;stroke-miterlimit:4;" d="M 552.25 93.291667 C 529.8125 100.604167 443 133.229167 427.0625 138.291667 C 411.125 143.333333 402.854167 144.479167 393.395833 165.270833 " transform="matrix(0.1875,0,0,0.1875,0,30)"/>
<path style="fill:none;stroke-width:1.15651;stroke-linecap:butt;stroke-linejoin:miter;stroke:rgb(0%,0%,0%);stroke-opacity:1;stroke-miterlimit:4;" d="M 510.3125 69.104167 C 453.625 103.979167 407.583333 134.354167 394.583333 163.020833 C 381.583333 191.708333 382.479167 209.145833 350.875 214.208333 " transform="matrix(0.1875,0,0,0.1875,0,30)"/>
<path style="fill:none;stroke-width:1.15651;stroke-linecap:butt;stroke-linejoin:miter;stroke:rgb(0%,0%,0%);stroke-opacity:1;stroke-miterlimit:4;" d="M 259.958333 268.208333 C 274.125 252.458333 303.645833 233.333333 331.979167 232.208333 C 326.458333 240.770833 321.729167 249.791667 317.8125 259.208333 " transform="matrix(0.1875,0,0,0.1875,0,30)"/>
<path style="fill:none;stroke-width:1.15651;stroke-linecap:butt;stroke-linejoin:miter;stroke:rgb(0%,0%,0%);stroke-opacity:1;stroke-miterlimit:4;" d="M 317.229167 269.895833 C 324.3125 260.895833 342.020833 241.770833 353.25 233.895833 C 347.9375 249.083333 339.083333 285.083333 343.791667 309.8125 C 346.75 286.208333 359.75 249.645833 373.333333 228.833333 C 383.354167 251.895833 396.9375 284.520833 396.9375 305.333333 C 399.895833 280.583333 394 237.833333 385.125 219.270833 C 409.333333 231.083333 439.458333 264.833333 452.458333 285.645833 C 443.583333 256.395833 413.479167 220.958333 397.541667 209.708333 C 437.104167 216.458333 494.375 240.645833 515.625 258.645833 C 480.791667 227.708333 438.270833 203.520833 408.166667 192.270833 C 455.395833 188.333333 543.979167 198.458333 569.375 208.020833 C 532.166667 187.770833 455.395833 177.083333 409.333333 179.895833 C 457.770833 160.208333 543.979167 137.729167 613.645833 128.166667 C 560.5 130.979167 492.020833 144.479167 421.75 159.645833 C 453.041667 139.395833 549.875 101.166667 572.916667 94.416667 " transform="matrix(0.1875,0,0,0.1875,0,30)"/>
<path style="fill:none;stroke-width:1.15651;stroke-linecap:butt;stroke-linejoin:miter;stroke:rgb(0%,0%,0%);stroke-opacity:1;stroke-miterlimit:4;" d="M 274.125 79.791667 C 278.333333 66.520833 295.541667 63 309.520833 59 " transform="matrix(0.1875,0,0,0.1875,0,30)"/>
<path style="fill:none;stroke-width:1.15651;stroke-linecap:butt;stroke-linejoin:miter;stroke:rgb(0%,0%,0%);stroke-opacity:1;stroke-miterlimit:4;" d="M 297.4375 89.625 C 285.645833 88.791667 283.541667 84.791667 290.0625 80.354167 C 294.208333 77.541667 302.75 73.041667 308.666667 72.479167 C 307.1875 72.208333 303.0625 71.0625 300.979167 70.791667 C 307.1875 68.270833 317.520833 64.604167 321.0625 61.229167 " transform="matrix(0.1875,0,0,0.1875,0,30)"/>
<path style="fill:none;stroke-width:1.15651;stroke-linecap:butt;stroke-linejoin:miter;stroke:rgb(0%,0%,0%);stroke-opacity:1;stroke-miterlimit:4;" d="M 283.708333 68.270833 C 279.208333 68.645833 274.458333 69.020833 269.6875 69.25 " transform="matrix(0.1875,0,0,0.1875,0,30)"/>
<path style="fill:none;stroke-width:1.15651;stroke-linecap:butt;stroke-linejoin:miter;stroke:rgb(0%,0%,0%);stroke-opacity:1;stroke-miterlimit:4;" d="M 253.166667 134.354167 C 250.270833 134.479167 247.416667 134.854167 244.583333 135.4375 " transform="matrix(0.1875,0,0,0.1875,0,30)"/>
<path style="fill:none;stroke-width:1.15651;stroke-linecap:butt;stroke-linejoin:miter;stroke:rgb(0%,0%,0%);stroke-opacity:1;stroke-miterlimit:4;" d="M 205.145833 277.708333 C 205.020833 285.8125 207.9375 293.645833 213.291667 299.6875 C 218.020833 304.75 246.958333 306.4375 248.145833 296.875 " transform="matrix(0.1875,0,0,0.1875,0,30)"/>
<path style="fill:none;stroke-width:1.15651;stroke-linecap:butt;stroke-linejoin:miter;stroke:rgb(0%,0%,0%);stroke-opacity:1;stroke-miterlimit:4;" d="M 209.458333 265.666667 C 219.5 276.354167 251.979167 269.895833 251.979167 262.020833 " transform="matrix(0.1875,0,0,0.1875,0,30)"/>
<path style="fill:none;stroke-width:1.15651;stroke-linecap:butt;stroke-linejoin:miter;stroke:rgb(0%,0%,0%);stroke-opacity:1;stroke-miterlimit:4;" d="M 210.0625 231.354167 C 213.604167 239.791667 251.395833 247.395833 251.979167 237.541667 " transform="matrix(0.1875,0,0,0.1875,0,30)"/>
<path style="fill:none;stroke-width:1.15651;stroke-linecap:butt;stroke-linejoin:miter;stroke:rgb(0%,0%,0%);stroke-opacity:1;stroke-miterlimit:4;" d="M 218.020833 204.645833 C 218.3125 214.5 252.729167 220.875 253.75 213.645833 " transform="matrix(0.1875,0,0,0.1875,0,30)"/>
<path style="fill:none;stroke-width:1.15651;stroke-linecap:butt;stroke-linejoin:miter;stroke:rgb(0%,0%,0%);stroke-opacity:1;stroke-miterlimit:4;" d="M 229.541667 182.4375 C 231.020833 190.020833 253.75 197.333333 257 193.958333 " transform="matrix(0.1875,0,0,0.1875,0,30)"/>
<path style="fill:none;stroke-width:1.15651;stroke-linecap:butt;stroke-linejoin:miter;stroke:rgb(0%,0%,0%);stroke-opacity:1;stroke-miterlimit:4;" d="M 239.291667 163.875 C 240.354167 169.208333 256.708333 174 262.3125 172.020833 " transform="matrix(0.1875,0,0,0.1875,0,30)"/>
<path style="fill:none;stroke-width:1.15651;stroke-linecap:butt;stroke-linejoin:miter;stroke:rgb(0%,0%,0%);stroke-opacity:1;stroke-miterlimit:4;" d="M 247.479167 143.3125 C 250.833333 147.1875 257.333333 150.791667 268.520833 152.625 " transform="matrix(0.1875,0,0,0.1875,0,30)"/>
<path style="fill:none;stroke-width:1.15651;stroke-linecap:butt;stroke-linejoin:miter;stroke:rgb(0%,0%,0%);stroke-opacity:1;stroke-miterlimit:4;" d="M 190.854167 103.416667 C 191.166667 97.5 197.0625 96.666667 196.1875 90.75 " transform="matrix(0.1875,0,0,0.1875,0,30)"/>
<path style="fill:none;stroke-width:1.15651;stroke-linecap:butt;stroke-linejoin:miter;stroke:rgb(0%,0%,0%);stroke-opacity:1;stroke-miterlimit:4;" d="M 252.854167 127.604167 C 254.9375 130.6875 260.25 137.166667 260.833333 141.9375 C 263.791667 139.6875 266.145833 134.916667 267.041667 132.666667 C 269.854167 135 271.916667 138.145833 272.9375 141.666667 C 274.125 138.291667 276.1875 132.375 276.479167 128.729167 C 280.708333 129.666667 284.666667 131.583333 288 134.354167 C 288.583333 130.6875 286.8125 125.916667 283.854167 123.9375 C 287.125 124.083333 290.375 123.395833 293.3125 121.979167 C 291.25 119.166667 288 115.5 284.75 113.8125 C 287.708333 112.979167 291.833333 109.604167 293.604167 108.1875 C 290.958333 107.0625 286.229167 104.541667 283.270833 103.125 C 285.041667 101.4375 286.520833 98.0625 287.416667 95.541667 " transform="matrix(0.1875,0,0,0.1875,0,30)"/>
<path style="fill:none;stroke-width:1.15651;stroke-linecap:butt;stroke-linejoin:miter;stroke:rgb(0%,0%,0%);stroke-opacity:1;stroke-miterlimit:4;" d="M 203.854167 81.895833 C 201.9375 81.895833 201.041667 86.125 204.583333 88.791667 C 207.145833 90.708333 207.104167 98.625 202.520833 100.604167 " transform="matrix(0.1875,0,0,0.1875,0,30)"/>
<path style="fill:none;stroke-width:1.15651;stroke-linecap:butt;stroke-linejoin:miter;stroke:rgb(0%,0%,0%);stroke-opacity:1;stroke-miterlimit:4;" d="M 272.9375 141.666667 C 259.958333 170.333333 248 224.75 252.125 264.125 " transform="matrix(0.1875,0,0,0.1875,0,30)"/>
<path style="fill:none;stroke-width:1.15651;stroke-linecap:butt;stroke-linejoin:miter;stroke:rgb(0%,0%,0%);stroke-opacity:1;stroke-miterlimit:4;" d="M 266.145833 317.979167 C 266.145833 323.875 275.895833 325 275.604167 310.9375 " transform="matrix(0.1875,0,0,0.1875,0,30)"/>
<path style="fill:none;stroke-width:1.15651;stroke-linecap:butt;stroke-linejoin:miter;stroke:rgb(0%,0%,0%);stroke-opacity:1;stroke-miterlimit:4;" d="M 274.708333 317.979167 C 275.895833 323.041667 285.9375 324.166667 283.854167 309.25 " transform="matrix(0.1875,0,0,0.1875,0,30)"/>
<path style="fill:none;stroke-width:1.15651;stroke-linecap:butt;stroke-linejoin:miter;stroke:rgb(0%,0%,0%);stroke-opacity:1;stroke-miterlimit:4;" d="M 270.583333 321.916667 C 271.166667 332.875 278.541667 332.3125 279.145833 321.916667 " transform="matrix(0.1875,0,0,0.1875,0,30)"/>
<path style="fill:none;stroke-width:1.15651;stroke-linecap:butt;stroke-linejoin:miter;stroke:rgb(0%,0%,0%);stroke-opacity:1;stroke-miterlimit:4;" d="M 284.166667 314.3125 C 287.104167 321.0625 295.375 317.6875 293.020833 302.791667 " transform="matrix(0.1875,0,0,0.1875,0,30)"/>
<path style="fill:none;stroke-width:1.15651;stroke-linecap:butt;stroke-linejoin:miter;stroke:rgb(0%,0%,0%);stroke-opacity:1;stroke-miterlimit:4;" d="M 293.3125 309.25 C 296.5625 314.875 304.229167 310.375 305.125 300.541667 " transform="matrix(0.1875,0,0,0.1875,0,30)"/>
<path style="fill:none;stroke-width:1.15651;stroke-linecap:butt;stroke-linejoin:miter;stroke:rgb(0%,0%,0%);stroke-opacity:1;stroke-miterlimit:4;" d="M 254.9375 278.041667 C 249.854167 283.333333 244.0625 295.1875 251.083333 306.4375 C 255.229167 313.0625 266.583333 316.708333 267.770833 312.770833 " transform="matrix(0.1875,0,0,0.1875,0,30)"/>
<path style="fill:none;stroke-width:1.15651;stroke-linecap:butt;stroke-linejoin:miter;stroke:rgb(0%,0%,0%);stroke-opacity:1;stroke-miterlimit:4;" d="M 251.083333 306.4375 C 246.520833 307.145833 239.791667 316.5 243.125 325.4375 C 245.479167 331.75 259.0625 335.5625 261.125 330.916667 " transform="matrix(0.1875,0,0,0.1875,0,30)"/>
<path style="fill:none;stroke-width:1.15651;stroke-linecap:butt;stroke-linejoin:miter;stroke:rgb(0%,0%,0%);stroke-opacity:1;stroke-miterlimit:4;" d="M 389.854167 314.3125 C 404.625 316 424.104167 306.4375 425.291667 287.333333 " transform="matrix(0.1875,0,0,0.1875,0,30)"/>
<path style="fill:none;stroke-width:1.15651;stroke-linecap:butt;stroke-linejoin:miter;stroke:rgb(0%,0%,0%);stroke-opacity:1;stroke-miterlimit:4;" d="M 423.520833 296.3125 C 431.791667 301.375 448.916667 303.0625 456 290.145833 " transform="matrix(0.1875,0,0,0.1875,0,30)"/>
<path style="fill:none;stroke-width:1.15651;stroke-linecap:butt;stroke-linejoin:miter;stroke:rgb(0%,0%,0%);stroke-opacity:1;stroke-miterlimit:4;" d="M 431.1875 300.25 C 423.520833 317.125 416.5625 335.0625 432.375 348.0625 C 445.354167 358.75 455.020833 342.8125 470.75 358.75 C 475.479167 363.541667 469.875 372.520833 422.333333 398.6875 " transform="matrix(0.1875,0,0,0.1875,0,30)"/>
<path style="fill:none;stroke-width:1.15651;stroke-linecap:butt;stroke-linejoin:miter;stroke:rgb(0%,0%,0%);stroke-opacity:1;stroke-miterlimit:4;" d="M 195 278.75 C 198.104167 285.083333 197.791667 297.458333 191.895833 295.75 " transform="matrix(0.1875,0,0,0.1875,0,30)"/>
<path style="fill:none;stroke-width:1.15651;stroke-linecap:butt;stroke-linejoin:miter;stroke:rgb(0%,0%,0%);stroke-opacity:1;stroke-miterlimit:4;" d="M 148.354167 418.645833 C 158.375 404.020833 170.229167 415.854167 178.75 413.3125 " transform="matrix(0.1875,0,0,0.1875,0,30)"/>
<path style="fill-rule:nonzero;fill:rgb(100%,100%,100%);fill-opacity:1;stroke-width:1.15651;stroke-linecap:butt;stroke-linejoin:miter;stroke:rgb(0%,0%,0%);stroke-opacity:1;stroke-miterlimit:4;" d="M 226.729167 84.4375 C 224.958333 88.5 229.666667 94.208333 234.125 94.6875 C 239.291667 95.25 246.666667 92.020833 245.041667 86.8125 " transform="matrix(0.1875,0,0,0.1875,0,30)"/>
<path style="fill:none;stroke-width:1.15651;stroke-linecap:butt;stroke-linejoin:miter;stroke:rgb(0%,0%,0%);stroke-opacity:1;stroke-miterlimit:4;" d="M 221.5625 84.854167 C 224.229167 81.333333 255.229167 92.4375 267.625 84.5625 " transform="matrix(0.1875,0,0,0.1875,0,30)"/>
<path style="fill:none;stroke-width:1.15651;stroke-linecap:butt;stroke-linejoin:miter;stroke:rgb(0%,0%,0%);stroke-opacity:1;stroke-miterlimit:4;" d="M 121.1875 189.75 C 120 192.270833 120.4375 199.729167 125.020833 203.8125 " transform="matrix(0.1875,0,0,0.1875,0,30)"/>
<path style="fill:none;stroke-width:1.15651;stroke-linecap:butt;stroke-linejoin:miter;stroke:rgb(0%,0%,0%);stroke-opacity:1;stroke-miterlimit:4;" d="M 340.25 416.395833 C 342.625 413.583333 351.354167 410.75 357.833333 412.333333 C 364.166667 413.875 375.541667 411.770833 382.916667 408.958333 " transform="matrix(0.1875,0,0,0.1875,0,30)"/>
<path style="fill:none;stroke-width:1.15651;stroke-linecap:butt;stroke-linejoin:miter;stroke:rgb(0%,0%,0%);stroke-opacity:1;stroke-miterlimit:4;" d="M 272.9375 141.666667 C 269.979167 169.208333 276.625 211.541667 293.604167 230.375 " transform="matrix(0.1875,0,0,0.1875,0,30)"/>
<path style="fill:none;stroke-width:1.15651;stroke-linecap:butt;stroke-linejoin:miter;stroke:rgb(0%,0%,0%);stroke-opacity:1;stroke-miterlimit:4;" d="M 264.020833 166.125 C 264.5 190.645833 270.8125 219.770833 283.270833 235.791667 " transform="matrix(0.1875,0,0,0.1875,0,30)"/>
<path style="fill:none;stroke-width:1.15651;stroke-linecap:butt;stroke-linejoin:miter;stroke:rgb(0%,0%,0%);stroke-opacity:1;stroke-miterlimit:4;" d="M 257.208333 192.854167 C 259.645833 211.416667 265.1875 230.0625 273.916667 242.1875 " transform="matrix(0.1875,0,0,0.1875,0,30)"/>
<path style="fill:none;stroke-width:1.15651;stroke-linecap:butt;stroke-linejoin:miter;stroke:rgb(0%,0%,0%);stroke-opacity:1;stroke-miterlimit:4;" d="M 252.916667 221.020833 C 255.875 232.020833 260.020833 242.145833 265.416667 249.729167 " transform="matrix(0.1875,0,0,0.1875,0,30)"/>
<path style="fill:none;stroke-width:1.15651;stroke-linecap:butt;stroke-linejoin:miter;stroke:rgb(0%,0%,0%);stroke-opacity:1;stroke-miterlimit:4;" d="M 251.395833 247.666667 C 253.0625 251.208333 255.020833 254.604167 257.291667 257.8125 " transform="matrix(0.1875,0,0,0.1875,0,30)"/>
<path style="fill:none;stroke-width:1.15651;stroke-linecap:butt;stroke-linejoin:miter;stroke:rgb(0%,0%,0%);stroke-opacity:1;stroke-miterlimit:4;" d="M 272.354167 158.8125 C 271.458333 167.520833 265.854167 174.270833 260.833333 178.208333 " transform="matrix(0.1875,0,0,0.1875,0,30)"/>
<path style="fill:none;stroke-width:1.15651;stroke-linecap:butt;stroke-linejoin:miter;stroke:rgb(0%,0%,0%);stroke-opacity:1;stroke-miterlimit:4;" d="M 272.9375 170.895833 C 272.0625 179.625 265.854167 187.5 257.729167 191.291667 " transform="matrix(0.1875,0,0,0.1875,0,30)"/>
<path style="fill:none;stroke-width:1.15651;stroke-linecap:butt;stroke-linejoin:miter;stroke:rgb(0%,0%,0%);stroke-opacity:1;stroke-miterlimit:4;" d="M 274.708333 183 C 273.833333 191.708333 264.958333 202.395833 254.9375 207.1875 " transform="matrix(0.1875,0,0,0.1875,0,30)"/>
<path style="fill:none;stroke-width:1.15651;stroke-linecap:butt;stroke-linejoin:miter;stroke:rgb(0%,0%,0%);stroke-opacity:1;stroke-miterlimit:4;" d="M 277.083333 195.083333 C 276.1875 203.8125 264.666667 217.020833 252.958333 221.270833 " transform="matrix(0.1875,0,0,0.1875,0,30)"/>
<path style="fill:none;stroke-width:1.15651;stroke-linecap:butt;stroke-linejoin:miter;stroke:rgb(0%,0%,0%);stroke-opacity:1;stroke-miterlimit:4;" d="M 280.770833 207.1875 C 277.375 219 263.791667 232.770833 251.833333 235.854167 " transform="matrix(0.1875,0,0,0.1875,0,30)"/>
<path style="fill:none;stroke-width:1.15651;stroke-linecap:butt;stroke-linejoin:miter;stroke:rgb(0%,0%,0%);stroke-opacity:1;stroke-miterlimit:4;" d="M 286.083333 219.270833 C 285.1875 227.979167 267.041667 245.708333 251.395833 250.770833 " transform="matrix(0.1875,0,0,0.1875,0,30)"/>
<path style="fill:none;stroke-width:1.15651;stroke-linecap:butt;stroke-linejoin:miter;stroke:rgb(0%,0%,0%);stroke-opacity:1;stroke-miterlimit:4;" d="M 177.729167 272.979167 C 179.645833 281 173.291667 288.3125 170.041667 286.333333 " transform="matrix(0.1875,0,0,0.1875,0,30)"/>
<path style="fill:none;stroke-width:1.15651;stroke-linecap:butt;stroke-linejoin:miter;stroke:rgb(0%,0%,0%);stroke-opacity:1;stroke-miterlimit:4;" d="M 211.520833 300.833333 C 180.833333 294.645833 158 284.333333 145.395833 260.333333 C 142.145833 254.145833 150.708333 252.458333 150.125 246.833333 " transform="matrix(0.1875,0,0,0.1875,0,30)"/>
<path style="fill:none;stroke-width:1.15651;stroke-linecap:butt;stroke-linejoin:miter;stroke:rgb(0%,0%,0%);stroke-opacity:1;stroke-miterlimit:4;" d="M 140.958333 213.375 C 135.645833 204.375 134.458333 194.520833 137.416667 188.333333 " transform="matrix(0.1875,0,0,0.1875,0,30)"/>
<path style="fill:none;stroke-width:1.15651;stroke-linecap:butt;stroke-linejoin:miter;stroke:rgb(0%,0%,0%);stroke-opacity:1;stroke-miterlimit:4;" d="M 162.229167 263.416667 C 162.229167 268.479167 155.875 274.958333 153.666667 272.5625 " transform="matrix(0.1875,0,0,0.1875,0,30)"/>
<path style="fill:none;stroke-width:1.15651;stroke-linecap:butt;stroke-linejoin:miter;stroke:rgb(0%,0%,0%);stroke-opacity:1;stroke-miterlimit:4;" d="M 213.291667 299.6875 C 209.770833 307.875 216.604167 323.520833 231.625 328.895833 " transform="matrix(0.1875,0,0,0.1875,0,30)"/>
<path style="fill:none;stroke-width:1.15651;stroke-linecap:butt;stroke-linejoin:miter;stroke:rgb(0%,0%,0%);stroke-opacity:1;stroke-miterlimit:4;" d="M 243.125 325.4375 C 241.354167 326.6875 240.0625 328.520833 239.479167 330.625 " transform="matrix(0.1875,0,0,0.1875,0,30)"/>
<path style="fill:none;stroke-width:1.15651;stroke-linecap:butt;stroke-linejoin:miter;stroke:rgb(0%,0%,0%);stroke-opacity:1;stroke-miterlimit:4;" d="M 255.229167 342.166667 C 252.5625 346.375 242.229167 343.291667 240.166667 339.625 " transform="matrix(0.1875,0,0,0.1875,0,30)"/>
<path style="fill:none;stroke-width:1.15651;stroke-linecap:butt;stroke-linejoin:miter;stroke:rgb(0%,0%,0%);stroke-opacity:1;stroke-miterlimit:4;" d="M 213.666667 388.270833 C 201.145833 400 188.395833 400.666667 173.145833 402.333333 C 157.791667 404.020833 153.520833 397.416667 148.0625 402.895833 " transform="matrix(0.1875,0,0,0.1875,0,30)"/>
<path style="fill:none;stroke-width:1.15651;stroke-linecap:butt;stroke-linejoin:miter;stroke:rgb(0%,0%,0%);stroke-opacity:1;stroke-miterlimit:4;" d="M 313.6875 300.25 C 315.458333 308.125 314.854167 316 307.770833 327.8125 C 303.875 334.333333 307.583333 341.375 308.25 349.770833 " transform="matrix(0.1875,0,0,0.1875,0,30)"/>
<path style="fill:none;stroke-width:1.15651;stroke-linecap:butt;stroke-linejoin:miter;stroke:rgb(0%,0%,0%);stroke-opacity:1;stroke-miterlimit:4;" d="M 381.666667 323.041667 C 388.4375 317.958333 392.895833 309.5625 395.166667 303.0625 " transform="matrix(0.1875,0,0,0.1875,0,30)"/>
<path style="fill:none;stroke-width:1.15651;stroke-linecap:butt;stroke-linejoin:miter;stroke:rgb(0%,0%,0%);stroke-opacity:1;stroke-miterlimit:4;" d="M 360.208333 326.104167 C 367.895833 316.083333 369.104167 302.5 363.291667 291.270833 " transform="matrix(0.1875,0,0,0.1875,0,30)"/>
<path style="fill:none;stroke-width:1.15651;stroke-linecap:butt;stroke-linejoin:miter;stroke:rgb(0%,0%,0%);stroke-opacity:1;stroke-miterlimit:4;" d="M 324.145833 338.395833 C 328.6875 331.729167 331.395833 322.208333 331.395833 309.8125 " transform="matrix(0.1875,0,0,0.1875,0,30)"/>
<path style="fill:none;stroke-width:1.15651;stroke-linecap:butt;stroke-linejoin:miter;stroke:rgb(0%,0%,0%);stroke-opacity:1;stroke-miterlimit:4;" d="M 232.5 356.5 C 233.666667 362.270833 242.833333 364.791667 244.3125 361.979167 " transform="matrix(0.1875,0,0,0.1875,0,30)"/>
<path style="fill:none;stroke-width:1.15651;stroke-linecap:butt;stroke-linejoin:miter;stroke:rgb(0%,0%,0%);stroke-opacity:1;stroke-miterlimit:4;" d="M 305.708333 288.729167 C 305.708333 294.354167 299.8125 298.583333 295.375 295.208333 C 295.958333 303.354167 289.770833 305.875 285.333333 301.958333 C 286.229167 313.479167 276.1875 314.604167 269.6875 305.604167 C 262.3125 340.1875 237.520833 366.0625 235.729167 382.9375 C 235.145833 386.875 219.354167 385.75 223.479167 374.229167 " transform="matrix(0.1875,0,0,0.1875,0,30)"/>
<path style="fill:none;stroke-width:1.15651;stroke-linecap:butt;stroke-linejoin:miter;stroke:rgb(0%,0%,0%);stroke-opacity:1;stroke-miterlimit:4;" d="M 412.895833 320.5 C 404.020833 319.458333 388.458333 316.854167 381.666667 323.041667 " transform="matrix(0.1875,0,0,0.1875,0,30)"/>
<path style="fill:none;stroke-width:1.15651;stroke-linecap:butt;stroke-linejoin:miter;stroke:rgb(0%,0%,0%);stroke-opacity:1;stroke-miterlimit:4;" d="M 416.4375 346.9375 C 408.25 350.041667 401.625 351.125 396.354167 350.75 " transform="matrix(0.1875,0,0,0.1875,0,30)"/>
<path style="fill:none;stroke-width:1.15651;stroke-linecap:butt;stroke-linejoin:miter;stroke:rgb(0%,0%,0%);stroke-opacity:1;stroke-miterlimit:4;" d="M 439.020833 370.541667 C 447.166667 370.25 455.583333 365.083333 458.9375 352.291667 " transform="matrix(0.1875,0,0,0.1875,0,30)"/>
<path style="fill:none;stroke-width:1.15651;stroke-linecap:butt;stroke-linejoin:miter;stroke:rgb(0%,0%,0%);stroke-opacity:1;stroke-miterlimit:4;" d="M 423.208333 364.0625 C 430.0625 362.4375 435.875 357.9375 439.166667 351.729167 " transform="matrix(0.1875,0,0,0.1875,0,30)"/>
<path style="fill:none;stroke-width:1.15651;stroke-linecap:butt;stroke-linejoin:miter;stroke:rgb(0%,0%,0%);stroke-opacity:1;stroke-miterlimit:4;" d="M 463.375 373.375 C 458.229167 371.833333 447.375 369.791667 439.020833 370.541667 " transform="matrix(0.1875,0,0,0.1875,0,30)"/>
<path style="fill:none;stroke-width:1.15651;stroke-linecap:butt;stroke-linejoin:miter;stroke:rgb(0%,0%,0%);stroke-opacity:1;stroke-miterlimit:4;" d="M 434.145833 392.208333 C 437.395833 390.520833 432.083333 382.9375 426.770833 382.9375 " transform="matrix(0.1875,0,0,0.1875,0,30)"/>
<path style="fill:none;stroke-width:1.15651;stroke-linecap:butt;stroke-linejoin:miter;stroke:rgb(0%,0%,0%);stroke-opacity:1;stroke-miterlimit:4;" d="M 372.145833 404.875 C 379.666667 401.791667 386.875 398.041667 393.6875 393.625 " transform="matrix(0.1875,0,0,0.1875,0,30)"/>
<path style="fill:none;stroke-width:1.15651;stroke-linecap:butt;stroke-linejoin:miter;stroke:rgb(0%,0%,0%);stroke-opacity:1;stroke-miterlimit:4;" d="M 414.520833 390.8125 C 418.520833 392.083333 424.395833 397 422.333333 398.6875 " transform="matrix(0.1875,0,0,0.1875,0,30)"/>
<path style="fill:none;stroke-width:1.15651;stroke-linecap:butt;stroke-linejoin:miter;stroke:rgb(0%,0%,0%);stroke-opacity:1;stroke-miterlimit:4;" d="M 452.458333 285.645833 C 457.166667 293.520833 466.020833 298.583333 477.833333 293.520833 C 478.666667 295.875 481.479167 298.3125 484.979167 300.270833 " transform="matrix(0.1875,0,0,0.1875,0,30)"/>
<path style="fill:none;stroke-width:1.15651;stroke-linecap:butt;stroke-linejoin:miter;stroke:rgb(0%,0%,0%);stroke-opacity:1;stroke-miterlimit:4;" d="M 517.708333 283.666667 C 523.604167 288.166667 513.270833 304.75 497.916667 304.1875 " transform="matrix(0.1875,0,0,0.1875,0,30)"/>
<path style="fill:none;stroke-width:1.15651;stroke-linecap:butt;stroke-linejoin:miter;stroke:rgb(0%,0%,0%);stroke-opacity:1;stroke-miterlimit:4;" d="M 600.375 385.1875 C 602.416667 389.875 610.104167 389.395833 613.0625 385.1875 C 616.4375 380.375 622.520833 365.5 618.979167 335.6875 C 615.416667 305.875 585.3125 301.958333 550.479167 295.208333 C 515.625 288.458333 506.770833 277.770833 499.6875 258.083333 " transform="matrix(0.1875,0,0,0.1875,0,30)"/>
<path style="fill:none;stroke-width:1.15651;stroke-linecap:butt;stroke-linejoin:miter;stroke:rgb(0%,0%,0%);stroke-opacity:1;stroke-miterlimit:4;" d="M 606.270833 369.729167 C 609.229167 374.5 617.5 373.375 618.666667 368.604167 " transform="matrix(0.1875,0,0,0.1875,0,30)"/>
<path style="fill:none;stroke-width:1.15651;stroke-linecap:butt;stroke-linejoin:miter;stroke:rgb(0%,0%,0%);stroke-opacity:1;stroke-miterlimit:4;" d="M 607.166667 353.6875 C 611.583333 356.229167 620.145833 355.375 619.854167 349.75 " transform="matrix(0.1875,0,0,0.1875,0,30)"/>
<path style="fill:none;stroke-width:1.15651;stroke-linecap:butt;stroke-linejoin:miter;stroke:rgb(0%,0%,0%);stroke-opacity:1;stroke-miterlimit:4;" d="M 604.791667 335.979167 C 608.625 335.979167 618.979167 336.541667 618.375 332.041667 " transform="matrix(0.1875,0,0,0.1875,0,30)"/>
<path style="fill:none;stroke-width:1.15651;stroke-linecap:butt;stroke-linejoin:miter;stroke:rgb(0%,0%,0%);stroke-opacity:1;stroke-miterlimit:4;" d="M 595.0625 324.4375 C 598.291667 322.1875 607.458333 312.625 602.4375 309.8125 " transform="matrix(0.1875,0,0,0.1875,0,30)"/>
<path style="fill:none;stroke-width:1.15651;stroke-linecap:butt;stroke-linejoin:miter;stroke:rgb(0%,0%,0%);stroke-opacity:1;stroke-miterlimit:4;" d="M 578.520833 322.75 C 584.125 319.666667 590.333333 303.625 583.541667 302.229167 " transform="matrix(0.1875,0,0,0.1875,0,30)"/>
<path style="fill:none;stroke-width:1.15651;stroke-linecap:butt;stroke-linejoin:miter;stroke:rgb(0%,0%,0%);stroke-opacity:1;stroke-miterlimit:4;" d="M 551.645833 319.666667 C 560.5 316.291667 568.770833 298.854167 562.875 297.729167 " transform="matrix(0.1875,0,0,0.1875,0,30)"/>
<path style="fill:none;stroke-width:1.15651;stroke-linecap:butt;stroke-linejoin:miter;stroke:rgb(0%,0%,0%);stroke-opacity:1;stroke-miterlimit:4;" d="M 523.020833 315.729167 C 537.479167 312.0625 541.916667 293.520833 536.291667 291.833333 " transform="matrix(0.1875,0,0,0.1875,0,30)"/>
<path style="fill:none;stroke-width:1.15651;stroke-linecap:butt;stroke-linejoin:miter;stroke:rgb(0%,0%,0%);stroke-opacity:1;stroke-miterlimit:4;" d="M 542.791667 398.958333 C 557.854167 400.104167 566.125 407.6875 572.020833 410.770833 " transform="matrix(0.1875,0,0,0.1875,0,30)"/>
<path style="fill:none;stroke-width:1.15651;stroke-linecap:butt;stroke-linejoin:miter;stroke:rgb(0%,0%,0%);stroke-opacity:1;stroke-miterlimit:4;" d="M 539.25 246.270833 C 552.979167 245 566.479167 265 585.1875 279.9375 " transform="matrix(0.1875,0,0,0.1875,0,30)"/>
<path style="fill:none;stroke-width:1.15651;stroke-linecap:butt;stroke-linejoin:miter;stroke:rgb(0%,0%,0%);stroke-opacity:1;stroke-miterlimit:4;" d="M 690.625 157.6875 C 693.208333 148.979167 695.375 140.791667 696.333333 136.041667 " transform="matrix(0.1875,0,0,0.1875,0,30)"/>
<path style="fill:none;stroke-width:1.15651;stroke-linecap:butt;stroke-linejoin:miter;stroke:rgb(0%,0%,0%);stroke-opacity:1;stroke-miterlimit:4;" d="M 551.333333 415.791667 C 554.854167 415.229167 558.416667 414.958333 561.979167 415 " transform="matrix(0.1875,0,0,0.1875,0,30)"/>
<path style="fill:none;stroke-width:1.15651;stroke-linecap:butt;stroke-linejoin:miter;stroke:rgb(0%,0%,0%);stroke-opacity:1;stroke-miterlimit:4;" d="M 685.104167 129.291667 C 683.104167 134.666667 678.8125 145.625 674.541667 156.145833 " transform="matrix(0.1875,0,0,0.1875,0,30)"/>
<path style="fill:none;stroke-width:1.15651;stroke-linecap:butt;stroke-linejoin:miter;stroke:rgb(0%,0%,0%);stroke-opacity:1;stroke-miterlimit:4;" d="M 313.729167 221.895833 C 287.6875 230.458333 260.708333 246.875 243.416667 277.208333 C 252.854167 279.458333 271.166667 277.208333 279.4375 274.395833 C 280.020833 281.708333 280.020833 291.270833 280.020833 297.458333 C 288.291667 291.270833 298.333333 282.270833 306 280.020833 C 305.416667 287.333333 305.416667 300.25 305.416667 305.333333 C 316.645833 294.083333 337.895833 292.958333 343.791667 309.8125 C 348.520833 285.083333 387.5 283.958333 396.9375 305.333333 C 407.583333 285.645833 434.729167 278.333333 452.458333 285.645833 C 460.125 264.833333 493.791667 253.583333 515.625 258.645833 C 508.395833 249.104167 509.6875 238.5625 515.625 229.5 " transform="matrix(0.1875,0,0,0.1875,0,30)"/>
<path style="fill-rule:nonzero;fill:rgb(0%,0%,0%);fill-opacity:1;stroke-width:1.69161;stroke-linecap:butt;stroke-linejoin:round;stroke:rgb(0%,0%,0%);stroke-opacity:1;stroke-miterlimit:4;" d="M 230.229167 85.395833 L 241.8125 87.4375 C 241.8125 87.4375 233.666667 97.833333 230.229167 85.395833 Z M 230.229167 85.395833 " transform="matrix(0.1875,0,0,0.1875,0,30)"/>
</g>
</svg>
