<?xml version="1.0" encoding="UTF-8"?>
<svg xmlns="http://www.w3.org/2000/svg" xmlns:xlink="http://www.w3.org/1999/xlink" width="150px" height="150px" viewBox="0 0 150 91" version="1.1">
<g id="surface1">
<path style=" stroke:none;fill-rule:evenodd;fill:rgb(85.882354%,4.705882%,10.588235%);fill-opacity:1;" d="M 58.054688 26.605469 L 57.835938 26.78125 L 57.835938 40.484375 C 57.835938 53.273438 57.847656 54.214844 57.996094 54.597656 C 58.085938 54.824219 58.15625 55.089844 58.15625 55.1875 C 58.160156 55.289062 58.242188 55.585938 58.347656 55.847656 C 58.449219 56.113281 58.625 56.5625 58.738281 56.851562 C 59.183594 58.015625 59.898438 59.195312 60.921875 60.476562 C 61.429688 61.113281 61.375 61.210938 60.832031 60.636719 C 59.960938 59.714844 58.894531 57.886719 58.367188 56.421875 C 57.589844 54.253906 57.613281 54.691406 57.605469 42.445312 C 57.597656 31.84375 57.59375 31.613281 57.417969 31.441406 C 57.191406 31.21875 2.136719 31.15625 1.953125 31.378906 C 1.785156 31.585938 1.761719 88.398438 1.933594 88.507812 C 2.152344 88.644531 147.355469 88.625 147.496094 88.488281 C 147.6875 88.296875 147.652344 31.597656 147.460938 31.40625 C 147.253906 31.199219 92.257812 31.1875 91.972656 31.394531 C 91.796875 31.519531 91.792969 31.765625 91.75 42.601562 C 91.71875 49.800781 91.671875 53.707031 91.609375 53.769531 C 91.550781 53.828125 91.519531 49.347656 91.515625 40.320312 L 91.515625 26.777344 L 91.300781 26.605469 C 90.960938 26.332031 58.394531 26.335938 58.054688 26.605469 M 91.253906 26.75 C 91.445312 27.011719 91.402344 53.976562 91.210938 54.3125 C 91.140625 54.433594 91.050781 54.738281 91.011719 54.996094 C 90.972656 55.253906 90.886719 55.605469 90.824219 55.78125 C 90.429688 56.855469 90.285156 57.1875 89.890625 57.953125 C 88.089844 61.421875 84.570312 64.265625 80.523438 65.519531 C 79.0625 65.96875 78.628906 66.082031 78.351562 66.082031 C 78.203125 66.082031 77.878906 66.144531 77.632812 66.21875 C 76.976562 66.417969 72.378906 66.417969 71.726562 66.21875 C 71.476562 66.144531 71.152344 66.082031 71.003906 66.082031 C 69.34375 66.078125 65.367188 64.230469 63.109375 62.421875 C 60.929688 60.671875 58.351562 56.699219 58.34375 55.085938 C 58.34375 54.980469 58.269531 54.734375 58.183594 54.539062 C 58.023438 54.191406 57.863281 27.4375 58.015625 26.828125 C 58.089844 26.535156 57.238281 26.546875 74.800781 26.558594 C 90.960938 26.570312 91.121094 26.570312 91.253906 26.75 M 72.570312 28.027344 C 72.367188 28.164062 72.101562 28.257812 71.910156 28.257812 C 70.984375 28.257812 70.304688 29.023438 70.308594 30.070312 C 70.308594 31.007812 70.363281 31.070312 70.878906 30.773438 C 71.371094 30.488281 71.667969 30.472656 72.148438 30.71875 C 72.546875 30.917969 72.734375 31.308594 72.503906 31.453125 C 72.269531 31.601562 70.054688 31.554688 69.742188 31.394531 C 69.4375 31.238281 69.203125 31.273438 69.203125 31.476562 C 69.203125 31.660156 70.898438 33.148438 71.386719 33.394531 C 71.765625 33.585938 71.839844 33.875 71.652344 34.421875 C 71.570312 34.65625 71.503906 35.105469 71.503906 35.417969 C 71.503906 36.175781 71.449219 36.210938 70.175781 36.257812 C 68.949219 36.304688 68.835938 36.261719 68.515625 35.625 C 68.382812 35.371094 68.09375 34.886719 67.867188 34.550781 C 67.367188 33.8125 67.367188 33.84375 67.828125 33.402344 C 68.515625 32.742188 68.632812 32.277344 68.210938 31.878906 C 67.894531 31.574219 66.679688 31.015625 66.097656 30.902344 C 65.855469 30.851562 65.515625 30.773438 65.339844 30.71875 C 64.679688 30.527344 63.871094 30.753906 63.1875 31.324219 C 62.84375 31.613281 61.8125 32.085938 61.53125 32.085938 C 61 32.085938 60.921875 32.269531 60.917969 33.523438 C 60.917969 34.160156 60.875 35.257812 60.824219 35.957031 C 60.773438 36.660156 60.691406 37.929688 60.640625 38.785156 C 60.59375 39.636719 60.515625 40.519531 60.464844 40.742188 C 60.417969 40.96875 60.375 41.355469 60.371094 41.601562 C 60.371094 41.851562 60.308594 42.300781 60.238281 42.605469 C 59.945312 43.875 59.785156 45.253906 59.902344 45.472656 C 60.144531 45.917969 61.765625 45.097656 61.941406 44.445312 C 61.996094 44.238281 62.097656 43.871094 62.171875 43.625 C 62.242188 43.382812 62.300781 42.972656 62.300781 42.714844 C 62.300781 42.457031 62.363281 42.046875 62.441406 41.800781 C 62.515625 41.554688 62.578125 41.15625 62.578125 40.914062 C 62.578125 40.289062 62.859375 39.09375 63.019531 39.035156 C 63.515625 38.84375 63.625 40.960938 63.210938 42.714844 C 63.117188 43.125 63.035156 43.675781 63.035156 43.945312 C 63.035156 44.214844 62.972656 44.636719 62.898438 44.882812 C 62.820312 45.128906 62.761719 45.539062 62.757812 45.792969 C 62.757812 46.050781 62.695312 46.460938 62.621094 46.707031 C 62.546875 46.949219 62.484375 47.34375 62.484375 47.574219 C 62.484375 47.808594 62.421875 48.238281 62.34375 48.53125 C 62.265625 48.828125 62.164062 49.398438 62.113281 49.804688 C 62.066406 50.210938 61.976562 50.753906 61.917969 51.015625 C 61.78125 51.59375 61.902344 51.953125 62.230469 51.953125 C 62.410156 51.953125 63.800781 51.3125 63.972656 51.148438 C 64.066406 51.058594 64.417969 49.335938 64.417969 48.953125 C 64.417969 48.773438 64.480469 48.402344 64.554688 48.125 C 64.628906 47.851562 64.691406 47.480469 64.691406 47.304688 C 64.691406 47.128906 64.753906 46.660156 64.828125 46.257812 C 65.011719 45.246094 65.15625 44.292969 65.25 43.433594 C 65.535156 40.859375 65.574219 40.652344 65.789062 40.652344 C 66.113281 40.652344 66.1875 41.957031 65.941406 43.386719 C 65.867188 43.8125 65.757812 44.550781 65.699219 45.027344 C 65.601562 45.824219 65.546875 46.226562 65.246094 48.355469 C 65.1875 48.753906 65.078125 49.535156 65 50.085938 C 64.746094 51.902344 64.839844 52.042969 65.960938 51.53125 C 66.574219 51.25 66.734375 51.136719 66.769531 50.953125 C 66.796875 50.828125 66.878906 50.515625 66.949219 50.261719 C 67.023438 50.003906 67.085938 49.5625 67.085938 49.273438 C 67.085938 48.984375 67.144531 48.496094 67.21875 48.1875 C 67.292969 47.878906 67.398438 47.234375 67.449219 46.757812 C 67.605469 45.363281 67.722656 44.40625 67.871094 43.386719 C 67.945312 42.859375 68.019531 42.25 68.03125 42.027344 C 68.054688 41.566406 68.265625 41.359375 68.535156 41.527344 C 68.757812 41.667969 68.800781 43.140625 68.609375 44.242188 C 68.53125 44.691406 68.46875 45.246094 68.46875 45.476562 C 68.46875 45.707031 68.398438 46.394531 68.316406 47.007812 C 68.09375 48.597656 68.300781 48.898438 69.25 48.375 C 69.828125 48.054688 70.015625 47.578125 70.125 46.160156 C 70.175781 45.511719 70.253906 44.695312 70.304688 44.34375 C 70.351562 43.992188 70.394531 43.460938 70.398438 43.160156 C 70.402344 42.535156 70.484375 42.351562 70.730469 42.398438 C 70.894531 42.429688 70.902344 42.53125 70.871094 44.320312 C 70.824219 46.65625 70.898438 46.789062 71.964844 46.273438 L 72.378906 46.074219 L 72.449219 45.347656 C 72.554688 44.289062 72.789062 44.328125 73.027344 45.445312 C 73.21875 46.347656 73.210938 46.367188 72.632812 46.882812 C 72.34375 47.140625 71.773438 47.660156 71.367188 48.042969 C 70.425781 48.921875 70.027344 49.179688 69.140625 49.480469 C 68.308594 49.757812 68.238281 49.878906 68.644531 50.339844 C 69.035156 50.777344 69.054688 50.734375 67.8125 51.996094 C 65.824219 54.023438 65.515625 54.171875 64.539062 53.578125 C 62.949219 52.609375 61.367188 52.859375 60.875 54.160156 C 60.566406 54.980469 60.859375 55.273438 61.539062 54.820312 C 61.910156 54.570312 61.964844 54.570312 62.847656 54.820312 C 63.699219 55.0625 63.699219 55.164062 62.832031 55.511719 C 61.730469 55.953125 61.355469 56.679688 61.75 57.59375 C 62.171875 58.554688 62.851562 58.730469 62.851562 57.871094 C 62.851562 57.578125 63.132812 57.242188 63.382812 57.238281 C 63.644531 57.234375 63.863281 57.015625 64.222656 56.402344 C 64.6875 55.609375 64.820312 55.640625 64.878906 56.558594 C 64.96875 57.972656 66 58.820312 66.820312 58.160156 L 67.039062 57.988281 L 66.820312 57.605469 C 66.648438 57.296875 66.613281 57.140625 66.65625 56.800781 C 66.699219 56.464844 66.65625 56.25 66.464844 55.796875 C 66.242188 55.261719 66.234375 55.195312 66.359375 54.976562 C 66.671875 54.421875 67.402344 54.386719 67.570312 54.917969 C 67.621094 55.066406 67.78125 55.34375 67.925781 55.53125 C 68.074219 55.71875 68.300781 56.074219 68.429688 56.328125 C 68.679688 56.828125 68.679688 56.824219 68.925781 56.695312 C 69.640625 56.316406 69.617188 54.902344 68.875 54.027344 C 68.542969 53.636719 68.585938 53.519531 69.332031 52.78125 C 70.054688 52.074219 70.238281 52.015625 70.335938 52.46875 C 70.527344 53.320312 70.914062 53.277344 71.460938 52.347656 C 72.355469 50.820312 73.179688 50.511719 72.851562 51.828125 C 72.777344 52.125 72.691406 52.480469 72.660156 52.621094 C 72.625 52.765625 72.332031 53.164062 72.003906 53.507812 C 71.15625 54.402344 71.21875 54.601562 72.453125 54.976562 C 72.921875 55.117188 73.066406 55.199219 73.027344 55.300781 C 73 55.371094 72.976562 55.445312 72.976562 55.464844 C 72.976562 55.734375 71.402344 56.238281 70.566406 56.238281 C 69.800781 56.238281 69.664062 56.324219 69.664062 56.792969 C 69.664062 56.910156 69.496094 57.144531 69.261719 57.367188 C 68.511719 58.070312 68.394531 58.890625 68.953125 59.496094 C 69.191406 59.757812 69.351562 59.757812 69.488281 59.496094 C 69.839844 58.820312 70.3125 58.6875 70.53125 59.203125 C 70.796875 59.828125 71.683594 59.605469 73.183594 58.539062 C 74.121094 57.871094 74.136719 58.515625 73.210938 59.515625 C 72.5625 60.214844 72.675781 60.796875 73.460938 60.796875 C 73.679688 60.796875 73.894531 61.054688 73.894531 61.320312 C 73.894531 61.449219 74.015625 61.765625 74.160156 62.019531 C 74.304688 62.273438 74.453125 62.613281 74.488281 62.777344 C 74.679688 63.636719 75.421875 62.746094 75.523438 61.539062 L 75.578125 60.910156 L 76.066406 60.710938 C 76.757812 60.425781 76.777344 60.269531 76.1875 59.632812 C 75.160156 58.515625 75.234375 57.882812 76.304688 58.632812 C 77.710938 59.613281 78.636719 59.839844 78.816406 59.246094 C 78.984375 58.707031 79.253906 58.710938 79.726562 59.257812 C 80.222656 59.832031 80.613281 59.628906 80.683594 58.757812 C 80.738281 58.148438 80.539062 57.703125 80.046875 57.308594 C 79.765625 57.085938 79.691406 56.964844 79.691406 56.726562 C 79.691406 56.332031 79.5 56.238281 78.707031 56.238281 C 77.632812 56.238281 76.289062 55.65625 76.289062 55.191406 C 76.289062 55.175781 76.570312 55.078125 76.914062 54.972656 C 78.085938 54.621094 78.171875 54.3125 77.316406 53.480469 C 76.769531 52.949219 76.6875 52.777344 76.433594 51.574219 C 76.230469 50.621094 77 50.941406 77.726562 52.117188 C 78.464844 53.308594 78.585938 53.375 78.871094 52.742188 C 79.191406 52.019531 79.25 52.019531 80.019531 52.78125 C 80.71875 53.46875 80.84375 53.734375 80.5625 53.964844 C 80.105469 54.339844 79.824219 55.195312 79.933594 55.882812 C 80.039062 56.527344 80.699219 56.964844 80.851562 56.488281 C 80.886719 56.375 81.078125 56.046875 81.277344 55.753906 C 81.476562 55.464844 81.699219 55.085938 81.769531 54.914062 C 81.925781 54.542969 82.230469 54.433594 82.605469 54.613281 C 82.992188 54.796875 83.082031 55.15625 82.875 55.675781 C 82.773438 55.929688 82.695312 56.371094 82.683594 56.757812 C 82.671875 57.1875 82.613281 57.496094 82.511719 57.644531 C 82.304688 57.960938 82.324219 58.105469 82.597656 58.230469 C 83.546875 58.660156 84.386719 57.894531 84.476562 56.511719 C 84.539062 55.632812 84.664062 55.625 85.164062 56.464844 C 85.484375 57.003906 85.601562 57.125 85.902344 57.222656 C 86.398438 57.382812 86.503906 57.488281 86.503906 57.828125 C 86.503906 58.644531 87.101562 58.566406 87.53125 57.695312 C 87.867188 57.015625 87.859375 56.707031 87.492188 56.230469 C 87.167969 55.8125 87.164062 55.808594 86.386719 55.460938 C 85.636719 55.121094 85.65625 55.085938 86.789062 54.734375 C 87.367188 54.558594 87.570312 54.59375 87.988281 54.941406 C 88.371094 55.261719 88.570312 55.050781 88.488281 54.421875 C 88.402344 53.769531 88.179688 53.492188 87.511719 53.207031 C 86.542969 52.792969 86.152344 52.863281 84.429688 53.765625 C 83.804688 54.09375 83.566406 53.964844 82.003906 52.457031 C 80.328125 50.832031 80.304688 50.796875 80.699219 50.351562 C 80.867188 50.164062 80.972656 49.960938 80.941406 49.886719 C 80.914062 49.8125 80.890625 49.734375 80.890625 49.714844 C 80.890625 49.695312 80.601562 49.59375 80.246094 49.488281 C 79.355469 49.21875 78.699219 48.773438 77.378906 47.527344 C 76.101562 46.324219 76.101562 46.316406 76.335938 45.324219 C 76.605469 44.199219 76.835938 44.195312 76.921875 45.320312 L 76.976562 46.074219 L 77.347656 46.246094 C 78.585938 46.824219 78.628906 46.683594 78.351562 43.191406 C 78.296875 42.527344 78.304688 42.492188 78.496094 42.429688 C 78.878906 42.308594 78.964844 42.53125 79.015625 43.761719 C 79.039062 44.382812 79.121094 45.269531 79.191406 45.734375 C 79.265625 46.195312 79.324219 46.792969 79.324219 47.0625 C 79.324219 47.65625 79.574219 48.074219 80.109375 48.375 C 81.023438 48.886719 81.246094 48.59375 81.035156 47.179688 C 80.957031 46.644531 80.890625 45.984375 80.890625 45.710938 C 80.890625 45.441406 80.824219 44.816406 80.746094 44.324219 C 80.558594 43.132812 80.597656 41.667969 80.820312 41.527344 C 81.175781 41.308594 81.296875 41.550781 81.410156 42.710938 C 81.46875 43.308594 81.5625 44.042969 81.617188 44.34375 C 81.671875 44.644531 81.71875 45.09375 81.71875 45.347656 C 81.722656 45.597656 81.785156 46.046875 81.859375 46.347656 C 81.929688 46.648438 81.992188 47.144531 81.992188 47.449219 C 81.992188 47.757812 82.054688 48.207031 82.132812 48.453125 C 82.207031 48.699219 82.269531 49.128906 82.269531 49.40625 C 82.269531 50.425781 82.542969 51.117188 83.039062 51.367188 C 84.261719 51.984375 84.546875 51.9375 84.449219 51.125 C 84.417969 50.855469 84.328125 50.097656 84.25 49.449219 C 84.175781 48.796875 84.070312 48.097656 84.023438 47.898438 C 83.972656 47.699219 83.929688 47.328125 83.925781 47.078125 C 83.925781 46.828125 83.863281 46.398438 83.789062 46.121094 C 83.714844 45.84375 83.652344 45.378906 83.652344 45.085938 C 83.652344 44.792969 83.59375 44.320312 83.523438 44.039062 C 83.3125 43.210938 83.238281 40.800781 83.417969 40.65625 C 83.671875 40.445312 83.808594 40.691406 83.859375 41.449219 C 83.910156 42.160156 84.039062 43.207031 84.210938 44.296875 C 84.261719 44.625 84.34375 45.25 84.390625 45.691406 C 84.433594 46.132812 84.5 46.535156 84.53125 46.585938 C 84.558594 46.632812 84.640625 47.074219 84.710938 47.558594 C 84.964844 49.355469 85.042969 49.828125 85.179688 50.472656 L 85.320312 51.128906 L 86.023438 51.511719 C 87.296875 52.210938 87.765625 51.992188 87.382812 50.882812 C 87.304688 50.652344 87.238281 50.234375 87.238281 49.957031 C 87.238281 49.675781 87.175781 49.246094 87.101562 49 C 87.023438 48.753906 86.960938 48.363281 86.960938 48.132812 C 86.960938 47.902344 86.878906 47.410156 86.777344 47.039062 C 86.675781 46.664062 86.59375 46.152344 86.59375 45.898438 C 86.59375 45.644531 86.53125 45.234375 86.457031 44.988281 C 86.378906 44.742188 86.320312 44.308594 86.320312 44.023438 C 86.320312 43.738281 86.257812 43.304688 86.183594 43.058594 C 86.105469 42.8125 86.042969 42.367188 86.042969 42.070312 C 86.042969 41.769531 85.976562 41.125 85.894531 40.636719 C 85.730469 39.660156 85.792969 39.285156 86.15625 39.089844 C 86.453125 38.933594 86.589844 39.363281 86.785156 41.0625 C 86.835938 41.511719 86.941406 42.085938 87.011719 42.332031 C 87.085938 42.578125 87.148438 42.976562 87.148438 43.21875 C 87.148438 44.226562 87.453125 44.785156 88.261719 45.25 C 89.046875 45.703125 89.183594 45.734375 89.359375 45.527344 C 89.496094 45.359375 89.417969 44.015625 89.222656 43.160156 C 89.152344 42.859375 89.046875 42.207031 88.992188 41.710938 C 88.9375 41.214844 88.871094 40.773438 88.84375 40.730469 C 88.8125 40.6875 88.753906 39.984375 88.707031 39.167969 C 88.660156 38.355469 88.582031 37.136719 88.53125 36.460938 C 88.484375 35.78125 88.441406 34.585938 88.441406 33.796875 C 88.433594 32.238281 88.378906 32.085938 87.820312 32.085938 C 87.511719 32.085938 86.71875 31.710938 86.019531 31.238281 C 85.175781 30.664062 84.792969 30.558594 84.125 30.707031 C 83.839844 30.773438 83.429688 30.859375 83.214844 30.90625 C 82.996094 30.949219 82.5 31.132812 82.109375 31.3125 C 80.714844 31.949219 80.5625 32.363281 81.394531 33.253906 C 82.007812 33.910156 82.007812 33.785156 81.40625 34.675781 C 81.132812 35.078125 80.84375 35.5625 80.769531 35.746094 C 80.5625 36.238281 80.375 36.300781 79.1875 36.261719 C 77.902344 36.222656 77.851562 36.191406 77.851562 35.378906 C 77.851562 34.40625 77.59375 32.695312 77.199219 31.027344 C 77.09375 30.578125 77.097656 30.546875 77.332031 30.242188 C 77.683594 29.785156 77.613281 29.441406 77.167969 29.441406 C 77.066406 29.441406 76.296875 29.117188 75.460938 28.722656 C 74.253906 28.148438 73.296875 27.800781 72.9375 27.800781 C 72.921875 27.800781 72.757812 27.902344 72.570312 28.027344 M 75.34375 28.796875 C 76.191406 29.199219 76.972656 29.53125 77.078125 29.53125 C 77.503906 29.53125 77.570312 29.78125 77.242188 30.167969 C 76.976562 30.480469 76.976562 30.574219 77.25 31.71875 C 77.425781 32.46875 77.757812 35.074219 77.761719 35.710938 C 77.761719 36.324219 77.863281 36.367188 79.3125 36.367188 C 80.570312 36.367188 80.546875 36.378906 81.027344 35.503906 C 81.222656 35.152344 81.519531 34.683594 81.6875 34.464844 C 82.097656 33.929688 82.078125 33.816406 81.488281 33.179688 C 80.894531 32.539062 80.847656 32.292969 81.257812 31.929688 C 81.867188 31.398438 83.617188 30.808594 84.597656 30.808594 C 85.105469 30.808594 85.355469 30.910156 86.15625 31.457031 C 86.707031 31.832031 87.402344 32.136719 87.90625 32.21875 C 88.34375 32.289062 88.324219 32.183594 88.375 34.910156 C 88.398438 36.136719 88.464844 37.65625 88.523438 38.28125 C 88.777344 41.101562 88.941406 42.46875 89.125 43.339844 C 89.363281 44.445312 89.351562 45.429688 89.105469 45.464844 C 88.253906 45.585938 87.242188 44.332031 87.238281 43.148438 C 87.238281 42.953125 87.179688 42.546875 87.109375 42.246094 C 87.039062 41.945312 86.953125 41.414062 86.917969 41.0625 C 86.882812 40.710938 86.796875 40.191406 86.726562 39.910156 C 86.652344 39.625 86.59375 39.289062 86.59375 39.15625 C 86.59375 38.761719 86.332031 38.753906 85.984375 39.132812 C 85.621094 39.519531 85.601562 39.742188 85.8125 40.925781 C 85.886719 41.351562 85.949219 41.929688 85.949219 42.210938 C 85.949219 42.492188 86.011719 42.921875 86.089844 43.167969 C 86.164062 43.414062 86.226562 43.839844 86.226562 44.117188 C 86.226562 44.390625 86.269531 44.761719 86.324219 44.9375 C 86.378906 45.113281 86.457031 45.636719 86.503906 46.101562 C 86.550781 46.566406 86.636719 47.03125 86.691406 47.132812 C 86.75 47.238281 86.816406 47.636719 86.84375 48.019531 C 86.867188 48.40625 86.949219 48.921875 87.019531 49.167969 C 87.089844 49.414062 87.148438 49.824219 87.148438 50.074219 C 87.148438 50.324219 87.214844 50.769531 87.300781 51.066406 C 87.5625 51.996094 87.277344 52.074219 86.074219 51.410156 L 85.417969 51.046875 L 85.28125 50.382812 C 85.207031 50.019531 85.09375 49.371094 85.03125 48.945312 C 84.925781 48.214844 84.824219 47.53125 84.574219 45.9375 C 84.515625 45.5625 84.40625 44.925781 84.335938 44.527344 C 84.261719 44.125 84.203125 43.632812 84.203125 43.433594 C 84.203125 43.230469 84.140625 42.71875 84.066406 42.292969 C 83.988281 41.867188 83.925781 41.347656 83.925781 41.136719 C 83.925781 40.492188 83.601562 40.226562 83.277344 40.609375 C 83.121094 40.796875 83.226562 43.441406 83.421875 44.175781 C 83.496094 44.464844 83.558594 44.929688 83.558594 45.207031 C 83.558594 45.484375 83.621094 45.9375 83.695312 46.210938 C 83.769531 46.488281 83.832031 46.898438 83.832031 47.125 C 83.832031 47.347656 83.894531 47.882812 83.972656 48.308594 C 84.152344 49.335938 84.367188 51.320312 84.3125 51.523438 C 84.257812 51.742188 84.117188 51.722656 83.382812 51.398438 C 82.621094 51.0625 82.488281 50.789062 82.367188 49.316406 C 82.328125 48.835938 82.246094 48.328125 82.191406 48.1875 C 82.132812 48.046875 82.085938 47.679688 82.085938 47.371094 C 82.085938 47.0625 82.027344 46.5 81.953125 46.121094 C 81.878906 45.746094 81.769531 44.984375 81.710938 44.433594 C 81.355469 41.199219 81.398438 41.382812 80.988281 41.382812 C 80.535156 41.382812 80.472656 41.5625 80.503906 42.785156 C 80.523438 43.390625 80.574219 44.09375 80.625 44.34375 C 80.671875 44.59375 80.753906 45.292969 80.800781 45.894531 C 80.851562 46.496094 80.917969 47.273438 80.949219 47.628906 C 81.023438 48.484375 80.914062 48.585938 80.242188 48.296875 C 79.671875 48.054688 79.421875 47.628906 79.417969 46.894531 C 79.414062 46.644531 79.371094 46.171875 79.324219 45.847656 C 79.273438 45.523438 79.195312 44.648438 79.144531 43.902344 C 79.054688 42.453125 78.996094 42.292969 78.574219 42.292969 C 78.148438 42.292969 78.085938 42.59375 78.265625 43.84375 C 78.589844 46.109375 78.429688 46.621094 77.519531 46.191406 L 77.070312 45.980469 L 77.015625 45.136719 C 76.960938 44.28125 76.828125 43.9375 76.652344 44.207031 C 76.421875 44.5625 76.164062 45.402344 76.125 45.910156 L 76.082031 46.476562 L 76.574219 46.914062 C 76.84375 47.152344 77.417969 47.679688 77.851562 48.082031 C 78.773438 48.945312 79.386719 49.347656 80.070312 49.550781 C 80.605469 49.707031 80.796875 49.820312 80.796875 49.984375 C 80.792969 50.179688 79.976562 50.953125 79.773438 50.953125 C 79.507812 50.953125 79.234375 51.203125 79.234375 51.445312 C 79.234375 51.742188 78.664062 52.957031 78.523438 52.957031 C 78.453125 52.957031 78.246094 52.707031 78.058594 52.398438 C 77.109375 50.855469 76.164062 50.410156 76.332031 51.582031 C 76.46875 52.566406 76.648438 52.964844 77.214844 53.550781 C 78.011719 54.371094 77.820312 54.769531 76.542969 54.941406 C 75.261719 55.109375 77.109375 56.328125 78.644531 56.328125 C 79.382812 56.328125 79.601562 56.449219 79.601562 56.847656 C 79.601562 57.011719 79.726562 57.191406 80.011719 57.441406 C 80.644531 57.988281 80.800781 58.917969 80.34375 59.375 L 80.15625 59.554688 L 79.742188 59.128906 C 79.175781 58.542969 78.917969 58.5625 78.710938 59.199219 C 78.550781 59.6875 77.398438 59.335938 76.199219 58.433594 C 75.140625 57.636719 75.042969 58.566406 76.070312 59.695312 C 76.585938 60.261719 76.574219 60.351562 75.988281 60.621094 L 75.507812 60.839844 L 75.4375 61.460938 C 75.324219 62.46875 74.828125 63.25 74.625 62.742188 C 74.566406 62.597656 74.457031 62.367188 74.382812 62.226562 C 74.308594 62.089844 74.191406 61.863281 74.117188 61.726562 C 74.046875 61.589844 73.988281 61.375 73.988281 61.25 C 73.984375 60.917969 73.894531 60.828125 73.386719 60.640625 C 72.738281 60.402344 72.738281 60.210938 73.382812 59.503906 C 74.417969 58.371094 74.164062 57.644531 73.03125 58.503906 C 72.527344 58.886719 71.238281 59.519531 70.964844 59.519531 C 70.914062 59.519531 70.753906 59.347656 70.609375 59.132812 C 70.25 58.601562 70.09375 58.597656 69.605469 59.113281 C 69.210938 59.535156 69.195312 59.542969 69.019531 59.382812 C 68.546875 58.960938 68.675781 58.089844 69.300781 57.492188 C 69.554688 57.246094 69.753906 56.976562 69.753906 56.871094 C 69.753906 56.417969 69.898438 56.328125 70.648438 56.328125 C 71.546875 56.328125 72.382812 56.058594 72.902344 55.601562 C 73.320312 55.238281 73.339844 54.960938 72.945312 54.960938 C 72.484375 54.960938 71.71875 54.644531 71.585938 54.394531 C 71.511719 54.261719 71.609375 54.117188 72.089844 53.605469 C 72.703125 52.960938 72.753906 52.851562 72.988281 51.703125 C 73.265625 50.339844 72.34375 50.644531 71.414062 52.226562 C 71.019531 52.890625 70.847656 53.027344 70.664062 52.808594 C 70.515625 52.632812 70.125 51.679688 70.125 51.496094 C 70.121094 51.242188 69.84375 50.953125 69.601562 50.953125 C 69.335938 50.953125 68.5625 50.191406 68.558594 49.929688 C 68.558594 49.816406 68.726562 49.722656 69.175781 49.585938 C 70.050781 49.316406 70.445312 49.0625 71.476562 48.101562 C 71.976562 47.640625 72.582031 47.089844 72.820312 46.878906 C 73.304688 46.449219 73.335938 46.304688 73.125 45.347656 C 72.8125 43.90625 72.449219 43.832031 72.347656 45.191406 L 72.285156 45.980469 L 71.871094 46.183594 C 70.902344 46.652344 70.8125 46.382812 71.046875 43.730469 C 71.15625 42.5 71.101562 42.292969 70.671875 42.292969 C 70.464844 42.292969 70.394531 42.339844 70.363281 42.496094 C 70.304688 42.796875 70.125 44.714844 70.03125 46.015625 C 69.910156 47.660156 69.753906 48.027344 69.019531 48.355469 C 68.234375 48.703125 68.222656 48.558594 68.695312 44.480469 C 69.019531 41.714844 68.980469 41.382812 68.335938 41.382812 C 67.984375 41.382812 67.914062 41.488281 67.914062 42.03125 C 67.914062 42.230469 67.855469 42.789062 67.78125 43.277344 C 67.628906 44.28125 67.488281 45.40625 67.355469 46.667969 C 67.304688 47.144531 67.203125 47.785156 67.128906 48.09375 C 67.054688 48.40625 66.992188 48.894531 66.992188 49.179688 C 66.992188 49.46875 66.933594 49.914062 66.859375 50.167969 C 66.785156 50.425781 66.703125 50.738281 66.675781 50.871094 C 66.601562 51.242188 65.175781 51.847656 65.007812 51.578125 C 64.949219 51.484375 65.085938 50.246094 65.351562 48.398438 C 65.527344 47.195312 65.691406 46.007812 65.796875 45.164062 C 65.851562 44.710938 65.960938 43.996094 66.03125 43.570312 C 66.304688 41.988281 66.191406 40.46875 65.796875 40.46875 C 65.5 40.46875 65.410156 40.851562 65.199219 42.976562 C 65.148438 43.507812 64.96875 44.738281 64.769531 45.9375 C 64.714844 46.265625 64.640625 46.816406 64.597656 47.167969 C 64.558594 47.519531 64.480469 48.03125 64.429688 48.308594 C 64.375 48.585938 64.265625 49.21875 64.183594 49.722656 C 63.964844 51.085938 63.988281 51.039062 63.265625 51.421875 C 62.113281 52.023438 61.769531 51.929688 62.023438 51.078125 C 62.078125 50.882812 62.1875 50.292969 62.257812 49.765625 C 62.410156 48.675781 62.542969 47.847656 62.679688 47.125 C 62.734375 46.847656 62.808594 46.285156 62.851562 45.875 C 62.894531 45.460938 62.96875 44.988281 63.019531 44.824219 C 63.070312 44.660156 63.140625 44.179688 63.175781 43.761719 C 63.207031 43.339844 63.277344 42.890625 63.328125 42.757812 C 63.410156 42.542969 63.617188 40.359375 63.621094 39.667969 C 63.621094 39.257812 63.105469 38.714844 62.914062 38.921875 C 62.726562 39.128906 62.582031 39.726562 62.488281 40.6875 C 62.445312 41.167969 62.378906 41.601562 62.347656 41.652344 C 62.316406 41.703125 62.25 42.105469 62.207031 42.542969 C 62.160156 42.980469 62.046875 43.648438 61.953125 44.019531 L 61.78125 44.699219 L 61.144531 45.089844 C 60.300781 45.601562 60 45.613281 60 45.132812 C 60 44.6875 60.242188 42.984375 60.367188 42.566406 C 60.417969 42.390625 60.460938 42.042969 60.460938 41.792969 C 60.464844 41.539062 60.503906 41.171875 60.554688 40.972656 C 60.605469 40.769531 60.6875 39.910156 60.738281 39.058594 C 60.785156 38.203125 60.867188 37.035156 60.917969 36.460938 C 60.96875 35.882812 61.011719 34.746094 61.011719 33.933594 C 61.011719 32.328125 61.066406 32.175781 61.621094 32.175781 C 61.929688 32.175781 62.644531 31.828125 63.375 31.328125 C 64.3125 30.679688 65.222656 30.644531 66.671875 31.191406 C 68.476562 31.875 68.699219 32.265625 67.820312 33.226562 C 67.253906 33.847656 67.253906 33.851562 67.859375 34.757812 C 68.132812 35.167969 68.417969 35.652344 68.496094 35.835938 C 68.691406 36.308594 68.871094 36.367188 70.046875 36.367188 C 71.453125 36.363281 71.535156 36.320312 71.601562 35.5 C 71.644531 34.96875 71.804688 34.007812 71.925781 33.566406 C 71.957031 33.445312 72.019531 33.429688 73.113281 33.269531 C 74.089844 33.125 74.207031 33.058594 74.132812 32.691406 C 74.097656 32.53125 74.035156 32.089844 73.988281 31.703125 C 73.882812 30.824219 73.488281 29.996094 72.824219 29.265625 C 72.261719 28.652344 72.242188 28.5625 72.566406 28.210938 C 72.953125 27.800781 73.480469 27.910156 75.34375 28.796875 M 91.535156 54.546875 C 91.359375 55.804688 90.050781 58.777344 89.304688 59.609375 C 89.195312 59.734375 89.042969 59.953125 88.972656 60.089844 C 88.824219 60.382812 87.96875 61.277344 87.902344 61.210938 C 87.851562 61.160156 88.171875 60.730469 88.75 60.058594 C 89.292969 59.429688 90.3125 57.699219 90.625 56.875 C 90.921875 56.101562 91.195312 55.191406 91.195312 55 C 91.195312 54.792969 91.464844 54.140625 91.546875 54.140625 C 91.570312 54.140625 91.566406 54.324219 91.535156 54.546875 M 86.90625 57.933594 C 86.976562 58.105469 86.890625 58.265625 86.773438 58.195312 C 86.664062 58.128906 86.660156 57.789062 86.769531 57.789062 C 86.8125 57.789062 86.875 57.851562 86.90625 57.933594 M 61.722656 61.800781 C 63.242188 63.230469 64.425781 64.066406 66.164062 64.9375 C 67.535156 65.621094 69.914062 66.445312 70.523438 66.445312 C 70.660156 66.445312 70.921875 66.507812 71.101562 66.582031 C 71.285156 66.660156 71.660156 66.71875 71.9375 66.71875 C 72.210938 66.71875 72.941406 66.785156 73.550781 66.863281 C 74.566406 66.996094 74.769531 66.996094 75.796875 66.863281 C 76.417969 66.785156 77.152344 66.71875 77.425781 66.71875 C 77.699219 66.71875 78.070312 66.660156 78.253906 66.582031 C 78.433594 66.507812 78.699219 66.445312 78.839844 66.449219 C 79.109375 66.449219 79.273438 66.402344 80.980469 65.851562 C 83.128906 65.160156 85.402344 63.839844 87.046875 62.324219 C 87.53125 61.875 88.023438 61.472656 88.144531 61.425781 C 88.453125 61.304688 147.105469 61.316406 147.335938 61.4375 C 147.617188 61.585938 147.617188 88.261719 147.335938 88.410156 C 147.101562 88.535156 2.222656 88.539062 2.023438 88.414062 C 1.816406 88.285156 1.816406 61.5625 2.023438 61.433594 C 2.109375 61.378906 13.132812 61.351562 31.722656 61.367188 L 61.28125 61.386719 L 61.722656 61.800781 M 86.453125 62.625 C 86.132812 62.957031 85.859375 63.125 85.859375 62.988281 C 85.859375 62.898438 86.5625 62.34375 86.671875 62.34375 C 86.699219 62.34375 86.601562 62.472656 86.453125 62.625 M 63.496094 62.9375 C 63.617188 63.0625 63.683594 63.164062 63.648438 63.164062 C 63.53125 63.164062 63.128906 62.875 63.128906 62.789062 C 63.128906 62.644531 63.277344 62.707031 63.496094 62.9375 M 85.136719 63.625 C 85.015625 63.722656 84.871094 63.800781 84.8125 63.800781 C 84.753906 63.796875 84.804688 63.71875 84.925781 63.617188 C 85.046875 63.519531 85.191406 63.441406 85.246094 63.441406 C 85.304688 63.445312 85.253906 63.527344 85.136719 63.625 M 64.554688 63.710938 C 64.648438 63.8125 64.683594 63.894531 64.636719 63.890625 C 64.53125 63.886719 64.234375 63.664062 64.234375 63.589844 C 64.234375 63.472656 64.390625 63.535156 64.554688 63.710938 M 84.386719 64.078125 C 84.164062 64.25 84.019531 64.304688 84.019531 64.214844 C 84.019531 64.171875 84.488281 63.902344 84.570312 63.902344 C 84.597656 63.898438 84.511719 63.980469 84.386719 64.078125 M 82.546875 65.070312 C 82.238281 65.242188 81.929688 65.289062 82.125 65.128906 C 82.226562 65.050781 82.390625 64.988281 82.496094 64.992188 C 82.644531 64.992188 82.65625 65.007812 82.546875 65.070312 M 67.507812 65.265625 C 67.71875 65.375 67.773438 65.425781 67.636719 65.390625 C 67.351562 65.316406 66.914062 65.089844 67.046875 65.082031 C 67.101562 65.082031 67.308594 65.164062 67.507812 65.265625 M 71.640625 66.398438 C 71.910156 66.519531 71.910156 66.523438 71.6875 66.527344 C 71.558594 66.53125 71.351562 66.472656 71.226562 66.402344 C 70.910156 66.222656 71.246094 66.21875 71.640625 66.398438 M 78.179688 66.40625 C 78.082031 66.476562 77.875 66.535156 77.71875 66.53125 L 77.4375 66.523438 L 77.714844 66.398438 C 78.117188 66.214844 78.425781 66.21875 78.179688 66.40625 M 76.148438 66.652344 C 75.785156 66.78125 73.453125 66.78125 73.160156 66.648438 C 72.980469 66.574219 73.324219 66.550781 74.679688 66.550781 C 76.03125 66.554688 76.363281 66.574219 76.148438 66.652344 "/>
<path style=" stroke:none;fill-rule:evenodd;fill:rgb(98.431373%,80.000001%,4.705882%);fill-opacity:1;" d="M 58.273438 26.589844 C 58.15625 26.609375 58.046875 26.714844 58.015625 26.828125 C 57.863281 27.4375 58.023438 54.191406 58.183594 54.539062 C 58.269531 54.734375 58.34375 54.980469 58.34375 55.085938 C 58.351562 56.699219 60.929688 60.671875 63.109375 62.421875 C 65.367188 64.230469 69.34375 66.078125 71.003906 66.082031 C 71.152344 66.082031 71.476562 66.144531 71.726562 66.21875 C 72.378906 66.417969 76.976562 66.417969 77.632812 66.21875 C 77.878906 66.144531 78.203125 66.082031 78.351562 66.082031 C 78.628906 66.082031 79.0625 65.96875 80.523438 65.519531 C 84.570312 64.265625 88.089844 61.421875 89.890625 57.953125 C 90.285156 57.1875 90.429688 56.855469 90.824219 55.78125 C 90.886719 55.605469 90.972656 55.253906 91.011719 54.996094 C 91.050781 54.738281 91.140625 54.433594 91.210938 54.3125 C 91.402344 53.976562 91.445312 27.011719 91.253906 26.75 C 91.128906 26.582031 59.128906 26.421875 58.273438 26.589844 M 73.453125 27.902344 C 73.722656 27.957031 74.625 28.324219 75.460938 28.722656 C 76.296875 29.117188 77.066406 29.441406 77.167969 29.441406 C 77.613281 29.441406 77.683594 29.785156 77.332031 30.242188 C 77.097656 30.546875 77.09375 30.578125 77.199219 31.027344 C 77.59375 32.695312 77.851562 34.40625 77.851562 35.378906 C 77.851562 36.191406 77.902344 36.222656 79.1875 36.261719 C 80.375 36.300781 80.5625 36.238281 80.769531 35.746094 C 80.84375 35.5625 81.132812 35.078125 81.40625 34.675781 C 82.007812 33.785156 82.007812 33.910156 81.394531 33.253906 C 80.5625 32.363281 80.714844 31.949219 82.109375 31.3125 C 82.5 31.132812 82.996094 30.949219 83.214844 30.90625 C 83.429688 30.859375 83.839844 30.773438 84.125 30.707031 C 84.792969 30.558594 85.175781 30.664062 86.019531 31.238281 C 86.71875 31.710938 87.511719 32.085938 87.820312 32.085938 C 88.378906 32.085938 88.433594 32.238281 88.441406 33.796875 C 88.441406 34.585938 88.484375 35.78125 88.53125 36.460938 C 88.582031 37.136719 88.660156 38.355469 88.707031 39.167969 C 88.753906 39.984375 88.8125 40.6875 88.84375 40.730469 C 88.871094 40.773438 88.9375 41.214844 88.992188 41.710938 C 89.046875 42.207031 89.152344 42.859375 89.222656 43.160156 C 89.417969 44.015625 89.496094 45.359375 89.359375 45.527344 C 89.183594 45.734375 89.046875 45.703125 88.261719 45.25 C 87.453125 44.785156 87.148438 44.226562 87.148438 43.21875 C 87.148438 42.976562 87.085938 42.578125 87.011719 42.332031 C 86.941406 42.085938 86.835938 41.511719 86.785156 41.0625 C 86.589844 39.363281 86.453125 38.933594 86.15625 39.089844 C 85.792969 39.285156 85.730469 39.660156 85.894531 40.636719 C 85.976562 41.125 86.042969 41.769531 86.042969 42.070312 C 86.042969 42.367188 86.105469 42.8125 86.183594 43.058594 C 86.257812 43.304688 86.320312 43.738281 86.320312 44.023438 C 86.320312 44.308594 86.378906 44.742188 86.457031 44.988281 C 86.53125 45.234375 86.59375 45.644531 86.59375 45.898438 C 86.59375 46.152344 86.675781 46.664062 86.777344 47.039062 C 86.878906 47.410156 86.960938 47.902344 86.960938 48.132812 C 86.960938 48.363281 87.023438 48.753906 87.101562 49 C 87.175781 49.246094 87.238281 49.675781 87.238281 49.957031 C 87.238281 50.234375 87.304688 50.652344 87.382812 50.882812 C 87.765625 51.992188 87.296875 52.210938 86.023438 51.511719 L 85.320312 51.128906 L 85.179688 50.472656 C 85.042969 49.828125 84.964844 49.355469 84.710938 47.558594 C 84.640625 47.074219 84.558594 46.632812 84.53125 46.585938 C 84.5 46.535156 84.433594 46.132812 84.390625 45.691406 C 84.34375 45.25 84.261719 44.625 84.210938 44.296875 C 84.039062 43.207031 83.910156 42.160156 83.859375 41.449219 C 83.808594 40.691406 83.671875 40.445312 83.417969 40.65625 C 83.238281 40.800781 83.3125 43.210938 83.523438 44.039062 C 83.59375 44.320312 83.652344 44.792969 83.652344 45.085938 C 83.652344 45.378906 83.714844 45.84375 83.789062 46.121094 C 83.863281 46.398438 83.925781 46.828125 83.925781 47.078125 C 83.929688 47.328125 83.972656 47.699219 84.023438 47.898438 C 84.070312 48.097656 84.175781 48.796875 84.25 49.449219 C 84.328125 50.097656 84.417969 50.855469 84.449219 51.125 C 84.546875 51.9375 84.261719 51.984375 83.039062 51.367188 C 82.542969 51.117188 82.269531 50.425781 82.269531 49.40625 C 82.269531 49.128906 82.207031 48.699219 82.132812 48.453125 C 82.054688 48.207031 81.992188 47.757812 81.992188 47.449219 C 81.992188 47.144531 81.929688 46.648438 81.859375 46.347656 C 81.785156 46.046875 81.722656 45.597656 81.71875 45.347656 C 81.71875 45.09375 81.671875 44.644531 81.617188 44.34375 C 81.5625 44.042969 81.46875 43.308594 81.410156 42.710938 C 81.296875 41.550781 81.175781 41.308594 80.820312 41.527344 C 80.597656 41.667969 80.558594 43.132812 80.746094 44.324219 C 80.824219 44.816406 80.890625 45.441406 80.890625 45.710938 C 80.890625 45.984375 80.957031 46.644531 81.035156 47.179688 C 81.246094 48.59375 81.023438 48.886719 80.109375 48.375 C 79.574219 48.074219 79.324219 47.65625 79.324219 47.0625 C 79.324219 46.792969 79.265625 46.195312 79.191406 45.734375 C 79.121094 45.269531 79.039062 44.382812 79.015625 43.761719 C 78.964844 42.53125 78.878906 42.308594 78.496094 42.429688 C 78.304688 42.492188 78.296875 42.527344 78.351562 43.191406 C 78.628906 46.683594 78.585938 46.824219 77.347656 46.246094 L 76.976562 46.074219 L 76.921875 45.320312 C 76.835938 44.195312 76.605469 44.199219 76.335938 45.324219 C 76.101562 46.316406 76.101562 46.324219 77.378906 47.527344 C 78.699219 48.773438 79.355469 49.21875 80.246094 49.488281 C 80.601562 49.59375 80.890625 49.695312 80.890625 49.714844 C 80.890625 49.734375 80.914062 49.8125 80.941406 49.886719 C 80.972656 49.960938 80.867188 50.164062 80.699219 50.351562 C 80.304688 50.796875 80.328125 50.832031 82.003906 52.457031 C 83.566406 53.964844 83.804688 54.09375 84.429688 53.765625 C 86.152344 52.863281 86.542969 52.792969 87.511719 53.207031 C 88.179688 53.492188 88.402344 53.769531 88.488281 54.421875 C 88.570312 55.050781 88.371094 55.261719 87.988281 54.941406 C 87.570312 54.59375 87.367188 54.558594 86.789062 54.734375 C 85.65625 55.085938 85.636719 55.121094 86.386719 55.460938 C 87.164062 55.808594 87.167969 55.8125 87.492188 56.230469 C 87.859375 56.707031 87.867188 57.015625 87.53125 57.695312 C 87.101562 58.566406 86.503906 58.644531 86.503906 57.828125 C 86.503906 57.488281 86.398438 57.382812 85.902344 57.222656 C 85.601562 57.125 85.484375 57.003906 85.164062 56.464844 C 84.664062 55.625 84.539062 55.632812 84.476562 56.511719 C 84.386719 57.894531 83.546875 58.660156 82.597656 58.230469 C 82.324219 58.105469 82.304688 57.960938 82.511719 57.644531 C 82.613281 57.496094 82.671875 57.1875 82.683594 56.757812 C 82.695312 56.371094 82.773438 55.929688 82.875 55.675781 C 83.082031 55.15625 82.992188 54.796875 82.605469 54.613281 C 82.230469 54.433594 81.925781 54.542969 81.769531 54.914062 C 81.699219 55.085938 81.476562 55.464844 81.277344 55.753906 C 81.078125 56.046875 80.886719 56.375 80.851562 56.488281 C 80.699219 56.964844 80.039062 56.527344 79.933594 55.882812 C 79.824219 55.195312 80.105469 54.339844 80.5625 53.964844 C 80.84375 53.734375 80.71875 53.46875 80.019531 52.78125 C 79.25 52.019531 79.191406 52.019531 78.871094 52.742188 C 78.585938 53.375 78.464844 53.308594 77.726562 52.117188 C 77 50.941406 76.230469 50.621094 76.433594 51.574219 C 76.6875 52.777344 76.769531 52.949219 77.316406 53.480469 C 78.171875 54.3125 78.085938 54.621094 76.914062 54.972656 C 76.570312 55.078125 76.289062 55.175781 76.289062 55.191406 C 76.289062 55.65625 77.632812 56.238281 78.707031 56.238281 C 79.5 56.238281 79.691406 56.332031 79.691406 56.726562 C 79.691406 56.964844 79.765625 57.085938 80.046875 57.308594 C 80.539062 57.703125 80.738281 58.148438 80.683594 58.757812 C 80.613281 59.628906 80.222656 59.832031 79.726562 59.257812 C 79.253906 58.710938 78.984375 58.707031 78.816406 59.246094 C 78.636719 59.839844 77.710938 59.613281 76.304688 58.632812 C 75.234375 57.882812 75.160156 58.515625 76.1875 59.632812 C 76.777344 60.269531 76.757812 60.425781 76.066406 60.710938 L 75.578125 60.910156 L 75.523438 61.539062 C 75.421875 62.746094 74.679688 63.636719 74.488281 62.777344 C 74.453125 62.613281 74.304688 62.273438 74.160156 62.019531 C 74.015625 61.765625 73.894531 61.449219 73.894531 61.320312 C 73.894531 61.054688 73.679688 60.796875 73.460938 60.796875 C 72.675781 60.796875 72.5625 60.214844 73.210938 59.515625 C 74.136719 58.515625 74.121094 57.871094 73.183594 58.539062 C 71.683594 59.605469 70.796875 59.828125 70.53125 59.203125 C 70.3125 58.6875 69.839844 58.820312 69.488281 59.496094 C 69.351562 59.757812 69.191406 59.757812 68.953125 59.496094 C 68.394531 58.890625 68.511719 58.070312 69.261719 57.367188 C 69.496094 57.144531 69.664062 56.910156 69.664062 56.792969 C 69.664062 56.324219 69.800781 56.238281 70.566406 56.238281 C 71.402344 56.238281 72.976562 55.734375 72.976562 55.464844 C 72.976562 55.445312 73 55.371094 73.027344 55.300781 C 73.066406 55.199219 72.921875 55.117188 72.453125 54.976562 C 71.21875 54.601562 71.15625 54.402344 72.003906 53.507812 C 72.332031 53.164062 72.625 52.765625 72.660156 52.621094 C 72.691406 52.480469 72.777344 52.125 72.851562 51.828125 C 73.179688 50.511719 72.355469 50.820312 71.460938 52.347656 C 70.914062 53.277344 70.527344 53.320312 70.335938 52.46875 C 70.238281 52.015625 70.054688 52.074219 69.332031 52.78125 C 68.585938 53.519531 68.542969 53.636719 68.875 54.027344 C 69.617188 54.902344 69.640625 56.316406 68.925781 56.695312 C 68.679688 56.824219 68.679688 56.828125 68.429688 56.328125 C 68.300781 56.074219 68.074219 55.71875 67.925781 55.53125 C 67.78125 55.34375 67.621094 55.066406 67.570312 54.917969 C 67.402344 54.386719 66.671875 54.421875 66.359375 54.976562 C 66.234375 55.195312 66.242188 55.261719 66.464844 55.796875 C 66.65625 56.25 66.699219 56.464844 66.65625 56.800781 C 66.613281 57.140625 66.648438 57.296875 66.820312 57.605469 L 67.039062 57.988281 L 66.820312 58.160156 C 66 58.820312 64.96875 57.972656 64.878906 56.558594 C 64.820312 55.640625 64.6875 55.609375 64.222656 56.402344 C 63.863281 57.015625 63.644531 57.234375 63.382812 57.238281 C 63.132812 57.242188 62.851562 57.578125 62.851562 57.871094 C 62.851562 58.730469 62.171875 58.554688 61.75 57.59375 C 61.355469 56.679688 61.730469 55.953125 62.832031 55.511719 C 63.699219 55.164062 63.699219 55.0625 62.847656 54.820312 C 61.964844 54.570312 61.910156 54.570312 61.539062 54.820312 C 60.859375 55.273438 60.566406 54.980469 60.875 54.160156 C 61.367188 52.859375 62.949219 52.609375 64.539062 53.578125 C 65.515625 54.171875 65.824219 54.023438 67.8125 51.996094 C 69.054688 50.734375 69.035156 50.777344 68.644531 50.339844 C 68.238281 49.878906 68.308594 49.757812 69.140625 49.480469 C 70.027344 49.179688 70.425781 48.921875 71.367188 48.042969 C 71.773438 47.660156 72.34375 47.140625 72.632812 46.882812 C 73.210938 46.367188 73.21875 46.347656 73.027344 45.445312 C 72.789062 44.328125 72.554688 44.289062 72.449219 45.347656 L 72.378906 46.074219 L 71.964844 46.273438 C 70.898438 46.789062 70.824219 46.65625 70.871094 44.320312 C 70.902344 42.53125 70.894531 42.429688 70.730469 42.398438 C 70.484375 42.351562 70.402344 42.535156 70.398438 43.160156 C 70.394531 43.460938 70.351562 43.992188 70.304688 44.34375 C 70.253906 44.695312 70.175781 45.511719 70.125 46.160156 C 70.015625 47.578125 69.828125 48.054688 69.25 48.375 C 68.300781 48.898438 68.09375 48.597656 68.316406 47.007812 C 68.398438 46.394531 68.46875 45.707031 68.46875 45.476562 C 68.46875 45.246094 68.53125 44.691406 68.609375 44.242188 C 68.800781 43.140625 68.757812 41.667969 68.535156 41.527344 C 68.265625 41.359375 68.054688 41.566406 68.03125 42.027344 C 68.019531 42.25 67.945312 42.859375 67.871094 43.386719 C 67.722656 44.40625 67.605469 45.363281 67.449219 46.757812 C 67.398438 47.234375 67.292969 47.878906 67.21875 48.1875 C 67.144531 48.496094 67.085938 48.984375 67.085938 49.273438 C 67.085938 49.5625 67.023438 50.003906 66.949219 50.261719 C 66.878906 50.515625 66.796875 50.828125 66.769531 50.953125 C 66.734375 51.136719 66.574219 51.25 65.960938 51.53125 C 64.839844 52.042969 64.746094 51.902344 65 50.085938 C 65.078125 49.535156 65.1875 48.753906 65.246094 48.355469 C 65.546875 46.226562 65.601562 45.824219 65.699219 45.027344 C 65.757812 44.550781 65.867188 43.8125 65.941406 43.386719 C 66.1875 41.957031 66.113281 40.652344 65.789062 40.652344 C 65.574219 40.652344 65.535156 40.859375 65.25 43.433594 C 65.15625 44.292969 65.011719 45.246094 64.828125 46.257812 C 64.753906 46.660156 64.691406 47.128906 64.691406 47.304688 C 64.691406 47.480469 64.628906 47.851562 64.554688 48.125 C 64.480469 48.402344 64.417969 48.773438 64.417969 48.953125 C 64.417969 49.335938 64.066406 51.058594 63.972656 51.148438 C 63.800781 51.3125 62.410156 51.953125 62.230469 51.953125 C 61.902344 51.953125 61.78125 51.59375 61.917969 51.015625 C 61.976562 50.753906 62.066406 50.210938 62.113281 49.804688 C 62.164062 49.398438 62.265625 48.828125 62.34375 48.53125 C 62.421875 48.238281 62.484375 47.808594 62.484375 47.574219 C 62.484375 47.34375 62.546875 46.949219 62.621094 46.707031 C 62.695312 46.460938 62.757812 46.050781 62.757812 45.792969 C 62.761719 45.539062 62.820312 45.128906 62.898438 44.882812 C 62.972656 44.636719 63.035156 44.214844 63.035156 43.945312 C 63.035156 43.675781 63.117188 43.125 63.210938 42.714844 C 63.625 40.960938 63.515625 38.84375 63.019531 39.035156 C 62.859375 39.09375 62.578125 40.289062 62.578125 40.914062 C 62.578125 41.15625 62.515625 41.554688 62.441406 41.800781 C 62.363281 42.046875 62.300781 42.457031 62.300781 42.714844 C 62.300781 42.972656 62.242188 43.382812 62.171875 43.625 C 62.097656 43.871094 61.996094 44.238281 61.941406 44.445312 C 61.765625 45.097656 60.144531 45.917969 59.902344 45.472656 C 59.785156 45.253906 59.945312 43.875 60.238281 42.605469 C 60.308594 42.300781 60.371094 41.851562 60.371094 41.601562 C 60.375 41.355469 60.417969 40.96875 60.464844 40.742188 C 60.515625 40.519531 60.59375 39.636719 60.640625 38.785156 C 60.691406 37.929688 60.773438 36.660156 60.824219 35.957031 C 60.875 35.257812 60.917969 34.160156 60.917969 33.523438 C 60.921875 32.269531 61 32.085938 61.53125 32.085938 C 61.8125 32.085938 62.84375 31.613281 63.1875 31.324219 C 63.871094 30.753906 64.679688 30.527344 65.339844 30.71875 C 65.515625 30.773438 65.855469 30.851562 66.097656 30.902344 C 66.679688 31.015625 67.894531 31.574219 68.210938 31.878906 C 68.632812 32.277344 68.515625 32.742188 67.828125 33.402344 C 67.367188 33.84375 67.367188 33.8125 67.867188 34.550781 C 68.09375 34.886719 68.382812 35.371094 68.515625 35.625 C 68.835938 36.261719 68.949219 36.304688 70.175781 36.257812 C 71.449219 36.210938 71.503906 36.175781 71.503906 35.417969 C 71.503906 35.105469 71.570312 34.65625 71.652344 34.421875 C 71.839844 33.875 71.765625 33.585938 71.386719 33.394531 C 70.898438 33.148438 69.203125 31.660156 69.203125 31.476562 C 69.203125 31.273438 69.4375 31.238281 69.742188 31.394531 C 70.054688 31.554688 72.269531 31.601562 72.503906 31.453125 C 72.734375 31.308594 72.546875 30.917969 72.148438 30.71875 C 71.667969 30.472656 71.371094 30.488281 70.878906 30.773438 C 70.363281 31.070312 70.308594 31.007812 70.308594 30.070312 C 70.304688 29.023438 70.984375 28.257812 71.910156 28.257812 C 72.101562 28.257812 72.367188 28.164062 72.570312 28.027344 C 72.757812 27.902344 72.921875 27.800781 72.9375 27.800781 C 72.953125 27.800781 73.1875 27.84375 73.453125 27.902344 M 2.023438 61.433594 C 1.816406 61.5625 1.816406 88.285156 2.023438 88.414062 C 2.222656 88.539062 147.101562 88.535156 147.335938 88.410156 C 147.617188 88.261719 147.617188 61.585938 147.335938 61.4375 C 147.105469 61.316406 88.453125 61.304688 88.144531 61.425781 C 88.023438 61.472656 87.53125 61.875 87.046875 62.324219 C 85.402344 63.839844 83.128906 65.160156 80.980469 65.851562 C 79.273438 66.402344 79.109375 66.449219 78.839844 66.449219 C 78.699219 66.445312 78.433594 66.507812 78.253906 66.582031 C 78.070312 66.660156 77.699219 66.71875 77.425781 66.71875 C 77.152344 66.71875 76.417969 66.785156 75.796875 66.863281 C 74.769531 66.996094 74.566406 66.996094 73.550781 66.863281 C 72.941406 66.785156 72.210938 66.71875 71.9375 66.71875 C 71.660156 66.71875 71.285156 66.660156 71.101562 66.582031 C 70.921875 66.507812 70.660156 66.445312 70.523438 66.445312 C 69.914062 66.445312 67.535156 65.621094 66.164062 64.9375 C 64.425781 64.066406 63.242188 63.230469 61.722656 61.800781 L 61.28125 61.386719 L 31.722656 61.367188 C 13.132812 61.351562 2.109375 61.378906 2.023438 61.433594 "/>
<path style=" stroke:none;fill-rule:evenodd;fill:rgb(1.568628%,1.568628%,1.568628%);fill-opacity:1;" d="M 0 45.574219 L 0 91.148438 L 150 91.148438 L 150 0 L 0 0 L 0 45.574219 M 91.300781 26.605469 L 91.515625 26.777344 L 91.515625 40.320312 C 91.519531 49.347656 91.550781 53.828125 91.609375 53.769531 C 91.671875 53.707031 91.71875 49.800781 91.75 42.601562 C 91.792969 31.765625 91.796875 31.519531 91.972656 31.394531 C 92.257812 31.1875 147.253906 31.199219 147.460938 31.40625 C 147.652344 31.597656 147.6875 88.296875 147.496094 88.488281 C 147.355469 88.625 2.152344 88.644531 1.933594 88.507812 C 1.761719 88.398438 1.785156 31.585938 1.953125 31.378906 C 2.136719 31.15625 57.191406 31.21875 57.417969 31.441406 C 57.59375 31.613281 57.597656 31.84375 57.605469 42.445312 C 57.613281 53.59375 57.617188 53.769531 57.976562 55.191406 C 58.242188 56.246094 58.871094 57.742188 59.472656 58.746094 C 59.925781 59.5 60.449219 60.230469 60.832031 60.636719 C 61.375 61.210938 61.429688 61.113281 60.921875 60.476562 C 59.898438 59.195312 59.183594 58.015625 58.738281 56.851562 C 58.625 56.5625 58.449219 56.113281 58.347656 55.847656 C 58.242188 55.585938 58.160156 55.289062 58.15625 55.1875 C 58.15625 55.089844 58.085938 54.824219 57.996094 54.597656 C 57.847656 54.214844 57.835938 53.273438 57.835938 40.484375 L 57.835938 26.78125 L 58.054688 26.605469 C 58.394531 26.335938 90.960938 26.332031 91.300781 26.605469 M 72.566406 28.210938 C 72.242188 28.5625 72.261719 28.652344 72.824219 29.265625 C 73.488281 29.996094 73.882812 30.824219 73.988281 31.703125 C 74.035156 32.089844 74.097656 32.53125 74.132812 32.691406 C 74.207031 33.058594 74.089844 33.125 73.113281 33.269531 C 72.019531 33.429688 71.957031 33.445312 71.925781 33.566406 C 71.804688 34.007812 71.644531 34.96875 71.601562 35.5 C 71.535156 36.320312 71.453125 36.363281 70.046875 36.367188 C 68.871094 36.367188 68.691406 36.308594 68.496094 35.835938 C 68.417969 35.652344 68.132812 35.167969 67.859375 34.757812 C 67.253906 33.851562 67.253906 33.847656 67.820312 33.226562 C 68.699219 32.265625 68.476562 31.875 66.671875 31.191406 C 65.222656 30.644531 64.3125 30.679688 63.375 31.328125 C 62.644531 31.828125 61.929688 32.175781 61.621094 32.175781 C 61.066406 32.175781 61.011719 32.328125 61.011719 33.933594 C 61.011719 34.746094 60.96875 35.882812 60.917969 36.460938 C 60.867188 37.035156 60.785156 38.203125 60.738281 39.058594 C 60.6875 39.910156 60.605469 40.769531 60.554688 40.972656 C 60.503906 41.171875 60.464844 41.539062 60.460938 41.792969 C 60.460938 42.042969 60.417969 42.390625 60.367188 42.566406 C 60.242188 42.984375 60 44.6875 60 45.132812 C 60 45.613281 60.300781 45.601562 61.144531 45.089844 L 61.78125 44.699219 L 61.953125 44.019531 C 62.046875 43.648438 62.160156 42.980469 62.207031 42.542969 C 62.25 42.105469 62.316406 41.703125 62.347656 41.652344 C 62.378906 41.601562 62.445312 41.167969 62.488281 40.6875 C 62.582031 39.726562 62.726562 39.128906 62.914062 38.921875 C 63.105469 38.714844 63.621094 39.257812 63.621094 39.667969 C 63.617188 40.359375 63.410156 42.542969 63.328125 42.757812 C 63.277344 42.890625 63.207031 43.339844 63.175781 43.761719 C 63.140625 44.179688 63.070312 44.660156 63.019531 44.824219 C 62.96875 44.988281 62.894531 45.460938 62.851562 45.875 C 62.808594 46.285156 62.734375 46.847656 62.679688 47.125 C 62.542969 47.847656 62.410156 48.675781 62.257812 49.765625 C 62.1875 50.292969 62.078125 50.882812 62.023438 51.078125 C 61.769531 51.929688 62.113281 52.023438 63.265625 51.421875 C 63.988281 51.039062 63.964844 51.085938 64.183594 49.722656 C 64.265625 49.21875 64.375 48.585938 64.429688 48.308594 C 64.480469 48.03125 64.558594 47.519531 64.597656 47.167969 C 64.640625 46.816406 64.714844 46.265625 64.769531 45.9375 C 64.96875 44.738281 65.148438 43.507812 65.199219 42.976562 C 65.410156 40.851562 65.5 40.46875 65.796875 40.46875 C 66.191406 40.46875 66.304688 41.988281 66.03125 43.570312 C 65.960938 43.996094 65.851562 44.710938 65.796875 45.164062 C 65.691406 46.007812 65.527344 47.195312 65.351562 48.398438 C 65.085938 50.246094 64.949219 51.484375 65.007812 51.578125 C 65.175781 51.847656 66.601562 51.242188 66.675781 50.871094 C 66.703125 50.738281 66.785156 50.425781 66.859375 50.167969 C 66.933594 49.914062 66.992188 49.46875 66.992188 49.179688 C 66.992188 48.894531 67.054688 48.40625 67.128906 48.09375 C 67.203125 47.785156 67.304688 47.144531 67.355469 46.667969 C 67.488281 45.40625 67.628906 44.28125 67.78125 43.277344 C 67.855469 42.789062 67.914062 42.230469 67.914062 42.03125 C 67.914062 41.488281 67.984375 41.382812 68.335938 41.382812 C 68.980469 41.382812 69.019531 41.714844 68.695312 44.480469 C 68.222656 48.558594 68.234375 48.703125 69.019531 48.355469 C 69.753906 48.027344 69.910156 47.660156 70.03125 46.015625 C 70.125 44.714844 70.304688 42.796875 70.363281 42.496094 C 70.394531 42.339844 70.464844 42.292969 70.671875 42.292969 C 71.101562 42.292969 71.15625 42.5 71.046875 43.730469 C 70.8125 46.382812 70.902344 46.652344 71.871094 46.183594 L 72.285156 45.980469 L 72.347656 45.191406 C 72.449219 43.832031 72.8125 43.90625 73.125 45.347656 C 73.335938 46.304688 73.304688 46.449219 72.820312 46.878906 C 72.582031 47.089844 71.976562 47.640625 71.476562 48.101562 C 70.445312 49.0625 70.050781 49.316406 69.175781 49.585938 C 68.726562 49.722656 68.558594 49.816406 68.558594 49.929688 C 68.5625 50.191406 69.335938 50.953125 69.601562 50.953125 C 69.84375 50.953125 70.121094 51.242188 70.125 51.496094 C 70.125 51.679688 70.515625 52.632812 70.664062 52.808594 C 70.847656 53.027344 71.019531 52.890625 71.414062 52.226562 C 72.34375 50.644531 73.265625 50.339844 72.988281 51.703125 C 72.753906 52.851562 72.703125 52.960938 72.089844 53.605469 C 71.609375 54.117188 71.511719 54.261719 71.585938 54.394531 C 71.71875 54.644531 72.484375 54.960938 72.945312 54.960938 C 73.339844 54.960938 73.320312 55.238281 72.902344 55.601562 C 72.382812 56.058594 71.546875 56.328125 70.648438 56.328125 C 69.898438 56.328125 69.753906 56.417969 69.753906 56.871094 C 69.753906 56.976562 69.554688 57.246094 69.300781 57.492188 C 68.675781 58.089844 68.546875 58.960938 69.019531 59.382812 C 69.195312 59.542969 69.210938 59.535156 69.605469 59.113281 C 70.09375 58.597656 70.25 58.601562 70.609375 59.132812 C 70.753906 59.347656 70.914062 59.519531 70.964844 59.519531 C 71.238281 59.519531 72.527344 58.886719 73.03125 58.503906 C 74.164062 57.644531 74.417969 58.371094 73.382812 59.503906 C 72.738281 60.210938 72.738281 60.402344 73.386719 60.640625 C 73.894531 60.828125 73.984375 60.917969 73.988281 61.25 C 73.988281 61.375 74.046875 61.589844 74.117188 61.726562 C 74.191406 61.863281 74.308594 62.089844 74.382812 62.226562 C 74.457031 62.367188 74.566406 62.597656 74.625 62.742188 C 74.828125 63.25 75.324219 62.46875 75.4375 61.460938 L 75.507812 60.839844 L 75.988281 60.621094 C 76.574219 60.351562 76.585938 60.261719 76.070312 59.695312 C 75.042969 58.566406 75.140625 57.636719 76.199219 58.433594 C 77.398438 59.335938 78.550781 59.6875 78.710938 59.199219 C 78.917969 58.5625 79.175781 58.542969 79.742188 59.128906 L 80.15625 59.554688 L 80.34375 59.375 C 80.800781 58.917969 80.644531 57.988281 80.011719 57.441406 C 79.726562 57.191406 79.601562 57.011719 79.601562 56.847656 C 79.601562 56.449219 79.382812 56.328125 78.644531 56.328125 C 77.109375 56.328125 75.261719 55.109375 76.542969 54.941406 C 77.820312 54.769531 78.011719 54.371094 77.214844 53.550781 C 76.648438 52.964844 76.46875 52.566406 76.332031 51.582031 C 76.164062 50.410156 77.109375 50.855469 78.058594 52.398438 C 78.246094 52.707031 78.453125 52.957031 78.523438 52.957031 C 78.664062 52.957031 79.234375 51.742188 79.234375 51.445312 C 79.234375 51.203125 79.507812 50.953125 79.773438 50.953125 C 79.976562 50.953125 80.792969 50.179688 80.796875 49.984375 C 80.796875 49.820312 80.605469 49.707031 80.070312 49.550781 C 79.386719 49.347656 78.773438 48.945312 77.851562 48.082031 C 77.417969 47.679688 76.84375 47.152344 76.574219 46.914062 L 76.082031 46.476562 L 76.125 45.910156 C 76.164062 45.402344 76.421875 44.5625 76.652344 44.207031 C 76.828125 43.9375 76.960938 44.28125 77.015625 45.136719 L 77.070312 45.980469 L 77.519531 46.191406 C 78.429688 46.621094 78.589844 46.109375 78.265625 43.84375 C 78.085938 42.59375 78.148438 42.292969 78.574219 42.292969 C 78.996094 42.292969 79.054688 42.453125 79.144531 43.902344 C 79.195312 44.648438 79.273438 45.523438 79.324219 45.847656 C 79.371094 46.171875 79.414062 46.644531 79.417969 46.894531 C 79.421875 47.628906 79.671875 48.054688 80.242188 48.296875 C 80.914062 48.585938 81.023438 48.484375 80.949219 47.628906 C 80.917969 47.273438 80.851562 46.496094 80.800781 45.894531 C 80.753906 45.292969 80.671875 44.59375 80.625 44.34375 C 80.574219 44.09375 80.523438 43.390625 80.503906 42.785156 C 80.472656 41.5625 80.535156 41.382812 80.988281 41.382812 C 81.398438 41.382812 81.355469 41.199219 81.710938 44.433594 C 81.769531 44.984375 81.878906 45.746094 81.953125 46.121094 C 82.027344 46.5 82.085938 47.0625 82.085938 47.371094 C 82.085938 47.679688 82.132812 48.046875 82.191406 48.1875 C 82.246094 48.328125 82.328125 48.835938 82.367188 49.316406 C 82.488281 50.789062 82.621094 51.0625 83.382812 51.398438 C 84.117188 51.722656 84.257812 51.742188 84.3125 51.523438 C 84.367188 51.320312 84.152344 49.335938 83.972656 48.308594 C 83.894531 47.882812 83.832031 47.347656 83.832031 47.125 C 83.832031 46.898438 83.769531 46.488281 83.695312 46.210938 C 83.621094 45.9375 83.558594 45.484375 83.558594 45.207031 C 83.558594 44.929688 83.496094 44.464844 83.421875 44.175781 C 83.226562 43.441406 83.121094 40.796875 83.277344 40.609375 C 83.601562 40.226562 83.925781 40.492188 83.925781 41.136719 C 83.925781 41.347656 83.988281 41.867188 84.066406 42.292969 C 84.140625 42.71875 84.203125 43.230469 84.203125 43.433594 C 84.203125 43.632812 84.261719 44.125 84.335938 44.527344 C 84.40625 44.925781 84.515625 45.5625 84.574219 45.9375 C 84.824219 47.53125 84.925781 48.214844 85.03125 48.945312 C 85.09375 49.371094 85.207031 50.019531 85.28125 50.382812 L 85.417969 51.046875 L 86.074219 51.410156 C 87.277344 52.074219 87.5625 51.996094 87.300781 51.066406 C 87.214844 50.769531 87.148438 50.324219 87.148438 50.074219 C 87.148438 49.824219 87.089844 49.414062 87.019531 49.167969 C 86.949219 48.921875 86.867188 48.40625 86.84375 48.019531 C 86.816406 47.636719 86.75 47.238281 86.691406 47.132812 C 86.636719 47.03125 86.550781 46.566406 86.503906 46.101562 C 86.457031 45.636719 86.378906 45.113281 86.324219 44.9375 C 86.269531 44.761719 86.226562 44.390625 86.226562 44.117188 C 86.226562 43.839844 86.164062 43.414062 86.089844 43.167969 C 86.011719 42.921875 85.949219 42.492188 85.949219 42.210938 C 85.949219 41.929688 85.886719 41.351562 85.8125 40.925781 C 85.601562 39.742188 85.621094 39.519531 85.984375 39.132812 C 86.332031 38.753906 86.59375 38.761719 86.59375 39.15625 C 86.59375 39.289062 86.652344 39.625 86.726562 39.910156 C 86.796875 40.191406 86.882812 40.710938 86.917969 41.0625 C 86.953125 41.414062 87.039062 41.945312 87.109375 42.246094 C 87.179688 42.546875 87.238281 42.953125 87.238281 43.148438 C 87.242188 44.332031 88.253906 45.585938 89.105469 45.464844 C 89.351562 45.429688 89.363281 44.445312 89.125 43.339844 C 88.941406 42.46875 88.777344 41.101562 88.523438 38.28125 C 88.464844 37.65625 88.398438 36.136719 88.375 34.910156 C 88.324219 32.183594 88.34375 32.289062 87.90625 32.21875 C 87.402344 32.136719 86.707031 31.832031 86.15625 31.457031 C 85.355469 30.910156 85.105469 30.808594 84.597656 30.808594 C 83.617188 30.808594 81.867188 31.398438 81.257812 31.929688 C 80.847656 32.292969 80.894531 32.539062 81.488281 33.179688 C 82.078125 33.816406 82.097656 33.929688 81.6875 34.464844 C 81.519531 34.683594 81.222656 35.152344 81.027344 35.503906 C 80.546875 36.378906 80.570312 36.367188 79.3125 36.367188 C 77.863281 36.367188 77.761719 36.324219 77.761719 35.710938 C 77.757812 35.074219 77.425781 32.46875 77.25 31.71875 C 76.976562 30.574219 76.976562 30.480469 77.242188 30.167969 C 77.570312 29.78125 77.503906 29.53125 77.078125 29.53125 C 76.972656 29.53125 76.191406 29.199219 75.34375 28.796875 C 73.480469 27.910156 72.953125 27.800781 72.566406 28.210938 M 74.421875 29.203125 C 74.726562 29.476562 74.75 29.527344 74.632812 29.667969 C 74.371094 29.980469 73.433594 29.585938 73.433594 29.167969 C 73.433594 28.769531 73.96875 28.789062 74.421875 29.203125 M 91.351562 54.464844 C 91.265625 54.640625 91.195312 54.882812 91.195312 55 C 91.195312 55.191406 90.921875 56.101562 90.625 56.875 C 90.3125 57.699219 89.292969 59.429688 88.75 60.058594 C 88.171875 60.730469 87.851562 61.160156 87.902344 61.210938 C 87.96875 61.277344 88.824219 60.382812 88.972656 60.089844 C 89.042969 59.953125 89.195312 59.734375 89.304688 59.609375 C 90.050781 58.777344 91.359375 55.804688 91.535156 54.546875 C 91.601562 54.058594 91.554688 54.039062 91.351562 54.464844 M 86.6875 57.964844 C 86.6875 58.164062 86.832031 58.289062 86.910156 58.164062 C 86.976562 58.054688 86.878906 57.789062 86.769531 57.789062 C 86.722656 57.789062 86.6875 57.867188 86.6875 57.964844 M 86.242188 62.621094 C 85.859375 62.890625 85.699219 63.167969 86.019531 62.996094 C 86.195312 62.898438 86.753906 62.34375 86.671875 62.34375 C 86.644531 62.34375 86.449219 62.46875 86.242188 62.621094 M 63.128906 62.789062 C 63.128906 62.875 63.53125 63.164062 63.648438 63.164062 C 63.683594 63.164062 63.617188 63.0625 63.496094 62.9375 C 63.277344 62.707031 63.128906 62.644531 63.128906 62.789062 M 84.925781 63.617188 C 84.804688 63.71875 84.753906 63.796875 84.8125 63.800781 C 84.871094 63.800781 85.015625 63.722656 85.136719 63.625 C 85.253906 63.527344 85.304688 63.445312 85.246094 63.441406 C 85.191406 63.441406 85.046875 63.519531 84.925781 63.617188 M 64.234375 63.589844 C 64.234375 63.664062 64.53125 63.886719 64.636719 63.890625 C 64.683594 63.894531 64.648438 63.8125 64.554688 63.710938 C 64.390625 63.535156 64.234375 63.472656 64.234375 63.589844 M 84.273438 64.039062 C 84.132812 64.113281 84.019531 64.191406 84.019531 64.214844 C 84.019531 64.304688 84.164062 64.25 84.386719 64.078125 C 84.660156 63.867188 84.617188 63.851562 84.273438 64.039062 M 82.125 65.128906 C 81.953125 65.265625 81.957031 65.269531 82.179688 65.210938 C 82.554688 65.109375 82.722656 64.996094 82.496094 64.992188 C 82.390625 64.988281 82.226562 65.050781 82.125 65.128906 M 67.179688 65.207031 C 67.304688 65.277344 67.511719 65.359375 67.636719 65.390625 C 67.773438 65.425781 67.71875 65.375 67.507812 65.265625 C 67.308594 65.164062 67.101562 65.082031 67.046875 65.082031 C 66.992188 65.085938 67.050781 65.140625 67.179688 65.207031 M 71.226562 66.402344 C 71.351562 66.472656 71.558594 66.53125 71.6875 66.527344 C 71.910156 66.523438 71.910156 66.519531 71.640625 66.398438 C 71.246094 66.21875 70.910156 66.222656 71.226562 66.402344 M 77.714844 66.398438 L 77.4375 66.523438 L 77.71875 66.53125 C 77.875 66.535156 78.082031 66.476562 78.179688 66.40625 C 78.425781 66.21875 78.117188 66.214844 77.714844 66.398438 M 73.160156 66.648438 C 73.453125 66.78125 75.785156 66.78125 76.148438 66.652344 C 76.363281 66.574219 76.03125 66.554688 74.679688 66.550781 C 73.324219 66.550781 72.980469 66.574219 73.160156 66.648438 "/>
<path style=" stroke:none;fill-rule:evenodd;fill:rgb(78.431374%,78.039217%,77.64706%);fill-opacity:1;" d="M 73.496094 28.953125 C 73.261719 29.1875 73.6875 29.691406 74.1875 29.773438 C 74.417969 29.808594 74.539062 29.78125 74.632812 29.667969 C 74.898438 29.351562 73.796875 28.660156 73.496094 28.953125 "/>
</g>
</svg>
