<?xml version="1.0" encoding="UTF-8" standalone="no"?>
<svg
   class="svg-icon"
   style="width: 1em; height: 1em;vertical-align: middle;fill: currentColor;overflow: hidden;"
   viewBox="0 0 1024 1024"
   version="1.1"
   id="svg51"
   sodipodi:docname="BuildIconWhite.svg"
   inkscape:version="1.1.2 (0a00cf5339, 2022-02-04)"
   xmlns:inkscape="http://www.inkscape.org/namespaces/inkscape"
   xmlns:sodipodi="http://sodipodi.sourceforge.net/DTD/sodipodi-0.dtd"
   xmlns="http://www.w3.org/2000/svg"
   xmlns:svg="http://www.w3.org/2000/svg">
  <defs
     id="defs55" />
  <sodipodi:namedview
     id="namedview53"
     pagecolor="#ffffff"
     bordercolor="#666666"
     borderopacity="1.0"
     inkscape:pageshadow="2"
     inkscape:pageopacity="0.0"
     inkscape:pagecheckerboard="0"
     showgrid="false"
     inkscape:zoom="1.3974609"
     inkscape:cx="339.18658"
     inkscape:cy="510.21104"
     inkscape:window-width="3072"
     inkscape:window-height="1653"
     inkscape:window-x="0"
     inkscape:window-y="38"
     inkscape:window-maximized="1"
     inkscape:current-layer="svg51" />
  <path
     d="M968.533333 808.533333L578.133333 418.133333c38.4-98.133333 17.066667-215.466667-61.866666-294.4-85.333333-85.333333-213.333333-102.4-315.733334-53.333333l185.6 185.6-130.133333 130.133333-185.6-185.6C21.333333 302.933333 38.4 430.933333 123.733333 516.266667c78.933333 78.933333 196.266667 100.266667 294.4 61.866666l390.4 390.4c17.066667 17.066667 44.8 17.066667 59.733334 0l100.266666-100.266666c17.066667-14.933333 17.066667-42.666667 0-59.733334z"
     id="path49" />
  <path
     style="fill:#ffffff;stroke:none;stroke-width:0.715584"
     d="m 831.15024,980.03355 c -5.86184,-1.21685 -10.85847,-3.26757 -15.45646,-6.34379 -2.22339,-1.48756 -87.38363,-86.11712 -200.55059,-199.30096 l -196.68631,-196.71556 -10.99596,3.81658 c -17.68788,6.13926 -37.78772,10.67283 -58.97175,13.30121 -10.04697,1.24656 -49.29433,1.25082 -59.39343,0.006 -35.55511,-4.381 -63.68799,-12.77363 -94.45703,-28.17853 C 166.4622,552.51201 146.20845,537.81095 123.4226,514.92717 79.506455,470.82228 53.263646,416.10521 45.313395,352.06709 c -1.971727,-15.88198 -1.789117,-49.18463 0.357065,-65.1181 3.824638,-28.39449 10.695116,-53.62668 20.848564,-76.56744 1.654826,-3.73892 3.19,-7.39524 3.411497,-8.12515 0.315942,-1.04114 20.426144,18.69587 93.325819,91.59393 l 92.9231,92.92103 65.29596,-65.29596 65.29596,-65.29596 -92.92103,-92.9231 C 220.82951,90.233899 201.21351,70.246093 202.2564,69.926307 c 0.72991,-0.223814 5.41741,-2.186716 10.41668,-4.362003 44.60269,-19.407588 97.84391,-26.221794 148.3388,-18.985497 44.657,6.399685 89.50471,24.936642 125.08688,51.702317 34.19392,25.721396 60.6318,57.142856 79.8818,94.939646 15.45936,30.35396 24.41492,60.14947 28.8169,95.87497 1.23979,10.06185 1.23979,49.33157 0,59.39343 -2.60529,21.14398 -7.43563,42.36947 -13.59773,59.75122 l -3.55159,10.01817 198.02034,198.21663 c 196.69838,196.89345 198.03816,198.25363 200.69649,203.76126 5.85733,12.13551 6.02027,24.72177 0.46555,35.95922 -2.7693,5.60237 -4.02222,6.91683 -58.66024,61.54018 -49.3027,49.28946 -56.41195,56.13202 -60.80306,58.52221 -8.10634,4.41257 -16.98695,5.69146 -26.21698,3.77549 z"
     id="path174" />
  <path
     style="fill:#ffffff;stroke-width:0.715584"
     d="m 827.93012,978.7022 c -2.95178,-0.91279 -6.81593,-2.40507 -8.587,-3.31622 -4.13858,-2.12908 -12.88051,-10.78213 -225.86144,-223.56439 l -174.6972,-174.53427 -12.31323,4.05571 c -20.68442,6.81301 -43.26265,11.68718 -61.56,13.28955 -10.74564,0.94103 -41.66994,0.92235 -52.59539,-0.0318 -31.66005,-2.7649 -64.18117,-12.12435 -95.29187,-27.42463 -28.76315,-14.14576 -48.87831,-28.52515 -71.93794,-51.4251 -43.997864,-43.6932 -70.008523,-96.59393 -79.074096,-160.82166 -1.799722,-12.75066 -1.788153,-54.96505 0.01863,-67.98043 3.937157,-28.3618 11.484501,-55.35884 22.262333,-79.63293 1.731581,-3.89991 1.930541,-4.08985 3.446036,-3.28987 0.884596,0.46695 42.755187,41.92705 93.045757,92.13354 l 91.43739,91.28456 65.63238,-65.63238 65.63237,-65.63237 -84.45826,-84.61807 C 205.80124,74.150147 202.7426,71.029955 203.63829,70.171237 c 1.2177,-1.167417 19.87861,-8.71179 29.56814,-11.954025 19.52177,-6.532222 43.93007,-11.439094 65.60071,-13.187902 13.41238,-1.082371 43.96964,-0.490126 56.12228,1.087732 48.09505,6.244502 94.6163,25.129165 132.38295,53.739054 30.61152,23.189564 56.39475,53.148944 74.57719,86.656564 16.25018,29.94676 25.89682,58.90833 31.41462,94.31436 1.83595,11.78079 2.64763,47.04514 1.43385,62.29527 -1.53563,19.2938 -6.45105,42.40987 -13.5073,63.52177 l -4.0107,11.99975 190.67965,190.86818 c 104.87377,104.97748 194.31398,194.8267 198.75603,199.66497 5.08759,5.54134 8.70615,10.17567 9.77802,12.52272 5.39092,11.80505 5.2058,24.0811 -0.53017,35.15325 -1.9192,3.70465 -10.50928,12.60737 -57.76104,59.86314 -30.52866,30.53123 -57.08275,56.52809 -59.00917,57.7707 -6.01405,3.8794 -10.76595,5.30505 -18.68052,5.60438 -5.97806,0.22613 -8.03915,0 -12.52271,-1.38895 z"
     id="path287" />
  <path
     style="fill:#ffffff;stroke-width:0.715584"
     d="m 827.93012,978.7022 c -2.95178,-0.91279 -6.81593,-2.40507 -8.587,-3.31622 -4.13851,-2.12908 -12.88215,-10.78378 -225.83406,-223.53701 l -174.66983,-174.5069 -12.45526,4.05343 c -21.10308,6.86777 -43.28542,11.64435 -61.47272,13.23708 -10.74957,0.94138 -41.6738,0.92223 -52.59539,-0.0326 C 260.5851,591.82603 228.14263,582.49263 197.10764,567.20946 170.75659,554.23291 154.44833,543.10418 133.24528,523.62993 90.532418,484.39963 62.530796,435.67924 50.475143,379.61705 45.327754,355.68024 44.79338,350.2377 44.784136,321.65479 c -0.0092,-28.45928 0.423075,-33.35514 4.928217,-55.81552 4.034055,-20.11178 10.328855,-39.93852 18.580564,-58.52321 1.731581,-3.89991 1.930541,-4.08985 3.446036,-3.28987 0.884596,0.46695 42.755187,41.92705 93.045757,92.13354 l 91.43739,91.28456 65.63238,-65.63238 65.63237,-65.63237 -84.45826,-84.61807 C 205.80124,74.150147 202.7426,71.029955 203.63829,70.171237 c 1.0296,-0.987089 18.34573,-8.103121 27.70202,-11.384093 18.40345,-6.45354 45.5646,-11.990337 67.50524,-13.760934 13.03787,-1.052148 44.48635,-0.458259 55.85438,1.054784 33.14454,4.411413 61.32608,13.065791 91.09307,27.974121 72.48803,36.304505 125.4456,104.494935 143.38476,184.628325 2.59168,11.57692 4.66499,24.61512 5.46194,34.34801 0.91577,11.18386 0.91162,41.38872 -0.007,51.8798 -1.62086,18.50854 -6.90275,42.65796 -13.73375,62.79235 l -3.7023,10.91253 191.40668,191.5976 c 105.27371,105.37867 194.72172,195.2397 198.77349,199.6912 4.44192,4.88013 8.04009,9.56792 9.06265,11.80713 3.90809,8.55787 4.94877,18.38777 2.81439,26.58242 -2.62583,10.08128 -1.37048,8.67581 -61.11118,68.42159 -30.52866,30.53123 -57.08275,56.52809 -59.00917,57.7707 -6.01405,3.8794 -10.76602,5.30505 -18.68052,5.60438 -5.97806,0.22613 -8.03915,0 -12.52271,-1.38895 z"
     id="path363" />
</svg>
