<?xml version="1.0" encoding="UTF-8"?>
<svg id="svg4" xmlns="http://www.w3.org/2000/svg" xmlns:svg="http://www.w3.org/2000/svg" xmlns:sodipodi="http://sodipodi.sourceforge.net/DTD/sodipodi-0.dtd" xmlns:inkscape="http://www.inkscape.org/namespaces/inkscape" version="1.1" viewBox="0 0 800 800">
  <!-- Generator: Adobe Illustrator 29.4.0, SVG Export Plug-In . SVG Version: 2.1.0 Build 152)  -->
  <defs>
    <style>
      .st0 {
        fill: #fff;
      }
    </style>
  </defs>
  <sodipodi:namedview id="namedview6" bordercolor="#000000" borderopacity="0.25" inkscape:current-layer="svg4" inkscape:cx="401.69492" inkscape:cy="400" inkscape:deskcolor="#d1d1d1" inkscape:pagecheckerboard="0" inkscape:pageopacity="0.0" inkscape:showpageshadow="2" inkscape:window-height="987" inkscape:window-maximized="1" inkscape:window-width="1536" inkscape:window-x="0" inkscape:window-y="0" inkscape:zoom="0.295" pagecolor="#ffffff" showgrid="false"/>
  <path class="st0" d="M713.8,149.3v401c0,14.1-11.4,25.5-25.4,25.5h-432.2l-124.4,129.8v-129.8h-20.1c-14.1,0-25.5-11.4-25.5-25.5V149.3c0-14.1,11.3-25.5,25.4-25.5h576.7c14.1,0,25.5,11.4,25.5,25.5ZM400,317.5c-19.2,0-34.8,15.6-34.8,34.8s15.6,34.8,34.8,34.8,34.8-15.6,34.8-34.8-15.6-34.8-34.8-34.8ZM561.1,317.5c-19.2,0-34.8,15.6-34.8,34.8s15.6,34.8,34.8,34.8,34.8-15.6,34.8-34.8-15.6-34.8-34.8-34.8ZM238.9,317.5c-19.2,0-34.8,15.6-34.8,34.8s15.6,34.8,34.8,34.8,34.8-15.6,34.8-34.8-15.6-34.8-34.8-34.8h0Z"/>
</svg>