<?xml version="1.0" encoding="UTF-8" standalone="no"?>
<svg
   shape-rendering="geometricPrecision"
   text-rendering="geometricPrecision"
   image-rendering="optimizeQuality"
   fill-rule="evenodd"
   clip-rule="evenodd"
   viewBox="0 0 500 499.99999"
   version="1.1"
   id="svg44"
   sodipodi:docname="Destroyer.svg"
   width="500"
   height="500"
   inkscape:export-filename="warship-icon.png"
   inkscape:export-xdpi="96"
   inkscape:export-ydpi="96"
   inkscape:version="1.2.2 (b0a8486541, 2022-12-01)"
   xmlns:inkscape="http://www.inkscape.org/namespaces/inkscape"
   xmlns:sodipodi="http://sodipodi.sourceforge.net/DTD/sodipodi-0.dtd"
   xmlns="http://www.w3.org/2000/svg"
   xmlns:svg="http://www.w3.org/2000/svg">
  <defs
     id="defs48" />
  <sodipodi:namedview
     id="namedview46"
     pagecolor="#ffffff"
     bordercolor="#000000"
     borderopacity="0.25"
     inkscape:showpageshadow="2"
     inkscape:pageopacity="0.0"
     inkscape:pagecheckerboard="0"
     inkscape:deskcolor="#d1d1d1"
     showgrid="false"
     inkscape:zoom="1.2877175"
     inkscape:cx="86.587311"
     inkscape:cy="266.36276"
     inkscape:window-width="1536"
     inkscape:window-height="987"
     inkscape:window-x="0"
     inkscape:window-y="0"
     inkscape:window-maximized="1"
     inkscape:current-layer="svg44" />
  <path
     d="M 5.8295895,247.16089 C 65.39826,256.02013 106.88513,262.31167 162.00809,266.85556 l 14.35936,-93.47237 c 5.31364,0 10.70442,-0.0538 16.15307,-0.12099 v -59.97127 h 17.56104 V 172.953 l 12.17026,-0.25542 v -34.25394 h 17.56104 v 33.94474 c 19.59584,-0.26887 39.07597,-0.2151 57.44707,1.0217 11.50485,1.3309 21.51493,6.54696 29.54807,16.89843 7.85955,10.13636 13.56858,24.99139 16.59668,45.68087 l 0.10608,0.73939 0.0193,0.79316 0.58827,39.24146 c 21.23526,0.68562 28.57406,1.27713 50.74475,1.80142 l 97.12095,2.33917 c 1.9673,0.0403 4.58072,2.67524 3.57778,4.98752 l -29.90488,68.79018 c -0.99329,2.28538 -1.64906,4.98752 -3.57778,4.98752 H 50.305987 c -2.237321,0 -43.357737,-96.22828 -48.0541823,-107.50734 -0.7811336,-1.86864 0.5496866,-5.4446 3.5777848,-5.00097 z M 108.38954,189.01793 H 98.5434 l -1.330822,-16.25314 c -0.125367,-1.41156 -0.858282,-2.58114 -1.861219,-2.58114 H 71.531605 c -1.002937,0 -1.735852,1.16958 -1.851576,2.58114 l -1.340464,16.25314 H 59.4385 c -1.40797,0 -2.218034,1.72077 -2.594136,3.60285 l -0.829351,4.18092 -43.12629,-9.90783 -1.475475,10.29769 41.438656,15.6213 -6.422654,32.73482 c 25.989569,3.45497 51.352302,6.42597 76.38715,9.00712 l -11.84237,-61.93402 c -0.35681,-1.90897 -1.20545,-3.60285 -2.58449,-3.60285 z m 283.25255,37.11739 h 9.8365 l 1.34046,-16.25314 c 0.11572,-1.41156 0.839,-2.58114 1.85158,-2.58114 h 23.81975 c 1.02222,0 1.7455,1.16958 1.86122,2.58114 l 1.34046,16.25314 h 8.90107 c 1.42726,0 2.21803,1.72077 2.58449,3.60285 l 0.82935,4.18092 36.30825,-7.34013 1.47547,10.29769 -34.62061,13.0536 4.45536,22.65222 -56.76238,-1.35779 -13.67466,-0.33608 7.85955,-41.15043 c 0.36646,-1.90897 1.16688,-3.60285 2.59414,-3.60285 z m -121.095,-21.68429 h 52.28774 c 4.69644,9.86749 8.04278,19.95009 9.04572,30.28811 h -61.33346 z m -35.60426,-0.0135 h 22.49857 v 31.0275 h -22.49857 z"
     id="path42"
     style="stroke-width:1.13861" />
</svg>
