<?xml version="1.0" encoding="UTF-8"?>
<!DOCTYPE svg PUBLIC "-//W3C//DTD SVG 1.1//EN" "http://www.w3.org/Graphics/SVG/1.1/DTD/svg11.dtd">
<svg xmlns="http://www.w3.org/2000/svg" version="1.1" width="512px" height="512px" style="shape-rendering:geometricPrecision; text-rendering:geometricPrecision; image-rendering:optimizeQuality; fill-rule:evenodd; clip-rule:evenodd" xmlns:xlink="http://www.w3.org/1999/xlink">
<g><path style="opacity:1" fill="#e2e3e2" d="M 233.5,-0.5 C 248.167,-0.5 262.833,-0.5 277.5,-0.5C 377.766,12.0408 449.266,64.0408 492,155.5C 502.296,180.684 508.796,206.684 511.5,233.5C 511.5,248.167 511.5,262.833 511.5,277.5C 498.959,377.766 446.959,449.266 355.5,492C 330.316,502.296 304.316,508.796 277.5,511.5C 262.833,511.5 248.167,511.5 233.5,511.5C 133.234,498.959 61.734,446.959 19,355.5C 8.70393,330.316 2.20393,304.316 -0.5,277.5C -0.5,262.833 -0.5,248.167 -0.5,233.5C 12.0408,133.234 64.0408,61.734 155.5,19C 180.684,8.70393 206.684,2.20393 233.5,-0.5 Z M 241.5,85.5 C 319.504,83.7287 376.004,117.395 411,186.5C 430.914,234.139 430.248,281.473 409,328.5C 407.066,332.759 404.732,336.759 402,340.5C 324.833,263.333 247.667,186.167 170.5,109C 192.478,95.8404 216.145,88.0071 241.5,85.5 Z M 108.5,170.5 C 185.965,247.465 263.299,324.632 340.5,402C 295.683,427.682 248.683,432.349 199.5,416C 135.83,391.192 98.3296,345.025 87,277.5C 82.1351,239.342 89.3018,203.675 108.5,170.5 Z"/></g>
</svg>
