<svg id="svg" version="1.1" xmlns="http://www.w3.org/2000/svg" xmlns:xlink="http://www.w3.org/1999/xlink" width="400" height="400" viewBox="0, 0, 400,400"><g id="svgg"><path id="path0" d="M382.422 80.600 C 382.336 84.120,382.197 86.361,382.113 85.581 C 381.984 84.375,381.692 84.015,380.165 83.181 L 378.369 82.200 306.800 82.200 L 235.231 82.200 233.415 83.192 C 232.417 83.737,231.563 84.457,231.518 84.792 C 231.473 85.126,231.321 83.060,231.181 80.200 L 230.927 75.000 230.964 81.115 C 230.991 85.625,231.136 87.313,231.514 87.547 C 231.796 87.721,231.917 88.150,231.783 88.500 C 231.424 89.435,234.553 92.558,235.580 92.289 C 236.010 92.177,236.428 92.285,236.510 92.529 C 236.617 92.851,250.184 92.980,285.829 92.999 C 331.178 93.023,335.098 93.078,336.257 93.700 C 338.140 94.712,338.944 97.570,337.883 99.479 C 337.614 99.962,315.970 121.832,289.784 148.079 C 237.651 200.333,233.532 204.557,233.864 205.423 C 233.986 205.740,233.890 206.000,233.651 206.000 C 232.890 206.000,231.659 208.926,231.896 210.169 C 232.034 210.892,231.966 211.226,231.711 211.069 C 230.754 210.477,230.345 227.237,231.261 229.474 C 231.515 230.093,231.769 230.823,231.825 231.095 C 232.083 232.340,235.642 234.623,236.695 234.219 C 236.995 234.104,237.132 234.187,236.997 234.405 C 236.836 234.665,260.700 234.797,306.676 234.791 C 385.311 234.781,378.546 235.053,381.022 231.807 L 382.151 230.326 382.204 222.663 C 382.267 213.554,381.649 211.863,377.712 210.367 C 377.190 210.168,355.059 210.004,327.338 209.994 L 277.896 209.975 277.116 208.984 C 276.687 208.439,276.166 208.097,275.958 208.226 C 275.750 208.354,275.619 208.311,275.666 208.130 C 275.714 207.948,275.622 207.251,275.462 206.580 C 274.896 204.201,275.683 203.364,326.873 151.897 C 354.716 123.904,377.984 100.417,378.581 99.703 C 380.148 97.830,382.096 93.613,381.890 92.539 C 381.794 92.036,381.858 91.712,382.033 91.820 C 382.207 91.928,382.297 91.119,382.231 90.023 C 382.165 88.927,382.271 87.976,382.466 87.911 C 382.661 87.846,382.766 84.735,382.700 80.997 L 382.579 74.200 382.422 80.600 M205.125 174.819 L 205.249 179.163 204.070 178.575 C 202.447 177.765,111.171 177.888,110.900 178.700 C 110.438 180.085,110.015 178.837,109.881 175.700 C 109.787 173.503,109.744 174.087,109.766 177.271 C 109.796 181.771,109.895 182.470,110.642 183.471 C 112.618 186.121,110.900 185.982,142.175 186.008 C 157.755 186.021,170.388 186.146,170.247 186.286 C 170.107 186.426,170.369 186.941,170.829 187.431 C 171.289 187.921,171.765 189.062,171.886 189.968 L 172.107 191.615 165.558 198.307 C 161.956 201.988,150.264 213.820,139.576 224.600 C 112.752 251.654,112.383 252.039,112.125 253.300 C 112.001 253.905,111.762 254.400,111.593 254.400 C 108.853 254.400,108.937 272.879,111.682 273.981 C 112.187 274.184,112.420 274.367,112.200 274.389 C 111.980 274.411,112.250 274.686,112.800 275.000 C 114.614 276.037,201.368 275.860,203.081 274.816 C 205.235 273.502,205.600 272.284,205.600 266.400 C 205.600 259.607,204.743 257.733,201.731 257.935 C 200.849 257.995,200.429 257.877,200.591 257.615 C 200.767 257.330,192.304 257.200,173.585 257.200 C 142.812 257.200,144.366 257.359,143.765 254.155 C 143.256 251.438,143.474 251.191,170.087 224.282 C 184.325 209.886,195.845 197.965,195.687 197.790 C 195.529 197.615,195.595 197.583,195.833 197.718 C 196.386 198.033,200.124 194.267,199.710 193.812 C 199.539 193.625,199.597 193.584,199.839 193.722 C 200.684 194.203,204.539 189.228,204.136 188.176 C 204.014 187.859,204.085 187.600,204.294 187.600 C 205.381 187.600,206.349 171.313,205.300 170.661 C 205.135 170.558,205.056 172.429,205.125 174.819 M79.128 246.826 L 79.256 250.378 78.104 249.976 C 76.174 249.304,18.692 249.659,17.861 250.349 C 17.134 250.952,16.947 253.200,17.624 253.200 C 17.857 253.200,17.937 253.378,17.802 253.597 C 17.667 253.815,18.008 254.445,18.560 254.997 L 19.564 256.000 34.613 256.000 L 49.662 256.000 50.831 257.169 C 51.792 258.131,52.000 258.673,52.000 260.225 C 52.000 262.362,52.875 261.393,31.264 283.183 C 19.244 295.303,19.891 294.151,19.942 303.339 C 19.984 310.814,20.352 312.411,21.896 311.819 C 22.196 311.703,22.359 311.742,22.259 311.905 C 22.159 312.067,34.693 312.179,50.113 312.154 L 78.149 312.107 79.075 311.031 C 80.469 309.410,80.485 300.608,79.096 298.993 L 78.191 297.942 64.032 297.985 L 49.872 298.027 48.336 296.380 C 46.192 294.081,46.205 292.389,48.387 289.910 C 49.260 288.918,49.845 287.964,49.687 287.789 C 49.529 287.615,49.599 287.585,49.842 287.724 C 50.394 288.038,52.118 286.263,51.704 285.806 C 51.537 285.622,51.599 285.585,51.842 285.724 C 52.394 286.038,54.118 284.263,53.704 283.806 C 53.537 283.622,53.599 283.585,53.842 283.724 C 54.394 284.038,56.118 282.263,55.704 281.806 C 55.537 281.622,55.600 281.586,55.845 281.725 C 56.308 281.990,59.875 278.463,59.700 277.914 C 59.645 277.741,59.735 277.637,59.900 277.683 C 60.335 277.803,77.991 259.746,78.047 259.123 C 78.073 258.835,78.073 258.465,78.047 258.300 C 78.021 258.135,78.152 258.000,78.337 258.000 C 79.364 258.000,80.287 244.075,79.300 243.460 C 79.135 243.358,79.058 244.872,79.128 246.826 M110.290 264.093 C 110.201 264.812,110.126 264.320,110.124 263.000 C 110.122 261.680,110.195 261.092,110.286 261.693 C 110.377 262.294,110.379 263.374,110.290 264.093 " stroke="none" fill="#049cdc" fill-rule="evenodd"></path><path id="path1" d="M233.800 59.746 C 233.140 60.040,231.916 60.578,231.080 60.943 C 229.401 61.676,228.999 61.966,226.871 63.980 C 225.420 65.354,224.607 66.540,223.294 69.200 C 221.703 72.423,222.287 93.200,223.968 93.200 C 224.158 93.200,224.420 93.625,224.550 94.145 C 224.847 95.326,228.690 99.140,229.900 99.453 C 230.395 99.582,230.800 99.840,230.800 100.028 C 230.800 101.509,233.602 101.600,279.121 101.600 L 323.297 101.600 316.449 108.500 C 312.683 112.295,291.466 133.625,269.301 155.900 C 247.135 178.174,228.460 197.124,227.800 198.010 C 227.140 198.897,226.381 199.868,226.114 200.169 C 225.846 200.469,225.319 201.500,224.941 202.458 C 224.564 203.416,224.132 204.290,223.981 204.400 C 223.569 204.702,222.400 209.672,222.400 211.126 C 222.400 211.827,222.233 212.400,222.029 212.400 C 221.813 212.400,221.640 216.008,221.616 221.000 C 221.588 226.675,221.714 229.600,221.987 229.600 C 222.214 229.600,222.400 230.061,222.400 230.625 C 222.400 231.941,223.591 235.600,224.019 235.600 C 224.199 235.600,224.449 235.925,224.575 236.322 C 224.902 237.352,227.733 240.205,229.284 241.068 C 230.008 241.471,230.697 241.929,230.815 242.087 C 230.934 242.244,232.119 242.652,233.450 242.993 C 237.376 243.999,379.159 243.719,381.200 242.702 C 385.117 240.748,388.477 237.755,389.284 235.500 C 389.501 234.895,389.828 234.400,390.011 234.400 C 390.849 234.400,391.249 229.617,391.124 221.104 L 390.993 212.200 389.788 210.000 C 387.677 206.146,384.446 203.450,379.400 201.335 C 378.960 201.151,358.918 200.910,334.862 200.800 L 291.124 200.600 311.362 180.339 C 322.493 169.195,331.600 159.979,331.600 159.860 C 331.600 159.740,343.660 147.580,358.400 132.839 C 373.140 118.097,385.200 105.856,385.200 105.638 C 385.200 105.419,385.439 105.096,385.731 104.920 C 386.023 104.744,386.608 103.973,387.031 103.207 C 387.454 102.441,387.988 101.610,388.219 101.360 C 388.449 101.110,388.891 100.117,389.202 99.153 C 389.512 98.189,389.901 97.304,390.066 97.187 C 392.013 95.803,392.140 70.597,390.209 68.666 C 389.932 68.389,389.577 67.756,389.419 67.260 C 389.045 66.082,384.883 61.953,383.374 61.263 C 382.728 60.968,381.660 60.428,381.000 60.063 C 379.353 59.153,235.831 58.845,233.800 59.746 M377.161 68.025 C 379.106 68.474,380.976 69.859,382.200 71.758 C 383.500 73.776,383.403 89.791,382.066 93.800 C 380.377 98.867,381.905 97.269,305.186 174.206 C 286.097 193.349,275.969 203.782,275.792 204.488 C 275.395 206.070,276.082 207.678,277.590 208.700 L 278.918 209.600 327.759 209.630 C 378.885 209.662,377.857 209.627,380.040 211.400 C 384.281 214.843,384.476 229.217,380.333 233.081 C 377.921 235.332,382.497 235.200,306.600 235.200 L 236.773 235.200 234.863 234.232 C 233.707 233.646,232.489 232.593,231.777 231.565 L 230.600 229.865 230.601 220.433 L 230.602 211.000 231.947 207.879 C 233.764 203.664,230.757 206.760,320.900 116.296 C 340.094 97.034,339.677 97.595,336.925 94.722 L 335.850 93.600 286.872 93.600 C 232.735 93.600,235.817 93.754,232.970 90.907 C 230.779 88.716,230.600 87.870,230.600 79.734 L 230.600 73.268 231.800 71.571 C 233.333 69.405,234.756 68.358,236.674 67.987 C 239.117 67.515,375.105 67.552,377.161 68.025 M110.882 159.252 C 107.699 160.170,103.914 163.148,102.931 165.509 C 102.589 166.329,102.151 167.100,101.956 167.223 C 100.229 168.311,100.466 183.415,102.265 186.870 C 104.038 190.278,107.731 193.600,109.747 193.600 C 110.069 193.600,110.408 193.825,110.500 194.100 C 110.630 194.490,115.683 194.625,133.567 194.713 L 156.467 194.825 145.303 206.113 C 139.163 212.321,127.538 224.073,119.470 232.228 C 111.401 240.383,104.800 247.331,104.800 247.666 C 104.800 248.002,104.456 248.587,104.035 248.968 C 103.615 249.349,103.035 250.457,102.748 251.430 C 102.461 252.404,102.103 253.200,101.954 253.200 C 100.670 253.200,100.396 273.065,101.648 275.400 C 102.001 276.060,102.540 277.056,102.845 277.613 C 103.937 279.607,107.221 282.467,109.231 283.175 C 110.315 283.557,111.322 283.989,111.468 284.135 C 111.837 284.504,203.902 284.470,204.067 284.100 C 204.140 283.935,205.134 283.482,206.275 283.093 C 208.908 282.195,212.066 279.115,213.053 276.483 C 213.441 275.448,213.948 274.472,214.179 274.315 C 214.826 273.876,214.750 258.717,214.100 258.500 C 213.825 258.408,213.600 258.069,213.600 257.747 C 213.600 255.973,209.167 250.400,207.755 250.400 C 207.486 250.400,207.202 250.206,207.123 249.968 C 206.688 248.663,202.446 248.413,180.700 248.406 C 168.875 248.403,159.200 248.313,159.200 248.207 C 159.200 248.100,165.365 241.794,172.900 234.192 C 206.394 200.403,209.953 196.725,211.022 194.800 C 211.450 194.030,211.914 193.310,212.053 193.200 C 212.430 192.902,213.600 189.286,213.600 188.419 C 213.600 188.005,213.825 187.592,214.100 187.500 C 214.749 187.284,214.829 169.329,214.183 168.886 C 213.954 168.729,213.514 167.816,213.205 166.857 C 212.896 165.899,212.409 165.025,212.122 164.915 C 211.835 164.805,211.600 164.493,211.600 164.223 C 211.600 163.692,208.555 160.800,207.996 160.800 C 207.810 160.800,207.419 160.563,207.129 160.272 C 205.712 158.858,203.681 158.799,157.523 158.836 C 130.207 158.858,111.676 159.023,110.882 159.252 M203.104 167.998 C 205.830 169.660,206.053 170.516,205.919 178.800 C 205.738 190.079,210.661 183.940,164.497 230.452 L 144.000 251.103 144.000 252.916 C 144.000 254.449,144.190 254.889,145.231 255.764 L 146.461 256.800 174.138 256.800 L 201.814 256.800 203.344 257.840 C 207.584 260.721,207.194 273.080,202.792 275.303 C 200.611 276.405,113.571 276.188,111.934 275.077 C 108.415 272.687,108.125 258.993,111.472 253.223 C 112.085 252.166,121.217 242.658,133.202 230.600 C 171.447 192.121,171.600 191.961,171.599 190.499 C 171.597 189.638,170.522 187.231,169.906 186.711 C 169.848 186.661,157.078 186.526,141.529 186.411 C 113.766 186.204,113.238 186.185,112.154 185.375 C 107.852 182.163,107.936 170.330,112.277 168.039 C 114.658 166.783,201.046 166.743,203.104 167.998 M17.055 232.971 C 15.985 233.261,14.995 233.657,14.855 233.850 C 14.715 234.043,14.081 234.469,13.447 234.796 C 12.813 235.124,11.823 236.023,11.247 236.796 C 10.671 237.568,10.003 238.410,9.762 238.667 C 7.622 240.946,8.056 257.513,10.292 258.920 C 10.571 259.096,10.800 259.461,10.800 259.731 C 10.800 260.394,12.706 262.021,14.629 263.000 C 15.493 263.440,16.328 263.980,16.485 264.200 C 16.658 264.443,20.735 264.650,26.850 264.726 L 36.930 264.852 25.765 276.154 C 11.806 290.284,11.702 290.425,10.765 296.439 C 10.100 300.709,10.472 311.367,11.351 313.200 C 12.822 316.272,15.097 318.859,16.800 319.400 C 17.240 319.540,17.600 319.800,17.600 319.979 C 17.600 321.030,22.097 321.200,49.877 321.198 C 77.396 321.196,81.600 321.040,81.600 320.025 C 81.600 319.839,82.005 319.577,82.500 319.443 C 84.171 318.991,87.600 315.229,87.600 313.847 C 87.600 313.528,87.825 313.192,88.100 313.100 C 88.733 312.889,88.829 296.934,88.199 296.485 C 87.979 296.328,87.529 295.660,87.199 295.000 C 86.075 292.748,82.624 289.922,80.166 289.239 C 79.277 288.992,75.099 288.803,70.500 288.802 C 66.045 288.801,62.400 288.685,62.400 288.544 C 62.400 288.308,65.990 284.599,79.332 271.051 C 87.533 262.725,88.600 260.189,88.600 249.033 C 88.600 243.335,88.477 241.425,88.100 241.300 C 87.825 241.208,87.600 240.861,87.600 240.528 C 87.600 238.700,83.996 234.698,81.000 233.200 C 79.308 232.354,20.105 232.142,17.055 232.971 M78.494 241.968 L 79.800 243.135 79.800 249.868 L 79.800 256.600 78.600 258.668 C 77.847 259.966,71.888 266.348,62.600 275.805 C 54.460 284.093,47.678 291.173,47.528 291.537 C 46.943 292.962,47.208 294.764,48.165 295.878 L 49.130 297.000 63.265 297.200 C 81.268 297.455,80.569 297.107,80.333 305.688 L 80.200 310.489 78.815 311.645 L 77.430 312.800 49.746 312.800 L 22.061 312.800 20.883 311.808 C 18.964 310.193,18.705 309.045,18.881 302.923 C 19.112 294.911,19.119 294.898,29.459 284.485 C 55.413 258.347,53.419 260.844,50.759 257.814 L 49.517 256.400 34.939 256.400 C 16.097 256.400,16.800 256.711,16.800 248.374 L 16.800 243.520 18.160 242.160 L 19.520 240.800 48.354 240.800 L 77.187 240.800 78.494 241.968 M183.515 337.529 C 183.139 337.678,179.224 337.784,174.815 337.765 C 170.407 337.745,166.800 337.880,166.800 338.065 C 166.800 338.249,165.225 338.399,163.300 338.398 C 158.179 338.394,139.501 339.214,138.800 339.473 C 138.470 339.595,136.763 339.698,135.007 339.702 C 133.252 339.706,131.542 339.851,131.207 340.026 C 130.873 340.200,127.450 340.553,123.600 340.810 C 119.750 341.067,116.427 341.384,116.216 341.514 C 116.005 341.644,115.051 341.703,114.095 341.644 C 113.140 341.585,112.142 341.710,111.879 341.922 C 111.616 342.134,109.195 342.535,106.500 342.813 C 103.805 343.091,101.600 343.433,101.600 343.572 C 101.600 343.712,101.105 343.800,100.500 343.767 C 99.895 343.734,99.220 343.837,99.000 343.995 C 98.780 344.153,97.205 344.515,95.500 344.798 C 93.795 345.081,92.400 345.452,92.400 345.621 C 92.400 345.791,91.950 345.880,91.400 345.820 C 90.850 345.759,90.400 345.844,90.400 346.008 C 90.400 346.171,89.621 346.501,88.669 346.741 C 83.614 348.014,83.464 351.625,88.400 353.178 C 89.390 353.489,90.382 353.878,90.603 354.041 C 91.143 354.437,96.204 355.600,97.391 355.600 C 97.910 355.600,98.393 355.764,98.467 355.965 C 98.540 356.166,101.300 356.635,104.600 357.007 C 107.900 357.379,110.960 357.837,111.400 358.024 C 112.313 358.413,113.908 358.577,123.400 359.263 C 127.140 359.533,130.290 359.872,130.400 360.016 C 130.510 360.161,130.870 360.286,131.200 360.294 C 133.707 360.357,144.077 360.896,145.200 361.022 C 145.970 361.108,150.605 361.302,155.500 361.453 C 160.395 361.603,164.400 361.878,164.400 362.063 C 164.400 362.249,164.760 362.400,165.200 362.400 C 165.640 362.400,166.000 362.198,166.000 361.951 C 166.000 361.639,166.152 361.628,166.500 361.914 C 167.639 362.852,255.323 362.942,255.680 362.005 C 255.746 361.832,260.210 361.562,265.600 361.404 C 270.990 361.246,275.490 361.067,275.600 361.005 C 275.710 360.944,278.547 360.766,281.905 360.611 C 288.786 360.292,289.069 360.264,289.455 359.878 C 289.608 359.725,290.468 359.601,291.367 359.603 C 294.700 359.608,308.605 358.283,308.733 357.948 C 308.807 357.756,309.437 357.601,310.133 357.602 C 311.872 357.604,320.953 356.286,321.200 355.995 C 321.310 355.866,323.155 355.435,325.300 355.038 C 327.445 354.640,329.200 354.170,329.200 353.993 C 329.200 353.815,329.939 353.545,330.842 353.393 C 331.746 353.240,332.826 352.774,333.242 352.358 C 333.659 351.941,334.160 351.600,334.357 351.600 C 336.545 351.600,334.512 348.083,331.725 347.046 C 330.886 346.734,329.840 346.342,329.400 346.176 C 328.960 346.009,328.436 345.911,328.237 345.958 C 328.037 346.004,327.767 345.885,327.637 345.694 C 327.506 345.502,325.870 345.059,324.000 344.709 C 322.130 344.359,320.150 343.949,319.600 343.796 C 319.050 343.644,316.440 343.260,313.800 342.944 C 311.160 342.628,308.730 342.226,308.400 342.051 C 308.070 341.876,306.855 341.771,305.700 341.819 C 304.545 341.866,303.600 341.777,303.600 341.621 C 303.600 341.323,293.162 340.389,289.900 340.396 C 288.855 340.398,288.000 340.216,288.000 339.990 C 288.000 339.765,287.325 339.606,286.500 339.637 C 285.675 339.669,279.780 339.405,273.400 339.052 C 267.020 338.699,259.715 338.408,257.167 338.405 C 254.618 338.402,252.398 338.265,252.233 338.100 C 251.669 337.535,184.903 336.981,183.515 337.529 " stroke="none" fill="#45433b" fill-rule="evenodd"></path><path id="path2" d="M235.883 68.787 C 234.087 69.488,232.861 70.600,231.714 72.567 C 231.387 73.127,231.239 75.363,231.261 79.400 C 231.278 82.700,231.368 85.123,231.459 84.785 C 231.551 84.446,232.437 83.726,233.428 83.185 L 235.231 82.200 306.800 82.200 L 378.369 82.200 380.165 83.181 C 381.692 84.015,381.984 84.375,382.113 85.581 C 382.197 86.361,382.296 83.830,382.333 79.955 L 382.400 72.910 381.180 71.355 C 380.509 70.500,379.114 69.397,378.080 68.905 L 376.200 68.010 307.000 68.024 C 240.333 68.037,237.730 68.065,235.883 68.787 M112.849 168.284 C 110.582 169.400,110.003 170.828,110.001 175.300 C 110.000 178.727,110.394 180.218,110.900 178.700 C 111.167 177.899,202.444 177.764,204.045 178.563 L 205.200 179.139 205.200 175.131 C 205.200 170.573,204.682 169.215,202.557 168.206 C 200.517 167.238,114.821 167.312,112.849 168.284 M19.755 241.592 C 17.850 242.362,17.200 243.866,17.200 247.503 C 17.200 250.615,17.255 250.852,17.861 250.349 C 18.682 249.668,76.172 249.303,78.076 249.967 L 79.200 250.358 79.200 247.198 C 79.200 243.262,78.720 242.127,76.836 241.603 C 75.059 241.110,20.976 241.099,19.755 241.592 M110.124 263.000 C 110.126 264.320,110.201 264.812,110.290 264.093 C 110.379 263.374,110.377 262.294,110.286 261.693 C 110.195 261.092,110.122 261.680,110.124 263.000 M19.761 303.600 C 19.761 307.010,19.822 308.405,19.897 306.700 C 19.972 304.995,19.972 302.205,19.897 300.500 C 19.822 298.795,19.761 300.190,19.761 303.600 M56.300 297.899 C 60.095 297.965,66.305 297.965,70.100 297.899 C 73.895 297.834,70.790 297.780,63.200 297.780 C 55.610 297.780,52.505 297.834,56.300 297.899 M26.900 312.287 C 27.505 312.378,28.495 312.378,29.100 312.287 C 29.705 312.195,29.210 312.120,28.000 312.120 C 26.790 312.120,26.295 312.195,26.900 312.287 M35.505 312.283 C 36.002 312.379,36.722 312.375,37.105 312.275 C 37.487 312.175,37.080 312.096,36.200 312.101 C 35.320 312.105,35.007 312.187,35.505 312.283 M49.100 312.282 C 49.595 312.378,50.405 312.378,50.900 312.282 C 51.395 312.187,50.990 312.109,50.000 312.109 C 49.010 312.109,48.605 312.187,49.100 312.282 M57.105 312.283 C 57.602 312.379,58.322 312.375,58.705 312.275 C 59.087 312.175,58.680 312.096,57.800 312.101 C 56.920 312.105,56.607 312.187,57.105 312.283 M62.500 312.276 C 62.885 312.376,63.515 312.376,63.900 312.276 C 64.285 312.175,63.970 312.093,63.200 312.093 C 62.430 312.093,62.115 312.175,62.500 312.276 M67.300 312.276 C 67.685 312.376,68.315 312.376,68.700 312.276 C 69.085 312.175,68.770 312.093,68.000 312.093 C 67.230 312.093,66.915 312.175,67.300 312.276 " stroke="none" fill="#04b9f3" fill-rule="evenodd"></path><path id="path3" d="M378.600 68.654 C 378.820 68.848,379.629 69.545,380.399 70.203 L 381.797 71.400 380.799 70.263 C 380.249 69.638,379.440 68.941,379.000 68.714 C 378.560 68.488,378.380 68.461,378.600 68.654 M382.889 80.441 C 382.840 83.654,382.717 87.434,382.615 88.841 L 382.430 91.400 382.819 89.000 C 383.033 87.680,383.156 83.900,383.093 80.600 L 382.978 74.600 382.889 80.441 M230.806 86.433 C 230.809 86.965,230.989 87.670,231.206 88.000 C 231.482 88.422,231.523 88.185,231.342 87.200 C 231.025 85.475,230.798 85.149,230.806 86.433 M236.000 92.794 C 236.330 93.011,237.035 93.191,237.567 93.194 C 238.851 93.202,238.525 92.975,236.800 92.658 C 235.815 92.477,235.578 92.518,236.000 92.794 M338.093 97.600 C 338.093 98.370,338.175 98.685,338.276 98.300 C 338.376 97.915,338.376 97.285,338.276 96.900 C 338.175 96.515,338.093 96.830,338.093 97.600 M320.598 116.900 L 303.800 133.800 320.700 117.002 C 329.995 107.763,337.600 100.158,337.600 100.102 C 337.600 99.820,336.211 101.192,320.598 116.900 M355.799 122.900 L 333.800 145.000 355.900 123.001 C 376.443 102.553,378.180 100.800,377.899 100.800 C 377.843 100.800,367.898 110.745,355.799 122.900 M204.399 169.500 C 204.922 170.215,205.413 170.800,205.489 170.800 C 205.793 170.800,204.801 169.300,204.145 168.767 C 203.713 168.416,203.810 168.696,204.399 169.500 M205.762 177.800 C 205.762 181.320,205.824 182.706,205.898 180.881 C 205.972 179.056,205.972 176.176,205.897 174.481 C 205.822 172.786,205.761 174.280,205.762 177.800 M288.798 190.300 L 275.800 203.400 288.900 190.402 C 296.105 183.254,302.000 177.359,302.000 177.302 C 302.000 177.020,300.877 178.125,288.798 190.300 M204.880 186.680 C 204.288 188.609,204.575 188.895,205.200 187.000 C 205.464 186.201,205.602 185.469,205.507 185.374 C 205.412 185.278,205.130 185.866,204.880 186.680 M171.693 190.400 C 171.693 191.170,171.775 191.485,171.876 191.100 C 171.976 190.715,171.976 190.085,171.876 189.700 C 171.775 189.315,171.693 189.630,171.693 190.400 M182.598 211.700 L 167.400 227.000 182.700 211.802 C 196.920 197.677,198.180 196.400,197.898 196.400 C 197.842 196.400,190.957 203.285,182.598 211.700 M238.166 199.700 C 236.398 201.515,234.700 203.360,234.394 203.800 C 233.751 204.726,233.575 204.898,238.188 200.100 C 240.144 198.065,241.663 196.400,241.564 196.400 C 241.464 196.400,239.935 197.885,238.166 199.700 M144.000 219.800 C 137.733 226.070,132.695 231.200,132.805 231.200 C 132.915 231.200,138.133 226.070,144.400 219.800 C 150.667 213.530,155.705 208.400,155.595 208.400 C 155.485 208.400,150.267 213.530,144.000 219.800 M303.300 209.900 C 316.665 209.958,338.535 209.958,351.900 209.900 C 365.265 209.842,354.330 209.794,327.600 209.794 C 300.870 209.794,289.935 209.842,303.300 209.900 M378.600 210.654 C 378.820 210.848,379.629 211.545,380.399 212.203 L 381.797 213.400 380.799 212.263 C 380.249 211.638,379.440 210.941,379.000 210.714 C 378.560 210.488,378.380 210.461,378.600 210.654 M230.564 221.000 C 230.563 224.740,230.623 226.324,230.697 224.520 C 230.771 222.715,230.772 219.655,230.698 217.720 C 230.625 215.784,230.564 217.260,230.564 221.000 M382.563 222.400 C 382.563 226.030,382.623 227.515,382.698 225.700 C 382.772 223.885,382.772 220.915,382.698 219.100 C 382.623 217.285,382.563 218.770,382.563 222.400 M153.797 240.900 L 143.800 251.000 153.900 241.003 C 163.285 231.713,164.180 230.800,163.897 230.800 C 163.840 230.800,159.295 235.345,153.797 240.900 M271.900 235.100 C 291.095 235.157,322.505 235.157,341.700 235.100 C 360.895 235.043,345.190 234.996,306.800 234.996 C 268.410 234.996,252.705 235.043,271.900 235.100 M19.862 241.100 C 19.693 241.372,40.287 241.369,66.800 241.092 C 72.410 241.034,64.186 240.944,48.524 240.893 C 32.862 240.842,19.964 240.935,19.862 241.100 M17.049 243.815 C 16.912 244.173,16.834 246.386,16.875 248.733 L 16.950 253.000 17.175 248.200 C 17.420 242.975,17.417 242.859,17.049 243.815 M79.757 249.200 C 79.757 252.170,79.820 253.385,79.897 251.900 C 79.974 250.415,79.974 247.985,79.897 246.500 C 79.820 245.015,79.757 246.230,79.757 249.200 M110.981 254.437 C 110.629 255.118,110.412 255.745,110.499 255.832 C 110.586 255.919,110.956 255.362,111.322 254.595 C 112.144 252.870,111.859 252.738,110.981 254.437 M78.886 257.061 C 78.639 257.865,78.596 258.360,78.790 258.161 C 79.182 257.761,79.789 255.600,79.510 255.600 C 79.414 255.600,79.132 256.258,78.886 257.061 M145.943 256.903 C 146.109 257.069,158.475 257.159,173.423 257.103 L 200.600 257.000 173.120 256.800 C 158.006 256.690,145.776 256.736,145.943 256.903 M205.755 266.600 C 205.756 269.460,205.820 270.578,205.897 269.083 C 205.974 267.589,205.974 265.249,205.896 263.883 C 205.818 262.518,205.755 263.740,205.755 266.600 M65.994 271.900 L 60.600 277.400 66.100 272.006 C 69.125 269.039,71.600 266.564,71.600 266.506 C 71.600 266.219,71.006 266.791,65.994 271.900 M48.778 289.500 L 47.400 291.000 48.900 289.622 C 49.725 288.863,50.400 288.188,50.400 288.122 C 50.400 287.816,50.062 288.104,48.778 289.500 M47.067 291.467 C 46.701 291.832,46.729 294.709,47.100 294.938 C 47.265 295.040,47.400 294.241,47.400 293.162 C 47.400 292.083,47.385 291.200,47.367 291.200 C 47.348 291.200,47.213 291.320,47.067 291.467 M48.703 296.700 L 49.645 297.600 63.122 297.510 L 76.600 297.421 62.941 297.210 C 51.634 297.036,49.152 296.897,48.522 296.400 C 48.103 296.070,48.185 296.205,48.703 296.700 M19.361 303.600 C 19.361 307.010,19.422 308.405,19.497 306.700 C 19.572 304.995,19.572 302.205,19.497 300.500 C 19.422 298.795,19.361 300.190,19.361 303.600 M80.148 304.800 C 80.148 307.110,80.214 308.055,80.295 306.900 C 80.376 305.745,80.376 303.855,80.295 302.700 C 80.214 301.545,80.148 302.490,80.148 304.800 " stroke="none" fill="#24748c" fill-rule="evenodd"></path><path id="path4" d="M272.532 67.900 C 291.634 67.957,322.774 67.957,341.732 67.900 C 360.689 67.843,345.060 67.796,307.000 67.796 C 268.940 67.796,253.429 67.843,272.532 67.900 M230.558 80.200 C 230.558 83.280,230.621 84.487,230.697 82.882 C 230.773 81.278,230.773 78.758,230.696 77.282 C 230.619 75.807,230.557 77.120,230.558 80.200 M382.893 89.200 C 382.893 89.970,382.975 90.285,383.076 89.900 C 383.176 89.515,383.176 88.885,383.076 88.500 C 382.975 88.115,382.893 88.430,382.893 89.200 M261.731 93.500 C 275.333 93.558,297.473 93.558,310.931 93.500 C 324.389 93.442,313.260 93.394,286.200 93.394 C 259.140 93.394,248.129 93.442,261.731 93.500 M337.375 141.700 L 336.200 143.000 337.500 141.825 C 338.215 141.179,338.800 140.594,338.800 140.525 C 338.800 140.216,338.470 140.488,337.375 141.700 M318.198 160.900 L 301.800 177.400 318.300 161.002 C 327.375 151.983,334.800 144.558,334.800 144.502 C 334.800 144.220,333.439 145.564,318.198 160.900 M271.996 165.500 L 263.800 173.800 272.100 165.604 C 276.665 161.096,280.400 157.361,280.400 157.304 C 280.400 157.019,279.612 157.788,271.996 165.500 M135.731 167.500 C 148.013 167.559,167.993 167.559,180.131 167.500 C 192.269 167.441,182.220 167.393,157.800 167.393 C 133.380 167.393,123.449 167.441,135.731 167.500 M109.351 176.400 C 109.351 178.930,109.416 179.965,109.496 178.700 C 109.575 177.435,109.575 175.365,109.496 174.100 C 109.416 172.835,109.351 173.870,109.351 176.400 M127.900 186.300 C 135.435 186.361,147.765 186.361,155.300 186.300 C 162.835 186.239,156.670 186.189,141.600 186.189 C 126.530 186.189,120.365 186.239,127.900 186.300 M200.589 193.700 L 197.800 196.600 200.700 193.811 C 202.295 192.277,203.600 190.972,203.600 190.911 C 203.600 190.617,203.180 191.006,200.589 193.700 M167.986 195.500 L 165.800 197.800 168.100 195.614 C 170.237 193.582,170.583 193.200,170.286 193.200 C 170.224 193.200,169.189 194.235,167.986 195.500 M176.197 218.500 L 167.400 227.400 176.300 218.603 C 181.195 213.765,185.200 209.760,185.200 209.703 C 185.200 209.420,184.370 210.230,176.197 218.500 M382.957 222.400 C 382.957 225.370,383.020 226.585,383.097 225.100 C 383.174 223.615,383.174 221.185,383.097 219.700 C 383.020 218.215,382.957 219.430,382.957 222.400 M125.396 238.500 L 118.200 245.800 125.500 238.604 C 132.282 231.919,132.981 231.200,132.696 231.200 C 132.639 231.200,129.354 234.485,125.396 238.500 M18.487 241.900 C 17.530 242.835,17.514 242.881,18.381 242.206 C 20.088 240.876,20.169 240.800,19.886 240.800 C 19.736 240.800,19.106 241.295,18.487 241.900 M27.126 256.300 C 31.155 256.365,37.635 256.365,41.526 256.299 C 45.417 256.234,42.120 256.180,34.200 256.181 C 26.280 256.181,23.097 256.234,27.126 256.300 M200.433 256.944 C 200.525 257.023,201.140 257.208,201.800 257.356 C 202.676 257.552,202.838 257.515,202.400 257.218 C 201.860 256.853,200.032 256.598,200.433 256.944 M109.358 265.400 C 109.358 268.480,109.421 269.687,109.497 268.082 C 109.573 266.478,109.573 263.958,109.496 262.482 C 109.419 261.007,109.357 262.320,109.358 265.400 M74.400 263.400 C 72.761 265.050,71.510 266.400,71.620 266.400 C 71.730 266.400,73.161 265.050,74.800 263.400 C 76.439 261.750,77.690 260.400,77.580 260.400 C 77.470 260.400,76.039 261.750,74.400 263.400 M44.596 269.300 L 37.800 276.200 44.700 269.404 C 48.495 265.667,51.600 262.562,51.600 262.504 C 51.600 262.219,50.909 262.890,44.596 269.300 M55.594 282.700 L 50.200 288.200 55.700 282.806 C 60.809 277.794,61.381 277.200,61.094 277.200 C 61.036 277.200,58.561 279.675,55.594 282.700 M18.958 303.800 C 18.958 306.880,19.021 308.087,19.097 306.482 C 19.173 304.878,19.173 302.358,19.096 300.882 C 19.019 299.407,18.957 300.720,18.958 303.800 M49.800 312.400 L 21.800 312.608 49.676 312.704 C 67.933 312.767,77.638 312.662,77.800 312.400 C 77.936 312.180,77.992 312.043,77.924 312.096 C 77.856 312.149,65.200 312.286,49.800 312.400 " stroke="none" fill="#345c64" fill-rule="evenodd"></path></g></svg>