<?xml version="1.0" encoding="UTF-8"?>
<svg id="_レイヤー_1" xmlns="http://www.w3.org/2000/svg" xmlns:xlink="http://www.w3.org/1999/xlink" version="1.1" viewBox="0 0 512 512">
  <!-- Generator: Adobe Illustrator 29.3.1, SVG Export Plug-In . SVG Version: 2.1.0 Build 151)  -->
  <defs>
    <style>
      .st0 {
        fill: #fefffe;
        fill-rule: evenodd;
      }
    </style>
  </defs>
  <path class="st0" d="M511.5,274.5v18c-3,10.2-8.6,18.7-17,25.5-44.7,35.7-89.7,71-135,106-11.9,6.4-24.6,10.4-38,12-56.3.3-112.7.7-169,1-4.6.9-9,2.5-13,5-20.8,13.6-41.8,26.9-63,40-8.5,4.4-15.6,2.9-21.5-4.5-18.5-24.4-37-48.7-55.5-73v-9c3.4-4.9,7.4-9.4,12-13.5,34.3-30.6,68.3-61.6,102-93,35.7-26.3,74-31,115-14,12.7,7.3,26,13,40,17,21.3.7,42.7.7,64,0,8.3-7.2,17-13.8,26-20,18.4-8.1,35-5.6,50,7.5,13.5-10.3,26.8-20.8,40-31.5,22.7-11,41.9-6.5,57.5,13.5,2.3,4.3,4.1,8.6,5.5,13ZM468.5,268.5c14.4,1.5,19.2,9.2,14.5,23-44.5,36.2-89.4,72-134.5,107.5-8.5,4.7-17.5,8.1-27,10-58.7,0-117.4.7-176,2-7.1,1.6-13.8,4.2-20,8-18.2,11.5-36.3,23-54.5,34.5-13.3-17.1-26.5-34.3-39.5-51.5,32.6-31,65.6-61.6,99-92,24.7-18.5,51.7-22.8,81-13,11.8,5.4,23.5,11.1,35,17,6.8,2.4,13.8,4.1,21,5,22.7.3,45.3.7,68,1,8.7,3.7,11.2,9.8,7.5,18.5-2.5,3.8-6,6-10.5,6.5-52.7,2.8-105.4,6.1-158,10-7.9,4.5-10.1,11-6.5,19.5,1.9,2.2,4,4,6.5,5.5,55.4-2.1,110.7-5.1,166-9,13.8-3.2,23.3-11.3,28.5-24.5,29.6-24.5,59.4-48.7,89.5-72.5,3-2.7,6.3-4.5,10-5.5ZM377.5,293.5c3.4.3,6.4,1.5,9,3.5l-18,15c-.7.7-1.3.7-2,0-1.8-2.6-3.8-5.1-6-7.5,4.9-5,10.6-8.6,17-11Z"/>
  <g>
    <g>
      <path class="st0" d="M203,91.9c0,36.8,27.9,66.7,62.4,66.7l33.3-12.2,1.9-4.8,2.2,3s2.4-1.6,2.8-1.8c13.6-12.2,22.2-30.6,22.2-51.1s-.8-12.5-2.4-18.2h-120.1c-1.6,5.8-2.4,11.9-2.4,18.2v.2Z"/>
      <path class="st0" d="M265.3-.4c-62.4,0-60.2,27.7-74.8,68.9h149.8C325.5,27.5,327.8-.4,265.4-.4h-.1Z"/>
      <path class="st0" d="M263.2,190.4c-1.8,1.4-4.7,4.4-9.8,9.8-14.6,15.5-10.6,15.4-7.8,18.5,2.8,3.1,3.1,8.2,17.8-7.3,8.8-9.1,10.9-11.5,10.3-13.1,1.3,0,2.6-.4,4.1-1.6,4.9-4.1,8.4-17,7.7-25.2,13.1-6,26-11.9,39.1-17.9,7.7-3.5,13.8-10,27.1-16,2.8-1.2,4.7-2.2,6.5-3,2.9-1.3,5.9-2.6,15.5-7,.2,0,.2-.6.2-1.3,4.2-1.9,8.5-3.8,12.7-5.8.7-.4-.2-2.8-1-2.5-4.2,1.9-8.3,3.7-12.4,5.5,0-.1,0-.2-.1-.4,4.6-2,9.1-4.1,13.7-6.1.7-.4-1.7-6.4-2.4-6.1-.8.4-1.6.7-2.4,1.1l-.8-2-3.2,1.4.8,2c-2.9,1.3-5.6,2.5-8.5,3.8-.4-.4-.7-.6-1-.5-9.5,4.2-15.4,7-15.4,7l-9.4,4.2-42.2,19-1.9-4.1s.4,2.3.5,4.7l-55.7,25.1c-.8.4-1.7.8-2.5,1.4l-9.2.6s3.1.7,6.1,1.7c-9.4,7.2-21.6,21.2-30.1,28.2-13.3,17.3-21.1,9.6-21.1,9.6,0,0-18.8,13.2-31.4,18.8,0,0,9.7,7.2,12.2,10.4,4,5,10.7,19.8,10.7,19.8l83.1-73h.2ZM269,185.1c1.4,3.4,3.4,6.2,5.8,6.4,0,0-3-4.1-4.4-7.4l10.7-9.5c2,3.5,0,15.1-4.3,18.7-4.6,3.8-8.5-2-11.3-4.6,0,0-.1-.1-.2-.2l3.8-3.4h0ZM271.3,197.6c1.9,2,1,3.1-8.8,13.2-12.8,13.4-12.8,8.8-15.2,6s-6.2-2.3,6.5-15.7c6.1-6.4,8.8-9.1,10.3-9.7,1.9,2,4.4,4.9,7.2,6.2h0Z"/>
      <path class="st0" d="M139.5,238.3l46.1-27.7s10,9.8,26.9-12.1c10.8-8.9,12.2-12.5,24.1-21.7-3.7-1.2-7.7-2.2-7.7-2.2l12-1.6c1.1-.7,2.2-1.3,3.2-1.8l8.2-3.7c-20.4-3.6-38-15.5-50.1-32.3-37.5,20.6-62.7,59-62.7,103"/>
      <path class="st0" d="M345.5,146.5c-.2,0-.5.2-.7.4-16.6,7.6-40.3,18.6-56.9,26.1,1.1,10.4-.2,20.5-6.4,25.7-1.8,1.4-3.5,2-5.2,1.9.8,2-2,5-13.1,16.7-12.6,13.3-14.9,7.4-18.4,3.5-3.5-4-5.5-4.7-4-8.4l-25.5,26.3h175.8c0-37.1-17.9-70-45.8-92h0Z"/>
    </g>
    <g>
      <path class="st0" d="M48.6,85.8c0,28.3,21.5,51.2,47.9,51.2l25.5-9.4,1.4-3.7,1.7,2.3s1.9-1.2,2-1.3c10.4-9.4,17-23.4,17-39.1s-.6-9.6-1.8-14H50.3c-1.2,4.4-1.8,9.1-1.8,14h.1Z"/>
      <path class="st0" d="M96.4,15c-47.9,0-46.2,21.2-57.5,52.8h114.8c-11.3-31.5-9.6-52.8-57.5-52.8h.1Z"/>
      <path class="st0" d="M94.8,161.3c-1.4,1.1-3.6,3.4-7.6,7.6-11.3,11.9-8,11.8-6,14.2,2.2,2.4,2.4,6.2,13.7-5.6,6.7-7,8.4-8.9,7.9-10.1,1,0,2-.2,3.1-1.2,3.7-3.1,6.5-13.1,5.9-19.3,10-4.6,20-9.1,30-13.7,5.9-2.6,10.6-7.6,20.8-12.2,2.2-1,3.6-1.7,5-2.3,2.2-1,4.6-2,11.9-5.3.2,0,.2-.5.1-1,3.2-1.4,6.5-2.9,9.8-4.4.6-.2-.2-2.2-.7-1.9-3.1,1.4-6.4,2.9-9.5,4.3v-.4c3.5-1.6,7-3.1,10.4-4.7.6-.2-1.3-4.9-1.8-4.7-.6.2-1.2.5-1.8.8l-.6-1.6-2.4,1.1.6,1.6c-2.2,1-4.3,1.9-6.5,2.9-.2-.4-.5-.5-.7-.4-7.2,3.2-11.8,5.3-11.8,5.3l-7.1,3.2-32.4,14.6-1.4-3.1s.2,1.7.4,3.6l-42.7,19.2c-.6.2-1.3.6-1.9,1.1l-7.1.4s2.4.6,4.7,1.3c-7.2,5.5-16.6,16.3-23.2,21.6-10.2,13.3-16.2,7.3-16.2,7.3,0,0-14.4,10.1-24.1,14.4,0,0,7.4,5.5,9.4,8,3,3.8,8.2,15.2,8.2,15.2l63.8-56h-.2ZM99.2,157.3c1.1,2.5,2.5,4.8,4.4,4.9,0,0-2.4-3.1-3.4-5.8l8.3-7.2c1.6,2.6,0,11.6-3.4,14.4-3.5,2.9-6.5-1.6-8.6-3.5,0,0-.1-.1-.2-.2l2.9-2.5h0ZM101,166.8c1.6,1.6.7,2.4-6.7,10.2-9.8,10.3-9.8,6.7-11.8,4.7s-4.8-1.8,5-12.1c4.7-4.9,6.7-7,7.9-7.4,1.6,1.6,3.4,3.8,5.5,4.8h0Z"/>
      <path class="st0" d="M55.9,167.4c8.3-6.8,9.4-9.6,18.5-16.7-2.9-1-5.9-1.7-5.9-1.7l9.2-1.2c.8-.6,1.7-1,2.5-1.3l6.2-2.9c-15.6-2.8-29.1-11.9-38.4-24.7C19.3,134.8,0,164.3,0,198l35.4-21.4s7.7,7.6,20.6-9.4h-.1Z"/>
      <path class="st0" d="M157.7,169.7c4.9-8.9,11.3-16.8,19.4-21.8-5.3-7.7-11.9-14.5-19.3-20.4-.1,0-.4.1-.5.2-12.7,5.8-30.9,14.3-43.7,20,.8,8-.1,15.7-4.9,19.7-1.3,1.1-2.6,1.6-4,1.4.6,1.6-1.6,3.8-10.1,12.7-9.7,10.2-11.4,5.6-14.2,2.6s-4.2-3.6-3-6.5l-19.6,20.2h84.4c3.1-10.4,10-18.8,15.2-28.3h0Z"/>
    </g>
    <g>
      <path class="st0" d="M461.3,71.4h-92.1c-1.2,4.4-1.8,9.1-1.8,14,0,10.2,2.8,19.6,7.6,27.6,3.4-1.8,9.4-5.8,11.8-1.3s2.3,5.2,2,7.6c-.2,1.9-.5,2.5-2.4,2.9-.4.4-2.8,1-3.1,1.2,8.5,8.3,19.8,13.3,32.1,13.3l25.5-9.4,1.4-3.7,1.7,2.3s1.9-1.2,2-1.3c10.4-9.4,17-23.4,17-39.1s-.6-9.6-1.8-14h0Z"/>
      <path class="st0" d="M415.4,14.6c-47.9,0-46.2,21.2-57.5,52.8h114.8c-11.3-31.5-9.6-52.8-57.5-52.8h.1Z"/>
      <path class="st0" d="M507.5,105.7c-3.1,1.4-6.4,2.9-9.5,4.3v-.4c3.5-1.6,7-3.1,10.4-4.7.6-.2-1.3-4.9-1.8-4.7-.6.2-1.2.5-1.8.8l-.6-1.6-2.4,1.1.6,1.6c-2.2,1-4.3,1.9-6.5,2.9-.2-.4-.5-.5-.7-.4-7.2,3.2-11.8,5.3-11.8,5.3l-7.1,3.2-32.4,14.6-1.4-3.1s.2,1.7.4,3.6l-42.7,19.2c-.6.2-1.3.6-1.9,1.1l-7.1.4s2.4.6,4.7,1.3c-5.8,4.4-13,12.2-19,18,1.6,2.3,3.1,4.6,4.7,6.7,2.2,3,3.8,6.2,5.2,9.6l27-23.7h0c-1.4,1.1-3.6,3.4-7.6,7.6-11.3,11.9-8,11.8-6,14.2,2.2,2.4,2.4,6.2,13.7-5.6,6.7-7,8.4-8.9,7.9-10.1,1,0,2-.2,3.1-1.2,3.7-3.1,6.5-13.1,5.9-19.3,10-4.6,20-9.1,30-13.7,5.9-2.6,10.6-7.6,20.8-12.2,2.2-1,3.6-1.7,5-2.3,2.2-1,4.6-2,11.9-5.3.2,0,.2-.5.1-1,3.2-1.4,6.5-2.9,9.8-4.4.6-.2-.2-2.2-.7-1.9h-.2ZM413.2,176.6c-9.8,10.3-9.8,6.7-11.8,4.7s-4.8-1.8,5-12.1c4.7-4.9,6.7-7,7.9-7.4,1.6,1.6,3.4,3.8,5.5,4.8,1.6,1.6.7,2.4-6.7,10.2h0ZM424,163.1c-3.5,2.9-6.5-1.6-8.6-3.5,0,0-.1-.1-.2-.2l2.9-2.5c1.1,2.5,2.5,4.8,4.4,4.9,0,0-2.4-3.1-3.4-5.8l8.3-7.2c1.6,2.6,0,11.6-3.4,14.4h0Z"/>
      <path class="st0" d="M376,128.8s-.2.2-.4.4c-7.2,6-16,11.5-25.1,13.9,4.2,1.9,8.2,4.8,11.6,7.8,5,4.4,9.2,10,13.2,15.6,7.7-6.4,8.9-9.2,17.8-16.1-2.9-1-5.9-1.7-5.9-1.7l9.2-1.2c.8-.6,1.7-1,2.5-1.3l6.2-2.9c-11-1.9-21.1-7.1-29.3-14.5h0Z"/>
      <path class="st0" d="M387.4,186.9c1.2,3.5,2.2,7.1,3,10.8h121.4c0-28.4-13.7-53.7-35.1-70.5-.1,0-.4.1-.5.2-12.7,5.8-30.9,14.3-43.7,20,.8,8-.1,15.7-4.9,19.7-1.3,1.1-2.6,1.6-4,1.4.6,1.6-1.6,3.8-10.1,12.7-9.7,10.2-11.4,5.6-14.2,2.6s-4.2-3.6-3-6.5l-9.1,9.4h.1Z"/>
    </g>
  </g>
</svg>