<?xml version="1.0" encoding="UTF-8"?>
<!DOCTYPE svg PUBLIC "-//W3C//DTD SVG 1.1//EN" "http://www.w3.org/Graphics/SVG/1.1/DTD/svg11.dtd">
<svg xmlns="http://www.w3.org/2000/svg" version="1.1" width="388px" height="388px" style="shape-rendering:geometricPrecision; text-rendering:geometricPrecision; image-rendering:optimizeQuality; fill-rule:evenodd; clip-rule:evenodd" xmlns:xlink="http://www.w3.org/1999/xlink">
<g><path style="opacity:0.009" fill="#1e1f1e" d="M 173.5,-0.5 C 176.833,-0.5 180.167,-0.5 183.5,-0.5C 180.167,0.833333 176.833,0.833333 173.5,-0.5 Z"/></g>
<g><path style="opacity:0.009" fill="#1e1f1e" d="M 203.5,-0.5 C 206.833,-0.5 210.167,-0.5 213.5,-0.5C 210.167,0.833333 206.833,0.833333 203.5,-0.5 Z"/></g>
<g><path style="opacity:0.009" fill="#1e1f1e" d="M 165.5,1.5 C 167.288,0.377527 169.288,0.210861 171.5,1C 169.527,1.49546 167.527,1.66212 165.5,1.5 Z"/></g>
<g><path style="opacity:1" fill="#fefffe" d="M 245.5,7.5 C 246.568,8.43448 247.901,8.76781 249.5,8.5C 250.209,9.40397 251.209,9.73731 252.5,9.5C 253.209,10.404 254.209,10.7373 255.5,10.5C 256.209,11.404 257.209,11.7373 258.5,11.5C 259.78,12.9313 261.447,13.5979 263.5,13.5C 265.509,15.0652 267.843,16.0652 270.5,16.5C 273.979,18.4031 277.646,20.0698 281.5,21.5C 281.842,22.3382 282.508,22.6716 283.5,22.5C 285.336,24.588 287.669,25.9213 290.5,26.5C 292.822,28.664 295.489,30.3307 298.5,31.5C 320.124,46.1241 338.458,64.1241 353.5,85.5C 354.669,88.5113 356.336,91.178 358.5,93.5C 359.584,96.0041 360.917,98.3374 362.5,100.5C 362.427,102.027 363.094,103.027 364.5,103.5C 364.992,105.819 365.992,107.819 367.5,109.5C 367.328,110.492 367.662,111.158 368.5,111.5C 368.707,114.241 369.707,116.574 371.5,118.5C 371.402,120.553 372.069,122.22 373.5,123.5C 373.402,125.553 374.069,127.22 375.5,128.5C 375.263,129.791 375.596,130.791 376.5,131.5C 376.263,132.791 376.596,133.791 377.5,134.5C 377.263,135.791 377.596,136.791 378.5,137.5C 378.232,139.099 378.566,140.432 379.5,141.5C 379.898,145.761 380.898,149.761 382.5,153.5C 382.216,155.415 382.549,157.081 383.5,158.5C 384.856,170.128 385.856,181.795 386.5,193.5C 385.856,205.205 384.856,216.872 383.5,228.5C 382.549,229.919 382.216,231.585 382.5,233.5C 380.898,237.239 379.898,241.239 379.5,245.5C 378.076,247.515 377.41,249.848 377.5,252.5C 376.596,253.209 376.263,254.209 376.5,255.5C 375.596,256.209 375.263,257.209 375.5,258.5C 374.069,259.78 373.402,261.447 373.5,263.5C 372.069,264.78 371.402,266.447 371.5,268.5C 370.662,268.842 370.328,269.508 370.5,270.5C 369.069,271.78 368.402,273.447 368.5,275.5C 367.662,275.842 367.328,276.508 367.5,277.5C 366.662,277.842 366.328,278.508 366.5,279.5C 365.662,279.842 365.328,280.508 365.5,281.5C 364.662,281.842 364.328,282.508 364.5,283.5C 363.094,283.973 362.427,284.973 362.5,286.5C 361.662,286.842 361.328,287.508 361.5,288.5C 360.662,288.842 360.328,289.508 360.5,290.5C 359.094,290.973 358.427,291.973 358.5,293.5C 357.662,293.842 357.328,294.508 357.5,295.5C 356.833,295.5 356.5,295.833 356.5,296.5C 355.662,296.842 355.328,297.508 355.5,298.5C 354.094,298.973 353.427,299.973 353.5,301.5C 352.833,301.5 352.5,301.833 352.5,302.5C 351.662,302.842 351.328,303.508 351.5,304.5C 350.833,304.5 350.5,304.833 350.5,305.5C 349.662,305.842 349.328,306.508 349.5,307.5C 348.833,307.5 348.5,307.833 348.5,308.5C 347.833,308.5 347.5,308.833 347.5,309.5C 346.662,309.842 346.328,310.508 346.5,311.5C 345.833,311.5 345.5,311.833 345.5,312.5C 344.833,312.5 344.5,312.833 344.5,313.5C 343.833,313.5 343.5,313.833 343.5,314.5C 342.662,314.842 342.328,315.508 342.5,316.5C 341.833,316.5 341.5,316.833 341.5,317.5C 340.833,317.5 340.5,317.833 340.5,318.5C 339.833,318.5 339.5,318.833 339.5,319.5C 337.11,320.891 335.443,322.891 334.5,325.5C 333.833,325.5 333.5,325.833 333.5,326.5C 332.833,326.5 332.5,326.833 332.5,327.5C 331.833,327.5 331.5,327.833 331.5,328.5C 330.833,328.5 330.5,328.833 330.5,329.5C 329.833,329.5 329.5,329.833 329.5,330.5C 328.833,330.5 328.5,330.833 328.5,331.5C 327.833,331.5 327.5,331.833 327.5,332.5C 326.833,332.5 326.5,332.833 326.5,333.5C 325.833,333.5 325.5,333.833 325.5,334.5C 322.891,335.443 320.891,337.11 319.5,339.5C 318.833,339.5 318.5,339.833 318.5,340.5C 317.833,340.5 317.5,340.833 317.5,341.5C 316.833,341.5 316.5,341.833 316.5,342.5C 315.508,342.328 314.842,342.662 314.5,343.5C 313.833,343.5 313.5,343.833 313.5,344.5C 312.833,344.5 312.5,344.833 312.5,345.5C 311.833,345.5 311.5,345.833 311.5,346.5C 310.508,346.328 309.842,346.662 309.5,347.5C 308.833,347.5 308.5,347.833 308.5,348.5C 307.833,348.5 307.5,348.833 307.5,349.5C 306.508,349.328 305.842,349.662 305.5,350.5C 304.833,350.5 304.5,350.833 304.5,351.5C 303.508,351.328 302.842,351.662 302.5,352.5C 301.833,352.5 301.5,352.833 301.5,353.5C 299.973,353.427 298.973,354.094 298.5,355.5C 297.508,355.328 296.842,355.662 296.5,356.5C 295.833,356.5 295.5,356.833 295.5,357.5C 294.508,357.328 293.842,357.662 293.5,358.5C 291.973,358.427 290.973,359.094 290.5,360.5C 289.508,360.328 288.842,360.662 288.5,361.5C 287.508,361.328 286.842,361.662 286.5,362.5C 284.973,362.427 283.973,363.094 283.5,364.5C 282.508,364.328 281.842,364.662 281.5,365.5C 280.508,365.328 279.842,365.662 279.5,366.5C 278.508,366.328 277.842,366.662 277.5,367.5C 276.508,367.328 275.842,367.662 275.5,368.5C 273.447,368.402 271.78,369.069 270.5,370.5C 269.508,370.328 268.842,370.662 268.5,371.5C 266.447,371.402 264.78,372.069 263.5,373.5C 261.447,373.402 259.78,374.069 258.5,375.5C 257.209,375.263 256.209,375.596 255.5,376.5C 254.209,376.263 253.209,376.596 252.5,377.5C 251.209,377.263 250.209,377.596 249.5,378.5C 247.901,378.232 246.568,378.566 245.5,379.5C 216.774,386.761 187.774,388.094 158.5,383.5C 157.081,382.549 155.415,382.216 153.5,382.5C 149.761,380.898 145.761,379.898 141.5,379.5C 139.485,378.076 137.152,377.41 134.5,377.5C 133.791,376.596 132.791,376.263 131.5,376.5C 130.791,375.596 129.791,375.263 128.5,375.5C 127.22,374.069 125.553,373.402 123.5,373.5C 122.22,372.069 120.553,371.402 118.5,371.5C 116.574,369.707 114.241,368.707 111.5,368.5C 111.158,367.662 110.492,367.328 109.5,367.5C 109.158,366.662 108.492,366.328 107.5,366.5C 107.158,365.662 106.492,365.328 105.5,365.5C 105.158,364.662 104.492,364.328 103.5,364.5C 103.027,363.094 102.027,362.427 100.5,362.5C 98.3374,360.917 96.0041,359.584 93.5,358.5C 91.178,356.336 88.5113,354.669 85.5,353.5C 64.1241,338.458 46.1241,320.124 31.5,298.5C 30.3307,295.489 28.664,292.822 26.5,290.5C 25.9213,287.669 24.588,285.336 22.5,283.5C 22.6716,282.508 22.3382,281.842 21.5,281.5C 20.0698,277.646 18.4031,273.979 16.5,270.5C 16.0652,267.843 15.0652,265.509 13.5,263.5C 13.5979,261.447 12.9313,259.78 11.5,258.5C 11.7373,257.209 11.404,256.209 10.5,255.5C 10.7373,254.209 10.404,253.209 9.5,252.5C 9.73731,251.209 9.40397,250.209 8.5,249.5C 8.76781,247.901 8.43448,246.568 7.5,245.5C 7.10161,241.239 6.10161,237.239 4.5,233.5C 4.78448,231.585 4.45115,229.919 3.5,228.5C 2.14393,216.872 1.14393,205.205 0.5,193.5C 1.14393,181.795 2.14393,170.128 3.5,158.5C 4.45115,157.081 4.78448,155.415 4.5,153.5C 6.43496,148.427 7.7683,143.094 8.5,137.5C 9.40397,136.791 9.73731,135.791 9.5,134.5C 10.404,133.791 10.7373,132.791 10.5,131.5C 11.404,130.791 11.7373,129.791 11.5,128.5C 12.9313,127.22 13.5979,125.553 13.5,123.5C 16.8704,117.078 19.8704,110.412 22.5,103.5C 41.8333,68.8333 68.8333,41.8333 103.5,22.5C 106.485,21.6743 109.151,20.341 111.5,18.5C 115.787,17.3517 119.787,15.685 123.5,13.5C 125.553,13.5979 127.22,12.9313 128.5,11.5C 129.791,11.7373 130.791,11.404 131.5,10.5C 132.791,10.7373 133.791,10.404 134.5,9.5C 141.054,8.27935 147.388,6.61268 153.5,4.5C 155.415,4.78448 157.081,4.45115 158.5,3.5C 187.774,-1.09428 216.774,0.239056 245.5,7.5 Z M 223.5,37.5 C 226.781,37.4203 229.781,38.087 232.5,39.5C 234.099,39.2322 235.432,39.5655 236.5,40.5C 237.791,40.2627 238.791,40.596 239.5,41.5C 242.916,41.5275 245.916,42.5275 248.5,44.5C 249.791,44.2627 250.791,44.596 251.5,45.5C 253.553,45.4021 255.22,46.0687 256.5,47.5C 255.761,47.369 255.094,47.5357 254.5,48C 256.167,48.8333 257.833,49.6667 259.5,50.5C 260.107,50.3764 260.44,50.0431 260.5,49.5C 263.089,49.461 265.089,50.461 266.5,52.5C 267.492,52.3284 268.158,52.6618 268.5,53.5C 269.492,53.3284 270.158,53.6618 270.5,54.5C 269.262,54.81 269.262,55.31 270.5,56C 272.081,56.7065 273.581,57.5399 275,58.5C 275.399,58.2716 275.565,57.9382 275.5,57.5C 276.492,57.3284 277.158,57.6618 277.5,58.5C 276.262,58.81 276.262,59.31 277.5,60C 282.263,62.7976 286.763,65.9643 291,69.5C 291.399,69.2716 291.565,68.9382 291.5,68.5C 293.027,68.427 294.027,69.0937 294.5,70.5C 294.372,72.1292 295.372,73.4625 297.5,74.5C 297.5,75.1667 297.833,75.5 298.5,75.5C 303.167,79.5 307.5,83.8333 311.5,88.5C 311.5,89.1667 311.833,89.5 312.5,89.5C 313.538,91.6277 314.871,92.6277 316.5,92.5C 317.906,92.9731 318.573,93.9731 318.5,95.5C 318.062,95.4346 317.728,95.6012 317.5,96C 322.621,102.405 327.121,109.238 331,116.5C 331.69,117.738 332.19,117.738 332.5,116.5C 333.338,116.842 333.672,117.508 333.5,118.5C 334.338,118.842 334.672,119.508 334.5,120.5C 336.104,121.287 336.771,122.62 336.5,124.5C 337.338,124.842 337.672,125.508 337.5,126.5C 336.957,126.56 336.624,126.893 336.5,127.5C 337.333,129.167 338.167,130.833 339,132.5C 339.464,131.906 339.631,131.239 339.5,130.5C 340.404,131.209 340.737,132.209 340.5,133.5C 339.535,134.721 339.702,136.054 341,137.5C 341.464,136.906 341.631,136.239 341.5,135.5C 342.404,136.209 342.737,137.209 342.5,138.5C 344.472,141.084 345.472,144.084 345.5,147.5C 344.903,147.735 344.57,148.235 344.5,149C 345,150.5 345.5,152 346,153.5C 346.483,152.552 346.649,151.552 346.5,150.5C 347.434,151.568 347.768,152.901 347.5,154.5C 351.201,167.101 352.867,180.101 352.5,193.5C 352.867,206.899 351.201,219.899 347.5,232.5C 347.768,234.099 347.434,235.432 346.5,236.5C 346.649,235.448 346.483,234.448 346,233.5C 345.5,235 345,236.5 344.5,238C 344.57,238.765 344.903,239.265 345.5,239.5C 345.472,242.916 344.472,245.916 342.5,248.5C 342.737,249.791 342.404,250.791 341.5,251.5C 341.631,250.761 341.464,250.094 341,249.5C 339.702,250.946 339.535,252.279 340.5,253.5C 340.737,254.791 340.404,255.791 339.5,256.5C 339.631,255.761 339.464,255.094 339,254.5C 338.167,256.167 337.333,257.833 336.5,259.5C 336.624,260.107 336.957,260.44 337.5,260.5C 337.672,261.492 337.338,262.158 336.5,262.5C 336.672,263.492 336.338,264.158 335.5,264.5C 335.672,265.492 335.338,266.158 334.5,266.5C 334.672,267.492 334.338,268.158 333.5,268.5C 333.672,269.492 333.338,270.158 332.5,270.5C 332.19,269.262 331.69,269.262 331,270.5C 328.626,274.75 326.126,278.916 323.5,283C 323.728,283.399 324.062,283.565 324.5,283.5C 324.573,285.027 323.906,286.027 322.5,286.5C 321.671,285.668 320.838,286.001 320,287.5C 319.535,288.931 318.701,290.097 317.5,291C 317.728,291.399 318.062,291.565 318.5,291.5C 318.573,293.027 317.906,294.027 316.5,294.5C 314.871,294.372 313.538,295.372 312.5,297.5C 311.833,297.5 311.5,297.833 311.5,298.5C 310.094,298.973 309.427,299.973 309.5,301.5C 306.5,303.833 303.833,306.5 301.5,309.5C 299.973,309.427 298.973,310.094 298.5,311.5C 297.833,311.5 297.5,311.833 297.5,312.5C 295.372,313.538 294.372,314.871 294.5,316.5C 294.027,317.906 293.027,318.573 291.5,318.5C 291.565,318.062 291.399,317.728 291,317.5C 284.595,322.621 277.762,327.121 270.5,331C 269.262,331.69 269.262,332.19 270.5,332.5C 270.158,333.338 269.492,333.672 268.5,333.5C 268.158,334.338 267.492,334.672 266.5,334.5C 265.713,336.104 264.38,336.771 262.5,336.5C 262.158,337.338 261.492,337.672 260.5,337.5C 260.44,336.957 260.107,336.624 259.5,336.5C 257.833,337.333 256.167,338.167 254.5,339C 255.094,339.464 255.761,339.631 256.5,339.5C 255.791,340.404 254.791,340.737 253.5,340.5C 252.279,339.535 250.946,339.702 249.5,341C 250.094,341.464 250.761,341.631 251.5,341.5C 250.791,342.404 249.791,342.737 248.5,342.5C 245.916,344.472 242.916,345.472 239.5,345.5C 239.265,344.903 238.765,344.57 238,344.5C 236.5,345 235,345.5 233.5,346C 234.448,346.483 235.448,346.649 236.5,346.5C 235.432,347.434 234.099,347.768 232.5,347.5C 229.781,348.913 226.781,349.58 223.5,349.5C 213.783,351.876 203.783,352.876 193.5,352.5C 180.101,352.867 167.101,351.201 154.5,347.5C 151.848,347.59 149.515,346.924 147.5,345.5C 144.084,345.472 141.084,344.472 138.5,342.5C 137.209,342.737 136.209,342.404 135.5,341.5C 136.239,341.631 136.906,341.464 137.5,341C 136.054,339.702 134.721,339.535 133.5,340.5C 132.209,340.737 131.209,340.404 130.5,339.5C 131.239,339.631 131.906,339.464 132.5,339C 130.833,338.167 129.167,337.333 127.5,336.5C 126.893,336.624 126.56,336.957 126.5,337.5C 125.508,337.672 124.842,337.338 124.5,336.5C 123.508,336.672 122.842,336.338 122.5,335.5C 121.508,335.672 120.842,335.338 120.5,334.5C 119.508,334.672 118.842,334.338 118.5,333.5C 117.508,333.672 116.842,333.338 116.5,332.5C 117.738,332.19 117.738,331.69 116.5,331C 112.25,328.626 108.084,326.126 104,323.5C 103.601,323.728 103.435,324.062 103.5,324.5C 101.973,324.573 100.973,323.906 100.5,322.5C 101.332,321.671 100.999,320.838 99.5,320C 98.0692,319.535 96.9025,318.701 96,317.5C 95.6012,317.728 95.4346,318.062 95.5,318.5C 93.9731,318.573 92.9731,317.906 92.5,316.5C 92.6277,314.871 91.6277,313.538 89.5,312.5C 89.5,311.833 89.1667,311.5 88.5,311.5C 88.0269,310.094 87.0269,309.427 85.5,309.5C 83.1667,306.5 80.5,303.833 77.5,301.5C 77.573,299.973 76.9063,298.973 75.5,298.5C 75.5,297.833 75.1667,297.5 74.5,297.5C 73.4625,295.372 72.1292,294.372 70.5,294.5C 69.0937,294.027 68.427,293.027 68.5,291.5C 68.9382,291.565 69.2716,291.399 69.5,291C 64.3787,284.595 59.8787,277.762 56,270.5C 55.31,269.262 54.81,269.262 54.5,270.5C 53.6618,270.158 53.3284,269.492 53.5,268.5C 52.6618,268.158 52.3284,267.492 52.5,266.5C 50.8958,265.713 50.2291,264.38 50.5,262.5C 49.6618,262.158 49.3284,261.492 49.5,260.5C 50.0431,260.44 50.3764,260.107 50.5,259.5C 49.6667,257.833 48.8333,256.167 48,254.5C 47.5357,255.094 47.369,255.761 47.5,256.5C 46.596,255.791 46.2627,254.791 46.5,253.5C 47.4646,252.279 47.298,250.946 46,249.5C 45.5357,250.094 45.369,250.761 45.5,251.5C 44.596,250.791 44.2627,249.791 44.5,248.5C 42.5275,245.916 41.5275,242.916 41.5,239.5C 40.596,238.791 40.2627,237.791 40.5,236.5C 39.5655,235.432 39.2322,234.099 39.5,232.5C 35.7993,219.899 34.1327,206.899 34.5,193.5C 34.1327,180.101 35.7993,167.101 39.5,154.5C 39.2322,152.901 39.5655,151.568 40.5,150.5C 40.2627,149.209 40.596,148.209 41.5,147.5C 41.5275,144.084 42.5275,141.084 44.5,138.5C 44.2627,137.209 44.596,136.209 45.5,135.5C 45.4021,133.447 46.0687,131.78 47.5,130.5C 47.369,131.239 47.5357,131.906 48,132.5C 48.8333,130.833 49.6667,129.167 50.5,127.5C 50.3764,126.893 50.0431,126.56 49.5,126.5C 49.3284,125.508 49.6618,124.842 50.5,124.5C 50.2291,122.62 50.8958,121.287 52.5,120.5C 52.3284,119.508 52.6618,118.842 53.5,118.5C 53.3284,117.508 53.6618,116.842 54.5,116.5C 54.81,117.738 55.31,117.738 56,116.5C 56.7065,114.919 57.5399,113.419 58.5,112C 58.2716,111.601 57.9382,111.435 57.5,111.5C 57.3284,110.508 57.6618,109.842 58.5,109.5C 58.81,110.738 59.31,110.738 60,109.5C 62.7976,104.737 65.9643,100.237 69.5,96C 69.2716,95.6012 68.9382,95.4346 68.5,95.5C 68.427,93.9731 69.0937,92.9731 70.5,92.5C 72.1292,92.6277 73.4625,91.6277 74.5,89.5C 75.1667,89.5 75.5,89.1667 75.5,88.5C 79.5,83.8333 83.8333,79.5 88.5,75.5C 89.1667,75.5 89.5,75.1667 89.5,74.5C 91.6277,73.4625 92.6277,72.1292 92.5,70.5C 92.9731,69.0937 93.9731,68.427 95.5,68.5C 95.4346,68.9382 95.6012,69.2716 96,69.5C 102.405,64.3787 109.238,59.8787 116.5,56C 117.738,55.31 117.738,54.81 116.5,54.5C 116.842,53.6618 117.508,53.3284 118.5,53.5C 118.842,52.6618 119.508,52.3284 120.5,52.5C 120.842,51.6618 121.508,51.3284 122.5,51.5C 122.842,50.6618 123.508,50.3284 124.5,50.5C 124.842,49.6618 125.508,49.3284 126.5,49.5C 126.56,50.0431 126.893,50.3764 127.5,50.5C 129.167,49.6667 130.833,48.8333 132.5,48C 131.906,47.5357 131.239,47.369 130.5,47.5C 131.209,46.596 132.209,46.2627 133.5,46.5C 134.721,47.4646 136.054,47.298 137.5,46C 136.906,45.5357 136.239,45.369 135.5,45.5C 136.209,44.596 137.209,44.2627 138.5,44.5C 141.084,42.5275 144.084,41.5275 147.5,41.5C 149.515,40.0762 151.848,39.4095 154.5,39.5C 167.101,35.7993 180.101,34.1327 193.5,34.5C 203.783,34.124 213.783,35.124 223.5,37.5 Z M 89.5,73.5 C 89.5,73.8333 89.5,74.1667 89.5,74.5C 88.8333,74.5 88.5,74.8333 88.5,75.5C 87.8333,75.5 87.1667,75.5 86.5,75.5C 86.9731,74.0937 87.9731,73.427 89.5,73.5 Z M 297.5,74.5 C 297.5,74.1667 297.5,73.8333 297.5,73.5C 299.027,73.427 300.027,74.0937 300.5,75.5C 299.833,75.5 299.167,75.5 298.5,75.5C 297.833,75.5 297.5,75.1667 297.5,74.5 Z M 75.5,86.5 C 75.5,87.1667 75.5,87.8333 75.5,88.5C 74.8333,88.5 74.5,88.8333 74.5,89.5C 74.1667,89.5 73.8333,89.5 73.5,89.5C 73.427,87.9731 74.0937,86.9731 75.5,86.5 Z M 311.5,86.5 C 312.906,86.9731 313.573,87.9731 313.5,89.5C 313.167,89.5 312.833,89.5 312.5,89.5C 311.833,89.5 311.5,89.1667 311.5,88.5C 311.5,87.8333 311.5,87.1667 311.5,86.5 Z M 132.5,244.5 C 133.167,244.5 133.833,244.5 134.5,244.5C 134.5,245.167 134.833,245.5 135.5,245.5C 135.5,246.167 135.5,246.833 135.5,247.5C 134.167,246.833 133.167,245.833 132.5,244.5 Z M 139.5,251.5 C 140.167,251.5 140.833,251.5 141.5,251.5C 141.5,252.167 141.833,252.5 142.5,252.5C 142.5,252.833 142.5,253.167 142.5,253.5C 140.973,253.573 139.973,252.906 139.5,251.5 Z M 245.5,251.5 C 246.167,251.5 246.833,251.5 247.5,251.5C 247.027,252.906 246.027,253.573 244.5,253.5C 244.5,253.167 244.5,252.833 244.5,252.5C 245.167,252.5 245.5,252.167 245.5,251.5 Z M 108.5,267.5 C 110.262,268.262 111.262,269.596 111.5,271.5C 111.167,271.5 110.833,271.5 110.5,271.5C 110.5,270.833 110.167,270.5 109.5,270.5C 109.5,269.833 109.167,269.5 108.5,269.5C 108.5,268.833 108.5,268.167 108.5,267.5 Z M 278.5,267.5 C 278.5,268.167 278.5,268.833 278.5,269.5C 277.833,269.5 277.5,269.833 277.5,270.5C 276.833,270.5 276.5,270.833 276.5,271.5C 276.167,271.5 275.833,271.5 275.5,271.5C 275.738,269.596 276.738,268.262 278.5,267.5 Z M 115.5,276.5 C 115.5,276.167 115.5,275.833 115.5,275.5C 117.404,275.738 118.738,276.738 119.5,278.5C 118.833,278.5 118.167,278.5 117.5,278.5C 117.5,277.833 117.167,277.5 116.5,277.5C 116.5,276.833 116.167,276.5 115.5,276.5 Z M 270.5,276.5 C 270.5,276.833 270.5,277.167 270.5,277.5C 269.833,277.5 269.5,277.833 269.5,278.5C 268.833,278.5 268.167,278.5 267.5,278.5C 267.973,277.094 268.973,276.427 270.5,276.5 Z M 122.5,282.5 C 122.5,282.167 122.5,281.833 122.5,281.5C 124.027,281.427 125.027,282.094 125.5,283.5C 124.833,283.5 124.167,283.5 123.5,283.5C 123.5,282.833 123.167,282.5 122.5,282.5 Z M 73.5,297.5 C 73.8333,297.5 74.1667,297.5 74.5,297.5C 75.1667,297.5 75.5,297.833 75.5,298.5C 75.5,299.167 75.5,299.833 75.5,300.5C 74.0937,300.027 73.427,299.027 73.5,297.5 Z M 312.5,297.5 C 312.833,297.5 313.167,297.5 313.5,297.5C 313.573,299.027 312.906,300.027 311.5,300.5C 311.5,299.833 311.5,299.167 311.5,298.5C 312.167,298.5 312.5,298.167 312.5,297.5 Z M 86.5,311.5 C 87.1667,311.5 87.8333,311.5 88.5,311.5C 89.1667,311.5 89.5,311.833 89.5,312.5C 89.5,312.833 89.5,313.167 89.5,313.5C 87.9731,313.573 86.9731,312.906 86.5,311.5 Z M 298.5,311.5 C 299.167,311.5 299.833,311.5 300.5,311.5C 300.027,312.906 299.027,313.573 297.5,313.5C 297.5,313.167 297.5,312.833 297.5,312.5C 298.167,312.5 298.5,312.167 298.5,311.5 Z"/></g>
<g><path style="opacity:0.009" fill="#1e1f1e" d="M 215.5,1.5 C 217.288,0.377527 219.288,0.210861 221.5,1C 219.527,1.49546 217.527,1.66212 215.5,1.5 Z"/></g>
<g><path style="opacity:0.014" fill="#1d1d1d" d="M 159.5,2.5 C 160.601,1.40168 161.934,1.23502 163.5,2C 162.207,2.49001 160.873,2.65668 159.5,2.5 Z"/></g>
<g><path style="opacity:0.008" fill="#1a1a1a" d="M 223.5,2.5 C 224.601,1.40168 225.934,1.23502 227.5,2C 226.207,2.49001 224.873,2.65668 223.5,2.5 Z"/></g>
<g><path style="opacity:0.009" fill="#202120" d="M 158.5,3.5 C 157.127,3.65668 155.793,3.49001 154.5,3C 156.066,2.23502 157.399,2.40168 158.5,3.5 Z"/></g>
<g><path style="opacity:0.009" fill="#161716" d="M 229.5,3.5 C 230.251,2.42654 231.251,2.25988 232.5,3C 231.552,3.48278 230.552,3.64945 229.5,3.5 Z"/></g>
<g><path style="opacity:0.009" fill="#202120" d="M 153.5,4.5 C 152.127,4.65668 150.793,4.49001 149.5,4C 151.066,3.23502 152.399,3.40168 153.5,4.5 Z"/></g>
<g><path style="opacity:0.01" fill="#1b1c1b" d="M 234.5,4.5 C 235.251,3.42654 236.251,3.25988 237.5,4C 236.552,4.48278 235.552,4.64945 234.5,4.5 Z"/></g>
<g><path style="opacity:0.008" fill="#1f1f1f" d="M 145.5,5.5 C 146.251,4.42654 147.251,4.25988 148.5,5C 147.552,5.48278 146.552,5.64945 145.5,5.5 Z"/></g>
<g><path style="opacity:0.009" fill="#202120" d="M 238.5,5.5 C 239.251,4.42654 240.251,4.25988 241.5,5C 240.552,5.48278 239.552,5.64945 238.5,5.5 Z"/></g>
<g><path style="opacity:0.009" fill="#1e1f1e" d="M 141.5,6.5 C 142.251,5.42654 143.251,5.25988 144.5,6C 143.552,6.48278 142.552,6.64945 141.5,6.5 Z"/></g>
<g><path style="opacity:0.009" fill="#1e1f1e" d="M 245.5,6.5 C 244.448,6.64945 243.448,6.48278 242.5,6C 243.749,5.25988 244.749,5.42654 245.5,6.5 Z"/></g>
<g><path style="opacity:0.008" fill="#1e1f1e" d="M 138.5,7.5 C 138.897,6.47498 139.563,6.30831 140.5,7C 139.906,7.46434 139.239,7.63101 138.5,7.5 Z"/></g>
<g><path style="opacity:0.009" fill="#1e1f1e" d="M 245.5,7.5 C 245.5,7.16667 245.5,6.83333 245.5,6.5C 249.5,6.83333 249.5,7.16667 245.5,7.5 Z"/></g>
<g><path style="opacity:0.01" fill="#1e1f1e" d="M 135.5,8.5 C 135.897,7.47498 136.563,7.30831 137.5,8C 136.906,8.46434 136.239,8.63101 135.5,8.5 Z"/></g>
<g><path style="opacity:0.01" fill="#1e1f1e" d="M 249.5,8.5 C 249.897,7.47498 250.563,7.30831 251.5,8C 250.906,8.46434 250.239,8.63101 249.5,8.5 Z"/></g>
<g><path style="opacity:0.012" fill="#1e1e1e" d="M 134.5,9.5 C 133.761,9.63101 133.094,9.46434 132.5,9C 133.437,8.30831 134.103,8.47498 134.5,9.5 Z"/></g>
<g><path style="opacity:0.01" fill="#1e1f1e" d="M 252.5,9.5 C 252.897,8.47498 253.563,8.30831 254.5,9C 253.906,9.46434 253.239,9.63101 252.5,9.5 Z"/></g>
<g><path style="opacity:0.01" fill="#1b1b1b" d="M 131.5,10.5 C 130.761,10.631 130.094,10.4643 129.5,10C 130.437,9.30831 131.103,9.47498 131.5,10.5 Z"/></g>
<g><path style="opacity:0.012" fill="#1e1f1e" d="M 255.5,10.5 C 255.897,9.47498 256.563,9.30831 257.5,10C 256.906,10.4643 256.239,10.631 255.5,10.5 Z"/></g>
<g><path style="opacity:0.01" fill="#202120" d="M 128.5,11.5 C 127.761,11.631 127.094,11.4643 126.5,11C 127.437,10.3083 128.103,10.475 128.5,11.5 Z"/></g>
<g><path style="opacity:0.01" fill="#1a1a1a" d="M 258.5,11.5 C 258.897,10.475 259.563,10.3083 260.5,11C 259.906,11.4643 259.239,11.631 258.5,11.5 Z"/></g>
<g><path style="opacity:0.008" fill="#202120" d="M 123.5,12.5 C 123.897,11.475 124.563,11.3083 125.5,12C 124.906,12.4643 124.239,12.631 123.5,12.5 Z"/></g>
<g><path style="opacity:0.008" fill="#1e1f1e" d="M 263.5,12.5 C 262.761,12.631 262.094,12.4643 261.5,12C 262.437,11.3083 263.103,11.475 263.5,12.5 Z"/></g>
<g><path style="opacity:0.008" fill="#202120" d="M 123.5,12.5 C 123.5,12.8333 123.5,13.1667 123.5,13.5C 120.833,13.1667 120.833,12.8333 123.5,12.5 Z"/></g>
<g><path style="opacity:0.01" fill="#1e1f1e" d="M 263.5,13.5 C 263.5,13.1667 263.5,12.8333 263.5,12.5C 266.167,12.8333 266.167,13.1667 263.5,13.5 Z"/></g>
<g><path style="opacity:0.008" fill="#202120" d="M 118.5,14.5 C 118.897,13.475 119.563,13.3083 120.5,14C 119.906,14.4643 119.239,14.631 118.5,14.5 Z"/></g>
<g><path style="opacity:0.008" fill="#1e1f1e" d="M 266.5,14.5 C 266.897,13.475 267.563,13.3083 268.5,14C 267.906,14.4643 267.239,14.631 266.5,14.5 Z"/></g>
<g><path style="opacity:0.008" fill="#1e1f1e" d="M 270.5,16.5 C 270.897,15.475 271.563,15.3083 272.5,16C 271.906,16.4643 271.239,16.631 270.5,16.5 Z"/></g>
<g><path style="opacity:0.012" fill="#202120" d="M 112.5,16.5 C 113.833,17.1667 113.833,17.1667 112.5,16.5 Z"/></g>
<g><path style="opacity:0.012" fill="#1e1f1e" d="M 273.5,16.5 C 274.833,17.1667 274.833,17.1667 273.5,16.5 Z"/></g>
<g><path style="opacity:0.012" fill="#202120" d="M 111.5,18.5 C 110.833,17.1667 110.833,17.1667 111.5,18.5 Z"/></g>
<g><path style="opacity:0.012" fill="#202120" d="M 281.5,20.5 C 282.833,21.1667 282.833,21.1667 281.5,20.5 Z"/></g>
<g><path style="opacity:0.012" fill="#202120" d="M 103.5,22.5 C 102.833,21.1667 102.833,21.1667 103.5,22.5 Z"/></g>
<g><path style="opacity:0.012" fill="#202120" d="M 283.5,21.5 C 284.833,22.1667 284.833,22.1667 283.5,21.5 Z"/></g>
<g><path style="opacity:0.012" fill="#202120" d="M 100.5,22.5 C 101.833,23.1667 101.833,23.1667 100.5,22.5 Z"/></g>
<g><path style="opacity:0.016" fill="#202120" d="M 290.5,25.5 C 291.833,26.1667 291.833,26.1667 290.5,25.5 Z"/></g>
<g><path style="opacity:0.012" fill="#202120" d="M 93.5,26.5 C 94.8333,27.1667 94.8333,27.1667 93.5,26.5 Z"/></g>
<g><path style="opacity:0.016" fill="#202120" d="M 298.5,30.5 C 299.833,31.1667 299.833,31.1667 298.5,30.5 Z"/></g>
<g><path style="opacity:0.008" fill="#202120" d="M 85.5,31.5 C 86.8333,32.1667 86.8333,32.1667 85.5,31.5 Z"/></g>
<g><path style="opacity:0.008" fill="#202120" d="M 300.5,31.5 C 301.833,32.1667 301.833,32.1667 300.5,31.5 Z"/></g>
<g><path style="opacity:0.012" fill="#202120" d="M 354.5,85.5 C 353.833,84.1667 353.833,84.1667 354.5,85.5 Z"/></g>
<g><path style="opacity:0.008" fill="#202120" d="M 31.5,85.5 C 32.8333,86.1667 32.8333,86.1667 31.5,85.5 Z"/></g>
<g><path style="opacity:0.008" fill="#202120" d="M 354.5,85.5 C 355.833,86.1667 355.833,86.1667 354.5,85.5 Z"/></g>
<g><path style="opacity:0.008" fill="#202120" d="M 359.5,93.5 C 359.167,93.5 358.833,93.5 358.5,93.5C 358.833,90.8333 359.167,90.8333 359.5,93.5 Z"/></g>
<g><path style="opacity:0.012" fill="#202120" d="M 26.5,93.5 C 27.8333,94.1667 27.8333,94.1667 26.5,93.5 Z"/></g>
<g><path style="opacity:0.012" fill="#202120" d="M 359.5,93.5 C 360.833,94.1667 360.833,94.1667 359.5,93.5 Z"/></g>
<g><path style="opacity:0.006" fill="#202120" d="M 363.5,100.5 C 363.167,100.5 362.833,100.5 362.5,100.5C 362.833,97.8333 363.167,97.8333 363.5,100.5 Z"/></g>
<g><path style="opacity:0.012" fill="#202120" d="M 363.5,100.5 C 364.833,101.167 364.833,101.167 363.5,100.5 Z"/></g>
<g><path style="opacity:0.012" fill="#1d1e1d" d="M 22.5,103.5 C 21.8333,102.167 21.8333,102.167 22.5,103.5 Z"/></g>
<g><path style="opacity:0.012" fill="#202120" d="M 364.5,102.5 C 365.833,103.167 365.833,103.167 364.5,102.5 Z"/></g>
<g><path style="opacity:0.008" fill="#202120" d="M 367.5,109.5 C 367.369,108.761 367.536,108.094 368,107.5C 368.692,108.437 368.525,109.103 367.5,109.5 Z"/></g>
<g><path style="opacity:0.012" fill="#202120" d="M 368.5,110.5 C 369.833,111.167 369.833,111.167 368.5,110.5 Z"/></g>
<g><path style="opacity:0.012" fill="#202120" d="M 16.5,112.5 C 17.8333,113.167 17.8333,113.167 16.5,112.5 Z"/></g>
<g><path style="opacity:0.012" fill="#202120" d="M 369.5,112.5 C 370.833,113.167 370.833,113.167 369.5,112.5 Z"/></g>
<g><path style="opacity:0.01" fill="#202120" d="M 372.5,118.5 C 372.167,118.5 371.833,118.5 371.5,118.5C 371.833,115.833 372.167,115.833 372.5,118.5 Z"/></g>
<g><path style="opacity:0.008" fill="#202120" d="M 13.5,118.5 C 14.525,118.897 14.6917,119.563 14,120.5C 13.5357,119.906 13.369,119.239 13.5,118.5 Z"/></g>
<g><path style="opacity:0.008" fill="#202120" d="M 372.5,118.5 C 373.525,118.897 373.692,119.563 373,120.5C 372.536,119.906 372.369,119.239 372.5,118.5 Z"/></g>
<g><path style="opacity:0.008" fill="#202120" d="M 13.5,123.5 C 13.1667,123.5 12.8333,123.5 12.5,123.5C 12.8333,120.833 13.1667,120.833 13.5,123.5 Z"/></g>
<g><path style="opacity:0.008" fill="#202120" d="M 374.5,123.5 C 374.167,123.5 373.833,123.5 373.5,123.5C 373.833,120.833 374.167,120.833 374.5,123.5 Z"/></g>
<g><path style="opacity:0.008" fill="#202120" d="M 12.5,123.5 C 12.631,124.239 12.4643,124.906 12,125.5C 11.3083,124.563 11.475,123.897 12.5,123.5 Z"/></g>
<g><path style="opacity:0.008" fill="#202120" d="M 374.5,123.5 C 375.525,123.897 375.692,124.563 375,125.5C 374.536,124.906 374.369,124.239 374.5,123.5 Z"/></g>
<g><path style="opacity:0.01" fill="#202120" d="M 11.5,128.5 C 10.475,128.103 10.3083,127.437 11,126.5C 11.4643,127.094 11.631,127.761 11.5,128.5 Z"/></g>
<g><path style="opacity:0.01" fill="#202120" d="M 375.5,128.5 C 375.369,127.761 375.536,127.094 376,126.5C 376.692,127.437 376.525,128.103 375.5,128.5 Z"/></g>
<g><path style="opacity:0.01" fill="#1e1f1e" d="M 10.5,131.5 C 9.47498,131.103 9.30831,130.437 10,129.5C 10.4643,130.094 10.631,130.761 10.5,131.5 Z"/></g>
<g><path style="opacity:0.01" fill="#202120" d="M 376.5,131.5 C 376.369,130.761 376.536,130.094 377,129.5C 377.692,130.437 377.525,131.103 376.5,131.5 Z"/></g>
<g><path style="opacity:0.012" fill="#1e1e1e" d="M 9.5,134.5 C 8.47498,134.103 8.30831,133.437 9,132.5C 9.46434,133.094 9.63101,133.761 9.5,134.5 Z"/></g>
<g><path style="opacity:0.012" fill="#202120" d="M 377.5,134.5 C 377.369,133.761 377.536,133.094 378,132.5C 378.692,133.437 378.525,134.103 377.5,134.5 Z"/></g>
<g><path style="opacity:0.01" fill="#1e1f1e" d="M 8.5,137.5 C 7.47498,137.103 7.30831,136.437 8,135.5C 8.46434,136.094 8.63101,136.761 8.5,137.5 Z"/></g>
<g><path style="opacity:0.01" fill="#202120" d="M 378.5,137.5 C 378.369,136.761 378.536,136.094 379,135.5C 379.692,136.437 379.525,137.103 378.5,137.5 Z"/></g>
<g><path style="opacity:1" fill="#fefffe" d="M 147.5,138.5 C 147.842,139.338 148.508,139.672 149.5,139.5C 149.842,140.338 150.508,140.672 151.5,140.5C 153.5,143.167 155.833,145.5 158.5,147.5C 158.328,148.492 158.662,149.158 159.5,149.5C 159.328,150.492 159.662,151.158 160.5,151.5C 160.721,154.067 161.388,156.401 162.5,158.5C 162.5,160.5 162.5,162.5 162.5,164.5C 161.388,166.599 160.721,168.933 160.5,171.5C 159.662,171.842 159.328,172.508 159.5,173.5C 158.094,173.973 157.427,174.973 157.5,176.5C 155.167,178.167 153.167,180.167 151.5,182.5C 150.508,182.328 149.842,182.662 149.5,183.5C 148.508,183.328 147.842,183.662 147.5,184.5C 144.179,185.163 140.846,185.83 137.5,186.5C 134.154,185.83 130.821,185.163 127.5,184.5C 127.158,183.662 126.492,183.328 125.5,183.5C 125.027,182.094 124.027,181.427 122.5,181.5C 121.167,179.5 119.5,177.833 117.5,176.5C 117.573,174.973 116.906,173.973 115.5,173.5C 115.672,172.508 115.338,171.842 114.5,171.5C 113.837,168.179 113.17,164.846 112.5,161.5C 113.17,158.154 113.837,154.821 114.5,151.5C 115.338,151.158 115.672,150.492 115.5,149.5C 116.338,149.158 116.672,148.492 116.5,147.5C 118.833,145.833 120.833,143.833 122.5,141.5C 124.027,141.573 125.027,140.906 125.5,139.5C 126.492,139.672 127.158,139.338 127.5,138.5C 130.821,137.837 134.154,137.17 137.5,136.5C 140.846,137.17 144.179,137.837 147.5,138.5 Z"/></g>
<g><path style="opacity:1" fill="#fefffe" d="M 259.5,138.5 C 259.842,139.338 260.508,139.672 261.5,139.5C 261.842,140.338 262.508,140.672 263.5,140.5C 265.5,143.167 267.833,145.5 270.5,147.5C 270.328,148.492 270.662,149.158 271.5,149.5C 271.328,150.492 271.662,151.158 272.5,151.5C 272.721,154.067 273.388,156.401 274.5,158.5C 274.5,160.5 274.5,162.5 274.5,164.5C 273.388,166.599 272.721,168.933 272.5,171.5C 271.662,171.842 271.328,172.508 271.5,173.5C 270.094,173.973 269.427,174.973 269.5,176.5C 267.167,178.167 265.167,180.167 263.5,182.5C 262.508,182.328 261.842,182.662 261.5,183.5C 260.508,183.328 259.842,183.662 259.5,184.5C 256.179,185.163 252.846,185.83 249.5,186.5C 246.154,185.83 242.821,185.163 239.5,184.5C 239.158,183.662 238.492,183.328 237.5,183.5C 237.027,182.094 236.027,181.427 234.5,181.5C 233.167,179.5 231.5,177.833 229.5,176.5C 229.573,174.973 228.906,173.973 227.5,173.5C 227.672,172.508 227.338,171.842 226.5,171.5C 225.837,168.179 225.17,164.846 224.5,161.5C 225.17,158.154 225.837,154.821 226.5,151.5C 227.338,151.158 227.672,150.492 227.5,149.5C 228.338,149.158 228.672,148.492 228.5,147.5C 230.833,145.833 232.833,143.833 234.5,141.5C 236.027,141.573 237.027,140.906 237.5,139.5C 238.492,139.672 239.158,139.338 239.5,138.5C 242.821,137.837 246.154,137.17 249.5,136.5C 252.846,137.17 256.179,137.837 259.5,138.5 Z"/></g>
<g><path style="opacity:0.012" fill="#1e1f1e" d="M 6.5,138.5 C 7.52502,138.897 7.69169,139.563 7,140.5C 6.53566,139.906 6.36899,139.239 6.5,138.5 Z"/></g>
<g><path style="opacity:0.008" fill="#202120" d="M 380.5,141.5 C 380.167,141.5 379.833,141.5 379.5,141.5C 379.833,137.5 380.167,137.5 380.5,141.5 Z"/></g>
<g><path style="opacity:0.009" fill="#1e1f1e" d="M 5.5,141.5 C 6.57346,142.251 6.74012,143.251 6,144.5C 5.51722,143.552 5.35055,142.552 5.5,141.5 Z"/></g>
<g><path style="opacity:0.009" fill="#202120" d="M 380.5,141.5 C 381.573,142.251 381.74,143.251 381,144.5C 380.517,143.552 380.351,142.552 380.5,141.5 Z"/></g>
<g><path style="opacity:0.008" fill="#1f1f1f" d="M 4.5,145.5 C 5.57346,146.251 5.74012,147.251 5,148.5C 4.51722,147.552 4.35055,146.552 4.5,145.5 Z"/></g>
<g><path style="opacity:0.009" fill="#202120" d="M 381.5,145.5 C 382.573,146.251 382.74,147.251 382,148.5C 381.517,147.552 381.351,146.552 381.5,145.5 Z"/></g>
<g><path style="opacity:0.009" fill="#202120" d="M 4.5,153.5 C 3.40168,152.399 3.23502,151.066 4,149.5C 4.49001,150.793 4.65668,152.127 4.5,153.5 Z"/></g>
<g><path style="opacity:0.009" fill="#202120" d="M 382.5,153.5 C 382.343,152.127 382.51,150.793 383,149.5C 383.765,151.066 383.598,152.399 382.5,153.5 Z"/></g>
<g><path style="opacity:0.009" fill="#202120" d="M 3.5,158.5 C 2.40168,157.399 2.23502,156.066 3,154.5C 3.49001,155.793 3.65668,157.127 3.5,158.5 Z"/></g>
<g><path style="opacity:0.009" fill="#202120" d="M 383.5,158.5 C 383.343,157.127 383.51,155.793 384,154.5C 384.765,156.066 384.598,157.399 383.5,158.5 Z"/></g>
<g><path style="opacity:0.01" fill="#1d1d1d" d="M 1.5,159.5 C 2.59832,160.601 2.76498,161.934 2,163.5C 1.50999,162.207 1.34332,160.873 1.5,159.5 Z"/></g>
<g><path style="opacity:0.01" fill="#202120" d="M 384.5,159.5 C 385.598,160.601 385.765,161.934 385,163.5C 384.51,162.207 384.343,160.873 384.5,159.5 Z"/></g>
<g><path style="opacity:0.009" fill="#1e1f1e" d="M 0.5,165.5 C 1.62247,167.288 1.78914,169.288 1,171.5C 0.504543,169.527 0.337876,167.527 0.5,165.5 Z"/></g>
<g><path style="opacity:0.009" fill="#1e1f1e" d="M 385.5,165.5 C 386.622,167.288 386.789,169.288 386,171.5C 385.505,169.527 385.338,167.527 385.5,165.5 Z"/></g>
<g><path style="opacity:0.009" fill="#1e1f1e" d="M -0.5,173.5 C 0.833333,176.833 0.833333,180.167 -0.5,183.5C -0.5,180.167 -0.5,176.833 -0.5,173.5 Z"/></g>
<g><path style="opacity:0.009" fill="#1e1f1e" d="M 387.5,173.5 C 387.5,176.833 387.5,180.167 387.5,183.5C 386.167,180.167 386.167,176.833 387.5,173.5 Z"/></g>
<g><path style="opacity:0.009" fill="#1e1f1e" d="M -0.5,203.5 C 0.833333,206.833 0.833333,210.167 -0.5,213.5C -0.5,210.167 -0.5,206.833 -0.5,203.5 Z"/></g>
<g><path style="opacity:0.009" fill="#1e1f1e" d="M 387.5,203.5 C 387.5,206.833 387.5,210.167 387.5,213.5C 386.167,210.167 386.167,206.833 387.5,203.5 Z"/></g>
<g><path style="opacity:0.009" fill="#1e1f1e" d="M 0.5,215.5 C 1.62247,217.288 1.78914,219.288 1,221.5C 0.504543,219.527 0.337876,217.527 0.5,215.5 Z"/></g>
<g><path style="opacity:0.009" fill="#1e1f1e" d="M 385.5,215.5 C 386.622,217.288 386.789,219.288 386,221.5C 385.505,219.527 385.338,217.527 385.5,215.5 Z"/></g>
<g><path style="opacity:0.01" fill="#1c1c1c" d="M 1.5,223.5 C 2.59832,224.601 2.76498,225.934 2,227.5C 1.50999,226.207 1.34332,224.873 1.5,223.5 Z"/></g>
<g><path style="opacity:0.01" fill="#222222" d="M 384.5,223.5 C 385.598,224.601 385.765,225.934 385,227.5C 384.51,226.207 384.343,224.873 384.5,223.5 Z"/></g>
<g><path style="opacity:0.009" fill="#161716" d="M 3.5,228.5 C 3.65668,229.873 3.49001,231.207 3,232.5C 2.23502,230.934 2.40168,229.601 3.5,228.5 Z"/></g>
<g><path style="opacity:0.009" fill="#222322" d="M 383.5,228.5 C 384.598,229.601 384.765,230.934 384,232.5C 383.51,231.207 383.343,229.873 383.5,228.5 Z"/></g>
<g><path style="opacity:0.009" fill="#1b1c1b" d="M 4.5,233.5 C 4.65668,234.873 4.49001,236.207 4,237.5C 3.23502,235.934 3.40168,234.601 4.5,233.5 Z"/></g>
<g><path style="opacity:0.009" fill="#1b1c1b" d="M 382.5,233.5 C 383.598,234.601 383.765,235.934 383,237.5C 382.51,236.207 382.343,234.873 382.5,233.5 Z"/></g>
<g><path style="opacity:0.009" fill="#202120" d="M 4.5,238.5 C 5.57346,239.251 5.74012,240.251 5,241.5C 4.51722,240.552 4.35055,239.552 4.5,238.5 Z"/></g>
<g><path style="opacity:0.009" fill="#202120" d="M 381.5,238.5 C 382.573,239.251 382.74,240.251 382,241.5C 381.517,240.552 381.351,239.552 381.5,238.5 Z"/></g>
<g><path style="opacity:1" fill="#fefffe" d="M 119.5,240.5 C 121.167,240.5 122.833,240.5 124.5,240.5C 126.649,241.736 128.982,242.736 131.5,243.5C 131.5,244.167 131.833,244.5 132.5,244.5C 133.167,245.833 134.167,246.833 135.5,247.5C 136.5,249.167 137.833,250.5 139.5,251.5C 139.973,252.906 140.973,253.573 142.5,253.5C 145.601,256.933 149.268,259.6 153.5,261.5C 153.842,262.338 154.508,262.672 155.5,262.5C 156.911,264.539 158.911,265.539 161.5,265.5C 161.842,266.338 162.508,266.672 163.5,266.5C 164.209,267.404 165.209,267.737 166.5,267.5C 168.102,269.074 170.102,269.741 172.5,269.5C 173.568,270.434 174.901,270.768 176.5,270.5C 181.925,271.984 187.591,272.651 193.5,272.5C 197.349,272.499 201.016,272.165 204.5,271.5C 208.122,271.678 211.456,271.011 214.5,269.5C 216.898,269.741 218.898,269.074 220.5,267.5C 221.791,267.737 222.791,267.404 223.5,266.5C 224.492,266.672 225.158,266.338 225.5,265.5C 228.089,265.539 230.089,264.539 231.5,262.5C 232.492,262.672 233.158,262.338 233.5,261.5C 237.732,259.6 241.399,256.933 244.5,253.5C 246.027,253.573 247.027,252.906 247.5,251.5C 249.167,250.5 250.5,249.167 251.5,247.5C 252.833,246.833 253.833,245.833 254.5,244.5C 255.167,244.5 255.5,244.167 255.5,243.5C 258.018,242.736 260.351,241.736 262.5,240.5C 264.167,240.5 265.833,240.5 267.5,240.5C 268.568,241.434 269.901,241.768 271.5,241.5C 271.842,242.338 272.508,242.672 273.5,242.5C 273.5,243.167 273.833,243.5 274.5,243.5C 275.5,245.167 276.833,246.5 278.5,247.5C 279.263,249.368 280.263,251.035 281.5,252.5C 281.5,255.833 281.5,259.167 281.5,262.5C 280.263,263.965 279.263,265.632 278.5,267.5C 276.738,268.262 275.738,269.596 275.5,271.5C 273.5,272.833 271.833,274.5 270.5,276.5C 268.973,276.427 267.973,277.094 267.5,278.5C 262.809,282.197 258.142,285.864 253.5,289.5C 252.508,289.328 251.842,289.662 251.5,290.5C 249.973,290.427 248.973,291.094 248.5,292.5C 247.508,292.328 246.842,292.662 246.5,293.5C 244.181,293.992 242.181,294.992 240.5,296.5C 238.447,296.402 236.78,297.069 235.5,298.5C 233.447,298.402 231.78,299.069 230.5,300.5C 229.209,300.263 228.209,300.596 227.5,301.5C 224.848,301.41 222.515,302.076 220.5,303.5C 211.547,304.829 202.547,305.829 193.5,306.5C 186.16,305.833 178.827,305.166 171.5,304.5C 170.081,303.549 168.415,303.216 166.5,303.5C 164.485,302.076 162.152,301.41 159.5,301.5C 158.791,300.596 157.791,300.263 156.5,300.5C 155.22,299.069 153.553,298.402 151.5,298.5C 150.22,297.069 148.553,296.402 146.5,296.5C 144.819,294.992 142.819,293.992 140.5,293.5C 140.158,292.662 139.492,292.328 138.5,292.5C 138.027,291.094 137.027,290.427 135.5,290.5C 135.158,289.662 134.492,289.328 133.5,289.5C 132.564,288.026 131.23,287.026 129.5,286.5C 129.027,285.094 128.027,284.427 126.5,284.5C 126.5,283.833 126.167,283.5 125.5,283.5C 125.027,282.094 124.027,281.427 122.5,281.5C 121.833,280.167 120.833,279.167 119.5,278.5C 118.738,276.738 117.404,275.738 115.5,275.5C 114.5,273.833 113.167,272.5 111.5,271.5C 111.262,269.596 110.262,268.262 108.5,267.5C 107.737,265.632 106.737,263.965 105.5,262.5C 105.5,259.167 105.5,255.833 105.5,252.5C 106.737,251.035 107.737,249.368 108.5,247.5C 110.167,246.5 111.5,245.167 112.5,243.5C 113.167,243.5 113.5,243.167 113.5,242.5C 114.492,242.672 115.158,242.338 115.5,241.5C 117.099,241.768 118.432,241.434 119.5,240.5 Z M 132.5,244.5 C 133.167,244.5 133.833,244.5 134.5,244.5C 134.5,245.167 134.833,245.5 135.5,245.5C 135.5,246.167 135.5,246.833 135.5,247.5C 134.167,246.833 133.167,245.833 132.5,244.5 Z M 139.5,251.5 C 140.167,251.5 140.833,251.5 141.5,251.5C 141.5,252.167 141.833,252.5 142.5,252.5C 142.5,252.833 142.5,253.167 142.5,253.5C 140.973,253.573 139.973,252.906 139.5,251.5 Z M 245.5,251.5 C 246.167,251.5 246.833,251.5 247.5,251.5C 247.027,252.906 246.027,253.573 244.5,253.5C 244.5,253.167 244.5,252.833 244.5,252.5C 245.167,252.5 245.5,252.167 245.5,251.5 Z"/></g>
<g><path style="opacity:0.009" fill="#1e1f1e" d="M 6.5,245.5 C 5.42654,244.749 5.25988,243.749 6,242.5C 6.48278,243.448 6.64945,244.448 6.5,245.5 Z"/></g>
<g><path style="opacity:0.009" fill="#1e1f1e" d="M 380.5,245.5 C 380.351,244.448 380.517,243.448 381,242.5C 381.74,243.749 381.573,244.749 380.5,245.5 Z"/></g>
<g><path style="opacity:0.009" fill="#1e1f1e" d="M 6.5,245.5 C 6.83333,245.5 7.16667,245.5 7.5,245.5C 7.16667,249.5 6.83333,249.5 6.5,245.5 Z"/></g>
<g><path style="opacity:0.008" fill="#1e1f1e" d="M 379.5,245.5 C 379.833,245.5 380.167,245.5 380.5,245.5C 380.167,249.5 379.833,249.5 379.5,245.5 Z"/></g>
<g><path style="opacity:0.01" fill="#1e1f1e" d="M 8.5,249.5 C 8.63101,250.239 8.46434,250.906 8,251.5C 7.30831,250.563 7.47498,249.897 8.5,249.5 Z"/></g>
<g><path style="opacity:0.01" fill="#1e1f1e" d="M 378.5,249.5 C 379.525,249.897 379.692,250.563 379,251.5C 378.536,250.906 378.369,250.239 378.5,249.5 Z"/></g>
<g><path style="opacity:0.012" fill="#1e1f1e" d="M 9.5,252.5 C 9.63101,253.239 9.46434,253.906 9,254.5C 8.30831,253.563 8.47498,252.897 9.5,252.5 Z"/></g>
<g><path style="opacity:0.012" fill="#1e1f1e" d="M 377.5,252.5 C 378.525,252.897 378.692,253.563 378,254.5C 377.536,253.906 377.369,253.239 377.5,252.5 Z"/></g>
<g><path style="opacity:0.01" fill="#1b1b1b" d="M 10.5,255.5 C 10.631,256.239 10.4643,256.906 10,257.5C 9.30831,256.563 9.47498,255.897 10.5,255.5 Z"/></g>
<g><path style="opacity:0.01" fill="#202120" d="M 376.5,255.5 C 377.525,255.897 377.692,256.563 377,257.5C 376.536,256.906 376.369,256.239 376.5,255.5 Z"/></g>
<g><path style="opacity:0.01" fill="#1a1b1a" d="M 11.5,258.5 C 11.631,259.239 11.4643,259.906 11,260.5C 10.3083,259.563 10.475,258.897 11.5,258.5 Z"/></g>
<g><path style="opacity:0.01" fill="#202120" d="M 375.5,258.5 C 376.525,258.897 376.692,259.563 376,260.5C 375.536,259.906 375.369,259.239 375.5,258.5 Z"/></g>
<g><path style="opacity:0.008" fill="#1e1f1e" d="M 12.5,263.5 C 11.475,263.103 11.3083,262.437 12,261.5C 12.4643,262.094 12.631,262.761 12.5,263.5 Z"/></g>
<g><path style="opacity:0.008" fill="#202120" d="M 374.5,263.5 C 374.369,262.761 374.536,262.094 375,261.5C 375.692,262.437 375.525,263.103 374.5,263.5 Z"/></g>
<g><path style="opacity:0.008" fill="#1e1f1e" d="M 12.5,263.5 C 12.8333,263.5 13.1667,263.5 13.5,263.5C 13.1667,266.167 12.8333,266.167 12.5,263.5 Z"/></g>
<g><path style="opacity:0.008" fill="#202120" d="M 373.5,263.5 C 373.833,263.5 374.167,263.5 374.5,263.5C 374.167,266.167 373.833,266.167 373.5,263.5 Z"/></g>
<g><path style="opacity:0.008" fill="#1e1f1e" d="M 13.5,266.5 C 14.525,266.897 14.6917,267.563 14,268.5C 13.5357,267.906 13.369,267.239 13.5,266.5 Z"/></g>
<g><path style="opacity:0.008" fill="#202120" d="M 372.5,268.5 C 372.369,267.761 372.536,267.094 373,266.5C 373.692,267.437 373.525,268.103 372.5,268.5 Z"/></g>
<g><path style="opacity:0.01" fill="#202120" d="M 371.5,268.5 C 371.833,268.5 372.167,268.5 372.5,268.5C 372.672,269.492 372.338,270.158 371.5,270.5C 371.5,269.833 371.5,269.167 371.5,268.5 Z"/></g>
<g><path style="opacity:0.01" fill="#1e1f1e" d="M 16.5,270.5 C 16.631,271.239 16.4643,271.906 16,272.5C 15.3083,271.563 15.475,270.897 16.5,270.5 Z"/></g>
<g><path style="opacity:0.01" fill="#202120" d="M 370.5,270.5 C 370.833,270.5 371.167,270.5 371.5,270.5C 371.167,273.167 370.833,273.167 370.5,270.5 Z"/></g>
<g><path style="opacity:0.012" fill="#1e1f1e" d="M 16.5,273.5 C 17.8333,274.167 17.8333,274.167 16.5,273.5 Z"/></g>
<g><path style="opacity:0.012" fill="#202120" d="M 369.5,273.5 C 370.833,274.167 370.833,274.167 369.5,273.5 Z"/></g>
<g><path style="opacity:0.012" fill="#202120" d="M 368.5,275.5 C 369.833,276.167 369.833,276.167 368.5,275.5 Z"/></g>
<g><path style="opacity:0.008" fill="#202120" d="M 367.5,277.5 C 368.833,278.167 368.833,278.833 367.5,279.5C 367.5,278.833 367.5,278.167 367.5,277.5 Z"/></g>
<g><path style="opacity:0.008" fill="#202120" d="M 366.5,279.5 C 366.833,279.5 367.167,279.5 367.5,279.5C 367.672,280.492 367.338,281.158 366.5,281.5C 366.5,280.833 366.5,280.167 366.5,279.5 Z"/></g>
<g><path style="opacity:0.012" fill="#202120" d="M 21.5,281.5 C 20.8333,282.167 20.8333,282.167 21.5,281.5 Z"/></g>
<g><path style="opacity:0.012" fill="#202120" d="M 365.5,281.5 C 365.833,281.5 366.167,281.5 366.5,281.5C 366.315,282.17 365.981,282.17 365.5,281.5 Z"/></g>
<g><path style="opacity:0.012" fill="#202120" d="M 22.5,283.5 C 21.8333,284.167 21.8333,284.167 22.5,283.5 Z"/></g>
<g><path style="opacity:0.012" fill="#202120" d="M 364.5,283.5 C 365.833,284.167 365.833,284.167 364.5,283.5 Z"/></g>
<g><path style="opacity:0.012" fill="#202120" d="M 22.5,285.5 C 23.8333,286.167 23.8333,286.167 22.5,285.5 Z"/></g>
<g><path style="opacity:0.012" fill="#202120" d="M 363.5,285.5 C 364.833,286.167 364.833,286.167 363.5,285.5 Z"/></g>
<g><path style="opacity:0.006" fill="#202120" d="M 362.5,286.5 C 362.833,286.5 363.167,286.5 363.5,286.5C 363.672,287.492 363.338,288.158 362.5,288.5C 362.5,287.833 362.5,287.167 362.5,286.5 Z"/></g>
<g><path style="opacity:0.008" fill="#202120" d="M 361.5,288.5 C 361.833,288.5 362.167,288.5 362.5,288.5C 362.672,289.492 362.338,290.158 361.5,290.5C 361.5,289.833 361.5,289.167 361.5,288.5 Z"/></g>
<g><path style="opacity:0.012" fill="#202120" d="M 26.5,290.5 C 25.8333,291.167 25.8333,291.167 26.5,290.5 Z"/></g>
<g><path style="opacity:0.012" fill="#202120" d="M 360.5,290.5 C 360.833,290.5 361.167,290.5 361.5,290.5C 361.315,291.17 360.981,291.17 360.5,290.5 Z"/></g>
<g><path style="opacity:0.012" fill="#202120" d="M 26.5,292.5 C 27.8333,293.167 27.8333,293.167 26.5,292.5 Z"/></g>
<g><path style="opacity:0.012" fill="#202120" d="M 359.5,292.5 C 360.833,293.167 360.833,293.167 359.5,292.5 Z"/></g>
<g><path style="opacity:0.008" fill="#202120" d="M 358.5,293.5 C 358.833,293.5 359.167,293.5 359.5,293.5C 359.672,294.492 359.338,295.158 358.5,295.5C 358.5,294.833 358.5,294.167 358.5,293.5 Z"/></g>
<g><path style="opacity:0.012" fill="#202120" d="M 357.5,295.5 C 357.833,295.5 358.167,295.5 358.5,295.5C 358.315,296.17 357.981,296.17 357.5,295.5 Z"/></g>
<g><path style="opacity:0.006" fill="#202120" d="M 356.5,296.5 C 356.833,296.5 357.167,296.5 357.5,296.5C 357.672,297.492 357.338,298.158 356.5,298.5C 356.5,297.833 356.5,297.167 356.5,296.5 Z"/></g>
<g><path style="opacity:0.016" fill="#202120" d="M 31.5,298.5 C 30.8333,299.167 30.8333,299.167 31.5,298.5 Z"/></g>
<g><path style="opacity:0.005" fill="#1e1f1e" d="M 75.5,298.5 C 76.9063,298.973 77.573,299.973 77.5,301.5C 77.1667,301.5 76.8333,301.5 76.5,301.5C 76.5,300.833 76.1667,300.5 75.5,300.5C 75.5,299.833 75.5,299.167 75.5,298.5 Z"/></g>
<g><path style="opacity:0.005" fill="#202120" d="M 311.5,298.5 C 311.5,299.167 311.5,299.833 311.5,300.5C 310.833,300.5 310.5,300.833 310.5,301.5C 310.167,301.5 309.833,301.5 309.5,301.5C 309.427,299.973 310.094,298.973 311.5,298.5 Z"/></g>
<g><path style="opacity:0.016" fill="#202120" d="M 355.5,298.5 C 355.833,298.5 356.167,298.5 356.5,298.5C 356.315,299.17 355.981,299.17 355.5,298.5 Z"/></g>
<g><path style="opacity:0.008" fill="#202120" d="M 31.5,300.5 C 32.8333,301.167 32.8333,301.167 31.5,300.5 Z"/></g>
<g><path style="opacity:0.008" fill="#202120" d="M 354.5,300.5 C 355.833,301.167 355.833,301.167 354.5,300.5 Z"/></g>
<g><path style="opacity:0.016" fill="#202120" d="M 353.5,301.5 C 353.833,301.5 354.167,301.5 354.5,301.5C 354.315,302.17 353.981,302.17 353.5,301.5 Z"/></g>
<g><path style="opacity:0.006" fill="#202120" d="M 352.5,302.5 C 352.833,302.5 353.167,302.5 353.5,302.5C 353.672,303.492 353.338,304.158 352.5,304.5C 352.5,303.833 352.5,303.167 352.5,302.5 Z"/></g>
<g><path style="opacity:0.012" fill="#202120" d="M 351.5,304.5 C 351.833,304.5 352.167,304.5 352.5,304.5C 352.315,305.17 351.981,305.17 351.5,304.5 Z"/></g>
<g><path style="opacity:0.008" fill="#202120" d="M 350.5,305.5 C 350.833,305.5 351.167,305.5 351.5,305.5C 351.672,306.492 351.338,307.158 350.5,307.5C 350.5,306.833 350.5,306.167 350.5,305.5 Z"/></g>
<g><path style="opacity:0.012" fill="#202120" d="M 349.5,307.5 C 349.833,307.5 350.167,307.5 350.5,307.5C 350.315,308.17 349.981,308.17 349.5,307.5 Z"/></g>
<g><path style="opacity:0.016" fill="#202120" d="M 348.5,308.5 C 348.833,308.5 349.167,308.5 349.5,308.5C 349.315,309.17 348.981,309.17 348.5,308.5 Z"/></g>
<g><path style="opacity:0.005" fill="#1e1f1e" d="M 85.5,310.5 C 85.5,310.167 85.5,309.833 85.5,309.5C 87.0269,309.427 88.0269,310.094 88.5,311.5C 87.8333,311.5 87.1667,311.5 86.5,311.5C 86.5,310.833 86.1667,310.5 85.5,310.5 Z"/></g>
<g><path style="opacity:0.005" fill="#202120" d="M 301.5,309.5 C 301.5,309.833 301.5,310.167 301.5,310.5C 300.833,310.5 300.5,310.833 300.5,311.5C 299.833,311.5 299.167,311.5 298.5,311.5C 298.973,310.094 299.973,309.427 301.5,309.5 Z"/></g>
<g><path style="opacity:0.006" fill="#202120" d="M 347.5,309.5 C 347.833,309.5 348.167,309.5 348.5,309.5C 348.672,310.492 348.338,311.158 347.5,311.5C 347.5,310.833 347.5,310.167 347.5,309.5 Z"/></g>
<g><path style="opacity:0.012" fill="#1b1c1b" d="M 346.5,311.5 C 346.833,311.5 347.167,311.5 347.5,311.5C 347.315,312.17 346.981,312.17 346.5,311.5 Z"/></g>
<g><path style="opacity:0.016" fill="#171817" d="M 345.5,312.5 C 345.833,312.5 346.167,312.5 346.5,312.5C 346.315,313.17 345.981,313.17 345.5,312.5 Z"/></g>
<g><path style="opacity:0.012" fill="#171817" d="M 344.5,313.5 C 344.833,313.5 345.167,313.5 345.5,313.5C 345.315,314.17 344.981,314.17 344.5,313.5 Z"/></g>
<g><path style="opacity:0.004" fill="#1b1b1b" d="M 343.5,314.5 C 343.833,314.5 344.167,314.5 344.5,314.5C 344.672,315.492 344.338,316.158 343.5,316.5C 343.5,315.833 343.5,315.167 343.5,314.5 Z"/></g>
<g><path style="opacity:0.008" fill="#202120" d="M 342.5,316.5 C 342.833,316.5 343.167,316.5 343.5,316.5C 343.315,317.17 342.981,317.17 342.5,316.5 Z"/></g>
<g><path style="opacity:0.016" fill="#202120" d="M 341.5,317.5 C 341.833,317.5 342.167,317.5 342.5,317.5C 342.315,318.17 341.981,318.17 341.5,317.5 Z"/></g>
<g><path style="opacity:0.016" fill="#202120" d="M 340.5,318.5 C 340.833,318.5 341.167,318.5 341.5,318.5C 341.315,319.17 340.981,319.17 340.5,318.5 Z"/></g>
<g><path style="opacity:0.012" fill="#202120" d="M 339.5,319.5 C 339.833,319.5 340.167,319.5 340.5,319.5C 340.315,320.17 339.981,320.17 339.5,319.5 Z"/></g>
<g><path style="opacity:0.012" fill="#202120" d="M 334.5,325.5 C 335.833,326.167 335.833,326.167 334.5,325.5 Z"/></g>
<g><path style="opacity:0.012" fill="#202120" d="M 333.5,326.5 C 333.833,326.5 334.167,326.5 334.5,326.5C 334.315,327.17 333.981,327.17 333.5,326.5 Z"/></g>
<g><path style="opacity:0.012" fill="#202120" d="M 332.5,327.5 C 332.833,327.5 333.167,327.5 333.5,327.5C 333.315,328.17 332.981,328.17 332.5,327.5 Z"/></g>
<g><path style="opacity:0.016" fill="#202120" d="M 331.5,328.5 C 331.833,328.5 332.167,328.5 332.5,328.5C 332.315,329.17 331.981,329.17 331.5,328.5 Z"/></g>
<g><path style="opacity:0.016" fill="#202120" d="M 330.5,329.5 C 330.833,329.5 331.167,329.5 331.5,329.5C 331.315,330.17 330.981,330.17 330.5,329.5 Z"/></g>
<g><path style="opacity:0.016" fill="#202120" d="M 329.5,330.5 C 329.833,330.5 330.167,330.5 330.5,330.5C 330.315,331.17 329.981,331.17 329.5,330.5 Z"/></g>
<g><path style="opacity:0.016" fill="#202120" d="M 328.5,331.5 C 328.833,331.5 329.167,331.5 329.5,331.5C 329.315,332.17 328.981,332.17 328.5,331.5 Z"/></g>
<g><path style="opacity:0.016" fill="#202120" d="M 327.5,332.5 C 327.833,332.5 328.167,332.5 328.5,332.5C 328.315,333.17 327.981,333.17 327.5,332.5 Z"/></g>
<g><path style="opacity:0.012" fill="#202120" d="M 326.5,333.5 C 326.833,333.5 327.167,333.5 327.5,333.5C 327.315,334.17 326.981,334.17 326.5,333.5 Z"/></g>
<g><path style="opacity:0.012" fill="#202120" d="M 325.5,334.5 C 325.833,334.5 326.167,334.5 326.5,334.5C 326.315,335.17 325.981,335.17 325.5,334.5 Z"/></g>
<g><path style="opacity:0.012" fill="#202120" d="M 319.5,339.5 C 320.833,340.167 320.833,340.167 319.5,339.5 Z"/></g>
<g><path style="opacity:0.016" fill="#202120" d="M 318.5,340.5 C 318.833,340.5 319.167,340.5 319.5,340.5C 319.315,341.17 318.981,341.17 318.5,340.5 Z"/></g>
<g><path style="opacity:0.012" fill="#202120" d="M 317.5,341.5 C 317.833,341.5 318.167,341.5 318.5,341.5C 318.315,342.17 317.981,342.17 317.5,341.5 Z"/></g>
<g><path style="opacity:0.008" fill="#202120" d="M 316.5,342.5 C 316.833,342.5 317.167,342.5 317.5,342.5C 317.315,343.17 316.981,343.17 316.5,342.5 Z"/></g>
<g><path style="opacity:0.004" fill="#1b1b1b" d="M 314.5,344.5 C 314.5,344.167 314.5,343.833 314.5,343.5C 315.167,343.5 315.833,343.5 316.5,343.5C 316.158,344.338 315.492,344.672 314.5,344.5 Z"/></g>
<g><path style="opacity:0.012" fill="#171817" d="M 313.5,344.5 C 313.833,344.5 314.167,344.5 314.5,344.5C 314.315,345.17 313.981,345.17 313.5,344.5 Z"/></g>
<g><path style="opacity:0.016" fill="#171817" d="M 312.5,345.5 C 312.833,345.5 313.167,345.5 313.5,345.5C 313.315,346.17 312.981,346.17 312.5,345.5 Z"/></g>
<g><path style="opacity:0.012" fill="#1b1c1b" d="M 311.5,346.5 C 311.833,346.5 312.167,346.5 312.5,346.5C 312.315,347.17 311.981,347.17 311.5,346.5 Z"/></g>
<g><path style="opacity:0.006" fill="#202120" d="M 309.5,348.5 C 309.5,348.167 309.5,347.833 309.5,347.5C 310.167,347.5 310.833,347.5 311.5,347.5C 311.158,348.338 310.492,348.672 309.5,348.5 Z"/></g>
<g><path style="opacity:0.016" fill="#202120" d="M 308.5,348.5 C 308.833,348.5 309.167,348.5 309.5,348.5C 309.315,349.17 308.981,349.17 308.5,348.5 Z"/></g>
<g><path style="opacity:0.012" fill="#202120" d="M 307.5,349.5 C 307.833,349.5 308.167,349.5 308.5,349.5C 308.315,350.17 307.981,350.17 307.5,349.5 Z"/></g>
<g><path style="opacity:0.008" fill="#202120" d="M 305.5,351.5 C 305.5,351.167 305.5,350.833 305.5,350.5C 306.167,350.5 306.833,350.5 307.5,350.5C 307.158,351.338 306.492,351.672 305.5,351.5 Z"/></g>
<g><path style="opacity:0.016" fill="#202120" d="M 304.5,351.5 C 304.833,351.5 305.167,351.5 305.5,351.5C 305.315,352.17 304.981,352.17 304.5,351.5 Z"/></g>
<g><path style="opacity:0.006" fill="#202120" d="M 302.5,353.5 C 302.5,353.167 302.5,352.833 302.5,352.5C 303.167,352.5 303.833,352.5 304.5,352.5C 304.158,353.338 303.492,353.672 302.5,353.5 Z"/></g>
<g><path style="opacity:0.016" fill="#202120" d="M 85.5,353.5 C 85.5,353.833 85.5,354.167 85.5,354.5C 84.8299,354.019 84.8299,353.685 85.5,353.5 Z"/></g>
<g><path style="opacity:0.016" fill="#202120" d="M 301.5,353.5 C 301.833,353.5 302.167,353.5 302.5,353.5C 302.315,354.17 301.981,354.17 301.5,353.5 Z"/></g>
<g><path style="opacity:0.008" fill="#202120" d="M 85.5,354.5 C 86.8333,355.167 86.8333,355.167 85.5,354.5 Z"/></g>
<g><path style="opacity:0.008" fill="#202120" d="M 301.5,354.5 C 300.833,355.167 300.833,355.167 301.5,354.5 Z"/></g>
<g><path style="opacity:0.016" fill="#202120" d="M 298.5,355.5 C 299.833,356.167 299.833,356.167 298.5,355.5 Z"/></g>
<g><path style="opacity:0.006" fill="#202120" d="M 296.5,357.5 C 296.5,357.167 296.5,356.833 296.5,356.5C 297.167,356.5 297.833,356.5 298.5,356.5C 298.158,357.338 297.492,357.672 296.5,357.5 Z"/></g>
<g><path style="opacity:0.012" fill="#202120" d="M 295.5,357.5 C 295.833,357.5 296.167,357.5 296.5,357.5C 296.315,358.17 295.981,358.17 295.5,357.5 Z"/></g>
<g><path style="opacity:0.008" fill="#202120" d="M 93.5,358.5 C 93.5,358.833 93.5,359.167 93.5,359.5C 90.8333,359.167 90.8333,358.833 93.5,358.5 Z"/></g>
<g><path style="opacity:0.006" fill="#202120" d="M 293.5,359.5 C 293.5,359.167 293.5,358.833 293.5,358.5C 294.167,358.5 294.833,358.5 295.5,358.5C 295.158,359.338 294.492,359.672 293.5,359.5 Z"/></g>
<g><path style="opacity:0.012" fill="#202120" d="M 93.5,359.5 C 94.8333,360.167 94.8333,360.167 93.5,359.5 Z"/></g>
<g><path style="opacity:0.012" fill="#202120" d="M 293.5,359.5 C 292.833,360.167 292.833,360.167 293.5,359.5 Z"/></g>
<g><path style="opacity:0.012" fill="#202120" d="M 290.5,360.5 C 291.833,361.167 291.833,361.167 290.5,360.5 Z"/></g>
<g><path style="opacity:0.008" fill="#202120" d="M 288.5,362.5 C 288.5,362.167 288.5,361.833 288.5,361.5C 289.167,361.5 289.833,361.5 290.5,361.5C 290.158,362.338 289.492,362.672 288.5,362.5 Z"/></g>
<g><path style="opacity:0.008" fill="#202120" d="M 100.5,362.5 C 100.5,362.833 100.5,363.167 100.5,363.5C 97.8333,363.167 97.8333,362.833 100.5,362.5 Z"/></g>
<g><path style="opacity:0.006" fill="#202120" d="M 286.5,363.5 C 286.5,363.167 286.5,362.833 286.5,362.5C 287.167,362.5 287.833,362.5 288.5,362.5C 288.158,363.338 287.492,363.672 286.5,363.5 Z"/></g>
<g><path style="opacity:0.012" fill="#202120" d="M 100.5,363.5 C 101.833,364.167 101.833,364.167 100.5,363.5 Z"/></g>
<g><path style="opacity:0.012" fill="#202120" d="M 286.5,363.5 C 285.833,364.167 285.833,364.167 286.5,363.5 Z"/></g>
<g><path style="opacity:0.012" fill="#202120" d="M 103.5,364.5 C 102.833,365.167 102.833,365.167 103.5,364.5 Z"/></g>
<g><path style="opacity:0.012" fill="#202120" d="M 283.5,364.5 C 284.833,365.167 284.833,365.167 283.5,364.5 Z"/></g>
<g><path style="opacity:0.012" fill="#202120" d="M 105.5,365.5 C 104.833,366.167 104.833,366.167 105.5,365.5 Z"/></g>
<g><path style="opacity:0.012" fill="#202120" d="M 281.5,365.5 C 282.833,366.167 282.833,366.167 281.5,365.5 Z"/></g>
<g><path style="opacity:0.012" fill="#1e1f1e" d="M 107.5,366.5 C 106.833,367.167 106.833,367.167 107.5,366.5 Z"/></g>
<g><path style="opacity:0.008" fill="#1e1e1e" d="M 279.5,367.5 C 279.5,367.167 279.5,366.833 279.5,366.5C 280.167,366.5 280.833,366.5 281.5,366.5C 281.158,367.338 280.492,367.672 279.5,367.5 Z"/></g>
<g><path style="opacity:0.012" fill="#202120" d="M 109.5,367.5 C 108.833,368.167 108.833,368.167 109.5,367.5 Z"/></g>
<g><path style="opacity:0.008" fill="#202120" d="M 277.5,367.5 C 278.167,367.5 278.833,367.5 279.5,367.5C 278.833,368.833 278.167,368.833 277.5,367.5 Z"/></g>
<g><path style="opacity:0.012" fill="#202120" d="M 111.5,368.5 C 110.833,369.167 110.833,369.167 111.5,368.5 Z"/></g>
<g><path style="opacity:0.012" fill="#202120" d="M 275.5,368.5 C 276.833,369.167 276.833,369.167 275.5,368.5 Z"/></g>
<g><path style="opacity:0.012" fill="#202120" d="M 112.5,369.5 C 113.833,370.167 113.833,370.167 112.5,369.5 Z"/></g>
<g><path style="opacity:0.012" fill="#202120" d="M 273.5,369.5 C 274.833,370.167 274.833,370.167 273.5,369.5 Z"/></g>
<g><path style="opacity:0.01" fill="#202120" d="M 270.5,371.5 C 270.5,371.167 270.5,370.833 270.5,370.5C 273.167,370.833 273.167,371.167 270.5,371.5 Z"/></g>
<g><path style="opacity:0.01" fill="#202120" d="M 118.5,371.5 C 118.5,371.833 118.5,372.167 118.5,372.5C 115.833,372.167 115.833,371.833 118.5,371.5 Z"/></g>
<g><path style="opacity:0.01" fill="#202120" d="M 268.5,372.5 C 268.5,372.167 268.5,371.833 268.5,371.5C 269.167,371.5 269.833,371.5 270.5,371.5C 270.158,372.338 269.492,372.672 268.5,372.5 Z"/></g>
<g><path style="opacity:0.008" fill="#202120" d="M 118.5,372.5 C 119.239,372.369 119.906,372.536 120.5,373C 119.563,373.692 118.897,373.525 118.5,372.5 Z"/></g>
<g><path style="opacity:0.008" fill="#202120" d="M 268.5,372.5 C 268.103,373.525 267.437,373.692 266.5,373C 267.094,372.536 267.761,372.369 268.5,372.5 Z"/></g>
<g><path style="opacity:0.008" fill="#202120" d="M 123.5,373.5 C 123.5,373.833 123.5,374.167 123.5,374.5C 120.833,374.167 120.833,373.833 123.5,373.5 Z"/></g>
<g><path style="opacity:0.008" fill="#202120" d="M 263.5,374.5 C 263.5,374.167 263.5,373.833 263.5,373.5C 266.167,373.833 266.167,374.167 263.5,374.5 Z"/></g>
<g><path style="opacity:0.008" fill="#202120" d="M 123.5,374.5 C 124.239,374.369 124.906,374.536 125.5,375C 124.563,375.692 123.897,375.525 123.5,374.5 Z"/></g>
<g><path style="opacity:0.008" fill="#202120" d="M 263.5,374.5 C 263.103,375.525 262.437,375.692 261.5,375C 262.094,374.536 262.761,374.369 263.5,374.5 Z"/></g>
<g><path style="opacity:0.01" fill="#202120" d="M 128.5,375.5 C 128.103,376.525 127.437,376.692 126.5,376C 127.094,375.536 127.761,375.369 128.5,375.5 Z"/></g>
<g><path style="opacity:0.01" fill="#202120" d="M 258.5,375.5 C 259.239,375.369 259.906,375.536 260.5,376C 259.563,376.692 258.897,376.525 258.5,375.5 Z"/></g>
<g><path style="opacity:0.01" fill="#1b1b1b" d="M 131.5,376.5 C 131.103,377.525 130.437,377.692 129.5,377C 130.094,376.536 130.761,376.369 131.5,376.5 Z"/></g>
<g><path style="opacity:0.01" fill="#202120" d="M 255.5,376.5 C 256.239,376.369 256.906,376.536 257.5,377C 256.563,377.692 255.897,377.525 255.5,376.5 Z"/></g>
<g><path style="opacity:0.01" fill="#1e1e1e" d="M 134.5,377.5 C 134.103,378.525 133.437,378.692 132.5,378C 133.094,377.536 133.761,377.369 134.5,377.5 Z"/></g>
<g><path style="opacity:0.012" fill="#1e1f1e" d="M 252.5,377.5 C 253.239,377.369 253.906,377.536 254.5,378C 253.563,378.692 252.897,378.525 252.5,377.5 Z"/></g>
<g><path style="opacity:0.01" fill="#1e1f1e" d="M 135.5,379.5 C 135.897,378.475 136.563,378.308 137.5,379C 136.906,379.464 136.239,379.631 135.5,379.5 Z"/></g>
<g><path style="opacity:0.01" fill="#1e1f1e" d="M 249.5,378.5 C 250.239,378.369 250.906,378.536 251.5,379C 250.563,379.692 249.897,379.525 249.5,378.5 Z"/></g>
<g><path style="opacity:0.008" fill="#1e1f1e" d="M 141.5,379.5 C 141.5,379.833 141.5,380.167 141.5,380.5C 137.5,380.167 137.5,379.833 141.5,379.5 Z"/></g>
<g><path style="opacity:0.008" fill="#1e1f1e" d="M 245.5,380.5 C 245.5,380.167 245.5,379.833 245.5,379.5C 249.5,379.833 249.5,380.167 245.5,380.5 Z"/></g>
<g><path style="opacity:0.009" fill="#1e1f1e" d="M 141.5,380.5 C 142.552,380.351 143.552,380.517 144.5,381C 143.251,381.74 142.251,381.573 141.5,380.5 Z"/></g>
<g><path style="opacity:0.009" fill="#1e1f1e" d="M 245.5,380.5 C 244.749,381.573 243.749,381.74 242.5,381C 243.448,380.517 244.448,380.351 245.5,380.5 Z"/></g>
<g><path style="opacity:0.009" fill="#202120" d="M 145.5,382.5 C 146.251,381.427 147.251,381.26 148.5,382C 147.552,382.483 146.552,382.649 145.5,382.5 Z"/></g>
<g><path style="opacity:0.009" fill="#202120" d="M 238.5,382.5 C 239.251,381.427 240.251,381.26 241.5,382C 240.552,382.483 239.552,382.649 238.5,382.5 Z"/></g>
<g><path style="opacity:0.009" fill="#202120" d="M 153.5,382.5 C 152.399,383.598 151.066,383.765 149.5,383C 150.793,382.51 152.127,382.343 153.5,382.5 Z"/></g>
<g><path style="opacity:0.01" fill="#202120" d="M 234.5,383.5 C 235.251,382.427 236.251,382.26 237.5,383C 236.552,383.483 235.552,383.649 234.5,383.5 Z"/></g>
<g><path style="opacity:0.009" fill="#202120" d="M 158.5,383.5 C 157.399,384.598 156.066,384.765 154.5,384C 155.793,383.51 157.127,383.343 158.5,383.5 Z"/></g>
<g><path style="opacity:0.009" fill="#212221" d="M 229.5,384.5 C 230.251,383.427 231.251,383.26 232.5,384C 231.552,384.483 230.552,384.649 229.5,384.5 Z"/></g>
<g><path style="opacity:0.014" fill="#1d1d1d" d="M 159.5,385.5 C 160.601,384.402 161.934,384.235 163.5,385C 162.207,385.49 160.873,385.657 159.5,385.5 Z"/></g>
<g><path style="opacity:0.01" fill="#212121" d="M 223.5,385.5 C 224.601,384.402 225.934,384.235 227.5,385C 226.207,385.49 224.873,385.657 223.5,385.5 Z"/></g>
<g><path style="opacity:0.01" fill="#202120" d="M 165.5,386.5 C 167.288,385.378 169.288,385.211 171.5,386C 169.527,386.495 167.527,386.662 165.5,386.5 Z"/></g>
<g><path style="opacity:0.009" fill="#1e1f1e" d="M 215.5,386.5 C 217.288,385.378 219.288,385.211 221.5,386C 219.527,386.495 217.527,386.662 215.5,386.5 Z"/></g>
<g><path style="opacity:0.011" fill="#1f1f1f" d="M 173.5,387.5 C 176.833,386.167 180.167,386.167 183.5,387.5C 180.167,387.5 176.833,387.5 173.5,387.5 Z"/></g>
<g><path style="opacity:0.007" fill="#1f1f1f" d="M 203.5,387.5 C 206.833,386.167 210.167,386.167 213.5,387.5C 210.167,387.5 206.833,387.5 203.5,387.5 Z"/></g>
</svg>
