<svg xmlns="http://www.w3.org/2000/svg" xmlns:xlink="http://www.w3.org/1999/xlink" version="1.1" id="Layer_1" x="0px" y="0px" viewBox="0 0 512 512" style="enable-background:new 0 0 512 512;" fill="#FFF" xml:space="preserve">
<g>
  <path d="M 382.702 195.718 L 384 153.6 L 384 102.4 L 320 153.6 L 269.5 194 L 255.568 194.854 L 256 153.6 L 256 102.4 L 192 153.6 L 143.191 191.818 L 128 191.674 L 128 128 L 128 72.215 L 111.057 51.805 L 64 51.2 L 21.179 51.2 L 0 74.4 L 0 256 L 0 460.8 L 256 460.8 L 512 460.8 L 512 281.6 L 512 102.4 L 448 153.6 L 396.932 194.367 L 382.702 195.718 Z M 179.2 384 L 153.6 384 L 128 384 L 128 345.6 L 128 307.2 C 127.777 306.306 138.701 301.558 144.203 301.359 C 148.36 301.209 154.679 301.411 161.651 301.552 C 168.881 301.698 178.003 306.906 179.2 307.2 L 179.2 345.6 L 179.2 384 Z M 307.2 384 L 281.6 384 L 256 384 L 256 345.6 L 256 307.2 L 271.48 300.354 L 289.861 300.122 L 307.2 307.2 L 307.2 345.6 L 307.2 384 Z M 435.2 384 L 409.6 384 L 384 384 L 384 345.6 L 384 307.2 L 399.183 300.354 L 417.852 300.289 L 435.2 307.2 L 435.2 345.6 L 435.2 384 Z" transform="matrix(1, 0, 0, 1, 6.528259374621939, -25.993545919560574)"/>
</g>
</svg>