<svg class="svg-icon" style="width: 1em; height: 1em;vertical-align: middle;fill: currentColor;overflow: hidden;" viewBox="0 0 1024 1024" version="1.1" xmlns="http://www.w3.org/2000/svg"><path d="M509.892478 1017.613571C229.33666 1017.613571 1.085693 789.362604 1.085693 508.806786S229.33666 0 509.892478 0s508.806786 228.250967 508.806786 508.806786S790.384433 1017.613571 509.892478 1017.613571z m0-910.321567a401.961831 401.961831 0 0 0-401.578645 401.578646c0 221.481352 180.097293 401.64251 401.578645 401.64251s401.514781-180.097293 401.514782-401.64251a401.897967 401.897967 0 0 0-401.514782-401.578646z" fill="#F2D857" /><path d="M509.189971 800.985905L231.12486 516.215043l284.89859-278.065112 278.001248 284.898591-284.834727 277.937383zM344.867157 517.620057l165.663964 169.751279 169.62355-165.663964-165.472371-169.815143-169.815143 165.727828z" fill="#EFB82E" /></svg>