<?xml version="1.0" encoding="UTF-8" standalone="no"?>
<svg
   viewBox="0 0 18 18"
   x="0px"
   y="0px"
   version="1.1"
   id="svg2"
   sodipodi:docname="InfoIcon.svg"
   inkscape:version="1.4 (e7c3feb1, 2024-10-09)"
   xmlns:inkscape="http://www.inkscape.org/namespaces/inkscape"
   xmlns:sodipodi="http://sodipodi.sourceforge.net/DTD/sodipodi-0.dtd"
   xmlns="http://www.w3.org/2000/svg"
   xmlns:svg="http://www.w3.org/2000/svg">
  <defs
     id="defs2" />
  <sodipodi:namedview
     id="namedview2"
     pagecolor="#ffffff"
     bordercolor="#000000"
     borderopacity="0.25"
     inkscape:showpageshadow="2"
     inkscape:pageopacity="0.0"
     inkscape:pagecheckerboard="0"
     inkscape:deskcolor="#d1d1d1"
     inkscape:zoom="39.6"
     inkscape:cx="9.0025253"
     inkscape:cy="11.262626"
     inkscape:window-width="1200"
     inkscape:window-height="1027"
     inkscape:window-x="0"
     inkscape:window-y="25"
     inkscape:window-maximized="0"
     inkscape:current-layer="svg2" />
  <path
     fill-rule="evenodd"
     d="M9,0 C4.029,0 0,4.029 0,9 C0,13.971 4.029,18 9,18 C13.971,18 18,13.971 18,9 C18,4.029 13.971,0 9,0 M9.5,6 L8.5,6 C8.224,6 8,5.776 8,5.5 L8,4.5 C8,4.224 8.224,4 8.5,4 L9.5,4 C9.776,4 10,4.224 10,4.5 L10,5.5 C10,5.776 9.776,6 9.5,6 M9.5,14 L8.5,14 C8.224,14 8,13.776 8,13.5 L8,8.5 C8,8.224 8.224,8 8.5,8 L9.5,8 C9.776,8 10,8.224 10,8.5 L10,13.5 C10,13.776 9.776,14 9.5,14"
     id="path1" />

  <path
     style="fill:#000000;stroke-width:0.0252525;fill-opacity:1"
     d="m 8.3080808,13.943016 c -0.122592,-0.05761 -0.1993586,-0.137633 -0.25132,-0.261994 -0.034429,-0.0824 -0.039018,-0.402646 -0.038529,-2.689049 5.3e-4,-2.4803968 0.00265,-2.6001182 0.047756,-2.69945 0.05802,-0.127763 0.1797421,-0.2238457 0.3320856,-0.2621343 0.074823,-0.018805 0.3095405,-0.026114 0.6691919,-0.020838 0.5517602,0.00809 0.5544116,0.0084 0.6716986,0.077347 0.064763,0.038072 0.144309,0.1119352 0.1767677,0.1641414 l 0.059016,0.09492 0.00677,2.6277479 0.00677,2.627746 -0.05921,0.112153 c -0.032566,0.06168 -0.1075808,0.146242 -0.1667004,0.187909 l -0.1074902,0.07576 -0.6228943,0.0066 c -0.5652599,0.006 -0.6322404,0.0022 -0.7239044,-0.04086 z"
     id="path2" />
  <path
     style="fill:#000000;fill-opacity:1;stroke-width:0.0252525"
     d="M 8.3208874,5.9446216 C 8.2061572,5.8948683 8.1252762,5.8178876 8.0657243,5.7017636 8.0224201,5.6173219 8.0176768,5.5480428 8.0176768,5 c 0,-0.5480428 0.00474,-0.6173219 0.048047,-0.7017636 0.06075,-0.1184593 0.1417743,-0.1942564 0.2608295,-0.2440008 0.07549,-0.031542 0.2069985,-0.038977 0.6814735,-0.03853 0.6384307,6.022e-4 0.7175535,0.01504 0.8455654,0.154287 C 9.9751489,4.3022184 9.9873737,4.3780637 9.9873737,5 c 0,0.6219363 -0.012225,0.6977816 -0.133781,0.8300068 C 9.7251218,5.9697537 9.6472698,5.9837768 9.0025253,5.9833055 8.528851,5.9829592 8.3912907,5.9751524 8.3208874,5.9446216 Z"
     id="path3" />
  <path
     style="fill:#000000;fill-opacity:1;stroke-width:0.0252525"
     d="M 8.1691919,17.950891 C 7.8078856,17.917696 7.1900068,17.809512 6.7956131,17.710392 4.5710427,17.151308 2.5996288,15.71115 1.3688963,13.746065 1.1353602,13.373183 0.72507134,12.535971 0.57261179,12.121212 -0.32195129,9.6875982 -0.13340528,7.0042571 1.0916174,4.7348485 1.2997337,4.349304 1.7116318,3.7290366 1.9971611,3.3712121 2.4470562,2.8074051 3.2226354,2.0818765 3.8462889,1.6414141 5.8362859,0.23595705 8.3239987,-0.28452364 10.775664,0.1916464 c 1.91157,0.37127095 3.774235,1.4655235 5.045404,2.9640023 1.188905,1.4015053 1.889759,3.0110402 2.111619,4.8494018 0.0601,0.4979753 0.06009,1.4886141 -7e-6,1.9949495 -0.298337,2.513429 -1.587345,4.738473 -3.614498,6.239232 -1.294172,0.958113 -2.910431,1.569425 -4.5328285,1.714437 -0.3404838,0.03043 -1.2721151,0.02883 -1.6161616,-0.0028 z m 1.5555429,-3.996195 c 0.1351018,-0.06291 0.2101478,-0.147164 0.2587766,-0.290535 0.021253,-0.06266 0.028966,-0.7855 0.028561,-2.676768 C 10.01145,8.0827909 10.024509,8.286171 9.827528,8.1132197 9.685971,7.9889311 9.5940907,7.9755841 8.9411025,7.9844548 l -0.5866528,0.00797 -0.122234,0.075758 C 8.152004,8.1178949 8.0897745,8.182201 8.051203,8.2552343 L 7.992424,8.3665295 v 2.6269445 c 0,2.617969 1.814e-4,2.627319 0.05309,2.736613 0.056373,0.116452 0.1633639,0.211093 0.2878189,0.254596 0.043929,0.01535 0.3250854,0.02721 0.669192,0.02823 0.5735093,0.0017 0.597758,-2.66e-4 0.7222095,-0.05822 z M 9.7371899,5.9513442 C 9.798402,5.9190278 9.8825758,5.8441854 9.9242424,5.7850275 L 10,5.6774677 V 5 4.3225323 L 9.9242424,4.2149725 C 9.8825758,4.1558146 9.798402,4.0809722 9.7371899,4.0486558 9.6293194,3.9917071 9.6067854,3.9899162 9.0048667,3.9904535 8.3301566,3.9910561 8.2554258,4.0041783 8.1262053,4.1447407 8.0038399,4.2778462 7.9924242,4.3508255 7.9924242,5 c 0,0.6491745 0.011416,0.7221538 0.1337811,0.8552593 0.1292205,0.1405624 0.2039513,0.1536846 0.8786614,0.1542872 0.6019187,5.373e-4 0.6244527,-0.00125 0.7323232,-0.058202 z"
     id="path4" />
  <path
     style="fill:#000000;fill-opacity:1;stroke-width:0.0252525"
     d="m 8.3080808,13.922596 c -0.1169842,-0.06181 -0.1672559,-0.11334 -0.2176583,-0.223101 -0.044056,-0.09594 -0.046384,-0.231536 -0.046384,-2.70202 0,-2.5012395 0.00184,-2.6050631 0.047968,-2.7066634 0.030151,-0.06641 0.087851,-0.1320674 0.1553428,-0.1767677 l 0.1073747,-0.071115 0.5574865,-0.00798 c 0.7182684,-0.010279 0.7385729,-0.00701 0.9046147,0.1456443 l 0.1326697,0.1219733 0.012706,2.6353325 c 0.011874,2.462755 0.00984,2.641119 -0.030993,2.723715 -0.051075,0.103303 -0.1052616,0.168101 -0.2060781,0.24643 -0.07113,0.05526 -0.08782,0.05658 -0.7070707,0.05559 -0.5288105,-8.43e-4 -0.646812,-0.0077 -0.7099783,-0.04104 z"
     id="path5" />
  <path
     style="fill:#ffffff;fill-opacity:1;stroke-width:0.0252525"
     d="M 8.1691919,17.950891 C 7.5259667,17.891795 6.7132775,17.714836 6.0755861,17.49502 4.777299,17.047492 3.6417331,16.333774 2.650303,15.342186 1.8870501,14.578811 1.3634109,13.840752 0.89597131,12.869491 -0.48329018,10.003615 -0.23292358,6.6172609 1.5532868,3.9789154 1.894768,3.474526 2.1777983,3.1345253 2.6498124,2.6616732 4.1721927,1.1365898 5.9939278,0.27645152 8.1818182,0.04971825 8.5136548,0.01532969 9.4743561,0.01527668 9.8242551,0.04962763 11.888511,0.25228369 13.763177,1.1141246 15.235881,2.5375157 c 2.558902,2.4732194 3.420068,6.1836265 2.210932,9.5259913 -0.922775,2.550788 -2.990712,4.572617 -5.578126,5.453752 -0.595402,0.202762 -1.433525,0.378329 -2.0833335,0.43641 -0.3404838,0.03043 -1.2721151,0.02883 -1.6161616,-0.0028 z M 9.7374106,13.94484 C 9.8467005,13.88775 9.885347,13.84898 9.9429854,13.738652 l 0.070983,-0.135876 -0.007,-2.628408 C 10.00056,8.5568114 9.9965583,8.3396765 9.957098,8.2676374 9.9017631,8.1666177 9.7531008,8.0363997 9.6649409,8.0117285 9.6270013,8.0011111 9.3175505,7.9924242 8.9772727,7.9924242 c -0.6087022,0 -0.6204134,9.889e-4 -0.7256631,0.061273 -0.058837,0.0337 -0.1383823,0.1065891 -0.1767677,0.1619755 l -0.069791,0.1007023 -0.00666,2.651311 -0.00666,2.65131 0.053434,0.110381 c 0.056686,0.117097 0.163495,0.211728 0.2881631,0.255306 0.043892,0.01534 0.3268137,0.02732 0.6726215,0.02848 l 0.5968639,0.002 z M 9.7371899,5.9513442 C 9.798402,5.9190278 9.8825758,5.8441854 9.9242424,5.7850275 L 10,5.6774677 V 5 4.3225323 L 9.9242424,4.2149725 C 9.8825758,4.1558146 9.798402,4.0809722 9.7371899,4.0486558 9.6293194,3.9917071 9.6067854,3.9899162 9.0048667,3.9904535 8.3301566,3.9910561 8.2554258,4.0041783 8.1262053,4.1447407 8.0035273,4.2781861 7.9923861,4.3501682 7.9929788,5.005502 c 6.053e-4,0.6691584 0.013659,0.7414472 0.1578614,0.8741758 0.1242525,0.1143666 0.2164957,0.1281303 0.8666527,0.1293149 0.5892435,0.00107 0.6119066,-7.419e-4 0.719697,-0.057648 z"
     id="path6" />
  <path
     style="fill:#ffffff;fill-opacity:0;stroke-width:0.0252525"
     d="m 8.3080808,13.922596 c -0.1169842,-0.06181 -0.1672559,-0.11334 -0.2176583,-0.223101 -0.044056,-0.09594 -0.046384,-0.231536 -0.046384,-2.70202 0,-2.5012395 0.00184,-2.6050631 0.047968,-2.7066634 0.030151,-0.06641 0.087851,-0.1320674 0.1553428,-0.1767677 l 0.1073747,-0.071115 0.5574865,-0.00798 c 0.7182684,-0.010279 0.7385729,-0.00701 0.9046147,0.1456443 l 0.1326697,0.1219733 0.012737,2.6353325 c 0.013597,2.813238 0.018166,2.689434 -0.1050927,2.84758 -0.026035,0.0334 -0.083454,0.08738 -0.1275981,0.11995 -0.079264,0.05848 -0.08813,0.0592 -0.7129826,0.0582 -0.5274406,-8.42e-4 -0.6453257,-0.0077 -0.7084778,-0.04104 z"
     id="path7" />
  <path
     style="fill:#ffffff;fill-opacity:0;stroke-width:0.0252525"
     d="M 8.2904968,5.9080669 C 8.2391589,5.8809536 8.1652952,5.8170147 8.1263554,5.7659804 8.0589303,5.6776138 8.0549537,5.6571466 8.0429293,5.3365954 c -0.00694,-0.1851275 -0.00694,-0.4880633 0,-0.6731908 0.012029,-0.3206837 0.015978,-0.3409885 0.083534,-0.429526 0.1389432,-0.1820978 0.1968131,-0.1953908 0.8512465,-0.195536 0.3187074,-7.07e-5 0.6226838,0.011508 0.6755032,0.025731 0.1167133,0.031428 0.25025,0.1633273 0.2844854,0.280998 0.033107,0.1137919 0.033515,1.1839493 4.981e-4,1.3065642 C 9.9069606,5.767636 9.7745796,5.9012217 9.6576203,5.9347652 9.6100014,5.9484221 9.30392,5.9590937 8.9774394,5.9584799 8.4386797,5.9574669 8.3752148,5.9528094 8.2904968,5.9080669 Z"
     id="path8" />
  <path
     style="fill:#6b6b6b;fill-opacity:0.88803089;stroke-width:0.0252525"
     d="m 8.3080808,13.922596 c -0.1169842,-0.06181 -0.1672559,-0.11334 -0.2176583,-0.223101 -0.044056,-0.09594 -0.046384,-0.231536 -0.046384,-2.70202 0,-2.5012395 0.00184,-2.6050631 0.047968,-2.7066634 0.030151,-0.06641 0.087851,-0.1320674 0.1553428,-0.1767677 l 0.1073747,-0.071115 0.5574865,-0.00798 c 0.7182684,-0.010279 0.7385729,-0.00701 0.9046147,0.1456443 l 0.1326697,0.1219733 0.012737,2.6353325 c 0.013597,2.813238 0.018166,2.689434 -0.1050927,2.84758 -0.026035,0.0334 -0.083454,0.08738 -0.1275981,0.11995 -0.079264,0.05848 -0.08813,0.0592 -0.7129826,0.0582 -0.5274406,-8.42e-4 -0.6453257,-0.0077 -0.7084778,-0.04104 z"
     id="path9" />
  <path
     style="fill:#52b620;fill-opacity:0;stroke-width:0.0252525"
     d="m 8.3081371,13.899611 c -0.1149444,-0.05993 -0.1586207,-0.107992 -0.2018904,-0.222148 -0.03509,-0.09258 -0.038721,-0.3979 -0.032473,-2.730493 l 0.00703,-2.6262629 0.05727,-0.08029 c 0.031498,-0.04416 0.09534,-0.1038188 0.1418696,-0.1325758 0.079424,-0.049087 0.1217761,-0.052285 0.6923486,-0.052285 0.3342621,0 0.6368108,0.011049 0.6723306,0.024554 0.03552,0.013505 0.1143234,0.070404 0.1751191,0.1264438 l 0.1105375,0.1018899 0.016989,2.443001 c 0.00955,1.373614 0.0072,2.549699 -0.00538,2.686753 -0.024177,0.263501 -0.059306,0.334532 -0.2212371,0.447335 -0.073909,0.05149 -0.1051057,0.05386 -0.7070707,0.05371 -0.5217345,-1.28e-4 -0.6427349,-0.0069 -0.7054518,-0.03963 z"
     id="path10" />
  <path
     style="fill:#4ca61d;fill-opacity:0.1891892;stroke-width:0.0252525"
     d="M 8.2904968,5.9080669 C 8.2391589,5.8809536 8.1652952,5.8170147 8.1263554,5.7659804 8.0589303,5.6776138 8.0549537,5.6571466 8.0429293,5.3365954 c -0.00694,-0.1851275 -0.00694,-0.4880633 0,-0.6731908 0.012029,-0.3206837 0.015978,-0.3409885 0.083534,-0.429526 0.1389432,-0.1820978 0.1968131,-0.1953908 0.8512465,-0.195536 0.3187074,-7.07e-5 0.6226838,0.011508 0.6755032,0.025731 0.1167133,0.031428 0.25025,0.1633273 0.2844854,0.280998 0.033107,0.1137919 0.033515,1.1839493 4.981e-4,1.3065642 C 9.9069606,5.767636 9.7745796,5.9012217 9.6576203,5.9347652 9.6100014,5.9484221 9.30392,5.9590937 8.9774394,5.9584799 8.4386797,5.9574669 8.3752148,5.9528094 8.2904968,5.9080669 Z"
     id="path11" />
  <path
     style="fill:#4ca61d;fill-opacity:0;stroke-width:0.0252525"
     d="m 8.3081371,13.899611 c -0.1149444,-0.05993 -0.1586207,-0.107992 -0.2018904,-0.222148 -0.03509,-0.09258 -0.038721,-0.3979 -0.032473,-2.730493 l 0.00703,-2.6262629 0.05727,-0.08029 c 0.031498,-0.04416 0.09534,-0.1038188 0.1418696,-0.1325758 0.079424,-0.049087 0.1217761,-0.052285 0.6923486,-0.052285 0.3342621,0 0.6368108,0.011049 0.6723306,0.024554 0.03552,0.013505 0.1143234,0.070404 0.1751191,0.1264438 l 0.1105375,0.1018899 0.016989,2.443001 c 0.00955,1.373614 0.0072,2.549699 -0.00538,2.686753 -0.024177,0.263501 -0.059306,0.334532 -0.2212371,0.447335 -0.073909,0.05149 -0.1051057,0.05386 -0.7070707,0.05371 -0.5217345,-1.28e-4 -0.6427349,-0.0069 -0.7054518,-0.03963 z"
     id="path12" />
  <path
     style="fill:#4ca61d;fill-opacity:0;stroke-width:0.0252525"
     d="M 8.5433602,5.9375235 C 8.3036863,5.920246 8.2277143,5.8834688 8.1274203,5.7361715 8.0576744,5.6337388 8.0295335,5.2677811 8.0509648,4.7419069 c 0.016301,-0.3999796 0.033003,-0.4593902 0.164207,-0.5841024 0.064146,-0.060972 0.1079827,-0.075823 0.2863453,-0.097005 0.2857026,-0.033931 1.1141069,-0.00593 1.203696,0.040686 0.07849,0.040841 0.1609943,0.1269346 0.2076611,0.2166961 0.046537,0.089512 0.046219,1.2740198 -3.656e-4,1.3640457 -0.04548,0.087891 -0.12862,0.1754177 -0.2029126,0.21362 -0.074938,0.038534 -0.8336904,0.065648 -1.1662358,0.041676 z"
     id="path13" />
  <path
     style="fill:#4ca61d;fill-opacity:0;stroke-width:0.0252525"
     d="M 8.5433602,5.9375235 C 8.3036863,5.920246 8.2277143,5.8834688 8.1274203,5.7361715 8.0576744,5.6337388 8.0295335,5.2677811 8.0509648,4.7419069 c 0.016301,-0.3999796 0.033003,-0.4593902 0.164207,-0.5841024 0.064146,-0.060972 0.1079827,-0.075823 0.2863453,-0.097005 0.2857026,-0.033931 1.1141069,-0.00593 1.203696,0.040686 0.07849,0.040841 0.1609943,0.1269346 0.2076611,0.2166961 0.046537,0.089512 0.046219,1.2740198 -3.656e-4,1.3640457 -0.04548,0.087891 -0.12862,0.1754177 -0.2029126,0.21362 -0.074938,0.038534 -0.8336904,0.065648 -1.1662358,0.041676 z"
     id="path14" />
</svg>
