<?xml version="1.0" encoding="UTF-8" standalone="no"?>
<svg
   version="1.1"
   x="0px"
   y="0px"
   viewBox="0 0 24 30"
   style="enable-background:new 0 0 24 24;"
   xml:space="preserve"
   id="svg12"
   sodipodi:docname="MushroomCloudIconWhite.svg"
   inkscape:version="1.1.2 (0a00cf5339, 2022-02-04)"
   xmlns:inkscape="http://www.inkscape.org/namespaces/inkscape"
   xmlns:sodipodi="http://sodipodi.sourceforge.net/DTD/sodipodi-0.dtd"
   xmlns="http://www.w3.org/2000/svg"
   xmlns:svg="http://www.w3.org/2000/svg"><defs
     id="defs16" /><sodipodi:namedview
     id="namedview14"
     pagecolor="#ffffff"
     bordercolor="#666666"
     borderopacity="1.0"
     inkscape:pageshadow="2"
     inkscape:pageopacity="0.0"
     inkscape:pagecheckerboard="0"
     showgrid="false"
     inkscape:zoom="29.1"
     inkscape:cx="12.010309"
     inkscape:cy="12.164948"
     inkscape:window-width="3072"
     inkscape:window-height="1653"
     inkscape:window-x="0"
     inkscape:window-y="38"
     inkscape:window-maximized="1"
     inkscape:current-layer="svg12" /><g
     id="g6"><path
       d="M22.835,6.395C22.944,6.111,23,5.809,23,5.5c0-1.192-0.851-2.21-2.009-2.441c-1.122-1.147-2.989-1.373-4.34-0.517   C15.422,0.941,13.534,0,11.5,0C9.363,0,7.351,1.073,6.145,2.827C5.609,2.61,5.058,2.5,4.5,2.5C2.019,2.5,0,4.519,0,7   c0,0.501,0.092,1.005,0.273,1.5C0.094,8.805,0,9.146,0,9.5c0,1.103,0.897,2,2,2c0.354,0,0.695-0.094,1-0.273   c0.657,0.241,1.31,0.331,2.001,0.24c0,0.011,0,0.022,0,0.033C5,12.878,6.122,14,7.5,14h0.068c-0.405-1.246-0.886-2.121-1.205-2.439   c-0.195-0.195-0.195-0.512,0-0.707s0.512-0.195,0.707,0c0.589,0.588,1.246,1.997,1.673,3.588c0.005,0.019,0.001,0.037,0.004,0.056   c0.045,0.165,0.094,0.326,0.134,0.495c-0.457,0.029-1.044,0.142-1.44,0.498C7.152,15.748,7,16.098,7,16.5   c0,0.354,0.128,0.667,0.37,0.905c0.655,0.645,1.998,0.624,3.42,0.602c0.48-0.007,0.939-0.007,1.42,0   c0.257,0.004,0.512,0.008,0.76,0.008c1.125,0,2.123-0.082,2.66-0.61C15.872,17.167,16,16.854,16,16.5   c0-0.402-0.152-0.752-0.44-1.01c-0.396-0.356-0.983-0.469-1.44-0.498c0.038-0.165,0.09-0.319,0.133-0.481   c0.003-0.023-0.002-0.046,0.004-0.07c0.172-0.641,0.383-1.248,0.61-1.788c0.002-0.004,0.003-0.009,0.005-0.013c0,0,0,0,0.001,0.001   c0.336-0.795,0.709-1.437,1.058-1.787c0.195-0.195,0.512-0.195,0.707,0s0.195,0.512,0,0.707c-0.25,0.25-0.6,0.845-0.935,1.689   c0.366,0.163,0.792,0.25,1.298,0.25c0.801,0,1.153-0.335,1.482-0.718C18.801,12.926,19.146,13,19.5,13   c1.222,0,2.242-0.881,2.458-2.042C23.119,10.742,24,9.722,24,8.5C24,7.636,23.549,6.846,22.835,6.395z M18.854,7.854   c-0.559,0.558-1.83,0.724-2.718,0.357c-0.275-0.114-0.504-0.271-0.683-0.466C14.703,8.656,13.249,9.5,11.5,9.5   S8.297,8.656,7.548,7.745C7.369,7.939,7.14,8.097,6.865,8.211c-0.89,0.367-2.16,0.202-2.718-0.357   c-0.195-0.195-0.195-0.512,0-0.707s0.512-0.195,0.707,0c0.197,0.197,1.021,0.393,1.628,0.14C6.835,7.141,7,6.891,7,6.5   C7,6.224,7.224,6,7.5,6S8,6.224,8,6.5c0,0.514,1.375,2,3.5,2s3.5-1.486,3.5-2C15,6.224,15.224,6,15.5,6S16,6.224,16,6.5   c0,0.391,0.165,0.641,0.518,0.787c0.609,0.252,1.432,0.057,1.628-0.14c0.195-0.195,0.512-0.195,0.707,0S19.049,7.658,18.854,7.854z   "
       id="path2" /><path
       d="M17.5,21c-0.916,0-2.228,0.569-2.869,0.876c-0.4-0.589-0.506-1.428-0.635-2.439C13.964,19.187,13.752,19,13.5,19h-4   c-0.252,0-0.475,0.273-0.507,0.522c-0.119,0.938-0.225,1.766-0.624,2.354C7.728,21.569,6.416,21,5.5,21C3.434,21,3,22.359,3,23.5   C3,23.776,3.224,24,3.5,24h16c0.276,0,0.5-0.224,0.5-0.5C20,22.359,19.566,21,17.5,21z"
       id="path4" /></g><path
     style="fill:#ffffff;stroke-width:0.0343643"
     d="m 9.1241213,17.967154 c -1.268666,-0.09348 -1.9217536,-0.481488 -2.0840316,-1.238163 -0.114678,-0.534725 0.1940546,-1.150474 0.7164433,-1.428904 0.2357254,-0.125641 0.6259715,-0.239342 0.9274983,-0.270234 0.1189718,-0.01219 0.2163123,-0.02494 0.2163123,-0.02833 0,-0.0034 -0.055111,-0.221617 -0.122469,-0.484945 -0.4848798,-1.895587 -1.4173241,-3.713217 -1.9567987,-3.814423 -0.1795055,-0.03368 -0.3705615,0.03418 -0.4948649,0.175752 -0.1037234,0.118135 -0.1254832,0.200776 -0.1081265,0.410651 0.010895,0.131738 0.025917,0.157678 0.258754,0.446835 0.2290948,0.284509 0.6626931,1.138815 0.8931883,1.759823 0.085661,0.230789 0.1557464,0.437684 0.1557464,0.459767 0,0.05697 -0.4294808,0.01044 -0.7176357,-0.07775 C 6.1108137,13.663832 5.5691873,13.192441 5.2553089,12.525773 5.1235289,12.245877 5.0171821,11.827481 5.0171821,11.58892 v -0.132191 l -0.4101897,0.01463 c -0.4569065,0.01629 -0.9157127,-0.04468 -1.354126,-0.179944 l -0.2599117,-0.08019 -0.1696344,0.08118 C 2.2839062,11.550556 1.6356048,11.533546 1.0901665,11.246926 0.15565627,10.755855 -0.22177708,9.6564804 0.20512118,8.6689979 L 0.2828502,8.4891986 0.19444074,8.1707162 C 0.06214576,7.6941423 0.03436426,7.489456 0.03436426,6.9913172 c 0,-0.9231017 0.23229986,-1.6968935 0.73703388,-2.4550632 C 1.3325682,3.6933107 2.1415425,3.0693639 3.0811246,2.754805 3.5764237,2.5889858 3.9419344,2.5305903 4.4845361,2.5305903 c 0.5361203,0 0.8940429,0.056216 1.3703309,0.2152254 L 6.1526237,2.8452223 6.3473814,2.5864498 C 7.4519206,1.1188615 9.2431595,0.1555203 11.083106,0.03954305 c 1.549668,-0.09768012 3.008593,0.33263946 4.277719,1.26174115 0.284874,0.2085508 0.989882,0.8826248 1.151202,1.1006903 0.0567,0.076646 0.118004,0.1397218 0.136227,0.1401685 0.01822,4.468e-4 0.15043,-0.060212 0.293792,-0.134797 0.909278,-0.4730585 2.073055,-0.4818075 3.041885,-0.022868 0.364258,0.1725506 0.582353,0.3142482 0.809317,0.5258176 0.114914,0.1071194 0.221785,0.1666543 0.395189,0.220148 1.345049,0.4149363 2.096179,1.8067679 1.674996,3.1037374 -0.05215,0.160602 -0.05167,0.1710893 0.0099,0.2137426 0.788847,0.5462141 1.219456,1.4952855 1.081154,2.3828859 -0.08974,0.5759189 -0.292918,0.9769007 -0.707097,1.3954765 -0.316526,0.319884 -0.601719,0.498432 -1.007285,0.630619 l -0.28609,0.09325 -0.102829,0.306711 c -0.136156,0.406114 -0.350814,0.742522 -0.65846,1.031927 -0.295378,0.277864 -0.543431,0.432635 -0.882206,0.55045 -0.525558,0.182771 -1.056388,0.186119 -1.592743,0.01005 L 18.489389,12.7743 18.26392,12.985215 c -0.383615,0.358853 -0.724464,0.485575 -1.306066,0.485575 -0.191011,0 -0.439051,-0.01641 -0.551199,-0.03646 -0.248806,-0.04449 -0.667823,-0.174399 -0.667823,-0.207043 0,-0.01309 0.07699,-0.196581 0.171086,-0.407765 0.210698,-0.472873 0.493727,-0.956254 0.700903,-1.197066 0.09266,-0.1077 0.165641,-0.23148 0.179246,-0.304002 0.02883,-0.153693 -0.03535,-0.374419 -0.139021,-0.478088 -0.10669,-0.106691 -0.323915,-0.167879 -0.487937,-0.137443 -0.518713,0.09625 -1.441057,1.906153 -1.929921,3.787051 l -0.134802,0.518646 0.213004,0.02182 c 0.503794,0.05161 1.014964,0.259741 1.273897,0.518674 0.08748,0.08748 0.207713,0.262114 0.267826,0.389006 0.09873,0.208413 0.109084,0.261246 0.109061,0.556725 -2.1e-5,0.265003 -0.01444,0.357704 -0.0766,0.492423 -0.237094,0.51389 -0.718807,0.798425 -1.589902,0.939113 -0.265292,0.04285 -0.74592,0.05424 -2.560281,0.06067 -1.228522,0.0044 -2.4035953,-0.0046 -2.6112737,-0.0199 z M 12.088983,9.4821227 C 13.255669,9.3535392 14.344992,8.857679 15.155765,8.0861234 l 0.306794,-0.2919543 0.139705,0.1195824 c 0.07684,0.065771 0.228027,0.1666574 0.335976,0.2241935 0.851072,0.4536169 2.302849,0.3327282 2.889249,-0.2405862 0.136394,-0.1333506 0.175947,-0.2254959 0.175947,-0.4098935 0,-0.2887646 -0.20242,-0.489779 -0.496087,-0.4926419 -0.148261,-0.00145 -0.205523,0.019345 -0.386893,0.1404687 -0.275732,0.1841405 -0.488819,0.2363 -0.955508,0.2338893 -0.310755,-0.0016 -0.414689,-0.016192 -0.584192,-0.081992 -0.36004,-0.1397632 -0.56701,-0.4286711 -0.56701,-0.7914832 0,-0.3826642 -0.402723,-0.6278323 -0.744711,-0.4533629 C 15.093733,6.1317753 15.020916,6.243577 14.981921,6.4831708 14.942251,6.7269234 14.827126,6.9211306 14.545052,7.220144 14.242908,7.540432 13.940061,7.7635863 13.505155,7.9863963 12.827196,8.3337265 12.25464,8.4699601 11.477663,8.4688175 10.573256,8.4674876 9.7972787,8.229923 9.0378007,7.7218567 8.500279,7.3622718 8.0071144,6.7522086 8.0067443,6.4464014 8.0064694,6.2245557 7.8105601,6.0223577 7.5638069,5.9892612 7.2520893,5.9474509 6.975945,6.2147746 6.975945,6.558345 6.975945,6.9577 6.6711529,7.2543997 6.1569921,7.3555546 5.7396423,7.4376632 5.1093581,7.3290811 4.8792113,7.1354251 4.4676715,6.7891371 3.9044426,7.0960876 4.001554,7.613734 4.0515014,7.8799773 4.4545962,8.1654763 5.0015488,8.3219979 5.3644309,8.4258443 6.1810574,8.4359601 6.5292096,8.3409216 6.8526505,8.2526289 7.2238818,8.0675196 7.3963742,7.9085213 L 7.5463027,7.770322 7.6914089,7.9387801 c 0.1761811,0.2045336 0.6188767,0.5602086 0.9683849,0.7780295 0.6563,0.4090206 1.4429362,0.6694636 2.3539522,0.7793571 0.228638,0.02758 0.760611,0.020632 1.075237,-0.014044 z"
     id="path163" /><path
     style="fill:#ffffff;stroke-width:0.0343643"
     d="m 3.2996541,23.926064 c -0.065775,-0.03305 -0.1563738,-0.114208 -0.2013319,-0.18036 -0.077354,-0.113818 -0.080714,-0.140566 -0.062597,-0.498281 0.034714,-0.68541 0.2319672,-1.186236 0.6240689,-1.584508 0.1784224,-0.18123 0.307115,-0.275978 0.4982818,-0.366852 0.390243,-0.185508 0.6130954,-0.234719 1.1512028,-0.254212 0.4038745,-0.01463 0.5390185,-0.0056 0.8419243,0.05609 0.4544894,0.0926 1.1377805,0.322121 1.7425763,0.585332 0.2574928,0.112063 0.4814066,0.195569 0.4975859,0.185569 0.055608,-0.03437 0.2261045,-0.408727 0.3160042,-0.693852 0.092424,-0.293133 0.1967055,-0.830787 0.2612216,-1.346813 0.020086,-0.160653 0.060343,-0.357098 0.08946,-0.436543 0.063714,-0.173844 0.2459515,-0.342856 0.399978,-0.370951 0.06183,-0.01128 1.02479,-0.01591 2.13991,-0.01029 1.949506,0.0098 2.031816,0.01283 2.139905,0.0782 0.154522,0.09344 0.235848,0.286158 0.2831,0.670854 0.06046,0.49225 0.194475,1.192257 0.276311,1.443299 0.07792,0.239031 0.265749,0.644264 0.311817,0.672736 0.01536,0.0095 0.217854,-0.06652 0.449981,-0.168915 0.56769,-0.250427 1.099735,-0.442039 1.556068,-0.560408 0.341536,-0.08859 0.432714,-0.09805 0.945017,-0.09805 0.486832,0 0.604909,0.01098 0.835024,0.07768 0.415139,0.12032 0.664968,0.263404 0.937746,0.537073 0.411339,0.412685 0.590991,0.869883 0.622951,1.585359 l 0.01846,0.413169 -0.09724,0.115559 c -0.189669,0.225409 0.455727,0.209311 -8.38972,0.209253 -7.6126167,-3.4e-5 -8.0748658,-0.0034 -8.1877041,-0.06014 z"
     id="path202" /></svg>
