<?xml version="1.0" encoding="UTF-8" standalone="no"?>
<svg
   version="1.1"
   x="0px"
   y="0px"
   viewBox="0 0 100 125"
   style="enable-background:new 0 0 100 100;"
   xml:space="preserve"
   id="svg110"
   sodipodi:docname="QuestionMarkIcon.svg"
   inkscape:version="1.2.2 (b0a8486541, 2022-12-01)"
   xmlns:inkscape="http://www.inkscape.org/namespaces/inkscape"
   xmlns:sodipodi="http://sodipodi.sourceforge.net/DTD/sodipodi-0.dtd"
   xmlns="http://www.w3.org/2000/svg"
   xmlns:svg="http://www.w3.org/2000/svg"><defs
     id="defs114" /><sodipodi:namedview
     id="namedview112"
     pagecolor="#ffffff"
     bordercolor="#000000"
     borderopacity="0.25"
     inkscape:showpageshadow="2"
     inkscape:pageopacity="0.0"
     inkscape:pagecheckerboard="0"
     inkscape:deskcolor="#d1d1d1"
     showgrid="false"
     inkscape:zoom="5.3400704"
     inkscape:cx="49.812077"
     inkscape:cy="62.545992"
     inkscape:window-width="1807"
     inkscape:window-height="1167"
     inkscape:window-x="0"
     inkscape:window-y="0"
     inkscape:window-maximized="1"
     inkscape:current-layer="svg110" /><g
     id="g104"><g
       id="g102"><g
         id="g100"><path
           d="M50,85c-19.3,0-35-15.7-35-35s15.7-35,35-35s35,15.7,35,35C85,69.3,69.3,85,50,85z M50,21C33.9,21,20.9,34,20.9,50     s13,29.1,29.1,29.1s29.1-13,29.1-29.1C79,34,66,21,50,21z"
           id="path94" /><path
           d="M49.1,59.7c-1.6,0-3-1.3-3-3c0-4.6,3-8.6,7.3-9.9c1.9-0.6,3.2-2.3,3.1-4.3c0-3.6-3-6.6-6.6-6.6c-3.6,0-6.6,3-6.6,6.6     c0,1.6-1.3,3-3,3c-1.6,0-3-1.3-3-3C37.5,35.6,43.1,30,50,30s12.5,5.6,12.5,12.5c0,4.6-3,8.6-7.3,9.9c-1.9,0.6-3.2,2.3-3.1,4.3     C52.1,58.3,50.7,59.7,49.1,59.7C49.1,59.7,49.1,59.7,49.1,59.7z"
           id="path96" /><circle
           cx="49.1"
           cy="65.9"
           r="3.6"
           id="circle98" /></g></g></g></svg>
