<?xml version="1.0" encoding="UTF-8"?>
<svg id="svg4" xmlns="http://www.w3.org/2000/svg" xmlns:svg="http://www.w3.org/2000/svg" xmlns:sodipodi="http://sodipodi.sourceforge.net/DTD/sodipodi-0.dtd" xmlns:inkscape="http://www.inkscape.org/namespaces/inkscape" version="1.1" viewBox="0 0 24 24">
  <!-- Generator: Adobe Illustrator 29.3.1, SVG Export Plug-In . SVG Version: 2.1.0 Build 151)  -->
  <defs>
    <style>
      .st0 {
        fill: #333;
      }

      .st0, .st1 {
        fill-opacity: 0;
      }

      .st1 {
        fill: #ececec;
      }

      .st2 {
        fill: #fff;
      }
    </style>
  </defs>
  <sodipodi:namedview id="namedview6" bordercolor="#666666" borderopacity="1.0" inkscape:current-layer="svg4" inkscape:cx="11.986254" inkscape:cy="11.931271" inkscape:pagecheckerboard="0" inkscape:pageopacity="0.0" inkscape:pageshadow="2" inkscape:window-height="1653" inkscape:window-maximized="1" inkscape:window-width="3072" inkscape:window-x="0" inkscape:window-y="38" inkscape:zoom="36.375" pagecolor="#ffffff" showgrid="false"/>
  <path id="path2" d="M12,0c-3.4,2.9-5.5,3-9,3v11.5c0,4.6,3.2,5.8,9,9.5,5.8-3.7,9-4.9,9-9.5V3c-3.5,0-5.6,0-9-3ZM12,2.5c2.5,1.8,4.6,2.3,7,2.4v9.6c0,3-1.7,3.8-7,7.1-5.3-3.3-7-4.1-7-7.1V5c2.4,0,4.5-.6,7-2.4h0ZM13.2,6.1h0ZM16.6,7.1h0ZM16.9,13.8h0ZM13.5,14h0Z"/>
  <path id="path862" class="st1" d="M12,0l-.4.3c-2.1,1.7-3.7,2.4-6.1,2.6h-2.5v12.6c.4,2.2,1.4,3.5,4.2,5.3.7.4,1,.6,2.8,1.8.6.4,1.3.8,1.6,1s.4.2.4.2c0,0,.3-.2.6-.3.3-.2,1.1-.7,1.7-1.1,3-1.8,3.8-2.4,4.7-3.3s1.6-2.1,1.9-3.6V3h-.7c-1.9,0-2.7,0-3.6-.4-1.4-.4-2.7-1-4.3-2.3l-.4-.4h.1ZM12,2.5l.3.2c1.5,1,2.9,1.7,4.5,2,.7,0,1,.2,2,.2h.2v10.7c-.3,1.5-1.1,2.4-3.8,4.1-.4.2-1.2.8-1.9,1.2-.7.4-1.3.8-1.3.8,0,0-2.8-1.7-3.3-2-2.5-1.6-3.3-2.5-3.6-4V5h.6c.3,0,1.1,0,1.4-.2,1.7-.3,3.1-.9,4.6-1.9l.4-.3h0Z"/>
  <path id="path1012" class="st0" d="M12,0l-.4.3c-2.1,1.7-3.7,2.4-6.1,2.6h-2.5v12.6c.4,2.2,1.4,3.5,4.2,5.3.7.4,1,.6,2.8,1.8.6.4,1.3.8,1.6,1s.4.2.4.2c0,0,.3-.2.6-.3.3-.2,1.1-.7,1.7-1.1,3-1.8,3.8-2.4,4.7-3.3s1.6-2.1,1.9-3.6V3h-.7c-1.9,0-2.7,0-3.6-.4-1.4-.4-2.7-1-4.3-2.3l-.4-.4h.1ZM12,2.5l.3.2c1.5,1,2.9,1.7,4.5,2,.7,0,1,.2,2,.2h.2v10.7c-.3,1.5-1.1,2.4-3.8,4.1-.4.2-1.2.8-1.9,1.2-.7.4-1.3.8-1.3.8,0,0-2.8-1.7-3.3-2-2.5-1.6-3.3-2.5-3.6-4V5h.6c.3,0,1.1,0,1.4-.2,1.7-.3,3.1-.9,4.6-1.9l.4-.3h0Z"/>
  <path id="path1162" class="st0" d="M12,0l-.4.3c-2.1,1.7-3.7,2.4-6.1,2.6h-2.5v12.6c.4,2.2,1.4,3.5,4.2,5.3.7.4,1,.6,2.8,1.8.6.4,1.3.8,1.6,1s.4.2.4.2c0,0,.3-.2.6-.3.3-.2,1.1-.7,1.7-1.1,3-1.8,3.8-2.4,4.7-3.3s1.6-2.1,1.9-3.6V3h-.7c-1.9,0-2.7,0-3.6-.4-1.4-.4-2.7-1-4.3-2.3l-.4-.4h.1ZM12,2.5l.3.2c1.5,1,2.9,1.7,4.5,2,.7,0,1,.2,2,.2h.2v10.7c-.3,1.5-1.1,2.4-3.8,4.1-.4.2-1.2.8-1.9,1.2-.7.4-1.3.8-1.3.8,0,0-2.8-1.7-3.3-2-2.5-1.6-3.3-2.5-3.6-4V5h.6c.3,0,1.1,0,1.4-.2,1.7-.3,3.1-.9,4.6-1.9l.4-.3h0Z"/>
  <path id="path1201" d="M12,0l-.4.3c-2.1,1.7-3.7,2.4-6.1,2.6h-2.5v12.6c.4,2.2,1.4,3.5,4.2,5.3.7.4,1,.6,2.8,1.8.6.4,1.3.8,1.6,1s.4.2.4.2c0,0,.3-.2.6-.3.3-.2,1.1-.7,1.7-1.1,3-1.8,3.8-2.4,4.7-3.3s1.6-2.1,1.9-3.6V3h-.7c-1.9,0-2.7,0-3.6-.4-1.4-.4-2.7-1-4.3-2.3l-.4-.4h.1ZM12,2.5l.3.2c1.5,1,2.9,1.7,4.5,2,.7,0,1,.2,2,.2h.2v10.7c-.3,1.5-1.1,2.4-3.8,4.1-.4.2-1.2.8-1.9,1.2-.7.4-1.3.8-1.3.8,0,0-2.8-1.7-3.3-2-2.5-1.6-3.3-2.5-3.6-4V5h.6c.3,0,1.1,0,1.4-.2,1.7-.3,3.1-.9,4.6-1.9l.4-.3h0Z"/>
  <path id="path3032" class="st2" d="M12,0l-.4.3c-2.1,1.7-3.7,2.4-6.1,2.6h-2.5v12.2c0,.4,0,.8.2,1.2.4,1.7,1.5,3,4,4.6.7.4.9.6,3.3,2,.6.4,1.2.8,1.3.8h.2c0,.1.2,0,.5-.2.3-.2.9-.6,1.5-.9,3.4-2.1,4.2-2.6,5.2-3.6s1.7-2.4,1.9-4V3h-2.5c-2.4-.2-4-.9-6.1-2.6l-.4-.3h-.1ZM12,2.5l.4.3c1.8,1.2,3.4,1.8,5.5,2.1h1.1v10.7c-.2,1.2-.9,2.1-2.3,3.1-.6.5-1.5,1-3.6,2.3-.6.3-1,.6-1,.6,0,0-1.7-1-2.5-1.5-1.7-1.1-2.6-1.7-3.2-2.3-.7-.7-1.1-1.3-1.3-2.3V4.8h.4c2.5-.2,4.2-.8,6.2-2.1l.4-.3h-.1Z"/>
  <path id="path1787" class="st2" d="M8.6,17.8c-.2-.1-.2-.3-.2-.5h0c0-.1.5-1,.5-1,.5-1,.6-1,.7-1h.5c.1,0,.2,0,.2.2v.2q0,.2-.5,1.2l-.5.9h0c-.2.2-.5.2-.7,0h0Z"/>
  <path id="path1826" class="st2" d="M7.7,13.2c-.2-.3-.2-.7,0-.8,0,0,.7-.4,1.5-.9l1.4-.8,1-1.7c.9-1.6,1-1.8,1.1-1.9s.2-.2,1.1-.6c.6-.3,1-.5,1.1-.5.3,0,.6.2.7.4,0,0,.2,2.2.2,2.4h0c0,.1-1,1.9-1,1.9l-1,1.8v3.5c0,.3-.3.5-.6.5h-.1l-2.7-1.5-2.7-1.8Z"/>
</svg>