<?xml version="1.0" encoding="UTF-8"?>
<!DOCTYPE svg PUBLIC "-//W3C//DTD SVG 1.1//EN" "http://www.w3.org/Graphics/SVG/1.1/DTD/svg11.dtd">
<svg xmlns="http://www.w3.org/2000/svg" version="1.1" width="2486px" height="2486px" style="shape-rendering:geometricPrecision; text-rendering:geometricPrecision; image-rendering:optimizeQuality; fill-rule:evenodd; clip-rule:evenodd" xmlns:xlink="http://www.w3.org/1999/xlink">
<g><path style="opacity:1" fill="#fefffe" d="M 1211.5,-0.5 C 1232.17,-0.5 1252.83,-0.5 1273.5,-0.5C 1588.52,11.386 1861.52,123.219 2092.5,335C 2290.11,522.982 2414.61,751.815 2466,1021.5C 2476.93,1083.86 2483.43,1146.53 2485.5,1209.5C 2485.5,1231.5 2485.5,1253.5 2485.5,1275.5C 2473.18,1590.32 2361.01,1862.99 2149,2093.5C 1927.26,2324.93 1655.76,2454.43 1334.5,2482C 1313.35,2483.33 1292.35,2484.5 1271.5,2485.5C 1252.17,2485.5 1232.83,2485.5 1213.5,2485.5C 909.24,2475.11 643.24,2370.28 415.5,2171C 184.306,1961.15 48.4731,1700.32 8,1388.5C 3.8089,1351.11 0.975569,1313.78 -0.5,1276.5C -0.5,1253.83 -0.5,1231.17 -0.5,1208.5C 13.2705,874.898 137.271,590.398 371.5,355C 605.561,130.536 885.561,12.0356 1211.5,-0.5 Z M 1227.5,417.5 C 1472.71,417.901 1679.54,506.234 1848,682.5C 2011.78,865.164 2083.44,1079.5 2063,1325.5C 2038.21,1541.6 1945.04,1721.44 1783.5,1865C 1628.2,1997.23 1447.87,2064.73 1242.5,2067.5C 1027.53,2064.38 840.864,1991.22 682.5,1848C 510.155,1683.73 421.822,1481.9 417.5,1242.5C 422.049,997.3 514.049,792.133 693.5,627C 845.992,493.75 1023.99,423.917 1227.5,417.5 Z"/></g>
<g><path style="opacity:1" fill="#fefffe" d="M 1221.5,805.5 C 1373.25,802.47 1495.42,860.47 1588,979.5C 1667.19,1092.15 1689.86,1215.48 1656,1349.5C 1622.81,1462.33 1555.65,1548.5 1454.5,1608C 1351.93,1663.95 1243.93,1677.62 1130.5,1649C 1004.57,1612.06 912.399,1534.89 854,1417.5C 806.01,1310.63 800.676,1201.63 838,1090.5C 879.271,979.559 953.105,898.059 1059.5,846C 1111.02,822.134 1165.02,808.634 1221.5,805.5 Z"/></g>
</svg>
