<?xml version="1.0" encoding="UTF-8" standalone="no"?>
<svg
   version="1.1"
   x="0px"
   y="0px"
   viewBox="0 0 100 125"
   enable-background="new 0 0 100 100"
   xml:space="preserve"
   id="svg2"
   sodipodi:docname="XIcon.svg"
   inkscape:version="1.4 (e7c3feb1, 2024-10-09)"
   xmlns:inkscape="http://www.inkscape.org/namespaces/inkscape"
   xmlns:sodipodi="http://sodipodi.sourceforge.net/DTD/sodipodi-0.dtd"
   xmlns="http://www.w3.org/2000/svg"
   xmlns:svg="http://www.w3.org/2000/svg"><defs
     id="defs2" /><sodipodi:namedview
     id="namedview2"
     pagecolor="#ffffff"
     bordercolor="#000000"
     borderopacity="0.25"
     inkscape:showpageshadow="2"
     inkscape:pageopacity="0.0"
     inkscape:pagecheckerboard="0"
     inkscape:deskcolor="#d1d1d1"
     showguides="true"
     inkscape:zoom="7.128"
     inkscape:cx="50.014029"
     inkscape:cy="62.570146"
     inkscape:window-width="1200"
     inkscape:window-height="1027"
     inkscape:window-x="0"
     inkscape:window-y="25"
     inkscape:window-maximized="0"
     inkscape:current-layer="svg2"><sodipodi:guide
       position="2.8058361,8.9786756"
       orientation="1,0"
       id="guide4"
       inkscape:locked="false" /></sodipodi:namedview><g
     id="g1"><path
       fill="#000000"
       d="M32.4,50.6L10,27.4C5,22.4,5,15,10,10s12.4-5,17.4,0l22.4,22.4L72.2,10c5-5,13.3-5,18.2,0   c5,5,5,13.3,0,18.2L68,50.6L90.4,73c5,5,5,12.4,0,17.4s-12.4,5-17.4,0L50.6,68L28.2,90.4c-5,5-13.3,5-18.2,0c-5-5-5-13.3,0-18.2   L32.4,50.6z"
       id="path1" /></g><path
     id="text1"
     d="m 1.8710938,111.35156 c -0.2428476,0.008 -0.4668951,0.0512 -0.6660157,0.13867 -0.21666657,0.0967 -0.40078124,0.2304 -0.55078122,0.40039 -0.15000001,0.17002 -0.26375003,0.36961 -0.34375,0.59961 -0.08,0.22667 -0.12109374,0.47357 -0.12109376,0.74024 0,0.26 0.0410938,0.5038 0.12109376,0.73047 0.0781857,0.21826 0.18899167,0.40817 0.33398437,0.57226 -0.21328325,-0.47331 -0.14364514,-1.11789 0.38085935,-1.75586 v -0.002 c 0.036667,-0.14667 0.093255,-0.27729 0.1699219,-0.39062 0.076667,-0.11667 0.1754948,-0.20873 0.2988281,-0.27539 0.033595,-0.0191 0.078732,-0.0225 0.1171875,-0.0352 0.02316,-0.0622 0.045972,-0.12454 0.070312,-0.18555 0.067325,-0.17696 0.1406729,-0.3541 0.1894532,-0.53711 z m 2.1269531,3.5625 c -0.00739,0.0111 -0.015585,0.0209 -0.023437,0.0312 v 0.0391 c 0.034629,0.002 0.065377,0.002 0.109375,0.004 -0.029676,-0.0224 -0.057857,-0.0486 -0.085938,-0.0742 z" /><path
     style="fill:#ffffff;fill-opacity:0;stroke-width:0.140292"
     d="M 17.606622,93.991059 C 13.826287,93.543887 10.499508,91.456496 8.3712295,88.196299 5.5421317,83.862556 5.7187382,77.889645 8.7991646,73.723345 9.1414642,73.260382 14.603688,67.89422 20.93744,61.798541 27.271192,55.702862 32.458798,50.679223 32.465453,50.634898 32.472109,50.590572 27.388736,45.287542 21.169071,38.850386 14.949407,32.41323 9.515813,26.736111 9.0944188,26.234568 8.1549179,25.116375 7.0358258,22.895389 6.6620094,21.407132 6.091467,19.135659 6.372369,16.126456 7.3578281,13.953073 8.2288113,12.03216 9.9844592,9.9130535 11.784512,8.6099646 12.736195,7.9210253 14.797593,6.959301 15.993266,6.6464139 c 1.457691,-0.3814529 4.131902,-0.3529485 5.582001,0.059499 1.397427,0.3974659 2.640335,0.9627926 3.766652,1.7132326 0.591685,0.3942254 4.842632,4.5384155 12.608143,12.2915065 6.443521,6.433216 11.777249,11.696755 11.852727,11.696755 0.07548,0 5.409568,-5.26278 11.85353,-11.695067 6.443963,-6.432286 12.015576,-11.8957686 12.381362,-12.1410719 5.030426,-3.3735 11.655114,-2.8620662 15.998314,1.2350891 3.858771,3.6401698 5.079509,9.3511758 3.04398,14.2407348 -0.965556,2.319368 -1.110698,2.479655 -13.453506,14.857348 -6.371719,6.389727 -11.613443,11.647604 -11.648277,11.684173 -0.03483,0.03657 5.242083,5.383106 11.726483,11.881193 7.251113,7.266422 11.980709,12.111748 12.285687,12.586311 2.171916,3.379631 2.643789,7.055475 1.358676,10.583967 -1.948338,5.349481 -7.575823,9.005124 -12.856614,8.351723 -1.610301,-0.199245 -3.483027,-0.832086 -4.87514,-1.64743 -1.008475,-0.590652 -2.33296,-1.864378 -13.055767,-12.555433 L 50.628084,67.890849 39.062639,79.438012 c -6.731511,6.720871 -11.95576,11.825682 -12.499294,12.213533 -1.774171,1.265998 -3.851455,2.056129 -6.147207,2.338195 -1.301057,0.159855 -1.468611,0.159933 -2.809516,0.0013 z"
     id="path6" /><path
     style="fill:#ffffff;fill-opacity:0;stroke-width:0.140292"
     d="M 17.606622,93.991059 C 13.826287,93.543887 10.499508,91.456496 8.3712295,88.196299 5.5421317,83.862556 5.7187382,77.889645 8.7991646,73.723345 9.1414642,73.260382 14.603688,67.89422 20.93744,61.798541 27.271192,55.702862 32.458798,50.679223 32.465453,50.634898 32.472109,50.590572 27.388736,45.287542 21.169071,38.850386 14.949407,32.41323 9.515813,26.736111 9.0944188,26.234568 8.1549179,25.116375 7.0358258,22.895389 6.6620094,21.407132 6.091467,19.135659 6.372369,16.126456 7.3578281,13.953073 8.2288113,12.03216 9.9844592,9.9130535 11.784512,8.6099646 12.736195,7.9210253 14.797593,6.959301 15.993266,6.6464139 c 1.457691,-0.3814529 4.131902,-0.3529485 5.582001,0.059499 1.397427,0.3974659 2.640335,0.9627926 3.766652,1.7132326 0.591685,0.3942254 4.842632,4.5384155 12.608143,12.2915065 6.443521,6.433216 11.777249,11.696755 11.852727,11.696755 0.07548,0 5.409568,-5.26278 11.85353,-11.695067 6.443963,-6.432286 12.015576,-11.8957686 12.381362,-12.1410719 5.030426,-3.3735 11.655114,-2.8620662 15.998314,1.2350891 3.858771,3.6401698 5.079509,9.3511758 3.04398,14.2407348 -0.965556,2.319368 -1.110698,2.479655 -13.453506,14.857348 -6.371719,6.389727 -11.613443,11.647604 -11.648277,11.684173 -0.03483,0.03657 5.242083,5.383106 11.726483,11.881193 7.251113,7.266422 11.980709,12.111748 12.285687,12.586311 2.171916,3.379631 2.643789,7.055475 1.358676,10.583967 -1.948338,5.349481 -7.575823,9.005124 -12.856614,8.351723 -1.610301,-0.199245 -3.483027,-0.832086 -4.87514,-1.64743 -1.008475,-0.590652 -2.33296,-1.864378 -13.055767,-12.555433 L 50.628084,67.890849 39.062639,79.438012 c -6.731511,6.720871 -11.95576,11.825682 -12.499294,12.213533 -1.774171,1.265998 -3.851455,2.056129 -6.147207,2.338195 -1.301057,0.159855 -1.468611,0.159933 -2.809516,0.0013 z"
     id="path7" /><path
     style="fill:#ffffff;fill-opacity:0;stroke-width:0.140292"
     d="M 17.606622,93.991059 C 13.826287,93.543887 10.499508,91.456496 8.3712295,88.196299 5.5421317,83.862556 5.7187382,77.889645 8.7991646,73.723345 9.1414642,73.260382 14.603688,67.89422 20.93744,61.798541 27.271192,55.702862 32.458798,50.679223 32.465453,50.634898 32.472109,50.590572 27.388736,45.287542 21.169071,38.850386 14.949407,32.41323 9.515813,26.736111 9.0944188,26.234568 8.1549179,25.116375 7.0358258,22.895389 6.6620094,21.407132 6.091467,19.135659 6.372369,16.126456 7.3578281,13.953073 8.2288113,12.03216 9.9844592,9.9130535 11.784512,8.6099646 12.736195,7.9210253 14.797593,6.959301 15.993266,6.6464139 c 1.457691,-0.3814529 4.131902,-0.3529485 5.582001,0.059499 1.397427,0.3974659 2.640335,0.9627926 3.766652,1.7132326 0.591685,0.3942254 4.842632,4.5384155 12.608143,12.2915065 6.443521,6.433216 11.777249,11.696755 11.852727,11.696755 0.07548,0 5.409568,-5.26278 11.85353,-11.695067 6.443963,-6.432286 12.015576,-11.8957686 12.381362,-12.1410719 5.030426,-3.3735 11.655114,-2.8620662 15.998314,1.2350891 3.858771,3.6401698 5.079509,9.3511758 3.04398,14.2407348 -0.965556,2.319368 -1.110698,2.479655 -13.453506,14.857348 -6.371719,6.389727 -11.613443,11.647604 -11.648277,11.684173 -0.03483,0.03657 5.242083,5.383106 11.726483,11.881193 7.251113,7.266422 11.980709,12.111748 12.285687,12.586311 2.171916,3.379631 2.643789,7.055475 1.358676,10.583967 -1.948338,5.349481 -7.575823,9.005124 -12.856614,8.351723 -1.610301,-0.199245 -3.483027,-0.832086 -4.87514,-1.64743 -1.008475,-0.590652 -2.33296,-1.864378 -13.055767,-12.555433 L 50.628084,67.890849 39.062639,79.438012 c -6.731511,6.720871 -11.95576,11.825682 -12.499294,12.213533 -1.774171,1.265998 -3.851455,2.056129 -6.147207,2.338195 -1.301057,0.159855 -1.468611,0.159933 -2.809516,0.0013 z"
     id="path8" /><path
     style="fill:#ffffff;fill-opacity:0;stroke-width:0.140292"
     d="M 17.606622,93.991059 C 13.826287,93.543887 10.499508,91.456496 8.3712295,88.196299 5.5421317,83.862556 5.7187382,77.889645 8.7991646,73.723345 9.1414642,73.260382 14.603688,67.89422 20.93744,61.798541 27.271192,55.702862 32.458798,50.679223 32.465453,50.634898 32.472109,50.590572 27.388736,45.287542 21.169071,38.850386 14.949407,32.41323 9.515813,26.736111 9.0944188,26.234568 8.1549179,25.116375 7.0358258,22.895389 6.6620094,21.407132 6.091467,19.135659 6.372369,16.126456 7.3578281,13.953073 8.2288113,12.03216 9.9844592,9.9130535 11.784512,8.6099646 12.736195,7.9210253 14.797593,6.959301 15.993266,6.6464139 c 1.457691,-0.3814529 4.131902,-0.3529485 5.582001,0.059499 1.397427,0.3974659 2.640335,0.9627926 3.766652,1.7132326 0.591685,0.3942254 4.842632,4.5384155 12.608143,12.2915065 6.443521,6.433216 11.777249,11.696755 11.852727,11.696755 0.07548,0 5.409568,-5.26278 11.85353,-11.695067 6.443963,-6.432286 12.015576,-11.8957686 12.381362,-12.1410719 5.030426,-3.3735 11.655114,-2.8620662 15.998314,1.2350891 3.858771,3.6401698 5.079509,9.3511758 3.04398,14.2407348 -0.965556,2.319368 -1.110698,2.479655 -13.453506,14.857348 -6.371719,6.389727 -11.613443,11.647604 -11.648277,11.684173 -0.03483,0.03657 5.242083,5.383106 11.726483,11.881193 7.251113,7.266422 11.980709,12.111748 12.285687,12.586311 2.171916,3.379631 2.643789,7.055475 1.358676,10.583967 -1.948338,5.349481 -7.575823,9.005124 -12.856614,8.351723 -1.610301,-0.199245 -3.483027,-0.832086 -4.87514,-1.64743 -1.008475,-0.590652 -2.33296,-1.864378 -13.055767,-12.555433 L 50.628084,67.890849 39.062639,79.438012 c -6.731511,6.720871 -11.95576,11.825682 -12.499294,12.213533 -1.774171,1.265998 -3.851455,2.056129 -6.147207,2.338195 -1.301057,0.159855 -1.468611,0.159933 -2.809516,0.0013 z"
     id="path9" /><path
     style="fill:#ffffff;fill-opacity:0;stroke-width:0.140292"
     d="M 17.606622,93.991059 C 13.826287,93.543887 10.499508,91.456496 8.3712295,88.196299 5.5421317,83.862556 5.7187382,77.889645 8.7991646,73.723345 9.1414642,73.260382 14.603688,67.89422 20.93744,61.798541 27.271192,55.702862 32.458798,50.679223 32.465453,50.634898 32.472109,50.590572 27.388736,45.287542 21.169071,38.850386 14.949407,32.41323 9.515813,26.736111 9.0944188,26.234568 8.1549179,25.116375 7.0358258,22.895389 6.6620094,21.407132 6.091467,19.135659 6.372369,16.126456 7.3578281,13.953073 8.2288113,12.03216 9.9844592,9.9130535 11.784512,8.6099646 12.736195,7.9210253 14.797593,6.959301 15.993266,6.6464139 c 1.457691,-0.3814529 4.131902,-0.3529485 5.582001,0.059499 1.397427,0.3974659 2.640335,0.9627926 3.766652,1.7132326 0.591685,0.3942254 4.842632,4.5384155 12.608143,12.2915065 6.443521,6.433216 11.777249,11.696755 11.852727,11.696755 0.07548,0 5.409568,-5.26278 11.85353,-11.695067 6.443963,-6.432286 12.015576,-11.8957686 12.381362,-12.1410719 5.030426,-3.3735 11.655114,-2.8620662 15.998314,1.2350891 3.858771,3.6401698 5.079509,9.3511758 3.04398,14.2407348 -0.965556,2.319368 -1.110698,2.479655 -13.453506,14.857348 -6.371719,6.389727 -11.613443,11.647604 -11.648277,11.684173 -0.03483,0.03657 5.242083,5.383106 11.726483,11.881193 7.251113,7.266422 11.980709,12.111748 12.285687,12.586311 2.171916,3.379631 2.643789,7.055475 1.358676,10.583967 -1.948338,5.349481 -7.575823,9.005124 -12.856614,8.351723 -1.610301,-0.199245 -3.483027,-0.832086 -4.87514,-1.64743 -1.008475,-0.590652 -2.33296,-1.864378 -13.055767,-12.555433 L 50.628084,67.890849 39.062639,79.438012 c -6.731511,6.720871 -11.95576,11.825682 -12.499294,12.213533 -1.774171,1.265998 -3.851455,2.056129 -6.147207,2.338195 -1.301057,0.159855 -1.468611,0.159933 -2.809516,0.0013 z"
     id="path10" /><path
     style="fill:#ffffff;fill-opacity:1;stroke-width:0.140292"
     d="M 17.606622,93.991059 C 13.826287,93.543887 10.499508,91.456496 8.3712295,88.196299 5.5421317,83.862556 5.7187382,77.889645 8.7991646,73.723345 9.1414642,73.260382 14.603688,67.89422 20.93744,61.798541 27.271192,55.702862 32.458798,50.679223 32.465453,50.634898 32.472109,50.590572 27.388736,45.287542 21.169071,38.850386 14.949407,32.41323 9.515813,26.736111 9.0944188,26.234568 8.1549179,25.116375 7.0358258,22.895389 6.6620094,21.407132 6.091467,19.135659 6.372369,16.126456 7.3578281,13.953073 8.2288113,12.03216 9.9844592,9.9130535 11.784512,8.6099646 12.736195,7.9210253 14.797593,6.959301 15.993266,6.6464139 c 1.457691,-0.3814529 4.131902,-0.3529485 5.582001,0.059499 1.397427,0.3974659 2.640335,0.9627926 3.766652,1.7132326 0.591685,0.3942254 4.842632,4.5384155 12.608143,12.2915065 6.443521,6.433216 11.777249,11.696755 11.852727,11.696755 0.07548,0 5.409568,-5.26278 11.85353,-11.695067 6.443963,-6.432286 12.015576,-11.8957686 12.381362,-12.1410719 5.030426,-3.3735 11.655114,-2.8620662 15.998314,1.2350891 3.858771,3.6401698 5.079509,9.3511758 3.04398,14.2407348 -0.965556,2.319368 -1.110698,2.479655 -13.453506,14.857348 -6.371719,6.389727 -11.613443,11.647604 -11.648277,11.684173 -0.03483,0.03657 5.242083,5.383106 11.726483,11.881193 7.251113,7.266422 11.980709,12.111748 12.285687,12.586311 2.171916,3.379631 2.643789,7.055475 1.358676,10.583967 -1.948338,5.349481 -7.575823,9.005124 -12.856614,8.351723 -1.610301,-0.199245 -3.483027,-0.832086 -4.87514,-1.64743 -1.008475,-0.590652 -2.33296,-1.864378 -13.055767,-12.555433 L 50.628084,67.890849 39.062639,79.438012 c -6.731511,6.720871 -11.95576,11.825682 -12.499294,12.213533 -1.774171,1.265998 -3.851455,2.056129 -6.147207,2.338195 -1.301057,0.159855 -1.468611,0.159933 -2.809516,0.0013 z"
     id="path11" /><path
     style="fill:#ffffff;fill-opacity:1;stroke-width:0.140292"
     d="M 16.764871,93.790944 C 8.7936758,92.077182 4.3711928,83.890742 7.401817,76.459035 8.376498,74.068918 8.75946,73.665784 24.375701,58.591049 c 4.456019,-4.301502 8.101852,-7.887133 8.101852,-7.968069 0,-0.08094 -0.617271,-0.787678 -1.371714,-1.570535 C 26.395161,44.164349 12.058006,29.239478 10.668933,27.777778 8.556955,25.555376 7.6734447,24.189818 6.9411959,22.01617 6.0694273,19.428365 6.4144397,15.935738 7.7970289,13.352411 9.4200043,10.319928 12.04743,8.1070849 15.432099,6.9220812 c 1.045805,-0.366146 1.27061,-0.3926869 3.296857,-0.3892334 2.008314,0.00342 2.260309,0.033455 3.296858,0.3929108 0.617284,0.2140625 1.621889,0.6530601 2.232456,0.9755502 1.352211,0.7142125 1.944969,1.2779858 15.548846,14.7885462 5.381567,5.344654 9.880896,9.717552 9.998508,9.717552 0.117614,0 4.585282,-4.340277 9.928154,-9.645061 C 74.641009,7.9613831 73.97463,8.5910853 75.547138,7.819338 c 2.178913,-1.0693554 3.193287,-1.2968193 5.751964,-1.2898238 2.361635,0.00646 3.160876,0.1539509 4.947753,0.9130731 3.038667,1.2909225 5.643148,3.9977087 6.877605,7.1477607 1.010345,2.578171 1.07593,5.938242 0.168408,8.627946 -0.477848,1.41624 -1.059647,2.419502 -2.197362,3.78916 -0.640354,0.7709 -6.105245,6.362942 -12.144203,12.426758 -6.038957,6.063815 -10.979923,11.099928 -10.979923,11.19136 0,0.09143 4.24605,4.441998 9.435665,9.667921 14.475632,14.576908 14.376337,14.472249 15.141048,15.958954 0.983297,1.911664 1.256424,2.927317 1.338273,4.976509 0.05855,1.465768 0.02159,1.956346 -0.225143,2.988405 -0.910485,3.808535 -3.513529,6.929323 -7.224799,8.661801 -2.778676,1.29713 -5.3897,1.439263 -8.356665,0.454899 C 76.503326,92.811042 75.514928,92.236448 74.165342,91.058457 73.497861,90.475845 67.974659,85.042911 61.89156,78.985271 55.808461,72.92763 50.772567,67.949947 50.700686,67.923749 c -0.07188,-0.0262 -4.974851,4.766498 -10.895488,10.650433 -5.920637,5.883935 -11.416233,11.286978 -12.212438,12.006762 -2.451295,2.216017 -4.99267,3.251113 -8.232491,3.353071 -1.10508,0.03478 -1.996813,-0.01438 -2.595398,-0.143071 z"
     id="path12" /><path
     style="fill:#ffffff;fill-opacity:1;stroke-width:0.140292"
     d="M 16.764871,93.793694 C 11.793638,92.7399 8.0249718,89.129554 6.7976911,84.24523 6.179351,81.784364 6.4479697,78.573872 7.4659006,76.258886 8.4528441,74.014371 8.4016571,74.06828 22.551908,60.370838 c 5.459105,-5.284414 9.925645,-9.667945 9.925645,-9.74118 0,-0.149557 0.307907,0.17451 -11.581838,-12.189703 C 7.785639,24.806712 8.7217173,25.84561 7.6734075,23.765293 6.3536676,21.146337 6.1059634,18.241257 6.9568895,15.361953 7.8335636,12.395524 10.370174,9.3720536 13.219253,7.8976319 c 2.353152,-1.2177756 2.986995,-1.3751025 5.509703,-1.3675704 1.99222,0.00595 2.266061,0.038339 3.266384,0.3863548 1.74785,0.6080837 2.973378,1.2977171 4.152394,2.3366508 0.605253,0.5333413 6.134543,5.9612529 12.287311,12.0620259 6.152768,6.100773 11.273062,11.092314 11.378431,11.092314 0.105369,0 4.661307,-4.434974 10.124305,-9.855499 C 74.696037,7.9083959 73.966995,8.5964254 75.547138,7.8206563 c 1.836368,-0.901562 3.104341,-1.2343771 5.050505,-1.3256478 3.794036,-0.1779317 6.896229,0.9946405 9.540147,3.6060015 2.529139,2.497996 3.787575,5.5045 3.787575,9.048822 0,1.762674 -0.27713,3.225019 -0.907378,4.788009 -0.918529,2.277908 -1.086522,2.462674 -14.346031,15.778189 -5.885317,5.910174 -10.700576,10.817097 -10.700576,10.904276 0,0.08718 4.245581,4.437186 9.434624,9.666686 14.56302,14.676562 14.379711,14.483286 15.142089,15.965455 0.983297,1.911664 1.256424,2.927317 1.338273,4.976509 0.05855,1.465768 0.02159,1.956346 -0.225143,2.988405 -0.910485,3.808535 -3.513529,6.929323 -7.224799,8.661801 -2.778676,1.29713 -5.3897,1.439263 -8.356665,0.454899 -1.517263,-0.503388 -2.527634,-1.074987 -3.76417,-2.129509 C 73.719794,90.696455 68.175139,85.245349 61.994136,79.090986 55.813133,72.936623 50.709077,67.901235 50.65179,67.901235 c -0.05729,0 -4.943284,4.808557 -10.857772,10.685684 -5.914488,5.877127 -11.405053,11.274519 -12.201258,11.994205 -2.463126,2.226407 -4.980672,3.25188 -8.232491,3.353344 -1.090656,0.03403 -2.004626,-0.01554 -2.595398,-0.140774 z"
     id="path13" /></svg>
