<?xml version="1.0" encoding="UTF-8"?>
<svg id="_レイヤー_1" xmlns="http://www.w3.org/2000/svg" xmlns:xlink="http://www.w3.org/1999/xlink" version="1.1" viewBox="0 0 512 512">
  <!-- Generator: Adobe Illustrator 29.3.1, SVG Export Plug-In . SVG Version: 2.1.0 Build 151)  -->
  <defs>
    <style>
      .st0 {
        fill: #fefffe;
        fill-rule: evenodd;
      }
    </style>
  </defs>
  <path class="st0" d="M511.5,301.5v18c-3,10.2-8.6,18.7-17,25.5-44.7,35.7-89.7,71-135,106-11.9,6.4-24.6,10.4-38,12-56.3.3-112.7.7-169,1-4.6.9-9,2.5-13,5-20.8,13.6-41.8,26.9-63,40-8.5,4.4-15.6,2.9-21.5-4.5-18.5-24.4-37-48.7-55.5-73v-9c3.4-4.9,7.4-9.4,12-13.5,34.3-30.6,68.3-61.6,102-93,35.7-26.3,74-31,115-14,12.7,7.3,26,13,40,17,21.3.7,42.7.7,64,0,8.3-7.2,17-13.8,26-20,18.4-8.1,35-5.6,50,7.5,13.5-10.3,26.8-20.8,40-31.5,22.7-11,41.9-6.5,57.5,13.5,2.3,4.3,4.1,8.6,5.5,13ZM468.5,295.5c14.4,1.5,19.2,9.2,14.5,23-44.5,36.2-89.4,72-134.5,107.5-8.5,4.7-17.5,8.1-27,10-58.7,0-117.4.7-176,2-7.1,1.6-13.8,4.2-20,8-18.2,11.5-36.3,23-54.5,34.5-13.3-17.1-26.5-34.3-39.5-51.5,32.6-31,65.6-61.6,99-92,24.7-18.5,51.7-22.8,81-13,11.8,5.4,23.5,11.1,35,17,6.8,2.4,13.8,4.1,21,5,22.7.3,45.3.7,68,1,8.7,3.7,11.2,9.8,7.5,18.5-2.5,3.8-6,6-10.5,6.5-52.7,2.8-105.4,6.1-158,10-7.9,4.5-10.1,11-6.5,19.5,1.9,2.2,4,4,6.5,5.5,55.4-2.1,110.7-5.1,166-9,13.8-3.2,23.3-11.3,28.5-24.5,29.6-24.5,59.4-48.7,89.5-72.5,3-2.7,6.3-4.5,10-5.5ZM377.5,320.5c3.4.3,6.4,1.5,9,3.5l-18,15c-.7.7-1.3.7-2,0-1.8-2.6-3.8-5.1-6-7.5,4.9-5,10.6-8.6,17-11Z"/>
  <g>
    <path class="st0" d="M192.7,113.5c0,38.5,31.8,69.8,71,69.8l37.9-12.8,2.2-5,2.5,3.1s2.7-1.7,3.2-1.9c15.5-12.8,25.3-32,25.3-53.5s-.9-13.1-2.7-19h-136.7c-1.8,6.1-2.7,12.5-2.7,19v.2h.1Z"/>
    <path class="st0" d="M263.6,16.9c-71,0-68.5,29-85.1,72.1h170.5c-16.8-42.9-14.2-72.1-85.2-72.1h-.1Z"/>
    <path class="st0" d="M261.2,216.6c-2,1.5-5.3,4.6-11.2,10.3-16.6,16.2-12.1,16.1-8.9,19.4s3.5,8.6,20.3-7.6c10-9.5,12.4-12,11.7-13.7,1.5,0,3-.4,4.7-1.7,5.6-4.3,9.6-17.8,8.8-26.4,14.9-6.3,29.6-12.5,44.5-18.7,8.8-3.7,15.7-10.5,30.8-16.7,3.2-1.3,5.3-2.3,7.4-3.1,3.3-1.4,6.7-2.7,17.6-7.3.2,0,.2-.6.2-1.4,4.8-2,9.7-4,14.5-6.1.8-.4-.2-2.9-1.1-2.6-4.8,2-9.4,3.9-14.1,5.8,0-.1,0-.2-.1-.4,5.2-2.1,10.4-4.3,15.6-6.4.8-.4-1.9-6.7-2.7-6.4-.9.4-1.8.7-2.7,1.2l-.9-2.1-3.6,1.5.9,2.1c-3.3,1.4-6.4,2.6-9.7,4-.5-.4-.8-.6-1.1-.5-10.8,4.4-17.5,7.3-17.5,7.3l-10.7,4.4-48,19.9-2.2-4.3s.5,2.4.6,4.9l-63.4,26.3c-.9.4-1.9.8-2.8,1.5l-10.5.6s3.5.7,6.9,1.8c-10.7,7.5-24.6,22.2-34.3,29.5-15.1,18.1-24,10-24,10,0,0-21.4,13.8-35.7,19.7,0,0,11,7.5,13.9,10.9,4.6,5.2,12.2,20.7,12.2,20.7l94.6-76.4h.2v.3ZM267.8,211.1c1.6,3.6,3.9,6.5,6.6,6.7,0,0-3.4-4.3-5-7.7l12.2-9.9c2.3,3.7,0,15.8-4.9,19.6-5.2,4-9.7-2.1-12.9-4.8,0,0-.1-.1-.2-.2l4.3-3.6h-.1ZM270.5,224.1c2.2,2.1,1.1,3.2-10,13.8-14.6,14-14.6,9.2-17.3,6.3s-7.1-2.4,7.4-16.4c6.9-6.7,10-9.5,11.7-10.2,2.2,2.1,5,5.1,8.2,6.5h0Z"/>
    <path class="st0" d="M120.5,266.7l52.5-29s11.4,10.3,30.6-12.7c12.3-9.3,13.9-13.1,27.4-22.7-4.2-1.3-8.8-2.3-8.8-2.3l13.7-1.7c1.3-.7,2.5-1.4,3.6-1.9l9.3-3.9c-23.2-3.8-43.2-16.2-57-33.8-42.7,21.6-71.4,61.7-71.4,107.8"/>
    <path class="st0" d="M354.9,170.7c-.2,0-.6.2-.8.4-18.9,8-45.9,19.5-64.8,27.3,1.3,10.9-.2,21.5-7.3,26.9-2,1.5-4,2.1-5.9,2,.9,2.1-2.3,5.2-14.9,17.5-14.3,13.9-17,7.7-20.9,3.7-4-4.2-6.3-4.9-4.6-8.8l-29,27.5h200.1c0-38.8-20.4-73.3-52.1-96.3h0l.2-.2Z"/>
  </g>
</svg>