<?xml version="1.0" encoding="UTF-8"?>
<svg id="_レイヤー_1" xmlns="http://www.w3.org/2000/svg" xmlns:xlink="http://www.w3.org/1999/xlink" version="1.1" viewBox="0 0 512 512">
  <!-- Generator: Adobe Illustrator 29.3.1, SVG Export Plug-In . SVG Version: 2.1.0 Build 151)  -->
  <defs>
    <style>
      .st0 {
        fill: #fefffe;
        fill-rule: evenodd;
      }
    </style>
  </defs>
  <path class="st0" d="M511.5,274.5v18c-3,10.2-8.6,18.7-17,25.5-44.7,35.7-89.7,71-135,106-11.9,6.4-24.6,10.4-38,12-56.3.3-112.7.7-169,1-4.6.9-9,2.5-13,5-20.8,13.6-41.8,26.9-63,40-8.5,4.4-15.6,2.9-21.5-4.5-18.5-24.4-37-48.7-55.5-73v-9c3.4-4.9,7.4-9.4,12-13.5,34.3-30.6,68.3-61.6,102-93,35.7-26.3,74-31,115-14,12.7,7.3,26,13,40,17,21.3.7,42.7.7,64,0,8.3-7.2,17-13.8,26-20,18.4-8.1,35-5.6,50,7.5,13.5-10.3,26.8-20.8,40-31.5,22.7-11,41.9-6.5,57.5,13.5,2.3,4.3,4.1,8.6,5.5,13ZM468.5,268.5c14.4,1.5,19.2,9.2,14.5,23-44.5,36.2-89.4,72-134.5,107.5-8.5,4.7-17.5,8.1-27,10-58.7,0-117.4.7-176,2-7.1,1.6-13.8,4.2-20,8-18.2,11.5-36.3,23-54.5,34.5-13.3-17.1-26.5-34.3-39.5-51.5,32.6-31,65.6-61.6,99-92,24.7-18.5,51.7-22.8,81-13,11.8,5.4,23.5,11.1,35,17,6.8,2.4,13.8,4.1,21,5,22.7.3,45.3.7,68,1,8.7,3.7,11.2,9.8,7.5,18.5-2.5,3.8-6,6-10.5,6.5-52.7,2.8-105.4,6.1-158,10-7.9,4.5-10.1,11-6.5,19.5,1.9,2.2,4,4,6.5,5.5,55.4-2.1,110.7-5.1,166-9,13.8-3.2,23.3-11.3,28.5-24.5,29.6-24.5,59.4-48.7,89.5-72.5,3-2.7,6.3-4.5,10-5.5ZM377.5,293.5c3.4.3,6.4,1.5,9,3.5l-18,15c-.7.7-1.3.7-2,0-1.8-2.6-3.8-5.1-6-7.5,4.9-5,10.6-8.6,17-11Z"/>
  <path class="st0" d="M383.2,21h7.8c1.7.7,2.9,2,3.7,3.7v7.8c-1,9.2-2,18.3-3,27.6-1.1,3.3-2.6,6.4-4.6,9.2-41.2,41.2-82.2,82.2-123.3,123.3-3.1,2.1-6.1,2.1-9.2,0l-8.9-8.9c-1.5-2.9-1.5-5.8,0-8.7,34.5-34.5,68.9-68.9,103.4-103.4,1.3-3.1.4-4.9-3-5.5-1.1,0-2,.5-2.7,1.2-34.1,34.1-68.3,68.3-102.4,102.4-2.5,1.7-5,2-7.8,1-3.6-3.1-7-6.4-10.3-9.9-1.7-3.4-1.4-6.7,1-9.6,41.3-40.8,82.3-81.7,123.3-122.9,3.3-2.4,6.9-3.9,11.1-4.6,8.4-.7,16.9-1.5,25.2-2.5v-.2Z"/>
  <path class="st0" d="M168.4,149.4c7.5,0,15,0,22.5.2,1,.1,1.9.5,2.7,1,23.2,23.3,46.5,46.5,70.1,69.6.7,1,1.3,2,1.8,3.2.4,8.4.4,16.9,0,25.2-3,5-6.8,5.7-11.5,2.3-.6-1.1-1.1-2.1-1.4-3.2-.1-6.5-.4-13.2-.5-19.7l-18.1-18.1c-5.7,3-11.2,6.3-16.5,10.1-1.4.7-3,.8-4.6.5-2.6-4.2-5.7-8-9.2-11.5-2.9-2-5.7-4-8.4-6.2-.4-1.1-.4-2.1,0-3.2,3-5.1,6.1-10.2,9.2-15.1.7-1,1.1-2,1-3.2l-18.1-18.1c-6.8-.1-13.4-.4-20.2-.5-4.3-1.8-5.6-5-3.9-9.4,1.3-2,3.1-3.2,5.2-3.7h.1Z"/>
  <path class="st0" d="M185.7,256h-9.2c-8.9-2.5-14.5-8.1-17-17v-9.2c5.6-15,15.9-19.9,31.3-14.9,12.4,8,15.1,18.7,8.4,31.9-1.2,1.1-2.1,2.1-3,3.4-3.2,2.6-6.7,4.5-10.6,5.7h0Z"/>
</svg>